<?xml version="1.0" encoding="utf-8"?>
<!-- Generator: Adobe Illustrator 25.2.1, SVG Export Plug-In . SVG Version: 6.00 Build 0)  -->
<svg version="1.1" id="Layer_1" xmlns="http://www.w3.org/2000/svg" xmlns:xlink="http://www.w3.org/1999/xlink" x="0px" y="0px"
	 viewBox="0 0 512 512" style="enable-background:new 0 0 512 512;" xml:space="preserve">
<style type="text/css">
	.st0{fill:#9EA9C9;}
	.st1{fill:#C9CEE2;}
	.st2{fill:#E3E7F0;}
	.st3{fill:#423D9B;}
	.st4{fill:#E93565;}
	.st5{fill:#4C5C75;}
	.st6{fill:#1D2943;}
	.st7{fill:#FFFFFF;}
	.st8{opacity:0.5;}
	.st9{enable-background:new    ;}
	.st10{fill:#5094FF;}
	.st11{fill:#57B3FE;}
	.st12{fill:#D84905;}
	.st13{fill:url(#SVGID_1_);}
	.st14{fill:#F67205;}
	.st15{fill:url(#SVGID_2_);}
	.st16{fill:#F69D05;}
	.st17{fill:url(#SVGID_3_);}
	.st18{opacity:0.7;fill:url(#SVGID_4_);enable-background:new    ;}
	.st19{fill:url(#SVGID_5_);}
	.st20{opacity:0.7;fill:url(#SVGID_6_);enable-background:new    ;}
	.st21{fill:url(#SVGID_7_);}
	.st22{fill:#BA3E05;}
	.st23{opacity:0.5;fill:url(#SVGID_8_);enable-background:new    ;}
	.st24{opacity:0.4;fill:url(#SVGID_9_);enable-background:new    ;}
	.st25{opacity:0.4;fill:url(#SVGID_10_);enable-background:new    ;}
	.st26{clip-path:url(#SVGID_12_);}
	.st27{fill-rule:evenodd;clip-rule:evenodd;fill:url(#SVGID_13_);}
	.st28{fill:url(#SVGID_14_);}
	.st29{fill:url(#SVGID_15_);}
	.st30{fill:url(#SVGID_16_);}
	.st31{opacity:0.7;fill:url(#SVGID_17_);enable-background:new    ;}
	.st32{fill:url(#SVGID_18_);}
	.st33{opacity:0.7;fill:url(#SVGID_19_);enable-background:new    ;}
	.st34{fill:url(#SVGID_20_);}
	.st35{opacity:0.5;fill:url(#SVGID_21_);enable-background:new    ;}
	.st36{opacity:0.4;fill:url(#SVGID_22_);enable-background:new    ;}
	.st37{opacity:0.4;fill:url(#SVGID_23_);enable-background:new    ;}
	.st38{clip-path:url(#SVGID_25_);}
	.st39{fill-rule:evenodd;clip-rule:evenodd;fill:url(#SVGID_26_);}
</style>
<g>
	<g>
		<g>
			<g>
				<g>
					<g>
						<g>
							<g>
								<g>
									<path class="st0" d="M443.5,159.9l-21.1-11.8v-4.7l21.1,12.7V159.9z"/>
								</g>
							</g>
						</g>
					</g>
				</g>
			</g>
			<g>
				<g>
					<g>
						<g>
							<g>
								<g>
									<g>
										<g>
											<path class="st1" d="M444.5,315.3l-0.1,20.1c0,1.1-0.8,2.2-2.2,3l-98.5,57.2c-0.6,0.4-1.3,0.7-2.1,0.9
												c-2.7,0.9-6.1,0.6-8.4-0.9L234,338.4c-1.5-0.8-2.2-1.8-2.2-3l0.1-20.1c0-1.1,0.7-2.2,2.2-3l7.2-4.2v-2.6l-7.4-4.3
												c-1.5-0.9-2.2-1.9-2.2-3.1l0.1-127.5v-0.4c0,0.1,0,0.1,0,0.2c-0.1-1.1,0.5-2.3,2.1-3.2l6.5-3.8l-6.4-3.7
												c-1.5-0.8-2.2-1.9-2.2-3l0.1-38.7c0-1.1,0.7-2.2,2.2-3.1l98.5-57.3c2.8-1.6,7.6-1.6,10.4,0l99.2,57.2
												c1.5,0.9,2.2,2,2.2,3.1l-0.1,38.7c0,1.1-0.8,2.2-2.2,3l-6.4,3.7l6.3,3.7c1.5,0.9,2.3,2,2.3,3.1L444.1,298
												c0,1.1-0.7,2.2-2.2,3.1l-7,4v2.9l7.3,4.2C443.8,313.1,444.5,314.1,444.5,315.3z"/>
										</g>
									</g>
								</g>
							</g>
						</g>
					</g>
				</g>
				<g>
					<g>
						<g>
							<g>
								<g>
									<path class="st1" d="M444.5,315.3l-0.1,20.1c0,1.1-0.8,2.2-2.2,3l-98.5,57.2c-2.8,1.8-7.5,1.8-10.4,0L234,338.4
										c-1.5-0.8-2.2-1.8-2.2-3l0.1-20.1c0,1.1,0.8,2.2,2.2,3.1h208.1C443.8,317.5,444.5,316.4,444.5,315.3z"/>
								</g>
							</g>
						</g>
						<g>
							<g>
								<g>
									<path class="st2" d="M442.3,318.3l-98.5,57.2c-2.9,1.7-7.6,1.7-10.5,0l-99.2-57.2c-2.9-1.7-2.9-4.4,0-6l98.5-57.3
										c2.9-1.7,7.6-1.7,10.4,0l99.2,57.2C445.2,313.9,445.2,316.6,442.3,318.3z"/>
								</g>
							</g>
						</g>
						<g>
							<g>
								<g>
									<path class="st3" d="M435,297.8l-0.2,18.3c0,1-0.7,2-2,2.8L343.1,371c-2.6,1.6-6.9,1.6-9.5,0l-90.4-52.2
										c-1.3-0.8-2-1.7-2-2.8l0.2-18.3c0,1,0.7,2,2,2.8l90.3,52.2c2.7,1.5,6.9,1.5,9.6,0l89.7-52.2
										C434.4,299.7,435,298.8,435,297.8z"/>
								</g>
							</g>
						</g>
						<g>
							<g>
								<g>
									<g>
										<path class="st1" d="M444.3,170.2l-0.2,127.9c0,1.1-0.8,2.2-2.2,3.1l-98.6,57.2c-0.6,0.4-1.4,0.7-2.2,0.9
											c-0.6,0.1-1.2,0.2-1.8,0.3c-2.3,0.3-4.7-0.1-6.5-1.2l-99.2-57.2c-1.5-0.9-2.2-2-2.2-3.1l0.1-127.8c0,1.1,0.8,2.1,2.3,3
											l99.2,57.2c1.7,1,4.1,1.5,6.3,1.3v-0.1c1.5-0.1,3-0.5,4.1-1.2l98.6-57.2C443.5,172.4,444.2,171.3,444.3,170.2z"/>
									</g>
								</g>
							</g>
							<g>
								<g>
									<g>
										<path class="st2" d="M442.1,173.2l-98.5,57.2c-2.9,1.7-7.6,1.7-10.5,0L234,173.2c-2.9-1.7-2.9-4.4,0-6l98.5-57.3
											c2.9-1.7,7.6-1.7,10.4,0l99.2,57.2C445,168.8,445,171.5,442.1,173.2z"/>
									</g>
								</g>
							</g>
						</g>
						<g>
							<g>
								<g>
									<path class="st3" d="M434.6,153.8l-0.2,18.3c0,1-0.7,2-2,2.8l-89.7,52.2c-2.6,1.6-6.9,1.6-9.5,0l-90.4-52.2
										c-1.3-0.8-2-1.7-2-2.8l0.2-18.3c0,1,0.7,2,2,2.8l90.3,52.2c2.7,1.5,6.9,1.5,9.6,0l89.7-52.2
										C433.9,155.8,434.5,154.8,434.6,153.8z"/>
								</g>
							</g>
						</g>
						<g>
							<g>
								<g>
									<g>
										<path class="st1" d="M444.5,118.1l-0.1,38.7c0,1.1-0.8,2.2-2.2,3L343.6,217c-2.8,1.8-7.5,1.8-10.4,0L234,159.7
											c-1.5-0.8-2.2-1.9-2.2-3l0.1-38.7c0,1.1,0.8,2.1,2.2,3h208.1C443.8,120.2,444.5,119.2,444.5,118.1z"/>
									</g>
								</g>
							</g>
							<g>
								<g>
									<g>
										<path class="st2" d="M442.3,121.1l-98.5,57.2c-2.9,1.7-7.6,1.7-10.5,0l-99.2-57.2c-2.9-1.7-2.9-4.4,0-6l98.5-57.3
											c2.9-1.7,7.6-1.7,10.4,0l99.2,57.2C445.2,116.7,445.2,119.4,442.3,121.1z"/>
									</g>
								</g>
							</g>
						</g>
						<g>
							<g>
								<g>
									<path class="st0" d="M299.6,229.5v7.4l-58.9-33.1v-8.3L299.6,229.5z"/>
								</g>
							</g>
						</g>
						<g>
							<g>
								<g>
									<path class="st0" d="M299.6,247.5v7.4l-58.9-33.1v-8.3L299.6,247.5z"/>
								</g>
							</g>
						</g>
						<g>
							<g>
								<g>
									<path class="st0" d="M299.6,265.4v7.4l-58.9-33.1v-8.3L299.6,265.4z"/>
								</g>
							</g>
						</g>
						<g>
							<g>
								<g>
									<path class="st0" d="M299.6,283.4v7.4l-58.9-33.1v-8.3L299.6,283.4z"/>
								</g>
							</g>
						</g>
					</g>
				</g>
			</g>
		</g>
	</g>
	<g>
		<g>
			<g>
				<path class="st4" d="M369.8,239.2v8.1l-7,4.1v-8.1L369.8,239.2z"/>
			</g>
		</g>
		<g>
			<g>
				<path class="st4" d="M382.6,231.9v8.1l-7,4v-8.1L382.6,231.9z"/>
			</g>
		</g>
		<g>
			<g>
				<path class="st4" d="M395.3,224.5v8.1l-7,4v-8.1L395.3,224.5z"/>
			</g>
		</g>
		<g>
			<g>
				<path class="st4" d="M408,217.2v8.1l-7,4.1v-8.1L408,217.2z"/>
			</g>
		</g>
		<g>
			<g>
				<path class="st4" d="M420.7,209.9v8.1l-7,4v-8.1L420.7,209.9z"/>
			</g>
		</g>
		<g>
			<g>
				<path class="st4" d="M357.2,258.7v8l-7,4v-8L357.2,258.7z"/>
			</g>
		</g>
		<g>
			<g>
				<path class="st4" d="M369.9,251.4v8l-7,4.1v-8L369.9,251.4z"/>
			</g>
		</g>
		<g>
			<g>
				<path class="st4" d="M382.6,244v8l-7,4v-8L382.6,244z"/>
			</g>
		</g>
		<g>
			<g>
				<path class="st4" d="M395.3,236.7v8l-7,4v-8L395.3,236.7z"/>
			</g>
		</g>
		<g>
			<g>
				<path class="st4" d="M408,229.3v8l-7,4.1v-8L408,229.3z"/>
			</g>
		</g>
		<g>
			<g>
				<path class="st4" d="M420.7,222v8l-7,4v-8L420.7,222z"/>
			</g>
		</g>
		<g>
			<g>
				<path class="st4" d="M433.4,214.7v8l-7,4.1v-8L433.4,214.7z"/>
			</g>
		</g>
		<g>
			<g>
				<path class="st4" d="M357.2,270.9v8l-7,4v-8L357.2,270.9z"/>
			</g>
		</g>
		<g>
			<g>
				<path class="st4" d="M369.9,263.5v8l-7,4.1v-8L369.9,263.5z"/>
			</g>
		</g>
		<g>
			<g>
				<path class="st4" d="M382.6,256.2v8l-7,4v-8L382.6,256.2z"/>
			</g>
		</g>
		<g>
			<g>
				<path class="st4" d="M395.3,248.8v8l-7,4v-8L395.3,248.8z"/>
			</g>
		</g>
		<g>
			<g>
				<path class="st4" d="M408.1,241.5v8l-7,4.1v-8L408.1,241.5z"/>
			</g>
		</g>
		<g>
			<g>
				<path class="st4" d="M420.8,234.2v8l-7,4v-8L420.8,234.2z"/>
			</g>
		</g>
		<g>
			<g>
				<path class="st4" d="M433.5,226.8v8l-7,4.1v-8L433.5,226.8z"/>
			</g>
		</g>
		<g>
			<g>
				<path class="st4" d="M357.2,283v8.1l-7,4V287L357.2,283z"/>
			</g>
		</g>
		<g>
			<g>
				<path class="st4" d="M369.9,275.6v8.1l-7,4.1v-8.1L369.9,275.6z"/>
			</g>
		</g>
		<g>
			<g>
				<path class="st4" d="M382.7,268.3v8.1l-7,4v-8.1L382.7,268.3z"/>
			</g>
		</g>
		<g>
			<g>
				<path class="st4" d="M395.4,261v8.1l-7,4V265L395.4,261z"/>
			</g>
		</g>
		<g>
			<g>
				<path class="st4" d="M408.1,253.6v8.1l-7,4.1v-8.1L408.1,253.6z"/>
			</g>
		</g>
		<g>
			<g>
				<path class="st4" d="M420.8,246.3v8.1l-7,4v-8.1L420.8,246.3z"/>
			</g>
		</g>
		<g>
			<g>
				<path class="st4" d="M433.5,238.9v8.1l-7,4.1V243L433.5,238.9z"/>
			</g>
		</g>
		<g>
			<g>
				<path class="st4" d="M357.3,295.1v8.1l-7,4v-8.1L357.3,295.1z"/>
			</g>
		</g>
		<g>
			<g>
				<path class="st4" d="M370,287.8v8.1l-7,4.1v-8.1L370,287.8z"/>
			</g>
		</g>
		<g>
			<g>
				<path class="st4" d="M382.7,280.4v8.1l-7,4v-8.1L382.7,280.4z"/>
			</g>
		</g>
		<g>
			<g>
				<path class="st4" d="M395.4,273.1v8.1l-7,4v-8.1L395.4,273.1z"/>
			</g>
		</g>
		<g>
			<g>
				<path class="st4" d="M408.1,265.8v8.1l-7,4.1v-8.1L408.1,265.8z"/>
			</g>
		</g>
		<g>
			<g>
				<path class="st4" d="M420.8,258.4v8.1l-7,4v-8.1L420.8,258.4z"/>
			</g>
		</g>
		<g>
			<g>
				<path class="st4" d="M433.6,251.1v8.1l-7,4.1v-8.1L433.6,251.1z"/>
			</g>
		</g>
		<g>
			<g>
				<path class="st4" d="M357.3,307.3v8l-7,4v-8L357.3,307.3z"/>
			</g>
		</g>
		<g>
			<g>
				<path class="st4" d="M370,299.9v8l-7,4.1v-8L370,299.9z"/>
			</g>
		</g>
		<g>
			<g>
				<path class="st4" d="M382.7,292.6v8l-7,4v-8L382.7,292.6z"/>
			</g>
		</g>
		<g>
			<g>
				<path class="st4" d="M395.4,285.3v8l-7,4v-8L395.4,285.3z"/>
			</g>
		</g>
		<g>
			<g>
				<path class="st4" d="M408.2,277.9v8l-7,4.1v-8L408.2,277.9z"/>
			</g>
		</g>
		<g>
			<g>
				<path class="st4" d="M420.9,270.6v8l-7,4v-8L420.9,270.6z"/>
			</g>
		</g>
		<g>
			<g>
				<path class="st4" d="M433.6,263.2v8l-7,4.1v-8L433.6,263.2z"/>
			</g>
		</g>
		<g>
			<g>
				<path class="st4" d="M370.1,312.1v8.1l-7,4.1v-8.1L370.1,312.1z"/>
			</g>
		</g>
		<g>
			<g>
				<path class="st4" d="M382.8,304.7v8.1l-7,4v-8.1L382.8,304.7z"/>
			</g>
		</g>
		<g>
			<g>
				<path class="st4" d="M395.5,297.4v8.1l-7,4v-8.1L395.5,297.4z"/>
			</g>
		</g>
		<g>
			<g>
				<path class="st4" d="M408.2,290v8.1l-7,4.1v-8.1L408.2,290z"/>
			</g>
		</g>
		<g>
			<g>
				<path class="st4" d="M420.9,282.7v8.1l-7,4v-8.1L420.9,282.7z"/>
			</g>
		</g>
	</g>
</g>
<g>
	<g>
		<g>
			<path class="st1" d="M407.3,120.1l-65.4,38c-1.9,1.1-5,1.1-6.9,0l-65.8-38c-1.9-1.1-1.9-2.9,0-4l65.4-38c1.9-1.1,5-1.1,6.9,0
				l65.8,38C409.2,117.1,409.2,118.9,407.3,120.1z"/>
		</g>
	</g>
</g>
<g>
	<g>
		<g>
			<g>
				<g>
					<g>
						<g>
							<g>
								<path class="st5" d="M308.7,98.8c16.2-9.3,42.5-9.4,58.8,0.1c9.1,5.4,13,12.7,11.6,19.6c-0.9-5.1-4.9-10.1-11.6-14
									c-16.4-9.5-42.6-9.4-58.8-0.1c-6.9,4-10.9,9.1-11.9,14.3C295.3,111.6,299.3,104.2,308.7,98.8z"/>
							</g>
						</g>
					</g>
					<g>
						<g>
							<g>
								<path class="st6" d="M308.7,104.4c16.2-9.3,42.5-9.4,58.8,0.1c6.7,3.9,10.7,8.9,11.6,14c-1,5.2-5,10.3-11.9,14.3
									c-16.3,9.3-42.5,9.3-58.6,0c-6.9-3.9-10.8-9-11.8-14.2C297.8,113.5,301.8,108.4,308.7,104.4z"/>
							</g>
						</g>
					</g>
				</g>
				<g>
					<g>
						<g>
							<g>
								<g>
									<path class="st7" d="M342,116.2c-2.4-1.4-5.9-1.4-8.3,0c-2.4,1.3-2.2,3.4-0.1,4.7c2.4,1.4,6,1.4,8.4,0.2
										c2.4-1.4,2.4-3.5,0.2-4.8C342.2,116.3,342.1,116.2,342,116.2z"/>
								</g>
							</g>
						</g>
					</g>
					<g>
						<g>
							<g>
								<g>
									<path class="st7" d="M365.6,116.6c-0.4-0.2-0.9-0.5-1.5-0.7c-4.6-1.7-9.8-2.4-15.1-1.7l-2-0.7c5.7-1.9,11.7-2.5,18.3-2
										L365,111l-0.3-0.4c-1.4-1.6-3.3-3.1-5.4-4.4c-1-0.6-2.1-1.1-3.3-1.6c-2.5-1.1-5.4-1.4-8.4-0.6c-5.1,1.4-8.9,3.7-10.7,6.9
										l-2.3,0.7l0.2-1c0.2-3.1,2-6,5-8.6l0.5-0.7l-1.2-0.1c-4.5-0.1-9,0.2-13,1.2c-3.1,0.8-5.2,2.1-5.4,4.2
										c-0.4,3.2,1.1,6.2,4.9,8.7l0.1,1.3h-0.5l-0.6-0.2c-1.8-0.6-3.4-1.4-4.8-2.2c-2.4-1.3-4.3-2.9-5.7-4.7l-0.7-0.7l-0.9,0.5
										c-2.6,2.2-4.1,4.6-4.6,7.3c-0.2,1.5,0.4,3,2.2,4.1c0.3,0.1,0.6,0.3,0.9,0.4c4.7,2,9.9,2.7,15.7,2l2,0.7l-1.1,0.4
										c-4.9,1.5-10.1,2-15.7,1.8h-1.2l0.2,0.7c1.4,1.6,3.2,3,5.3,4.2c0.8,0.5,1.7,0.9,2.7,1.4c2.9,1.4,6.2,2,9.8,0.9
										c4.8-1.4,8.4-3.7,10.1-6.8l2-0.7l0.1,0.4c-0.1,3.3-1.9,6.3-5.1,9.1l-0.5,0.8l1.2,0.2c4.6,0,9-0.3,13.2-1.4
										c3.1-0.6,5-2,5.3-4c0.3-3.3-1.1-6.3-5-8.7v-1.4l1.1,0.4c1.8,0.6,3.5,1.4,4.9,2.2c2.3,1.3,4.2,2.9,5.6,4.7l0.7,0.5l1.1-0.5
										c2.4-2.2,3.9-4.7,4.5-7.2C368.3,119.2,367.5,117.7,365.6,116.6z M344.9,122.6c-4,2.2-9.9,2.2-13.9-0.1
										c-3.8-2.2-3.8-5.8,0-7.9c3.9-2.3,9.9-2.3,13.8-0.1C348.7,116.8,348.8,120.4,344.9,122.6z"/>
								</g>
							</g>
						</g>
					</g>
				</g>
			</g>
		</g>
	</g>
	<g class="st8">
		<g class="st9">
			<g>
				<g>
					<path class="st10" d="M379.9,61.7l-0.4,54c0,6.1-4.1,12.3-12.1,17c-16.2,9.4-42.6,9.5-59,0c-8.2-4.7-12.3-10.9-12.2-17.1
						l0.4-54c0,6.2,4.1,12.4,12.2,17.1c16.4,9.5,42.8,9.4,59,0C375.9,74,379.9,67.9,379.9,61.7z"/>
				</g>
			</g>
			<g>
				<g>
					<path class="st11" d="M367.6,44.6C384,54,384,69.3,367.8,78.7s-42.6,9.5-59,0c-16.3-9.4-16.3-24.7-0.1-34.1
						S351.3,35.1,367.6,44.6z"/>
				</g>
			</g>
		</g>
	</g>
</g>
<g>
	<g>
		<g>
			<g>
				<g>
					<g>
						<g>
							<g>
								<g>
									<path class="st0" d="M279.5,255.2l-21.1-11.8v-4.7l21.1,12.7V255.2z"/>
								</g>
							</g>
						</g>
					</g>
				</g>
			</g>
			<g>
				<g>
					<g>
						<g>
							<g>
								<g>
									<g>
										<g>
											<path class="st1" d="M280.4,410.6l-0.1,20.1c0,1.1-0.8,2.2-2.2,3L179.5,491c-0.6,0.4-1.3,0.7-2.1,0.9
												c-2.7,0.9-6.1,0.6-8.4-0.9l-99.2-57.2c-1.5-0.8-2.2-1.8-2.2-3l0.1-20.1c0-1.1,0.7-2.2,2.2-3.1l7.2-4.2v-2.6l-7.4-4.3
												c-1.5-0.9-2.2-1.9-2.2-3.1l0.1-127.5v-0.4c0,0.1,0,0.1,0,0.2c-0.1-1.1,0.5-2.3,2.1-3.2l6.5-3.8l-6.4-3.7
												c-1.5-0.8-2.2-1.9-2.2-3l0.1-38.7c0-1.1,0.7-2.2,2.2-3.1l98.5-57.3c2.8-1.6,7.6-1.6,10.4,0l99.2,57.2
												c1.5,0.9,2.2,2,2.2,3.1l-0.1,38.7c0,1.1-0.8,2.2-2.2,3l-6.4,3.7l6.3,3.7c1.5,0.9,2.3,2,2.3,3.1l-0.1,128
												c0,1.1-0.7,2.2-2.2,3.1l-7,4v2.9l7.3,4.2C279.7,408.4,280.4,409.5,280.4,410.6z"/>
										</g>
									</g>
								</g>
							</g>
						</g>
					</g>
				</g>
				<g>
					<g>
						<g>
							<g>
								<g>
									<path class="st1" d="M280.4,410.6l-0.1,20.1c0,1.1-0.8,2.2-2.2,3L179.5,491c-2.8,1.8-7.5,1.8-10.4,0l-99.2-57.2
										c-1.5-0.8-2.2-1.8-2.2-3l0.1-20.1c0,1.1,0.8,2.2,2.2,3h208.1C279.7,412.8,280.4,411.7,280.4,410.6z"/>
								</g>
							</g>
						</g>
						<g>
							<g>
								<g>
									<path class="st2" d="M278.2,413.6l-98.5,57.2c-2.9,1.7-7.6,1.7-10.5,0L70,413.6c-2.9-1.7-2.9-4.4,0-6l98.5-57.3
										c2.9-1.7,7.6-1.7,10.4,0l99.2,57.2C281.1,409.2,281.1,412,278.2,413.6z"/>
								</g>
							</g>
						</g>
						<g>
							<g>
								<g>
									<path class="st3" d="M271,393.1l-0.2,18.3c0,1-0.7,2-2,2.8l-89.7,52.2c-2.6,1.6-6.9,1.6-9.5,0l-90.4-52.2
										c-1.3-0.8-2-1.7-2-2.8l0.2-18.3c0,1,0.7,2,2,2.8l90.3,52.2c2.7,1.5,6.9,1.5,9.6,0l89.7-52.2
										C270.3,395.1,270.9,394.1,271,393.1z"/>
								</g>
							</g>
						</g>
						<g>
							<g>
								<g>
									<g>
										<path class="st1" d="M280.2,265.6L280,393.4c0,1.1-0.7,2.2-2.2,3.1l-98.5,57.2c-0.6,0.4-1.2,0.6-1.9,0.8
											c-0.7,0.2-1.5,0.3-2.2,0.4c-2.3,0.3-4.7-0.1-6.4-1.2l-99.2-57.2c-1.5-0.9-2.3-1.9-2.3-3.1l0.2-127.8c0,1.1,0.8,2.2,2.2,3
											l99.2,57.3c1.8,1,4.1,1.4,6.3,1.2V327c1.6-0.1,3.1-0.4,4.2-1.1l98.5-57.3C279.5,267.7,280.2,266.6,280.2,265.6z"/>
									</g>
								</g>
							</g>
							<g>
								<g>
									<g>
										<path class="st2" d="M278,268.5l-98.5,57.2c-2.9,1.7-7.6,1.7-10.5,0l-99.2-57.2c-2.9-1.7-2.9-4.4,0-6l98.5-57.3
											c2.9-1.7,7.6-1.7,10.4,0l99.2,57.2C280.9,264.1,280.9,266.9,278,268.5z"/>
									</g>
								</g>
							</g>
						</g>
						<g>
							<g>
								<g>
									<path class="st3" d="M270.5,249.1l-0.2,18.3c0,1-0.7,2-2,2.8l-89.7,52.2c-2.6,1.6-6.9,1.6-9.5,0l-90.4-52.2
										c-1.3-0.8-2-1.7-2-2.8l0.2-18.3c0,1,0.7,2,2,2.8l90.3,52.2c2.7,1.5,6.9,1.5,9.6,0l89.7-52.2
										C269.8,251.1,270.4,250.1,270.5,249.1z"/>
								</g>
							</g>
						</g>
						<g>
							<g>
								<g>
									<g>
										<path class="st1" d="M280.4,213.4l-0.1,38.7c0,1.1-0.8,2.2-2.2,3l-98.5,57.2c-2.8,1.8-7.5,1.8-10.4,0L70,255.1
											c-1.5-0.8-2.2-1.9-2.2-3l0.1-38.7c0,1.1,0.8,2.1,2.2,3h208.1C279.7,215.5,280.4,214.5,280.4,213.4z"/>
									</g>
								</g>
							</g>
							<g>
								<g>
									<g>
										<path class="st2" d="M278.2,216.4l-98.5,57.2c-2.9,1.7-7.6,1.7-10.5,0L70,216.4c-2.9-1.7-2.9-4.4,0-6l98.5-57.3
											c2.9-1.7,7.6-1.7,10.4,0l99.2,57.2C281.1,212,281.1,214.7,278.2,216.4z"/>
									</g>
								</g>
							</g>
						</g>
						<g>
							<g>
								<g>
									<path class="st0" d="M135.5,324.9v7.4l-58.9-33.1v-8.3L135.5,324.9z"/>
								</g>
							</g>
						</g>
						<g>
							<g>
								<g>
									<path class="st0" d="M135.5,342.8v7.4l-58.9-33.1v-8.3L135.5,342.8z"/>
								</g>
							</g>
						</g>
						<g>
							<g>
								<g>
									<path class="st0" d="M135.5,360.8v7.4l-58.9-33.1v-8.3L135.5,360.8z"/>
								</g>
							</g>
						</g>
						<g>
							<g>
								<g>
									<path class="st0" d="M135.5,378.7v7.4L76.7,353v-8.3L135.5,378.7z"/>
								</g>
							</g>
						</g>
					</g>
				</g>
			</g>
		</g>
	</g>
	<g>
		<g>
			<g>
				<path class="st4" d="M205.8,334.6v8.1l-7,4.1v-8.1L205.8,334.6z"/>
			</g>
		</g>
		<g>
			<g>
				<path class="st4" d="M218.5,327.2v8.1l-7,4v-8.1L218.5,327.2z"/>
			</g>
		</g>
		<g>
			<g>
				<path class="st4" d="M231.2,319.9v8.1l-7,4v-8.1L231.2,319.9z"/>
			</g>
		</g>
		<g>
			<g>
				<path class="st4" d="M243.9,312.5v8.1l-7,4.1v-8.1L243.9,312.5z"/>
			</g>
		</g>
		<g>
			<g>
				<path class="st4" d="M256.6,305.2v8.1l-7,4v-8.1L256.6,305.2z"/>
			</g>
		</g>
		<g>
			<g>
				<path class="st4" d="M193.1,354v8l-7,4v-8L193.1,354z"/>
			</g>
		</g>
		<g>
			<g>
				<path class="st4" d="M205.8,346.7v8l-7,4.1v-8L205.8,346.7z"/>
			</g>
		</g>
		<g>
			<g>
				<path class="st4" d="M218.5,339.4v8l-7,4v-8L218.5,339.4z"/>
			</g>
		</g>
		<g>
			<g>
				<path class="st4" d="M231.2,332v8l-7,4v-8L231.2,332z"/>
			</g>
		</g>
		<g>
			<g>
				<path class="st4" d="M243.9,324.7v8l-7,4.1v-8L243.9,324.7z"/>
			</g>
		</g>
		<g>
			<g>
				<path class="st4" d="M256.6,317.3v8l-7,4v-8L256.6,317.3z"/>
			</g>
		</g>
		<g>
			<g>
				<path class="st4" d="M269.4,310v8l-7,4.1v-8L269.4,310z"/>
			</g>
		</g>
		<g>
			<g>
				<path class="st4" d="M193.1,366.2v8l-7,4v-8L193.1,366.2z"/>
			</g>
		</g>
		<g>
			<g>
				<path class="st4" d="M205.8,358.8v8l-7,4.1v-8L205.8,358.8z"/>
			</g>
		</g>
		<g>
			<g>
				<path class="st4" d="M218.5,351.5v8l-7,4v-8L218.5,351.5z"/>
			</g>
		</g>
		<g>
			<g>
				<path class="st4" d="M231.2,344.2v8l-7,4v-8L231.2,344.2z"/>
			</g>
		</g>
		<g>
			<g>
				<path class="st4" d="M244,336.8v8l-7,4.1v-8L244,336.8z"/>
			</g>
		</g>
		<g>
			<g>
				<path class="st4" d="M256.7,329.5v8l-7,4v-8L256.7,329.5z"/>
			</g>
		</g>
		<g>
			<g>
				<path class="st4" d="M269.4,322.1v8l-7,4.1v-8L269.4,322.1z"/>
			</g>
		</g>
		<g>
			<g>
				<path class="st4" d="M193.1,378.3v8.1l-7,4v-8.1L193.1,378.3z"/>
			</g>
		</g>
		<g>
			<g>
				<path class="st4" d="M205.9,371v8.1l-7,4.1v-8.1L205.9,371z"/>
			</g>
		</g>
		<g>
			<g>
				<path class="st4" d="M218.6,363.6v8.1l-7,4v-8.1L218.6,363.6z"/>
			</g>
		</g>
		<g>
			<g>
				<path class="st4" d="M231.3,356.3v8.1l-7,4v-8.1L231.3,356.3z"/>
			</g>
		</g>
		<g>
			<g>
				<path class="st4" d="M244,348.9v8.1l-7,4.1V353L244,348.9z"/>
			</g>
		</g>
		<g>
			<g>
				<path class="st4" d="M256.7,341.6v8.1l-7,4v-8.1L256.7,341.6z"/>
			</g>
		</g>
		<g>
			<g>
				<path class="st4" d="M269.4,334.3v8.1l-7,4.1v-8.1L269.4,334.3z"/>
			</g>
		</g>
		<g>
			<g>
				<path class="st4" d="M193.2,390.5v8.1l-7,4v-8.1L193.2,390.5z"/>
			</g>
		</g>
		<g>
			<g>
				<path class="st4" d="M205.9,383.1v8.1l-7,4.1v-8.1L205.9,383.1z"/>
			</g>
		</g>
		<g>
			<g>
				<path class="st4" d="M218.6,375.8v8.1l-7,4v-8.1L218.6,375.8z"/>
			</g>
		</g>
		<g>
			<g>
				<path class="st4" d="M231.3,368.4v8.1l-7,4v-8.1L231.3,368.4z"/>
			</g>
		</g>
		<g>
			<g>
				<path class="st4" d="M244,361.1v8.1l-7,4.1v-8.1L244,361.1z"/>
			</g>
		</g>
		<g>
			<g>
				<path class="st4" d="M256.7,353.8v8.1l-7,4v-8.1L256.7,353.8z"/>
			</g>
		</g>
		<g>
			<g>
				<path class="st4" d="M269.5,346.4v8.1l-7,4.1v-8.1L269.5,346.4z"/>
			</g>
		</g>
		<g>
			<g>
				<path class="st4" d="M193.2,402.6v8l-7,4v-8L193.2,402.6z"/>
			</g>
		</g>
		<g>
			<g>
				<path class="st4" d="M205.9,395.3v8l-7,4.1v-8L205.9,395.3z"/>
			</g>
		</g>
		<g>
			<g>
				<path class="st4" d="M218.6,387.9v8l-7,4v-8L218.6,387.9z"/>
			</g>
		</g>
		<g>
			<g>
				<path class="st4" d="M231.4,380.6v8l-7,4v-8L231.4,380.6z"/>
			</g>
		</g>
		<g>
			<g>
				<path class="st4" d="M244.1,373.2v8l-7,4.1v-8L244.1,373.2z"/>
			</g>
		</g>
		<g>
			<g>
				<path class="st4" d="M256.8,365.9v8l-7,4v-8L256.8,365.9z"/>
			</g>
		</g>
		<g>
			<g>
				<path class="st4" d="M269.5,358.6v8l-7,4.1v-8L269.5,358.6z"/>
			</g>
		</g>
		<g>
			<g>
				<path class="st4" d="M206,407.4v8.1l-7,4.1v-8.1L206,407.4z"/>
			</g>
		</g>
		<g>
			<g>
				<path class="st4" d="M218.7,400v8.1l-7,4V404L218.7,400z"/>
			</g>
		</g>
		<g>
			<g>
				<path class="st4" d="M231.4,392.7v8.1l-7,4v-8.1L231.4,392.7z"/>
			</g>
		</g>
		<g>
			<g>
				<path class="st4" d="M244.1,385.4v8.1l-7,4.1v-8.1L244.1,385.4z"/>
			</g>
		</g>
		<g>
			<g>
				<path class="st4" d="M256.8,378v8.1l-7,4V382L256.8,378z"/>
			</g>
		</g>
	</g>
</g>
<g>
	<g>
		<g>
			<path class="st1" d="M243.2,215.4l-65.4,38c-1.9,1.1-5,1.1-6.9,0l-65.8-38c-1.9-1.1-1.9-2.9,0-4l65.4-38c1.9-1.1,5-1.1,6.9,0
				l65.8,38C245.1,212.5,245.1,214.3,243.2,215.4z"/>
		</g>
	</g>
</g>
<g>
	<g>
		<g>
			<g>
				<g>
					<g>
						<g>
							<g>
								<path class="st5" d="M144.6,194.1c16.2-9.3,42.5-9.4,58.8,0.1c9.1,5.4,13,12.7,11.6,19.6c-0.9-5.1-4.9-10.1-11.6-14
									c-16.4-9.5-42.6-9.4-58.8-0.1c-6.9,4-10.9,9.1-11.9,14.3C131.2,206.9,135.2,199.6,144.6,194.1z"/>
							</g>
						</g>
					</g>
					<g>
						<g>
							<g>
								<path class="st6" d="M144.6,199.7c16.2-9.3,42.5-9.4,58.8,0.1c6.7,3.9,10.7,8.9,11.6,14c-1,5.2-5,10.3-11.9,14.3
									c-16.3,9.3-42.5,9.3-58.6,0c-6.9-3.9-10.8-9-11.8-14.2C133.7,208.8,137.8,203.8,144.6,199.7z"/>
							</g>
						</g>
					</g>
				</g>
				<g>
					<g>
						<g>
							<g>
								<g>
									<path class="st7" d="M178,211.5c-2.4-1.4-5.9-1.4-8.3,0c-2.4,1.3-2.2,3.4-0.1,4.7c2.4,1.4,6,1.4,8.4,0.2
										c2.4-1.4,2.4-3.5,0.2-4.8C178.1,211.6,178,211.6,178,211.5z"/>
								</g>
							</g>
						</g>
					</g>
					<g>
						<g>
							<g>
								<g>
									<path class="st7" d="M201.5,212c-0.4-0.2-0.9-0.5-1.5-0.7c-4.6-1.7-9.8-2.4-15.1-1.7l-2-0.7c5.7-1.9,11.7-2.5,18.3-2
										l-0.2-0.5l-0.3-0.4c-1.4-1.6-3.3-3.1-5.4-4.4c-1-0.6-2.1-1.1-3.3-1.6c-2.5-1.1-5.4-1.4-8.4-0.6c-5.1,1.4-8.9,3.7-10.7,6.9
										l-2.3,0.7l0.2-1c0.2-3.1,2-6,5-8.6l0.5-0.7l-1.2-0.1c-4.5-0.1-9,0.2-13,1.2c-3.1,0.8-5.2,2.1-5.4,4.2
										c-0.4,3.2,1.1,6.2,4.9,8.7l0.1,1.3h-0.5l-0.6-0.2c-1.8-0.6-3.4-1.4-4.8-2.2c-2.4-1.3-4.3-2.9-5.7-4.7l-0.7-0.7l-0.9,0.5
										c-2.6,2.2-4.1,4.6-4.6,7.3c-0.2,1.5,0.4,3,2.2,4.1c0.3,0.1,0.6,0.3,0.9,0.4c4.7,2,9.9,2.7,15.7,2l2,0.7l-1.1,0.4
										c-4.9,1.5-10.1,2-15.7,1.8h-1.2l0.2,0.7c1.4,1.6,3.2,3,5.3,4.2c0.8,0.5,1.7,0.9,2.7,1.4c2.9,1.4,6.2,2,9.8,0.9
										c4.8-1.4,8.4-3.7,10.1-6.8l2-0.7l0.1,0.4c-0.1,3.3-1.9,6.3-5.1,9.1l-0.5,0.8l1.2,0.2c4.6,0,9-0.3,13.2-1.4
										c3.1-0.6,5-2,5.3-4c0.3-3.3-1.1-6.3-5-8.7V216l1.1,0.4c1.8,0.6,3.5,1.4,4.9,2.2c2.3,1.3,4.2,2.9,5.6,4.7l0.7,0.5l1.1-0.5
										c2.4-2.2,3.9-4.7,4.5-7.2C204.2,214.5,203.4,213,201.5,212z M180.8,217.9c-4,2.2-9.9,2.2-13.9-0.1c-3.8-2.2-3.8-5.8,0-7.9
										c3.9-2.3,9.9-2.3,13.8-0.1C184.6,212.1,184.7,215.7,180.8,217.9z"/>
								</g>
							</g>
						</g>
					</g>
				</g>
			</g>
		</g>
	</g>
	<g class="st8">
		<g class="st9">
			<g>
				<g>
					<path class="st10" d="M215.8,157.1l-0.4,54c0,6.1-4.1,12.3-12.1,17c-16.2,9.4-42.6,9.5-59,0c-8.2-4.7-12.3-10.9-12.2-17.1
						l0.4-54c0,6.2,4.1,12.4,12.2,17.1c16.4,9.5,42.8,9.4,59,0C211.8,169.4,215.8,163.2,215.8,157.1z"/>
				</g>
			</g>
			<g>
				<g>
					<path class="st11" d="M203.5,139.9c16.4,9.5,16.4,24.7,0.2,34.2s-42.6,9.5-59,0c-16.3-9.4-16.3-24.7-0.1-34.1
						S187.2,130.5,203.5,139.9z"/>
				</g>
			</g>
		</g>
	</g>
</g>
<g>
	<g id="OBJECTS">
		<g>
			<polygon class="st12" points="301.7,72.4 308,81 304.6,80.6 298.4,72 			"/>
			
				<linearGradient id="SVGID_1_" gradientUnits="userSpaceOnUse" x1="516.2311" y1="598.8432" x2="586.6517" y2="537.7399" gradientTransform="matrix(1 0 0 1 -203.7553 -504.8332)">
				<stop  offset="0" style="stop-color:#D13F05"/>
				<stop  offset="0.2925" style="stop-color:#F67205"/>
				<stop  offset="0.3667" style="stop-color:#F67705"/>
				<stop  offset="0.4526" style="stop-color:#F68505"/>
				<stop  offset="0.5441" style="stop-color:#F69C05"/>
				<stop  offset="0.5638" style="stop-color:#F6A205"/>
				<stop  offset="0.5977" style="stop-color:#F69005"/>
				<stop  offset="0.6432" style="stop-color:#F67F05"/>
				<stop  offset="0.6931" style="stop-color:#F67505"/>
				<stop  offset="0.7553" style="stop-color:#F67205"/>
				<stop  offset="1" style="stop-color:#D13F05"/>
			</linearGradient>
			<path class="st13" d="M373.5,21.1c2.1,2.9,4.2,5.7,6.3,8.6c4.2,5.9,6.5,13,6.4,20.3l-6.3-8.6C379.9,34.2,377.7,27,373.5,21.1z"/>
			<polygon class="st14" points="379.9,41.4 386.1,50 383,52.4 376.7,43.8 			"/>
			<polygon class="st12" points="348.2,83.5 354.4,92.1 353.1,94.3 346.8,85.6 			"/>
			
				<linearGradient id="SVGID_2_" gradientUnits="userSpaceOnUse" x1="518.3824" y1="601.3161" x2="588.7993" y2="540.216" gradientTransform="matrix(1 0 0 1 -203.7553 -504.8332)">
				<stop  offset="0" style="stop-color:#D13F05"/>
				<stop  offset="0.2925" style="stop-color:#F67205"/>
				<stop  offset="0.3667" style="stop-color:#F67705"/>
				<stop  offset="0.4526" style="stop-color:#F68505"/>
				<stop  offset="0.5441" style="stop-color:#F69C05"/>
				<stop  offset="0.5638" style="stop-color:#F6A205"/>
				<stop  offset="0.5977" style="stop-color:#F69005"/>
				<stop  offset="0.6432" style="stop-color:#F67F05"/>
				<stop  offset="0.6931" style="stop-color:#F67505"/>
				<stop  offset="0.7553" style="stop-color:#F67205"/>
				<stop  offset="1" style="stop-color:#D13F05"/>
			</linearGradient>
			<path class="st15" d="M346.8,85.6l6.3,8.6c-8.9,3.5-18.8,4.1-28.1,1.6c-6.6-1.8-12.5-5.4-17-10.6l-6.3-8.6
				c4.5,5.1,10.4,8.8,17,10.6C328,89.7,337.9,89.2,346.8,85.6z"/>
			<polygon class="st16" points="350.5,84.1 356.7,92.7 354.4,92.1 348.2,83.5 			"/>
			
				<linearGradient id="SVGID_3_" gradientUnits="userSpaceOnUse" x1="528.2934" y1="612.7386" x2="598.7113" y2="551.6376" gradientTransform="matrix(1 0 0 1 -203.7553 -504.8332)">
				<stop  offset="0" style="stop-color:#D13F05"/>
				<stop  offset="0.2925" style="stop-color:#F67205"/>
				<stop  offset="0.3667" style="stop-color:#F67705"/>
				<stop  offset="0.4526" style="stop-color:#F68505"/>
				<stop  offset="0.5441" style="stop-color:#F69C05"/>
				<stop  offset="0.5638" style="stop-color:#F6A205"/>
				<stop  offset="0.5977" style="stop-color:#F69005"/>
				<stop  offset="0.6432" style="stop-color:#F67F05"/>
				<stop  offset="0.6931" style="stop-color:#F67505"/>
				<stop  offset="0.7553" style="stop-color:#F67205"/>
				<stop  offset="1" style="stop-color:#D13F05"/>
			</linearGradient>
			<path class="st17" d="M379.7,44.6l6.3,8.6c-0.4,4.9-1.7,9.8-3.8,14.2c-5.2,11.2-14.3,20.1-25.5,25.2l-6.3-8.6
				c11.2-5.1,20.2-14.1,25.5-25.2C378,54.4,379.3,49.6,379.7,44.6z"/>
			
				<linearGradient id="SVGID_4_" gradientUnits="userSpaceOnUse" x1="502.2081" y1="584.5165" x2="579.9927" y2="521.2487" gradientTransform="matrix(1 0 0 1 -203.7553 -504.8332)">
				<stop  offset="0" style="stop-color:#FFFFFF;stop-opacity:0"/>
				<stop  offset="0.2606" style="stop-color:#FFFFFF"/>
				<stop  offset="0.7553" style="stop-color:#FFFFFF"/>
				<stop  offset="1" style="stop-color:#FFFFFF;stop-opacity:0"/>
			</linearGradient>
			<path class="st18" d="M380.1,45.1c-0.4,4.9-1.7,9.8-3.8,14.2c-5.2,11.2-14.3,20.1-25.5,25.2l-2.3-0.6l-1.4,2.2
				c-8.9,3.5-18.8,4.1-28.1,1.6c-6.6-1.8-12.5-5.4-17-10.6l-0.1-4.3l-3.3-0.4c-5.8-9.8-6.5-22.6-0.8-35.1c1.7-3.7,3.9-7.2,6.4-10.4
				c1.3-0.6,2.7-1.3,3.9-2l0.6-2.9C319.3,11.8,334,6.2,347.9,7.6l3,2.4l8.5,0.4c13.1,5.5,20.7,17.7,20.7,31.5l-3.2,2.3L380.1,45.1z"
				/>
			
				<linearGradient id="SVGID_5_" gradientUnits="userSpaceOnUse" x1="570.5793" y1="565.4528" x2="491.6869" y2="532.1273" gradientTransform="matrix(1 0 0 1 -203.7553 -504.8332)">
				<stop  offset="0" style="stop-color:#FFAF02"/>
				<stop  offset="1" style="stop-color:#F56D05"/>
			</linearGradient>
			<path class="st19" d="M379.7,44.6c-0.4,4.9-1.7,9.8-3.8,14.2C370.7,70,361.7,79,350.5,84.1l-2.3-0.6l-1.4,2.2
				c-8.9,3.5-18.8,4.1-28.1,1.6c-6.6-1.8-12.5-5.4-17-10.6l-0.1-4.3l-3.3-0.4c-5.8-9.8-6.5-22.6-0.8-35.1c1.7-3.7,3.9-7.2,6.4-10.4
				c1.3-0.6,2.7-1.3,3.9-2l0.6-2.9C319,11.4,333.7,5.8,347.6,7.2l3,2.4l8.5,0.4c13.1,5.5,20.7,17.7,20.7,31.5l-3.2,2.3L379.7,44.6z"
				/>
			
				<linearGradient id="SVGID_6_" gradientUnits="userSpaceOnUse" x1="511.6414" y1="525.6608" x2="557.4305" y2="569.4279" gradientTransform="matrix(1 0 0 1 -203.7553 -504.8332)">
				<stop  offset="0" style="stop-color:#FFFFFF;stop-opacity:0"/>
				<stop  offset="0.2606" style="stop-color:#FFFFFF"/>
				<stop  offset="0.7553" style="stop-color:#FFFFFF"/>
				<stop  offset="1" style="stop-color:#FFFFFF;stop-opacity:0"/>
			</linearGradient>
			<path class="st20" d="M349.1,19c15.7,4.4,22.6,20.9,15.4,36.7c-7.2,15.9-25.9,25.1-41.6,20.7s-22.6-20.9-15.4-36.7
				C314.7,23.8,333.3,14.5,349.1,19z"/>
			
				<linearGradient id="SVGID_7_" gradientUnits="userSpaceOnUse" x1="509.1026" y1="552.6832" x2="571.908" y2="552.6832" gradientTransform="matrix(1 0 0 1 -203.7553 -504.8332)">
				<stop  offset="0" style="stop-color:#CF4505"/>
				<stop  offset="1" style="stop-color:#E45905"/>
			</linearGradient>
			<path class="st21" d="M349.9,19.1c15.7,4.4,22.6,20.9,15.4,36.7C358,71.7,339.4,81,323.6,76.6c-15.7-4.4-22.6-20.9-15.4-36.7
				C315.5,24,334.1,14.7,349.9,19.1z"/>
			<path class="st22" d="M326.1,77.1c-15.7-4.4-22.6-20.9-15.4-36.7c6.7-14.7,23.2-23.7,38.1-21.4c-15.5-3.8-33.5,5.4-40.6,21
				c-7.2,15.9-0.4,32.3,15.4,36.7c1.2,0.3,2.3,0.6,3.5,0.8C326.8,77.2,326.5,77.2,326.1,77.1z"/>
			
				<radialGradient id="SVGID_8_" cx="447.6859" cy="996.4471" r="23.4764" gradientTransform="matrix(7.290000e-02 7.410000e-02 -0.4921 0.4845 822.0795 -441.241)" gradientUnits="userSpaceOnUse">
				<stop  offset="0" style="stop-color:#FFFFFF"/>
				<stop  offset="8.578000e-02" style="stop-color:#FFFFFF;stop-opacity:0.9583"/>
				<stop  offset="0.2351" style="stop-color:#FFFFFF;stop-opacity:0.8462"/>
				<stop  offset="0.4301" style="stop-color:#FFFFFF;stop-opacity:0.6642"/>
				<stop  offset="0.6634" style="stop-color:#FFFFFF;stop-opacity:0.4119"/>
				<stop  offset="0.9261" style="stop-color:#FFFFFF;stop-opacity:9.449000e-02"/>
				<stop  offset="1" style="stop-color:#FFFFFF;stop-opacity:0"/>
			</radialGradient>
			<path class="st23" d="M366.1,76.5c-6.4,6.3-12.3,10.6-13.3,9.6c-0.9-1,3.5-6.8,9.8-13.1c6.4-6.3,12.3-10.6,13.3-9.6
				C376.9,64.3,372.5,70.2,366.1,76.5z"/>
			
				<linearGradient id="SVGID_9_" gradientUnits="userSpaceOnUse" x1="530.2121" y1="540.5643" x2="558.5187" y2="573.7745" gradientTransform="matrix(1 0 0 1 -203.7553 -504.8332)">
				<stop  offset="0" style="stop-color:#FFFFFF"/>
				<stop  offset="1" style="stop-color:#FFFFFF;stop-opacity:0"/>
			</linearGradient>
			<path class="st24" d="M370.7,17.8l-68.9,57.1v1.8c4.5,5.1,10.4,8.8,17,10.6c1.6,0.4,3.2,0.8,4.8,1l53.6-44.4l-0.5-0.1l3.2-2.3
				C380,32.7,376.7,24.2,370.7,17.8z"/>
			
				<linearGradient id="SVGID_10_" gradientUnits="userSpaceOnUse" x1="513.6783" y1="525.3174" x2="528.819" y2="540.6758" gradientTransform="matrix(1 0 0 1 -203.7553 -504.8332)">
				<stop  offset="0" style="stop-color:#FFFFFF"/>
				<stop  offset="1" style="stop-color:#FFFFFF;stop-opacity:0"/>
			</linearGradient>
			<path class="st25" d="M350.8,9.5l-3-2.4c-4.1-0.4-8.3-0.2-12.4,0.6L296.3,40c-2.2,5.7-3,11.9-2.5,18l58.5-48.4L350.8,9.5z"/>
			<g>
				<g>
					<defs>
						<rect id="SVGID_11_" x="319" y="25.4" width="43.7" height="45"/>
					</defs>
					<clipPath id="SVGID_12_">
						<use xlink:href="#SVGID_11_"  style="overflow:visible;"/>
					</clipPath>
					<g class="st26">
						
							<linearGradient id="SVGID_13_" gradientUnits="userSpaceOnUse" x1="2489.6726" y1="-1048.8004" x2="2489.6726" y2="-1003.7893" gradientTransform="matrix(1 0 0 -1 -2148.7554 -978.4474)">
							<stop  offset="0" style="stop-color:#FFC000"/>
							<stop  offset="0.28" style="stop-color:#FFC000"/>
							<stop  offset="0.55" style="stop-color:#DAA600"/>
							<stop  offset="1" style="stop-color:#DAA600"/>
						</linearGradient>
						<path class="st27" d="M326.6,43.7c-0.2-0.2-0.4-0.4-0.5-0.6c-1.9-2.3-3.2-4.9-3.9-7.7c-0.5-2-0.6-4.1-0.4-6.2
							c0.1-1.1,0.4-2.2,0.9-3.1c0.3-0.6,1-0.9,1.6-0.6l0,0c1.4,0.5,2.5,1.5,3.3,2.7c2,2.7,3.4,5.8,4,9.1c0.2,1,0.2,2.1,0.3,3.1
							c0,0.4,0.1,0.8,0.1,1.2c0,0.3,0.2,0.5,0.6,0.4c1.4-0.2,2.9-0.1,4.3,0.3c1.2,0.3,2.4,0.7,3.6,1.2c1.7,0.7,3.2,1.7,4.4,3
							c0.1,0.2,0.4,0.2,0.6,0.1l0,0l0.1-0.1c0.3-0.3,0.6-0.6,0.9-0.9c2.7-3.1,6.3-5.3,10.3-6.4c1.3-0.4,2.6-0.5,3.9-0.4
							c0.6,0.1,1.2,0.3,1.7,0.5c0.2,0.2,0.4,0.4,0.4,0.7c0,0.4,0,0.8-0.1,1.1c-0.5,1.5-1.4,2.9-2.6,4.1c-2.8,3.1-6.6,5.3-10.7,6
							c-0.3,0.1-0.6,0.1-1,0.1c0.1,0.3,0.1,0.5,0.2,0.7c0.4,1.4,0.6,2.9,0.5,4.4c0,1.8-0.3,3.5-0.9,5.2c-0.6,1.9-1.6,3.7-2.9,5.3
							c-1.2,1.5-2.9,2.5-4.8,2.8c-1.3,0.4-2.7,0.5-4.1,0.3c-1.3-0.2-2.7-0.4-4-0.7c-1.4-0.4-2.7-0.8-4-1.4c-2.2-0.8-4.2-2-5.9-3.5
							c-1.8-1.5-3-3.6-3.4-5.9c-0.1-1.1-0.1-2.2,0.1-3.3c0.2-1.4,0.6-2.8,1.1-4.1c0.8-2.1,2.1-4,3.7-5.6c0.7-0.7,1.6-1.3,2.4-2
							L326.6,43.7z M328,59.7L328,59.7c-1.5,0-1.8,1-1.5,2.1c0,0.2,0.1,0.3,0.1,0.5c0.3,1.2,1.1,2.3,2.2,2.9c1.1,0.5,2.2,1,3.4,1.3
							c1.6,0.5,3.4,0.1,4.7-1.1c0.6-0.4,0.8-1.1,0.4-1.7c-0.1-0.1-0.2-0.3-0.3-0.4c-0.7-0.5-1.4-1-2.2-1.3c-1.3-0.6-2.6-1-3.9-1.5
							C329.9,60.2,329,60,328,59.7L328,59.7z M326.8,48.4c0-1-0.4-1.5-1.1-1.7c-0.6-0.1-1.2,0.1-1.6,0.7c-1.5,1.9-2.6,4-3.3,6.3
							c-0.1,0.4-0.1,0.8-0.1,1.1c0.1,0.7,0.7,1.2,1.4,1.1c0.3,0,0.7-0.2,0.9-0.5c0.5-0.7,1.1-1.5,1.5-2.3c0.6-1,1.1-2.1,1.7-3.1
							C326.4,49.4,326.6,48.9,326.8,48.4L326.8,48.4z M347.8,56.6c0-0.4-0.1-0.8-0.2-1.3c-0.2-0.7-1-1.2-1.7-1l0,0h-0.1
							c-0.5,0.2-0.9,0.7-1,1.3c-0.5,1.9-0.9,3.8-1.3,5.8c-0.1,0.6-0.1,1.2,0,1.8c0.1,0.7,0.8,1.1,1.4,0.9c0.2,0,0.3-0.1,0.4-0.2
							c0.5-0.3,0.8-0.7,0.9-1.3c0.4-1.1,0.7-2.2,1-3.3C347.5,58.5,347.6,57.5,347.8,56.6L347.8,56.6z"/>
					</g>
				</g>
			</g>
		</g>
	</g>
</g>
<g>
	<g id="OBJECTS_1_">
		<g>
			<polygon class="st12" points="134.3,169.9 140.5,178.5 137.2,178.1 130.9,169.5 			"/>
			
				<linearGradient id="SVGID_14_" gradientUnits="userSpaceOnUse" x1="348.7634" y1="696.3152" x2="419.1839" y2="635.2119" gradientTransform="matrix(1 0 0 1 -203.7553 -504.8332)">
				<stop  offset="0" style="stop-color:#D13F05"/>
				<stop  offset="0.2925" style="stop-color:#F67205"/>
				<stop  offset="0.3667" style="stop-color:#F67705"/>
				<stop  offset="0.4526" style="stop-color:#F68505"/>
				<stop  offset="0.5441" style="stop-color:#F69C05"/>
				<stop  offset="0.5638" style="stop-color:#F6A205"/>
				<stop  offset="0.5977" style="stop-color:#F69005"/>
				<stop  offset="0.6432" style="stop-color:#F67F05"/>
				<stop  offset="0.6931" style="stop-color:#F67505"/>
				<stop  offset="0.7553" style="stop-color:#F67205"/>
				<stop  offset="1" style="stop-color:#D13F05"/>
			</linearGradient>
			<path class="st28" d="M206,118.6c2.1,2.9,4.2,5.7,6.3,8.6c4.2,5.9,6.5,13,6.4,20.3l-6.3-8.6C212.5,131.7,210.3,124.6,206,118.6z"
				/>
			<polygon class="st14" points="212.4,139 218.7,147.6 215.5,149.9 209.3,141.3 			"/>
			<polygon class="st12" points="180.8,181 187,189.6 185.7,191.8 179.4,183.2 			"/>
			
				<linearGradient id="SVGID_15_" gradientUnits="userSpaceOnUse" x1="351.0071" y1="698.8947" x2="421.424" y2="637.7946" gradientTransform="matrix(1 0 0 1 -203.7553 -504.8332)">
				<stop  offset="0" style="stop-color:#D13F05"/>
				<stop  offset="0.2925" style="stop-color:#F67205"/>
				<stop  offset="0.3667" style="stop-color:#F67705"/>
				<stop  offset="0.4526" style="stop-color:#F68505"/>
				<stop  offset="0.5441" style="stop-color:#F69C05"/>
				<stop  offset="0.5638" style="stop-color:#F6A205"/>
				<stop  offset="0.5977" style="stop-color:#F69005"/>
				<stop  offset="0.6432" style="stop-color:#F67F05"/>
				<stop  offset="0.6931" style="stop-color:#F67505"/>
				<stop  offset="0.7553" style="stop-color:#F67205"/>
				<stop  offset="1" style="stop-color:#D13F05"/>
			</linearGradient>
			<path class="st29" d="M179.4,183.2l6.3,8.6c-8.9,3.5-18.8,4.1-28.1,1.6c-6.6-1.8-12.5-5.4-17-10.6l-6.3-8.6
				c4.5,5.1,10.4,8.8,17,10.6C160.6,187.3,170.4,186.7,179.4,183.2z"/>
			<polygon class="st16" points="183,181.6 189.3,190.2 187,189.6 180.8,181 			"/>
			
				<linearGradient id="SVGID_16_" gradientUnits="userSpaceOnUse" x1="360.8687" y1="710.2601" x2="431.2866" y2="649.1591" gradientTransform="matrix(1 0 0 1 -203.7553 -504.8332)">
				<stop  offset="0" style="stop-color:#D13F05"/>
				<stop  offset="0.2925" style="stop-color:#F67205"/>
				<stop  offset="0.3667" style="stop-color:#F67705"/>
				<stop  offset="0.4526" style="stop-color:#F68505"/>
				<stop  offset="0.5441" style="stop-color:#F69C05"/>
				<stop  offset="0.5638" style="stop-color:#F6A205"/>
				<stop  offset="0.5977" style="stop-color:#F69005"/>
				<stop  offset="0.6432" style="stop-color:#F67F05"/>
				<stop  offset="0.6931" style="stop-color:#F67505"/>
				<stop  offset="0.7553" style="stop-color:#F67205"/>
				<stop  offset="1" style="stop-color:#D13F05"/>
			</linearGradient>
			<path class="st30" d="M212.3,142.1l6.3,8.6c-0.4,4.9-1.7,9.8-3.8,14.2c-5.2,11.2-14.3,20.1-25.5,25.2l-6.3-8.6
				c11.2-5.1,20.2-14.1,25.5-25.2C210.6,151.9,211.9,147.1,212.3,142.1z"/>
			
				<linearGradient id="SVGID_17_" gradientUnits="userSpaceOnUse" x1="334.7826" y1="682.0371" x2="412.5672" y2="618.7694" gradientTransform="matrix(1 0 0 1 -203.7553 -504.8332)">
				<stop  offset="0" style="stop-color:#FFFFFF;stop-opacity:0"/>
				<stop  offset="0.2606" style="stop-color:#FFFFFF"/>
				<stop  offset="0.7553" style="stop-color:#FFFFFF"/>
				<stop  offset="1" style="stop-color:#FFFFFF;stop-opacity:0"/>
			</linearGradient>
			<path class="st31" d="M212.7,142.6c-0.4,4.9-1.7,9.8-3.8,14.2c-5.2,11.2-14.3,20.1-25.5,25.2l-2.3-0.6l-1.4,2.2
				c-8.9,3.5-18.8,4.1-28.1,1.6c-6.6-1.8-12.5-5.4-17-10.6l-0.1-4.3l-3.3-0.4c-5.8-9.8-6.5-22.6-0.8-35.1c1.7-3.7,3.9-7.2,6.4-10.4
				c1.3-0.6,2.7-1.3,3.9-2l0.6-2.9c10.6-10.2,25.3-15.8,39.2-14.4l3,2.4l8.5,0.4c13.1,5.5,20.7,17.7,20.7,31.5l-3.2,2.3L212.7,142.6
				z"/>
			
				<linearGradient id="SVGID_18_" gradientUnits="userSpaceOnUse" x1="403.1835" y1="662.8968" x2="324.2911" y2="629.5713" gradientTransform="matrix(1 0 0 1 -203.7553 -504.8332)">
				<stop  offset="0" style="stop-color:#FFAF02"/>
				<stop  offset="1" style="stop-color:#F56D05"/>
			</linearGradient>
			<path class="st32" d="M212.3,142.1c-0.4,4.9-1.7,9.8-3.8,14.2c-5.2,11.2-14.3,20.1-25.5,25.2l-2.3-0.6l-1.4,2.2
				c-8.9,3.5-18.8,4.1-28.1,1.6c-6.6-1.8-12.5-5.4-17-10.6l-0.1-4.3l-3.3-0.4c-5.8-9.8-6.5-22.6-0.8-35.1c1.7-3.7,3.9-7.2,6.4-10.4
				c1.3-0.6,2.7-1.3,3.9-2l0.6-2.9c10.6-10.2,25.3-15.8,39.2-14.4l3,2.4l8.5,0.4c13.1,5.5,20.7,17.7,20.7,31.5l-3.2,2.3L212.3,142.1
				z"/>
			
				<linearGradient id="SVGID_19_" gradientUnits="userSpaceOnUse" x1="344.1887" y1="623.2059" x2="389.9777" y2="666.9731" gradientTransform="matrix(1 0 0 1 -203.7553 -504.8332)">
				<stop  offset="0" style="stop-color:#FFFFFF;stop-opacity:0"/>
				<stop  offset="0.2606" style="stop-color:#FFFFFF"/>
				<stop  offset="0.7553" style="stop-color:#FFFFFF"/>
				<stop  offset="1" style="stop-color:#FFFFFF;stop-opacity:0"/>
			</linearGradient>
			<path class="st33" d="M181.6,116.5c15.7,4.4,22.6,20.9,15.4,36.7c-7.2,15.9-25.9,25.1-41.6,20.7c-15.7-4.4-22.6-20.9-15.4-36.7
				S165.9,112,181.6,116.5z"/>
			
				<linearGradient id="SVGID_20_" gradientUnits="userSpaceOnUse" x1="341.694" y1="650.2156" x2="404.4806" y2="650.2156" gradientTransform="matrix(1 0 0 1 -203.7553 -504.8332)">
				<stop  offset="0" style="stop-color:#CF4505"/>
				<stop  offset="1" style="stop-color:#E45905"/>
			</linearGradient>
			<path class="st34" d="M182.5,116.7c15.7,4.4,22.6,20.9,15.4,36.7c-7.2,15.9-25.9,25.1-41.6,20.7c-15.7-4.4-22.6-20.9-15.4-36.7
				C148.1,121.5,166.7,112.2,182.5,116.7z"/>
			<path class="st22" d="M158.7,174.6c-15.7-4.4-22.6-20.9-15.4-36.7c6.7-14.7,23.2-23.7,38.1-21.4c-15.5-3.8-33.5,5.4-40.6,21
				c-7.2,15.9-0.4,32.3,15.4,36.7c1.2,0.3,2.3,0.6,3.5,0.8C159.4,174.8,159.1,174.7,158.7,174.6z"/>
			
				<radialGradient id="SVGID_21_" cx="-13.8284" cy="1268.3083" r="23.4604" gradientTransform="matrix(7.290000e-02 7.410000e-02 -0.4921 0.4845 822.0795 -441.241)" gradientUnits="userSpaceOnUse">
				<stop  offset="0" style="stop-color:#FFFFFF"/>
				<stop  offset="8.578000e-02" style="stop-color:#FFFFFF;stop-opacity:0.9583"/>
				<stop  offset="0.2351" style="stop-color:#FFFFFF;stop-opacity:0.8462"/>
				<stop  offset="0.4301" style="stop-color:#FFFFFF;stop-opacity:0.6642"/>
				<stop  offset="0.6634" style="stop-color:#FFFFFF;stop-opacity:0.4119"/>
				<stop  offset="0.9261" style="stop-color:#FFFFFF;stop-opacity:9.449000e-02"/>
				<stop  offset="1" style="stop-color:#FFFFFF;stop-opacity:0"/>
			</radialGradient>
			<path class="st35" d="M198.6,174c-6.4,6.3-12.3,10.6-13.3,9.6c-0.9-1,3.5-6.8,9.8-13.1c6.4-6.3,12.3-10.6,13.3-9.6
				C209.4,161.8,205,167.7,198.6,174z"/>
			
				<linearGradient id="SVGID_22_" gradientUnits="userSpaceOnUse" x1="362.8097" y1="638.0615" x2="391.1164" y2="671.2717" gradientTransform="matrix(1 0 0 1 -203.7553 -504.8332)">
				<stop  offset="0" style="stop-color:#FFFFFF"/>
				<stop  offset="1" style="stop-color:#FFFFFF;stop-opacity:0"/>
			</linearGradient>
			<path class="st36" d="M203.3,115.3l-68.9,57.1v1.8c4.5,5.1,10.4,8.8,17,10.6c1.6,0.4,3.2,0.8,4.8,1l53.6-44.4l-0.5-0.1l3.2-2.3
				C212.6,130.2,209.3,121.7,203.3,115.3z"/>
			
				<linearGradient id="SVGID_23_" gradientUnits="userSpaceOnUse" x1="346.1235" y1="622.9618" x2="361.2641" y2="638.3202" gradientTransform="matrix(1 0 0 1 -203.7553 -504.8332)">
				<stop  offset="0" style="stop-color:#FFFFFF"/>
				<stop  offset="1" style="stop-color:#FFFFFF;stop-opacity:0"/>
			</linearGradient>
			<path class="st37" d="M183.3,107.1l-3-2.4c-4.1-0.4-8.3-0.2-12.4,0.6l-39.1,32.4c-2.2,5.7-3,11.9-2.5,18l58.5-48.4L183.3,107.1z"
				/>
			<g>
				<g>
					<defs>
						<rect id="SVGID_24_" x="151.5" y="122.9" width="43.7" height="45"/>
					</defs>
					<clipPath id="SVGID_25_">
						<use xlink:href="#SVGID_24_"  style="overflow:visible;"/>
					</clipPath>
					<g class="st38">
						
							<linearGradient id="SVGID_26_" gradientUnits="userSpaceOnUse" x1="2322.2725" y1="-1146.319" x2="2322.2725" y2="-1101.3079" gradientTransform="matrix(1 0 0 -1 -2148.7554 -978.4474)">
							<stop  offset="0" style="stop-color:#FFC000"/>
							<stop  offset="0.28" style="stop-color:#FFC000"/>
							<stop  offset="0.55" style="stop-color:#DAA600"/>
							<stop  offset="1" style="stop-color:#DAA600"/>
						</linearGradient>
						<path class="st39" d="M159.2,141.2c-0.2-0.2-0.4-0.4-0.5-0.6c-1.9-2.3-3.2-4.9-3.9-7.7c-0.5-2-0.6-4.1-0.4-6.2
							c0.1-1.1,0.4-2.2,0.9-3.1c0.3-0.6,1-0.9,1.6-0.6l0,0c1.4,0.5,2.5,1.5,3.3,2.7c2,2.7,3.4,5.8,4,9.1c0.2,1,0.2,2.1,0.3,3.1
							c0,0.4,0.1,0.8,0.1,1.2c0,0.3,0.2,0.5,0.6,0.4c1.4-0.2,2.9-0.1,4.3,0.3c1.2,0.3,2.4,0.7,3.6,1.2c1.7,0.7,3.2,1.7,4.4,3
							c0.1,0.2,0.4,0.2,0.6,0.1l0,0l0.1-0.1c0.3-0.3,0.6-0.6,0.9-0.9c2.7-3.1,6.3-5.3,10.3-6.4c1.3-0.4,2.6-0.5,3.9-0.4
							c0.6,0.1,1.2,0.3,1.7,0.5c0.2,0.2,0.4,0.4,0.4,0.7c0,0.4,0,0.8-0.1,1.1c-0.5,1.5-1.4,2.9-2.6,4.1c-2.8,3.1-6.6,5.3-10.7,6
							c-0.3,0.1-0.6,0.1-1,0.1c0.1,0.3,0.1,0.5,0.2,0.7c0.4,1.4,0.6,2.9,0.5,4.4c0,1.8-0.3,3.5-0.9,5.2c-0.6,1.9-1.6,3.7-2.9,5.3
							c-1.2,1.5-2.9,2.5-4.8,2.8c-1.3,0.4-2.7,0.5-4.1,0.3c-1.3-0.2-2.7-0.4-4-0.7c-1.4-0.4-2.7-0.8-4-1.4c-2.2-0.8-4.2-2-5.9-3.5
							c-1.8-1.5-3-3.6-3.4-5.9c-0.1-1.1-0.1-2.2,0.1-3.3c0.2-1.4,0.6-2.8,1.1-4.1c0.8-2.1,2.1-4,3.7-5.6c0.7-0.7,1.6-1.3,2.4-2
							L159.2,141.2z M160.6,157.3v0.1c-1.5-0.1-1.8,0.9-1.5,2c0,0.2,0.1,0.3,0.1,0.5c0.3,1.2,1.1,2.3,2.2,2.9c1.1,0.5,2.2,1,3.4,1.3
							c1.6,0.5,3.4,0.1,4.7-1.1c0.6-0.4,0.8-1.1,0.4-1.7c-0.1-0.1-0.2-0.3-0.3-0.4c-0.7-0.5-1.4-1-2.2-1.3c-1.3-0.6-2.6-1-3.9-1.5
							C162.5,157.7,161.5,157.5,160.6,157.3L160.6,157.3z M159.4,145.9c0-1-0.4-1.5-1.1-1.7c-0.6-0.1-1.2,0.1-1.6,0.7
							c-1.5,1.9-2.6,4-3.3,6.3c-0.1,0.4-0.1,0.8-0.1,1.1c0.1,0.7,0.7,1.2,1.4,1.1c0.3,0,0.7-0.2,0.9-0.5c0.5-0.7,1.1-1.5,1.5-2.3
							c0.6-1,1.1-2.1,1.7-3.1C159,147,159.2,146.4,159.4,145.9L159.4,145.9z M180.3,154.1c0-0.4-0.1-0.8-0.2-1.3
							c-0.2-0.7-1-1.2-1.7-1l0,0h-0.1c-0.5,0.2-0.9,0.7-1,1.3c-0.5,1.9-0.9,3.8-1.3,5.8c-0.1,0.6-0.1,1.2,0,1.8
							c0.1,0.7,0.8,1.1,1.4,0.9c0.2,0,0.3-0.1,0.4-0.2c0.5-0.3,0.8-0.7,0.9-1.3c0.4-1.1,0.7-2.2,1-3.3
							C180.1,156,180.2,155,180.3,154.1L180.3,154.1z"/>
					</g>
				</g>
			</g>
		</g>
	</g>
</g>
</svg>
