<?xml version="1.0" encoding="utf-8"?>
<!-- Generator: Adobe Illustrator 25.2.1, SVG Export Plug-In . SVG Version: 6.00 Build 0)  -->
<svg version="1.1" id="Layer_1" xmlns="http://www.w3.org/2000/svg" xmlns:xlink="http://www.w3.org/1999/xlink" x="0px" y="0px"
	 viewBox="0 0 512 512" style="enable-background:new 0 0 512 512;" xml:space="preserve">
<style type="text/css">
	.st0{fill:#DBA660;}
	.st1{fill:#BF7D5A;}
	.st2{fill:#F4D6D4;}
	.st3{fill:#F5C9C6;}
	.st4{fill:#F3F1FC;}
	.st5{fill:#57B3FE;}
	.st6{enable-background:new    ;}
	.st7{fill:#497BFE;}
	.st8{fill:#5094FF;}
	.st9{fill:#78E75A;}
	.st10{fill:#5EC363;}
	.st11{fill:#72D561;}
	.st12{fill:#D84905;}
	.st13{fill:url(#SVGID_1_);}
	.st14{fill:#F67205;}
	.st15{fill:url(#SVGID_2_);}
	.st16{fill:#F69D05;}
	.st17{fill:url(#SVGID_3_);}
	.st18{opacity:0.7;fill:url(#SVGID_4_);enable-background:new    ;}
	.st19{fill:url(#SVGID_5_);}
	.st20{opacity:0.7;fill:url(#SVGID_6_);enable-background:new    ;}
	.st21{fill:url(#SVGID_7_);}
	.st22{fill:#BA3E05;}
	.st23{opacity:0.5;fill:url(#SVGID_8_);enable-background:new    ;}
	.st24{opacity:0.4;fill:url(#SVGID_9_);enable-background:new    ;}
	.st25{opacity:0.4;fill:url(#SVGID_10_);enable-background:new    ;}
	.st26{clip-path:url(#SVGID_12_);}
	.st27{fill-rule:evenodd;clip-rule:evenodd;fill:url(#SVGID_13_);}
</style>
<g>
	<path class="st0" d="M128,143.8l-8.9-4.9l-5.9-3.9c-54.2-30.5-125,94.5-71.9,125l4.9,3l9.8,5.9l-1-1c8.9,5.9,22.6,5.9,37.4-3
		c28.6-15.8,51.2-55.1,51.2-87.6C142.8,160.5,136.9,148.7,128,143.8L128,143.8z M113.2,140.8h-1H113.2z M106.3,141.8c-1,0-1,0-2,0
		H106.3z M100.4,143.8c-1,0-1,1-2,1C98.5,143.8,99.4,143.8,100.4,143.8z M43.3,251.1v-1C42.3,250.1,43.3,250.1,43.3,251.1z
		 M41.4,244.2c0-1,0-1,0-2V244.2z M51.2,264.9l1,1L51.2,264.9z"/>
	<g>
		<path class="st1" d="M112.2,134.9l5.9,3.9l8.9,4.9c-3-1-5.9-3-8.9-3c-7.9-1-17.7,1-27.6,6.9c-28.6,16.7-51.2,55.1-51.2,87.6
			c0,10.8,3,19.7,7.9,25.6c2,3,3.9,4.9,6.9,6.9l-9.8-5.9l-4.9-3C-11.8,229.4,59.1,104.4,112.2,134.9z"/>
		
			<ellipse transform="matrix(0.5019 -0.8649 0.8649 0.5019 -132.6308 181.7477)" class="st0" cx="91.5" cy="206" rx="71.9" ry="41.4"/>
	</g>
	<g>
		<g>
			<g>
				<g>
					<path class="st2" d="M458.8,425.4c-3,9.8-18.7,10.8-23.6,2c6.9,7.9,4.9,20.7-2,27.6c-6.9,6.9-18.7,8.9-28.6,6.9
						s-18.7-6.9-27.6-12.8c4.9,14.8-6.9,31.5-21.7,32.5c-6.9,0-13.8-2-19.7-4.9c-34.5-12.8-68.9-25.6-103.4-39.4
						c-3.9,5.9-10.8,5.9-17.7,4.9c-2,0-3,0-4.9-1c-4.9-1-8.9-2-13.8-3.9c-3-1-5.9-2-8.9-3h-1c-3-1-5.9-2-8.9-3.9c-1,0-1-1-2-1
						c-3-1-5.9-3-9.8-3.9c-35.4-17.7-66-46.3-84.7-80.7c-3.9-7.9-7.9-15.8-8.9-24.6c-1-13.8,3.9-27.6,0-41.4c-1-3.9-3-6.9-4.9-9.8
						c-3.9-5.9-7.9-10.8-11.8-16.7c-2-3-3-4.9-3.9-7.9c-1-2-1-3-1-4.9c0-1,0-2,0-3c-5.9-32.5,19.7-69.9,46.3-81.7
						c8.9-3.9,14.8-4.9,20.7-4.9h3c8.9,1,16.7,3.9,25.6,6.9c24.6,9.8,50.2,19.7,72.9,34.5c37.4,24.6,67,60.1,104.4,85.7
						c31.5,21.7,67,34.5,95.5,60.1c6.9,6.9,14.8,14.8,13.8,24.6c0,7.9-8.9,15.8-15.8,13.8c11.8,5.9,23.6,13.8,32.5,23.6
						C456.9,409.6,461.8,417.5,458.8,425.4z"/>
					<g>
						<path class="st3" d="M436.2,428.3c0,0-22.6-29.5-137.8-71.9L436.2,428.3z"/>
						<path class="st3" d="M378.1,449c0,0-21.7-34.5-119.1-70.9L378.1,449z"/>
						<path class="st3" d="M417.5,379.1c0,0-15.8-20.7-96.5-50.2L417.5,379.1z"/>
					</g>
					<g>
						<path class="st3" d="M232.4,438.2c0-8.9-2-17.7-4.9-25.6c-3.9-7.9-8.9-14.8-14.8-20.7c-5.9-5.9-13.8-10.8-20.7-15.8
							c-3.9-2-7.9-3.9-11.8-5.9s-7.9-3.9-11.8-5.9h-1c-1,1-2,1-3,2c-2,1-3.9,1-5.9,2c-2,0-3.9,1-5.9,1s-4.9,0-7.9,0
							c5.9-4.9,13.8-6.9,21.7-6.9c-3-4.9-5.9-8.9-7.9-14.8s-3-13.8,2-19.7c-3,5.9-2,12.8,1,17.7c3,5.9,5.9,10.8,9.8,15.8l12.8,4.9
							c3.9,2,7.9,3.9,11.8,5.9c7.9,4.9,14.8,9.8,21.7,16.7c5.9,6.9,11.8,13.8,14.8,22.6C233.4,420.4,234.3,429.3,232.4,438.2
							L232.4,438.2z"/>
					</g>
					<path class="st4" d="M214.6,444.1c-2,0-3,0-4.9-1c-15.8-3-30.5-7.9-44.3-15.8c1-2,2-3,2-4.9c1-2,2-3.9,3.9-4.9c1-1,3-2,3.9-3
						c7.9-3,15.8-2,23.6,1c3,1,5.9,2,8.9,3.9c3,2,4.9,3.9,5.9,6.9c1,2,1,3.9,1,5.9V444.1z"/>
				</g>
			</g>
		</g>
	</g>
</g>
<g>
	<path class="st5" d="M235.3,167.4L190,129l-16.7-8.9L128,210.7l16.7,8.9l11.8-6.9v69.9l16.7,9.8l33.5-19.7v-88.6L235.3,167.4z"/>
	<g>
		<g class="st6">
			<g>
				<path class="st7" d="M173.3,292.4l-16.7-9.8V194l15.8,9.8L173.3,292.4z"/>
			</g>
			<g>
				<path class="st8" d="M144.7,219.6l-16.7-8.9l45.3-90.6L190,129L144.7,219.6z"/>
			</g>
			<g>
				<path class="st5" d="M190,129l45.3,38.4l-28.6,16.7v88.6l-33.5,19.7l-1-88.6l-27.6,15.8L190,129z"/>
			</g>
		</g>
	</g>
	<path class="st9" d="M489.4,77.8l-45.3-37.4l-16.7-9.8L382,121.1l16.7,9.8l11.8-6.9l1,69.9l15.8,9.8l34.5-19.7V94.5L489.4,77.8z"/>
</g>
<g>
	<path class="st10" d="M427.3,203.8l-15.8-9.8l-1-89.6l16.7,9.8L427.3,203.8z"/>
</g>
<path class="st11" d="M382,121.1l45.3-90.6"/>
<g>
	<path class="st9" d="M444.1,40.4l45.3,37.4l-27.6,16.7v89.6l-34.5,19.7v-89.6L398.8,131L444.1,40.4z"/>
</g>
<g>
	<g id="OBJECTS_1_">
		<g>
			<polygon class="st12" points="232.2,305.9 246.7,325.9 239,325 224.3,304.9 			"/>
			
				<linearGradient id="SVGID_1_" gradientUnits="userSpaceOnUse" x1="460.9225" y1="-349.2706" x2="625.1262" y2="-206.7926" gradientTransform="matrix(1 0 0 -1 -203.7553 6.9268)">
				<stop  offset="0" style="stop-color:#D13F05"/>
				<stop  offset="0.2925" style="stop-color:#F67205"/>
				<stop  offset="0.3667" style="stop-color:#F67705"/>
				<stop  offset="0.4526" style="stop-color:#F68505"/>
				<stop  offset="0.5441" style="stop-color:#F69C05"/>
				<stop  offset="0.5638" style="stop-color:#F6A205"/>
				<stop  offset="0.5977" style="stop-color:#F69005"/>
				<stop  offset="0.6432" style="stop-color:#F67F05"/>
				<stop  offset="0.6931" style="stop-color:#F67505"/>
				<stop  offset="0.7553" style="stop-color:#F67205"/>
				<stop  offset="1" style="stop-color:#D13F05"/>
			</linearGradient>
			<path class="st13" d="M399.4,186.3c4.9,6.8,9.8,13.3,14.7,20.1c9.8,13.8,15.2,30.3,14.9,47.3l-14.7-20.1
				C414.5,216.8,409.4,200.2,399.4,186.3z"/>
			<polygon class="st14" points="414.3,233.8 429,253.9 421.5,259.2 407.1,239.2 			"/>
			<polygon class="st12" points="340.6,331.8 355.1,351.8 352.1,356.9 337.4,336.9 			"/>
			
				<linearGradient id="SVGID_2_" gradientUnits="userSpaceOnUse" x1="466.1543" y1="-355.2854" x2="630.3495" y2="-212.8147" gradientTransform="matrix(1 0 0 -1 -203.7553 6.9268)">
				<stop  offset="0" style="stop-color:#D13F05"/>
				<stop  offset="0.2925" style="stop-color:#F67205"/>
				<stop  offset="0.3667" style="stop-color:#F67705"/>
				<stop  offset="0.4526" style="stop-color:#F68505"/>
				<stop  offset="0.5441" style="stop-color:#F69C05"/>
				<stop  offset="0.5638" style="stop-color:#F6A205"/>
				<stop  offset="0.5977" style="stop-color:#F69005"/>
				<stop  offset="0.6432" style="stop-color:#F67F05"/>
				<stop  offset="0.6931" style="stop-color:#F67505"/>
				<stop  offset="0.7553" style="stop-color:#F67205"/>
				<stop  offset="1" style="stop-color:#D13F05"/>
			</linearGradient>
			<path class="st15" d="M337.4,336.9l14.7,20.1c-20.8,8.2-43.8,9.6-65.5,3.7c-15.4-4.2-29.1-12.6-39.6-24.7l-14.7-20.1
				c10.5,11.9,24.3,20.5,39.6,24.7C293.5,346.4,316.4,345,337.4,336.9z"/>
			<polygon class="st16" points="345.8,333.2 360.4,353.2 355.1,351.8 340.6,331.8 			"/>
			
				<linearGradient id="SVGID_3_" gradientUnits="userSpaceOnUse" x1="489.1492" y1="-381.7867" x2="653.3467" y2="-239.314" gradientTransform="matrix(1 0 0 -1 -203.7553 6.9268)">
				<stop  offset="0" style="stop-color:#D13F05"/>
				<stop  offset="0.2925" style="stop-color:#F67205"/>
				<stop  offset="0.3667" style="stop-color:#F67705"/>
				<stop  offset="0.4526" style="stop-color:#F68505"/>
				<stop  offset="0.5441" style="stop-color:#F69C05"/>
				<stop  offset="0.5638" style="stop-color:#F6A205"/>
				<stop  offset="0.5977" style="stop-color:#F69005"/>
				<stop  offset="0.6432" style="stop-color:#F67F05"/>
				<stop  offset="0.6931" style="stop-color:#F67505"/>
				<stop  offset="0.7553" style="stop-color:#F67205"/>
				<stop  offset="1" style="stop-color:#D13F05"/>
			</linearGradient>
			<path class="st17" d="M414.1,241.1l14.7,20.1c-0.9,11.4-4,22.9-8.9,33.1c-12.1,26.1-33.3,46.9-59.5,58.8l-14.7-20.1
				c26.1-11.9,47.1-32.9,59.5-58.8C410.1,263.9,413.1,252.7,414.1,241.1z"/>
			
				<linearGradient id="SVGID_4_" gradientUnits="userSpaceOnUse" x1="428.3227" y1="-315.9776" x2="609.6976" y2="-168.4526" gradientTransform="matrix(1 0 0 -1 -203.7553 6.9268)">
				<stop  offset="0" style="stop-color:#FFFFFF;stop-opacity:0"/>
				<stop  offset="0.2606" style="stop-color:#FFFFFF"/>
				<stop  offset="0.7553" style="stop-color:#FFFFFF"/>
				<stop  offset="1" style="stop-color:#FFFFFF;stop-opacity:0"/>
			</linearGradient>
			<path class="st18" d="M415,242.2c-0.9,11.4-4,22.9-8.9,33.1c-12.1,26.1-33.3,46.9-59.5,58.8l-5.4-1.4l-3.3,5.1
				c-20.8,8.2-43.8,9.6-65.5,3.7c-15.4-4.2-29.1-12.6-39.6-24.7l-0.2-10l-7.7-0.9c-13.5-22.9-15.2-52.7-1.9-81.8
				c4-8.6,9.1-16.8,14.9-24.3c3-1.4,6.3-3,9.1-4.7l1.4-6.8c24.7-23.8,59-36.8,91.4-33.6l7,5.6l19.8,0.9
				c30.5,12.8,48.3,41.3,48.3,73.5l-7.5,5.4L415,242.2z"/>
			
				<linearGradient id="SVGID_5_" gradientUnits="userSpaceOnUse" x1="587.8171" y1="-271.347" x2="403.8591" y2="-193.6399" gradientTransform="matrix(1 0 0 -1 -203.7553 6.9268)">
				<stop  offset="0" style="stop-color:#FFAF02"/>
				<stop  offset="1" style="stop-color:#F56D05"/>
			</linearGradient>
			<path class="st19" d="M414.1,241.1c-0.9,11.4-4,22.9-8.9,33.1c-12.1,26.1-33.3,46.9-59.5,58.8l-5.4-1.4l-3.3,5.1
				c-20.8,8.2-43.8,9.6-65.5,3.7c-15.4-4.2-29.1-12.6-39.6-24.7l-0.2-10l-7.7-0.9c-13.5-22.9-15.2-52.7-1.9-81.8
				c4-8.6,9.1-16.8,14.9-24.3c3-1.4,6.3-3,9.1-4.7l1.4-6.8c24.7-23.8,59-36.8,91.4-33.6l7,5.6l19.8,0.9
				c30.5,12.8,48.3,41.3,48.3,73.5l-7.5,5.4L414.1,241.1z"/>
			
				<linearGradient id="SVGID_6_" gradientUnits="userSpaceOnUse" x1="450.2555" y1="-178.7973" x2="557.0244" y2="-280.8519" gradientTransform="matrix(1 0 0 -1 -203.7553 6.9268)">
				<stop  offset="0" style="stop-color:#FFFFFF;stop-opacity:0"/>
				<stop  offset="0.2606" style="stop-color:#FFFFFF"/>
				<stop  offset="0.7553" style="stop-color:#FFFFFF"/>
				<stop  offset="1" style="stop-color:#FFFFFF;stop-opacity:0"/>
			</linearGradient>
			<path class="st20" d="M342.5,181.4c36.6,10.3,52.7,48.7,35.9,85.6c-16.8,37.1-60.4,58.5-97,48.3s-52.7-48.7-35.9-85.6
				S305.9,170.9,342.5,181.4z"/>
			
				<linearGradient id="SVGID_7_" gradientUnits="userSpaceOnUse" x1="444.4384" y1="-241.7776" x2="590.8416" y2="-241.7776" gradientTransform="matrix(1 0 0 -1 -203.7553 6.9268)">
				<stop  offset="0" style="stop-color:#CF4505"/>
				<stop  offset="1" style="stop-color:#E45905"/>
			</linearGradient>
			<path class="st21" d="M344.6,181.8c36.6,10.3,52.7,48.7,35.9,85.6c-16.8,37.1-60.4,58.5-97,48.3c-36.6-10.3-52.7-48.7-35.9-85.6
				C264.4,193,307.7,171.3,344.6,181.8z"/>
			<path class="st22" d="M289.1,316.8c-36.6-10.3-52.7-48.7-35.9-85.6c15.6-34.3,54.1-55.3,88.8-49.9c-36.1-8.9-78.1,12.6-94.7,49
				c-16.8,37.1-0.9,75.3,35.9,85.6c2.8,0.7,5.4,1.4,8.2,1.9C290.7,317.3,290,317.1,289.1,316.8z"/>
			
				<radialGradient id="SVGID_8_" cx="3773.6455" cy="-700.6824" r="54.704" gradientTransform="matrix(7.290000e-02 7.410000e-02 0.4921 -0.4845 447.9597 -307.802)" gradientUnits="userSpaceOnUse">
				<stop  offset="0" style="stop-color:#FFFFFF"/>
				<stop  offset="8.578000e-02" style="stop-color:#FFFFFF;stop-opacity:0.9583"/>
				<stop  offset="0.2351" style="stop-color:#FFFFFF;stop-opacity:0.8462"/>
				<stop  offset="0.4301" style="stop-color:#FFFFFF;stop-opacity:0.6642"/>
				<stop  offset="0.6634" style="stop-color:#FFFFFF;stop-opacity:0.4119"/>
				<stop  offset="0.9261" style="stop-color:#FFFFFF;stop-opacity:9.449000e-02"/>
				<stop  offset="1" style="stop-color:#FFFFFF;stop-opacity:0"/>
			</radialGradient>
			<path class="st23" d="M382.1,315.4c-14.9,14.7-28.7,24.7-31,22.4c-2.1-2.3,8.2-15.9,22.9-30.5c14.9-14.7,28.7-24.7,31-22.4
				C407.3,287,397.1,300.7,382.1,315.4z"/>
			
				<linearGradient id="SVGID_9_" gradientUnits="userSpaceOnUse" x1="493.6751" y1="-213.4371" x2="559.6795" y2="-290.8753" gradientTransform="matrix(1 0 0 -1 -203.7553 6.9268)">
				<stop  offset="0" style="stop-color:#FFFFFF"/>
				<stop  offset="1" style="stop-color:#FFFFFF;stop-opacity:0"/>
			</linearGradient>
			<path class="st24" d="M393.1,178.6L232.4,311.7v4.2c10.5,11.9,24.3,20.5,39.6,24.7c3.7,0.9,7.5,1.9,11.2,2.3l125-103.5l-1.2-0.2
				l7.5-5.4C414.8,213.3,407.1,193.5,393.1,178.6z"/>
			
				<linearGradient id="SVGID_10_" gradientUnits="userSpaceOnUse" x1="454.767" y1="-178.2282" x2="490.0712" y2="-214.0403" gradientTransform="matrix(1 0 0 -1 -203.7553 6.9268)">
				<stop  offset="0" style="stop-color:#FFFFFF"/>
				<stop  offset="1" style="stop-color:#FFFFFF;stop-opacity:0"/>
			</linearGradient>
			<path class="st25" d="M346.5,159.4l-7-5.6c-9.6-0.9-19.4-0.5-28.9,1.4l-91.2,75.5c-5.1,13.3-7,27.7-5.8,42L350,159.9L346.5,159.4
				z"/>
			<g>
				<g>
					<g>
						<defs>
							<rect id="SVGID_11_" x="272.3" y="196.3" width="101.9" height="104.9"/>
						</defs>
						<clipPath id="SVGID_12_">
							<use xlink:href="#SVGID_11_"  style="overflow:visible;"/>
						</clipPath>
						<g class="st26">
							
								<linearGradient id="SVGID_13_" gradientUnits="userSpaceOnUse" x1="2472.3989" y1="2239.3511" x2="2472.3989" y2="2134.396" gradientTransform="matrix(1 0 0 1 -2148.7554 -1938.2074)">
								<stop  offset="0" style="stop-color:#FFC000"/>
								<stop  offset="0.28" style="stop-color:#FFC000"/>
								<stop  offset="0.55" style="stop-color:#DAA600"/>
								<stop  offset="1" style="stop-color:#DAA600"/>
							</linearGradient>
							<path class="st27" d="M290.3,239c-0.5-0.5-0.9-0.9-1.2-1.4c-4.4-5.4-7.5-11.4-9.1-18c-1.2-4.7-1.4-9.6-0.9-14.5
								c0.2-2.6,0.9-5.1,2.1-7.2c0.7-1.4,2.3-2.1,3.7-1.4l0,0c3.3,1.2,5.8,3.5,7.7,6.3c4.7,6.3,7.9,13.5,9.3,21.2
								c0.5,2.3,0.5,4.9,0.7,7.2c0,0.9,0.2,1.9,0.2,2.8c0,0.7,0.5,1.2,1.4,0.9c3.3-0.5,6.8-0.2,10,0.7c2.8,0.7,5.6,1.6,8.4,2.8
								c4,1.6,7.5,4,10.3,7c0.2,0.5,0.9,0.5,1.4,0.2l0,0l0.2-0.2c0.7-0.7,1.4-1.4,2.1-2.1c6.3-7.2,14.7-12.4,24-14.9
								c3-0.9,6.1-1.2,9.1-0.9c1.4,0.2,2.8,0.7,4,1.2c0.5,0.5,0.9,0.9,0.9,1.6c0,0.9,0,1.9-0.2,2.6c-1.2,3.5-3.3,6.8-6.1,9.6
								c-6.5,7.2-15.4,12.4-24.9,14c-0.7,0.2-1.4,0.2-2.3,0.2c0.2,0.7,0.2,1.2,0.5,1.6c0.9,3.3,1.4,6.8,1.2,10.3
								c0,4.2-0.7,8.2-2.1,12.1c-1.4,4.4-3.7,8.6-6.8,12.4c-2.8,3.5-6.8,5.8-11.2,6.5c-3,0.9-6.3,1.2-9.6,0.7
								c-3-0.5-6.3-0.9-9.3-1.6c-3.3-0.9-6.3-1.9-9.3-3.3c-5.1-1.9-9.8-4.7-13.8-8.2c-4.2-3.5-7-8.4-7.9-13.8
								c-0.2-2.6-0.2-5.1,0.2-7.7c0.5-3.3,1.4-6.5,2.6-9.6c1.9-4.9,4.9-9.3,8.6-13.1c1.6-1.6,3.7-3,5.6-4.7L290.3,239z M293.5,276.5
								v0.2c-3.5-0.2-4.2,2.1-3.5,4.7c0,0.5,0.2,0.7,0.2,1.2c0.7,2.8,2.6,5.4,5.1,6.8c2.6,1.2,5.1,2.3,7.9,3c3.7,1.2,7.9,0.2,11-2.6
								c1.4-0.9,1.9-2.6,0.9-4c-0.2-0.2-0.5-0.7-0.7-0.9c-1.6-1.2-3.3-2.3-5.1-3c-3-1.4-6.1-2.3-9.1-3.5
								C298,277.4,295.6,277,293.5,276.5L293.5,276.5z M290.7,249.9c0-2.3-0.9-3.5-2.6-4c-1.4-0.2-2.8,0.2-3.7,1.6
								c-3.5,4.4-6.1,9.3-7.7,14.7c-0.2,0.9-0.2,1.9-0.2,2.6c0.2,1.6,1.6,2.8,3.3,2.6c0.7,0,1.6-0.5,2.1-1.2
								c1.2-1.6,2.6-3.5,3.5-5.4c1.4-2.3,2.6-4.9,4-7.2C289.8,252.5,290.3,251.1,290.7,249.9L290.7,249.9z M339.5,269
								c0-0.9-0.2-1.9-0.5-3c-0.5-1.6-2.3-2.8-4-2.3l0,0h-0.2c-1.2,0.5-2.1,1.6-2.3,3c-1.2,4.4-2.1,8.9-3,13.5
								c-0.2,1.4-0.2,2.8,0,4.2c0.2,1.6,1.9,2.6,3.3,2.1c0.5,0,0.7-0.2,0.9-0.5c1.2-0.7,1.9-1.6,2.1-3c0.9-2.6,1.6-5.1,2.3-7.7
								C339,273.5,339.2,271.1,339.5,269L339.5,269z"/>
						</g>
					</g>
				</g>
			</g>
		</g>
	</g>
</g>
</svg>
