<?xml version="1.0" encoding="utf-8"?>
<!-- Generator: Adobe Illustrator 25.2.1, SVG Export Plug-In . SVG Version: 6.00 Build 0)  -->
<svg version="1.1" id="Layer_1" xmlns="http://www.w3.org/2000/svg" xmlns:xlink="http://www.w3.org/1999/xlink" x="0px" y="0px"
	 viewBox="0 0 512 512" style="enable-background:new 0 0 512 512;" xml:space="preserve">
<style type="text/css">
	.st0{fill:#72D561;}
	.st1{fill:#5EC363;}
	.st2{fill:#78E75A;}
	.st3{opacity:0.5;}
	.st4{fill:#E3E7F0;}
	.st5{fill:#FFFFFF;}
	.st6{fill:#C9CEE2;}
	.st7{fill:#D84905;}
	.st8{fill:url(#SVGID_1_);}
	.st9{fill:#F67205;}
	.st10{fill:url(#SVGID_2_);}
	.st11{fill:#F69D05;}
	.st12{fill:url(#SVGID_3_);}
	.st13{opacity:0.7;fill:url(#SVGID_4_);enable-background:new    ;}
	.st14{fill:url(#SVGID_5_);}
	.st15{opacity:0.7;fill:url(#SVGID_6_);enable-background:new    ;}
	.st16{fill:url(#SVGID_7_);}
	.st17{fill:#BA3E05;}
	.st18{opacity:0.5;fill:url(#SVGID_8_);enable-background:new    ;}
	.st19{opacity:0.4;fill:url(#SVGID_9_);enable-background:new    ;}
	.st20{opacity:0.4;fill:url(#SVGID_10_);enable-background:new    ;}
	.st21{clip-path:url(#SVGID_12_);}
	.st22{fill-rule:evenodd;clip-rule:evenodd;fill:url(#SVGID_13_);}
	.st23{fill:url(#SVGID_14_);}
	.st24{fill:url(#SVGID_15_);}
	.st25{fill:url(#SVGID_16_);}
	.st26{opacity:0.7;fill:url(#SVGID_17_);enable-background:new    ;}
	.st27{fill:url(#SVGID_18_);}
	.st28{opacity:0.7;fill:url(#SVGID_19_);enable-background:new    ;}
	.st29{fill:url(#SVGID_20_);}
	.st30{opacity:0.5;fill:url(#SVGID_21_);enable-background:new    ;}
	.st31{opacity:0.4;fill:url(#SVGID_22_);enable-background:new    ;}
	.st32{opacity:0.4;fill:url(#SVGID_23_);enable-background:new    ;}
	.st33{clip-path:url(#SVGID_25_);}
	.st34{fill-rule:evenodd;clip-rule:evenodd;fill:url(#SVGID_26_);}
	.st35{fill:url(#SVGID_27_);}
	.st36{fill:url(#SVGID_28_);}
	.st37{fill:url(#SVGID_29_);}
	.st38{opacity:0.7;fill:url(#SVGID_30_);enable-background:new    ;}
	.st39{fill:url(#SVGID_31_);}
	.st40{opacity:0.7;fill:url(#SVGID_32_);enable-background:new    ;}
	.st41{fill:url(#SVGID_33_);}
	.st42{opacity:0.5;fill:url(#SVGID_34_);enable-background:new    ;}
	.st43{opacity:0.4;fill:url(#SVGID_35_);enable-background:new    ;}
	.st44{opacity:0.4;fill:url(#SVGID_36_);enable-background:new    ;}
	.st45{clip-path:url(#SVGID_38_);}
	.st46{fill-rule:evenodd;clip-rule:evenodd;fill:url(#SVGID_39_);}
	.st47{fill:url(#SVGID_40_);}
	.st48{fill:url(#SVGID_41_);}
	.st49{fill:url(#SVGID_42_);}
	.st50{opacity:0.7;fill:url(#SVGID_43_);enable-background:new    ;}
	.st51{fill:url(#SVGID_44_);}
	.st52{opacity:0.7;fill:url(#SVGID_45_);enable-background:new    ;}
	.st53{fill:url(#SVGID_46_);}
	.st54{opacity:0.5;fill:url(#SVGID_47_);enable-background:new    ;}
	.st55{opacity:0.4;fill:url(#SVGID_48_);enable-background:new    ;}
	.st56{opacity:0.4;fill:url(#SVGID_49_);enable-background:new    ;}
	.st57{clip-path:url(#SVGID_51_);}
	.st58{fill-rule:evenodd;clip-rule:evenodd;fill:url(#SVGID_52_);}
	.st59{fill:url(#SVGID_53_);}
	.st60{fill:url(#SVGID_54_);}
	.st61{fill:url(#SVGID_55_);}
	.st62{opacity:0.7;fill:url(#SVGID_56_);enable-background:new    ;}
	.st63{fill:url(#SVGID_57_);}
	.st64{opacity:0.7;fill:url(#SVGID_58_);enable-background:new    ;}
	.st65{fill:url(#SVGID_59_);}
	.st66{opacity:0.5;fill:url(#SVGID_60_);enable-background:new    ;}
	.st67{opacity:0.4;fill:url(#SVGID_61_);enable-background:new    ;}
	.st68{opacity:0.4;fill:url(#SVGID_62_);enable-background:new    ;}
	.st69{clip-path:url(#SVGID_64_);}
	.st70{fill-rule:evenodd;clip-rule:evenodd;fill:url(#SVGID_65_);}
	.st71{fill:url(#SVGID_66_);}
	.st72{fill:url(#SVGID_67_);}
	.st73{fill:url(#SVGID_68_);}
	.st74{opacity:0.7;fill:url(#SVGID_69_);enable-background:new    ;}
	.st75{fill:url(#SVGID_70_);}
	.st76{opacity:0.7;fill:url(#SVGID_71_);enable-background:new    ;}
	.st77{fill:url(#SVGID_72_);}
	.st78{opacity:0.5;fill:url(#SVGID_73_);enable-background:new    ;}
	.st79{opacity:0.4;fill:url(#SVGID_74_);enable-background:new    ;}
	.st80{opacity:0.4;fill:url(#SVGID_75_);enable-background:new    ;}
	.st81{clip-path:url(#SVGID_77_);}
	.st82{fill-rule:evenodd;clip-rule:evenodd;fill:url(#SVGID_78_);}
</style>
<g>
	<g>
		<path class="st0" d="M352.6,38.2c0,0,42.3,95.6-10.3,131c0,0-37.5,26.5-47.6,36.3c0,0-4.2-51.5,8.9-76.4S341.4,87.5,352.6,38.2z"
			/>
	</g>
	<g>
		<path class="st1" d="M141.1,159.7c0,0-19.9,10-18.1,46.5c0,0,27.8-35.1,60.3-25.8C183.3,180.5,173.2,155.1,141.1,159.7z"/>
	</g>
	<g>
		<path class="st0" d="M242.6,266.1c0,0-1.2-88.8-26.9-116.7S141,159.8,141,159.8s61.6-2.3,94.3,122.8L242.6,266.1z"/>
	</g>
	<g>
		<path class="st0" d="M333.2,236.6c0,0-41.6-4.4-56.6,11.8c-14.9,16.3-21.4,36.2-21.4,36.8C255.3,285.9,271.6,245.5,333.2,236.6z"
			/>
	</g>
	<g>
		<path class="st0" d="M257.7,121.6c0,0-13.1,35.8,1.8,59s9.7,49.4,9.7,49.4l-16.8,21c0,0,12.8-36.6-2-61.6S247.7,133.4,257.7,121.6
			z"/>
	</g>
	<g>
		<path class="st2" d="M293,197.8c4.9-4.3,9.9-8.4,14.6-12.9c4.4-4.8,9.3-9.1,13.1-14.3c8.5-9.8,15.1-21.1,20.8-32.6
			c5.5-11.7,9.2-24,11.3-36.6c2-12.6,2.5-25.4,0.3-37.8c1.1,12.6-0.4,25.2-3.4,37.2c-3.1,12.1-7.6,23.7-13.8,34.3
			c-6.4,10.5-13.5,20.6-22.3,29.2c-4,4.6-9,8.3-13.5,12.4c-4.7,3.8-9.8,7.3-14.7,11L293,197.8z"/>
	</g>
	<g>
		<path class="st0" d="M217.4,341.2c-0.2,3.5,2,7,6.5,9.8c2,1.1,4.2,2.1,6.6,2.7c8.1,2.1,18.2,1.2,25-2.7c4.5-2.7,6.7-6.3,6.5-9.8
			c0-0.1,0-0.2,0-0.2c-0.1-0.5-0.2-0.8-0.2-1.2c0-0.2-0.1-0.3-0.2-0.6c-8.9-47.9,19-98.9,19-98.9c38.8-66.6,2.7-132.1-16.2-160.1
			c-18.2-27.1-6.5-57.7-5.7-59.9c-14.2,19.8-8.1,42.4,1.9,65.9v0.1c7.5,17.4,17,35.3,21.8,53c11.3,41.4-11.5,73-11.5,73
			c-42.4,57.8-52.5,120.7-53.5,128.3C217.5,340.7,217.4,341,217.4,341.2z"/>
	</g>
	<g>
		<path class="st2" d="M217.4,341.2c-0.2,3.5,2,7,6.5,9.8c2,1.1,4.2,2.1,6.6,2.7c6,0.1,11.9-1.1,16.6-3.8c4.5-2.7,6.7-6.3,6.5-9.8
			c0-0.1,0-0.1,0-0.2c-0.1-0.5-0.2-0.8-0.2-1.2c0-0.1-0.1-0.3-0.2-0.6c-8.9-47.9,18.9-98.9,18.9-98.9
			c35.8-61.4,7.9-121.9-11.6-152.9c7.5,17.4,17,35.3,21.8,53c11.3,41.4-11.5,73-11.5,73c-42.4,57.8-52.5,120.7-53.5,128.3
			C217.5,340.7,217.4,341,217.4,341.2z"/>
	</g>
	<g>
		<path class="st2" d="M235.9,274.9c0.3-0.5,0.8-1.1,1.4-1.5c0.7-0.4,0.7-0.6,2.5-1.1c1.5-0.4,3.6,0.3,4.3,0.9
			c0.4,0.2,0.7,0.5,1,0.8s0.7,0.9,0.7,0.9l0.1,0.2l0.1,0.3c0,0-0.1-0.2-0.2-0.5l-0.6-2.2l-1.1-5l-2.2-10.3c-1.5-6.9-3-13.8-4.8-20.7
			c-3.5-13.7-7.8-27.3-13.5-40.4c-5.8-13-13-25.7-23.7-35.4c-5.3-4.8-11.6-8.7-18.4-10.8c-6.8-2.2-14.1-2.3-21-1.2
			c7-0.6,14.1,0.1,20.4,2.6c6.4,2.5,12,6.6,16.7,11.6c9.4,10,15.4,22.6,20,35.5c4.6,13,7.7,26.4,10.2,40c1.2,6.8,2.2,13.7,3.2,20.5
			l1.4,10.4l0.8,5.4l0.6,2.9c0.1,0.5,0.3,1.2,0.6,2l0.4,0.9l0.3,0.5c0.1,0.2,0.6,0.8,0.9,1.2c0.4,0.4,0.8,0.8,1.3,1.1
			c0.8,0.6,3,1.3,4.7,0.9c1.9-0.4,1.9-0.7,2.7-1.2c0.6-0.5,1.2-1.1,1.6-1.7L235.9,274.9z"/>
	</g>
</g>
<g>
	<g>
		<path class="st0" d="M352.6,38.2c0,0,42.3,95.6-10.3,131c0,0-37.5,26.5-47.6,36.3c0,0-4.2-51.5,8.9-76.4S341.4,87.5,352.6,38.2z"
			/>
	</g>
	<g>
		<path class="st1" d="M141.1,159.7c0,0-19.9,10-18.1,46.5c0,0,27.8-35.1,60.3-25.8C183.3,180.5,173.2,155.1,141.1,159.7z"/>
	</g>
	<g>
		<path class="st0" d="M242.6,266.1c0,0-1.2-88.8-26.9-116.7S141,159.8,141,159.8s61.6-2.3,94.3,122.8L242.6,266.1z"/>
	</g>
	<g>
		<path class="st0" d="M333.2,236.6c0,0-41.6-4.4-56.6,11.8c-14.9,16.3-21.4,36.2-21.4,36.8C255.3,285.9,271.6,245.5,333.2,236.6z"
			/>
	</g>
	<g>
		<path class="st0" d="M257.7,121.6c0,0-13.1,35.8,1.8,59s9.7,49.4,9.7,49.4l-16.8,21c0,0,12.8-36.6-2-61.6S247.7,133.4,257.7,121.6
			z"/>
	</g>
	<g>
		<path class="st2" d="M293,197.8c4.9-4.3,9.9-8.4,14.6-12.9c4.4-4.8,9.3-9.1,13.1-14.3c8.5-9.8,15.1-21.1,20.8-32.6
			c5.5-11.7,9.2-24,11.3-36.6c2-12.6,2.5-25.4,0.3-37.8c1.1,12.6-0.4,25.2-3.4,37.2c-3.1,12.1-7.6,23.7-13.8,34.3
			c-6.4,10.5-13.5,20.6-22.3,29.2c-4,4.6-9,8.3-13.5,12.4c-4.7,3.8-9.8,7.3-14.7,11L293,197.8z"/>
	</g>
	<g>
		<path class="st0" d="M217.4,341.2c-0.2,3.5,2,7,6.5,9.8c2,1.1,4.2,2.1,6.6,2.7c8.1,2.1,18.2,1.2,25-2.7c4.5-2.7,6.7-6.3,6.5-9.8
			c0-0.1,0-0.2,0-0.2c-0.1-0.5-0.2-0.8-0.2-1.2c0-0.2-0.1-0.3-0.2-0.6c-8.9-47.9,19-98.9,19-98.9c38.8-66.6,2.7-132.1-16.2-160.1
			c-18.2-27.1-6.5-57.7-5.7-59.9c-14.2,19.8-8.1,42.4,1.9,65.9v0.1c7.5,17.4,17,35.3,21.8,53c11.3,41.4-11.5,73-11.5,73
			c-42.4,57.8-52.5,120.7-53.5,128.3C217.5,340.7,217.4,341,217.4,341.2z"/>
	</g>
	<g>
		<path class="st2" d="M217.4,341.2c-0.2,3.5,2,7,6.5,9.8c2,1.1,4.2,2.1,6.6,2.7c6,0.1,11.9-1.1,16.6-3.8c4.5-2.7,6.7-6.3,6.5-9.8
			c0-0.1,0-0.1,0-0.2c-0.1-0.5-0.2-0.8-0.2-1.2c0-0.1-0.1-0.3-0.2-0.6c-8.9-47.9,18.9-98.9,18.9-98.9
			c35.8-61.4,7.9-121.9-11.6-152.9c7.5,17.4,17,35.3,21.8,53c11.3,41.4-11.5,73-11.5,73c-42.4,57.8-52.5,120.7-53.5,128.3
			C217.5,340.7,217.4,341,217.4,341.2z"/>
	</g>
	<g>
		<path class="st2" d="M235.9,274.9c0.3-0.5,0.8-1.1,1.4-1.5c0.7-0.4,0.7-0.6,2.5-1.1c1.5-0.4,3.6,0.3,4.3,0.9
			c0.4,0.2,0.7,0.5,1,0.8s0.7,0.9,0.7,0.9l0.1,0.2l0.1,0.3c0,0-0.1-0.2-0.2-0.5l-0.6-2.2l-1.1-5l-2.2-10.3c-1.5-6.9-3-13.8-4.8-20.7
			c-3.5-13.7-7.8-27.3-13.5-40.4c-5.8-13-13-25.7-23.7-35.4c-5.3-4.8-11.6-8.7-18.4-10.8c-6.8-2.2-14.1-2.3-21-1.2
			c7-0.6,14.1,0.1,20.4,2.6c6.4,2.5,12,6.6,16.7,11.6c9.4,10,15.4,22.6,20,35.5c4.6,13,7.7,26.4,10.2,40c1.2,6.8,2.2,13.7,3.2,20.5
			l1.4,10.4l0.8,5.4l0.6,2.9c0.1,0.5,0.3,1.2,0.6,2l0.4,0.9l0.3,0.5c0.1,0.2,0.6,0.8,0.9,1.2c0.4,0.4,0.8,0.8,1.3,1.1
			c0.8,0.6,3,1.3,4.7,0.9c1.9-0.4,1.9-0.7,2.7-1.2c0.6-0.5,1.2-1.1,1.6-1.7L235.9,274.9z"/>
	</g>
</g>
<g class="st3">
	<g>
		
			<ellipse transform="matrix(2.999949e-03 -1 1 2.999949e-03 -2.8347 490.5585)" class="st4" cx="244.6" cy="246.7" rx="85.1" ry="147"/>
	</g>
</g>
<g>
	<g>
		<path class="st5" d="M335,202.3l-0.2,42.7c-0.1,13.3-8.8,26.6-26.3,36.8c-35.1,20.4-92.5,20.4-127.9,0
			c-17.8-10.3-26.7-23.8-26.6-37.3l0.2-42.6c0-13.4,8.7-26.7,26.2-36.9c35.1-20.4,92.5-20.4,127.9,0
			C326.1,175.3,335,188.8,335,202.3z"/>
	</g>
</g>
<g>
	<g>
		<path class="st6" d="M328.5,201.8l-0.2,43.5c0-12.6-8.2-25-24.7-34.5c-32.8-19-86.1-19-118.7,0c-16.2,9.4-24.3,21.7-24.3,34.1
			l0.1-43.7c0.1-12.4,8.2-24.7,24.4-34.1c32.6-19,85.8-19,118.7,0C320.3,176.7,328.5,189.3,328.5,201.8z"/>
	</g>
</g>
<g>
	<g>
		<path class="st4" d="M309.7,163.7c36.1,20.9,36.3,54.8,0.4,75.7s-94.5,20.9-130.7,0s-36.3-54.8-0.4-75.7
			C215,142.9,273.6,142.8,309.7,163.7z M185.4,236c32.8,19,86.1,19,118.7,0s32.5-49.8-0.4-68.8s-86.1-19-118.7,0
			C152.4,186.1,152.6,217,185.4,236"/>
	</g>
</g>
<g>
	<g>
		<path class="st0" d="M352.6,38.2c0,0,42.3,95.6-10.3,131c0,0-37.5,26.5-47.6,36.3c0,0-4.2-51.5,8.9-76.4S341.4,87.5,352.6,38.2z"
			/>
	</g>
	<g>
		<path class="st1" d="M141.1,159.7c0,0-19.9,10-18.1,46.5c0,0,27.8-35.1,60.3-25.8C183.3,180.5,173.2,155.1,141.1,159.7z"/>
	</g>
	<g>
		<path class="st0" d="M230.7,266.4h11.8l0.1-0.3c0,0-1.2-88.8-26.9-116.7S141,159.8,141,159.8S197.2,157.7,230.7,266.4z"/>
	</g>
	<g>
		<path class="st0" d="M269.3,266.4c11.5-11.6,31.4-25.1,63.9-29.8c0,0-41.6-4.4-56.6,11.8c-5.4,5.9-9.6,12.2-12.9,18H269.3z"/>
	</g>
	<g>
		<path class="st0" d="M257.7,121.6c0,0-13.1,35.8,1.8,59s9.7,49.4,9.7,49.4l-16.8,21c0,0,12.8-36.6-2-61.6S247.7,133.4,257.7,121.6
			z"/>
	</g>
	<g>
		<path class="st2" d="M293,197.8c4.9-4.3,9.9-8.4,14.6-12.9c4.4-4.8,9.3-9.1,13.1-14.3c8.5-9.8,15.1-21.1,20.8-32.6
			c5.5-11.7,9.2-24,11.3-36.6c2-12.6,2.5-25.4,0.3-37.8c1.1,12.6-0.4,25.2-3.4,37.2c-3.1,12.1-7.6,23.7-13.8,34.3
			c-6.4,10.5-13.5,20.6-22.3,29.2c-4,4.6-9,8.3-13.5,12.4c-4.7,3.8-9.8,7.3-14.7,11L293,197.8z"/>
	</g>
	<g>
		<path class="st0" d="M260.7,86.2c7.5,17.4,17,35.3,21.8,53c11.3,41.4-11.5,73-11.5,73c-13.3,18.2-23.5,36.9-31.2,54.3h29.8
			c5.4-15.7,11-26.1,11-26.1c38.8-66.6,2.7-132.1-16.2-160.1c-18.2-27.1-6.5-57.7-5.7-59.9C244.6,40,250.8,62.7,260.7,86.2
			L260.7,86.2z"/>
	</g>
	<g>
		<path class="st2" d="M271,212.1c-13.3,18.2-23.5,36.9-31.2,54.3h21c5.5-16.4,11.4-27.3,11.4-27.3c35.8-61.4,7.9-121.9-11.6-152.9
			c7.5,17.4,17,35.3,21.8,53C293.8,180.6,271,212.1,271,212.1z"/>
	</g>
	<g>
		<path class="st2" d="M181,151.8c6.4,2.5,12,6.6,16.7,11.6c9.4,10,15.4,22.6,20,35.5c4.6,13,7.7,26.4,10.2,40
			c1.2,6.8,2.2,13.7,3.2,20.5l0.9,6.9h11.8l-1.9-8.8c-1.5-6.9-3-13.8-4.8-20.7c-3.5-13.7-7.8-27.3-13.5-40.4
			c-5.8-13-13-25.7-23.7-35.4c-5.3-4.8-11.6-8.7-18.4-10.8c-6.8-2.2-14.1-2.3-21-1.2C167.5,148.6,174.6,149.3,181,151.8z"/>
	</g>
</g>
<g>
	<g>
		<path class="st6" d="M337,201.8l-0.2,43.7c0,13.6-9,27.2-26.8,37.6c-35.9,20.9-94.5,20.9-130.7,0c-18.2-10.5-27.3-24.3-27.2-38.1
			l0.2-43.7c0,13.8,9,27.6,27.2,38.1c36.1,20.9,94.8,20.9,130.7,0C328,229,336.9,215.4,337,201.8z"/>
	</g>
</g>
<g>
	<g>
		<path class="st4" d="M328,206.8c-1.9,10.6-9.8,21-23.8,29.1c-32.6,19-85.9,19-118.7,0c-14.1-8.1-22.1-18.5-24.2-29.1h-8.5
			c2.1,11.9,11,23.5,26.7,32.6c36.1,20.9,94.8,20.9,130.7,0c15.6-9.1,24.4-20.7,26.4-32.6L328,206.8L328,206.8z"/>
	</g>
</g>
<g>
	<g id="OBJECTS">
		<g>
			<polygon class="st7" points="145.4,397.6 151.6,406.2 148.3,405.8 142,397.2 			"/>
			
				<linearGradient id="SVGID_1_" gradientUnits="userSpaceOnUse" x1="359.8664" y1="924.0126" x2="430.2869" y2="862.9094" gradientTransform="matrix(1 0 0 1 -203.7553 -504.8332)">
				<stop  offset="0" style="stop-color:#D13F05"/>
				<stop  offset="0.2925" style="stop-color:#F67205"/>
				<stop  offset="0.3667" style="stop-color:#F67705"/>
				<stop  offset="0.4526" style="stop-color:#F68505"/>
				<stop  offset="0.5441" style="stop-color:#F69C05"/>
				<stop  offset="0.5638" style="stop-color:#F6A205"/>
				<stop  offset="0.5977" style="stop-color:#F69005"/>
				<stop  offset="0.6432" style="stop-color:#F67F05"/>
				<stop  offset="0.6931" style="stop-color:#F67505"/>
				<stop  offset="0.7553" style="stop-color:#F67205"/>
				<stop  offset="1" style="stop-color:#D13F05"/>
			</linearGradient>
			<path class="st8" d="M217.1,346.3c2.1,2.9,4.2,5.7,6.3,8.6c4.2,5.9,6.5,13,6.4,20.3l-6.3-8.6
				C223.6,359.4,221.4,352.2,217.1,346.3z"/>
			<polygon class="st9" points="223.5,366.6 229.8,375.2 226.6,377.6 220.4,369 			"/>
			<polygon class="st7" points="191.8,408.7 198.1,417.3 196.7,419.5 190.5,410.8 			"/>
			
				<linearGradient id="SVGID_2_" gradientUnits="userSpaceOnUse" x1="362.0605" y1="926.5351" x2="432.4774" y2="865.435" gradientTransform="matrix(1 0 0 1 -203.7553 -504.8332)">
				<stop  offset="0" style="stop-color:#D13F05"/>
				<stop  offset="0.2925" style="stop-color:#F67205"/>
				<stop  offset="0.3667" style="stop-color:#F67705"/>
				<stop  offset="0.4526" style="stop-color:#F68505"/>
				<stop  offset="0.5441" style="stop-color:#F69C05"/>
				<stop  offset="0.5638" style="stop-color:#F6A205"/>
				<stop  offset="0.5977" style="stop-color:#F69005"/>
				<stop  offset="0.6432" style="stop-color:#F67F05"/>
				<stop  offset="0.6931" style="stop-color:#F67505"/>
				<stop  offset="0.7553" style="stop-color:#F67205"/>
				<stop  offset="1" style="stop-color:#D13F05"/>
			</linearGradient>
			<path class="st10" d="M190.5,410.8l6.3,8.6c-8.9,3.5-18.8,4.1-28.1,1.6c-6.6-1.8-12.5-5.4-17-10.6l-6.3-8.6
				c4.5,5.1,10.4,8.8,17,10.6C171.7,414.9,181.5,414.4,190.5,410.8z"/>
			<polygon class="st11" points="194.1,409.3 200.4,417.9 198.1,417.3 191.8,408.7 			"/>
			
				<linearGradient id="SVGID_3_" gradientUnits="userSpaceOnUse" x1="371.9716" y1="937.9576" x2="442.3895" y2="876.8566" gradientTransform="matrix(1 0 0 1 -203.7553 -504.8332)">
				<stop  offset="0" style="stop-color:#D13F05"/>
				<stop  offset="0.2925" style="stop-color:#F67205"/>
				<stop  offset="0.3667" style="stop-color:#F67705"/>
				<stop  offset="0.4526" style="stop-color:#F68505"/>
				<stop  offset="0.5441" style="stop-color:#F69C05"/>
				<stop  offset="0.5638" style="stop-color:#F6A205"/>
				<stop  offset="0.5977" style="stop-color:#F69005"/>
				<stop  offset="0.6432" style="stop-color:#F67F05"/>
				<stop  offset="0.6931" style="stop-color:#F67505"/>
				<stop  offset="0.7553" style="stop-color:#F67205"/>
				<stop  offset="1" style="stop-color:#D13F05"/>
			</linearGradient>
			<path class="st12" d="M223.4,369.8l6.3,8.6c-0.4,4.9-1.7,9.8-3.8,14.2c-5.2,11.2-14.3,20.1-25.5,25.2l-6.3-8.6
				c11.2-5.1,20.2-14.1,25.5-25.2C221.7,379.6,223,374.8,223.4,369.8z"/>
			
				<linearGradient id="SVGID_4_" gradientUnits="userSpaceOnUse" x1="345.885" y1="909.7352" x2="423.6696" y2="846.4675" gradientTransform="matrix(1 0 0 1 -203.7553 -504.8332)">
				<stop  offset="0" style="stop-color:#FFFFFF;stop-opacity:0"/>
				<stop  offset="0.2606" style="stop-color:#FFFFFF"/>
				<stop  offset="0.7553" style="stop-color:#FFFFFF"/>
				<stop  offset="1" style="stop-color:#FFFFFF;stop-opacity:0"/>
			</linearGradient>
			<path class="st13" d="M223.8,370.3c-0.4,4.9-1.7,9.8-3.8,14.2c-5.2,11.2-14.3,20.1-25.5,25.2l-2.3-0.6l-1.4,2.2
				c-8.9,3.5-18.8,4.1-28.1,1.6c-6.6-1.8-12.5-5.4-17-10.6l-0.1-4.3l-3.3-0.4c-5.8-9.8-6.5-22.6-0.8-35.1c1.7-3.7,3.9-7.2,6.4-10.4
				c1.3-0.6,2.7-1.3,3.9-2l0.6-2.9c10.6-10.2,25.3-15.8,39.2-14.4l3,2.4l8.5,0.4c13.1,5.5,20.7,17.7,20.7,31.5l-3.2,2.3L223.8,370.3
				z"/>
			
				<linearGradient id="SVGID_5_" gradientUnits="userSpaceOnUse" x1="414.2666" y1="890.5897" x2="335.3742" y2="857.2643" gradientTransform="matrix(1 0 0 1 -203.7553 -504.8332)">
				<stop  offset="0" style="stop-color:#FFAF02"/>
				<stop  offset="1" style="stop-color:#F56D05"/>
			</linearGradient>
			<path class="st14" d="M223.4,369.8c-0.4,4.9-1.7,9.8-3.8,14.2c-5.2,11.2-14.3,20.1-25.5,25.2l-2.3-0.6l-1.4,2.2
				c-8.9,3.5-18.8,4.1-28.1,1.6c-6.6-1.8-12.5-5.4-17-10.6l-0.1-4.3l-3.3-0.4c-5.8-9.8-6.5-22.6-0.8-35.1c1.7-3.7,3.9-7.2,6.4-10.4
				c1.3-0.6,2.7-1.3,3.9-2l0.6-2.9c10.6-10.2,25.3-15.8,39.2-14.4l3,2.4l8.5,0.4c13.1,5.5,20.7,17.7,20.7,31.5l-3.2,2.3L223.4,369.8
				z"/>
			
				<linearGradient id="SVGID_6_" gradientUnits="userSpaceOnUse" x1="355.2729" y1="850.8909" x2="401.0619" y2="894.658" gradientTransform="matrix(1 0 0 1 -203.7553 -504.8332)">
				<stop  offset="0" style="stop-color:#FFFFFF;stop-opacity:0"/>
				<stop  offset="0.2606" style="stop-color:#FFFFFF"/>
				<stop  offset="0.7553" style="stop-color:#FFFFFF"/>
				<stop  offset="1" style="stop-color:#FFFFFF;stop-opacity:0"/>
			</linearGradient>
			<path class="st15" d="M192.7,344.2c15.7,4.4,22.6,20.9,15.4,36.7c-7.2,15.9-25.9,25.1-41.6,20.7s-22.6-20.9-15.4-36.7
				S177,339.7,192.7,344.2z"/>
			
				<linearGradient id="SVGID_7_" gradientUnits="userSpaceOnUse" x1="352.8026" y1="877.8367" x2="415.5892" y2="877.8367" gradientTransform="matrix(1 0 0 1 -203.7553 -504.8332)">
				<stop  offset="0" style="stop-color:#CF4505"/>
				<stop  offset="1" style="stop-color:#E45905"/>
			</linearGradient>
			<path class="st16" d="M193.5,344.3c15.7,4.4,22.6,20.9,15.4,36.7c-7.2,15.9-25.9,25.1-41.6,20.7s-22.6-20.9-15.4-36.7
				C159.2,349.2,177.8,339.9,193.5,344.3z"/>
			<path class="st17" d="M169.8,402.3c-15.7-4.4-22.6-20.9-15.4-36.7c6.7-14.7,23.2-23.7,38.1-21.4c-15.5-3.8-33.5,5.4-40.6,21
				c-7.2,15.9-0.4,32.3,15.4,36.7c1.2,0.3,2.3,0.6,3.5,0.8C170.5,402.4,170.1,402.4,169.8,402.3z"/>
			
				<radialGradient id="SVGID_8_" cx="1621.8126" cy="1488.0969" r="23.468" gradientTransform="matrix(7.290000e-02 7.410000e-02 -0.4921 0.4845 822.0795 -441.241)" gradientUnits="userSpaceOnUse">
				<stop  offset="0" style="stop-color:#FFFFFF"/>
				<stop  offset="8.578000e-02" style="stop-color:#FFFFFF;stop-opacity:0.9583"/>
				<stop  offset="0.2351" style="stop-color:#FFFFFF;stop-opacity:0.8462"/>
				<stop  offset="0.4301" style="stop-color:#FFFFFF;stop-opacity:0.6642"/>
				<stop  offset="0.6634" style="stop-color:#FFFFFF;stop-opacity:0.4119"/>
				<stop  offset="0.9261" style="stop-color:#FFFFFF;stop-opacity:9.449000e-02"/>
				<stop  offset="1" style="stop-color:#FFFFFF;stop-opacity:0"/>
			</radialGradient>
			<path class="st18" d="M209.7,401.6c-6.4,6.3-12.3,10.6-13.3,9.6c-0.9-1,3.5-6.8,9.8-13.1c6.4-6.3,12.3-10.6,13.3-9.6
				S216.1,395.4,209.7,401.6z"/>
			
				<linearGradient id="SVGID_9_" gradientUnits="userSpaceOnUse" x1="373.8373" y1="865.7939" x2="402.144" y2="899.0042" gradientTransform="matrix(1 0 0 1 -203.7553 -504.8332)">
				<stop  offset="0" style="stop-color:#FFFFFF"/>
				<stop  offset="1" style="stop-color:#FFFFFF;stop-opacity:0"/>
			</linearGradient>
			<path class="st19" d="M214.3,343l-68.9,57.1v1.8c4.5,5.1,10.4,8.8,17,10.6c1.6,0.4,3.2,0.8,4.8,1l53.6-44.4l-0.5-0.1l3.2-2.3
				C223.6,357.9,220.3,349.4,214.3,343z"/>
			
				<linearGradient id="SVGID_10_" gradientUnits="userSpaceOnUse" x1="357.3587" y1="850.4976" x2="372.4993" y2="865.856" gradientTransform="matrix(1 0 0 1 -203.7553 -504.8332)">
				<stop  offset="0" style="stop-color:#FFFFFF"/>
				<stop  offset="1" style="stop-color:#FFFFFF;stop-opacity:0"/>
			</linearGradient>
			<path class="st20" d="M194.4,334.7l-3-2.4c-4.1-0.4-8.3-0.2-12.4,0.6l-39,32.3c-2.2,5.7-3,11.9-2.5,18l58.5-48.4L194.4,334.7z"/>
			<g>
				<g>
					<defs>
						<rect id="SVGID_11_" x="162.6" y="350.6" width="43.7" height="45"/>
					</defs>
					<clipPath id="SVGID_12_">
						<use xlink:href="#SVGID_11_"  style="overflow:visible;"/>
					</clipPath>
					<g class="st21">
						
							<linearGradient id="SVGID_13_" gradientUnits="userSpaceOnUse" x1="2333.3726" y1="-1373.9996" x2="2333.3726" y2="-1328.9885" gradientTransform="matrix(1 0 0 -1 -2148.7554 -978.4474)">
							<stop  offset="0" style="stop-color:#FFC000"/>
							<stop  offset="0.28" style="stop-color:#FFC000"/>
							<stop  offset="0.55" style="stop-color:#DAA600"/>
							<stop  offset="1" style="stop-color:#DAA600"/>
						</linearGradient>
						<path class="st22" d="M170.3,368.9c-0.2-0.2-0.4-0.4-0.5-0.6c-1.9-2.3-3.2-4.9-3.9-7.7c-0.5-2-0.6-4.1-0.4-6.2
							c0.1-1.1,0.4-2.2,0.9-3.1c0.3-0.6,1-0.9,1.6-0.6l0,0c1.4,0.5,2.5,1.5,3.3,2.7c2,2.7,3.4,5.8,4,9.1c0.2,1,0.2,2.1,0.3,3.1
							c0,0.4,0.1,0.8,0.1,1.2c0,0.3,0.2,0.5,0.6,0.4c1.4-0.2,2.9-0.1,4.3,0.3c1.2,0.3,2.4,0.7,3.6,1.2c1.7,0.7,3.2,1.7,4.4,3
							c0.1,0.2,0.4,0.2,0.6,0.1l0,0l0.1-0.1c0.3-0.3,0.6-0.6,0.9-0.9c2.7-3.1,6.3-5.3,10.3-6.4c1.3-0.4,2.6-0.5,3.9-0.4
							c0.6,0.1,1.2,0.3,1.7,0.5c0.2,0.2,0.4,0.4,0.4,0.7c0,0.4,0,0.8-0.1,1.1c-0.5,1.5-1.4,2.9-2.6,4.1c-2.8,3.1-6.6,5.3-10.7,6
							c-0.3,0.1-0.6,0.1-1,0.1c0.1,0.3,0.1,0.5,0.2,0.7c0.4,1.4,0.6,2.9,0.5,4.4c0,1.8-0.3,3.5-0.9,5.2c-0.6,1.9-1.6,3.7-2.9,5.3
							c-1.2,1.5-2.9,2.5-4.8,2.8c-1.3,0.4-2.7,0.5-4.1,0.3c-1.3-0.2-2.7-0.4-4-0.7c-1.4-0.4-2.7-0.8-4-1.4c-2.2-0.8-4.2-2-5.9-3.5
							c-1.8-1.5-3-3.6-3.4-5.9c-0.1-1.1-0.1-2.2,0.1-3.3c0.2-1.4,0.6-2.8,1.1-4.1c0.8-2.1,2.1-4,3.7-5.6c0.7-0.7,1.6-1.3,2.4-2
							L170.3,368.9z M171.7,384.9v0.1c-1.5-0.1-1.8,0.9-1.5,2c0,0.2,0.1,0.3,0.1,0.5c0.3,1.2,1.1,2.3,2.2,2.9c1.1,0.5,2.2,1,3.4,1.3
							c1.6,0.5,3.4,0.1,4.7-1.1c0.6-0.4,0.8-1.1,0.4-1.7c-0.1-0.1-0.2-0.3-0.3-0.4c-0.7-0.5-1.4-1-2.2-1.3c-1.3-0.6-2.6-1-3.9-1.5
							C173.6,385.4,172.6,385.2,171.7,384.9L171.7,384.9z M170.5,373.6c0-1-0.4-1.5-1.1-1.7c-0.6-0.1-1.2,0.1-1.6,0.7
							c-1.5,1.9-2.6,4-3.3,6.3c-0.1,0.4-0.1,0.8-0.1,1.1c0.1,0.7,0.7,1.2,1.4,1.1c0.3,0,0.7-0.2,0.9-0.5c0.5-0.7,1.1-1.5,1.5-2.3
							c0.6-1,1.1-2.1,1.7-3.1C170.1,374.6,170.3,374.1,170.5,373.6L170.5,373.6z M191.4,381.8c0-0.4-0.1-0.8-0.2-1.3
							c-0.2-0.7-1-1.2-1.7-1l0,0h-0.1c-0.5,0.2-0.9,0.7-1,1.3c-0.5,1.9-0.9,3.8-1.3,5.8c-0.1,0.6-0.1,1.2,0,1.8
							c0.1,0.7,0.8,1.1,1.4,0.9c0.2,0,0.3-0.1,0.4-0.2c0.5-0.3,0.8-0.7,0.9-1.3c0.4-1.1,0.7-2.2,1-3.3
							C191.2,383.7,191.3,382.7,191.4,381.8L191.4,381.8z"/>
					</g>
				</g>
			</g>
		</g>
	</g>
</g>
<g>
	<g id="OBJECTS_1_">
		<g>
			<polygon class="st7" points="201.2,426.5 207.4,435.1 204.1,434.7 197.8,426.1 			"/>
			
				<linearGradient id="SVGID_14_" gradientUnits="userSpaceOnUse" x1="415.6877" y1="952.8941" x2="486.1083" y2="891.7908" gradientTransform="matrix(1 0 0 1 -203.7553 -504.8332)">
				<stop  offset="0" style="stop-color:#D13F05"/>
				<stop  offset="0.2925" style="stop-color:#F67205"/>
				<stop  offset="0.3667" style="stop-color:#F67705"/>
				<stop  offset="0.4526" style="stop-color:#F68505"/>
				<stop  offset="0.5441" style="stop-color:#F69C05"/>
				<stop  offset="0.5638" style="stop-color:#F6A205"/>
				<stop  offset="0.5977" style="stop-color:#F69005"/>
				<stop  offset="0.6432" style="stop-color:#F67F05"/>
				<stop  offset="0.6931" style="stop-color:#F67505"/>
				<stop  offset="0.7553" style="stop-color:#F67205"/>
				<stop  offset="1" style="stop-color:#D13F05"/>
			</linearGradient>
			<path class="st23" d="M272.9,375.2c2.1,2.9,4.2,5.7,6.3,8.6c4.2,5.9,6.5,13,6.4,20.3l-6.3-8.6
				C279.4,388.2,277.2,381.1,272.9,375.2z"/>
			<polygon class="st9" points="279.4,395.5 285.6,404.1 282.4,406.5 276.2,397.9 			"/>
			<polygon class="st7" points="247.7,437.6 253.9,446.2 252.6,448.3 246.3,439.7 			"/>
			
				<linearGradient id="SVGID_15_" gradientUnits="userSpaceOnUse" x1="417.882" y1="955.4166" x2="488.2988" y2="894.3164" gradientTransform="matrix(1 0 0 1 -203.7553 -504.8332)">
				<stop  offset="0" style="stop-color:#D13F05"/>
				<stop  offset="0.2925" style="stop-color:#F67205"/>
				<stop  offset="0.3667" style="stop-color:#F67705"/>
				<stop  offset="0.4526" style="stop-color:#F68505"/>
				<stop  offset="0.5441" style="stop-color:#F69C05"/>
				<stop  offset="0.5638" style="stop-color:#F6A205"/>
				<stop  offset="0.5977" style="stop-color:#F69005"/>
				<stop  offset="0.6432" style="stop-color:#F67F05"/>
				<stop  offset="0.6931" style="stop-color:#F67505"/>
				<stop  offset="0.7553" style="stop-color:#F67205"/>
				<stop  offset="1" style="stop-color:#D13F05"/>
			</linearGradient>
			<path class="st24" d="M246.3,439.7l6.3,8.6c-8.9,3.5-18.8,4.1-28.1,1.6c-6.6-1.8-12.5-5.4-17-10.6l-6.3-8.6
				c4.5,5.1,10.4,8.8,17,10.6C227.5,443.8,237.4,443.3,246.3,439.7z"/>
			<polygon class="st11" points="250,438.2 256.2,446.8 253.9,446.2 247.7,437.6 			"/>
			
				<linearGradient id="SVGID_16_" gradientUnits="userSpaceOnUse" x1="427.7929" y1="966.8391" x2="498.2108" y2="905.7381" gradientTransform="matrix(1 0 0 1 -203.7553 -504.8332)">
				<stop  offset="0" style="stop-color:#D13F05"/>
				<stop  offset="0.2925" style="stop-color:#F67205"/>
				<stop  offset="0.3667" style="stop-color:#F67705"/>
				<stop  offset="0.4526" style="stop-color:#F68505"/>
				<stop  offset="0.5441" style="stop-color:#F69C05"/>
				<stop  offset="0.5638" style="stop-color:#F6A205"/>
				<stop  offset="0.5977" style="stop-color:#F69005"/>
				<stop  offset="0.6432" style="stop-color:#F67F05"/>
				<stop  offset="0.6931" style="stop-color:#F67505"/>
				<stop  offset="0.7553" style="stop-color:#F67205"/>
				<stop  offset="1" style="stop-color:#D13F05"/>
			</linearGradient>
			<path class="st25" d="M279.2,398.7l6.3,8.6c-0.4,4.9-1.7,9.8-3.8,14.2c-5.2,11.2-14.3,20.1-25.5,25.2l-6.3-8.6
				c11.2-5.1,20.2-14.1,25.5-25.2C277.5,408.5,278.8,403.6,279.2,398.7z"/>
			
				<linearGradient id="SVGID_17_" gradientUnits="userSpaceOnUse" x1="401.707" y1="938.6173" x2="479.4916" y2="875.3496" gradientTransform="matrix(1 0 0 1 -203.7553 -504.8332)">
				<stop  offset="0" style="stop-color:#FFFFFF;stop-opacity:0"/>
				<stop  offset="0.2606" style="stop-color:#FFFFFF"/>
				<stop  offset="0.7553" style="stop-color:#FFFFFF"/>
				<stop  offset="1" style="stop-color:#FFFFFF;stop-opacity:0"/>
			</linearGradient>
			<path class="st26" d="M279.6,399.2c-0.4,4.9-1.7,9.8-3.8,14.2c-5.2,11.2-14.3,20.1-25.5,25.2L248,438l-1.4,2.2
				c-8.9,3.5-18.8,4.1-28.1,1.6c-6.6-1.8-12.5-5.4-17-10.6l-0.1-4.3l-3.3-0.4c-5.8-9.8-6.5-22.6-0.8-35.1c1.7-3.7,3.9-7.2,6.4-10.4
				c1.3-0.6,2.7-1.3,3.9-2l0.6-2.9c10.6-10.2,25.3-15.8,39.2-14.4l3,2.4l8.5,0.4c13.1,5.5,20.7,17.7,20.7,31.5l-3.2,2.3L279.6,399.2
				z"/>
			
				<linearGradient id="SVGID_18_" gradientUnits="userSpaceOnUse" x1="470.0786" y1="919.4948" x2="391.1861" y2="886.1693" gradientTransform="matrix(1 0 0 1 -203.7553 -504.8332)">
				<stop  offset="0" style="stop-color:#FFAF02"/>
				<stop  offset="1" style="stop-color:#F56D05"/>
			</linearGradient>
			<path class="st27" d="M279.2,398.7c-0.4,4.9-1.7,9.8-3.8,14.2c-5.2,11.2-14.3,20.1-25.5,25.2l-2.3-0.6l-1.4,2.2
				c-8.9,3.5-18.8,4.1-28.1,1.6c-6.6-1.8-12.5-5.4-17-10.6l-0.1-4.3l-3.3-0.4c-5.8-9.8-6.5-22.6-0.8-35.1c1.7-3.7,3.9-7.2,6.4-10.4
				c1.3-0.6,2.7-1.3,3.9-2l0.6-2.9c10.6-10.2,25.3-15.8,39.2-14.4l3,2.4l8.5,0.4c13.1,5.5,20.7,17.7,20.7,31.5l-3.2,2.3L279.2,398.7
				z"/>
			
				<linearGradient id="SVGID_19_" gradientUnits="userSpaceOnUse" x1="411.173" y1="879.6909" x2="456.962" y2="923.458" gradientTransform="matrix(1 0 0 1 -203.7553 -504.8332)">
				<stop  offset="0" style="stop-color:#FFFFFF;stop-opacity:0"/>
				<stop  offset="0.2606" style="stop-color:#FFFFFF"/>
				<stop  offset="0.7553" style="stop-color:#FFFFFF"/>
				<stop  offset="1" style="stop-color:#FFFFFF;stop-opacity:0"/>
			</linearGradient>
			<path class="st28" d="M248.6,373c15.7,4.4,22.6,20.9,15.4,36.7c-7.2,15.9-25.9,25.1-41.6,20.7s-22.6-20.9-15.4-36.7
				C214.2,377.9,232.8,368.6,248.6,373z"/>
			
				<linearGradient id="SVGID_20_" gradientUnits="userSpaceOnUse" x1="408.604" y1="906.7368" x2="471.3907" y2="906.7368" gradientTransform="matrix(1 0 0 1 -203.7553 -504.8332)">
				<stop  offset="0" style="stop-color:#CF4505"/>
				<stop  offset="1" style="stop-color:#E45905"/>
			</linearGradient>
			<path class="st29" d="M249.4,373.2c15.7,4.4,22.6,20.9,15.4,36.7c-7.2,15.9-25.9,25.1-41.6,20.7s-22.6-20.9-15.4-36.7
				S233.6,368.8,249.4,373.2z"/>
			<path class="st17" d="M225.6,431.1c-15.7-4.4-22.6-20.9-15.4-36.7c6.7-14.7,23.2-23.7,38.1-21.4c-15.5-3.8-33.5,5.4-40.6,21
				c-7.2,15.9-0.4,32.3,15.4,36.7c1.2,0.3,2.3,0.6,3.5,0.8C226.3,431.3,226,431.2,225.6,431.1z"/>
			
				<radialGradient id="SVGID_21_" cx="2196.5652" cy="1459.7429" r="23.4942" gradientTransform="matrix(7.290000e-02 7.410000e-02 -0.4921 0.4845 822.0795 -441.241)" gradientUnits="userSpaceOnUse">
				<stop  offset="0" style="stop-color:#FFFFFF"/>
				<stop  offset="8.578000e-02" style="stop-color:#FFFFFF;stop-opacity:0.9583"/>
				<stop  offset="0.2351" style="stop-color:#FFFFFF;stop-opacity:0.8462"/>
				<stop  offset="0.4301" style="stop-color:#FFFFFF;stop-opacity:0.6642"/>
				<stop  offset="0.6634" style="stop-color:#FFFFFF;stop-opacity:0.4119"/>
				<stop  offset="0.9261" style="stop-color:#FFFFFF;stop-opacity:9.449000e-02"/>
				<stop  offset="1" style="stop-color:#FFFFFF;stop-opacity:0"/>
			</radialGradient>
			<path class="st30" d="M265.6,430.5c-6.4,6.3-12.3,10.6-13.3,9.6c-0.9-1,3.5-6.8,9.8-13.1c6.4-6.3,12.3-10.6,13.3-9.6
				C276.3,418.4,271.9,424.3,265.6,430.5z"/>
			
				<linearGradient id="SVGID_22_" gradientUnits="userSpaceOnUse" x1="429.6665" y1="894.6695" x2="457.9732" y2="927.8797" gradientTransform="matrix(1 0 0 1 -203.7553 -504.8332)">
				<stop  offset="0" style="stop-color:#FFFFFF"/>
				<stop  offset="1" style="stop-color:#FFFFFF;stop-opacity:0"/>
			</linearGradient>
			<path class="st31" d="M270.2,371.9l-69,57.1v1.8c4.5,5.1,10.4,8.8,17,10.6c1.6,0.4,3.2,0.8,4.8,1l53.6-44.4l-0.5-0.1l3.2-2.3
				C279.5,386.8,276.2,378.3,270.2,371.9z"/>
			
				<linearGradient id="SVGID_23_" gradientUnits="userSpaceOnUse" x1="413.0597" y1="879.4985" x2="428.2003" y2="894.8569" gradientTransform="matrix(1 0 0 1 -203.7553 -504.8332)">
				<stop  offset="0" style="stop-color:#FFFFFF"/>
				<stop  offset="1" style="stop-color:#FFFFFF;stop-opacity:0"/>
			</linearGradient>
			<path class="st32" d="M250.2,363.6l-3-2.4c-4.1-0.4-8.3-0.2-12.4,0.6l-39.1,32.4c-2.2,5.7-3,11.9-2.5,18l58.5-48.4L250.2,363.6z"
				/>
			<g>
				<g>
					<defs>
						<rect id="SVGID_24_" x="218.5" y="379.4" width="43.7" height="45"/>
					</defs>
					<clipPath id="SVGID_25_">
						<use xlink:href="#SVGID_24_"  style="overflow:visible;"/>
					</clipPath>
					<g class="st33">
						
							<linearGradient id="SVGID_26_" gradientUnits="userSpaceOnUse" x1="2389.1726" y1="-1402.8815" x2="2389.1726" y2="-1357.8704" gradientTransform="matrix(1 0 0 -1 -2148.7554 -978.4474)">
							<stop  offset="0" style="stop-color:#FFC000"/>
							<stop  offset="0.28" style="stop-color:#FFC000"/>
							<stop  offset="0.55" style="stop-color:#DAA600"/>
							<stop  offset="1" style="stop-color:#DAA600"/>
						</linearGradient>
						<path class="st34" d="M226.1,397.7c-0.2-0.2-0.4-0.4-0.5-0.6c-1.9-2.3-3.2-4.9-3.9-7.7c-0.5-2-0.6-4.1-0.4-6.2
							c0.1-1.1,0.4-2.2,0.9-3.1c0.3-0.6,1-0.9,1.6-0.6l0,0c1.4,0.5,2.5,1.5,3.3,2.7c2,2.7,3.4,5.8,4,9.1c0.2,1,0.2,2.1,0.3,3.1
							c0,0.4,0.1,0.8,0.1,1.2c0,0.3,0.2,0.5,0.6,0.4c1.4-0.2,2.9-0.1,4.3,0.3c1.2,0.3,2.4,0.7,3.6,1.2c1.7,0.7,3.2,1.7,4.4,3
							c0.1,0.2,0.4,0.2,0.6,0.1l0,0l0.1-0.1c0.3-0.3,0.6-0.6,0.9-0.9c2.7-3.1,6.3-5.3,10.3-6.4c1.3-0.4,2.6-0.5,3.9-0.4
							c0.6,0.1,1.2,0.3,1.7,0.5c0.2,0.2,0.4,0.4,0.4,0.7c0,0.4,0,0.8-0.1,1.1c-0.5,1.5-1.4,2.9-2.6,4.1c-2.8,3.1-6.6,5.3-10.7,6
							c-0.3,0.1-0.6,0.1-1,0.1c0.1,0.3,0.1,0.5,0.2,0.7c0.4,1.4,0.6,2.9,0.5,4.4c0,1.8-0.3,3.5-0.9,5.2c-0.6,1.9-1.6,3.7-2.9,5.3
							c-1.2,1.5-2.9,2.5-4.8,2.8c-1.3,0.4-2.7,0.5-4.1,0.3c-1.3-0.2-2.7-0.4-4-0.7c-1.4-0.4-2.7-0.8-4-1.4c-2.2-0.8-4.2-2-5.9-3.5
							c-1.8-1.5-3-3.6-3.4-5.9c-0.1-1.1-0.1-2.2,0.1-3.3c0.2-1.4,0.6-2.8,1.1-4.1c0.8-2.1,2.1-4,3.7-5.6c0.7-0.7,1.6-1.3,2.4-2
							L226.1,397.7z M227.5,413.8v0.1c-1.5-0.1-1.8,0.9-1.5,2c0,0.2,0.1,0.3,0.1,0.5c0.3,1.2,1.1,2.3,2.2,2.9c1.1,0.5,2.2,1,3.4,1.3
							c1.6,0.5,3.4,0.1,4.7-1.1c0.6-0.4,0.8-1.1,0.4-1.7c-0.1-0.1-0.2-0.3-0.3-0.4c-0.7-0.5-1.4-1-2.2-1.3c-1.3-0.6-2.6-1-3.9-1.5
							C229.4,414.3,228.4,414.1,227.5,413.8L227.5,413.8z M226.3,402.5c0-1-0.4-1.5-1.1-1.7c-0.6-0.1-1.2,0.1-1.6,0.7
							c-1.5,1.9-2.6,4-3.3,6.3c-0.1,0.4-0.1,0.8-0.1,1.1c0.1,0.7,0.7,1.2,1.4,1.1c0.3,0,0.7-0.2,0.9-0.5c0.5-0.7,1.1-1.5,1.5-2.3
							c0.6-1,1.1-2.1,1.7-3.1C225.9,403.5,226.1,403,226.3,402.5L226.3,402.5z M247.3,410.7c0-0.4-0.1-0.8-0.2-1.3
							c-0.2-0.7-1-1.2-1.7-1l0,0h-0.1c-0.5,0.2-0.9,0.7-1,1.3c-0.5,1.9-0.9,3.8-1.3,5.8c-0.1,0.6-0.1,1.2,0,1.8
							c0.1,0.7,0.8,1.1,1.4,0.9c0.2,0,0.3-0.1,0.4-0.2c0.5-0.3,0.8-0.7,0.9-1.3c0.4-1.1,0.7-2.2,1-3.3
							C247,412.6,247.1,411.5,247.3,410.7L247.3,410.7z"/>
					</g>
				</g>
			</g>
		</g>
	</g>
</g>
<g>
	<g id="OBJECTS_2_">
		<g>
			<polygon class="st7" points="250,399.7 256.2,408.3 252.9,407.9 246.6,399.3 			"/>
			
				<linearGradient id="SVGID_27_" gradientUnits="userSpaceOnUse" x1="464.4668" y1="926.1122" x2="534.8873" y2="865.009" gradientTransform="matrix(1 0 0 1 -203.7553 -504.8332)">
				<stop  offset="0" style="stop-color:#D13F05"/>
				<stop  offset="0.2925" style="stop-color:#F67205"/>
				<stop  offset="0.3667" style="stop-color:#F67705"/>
				<stop  offset="0.4526" style="stop-color:#F68505"/>
				<stop  offset="0.5441" style="stop-color:#F69C05"/>
				<stop  offset="0.5638" style="stop-color:#F6A205"/>
				<stop  offset="0.5977" style="stop-color:#F69005"/>
				<stop  offset="0.6432" style="stop-color:#F67F05"/>
				<stop  offset="0.6931" style="stop-color:#F67505"/>
				<stop  offset="0.7553" style="stop-color:#F67205"/>
				<stop  offset="1" style="stop-color:#D13F05"/>
			</linearGradient>
			<path class="st35" d="M321.7,348.4c2.1,2.9,4.2,5.7,6.3,8.6c4.2,5.9,6.5,13,6.4,20.3l-6.3-8.6C328.2,361.4,326,354.3,321.7,348.4
				z"/>
			<polygon class="st9" points="328.1,368.7 334.4,377.3 331.2,379.7 324.9,371.1 			"/>
			<polygon class="st7" points="296.4,410.8 302.7,419.4 301.3,421.5 295.1,412.9 			"/>
			
				<linearGradient id="SVGID_28_" gradientUnits="userSpaceOnUse" x1="466.6857" y1="928.6633" x2="537.1025" y2="867.5632" gradientTransform="matrix(1 0 0 1 -203.7553 -504.8332)">
				<stop  offset="0" style="stop-color:#D13F05"/>
				<stop  offset="0.2925" style="stop-color:#F67205"/>
				<stop  offset="0.3667" style="stop-color:#F67705"/>
				<stop  offset="0.4526" style="stop-color:#F68505"/>
				<stop  offset="0.5441" style="stop-color:#F69C05"/>
				<stop  offset="0.5638" style="stop-color:#F6A205"/>
				<stop  offset="0.5977" style="stop-color:#F69005"/>
				<stop  offset="0.6432" style="stop-color:#F67F05"/>
				<stop  offset="0.6931" style="stop-color:#F67505"/>
				<stop  offset="0.7553" style="stop-color:#F67205"/>
				<stop  offset="1" style="stop-color:#D13F05"/>
			</linearGradient>
			<path class="st36" d="M295.1,412.9l6.3,8.6c-8.9,3.5-18.8,4.1-28.1,1.6c-6.6-1.8-12.5-5.4-17-10.6L250,404
				c4.5,5.1,10.4,8.8,17,10.6C276.3,417,286.1,416.5,295.1,412.9z"/>
			<polygon class="st11" points="298.7,411.4 305,420 302.7,419.4 296.4,410.8 			"/>
			
				<linearGradient id="SVGID_29_" gradientUnits="userSpaceOnUse" x1="476.5719" y1="940.0573" x2="546.9898" y2="878.9563" gradientTransform="matrix(1 0 0 1 -203.7553 -504.8332)">
				<stop  offset="0" style="stop-color:#D13F05"/>
				<stop  offset="0.2925" style="stop-color:#F67205"/>
				<stop  offset="0.3667" style="stop-color:#F67705"/>
				<stop  offset="0.4526" style="stop-color:#F68505"/>
				<stop  offset="0.5441" style="stop-color:#F69C05"/>
				<stop  offset="0.5638" style="stop-color:#F6A205"/>
				<stop  offset="0.5977" style="stop-color:#F69005"/>
				<stop  offset="0.6432" style="stop-color:#F67F05"/>
				<stop  offset="0.6931" style="stop-color:#F67505"/>
				<stop  offset="0.7553" style="stop-color:#F67205"/>
				<stop  offset="1" style="stop-color:#D13F05"/>
			</linearGradient>
			<path class="st37" d="M328,371.9l6.3,8.6c-0.4,4.9-1.7,9.8-3.8,14.2c-5.2,11.2-14.3,20.1-25.5,25.2l-6.3-8.6
				c11.2-5.1,20.2-14.1,25.5-25.2C326.3,381.7,327.6,376.9,328,371.9z"/>
			
				<linearGradient id="SVGID_30_" gradientUnits="userSpaceOnUse" x1="450.4852" y1="911.8351" x2="528.2698" y2="848.5673" gradientTransform="matrix(1 0 0 1 -203.7553 -504.8332)">
				<stop  offset="0" style="stop-color:#FFFFFF;stop-opacity:0"/>
				<stop  offset="0.2606" style="stop-color:#FFFFFF"/>
				<stop  offset="0.7553" style="stop-color:#FFFFFF"/>
				<stop  offset="1" style="stop-color:#FFFFFF;stop-opacity:0"/>
			</linearGradient>
			<path class="st38" d="M328.4,372.4c-0.4,4.9-1.7,9.8-3.8,14.2c-5.2,11.2-14.3,20.1-25.5,25.2l-2.3-0.6l-1.4,2.2
				c-8.9,3.5-18.8,4.1-28.1,1.6c-6.6-1.8-12.5-5.4-17-10.6l-0.1-4.3l-3.3-0.4c-5.8-9.8-6.5-22.6-0.8-35.1c1.7-3.7,3.9-7.2,6.4-10.4
				c1.3-0.6,2.7-1.3,3.9-2l0.6-2.9c10.6-10.2,25.3-15.8,39.2-14.4l3,2.4l8.5,0.4c13.1,5.5,20.7,17.7,20.7,31.5l-3.2,2.3L328.4,372.4
				z"/>
			
				<linearGradient id="SVGID_31_" gradientUnits="userSpaceOnUse" x1="518.856" y1="892.6852" x2="439.9634" y2="859.3597" gradientTransform="matrix(1 0 0 1 -203.7553 -504.8332)">
				<stop  offset="0" style="stop-color:#FFAF02"/>
				<stop  offset="1" style="stop-color:#F56D05"/>
			</linearGradient>
			<path class="st39" d="M328,371.9c-0.4,4.9-1.7,9.8-3.8,14.2c-5.2,11.2-14.3,20.1-25.5,25.2l-2.3-0.6l-1.4,2.2
				c-8.9,3.5-18.8,4.1-28.1,1.6c-6.6-1.8-12.5-5.4-17-10.6l-0.1-4.3l-3.3-0.4c-5.8-9.8-6.5-22.6-0.8-35.1c1.7-3.7,3.9-7.2,6.4-10.4
				c1.3-0.6,2.7-1.3,3.9-2l0.6-2.9c10.6-10.2,25.3-15.8,39.2-14.4l3,2.4l8.5,0.4c13.1,5.5,20.7,17.7,20.7,31.5l-3.2,2.3L328,371.9z"
				/>
			
				<linearGradient id="SVGID_32_" gradientUnits="userSpaceOnUse" x1="459.9134" y1="852.9297" x2="505.7024" y2="896.6967" gradientTransform="matrix(1 0 0 1 -203.7553 -504.8332)">
				<stop  offset="0" style="stop-color:#FFFFFF;stop-opacity:0"/>
				<stop  offset="0.2606" style="stop-color:#FFFFFF"/>
				<stop  offset="0.7553" style="stop-color:#FFFFFF"/>
				<stop  offset="1" style="stop-color:#FFFFFF;stop-opacity:0"/>
			</linearGradient>
			<path class="st40" d="M297.3,346.2c15.7,4.4,22.6,20.9,15.4,36.7c-7.2,15.9-25.9,25.1-41.6,20.7s-22.6-20.9-15.4-36.7
				S281.6,341.8,297.3,346.2z"/>
			
				<linearGradient id="SVGID_33_" gradientUnits="userSpaceOnUse" x1="457.4026" y1="879.9368" x2="520.1892" y2="879.9368" gradientTransform="matrix(1 0 0 1 -203.7553 -504.8332)">
				<stop  offset="0" style="stop-color:#CF4505"/>
				<stop  offset="1" style="stop-color:#E45905"/>
			</linearGradient>
			<path class="st41" d="M298.1,346.4c15.7,4.4,22.6,20.9,15.4,36.7c-7.2,15.9-25.9,25.1-41.6,20.7s-22.6-20.9-15.4-36.7
				S282.4,342,298.1,346.4z"/>
			<path class="st17" d="M274.4,404.3c-15.7-4.4-22.6-20.9-15.4-36.7c6.7-14.7,23.2-23.7,38.1-21.4c-15.5-3.8-33.5,5.4-40.6,21
				c-7.2,15.9-0.4,32.3,15.4,36.7c1.2,0.3,2.3,0.6,3.5,0.8C275.1,404.5,274.7,404.4,274.4,404.3z"/>
			
				<radialGradient id="SVGID_34_" cx="2342.0645" cy="1382.2557" r="23.4671" gradientTransform="matrix(7.290000e-02 7.410000e-02 -0.4921 0.4845 822.0795 -441.241)" gradientUnits="userSpaceOnUse">
				<stop  offset="0" style="stop-color:#FFFFFF"/>
				<stop  offset="8.578000e-02" style="stop-color:#FFFFFF;stop-opacity:0.9583"/>
				<stop  offset="0.2351" style="stop-color:#FFFFFF;stop-opacity:0.8462"/>
				<stop  offset="0.4301" style="stop-color:#FFFFFF;stop-opacity:0.6642"/>
				<stop  offset="0.6634" style="stop-color:#FFFFFF;stop-opacity:0.4119"/>
				<stop  offset="0.9261" style="stop-color:#FFFFFF;stop-opacity:9.449000e-02"/>
				<stop  offset="1" style="stop-color:#FFFFFF;stop-opacity:0"/>
			</radialGradient>
			<path class="st42" d="M314.3,403.7c-6.4,6.3-12.3,10.6-13.3,9.6c-0.9-1,3.5-6.8,9.8-13.1c6.4-6.3,12.3-10.6,13.3-9.6
				C325.1,391.6,320.7,397.5,314.3,403.7z"/>
			
				<linearGradient id="SVGID_35_" gradientUnits="userSpaceOnUse" x1="478.4287" y1="867.8839" x2="506.7354" y2="901.0941" gradientTransform="matrix(1 0 0 1 -203.7553 -504.8332)">
				<stop  offset="0" style="stop-color:#FFFFFF"/>
				<stop  offset="1" style="stop-color:#FFFFFF;stop-opacity:0"/>
			</linearGradient>
			<path class="st43" d="M318.9,345.1L250,402.2v1.8c4.5,5.1,10.4,8.8,17,10.6c1.6,0.4,3.2,0.8,4.8,1l53.6-44.4l-0.5-0.1l3.2-2.3
				C328.2,360,324.9,351.5,318.9,345.1z"/>
			
				<linearGradient id="SVGID_36_" gradientUnits="userSpaceOnUse" x1="461.8488" y1="852.6875" x2="476.9894" y2="868.0459" gradientTransform="matrix(1 0 0 1 -203.7553 -504.8332)">
				<stop  offset="0" style="stop-color:#FFFFFF"/>
				<stop  offset="1" style="stop-color:#FFFFFF;stop-opacity:0"/>
			</linearGradient>
			<path class="st44" d="M299,336.8l-3-2.4c-4.1-0.4-8.3-0.2-12.4,0.6l-39.1,32.4c-2.2,5.7-3,11.9-2.5,18l58.5-48.4L299,336.8z"/>
			<g>
				<g>
					<defs>
						<rect id="SVGID_37_" x="267.2" y="352.6" width="43.7" height="45"/>
					</defs>
					<clipPath id="SVGID_38_">
						<use xlink:href="#SVGID_37_"  style="overflow:visible;"/>
					</clipPath>
					<g class="st45">
						
							<linearGradient id="SVGID_39_" gradientUnits="userSpaceOnUse" x1="2437.9724" y1="-1376.0892" x2="2437.9724" y2="-1331.0781" gradientTransform="matrix(1 0 0 -1 -2148.7554 -978.4474)">
							<stop  offset="0" style="stop-color:#FFC000"/>
							<stop  offset="0.28" style="stop-color:#FFC000"/>
							<stop  offset="0.55" style="stop-color:#DAA600"/>
							<stop  offset="1" style="stop-color:#DAA600"/>
						</linearGradient>
						<path class="st46" d="M274.9,371c-0.2-0.2-0.4-0.4-0.5-0.6c-1.9-2.3-3.2-4.9-3.9-7.7c-0.5-2-0.6-4.1-0.4-6.2
							c0.1-1.1,0.4-2.2,0.9-3.1c0.3-0.6,1-0.9,1.6-0.6l0,0c1.4,0.5,2.5,1.5,3.3,2.7c2,2.7,3.4,5.8,4,9.1c0.2,1,0.2,2.1,0.3,3.1
							c0,0.4,0.1,0.8,0.1,1.2c0,0.3,0.2,0.5,0.6,0.4c1.4-0.2,2.9-0.1,4.3,0.3c1.2,0.3,2.4,0.7,3.6,1.2c1.7,0.7,3.2,1.7,4.4,3
							c0.1,0.2,0.4,0.2,0.6,0.1l0,0l0.1-0.1c0.3-0.3,0.6-0.6,0.9-0.9c2.7-3.1,6.3-5.3,10.3-6.4c1.3-0.4,2.6-0.5,3.9-0.4
							c0.6,0.1,1.2,0.3,1.7,0.5c0.2,0.2,0.4,0.4,0.4,0.7c0,0.4,0,0.8-0.1,1.1c-0.5,1.5-1.4,2.9-2.6,4.1c-2.8,3.1-6.6,5.3-10.7,6
							c-0.3,0.1-0.6,0.1-1,0.1c0.1,0.3,0.1,0.5,0.2,0.7c0.4,1.4,0.6,2.9,0.5,4.4c0,1.8-0.3,3.5-0.9,5.2c-0.6,1.9-1.6,3.7-2.9,5.3
							c-1.2,1.5-2.9,2.5-4.8,2.8c-1.3,0.4-2.7,0.5-4.1,0.3c-1.3-0.2-2.7-0.4-4-0.7c-1.4-0.4-2.7-0.8-4-1.4c-2.2-0.8-4.2-2-5.9-3.5
							c-1.8-1.5-3-3.6-3.4-5.9c-0.1-1.1-0.1-2.2,0.1-3.3c0.2-1.4,0.6-2.8,1.1-4.1c0.8-2.1,2.1-4,3.7-5.6c0.7-0.7,1.6-1.3,2.4-2
							L274.9,371z M276.3,387v0.1c-1.5-0.1-1.8,0.9-1.5,2c0,0.2,0.1,0.3,0.1,0.5c0.3,1.2,1.1,2.3,2.2,2.9c1.1,0.5,2.2,1,3.4,1.3
							c1.6,0.5,3.4,0.1,4.7-1.1c0.6-0.4,0.8-1.1,0.4-1.7c-0.1-0.1-0.2-0.3-0.3-0.4c-0.7-0.5-1.4-1-2.2-1.3c-1.3-0.6-2.6-1-3.9-1.5
							C278.2,387.5,277.2,387.3,276.3,387L276.3,387z M275.1,375.7c0-1-0.4-1.5-1.1-1.7c-0.6-0.1-1.2,0.1-1.6,0.7
							c-1.5,1.9-2.6,4-3.3,6.3c-0.1,0.4-0.1,0.8-0.1,1.1c0.1,0.7,0.7,1.2,1.4,1.1c0.3,0,0.7-0.2,0.9-0.5c0.5-0.7,1.1-1.5,1.5-2.3
							c0.6-1,1.1-2.1,1.7-3.1C274.7,376.7,274.9,376.2,275.1,375.7L275.1,375.7z M296,383.9c0-0.4-0.1-0.8-0.2-1.3
							c-0.2-0.7-1-1.2-1.7-1l0,0H294c-0.5,0.2-0.9,0.7-1,1.3c-0.5,1.9-0.9,3.8-1.3,5.8c-0.1,0.6-0.1,1.2,0,1.8
							c0.1,0.7,0.8,1.1,1.4,0.9c0.2,0,0.3-0.1,0.4-0.2c0.5-0.3,0.8-0.7,0.9-1.3c0.4-1.1,0.7-2.2,1-3.3
							C295.7,385.8,295.9,384.8,296,383.9L296,383.9z"/>
					</g>
				</g>
			</g>
		</g>
	</g>
</g>
<g>
	<g id="OBJECTS_3_">
		<g>
			<polygon class="st7" points="265.8,455.4 272.1,464 268.7,463.5 262.5,454.9 			"/>
			
				<linearGradient id="SVGID_40_" gradientUnits="userSpaceOnUse" x1="480.3535" y1="981.8238" x2="550.774" y2="920.7205" gradientTransform="matrix(1 0 0 1 -203.7553 -504.8332)">
				<stop  offset="0" style="stop-color:#D13F05"/>
				<stop  offset="0.2925" style="stop-color:#F67205"/>
				<stop  offset="0.3667" style="stop-color:#F67705"/>
				<stop  offset="0.4526" style="stop-color:#F68505"/>
				<stop  offset="0.5441" style="stop-color:#F69C05"/>
				<stop  offset="0.5638" style="stop-color:#F6A205"/>
				<stop  offset="0.5977" style="stop-color:#F69005"/>
				<stop  offset="0.6432" style="stop-color:#F67F05"/>
				<stop  offset="0.6931" style="stop-color:#F67505"/>
				<stop  offset="0.7553" style="stop-color:#F67205"/>
				<stop  offset="1" style="stop-color:#D13F05"/>
			</linearGradient>
			<path class="st47" d="M337.6,404.1c2.1,2.9,4.2,5.7,6.3,8.6c4.2,5.9,6.5,13,6.4,20.3l-6.3-8.6C344.1,417.1,341.8,410,337.6,404.1
				z"/>
			<polygon class="st9" points="344,424.4 350.2,433 347.1,435.3 340.8,426.7 			"/>
			<polygon class="st7" points="312.3,466.4 318.5,475 317.2,477.2 310.9,468.6 			"/>
			
				<linearGradient id="SVGID_41_" gradientUnits="userSpaceOnUse" x1="482.5048" y1="984.2967" x2="552.9216" y2="923.1966" gradientTransform="matrix(1 0 0 1 -203.7553 -504.8332)">
				<stop  offset="0" style="stop-color:#D13F05"/>
				<stop  offset="0.2925" style="stop-color:#F67205"/>
				<stop  offset="0.3667" style="stop-color:#F67705"/>
				<stop  offset="0.4526" style="stop-color:#F68505"/>
				<stop  offset="0.5441" style="stop-color:#F69C05"/>
				<stop  offset="0.5638" style="stop-color:#F6A205"/>
				<stop  offset="0.5977" style="stop-color:#F69005"/>
				<stop  offset="0.6432" style="stop-color:#F67F05"/>
				<stop  offset="0.6931" style="stop-color:#F67505"/>
				<stop  offset="0.7553" style="stop-color:#F67205"/>
				<stop  offset="1" style="stop-color:#D13F05"/>
			</linearGradient>
			<path class="st48" d="M310.9,468.6l6.3,8.6c-8.9,3.5-18.8,4.1-28.1,1.6c-6.6-1.8-12.5-5.4-17-10.6l-6.3-8.6
				c4.5,5.1,10.4,8.8,17,10.6C292.1,472.7,302,472.1,310.9,468.6z"/>
			<polygon class="st11" points="314.6,467.1 320.8,475.7 318.5,475 312.3,466.4 			"/>
			
				<linearGradient id="SVGID_42_" gradientUnits="userSpaceOnUse" x1="492.4587" y1="995.7687" x2="562.8766" y2="934.6678" gradientTransform="matrix(1 0 0 1 -203.7553 -504.8332)">
				<stop  offset="0" style="stop-color:#D13F05"/>
				<stop  offset="0.2925" style="stop-color:#F67205"/>
				<stop  offset="0.3667" style="stop-color:#F67705"/>
				<stop  offset="0.4526" style="stop-color:#F68505"/>
				<stop  offset="0.5441" style="stop-color:#F69C05"/>
				<stop  offset="0.5638" style="stop-color:#F6A205"/>
				<stop  offset="0.5977" style="stop-color:#F69005"/>
				<stop  offset="0.6432" style="stop-color:#F67F05"/>
				<stop  offset="0.6931" style="stop-color:#F67505"/>
				<stop  offset="0.7553" style="stop-color:#F67205"/>
				<stop  offset="1" style="stop-color:#D13F05"/>
			</linearGradient>
			<path class="st49" d="M343.9,427.6l6.3,8.6c-0.4,4.9-1.7,9.8-3.8,14.2c-5.2,11.2-14.3,20.1-25.5,25.2l-6.3-8.6
				c11.2-5.1,20.2-14.1,25.5-25.2C342.1,437.3,343.4,432.5,343.9,427.6z"/>
			
				<linearGradient id="SVGID_43_" gradientUnits="userSpaceOnUse" x1="466.3306" y1="967.4982" x2="544.1152" y2="904.2304" gradientTransform="matrix(1 0 0 1 -203.7553 -504.8332)">
				<stop  offset="0" style="stop-color:#FFFFFF;stop-opacity:0"/>
				<stop  offset="0.2606" style="stop-color:#FFFFFF"/>
				<stop  offset="0.7553" style="stop-color:#FFFFFF"/>
				<stop  offset="1" style="stop-color:#FFFFFF;stop-opacity:0"/>
			</linearGradient>
			<path class="st50" d="M344.2,428.1c-0.4,4.9-1.7,9.8-3.8,14.2c-5.2,11.2-14.3,20.1-25.5,25.2l-2.3-0.6l-1.4,2.2
				c-8.9,3.5-18.8,4.1-28.1,1.6c-6.6-1.8-12.5-5.4-17-10.6l-0.1-4.3l-3.3-0.4c-5.8-9.8-6.5-22.6-0.8-35.1c1.7-3.7,3.9-7.2,6.4-10.4
				c1.3-0.6,2.7-1.3,3.9-2l0.6-2.9c10.6-10.2,25.3-15.8,39.2-14.4l3,2.4l8.5,0.4c13.1,5.5,20.7,17.7,20.7,31.5l-3.2,2.3L344.2,428.1
				z"/>
			
				<linearGradient id="SVGID_44_" gradientUnits="userSpaceOnUse" x1="534.7079" y1="948.3649" x2="455.8155" y2="915.0394" gradientTransform="matrix(1 0 0 1 -203.7553 -504.8332)">
				<stop  offset="0" style="stop-color:#FFAF02"/>
				<stop  offset="1" style="stop-color:#F56D05"/>
			</linearGradient>
			<path class="st51" d="M343.9,427.6c-0.4,4.9-1.7,9.8-3.8,14.2c-5.2,11.2-14.3,20.1-25.5,25.2l-2.3-0.6l-1.4,2.2
				c-8.9,3.5-18.8,4.1-28.1,1.6c-6.6-1.8-12.5-5.4-17-10.6l-0.1-4.3l-3.3-0.4c-5.8-9.8-6.5-22.6-0.8-35.1c1.7-3.7,3.9-7.2,6.4-10.4
				c1.3-0.6,2.7-1.3,3.9-2l0.6-2.9c10.6-10.2,25.3-15.8,39.2-14.4l3,2.4l8.5,0.4c13.1,5.5,20.7,17.7,20.7,31.5l-3.2,2.3L343.9,427.6
				z"/>
			
				<linearGradient id="SVGID_45_" gradientUnits="userSpaceOnUse" x1="475.7766" y1="908.5945" x2="521.5657" y2="952.3615" gradientTransform="matrix(1 0 0 1 -203.7553 -504.8332)">
				<stop  offset="0" style="stop-color:#FFFFFF;stop-opacity:0"/>
				<stop  offset="0.2606" style="stop-color:#FFFFFF"/>
				<stop  offset="0.7553" style="stop-color:#FFFFFF"/>
				<stop  offset="1" style="stop-color:#FFFFFF;stop-opacity:0"/>
			</linearGradient>
			<path class="st52" d="M313.2,401.9c15.7,4.4,22.6,20.9,15.4,36.7c-7.2,15.9-25.9,25.1-41.6,20.7s-22.6-20.9-15.4-36.7
				C278.8,406.8,297.4,397.5,313.2,401.9z"/>
			
				<linearGradient id="SVGID_46_" gradientUnits="userSpaceOnUse" x1="473.2284" y1="935.6332" x2="536.0151" y2="935.6332" gradientTransform="matrix(1 0 0 1 -203.7553 -504.8332)">
				<stop  offset="0" style="stop-color:#CF4505"/>
				<stop  offset="1" style="stop-color:#E45905"/>
			</linearGradient>
			<path class="st53" d="M314,402.1c15.7,4.4,22.6,20.9,15.4,36.7c-7.2,15.9-25.9,25.1-41.6,20.7s-22.6-20.9-15.4-36.7
				C279.6,406.9,298.2,397.7,314,402.1z"/>
			<path class="st17" d="M290.2,460c-15.7-4.4-22.6-20.9-15.4-36.7c6.7-14.7,23.2-23.7,38.1-21.4c-15.5-3.8-33.5,5.4-40.6,21
				c-7.2,15.9-0.4,32.3,15.4,36.7c1.2,0.3,2.3,0.6,3.5,0.8C290.9,460.2,290.6,460.1,290.2,460z"/>
			
				<radialGradient id="SVGID_47_" cx="2830.7297" cy="1422.4083" r="23.474" gradientTransform="matrix(7.290000e-02 7.410000e-02 -0.4921 0.4845 822.0795 -441.241)" gradientUnits="userSpaceOnUse">
				<stop  offset="0" style="stop-color:#FFFFFF"/>
				<stop  offset="8.578000e-02" style="stop-color:#FFFFFF;stop-opacity:0.9583"/>
				<stop  offset="0.2351" style="stop-color:#FFFFFF;stop-opacity:0.8462"/>
				<stop  offset="0.4301" style="stop-color:#FFFFFF;stop-opacity:0.6642"/>
				<stop  offset="0.6634" style="stop-color:#FFFFFF;stop-opacity:0.4119"/>
				<stop  offset="0.9261" style="stop-color:#FFFFFF;stop-opacity:9.449000e-02"/>
				<stop  offset="1" style="stop-color:#FFFFFF;stop-opacity:0"/>
			</radialGradient>
			<path class="st54" d="M330.2,459.4c-6.4,6.3-12.3,10.6-13.3,9.6c-0.9-1,3.5-6.8,9.8-13.1c6.4-6.3,12.3-10.6,13.3-9.6
				S336.6,453.1,330.2,459.4z"/>
			
				<linearGradient id="SVGID_48_" gradientUnits="userSpaceOnUse" x1="494.2971" y1="923.5461" x2="522.6038" y2="956.7563" gradientTransform="matrix(1 0 0 1 -203.7553 -504.8332)">
				<stop  offset="0" style="stop-color:#FFFFFF"/>
				<stop  offset="1" style="stop-color:#FFFFFF;stop-opacity:0"/>
			</linearGradient>
			<path class="st55" d="M334.8,400.8l-68.9,57.1v1.8c4.5,5.1,10.4,8.8,17,10.6c1.6,0.4,3.2,0.8,4.8,1l53.6-44.4l-0.5-0.1l3.2-2.3
				C344.1,415.6,340.8,407.2,334.8,400.8z"/>
			
				<linearGradient id="SVGID_49_" gradientUnits="userSpaceOnUse" x1="477.7633" y1="908.3022" x2="492.9039" y2="923.6606" gradientTransform="matrix(1 0 0 1 -203.7553 -504.8332)">
				<stop  offset="0" style="stop-color:#FFFFFF"/>
				<stop  offset="1" style="stop-color:#FFFFFF;stop-opacity:0"/>
			</linearGradient>
			<path class="st56" d="M314.9,392.5l-3-2.4c-4.1-0.4-8.3-0.2-12.4,0.6L260.4,423c-2.2,5.7-3,11.9-2.5,18l58.5-48.4L314.9,392.5z"
				/>
			<g>
				<g>
					<defs>
						<rect id="SVGID_50_" x="283.1" y="408.3" width="43.7" height="45"/>
					</defs>
					<clipPath id="SVGID_51_">
						<use xlink:href="#SVGID_50_"  style="overflow:visible;"/>
					</clipPath>
					<g class="st57">
						
							<linearGradient id="SVGID_52_" gradientUnits="userSpaceOnUse" x1="2453.8726" y1="-1431.7633" x2="2453.8726" y2="-1386.7522" gradientTransform="matrix(1 0 0 -1 -2148.7554 -978.4474)">
							<stop  offset="0" style="stop-color:#FFC000"/>
							<stop  offset="0.28" style="stop-color:#FFC000"/>
							<stop  offset="0.55" style="stop-color:#DAA600"/>
							<stop  offset="1" style="stop-color:#DAA600"/>
						</linearGradient>
						<path class="st58" d="M290.8,426.6c-0.2-0.2-0.4-0.4-0.5-0.6c-1.9-2.3-3.2-4.9-3.9-7.7c-0.5-2-0.6-4.1-0.4-6.2
							c0.1-1.1,0.4-2.2,0.9-3.1c0.3-0.6,1-0.9,1.6-0.6l0,0c1.4,0.5,2.5,1.5,3.3,2.7c2,2.7,3.4,5.8,4,9.1c0.2,1,0.2,2.1,0.3,3.1
							c0,0.4,0.1,0.8,0.1,1.2c0,0.3,0.2,0.5,0.6,0.4c1.4-0.2,2.9-0.1,4.3,0.3c1.2,0.3,2.4,0.7,3.6,1.2c1.7,0.7,3.2,1.7,4.4,3
							c0.1,0.2,0.4,0.2,0.6,0.1l0,0l0.1-0.1c0.3-0.3,0.6-0.6,0.9-0.9c2.7-3.1,6.3-5.3,10.3-6.4c1.3-0.4,2.6-0.5,3.9-0.4
							c0.6,0.1,1.2,0.3,1.7,0.5c0.2,0.2,0.4,0.4,0.4,0.7c0,0.4,0,0.8-0.1,1.1c-0.5,1.5-1.4,2.9-2.6,4.1c-2.8,3.1-6.6,5.3-10.7,6
							c-0.3,0.1-0.6,0.1-1,0.1c0.1,0.3,0.1,0.5,0.2,0.7c0.4,1.4,0.6,2.9,0.5,4.4c0,1.8-0.3,3.5-0.9,5.2c-0.6,1.9-1.6,3.7-2.9,5.3
							c-1.2,1.5-2.9,2.5-4.8,2.8c-1.3,0.4-2.7,0.5-4.1,0.3c-1.3-0.2-2.7-0.4-4-0.7c-1.4-0.4-2.7-0.8-4-1.4c-2.2-0.8-4.2-2-5.9-3.5
							c-1.8-1.5-3-3.6-3.4-5.9c-0.1-1.1-0.1-2.2,0.1-3.3c0.2-1.4,0.6-2.8,1.1-4.1c0.8-2.1,2.1-4,3.7-5.6c0.7-0.7,1.6-1.3,2.4-2
							L290.8,426.6z M292.1,442.7v0.1c-1.5-0.1-1.8,0.9-1.5,2c0,0.2,0.1,0.3,0.1,0.5c0.3,1.2,1.1,2.3,2.2,2.9c1.1,0.5,2.2,1,3.4,1.3
							c1.6,0.5,3.4,0.1,4.7-1.1c0.6-0.4,0.8-1.1,0.4-1.7c-0.1-0.1-0.2-0.3-0.3-0.4c-0.7-0.5-1.4-1-2.2-1.3c-1.3-0.6-2.6-1-3.9-1.5
							C294,443.1,293.1,442.9,292.1,442.7L292.1,442.7z M290.9,431.4c0-1-0.4-1.5-1.1-1.7c-0.6-0.1-1.2,0.1-1.6,0.7
							c-1.5,1.9-2.6,4-3.3,6.3c-0.1,0.4-0.1,0.8-0.1,1.1c0.1,0.7,0.7,1.2,1.4,1.1c0.3,0,0.7-0.2,0.9-0.5c0.5-0.7,1.1-1.5,1.5-2.3
							c0.6-1,1.1-2.1,1.7-3.1C290.5,432.4,290.7,431.9,290.9,431.4L290.9,431.4z M311.9,439.5c0-0.4-0.1-0.8-0.2-1.3
							c-0.2-0.7-1-1.2-1.7-1l0,0h-0.1c-0.5,0.2-0.9,0.7-1,1.3c-0.5,1.9-0.9,3.8-1.3,5.8c-0.1,0.6-0.1,1.2,0,1.8
							c0.1,0.7,0.8,1.1,1.4,0.9c0.2,0,0.3-0.1,0.4-0.2c0.5-0.3,0.8-0.7,0.9-1.3c0.4-1.1,0.7-2.2,1-3.3
							C311.6,441.5,311.7,440.4,311.9,439.5L311.9,439.5z"/>
					</g>
				</g>
			</g>
		</g>
	</g>
</g>
<g>
	<g id="OBJECTS_5_">
		<g>
			<polygon class="st7" points="159.9,469.7 166.2,478.3 162.8,477.9 156.6,469.3 			"/>
			
				<linearGradient id="SVGID_53_" gradientUnits="userSpaceOnUse" x1="374.4543" y1="996.1232" x2="444.8748" y2="935.0198" gradientTransform="matrix(1 0 0 1 -203.7553 -504.8332)">
				<stop  offset="0" style="stop-color:#D13F05"/>
				<stop  offset="0.2925" style="stop-color:#F67205"/>
				<stop  offset="0.3667" style="stop-color:#F67705"/>
				<stop  offset="0.4526" style="stop-color:#F68505"/>
				<stop  offset="0.5441" style="stop-color:#F69C05"/>
				<stop  offset="0.5638" style="stop-color:#F6A205"/>
				<stop  offset="0.5977" style="stop-color:#F69005"/>
				<stop  offset="0.6432" style="stop-color:#F67F05"/>
				<stop  offset="0.6931" style="stop-color:#F67505"/>
				<stop  offset="0.7553" style="stop-color:#F67205"/>
				<stop  offset="1" style="stop-color:#D13F05"/>
			</linearGradient>
			<path class="st59" d="M231.7,418.4c2.1,2.9,4.2,5.7,6.3,8.6c4.2,5.9,6.5,13,6.4,20.3l-6.3-8.6
				C238.2,431.4,235.9,424.3,231.7,418.4z"/>
			<polygon class="st9" points="238.1,438.7 244.4,447.3 241.2,449.7 234.9,441.1 			"/>
			<polygon class="st7" points="206.4,480.8 212.7,489.4 211.3,491.5 205.1,482.9 			"/>
			
				<linearGradient id="SVGID_54_" gradientUnits="userSpaceOnUse" x1="376.6733" y1="998.6741" x2="447.0901" y2="937.574" gradientTransform="matrix(1 0 0 1 -203.7553 -504.8332)">
				<stop  offset="0" style="stop-color:#D13F05"/>
				<stop  offset="0.2925" style="stop-color:#F67205"/>
				<stop  offset="0.3667" style="stop-color:#F67705"/>
				<stop  offset="0.4526" style="stop-color:#F68505"/>
				<stop  offset="0.5441" style="stop-color:#F69C05"/>
				<stop  offset="0.5638" style="stop-color:#F6A205"/>
				<stop  offset="0.5977" style="stop-color:#F69005"/>
				<stop  offset="0.6432" style="stop-color:#F67F05"/>
				<stop  offset="0.6931" style="stop-color:#F67505"/>
				<stop  offset="0.7553" style="stop-color:#F67205"/>
				<stop  offset="1" style="stop-color:#D13F05"/>
			</linearGradient>
			<path class="st60" d="M205.1,482.9l6.3,8.6c-8.9,3.5-18.8,4.1-28.1,1.6c-6.6-1.8-12.5-5.4-17-10.6L160,474
				c4.5,5.1,10.4,8.8,17,10.6C186.3,487,196.1,486.5,205.1,482.9z"/>
			<polygon class="st11" points="208.7,481.4 215,490 212.7,489.4 206.4,480.8 			"/>
			
				<linearGradient id="SVGID_55_" gradientUnits="userSpaceOnUse" x1="386.5594" y1="1010.0681" x2="456.9774" y2="948.9671" gradientTransform="matrix(1 0 0 1 -203.7553 -504.8332)">
				<stop  offset="0" style="stop-color:#D13F05"/>
				<stop  offset="0.2925" style="stop-color:#F67205"/>
				<stop  offset="0.3667" style="stop-color:#F67705"/>
				<stop  offset="0.4526" style="stop-color:#F68505"/>
				<stop  offset="0.5441" style="stop-color:#F69C05"/>
				<stop  offset="0.5638" style="stop-color:#F6A205"/>
				<stop  offset="0.5977" style="stop-color:#F69005"/>
				<stop  offset="0.6432" style="stop-color:#F67F05"/>
				<stop  offset="0.6931" style="stop-color:#F67505"/>
				<stop  offset="0.7553" style="stop-color:#F67205"/>
				<stop  offset="1" style="stop-color:#D13F05"/>
			</linearGradient>
			<path class="st61" d="M238,441.9l6.3,8.6c-0.4,4.9-1.7,9.8-3.8,14.2c-5.2,11.2-14.3,20.1-25.5,25.2l-6.3-8.6
				c11.2-5.1,20.2-14.1,25.5-25.2C236.2,451.7,237.5,446.8,238,441.9z"/>
			
				<linearGradient id="SVGID_56_" gradientUnits="userSpaceOnUse" x1="360.4719" y1="981.8459" x2="438.2565" y2="918.5781" gradientTransform="matrix(1 0 0 1 -203.7553 -504.8332)">
				<stop  offset="0" style="stop-color:#FFFFFF;stop-opacity:0"/>
				<stop  offset="0.2606" style="stop-color:#FFFFFF"/>
				<stop  offset="0.7553" style="stop-color:#FFFFFF"/>
				<stop  offset="1" style="stop-color:#FFFFFF;stop-opacity:0"/>
			</linearGradient>
			<path class="st62" d="M238.4,442.4c-0.4,4.9-1.7,9.8-3.8,14.2c-5.2,11.2-14.3,20.1-25.5,25.2l-2.3-0.6l-1.4,2.2
				c-8.9,3.5-18.8,4.1-28.1,1.6c-6.6-1.8-12.5-5.4-17-10.6l-0.1-4.3l-3.3-0.4c-5.8-9.8-6.5-22.6-0.8-35.1c1.7-3.7,3.9-7.2,6.4-10.4
				c1.3-0.6,2.7-1.3,3.9-2l0.6-2.9c10.6-10.2,25.3-15.8,39.2-14.4l3,2.4l8.5,0.4c13.1,5.5,20.7,17.7,20.7,31.5l-3.2,2.3L238.4,442.4
				z"/>
			
				<linearGradient id="SVGID_57_" gradientUnits="userSpaceOnUse" x1="428.8353" y1="962.6765" x2="349.9428" y2="929.351" gradientTransform="matrix(1 0 0 1 -203.7553 -504.8332)">
				<stop  offset="0" style="stop-color:#FFAF02"/>
				<stop  offset="1" style="stop-color:#F56D05"/>
			</linearGradient>
			<path class="st63" d="M238,441.9c-0.4,4.9-1.7,9.8-3.8,14.2c-5.2,11.2-14.3,20.1-25.5,25.2l-2.3-0.6l-1.4,2.2
				c-8.9,3.5-18.8,4.1-28.1,1.6c-6.6-1.8-12.5-5.4-17-10.6l-0.1-4.3l-3.3-0.4c-5.8-9.8-6.5-22.6-0.8-35.1c1.7-3.7,3.9-7.2,6.4-10.4
				c1.3-0.6,2.7-1.3,3.9-2l0.6-2.9c10.6-10.2,25.3-15.8,39.2-14.4l3,2.4l8.5,0.4c13.1,5.5,20.7,17.7,20.7,31.5l-3.2,2.3L238,441.9z"
				/>
			
				<linearGradient id="SVGID_58_" gradientUnits="userSpaceOnUse" x1="369.9001" y1="922.917" x2="415.6891" y2="966.684" gradientTransform="matrix(1 0 0 1 -203.7553 -504.8332)">
				<stop  offset="0" style="stop-color:#FFFFFF;stop-opacity:0"/>
				<stop  offset="0.2606" style="stop-color:#FFFFFF"/>
				<stop  offset="0.7553" style="stop-color:#FFFFFF"/>
				<stop  offset="1" style="stop-color:#FFFFFF;stop-opacity:0"/>
			</linearGradient>
			<path class="st64" d="M207.3,416.2c15.7,4.4,22.6,20.9,15.4,36.7c-7.2,15.9-25.9,25.1-41.6,20.7s-22.6-20.9-15.4-36.7
				C172.9,421.1,191.6,411.8,207.3,416.2z"/>
			
				<linearGradient id="SVGID_59_" gradientUnits="userSpaceOnUse" x1="367.4026" y1="949.9368" x2="430.1892" y2="949.9368" gradientTransform="matrix(1 0 0 1 -203.7553 -504.8332)">
				<stop  offset="0" style="stop-color:#CF4505"/>
				<stop  offset="1" style="stop-color:#E45905"/>
			</linearGradient>
			<path class="st65" d="M208.1,416.4c15.7,4.4,22.6,20.9,15.4,36.7c-7.2,15.9-25.9,25.1-41.6,20.7s-22.6-20.9-15.4-36.7
				C173.7,421.3,192.4,412,208.1,416.4z"/>
			<path class="st17" d="M184.4,474.3c-15.7-4.4-22.6-20.9-15.4-36.7c6.7-14.7,23.2-23.7,38.1-21.4c-15.5-3.8-33.5,5.4-40.6,21
				c-7.2,15.9-0.4,32.3,15.4,36.7c1.2,0.3,2.3,0.6,3.5,0.8C185.1,474.5,184.7,474.4,184.4,474.3z"/>
			
				<radialGradient id="SVGID_60_" cx="2214.3167" cy="1546.2462" r="23.4785" gradientTransform="matrix(7.290000e-02 7.410000e-02 -0.4921 0.4845 822.0795 -441.241)" gradientUnits="userSpaceOnUse">
				<stop  offset="0" style="stop-color:#FFFFFF"/>
				<stop  offset="8.578000e-02" style="stop-color:#FFFFFF;stop-opacity:0.9583"/>
				<stop  offset="0.2351" style="stop-color:#FFFFFF;stop-opacity:0.8462"/>
				<stop  offset="0.4301" style="stop-color:#FFFFFF;stop-opacity:0.6642"/>
				<stop  offset="0.6634" style="stop-color:#FFFFFF;stop-opacity:0.4119"/>
				<stop  offset="0.9261" style="stop-color:#FFFFFF;stop-opacity:9.449000e-02"/>
				<stop  offset="1" style="stop-color:#FFFFFF;stop-opacity:0"/>
			</radialGradient>
			<path class="st66" d="M224.3,473.7c-6.4,6.3-12.3,10.6-13.3,9.6c-0.9-1,3.5-6.8,9.8-13.1c6.4-6.3,12.3-10.6,13.3-9.6
				S230.7,467.5,224.3,473.7z"/>
			
				<linearGradient id="SVGID_61_" gradientUnits="userSpaceOnUse" x1="388.4179" y1="937.8712" x2="416.7246" y2="971.0814" gradientTransform="matrix(1 0 0 1 -203.7553 -504.8332)">
				<stop  offset="0" style="stop-color:#FFFFFF"/>
				<stop  offset="1" style="stop-color:#FFFFFF;stop-opacity:0"/>
			</linearGradient>
			<path class="st67" d="M228.9,415.1L160,472.2v1.8c4.5,5.1,10.4,8.8,17,10.6c1.6,0.4,3.2,0.8,4.8,1l53.6-44.4l-0.5-0.1l3.2-2.3
				C238.2,430,234.9,421.5,228.9,415.1z"/>
			
				<linearGradient id="SVGID_62_" gradientUnits="userSpaceOnUse" x1="371.8362" y1="922.6747" x2="386.9768" y2="938.0331" gradientTransform="matrix(1 0 0 1 -203.7553 -504.8332)">
				<stop  offset="0" style="stop-color:#FFFFFF"/>
				<stop  offset="1" style="stop-color:#FFFFFF;stop-opacity:0"/>
			</linearGradient>
			<path class="st68" d="M209,406.8l-3-2.4c-4.1-0.4-8.3-0.2-12.4,0.6l-39.1,32.4c-2.2,5.7-3,11.9-2.5,18l58.5-48.4L209,406.8z"/>
			<g>
				<g>
					<defs>
						<rect id="SVGID_63_" x="177.2" y="422.6" width="43.7" height="45"/>
					</defs>
					<clipPath id="SVGID_64_">
						<use xlink:href="#SVGID_63_"  style="overflow:visible;"/>
					</clipPath>
					<g class="st69">
						
							<linearGradient id="SVGID_65_" gradientUnits="userSpaceOnUse" x1="2347.9727" y1="-1446.0874" x2="2347.9727" y2="-1401.0763" gradientTransform="matrix(1 0 0 -1 -2148.7554 -978.4474)">
							<stop  offset="0" style="stop-color:#FFC000"/>
							<stop  offset="0.28" style="stop-color:#FFC000"/>
							<stop  offset="0.55" style="stop-color:#DAA600"/>
							<stop  offset="1" style="stop-color:#DAA600"/>
						</linearGradient>
						<path class="st70" d="M184.9,441c-0.2-0.2-0.4-0.4-0.5-0.6c-1.9-2.3-3.2-4.9-3.9-7.7c-0.5-2-0.6-4.1-0.4-6.2
							c0.1-1.1,0.4-2.2,0.9-3.1c0.3-0.6,1-0.9,1.6-0.6l0,0c1.4,0.5,2.5,1.5,3.3,2.7c2,2.7,3.4,5.8,4,9.1c0.2,1,0.2,2.1,0.3,3.1
							c0,0.4,0.1,0.8,0.1,1.2c0,0.3,0.2,0.5,0.6,0.4c1.4-0.2,2.9-0.1,4.3,0.3c1.2,0.3,2.4,0.7,3.6,1.2c1.7,0.7,3.2,1.7,4.4,3
							c0.1,0.2,0.4,0.2,0.6,0.1l0,0l0.1-0.1c0.3-0.3,0.6-0.6,0.9-0.9c2.7-3.1,6.3-5.3,10.3-6.4c1.3-0.4,2.6-0.5,3.9-0.4
							c0.6,0.1,1.2,0.3,1.7,0.5c0.2,0.2,0.4,0.4,0.4,0.7c0,0.4,0,0.8-0.1,1.1c-0.5,1.5-1.4,2.9-2.6,4.1c-2.8,3.1-6.6,5.3-10.7,6
							c-0.3,0.1-0.6,0.1-1,0.1c0.1,0.3,0.1,0.5,0.2,0.7c0.4,1.4,0.6,2.9,0.5,4.4c0,1.8-0.3,3.5-0.9,5.2c-0.6,1.9-1.6,3.7-2.9,5.3
							c-1.2,1.5-2.9,2.5-4.8,2.8c-1.3,0.4-2.7,0.5-4.1,0.3c-1.3-0.2-2.7-0.4-4-0.7c-1.4-0.4-2.7-0.8-4-1.4c-2.2-0.8-4.2-2-5.9-3.5
							c-1.8-1.5-3-3.6-3.4-5.9c-0.1-1.1-0.1-2.2,0.1-3.3c0.2-1.4,0.6-2.8,1.1-4.1c0.8-2.1,2.1-4,3.7-5.6c0.7-0.7,1.6-1.3,2.4-2
							L184.9,441z M186.2,457v0.1c-1.5-0.1-1.8,0.9-1.5,2c0,0.2,0.1,0.3,0.1,0.5c0.3,1.2,1.1,2.3,2.2,2.9c1.1,0.5,2.2,1,3.4,1.3
							c1.6,0.5,3.4,0.1,4.7-1.1c0.6-0.4,0.8-1.1,0.4-1.7c-0.1-0.1-0.2-0.3-0.3-0.4c-0.7-0.5-1.4-1-2.2-1.3c-1.3-0.6-2.6-1-3.9-1.5
							C188.2,457.5,187.2,457.3,186.2,457L186.2,457z M185,445.7c0-1-0.4-1.5-1.1-1.7c-0.6-0.1-1.2,0.1-1.6,0.7
							c-1.5,1.9-2.6,4-3.3,6.3c-0.1,0.4-0.1,0.8-0.1,1.1c0.1,0.7,0.7,1.2,1.4,1.1c0.3,0,0.7-0.2,0.9-0.5c0.5-0.7,1.1-1.5,1.5-2.3
							c0.6-1,1.1-2.1,1.7-3.1C184.7,446.7,184.9,446.2,185,445.7L185,445.7z M206,453.9c0-0.4-0.1-0.8-0.2-1.3c-0.2-0.7-1-1.2-1.7-1
							l0,0H204c-0.5,0.2-0.9,0.7-1,1.3c-0.5,1.9-0.9,3.8-1.3,5.8c-0.1,0.6-0.1,1.2,0,1.8c0.1,0.7,0.8,1.1,1.4,0.9
							c0.2,0,0.3-0.1,0.4-0.2c0.5-0.3,0.8-0.7,0.9-1.3c0.4-1.1,0.7-2.2,1-3.3C205.7,455.8,205.8,454.8,206,453.9L206,453.9z"/>
					</g>
				</g>
			</g>
		</g>
	</g>
</g>
<g>
	<g id="OBJECTS_4_">
		<g>
			<polygon class="st7" points="225.5,445 231.8,453.6 228.5,453.1 222.2,444.5 			"/>
			
				<linearGradient id="SVGID_66_" gradientUnits="userSpaceOnUse" x1="440.0821" y1="971.399" x2="510.5026" y2="910.2957" gradientTransform="matrix(1 0 0 1 -203.7553 -504.8332)">
				<stop  offset="0" style="stop-color:#D13F05"/>
				<stop  offset="0.2925" style="stop-color:#F67205"/>
				<stop  offset="0.3667" style="stop-color:#F67705"/>
				<stop  offset="0.4526" style="stop-color:#F68505"/>
				<stop  offset="0.5441" style="stop-color:#F69C05"/>
				<stop  offset="0.5638" style="stop-color:#F6A205"/>
				<stop  offset="0.5977" style="stop-color:#F69005"/>
				<stop  offset="0.6432" style="stop-color:#F67F05"/>
				<stop  offset="0.6931" style="stop-color:#F67505"/>
				<stop  offset="0.7553" style="stop-color:#F67205"/>
				<stop  offset="1" style="stop-color:#D13F05"/>
			</linearGradient>
			<path class="st71" d="M297.3,393.7c2.1,2.9,4.2,5.7,6.3,8.6c4.2,5.9,6.5,13,6.4,20.3l-6.3-8.6
				C303.8,406.7,301.5,399.6,297.3,393.7z"/>
			<polygon class="st9" points="303.7,414 310,422.6 306.8,424.9 300.5,416.3 			"/>
			<polygon class="st7" points="272,456 278.3,464.6 276.9,466.8 270.7,458.2 			"/>
			
				<linearGradient id="SVGID_67_" gradientUnits="userSpaceOnUse" x1="442.2763" y1="973.9214" x2="512.6931" y2="912.8214" gradientTransform="matrix(1 0 0 1 -203.7553 -504.8332)">
				<stop  offset="0" style="stop-color:#D13F05"/>
				<stop  offset="0.2925" style="stop-color:#F67205"/>
				<stop  offset="0.3667" style="stop-color:#F67705"/>
				<stop  offset="0.4526" style="stop-color:#F68505"/>
				<stop  offset="0.5441" style="stop-color:#F69C05"/>
				<stop  offset="0.5638" style="stop-color:#F6A205"/>
				<stop  offset="0.5977" style="stop-color:#F69005"/>
				<stop  offset="0.6432" style="stop-color:#F67F05"/>
				<stop  offset="0.6931" style="stop-color:#F67505"/>
				<stop  offset="0.7553" style="stop-color:#F67205"/>
				<stop  offset="1" style="stop-color:#D13F05"/>
			</linearGradient>
			<path class="st72" d="M270.7,458.2l6.3,8.6c-8.9,3.5-18.8,4.1-28.1,1.6c-6.6-1.8-12.5-5.4-17-10.6l-6.3-8.6
				c4.5,5.1,10.4,8.8,17,10.6C251.9,462.3,261.7,461.7,270.7,458.2z"/>
			<polygon class="st11" points="274.3,456.7 280.6,465.3 278.3,464.6 272,456 			"/>
			
				<linearGradient id="SVGID_68_" gradientUnits="userSpaceOnUse" x1="452.1873" y1="985.344" x2="522.6052" y2="924.243" gradientTransform="matrix(1 0 0 1 -203.7553 -504.8332)">
				<stop  offset="0" style="stop-color:#D13F05"/>
				<stop  offset="0.2925" style="stop-color:#F67205"/>
				<stop  offset="0.3667" style="stop-color:#F67705"/>
				<stop  offset="0.4526" style="stop-color:#F68505"/>
				<stop  offset="0.5441" style="stop-color:#F69C05"/>
				<stop  offset="0.5638" style="stop-color:#F6A205"/>
				<stop  offset="0.5977" style="stop-color:#F69005"/>
				<stop  offset="0.6432" style="stop-color:#F67F05"/>
				<stop  offset="0.6931" style="stop-color:#F67505"/>
				<stop  offset="0.7553" style="stop-color:#F67205"/>
				<stop  offset="1" style="stop-color:#D13F05"/>
			</linearGradient>
			<path class="st73" d="M303.6,417.2l6.3,8.6c-0.4,4.9-1.7,9.8-3.8,14.2c-5.2,11.2-14.3,20.1-25.5,25.2l-6.3-8.6
				c11.2-5.1,20.2-14.1,25.5-25.2C301.8,426.9,303.1,422.1,303.6,417.2z"/>
			
				<linearGradient id="SVGID_69_" gradientUnits="userSpaceOnUse" x1="426.0997" y1="957.1234" x2="503.8842" y2="893.8556" gradientTransform="matrix(1 0 0 1 -203.7553 -504.8332)">
				<stop  offset="0" style="stop-color:#FFFFFF;stop-opacity:0"/>
				<stop  offset="0.2606" style="stop-color:#FFFFFF"/>
				<stop  offset="0.7553" style="stop-color:#FFFFFF"/>
				<stop  offset="1" style="stop-color:#FFFFFF;stop-opacity:0"/>
			</linearGradient>
			<path class="st74" d="M304,417.7c-0.4,4.9-1.7,9.8-3.8,14.2c-5.2,11.2-14.3,20.1-25.5,25.2l-2.3-0.6l-1.4,2.2
				c-8.9,3.5-18.8,4.1-28.1,1.6c-6.6-1.8-12.5-5.4-17-10.6l-0.1-4.3l-3.3-0.4c-5.8-9.8-6.5-22.6-0.8-35.1c1.7-3.7,3.9-7.2,6.4-10.4
				c1.3-0.6,2.7-1.3,3.9-2l0.6-2.9c10.6-10.2,25.3-15.8,39.2-14.4l3,2.4l8.5,0.4c13.1,5.5,20.7,17.7,20.7,31.5l-3.2,2.3L304,417.7z"
				/>
			
				<linearGradient id="SVGID_70_" gradientUnits="userSpaceOnUse" x1="494.424" y1="937.9717" x2="415.5316" y2="904.6462" gradientTransform="matrix(1 0 0 1 -203.7553 -504.8332)">
				<stop  offset="0" style="stop-color:#FFAF02"/>
				<stop  offset="1" style="stop-color:#F56D05"/>
			</linearGradient>
			<path class="st75" d="M303.6,417.2c-0.4,4.9-1.7,9.8-3.8,14.2c-5.2,11.2-14.3,20.1-25.5,25.2L272,456l-1.4,2.2
				c-8.9,3.5-18.8,4.1-28.1,1.6c-6.6-1.8-12.5-5.4-17-10.6l-0.1-4.3l-3.3-0.4c-5.8-9.8-6.5-22.6-0.8-35.1c1.7-3.7,3.9-7.2,6.4-10.4
				c1.3-0.6,2.7-1.3,3.9-2l0.6-2.9c10.6-10.2,25.3-15.8,39.2-14.4l3,2.4l8.5,0.4c13.1,5.5,20.7,17.7,20.7,31.5l-3.2,2.3L303.6,417.2
				z"/>
			
				<linearGradient id="SVGID_71_" gradientUnits="userSpaceOnUse" x1="435.4799" y1="898.1976" x2="481.2689" y2="941.9646" gradientTransform="matrix(1 0 0 1 -203.7553 -504.8332)">
				<stop  offset="0" style="stop-color:#FFFFFF;stop-opacity:0"/>
				<stop  offset="0.2606" style="stop-color:#FFFFFF"/>
				<stop  offset="0.7553" style="stop-color:#FFFFFF"/>
				<stop  offset="1" style="stop-color:#FFFFFF;stop-opacity:0"/>
			</linearGradient>
			<path class="st76" d="M272.9,391.5c15.7,4.4,22.6,20.9,15.4,36.7c-7.2,15.9-25.9,25.1-41.6,20.7s-22.6-20.9-15.4-36.7
				S257.2,387.1,272.9,391.5z"/>
			
				<linearGradient id="SVGID_72_" gradientUnits="userSpaceOnUse" x1="433.0026" y1="925.2157" x2="495.7892" y2="925.2157" gradientTransform="matrix(1 0 0 1 -203.7553 -504.8332)">
				<stop  offset="0" style="stop-color:#CF4505"/>
				<stop  offset="1" style="stop-color:#E45905"/>
			</linearGradient>
			<path class="st77" d="M273.7,391.7c15.7,4.4,22.6,20.9,15.4,36.7c-7.2,15.9-25.9,25.1-41.6,20.7s-22.6-20.9-15.4-36.7
				C239.3,396.5,258,387.2,273.7,391.7z"/>
			<path class="st17" d="M250,449.6c-15.7-4.4-22.6-20.9-15.4-36.7c6.7-14.7,23.2-23.7,38.1-21.4c-15.5-3.8-33.5,5.4-40.6,21
				c-7.2,15.9-0.4,32.3,15.4,36.7c1.2,0.3,2.3,0.6,3.5,0.8C250.7,449.8,250.3,449.7,250,449.6z"/>
			
				<radialGradient id="SVGID_73_" cx="2487.4688" cy="1453.3947" r="23.4838" gradientTransform="matrix(7.290000e-02 7.410000e-02 -0.4921 0.4845 822.0795 -441.241)" gradientUnits="userSpaceOnUse">
				<stop  offset="0" style="stop-color:#FFFFFF"/>
				<stop  offset="8.578000e-02" style="stop-color:#FFFFFF;stop-opacity:0.9583"/>
				<stop  offset="0.2351" style="stop-color:#FFFFFF;stop-opacity:0.8462"/>
				<stop  offset="0.4301" style="stop-color:#FFFFFF;stop-opacity:0.6642"/>
				<stop  offset="0.6634" style="stop-color:#FFFFFF;stop-opacity:0.4119"/>
				<stop  offset="0.9261" style="stop-color:#FFFFFF;stop-opacity:9.449000e-02"/>
				<stop  offset="1" style="stop-color:#FFFFFF;stop-opacity:0"/>
			</radialGradient>
			<path class="st78" d="M289.9,449c-6.4,6.3-12.3,10.6-13.3,9.6c-0.9-1,3.5-6.8,9.8-13.1c6.4-6.3,12.3-10.6,13.3-9.6
				C300.7,436.8,296.3,442.7,289.9,449z"/>
			
				<linearGradient id="SVGID_74_" gradientUnits="userSpaceOnUse" x1="454.0017" y1="913.143" x2="482.3085" y2="946.3532" gradientTransform="matrix(1 0 0 1 -203.7553 -504.8332)">
				<stop  offset="0" style="stop-color:#FFFFFF"/>
				<stop  offset="1" style="stop-color:#FFFFFF;stop-opacity:0"/>
			</linearGradient>
			<path class="st79" d="M294.5,390.4l-68.9,57.1v1.8c4.5,5.1,10.4,8.8,17,10.6c1.6,0.4,3.2,0.8,4.8,1l53.6-44.4l-0.5-0.1l3.2-2.3
				C303.8,405.2,300.5,396.7,294.5,390.4z"/>
			
				<linearGradient id="SVGID_75_" gradientUnits="userSpaceOnUse" x1="437.4157" y1="897.9539" x2="452.5564" y2="913.3123" gradientTransform="matrix(1 0 0 1 -203.7553 -504.8332)">
				<stop  offset="0" style="stop-color:#FFFFFF"/>
				<stop  offset="1" style="stop-color:#FFFFFF;stop-opacity:0"/>
			</linearGradient>
			<path class="st80" d="M274.6,382.1l-3-2.4c-4.1-0.4-8.3-0.2-12.4,0.6l-39.1,32.4c-2.2,5.7-3,11.9-2.5,18l58.5-48.4L274.6,382.1z"
				/>
			<g>
				<g>
					<defs>
						<rect id="SVGID_76_" x="242.8" y="397.9" width="43.7" height="45"/>
					</defs>
					<clipPath id="SVGID_77_">
						<use xlink:href="#SVGID_76_"  style="overflow:visible;"/>
					</clipPath>
					<g class="st81">
						
							<linearGradient id="SVGID_78_" gradientUnits="userSpaceOnUse" x1="2413.5725" y1="-1421.3394" x2="2413.5725" y2="-1376.3282" gradientTransform="matrix(1 0 0 -1 -2148.7554 -978.4474)">
							<stop  offset="0" style="stop-color:#FFC000"/>
							<stop  offset="0.28" style="stop-color:#FFC000"/>
							<stop  offset="0.55" style="stop-color:#DAA600"/>
							<stop  offset="1" style="stop-color:#DAA600"/>
						</linearGradient>
						<path class="st82" d="M250.5,416.2c-0.2-0.2-0.4-0.4-0.5-0.6c-1.9-2.3-3.2-4.9-3.9-7.7c-0.5-2-0.6-4.1-0.4-6.2
							c0.1-1.1,0.4-2.2,0.9-3.1c0.3-0.6,1-0.9,1.6-0.6l0,0c1.4,0.5,2.5,1.5,3.3,2.7c2,2.7,3.4,5.8,4,9.1c0.2,1,0.2,2.1,0.3,3.1
							c0,0.4,0.1,0.8,0.1,1.2c0,0.3,0.2,0.5,0.6,0.4c1.4-0.2,2.9-0.1,4.3,0.3c1.2,0.3,2.4,0.7,3.6,1.2c1.7,0.7,3.2,1.7,4.4,3
							c0.1,0.2,0.4,0.2,0.6,0.1l0,0l0.1-0.1c0.3-0.3,0.6-0.6,0.9-0.9c2.7-3.1,6.3-5.3,10.3-6.4c1.3-0.4,2.6-0.5,3.9-0.4
							c0.6,0.1,1.2,0.3,1.7,0.5c0.2,0.2,0.4,0.4,0.4,0.7c0,0.4,0,0.8-0.1,1.1c-0.5,1.5-1.4,2.9-2.6,4.1c-2.8,3.1-6.6,5.3-10.7,6
							c-0.3,0.1-0.6,0.1-1,0.1c0.1,0.3,0.1,0.5,0.2,0.7c0.4,1.4,0.6,2.9,0.5,4.4c0,1.8-0.3,3.5-0.9,5.2c-0.6,1.9-1.6,3.7-2.9,5.3
							c-1.2,1.5-2.9,2.5-4.8,2.8c-1.3,0.4-2.7,0.5-4.1,0.3c-1.3-0.2-2.7-0.4-4-0.7c-1.4-0.4-2.7-0.8-4-1.4c-2.2-0.8-4.2-2-5.9-3.5
							c-1.8-1.5-3-3.6-3.4-5.9c-0.1-1.1-0.1-2.2,0.1-3.3c0.2-1.4,0.6-2.8,1.1-4.1c0.8-2.1,2.1-4,3.7-5.6c0.7-0.7,1.6-1.3,2.4-2
							L250.5,416.2z M251.9,432.3v0.1c-1.5-0.1-1.8,0.9-1.5,2c0,0.2,0.1,0.3,0.1,0.5c0.3,1.2,1.1,2.3,2.2,2.9c1.1,0.5,2.2,1,3.4,1.3
							c1.6,0.5,3.4,0.1,4.7-1.1c0.6-0.4,0.8-1.1,0.4-1.7c-0.1-0.1-0.2-0.3-0.3-0.4c-0.7-0.5-1.4-1-2.2-1.3c-1.3-0.6-2.6-1-3.9-1.5
							C253.8,432.7,252.8,432.5,251.9,432.3L251.9,432.3z M250.7,420.9c0-1-0.4-1.5-1.1-1.7c-0.6-0.1-1.2,0.1-1.6,0.7
							c-1.5,1.9-2.6,4-3.3,6.3c-0.1,0.4-0.1,0.8-0.1,1.1c0.1,0.7,0.7,1.2,1.4,1.1c0.3,0,0.7-0.2,0.9-0.5c0.5-0.7,1.1-1.5,1.5-2.3
							c0.6-1,1.1-2.1,1.7-3.1C250.3,422,250.5,421.5,250.7,420.9L250.7,420.9z M271.6,429.1c0-0.4-0.1-0.8-0.2-1.3
							c-0.2-0.7-1-1.2-1.7-1l0,0h-0.1c-0.5,0.2-0.9,0.7-1,1.3c-0.5,1.9-0.9,3.8-1.3,5.8c-0.1,0.6-0.1,1.2,0,1.8
							c0.1,0.7,0.8,1.1,1.4,0.9c0.2,0,0.3-0.1,0.4-0.2c0.5-0.3,0.8-0.7,0.9-1.3c0.4-1.1,0.7-2.2,1-3.3
							C271.3,431,271.5,430,271.6,429.1L271.6,429.1z"/>
					</g>
				</g>
			</g>
		</g>
	</g>
</g>
<g class="st3">
	<g>
		<path class="st6" d="M390.7,246.3L390,416.7c-0.1,21.7-14.3,43.3-42.7,59.8c-57.2,33.3-150.3,33.2-207.9,0
			c-29-16.7-43.5-38.7-43.4-60.6l0.8-170.4c-0.1,21.9,14.4,43.9,43.4,60.6c57.6,33.2,150.6,33.3,207.9,0
			C376.5,289.6,390.7,268,390.7,246.3z"/>
	</g>
</g>
</svg>
