<svg id="Layer_1" enable-background="new 0 0 53 53" height="512" viewBox="0 0 53 53" width="512" xmlns="http://www.w3.org/2000/svg"><g id="_x34_1"><g><g><path d="m41.7460136 30.1913986c0 1.6300049-1.1400146 3.5999756-2.5500488 4.4199829l-26.9199839 15.5400391c-.7199707.4099731-1.3599854.4499512-1.8300171.1699829l-3.2499995-1.8900146c-.4599609-.2600098-.7399902-.8300171-.7399902-1.6400146l-.0599976-22.669983 3.2499995 1.8900146.0599976 22.6699829-.0499878-22.6699829 32.0300303-18.4899892z" fill="#e9e7fc"/></g><g><g><g><g><g><g><g><g><g><g enable-background="new"><g><path d="m10.4505491 50.3205376-3.2500005-1.8900146c-.460022-.2599487-.7400513-.8299561-.7400513-1.6399536l-.0599975-22.6700459 3.2500005 1.8900146.0599976 22.6699848c0 .8100586.2800293 1.3800049.7400512 1.6400147z" fill="#e9e7fc"/></g><g><path d="m41.7418289 30.1881199c0 1.6300049-1.1400146 3.5999775-2.5499878 4.4199848l-26.9200458 15.5400391c-1.4099731.8099976-2.5599976.1599731-2.5599976-1.460022l-.0599975-22.6799946 32.0300312-18.4899893z" fill="#f8f9fe"/></g><g><path d="m41.6847076 6.2020726v1.3200073l-32.0300293 18.4899898-3.25-1.8900146-.0100098-1.3200073c0-1.6199951 1.1400146-3.5999756 2.5499878-4.4099731l26.920044-15.5400385c.7099609-.4099731 1.3499756-.4499512 1.8200073-.1799927l3.1699829 1.8500364c.5000001.25.8200074.8299561.8300171 1.6799927z" fill="#e93565"/></g><g><path d="m41.6818314 6.1981306v1.3200073l-32.0300312 18.4899893-.0100098-1.3099976c0-1.6300049 1.1400146-3.6000366 2.5500488-4.4199829l26.9199848-15.5400381c1.4099732-.8200073 2.5599976-.1599731 2.5700074 1.460022z" fill="#e93565"/></g><g><path d="m40.9305305 4.5605268c-.460022-.2699585-1.1099854-.2299805-1.8200073.1800537l-26.9199838 15.5399771c-1.4100342.8099976-2.5499878 2.789978-2.5499878 4.4099731l.0099487 1.3200073-3.2500005-1.8900146-.0099487-1.3199463c0-1.6200562 1.1399536-3.6000366 2.5499883-4.4100342l26.9199838-15.5399772c.710022-.4100342 1.3499756-.4500122 1.8200073-.1799927z" fill="#f45170"/></g></g></g><g><g enable-background="new"><g><path d="m24.9105091 14.9405317c-.1300049-.0799561-.1054878.3035269-.3055.423583l-10.4696579 6.4978237c-.3999634.2199707-.4373703.1623058-.4373703.612318 0 .2299805-1.0474806.5563011-.9174757.6263084l-.5099487-.2999878c-.1300049-.0700073-.210022-.2300415-.210022-.460022 0-.4500122.3200073-1.0100098.710022-1.2299805l11.1199942-6.420043c.1999512-.1199951.3800049-.1300049.5099487-.0499878z" fill="#fff"/></g><g><path d="m25.1218319 15.3981428c0 .4499512-.3200073.999999-.710022 1.2299795l-11.1199951 6.4199829c-.4000244.2300415-.7199707.0499878-.7199707-.4099731 0-.4500122.3199463-1 .7099609-1.2299805l11.1199951-6.420043c.4000245-.2299804.7200318-.0499878.7200318.4100342z" fill="#d3daea"/></g></g><g enable-background="new"><g fill="#fff"><path d="m31.9418392 10.1481428.5199604.2999878c-.1599731-.0900269-.0627747.609745-.3127747.7497597-.4799786.2799683-.6972065.2054405-.6972065.7654381 0 .2699585-.3899841.53479-.2400208.6248169l-.5100098-.3000488c-.1599731-.0899658-.2599487-.289978-.2599487-.5599976 0-.5599976.3899536-1.2399902.8800049-1.5199585.2399903-.1400147.459961-.1500244.6199952-.0599976z"/><path d="m34.9018021 8.4481306.5100098.2999878c-.1599731-.0999756-.1620674.6397123-.4020576.779727-.4799805.2800293-.7367897.2286348-.7267799.7886324 0 .2799683-.2711258.4716187-.1111526.5616455l-.5100098-.2999878c-.1599731-.0900269-.2600098-.2800293-.2600098-.5599976 0-.5599976.3900146-1.2300415.8699951-1.5100098.2499999-.1400146.4700316-.1600341.6300048-.0599975z"/><path d="m38.3718338 7.0380964c-.1600342-.0899658-.0603409.6952133-.3003311.8351669-.4899902.2800293-.8968773.1535959-.8968773.7035837 0 .2800293-.202816.5012884-.0427818.601264l-.5200196-.2999877c-.1500244-.0900269-.25-.289978-.25-.5700073 0-.5499878.3900146-1.2299805.8699951-1.5100098.2399902-.1399536.4699707-.1499634.6300049-.0599976z"/></g></g></g></g></g></g></g></g><g><path d="m46.6046906 31.2520599c.0199585 4.8699951-3.4100342 10.8099976-7.6500244 13.2600098-2.1799927 1.2600098-4.1499634 1.3499756-5.5499878.4799805.0200195.0200195.0499878.0400391.0800171.0599976l-.1000366-.0599976-2.8299561-1.6499634c-.210022-.1199951-.4200439-.2700195-.6000366-.4400024-.039978-.0300293-.0800171-.0700073-.1199951-.1100464-.3900146-.3799438-.710022-.8399658-.960022-1.3999634-.0699463-.1500244-.1299438-.2999878-.1899414-.4700317-.0800171-.2599487-.1600342-.539978-.2200317-.8299561-.2197418-1.1209755-.2512875-2.5542946.1500244-4.3600464.8682194-3.8345604 3.3913536-7.8744087 6.5700073-10.0799561.0999756-.0700073.2099609-.1500244.3199463-.2200317-.039978-.0100098-.0799561-.0299683-.1099854-.0499878-.5-.289978-.7399902-.6599731-.7399902-1.0300293v-1.3399658c0-.3699951.2399902-.7399902.7299805-1.0200195.9700317-.5700073 2.5599976-.5700073 3.5400391 0 .4899902.2900391.7399902.6600342.7399902 1.0300293l-.0100098 1.0899658c.6599731.0300293 1.25.210022 1.7800293.5100098l2.9399414 1.7000122c-.0499878-.0300293-.0999756-.0599976-.1599731-.0800171 1.4700316.7600097 2.3800048 2.5 2.3900146 5.0100097z" fill="#7e5af2"/></g><g><g><g><g><g><g enable-background="new"><g><path d="m38.9018288 26.8576336c4.2431679-2.4497948 7.6937599-.4819527 7.7075768 4.3923187.0138245 4.8757305-3.4143524 10.8142986-7.6575203 13.2640934s-7.6931229.4823151-7.7069473-4.3934135c-.0138169-4.8742714 3.4137191-10.8132019 7.6568908-13.2629986z" fill="#7e5af2"/></g></g></g><g><path d="m43.0601883 27.4726486c1.2566566.6482735 2.0452003 2.1297016 2.051342 4.2712116.01091 4.151823-2.915699 9.2203121-6.526844 11.3056469-1.5736771.9087524-3.020874 1.1020393-4.1542435.6878815 1.1790771.6082382 2.7700882.4833031 4.5181351-.5261497 3.6111412-2.0853348 6.5377502-7.1538239 6.5268402-11.3056469-.0067139-2.3419457-.9478569-3.896719-2.4152298-4.4329434z" fill="#b28afd"/><path d="m45.1113243 31.743885c.0009918.2480164-.0089264.4990158-.0297623.7529831-.311512 3.9940796-3.1022034 8.5923309-6.4970741 10.5526657-1.5734253.9087334-3.0208588 1.1021881-4.153801.6875038-1.2569542-.6478271-2.0456505-2.1289864-2.0516052-4.2708664-.0119019-4.0843582 2.8244247-9.0605907 6.356205-11.2044544.0565453-.0347271.1140823-.0684547.1706314-.1011944.8531837-.4930553 1.6686668-.7758007 2.4176788-.86409.0109177-.0019855.0208359-.0029793.0307541-.003973.0456352-.0049591.0912743-.0099182.1359138-.0128975.0039711 0 .0079384 0 .0109138-.0009918.3224258-.0257893.6319504-.0148773.9265938.0317459.0198402.003973.0396843.0069466.0595284.0099258.1984138.0347195.3898811.0863094.5724182.1527767 1.2569619.6478254 2.0456544 2.1289865 2.0516053 4.2708665z" fill="#fff"/></g><g><path d="m45.1113243 31.743885c.0009918.2480164-.0089264.4990158-.0297623.7529831l-6.3234596 3.6528091-.0228157-7.8879604c.0565453-.0347271.1140823-.0684547.1706314-.1011944.8531837-.4930553 1.6686668-.7758007 2.4176788-.86409.0109177-.0019855.0208359-.0029793.0307541-.003973.0456352-.0049591.0912743-.0099182.1359138-.0128975.0039711 0 .0079384 0 .0109138-.0009918.3224258-.0228157.6319504-.0119057.9265938.0317459.0198402.003973.0396843.0069466.0595284.0099258.1984138.0347195.3898811.0863094.5724182.1527767 1.2569619.6478254 2.0456544 2.1289865 2.0516053 4.2708665z" fill="#ffd475"/></g><g><g enable-background="new"><g><path d="m38.5851364 36.620594-.366497-.2087326c-.1354256-.078701-.2193298-.2462273-.220005-.4843292-.0013542-.4774551.7040825-4.6391563.7412109-4.8581944l.3664932.2087364c-.0371284.2190361-.0806046 4.1511478-.0792503 4.628603.0006752.238102-.5773774.6352158-.4419518.7139168z" fill="#f45170"/></g><g><path d="m39.1063385 31.2780724c.0382462.1755199.7649384 3.5103836.7662926 3.9878387.001358.4789124-.3357811 1.0621262-.7512932 1.3020248-.4167824.2406273-.7548485.0472412-.7562065-.4316673-.0013542-.4774551.7040787-4.6391582.7412071-4.8581962z" fill="#df3260"/></g></g></g><g><g><path d="m38.7262268 28.7636871c.1165466-.0672874.2112312-.0126019.2116127.1213188l.0032043 1.1310463c.0003815.1339207-.093689.2968578-.2102356.3641453-.1165466.0672894-.2118645.0136948-.2122421-.1202259l-.0032082-1.1310463c-.0003776-.1339206.0943223-.2979488.2108689-.3652382z" fill="#111d33"/></g><g><path d="m38.7604332 40.8296432c.1165466-.0672913.2112312-.0133324.2116089.1205902l.0032082 1.1317749c.0003815.1339188-.093689.2968559-.2102356.3641434s-.2118607.0136948-.2122421-.1202278l-.0032082-1.1317711c-.0003815-.1339225.0943222-.2972221.2108688-.3645096z" fill="#111d33"/></g><g><path d="m33.9868011 38.1092987c.1165466-.0672874.211235-.0126038.2116127.121315.0003815.1339226-.093689.2968559-.2102356.3641472l-.9843063.5682869c-.1165466.0672913-.2118683.0136986-.2122498-.1202202-.0003777-.1339226.094326-.2979507.2108727-.3652382z" fill="#111d33"/></g><g><path d="m44.4873695 32.0467911c.1165466-.0672874.211235-.0126038.2116127.1213188.0003815.1339188-.093689.2968559-.2102356.3641434l-.9849434.5686569c-.1165466.0672874-.2112312.0133286-.2116127-.1205902-.0003777-.1339226.093689-.2975845.2102356-.364872z" fill="#111d33"/></g><g><g><path d="m34.6711922 33.0407791c.0540771-.0312233.108139-.0387421.1494446-.0152054l.6983795.3987122c.0826111.047081.083046.2006493.0009727.3428116-.0410347.0710754-.0949669.1259079-.1489677.1570816-.0539932.0311775-.1080589.0386963-.1493683.0151596l-.6990089-.3976212c-.0826073-.0470772-.0830421-.2006493-.0009727-.3435364.0413512-.0712585.0954436-.1261825.1495208-.157402z" fill="#111d33"/></g></g><g><path d="m42.1202126 37.2858429c.0540009-.0311775.1080666-.038517.1493721-.0146103l.6983757.3979836c.0826149.0470772.0830498.2006454.0009727.3428116-.0410347.0710716-.0949669.1259079-.1489677.1570854-.0539932.0311737-.1080589.0386925-.1493607.0151558l-.6983833-.3979874c-.0832405-.0467148-.0836754-.2002831-.0009727-.342804.0410384-.0714492.0949706-.126461.1489639-.1576347z" fill="#111d33"/></g><g><path d="m35.3915672 41.1706314c.053997-.0311775.1080666-.0385208.1493683-.0146103.0826111.0470734.083046.2006454.0009727.342804l-.6938438 1.201786c-.0410385.0710754-.0949669.1259079-.1490402.1571312-.0540771.0312195-.1083031.0388298-.1499252.0154762-.0826073-.047081-.0830421-.2006531-.0009689-.3428078l.6944733-1.2021484c.0410384-.0714454.0949668-.1264572.1489638-.1576309z" fill="#111d33"/></g><g><path d="m42.7921371 28.3521481c.053997-.0311775.1080627-.0386982.1493683-.0151577.0826149.0478039.0830498.2013741.0009727.3435364l-.6938438 1.2017822c-.0410347.0710773-.0949669.1259098-.1489639.1570854-.053997.0311737-.1080627.0386944-.1493683.0151577-.0832405-.0467148-.0836754-.200285-.0009727-.3428078l.6938438-1.2025146c.0410347-.0710755.0949669-.1259079.1489639-.1570816z" fill="#111d33"/></g></g></g><g><g enable-background="new"><g><path d="m44.370533 26.3205357c-1.4000244-.8099976-3.3300171-.7000122-5.4700317.5400391-3.039978 1.7599487-5.6699829 5.3099995-6.8999634 8.9799824-.4899921 1.4500122-.7600117 2.9099731-.7600117 4.2799683.0100098 2.4200439.869997 4.1300049 2.2500019 4.9300537l-2.9400043-1.710022c-4.8528233-2.813179-1.3184109-14.2945728 5.4099751-18.1900043 2.1400146-1.2299805 4.0700073-1.3499756 5.4700317-.5300293z" fill="#b28afd"/></g><g><path d="m38.710556 24.7351589-.0019798 1.2274361c-.0006485.2286587-.1509628.4570179-.4513016.6315556-.604435.3512592-1.5871925.351265-2.1950912.0002956-.3058357-.1765766-.4586143-.4084034-.4579582-.6399231l.0019798-1.2274342c-.0006561.2315197.1521225.4633465.457962.6399212.6078949.3509693 1.5906525.3509655 2.1950912-.0002956.3003388-.1745377.4506493-.4028969.4512978-.6315556z" fill="#fff"/></g><g><ellipse cx="37.158" cy="24.731" fill="#e9e8e6" rx=".899" ry="1.552" transform="matrix(.002 -1 1 .002 12.337 61.829)"/></g></g></g><g><g enable-background="new"><g><path d="m39.6646881 23.0220795-.0100098 1.3399658c0 .3699951-.2399902.7399902-.7199707 1.0200195-.9800415.5599976-2.5600586.5599976-3.5400391 0-.5-.289978-.7399902-.6599731-.7399902-1.0300293v-1.3399658z" fill="#1d2943"/></g><g><ellipse cx="37.159" cy="23.017" fill="#4c5c75" rx="1.45" ry="2.502" transform="matrix(.002 -1 1 .002 14.051 60.12)"/></g></g></g></g></g><path d="m32.8779907 35.1885719c-.2749786.0903397-.5224571.2435455-.7188683.4438629-.2003422.1964111-.353548.4438896-.4438877.7188683-.0275002.0903625-.1492748.0903625-.176775 0-.1806812-.5499344-.6127968-.9820518-1.1627312-1.1627312-.0903645-.0275002-.0903645-.1492767 0-.1767769.2749557-.0903625.5185261-.2435455.7188435-.4438858.2003422-.2003441.353548-.4438896.4438877-.7188683.0275002-.0903397.1492748-.0903397.176775 0 .0903397.2749786.2435455.5185242.4438877.7188683.1964111.2003403.4438896.3535233.7188683.4438858.0903397.0275002.0903397.1492768 0 .1767769z" fill="#fff"/></g></g><g fill="#c8cde0"><path d="m26.2159576 31.2226276-13.8400269 9.3900166c0 .0299683.0100098.0499878.0299683.0700073l-.3799438-.2300415c-.0200195-.0100098-.0300293-.0299683-.0300293-.0599976l-.0100098-1.2799683c0-.0599976.0499878-.1500244.1099854-.1799927l13.7400513-7.9300556c.0299683-.0099487.0599976-.0199585.0699463 0l.3600464.210022c-.0200196.0000001-.0300294.0000001-.0499879.0100098z"/><path d="m26.9505482 35.3405571.3800049.2299805c-.0200195-.0199585-.0400391-.0100098-.0700073 0l-14.1778584 8.9235153c.1187592.1901855.3686943 1.0026627-.5694618.222023l-.1326838.8644714c0 .0300293.0100098.0499878.0299683.0700073l-.3800049-.2299805c-.0199585-.0100098-.0299683-.0300293-.0299683-.0599976l-.0100098-1.2800293c0-.0599976.0499878-.1500244.1099854-.1799927l14.7800283-8.5499878c.0299683-.0200194.0499878-.0200194.0700074-.0100096z"/><path d="m27.6859283 25.4326496-15.3099975 10.2099629c0 .0300293.0100098.0499878.0299683.0700073l-.3799438-.2299805c-.0200195-.0100098-.0300293-.0300293-.0300293-.0599976l-.0100098-1.2800293c0-.0599976.0499878-.1499634.1099854-.1799927l15.210022-8.7500019c.0300293-.0200195.0499878-.0200195.0700073-.0100098l.3499756.210022c-.0099489.0000001-.0199586.0100098-.0399782.0200196z"/><path d="m29.0559235 19.6426105-16.6799927 11.0300293c0 .0299683.0100098.0499878.0299683.0700073l-.3799438-.2300415c-.0200195-.0100098-.0300293-.0299683-.0300293-.0599976l-.0100098-1.2799683c0-.0599976.0499878-.1500244.1099854-.1799927l16.5800171-9.5800171c.0300293-.0100098.0499878-.0100098.0700073 0l.3499756.2099609c-.0099488.0000002-.0199586.01001-.0399781.0200197z"/></g><g><path d="m39.1071091 35.2532654c-.2081299.120163-.379715.4127235-.3790359.6518974.0006752.2391853.1733589.3329849.3814888.2128181.2081566-.1201782.3757248-.4104195.3750458-.6496048-.0006791-.2391738-.1693421-.3352889-.3774987-.2151107z" fill="#fff"/></g></g><g enable-background="new"><g><path d="m27.2593384 35.5731087c.0585823-.0338211.1064072-.0065651.1065998.061409l.0036106 1.2730751c.0001907.0673141-.0473251.1496162-.1059074.1834373l-14.7791004 8.5473824c-.0585823.0338249-.1069841.0069008-.1071749-.0604172l-.0036087-1.2730713c-.0001926-.0679779.0478973-.1506119.1064806-.184433z" fill="#aeb6cd"/></g></g><g enable-background="new"><g><path d="m26.2204628 31.2240162c.0585842-.033823.1064091-.006567.1066017.061409l.0036087 1.2730732c.0001907.067318-.0473232.1496162-.1059074.1834412l-13.7402248 7.926693c-.0585823.0338211-.1069841.006897-.1071749-.0604172l-.0036087-1.2730751c-.0001926-.0679779.0478973-.1506081.1064806-.184433z" fill="#aeb6cd"/></g></g><g enable-background="new"><g><path d="m27.6873112 25.4289436c.0585842-.033823.1064091-.006567.1066017.061409l.0036106 1.2730732c.0001907.067318-.0473251.1496181-.1059074.1834412l-15.2070751 8.7519817c-.0585823.0338211-.1069841.0069008-.1071749-.0604172l-.0036087-1.2730751c-.0001926-.0679741.0478973-.1506081.1064806-.1844292z" fill="#aeb6cd"/></g></g><g><g enable-background="new"><g><path d="m29.0586472 19.6360245c.0585823-.033823.1064091-.006567.1066017.061409l.0036087 1.2730751c.0001907.0673161-.0473232.1496162-.1059074.1834393l-16.5784092 9.5751171c-.0585823.033823-.1069841.0069008-.1071749-.0604153l-.0036087-1.2730751c-.0001926-.067976.0478973-.1506081.1064806-.1844311z" fill="#aeb6cd"/></g></g></g></g></g><g><g><path d="m31.8344116 10.5116005c.4844818-.2797146.8782768-.0553026.8798561.5014057.0015755.5561972-.3896637 1.2343616-.8741436 1.5140762-.4840393.2794609-.87784.0545397-.8794174-.5016575-.0015774-.5567083.3896637-1.2343625.8737049-1.5138244z" fill="#d3daea"/></g></g><g><g><path d="m34.7910614 8.8045778c.4844856-.2797184.8782845-.0553064.8798637.5014009.0015755.5561972-.3896637 1.2343616-.8741493 1.51408-.4840355.279458-.8778343.0545359-.8794098-.5016613-.0015793-.5567073.3896599-1.2343625.8736954-1.5138196z" fill="#d3daea"/></g></g><g><path d="m37.7477188 7.0975509c.4844856-.2797184.8782806-.0553031.8798561.5014048.0015793.5561967-.3896561 1.2343583-.8741417 1.5140767-.4840355.2794571-.8778343.0545359-.8794098-.5016613-.0015792-.5567084.3896599-1.2343627.8736954-1.5138202z" fill="#d3daea"/></g></g></svg>