<svg id="Layer_1" enable-background="new 0 0 52 52" height="512" viewBox="0 0 52 52" width="512" xmlns="http://www.w3.org/2000/svg"><g id="_x31_40"><g><g><g><path d="m35.7661438 36.1075401c-.0517578 0-.1020508-.0268555-.1298828-.0751953-.0415039-.0717773-.0166016-.1635742.0551758-.2045898l14.0307617-8.0727539c.2016602-.1166992.3134766-.2626953.3134766-.4111328 0-.1474609-.1098633-.2929688-.3095703-.4086914l-16.2631836-9.4638672c-.4628906-.2695312-1.2485352-.2695312-1.7133789-.0009766l-14.03125 8.0727539c-.0712891.0400391-.1630859.0170898-.2045898-.0551758-.0415039-.0717773-.0166016-.1635742.0551758-.2045898l14.0307617-8.0727539c.5664062-.3271484 1.4506836-.3261719 2.0141602.0009766l16.2631836 9.4638672c.2958984.1723633.4589844.409668.4584961.6689453 0 .2597656-.1650391.4980469-.4633789.6704102l-14.03125 8.0727539c-.0234377.0136718-.0493166.0200194-.0747072.0200194z" fill="#4c5c75"/></g></g></g><g><g><path d="m29.3764954 33.7325401c-.0258789 0-.0517578-.0063477-.0751953-.0200195l-7.9599609-4.6254883c-.0717773-.0419922-.0961914-.1337891-.0546875-.2050781.0419922-.0717773.1342773-.0966797.2050781-.0546875l7.9599609 4.6254883c.0717773.0419922.0961914.1337891.0546875.2050781-.0278321.0478516-.078125.074707-.1298828.074707z" fill="#4c5c75"/></g></g><g><g><g><path d="m7.949738 36.6749229c-.1875 0-.3754883-.0424805-.5209961-.1269531l-5.8369138-3.3920898c-.1640625-.0952148-.2583008-.2363281-.2583008-.387207.0004883-.1518555.0957031-.2939453.2612305-.3896484l5.8740234-3.3911133c.2944336-.1689453.7519536-.1674805 1.0424809.0004883l5.8369141 3.3920898c.1645508.0957031.2587891.2373047.2583008.3876953 0 .1513672-.0952148.2929688-.2607422.3886719l-5.8740234 3.3911133c-.1464846.0844726-.3344729.126953-.5219734.126953zm-6.2045896-4.0361328c-.0698242.0400391-.1113281.0888672-.1113281.1298828 0 .0405273.0405273.0883789.1083984.1274414l5.8369141 3.3920898c.2011719.1171875.5400395.1171875.742188 0l5.8740234-3.3911133c.0698242-.0400391.1113281-.0883789.1113281-.1293945 0-.0400391-.0405273-.0878906-.1088867-.1274414l-5.8369141-3.3920898c-.2006836-.1162109-.5400395-.1166992-.7416997-.0004883z" fill="#4c5c75"/></g></g></g><g><g><g><path d="m18.4443665 30.6260948c-.1875 0-.3754883-.0424805-.5209961-.1269531l-5.8369131-3.3916016c-.1645508-.0957031-.2583008-.2368164-.2583008-.3876953.0004883-.1513672.0957031-.293457.2612305-.3891602l5.8740225-3.3916016c.2944336-.1689453.7519531-.1674805 1.0424805.0004883l5.8364258 3.3920898c.1645508.0957031.2592773.2368164.2587891.3876953 0 .1513672-.0952148.2929688-.2607422.3886719l-5.8740234 3.3911133c-.1464846.0844727-.3344728.1269532-.5219728.1269532zm-6.2045889-4.0356445c-.0698242.0400391-.1113281.0888672-.1113281.1298828 0 .0400391.0405273.0878906.1083984.1274414l5.8369131 3.3916016c.2001953.1171875.5400391.1171875.7421875 0l5.8740234-3.3911133c.0698242-.0400391.1113281-.0883789.1113281-.1289062s-.0410156-.0883789-.109375-.1279297l-5.8364258-3.3920898c-.2006836-.1166992-.5400391-.1162109-.7416992-.0004883z" fill="#4c5c75"/></g></g></g><g><g><g><path d="m28.9394836 24.577755c-.1879883 0-.3759766-.0424805-.5219727-.1279297l-5.8364258-3.3911133c-.1645508-.0957031-.2587891-.2373047-.2583008-.3881836.0004883-.1513672.0957031-.2929688.2612305-.3886719l5.8740234-3.3916016c.2944336-.1689453.7519531-.1679688 1.0424805.0004883l5.8364258 3.3920898c.1645508.0957031.2592773.2368164.2587891.3876953 0 .1513672-.0952148.2929688-.2607422.3886719l-5.8740234 3.3916016c-.1464844.0844727-.3339844.1269532-.5214844.1269532zm.0395508-7.5146485c-.1347656 0-.2700195.0288086-.3706055.0869141l-5.8740234 3.3916016s0 0-.0004883 0c-.0693359.0400391-.1108398.0888672-.1113281.1293945 0 .0405273.0410156.0883789.1088867.1279297l5.8369141 3.3916016c.2011719.1171875.5410156.1166992.7421875.0004883l5.8740234-3.3916016c.0698242-.0400391.1113281-.0883789.1113281-.1289062s-.0410156-.0883789-.109375-.1279297l-5.8364258-3.3920898c-.1005859-.0585939-.2358398-.0874025-.3710937-.0874025zm-6.3198242 3.3486328h.0039062z" fill="#4c5c75"/></g></g></g><g><g><g><path d="m34.9844055 50.0738487c-.7827148 0-1.5664062-.1723633-2.1645508-.5175781l-12.2456055-7.0703125c-.6083984-.3515625-.9438477-.828125-.9443359-1.3422852-.0009766-.5112305.3295898-.9848633.9311523-1.3344727l12.1616211-7.0678711c1.1860352-.6889648 3.1240234-.6884766 4.3198242.0024414l12.2456055 7.0698242c.6098633.3520508.9458008.8291016.9467773 1.3432617.0009766.5102539-.3291016.9829102-.9291992 1.331543l-12.1621094 7.0678711c-.5937499.3452149-1.3759765.5175782-2.1591796.5175782zm-.1083984-17.5532226c-.7265625 0-1.4516602.1601562-2.0029297.4804688l-12.1616211 7.0678711c-.5043945.2929688-.7822266.6743164-.7817383 1.0742188.0004883.402832.2827148.7875977.7949219 1.0830078l12.2456055 7.0703125c1.1118164.6420898 2.9169922.6430664 4.0229492 0l12.1621094-7.0678711c.503418-.2924805.7802734-.6728516.7797852-1.0712891-.0009766-.402832-.2836914-.7875977-.7973633-1.0839844l-12.2456055-7.0698242c-.5571289-.3217774-1.2871094-.4829102-2.0161133-.4829102z" fill="#4c5c75"/></g></g></g><g><g><g><g><g><g><g><g><g><path d="m35.524498 19.4923401c0 .0915127-.0629158.1830254-.1830597.2573948l-5.8749142 3.3922424c-.1945114.1086922-.4690838.1373215-.6979179.0743694-.0743694-.0171432-.1372852-.0400124-.1944771-.0743694l-5.8406277-3.3922424c-.120142-.0743694-.1830597-.1658821-.1830597-.2573948l-.0057259-1.2585125-.0228691-.0171795v-.6464176l.0228691.0114536v-.7379303l-.0228691-8.077322v-.9667635l-.0057258-2.1108603c0-.0972733.0571899-.1945119.1830597-.263155l5.8749485-3.3922431c.2459774-.143012.6464176-.143012.892395 0l5.8348675 3.3922431c.1201401.0686431.1830597.1658816.1830597.263155l.0114517 2.1451821v.9667635l.0228691 8.0486917v.3260708z" fill="#b0b8cf"/></g></g></g></g><g><g><g><g><g><g><g><g><g><path d="m22.5136776 5.6872315.0070648 2.7548842.0014114.3260212.0225697 8.0769386v.3260212l.0070629 2.3215675c.0014133.0917912.0620899.1848907.1834774.255455l5.8371773 3.3928013c.2455673.1425781.6449699.1425781.893364 0l5.8738823-3.3913536c.1241951-.0720119.1862907-.1665592.1862907-.2597275l-.0070534-2.3117142v-.3260212l-.0239983-8.0501308v-.3245743l-.0084686-2.7929926c0 .0945468-.0620956.1877155-.1862831.2596593l-5.8738918 3.3914218c-.2483826.1425095-.6463737.1425095-.8933544 0l-5.8357735-3.3914218c-.1228008-.0719438-.1834774-.1636653-.1834774-.2568341z" fill="#c9cee2"/></g></g></g><g><g><g><path d="m28.991375 9.4409866c-.165556.0018978-.3317623-.032423-.4584446-.1055098l-5.8357601-3.3914242c-.1228046-.0719209-.1834755-.1636586-.1834755-.2568336l.0070477 2.7548995.0014114.3260155.0225811 8.0769377v.3260174l.0070477 2.3215828c.0014095.0917931.062109.184885.1834755.2554512l5.8371983 3.392807c.1158638.0672855.2665653.1001148.4189186.1039104v-13.8038539z" fill="#b0b8cf"/></g></g></g><g><g><g><g><g><g><path d="m22.5207424 7.7982049.0014114.6453586 5.9444389 3.4548893c.1538372.0903435.3514156.1341028.550415.1341028.1975784 0 .3965778-.0437593.5504074-.1327248l5.9275112-3.4224319v-.6439114l-6.0672302 3.5014744c-.2229805.1283827-.5983944.1283827-.8185596 0z" fill="#4c5c75"/></g></g></g></g></g><g><g><g><g><g><path d="m29.4276981 11.3349495c-.121151.0697517-.2864361.0981627-.4482231.0921173v.6012287c.0127678.0003529.0247498.0042562.0375462.0042562.1975708 0 .3965816-.0437536.5503998-.1327267l5.9274979-3.4224377v-.6438993z" fill="#9ea9c9"/></g></g></g></g></g></g><g><g><g><path d="m22.699482 5.4263196c-.2477913.1430635-.2482185.3745632-.0029469.5170999l5.8368416 3.3920012c.2461948.1430731.6449814.143075.8927746.0000114l5.8741035-3.3914146c.2468948-.1425447.248188-.3735332.0019913-.5166059l-5.8368397-3.3920014c-.2452717-.1425365-.6449261-.14305-.8918209-.0005052z" fill="#e3e7f0"/></g></g></g><g><g><g><g><g><g><path d="m30.3316631 12.6666508c-.138998.0802507-.2518177.2745237-.2513599.4353886.000452.159688.1140003.2232685.2529984.1430178l4.2900429-2.4768572c.1389999-.0802507.2518158-.2745247.2513657-.4342127-.0002289-.0799065-.0282364-.1368294-.0740547-.1629486-.0458183-.0249424-.1094513-.0213709-.1789513.018754z" fill="#fff"/></g></g></g></g><g><g><g><g><path d="m30.3384972 14.0602541c-.138998.0802507-.2518158.2745237-.2513638.4342127.0004559.1608639.1140041.2244444.2530022.1441936l4.2900448-2.4768572c.1389961-.0802507.2518158-.2745237.251358-.4353886-.0002213-.0787306-.0282288-.1356535-.0740509-.1617718-.0458183-.0261192-.1094475-.0213718-.1789474.0187531z" fill="#fff"/></g></g></g></g><g><g><g><g><path d="m30.3453274 15.4526815c-.138998.0802507-.2518139.2756376-.2513599.4353886.000452.159688.1140041.2244444.2530022.1441946l4.2900429-2.4768581c.1389999-.0802507.251812-.2756996.2513618-.4353886-.0002251-.0787306-.0282364-.1368294-.0740547-.1629477-.0458145-.0249434-.1094513-.0213718-.1789474.0187531z" fill="#fff"/></g></g></g></g></g><g><g><g><g><g><path d="m30.3316612 12.6666327 1.9741554-1.1397762v.5793419l-1.9725132 1.1388645c-.138998.0802574-.2525501.0167046-.2529964-.1430502-.0004654-.1608191.1123562-.3551226.2513542-.43538z" fill="#4c5c75"/></g></g></g></g><g><g><g><g><path d="m30.3384953 14.0602264 1.9673214-1.135828v.5793419l-1.9656792 1.1349163c-.138998.0802574-.2525501.0167046-.253006-.1441898-.0004463-.1596794.1123657-.3539829.2513638-.4342404z" fill="#f45170"/></g></g></g></g><g><g><g><g><path d="m30.3453293 15.4526815 1.9604874-1.1318798v.5805569l-1.9588451 1.1308928c-.138998.0802574-.252552.0154896-.253006-.1441908-.0004464-.1597548.1123657-.3551216.2513637-.4353791z" fill="#656fea"/></g></g></g></g></g></g></g></g></g></g></g><g><g><g><g><g><path d="m22.5207424 17.5714664.0014114.645359 5.9444389 3.4548893c.1538372.0903435.3514156.1341038.550415.1341038.1975784 0 .3965778-.0437603.5504074-.1327248l5.9275112-3.4224319v-.6439114l-6.0672302 3.5014744c-.2229805.1283817-.5983944.1283817-.8185596 0z" fill="#4c5c75"/></g></g></g></g></g><g><g><g><g><g><path d="m29.4276981 21.108223c-.1188736.0684509-.2803898.09762-.4393044.0930939v.6012554c.0097313.0002174.0188675.0032539.0286274.0032539.1975708 0 .3965816-.0437546.5503998-.1327267l5.9274979-3.4224377v-.6438999z" fill="#9ea9c9"/></g></g></g></g></g><g><g><g><path d="m33.4069023 16.7664051c.0068436.5812588-.4034729 1.2924728-.912941 1.5831223-.5128899.2974739-.9197845.0581226-.9197845-.523159-.0068455-.5812798.403471-1.2924728.912941-1.5899677.5094871-.2906295.9197845-.0512773.9197845.5300044z" fill="#1d2943"/></g></g><g><g><path d="m32.4887352 16.6313992c.0356369-.0205746.0654297-.004961.0655518.0373554l.0021095.7453041c.0001221.0423164-.0294838.0922222-.0651207.1127968-.0368233.0212612-.0666161.0056477-.0667381-.0366669l-.0021133-.745306c-.0001183-.0423145.0294875-.0922222.0663108-.1134834z" fill="#f45170"/></g></g><g><g><path d="m32.1701889 17.1282177c.016201-.0093536.0324287-.0118713.0450783-.0053196.0262222.0149403.0275421.0620327.0026817.1064663-.1018143.1804695-.1310196.3723392-.0747261.5025425.0551033.1295242.1813278.1632938.3274651.0871239.0062256-.0032482.0124321-.0066643.0186043-.0102272.1410332-.0814266.2668076-.243185.3335342-.4323502.0696449-.1960773.054882-.3666649-.038147-.444212-.0238495-.0190449-.0192337-.0695629.009201-.1133251.0120773-.0180092.0265312-.0317078.0408974-.0400047.019455-.0112324.0387573-.0125542.051796-.0012054.1264229.1061172.1473083.3374329.0540543.6004639-.0885277.2521-.259243.4723492-.4481239.5813999l-.0285149.0150967c-.1984215.1022511-.3686943.0583649-.4441566-.1168308-.0742645-.1745167-.035738-.4346657.1027832-.6787109.0128669-.0229913.0302047-.0408804.047573-.0509073z" fill="#f45170"/></g></g></g></g></g></g><g><g><g><g><path d="m23.7566643 10.598156c.2213211.127779.4018002.4450302.4010925.6947193l-.0259819 6.2168388c-.0007076.2496891-.182394.3578434-.4037151.2300644-.2213345-.1277885-.4018135-.4450378-.4011059-.6947289l.0259819-6.2168369c.0007076-.24969.1823921-.3578453.4037285-.2300567z" fill="#fff"/></g></g></g><g><g><g><path d="m25.4091949 11.5544701c.2253456.1301041.4018002.4450302.4010925.6947203l-.0259819 6.2168379c-.0007076.2496891-.1783676.3601685-.4037151.2300644-.2172966-.1254559-.4018002-.4450302-.4010925-.6947193l.0259819-6.2168388c.0007076-.2496892.1864185-.3555204.4037151-.2300645z" fill="#fff"/></g></g></g><g><g><g><path d="m27.1341534 12.5526009c.2253456.1301041.4018135.4450378.4011059.6947279l-.0259819 6.2168379c-.0007076.249691-.1783829.3601608-.4037285.2300568-.2172966-.1254559-.4018002-.4450302-.4010925-.6947193l.0259819-6.2168388c.0007076-.2496892.1864185-.3555204.4037151-.2300645z" fill="#fff"/></g></g></g></g></g><g><g><g><g><g><g><path d="m25.0097542 25.5630302c0 .0915127-.0629158.1830254-.1830597.2573948l-5.8749142 3.3922424c-.1945114.1086903-.4690838.1373215-.697916.0743694-.0743694-.0171432-.1372871-.0400124-.1944771-.0743694l-5.8406277-3.3922424c-.1201429-.0743694-.1830606-.1658821-.1830606-.2573948l-.0057259-1.2585125-.0228691-.0171795v-.6464176l.0228691.0114517v-.7379283l-.0228691-8.077322v-.9667635l-.0057259-2.1108608c0-.0972729.0571909-.1945114.1830597-.263155l5.8749495-3.3922424c.2459755-.1430125.6464176-.1430125.8923931 0l5.8348675 3.3922424c.120142.0686436.1830597.1658821.1830597.263155l.0114517 2.1451817v.9667635l.0228691 8.0486908v.3260727z" fill="#b0b8cf"/></g></g></g></g><g><g><g><g><g><g><g><g><g><path d="m11.9989357 11.7579212.0070629 2.7548847.0014133.3260212.0225677 8.0769386v.3260212l.0070639 2.3215675c.0014124.0917892.0620899.1848888.1834774.255455l5.8371782 3.3928013c.2455654.1425781.6449699.1425781.893362 0l5.8738823-3.3913536c.1241951-.0720139.1862926-.1665592.1862926-.2597294l-.0070534-2.3117123v-.3260212l-.0239983-8.0501318v-.3245734l-.0084686-2.7929935c0 .0945473-.0620975.1877165-.186285.2596598l-5.8738899 3.3914223c-.2483845.1425095-.6463757.1425095-.8933544 0l-5.8357735-3.3914223c-.1228006-.0719433-.1834772-.1636649-.1834772-.2568341z" fill="#c9cee2"/></g></g></g><g><g><g><path d="m18.4766331 15.5116768c-.1655579.0018969-.3317642-.032423-.4584465-.1055098l-5.8357592-3.3914242c-.1228046-.0719213-.1834755-.1636591-.1834755-.256834l.0070486 2.754899.0014095.3260164.0225821 8.0769377v.3260155l.0070486 2.3215847c.0014095.0917931.0621071.184885.1834755.2554512l5.8371964 3.392807c.1158657.0672855.2665653.1001148.4189205.1039104z" fill="#b0b8cf"/></g></g></g><g><g><g><g><g><g><path d="m12.0059986 13.8688946.0014133.6453581 5.944437 3.4548903c.1538372.0903435.3514156.1341019.5504169.1341019.1975784 0 .3965778-.0437584.5504055-.1327229l5.9275131-3.4224329v-.6439114l-6.0672321 3.5014734c-.2229805.1283836-.5983944.1283836-.8185577 0z" fill="#4c5c75"/></g></g></g></g></g><g><g><g><g><g><path d="m18.9129562 17.4056396c-.121151.0697517-.2864361.0981617-.448225.0921173v.6012287c.0127678.0003529.0247517.0042572.0375462.0042572.1975727 0 .3965816-.0437546.5503998-.1327286l5.9274979-3.4224367v-.6438999z" fill="#9ea9c9"/></g></g></g></g></g></g><g><g><g><path d="m12.1847401 11.4970093c-.2477932.1430635-.2482195.3745632-.0029469.5171003l5.8368397 3.3920012c.2461948.1430721.6449814.143074.8927746.0000105l5.8741035-3.3914137c.2468948-.1425447.248188-.3735332.0019932-.5166063l-5.8368416-3.3920012c-.2452717-.1425366-.6449261-.1430502-.8918209-.0005054z" fill="#e3e7f0"/></g></g></g><g><g><g><g><g><g><path d="m19.8169193 18.7373409c-.138998.0802498-.2518158.2745228-.2513599.4353886.000452.159687.1140022.2232685.2530003.1430168l4.2900429-2.4768562c.138998-.0802517.2518158-.2745247.2513638-.4342136-.000227-.0799065-.0282345-.1368294-.0740547-.1629467-.0458164-.0249443-.1094494-.0213718-.1789494.0187531z" fill="#fff"/></g></g></g></g><g><g><g><g><path d="m19.8237534 20.1309433c-.138998.0802517-.2518158.2745247-.2513638.4342136.0004559.1608639.114006.2244434.2530041.1441936l4.2900429-2.4768581c.138998-.0802498.2518158-.2745228.2513599-.4353886-.0002232-.0787296-.0282307-.1356525-.0740509-.1617718-.0458183-.0261192-.1094494-.0213718-.1789494.0187531z" fill="#fff"/></g></g></g></g><g><g><g><g><path d="m19.8305836 21.5233707c-.138998.0802517-.251812.2756386-.2513599.4353886.0004539.1596889.114006.2244453.2530041.1441956l4.2900429-2.4768581c.138998-.0802517.251812-.2756996.2513599-.4353886-.0002232-.0787296-.0282345-.1368294-.0740528-.1629486-.0458164-.0249424-.1094513-.0213718-.1789494.0187531z" fill="#fff"/></g></g></g></g></g><g><g><g><g><g><path d="m19.8169193 18.7373219 1.9741554-1.1397762v.5793419l-1.9725132 1.1388664c-.1389999.0802574-.252552.0167027-.2529984-.1430511-.0004634-.1608201.1123582-.3551236.2513562-.435381z" fill="#4c5c75"/></g></g></g></g><g><g><g><g><path d="m19.8237534 20.1309166 1.9673214-1.135828v.5793419l-1.9656811 1.1349163c-.138998.0802574-.2525501.0167046-.253006-.1441898-.0004463-.1596795.1123657-.353983.2513657-.4342404z" fill="#f45170"/></g></g></g></g><g><g><g><g><path d="m19.8305855 21.5233707 1.9604893-1.1318798v.5805569l-1.958847 1.1308937c-.138998.0802574-.2525501.0154896-.253006-.1441898-.0004464-.1597557.1123656-.3551235.2513637-.435381z" fill="#656fea"/></g></g></g></g></g></g></g></g></g></g></g><g><g><g><g><g><path d="m12.0059986 23.6421566.0014133.645359 5.944437 3.4548893c.1538372.0903435.3514156.1341019.5504169.1341019.1975784 0 .3965778-.0437584.5504055-.1327229l5.9275131-3.4224339v-.6439095l-6.0672321 3.5014725c-.2229805.1283836-.5983944.1283836-.8185577 0z" fill="#4c5c75"/></g></g></g></g></g><g><g><g><g><g><path d="m18.9129562 27.1789131c-.1188736.0684509-.2803917.09762-.4393063.093092v.6012573c.0097332.0002174.0188675.0032539.0286274.0032539.1975727 0 .3965816-.0437546.5503998-.1327286l5.9274979-3.4224377v-.643898z" fill="#9ea9c9"/></g></g></g></g></g><g><g><g><path d="m22.8921585 22.8370934c.0068436.5812588-.4034729 1.2924728-.9129391 1.5831242-.5128918.2974739-.9197845.0581207-.9197845-.523159-.0068455-.5812798.403471-1.2924728.9129391-1.5899677.5094871-.2906305.9197845-.0512773.9197845.5300025z" fill="#1d2943"/></g></g><g><g><path d="m21.9739933 22.7020893c.0356369-.0205765.0654297-.004961.0655499.0373535l.0021114.745306c.0001202.0423164-.0294857.0922222-.0651226.1127968-.0368233.0212612-.0666161.0056477-.0667362-.0366669l-.0021133-.745306c-.0001202-.0423145.0294875-.0922241.0663108-.1134834z" fill="#f45170"/></g></g><g><g><path d="m21.655447 23.1989059c.016201-.0093536.0324268-.0118694.0450764-.0053177.0262241.0149403.027544.0620308.0026836.1064663-.1018162.1804676-.1310196.3723392-.0747261.5025406.0551014.1295261.1813259.1632957.3274632.0871258.0062256-.0032482.0124321-.0066643.0186043-.0102272.1410351-.0814266.2668095-.243185.3335361-.4323502.069643-.1960773.054882-.3666649-.0381489-.444212-.0238495-.0190449-.0192318-.0695629.009201-.1133251.0120773-.0180092.0265312-.0317097.0408993-.0400047.019455-.0112343.0387573-.0125542.0517941-.0012054.1264248.1061172.1473103.3374329.0540562.6004639-.0885277.2521-.2592449.4723492-.4481258.5813999l-.0285149.0150948c-.1984196.102253-.3686943.0583668-.4441566-.1168289-.0742645-.1745167-.0357361-.4346657.1027851-.6787109.012865-.0229913.0302047-.0408803.047573-.0509092z" fill="#f45170"/></g></g></g></g></g></g><g><g><g><g><g><g><g><path d="m14.4950123 31.6337204c0 .0915127-.0629177.1830254-.1830597.2573948l-5.8749142 3.3922443c-.1945124.1086884-.4690843.1373177-.6979179.0743675-.074369-.0171432-.1372857-.0400124-.1944766-.0743675l-5.8406277-3.3922443c-.1201427-.0743694-.1830597-.1658821-.1830597-.2573948l-.0057261-1.2585144-.0228693-.0171776v-.6464176l.0228693.0114517v-.7379284l-.0228693-8.077322v-.9667645l-.0057261-2.1108608c0-.0972729.0571909-.1945114.1830597-.2631531l5.8749495-3.3922443c.2459764-.143012.6464171-.143012.8923945 0l5.8348665 3.3922443c.120142.0686417.1830597.1658802.1830597.2631531l.0114517 2.1451836v.9667625l.0228691 8.0486908v.3260727z" fill="#b0b8cf"/></g></g></g></g><g><g><g><g><g><g><g><g><g><path d="m1.4841925 17.8286114.0070635 2.7548847.0014126.3260212.0225686 8.0769386v.3260212l.0070635 2.3215675c.0014126.0917892.0620894.1848888.1834775.255455l5.8371773 3.3927994c.2455668.1425781.6449709.1425781.893363 0l5.8738813-3.3913517c.1241961-.0720139.1862946-.1665592.1862946-.2597294l-.0070553-2.3117123v-.3260212l-.0239983-8.0501308v-.3245754l-.0084677-2.7929916c0 .0945454-.0620975.1877155-.186285.2596588l-5.8738899 3.3914223c-.2483845.1425095-.6463752.1425095-.8933549 0l-5.8357733-3.3914223c-.1228007-.0719433-.1834775-.1636658-.1834775-.256834z" fill="#c9cee2"/></g></g></g><g><g><g><path d="m7.9618893 21.5823669c-.1655564.0018978-.3317633-.032423-.4584446-.1055107l-5.8357601-3.3914242c-.122805-.0719204-.1834755-.1636581-.1834755-.2568321l.0070484 2.7548981.0014096.3260155.0225821 8.0769386v.3260155l.0070484 2.3215847c.0014098.0917912.0621074.184885.1834756.2554512l5.8371964 3.392807c.1158652.0672836.2665658.1001129.4189196.1039085v-13.8038521z" fill="#b0b8cf"/></g></g></g><g><g><g><g><g><g><path d="m1.491256 19.9395847.0014126.6453571 5.9444385 3.4548912c.1538367.0903435.3514152.1341019.550415.1341019.1975784 0 .3965788-.0437584.5504065-.1327248l5.9275122-3.4224319v-.6439114l-6.0672302 3.5014744c-.2229815.1283836-.5983953.1283836-.8185596 0z" fill="#4c5c75"/></g></g></g></g></g><g><g><g><g><g><path d="m8.3982134 23.4763279c-.1211519.0697536-.286437.0981636-.448225.0921173v.6012306c.0127687.0003529.0247507.0042553.0375466.0042553.1975722 0 .3965812-.0437546.5503993-.1327267l5.9274979-3.4224377v-.6438999z" fill="#9ea9c9"/></g></g></g></g></g></g><g><g><g><path d="m1.6699972 17.5676994c-.2477932.1430626-.248219.3745632-.0029471.5170994l5.8368406 3.3920021c.2461948.1430721.6449814.143074.8927746.0000114l5.8741016-3.3914146c.2468948-.1425457.248189-.3735332.0019941-.5166073l-5.8368406-3.3920002c-.2452714-.1425371-.6449262-.1430502-.8918211-.0005054z" fill="#e3e7f0"/></g></g></g><g><g><g><g><g><g><path d="m9.3021765 24.8080292c-.138998.0802517-.2518158.2745247-.2513599.4353886.000453.1596889.1140022.2232704.2530003.1430187l4.2900429-2.4768562c.138998-.0802517.2518158-.2745247.2513638-.4342136-.000227-.0799065-.0282345-.1368294-.0740547-.1629486-.0458155-.0249424-.1094494-.0213699-.1789494.018755z" fill="#fff"/></g></g></g></g><g><g><g><g><path d="m9.3090105 26.2016335c-.138998.0802498-.2518158.2745247-.2513628.4342117.0004559.1608658.1140051.2244453.2530031.1441956l4.2900429-2.4768581c.138998-.0802498.2518158-.2745247.2513599-.4353886-.0002232-.0787296-.0282307-.1356525-.0740499-.1617718-.0458202-.0261192-.1094503-.0213718-.1789494.0187531z" fill="#fff"/></g></g></g></g><g><g><g><g><path d="m9.3158417 27.5940609c-.138998.0802517-.2518129.2756386-.2513599.4353886.000453.1596889.1140051.2244453.2530031.1441936l4.2900429-2.4768562c.138998-.0802517.2518129-.2757015.2513599-.4353886-.0002232-.0787315-.0282345-.1368294-.0740538-.1629486-.0458164-.0249424-.1094503-.0213718-.1789494.0187531z" fill="#fff"/></g></g></g></g></g><g><g><g><g><g><path d="m9.3021755 24.808012 1.9741554-1.1397762v.5793419l-1.9725132 1.1388645c-.138998.0802574-.2525501.0167046-.2529964-.1430511-.0004654-.1608182.1123562-.3551217.2513542-.4353791z" fill="#4c5c75"/></g></g></g></g><g><g><g><g><path d="m9.3090096 26.2016068 1.9673214-1.135828v.5793419l-1.9656792 1.1349163c-.138998.0802574-.2525511.0167046-.253006-.1441898-.0004463-.1596795.1123657-.353983.2513638-.4342404z" fill="#f45170"/></g></g></g></g><g><g><g><g><path d="m9.3158436 27.5940609 1.9604874-1.1318798v.5805569l-1.9588461 1.1308918c-.138998.0802574-.2525501.0154896-.253006-.1441898-.0004463-.1597558.1123657-.3551217.2513647-.4353791z" fill="#656fea"/></g></g></g></g></g></g></g></g></g></g></g><g><g><g><g><g><path d="m1.491256 29.7128468.0014126.645359 5.9444385 3.4548893c.1538367.0903435.3514152.1341019.550415.1341019.1975784 0 .3965788-.0437584.5504065-.1327248l5.9275122-3.4224319v-.6439114l-6.0672302 3.5014744c-.2229815.1283836-.5983953.1283836-.8185596 0z" fill="#4c5c75"/></g></g></g></g></g><g><g><g><g><g><path d="m8.3982134 33.2496033c-.1188745.0684509-.2803917.0976181-.4393058.0930939v.6012535c.0097322.0002174.018868.0032539.0286274.0032539.1975722 0 .3965812-.0437546.5503993-.1327248l5.9274979-3.4224396v-.6438999z" fill="#9ea9c9"/></g></g></g></g></g><g><g><g><path d="m12.3774147 28.9077835c.0068455.5812588-.403471 1.2924728-.9129391 1.5831242-.5128899.2974739-.9197845.0581207-.9197845-.523159-.0068445-.5812798.4034719-1.2924728.9129391-1.5899677.509489-.2906304.9197845-.0512772.9197845.5300025z" fill="#1d2943"/></g></g><g><g><path d="m11.4592514 28.7727776c.0356359-.0205746.0654287-.0049591.0655479.0373554l.0021133.745306c.0001202.0423145-.0294867.0922222-.0651226.1127968-.0368252.0212612-.066617.0056477-.0667372-.0366688l-.0021133-.7453041c-.0001191-.0423164.0294867-.0922241.0663119-.1134853z" fill="#f45170"/></g></g><g><g><path d="m11.1407051 29.2695961c.016201-.0093536.0324249-.0118713.0450764-.0053177.0262232.0149403.0275431.0620308.0026817.1064663-.1018162.1804676-.1310196.3723392-.0747252.5025406.0551014.1295242.1813259.1632957.3274641.0871258.0062246-.0032501.0124321-.0066643.0186033-.0102272.1410351-.0814266.2668104-.243185.3335361-.4323502.069644-.1960773.0548811-.3666668-.0381489-.444212-.0238504-.0190449-.0192327-.0695648.009201-.1133251.0120773-.0180092.0265312-.0317097.0408993-.0400047.0194559-.0112343.0387583-.0125542.0517941-.0012074.1264248.1061192.1473112.3374348.0540562.6004658-.0885286.2521-.2592449.4723492-.4481268.5813999l-.0285149.0150948c-.1984186.1022511-.3686934.0583649-.4441547-.1168289-.0742655-.1745167-.035737-.4346657.1027842-.6787109.0128661-.0229912.0302048-.0408803.0475741-.0509091z" fill="#f45170"/></g></g></g></g></g></g><g><g><path d="m32.3475761 4.842032-3.0530376-1.7626953c-.1694946-.0978394-.4439087-.0996094-.6152954 0l-3.0301514 1.7609253c-.0839233.0487671-.1256104.1130981-.1255493.1775513 0-.0001831-.0001831-.0004272-.0001831-.0006104l-.0015869.9594116c-.0001831.0650635.0424194.130188.1276855.1794434l3.0530396 1.7626343c.1724243.0996089.4468994.0978389.6152344 0l3.0302105-1.7609253c.085144-.0494995.1277466-.1131592.1279297-.1769409l.0016479-.9594117c-.000061.0220947-.0119629.0435181-.0222168.0650024.0401611-.0842895.008667-.177185-.1077271-.2443847zm-6.8012065.2442627c.0043335.0088501.0031128.0181885.0090942.0267334-.0059815-.008545-.0048218-.0178834-.0090942-.0267334zm6.8232402.0946655c.0302734-.020752.059082-.0420532.0759277-.065979-.0169067.0239258-.0457153.0452881-.0759277.065979z" fill="#9ea9c9"/></g><g><path d="m21.8328075 10.9127102-3.0530395-1.7626953c-.1694336-.0978394-.4439087-.0995483-.6152344 0l-3.0302134 1.7609863c-.0838623.0487671-.1255493.1130981-.1254883.1774902 0-.0002441-.0001831-.0003662-.0001831-.0006104l-.0016479.9594116c-.0001831.0650635.0424194.130188.1276855.1794434l3.0530405 1.7626953c.1724854.0995483.4468994.0977783.6152954 0l3.0301514-1.7609863c.085144-.0494385.1277466-.1131592.1279297-.1769409l.0016479-.9594116c-.000061.0220947-.0119629.0435181-.0222168.0650024.0401612-.0842895.0087281-.177185-.107727-.2443847zm-6.8030405.2387085c.0048218.0107422.0037842.0220337.0109863.0324097-.0072631-.010376-.0062255-.0216065-.0109863-.0324097zm6.8250742.1002197c.0302734-.020752.059082-.0420532.0759277-.065979-.0169067.0239258-.0456542.0452881-.0759277.065979z" fill="#9ea9c9"/></g><g><path d="m11.3180971 16.9833889-3.0530396-1.7626953c-.1694946-.0978394-.4439087-.0995483-.6152954 0l-3.0302124 1.7609863c-.0839233.0487671-.1256104.1130981-.1254883.1775513 0-.0001831-.0001831-.0004272-.0001831-.0006104l-.0015869.9593506c-.0002441.0650635.0424194.130249.1276855.1794434l3.0529785 1.7626953c.1724854.0996094.4469604.0978394.6152954 0l3.0301514-1.7609253c.0852051-.0494995.1278076-.1132202.1279907-.177002l.0016479-.9594116c-.000061.0230103-.0120239.0453491-.0231323.067627.0422365-.084961.0108034-.1790772-.1068114-.2470093zm-6.8034668.2376709c.0048828.0111084.0039062.0227661.0113525.0334473-.0075073-.0107422-.0064697-.0223389-.0113525-.0334473zm6.805481.1187134-3.0302124 1.7609253 3.0301514-1.7609253c.0427246-.0248413.074707-.0532227.0960083-.0834351-.0213624.0302124-.0532838.0585938-.0959473.0834351z" fill="#9ea9c9"/></g></g><g><g enable-background="new"><g><g><path d="m32.3495674 5.1983891-3.0302029 1.7609692c-.1683464.097827-.4427662.0995626-.6152496 0l-3.0530243-1.7626763c-.0853024-.0492315-.1278801-.1144009-.1277065-.1794548l-.0016212.9594049c-.0002022.0650544.0424061.1301951.1276798.1794267l3.0530243 1.7626762c.1724834.0995908.4469299.0978265.6152782 0l3.0301743-1.760941c.0851555-.0494919.1277618-.1131864.1279373-.1769676l.0016479-.9594054c-.0001716.0637812-.0428085.1275048-.1279373.1769681z" fill="#9ea9c9"/></g></g><g><g><g><path d="m32.3475571 4.8420219c.1724701.0995765.1733551.256803.0020065.3563809l-3.0301933 1.7609553c-.1683483.0978336-.4427872.0995793-.6152592.0000029l-3.0530415-1.7626748c-.1694546-.0978351-.1703548-.2585478-.0020065-.3563809l3.0301933-1.7609556c.1713505-.0995779.4458046-.0978377.6152592-.0000029z" fill="#c9cee2"/></g></g></g></g></g><g><g enable-background="new"><g><g><path d="m21.8348236 11.2690783-3.030201 1.7609701c-.1683483.097827-.4427662.0995626-.6152515 0l-3.0530233-1.7626762c-.0853024-.0492315-.1278811-.1144018-.1277075-.1794558l-.0016193.9594059c-.0002022.0650539.0424051.1301947.1276779.1794262l3.0530243 1.7626762c.1724834.0995913.4469318.097827.6152802 0l3.0301723-1.7609406c.0851574-.0494919.1277637-.1131868.1279373-.1769676l.0016499-.9594059c-.0001736.0637818-.0428105.1275053-.1279393.1769677z" fill="#9ea9c9"/></g></g><g><g><g><path d="m21.8328152 10.9127121c.1724701.099576.1733551.2568026.0020046.3563805l-3.0301914 1.7609558c-.1683483.0978336-.4427872.0995789-.6152592.0000029l-3.0530424-1.7626753c-.1694555-.0978346-.1703548-.2585478-.0020065-.3563805l3.0301924-1.7609558c.1713505-.0995779.4458046-.0978374.6152592-.0000029z" fill="#c9cee2"/></g></g></g></g></g><g><g enable-background="new"><g><g><path d="m11.3200817 17.3397694-3.0302019 1.7609692c-.1683483.097826-.4427667.0995617-.6152506 0l-3.0530243-1.7626762c-.0853019-.0492325-.1278806-.1144009-.127707-.1794548l-.0016198.959404c-.0002027.0650539.0424051.1301956.1276779.1794262l3.0530243 1.7626762c.1724844.0995922.4469318.0978279.6152792 0l3.0301733-1.7609406c.0851574-.0494919.1277647-.1131859.1279383-.1769676l.0016489-.959404c-.0001736.0637798-.0428105.1275043-.1279383.1769676z" fill="#9ea9c9"/></g></g><g><g><g><path d="m11.3180714 16.9834023c.172472.099575.173357.2568016.0020065.3563805l-3.0301924 1.7609558c-.1683493.0978336-.4427881.0995789-.6152596.0000019l-3.0530419-1.7626743c-.1694551-.0978355-.1703548-.2585468-.0020061-.3563805l3.0301924-1.7609558c.1713505-.0995789.4458041-.0978384.6152596-.0000029z" fill="#c9cee2"/></g></g></g></g></g></g><g><g><g><g><path d="m2.7326353 22.1913624c.2213211.1277809.4018004.4450302.4010925.6947212l-.0259819 6.2168369c-.0007079.249691-.1823931.3578453-.4037144.2300663-.2213349-.1277885-.401814-.4450397-.4011061-.6947289l.0259819-6.2168388c.0007078-.2496891.182393-.3578434.403728-.2300567z" fill="#fff"/></g></g></g><g><g><g><path d="m4.3851662 23.1476784c.2253461.1301022.4018002.4450302.4010925.6947193l-.0259824 6.2168388c-.0007076.2496891-.1783676.3601685-.4037142.2300644-.2172956-.1254559-.4018004-.4450302-.4010925-.6947212l.0259819-6.2168369c.0007079-.249691.1864185-.3555203.4037147-.2300644z" fill="#fff"/></g></g></g><g><g><g><path d="m6.1101241 24.1458073c.2253466.1301041.401814.4450397.4011064.6947289l-.0259819 6.2168388c-.0007081.2496891-.1783819.3601608-.403728.2300568-.2172961-.1254559-.4018006-.4450302-.4010925-.6947212l.0259819-6.2168369c.0007076-.2496911.186418-.3555223.4037141-.2300664z" fill="#fff"/></g></g></g></g></g><g><g><g><g><g><g><ellipse cx="21.714" cy="38.928" fill="#f45170" rx=".467" ry=".806" transform="matrix(.865 -.502 .502 .865 -16.62 16.181)"/></g></g></g><g><g><g><ellipse cx="24.001" cy="40.248" fill="#4c5c75" rx=".467" ry=".806" transform="matrix(.865 -.502 .502 .865 -16.973 17.509)"/></g></g></g><g><g><g><ellipse cx="26.289" cy="41.569" fill="#72d561" rx=".467" ry=".806" transform="matrix(.865 -.502 .502 .865 -17.327 18.837)"/></g></g></g><g><g><g><ellipse cx="28.576" cy="42.89" fill="#dba660" rx=".467" ry=".806" transform="matrix(.865 -.502 .502 .865 -17.681 20.165)"/></g></g></g><g><g><g><ellipse cx="30.86" cy="44.208" fill="#423d9b" rx=".467" ry=".806" transform="matrix(.865 -.502 .502 .865 -18.034 21.491)"/></g></g></g><g><g><g><ellipse cx="33.147" cy="45.529" fill="#b28afd" rx=".467" ry=".806" transform="matrix(.865 -.502 .502 .865 -18.388 22.819)"/></g></g></g></g><g><g><g><g><ellipse cx="37.834" cy="45.53" fill="#f45170" rx=".806" ry=".467" transform="matrix(.502 -.865 .865 .502 -20.541 55.365)"/></g></g></g><g><g><g><ellipse cx="40.121" cy="44.209" fill="#4c5c75" rx=".806" ry=".467" transform="matrix(.502 -.865 .865 .502 -18.261 56.686)"/></g></g></g><g><g><g><ellipse cx="42.409" cy="42.889" fill="#72d561" rx=".806" ry=".467" transform="matrix(.502 -.865 .865 .502 -15.981 58.006)"/></g></g></g><g><g><g><ellipse cx="44.696" cy="41.568" fill="#dba660" rx=".806" ry=".467" transform="matrix(.502 -.865 .865 .502 -13.701 59.327)"/></g></g></g><g><g><g><ellipse cx="46.98" cy="40.249" fill="#423d9b" rx=".806" ry=".467" transform="matrix(.502 -.865 .865 .502 -11.425 60.646)"/></g></g></g><g><g><g><ellipse cx="49.268" cy="38.929" fill="#b28afd" rx=".806" ry=".467" transform="matrix(.502 -.865 .865 .502 -9.145 61.966)"/></g></g></g></g></g><g><g><path d="m50.8695488 35.3478317-.0100098 3.75c0 .4400024-.2900391.8900146-.8699951 1.2199707l-12.4400024 7.2300415c-1.1700439.6799927-3.0900269.6799927-4.2700195 0l-12.5200176-7.2300415c-.5899658-.3399658-.8899536-.789978-.8899536-1.2399902l.0099487-3.7600098c0-.4499512.2900391-.8800049.8699951-1.2199707l12.4400005-7.2299824c1.1800537-.6800537 3.0900269-.6800537 4.2700195 0l12.5200195 7.2299824c.6699829.3900146.9500122.9199829.8599854 1.4299927.0100098-.0599976.0300293-.1199951.0300293-.1799927z" fill="#dedffb"/></g><g><g enable-background="new"><g><g><path d="m49.9967957 36.5679779-12.4378242 7.2280998c-1.1731606.6817513-3.0872879.6817513-4.2681465 0l-12.523285-7.2303276c-.5941792-.3430634-.890955-.7942429-.8897057-1.2447586l-.0073814 3.7548141c-.0012894.4505157.2954865.9016953.8897038 1.2447586l12.5232868 7.2303276c1.1808548.6817474 3.0949821.6817474 4.2681084 0l12.4378586-7.2281036c.5817986-.3381004.8725204-.7806091.8737717-1.2239761l.0073814-3.7548523c-.0012513.4434052-.2919732.8859139-.8737679 1.2240181z" fill="#dedffb"/></g></g><g><g><g><path d="m49.9788132 34.0980949c1.1808319.6817551 1.191124 1.7881317.0179825 2.4698868l-12.4378471 7.2280884c-1.1731453.6817551-3.0872841.6817741-4.268116.0000191l-12.5232849-7.2303238c-1.1808319-.6817513-1.1870594-1.790493-.013916-2.4722481l12.4378471-7.2280884c1.1731453-.681757 3.0832138-.679409 4.2640457.0023441z" fill="#f3f1fc"/></g></g></g></g></g><g><g><g><g><path d="m48.9703102 35.9282112c-.1231613.1800003-.3221283.3505211-.577877.5020714l-11.0746689 6.4420547c-1.0421333.6063271-2.7473717.6063271-3.7989311 0l-11.1504765-6.4420547c-.2652302-.1515503-.4547138-.3220711-.5873585-.5115547-.4073601-.5589676-.2178764-1.2315598.5683937-1.6863327l11.0841522-6.4420528c1.0421333-.6063251 2.7378922-.6063251 3.7894516 0l11.1599579 6.4420528c.7957497.4547729.9947167 1.1368484.5873566 1.695816z" fill="#b0b8cf"/></g></g></g><g><g><g><path d="m48.9703102 35.9282112c-.1231613.1800003-.3221283.3505211-.577877.5020714l-11.0746689 6.4420547c-1.0421333.6063271-2.7473717.6063271-3.7989311 0l-11.1504765-6.4420547c-.2652302-.1515503-.4547138-.3220711-.5873585-.5115547.1231613-.1800003.312645-.3505173.5683937-.4926453l11.0841522-6.4420547c1.0421333-.6063251 2.7378922-.6063251 3.7894516.0094833l11.1599579 6.4325714c.255745.1516113.454712.3221283.5873566.5021286z" fill="#dedffb"/></g></g></g></g><g><g><g><g><path d="m41.1848183 21.2124023-.0067635 5.8414345-5.7262421 3.3307095-5.7668819-3.3307095.0067635-5.8414345c3.1646862-1.8398475 8.3115215-1.8398475 11.493124 0z" fill="#f4462f"/></g></g></g><g><g><g><path d="m43.5871353 26.4473381-.0067825 3.960928c-.0033913 1.1960621-.7928543 2.3921413-2.3616409 3.3035984l-5.7668991-3.3273182.0067825-3.9609299 5.726223-3.3307095c1.6060524.9250222 2.4057083 2.1414109 2.402317 3.3544312z" fill="#efc348"/></g></g></g><g><g><g><g enable-background="new"><g><path d="m29.6924877 21.210928-.0076904 5.8442383 5.7662945 3.3291016 5.7276611-3.3291626.0076904-5.8442383c-3.1837158-1.8381348-8.3303222-1.83844-11.4939556.000061z" fill="#df3260"/></g><g><g><g><path d="m41.1864395 21.2108917-.0077095 5.8442059-5.7276611 3.3292141.0077133-5.8442078z" fill="#df3260"/></g></g></g><g><g><g><path d="m41.1864395 21.2108917-5.7276573 3.3292122-5.7662754-3.3291588c3.163599-1.8384819 8.3102093-1.8381767 11.4939327-.0000534z" fill="#f45170"/></g></g></g><g><g><g><path d="m35.4587822 24.5401039-.0077133 5.8442078-5.7662735-3.3291607.0077114-5.8442059z" fill="#e93565"/></g></g></g><g><g><g><path d="m43.5871353 26.4473381-.0067825 3.960928c-.0033913 1.1960621-.7928543 2.3921413-2.3616409 3.3035984l-5.7668991-3.3273182.0067825-3.9609299 5.726223-3.3307095c1.6060524.9250222 2.4057083 2.1414109 2.402317 3.3544312z" fill="#ffd651"/></g></g></g><g><g><g><path d="m43.5866699 26.4464397-.0077133 9.1652775c-.0033913 1.1970291-.7901192 2.3921509-2.3616142 3.3054008l.0077095-9.1652737c1.5714989-.9132537 2.3582268-2.1083735 2.361618-3.3054046z" fill="#febc1f"/></g></g></g><g><g><g><path d="m41.2250519 29.7518425-.0077095 3.961628-5.7662735-3.3291588.0077133-3.961628z" fill="#ffd06c"/></g></g></g><g><g><g><path d="m27.3228302 35.5647316.0077095-7.9238167c-.003437 1.212719 2.9383049.8238373 4.5407543 1.749012 3.1848698 1.8387852 6.1901608 3.4418564 9.3537579 1.6033745l-.0077095 7.9238205c-3.1635971 1.8384781-8.3101997 1.8388367-11.4950695.0000496-1.6024475-.9251709-2.4028816-2.1397171-2.3994427-3.3524399z" fill="#5094ff"/></g></g></g></g></g><g><g><g><path d="m41.1864395 23.0934715c3.1854401 1.8391151 3.2022133 4.8198891.0386124 6.658371l-5.7662697-3.3291588z" fill="#ffde9b"/></g></g></g><g><g><g><path d="m41.2250519 30.9933014c-3.1635971 1.8384819-8.3101959 1.8388405-11.4950676.0000534-3.1842937-1.8384533-3.2016411-4.819561-.0374775-6.6583729z" fill="#57b3fe"/></g></g></g></g><g><g enable-background="new"><g><g><g><path d="m37.1311913 21.2894955c.0089569.0583801-.0253029.110096-.1071205.1576424-.0789452.0458775-.17099.067564-.2703705.0617313-.0965157-.0058403-.1845093-.031702-.265419-.0784168-.0794601-.0458736-.125824-.0975857-.1362267-.153471-.0075111-.0558815.0296288-.1092682.1085739-.1551456.0818176-.0475483.1709862-.0675621.2689171-.06423.0979538.0050049.1859474.0325279.2654037.0784035.0809098.0467128.1287156.0975913.136242.1534862zm-.3623124.1034259c.0460968.0033379.0849457-.0041676.1193924-.0241871.035881-.0208511.0501442-.0442123.0442543-.0692348l-.0014496-.0008354c-.0059242-.0283585-.0319901-.0550499-.076786-.0809116-.0433426-.0250244-.0895081-.0400352-.1384888-.0433769-.0446625-.0041676-.0849304.0041828-.1208076.025034-.0344505.0200195-.0472984.0425358-.0413857.0692234.0073586.0275288.0334244.0542183.076767.0792427.044796.0258635.0909615.0408744.138504.0450457" fill="none"/></g></g></g><g><g><g><path d="m35.9951591 21.3153572c.0075226.0575523-.0281982.1100941-.1085739.1568031-.0803795.046711-.1709709.0675755-.2689171.0625706-.0965195-.0058384-.1845169-.031702-.2654228-.078413-.0794601-.0458755-.1258278-.0975895-.1362228-.1534767-.007515-.0558834.0281944-.1084347.1085739-.1551456.0803757-.0467091.1709824-.0675621.2689171-.0642281.0965118.0058403.1859436.0325298.2653999.0784054.0809059.0467109.1258431.097599.1362457.1534843zm-.3623123.1034241c.0432091.003336.0834961-.005003.1179428-.0250206.035881-.0208511.0501442-.0442142.0442505-.0692329-.005928-.0283604-.0348778-.0550556-.0782204-.08008-.0433235-.0250149-.0880737-.0408669-.1370316-.0441952-.0446815-.0041828-.0849495.0041676-.1208267.0250187-.0344505.0200195-.0487366.0433693-.0413628.0692348.0059013.0283508.0334167.0542202.0767403.0792332.0433427.0250244.0895234.0417041.1385079.045042" fill="none"/></g></g></g><g><g><g><path d="m36.0599709 20.8073788c.0144424.008337.0245934.0191898.0275421.0325279l.3606644.8849926.000164.0300293-.0257683.0266876c-.0172234.0100098-.0402222.0150223-.0675888.0158501-.0244827.0008354-.0489769-.0049973-.0677681-.0158463l-.0246201-.0258503-.3607178-.8933392c-.0073204-.020853.0012283-.0375347.0256271-.0517139.0186615-.0108433.0402145-.0183525.0646935-.0191841.0230332-.0016727.0489998.0050087.067772.0158463z" fill="#fff"/></g></g></g></g><g><g><g><path d="m34.8014679 22.6132393c.0231209.0133495.0347404.028368.0334053.0475521.000103.0183506-.0113449.0333576-.0343132.0467052l-.4492531.2610779c-.0215302.0125141-.0502892.0191917-.0805206.0200291-.0302429-.0008354-.0562096-.007515-.0793304-.0208645-.0231018-.0133381-.0361519-.0291824-.0376892-.0466995-.0015411-.0175152.0127602-.0342026.0342903-.0467148l.1535797-.0892506-.6891251-.3978672-.0613289.1042652c-.0100288.0125008-.0186005.0241795-.0286484.0300198-.0243988.0141792-.0545921.0216923-.0848351.0208569-.0316811 0-.0576515-.0066776-.0822067-.020853-.0361137-.0208492-.0448914-.0458717-.0306549-.0742359l.094059-.1735001c.0100136-.0141716.0214691-.0258484.0386925-.0358562l.0315781-.0183506c.0229683-.0133476.0545921-.0216923.0891571-.0216885.0316811 0 .0648346.0074978.0894051.0216846l.8061485.4654293.123436-.0717335c.0229683-.0133476.0488586-.0200157.0805397-.0200157.0331153-.0008354.0605087.0066719.0836143.02001z" fill="#fff"/></g></g></g><g><g><g><path d="m35.6350555 22.0652256c.0279083.0992565-.0248833.1885033-.1598015.2669086-.1320496.0767384-.287384.1084423-.4573898.0917625-.1671371-.0150166-.333046-.0708961-.4991951-.1668243-.16325-.0942497-.2617149-.1910076-.2881851-.2877674-.0307999-.0992584.0248566-.1885109.1569061-.2652512.1349144-.0784035.2873878-.1101017.4588356-.0942593.1671448.0166874.3359413.0725746.4991875.1668262.166153.0959264.261734.1926767.2896423.2886049zm-.594963.2185364c.1066475.0133457.1972885-.0008316.273365-.045042.0789413-.0458755.1031189-.0984249.079731-.1601562-.0248413-.0642223-.0972099-.1309471-.2200127-.201849-.1199036-.0692253-.2367821-.111763-.3463097-.1251163-.1080742-.0141716-.1972656.000843-.276207.0467186-.0760765.0442104-.1017075.0959244-.076889.1584797.0234108.0633965.0972328.1309586.2171326.2001839.1228027.0708998.2382355.112602.3491898.1267813z" fill="#fff"/></g></g></g><g><g><g><g><path d="m34.5315895 28.7242889c.0060768.056715-.0281868.1084309-.1100006.1559772-.0789452.0458775-.17099.067564-.2674904.0633965-.0965118-.0058422-.1859398-.0325298-.2653961-.0784054-.0809097-.046711-.1272774-.0984268-.1362457-.1534843-.0103951-.0575447.0267448-.1109314.10569-.1568108.0818176-.0475464.1709862-.0675602.271801-.0625629.0965195.0041771.1845169.031702.2654228.0784149.0794563.0458737.1272621.0967522.136219.1534748zm-.363739.1025982c.0460968.0033398.0849228-.0041771.1193733-.0241966.0358772-.0208511.0501633-.0442009.0428238-.0700607-.005928-.0283585-.0320091-.0550594-.0753365-.0800743-.044796-.0258636-.0909576-.0408707-.1399384-.0442123-.0461159-.0050049-.0863838.0033436-.1222649.0241947-.0344467.0200195-.0472908.0425377-.0399284.0700626.0073586.0275288.0334206.0542164.0782166.08008.0433274.0250149.0895081.0400353.1370545.0442066" fill="none"/></g></g></g><g><g><g><path d="m33.3941078 28.7493134c.0075264.0575523-.0281754.1101036-.108551.1568146-.0803795.0467091-.17099.067564-.26894.0625591-.0950661-.005003-.184494-.0316906-.2653999-.0784035-.0809135-.0467129-.1272774-.0984249-.1362228-.1534748-.0089645-.0567188.026741-.1092739.1071205-.1559849.0803757-.0467091.1709862-.0675602.2703705-.0633888.0950623.005003.1844902.0316906.2653999.0784054.0809059.0467109.1272735.098423.1362228.1534729zm-.3622894.1034355c.0446587.0041733.0849228-.0041771.1193733-.0241966.0358772-.0208511.0501633-.0442009.04282-.0700569-.0073776-.0291977-.0334282-.0542202-.0782204-.08008-.0433464-.0250263-.0895271-.0417061-.1385078-.0450478-.0446548-.0041676-.0834961.0050068-.1193771.0258579-.0344467.0200176-.0501595.0425453-.0428123.0683975.0059242.0283623.0348701.0550575.0782166.0800838.044792.0258618.0880736.0408669.1385077.0450421" fill="none"/></g></g></g><g><g><g><path d="m33.457489 28.240509c.015892.0091743.0245781.0191784.0289917.0333652l.3621178.8858299-.0012856.0291901-.0257683.0266895c-.0172234.0100098-.0387955.0158463-.0661392.0166874-.0259323-.0000038-.0504494-.005846-.0692215-.0166836l-.0260658-.0266895-.3592682-.8925018c-.0073204-.020853-.0002213-.038372.0241776-.0525494.0186577-.0108452.0416641-.0175171.0646935-.019186.0259132-.0000076.0489768.0049973.067768.0158482z" fill="#434240"/></g></g></g><g><g><g><path d="m33.0340004 29.4991779c.027935.0992718-.0248566.1885185-.1597748.266922-.1320496.0767403-.287384.1084442-.4574165.0917511-.1671104-.0150032-.3344727-.0717239-.4977417-.1659851-.1661263-.0959129-.2631626-.1918468-.2910614-.2894306-.0293541-.098423.0248508-.1885128.1569023-.2652531.1349144-.0784054.2888374-.1092644.460289-.09342.1671257.0166759.3344917.0717373.500618.1676502.1632652.0942631.2603035.1918526.2881851.2877655zm-.5949364.2185498c.1080971.014185.1958389-.001667.2719154-.0458775.0789413-.0458755.1060181-.0967522.0811806-.1593189-.0233917-.063385-.0986595-.1317844-.218586-.2010231-.1213493-.0700626-.2382317-.1126003-.3491859-.1267796-.1051941-.0125084-.1958427.0016651-.2747841.0475407-.0760765.0442123-.1002502.0967636-.07831.1576576.0248394.0642223.0986595.1317844.2200108.2018452.1199226.0692386.2382545.1126156.3477592.1259556z" fill="#434240"/></g></g></g><g><g><g><path d="m32.0297279 29.9070759c.0968018.0558872.1331749.1217842.1119766.1960087-.0211792.0725784-.0927925.1426411-.2061844.2085361-.1105194.0642262-.234087.1126099-.3707027.1468048-.0215702.0058384-.0431614.0066719-.064764.0041752-.0230598-.0016727-.0418091-.0075073-.0606022-.0183563-.0202217-.0116749-.0332642-.027523-.0348034-.0450382-.0015869-.027523.0227604-.0500488.074522-.0633984.0934734-.0225163.1839905-.0583897.2643681-.1050987.0732002-.0425396.1219311-.0859089.1476097-.1276188.0228214-.0383701.0096893-.0708961-.0408859-.1000957-.1112423-.0642262-.2622871-.0366974-.4632339.08008l-.0244026.014183c-.0229626.0133438-.0502834.0191879-.0819645.0191879-.0316792 0-.0605354-.0066814-.0821896-.0191822-.0216713-.0125122-.0318489-.028368-.0319519-.0467186s.0098953-.0341949.0328579-.0475388l.0100498-.0058403c.0918598-.0533829.1477299-.1026058.1662121-.1468067.0228138-.0417023.0053444-.0750675-.0466805-.1051044-.0389938-.0225124-.0851364-.0308628-.1427021-.0258541-.0604362.0066795-.1265564.0300293-.1983204.0717354-.0775108.0450439-.1348324.0950851-.1690598.1534767-.0228786.0300274-.057373.0400391-.100563.0417118-.0273628.0008278-.0533237-.007513-.0735474-.0191879-.0289021-.0166874-.0405388-.0383701-.0291462-.0617199.0456066-.0834141.1186275-.1576538.219101-.2160416.1162624-.067564.2341232-.1059341.3449535-.1151104.113699-.0108452.2189598.0116825.3099804.0642338.0722275.0417004.1127892.0850735.1159191.1301079.0044861.0291977-.0010967.0592289-.0167732.090086.0532169-.0141716.1136494-.0208473.1755638-.0233459.0907097-.0008431.1815758.0233535.2653637.0717296z" fill="#434240"/></g></g></g></g><g><g><g><g><path d="m39.6900787 26.8196411c-.001339.019186-.011322.0366993-.0357208.0508785-.0244026.0141811-.0531654.0191841-.0862808.0200214-.0316849 0-.0605202-.0066681-.0850945-.0208569l-.1776848-.1025887-.4219856.2452316c-.0287056.0166817-.0646553.0258617-.1035347.0250244-.0417747.0008259-.0763779-.0075073-.1052818-.0241947l-.0129929-.0075016c-.0245514-.0141735-.040493-.0316982-.0434799-.0500507l-.1286812-.6030636c-.0043755-.0125103-.0030251-.0266895.0041046-.0408649.0100098-.0125141.0228806-.025034.0401077-.0350437l.0287018-.0166817c.0315819-.0183525.0646667-.0275211.1064262-.0266838.0374298-.0000057.0734863.0091667.1023903.0258541l.5475502.3161259.0889854-.051712c.0229683-.0133476.0488396-.0200291.0805206-.0200272.0288124.0000076.0576439.0066795.0793152.0191917.0231018.01334.033287.029192.0319366.0467052.0000916.0166779-.0098877.0325356-.0328522.0458813l-.0889893.0517139.1776886.1025867c.0245745.014189.0347445.0317061.0348513.0500548zm-.8695182.0450478.3258171-.1893444-.4218636-.2435646z" fill="#fff"/></g></g></g><g><g><g><path d="m40.559124 26.1790352c.027916.0992584-.0248566.1885166-.1597748.2669201-.1320496.0767403-.2874031.1084328-.4574165.0917511-.1671295-.0150146-.3359222-.0725594-.4991913-.1668224-.1661263-.0959129-.2631645-.1918449-.2896118-.2885933-.0293694-.0984325.0248489-.1885128.1569023-.2652531.1349144-.0784054.2888222-.1092739.460289-.09342.1656761.0158386.3330421.0709.4991684.1668129.1632652.094263.2617302.1926784.2896347.2886047zm-.5949364.2185497c.1066246.0133343.1958199-.0016804.2718964-.0458908.0789413-.0458755.1045685-.0975895.0811996-.1593075-.0248604-.0642338-.1001091-.1326218-.2200356-.2018604-.1198997-.0692253-.2367821-.111763-.3477402-.1259441-.1066399-.0133438-.1958389.001667-.2747803.0475426-.0760765.0442123-.1016998.0959263-.0783157.1576538.0248451.0642262.0986633.1317883.2185669.2010136.1199227.0692386.2382356.1126021.3492089.1267928z" fill="#fff"/></g></g></g><g><g><g><path d="m42.0552635 25.403307c.0060768.056715-.0281868.1084309-.1100006.1559772-.0789452.0458775-.1709938.067564-.2674904.0633965-.0965118-.0058422-.1859398-.0325298-.2653961-.0784054-.0809135-.0467129-.1258469-.097599-.1362457-.1534843-.0089645-.0567207.0281944-.1100941.1071396-.1559734.0818176-.0475464.1709633-.0675735.2703514-.0634003.0979538.0050049.1845131.0317001.2654228.0784149.0794563.0458736.1272621.0967521.136219.1534748zm-.3637581.1025867c.0461159.0033512.0849419-.0041656.1193924-.0241852.0358772-.0208511.0501633-.0442009.0428009-.0700722-.0059052-.028347-.0319901-.0550499-.0753136-.0800629-.044796-.0258617-.0909615-.0408726-.1399384-.0442123-.0432129-.0033302-.0834999.0050087-.119381.0258598-.0344467.0200195-.0472755.0425472-.0428123.0683975.0073547.0275269.0348701.0550537.0782166.08008.0433236.0250131.0895081.0400354.1370354.0441953" fill="none"/></g></g></g><g><g><g><path d="m40.9192314 25.4291687c.0075264.0575523-.0296249.1092682-.1100006.1559772-.0803795.046711-.1695404.0684013-.2674904.0633965-.0965157-.0058403-.1845131-.031702-.2653999-.0784016-.0809135-.0467148-.1272774-.0984268-.1362419-.1534882-.0103951-.0575447.0253105-.1100998.10569-.1568108.0803757-.0467091.1709862-.0675602.271801-.0625629.0950813.0050144.1845093.031702.265419.0784168.0808868.0466996.125824.0975877.1362228.153473zm-.363739.1026001c.0446548.0041695.0849228-.004179.1193733-.0241985.0358772-.0208511.0501595-.0442028.04282-.0700569-.0045013-.0275345-.0334282-.0542183-.0767708-.0792427-.044796-.0258636-.0895271-.0417061-.1399574-.0458832-.0432053-.0033321-.0834961.0050049-.1193771.025856-.0344467.0200195-.0487099.0433826-.0399132.0700722.0044746.0275249.031971.0533829.076767.0792465.0433425.0250244.0895042.0416927.1370582.0442066" fill="none"/></g></g></g><g><g><g><path d="m40.9826126 24.9203625c.0144424.0083389.0245781.0191803.0289726.0333557l.3606873.885004.000164.0300274-.0257683.0266895c-.0172272.0100098-.0402451.0150089-.0675888.0158501-.0259323-.0000038-.0504494-.005846-.0677719-.0158463l-.0275192-.0275269-.3578339-.8916759c-.0073204-.020853-.0002022-.0383606.0241966-.0525379.0186577-.0108452.0416451-.0175285.0646935-.019186.0244599-.0008449.0475273.0041599.0677681.0158463z" fill="#fff"/></g></g></g></g></g></g></g></g></g></g><g><g><g><path d="m20.504425 48.6549034c-.1992188 0-.3994141-.0449219-.5546875-.1347656l-18.5468742-10.4960938c-.1743164-.1010742-.2739258-.2490234-.2734375-.4072266 0-.1586914.1005859-.3076172.2753906-.4082031l3.8159177-2.2036133c.0722656-.0419922.1630859-.0166016.2050781.0546875.0415039.0717773.0170898.1635742-.0546875.2050781l-3.816406 2.2036134c-.0786133.0449219-.1254883.1005859-.1254883.1489258 0 .0473633.0458984.1020508.1225586.1464844l18.546875 10.4960938c.2197266.1264648.5898438.1259766.8105469.0004883l5.1640625-2.8623047c.0722656-.0400391.1645508-.0141602.2041016.0585938.0400391.0722656.0136719.1635742-.0585938.2041016l-5.1621094 2.8608398c-.1542975.088867-.353028.1333006-.5522468.1333006z" fill="#4c5c75"/></g></g></g></g></svg>