<svg id="Layer_1" enable-background="new 0 0 53 53" height="512" viewBox="0 0 53 53" width="512" xmlns="http://www.w3.org/2000/svg"><g id="_x38_5"><g><path d="m46.8104477 10.2888269c.0100098 4.5700073-3.2000122 10.1300058-7.1600342 12.4100351-2 1.1599731-3.8099976 1.2700195-5.1299438.5100098-.0500488-.0200195-.0900269-.0500488-.1400146-.0800171l-4.5200195-2.6300049c-.0899658-.0499878-.1699829-.0999756-.2600098-.1599731-.8499756-.6100464-1.4500122-1.6199951-1.7099609-2.9700317-.0800171-.460022-.1300049-.9500122-.1300049-1.4799814-.0100098-4.5599976 3.2000122-10.1000366 7.1900024-12.4000244 1.9899902-1.1499634 3.7999878-1.2600098 5.1099854-.5100098l4.6500244 2.710022c1.2899779.7500004 2.0899657 2.330017 2.0999755 4.5999755z" fill="#986ff9"/></g><g><path d="m46.880455 35.6888504c.0100098 4.5700073-3.2000122 10.1300049-7.1600342 12.4099731-2 1.1600342-3.8200073 1.2700195-5.1300049.5100098-.039978-.0299683-.0899658-.0599976-.1399536-.0799561l-4.5200195-2.6300049c-1.289978-.75-2.0900269-2.3400269-2.0999756-4.6100464 0-.5199585.039978-1.0599976.1199951-1.5999756.25-1.6500244.8399658-3.3599854 1.6999512-4.9500122 1.3100586-2.4500122 3.2300415-4.6199932 5.3700562-5.8599834 1.9899902-1.1500244 3.7999878-1.25 5.1099854-.4899902l4.6599731 2.7000122c-.0700073-.0400391-.1400146-.0800171-.2199707-.1100464 1.4199829.6900025 2.2999878 2.3200055 2.3099975 4.7100201z" fill="#e93565"/></g><g><g><g><g enable-background="new"><g><path d="m33.0413589 43.7579498c.6189537-.0569191 1.2991982-.2835045 2.0130844-.6956673l4.6584778 2.7072144c-.7138863.412159-1.3941307.6387444-2.0130844.6956635-1.5528602-.9024048-3.1056213-1.8047943-4.6584778-2.7072106z" fill="#e98c82"/></g><g><path d="m32.032589 43.689106c.3120956.0778427.6501427.1018219 1.00877.0688438 1.5528564.9024162 3.1056175 1.8048058 4.658474 2.7072182-.3585548.0329666-.6965408.0090027-1.0085869-.0688095-.8995972-.5227127-1.7991219-1.0454788-2.6986885-1.5682411-.6533318-.3796692-1.3066407-.759346-1.9599686-1.1390114z" fill="#e98c82"/></g><g><path d="m32.032589 43.689106c.0736122.0298653.1602669.0931358.2289543.1330528.0728111.0423164.1698952.0987358.2427101.1410522.1694527.0984688.3389168.1969566.5083694.2954254.3266449.1898232.6532898.3796539.9799347.5694809.8995667.5227623 1.7990913 1.0455284 2.6986847 1.5682449-.2266121-.0565109-.4395447-.1414146-.636734-.2535362-1.5528603-.9024048-3.105629-1.8047943-4.6584835-2.7072067.1971436.1120873.410017.1969758.6365643.2534867z" fill="#e98c82"/></g><g><path d="m40.1833191 34.1657104c-.0046005-1.6224174-.5779381-2.7624722-1.5011292-3.2989845l4.658474 2.7072182c.9231911.5365067 1.4965324 1.6765594 1.501133 3.2989769.0092735 3.2715874-2.2929955 7.2592773-5.1288757 8.8965721l-4.6584816-2.7072067c2.835884-1.6372986 5.138153-5.6249886 5.1288795-8.896576z" fill="#e98c82"/></g><g><path d="m31.3758698 43.4240265c.0067024.0038948.013422.0077553.0201607.0115891.7764359.4512215 1.552845.90242 2.3292847 1.3536377.7764091.4511948 1.552784.9023819 2.3291893 1.3535767-.0067368-.0038338-.0134544-.0076981-.0201569-.0115929-1.3975487-.8121606-3.2609368-1.8950463-4.6584778-2.7072106z" fill="#e98c82"/></g><g><path d="m38.6821709 30.8667107 4.6584702 2.7072105c-.9365501-.5442657-2.2331581-.467392-3.6612816.3571358l-4.658474-2.7072124c1.4281234-.8245278 2.7247276-.9013997 3.6612854-.3571339z" fill="#fff"/></g><g><path d="m36.0344353 46.1312866-4.6584816-2.7072029c-.9256477-.5379372-1.4990292-1.6812248-1.5036335-3.3053055-.0092659-3.2683411 2.2930279-7.2462883 5.1485653-8.8949337l4.658474 2.7072124c-2.8555336 1.6486435-5.1578293 5.6265907-5.1485634 8.8949318.0046043 1.6240807.5779876 2.7673684 1.5036392 3.3052979z" fill="#fff"/></g><g><path d="m39.6793594 33.931057c2.8358879-1.6373024 5.1531754-.3264694 5.1624413 2.9418716.0092735 3.2715836-2.2929916 7.2592659-5.1288757 8.8965683-2.8555374 1.6486435-5.1728516.3280754-5.1821289-2.9435081-.0092659-3.2683411 2.2930297-7.2462883 5.1485633-8.8949318z" fill="#fff"/></g><g><path d="m40.130455 28.3888645c-1.3099976-.7600098-3.1199951-.6600342-5.1099854.4899902-2.1400146 1.2399902-4.0599976 3.4099712-5.3700562 5.8599834-.8599854 1.5900269-1.4499512 3.2999878-1.6999512 4.9500122-.0800171.539978-.1199951 1.0800171-.1199951 1.5999756.0099487 2.2700195.8099976 3.8600464 2.0999756 4.6100464l4.6599731 2.7099609c-.87677-.5097656-.152832-1.4580688.401001-2.7234497-.9382935-1.2937622-1.1657715-3.0797119-.6567993-4.6049805.0013428-1.3867188-.7963867-2.4038696-.0241699-3.831543.6699829-1.2529907 1.9093018-1.8617554 3.2461548-2.3242188.5742798-1.6278687 1.9798584-2.9257202 4.2212524-2.9257202.3731689 0 .7224731.0368042 1.0493774.1040039.7138062-.9239483 1.1177368-1.7045879 1.9631958-1.2140484z" fill="#f45170"/></g><g><path d="m39.6783791 31.5904617c3.9555779-2.2837563 7.187355-.4582138 7.2002869 4.1032753.0129395 4.564682-3.1978951 10.12603-7.1534729 12.4097824-3.9865646 2.3016472-7.2183456.4599457-7.2312851-4.1047401-.0014801-.5228882.0394249-1.0583382.1189919-1.6006966.2418518-1.6489563.8409767-3.3584557 1.6941452-4.9497604 1.314289-2.4512787 3.2310866-4.6221886 5.371334-5.8578606zm.034542 14.1790314c2.8358803-1.6372948 5.1381493-5.6249847 5.1288757-8.8965721-.0092659-3.2683334-2.3265572-4.5791626-5.1624374-2.941864-2.8555412 1.6486473-5.1578293 5.6265907-5.1485634 8.8949242.0092736 3.2715873 2.3265839 4.592163 5.1821251 2.9435119" fill="#e93565"/></g><g><path d="m22.6873646 38.6862526c.8347244-1.5869789 1.4779854-3.2599526 1.8707866-4.9176216 1.3714962.79702 2.7428455 1.5941505 4.114418 2.3910446l.5440559.3161697c-.3927994 1.6576653-1.0360584 3.3306389-1.8707829 4.9176178-1.3975466-.8121605-3.2609366-1.8950462-4.6584776-2.7072105z" fill="#7e4f76"/></g><g><path d="m29.216629 36.4758415 5.0904236.9724808c-.8531723 1.5913048-1.4522972 3.3008118-1.694149 4.9497681l-5.2670612-1.0046272c.8347244-1.586979 1.4779834-3.2599526 1.8707866-4.9176217z" fill="#e9e7fc"/></g><g><path d="m29.216629 36.4758415-4.6584778-2.7072105 5.0904255.9724808 4.6584759 2.7072105z" fill="#f3f1fc"/></g><g><path d="m31.3240223 18.0356636c.9374294.5330086 2.2306423.4509869 3.658411-.3733368l4.6584778 2.7072144c-1.4277687.8243198-2.7209816.9063416-3.6584129.373333-1.5528603-.9024087-3.1056214-1.8047982-4.6584759-2.7072106z" fill="#bbe1f7"/></g><g><path d="m40.1113091 8.7657642c-.0046005-1.6235571-.5776253-2.7634425-1.5003624-3.2997522l4.6584778 2.7072163c.9227371.5363045 1.4957581 1.6761904 1.5003624 3.2997475.0092735 3.2715874-2.2929916 7.2592649-5.1288757 8.8965616l-4.6584816-2.7072067c2.8358878-1.6373006 5.138153-5.6249791 5.1288795-8.8965665z" fill="#bbe1f7"/></g><g><path d="m31.3038597 18.0240726c.0067024.0038948.0134239.0077591.0201626.011591 1.5528545.9024124 3.1056156 1.8048019 4.6584721 2.7072124-.0067329-.0038338-.0134544-.0076962-.0201569-.011591-1.3975449-.8121642-3.2609367-1.895048-4.6584778-2.7072124z" fill="#bbe1f7"/></g><g><path d="m12.9512672 44.3407974c.8125572-.0747452 1.7057209-.3722458 2.6432819-.9135475l4.6584721 2.7072182c-.9375553.5412941-1.830719.8387985-2.6432762.9135399-1.5528621-.9024048-3.1056232-1.8047982-4.6584778-2.7072106z" fill="#e8c78f"/></g><g><path d="m38.6108284 5.4659419 4.658474 2.7072129c-.9366035-.5442986-2.2334862-.466774-3.6619492.3579502l-4.6584778-2.707211c1.428463-.8247242 2.7253456-.9022488 3.661953-.3579521z" fill="#fff"/></g><g><path d="m22.9370937 24.6624355c-.0925694-.0801125-.1878414-.1562061-.2856236-.2280388 1.5528526.9024124 3.1056213 1.8048038 4.6584759 2.7072144.097784.0718288.1930561.1479225.2856255.228035.6239891.5351639 1.1244774 1.256918 1.4752197 2.1549435.0074692.0191841.0149002.0383034.0222168.057663.0384674.100193.0751057.2025852.1098003.3069324-.5729084-.3329792-1.1458035-.665966-1.7187309-.9989109-.9799137-.5694637-1.959795-1.1389027-2.9397507-1.7082939-.0346909-.1043549-.0713291-.2067451-.1097965-.3069401-.0073166-.0193596-.0147476-.0384769-.0222168-.057663-.3507404-.8980236-.8512306-1.6197777-1.4752197-2.1549416z" fill="#7e4f76"/></g><g><path d="m35.9624252 20.7313366-4.6584816-2.7072086c-.9256458-.5379314-1.4990292-1.6812191-1.5036335-3.3053007-.0092735-3.2715397 2.2930279-7.2462883 5.1485653-8.8949337l4.6584778 2.707211c-2.8555374 1.6486454-5.1578407 5.6233931-5.1485672 8.8949337.0046044 1.624083.5779877 2.7673688 1.5036392 3.3052983z" fill="#fff"/></g><g><path d="m44.7143974 5.6927748c-1.3087043-.7623081-1.9285774.4476242-3.9203033 1.5977564-3.987812 2.3001575-7.6134796 6.9299402-7.6002464 11.490612.0044098.5287533-.7250061.8404865-.6412582 1.294363.2511444 1.3571167.8548813 2.3662109 1.7097092 2.9699478.0836983.0572319.1674461.1145725.2556076.1629829l-4.6576538-2.7055168c-.0881062-.0529289-.1718578-.105751-.2556076-.1675014-.8548279-.6036282-1.4585094-1.6127243-1.7096539-2.9699459-.0836964-.453825-.1322155-.942934-.1322155-1.4717417-.0132313-4.5650816 3.199091-10.1083841 7.1869545-12.4085951 1.9917297-1.1500247 3.7983093-1.2601862 5.1070671-.5022886z" fill="#b28afd"/></g><g><path d="m34.2604599 23.0488377-5.0599976 6.8400269c-.0300293-.1000366-.0700073-.210022-.1100464-.3099976 0-.0200195-.0099487-.0400391-.0199585-.0499878-.3500366-.9000244-.8500366-1.6200562-1.4700317-2.1600342-.0999756-.0800171-.1900024-.1599731-.289978-.2299805l-4.6600342-2.7000122 5.2400513-7.0700073 4.6599731 2.710022c.25 1.3499755.8599854 2.3599853 1.710022 2.9699707z" fill="#e9e7fc"/></g><g><path d="m27.309948 27.1416073-4.6584778-2.7072106 5.2423801-7.0676899 4.6584759 2.7072106z" fill="#f3f1fc"/></g><g><path d="m32.5523262 20.0739174c.2516747 1.3570385.8559494 2.3671074 1.7100334 2.9708805l-5.0595512 6.8443871c-.0346947-.1043472-.0713329-.2067394-.1098003-.3069324-.0073166-.0193596-.0147476-.0384789-.0222168-.057663-.3507423-.8980255-.8512306-1.6197796-1.4752197-2.1549435-.0925694-.0801125-.1878414-.1562061-.2856236-.2280388z" fill="#dedffb"/></g><g><path d="m39.606369 6.1905546c3.9555779-2.2837553 7.187355-.4582543 7.2002869 4.1032257.0129395 4.5646935-3.1978912 10.126029-7.1534729 12.4097834-2.1424294 1.2369328-4.0668259 1.2771473-5.3908272.3412361-.854084-.6037807-1.4583626-1.6138401-1.7100296-2.9708824-.084156-.4537239-.1289253-.9460316-.1304283-1.4750938-.0129318-4.5614796 3.1979065-10.1066247 7.1844711-12.408269zm.0345421 14.1789828c2.8358841-1.6372967 5.1381493-5.6249743 5.1288757-8.8965616-.0092735-3.2715368-2.3265572-4.5791736-5.1624374-2.9418764-2.8555412 1.6486483-5.1578369 5.6233978-5.1485634 8.8949356.0092774 3.2715873 2.3265839 4.5921516 5.1821251 2.9435024" fill="#986ff9"/></g><g><path d="m39.6073532 8.531105c2.8358841-1.6372991 5.1531601-.3296661 5.1624374 2.9418736.0092735 3.2715845-2.2929916 7.2592678-5.1288757 8.8965664-2.8555374 1.6486454-5.1728516.3280773-5.1821289-2.9435062-.0092735-3.2715407 2.2930298-7.2462884 5.1485672-8.8949338z" fill="#fff"/></g><g><path d="m22.3217716 31.7557201c-.0060349-2.1290569-.7578125-3.6241741-1.968277-4.3276978l4.658474 2.7072163c1.2104683.7035179 1.962244 2.1986351 1.9682808 4.3276939.0121613 4.2898903-3.0079613 9.5242119-6.7272224 11.6715279l-4.6584797-2.7072029c3.719263-2.1473236 6.7393856-7.3816452 6.7272243-11.6715374z" fill="#e8c78f"/></g><g><path d="m10.7651663 43.9025688c.6205645.3606491 1.3618622.5140457 2.186101.4382286 1.5528545.9024124 3.1056156 1.8048058 4.6584721 2.7072144-.824234.0758133-1.5655308-.0775833-2.1860952-.4382324-1.397545-.8121567-3.2609378-1.8950386-4.6584779-2.7072106z" fill="#e8c78f"/></g><g><path d="m20.3533649 27.4279461 4.6584759 2.7072182c-1.2285252-.7139473-2.929493-.6125355-4.8028355.4690399l-4.6584768-2.7072124c1.8733416-1.0815736 3.5743094-1.1829873 4.8028364-.4690457z" fill="#fff"/></g><g><path d="m15.4237003 46.6098099-4.6584845-2.7072067c-1.2147646-.7059517-1.9669085-2.2060585-1.9729462-4.3356171-.0121613-4.2898979 3.0080128-9.5047874 6.7582588-11.6699944l4.6584768 2.7072124c-3.750246 2.165205-6.7704201 7.3800983-6.7582579 11.6699924.0060369 2.1295587.7581808 3.6296655 1.972953 4.3356134z" fill="#fff"/></g><g><path d="m20.2084084 29.8903275c4.0610218-2.3446312 7.3801708-.4707851 7.3934498 4.2133026.0132809 4.6840897-3.2843552 10.3993835-7.3453751 12.7440147-4.0948524 2.3641624-7.4140625.4691086-7.4273415-4.2149811-.0132799-4.6840896 3.2844162-10.3781738 7.3792668-12.7423362z" fill="#fff"/></g><g><path d="m13.5299768 49.8623619-4.6584826-2.7072067c-1.6942501-.9846001-2.7434974-3.0768166-2.7519217-6.0483398-.0169735-5.9870949 4.1978188-13.261404 9.4278612-16.2809715 2.6144772-1.5094681 4.9874401-1.65135 6.7012272-.655405l4.658474 2.7072124c-1.7137833-.995945-2.2631378.49613-4.877615 2.0055981-5.2300415 3.0195675-10.5730362 9.0322247-10.5560627 15.0193195.0084249 2.9715232.3622648 4.9752006 2.0565196 5.959793z" fill="#ffd06c"/></g><g><path d="m29.2028046 29.889185c.2891617.8694992.446909 1.8825436.4501553 3.0274067.0032635 1.1510773-.1500778 2.35112-.4363346 3.5592422-.3927994 1.6576691-1.0360641 3.3306427-1.8707867 4.9176254-1.7211552 3.2722778-4.2550564 6.1755524-7.0785046 7.8056679-5.2300415 3.0195694-9.472311.6020355-9.4892845-5.3850975-.0169735-5.9870987 4.1978197-13.2614079 9.4278622-16.2809734 2.8260059-1.6315975 5.3698387-1.6653576 7.1040325-.3914471.0977802.0718307.1930523.1479225.2856255.228035.6209316.5374508 1.1216564 1.2593822 1.4736404 2.1508942.0090847.0230312.0164413.0425453.0237961.0617065.0384635.1001987.0751018.2025928.1097984.3069401zm-8.9497776 16.2452754c3.7192612-2.147316 6.7393837-7.3816376 6.7272224-11.6715279-.0121613-4.2899017-3.0519886-6.0060482-6.7712517-3.8587322-3.750246 2.1652088-6.7704153 7.3800945-6.7582541 11.6699963.0121623 4.2898903 3.0520354 6.0254708 6.8022834 3.8602638" fill="#febc1f"/></g></g></g><path d="m19.552433 29.1878643c-.5586433.2032127-1.0666008.5079575-1.4982948.9396515-.4064293.4064274-.7365932.9142303-.9142303 1.4984512-.0762634.1777916-.3048992.1777916-.3810081 0-.3810062-1.1428661-1.2952366-2.0570965-2.4381018-2.4381027-.1777935-.0508423-.1777935-.3047447 0-.355587.5842209-.2030582 1.0920229-.5332222 1.4984512-.9396515.4316931-.4062729.7618589-.9396515.9396505-1.4982948.0761089-.2032146.3047447-.2032146.3810081 0 .1776371.5586433.5078011 1.0920219.9142303 1.4982948.431694.4064293.9396515.7365932 1.4982948.9396515.2032148.0508423.2032148.3047447.0000001.355587z" fill="#fff"/></g><g><g><path d="m25.7335033 35.186367c.0065269 1.8313332-.6663418 3.8739395-1.7442513 5.6551933-.9820938 1.6244698-2.301712 3.0333633-3.75634 3.8717575-1.4611664.8427238-2.7916698.9581184-3.7802906.461647-1.0757294-.5357056-1.7507896-1.7943306-1.7551355-3.6169701-.0108986-3.4994011 2.4519529-7.7652893 5.500577-9.5247726 3.0464592-1.759508 5.526722-.3462543 5.5354404 3.1531449z" fill="#fff"/></g><g><g><g><g><path d="m22.2472744 38.28582c-.0878639.5783958-.3002377 1.1348915-.5784855 1.625515-.4393158.7834358-1.0544033 1.4132271-1.640173 1.7573509-.4905777.2782478-.9665394.3661118-1.3179932.1757278-.3001919-.161068-.5125656-.5125198-.5784397-1.1056633-1.0983353-.13908-.3221798-1.559639-.2855778-1.6401749l-.0219879-.4246559c.2197018-.058548.4539738-.1611595.6882915-.2929077 1.3912411-.8054276 2.9288921-2.7385063 2.95821-2.7678261.0072842.0146599.0146141.0293198.0292721.0366478.2709198.307476 1.0251312.2782478 1.0690632.2709198-.0293179.3075638-.0659199.5052795-.0732498.5198479.8420754.4173279-.1903857 1.7720147-.2489299 1.8452187z" fill="#f4d6d4"/></g></g><g><g><path d="m19.7988377 34.4283714c.9443722-.545311 1.7647457-.4907341 1.8079224-.4878616 1.0383987-.2188759 1.0405712 1.1852455.9610271 1.9820099-.000145.0014954-.7951698.034832-1.0676231-.2701378-.0110836-.012394-.0212727-.0253448-.0305347-.0389099-.0243168.0305481-1.5629044 1.9595604-2.958704 2.7654266-.235054.1357079-.4657688.2394791-.6848202.2970543l-.0423698-.7025108c-.0373802-.6741295.1926613-1.5012436.6529598-2.2195435.4110125-.6411247.8964728-1.056633 1.3621425-1.3255272z" fill="#aa6256"/></g></g><g><g><path d="m21.6714172 40.3513947c.0013065.2091255.0461044.3814011.1244946.5111351-.0408211-.067131-.0727596-.145607-.0943623-.2347794l.0017776.1943283c.0051346.951355-.6606274 2.1073112-1.4885273 2.5881195-.8315659.4801064-1.4992657.0992851-1.5043945-.8503151l-.0029602-.7167664c.3545933.1909409.8296089.1059837 1.3181381-.1760674.5921726-.3418922 1.2038441-.9735451 1.6434307-1.7540817z" fill="#f5c9c6"/></g></g><g><g><path d="m23.9892521 40.8415604c-.9820938 1.6244698-2.301712 3.0333633-3.75634 3.8717575-1.4611664.8427238-2.7916698.9581184-3.7802906.461647.3005085-.4877777.6989975-.910244 1.1410542-1.1671829.3070354-.1763992.5879517-.4812393.7882862-.834034.0326557-.0544395.0609665-.1088791.0870953-.1655006.1480885-.3092003.2351837-.6336594.2351837-.9319878v-.2329903l.0043602.7164116c0 .0413857.0021782.0827484.006525.1219292 0 .0261574.0021801.0500793.0065403.0740585.0043583.0566177.0130634.1110573.0261288.1611404.0043602.0261269.0108852.0500793.0196037.0718765.0261307.0979805.0653248.1850624.1110458.2612991.0130653.0217705.0261307.0413628.039196.0587997.0130787.0152321.0239639.0304604.0370274.043541.0130653.0195885.0283108.0370026.0457211.0522614.0196056.0196152.0392094.0369987.0609798.0544395.0217705.017437.0435543.0348206.0675049.0478973.0457344.0304909.0958138.0544395.1502533.0718803.0544395.0195885.1110592.0304604.1698456.0348206.0544395.0065384.1110592.0065384.1676788.0021782.0522594-.0043564.106699-.0108986.1611385-.0261269.0283108-.0043335.0566196-.0130539.0849304-.0239525.0283089-.0065384.0544395-.0152588.0827484-.0261307.0196037-.0065117.039196-.0152283.0609665-.0261269.0087185-.002182.0196037-.0087204.0283089-.0130806.0108986-.0043602.0217838-.0086899.0348492-.0152321.0370159-.0152283.07621-.0348473.115406-.0587959.0087185-.0021553.0152435-.0086937.023962-.0130539.0021667 0 .0021667-.0021782.0043468-.0043602.0479145-.0261307.0914688-.0544395.1371899-.0849266.0457325-.0304909.0892887-.0631332.1328297-.0980072.0196037-.0152321.0392075-.0304642.0587978-.0479012.0196056-.0174103.0413761-.0348244.0587997-.0522614.0435543-.0348206.0849285-.0740318.1219444-.1154175.0217705-.0195923.0413742-.0391808.0609665-.0609779.0196037-.0195656.0391941-.0413628.0587978-.0631332.0479145-.0544395.0958157-.1088791.13937-.1676788.0631447-.078392.1241226-.1611404.1807423-.2482491.0718517-.1132393.1415367-.2286568.2003345-.3484077.0239506-.0479012.0479012-.095829.069685-.1459084.0217705-.0479012.0413742-.0979805.0609665-.1458817.0174236-.043541.0326691-.0849304.0479126-.1284981.0195904-.0566177.039196-.1132393.0544395-.1698303.0130653-.0370293.0217705-.078392.0304775-.1154175.0087185-.0217705.0130634-.0435677.0152435-.0631332.0108986-.0435677.0196037-.0914955.0261307-.1350365.0021801-.0087166.0043583-.0152321.0043583-.0239487 0-.0043335.0021801-.0065155.0021801-.0108719.0087051-.0587997.0174255-.1175995.0217705-.172039.0043602-.0609779.0065403-.1197777.0065403-.1763992v-.2068596c0 .002182.0021782.0043602.0021782.0065384.0043468.0152321.008707.0304642.0130653.045723.0021801.0065384.0021801.0130768.0065269.0196152.0043583.0130539.0087185.026104.0130653.0370026 0 .0043602.0021782.0108986.0043583.0152588 0 .0021782 0 .0021782.0021801.0043602 0 .0021515 0 .0043335.0021801.0065117 0 0 0 .002182.0021667.002182v.0021782c.0021782.0043335.0043583.0108719.0065384.0152321.0108852.0217972.0217705.043541.0326691.0631561.0021667.0043602.006525.0108986.0087051.0152588v.002182c.1132393.1676521.2482491.2504005.4093876.2721977.0653248.0065117.0718651.0065117.0783901.0065117.1546135.0021782.3288193-.0457191.5095615-.1524467.0936356-.0522614.176384-.0958023.2591343-.1284447.2482357-.1001854.4659939-.1306763.6576233-.1045189.1023524.0108721.1938079.039181.2787364.084904z" fill="#7e5af2"/></g></g></g></g></g></g></g></svg>