<svg id="Layer_1" enable-background="new 0 0 51 51" height="512" viewBox="0 0 51 51" width="512" xmlns="http://www.w3.org/2000/svg"><g id="_x36_0"><path d="m29.5665264 19.4382935-28.0449225 16.2979736-.0216064 1.5635986 19.9334723 11.508606 28.044981-16.2979737.0215454-1.5635986z" fill="#e9e7fc"/><path d="m29.5665264 19.4382935-28.0449225 16.2979736-.0216064 1.5635986 19.9334723 11.508606 28.044981-16.2979737.0215454-1.5635986z" fill="#e9e7fc"/><g><g><g><g><g><g><g enable-background="new"><g><g><path d="m49.5000038 30.946907-.0215683 1.563591-28.0449657 16.2979508.0215683-1.5635948z" fill="#e9e7fc"/></g></g><g><g><path d="m21.4550381 47.244854-.0215683 1.5635948-19.9334673-11.5085945.0215685-1.563591z" fill="#dedffb"/></g></g><g><g><path d="m49.5000038 30.946907-28.0449657 16.297947-19.9334671-11.5085907 28.0449649-16.2979508z" fill="#f3f1fc"/></g></g></g></g></g></g></g><g><g><g enable-background="new"><g><g><path d="m24.1148872 27.4892197c-.1013889-.0585461-2.0109253-1.1611824-1.8919792-1.0925007l-1.8901482-1.0906773c-.100338.0583305-2.1666279 1.2595291-2.0348568 1.1829262-.1000252.0581264-3.8387127 2.230732-3.6012506 2.0927391-.1142511.0664177-1.9805241 1.151329-1.8793068 1.0924892-.1012592.0587673-1.9980993 1.1596317-1.8793058 1.0906887-.0902634.0524731-4.003686 2.3274803-3.9141412 2.275425 2.9250197 1.6873131 3.9665494 2.2892532 3.939467 2.273613.1013641.0585899 2.0090857 1.1612206 1.8901691 1.0924911.1014309.0584717 2.010952 1.1592751 1.8919573 1.0906754 5.1685038 2.9850998 11.3818007 6.5707436 11.3481703 6.551342 4.6030521-2.6749535 5.7361679-3.333847 5.6360855-3.2756653l.1555729-.0904388c.7931385-.4610786-2.3394489 1.3592873 7.5172253-4.3681641-4.8875848-2.819397-15.5649796-8.9850788-15.2876588-8.8249435zm13.0827675 7.7342682-1.7219467 1.0020485-1.7345963-1.0020485 1.7219467-1.0020638zm-14.9367485-2.0945511 1.7345963 1.0020523-1.7219448 1.0020599-1.7345963-1.0020599zm-1.8793278.9116134-1.7345753-1.0020523 1.7237339-1.000248 1.7345963 1.000248zm3.7712861.1808739 1.7345963 1.0020638-1.7237339 1.0020485-1.7346172-1.0020485zm1.8901481 1.0924988 1.7346172 1.0002403-1.7219448 1.0020523-1.7346172-1.0020523zm.157383-.090435 1.7219219-1.0020638 1.7345963 1.0020638-1.7219448 1.0002365zm-.157383-.0904389-1.7345982-1.0020599 1.7237339-1.0002403 1.7346191 1.0002403zm-1.8901481-1.0924988-1.7346191-1.0020523 1.7219448-1.000248 1.7346191 1.0020599zm-1.8919583-1.0924873-1.7346172-1.0002518 1.7219448-1.0020504 1.7346172 1.0020504zm-1.8901691-1.0906906-1.7345963-1.0020504 1.7219448-1.0002499 1.7345963 1.0002499zm-.157362.0904388-1.7219448 1.0020599-1.7345963-1.0020599 1.7219448-1.0020504zm-1.8793049 1.0924988-1.7219238 1.0002403-1.7346182-1.0002403 1.7219458-1.0020599zm.1573601.0886269 1.7346191 1.0020523-1.7237549 1.0020599-1.7346191-1.0020599zm1.8901481 1.0924873 1.7346191 1.0020638-1.7219448 1.0020485-1.7345963-1.0020485zm1.8919793 1.0924988 1.7345963 1.0020523-1.7237549 1.0002403-1.7345963-1.0002403zm1.8901691 1.0906792 1.7345753 1.0020485-1.7219219 1.0020638-1.7345982-1.0020638zm1.8919582 1.0924873 1.7345963 1.0020638-1.7237549 1.0020485-1.7345963-1.0020485zm.155552-.0904389 1.723732-1.0020485 1.7346191 1.0020485-1.7237549 1.0020638zm1.8793048-1.0924873 1.7237568-1.0002403 1.7327843 1.0020523-1.7219448 1.0002403zm1.8792839-1.0906753 1.7237568-1.0020638 1.7328091 1.0020638-1.7219467 1.0020485zm-.1573391-.0904389-1.7346172-1.0020599 1.7237549-1.0020523 1.7346191 1.0020523zm-1.8901691-1.0924988-1.7345963-1.0002403 1.7237549-1.0020599 1.7345963 1.0020599zm-1.8919582-1.0906791-1.7345963-1.0020599 1.7237568-1.0020504 1.7345734 1.0020504zm-1.8919792-1.0924988-1.7345963-1.0020504 1.7237549-1.0020504 1.7345963 1.0020504zm-1.8901463-1.0924874-1.7345982-1.0002518 1.7237339-1.0020504 1.7346191 1.0020504zm-1.8919582-1.0906887-1.7346191-1.0020504 1.7237549-1.0020504 1.7346191 1.0020504zm-.1555729.090437-1.7219238 1.0002518-1.7345963-1.0020504 1.7219448-1.0002518zm-1.8774739 1.0906887-1.7237549 1.0020504-1.7346191-1.0020504 1.7237549-1.0020504zm-1.8793068 1.0924892-1.7237549 1.0020599-1.7345963-1.0020599 1.7237549-1.0020504zm-1.8793058 1.0924988-1.7237558 1.0002403-1.7345963-1.0002403 1.7237339-1.0020599zm.155551.0904388 1.7345963 1.0020485-1.7219448 1.0002518-1.7345963-1.0002518zm1.8919792 1.0906754 1.7327652 1.0020638-1.7219238 1.0020485-1.7345963-1.0020485zm1.8901481 1.0924988 1.7345963 1.0020523-1.7219448 1.0002403-1.7345963-1.0002403zm1.8919583 1.0924911 1.7346172 1.0020485-1.7237549 1.0002518-1.7346191-1.0002518zm1.8901462 1.0906754 1.7346191 1.0020638-1.7219448 1.0020485-1.7346191-1.0020485zm1.8919812 1.0924988 1.7345963 1.0020523-1.7237568 1.0002518-1.7345963-1.0002518zm1.8919563 1.0924911 1.7345963 1.0020485-1.7237549 1.0002518-1.7345734-1.0002518zm.1555519-.0904388 1.7237549-1.0020523 1.7346191 1.0020523-1.7237568 1.0002518zm1.8793049-1.0924874 1.7237568-1.0020638 1.7345963 1.0020638-1.7237549 1.0020485zm1.8793068-1.0925026 1.7219448-1.0002365 1.7345963 1.0020485-1.7219219 1.0002518zm1.8793068-1.0906753 1.7219219-1.0020523 1.7346191 1.0020523-1.7219467 1.0002403zm1.7110805-3.1870384 1.7345963 1.0020523-1.7237549 1.0020599-1.7345734-1.0020599zm-.1573601-.0904389-1.7237549 1.0020523-1.7345982-1.0020523 1.7237568-1.000248zm-3.6247654-2.0927372 1.7346172 1.0020504-1.7237549 1.0020599-1.7346191-1.0020599zm-1.8919582-1.0924892 1.7346172 1.0020504-1.7237549 1.0020504-1.7346191-1.0020504zm-.157362-.090437-1.7237339 1.0020504-1.7346172-1.0020504 1.7237549-1.0002518zm-3.6247444-2.0927391 1.7345753 1.0020504-1.7237339 1.0020504-1.7345963-1.0020504zm-1.8919792-1.0924987 1.7345963 1.0020599-1.7237549 1.0020504-1.7345753-1.0020504zm-1.8919582-1.0906792 1.7345963 1.0002403-1.7237549 1.0020618-1.7345963-1.0020618zm-1.8793049 1.0906792 1.7345963 1.0020599-1.7237339 1.0020504-1.7346191-1.0020504zm-1.8793068 1.0924987 1.7345963 1.0020504-1.7219448 1.0002499-1.7345963-1.0002499zm-1.8774958 1.0924874 1.7346182 1.0002518-1.7237549 1.0020504-1.7346191-1.0020504zm-1.8793068 1.0906887 1.7345972 1.0020504-1.7237558 1.0020504-1.7345743-1.0020504zm-1.8793058 1.0924892 1.7346182 1.0020504-1.7237549 1.0020599-1.7346182-1.0020599zm-3.6012287 2.0927372 1.7219448-1.000248 1.7345743 1.000248-1.7219229 1.0020523zm3.6247654 2.0945511-1.7346182-1.0020599 1.7237549-1.0020523 1.7345972 1.0020523zm.1573391.0904389 1.7237558-1.0020638 1.7346182 1.0020638-1.7237549 1.0020485zm3.6247663 2.0927276-1.7346182-1.0020523 1.7237549-1.0002403 1.7346191 1.0002403zm1.8919573 1.0924988-1.7345963-1.0020638 1.7237549-1.0002365 1.7345963 1.0002365zm.1573849.0904388 1.723732-1.0020638 1.7345963 1.0020638-1.7237549 1.0020485zm3.6247425 2.0927391-1.7345963-1.0020638 1.7237549-1.0002403 1.7345963 1.0002403zm1.8919811 1.0924874-1.7346191-1.0020523 1.7237549-1.000248 1.7345963 1.000248zm.1573391.0904388 1.7237549-1.0020523 1.7346191 1.0020523-1.7237568 1.0020485zm3.6247654 2.0927353-1.7328091-1.000248 1.7219448-1.0020523 1.7346191 1.0002518zm1.8774948-1.0906868-1.7327862-1.0020485 1.7237568-1.0002518 1.7327862 1.0002518zm1.8793068-1.0924873-1.7328072-1.0002518 1.7237549-1.0020485 1.7328072 1.000248zm1.8793068-1.0924874-1.7327862-1.0002518 1.723732-1.0020523 1.7327881 1.0002403zm1.8793049-1.0925026-1.7328072-1.0002365 1.7219429-1.0002518 1.732811 1.0002518zm1.8792839-1.0906753-1.7345734-1.0020638 1.723732-1.0002365 1.7327881 1.0002365zm1.8793297-1.0924988-1.7346191-1.0002403 1.7237549-1.0020523 1.7328072 1.0002403z" fill="#dedffb"/></g></g><g><g><path d="m21.7186966 24.5868587 18.9199829 10.9199811 7.1499634-4.1599713-18.9099732-10.9200439z" fill="#fff"/></g></g></g></g><g opacity=".5"><g><g><path d="m7.0220003 33.0380173 19.0700083 11.0100097 5.7199707-3.3200073-3.8499756-.0499878 1.8599854-3.2700195h-3.7699585l-.0100098-2.1900025-5.6500244 1.0999756-.0200195-4.3699951h-3.7699585l-.0900269-4.4199829z" fill="#95d895"/></g></g></g></g><g><g><g><path d="m7.7275038 34.6690331-.6209288.3608436-1.2976498-.7491989.6209287-.3608437z" fill="#c9cee2"/></g></g><g><g><path d="m6.455575 35.3632011-.6209302.3608437-1.2588086-.7267723.6209302-.3608437z" fill="#c9cee2"/></g></g><g><g><path d="m9.824935 35.8799858-.6209279.3608437-1.7460923-1.0081063.6209283-.3608436z" fill="#c9cee2"/></g></g><g><g><path d="m5.2613268 36.1022186-.6209288.3608437-1.2976494-.7491989.6209288-.3608437z" fill="#c9cee2"/></g></g><g><g><path d="m9.1356201 36.9105263-.6209297.3608436-2.2439594-1.2955513.6209302-.3608436z" fill="#c9cee2"/></g></g><g><g><path d="m7.3587589 37.3131714-.6209287.3608436-1.7460919-1.0081062.6209288-.3608436z" fill="#c9cee2"/></g></g><g><g><path d="m12.3743296 37.3518791-.6209288.3608437-2.2421875-1.2945252.6209288-.3608474z" fill="#c9cee2"/></g></g><g><g><path d="m11.1889191 38.0959969-.6209307.3608474-1.7460918-1.0081062.6209306-.3608475z" fill="#c9cee2"/></g></g><g><g><path d="m14.0709963 38.3314514-.6209288.3608437-1.2588091-.7267723.6209288-.3608475z" fill="#c9cee2"/></g></g><g><g><path d="m9.9081526 38.7850647-.6209288.3608437-2.242187-1.2945252.6209288-.3608475z" fill="#c9cee2"/></g></g><g><g><path d="m18.3629627 40.8094177-.6209297.3608437-1.2976494-.7491989.6209297-.3608437z" fill="#c9cee2"/></g></g><g><g><path d="m17.0910339 41.5035858-.6209297.3608437-1.2588091-.7267723.6209297-.3608437z" fill="#c9cee2"/></g></g><g><g><path d="m20.4603939 42.0203705-.6209278.3608436-1.7460918-1.0081062.6209278-.3608436z" fill="#c9cee2"/></g></g><g><g><path d="m19.7710781 43.0509109-.6209297.3608437-2.2422104-1.2945404.6209297-.3608437z" fill="#c9cee2"/></g></g><g><g><path d="m17.9942169 43.4535561-.6209278.3608436-1.7460928-1.0081062.6209288-.3608437z" fill="#c9cee2"/></g></g><g><g><path d="m23.0115604 43.4932861-.6209297.3608475-2.2439823-1.2955666.6209278-.3608436z" fill="#c9cee2"/></g></g><g><g><path d="m21.8243542 44.2363701-.6209317.3608436-1.7460918-1.0081062.6209316-.3608436z" fill="#c9cee2"/></g></g><g><g><path d="m24.7064304 44.4718208-.6209278.3608437-1.25881-.7267723.6209297-.3608437z" fill="#c9cee2"/></g></g><g><g><path d="m20.5453835 44.9264717-.6209298.3608437-2.2439823-1.2955628.6209297-.3608436z" fill="#c9cee2"/></g></g><g><g><path d="m23.4733429 45.1884155-.6209297.3608437-1.2976494-.7491989.6209297-.3608437z" fill="#c9cee2"/></g></g><g><g><path d="m22.2402534 45.9050064-.6209278.3608437-1.2588081-.7267723.6209278-.3608437z" fill="#c9cee2"/></g></g><g><g><path d="m15.8967857 42.2426033-.6209287.3608437-1.2976504-.749199.6209288-.3608436z" fill="#c9cee2"/></g></g><g><g><path d="m12.8379087 39.0480423-.6209306.3608475-1.2976494-.7491989.6209307-.3608475z" fill="#c9cee2"/></g></g><g><g><path d="m11.6048193 39.764637-.6209288.3608437-1.2588081-.7267724.6209288-.3608474z" fill="#c9cee2"/></g></g></g></g><g><g><g><path d="m31.0245953 40.8178711c-.0004883 0-.0009766 0-.0014648 0l-3.0625-.0395508c-.0351563-.0004883-.0678711-.0195313-.0854492-.050293s-.0175781-.0683594 0-.0991211l1.7749023-3.1206055h-3.5981446c-.0551758 0-.0996094-.0444336-.1000977-.0996094l-.0092773-2.0698242-5.5317383 1.0771484c-.03125.0063477-.0595703-.0019531-.0825195-.0209961-.0229492-.0185547-.0366211-.046875-.0366211-.0766602l-.0195313-4.2705078h-3.6699218c-.0541992 0-.0986328-.043457-.1000977-.0981445-.0471821-4.5032139-.1835556-4.5168915.0078125-4.5219727h.0019531c.0541992 0 .0986328.043457.1000977.0981445l.0883789 4.3217773h3.6713867c.0551758 0 .0996094.0444336.1000977.0996094l.0195313 4.2495117 5.5317383-1.0771484c.0288086-.0087891.059082.0014648.0825195.0209961.0229492.0185547.0366211.046875.0366211.0766602l.0092773 2.0908203h3.6704102c.0356445 0 .0683594.019043.0864258.0498047s.0180664.0688477.0004883.0996094l-1.7758789 3.1230469 2.8930664.0371094c.0551758.0009766.0991211.0463867.0986328.1015625-.0009766.0546876-.0454102.0986329-.1000977.0986329z" fill="#4c5c75"/></g></g></g><g><g><path d="m16.193224 27.5097427c-.1774712.1024628-.1783066.2684898-.0023804.3707256.1762199.1024094.4626541.102354.6401234-.0001106.4220924-.2436943-.2101651-.6174774-.637743-.370615z" fill="#f45170"/></g></g><g><g><path d="m16.193224 31.761507c-.1774712.1024628-.1783066.2684879-.0023804.3707256.1762199.1024094.4626541.1023521.6401234-.0001106.1772747-.1023483.1781101-.2681465.0018902-.3705559-.1759263-.1022357-.4623585-.1024093-.6396332-.0000591z" fill="#dba660"/></g></g><g><g><path d="m19.9776039 31.761507c-.1774712.1024628-.1783066.2684879-.0023804.3707256.1762199.1024094.4626522.1023521.6401234-.0001106.1772747-.1023483.1781101-.2681465.0018902-.3705559-.1759262-.1022357-.4623604-.1024093-.6396332-.0000591z" fill="#ffd06c"/></g></g><g><g><path d="m20.0574017 36.0554276c-.1774712.1024628-.1783066.2684898-.0023804.3707237.1762199.1024094.4626541.102356.6401253-.0001106.1772747-.1023483.1781082-.2681465.0018883-.3705559-.1759263-.1022339-.4623585-.1024094-.6396332-.0000572z" fill="#f45170"/></g></g><g><g><path d="m25.7061615 35.0380783c-.1774712.1024628-.1783066.2684898-.0023804.3707237.1762199.1024094.4626541.102356.6401253-.0001106.1772728-.1023483.1781082-.2681465.0018883-.3705559-.1759262-.1022339-.4623585-.1024093-.6396332-.0000572z" fill="#986ff9"/></g></g><g><g><path d="m25.7061615 37.2212524c-.1774712.1024628-.1783066.2684898-.0023804.3707275.1762199.1024094.4626541.1023521.6401253-.0001106.1772728-.1023483.1781082-.2681465.0018883-.3705559-.1759262-.1022376-.4623585-.1024093-.6396332-.000061z" fill="#57b3fe"/></g></g><g><g><path d="m29.4313984 37.2212524c-.1774712.1024628-.1783047.2684898-.0023804.3707275.1762199.1024094.4626541.1023521.6401253-.0001106.1772747-.1023483.1781082-.2681465.0018883-.3705559-.1759262-.1022376-.4623585-.1024093-.6396332-.000061z" fill="#72d561"/></g></g><g><g><path d="m27.7043285 40.4430237c-.1774712.1024628-.1783066.2684898-.0023804.3707275.1762199.1024094.4626541.1023521.6401253-.0001106.1772747-.1023483.1781082-.2681465.0018883-.3705559-.1759262-.1022377-.4623585-.1024093-.6396332-.000061z" fill="#f45170"/></g></g><g><g><path d="m31.0845871 40.4978256c-.1774712.1024628-.1783066.2684898-.0023804.3707237.1762199.1024094.4626541.1023521.6401253-.0001106.1772747-.1023483.1781082-.2681465.0018883-.3705559-.1759262-.1022338-.4623585-.1024093-.6396332-.0000572z" fill="#bf7d5a"/></g></g></g><g><g><g><g><path d="m32.1413536 11.6481934-.0599976 15.8399658-2.6600322 1.539978-2.6799927-1.5499878.0499878-15.829956 2.6600342-1.5500489z" fill="#7e5af2"/></g></g></g><g enable-background="new"><g><g><path d="m32.1396561 11.6462154-.0542183 15.8392315-2.6616516 1.5467835.0542163-15.8392325z" fill="#7e5af2"/></g></g><g><g><path d="m29.4780025 13.1929979-.0542163 15.8392325-2.683342-1.5492268.0542164-15.8392334z" fill="#986ff9"/></g></g><g><g><path d="m32.1396561 11.6462154-2.6616536 1.5467825-2.6833419-1.5492277 2.6616516-1.5467834z" fill="#b28afd"/></g></g></g><g><g><g><path d="m28.1813335 15.828186-.0499878 13.959961-2.6699829 1.5499878-2.6799926-1.5499878.0499878-13.959961 2.6699829-1.5500488z" fill="#febc1f"/></g></g></g><g enable-background="new"><g><g><path d="m28.1811943 15.8279409-.0542164 13.9579115-2.665905 1.5492554.0542164-13.9579124z" fill="#febc1f"/></g></g><g><g><path d="m25.5152893 17.3771954-.0542164 13.9579124-2.683342-1.5492287.0542183-13.9579115z" fill="#ffd06c"/></g></g><g><g><path d="m28.1811943 15.8279409-2.665905 1.5492545-2.6833401-1.5492278 2.6659031-1.5492544z" fill="#ffde9b"/></g></g></g><g><g><g><path d="m24.2213726 20.0081787-.0599976 12.0799561-2.6600341 1.5500488-2.6799927-1.5500488.0499878-12.0799561 2.6600342-1.5499878z" fill="#656fea"/></g></g></g><g enable-background="new"><g><g><path d="m24.2184811 20.0121384-.0542164 12.0765915-2.6616516 1.5467834.0542164-12.0765915z" fill="#656fea"/></g></g><g><g><path d="m21.5568295 21.5589218-.0542164 12.0765915-2.683342-1.5492287.0542183-12.0765915z" fill="#6f93f1"/></g></g><g><g><path d="m24.2184811 20.0121384-2.6616516 1.5467834-2.6833401-1.5492287 2.6616516-1.5467834z" fill="#6bb4f9"/></g></g></g><g><g><g><path d="m20.2613506 24.1981812-.0599975 10.1900024-2.6600342 1.5499878-2.6799936-1.5499878.0500488-10.1900024 2.6699839-1.5499878z" fill="#5ec363"/></g></g></g><g enable-background="new"><g><g><path d="m20.2600212 24.1938648-.0542164 10.1952725-2.665905 1.5492515.0542164-10.1952705z" fill="#5ec363"/></g></g><g><g><path d="m17.5941162 25.7431183-.0542164 10.1952705-2.683341-1.5492248.0542164-10.1952725z" fill="#72d561"/></g></g><g><g><path d="m20.2600212 24.1938648-2.665905 1.5492535-2.683341-1.5492268 2.6659059-1.5492553z" fill="#78e75a"/></g></g></g><g><g><g><path d="m16.3013287 28.3781738-.0599976 8.3099976-2.6599741 1.5499878-2.6900024-1.5499878.0599975-8.3099976 2.6599732-1.5499878z" fill="#aa6256"/></g></g></g><g enable-background="new"><g><g><path d="m16.297308 28.3780613-.0542164 8.3139515-2.665905 1.5492554.0542173-8.3139515z" fill="#aa6256"/></g></g><g><g><path d="m13.6314039 29.9273167-.0542173 8.3139515-2.683341-1.5492287.0542173-8.3139515z" fill="#bf7d5a"/></g></g><g><g><path d="m16.297308 28.3780613-2.6659041 1.5492554-2.683341-1.5492287 2.665904-1.5492535z" fill="#dba660"/></g></g></g></g><path d="m33.4308434 10.9780273-.850769-8.2653198-.7879009-.5211792-7.7962036 3.3232422.9276123.6135864 2.1587524 1.2306519c-4.8771973 8.276001-11.1978769 14.7426758-18.8081665 19.2456055l-.0477295 1.1765137 2.7739868 1.7772827c7.9667358-4.6955567 14.5775146-11.4429932 19.6791992-20.1487427z" fill="#df3260"/><g><g><g enable-background="new"><g><g><path d="m31.7921638 2.191539.7878991.5211831.8508072 8.2653224-.7878991-.521183z" fill="#df3260"/></g></g><g><g><path d="m32.642971 10.4568615.7878991.521183-8.5072957-4.849668-.9276161-.6136041z" fill="#df3260"/></g></g><g><g><path d="m31.7921638 2.191539.8508072 8.2653225-8.6470127-4.9420891z" fill="#f45170"/></g></g></g></g><g><g enable-background="new"><g><g><path d="m29.968502 8.9563866-2.7739448-1.7772556.7575512.3635316 2.7739448 1.777256z" fill="#f45170"/></g></g><g><g><path d="m11.0003805 29.5583973-2.7739448-1.777256.0477199-1.1765537 2.7739449 1.777256z" fill="#e93565"/></g></g><g><g><path d="m11.0481005 28.3818436-2.7739468-1.7772465c7.6668339-4.5363426 14.0286036-11.0608292 18.9204025-19.4254665l2.7739353 1.7772632c-4.8917894 8.3646301-11.25356 14.8891167-18.920391 19.4254498z" fill="#f45170"/></g></g><g><g><path d="m29.968502 8.9563866.7456322.3980732c-5.1062756 8.7332039-11.7296467 15.4982071-19.7137527 20.2039375l.04772-1.1765537c7.66683-4.5363331 14.0286006-11.0608197 18.9204005-19.425457z" fill="#df3260"/></g></g></g></g></g><g><g><g><path d="m41.5258102 31.7864971-2.1980362 1.2773609c-1.2217789-.7053947-1.2282181-1.8492889-.0143776-2.554697z" fill="#ffd06c"/></g></g><g enable-background="new"><g><g><path d="m38.9852333 28.8219223c-.0966911.3639641-.3864517.7149353-.8696022.9957085-1.2138405.7054081-3.1886673.7054176-4.4104462.0000229-1.2217827-.7053947-1.2282181-1.8492889-.0143776-2.554697l2.2124138 1.277338z" fill="#ffd06c"/></g></g><g><g><path d="m43.7253342 30.5082741-2.1995239 1.278223-2.2124138-1.2773361c1.2138366-.7054043 3.1901588-.7062817 4.4119377-.0008869z" fill="#78e75a"/></g></g><g><g><path d="m43.7253342 30.5082741c.7354698.4246235 1.0289955 1.0087013.8824883 1.5598526l-3.0820122-.2816296z" fill="#f45170"/></g></g><g><g><path d="m44.6078224 32.0681267c-.0966911.3639641-.3864517.7149353-.8696022.9957085-1.2138405.7054062-3.1886673.7054176-4.4104462.0000229l2.1980362-1.2773609z" fill="#57b3fe"/></g></g></g><g><g><path d="m38.1027451 27.2620716c.7354698.4246235 1.0289955 1.0087013.8824883 1.5598507l-3.0820122-.2816277z" fill="#f45170"/></g></g><g><g><path d="m38.1027451 27.2620716-2.1995239 1.278223-2.2124138-1.277338c1.2138366-.7054043 3.190155-.7062797 4.4119377-.000885z" fill="#f45170"/></g></g></g><g><g><g><path d="m41.3988647 15.8648014-.0078277 3.3693581-7.0595513.5694732.0078316-3.369358z" fill="#f9a83d"/></g></g><g><g><path d="m45.041317 13.7481689-.0100098 3.3699951-3.6399536 2.1199951.0099487-3.3699951-7.0599976.5700073c-.0499878-.9700317.5500488-1.9500122 1.8200073-2.6900024 2.4500123-1.4199829 6.420044-1.4199829 8.880005 0z" fill="#f9a83d"/></g></g><g><g><path d="m45.0390701 13.7493458-.0078277 3.369358-3.6402054 2.1154557.0078277-3.3693581z" fill="#febc1f"/></g></g><g><g><path d="m45.0390701 13.7493458-3.6402054 2.1154556-7.0595474.5694733c-.0528641-.9665604.5495949-1.9431047 1.8217316-2.6823893 2.4454231-1.4211244 6.4209213-1.4211473 8.8780212-.0025396z" fill="#ffd06c"/></g></g><g><g><path d="m48.4913292 18.2181396-.0100098 1.4900513c0 .9299927-.6099854 1.8499756-1.8200073 2.5599976l-4.4499512-2.5700073.0099487-1.5 4.4200439-2.5700073c1.2399903.7199706 1.8599855 1.6499633 1.8499757 2.5899657z" fill="#cc104a"/></g></g><g><g><path d="m46.6677208 20.7710953-.0078316 1.4950771-4.4513244-2.5699749.0078277-1.4950771z" fill="#e93565"/></g></g><g><g><path d="m48.4938583 18.2156315-.0078316 1.4950809c-.0026207.9250736-.6107483 1.8491554-1.8261375 2.55546l.0078316-1.4950752c1.2153854-.7063084 1.8235168-1.6303902 1.8261375-2.5554657z" fill="#cc104a"/></g></g><g><g><path d="m46.643074 15.6286144c2.4570923 1.4186039 2.4700699 3.7213554.0246468 5.1424809l-4.4513283-2.5699749z" fill="#f45170"/></g></g><g><g><path d="m45.0713463 20.7681885-.0100098 1.5c-2.4500122 1.4199829-6.4199829 1.4199829-8.8800049 0-.8400269-.4900513-1.3900146-1.0700073-1.6599731-1.7000122l.0099487-1.4899902 6.6800537-.5300293z" fill="#497bfe"/></g></g><g><g><path d="m45.0680161 20.7686043c-2.4454231 1.4211235-6.4209137 1.421133-8.8823204.0000401-.8348999-.482029-1.3901062-1.066452-1.6566238-1.6883469l6.6845894-.5370064z" fill="#57b3fe"/></g></g><g><g><path d="m45.0680161 20.7686043-.0078316 1.4950867c-2.4454193 1.4211159-6.4209137 1.4211254-8.8823166.0000324-.8348999-.4820309-1.3901062-1.0664539-1.6576576-1.6960087l.0078239-1.4950695c.2675552.6295471.8227615 1.2139702 1.6576614 1.6959991 2.4614068 1.421093 6.4368973 1.4210835 8.8823205-.00004z" fill="#497bfe"/></g></g></g></g></svg>