<?xml version="1.0" encoding="utf-8"?>
<!-- Generator: Adobe Illustrator 25.2.1, SVG Export Plug-In . SVG Version: 6.00 Build 0)  -->
<svg version="1.1" id="Layer_1" xmlns="http://www.w3.org/2000/svg" xmlns:xlink="http://www.w3.org/1999/xlink" x="0px" y="0px"
	 viewBox="0 0 512 512" style="enable-background:new 0 0 512 512;" xml:space="preserve">
<style type="text/css">
	.st0{fill:#F3F1FC;}
	.st1{fill:#DEDFFB;}
	.st2{fill:#E93565;}
	.st3{fill:#F45170;}
	.st4{fill:#FFFFFF;}
	.st5{fill:#FFD06C;}
	.st6{fill:#B0B8CF;}
	.st7{fill:#78E75A;}
	.st8{fill:#5094FF;}
	.st9{fill:#BF7D5A;}
	.st10{fill:#4C5C75;}
	.st11{fill:#D84905;}
	.st12{fill:url(#SVGID_1_);}
	.st13{fill:#F67205;}
	.st14{fill:url(#SVGID_2_);}
	.st15{fill:#F69D05;}
	.st16{fill:url(#SVGID_3_);}
	.st17{opacity:0.7;fill:url(#SVGID_4_);enable-background:new    ;}
	.st18{fill:url(#SVGID_5_);}
	.st19{opacity:0.7;fill:url(#SVGID_6_);enable-background:new    ;}
	.st20{fill:url(#SVGID_7_);}
	.st21{fill:#BA3E05;}
	.st22{opacity:0.5;fill:url(#SVGID_8_);enable-background:new    ;}
	.st23{opacity:0.4;fill:url(#SVGID_9_);enable-background:new    ;}
	.st24{opacity:0.4;fill:url(#SVGID_10_);enable-background:new    ;}
	.st25{clip-path:url(#SVGID_12_);}
	.st26{fill-rule:evenodd;clip-rule:evenodd;fill:url(#SVGID_13_);}
</style>
<g>
	<g>
		<path class="st0" d="M386,316.1c0,9.8-6.9,22.6-15.8,27.6l-255,146.7c-4.9,3-8.9,3-11.8,1c0,0,0,0-1,0L63,468.7
			c-3-2-4.9-4.9-4.9-9.8l1-216.6l40.4,23.6l30.5-17.7c2-1,3.9-3.9,3.9-5.9v-8.9c0-2,2-4.9,3.9-5.9L194,195c2-1,3.9,0,3.9,2v8.9
			c0,2,2,3,3.9,2l5.9-3.9L387,100.4L386,316.1z"/>
		<path class="st1" d="M104.4,491.3L64,467.7c-3-2-4.9-4.9-4.9-9.8V242.2l40.4,23.6l1,215.6C99.4,486.4,101.4,489.4,104.4,491.3z"/>
		<path class="st0" d="M193,195c2-1,3.9,0,3.9,2v7.9c0,2,2,3,3.9,2l5.9-3.9L386,99.4l1,215.6c0,9.8-6.9,21.7-15.8,27.6l-256,147.7
			c-8.9,4.9-15.8,1-15.8-8.9V265.8l30.5-17.7c2-1,3.9-3.9,3.9-5.9v-7.9c0-2,2-4.9,3.9-5.9L193,195z"/>
		<path class="st2" d="M385,100.4L205.8,203.8l-5.9,3.9c-2,1-3.9,0-3.9-2v-8.9c0-2-2-3-3.9-2l-56.1,32.5c-2,1-3.9,3.9-3.9,5.9v8.9
			c0,2-2,4.9-3.9,5.9l-28.6,17.7l-40.4-23.6v-46.3c0-9.8,6.9-22.6,15.8-27.6l254-146.7c3.9-3,8.9-3,10.8-1l39.4,22.6
			c3,1,4.9,4.9,4.9,10.8L385,100.4z"/>
		<path class="st2" d="M380.1,44.3c-3-2-6.9-1-10.8,1L115.2,192c-8.9,4.9-15.8,16.7-15.8,27.6v46.3l-40.4-23.6v-46.3
			c0-9.8,6.9-22.6,15.8-27.6l254-146.7c3.9-3,8.9-3,10.8-1L380.1,44.3z"/>
		<path class="st3" d="M369.2,45.3c8.9-4.9,15.8-1,15.8,8.9v46.3L205.8,203.8l-5.9,3.9c-2,1-3.9,0-3.9-2v-7.9c0-2-2-3-3.9-2
			l-56.1,32.5c-2,1-3.9,3.9-3.9,5.9v7.9c0,2-2,4.9-3.9,5.9l-28.6,17.7v-46.3c0-9.8,6.9-22.6,15.8-27.6L369.2,45.3z"/>
		<path class="st4" d="M372.2,121.1l1,200.9c0,2-1,3.9-3,5.9l-255,146.7c-2,1-3,0-3-2l-1-200.9L372.2,121.1z"/>
		<g>
			<path class="st4" d="M295.4,109.3c5.9-3,9.8-1,9.8,5.9c0,5.9-4.9,13.8-9.8,16.7c-5.9,3-9.8,1-9.8-5.9
				C285.5,120.1,289.5,112.2,295.4,109.3z"/>
		</g>
		<g>
			<path class="st4" d="M327.9,90.6c5.9-3,9.8-1,9.8,5.9c0,5.9-4.9,13.8-9.8,16.7c-5.9,3-9.8,1-9.8-5.9
				C318,101.4,322,93.5,327.9,90.6z"/>
		</g>
		<g>
			<path class="st4" d="M359.4,71.9c5.9-3,9.8-1,9.8,5.9c0,5.9-3.9,13.8-9.8,16.7c-5.9,3-9.8,1-9.8-5.9
				C349.5,82.7,354.5,74.8,359.4,71.9z"/>
		</g>
	</g>
	<g>
		<path class="st4" d="M144.7,187.1c-12.8,0-22.6,9.8-22.6,22.6c0-5.9-3-11.8-6.9-16.7c-3.9-3.9-9.8-6.9-16.7-6.9
			c5.9,0,11.8-3,16.7-6.9c3.9-3.9,6.9-9.8,6.9-16.7c0,5.9,3,11.8,6.9,16.7C132.9,184.1,138.8,187.1,144.7,187.1L144.7,187.1z"/>
	</g>
</g>
<g>
	<g>
		<g>
			<g>
				<g>
					<path class="st5" d="M173.3,330.8V318l-50.2,28.6v12.8L173.3,330.8z"/>
				</g>
				<g>
					<path class="st6" d="M185.1,263.9v-12.8l-62,35.4v12.8L185.1,263.9z"/>
				</g>
				<g>
					<path class="st6" d="M269.8,274.7v-12.8l-86.6,50.2v12.8L269.8,274.7z"/>
				</g>
				<g>
					<path class="st7" d="M237.3,262.9v-11.8l-114.2,66v11.8L237.3,262.9z"/>
				</g>
				<g>
					<path class="st6" d="M290.5,202.8V190l-11.8,6.9v11.8L290.5,202.8z"/>
				</g>
				<g>
					<path class="st8" d="M269.8,214.6v-12.8l-68.9,40.4V254L269.8,214.6z"/>
				</g>
				<g>
					<path class="st6" d="M290.5,232.4v-11.8l-44.3,24.6V258L290.5,232.4z"/>
				</g>
				<g>
					<path class="st9" d="M323,244.2v-12.8L279.6,257v11.8L323,244.2z"/>
				</g>
				<g>
					<path class="st6" d="M345.6,230.4v-11.8l-14.8,7.9v12.8L345.6,230.4z"/>
				</g>
				<g>
					<path class="st10" d="M359.4,182.2l-61,33.5v12.8l61-33.5V182.2z"/>
				</g>
				<g>
					<path class="st6" d="M359.4,151.6l-61,34.5v11.8l61-33.5V151.6z"/>
				</g>
			</g>
		</g>
	</g>
	<g>
		<g>
			<g>
				<g>
					<path class="st5" d="M173.3,425.4v-12.8l-50.2,28.6v12.8L173.3,425.4z"/>
				</g>
				<g>
					<path class="st6" d="M185.1,358.4v-12.8l-62,35.4v12.8L185.1,358.4z"/>
				</g>
				<g>
					<path class="st6" d="M262.9,360.4l-79.8,46.3v11.8l79.8-45.3V360.4z"/>
				</g>
				<g>
					<path class="st7" d="M237.3,357.4v-11.8l-114.2,65v12.8L237.3,357.4z"/>
				</g>
				<g>
					<path class="st6" d="M290.5,297.4v-12.8l-11.8,6.9v11.8L290.5,297.4z"/>
				</g>
				<g>
					<path class="st8" d="M269.8,309.2v-12.8l-68.9,40.4v11.8L269.8,309.2z"/>
				</g>
				<g>
					<path class="st6" d="M283.6,318l-37.4,21.7v12.8l37.4-21.7V318z"/>
				</g>
			</g>
		</g>
	</g>
</g>
<g>
	<g id="OBJECTS">
		<g>
			<polygon class="st11" points="258.4,383.7 273.3,404.2 265.4,403.1 250.4,382.6 			"/>
			
				<linearGradient id="SVGID_1_" gradientUnits="userSpaceOnUse" x1="487.8563" y1="19.763" x2="655.9313" y2="165.6003" gradientTransform="matrix(1 0 0 -1 -203.7553 454.9268)">
				<stop  offset="0" style="stop-color:#D13F05"/>
				<stop  offset="0.2925" style="stop-color:#F67205"/>
				<stop  offset="0.3667" style="stop-color:#F67705"/>
				<stop  offset="0.4526" style="stop-color:#F68505"/>
				<stop  offset="0.5441" style="stop-color:#F69C05"/>
				<stop  offset="0.5638" style="stop-color:#F6A205"/>
				<stop  offset="0.5977" style="stop-color:#F69005"/>
				<stop  offset="0.6432" style="stop-color:#F67F05"/>
				<stop  offset="0.6931" style="stop-color:#F67505"/>
				<stop  offset="0.7553" style="stop-color:#F67205"/>
				<stop  offset="1" style="stop-color:#D13F05"/>
			</linearGradient>
			<path class="st12" d="M429.7,261.2c5,6.8,10,13.7,14.9,20.5c10.1,14.1,15.5,31.1,15.3,48.5L445,309.7
				C445.2,292.3,439.8,275.3,429.7,261.2z"/>
			<polygon class="st13" points="445,309.7 459.9,330.2 452.3,335.8 437.4,315.3 			"/>
			<polygon class="st11" points="369.3,410 384.3,430.6 381,435.8 366.1,415.2 			"/>
			
				<linearGradient id="SVGID_2_" gradientUnits="userSpaceOnUse" x1="493.1396" y1="13.6892" x2="661.2059" y2="159.5189" gradientTransform="matrix(1 0 0 -1 -203.7553 454.9268)">
				<stop  offset="0" style="stop-color:#D13F05"/>
				<stop  offset="0.2925" style="stop-color:#F67205"/>
				<stop  offset="0.3667" style="stop-color:#F67705"/>
				<stop  offset="0.4526" style="stop-color:#F68505"/>
				<stop  offset="0.5441" style="stop-color:#F69C05"/>
				<stop  offset="0.5638" style="stop-color:#F6A205"/>
				<stop  offset="0.5977" style="stop-color:#F69005"/>
				<stop  offset="0.6432" style="stop-color:#F67F05"/>
				<stop  offset="0.6931" style="stop-color:#F67505"/>
				<stop  offset="0.7553" style="stop-color:#F67205"/>
				<stop  offset="1" style="stop-color:#D13F05"/>
			</linearGradient>
			<path class="st14" d="M366.1,415.2l14.9,20.5c-21.4,8.4-44.8,9.8-67,3.9c-15.7-4.2-29.8-13-40.5-25.2l-14.9-20.5
				c10.7,12.2,24.8,21,40.5,25.2C321.3,425,344.7,423.6,366.1,415.2z"/>
			<polygon class="st15" points="374.8,411.6 389.7,432.1 384.3,430.6 369.3,410 			"/>
			
				<linearGradient id="SVGID_3_" gradientUnits="userSpaceOnUse" x1="516.7421" y1="-13.513" x2="684.811" y2="132.3189" gradientTransform="matrix(1 0 0 -1 -203.7553 454.9268)">
				<stop  offset="0" style="stop-color:#D13F05"/>
				<stop  offset="0.2925" style="stop-color:#F67205"/>
				<stop  offset="0.3667" style="stop-color:#F67705"/>
				<stop  offset="0.4526" style="stop-color:#F68505"/>
				<stop  offset="0.5441" style="stop-color:#F69C05"/>
				<stop  offset="0.5638" style="stop-color:#F6A205"/>
				<stop  offset="0.5977" style="stop-color:#F69005"/>
				<stop  offset="0.6432" style="stop-color:#F67F05"/>
				<stop  offset="0.6931" style="stop-color:#F67505"/>
				<stop  offset="0.7553" style="stop-color:#F67205"/>
				<stop  offset="1" style="stop-color:#D13F05"/>
			</linearGradient>
			<path class="st16" d="M444.7,317.3l14.9,20.5c-1.1,11.8-4.1,23.3-9.1,34c-12.5,26.6-34,48-60.8,60.3l-14.9-20.5
				c26.7-12.3,48.2-33.6,60.8-60.3C440.5,340.6,443.6,329.1,444.7,317.3z"/>
			
				<linearGradient id="SVGID_4_" gradientUnits="userSpaceOnUse" x1="454.5587" y1="53.7473" x2="640.21" y2="204.7506" gradientTransform="matrix(1 0 0 -1 -203.7553 454.9268)">
				<stop  offset="0" style="stop-color:#FFFFFF;stop-opacity:0"/>
				<stop  offset="0.2606" style="stop-color:#FFFFFF"/>
				<stop  offset="0.7553" style="stop-color:#FFFFFF"/>
				<stop  offset="1" style="stop-color:#FFFFFF;stop-opacity:0"/>
			</linearGradient>
			<path class="st17" d="M445.6,318.5c-1.1,11.8-4.1,23.3-9.1,34c-12.5,26.6-34,48-60.8,60.3l-5.5-1.5l-3.2,5.2
				c-21.4,8.4-44.8,9.8-67,3.9c-15.7-4.2-29.8-13-40.5-25.2l-0.2-10.3l-8-1.1c-13.8-23.3-15.5-53.9-1.8-83.9
				c4.1-8.9,9.2-17.2,15.3-24.8c3.2-1.4,6.3-3.1,9.4-4.8l1.4-6.9c25.3-24.3,60.3-37.7,93.6-34.5l7.2,5.8l20.2,1
				c31.3,13.1,49.3,42.1,49.3,75.1l-7.6,5.6L445.6,318.5z"/>
			
				<linearGradient id="SVGID_5_" gradientUnits="userSpaceOnUse" x1="617.6336" y1="99.5496" x2="429.3383" y2="179.0887" gradientTransform="matrix(1 0 0 -1 -203.7553 454.9268)">
				<stop  offset="0" style="stop-color:#FFAF02"/>
				<stop  offset="1" style="stop-color:#F56D05"/>
			</linearGradient>
			<path class="st18" d="M444.7,317.3c-1.1,11.8-4.1,23.3-9.1,34c-12.5,26.6-34,48-60.8,60.3l-5.5-1.5l-3.2,5.2
				c-21.4,8.4-44.8,9.8-67,3.9c-15.7-4.2-29.8-13-40.5-25.2l-0.2-10.3l-8-1.1c-13.8-23.3-15.5-53.9-1.8-83.9
				c4.1-8.9,9.2-17.2,15.3-24.8c3.2-1.4,6.3-3.1,9.4-4.8l1.4-6.9c25.3-24.3,60.3-37.7,93.6-34.5l7.2,5.8l20.2,1
				c31.3,13.1,49.3,42.1,49.3,75.1l-7.6,5.6L444.7,317.3z"/>
			
				<linearGradient id="SVGID_6_" gradientUnits="userSpaceOnUse" x1="476.885" y1="194.3772" x2="586.1711" y2="89.9169" gradientTransform="matrix(1 0 0 -1 -203.7553 454.9268)">
				<stop  offset="0" style="stop-color:#FFFFFF;stop-opacity:0"/>
				<stop  offset="0.2606" style="stop-color:#FFFFFF"/>
				<stop  offset="0.7553" style="stop-color:#FFFFFF"/>
				<stop  offset="1" style="stop-color:#FFFFFF;stop-opacity:0"/>
			</linearGradient>
			<path class="st19" d="M371.5,256.1c37.6,10.6,54,49.8,36.7,87.7c-17.3,37.8-61.8,60-99.4,49.4c-37.6-10.6-54-49.8-36.7-87.7
				S333.9,245.5,371.5,256.1z"/>
			
				<linearGradient id="SVGID_7_" gradientUnits="userSpaceOnUse" x1="470.9028" y1="129.9145" x2="620.7578" y2="129.9145" gradientTransform="matrix(1 0 0 -1 -203.7553 454.9268)">
				<stop  offset="0" style="stop-color:#CF4505"/>
				<stop  offset="1" style="stop-color:#E45905"/>
			</linearGradient>
			<path class="st20" d="M373.4,256.5c37.6,10.6,54,49.8,36.7,87.7c-17.3,37.8-61.8,60-99.4,49.4c-37.6-10.6-54-49.8-36.7-87.7
				C291.3,268,335.8,245.9,373.4,256.5z"/>
			<path class="st21" d="M316.7,394.7c-37.6-10.6-54-49.8-36.7-87.7c16-35,55.4-56.6,90.9-51.2c-37-9-80,13-96.9,50
				c-17.3,37.8-0.8,77.1,36.7,87.7c2.8,0.8,5.6,1.4,8.4,1.8C318.4,395.1,317.5,395,316.7,394.7z"/>
			
				<radialGradient id="SVGID_8_" cx="1286.9708" cy="-320.9183" r="56.0319" gradientTransform="matrix(7.290000e-02 7.410000e-02 0.4921 -0.4845 472.0643 138.2714)" gradientUnits="userSpaceOnUse">
				<stop  offset="0" style="stop-color:#FFFFFF"/>
				<stop  offset="8.578000e-02" style="stop-color:#FFFFFF;stop-opacity:0.9583"/>
				<stop  offset="0.2351" style="stop-color:#FFFFFF;stop-opacity:0.8462"/>
				<stop  offset="0.4301" style="stop-color:#FFFFFF;stop-opacity:0.6642"/>
				<stop  offset="0.6634" style="stop-color:#FFFFFF;stop-opacity:0.4119"/>
				<stop  offset="0.9261" style="stop-color:#FFFFFF;stop-opacity:9.449000e-02"/>
				<stop  offset="1" style="stop-color:#FFFFFF;stop-opacity:0"/>
			</radialGradient>
			<path class="st22" d="M412,393.3c-15.2,15-29.4,25.3-31.7,23c-2.3-2.3,8.3-16.3,23.5-31.3c15.2-15,29.4-25.3,31.7-23
				C437.8,364.3,427.3,378.3,412,393.3z"/>
			
				<linearGradient id="SVGID_9_" gradientUnits="userSpaceOnUse" x1="521.1846" y1="158.793" x2="588.7451" y2="79.529" gradientTransform="matrix(1 0 0 -1 -203.7553 454.9268)">
				<stop  offset="0" style="stop-color:#FFFFFF"/>
				<stop  offset="1" style="stop-color:#FFFFFF;stop-opacity:0"/>
			</linearGradient>
			<path class="st23" d="M423,253.3L258.5,389.6l0.1,4.4c10.7,12.2,24.8,21,40.5,25.2c3.8,1.1,7.6,1.9,11.4,2.5l128-106l-1.2-0.3
				l7.6-5.6C445.2,288.8,437.4,268.6,423,253.3z"/>
			
				<linearGradient id="SVGID_10_" gradientUnits="userSpaceOnUse" x1="481.799" y1="195.2505" x2="517.9355" y2="158.5941" gradientTransform="matrix(1 0 0 -1 -203.7553 454.9268)">
				<stop  offset="0" style="stop-color:#FFFFFF"/>
				<stop  offset="1" style="stop-color:#FFFFFF;stop-opacity:0"/>
			</linearGradient>
			<path class="st24" d="M375.5,233.6l-7.2-5.8c-9.8-0.9-19.8-0.5-29.5,1.3l-93.3,77.2c-5.2,13.7-7.2,28.5-5.8,43.1l139.7-115.6
				L375.5,233.6z"/>
			<g>
				<defs>
					<rect id="SVGID_11_" x="299.6" y="271.3" width="104.2" height="107.4"/>
				</defs>
				<clipPath id="SVGID_12_">
					<use xlink:href="#SVGID_11_"  style="overflow:visible;"/>
				</clipPath>
				<g class="st25">
					
						<linearGradient id="SVGID_13_" gradientUnits="userSpaceOnUse" x1="2500.4912" y1="1868.9265" x2="2500.4912" y2="1761.4969" gradientTransform="matrix(1 0 0 1 -2148.7554 -1490.2074)">
						<stop  offset="0" style="stop-color:#FFC000"/>
						<stop  offset="0.28" style="stop-color:#FFC000"/>
						<stop  offset="0.55" style="stop-color:#DAA600"/>
						<stop  offset="1" style="stop-color:#DAA600"/>
					</linearGradient>
					<path class="st26" d="M317.9,315c-0.5-0.5-0.9-0.9-1.3-1.4c-4.4-5.4-7.6-11.7-9.3-18.5c-1.2-4.8-1.5-9.8-1-14.7
						c0.1-2.6,0.8-5.2,2.1-7.5c0.6-1.4,2.3-2.1,3.8-1.4c0,0,0.1,0,0.1,0c3.2,1.3,6,3.5,7.9,6.4c4.9,6.4,8.1,13.8,9.5,21.7
						c0.5,2.5,0.5,5,0.7,7.5c0.1,1,0.1,1.9,0.3,2.9c0.1,0.8,0.4,1.2,1.4,1.1c3.4-0.5,7-0.3,10.3,0.7c2.9,0.7,5.8,1.7,8.6,2.9
						c4,1.6,7.6,4,10.5,7.2c0.3,0.5,0.9,0.6,1.4,0.3c0,0,0,0,0,0c0.1-0.1,0.2-0.1,0.2-0.2c0.7-0.6,1.4-1.3,2-2
						c6.5-7.4,15-12.7,24.5-15.3c3-0.9,6.2-1.3,9.4-0.9c1.4,0.2,2.8,0.6,4,1.2c0.6,0.4,0.9,1,1,1.7c0.1,0.9,0,1.8-0.3,2.7
						c-1.3,3.7-3.4,7-6.1,9.8c-6.7,7.5-15.7,12.6-25.6,14.4c-0.7,0.2-1.5,0.2-2.3,0.3c0.1,0.6,0.2,1.1,0.4,1.6c1,3.4,1.4,7,1.2,10.5
						c-0.1,4.2-0.8,8.3-2.1,12.3c-1.5,4.6-3.8,8.9-6.8,12.6c-2.9,3.5-6.9,5.9-11.4,6.8c-3.2,0.9-6.4,1.1-9.7,0.8
						c-3.2-0.4-6.4-1-9.5-1.8c-3.2-0.9-6.4-2-9.5-3.3c-5.2-1.9-9.9-4.7-14-8.3c-4.3-3.6-7.2-8.6-8.2-14.1c-0.3-2.6-0.2-5.2,0.1-7.8
						c0.4-3.4,1.3-6.7,2.7-9.9c2-5,5-9.5,8.9-13.3c1.8-1.7,3.9-3.2,5.8-4.8L317.9,315z M321.2,353.4l-0.1,0.3
						c-3.5-0.3-4.3,2.2-3.7,4.7c0.1,0.4,0.2,0.8,0.3,1.2c0.8,2.9,2.7,5.4,5.3,6.9c2.6,1.3,5.2,2.3,8,3c3.9,1.2,8.2,0.2,11.1-2.7
						c1.4-0.9,1.9-2.7,1-4.2c-0.2-0.3-0.5-0.6-0.8-0.8c-1.6-1.3-3.4-2.3-5.2-3.2c-3.1-1.3-6.2-2.4-9.4-3.5
						C325.8,354.4,323.5,354,321.2,353.4L321.2,353.4z M318.3,326.3c0-2.4-0.9-3.6-2.6-4c-1.5-0.3-3,0.3-3.8,1.6
						c-3.6,4.5-6.3,9.6-8,15c-0.2,0.9-0.3,1.8-0.1,2.7c0.2,1.7,1.7,2.8,3.4,2.6c0.8-0.1,1.6-0.6,2.1-1.2c1.3-1.8,2.5-3.6,3.6-5.5
						c1.4-2.5,2.7-5,4-7.5C317.4,328.8,317.9,327.6,318.3,326.3L318.3,326.3z M368.4,345.9c-0.1-1-0.2-2-0.4-3
						c-0.5-1.8-2.3-2.8-4-2.3c0,0,0,0,0,0c-0.1,0-0.2,0.1-0.3,0.1c-1.3,0.5-2.2,1.7-2.3,3.1c-1.1,4.6-2.2,9.1-3.1,13.8
						c-0.3,1.4-0.3,2.9,0,4.3c0.3,1.6,1.8,2.6,3.4,2.3c0.4-0.1,0.7-0.2,1-0.4c1.1-0.7,1.9-1.7,2.3-3c0.9-2.6,1.7-5.2,2.3-7.8
						C367.7,350.4,368,348,368.4,345.9L368.4,345.9z"/>
				</g>
			</g>
		</g>
	</g>
</g>
</svg>
