<?xml version="1.0" encoding="utf-8"?>
<!-- Generator: Adobe Illustrator 25.2.1, SVG Export Plug-In . SVG Version: 6.00 Build 0)  -->
<svg version="1.1" id="Layer_1" xmlns="http://www.w3.org/2000/svg" xmlns:xlink="http://www.w3.org/1999/xlink" x="0px" y="0px"
	 viewBox="0 0 512 512" style="enable-background:new 0 0 512 512;" xml:space="preserve">
<style type="text/css">
	.st0{fill:#F45170;}
	.st1{fill:#FFD06C;}
	.st2{fill:#F9A83D;}
	.st3{fill:#DF3260;}
	.st4{fill:#E93565;}
	.st5{fill:#FFFFFF;}
	.st6{fill:#D84905;}
	.st7{fill:url(#SVGID_1_);}
	.st8{fill:#F67205;}
	.st9{fill:url(#SVGID_2_);}
	.st10{fill:#F69D05;}
	.st11{fill:url(#SVGID_3_);}
	.st12{opacity:0.7;fill:url(#SVGID_4_);enable-background:new    ;}
	.st13{fill:url(#SVGID_5_);}
	.st14{opacity:0.7;fill:url(#SVGID_6_);enable-background:new    ;}
	.st15{fill:url(#SVGID_7_);}
	.st16{fill:#BA3E05;}
	.st17{opacity:0.5;fill:url(#SVGID_8_);enable-background:new    ;}
	.st18{opacity:0.4;fill:url(#SVGID_9_);enable-background:new    ;}
	.st19{opacity:0.4;fill:url(#SVGID_10_);enable-background:new    ;}
	.st20{clip-path:url(#SVGID_12_);}
	.st21{fill-rule:evenodd;clip-rule:evenodd;fill:url(#SVGID_13_);}
</style>
<g>
	<g>
		<g>
			<g>
				<path class="st0" d="M207.8,429.3c2,3.9,3,7.9,5.9,10.8C210.7,437.2,208.7,433.2,207.8,429.3z"/>
			</g>
		</g>
		<g>
			<g>
				<path class="st1" d="M207.8,429.3c2,3.9,3,7.9,5.9,10.8C210.7,437.2,208.7,433.2,207.8,429.3z"/>
			</g>
			<path class="st2" d="M207.8,429.3c2,3.9,3,7.9,5.9,10.8C210.7,437.2,208.7,433.2,207.8,429.3z"/>
		</g>
	</g>
	<path class="st0" d="M390.9,301.3c-4.9,29.5-19.7,62-39.4,88.6c-20.7,27.6-44.3,50.2-68.9,67.9c-7.9,4.9-14.8,9.8-22.6,14.8
		c-25.6,14.8-51.2,23.6-71.9,17.7c-4.9-1-8.9-3-12.8-4.9l-25.6-15.8c-13.8-7.9-23.6-23.6-27.6-42.3c-4.9-24.6-3-56.1,6.9-87.6
		l13.8,7.9c11.8-60.1,18.7-120.1,5.9-165.4l26.6,15.8c9.8,5.9,18.7,14.8,24.6,26.6c3-18.7,4.9-36.4,3-52.2
		c-2-16.7-8.9-30.5-10.8-47.3c-4.9-26.6,3-73.8,24.6-105.4l26.6,15.8c-1,6.9-3,13.8-3.9,20.7c3,0,4.9,1,7.9,3l26.6,15.8c1,1,2,1,3,2
		c1-5.9,1-12.8,2-18.7l26.6,15.8c20.7,15.8,30.5,47.3,32.5,82.7v6.9c3-6.9,6.9-12.8,10.8-19.7l26.6,15.8
		C372.2,212.7,399.8,247.1,390.9,301.3z"/>
</g>
<g>
	<path class="st3" d="M160.5,400.7L133.9,384c15.8-71.9,29.5-147.7,12.8-201.8l26.6,15.8C190,253,176.2,327.9,160.5,400.7
		L160.5,400.7z"/>
</g>
<g>
	<path class="st4" d="M176.2,486.4l-26.6-15.8c-13.8-7.9-23.6-23.6-27.6-42.3c-4.9-24.6-3-55.1,6.9-87.6l26.6,15.8
		c-8.9,31.5-11.8,63-6.9,87.6C152.6,462.8,162.5,477.5,176.2,486.4L176.2,486.4z"/>
</g>
<g>
	<path class="st3" d="M298.3,151.6l-26.6-15.8c2-25.6,4.9-52.2,6.9-77.8l26.6,15.8C303.3,100.4,301.3,126,298.3,151.6z"/>
</g>
<g>
	<path class="st4" d="M247.1,59.1l26.6,15.8c-3-2-6.9-3-11.8-3.9l-25.6-15.8C240.2,56.1,244.2,57.1,247.1,59.1z"/>
</g>
<g>
	<g>
		<path class="st4" d="M329.8,271.8L302.3,256c10.8-37.4,26.6-75.8,46.3-111.3l26.6,15.8C355.4,196.9,339.7,234.3,329.8,271.8
			L329.8,271.8z"/>
	</g>
	<g>
		<path class="st3" d="M272.7,170.3l-26.6-15.8c12.8-40.4,9.8-79.8-9.8-98.5l26.6,15.8C281.6,89.6,285.5,129,272.7,170.3z"/>
	</g>
	<g>
		<path class="st4" d="M214.6,286.5l-26.6-15.8c9.8-34.5,17.7-68.9,13.8-97.5c-2-16.7-8.9-30.5-10.8-47.3
			c-3.9-27.6,3.9-74.8,25.6-106.3l26.6,15.8c-21.7,31.5-29.5,78.8-25.6,106.3c2,16.7,8.9,30.5,10.8,47.3
			C232.4,217.6,224.5,252.1,214.6,286.5z"/>
	</g>
	<g>
		<path class="st0" d="M376.1,160.5c-3.9,52.2,23.6,85.7,14.8,140.8c-4.9,29.5-19.7,62-39.4,88.6c-20.7,27.6-44.3,50.2-68.9,67.9
			c-7.9,4.9-14.8,9.8-22.6,14.8c-25.6,14.8-51.2,23.6-71.9,17.7c-19.7-4.9-33.5-22.6-39.4-47.3c-4.9-24.6-3-55.1,6.9-87.6
			c-1,16.7,1,31.5,5.9,44.3c15.8-71.9,29.5-147.7,12.8-201.8c25.6,14.8,40.4,47.3,41.4,87.6c9.8-34.5,17.7-68.9,13.8-97.5
			c-2-16.7-8.9-30.5-10.8-47.3c-3.9-27.6,3.9-74.8,25.6-106.3c-3,14.8-5.9,26.6-3.9,39.4s4.9,23.6,9.8,32.5
			c9.8,18.7,21.7,36.4,22.6,62c12.8-40.4,9.8-79.8-9.8-98.5c14.8,1,23.6,12.8,28.6,28.6c4.9,14.8,5.9,34.5,6.9,52.2
			c2-25.6,4.9-52.2,6.9-77.8c20.7,15.8,30.5,47.3,32.5,82.7s-3,74.8-8.9,114.2C339.7,234.3,355.4,196.9,376.1,160.5L376.1,160.5z"/>
	</g>
</g>
<path class="st5" d="M321,194c-12.8,0-23.6,10.8-23.6,23.6c0-6.9-3-12.8-6.9-16.7s-9.8-6.9-16.7-6.9c6.9,0,12.8-3,16.7-6.9
	s6.9-9.8,6.9-16.7c0,6.9,3,12.8,6.9,16.7S314.1,194,321,194L321,194z"/>
<g>
	<g id="OBJECTS">
		<g>
			<polygon class="st6" points="187.1,419.7 202,440.3 194.1,439.2 179.1,418.7 			"/>
			
				<linearGradient id="SVGID_1_" gradientUnits="userSpaceOnUse" x1="416.557" y1="-16.3007" x2="584.6321" y2="129.5367" gradientTransform="matrix(1 0 0 -1 -203.7553 454.9268)">
				<stop  offset="0" style="stop-color:#D13F05"/>
				<stop  offset="0.2925" style="stop-color:#F67205"/>
				<stop  offset="0.3667" style="stop-color:#F67705"/>
				<stop  offset="0.4526" style="stop-color:#F68505"/>
				<stop  offset="0.5441" style="stop-color:#F69C05"/>
				<stop  offset="0.5638" style="stop-color:#F6A205"/>
				<stop  offset="0.5977" style="stop-color:#F69005"/>
				<stop  offset="0.6432" style="stop-color:#F67F05"/>
				<stop  offset="0.6931" style="stop-color:#F67505"/>
				<stop  offset="0.7553" style="stop-color:#F67205"/>
				<stop  offset="1" style="stop-color:#D13F05"/>
			</linearGradient>
			<path class="st7" d="M358.4,297.3c5,6.8,10,13.7,14.9,20.5c10.1,14.1,15.5,31.1,15.3,48.5l-14.9-20.5
				C373.9,328.4,368.5,311.4,358.4,297.3z"/>
			<polygon class="st8" points="373.7,345.8 388.6,366.3 381,371.9 366.1,351.3 			"/>
			<polygon class="st6" points="298,446.1 313,466.6 309.7,471.8 294.8,451.3 			"/>
			
				<linearGradient id="SVGID_2_" gradientUnits="userSpaceOnUse" x1="421.8404" y1="-22.3745" x2="589.9066" y2="123.4552" gradientTransform="matrix(1 0 0 -1 -203.7553 454.9268)">
				<stop  offset="0" style="stop-color:#D13F05"/>
				<stop  offset="0.2925" style="stop-color:#F67205"/>
				<stop  offset="0.3667" style="stop-color:#F67705"/>
				<stop  offset="0.4526" style="stop-color:#F68505"/>
				<stop  offset="0.5441" style="stop-color:#F69C05"/>
				<stop  offset="0.5638" style="stop-color:#F6A205"/>
				<stop  offset="0.5977" style="stop-color:#F69005"/>
				<stop  offset="0.6432" style="stop-color:#F67F05"/>
				<stop  offset="0.6931" style="stop-color:#F67505"/>
				<stop  offset="0.7553" style="stop-color:#F67205"/>
				<stop  offset="1" style="stop-color:#D13F05"/>
			</linearGradient>
			<path class="st9" d="M294.8,451.3l14.9,20.5c-21.4,8.4-44.8,9.8-67,3.9c-15.7-4.2-29.8-13-40.5-25.2L187.3,430
				c10.7,12.2,24.8,21,40.5,25.2C250,461.1,273.4,459.7,294.8,451.3z"/>
			<polygon class="st10" points="303.5,447.6 318.4,468.2 313,466.6 298,446.1 			"/>
			
				<linearGradient id="SVGID_3_" gradientUnits="userSpaceOnUse" x1="445.4429" y1="-49.5767" x2="613.5117" y2="96.2552" gradientTransform="matrix(1 0 0 -1 -203.7553 454.9268)">
				<stop  offset="0" style="stop-color:#D13F05"/>
				<stop  offset="0.2925" style="stop-color:#F67205"/>
				<stop  offset="0.3667" style="stop-color:#F67705"/>
				<stop  offset="0.4526" style="stop-color:#F68505"/>
				<stop  offset="0.5441" style="stop-color:#F69C05"/>
				<stop  offset="0.5638" style="stop-color:#F6A205"/>
				<stop  offset="0.5977" style="stop-color:#F69005"/>
				<stop  offset="0.6432" style="stop-color:#F67F05"/>
				<stop  offset="0.6931" style="stop-color:#F67505"/>
				<stop  offset="0.7553" style="stop-color:#F67205"/>
				<stop  offset="1" style="stop-color:#D13F05"/>
			</linearGradient>
			<path class="st11" d="M373.4,353.4l14.9,20.5c-1.1,11.8-4.1,23.3-9.1,34c-12.5,26.6-34,48-60.8,60.3l-14.9-20.5
				c26.7-12.3,48.2-33.6,60.8-60.3C369.2,376.7,372.3,365.2,373.4,353.4z"/>
			
				<linearGradient id="SVGID_4_" gradientUnits="userSpaceOnUse" x1="383.2595" y1="17.6836" x2="568.9106" y2="168.6869" gradientTransform="matrix(1 0 0 -1 -203.7553 454.9268)">
				<stop  offset="0" style="stop-color:#FFFFFF;stop-opacity:0"/>
				<stop  offset="0.2606" style="stop-color:#FFFFFF"/>
				<stop  offset="0.7553" style="stop-color:#FFFFFF"/>
				<stop  offset="1" style="stop-color:#FFFFFF;stop-opacity:0"/>
			</linearGradient>
			<path class="st12" d="M374.3,354.5c-1.1,11.8-4.1,23.3-9.1,34c-12.5,26.6-34,48-60.8,60.3l-5.5-1.5l-3.2,5.2
				c-21.4,8.4-44.8,9.8-67,3.9c-15.7-4.2-29.8-13-40.5-25.2l-0.2-10.3l-8-1.1c-13.8-23.3-15.5-53.9-1.8-83.9
				c4.1-8.9,9.2-17.2,15.3-24.8c3.2-1.4,6.3-3.1,9.4-4.8l1.4-6.9c25.3-24.3,60.3-37.7,93.6-34.5l7.2,5.8l20.2,1
				c31.3,13.1,49.3,42.1,49.3,75.1l-7.6,5.6L374.3,354.5z"/>
			
				<linearGradient id="SVGID_5_" gradientUnits="userSpaceOnUse" x1="546.3344" y1="63.4859" x2="358.039" y2="143.025" gradientTransform="matrix(1 0 0 -1 -203.7553 454.9268)">
				<stop  offset="0" style="stop-color:#FFAF02"/>
				<stop  offset="1" style="stop-color:#F56D05"/>
			</linearGradient>
			<path class="st13" d="M373.4,353.4c-1.1,11.8-4.1,23.3-9.1,34c-12.5,26.6-34,48-60.8,60.3l-5.5-1.5l-3.2,5.2
				c-21.4,8.4-44.8,9.8-67,3.9c-15.7-4.2-29.8-13-40.5-25.2l-0.2-10.3l-8-1.1c-13.8-23.3-15.5-53.9-1.8-83.9
				c4.1-8.9,9.2-17.2,15.3-24.8c3.2-1.4,6.3-3.1,9.4-4.8l1.4-6.9c25.3-24.3,60.3-37.7,93.6-34.5l7.2,5.8l20.2,1
				c31.3,13.1,49.3,42.1,49.3,75.1l-7.6,5.6L373.4,353.4z"/>
			
				<linearGradient id="SVGID_6_" gradientUnits="userSpaceOnUse" x1="405.5857" y1="158.3135" x2="514.8719" y2="53.8532" gradientTransform="matrix(1 0 0 -1 -203.7553 454.9268)">
				<stop  offset="0" style="stop-color:#FFFFFF;stop-opacity:0"/>
				<stop  offset="0.2606" style="stop-color:#FFFFFF"/>
				<stop  offset="0.7553" style="stop-color:#FFFFFF"/>
				<stop  offset="1" style="stop-color:#FFFFFF;stop-opacity:0"/>
			</linearGradient>
			<path class="st14" d="M300.2,292.1c37.6,10.6,54,49.8,36.7,87.7c-17.3,37.8-61.8,60-99.4,49.4c-37.6-10.6-54-49.8-36.7-87.7
				S262.6,281.5,300.2,292.1z"/>
			
				<linearGradient id="SVGID_7_" gradientUnits="userSpaceOnUse" x1="399.6035" y1="93.8508" x2="549.4586" y2="93.8508" gradientTransform="matrix(1 0 0 -1 -203.7553 454.9268)">
				<stop  offset="0" style="stop-color:#CF4505"/>
				<stop  offset="1" style="stop-color:#E45905"/>
			</linearGradient>
			<path class="st15" d="M302.1,292.5c37.6,10.6,54,49.8,36.7,87.7c-17.3,37.8-61.8,60-99.4,49.4c-37.6-10.6-54-49.8-36.7-87.7
				C220,304.1,264.5,282,302.1,292.5z"/>
			<path class="st16" d="M245.4,430.8c-37.6-10.6-54-49.8-36.7-87.7c16-35,55.4-56.6,90.9-51.2c-37-9-80,13-96.9,50
				c-17.3,37.8-0.8,77.1,36.7,87.7c2.8,0.8,5.6,1.4,8.4,1.8C247.1,431.2,246.2,431,245.4,430.8z"/>
			
				<radialGradient id="SVGID_8_" cx="1052.9717" cy="-431.1413" r="56.0319" gradientTransform="matrix(7.290000e-02 7.410000e-02 0.4921 -0.4845 472.0643 138.2714)" gradientUnits="userSpaceOnUse">
				<stop  offset="0" style="stop-color:#FFFFFF"/>
				<stop  offset="8.578000e-02" style="stop-color:#FFFFFF;stop-opacity:0.9583"/>
				<stop  offset="0.2351" style="stop-color:#FFFFFF;stop-opacity:0.8462"/>
				<stop  offset="0.4301" style="stop-color:#FFFFFF;stop-opacity:0.6642"/>
				<stop  offset="0.6634" style="stop-color:#FFFFFF;stop-opacity:0.4119"/>
				<stop  offset="0.9261" style="stop-color:#FFFFFF;stop-opacity:9.449000e-02"/>
				<stop  offset="1" style="stop-color:#FFFFFF;stop-opacity:0"/>
			</radialGradient>
			<path class="st17" d="M340.7,429.3c-15.2,15-29.4,25.3-31.7,23c-2.3-2.3,8.3-16.3,23.5-31.3c15.2-15,29.4-25.3,31.7-23
				C366.5,400.3,356,414.3,340.7,429.3z"/>
			
				<linearGradient id="SVGID_9_" gradientUnits="userSpaceOnUse" x1="449.8853" y1="122.7293" x2="517.4459" y2="43.4654" gradientTransform="matrix(1 0 0 -1 -203.7553 454.9268)">
				<stop  offset="0" style="stop-color:#FFFFFF"/>
				<stop  offset="1" style="stop-color:#FFFFFF;stop-opacity:0"/>
			</linearGradient>
			<path class="st18" d="M351.7,289.4L187.2,425.6l0.1,4.4c10.7,12.2,24.8,21,40.5,25.2c3.8,1.1,7.6,1.9,11.4,2.5l128-106l-1.2-0.3
				l7.6-5.6C373.9,324.9,366.1,304.6,351.7,289.4z"/>
			
				<linearGradient id="SVGID_10_" gradientUnits="userSpaceOnUse" x1="410.4997" y1="159.1868" x2="446.6363" y2="122.5304" gradientTransform="matrix(1 0 0 -1 -203.7553 454.9268)">
				<stop  offset="0" style="stop-color:#FFFFFF"/>
				<stop  offset="1" style="stop-color:#FFFFFF;stop-opacity:0"/>
			</linearGradient>
			<path class="st19" d="M304.2,269.6l-7.2-5.8c-9.8-0.9-19.8-0.5-29.5,1.3l-93.3,77.2c-5.2,13.7-7.2,28.5-5.8,43.1L308,269.8
				L304.2,269.6z"/>
			<g>
				<defs>
					<rect id="SVGID_11_" x="228.3" y="307.4" width="104.2" height="107.4"/>
				</defs>
				<clipPath id="SVGID_12_">
					<use xlink:href="#SVGID_11_"  style="overflow:visible;"/>
				</clipPath>
				<g class="st20">
					
						<linearGradient id="SVGID_13_" gradientUnits="userSpaceOnUse" x1="2429.1919" y1="1904.9901" x2="2429.1919" y2="1797.5605" gradientTransform="matrix(1 0 0 1 -2148.7554 -1490.2074)">
						<stop  offset="0" style="stop-color:#FFC000"/>
						<stop  offset="0.28" style="stop-color:#FFC000"/>
						<stop  offset="0.55" style="stop-color:#DAA600"/>
						<stop  offset="1" style="stop-color:#DAA600"/>
					</linearGradient>
					<path class="st21" d="M246.6,351.1c-0.5-0.5-0.9-0.9-1.3-1.4c-4.4-5.4-7.6-11.7-9.3-18.5c-1.2-4.8-1.5-9.8-1-14.7
						c0.1-2.6,0.8-5.2,2.1-7.5c0.6-1.4,2.3-2.1,3.8-1.4c0,0,0.1,0,0.1,0c3.2,1.3,6,3.5,7.9,6.4c4.9,6.4,8.1,13.8,9.5,21.7
						c0.5,2.5,0.5,5,0.7,7.5c0.1,1,0.1,1.9,0.3,2.9c0.1,0.8,0.4,1.2,1.4,1.1c3.4-0.5,7-0.3,10.3,0.7c2.9,0.7,5.8,1.7,8.6,2.9
						c4,1.6,7.6,4,10.5,7.2c0.3,0.5,0.9,0.6,1.4,0.3c0,0,0,0,0,0c0.1-0.1,0.2-0.1,0.2-0.2c0.7-0.6,1.4-1.3,2-2
						c6.5-7.4,15-12.7,24.5-15.3c3-0.9,6.2-1.3,9.4-0.9c1.4,0.2,2.8,0.6,4,1.2c0.6,0.4,0.9,1,1,1.7c0.1,0.9,0,1.8-0.3,2.7
						c-1.3,3.7-3.4,7-6.1,9.8c-6.7,7.5-15.7,12.6-25.6,14.4c-0.7,0.2-1.5,0.2-2.3,0.3c0.1,0.6,0.2,1.1,0.4,1.6c1,3.4,1.4,7,1.2,10.5
						c-0.1,4.2-0.8,8.3-2.1,12.3c-1.5,4.6-3.8,8.9-6.8,12.6c-2.9,3.5-6.9,5.9-11.4,6.8c-3.2,0.9-6.4,1.1-9.7,0.8
						c-3.2-0.4-6.4-1-9.5-1.8c-3.2-0.9-6.4-2-9.5-3.3c-5.2-1.9-9.9-4.7-14-8.3c-4.3-3.6-7.2-8.6-8.2-14.1c-0.3-2.6-0.2-5.2,0.1-7.8
						c0.4-3.4,1.3-6.7,2.7-9.9c2-5,5-9.5,8.9-13.3c1.8-1.7,3.9-3.2,5.8-4.8L246.6,351.1z M249.9,389.5l-0.1,0.3
						c-3.5-0.3-4.3,2.2-3.7,4.7c0.1,0.4,0.2,0.8,0.3,1.2c0.8,2.9,2.7,5.4,5.3,6.9c2.6,1.3,5.2,2.3,8,3c3.9,1.2,8.2,0.2,11.1-2.7
						c1.4-0.9,1.9-2.7,1-4.2c-0.2-0.3-0.5-0.6-0.8-0.8c-1.6-1.3-3.4-2.3-5.2-3.2c-3.1-1.3-6.2-2.4-9.4-3.5
						C254.5,390.5,252.2,390,249.9,389.5L249.9,389.5z M247,362.4c0-2.4-0.9-3.6-2.6-4c-1.5-0.3-3,0.3-3.8,1.6
						c-3.6,4.5-6.3,9.6-8,15c-0.2,0.9-0.3,1.8-0.1,2.7c0.2,1.7,1.7,2.8,3.4,2.6c0.8-0.1,1.6-0.6,2.1-1.2c1.3-1.8,2.5-3.6,3.6-5.5
						c1.4-2.5,2.7-5,4-7.5C246.1,364.9,246.6,363.6,247,362.4L247,362.4z M297.1,381.9c-0.1-1-0.2-2-0.4-3c-0.5-1.8-2.3-2.8-4-2.3
						c0,0,0,0,0,0c-0.1,0-0.2,0.1-0.3,0.1c-1.3,0.5-2.2,1.7-2.3,3.1c-1.1,4.6-2.2,9.1-3.1,13.8c-0.3,1.4-0.3,2.9,0,4.3
						c0.3,1.6,1.8,2.6,3.4,2.3c0.4-0.1,0.7-0.2,1-0.4c1.1-0.7,1.9-1.7,2.3-3c0.9-2.6,1.7-5.2,2.3-7.8
						C296.4,386.5,296.7,384,297.1,381.9L297.1,381.9z"/>
				</g>
			</g>
		</g>
	</g>
</g>
</svg>
