<?xml version="1.0" encoding="utf-8"?>
<!-- Generator: Adobe Illustrator 25.2.1, SVG Export Plug-In . SVG Version: 6.00 Build 0)  -->
<svg version="1.1" id="Layer_1" xmlns="http://www.w3.org/2000/svg" xmlns:xlink="http://www.w3.org/1999/xlink" x="0px" y="0px"
	 viewBox="0 0 512 512" style="enable-background:new 0 0 512 512;" xml:space="preserve">
<style type="text/css">
	.st0{fill:#FFD06C;}
	.st1{fill:#FEBC1F;}
	.st2{fill:#F45170;}
	.st3{fill:#4C5C75;}
	.st4{fill:#D84905;}
	.st5{fill:url(#SVGID_1_);}
	.st6{fill:#F67205;}
	.st7{fill:url(#SVGID_2_);}
	.st8{fill:#F69D05;}
	.st9{fill:url(#SVGID_3_);}
	.st10{opacity:0.7;fill:url(#SVGID_4_);enable-background:new    ;}
	.st11{fill:url(#SVGID_5_);}
	.st12{opacity:0.7;fill:url(#SVGID_6_);enable-background:new    ;}
	.st13{fill:url(#SVGID_7_);}
	.st14{fill:#BA3E05;}
	.st15{opacity:0.5;fill:url(#SVGID_8_);enable-background:new    ;}
	.st16{opacity:0.4;fill:url(#SVGID_9_);enable-background:new    ;}
	.st17{opacity:0.4;fill:url(#SVGID_10_);enable-background:new    ;}
	.st18{clip-path:url(#SVGID_12_);}
	.st19{fill-rule:evenodd;clip-rule:evenodd;fill:url(#SVGID_13_);}
</style>
<g>
	<g>
		<path class="st0" d="M283.6,443.1c-1,1-3,1-3.9,0l-2-3.9c-1-2-3-2-3.9,0l-24.6,52.2c-3,4.9-9.8,4.9-12.8,0l-27.6-55.1
			c-1-2-3-1-3.9,1l-1,3c0,2-3,2-3.9,1c-14.8-27.6-19.7-55.1-8.9-81.7h104.4C295.4,359.4,308.2,410.6,283.6,443.1L283.6,443.1z"/>
		<path class="st0" d="M295.4,359.4c0,0,11.8,51.2-11.8,84.7c-1,1-3,1-3.9,0l-2-3.9c-1-2-3-2-3.9,0l-24.6,52.2
			c-3,4.9-9.8,5.9-12.8,0l-27.6-54.2c-1-2-3-1-3.9,0l-1,3c0,2-3,2-3.9,0c-14.8-27.6-19.7-55.1-8.9-81.7L295.4,359.4z"/>
		<path class="st1" d="M275.7,379.1c0,0,7.9,34.5-7.9,56.1c-1,1-2,1-2,0l-1-3c0-1-2-1-3,0l-16.7,34.5c-2,3.9-6.9,3.9-8.9,0
			l-18.7-36.4c-1-1-2-1-3,0v2c0,1-2,1-3,0c-9.8-18.7-12.8-36.4-5.9-54.2L275.7,379.1z"/>
		<g>
			<path class="st2" d="M261.9,407.6c-1,1-2,1-2,0l-1-2c0-1-2-1-2,0l-12.8,27.6c-1,3-5.9,3-6.9,0l-14.8-29.5c0-1-2-1-2,0v1
				c0,1-2,1-2,0c-7.9-14.8-10.8-29.5-4.9-44.3l56.1,1C268.8,362.3,275.7,389.9,261.9,407.6L261.9,407.6z"/>
			<path class="st2" d="M268.8,362.3c0,0,6.9,27.6-6.9,45.3c-1,1-2,1-2,0l-1-2c0-1-2-1-2,0l-12.8,27.6c-1,3-5.9,3-6.9,0l-14.8-29.5
				c0-1-2-1-2,0v1c0,1-2,1-2,0c-7.9-14.8-10.8-29.5-4.9-44.3L268.8,362.3z"/>
		</g>
	</g>
	<g>
		<path class="st3" d="M315.1,271.8c-3,30.5-6.9,62-12.8,84.7c0,1-1,3-1,3.9c-2,6.9-7.9,13.8-16.7,19.7c-24.6,16.7-66,17.7-92.6,3
			c-8.9-4.9-15.8-11.8-17.7-18.7c-2-6.9,0,0,0-1c0-1-1-2-1-2c-5.9-19.7-11.8-46.3-15.8-72.9L315.1,271.8z"/>
		<path class="st3" d="M157.5,287.5c3.9,26.6,8.9,53.2,15.8,72.9v1c0,1,0,2,1,2v1c3,6.9,8.9,13.8,18.7,18.7
			c25.6,14.8,67,13.8,92.6-3c8.9-5.9,14.8-12.8,16.7-19.7c0-1,1-3,1-3.9c5.9-22.6,9.8-54.2,11.8-84.7L157.5,287.5z"/>
	</g>
</g>
<g>
	<g id="OBJECTS">
		<g>
			<polygon class="st4" points="114.8,242.5 134.7,269.9 124.1,268.5 104.2,241.1 			"/>
			
				<linearGradient id="SVGID_1_" gradientUnits="userSpaceOnUse" x1="352.813" y1="143.7245" x2="576.9131" y2="338.1742" gradientTransform="matrix(1 0 0 -1 -203.7553 454.9268)">
				<stop  offset="0" style="stop-color:#D13F05"/>
				<stop  offset="0.2925" style="stop-color:#F67205"/>
				<stop  offset="0.3667" style="stop-color:#F67705"/>
				<stop  offset="0.4526" style="stop-color:#F68505"/>
				<stop  offset="0.5441" style="stop-color:#F69C05"/>
				<stop  offset="0.5638" style="stop-color:#F6A205"/>
				<stop  offset="0.5977" style="stop-color:#F69005"/>
				<stop  offset="0.6432" style="stop-color:#F67F05"/>
				<stop  offset="0.6931" style="stop-color:#F67505"/>
				<stop  offset="0.7553" style="stop-color:#F67205"/>
				<stop  offset="1" style="stop-color:#D13F05"/>
			</linearGradient>
			<path class="st5" d="M343.2,79.3c6.6,9.1,13.3,18.3,19.9,27.4c13.5,18.8,20.6,41.5,20.4,64.6l-19.9-27.4
				C363.8,120.8,356.7,98.1,343.2,79.3z"/>
			<polygon class="st6" points="363.6,143.9 383.5,171.3 373.4,178.7 353.4,151.4 			"/>
			<polygon class="st4" points="262.7,277.7 282.6,305.1 278.3,312 258.4,284.6 			"/>
			
				<linearGradient id="SVGID_2_" gradientUnits="userSpaceOnUse" x1="359.8575" y1="135.6261" x2="583.9458" y2="330.0656" gradientTransform="matrix(1 0 0 -1 -203.7553 454.9268)">
				<stop  offset="0" style="stop-color:#D13F05"/>
				<stop  offset="0.2925" style="stop-color:#F67205"/>
				<stop  offset="0.3667" style="stop-color:#F67705"/>
				<stop  offset="0.4526" style="stop-color:#F68505"/>
				<stop  offset="0.5441" style="stop-color:#F69C05"/>
				<stop  offset="0.5638" style="stop-color:#F6A205"/>
				<stop  offset="0.5977" style="stop-color:#F69005"/>
				<stop  offset="0.6432" style="stop-color:#F67F05"/>
				<stop  offset="0.6931" style="stop-color:#F67505"/>
				<stop  offset="0.7553" style="stop-color:#F67205"/>
				<stop  offset="1" style="stop-color:#D13F05"/>
			</linearGradient>
			<path class="st7" d="M258.4,284.6l19.9,27.4c-28.5,11.2-59.8,13-89.4,5.2c-20.9-5.6-39.7-17.3-54-33.6L115,256.2
				c14.3,16.3,33.1,28,54,33.6C198.6,297.7,229.9,295.8,258.4,284.6z"/>
			<polygon class="st8" points="270,279.7 289.9,307.1 282.6,305.1 262.7,277.7 			"/>
			
				<linearGradient id="SVGID_3_" gradientUnits="userSpaceOnUse" x1="391.3275" y1="99.3564" x2="615.4193" y2="293.7989" gradientTransform="matrix(1 0 0 -1 -203.7553 454.9268)">
				<stop  offset="0" style="stop-color:#D13F05"/>
				<stop  offset="0.2925" style="stop-color:#F67205"/>
				<stop  offset="0.3667" style="stop-color:#F67705"/>
				<stop  offset="0.4526" style="stop-color:#F68505"/>
				<stop  offset="0.5441" style="stop-color:#F69C05"/>
				<stop  offset="0.5638" style="stop-color:#F6A205"/>
				<stop  offset="0.5977" style="stop-color:#F69005"/>
				<stop  offset="0.6432" style="stop-color:#F67F05"/>
				<stop  offset="0.6931" style="stop-color:#F67505"/>
				<stop  offset="0.7553" style="stop-color:#F67205"/>
				<stop  offset="1" style="stop-color:#D13F05"/>
			</linearGradient>
			<path class="st9" d="M363.1,154.1l19.9,27.4c-1.4,15.7-5.5,31-12.2,45.3c-16.7,35.5-45.4,64-81,80.3L270,279.7
				c35.6-16.4,64.3-44.8,81-80.3C357.6,185.1,361.7,169.8,363.1,154.1z"/>
			
				<linearGradient id="SVGID_4_" gradientUnits="userSpaceOnUse" x1="308.4163" y1="189.0369" x2="555.9512" y2="390.3745" gradientTransform="matrix(1 0 0 -1 -203.7553 454.9268)">
				<stop  offset="0" style="stop-color:#FFFFFF;stop-opacity:0"/>
				<stop  offset="0.2606" style="stop-color:#FFFFFF"/>
				<stop  offset="0.7553" style="stop-color:#FFFFFF"/>
				<stop  offset="1" style="stop-color:#FFFFFF;stop-opacity:0"/>
			</linearGradient>
			<path class="st10" d="M364.4,155.6c-1.4,15.7-5.5,31-12.2,45.3c-16.7,35.5-45.4,64-81,80.3l-7.3-2l-4.3,6.9
				c-28.5,11.2-59.8,13-89.4,5.2c-20.9-5.6-39.7-17.3-54-33.6l-0.2-13.7l-10.6-1.4c-18.4-31.1-20.7-71.9-2.4-111.9
				c5.4-11.8,12.3-22.9,20.4-33c4.3-1.9,8.5-4.1,12.5-6.5l1.8-9.2c33.7-32.4,80.5-50.3,124.8-46l9.6,7.8l27,1.4
				c41.7,17.5,65.8,56.2,65.7,100.2l-10.1,7.4L364.4,155.6z"/>
			
				<linearGradient id="SVGID_5_" gradientUnits="userSpaceOnUse" x1="525.8494" y1="250.1066" x2="274.789" y2="356.1587" gradientTransform="matrix(1 0 0 -1 -203.7553 454.9268)">
				<stop  offset="0" style="stop-color:#FFAF02"/>
				<stop  offset="1" style="stop-color:#F56D05"/>
			</linearGradient>
			<path class="st11" d="M363.1,154.1c-1.4,15.7-5.5,31-12.2,45.3c-16.7,35.5-45.4,64-81,80.3l-7.3-2l-4.3,6.9
				c-28.5,11.2-59.8,13-89.4,5.2c-20.9-5.6-39.7-17.3-54-33.6l-0.2-13.7l-10.6-1.4c-18.4-31.1-20.7-71.9-2.4-111.9
				c5.4-11.8,12.3-22.9,20.4-33c4.3-1.9,8.5-4.1,12.5-6.5l1.8-9.2c33.7-32.4,80.4-50.3,124.8-46l9.6,7.8l27,1.4
				c41.7,17.5,65.8,56.2,65.7,100.2l-10.1,7.4L363.1,154.1z"/>
			
				<linearGradient id="SVGID_6_" gradientUnits="userSpaceOnUse" x1="338.1846" y1="376.5434" x2="483.8995" y2="237.263" gradientTransform="matrix(1 0 0 -1 -203.7553 454.9268)">
				<stop  offset="0" style="stop-color:#FFFFFF;stop-opacity:0"/>
				<stop  offset="0.2606" style="stop-color:#FFFFFF"/>
				<stop  offset="0.7553" style="stop-color:#FFFFFF"/>
				<stop  offset="1" style="stop-color:#FFFFFF;stop-opacity:0"/>
			</linearGradient>
			<path class="st12" d="M265.5,72.4c50.1,14.1,72,66.5,49,116.9c-23.1,50.5-82.4,80-132.5,65.9c-50.1-14.1-72-66.5-49-116.9
				S215.4,58.3,265.5,72.4z"/>
			
				<linearGradient id="SVGID_7_" gradientUnits="userSpaceOnUse" x1="330.2083" y1="290.5931" x2="530.015" y2="290.5931" gradientTransform="matrix(1 0 0 -1 -203.7553 454.9268)">
				<stop  offset="0" style="stop-color:#CF4505"/>
				<stop  offset="1" style="stop-color:#E45905"/>
			</linearGradient>
			<path class="st13" d="M268.1,72.9c50.1,14.1,72,66.5,49,116.9c-23.1,50.5-82.4,80-132.5,65.9c-50.1-14.1-72-66.5-49-116.9
				C158.7,88.3,218,58.8,268.1,72.9z"/>
			<path class="st14" d="M192.5,257.3c-50.1-14.1-72-66.5-49-116.9c21.4-46.7,73.8-75.4,121.3-68.2
				c-49.4-11.9-106.6,17.3-129.2,66.7c-23.1,50.5-1.1,102.8,49,116.9c3.7,1,7.5,1.8,11.2,2.4C194.7,257.8,193.6,257.6,192.5,257.3z"
				/>
			
				<radialGradient id="SVGID_8_" cx="-300.8215" cy="-276.2255" r="74.7092" gradientTransform="matrix(7.290000e-02 7.410000e-02 0.4921 -0.4845 472.0643 138.2714)" gradientUnits="userSpaceOnUse">
				<stop  offset="0" style="stop-color:#FFFFFF"/>
				<stop  offset="8.578000e-02" style="stop-color:#FFFFFF;stop-opacity:0.9583"/>
				<stop  offset="0.2351" style="stop-color:#FFFFFF;stop-opacity:0.8462"/>
				<stop  offset="0.4301" style="stop-color:#FFFFFF;stop-opacity:0.6642"/>
				<stop  offset="0.6634" style="stop-color:#FFFFFF;stop-opacity:0.4119"/>
				<stop  offset="0.9261" style="stop-color:#FFFFFF;stop-opacity:9.449000e-02"/>
				<stop  offset="1" style="stop-color:#FFFFFF;stop-opacity:0"/>
			</radialGradient>
			<path class="st15" d="M319.7,255.3c-20.3,20-39.2,33.7-42.2,30.7c-3-3.1,11-21.7,31.3-41.7c20.3-20,39.2-33.7,42.2-30.7
				C354,216.7,340,235.4,319.7,255.3z"/>
			
				<linearGradient id="SVGID_9_" gradientUnits="userSpaceOnUse" x1="397.2507" y1="329.0977" x2="487.3315" y2="223.4125" gradientTransform="matrix(1 0 0 -1 -203.7553 454.9268)">
				<stop  offset="0" style="stop-color:#FFFFFF"/>
				<stop  offset="1" style="stop-color:#FFFFFF;stop-opacity:0"/>
			</linearGradient>
			<path class="st16" d="M334.3,68.8L114.9,250.4l0.1,5.8c14.3,16.3,33.1,28,54,33.6c5,1.4,10.1,2.5,15.3,3.3L355,151.8l-1.5-0.4
				l10.1-7.4C363.9,116,353.4,89.1,334.3,68.8z"/>
			
				<linearGradient id="SVGID_10_" gradientUnits="userSpaceOnUse" x1="344.7366" y1="377.7078" x2="392.9187" y2="328.8325" gradientTransform="matrix(1 0 0 -1 -203.7553 454.9268)">
				<stop  offset="0" style="stop-color:#FFFFFF"/>
				<stop  offset="1" style="stop-color:#FFFFFF;stop-opacity:0"/>
			</linearGradient>
			<path class="st17" d="M270.9,42.4l-9.6-7.8C248.2,33.4,235,34,222,36.4l-124.4,103c-7,18.3-9.6,37.9-7.8,57.4L276,42.7
				L270.9,42.4z"/>
			<g>
				<defs>
					<rect id="SVGID_11_" x="169.8" y="92.7" width="139" height="143.2"/>
				</defs>
				<clipPath id="SVGID_12_">
					<use xlink:href="#SVGID_11_"  style="overflow:visible;"/>
				</clipPath>
				<g class="st18">
					
						<linearGradient id="SVGID_13_" gradientUnits="userSpaceOnUse" x1="2387.9929" y1="1726.1501" x2="2387.9929" y2="1582.9106" gradientTransform="matrix(1 0 0 1 -2148.7554 -1490.2074)">
						<stop  offset="0" style="stop-color:#FFC000"/>
						<stop  offset="0.28" style="stop-color:#FFC000"/>
						<stop  offset="0.55" style="stop-color:#DAA600"/>
						<stop  offset="1" style="stop-color:#DAA600"/>
					</linearGradient>
					<path class="st19" d="M194.2,151c-0.6-0.7-1.2-1.2-1.7-1.9c-5.9-7.2-10.2-15.6-12.5-24.6c-1.6-6.4-2-13-1.4-19.6
						c0.2-3.5,1.1-6.9,2.8-10c0.9-1.9,3.1-2.8,5-1.9c0,0,0.1,0,0.1,0c4.3,1.7,8,4.7,10.6,8.5c6.5,8.5,10.8,18.4,12.7,29
						c0.6,3.3,0.6,6.7,0.9,10c0.1,1.3,0.2,2.6,0.3,3.8c0.1,1,0.6,1.6,1.8,1.4c4.6-0.7,9.3-0.3,13.8,0.9c3.9,1,7.7,2.3,11.4,3.8
						c5.4,2.1,10.1,5.4,14,9.7c0.4,0.6,1.2,0.8,1.8,0.4c0,0,0,0,0,0c0.1-0.1,0.2-0.2,0.3-0.3c1-0.9,1.9-1.8,2.7-2.7
						c8.7-9.8,20-16.9,32.7-20.4c4-1.3,8.3-1.7,12.5-1.2c1.9,0.3,3.7,0.8,5.4,1.6c0.7,0.5,1.2,1.3,1.3,2.2c0.1,1.2,0,2.4-0.4,3.6
						c-1.7,4.9-4.5,9.4-8.2,13.1c-8.9,10-20.9,16.8-34.1,19.3c-0.9,0.2-1.9,0.3-3.1,0.4c0.2,0.8,0.3,1.5,0.5,2.2
						c1.3,4.6,1.9,9.3,1.7,14c-0.1,5.6-1,11.1-2.8,16.4c-2,6.1-5,11.8-9.1,16.9c-3.9,4.7-9.2,7.9-15.2,9.1
						c-4.2,1.2-8.6,1.5-12.9,1.1c-4.3-0.5-8.5-1.3-12.7-2.3c-4.3-1.2-8.6-2.6-12.7-4.4c-6.9-2.5-13.2-6.2-18.7-11
						c-5.7-4.8-9.6-11.4-10.9-18.7c-0.3-3.5-0.3-7,0.2-10.4c0.6-4.6,1.8-9,3.6-13.2c2.7-6.6,6.7-12.7,11.8-17.7
						c2.4-2.3,5.2-4.3,7.8-6.4L194.2,151z M198.5,202.2l-0.1,0.4c-4.7-0.4-5.7,3-4.9,6.3c0.1,0.6,0.3,1.1,0.5,1.6
						c1,3.9,3.6,7.2,7.1,9.2c3.4,1.7,7,3.1,10.7,4c5.2,1.6,11,0.3,14.9-3.6c1.9-1.2,2.5-3.6,1.3-5.5c-0.3-0.4-0.6-0.8-1-1.1
						c-2.1-1.7-4.5-3.1-7-4.2c-4.1-1.8-8.3-3.2-12.5-4.7C204.6,203.6,201.5,202.9,198.5,202.2L198.5,202.2z M194.7,166.1
						c0-3.2-1.2-4.8-3.4-5.3c-2-0.4-4,0.4-5,2.1c-4.8,5.9-8.4,12.7-10.6,20c-0.3,1.2-0.4,2.4-0.2,3.6c0.3,2.2,2.3,3.8,4.5,3.5
						c1.1-0.1,2.1-0.7,2.7-1.6c1.7-2.3,3.4-4.8,4.8-7.3c1.9-3.3,3.6-6.6,5.3-10C193.5,169.4,194.2,167.8,194.7,166.1L194.7,166.1z
						 M261.4,192.1c-0.1-1.3-0.3-2.7-0.5-4c-0.6-2.3-3.1-3.7-5.4-3.1c0,0,0,0,0,0c-0.2,0-0.3,0.1-0.4,0.1c-1.7,0.7-2.9,2.3-3.1,4.1
						c-1.5,6.1-2.9,12.2-4.2,18.4c-0.4,1.9-0.4,3.8-0.1,5.7c0.4,2.1,2.4,3.4,4.5,3c0.5-0.1,1-0.3,1.4-0.6c1.5-0.9,2.6-2.3,3-4
						c1.2-3.4,2.3-6.9,3.1-10.4C260.5,198.2,260.9,194.9,261.4,192.1L261.4,192.1z"/>
				</g>
			</g>
		</g>
	</g>
</g>
</svg>
