<?xml version="1.0" encoding="utf-8"?>
<!-- Generator: Adobe Illustrator 25.2.1, SVG Export Plug-In . SVG Version: 6.00 Build 0)  -->
<svg version="1.1" id="Layer_1" xmlns="http://www.w3.org/2000/svg" xmlns:xlink="http://www.w3.org/1999/xlink" x="0px" y="0px"
	 viewBox="0 0 512 512" style="enable-background:new 0 0 512 512;" xml:space="preserve">
<style type="text/css">
	.st0{fill:#DEDFFB;}
	.st1{enable-background:new    ;}
	.st2{fill:#F3F1FC;}
	.st3{fill:#9EA9C9;}
	.st4{fill:#4C5C75;}
	.st5{fill:#C69C6C;}
	.st6{opacity:0.2;}
	.st7{fill:#497BFE;}
	.st8{fill:#57B3FE;}
	.st9{fill:#F45170;}
	.st10{opacity:0.7;}
	.st11{fill:#8FABFE;}
	.st12{fill:#FFFFFF;}
	.st13{fill:#78E75A;}
	.st14{fill:#D84905;}
	.st15{fill:url(#SVGID_1_);}
	.st16{fill:#F67205;}
	.st17{fill:url(#SVGID_2_);}
	.st18{fill:#F69D05;}
	.st19{fill:url(#SVGID_3_);}
	.st20{opacity:0.7;fill:url(#SVGID_4_);enable-background:new    ;}
	.st21{fill:url(#SVGID_5_);}
	.st22{opacity:0.7;fill:url(#SVGID_6_);enable-background:new    ;}
	.st23{fill:url(#SVGID_7_);}
	.st24{fill:#BA3E05;}
	.st25{opacity:0.5;fill:url(#SVGID_8_);enable-background:new    ;}
	.st26{opacity:0.4;fill:url(#SVGID_9_);enable-background:new    ;}
	.st27{opacity:0.4;fill:url(#SVGID_10_);enable-background:new    ;}
	.st28{clip-path:url(#SVGID_12_);}
	.st29{fill-rule:evenodd;clip-rule:evenodd;fill:url(#SVGID_13_);}
	.st30{fill:url(#SVGID_14_);}
	.st31{fill:url(#SVGID_15_);}
	.st32{fill:url(#SVGID_16_);}
	.st33{opacity:0.7;fill:url(#SVGID_17_);enable-background:new    ;}
	.st34{fill:url(#SVGID_18_);}
	.st35{opacity:0.7;fill:url(#SVGID_19_);enable-background:new    ;}
	.st36{fill:url(#SVGID_20_);}
	.st37{opacity:0.5;fill:url(#SVGID_21_);enable-background:new    ;}
	.st38{opacity:0.4;fill:url(#SVGID_22_);enable-background:new    ;}
	.st39{opacity:0.4;fill:url(#SVGID_23_);enable-background:new    ;}
	.st40{clip-path:url(#SVGID_25_);}
	.st41{fill-rule:evenodd;clip-rule:evenodd;fill:url(#SVGID_26_);}
	.st42{fill:url(#SVGID_27_);}
	.st43{fill:url(#SVGID_28_);}
	.st44{fill:url(#SVGID_29_);}
	.st45{opacity:0.7;fill:url(#SVGID_30_);enable-background:new    ;}
	.st46{fill:url(#SVGID_31_);}
	.st47{opacity:0.7;fill:url(#SVGID_32_);enable-background:new    ;}
	.st48{fill:url(#SVGID_33_);}
	.st49{opacity:0.5;fill:url(#SVGID_34_);enable-background:new    ;}
	.st50{opacity:0.4;fill:url(#SVGID_35_);enable-background:new    ;}
	.st51{opacity:0.4;fill:url(#SVGID_36_);enable-background:new    ;}
	.st52{clip-path:url(#SVGID_38_);}
	.st53{fill-rule:evenodd;clip-rule:evenodd;fill:url(#SVGID_39_);}
	.st54{fill:url(#SVGID_40_);}
	.st55{fill:url(#SVGID_41_);}
	.st56{fill:url(#SVGID_42_);}
	.st57{opacity:0.7;fill:url(#SVGID_43_);enable-background:new    ;}
	.st58{fill:url(#SVGID_44_);}
	.st59{opacity:0.7;fill:url(#SVGID_45_);enable-background:new    ;}
	.st60{fill:url(#SVGID_46_);}
	.st61{opacity:0.5;fill:url(#SVGID_47_);enable-background:new    ;}
	.st62{opacity:0.4;fill:url(#SVGID_48_);enable-background:new    ;}
	.st63{opacity:0.4;fill:url(#SVGID_49_);enable-background:new    ;}
	.st64{clip-path:url(#SVGID_51_);}
	.st65{fill-rule:evenodd;clip-rule:evenodd;fill:url(#SVGID_52_);}
	.st66{fill:url(#SVGID_53_);}
	.st67{fill:url(#SVGID_54_);}
	.st68{fill:url(#SVGID_55_);}
	.st69{opacity:0.7;fill:url(#SVGID_56_);enable-background:new    ;}
	.st70{fill:url(#SVGID_57_);}
	.st71{opacity:0.7;fill:url(#SVGID_58_);enable-background:new    ;}
	.st72{fill:url(#SVGID_59_);}
	.st73{opacity:0.5;fill:url(#SVGID_60_);enable-background:new    ;}
	.st74{opacity:0.4;fill:url(#SVGID_61_);enable-background:new    ;}
	.st75{opacity:0.4;fill:url(#SVGID_62_);enable-background:new    ;}
	.st76{clip-path:url(#SVGID_64_);}
	.st77{fill-rule:evenodd;clip-rule:evenodd;fill:url(#SVGID_65_);}
</style>
<g>
	<g>
		<g>
			<g>
				<path class="st0" d="M148.1,207.1c0,9.6-6.2,19.1-18.9,26.4c-25.1,14.5-65.7,14.5-90.6,0c-12.4-7.1-18.7-16.6-18.7-26l-0.1-50.2
					c0-9.5,6.3-19.1,19-26.4c25.1-14.5,65.7-14.5,90.6,0c12.4,7.2,18.6,16.7,18.6,26.2L148.1,207.1z"/>
			</g>
		</g>
		<g>
			<g class="st1">
				<g>
					<g>
						<path class="st0" d="M20,157.3l0.1,50c0,9.4,6.2,18.8,18.6,26c24.9,14.4,65.4,14.4,90.5,0c12.6-7.3,18.9-16.8,18.9-26.4
							l-0.1-49.9c0,9.5-6.3,19.1-18.9,26.3c-25,14.5-65.5,14.5-90.4,0C26.2,176.2,20,166.8,20,157.3z"/>
					</g>
				</g>
			</g>
		</g>
		<g>
			<g>
				<path class="st2" d="M38.6,131.1c-25,14.4-25.2,37.9-0.3,52.3c24.9,14.4,65.3,14.4,90.3,0s25.2-37.9,0.3-52.3
					C104,116.7,63.6,116.7,38.6,131.1z"/>
			</g>
		</g>
		<g>
			<path class="st3" d="M38.5,161.5c1.2,5.5,5.5,10.9,12.8,15.1c17.7,10.3,46.5,10.3,64.3,0c7.4-4.3,11.8-9.7,13-15.3
				c1.8-7.8-2.5-15.9-12.8-22c-17.7-10.3-46.5-10.3-64.3,0C41.1,145.4,36.7,153.6,38.5,161.5z"/>
		</g>
		<g>
			<path class="st4" d="M38.5,161.5c1.2,5.5,5.5,10.9,12.8,15.1c17.7,10.3,46.5,10.3,64.3,0c7.4-4.3,11.8-9.7,13-15.3
				c-1.2-5.5-5.5-10.9-12.8-15.1c-17.7-10.3-46.5-10.3-64.3,0C44.1,150.5,39.7,155.9,38.5,161.5z"/>
		</g>
	</g>
	<g>
		<path class="st4" d="M68.5,216.8c0,8.3,6.7,15.2,15.2,15.2s15.2-6.8,15.2-15.2c0-8.4-6.7-15.2-15.2-15.2S68.5,208.4,68.5,216.8z"
			/>
	</g>
	<g>
		<path class="st5" d="M72.5,216.8c0,6.1,4.9,11.1,11.1,11.1c6.2,0,11.1-5,11.1-11.1c0-6.2-4.9-11.2-11.1-11.2
			S72.5,210.7,72.5,216.8z"/>
	</g>
</g>
<g class="st6">
	<g class="st1">
		<g>
			<g>
				<path class="st7" d="M38,92.9l0.1,64.2c0,6.7,4.4,13.4,13.2,18.5c17.7,10.3,46.5,10.3,64.3,0c9-5.2,13.4-12,13.4-18.8l-0.1-64.2
					c0,6.8-4.5,13.6-13.4,18.8c-17.8,10.3-46.6,10.3-64.3,0C42.4,106.3,38,99.6,38,92.9z"/>
			</g>
		</g>
		<g>
			<g>
				<path class="st8" d="M51.5,74.2c-17.8,10.3-17.9,27-0.2,37.2c17.7,10.3,46.5,10.3,64.3,0s17.9-27,0.2-37.2
					C98.1,63.9,69.3,63.9,51.5,74.2z"/>
			</g>
		</g>
	</g>
</g>
<g>
	<g>
		<g>
			<g>
				<path class="st0" d="M492,157.3v50.1c-0.1,9.4-6.2,18.8-18.6,25.9c-24.9,14.5-65.4,14.5-90.4,0c-12.6-7.3-18.9-16.8-18.9-26.3
					l0.1-50c0-9.4,6.2-18.8,18.6-26c24.9-14.5,65.4-14.5,90.4,0C485.8,138.3,492,147.9,492,157.3z"/>
			</g>
		</g>
		<g>
			<g class="st1">
				<g>
					<g>
						<path class="st0" d="M492,157.3l-0.1,50c0,9.4-6.2,18.8-18.6,26c-24.9,14.4-65.4,14.4-90.5,0c-12.6-7.3-18.9-16.8-18.9-26.4
							l0.1-49.9c0,9.5,6.3,19.1,18.9,26.3c25,14.5,65.5,14.5,90.4,0C485.8,176.2,492,166.8,492,157.3z"/>
					</g>
				</g>
			</g>
		</g>
		<g>
			<g>
				<path class="st2" d="M473.5,131.1c25,14.4,25.2,37.9,0.3,52.3s-65.3,14.4-90.3,0s-25.2-37.9-0.3-52.3
					C408,116.7,448.4,116.7,473.5,131.1z"/>
			</g>
		</g>
		<g>
			<path class="st3" d="M473.5,161.5c-1.2,5.5-5.5,10.9-12.8,15.1c-17.7,10.3-46.5,10.3-64.3,0c-7.4-4.3-11.8-9.7-13-15.3
				c-1.8-7.8,2.5-15.9,12.8-22c17.7-10.3,46.5-10.3,64.3,0C471,145.4,475.3,153.6,473.5,161.5z"/>
		</g>
		<g>
			<path class="st4" d="M473.5,161.5c-1.2,5.5-5.5,10.9-12.8,15.1c-17.7,10.3-46.5,10.3-64.3,0c-7.4-4.3-11.8-9.7-13-15.3
				c1.2-5.5,5.5-10.9,12.8-15.1c17.7-10.3,46.5-10.3,64.3,0C468,150.5,472.3,155.9,473.5,161.5z"/>
		</g>
	</g>
	<g>
		<path class="st4" d="M443.6,216.8c0,8.3-6.7,15.2-15.2,15.2c-8.4,0-15.2-6.8-15.2-15.2c0-8.4,6.7-15.2,15.2-15.2
			C436.8,201.6,443.6,208.4,443.6,216.8z"/>
	</g>
	<g>
		<path class="st9" d="M439.5,216.8c0,6.1-4.9,11.1-11.1,11.1c-6.2,0-11.1-5-11.1-11.1c0-6.2,4.9-11.2,11.1-11.2
			C434.6,205.7,439.5,210.7,439.5,216.8z"/>
	</g>
</g>
<g class="st6">
	<g class="st1">
		<g>
			<g>
				<path class="st7" d="M474,92.9l-0.1,64.2c0,6.7-4.4,13.4-13.2,18.5c-17.7,10.3-46.5,10.3-64.3,0c-9-5.2-13.4-12-13.4-18.8
					l0.1-64.2c0,6.8,4.5,13.6,13.4,18.8c17.8,10.3,46.6,10.3,64.3,0C469.6,106.3,474,99.6,474,92.9z"/>
			</g>
		</g>
		<g>
			<g>
				<path class="st8" d="M460.5,74.2c17.8,10.3,17.9,27,0.2,37.2c-17.7,10.3-46.5,10.3-64.3,0s-17.9-27-0.2-37.2
					C413.9,63.9,442.7,63.9,460.5,74.2z"/>
			</g>
		</g>
	</g>
</g>
<g>
	<g>
		<g>
			<g>
				<path class="st7" d="M122.4,203.7c4.1-2.4,7.5-0.5,7.5,4.3c0,4.7-3.3,10.4-7.5,12.8c-4.1,2.4-7.5,0.6-7.5-4.2
					C114.9,211.9,118.2,206.1,122.4,203.7z"/>
			</g>
		</g>
		<g class="st10">
			<g class="st1">
				<g>
					<g>
						<path class="st11" d="M253.3,276.2c-1.4-0.8-3.2-0.7-5.3,0.5c-4.2,2.4-7.5,8.1-7.5,12.9c0,2.3,0.8,4,2.2,4.8l-125.6-73
							c-1.3-0.8-2.1-2.4-2.2-4.8c0-4.8,3.3-10.6,7.5-12.9c2.1-1.2,4-1.3,5.3-0.5L253.3,276.2z"/>
					</g>
				</g>
			</g>
		</g>
	</g>
	<g>
		<g>
			<g>
				<path class="st7" d="M385.4,203.7c-4.1-2.4-7.5-0.5-7.5,4.3c0,4.7,3.3,10.4,7.5,12.8s7.5,0.6,7.5-4.2
					C392.9,211.9,389.5,206.1,385.4,203.7z"/>
			</g>
		</g>
		<g class="st10">
			<g class="st1">
				<g>
					<g>
						<path class="st11" d="M254.4,276.2c1.4-0.8,3.2-0.7,5.3,0.5c4.2,2.4,7.5,8.1,7.5,12.9c0,2.3-0.8,4-2.2,4.8l125.6-73
							c1.3-0.8,2.1-2.4,2.2-4.8c0-4.8-3.3-10.6-7.5-12.9c-2.1-1.2-4-1.3-5.3-0.5L254.4,276.2z"/>
					</g>
				</g>
			</g>
		</g>
	</g>
</g>
<g>
	<g>
		<g>
			<g>
				<path class="st0" d="M307,265.3l-0.1,50.1c0,9.4-6.2,18.8-18.6,25.9c-24.9,14.5-65.4,14.5-90.4,0C185.2,334,179,324.5,179,315
					l0.1-50c0-9.4,6.1-18.8,18.5-26c24.9-14.5,65.4-14.5,90.4,0C300.7,246.2,307,255.7,307,265.3z"/>
			</g>
		</g>
		<g>
			<g class="st1">
				<g>
					<g>
						<path class="st0" d="M307,265.2l-0.1,50c0,9.4-6.2,18.8-18.6,26c-24.9,14.4-65.4,14.4-90.5,0c-12.6-7.3-18.9-16.8-18.9-26.4
							l0.1-49.9c0,9.5,6.3,19.1,18.9,26.3c25,14.5,65.5,14.5,90.4,0C300.8,284.1,307,274.7,307,265.2z"/>
					</g>
				</g>
			</g>
		</g>
		<g>
			<g>
				<path class="st2" d="M287.8,239c25,14.4,25.2,37.9,0.3,52.3c-24.9,14.4-65.3,14.4-90.3,0c-25-14.4-25.2-37.9-0.3-52.3
					C222.4,224.5,262.8,224.5,287.8,239z"/>
			</g>
		</g>
		<g>
			<path class="st3" d="M287.9,269.4c-1.2,5.5-5.5,10.9-12.8,15.1c-17.7,10.3-46.5,10.3-64.3,0c-7.4-4.3-11.8-9.7-13-15.3
				c-1.8-7.8,2.5-15.9,12.8-22c17.7-10.3,46.5-10.3,64.3,0C285.3,253.3,289.7,261.5,287.9,269.4z"/>
		</g>
		<g>
			<path class="st4" d="M287.9,269.4c-1.2,5.5-5.5,10.9-12.8,15.1c-17.7,10.3-46.5,10.3-64.3,0c-7.4-4.3-11.8-9.7-13-15.3
				c1.2-5.5,5.5-10.9,12.8-15.1c17.7-10.3,46.5-10.3,64.3,0C282.3,258.4,286.7,263.8,287.9,269.4z"/>
		</g>
		<g class="st6">
			<g class="st1">
				<g>
					<g>
						<path class="st7" d="M288,201.8l-0.1,64.2c0,6.7-4.4,13.4-13.2,18.5c-17.7,10.3-46.5,10.3-64.3,0c-9-5.2-13.4-12-13.4-18.8
							l0.1-64.2c0,6.8,4.5,13.6,13.4,18.8c17.8,10.3,46.6,10.3,64.3,0C283.6,215.2,288,208.5,288,201.8z"/>
					</g>
				</g>
				<g>
					<g>
						<path class="st8" d="M274.9,183.1c17.8,10.3,17.9,27,0.2,37.2c-17.7,10.3-46.5,10.3-64.3,0s-17.9-27-0.2-37.2
							S257.1,172.8,274.9,183.1z"/>
					</g>
				</g>
			</g>
		</g>
	</g>
	<g>
		<path class="st4" d="M257.9,324.7c0,8.3-6.7,15.2-15.2,15.2s-15.2-6.8-15.2-15.2c0-8.4,6.7-15.2,15.2-15.2
			S257.9,316.3,257.9,324.7z"/>
	</g>
	<g>
		<path class="st12" d="M253.9,324.7c0,6.1-4.9,11.1-11.1,11.1c-6.2,0-11.1-5-11.1-11.1c0-6.2,4.9-11.2,11.1-11.2
			C248.9,313.6,253.9,318.6,253.9,324.7z"/>
	</g>
</g>
<g>
	<g>
		<g>
			<g>
				<path class="st7" d="M287.2,307.2c4.1-2.4,7.5-0.5,7.5,4.3s-3.3,10.4-7.5,12.8c-4.1,2.4-7.5,0.6-7.5-4.2
					C279.7,315.4,283,309.6,287.2,307.2z"/>
			</g>
		</g>
		<g class="st10">
			<g class="st1">
				<g>
					<g>
						<path class="st11" d="M418.1,379.7c-1.4-0.8-3.2-0.7-5.3,0.5c-4.2,2.4-7.5,8.1-7.5,12.9c0,2.3,0.8,4,2.2,4.8l-125.6-73
							c-1.3-0.8-2.1-2.4-2.2-4.8c0-4.8,3.3-10.6,7.5-12.9c2.1-1.2,4-1.3,5.3-0.5L418.1,379.7z"/>
					</g>
				</g>
			</g>
		</g>
	</g>
	<g>
		<g>
			<g>
				<path class="st7" d="M203,307.2c-4.1-2.4-7.5-0.5-7.5,4.3c0,4.7,3.3,10.4,7.5,12.8c4.1,2.4,7.5,0.6,7.5-4.2
					C210.4,315.4,207.1,309.6,203,307.2z"/>
			</g>
		</g>
		<g class="st10">
			<g class="st1">
				<g>
					<g>
						<path class="st11" d="M72,379.7c1.4-0.8,3.2-0.7,5.3,0.5c4.2,2.4,7.5,8.1,7.5,12.9c0,2.3-0.8,4-2.2,4.8l125.6-73
							c1.3-0.8,2.1-2.4,2.2-4.8c0-4.8-3.3-10.6-7.5-12.9c-2.1-1.2-4-1.3-5.3-0.5L72,379.7z"/>
					</g>
				</g>
			</g>
		</g>
	</g>
</g>
<g>
	<g>
		<g>
			<g>
				<path class="st0" d="M148,357.7v50.1c-0.1,9.4-6.2,18.8-18.6,25.9c-24.9,14.5-65.4,14.5-90.4,0C26.3,426.4,20,417,20,407.4
					l0.1-50c0-9.4,6.2-18.8,18.6-26c24.9-14.5,65.4-14.5,90.4,0C141.8,338.7,148,348.2,148,357.7z"/>
			</g>
		</g>
		<g>
			<g class="st1">
				<g>
					<g>
						<path class="st0" d="M148,357.7l-0.1,50c0,9.4-6.2,18.8-18.6,26c-24.9,14.4-65.4,14.4-90.5,0C26.3,426.4,20,416.9,20,407.4
							l0.1-49.9c0,9.5,6.3,19.1,18.9,26.3c25,14.5,65.5,14.5,90.4,0C141.8,376.6,148,367.2,148,357.7z"/>
					</g>
				</g>
			</g>
		</g>
		<g>
			<g>
				<path class="st2" d="M128.7,331.5c25,14.4,25.2,37.9,0.3,52.3c-24.9,14.4-65.3,14.4-90.3,0c-25-14.4-25.2-37.9-0.3-52.3
					C63.2,317,103.7,317,128.7,331.5z"/>
			</g>
		</g>
		<g>
			<path class="st3" d="M128.7,361.8c-1.2,5.5-5.5,10.9-12.8,15.1c-17.7,10.3-46.5,10.3-64.3,0c-7.4-4.3-11.8-9.7-13-15.3
				c-1.8-7.8,2.5-16,12.8-22c17.7-10.3,46.5-10.3,64.3,0C126.2,345.8,130.5,354,128.7,361.8z"/>
		</g>
		<g>
			<path class="st4" d="M128.7,361.8c-1.2,5.5-5.5,10.9-12.8,15.1c-17.7,10.3-46.5,10.3-64.3,0c-7.4-4.3-11.8-9.7-13-15.3
				c1.2-5.5,5.5-10.9,12.8-15.1c17.7-10.3,46.5-10.3,64.3,0C123.2,350.9,127.5,356.3,128.7,361.8z"/>
		</g>
	</g>
	<g>
		<path class="st4" d="M98.8,417.2c0,8.3-6.7,15.2-15.2,15.2s-15.2-6.8-15.2-15.2c0-8.4,6.7-15.2,15.2-15.2S98.8,408.8,98.8,417.2z"
			/>
	</g>
	<g>
		<path class="st13" d="M94.7,417.2c0,6.1-4.9,11.1-11.1,11.1s-11.1-5-11.1-11.1c0-6.2,4.9-11.2,11.1-11.2
			C89.8,406,94.7,411,94.7,417.2z"/>
	</g>
</g>
<g class="st6">
	<g class="st1">
		<g>
			<g>
				<path class="st7" d="M129,293.3l-0.1,64.2c0,6.7-4.4,13.4-13.2,18.5c-17.7,10.3-46.5,10.3-64.3,0c-9-5.2-13.4-12-13.4-18.8
					l0.1-64.2c0,6.8,4.5,13.6,13.4,18.8c17.8,10.3,46.6,10.3,64.3,0C124.6,306.7,129,300,129,293.3z"/>
			</g>
		</g>
		<g>
			<g>
				<path class="st8" d="M115.7,274.6c17.8,10.3,17.9,27,0.2,37.2s-46.5,10.3-64.3,0s-17.9-27-0.2-37.2
					C69.1,264.3,97.9,264.3,115.7,274.6z"/>
			</g>
		</g>
	</g>
</g>
<g>
	<g>
		<g>
			<g class="st1">
				<g>
					<g>
						<path class="st0" d="M492.1,407.4c0,9.6-6.2,19.1-18.9,26.4c-25.2,14.5-65.7,14.5-90.7,0c-12.3-7.1-18.6-16.6-18.6-26
							l-0.1-50.2c0-9.5,6.3-19.1,19-26.4c25.1-14.5,65.6-14.5,90.6,0c12.4,7.2,18.6,16.7,18.6,26.2L492.1,407.4z"/>
					</g>
				</g>
			</g>
		</g>
		<g>
			<g class="st1">
				<g>
					<g>
						<path class="st0" d="M364,357.7l0.1,50c0,9.4,6.2,18.8,18.6,26c24.9,14.4,65.4,14.4,90.5,0c12.6-7.3,18.9-16.8,18.9-26.4
							l-0.1-49.9c0,9.5-6.3,19.1-18.9,26.3c-25,14.5-65.5,14.5-90.4,0C370.2,376.6,364,367.2,364,357.7z"/>
					</g>
				</g>
			</g>
		</g>
		<g>
			<g>
				<path class="st2" d="M383.4,331.5c-25,14.4-25.2,37.9-0.3,52.3c24.9,14.4,65.3,14.4,90.3,0c25-14.4,25.2-37.9,0.3-52.3
					S408.4,317,383.4,331.5z"/>
			</g>
		</g>
		<g>
			<path class="st3" d="M383.3,361.8c1.2,5.5,5.5,10.9,12.8,15.1c17.7,10.3,46.5,10.3,64.3,0c7.4-4.3,11.8-9.7,13-15.3
				c1.8-7.8-2.5-16-12.8-22c-17.7-10.3-46.5-10.3-64.3,0C385.9,345.8,381.5,354,383.3,361.8z"/>
		</g>
		<g>
			<path class="st4" d="M383.3,361.8c1.2,5.5,5.5,10.9,12.8,15.1c17.7,10.3,46.5,10.3,64.3,0c7.4-4.3,11.8-9.7,13-15.3
				c-1.2-5.5-5.5-10.9-12.8-15.1c-17.7-10.3-46.5-10.3-64.3,0C388.9,350.9,384.5,356.3,383.3,361.8z"/>
		</g>
	</g>
	<g>
		<path class="st4" d="M413.3,417.2c0,8.3,6.7,15.2,15.2,15.2c8.4,0,15.2-6.8,15.2-15.2c0-8.4-6.7-15.2-15.2-15.2
			C420,402,413.3,408.8,413.3,417.2z"/>
	</g>
	<g>
		<path class="st8" d="M417.3,417.2c0,6.1,4.9,11.1,11.1,11.1c6.2,0,11.1-5,11.1-11.1c0-6.2-4.9-11.2-11.1-11.2
			C422.2,406,417.3,411,417.3,417.2z"/>
	</g>
</g>
<g class="st6">
	<g class="st1">
		<g>
			<g>
				<path class="st7" d="M383,293.6l0.1,64.2c0,6.7,4.4,13.4,13.2,18.5c17.7,10.3,46.5,10.3,64.3,0c9-5.2,13.4-12,13.4-18.8
					l-0.1-64.2c0,6.8-4.5,13.6-13.4,18.8c-17.8,10.3-46.6,10.3-64.3,0C387.5,307,383.1,300.3,383,293.6z"/>
			</g>
		</g>
		<g>
			<g>
				<path class="st8" d="M396.3,274.9c-17.8,10.3-17.9,27-0.2,37.2s46.5,10.3,64.3,0s17.9-27,0.2-37.2
					C442.9,264.6,414.2,264.6,396.3,274.9z"/>
			</g>
		</g>
	</g>
</g>
<g>
	<g id="OBJECTS">
		<g>
			<polygon class="st14" points="204.3,214.5 210.6,223.1 207.2,222.7 201,214.1 			"/>
			
				<linearGradient id="SVGID_1_" gradientUnits="userSpaceOnUse" x1="418.8381" y1="218.8314" x2="489.2586" y2="279.9347" gradientTransform="matrix(1 0 0 -1 -203.7553 454.9268)">
				<stop  offset="0" style="stop-color:#D13F05"/>
				<stop  offset="0.2925" style="stop-color:#F67205"/>
				<stop  offset="0.3667" style="stop-color:#F67705"/>
				<stop  offset="0.4526" style="stop-color:#F68505"/>
				<stop  offset="0.5441" style="stop-color:#F69C05"/>
				<stop  offset="0.5638" style="stop-color:#F6A205"/>
				<stop  offset="0.5977" style="stop-color:#F69005"/>
				<stop  offset="0.6432" style="stop-color:#F67F05"/>
				<stop  offset="0.6931" style="stop-color:#F67505"/>
				<stop  offset="0.7553" style="stop-color:#F67205"/>
				<stop  offset="1" style="stop-color:#D13F05"/>
			</linearGradient>
			<path class="st15" d="M276.1,163.2c2.1,2.9,4.2,5.7,6.3,8.6c4.2,5.9,6.5,13,6.4,20.3l-6.3-8.6
				C282.6,176.3,280.3,169.1,276.1,163.2z"/>
			<polygon class="st16" points="282.5,183.5 288.7,192.1 285.6,194.5 279.3,185.9 			"/>
			<polygon class="st14" points="250.8,225.6 257.1,234.2 255.7,236.3 249.4,227.7 			"/>
			
				<linearGradient id="SVGID_2_" gradientUnits="userSpaceOnUse" x1="421.0518" y1="216.2866" x2="491.4686" y2="277.3867" gradientTransform="matrix(1 0 0 -1 -203.7553 454.9268)">
				<stop  offset="0" style="stop-color:#D13F05"/>
				<stop  offset="0.2925" style="stop-color:#F67205"/>
				<stop  offset="0.3667" style="stop-color:#F67705"/>
				<stop  offset="0.4526" style="stop-color:#F68505"/>
				<stop  offset="0.5441" style="stop-color:#F69C05"/>
				<stop  offset="0.5638" style="stop-color:#F6A205"/>
				<stop  offset="0.5977" style="stop-color:#F69005"/>
				<stop  offset="0.6432" style="stop-color:#F67F05"/>
				<stop  offset="0.6931" style="stop-color:#F67505"/>
				<stop  offset="0.7553" style="stop-color:#F67205"/>
				<stop  offset="1" style="stop-color:#D13F05"/>
			</linearGradient>
			<path class="st17" d="M249.4,227.7l6.3,8.6c-8.9,3.5-18.8,4.1-28.1,1.6c-6.6-1.8-12.5-5.4-17-10.6l-6.3-8.6
				c4.5,5.1,10.4,8.8,17,10.6C230.6,231.8,240.5,231.3,249.4,227.7z"/>
			<polygon class="st18" points="253.1,226.2 259.3,234.8 257.1,234.2 250.8,225.6 			"/>
			
				<linearGradient id="SVGID_3_" gradientUnits="userSpaceOnUse" x1="430.9408" y1="204.8893" x2="501.3587" y2="265.9903" gradientTransform="matrix(1 0 0 -1 -203.7553 454.9268)">
				<stop  offset="0" style="stop-color:#D13F05"/>
				<stop  offset="0.2925" style="stop-color:#F67205"/>
				<stop  offset="0.3667" style="stop-color:#F67705"/>
				<stop  offset="0.4526" style="stop-color:#F68505"/>
				<stop  offset="0.5441" style="stop-color:#F69C05"/>
				<stop  offset="0.5638" style="stop-color:#F6A205"/>
				<stop  offset="0.5977" style="stop-color:#F69005"/>
				<stop  offset="0.6432" style="stop-color:#F67F05"/>
				<stop  offset="0.6931" style="stop-color:#F67505"/>
				<stop  offset="0.7553" style="stop-color:#F67205"/>
				<stop  offset="1" style="stop-color:#D13F05"/>
			</linearGradient>
			<path class="st19" d="M282.4,186.7l6.3,8.6c-0.4,4.9-1.7,9.8-3.8,14.2c-5.2,11.2-14.3,20.1-25.5,25.2l-6.3-8.6
				c11.2-5.1,20.2-14.1,25.5-25.2C280.6,196.5,281.9,191.7,282.4,186.7z"/>
			
				<linearGradient id="SVGID_4_" gradientUnits="userSpaceOnUse" x1="404.8871" y1="233.0702" x2="482.6717" y2="296.3379" gradientTransform="matrix(1 0 0 -1 -203.7553 454.9268)">
				<stop  offset="0" style="stop-color:#FFFFFF;stop-opacity:0"/>
				<stop  offset="0.2606" style="stop-color:#FFFFFF"/>
				<stop  offset="0.7553" style="stop-color:#FFFFFF"/>
				<stop  offset="1" style="stop-color:#FFFFFF;stop-opacity:0"/>
			</linearGradient>
			<path class="st20" d="M282.7,187.2c-0.4,4.9-1.7,9.8-3.8,14.2c-5.2,11.2-14.3,20.1-25.5,25.2l-2.3-0.6l-1.4,2.2
				c-8.9,3.5-18.8,4.1-28.1,1.6c-6.6-1.8-12.5-5.4-17-10.6l-0.1-4.3l-3.3-0.4c-5.8-9.8-6.5-22.6-0.8-35.1c1.7-3.7,3.9-7.2,6.4-10.4
				c1.3-0.6,2.7-1.3,3.9-2l0.6-2.9c10.6-10.2,25.3-15.8,39.2-14.4l3,2.4l8.5,0.4c13.1,5.5,20.7,17.7,20.7,31.5l-3.2,2.3L282.7,187.2
				z"/>
			
				<linearGradient id="SVGID_5_" gradientUnits="userSpaceOnUse" x1="473.2126" y1="252.2606" x2="394.3201" y2="285.586" gradientTransform="matrix(1 0 0 -1 -203.7553 454.9268)">
				<stop  offset="0" style="stop-color:#FFAF02"/>
				<stop  offset="1" style="stop-color:#F56D05"/>
			</linearGradient>
			<path class="st21" d="M282.4,186.7c-0.4,4.9-1.7,9.8-3.8,14.2c-5.2,11.2-14.3,20.1-25.5,25.2l-2.3-0.6l-1.4,2.2
				c-8.9,3.5-18.8,4.1-28.1,1.6c-6.6-1.8-12.5-5.4-17-10.6l-0.1-4.3l-3.3-0.4c-5.8-9.8-6.5-22.6-0.8-35.1c1.7-3.7,3.9-7.2,6.4-10.4
				c1.3-0.6,2.7-1.3,3.9-2l0.6-2.9c10.6-10.2,25.3-15.8,39.2-14.4l3,2.4l8.5,0.4c13.1,5.5,20.7,17.7,20.7,31.5l-3.2,2.3L282.4,186.7
				z"/>
			
				<linearGradient id="SVGID_6_" gradientUnits="userSpaceOnUse" x1="414.2413" y1="291.9917" x2="460.0303" y2="248.2246" gradientTransform="matrix(1 0 0 -1 -203.7553 454.9268)">
				<stop  offset="0" style="stop-color:#FFFFFF;stop-opacity:0"/>
				<stop  offset="0.2606" style="stop-color:#FFFFFF"/>
				<stop  offset="0.7553" style="stop-color:#FFFFFF"/>
				<stop  offset="1" style="stop-color:#FFFFFF;stop-opacity:0"/>
			</linearGradient>
			<path class="st22" d="M251.7,161.1c15.7,4.4,22.6,20.9,15.4,36.7c-7.2,15.9-25.9,25.1-41.6,20.7c-15.7-4.4-22.6-20.9-15.4-36.7
				S235.9,156.6,251.7,161.1z"/>
			
				<linearGradient id="SVGID_7_" gradientUnits="userSpaceOnUse" x1="411.7349" y1="264.9829" x2="474.5215" y2="264.9829" gradientTransform="matrix(1 0 0 -1 -203.7553 454.9268)">
				<stop  offset="0" style="stop-color:#CF4505"/>
				<stop  offset="1" style="stop-color:#E45905"/>
			</linearGradient>
			<path class="st23" d="M252.5,161.2c15.7,4.4,22.6,20.9,15.4,36.7c-7.2,15.9-25.9,25.1-41.6,20.7c-15.7-4.4-22.6-20.9-15.4-36.7
				C218.1,166.1,236.8,156.8,252.5,161.2z"/>
			<path class="st24" d="M228.7,219.2c-15.7-4.4-22.6-20.9-15.4-36.7c6.7-14.7,23.2-23.7,38.1-21.4c-15.5-3.8-33.5,5.4-40.6,21
				c-7.2,15.9-0.4,32.3,15.4,36.7c1.2,0.3,2.3,0.6,3.5,0.8C229.4,219.3,229.1,219.2,228.7,219.2z"/>
			
				<radialGradient id="SVGID_8_" cx="-845.8409" cy="-291.4544" r="23.4764" gradientTransform="matrix(7.290000e-02 7.410000e-02 0.4921 -0.4845 472.0643 138.2714)" gradientUnits="userSpaceOnUse">
				<stop  offset="0" style="stop-color:#FFFFFF"/>
				<stop  offset="8.578000e-02" style="stop-color:#FFFFFF;stop-opacity:0.9583"/>
				<stop  offset="0.2351" style="stop-color:#FFFFFF;stop-opacity:0.8462"/>
				<stop  offset="0.4301" style="stop-color:#FFFFFF;stop-opacity:0.6642"/>
				<stop  offset="0.6634" style="stop-color:#FFFFFF;stop-opacity:0.4119"/>
				<stop  offset="0.9261" style="stop-color:#FFFFFF;stop-opacity:9.449000e-02"/>
				<stop  offset="1" style="stop-color:#FFFFFF;stop-opacity:0"/>
			</radialGradient>
			<path class="st25" d="M268.7,218.5c-6.4,6.3-12.3,10.6-13.3,9.6c-0.9-1,3.5-6.8,9.8-13.1c6.4-6.3,12.3-10.6,13.3-9.6
				C279.5,206.4,275.1,212.3,268.7,218.5z"/>
			
				<linearGradient id="SVGID_9_" gradientUnits="userSpaceOnUse" x1="432.8021" y1="277.0825" x2="461.1088" y2="243.8723" gradientTransform="matrix(1 0 0 -1 -203.7553 454.9268)">
				<stop  offset="0" style="stop-color:#FFFFFF"/>
				<stop  offset="1" style="stop-color:#FFFFFF;stop-opacity:0"/>
			</linearGradient>
			<path class="st26" d="M273.3,159.9L204.4,217l0,1.8c4.5,5.1,10.4,8.8,17,10.6c1.6,0.4,3.2,0.8,4.8,1l53.6-44.4l-0.5-0.1l3.2-2.3
				C282.6,174.8,279.3,166.3,273.3,159.9z"/>
			
				<linearGradient id="SVGID_10_" gradientUnits="userSpaceOnUse" x1="416.3002" y1="292.3576" x2="431.4408" y2="276.9992" gradientTransform="matrix(1 0 0 -1 -203.7553 454.9268)">
				<stop  offset="0" style="stop-color:#FFFFFF"/>
				<stop  offset="1" style="stop-color:#FFFFFF;stop-opacity:0"/>
			</linearGradient>
			<path class="st27" d="M253.4,151.6l-3-2.4c-4.1-0.4-8.3-0.2-12.4,0.6l-39.1,32.4c-2.2,5.7-3,11.9-2.5,18l58.5-48.4L253.4,151.6z"
				/>
			<g>
				<defs>
					<rect id="SVGID_11_" x="221.6" y="167.4" width="43.7" height="45"/>
				</defs>
				<clipPath id="SVGID_12_">
					<use xlink:href="#SVGID_11_"  style="overflow:visible;"/>
				</clipPath>
				<g class="st28">
					
						<linearGradient id="SVGID_13_" gradientUnits="userSpaceOnUse" x1="2392.176" y1="1702.6536" x2="2392.176" y2="1657.6423" gradientTransform="matrix(1 0 0 1 -2148.7554 -1490.2074)">
						<stop  offset="0" style="stop-color:#FFC000"/>
						<stop  offset="0.28" style="stop-color:#FFC000"/>
						<stop  offset="0.55" style="stop-color:#DAA600"/>
						<stop  offset="1" style="stop-color:#DAA600"/>
					</linearGradient>
					<path class="st29" d="M229.3,185.8c-0.2-0.2-0.4-0.4-0.5-0.6c-1.9-2.3-3.2-4.9-3.9-7.7c-0.5-2-0.6-4.1-0.4-6.2
						c0.1-1.1,0.4-2.2,0.9-3.1c0.3-0.6,1-0.9,1.6-0.6c0,0,0,0,0,0c1.4,0.5,2.5,1.5,3.3,2.7c2,2.7,3.4,5.8,4,9.1
						c0.2,1,0.2,2.1,0.3,3.1c0,0.4,0.1,0.8,0.1,1.2c0,0.3,0.2,0.5,0.6,0.4c1.4-0.2,2.9-0.1,4.3,0.3c1.2,0.3,2.4,0.7,3.6,1.2
						c1.7,0.7,3.2,1.7,4.4,3c0.1,0.2,0.4,0.2,0.6,0.1c0,0,0,0,0,0c0,0,0.1-0.1,0.1-0.1c0.3-0.3,0.6-0.6,0.9-0.9
						c2.7-3.1,6.3-5.3,10.3-6.4c1.3-0.4,2.6-0.5,3.9-0.4c0.6,0.1,1.2,0.3,1.7,0.5c0.2,0.2,0.4,0.4,0.4,0.7c0,0.4,0,0.8-0.1,1.1
						c-0.5,1.5-1.4,2.9-2.6,4.1c-2.8,3.1-6.6,5.3-10.7,6c-0.3,0.1-0.6,0.1-1,0.1c0.1,0.3,0.1,0.5,0.2,0.7c0.4,1.4,0.6,2.9,0.5,4.4
						c0,1.8-0.3,3.5-0.9,5.2c-0.6,1.9-1.6,3.7-2.9,5.3c-1.2,1.5-2.9,2.5-4.8,2.8c-1.3,0.4-2.7,0.5-4.1,0.3c-1.3-0.2-2.7-0.4-4-0.7
						c-1.4-0.4-2.7-0.8-4-1.4c-2.2-0.8-4.2-2-5.9-3.5c-1.8-1.5-3-3.6-3.4-5.9c-0.1-1.1-0.1-2.2,0.1-3.3c0.2-1.4,0.6-2.8,1.1-4.1
						c0.8-2.1,2.1-4,3.7-5.6c0.7-0.7,1.6-1.3,2.4-2L229.3,185.8z M230.6,201.8l0,0.1c-1.5-0.1-1.8,0.9-1.5,2c0,0.2,0.1,0.3,0.1,0.5
						c0.3,1.2,1.1,2.3,2.2,2.9c1.1,0.5,2.2,1,3.4,1.3c1.6,0.5,3.4,0.1,4.7-1.1c0.6-0.4,0.8-1.1,0.4-1.7c-0.1-0.1-0.2-0.3-0.3-0.4
						c-0.7-0.5-1.4-1-2.2-1.3c-1.3-0.6-2.6-1-3.9-1.5C232.5,202.3,231.6,202.1,230.6,201.8L230.6,201.8z M229.4,190.5
						c0-1-0.4-1.5-1.1-1.7c-0.6-0.1-1.2,0.1-1.6,0.7c-1.5,1.9-2.6,4-3.3,6.3c-0.1,0.4-0.1,0.8-0.1,1.1c0.1,0.7,0.7,1.2,1.4,1.1
						c0.3,0,0.7-0.2,0.9-0.5c0.5-0.7,1.1-1.5,1.5-2.3c0.6-1,1.1-2.1,1.7-3.1C229,191.5,229.3,191,229.4,190.5L229.4,190.5z
						 M250.4,198.7c0-0.4-0.1-0.8-0.2-1.3c-0.2-0.7-1-1.2-1.7-1c0,0,0,0,0,0c0,0-0.1,0-0.1,0c-0.5,0.2-0.9,0.7-1,1.3
						c-0.5,1.9-0.9,3.8-1.3,5.8c-0.1,0.6-0.1,1.2,0,1.8c0.1,0.7,0.8,1.1,1.4,0.9c0.2,0,0.3-0.1,0.4-0.2c0.5-0.3,0.8-0.7,0.9-1.3
						c0.4-1.1,0.7-2.2,1-3.3C250.1,200.6,250.2,199.6,250.4,198.7L250.4,198.7z"/>
				</g>
			</g>
		</g>
	</g>
</g>
<g>
	<g id="OBJECTS_1_">
		<g>
			<polygon class="st14" points="408.6,360 412.1,364.8 410.3,364.5 406.8,359.8 			"/>
			
				<linearGradient id="SVGID_14_" gradientUnits="userSpaceOnUse" x1="618.3975" y1="82.9091" x2="657.615" y2="116.9378" gradientTransform="matrix(1 0 0 -1 -203.7553 454.9268)">
				<stop  offset="0" style="stop-color:#D13F05"/>
				<stop  offset="0.2925" style="stop-color:#F67205"/>
				<stop  offset="0.3667" style="stop-color:#F67705"/>
				<stop  offset="0.4526" style="stop-color:#F68505"/>
				<stop  offset="0.5441" style="stop-color:#F69C05"/>
				<stop  offset="0.5638" style="stop-color:#F6A205"/>
				<stop  offset="0.5977" style="stop-color:#F69005"/>
				<stop  offset="0.6432" style="stop-color:#F67F05"/>
				<stop  offset="0.6931" style="stop-color:#F67505"/>
				<stop  offset="0.7553" style="stop-color:#F67205"/>
				<stop  offset="1" style="stop-color:#D13F05"/>
			</linearGradient>
			<path class="st30" d="M448.6,331.4c1.2,1.6,2.3,3.2,3.5,4.8c2.4,3.3,3.6,7.3,3.6,11.3l-3.5-4.8
				C452.2,338.7,451,334.7,448.6,331.4z"/>
			<polygon class="st16" points="452.2,342.7 455.7,347.5 453.9,348.8 450.4,344 			"/>
			<polygon class="st14" points="434.5,366.2 438,370.9 437.3,372.2 433.8,367.4 			"/>
			
				<linearGradient id="SVGID_15_" gradientUnits="userSpaceOnUse" x1="619.6302" y1="81.4918" x2="658.8457" y2="115.5188" gradientTransform="matrix(1 0 0 -1 -203.7553 454.9268)">
				<stop  offset="0" style="stop-color:#D13F05"/>
				<stop  offset="0.2925" style="stop-color:#F67205"/>
				<stop  offset="0.3667" style="stop-color:#F67705"/>
				<stop  offset="0.4526" style="stop-color:#F68505"/>
				<stop  offset="0.5441" style="stop-color:#F69C05"/>
				<stop  offset="0.5638" style="stop-color:#F6A205"/>
				<stop  offset="0.5977" style="stop-color:#F69005"/>
				<stop  offset="0.6432" style="stop-color:#F67F05"/>
				<stop  offset="0.6931" style="stop-color:#F67505"/>
				<stop  offset="0.7553" style="stop-color:#F67205"/>
				<stop  offset="1" style="stop-color:#D13F05"/>
			</linearGradient>
			<path class="st31" d="M433.8,367.4l3.5,4.8c-5,2-10.5,2.3-15.6,0.9c-3.7-1-6.9-3-9.4-5.9l-3.5-4.8c2.5,2.9,5.8,4.9,9.4,5.9
				C423.3,369.6,428.8,369.3,433.8,367.4z"/>
			<polygon class="st18" points="435.8,366.5 439.3,371.3 438,370.9 434.5,366.2 			"/>
			
				<linearGradient id="SVGID_16_" gradientUnits="userSpaceOnUse" x1="625.1375" y1="75.1447" x2="664.3535" y2="109.1721" gradientTransform="matrix(1 0 0 -1 -203.7553 454.9268)">
				<stop  offset="0" style="stop-color:#D13F05"/>
				<stop  offset="0.2925" style="stop-color:#F67205"/>
				<stop  offset="0.3667" style="stop-color:#F67705"/>
				<stop  offset="0.4526" style="stop-color:#F68505"/>
				<stop  offset="0.5441" style="stop-color:#F69C05"/>
				<stop  offset="0.5638" style="stop-color:#F6A205"/>
				<stop  offset="0.5977" style="stop-color:#F69005"/>
				<stop  offset="0.6432" style="stop-color:#F67F05"/>
				<stop  offset="0.6931" style="stop-color:#F67505"/>
				<stop  offset="0.7553" style="stop-color:#F67205"/>
				<stop  offset="1" style="stop-color:#D13F05"/>
			</linearGradient>
			<path class="st32" d="M452.1,344.5l3.5,4.8c-0.2,2.7-1,5.4-2.1,7.9c-2.9,6.2-7.9,11.2-14.2,14.1l-3.5-4.8
				c6.2-2.9,11.3-7.8,14.2-14.1C451.1,350,451.9,347.3,452.1,344.5z"/>
			
				<linearGradient id="SVGID_17_" gradientUnits="userSpaceOnUse" x1="610.6281" y1="90.8387" x2="653.9467" y2="126.0728" gradientTransform="matrix(1 0 0 -1 -203.7553 454.9268)">
				<stop  offset="0" style="stop-color:#FFFFFF;stop-opacity:0"/>
				<stop  offset="0.2606" style="stop-color:#FFFFFF"/>
				<stop  offset="0.7553" style="stop-color:#FFFFFF"/>
				<stop  offset="1" style="stop-color:#FFFFFF;stop-opacity:0"/>
			</linearGradient>
			<path class="st33" d="M452.3,344.8c-0.2,2.7-1,5.4-2.1,7.9c-2.9,6.2-7.9,11.2-14.2,14.1l-1.3-0.4l-0.8,1.2
				c-5,2-10.5,2.3-15.6,0.9c-3.7-1-6.9-3-9.4-5.9l0-2.4L407,360c-3.2-5.4-3.6-12.6-0.4-19.6c0.9-2.1,2.2-4,3.6-5.8
				c0.7-0.3,1.5-0.7,2.2-1.1l0.3-1.6c5.9-5.7,14.1-8.8,21.8-8l1.7,1.4l4.7,0.2c7.3,3.1,11.5,9.8,11.5,17.5l-1.8,1.3L452.3,344.8z"/>
			
				<linearGradient id="SVGID_18_" gradientUnits="userSpaceOnUse" x1="648.6788" y1="101.5259" x2="604.7432" y2="120.085" gradientTransform="matrix(1 0 0 -1 -203.7553 454.9268)">
				<stop  offset="0" style="stop-color:#FFAF02"/>
				<stop  offset="1" style="stop-color:#F56D05"/>
			</linearGradient>
			<path class="st34" d="M452.1,344.5c-0.2,2.7-1,5.4-2.1,7.9c-2.9,6.2-7.9,11.2-14.2,14.1l-1.3-0.4l-0.8,1.2
				c-5,2-10.5,2.3-15.6,0.9c-3.7-1-6.9-3-9.4-5.9l0-2.4l-1.9-0.2c-3.2-5.4-3.6-12.6-0.4-19.6c0.9-2.1,2.2-4,3.6-5.8
				c0.7-0.3,1.5-0.7,2.2-1.1l0.3-1.6c5.9-5.7,14.1-8.8,21.8-8l1.7,1.4l4.7,0.2c7.3,3.1,11.5,9.8,11.5,17.5l-1.8,1.3L452.1,344.5z"/>
			
				<linearGradient id="SVGID_19_" gradientUnits="userSpaceOnUse" x1="615.8375" y1="123.6524" x2="641.3376" y2="99.2783" gradientTransform="matrix(1 0 0 -1 -203.7553 454.9268)">
				<stop  offset="0" style="stop-color:#FFFFFF;stop-opacity:0"/>
				<stop  offset="0.2606" style="stop-color:#FFFFFF"/>
				<stop  offset="0.7553" style="stop-color:#FFFFFF"/>
				<stop  offset="1" style="stop-color:#FFFFFF;stop-opacity:0"/>
			</linearGradient>
			<path class="st35" d="M435,330.2c8.8,2.5,12.6,11.6,8.6,20.5c-4,8.8-14.4,14-23.2,11.5c-8.8-2.5-12.6-11.6-8.6-20.5
				C415.9,332.9,426.3,327.8,435,330.2z"/>
			
				<linearGradient id="SVGID_20_" gradientUnits="userSpaceOnUse" x1="614.4417" y1="108.6111" x2="649.4078" y2="108.6111" gradientTransform="matrix(1 0 0 -1 -203.7553 454.9268)">
				<stop  offset="0" style="stop-color:#CF4505"/>
				<stop  offset="1" style="stop-color:#E45905"/>
			</linearGradient>
			<path class="st36" d="M435.5,330.3c8.8,2.5,12.6,11.6,8.6,20.5c-4,8.8-14.4,14-23.2,11.5c-8.8-2.5-12.6-11.6-8.6-20.5
				C416.3,333,426.7,327.9,435.5,330.3z"/>
			<path class="st24" d="M422.3,362.6c-8.8-2.5-12.6-11.6-8.6-20.5c3.7-8.2,12.9-13.2,21.2-11.9c-8.6-2.1-18.7,3-22.6,11.7
				c-4,8.8-0.2,18,8.6,20.5c0.6,0.2,1.3,0.3,2,0.4C422.6,362.7,422.4,362.6,422.3,362.6z"/>
			
				<radialGradient id="SVGID_21_" cx="1336.259" cy="-255.8989" r="13.0746" gradientTransform="matrix(7.289723e-02 7.409719e-02 0.4921 -0.4845 472.0562 138.283)" gradientUnits="userSpaceOnUse">
				<stop  offset="0" style="stop-color:#FFFFFF"/>
				<stop  offset="8.578000e-02" style="stop-color:#FFFFFF;stop-opacity:0.9583"/>
				<stop  offset="0.2351" style="stop-color:#FFFFFF;stop-opacity:0.8462"/>
				<stop  offset="0.4301" style="stop-color:#FFFFFF;stop-opacity:0.6642"/>
				<stop  offset="0.6634" style="stop-color:#FFFFFF;stop-opacity:0.4119"/>
				<stop  offset="0.9261" style="stop-color:#FFFFFF;stop-opacity:9.449000e-02"/>
				<stop  offset="1" style="stop-color:#FFFFFF;stop-opacity:0"/>
			</radialGradient>
			<path class="st37" d="M444.5,362.2c-3.6,3.5-6.9,5.9-7.4,5.4c-0.5-0.5,1.9-3.8,5.5-7.3c3.6-3.5,6.9-5.9,7.4-5.4
				C450.5,355.5,448,358.7,444.5,362.2z"/>
			
				<linearGradient id="SVGID_22_" gradientUnits="userSpaceOnUse" x1="626.1741" y1="115.3494" x2="641.9382" y2="96.8545" gradientTransform="matrix(1 0 0 -1 -203.7553 454.9268)">
				<stop  offset="0" style="stop-color:#FFFFFF"/>
				<stop  offset="1" style="stop-color:#FFFFFF;stop-opacity:0"/>
			</linearGradient>
			<path class="st38" d="M447.1,329.6l-38.4,31.8l0,1c2.5,2.9,5.8,4.9,9.4,5.9c0.9,0.2,1.8,0.4,2.7,0.6l29.9-24.7l-0.3-0.1l1.8-1.3
				C452.2,337.9,450.4,333.1,447.1,329.6z"/>
			
				<linearGradient id="SVGID_23_" gradientUnits="userSpaceOnUse" x1="616.9841" y1="123.8561" x2="625.416" y2="115.303" gradientTransform="matrix(1 0 0 -1 -203.7553 454.9268)">
				<stop  offset="0" style="stop-color:#FFFFFF"/>
				<stop  offset="1" style="stop-color:#FFFFFF;stop-opacity:0"/>
			</linearGradient>
			<path class="st39" d="M436,325l-1.7-1.4c-2.3-0.2-4.6-0.1-6.9,0.3l-21.8,18c-1.2,3.2-1.7,6.6-1.4,10.1l32.6-27L436,325z"/>
			<g>
				<defs>
					<rect id="SVGID_24_" x="418.3" y="333.8" width="24.3" height="25.1"/>
				</defs>
				<clipPath id="SVGID_25_">
					<use xlink:href="#SVGID_24_"  style="overflow:visible;"/>
				</clipPath>
				<g class="st40">
					
						<linearGradient id="SVGID_26_" gradientUnits="userSpaceOnUse" x1="2579.179" y1="1849.0548" x2="2579.179" y2="1823.9879" gradientTransform="matrix(1 0 0 1 -2148.7554 -1490.2074)">
						<stop  offset="0" style="stop-color:#FFC000"/>
						<stop  offset="0.28" style="stop-color:#FFC000"/>
						<stop  offset="0.55" style="stop-color:#DAA600"/>
						<stop  offset="1" style="stop-color:#DAA600"/>
					</linearGradient>
					<path class="st41" d="M422.5,344c-0.1-0.1-0.2-0.2-0.3-0.3c-1-1.3-1.8-2.7-2.2-4.3c-0.3-1.1-0.4-2.3-0.2-3.4
						c0-0.6,0.2-1.2,0.5-1.7c0.2-0.3,0.5-0.5,0.9-0.3c0,0,0,0,0,0c0.8,0.3,1.4,0.8,1.9,1.5c1.1,1.5,1.9,3.2,2.2,5.1
						c0.1,0.6,0.1,1.2,0.2,1.7c0,0.2,0,0.4,0.1,0.7c0,0.2,0.1,0.3,0.3,0.2c0.8-0.1,1.6-0.1,2.4,0.2c0.7,0.2,1.3,0.4,2,0.7
						c0.9,0.4,1.8,0.9,2.4,1.7c0.1,0.1,0.2,0.1,0.3,0.1c0,0,0,0,0,0c0,0,0,0,0.1,0c0.2-0.1,0.3-0.3,0.5-0.5c1.5-1.7,3.5-3,5.7-3.6
						c0.7-0.2,1.4-0.3,2.2-0.2c0.3,0,0.6,0.1,0.9,0.3c0.1,0.1,0.2,0.2,0.2,0.4c0,0.2,0,0.4-0.1,0.6c-0.3,0.9-0.8,1.6-1.4,2.3
						c-1.6,1.8-3.7,2.9-6,3.4c-0.2,0-0.3,0-0.5,0.1c0,0.1,0,0.3,0.1,0.4c0.2,0.8,0.3,1.6,0.3,2.5c0,1-0.2,1.9-0.5,2.9
						c-0.3,1.1-0.9,2.1-1.6,2.9c-0.7,0.8-1.6,1.4-2.7,1.6c-0.7,0.2-1.5,0.3-2.3,0.2c-0.7-0.1-1.5-0.2-2.2-0.4
						c-0.8-0.2-1.5-0.5-2.2-0.8c-1.2-0.4-2.3-1.1-3.3-1.9c-1-0.8-1.7-2-1.9-3.3c-0.1-0.6,0-1.2,0-1.8c0.1-0.8,0.3-1.6,0.6-2.3
						c0.5-1.2,1.2-2.2,2.1-3.1c0.4-0.4,0.9-0.7,1.4-1.1L422.5,344z M423.3,352.9L423.3,352.9c-0.8,0-1,0.6-0.9,1.2
						c0,0.1,0,0.2,0.1,0.3c0.2,0.7,0.6,1.3,1.2,1.6c0.6,0.3,1.2,0.5,1.9,0.7c0.9,0.3,1.9,0,2.6-0.6c0.3-0.2,0.4-0.6,0.2-1
						c0-0.1-0.1-0.1-0.2-0.2c-0.4-0.3-0.8-0.5-1.2-0.7c-0.7-0.3-1.4-0.6-2.2-0.8C424.4,353.2,423.8,353.1,423.3,352.9L423.3,352.9z
						 M422.6,346.6c0-0.6-0.2-0.8-0.6-0.9c-0.3-0.1-0.7,0.1-0.9,0.4c-0.8,1-1.5,2.2-1.9,3.5c-0.1,0.2-0.1,0.4,0,0.6
						c0.1,0.4,0.4,0.7,0.8,0.6c0.2,0,0.4-0.1,0.5-0.3c0.3-0.4,0.6-0.8,0.8-1.3c0.3-0.6,0.6-1.2,0.9-1.8
						C422.4,347.2,422.5,346.9,422.6,346.6L422.6,346.6z M434.3,351.2c0-0.2,0-0.5-0.1-0.7c-0.1-0.4-0.5-0.6-0.9-0.5c0,0,0,0,0,0
						c0,0-0.1,0-0.1,0c-0.3,0.1-0.5,0.4-0.5,0.7c-0.3,1.1-0.5,2.1-0.7,3.2c-0.1,0.3-0.1,0.7,0,1c0.1,0.4,0.4,0.6,0.8,0.5
						c0.1,0,0.2-0.1,0.2-0.1c0.3-0.2,0.4-0.4,0.5-0.7c0.2-0.6,0.4-1.2,0.5-1.8C434.1,352.2,434.2,351.7,434.3,351.2L434.3,351.2z"/>
				</g>
			</g>
		</g>
	</g>
</g>
<g>
	<g id="OBJECTS_2_">
		<g>
			<polygon class="st14" points="60.9,360 64.4,364.8 62.5,364.5 59,359.8 			"/>
			
				<linearGradient id="SVGID_27_" gradientUnits="userSpaceOnUse" x1="270.6507" y1="82.9091" x2="309.8682" y2="116.9378" gradientTransform="matrix(1 0 0 -1 -203.7553 454.9268)">
				<stop  offset="0" style="stop-color:#D13F05"/>
				<stop  offset="0.2925" style="stop-color:#F67205"/>
				<stop  offset="0.3667" style="stop-color:#F67705"/>
				<stop  offset="0.4526" style="stop-color:#F68505"/>
				<stop  offset="0.5441" style="stop-color:#F69C05"/>
				<stop  offset="0.5638" style="stop-color:#F6A205"/>
				<stop  offset="0.5977" style="stop-color:#F69005"/>
				<stop  offset="0.6432" style="stop-color:#F67F05"/>
				<stop  offset="0.6931" style="stop-color:#F67505"/>
				<stop  offset="0.7553" style="stop-color:#F67205"/>
				<stop  offset="1" style="stop-color:#D13F05"/>
			</linearGradient>
			<path class="st42" d="M100.9,331.4c1.2,1.6,2.3,3.2,3.5,4.8c2.4,3.3,3.6,7.3,3.6,11.3l-3.5-4.8
				C104.5,338.7,103.2,334.7,100.9,331.4z"/>
			<polygon class="st16" points="104.4,342.7 107.9,347.5 106.1,348.8 102.7,344 			"/>
			<polygon class="st14" points="86.8,366.2 90.3,370.9 89.5,372.2 86,367.4 			"/>
			
				<linearGradient id="SVGID_28_" gradientUnits="userSpaceOnUse" x1="271.8835" y1="81.4918" x2="311.0989" y2="115.5188" gradientTransform="matrix(1 0 0 -1 -203.7553 454.9268)">
				<stop  offset="0" style="stop-color:#D13F05"/>
				<stop  offset="0.2925" style="stop-color:#F67205"/>
				<stop  offset="0.3667" style="stop-color:#F67705"/>
				<stop  offset="0.4526" style="stop-color:#F68505"/>
				<stop  offset="0.5441" style="stop-color:#F69C05"/>
				<stop  offset="0.5638" style="stop-color:#F6A205"/>
				<stop  offset="0.5977" style="stop-color:#F69005"/>
				<stop  offset="0.6432" style="stop-color:#F67F05"/>
				<stop  offset="0.6931" style="stop-color:#F67505"/>
				<stop  offset="0.7553" style="stop-color:#F67205"/>
				<stop  offset="1" style="stop-color:#D13F05"/>
			</linearGradient>
			<path class="st43" d="M86,367.4l3.5,4.8c-5,2-10.5,2.3-15.6,0.9c-3.7-1-6.9-3-9.4-5.9l-3.5-4.8c2.5,2.9,5.8,4.9,9.4,5.9
				C75.6,369.6,81,369.3,86,367.4z"/>
			<polygon class="st18" points="88.1,366.5 91.5,371.3 90.3,370.9 86.8,366.2 			"/>
			
				<linearGradient id="SVGID_29_" gradientUnits="userSpaceOnUse" x1="277.3907" y1="75.1447" x2="316.6068" y2="109.1721" gradientTransform="matrix(1 0 0 -1 -203.7553 454.9268)">
				<stop  offset="0" style="stop-color:#D13F05"/>
				<stop  offset="0.2925" style="stop-color:#F67205"/>
				<stop  offset="0.3667" style="stop-color:#F67705"/>
				<stop  offset="0.4526" style="stop-color:#F68505"/>
				<stop  offset="0.5441" style="stop-color:#F69C05"/>
				<stop  offset="0.5638" style="stop-color:#F6A205"/>
				<stop  offset="0.5977" style="stop-color:#F69005"/>
				<stop  offset="0.6432" style="stop-color:#F67F05"/>
				<stop  offset="0.6931" style="stop-color:#F67505"/>
				<stop  offset="0.7553" style="stop-color:#F67205"/>
				<stop  offset="1" style="stop-color:#D13F05"/>
			</linearGradient>
			<path class="st44" d="M104.4,344.5l3.5,4.8c-0.2,2.7-1,5.4-2.1,7.9c-2.9,6.2-7.9,11.2-14.2,14.1l-3.5-4.8
				c6.2-2.9,11.3-7.8,14.2-14.1C103.4,350,104.1,347.3,104.4,344.5z"/>
			
				<linearGradient id="SVGID_30_" gradientUnits="userSpaceOnUse" x1="262.8813" y1="90.8387" x2="306.1999" y2="126.0728" gradientTransform="matrix(1 0 0 -1 -203.7553 454.9268)">
				<stop  offset="0" style="stop-color:#FFFFFF;stop-opacity:0"/>
				<stop  offset="0.2606" style="stop-color:#FFFFFF"/>
				<stop  offset="0.7553" style="stop-color:#FFFFFF"/>
				<stop  offset="1" style="stop-color:#FFFFFF;stop-opacity:0"/>
			</linearGradient>
			<path class="st45" d="M104.6,344.8c-0.2,2.7-1,5.4-2.1,7.9c-2.9,6.2-7.9,11.2-14.2,14.1l-1.3-0.4l-0.8,1.2
				c-5,2-10.5,2.3-15.6,0.9c-3.7-1-6.9-3-9.4-5.9l0-2.4l-1.9-0.2c-3.2-5.4-3.6-12.6-0.4-19.6c0.9-2.1,2.2-4,3.6-5.8
				c0.7-0.3,1.5-0.7,2.2-1.1l0.3-1.6c5.9-5.7,14.1-8.8,21.8-8l1.7,1.4l4.7,0.2c7.3,3.1,11.5,9.8,11.5,17.5l-1.8,1.3L104.6,344.8z"/>
			
				<linearGradient id="SVGID_31_" gradientUnits="userSpaceOnUse" x1="300.9321" y1="101.5259" x2="256.9965" y2="120.085" gradientTransform="matrix(1 0 0 -1 -203.7553 454.9268)">
				<stop  offset="0" style="stop-color:#FFAF02"/>
				<stop  offset="1" style="stop-color:#F56D05"/>
			</linearGradient>
			<path class="st46" d="M104.4,344.5c-0.2,2.7-1,5.4-2.1,7.9c-2.9,6.2-7.9,11.2-14.2,14.1l-1.3-0.4l-0.8,1.2
				c-5,2-10.5,2.3-15.6,0.9c-3.7-1-6.9-3-9.4-5.9l0-2.4l-1.9-0.2c-3.2-5.4-3.6-12.6-0.4-19.6c0.9-2.1,2.2-4,3.6-5.8
				c0.7-0.3,1.5-0.7,2.2-1.1l0.3-1.6c5.9-5.7,14.1-8.8,21.8-8l1.7,1.4l4.7,0.2c7.3,3.1,11.5,9.8,11.5,17.5l-1.8,1.3L104.4,344.5z"/>
			
				<linearGradient id="SVGID_32_" gradientUnits="userSpaceOnUse" x1="268.0907" y1="123.6524" x2="293.5908" y2="99.2783" gradientTransform="matrix(1 0 0 -1 -203.7553 454.9268)">
				<stop  offset="0" style="stop-color:#FFFFFF;stop-opacity:0"/>
				<stop  offset="0.2606" style="stop-color:#FFFFFF"/>
				<stop  offset="0.7553" style="stop-color:#FFFFFF"/>
				<stop  offset="1" style="stop-color:#FFFFFF;stop-opacity:0"/>
			</linearGradient>
			<path class="st47" d="M87.3,330.2c8.8,2.5,12.6,11.6,8.6,20.5c-4,8.8-14.4,14-23.2,11.5c-8.8-2.5-12.6-11.6-8.6-20.5
				C68.1,332.9,78.5,327.8,87.3,330.2z"/>
			
				<linearGradient id="SVGID_33_" gradientUnits="userSpaceOnUse" x1="266.6949" y1="108.6111" x2="301.661" y2="108.6111" gradientTransform="matrix(1 0 0 -1 -203.7553 454.9268)">
				<stop  offset="0" style="stop-color:#CF4505"/>
				<stop  offset="1" style="stop-color:#E45905"/>
			</linearGradient>
			<path class="st48" d="M87.7,330.3c8.8,2.5,12.6,11.6,8.6,20.5c-4,8.8-14.4,14-23.2,11.5c-8.8-2.5-12.6-11.6-8.6-20.5
				C68.6,333,79,327.9,87.7,330.3z"/>
			<path class="st24" d="M74.5,362.6c-8.8-2.5-12.6-11.6-8.6-20.5c3.7-8.2,12.9-13.2,21.2-11.9c-8.6-2.1-18.7,3-22.6,11.7
				c-4,8.8-0.2,18,8.6,20.5c0.6,0.2,1.3,0.3,2,0.4C74.9,362.7,74.7,362.6,74.5,362.6z"/>
			
				<radialGradient id="SVGID_34_" cx="-1010.8954" cy="-614.8755" r="13.0746" gradientTransform="matrix(7.289723e-02 7.409719e-02 0.4921 -0.4845 472.0562 138.283)" gradientUnits="userSpaceOnUse">
				<stop  offset="0" style="stop-color:#FFFFFF"/>
				<stop  offset="8.578000e-02" style="stop-color:#FFFFFF;stop-opacity:0.9583"/>
				<stop  offset="0.2351" style="stop-color:#FFFFFF;stop-opacity:0.8462"/>
				<stop  offset="0.4301" style="stop-color:#FFFFFF;stop-opacity:0.6642"/>
				<stop  offset="0.6634" style="stop-color:#FFFFFF;stop-opacity:0.4119"/>
				<stop  offset="0.9261" style="stop-color:#FFFFFF;stop-opacity:9.449000e-02"/>
				<stop  offset="1" style="stop-color:#FFFFFF;stop-opacity:0"/>
			</radialGradient>
			<path class="st49" d="M96.7,362.2c-3.6,3.5-6.9,5.9-7.4,5.4c-0.5-0.5,1.9-3.8,5.5-7.3c3.6-3.5,6.9-5.9,7.4-5.4
				C102.8,355.5,100.3,358.7,96.7,362.2z"/>
			
				<linearGradient id="SVGID_35_" gradientUnits="userSpaceOnUse" x1="278.4273" y1="115.3494" x2="294.1914" y2="96.8545" gradientTransform="matrix(1 0 0 -1 -203.7553 454.9268)">
				<stop  offset="0" style="stop-color:#FFFFFF"/>
				<stop  offset="1" style="stop-color:#FFFFFF;stop-opacity:0"/>
			</linearGradient>
			<path class="st50" d="M99.3,329.6l-38.4,31.8l0,1c2.5,2.9,5.8,4.9,9.4,5.9c0.9,0.2,1.8,0.4,2.7,0.6l29.9-24.7l-0.3-0.1l1.8-1.3
				C104.5,337.9,102.7,333.1,99.3,329.6z"/>
			
				<linearGradient id="SVGID_36_" gradientUnits="userSpaceOnUse" x1="269.2373" y1="123.8561" x2="277.6692" y2="115.303" gradientTransform="matrix(1 0 0 -1 -203.7553 454.9268)">
				<stop  offset="0" style="stop-color:#FFFFFF"/>
				<stop  offset="1" style="stop-color:#FFFFFF;stop-opacity:0"/>
			</linearGradient>
			<path class="st51" d="M88.2,325l-1.7-1.4c-2.3-0.2-4.6-0.1-6.9,0.3l-21.8,18c-1.2,3.2-1.7,6.6-1.4,10.1l32.6-27L88.2,325z"/>
			<g>
				<defs>
					<rect id="SVGID_37_" x="70.5" y="333.8" width="24.3" height="25.1"/>
				</defs>
				<clipPath id="SVGID_38_">
					<use xlink:href="#SVGID_37_"  style="overflow:visible;"/>
				</clipPath>
				<g class="st52">
					
						<linearGradient id="SVGID_39_" gradientUnits="userSpaceOnUse" x1="2231.4321" y1="1849.0548" x2="2231.4321" y2="1823.9879" gradientTransform="matrix(1 0 0 1 -2148.7554 -1490.2074)">
						<stop  offset="0" style="stop-color:#FFC000"/>
						<stop  offset="0.28" style="stop-color:#FFC000"/>
						<stop  offset="0.55" style="stop-color:#DAA600"/>
						<stop  offset="1" style="stop-color:#DAA600"/>
					</linearGradient>
					<path class="st53" d="M74.8,344c-0.1-0.1-0.2-0.2-0.3-0.3c-1-1.3-1.8-2.7-2.2-4.3c-0.3-1.1-0.4-2.3-0.2-3.4
						c0-0.6,0.2-1.2,0.5-1.7c0.2-0.3,0.5-0.5,0.9-0.3c0,0,0,0,0,0c0.8,0.3,1.4,0.8,1.9,1.5c1.1,1.5,1.9,3.2,2.2,5.1
						c0.1,0.6,0.1,1.2,0.2,1.7c0,0.2,0,0.4,0.1,0.7c0,0.2,0.1,0.3,0.3,0.2c0.8-0.1,1.6-0.1,2.4,0.2c0.7,0.2,1.3,0.4,2,0.7
						c0.9,0.4,1.8,0.9,2.4,1.7c0.1,0.1,0.2,0.1,0.3,0.1c0,0,0,0,0,0c0,0,0,0,0.1,0c0.2-0.1,0.3-0.3,0.5-0.5c1.5-1.7,3.5-3,5.7-3.6
						c0.7-0.2,1.4-0.3,2.2-0.2c0.3,0,0.6,0.1,0.9,0.3c0.1,0.1,0.2,0.2,0.2,0.4c0,0.2,0,0.4-0.1,0.6c-0.3,0.9-0.8,1.6-1.4,2.3
						c-1.6,1.8-3.7,2.9-6,3.4c-0.2,0-0.3,0-0.5,0.1c0,0.1,0,0.3,0.1,0.4c0.2,0.8,0.3,1.6,0.3,2.5c0,1-0.2,1.9-0.5,2.9
						c-0.3,1.1-0.9,2.1-1.6,2.9c-0.7,0.8-1.6,1.4-2.7,1.6c-0.7,0.2-1.5,0.3-2.3,0.2c-0.7-0.1-1.5-0.2-2.2-0.4
						c-0.8-0.2-1.5-0.5-2.2-0.8c-1.2-0.4-2.3-1.1-3.3-1.9c-1-0.8-1.7-2-1.9-3.3c-0.1-0.6,0-1.2,0-1.8c0.1-0.8,0.3-1.6,0.6-2.3
						c0.5-1.2,1.2-2.2,2.1-3.1c0.4-0.4,0.9-0.7,1.4-1.1L74.8,344z M75.6,352.9L75.6,352.9c-0.8,0-1,0.6-0.9,1.2c0,0.1,0,0.2,0.1,0.3
						c0.2,0.7,0.6,1.3,1.2,1.6c0.6,0.3,1.2,0.5,1.9,0.7c0.9,0.3,1.9,0,2.6-0.6c0.3-0.2,0.4-0.6,0.2-1c0-0.1-0.1-0.1-0.2-0.2
						c-0.4-0.3-0.8-0.5-1.2-0.7c-0.7-0.3-1.4-0.6-2.2-0.8C76.6,353.2,76.1,353.1,75.6,352.9L75.6,352.9z M74.9,346.6
						c0-0.6-0.2-0.8-0.6-0.9c-0.3-0.1-0.7,0.1-0.9,0.4c-0.8,1-1.5,2.2-1.9,3.5c-0.1,0.2-0.1,0.4,0,0.6c0.1,0.4,0.4,0.7,0.8,0.6
						c0.2,0,0.4-0.1,0.5-0.3c0.3-0.4,0.6-0.8,0.8-1.3c0.3-0.6,0.6-1.2,0.9-1.8C74.7,347.2,74.8,346.9,74.9,346.6L74.9,346.6z
						 M86.6,351.2c0-0.2,0-0.5-0.1-0.7c-0.1-0.4-0.5-0.6-0.9-0.5c0,0,0,0,0,0c0,0-0.1,0-0.1,0c-0.3,0.1-0.5,0.4-0.5,0.7
						c-0.3,1.1-0.5,2.1-0.7,3.2c-0.1,0.3-0.1,0.7,0,1c0.1,0.4,0.4,0.6,0.8,0.5c0.1,0,0.2-0.1,0.2-0.1c0.3-0.2,0.4-0.4,0.5-0.7
						c0.2-0.6,0.4-1.2,0.5-1.8C86.4,352.2,86.5,351.7,86.6,351.2L86.6,351.2z"/>
				</g>
			</g>
		</g>
	</g>
</g>
<g>
	<g id="OBJECTS_4_">
		<g>
			<polygon class="st14" points="410.5,160.3 414,165.1 412.1,164.8 408.7,160 			"/>
			
				<linearGradient id="SVGID_40_" gradientUnits="userSpaceOnUse" x1="620.2712" y1="282.6283" x2="659.4887" y2="316.657" gradientTransform="matrix(1 0 0 -1 -203.7553 454.9268)">
				<stop  offset="0" style="stop-color:#D13F05"/>
				<stop  offset="0.2925" style="stop-color:#F67205"/>
				<stop  offset="0.3667" style="stop-color:#F67705"/>
				<stop  offset="0.4526" style="stop-color:#F68505"/>
				<stop  offset="0.5441" style="stop-color:#F69C05"/>
				<stop  offset="0.5638" style="stop-color:#F6A205"/>
				<stop  offset="0.5977" style="stop-color:#F69005"/>
				<stop  offset="0.6432" style="stop-color:#F67F05"/>
				<stop  offset="0.6931" style="stop-color:#F67505"/>
				<stop  offset="0.7553" style="stop-color:#F67205"/>
				<stop  offset="1" style="stop-color:#D13F05"/>
			</linearGradient>
			<path class="st54" d="M450.5,131.7c1.2,1.6,2.3,3.2,3.5,4.8c2.4,3.3,3.6,7.3,3.6,11.3l-3.5-4.8C454.1,139,452.8,135,450.5,131.7z
				"/>
			<polygon class="st16" points="454.1,143 457.5,147.8 455.8,149.1 452.3,144.3 			"/>
			<polygon class="st14" points="436.4,166.4 439.9,171.2 439.1,172.4 435.6,167.6 			"/>
			
				<linearGradient id="SVGID_41_" gradientUnits="userSpaceOnUse" x1="621.504" y1="281.2111" x2="660.7194" y2="315.238" gradientTransform="matrix(1 0 0 -1 -203.7553 454.9268)">
				<stop  offset="0" style="stop-color:#D13F05"/>
				<stop  offset="0.2925" style="stop-color:#F67205"/>
				<stop  offset="0.3667" style="stop-color:#F67705"/>
				<stop  offset="0.4526" style="stop-color:#F68505"/>
				<stop  offset="0.5441" style="stop-color:#F69C05"/>
				<stop  offset="0.5638" style="stop-color:#F6A205"/>
				<stop  offset="0.5977" style="stop-color:#F69005"/>
				<stop  offset="0.6432" style="stop-color:#F67F05"/>
				<stop  offset="0.6931" style="stop-color:#F67505"/>
				<stop  offset="0.7553" style="stop-color:#F67205"/>
				<stop  offset="1" style="stop-color:#D13F05"/>
			</linearGradient>
			<path class="st55" d="M435.6,167.6l3.5,4.8c-5,2-10.5,2.3-15.6,0.9c-3.7-1-6.9-3-9.4-5.9l-3.5-4.8c2.5,2.9,5.8,4.9,9.4,5.9
				C425.2,169.9,430.7,169.6,435.6,167.6z"/>
			<polygon class="st18" points="437.7,166.8 441.2,171.6 439.9,171.2 436.4,166.4 			"/>
			
				<linearGradient id="SVGID_42_" gradientUnits="userSpaceOnUse" x1="627.0112" y1="274.8639" x2="666.2273" y2="308.8913" gradientTransform="matrix(1 0 0 -1 -203.7553 454.9268)">
				<stop  offset="0" style="stop-color:#D13F05"/>
				<stop  offset="0.2925" style="stop-color:#F67205"/>
				<stop  offset="0.3667" style="stop-color:#F67705"/>
				<stop  offset="0.4526" style="stop-color:#F68505"/>
				<stop  offset="0.5441" style="stop-color:#F69C05"/>
				<stop  offset="0.5638" style="stop-color:#F6A205"/>
				<stop  offset="0.5977" style="stop-color:#F69005"/>
				<stop  offset="0.6432" style="stop-color:#F67F05"/>
				<stop  offset="0.6931" style="stop-color:#F67505"/>
				<stop  offset="0.7553" style="stop-color:#F67205"/>
				<stop  offset="1" style="stop-color:#D13F05"/>
			</linearGradient>
			<path class="st56" d="M454,144.8l3.5,4.8c-0.2,2.7-1,5.4-2.1,7.9c-2.9,6.2-7.9,11.2-14.2,14.1l-3.5-4.8
				c6.2-2.9,11.3-7.8,14.2-14.1C453,150.2,453.7,147.5,454,144.8z"/>
			
				<linearGradient id="SVGID_43_" gradientUnits="userSpaceOnUse" x1="612.5018" y1="290.558" x2="655.8204" y2="325.792" gradientTransform="matrix(1 0 0 -1 -203.7553 454.9268)">
				<stop  offset="0" style="stop-color:#FFFFFF;stop-opacity:0"/>
				<stop  offset="0.2606" style="stop-color:#FFFFFF"/>
				<stop  offset="0.7553" style="stop-color:#FFFFFF"/>
				<stop  offset="1" style="stop-color:#FFFFFF;stop-opacity:0"/>
			</linearGradient>
			<path class="st57" d="M454.2,145.1c-0.2,2.7-1,5.4-2.1,7.9c-2.9,6.2-7.9,11.2-14.2,14.1l-1.3-0.4l-0.8,1.2
				c-5,2-10.5,2.3-15.6,0.9c-3.7-1-6.9-3-9.4-5.9l0-2.4l-1.9-0.2c-3.2-5.4-3.6-12.6-0.4-19.6c0.9-2.1,2.2-4,3.6-5.8
				c0.7-0.3,1.5-0.7,2.2-1.1l0.3-1.6c5.9-5.7,14.1-8.8,21.8-8l1.7,1.4l4.7,0.2c7.3,3.1,11.5,9.8,11.5,17.5l-1.8,1.3L454.2,145.1z"/>
			
				<linearGradient id="SVGID_44_" gradientUnits="userSpaceOnUse" x1="650.5526" y1="301.2451" x2="606.617" y2="319.8043" gradientTransform="matrix(1 0 0 -1 -203.7553 454.9268)">
				<stop  offset="0" style="stop-color:#FFAF02"/>
				<stop  offset="1" style="stop-color:#F56D05"/>
			</linearGradient>
			<path class="st58" d="M454,144.8c-0.2,2.7-1,5.4-2.1,7.9c-2.9,6.2-7.9,11.2-14.2,14.1l-1.3-0.4l-0.8,1.2c-5,2-10.5,2.3-15.6,0.9
				c-3.7-1-6.9-3-9.4-5.9l0-2.4l-1.9-0.2c-3.2-5.4-3.6-12.6-0.4-19.6c0.9-2.1,2.2-4,3.6-5.8c0.7-0.3,1.5-0.7,2.2-1.1l0.3-1.6
				c5.9-5.7,14.1-8.8,21.8-8l1.7,1.4l4.7,0.2c7.3,3.1,11.5,9.8,11.5,17.5l-1.8,1.3L454,144.8z"/>
			
				<linearGradient id="SVGID_45_" gradientUnits="userSpaceOnUse" x1="617.7112" y1="323.3716" x2="643.2113" y2="298.9975" gradientTransform="matrix(1 0 0 -1 -203.7553 454.9268)">
				<stop  offset="0" style="stop-color:#FFFFFF;stop-opacity:0"/>
				<stop  offset="0.2606" style="stop-color:#FFFFFF"/>
				<stop  offset="0.7553" style="stop-color:#FFFFFF"/>
				<stop  offset="1" style="stop-color:#FFFFFF;stop-opacity:0"/>
			</linearGradient>
			<path class="st59" d="M436.9,130.5c8.8,2.5,12.6,11.6,8.6,20.5c-4,8.8-14.4,14-23.2,11.5c-8.8-2.5-12.6-11.6-8.6-20.5
				C417.7,133.2,428.1,128,436.9,130.5z"/>
			
				<linearGradient id="SVGID_46_" gradientUnits="userSpaceOnUse" x1="616.3154" y1="308.3303" x2="651.2816" y2="308.3303" gradientTransform="matrix(1 0 0 -1 -203.7553 454.9268)">
				<stop  offset="0" style="stop-color:#CF4505"/>
				<stop  offset="1" style="stop-color:#E45905"/>
			</linearGradient>
			<path class="st60" d="M437.4,130.6c8.8,2.5,12.6,11.6,8.6,20.5c-4,8.8-14.4,14-23.2,11.5c-8.8-2.5-12.6-11.6-8.6-20.5
				C418.2,133.3,428.6,128.1,437.4,130.6z"/>
			<path class="st24" d="M424.1,162.9c-8.8-2.5-12.6-11.6-8.6-20.5c3.7-8.2,12.9-13.2,21.2-11.9c-8.6-2.1-18.7,3-22.6,11.7
				c-4,8.8-0.2,18,8.6,20.5c0.6,0.2,1.3,0.3,2,0.4C424.5,163,424.3,162.9,424.1,162.9z"/>
			
				<radialGradient id="SVGID_47_" cx="-20.266" cy="-51.1347" r="13.0746" gradientTransform="matrix(7.289723e-02 7.409719e-02 0.4921 -0.4845 472.0562 138.283)" gradientUnits="userSpaceOnUse">
				<stop  offset="0" style="stop-color:#FFFFFF"/>
				<stop  offset="8.578000e-02" style="stop-color:#FFFFFF;stop-opacity:0.9583"/>
				<stop  offset="0.2351" style="stop-color:#FFFFFF;stop-opacity:0.8462"/>
				<stop  offset="0.4301" style="stop-color:#FFFFFF;stop-opacity:0.6642"/>
				<stop  offset="0.6634" style="stop-color:#FFFFFF;stop-opacity:0.4119"/>
				<stop  offset="0.9261" style="stop-color:#FFFFFF;stop-opacity:9.449000e-02"/>
				<stop  offset="1" style="stop-color:#FFFFFF;stop-opacity:0"/>
			</radialGradient>
			<path class="st61" d="M446.4,162.5c-3.6,3.5-6.9,5.9-7.4,5.4c-0.5-0.5,1.9-3.8,5.5-7.3c3.6-3.5,6.9-5.9,7.4-5.4
				C452.4,155.8,449.9,159,446.4,162.5z"/>
			
				<linearGradient id="SVGID_48_" gradientUnits="userSpaceOnUse" x1="628.0478" y1="315.0686" x2="643.812" y2="296.5737" gradientTransform="matrix(1 0 0 -1 -203.7553 454.9268)">
				<stop  offset="0" style="stop-color:#FFFFFF"/>
				<stop  offset="1" style="stop-color:#FFFFFF;stop-opacity:0"/>
			</linearGradient>
			<path class="st62" d="M448.9,129.9l-38.4,31.8l0,1c2.5,2.9,5.8,4.9,9.4,5.9c0.9,0.2,1.8,0.4,2.7,0.6l29.9-24.7l-0.3-0.1l1.8-1.3
				C454.1,138.1,452.3,133.4,448.9,129.9z"/>
			
				<linearGradient id="SVGID_49_" gradientUnits="userSpaceOnUse" x1="618.8578" y1="323.5753" x2="627.2897" y2="315.0222" gradientTransform="matrix(1 0 0 -1 -203.7553 454.9268)">
				<stop  offset="0" style="stop-color:#FFFFFF"/>
				<stop  offset="1" style="stop-color:#FFFFFF;stop-opacity:0"/>
			</linearGradient>
			<path class="st63" d="M437.8,125.3l-1.7-1.4c-2.3-0.2-4.6-0.1-6.9,0.3l-21.8,18c-1.2,3.2-1.7,6.6-1.4,10.1l32.6-27L437.8,125.3z"
				/>
			<g>
				<defs>
					<rect id="SVGID_50_" x="420.1" y="134.1" width="24.3" height="25.1"/>
				</defs>
				<clipPath id="SVGID_51_">
					<use xlink:href="#SVGID_50_"  style="overflow:visible;"/>
				</clipPath>
				<g class="st64">
					
						<linearGradient id="SVGID_52_" gradientUnits="userSpaceOnUse" x1="2581.0527" y1="1649.3356" x2="2581.0527" y2="1624.2687" gradientTransform="matrix(1 0 0 1 -2148.7554 -1490.2074)">
						<stop  offset="0" style="stop-color:#FFC000"/>
						<stop  offset="0.28" style="stop-color:#FFC000"/>
						<stop  offset="0.55" style="stop-color:#DAA600"/>
						<stop  offset="1" style="stop-color:#DAA600"/>
					</linearGradient>
					<path class="st65" d="M424.4,144.3c-0.1-0.1-0.2-0.2-0.3-0.3c-1-1.3-1.8-2.7-2.2-4.3c-0.3-1.1-0.4-2.3-0.2-3.4
						c0-0.6,0.2-1.2,0.5-1.7c0.2-0.3,0.5-0.5,0.9-0.3c0,0,0,0,0,0c0.8,0.3,1.4,0.8,1.9,1.5c1.1,1.5,1.9,3.2,2.2,5.1
						c0.1,0.6,0.1,1.2,0.2,1.7c0,0.2,0,0.4,0.1,0.7c0,0.2,0.1,0.3,0.3,0.2c0.8-0.1,1.6-0.1,2.4,0.2c0.7,0.2,1.3,0.4,2,0.7
						c0.9,0.4,1.8,0.9,2.4,1.7c0.1,0.1,0.2,0.1,0.3,0.1c0,0,0,0,0,0c0,0,0,0,0.1,0c0.2-0.1,0.3-0.3,0.5-0.5c1.5-1.7,3.5-3,5.7-3.6
						c0.7-0.2,1.4-0.3,2.2-0.2c0.3,0,0.6,0.1,0.9,0.3c0.1,0.1,0.2,0.2,0.2,0.4c0,0.2,0,0.4-0.1,0.6c-0.3,0.9-0.8,1.6-1.4,2.3
						c-1.6,1.8-3.7,2.9-6,3.4c-0.2,0-0.3,0-0.5,0.1c0,0.1,0,0.3,0.1,0.4c0.2,0.8,0.3,1.6,0.3,2.5c0,1-0.2,1.9-0.5,2.9
						c-0.3,1.1-0.9,2.1-1.6,2.9c-0.7,0.8-1.6,1.4-2.7,1.6c-0.7,0.2-1.5,0.3-2.3,0.2c-0.7-0.1-1.5-0.2-2.2-0.4
						c-0.8-0.2-1.5-0.5-2.2-0.8c-1.2-0.4-2.3-1.1-3.3-1.9c-1-0.8-1.7-2-1.9-3.3c-0.1-0.6,0-1.2,0-1.8c0.1-0.8,0.3-1.6,0.6-2.3
						c0.5-1.2,1.2-2.2,2.1-3.1c0.4-0.4,0.9-0.7,1.4-1.1L424.4,144.3z M425.2,153.2L425.2,153.2c-0.8,0-1,0.6-0.9,1.2
						c0,0.1,0,0.2,0.1,0.3c0.2,0.7,0.6,1.3,1.2,1.6c0.6,0.3,1.2,0.5,1.9,0.7c0.9,0.3,1.9,0,2.6-0.6c0.3-0.2,0.4-0.6,0.2-1
						c0-0.1-0.1-0.1-0.2-0.2c-0.4-0.3-0.8-0.5-1.2-0.7c-0.7-0.3-1.4-0.6-2.2-0.8C426.2,153.5,425.7,153.4,425.2,153.2L425.2,153.2z
						 M424.5,146.9c0-0.6-0.2-0.8-0.6-0.9c-0.3-0.1-0.7,0.1-0.9,0.4c-0.8,1-1.5,2.2-1.9,3.5c-0.1,0.2-0.1,0.4,0,0.6
						c0.1,0.4,0.4,0.7,0.8,0.6c0.2,0,0.4-0.1,0.5-0.3c0.3-0.4,0.6-0.8,0.8-1.3c0.3-0.6,0.6-1.2,0.9-1.8
						C424.3,147.5,424.4,147.2,424.5,146.9L424.5,146.9z M436.2,151.5c0-0.2,0-0.5-0.1-0.7c-0.1-0.4-0.5-0.6-0.9-0.5c0,0,0,0,0,0
						c0,0-0.1,0-0.1,0c-0.3,0.1-0.5,0.4-0.5,0.7c-0.3,1.1-0.5,2.1-0.7,3.2c-0.1,0.3-0.1,0.7,0,1c0.1,0.4,0.4,0.6,0.8,0.5
						c0.1,0,0.2-0.1,0.2-0.1c0.3-0.2,0.4-0.4,0.5-0.7c0.2-0.6,0.4-1.2,0.5-1.8C436,152.5,436.1,152,436.2,151.5L436.2,151.5z"/>
				</g>
			</g>
		</g>
	</g>
</g>
<g>
	<g id="OBJECTS_3_">
		<g>
			<polygon class="st14" points="62.8,160.3 66.3,165.1 64.4,164.8 60.9,160 			"/>
			
				<linearGradient id="SVGID_53_" gradientUnits="userSpaceOnUse" x1="272.5244" y1="282.6283" x2="311.742" y2="316.657" gradientTransform="matrix(1 0 0 -1 -203.7553 454.9268)">
				<stop  offset="0" style="stop-color:#D13F05"/>
				<stop  offset="0.2925" style="stop-color:#F67205"/>
				<stop  offset="0.3667" style="stop-color:#F67705"/>
				<stop  offset="0.4526" style="stop-color:#F68505"/>
				<stop  offset="0.5441" style="stop-color:#F69C05"/>
				<stop  offset="0.5638" style="stop-color:#F6A205"/>
				<stop  offset="0.5977" style="stop-color:#F69005"/>
				<stop  offset="0.6432" style="stop-color:#F67F05"/>
				<stop  offset="0.6931" style="stop-color:#F67505"/>
				<stop  offset="0.7553" style="stop-color:#F67205"/>
				<stop  offset="1" style="stop-color:#D13F05"/>
			</linearGradient>
			<path class="st66" d="M102.7,131.7c1.2,1.6,2.3,3.2,3.5,4.8c2.4,3.3,3.6,7.3,3.6,11.3l-3.5-4.8C106.3,139,105.1,135,102.7,131.7z
				"/>
			<polygon class="st16" points="106.3,143 109.8,147.8 108,149.1 104.5,144.3 			"/>
			<polygon class="st14" points="88.7,166.4 92.1,171.2 91.4,172.4 87.9,167.6 			"/>
			
				<linearGradient id="SVGID_54_" gradientUnits="userSpaceOnUse" x1="273.7572" y1="281.2111" x2="312.9727" y2="315.238" gradientTransform="matrix(1 0 0 -1 -203.7553 454.9268)">
				<stop  offset="0" style="stop-color:#D13F05"/>
				<stop  offset="0.2925" style="stop-color:#F67205"/>
				<stop  offset="0.3667" style="stop-color:#F67705"/>
				<stop  offset="0.4526" style="stop-color:#F68505"/>
				<stop  offset="0.5441" style="stop-color:#F69C05"/>
				<stop  offset="0.5638" style="stop-color:#F6A205"/>
				<stop  offset="0.5977" style="stop-color:#F69005"/>
				<stop  offset="0.6432" style="stop-color:#F67F05"/>
				<stop  offset="0.6931" style="stop-color:#F67505"/>
				<stop  offset="0.7553" style="stop-color:#F67205"/>
				<stop  offset="1" style="stop-color:#D13F05"/>
			</linearGradient>
			<path class="st67" d="M87.9,167.6l3.5,4.8c-5,2-10.5,2.3-15.6,0.9c-3.7-1-6.9-3-9.4-5.9l-3.5-4.8c2.5,2.9,5.8,4.9,9.4,5.9
				C77.4,169.9,82.9,169.6,87.9,167.6z"/>
			<polygon class="st18" points="89.9,166.8 93.4,171.6 92.1,171.2 88.7,166.4 			"/>
			
				<linearGradient id="SVGID_55_" gradientUnits="userSpaceOnUse" x1="279.2645" y1="274.8639" x2="318.4805" y2="308.8913" gradientTransform="matrix(1 0 0 -1 -203.7553 454.9268)">
				<stop  offset="0" style="stop-color:#D13F05"/>
				<stop  offset="0.2925" style="stop-color:#F67205"/>
				<stop  offset="0.3667" style="stop-color:#F67705"/>
				<stop  offset="0.4526" style="stop-color:#F68505"/>
				<stop  offset="0.5441" style="stop-color:#F69C05"/>
				<stop  offset="0.5638" style="stop-color:#F6A205"/>
				<stop  offset="0.5977" style="stop-color:#F69005"/>
				<stop  offset="0.6432" style="stop-color:#F67F05"/>
				<stop  offset="0.6931" style="stop-color:#F67505"/>
				<stop  offset="0.7553" style="stop-color:#F67205"/>
				<stop  offset="1" style="stop-color:#D13F05"/>
			</linearGradient>
			<path class="st68" d="M106.2,144.8l3.5,4.8c-0.2,2.7-1,5.4-2.1,7.9c-2.9,6.2-7.9,11.2-14.2,14.1l-3.5-4.8
				c6.2-2.9,11.3-7.8,14.2-14.1C105.3,150.2,106,147.5,106.2,144.8z"/>
			
				<linearGradient id="SVGID_56_" gradientUnits="userSpaceOnUse" x1="264.755" y1="290.558" x2="308.0736" y2="325.792" gradientTransform="matrix(1 0 0 -1 -203.7553 454.9268)">
				<stop  offset="0" style="stop-color:#FFFFFF;stop-opacity:0"/>
				<stop  offset="0.2606" style="stop-color:#FFFFFF"/>
				<stop  offset="0.7553" style="stop-color:#FFFFFF"/>
				<stop  offset="1" style="stop-color:#FFFFFF;stop-opacity:0"/>
			</linearGradient>
			<path class="st69" d="M106.4,145.1c-0.2,2.7-1,5.4-2.1,7.9c-2.9,6.2-7.9,11.2-14.2,14.1l-1.3-0.4l-0.8,1.2
				c-5,2-10.5,2.3-15.6,0.9c-3.7-1-6.9-3-9.4-5.9l0-2.4l-1.9-0.2c-3.2-5.4-3.6-12.6-0.4-19.6c0.9-2.1,2.2-4,3.6-5.8
				c0.7-0.3,1.5-0.7,2.2-1.1l0.3-1.6c5.9-5.7,14.1-8.8,21.8-8l1.7,1.4l4.7,0.2c7.3,3.1,11.5,9.8,11.5,17.5l-1.8,1.3L106.4,145.1z"/>
			
				<linearGradient id="SVGID_57_" gradientUnits="userSpaceOnUse" x1="302.8058" y1="301.2451" x2="258.8702" y2="319.8043" gradientTransform="matrix(1 0 0 -1 -203.7553 454.9268)">
				<stop  offset="0" style="stop-color:#FFAF02"/>
				<stop  offset="1" style="stop-color:#F56D05"/>
			</linearGradient>
			<path class="st70" d="M106.2,144.8c-0.2,2.7-1,5.4-2.1,7.9c-2.9,6.2-7.9,11.2-14.2,14.1l-1.3-0.4l-0.8,1.2
				c-5,2-10.5,2.3-15.6,0.9c-3.7-1-6.9-3-9.4-5.9l0-2.4l-1.9-0.2c-3.2-5.4-3.6-12.6-0.4-19.6c0.9-2.1,2.2-4,3.6-5.8
				c0.7-0.3,1.5-0.7,2.2-1.1l0.3-1.6c5.9-5.7,14.1-8.8,21.8-8l1.7,1.4l4.7,0.2c7.3,3.1,11.5,9.8,11.5,17.5l-1.8,1.3L106.2,144.8z"/>
			
				<linearGradient id="SVGID_58_" gradientUnits="userSpaceOnUse" x1="269.9645" y1="323.3716" x2="295.4646" y2="298.9975" gradientTransform="matrix(1 0 0 -1 -203.7553 454.9268)">
				<stop  offset="0" style="stop-color:#FFFFFF;stop-opacity:0"/>
				<stop  offset="0.2606" style="stop-color:#FFFFFF"/>
				<stop  offset="0.7553" style="stop-color:#FFFFFF"/>
				<stop  offset="1" style="stop-color:#FFFFFF;stop-opacity:0"/>
			</linearGradient>
			<path class="st71" d="M89.2,130.5c8.8,2.5,12.6,11.6,8.6,20.5c-4,8.8-14.4,14-23.2,11.5C65.8,160,61.9,150.9,66,142
				C70,133.2,80.4,128,89.2,130.5z"/>
			
				<linearGradient id="SVGID_59_" gradientUnits="userSpaceOnUse" x1="268.5686" y1="308.3303" x2="303.5348" y2="308.3303" gradientTransform="matrix(1 0 0 -1 -203.7553 454.9268)">
				<stop  offset="0" style="stop-color:#CF4505"/>
				<stop  offset="1" style="stop-color:#E45905"/>
			</linearGradient>
			<path class="st72" d="M89.6,130.6c8.8,2.5,12.6,11.6,8.6,20.5c-4,8.8-14.4,14-23.2,11.5c-8.8-2.5-12.6-11.6-8.6-20.5
				C70.5,133.3,80.8,128.1,89.6,130.6z"/>
			<path class="st24" d="M76.4,162.9c-8.8-2.5-12.6-11.6-8.6-20.5c3.7-8.2,12.9-13.2,21.2-11.9c-8.6-2.1-18.7,3-22.6,11.7
				c-4,8.8-0.2,18,8.6,20.5c0.6,0.2,1.3,0.3,2,0.4C76.8,163,76.6,162.9,76.4,162.9z"/>
			
				<radialGradient id="SVGID_60_" cx="-2367.4204" cy="-410.1113" r="13.0746" gradientTransform="matrix(7.289723e-02 7.409719e-02 0.4921 -0.4845 472.0562 138.283)" gradientUnits="userSpaceOnUse">
				<stop  offset="0" style="stop-color:#FFFFFF"/>
				<stop  offset="8.578000e-02" style="stop-color:#FFFFFF;stop-opacity:0.9583"/>
				<stop  offset="0.2351" style="stop-color:#FFFFFF;stop-opacity:0.8462"/>
				<stop  offset="0.4301" style="stop-color:#FFFFFF;stop-opacity:0.6642"/>
				<stop  offset="0.6634" style="stop-color:#FFFFFF;stop-opacity:0.4119"/>
				<stop  offset="0.9261" style="stop-color:#FFFFFF;stop-opacity:9.449000e-02"/>
				<stop  offset="1" style="stop-color:#FFFFFF;stop-opacity:0"/>
			</radialGradient>
			<path class="st73" d="M98.6,162.5c-3.6,3.5-6.9,5.9-7.4,5.4c-0.5-0.5,1.9-3.8,5.5-7.3c3.6-3.5,6.9-5.9,7.4-5.4
				C104.6,155.8,102.2,159,98.6,162.5z"/>
			
				<linearGradient id="SVGID_61_" gradientUnits="userSpaceOnUse" x1="280.3011" y1="315.0686" x2="296.0652" y2="296.5737" gradientTransform="matrix(1 0 0 -1 -203.7553 454.9268)">
				<stop  offset="0" style="stop-color:#FFFFFF"/>
				<stop  offset="1" style="stop-color:#FFFFFF;stop-opacity:0"/>
			</linearGradient>
			<path class="st74" d="M101.2,129.9l-38.4,31.8l0,1c2.5,2.9,5.8,4.9,9.4,5.9c0.9,0.2,1.8,0.4,2.7,0.6l29.9-24.7l-0.3-0.1l1.8-1.3
				C106.4,138.1,104.5,133.4,101.2,129.9z"/>
			
				<linearGradient id="SVGID_62_" gradientUnits="userSpaceOnUse" x1="271.1111" y1="323.5753" x2="279.5429" y2="315.0222" gradientTransform="matrix(1 0 0 -1 -203.7553 454.9268)">
				<stop  offset="0" style="stop-color:#FFFFFF"/>
				<stop  offset="1" style="stop-color:#FFFFFF;stop-opacity:0"/>
			</linearGradient>
			<path class="st75" d="M90.1,125.3l-1.7-1.4c-2.3-0.2-4.6-0.1-6.9,0.3l-21.8,18c-1.2,3.2-1.7,6.6-1.4,10.1l32.6-27L90.1,125.3z"/>
			<g>
				<defs>
					<rect id="SVGID_63_" x="72.4" y="134.1" width="24.3" height="25.1"/>
				</defs>
				<clipPath id="SVGID_64_">
					<use xlink:href="#SVGID_63_"  style="overflow:visible;"/>
				</clipPath>
				<g class="st76">
					
						<linearGradient id="SVGID_65_" gradientUnits="userSpaceOnUse" x1="2233.3059" y1="1649.3356" x2="2233.3059" y2="1624.2687" gradientTransform="matrix(1 0 0 1 -2148.7554 -1490.2074)">
						<stop  offset="0" style="stop-color:#FFC000"/>
						<stop  offset="0.28" style="stop-color:#FFC000"/>
						<stop  offset="0.55" style="stop-color:#DAA600"/>
						<stop  offset="1" style="stop-color:#DAA600"/>
					</linearGradient>
					<path class="st77" d="M76.7,144.3c-0.1-0.1-0.2-0.2-0.3-0.3c-1-1.3-1.8-2.7-2.2-4.3c-0.3-1.1-0.4-2.3-0.2-3.4
						c0-0.6,0.2-1.2,0.5-1.7c0.2-0.3,0.5-0.5,0.9-0.3c0,0,0,0,0,0c0.8,0.3,1.4,0.8,1.9,1.5c1.1,1.5,1.9,3.2,2.2,5.1
						c0.1,0.6,0.1,1.2,0.2,1.7c0,0.2,0,0.4,0.1,0.7c0,0.2,0.1,0.3,0.3,0.2c0.8-0.1,1.6-0.1,2.4,0.2c0.7,0.2,1.3,0.4,2,0.7
						c0.9,0.4,1.8,0.9,2.4,1.7c0.1,0.1,0.2,0.1,0.3,0.1c0,0,0,0,0,0c0,0,0,0,0.1,0c0.2-0.1,0.3-0.3,0.5-0.5c1.5-1.7,3.5-3,5.7-3.6
						c0.7-0.2,1.4-0.3,2.2-0.2c0.3,0,0.6,0.1,0.9,0.3c0.1,0.1,0.2,0.2,0.2,0.4c0,0.2,0,0.4-0.1,0.6c-0.3,0.9-0.8,1.6-1.4,2.3
						c-1.6,1.8-3.7,2.9-6,3.4c-0.2,0-0.3,0-0.5,0.1c0,0.1,0,0.3,0.1,0.4c0.2,0.8,0.3,1.6,0.3,2.5c0,1-0.2,1.9-0.5,2.9
						c-0.3,1.1-0.9,2.1-1.6,2.9c-0.7,0.8-1.6,1.4-2.7,1.6c-0.7,0.2-1.5,0.3-2.3,0.2c-0.7-0.1-1.5-0.2-2.2-0.4
						c-0.8-0.2-1.5-0.5-2.2-0.8c-1.2-0.4-2.3-1.1-3.3-1.9c-1-0.8-1.7-2-1.9-3.3c-0.1-0.6,0-1.2,0-1.8c0.1-0.8,0.3-1.6,0.6-2.3
						c0.5-1.2,1.2-2.2,2.1-3.1c0.4-0.4,0.9-0.7,1.4-1.1L76.7,144.3z M77.4,153.2L77.4,153.2c-0.8,0-1,0.6-0.9,1.2
						c0,0.1,0,0.2,0.1,0.3c0.2,0.7,0.6,1.3,1.2,1.6c0.6,0.3,1.2,0.5,1.9,0.7c0.9,0.3,1.9,0,2.6-0.6c0.3-0.2,0.4-0.6,0.2-1
						c0-0.1-0.1-0.1-0.2-0.2c-0.4-0.3-0.8-0.5-1.2-0.7c-0.7-0.3-1.4-0.6-2.2-0.8C78.5,153.5,78,153.4,77.4,153.2L77.4,153.2z
						 M76.8,146.9c0-0.6-0.2-0.8-0.6-0.9c-0.3-0.1-0.7,0.1-0.9,0.4c-0.8,1-1.5,2.2-1.9,3.5c-0.1,0.2-0.1,0.4,0,0.6
						c0.1,0.4,0.4,0.7,0.8,0.6c0.2,0,0.4-0.1,0.5-0.3c0.3-0.4,0.6-0.8,0.8-1.3c0.3-0.6,0.6-1.2,0.9-1.8
						C76.5,147.5,76.7,147.2,76.8,146.9L76.8,146.9z M88.4,151.5c0-0.2,0-0.5-0.1-0.7c-0.1-0.4-0.5-0.6-0.9-0.5c0,0,0,0,0,0
						c0,0-0.1,0-0.1,0c-0.3,0.1-0.5,0.4-0.5,0.7c-0.3,1.1-0.5,2.1-0.7,3.2c-0.1,0.3-0.1,0.7,0,1c0.1,0.4,0.4,0.6,0.8,0.5
						c0.1,0,0.2-0.1,0.2-0.1c0.3-0.2,0.4-0.4,0.5-0.7c0.2-0.6,0.4-1.2,0.5-1.8C88.3,152.5,88.3,152,88.4,151.5L88.4,151.5z"/>
				</g>
			</g>
		</g>
	</g>
</g>
</svg>
