<?xml version="1.0" encoding="utf-8"?>
<!-- Generator: Adobe Illustrator 25.2.1, SVG Export Plug-In . SVG Version: 6.00 Build 0)  -->
<svg version="1.1" id="Layer_1" xmlns="http://www.w3.org/2000/svg" xmlns:xlink="http://www.w3.org/1999/xlink" x="0px" y="0px"
	 viewBox="0 0 512 512" style="enable-background:new 0 0 512 512;" xml:space="preserve">
<style type="text/css">
	.st0{fill:#9EA9C9;}
	.st1{enable-background:new    ;}
	.st2{fill:#B0B8CF;}
	.st3{fill:#E3E7F0;}
	.st4{fill:#111D33;}
	.st5{fill:#C9CEE2;}
	.st6{fill:#1D2943;}
	.st7{fill:#4C5C75;}
	.st8{fill:#FFD06C;}
	.st9{opacity:0.4;}
	.st10{fill:#5094FF;}
	.st11{fill:#497BFE;}
	.st12{opacity:0.3;}
	.st13{fill:#FFFFFF;}
	.st14{opacity:0.2;}
	.st15{fill:#986FF9;}
	.st16{fill:#72D561;}
	.st17{fill:#F45170;}
	.st18{fill:#DEDFFB;}
	.st19{fill:#F3F1FC;}
	.st20{fill:#EF7B56;}
	.st21{fill:#C1C4E8;}
	.st22{fill:#C69C6C;}
	.st23{fill:#B28AFD;}
	.st24{fill:#FFDE9B;}
	.st25{fill:#EFAC41;}
	.st26{fill:#FEBC1F;}
	.st27{fill:#D84905;}
	.st28{fill:url(#SVGID_1_);}
	.st29{fill:#F67205;}
	.st30{fill:url(#SVGID_2_);}
	.st31{fill:#F69D05;}
	.st32{fill:url(#SVGID_3_);}
	.st33{opacity:0.7;fill:url(#SVGID_4_);enable-background:new    ;}
	.st34{fill:url(#SVGID_5_);}
	.st35{opacity:0.7;fill:url(#SVGID_6_);enable-background:new    ;}
	.st36{fill:url(#SVGID_7_);}
	.st37{fill:#BA3E05;}
	.st38{opacity:0.5;fill:url(#SVGID_8_);enable-background:new    ;}
	.st39{opacity:0.4;fill:url(#SVGID_9_);enable-background:new    ;}
	.st40{opacity:0.4;fill:url(#SVGID_10_);enable-background:new    ;}
	.st41{clip-path:url(#SVGID_12_);}
	.st42{fill-rule:evenodd;clip-rule:evenodd;fill:url(#SVGID_13_);}
	.st43{opacity:0.35;}
	.st44{fill:#57B3FE;}
</style>
<g>
	<g>
		<g>
			<g>
				<g>
					<path class="st0" d="M88.3,261.8c-3,0-6-0.7-8.4-2L24.9,228c-2.6-1.5-4-3.6-4.1-6c0-2.3,1.4-4.4,4-5.9l54.7-31.8
						c4.6-2.7,11.9-2.7,16.6,0l55.1,31.8c2.6,1.5,4.1,3.6,4.1,6c0,2.3-1.4,4.4-4,5.9l-54.7,31.8C94.3,261.2,91.3,261.8,88.3,261.8z
						 M87.9,186.2c-2.3,0-4.6,0.5-6.3,1.5l-54.7,31.8c-1.3,0.8-2,1.7-2,2.5c0,0.9,0.8,1.8,2.1,2.6l55.1,31.8c3.5,2,9.3,2,12.7,0
						l54.7-31.8c1.3-0.8,2-1.7,2-2.5c0-0.9-0.8-1.8-2.1-2.6l-55.1-31.8C92.5,186.7,90.2,186.2,87.9,186.2z"/>
				</g>
			</g>
			<g>
				<g>
					<g>
						<g class="st1">
							<g>
								<path class="st2" d="M150.4,197.6l-54.7,31.8c-4,2.4-10.6,2.3-14.7,0l-55.1-31.8c-2-1.2-3.1-2.7-3.1-4.3l0,17.6
									c0,1.5,1,3.1,3.1,4.3L80.9,247c4.1,2.4,10.6,2.4,14.7,0l54.7-31.8c2-1.2,3-2.7,3-4.2l0-17.6
									C153.4,194.9,152.4,196.4,150.4,197.6z"/>
							</g>
							<g>
								<g>
									<path class="st3" d="M150.3,189.1c4.1,2.4,4.1,6.1,0.1,8.5l-54.7,31.8c-4,2.4-10.6,2.3-14.7,0l-55.1-31.8
										c-4.1-2.4-4.1-6.1,0-8.5l54.7-31.8c4-2.4,10.6-2.4,14.6,0L150.3,189.1z"/>
								</g>
							</g>
						</g>
					</g>
					<g>
						<g>
							<g>
								<g>
									<g>
										<g>
											<g>
												<g>
													<g>
														<g>
															<g>
																<path class="st4" d="M141,172.1l0,16.2L88.2,219l0-16.2L141,172.1z"/>
															</g>
															<g>
																<path class="st5" d="M113.8,190.7l-21.5,12.5c-1.1,0.6-1.7,1.7-1.7,3l0,6.3c0,1.1,1.1,1.7,2.1,1.2l21.5-12.5
																	c1.1-0.6,1.7-1.7,1.7-3v-6.3C115.9,190.8,114.7,190.1,113.8,190.7z"/>
															</g>
														</g>
													</g>
													<g>
														<g>
															<g>
																<path class="st6" d="M88.2,202.8l0,16.2l-53.1-30.7l0-16.2L88.2,202.8z"/>
															</g>
														</g>
													</g>
													<g>
														<g>
															<g>
																<path class="st7" d="M141,172.1l-52.7,30.7l-53.1-30.7l52.7-30.7L141,172.1z"/>
															</g>
														</g>
													</g>
												</g>
											</g>
											<g>
												<g>
													<g>
														<g>
															<path class="st8" d="M121.2,192.5l2.3,1.3l-2.3,4l-2.3-1.3L121.2,192.5z"/>
														</g>
													</g>
												</g>
												<g>
													<g>
														<g>
															<path class="st8" d="M121.2,185.7l2.3,1.3l-2.3,4l-2.3-1.3L121.2,185.7z"/>
														</g>
													</g>
												</g>
												<g>
													<g>
														<g>
															<path class="st8" d="M137.6,177.4l0,2.9l-11.1,6.4l0-2.9L137.6,177.4z"/>
														</g>
													</g>
												</g>
												<g>
													<g>
														<g>
															<path class="st8" d="M137.6,184.2l0,3.2l-11.1,6.4l0-3.2L137.6,184.2z"/>
														</g>
													</g>
												</g>
											</g>
										</g>
										<g>
											<g>
												<g>
													<g>
														<g>
															<g>
																<path class="st4" d="M141,151.5l0,16.2l-52.7,30.7l0-16.2L141,151.5z"/>
															</g>
															<g>
																<path class="st5" d="M113.8,170.1l-21.5,12.5c-1.1,0.6-1.7,1.7-1.7,3l0,6.3c0,1.1,1.1,1.7,2.1,1.2l21.5-12.5
																	c1.1-0.6,1.7-1.7,1.7-3v-6.3C115.9,170.2,114.7,169.6,113.8,170.1z"/>
															</g>
														</g>
													</g>
													<g>
														<g>
															<g>
																<path class="st6" d="M88.2,182.2l0,16.2l-53.1-30.7l0-16.2L88.2,182.2z"/>
															</g>
														</g>
													</g>
													<g>
														<g>
															<g>
																<path class="st7" d="M141,151.5l-52.7,30.7l-53.1-30.7l52.7-30.7L141,151.5z"/>
															</g>
														</g>
													</g>
												</g>
											</g>
											<g>
												<g>
													<g>
														<g>
															<path class="st8" d="M121.2,171.9l2.3,1.3l-2.3,4l-2.3-1.3L121.2,171.9z"/>
														</g>
													</g>
												</g>
												<g>
													<g>
														<g>
															<path class="st8" d="M121.2,165.1l2.3,1.3l-2.3,4l-2.3-1.3L121.2,165.1z"/>
														</g>
													</g>
												</g>
												<g>
													<g>
														<g>
															<path class="st8" d="M137.6,156.8l0,2.9l-11.1,6.4l0-2.9L137.6,156.8z"/>
														</g>
													</g>
												</g>
												<g>
													<g>
														<g>
															<path class="st8" d="M137.6,163.7l0,3.2l-11.1,6.4l0-3.2L137.6,163.7z"/>
														</g>
													</g>
												</g>
											</g>
										</g>
										<g>
											<g>
												<g>
													<g>
														<g>
															<g>
																<path class="st4" d="M141,131l0,16.2l-52.7,30.7l0-16.2L141,131z"/>
															</g>
															<g>
																<path class="st5" d="M113.8,149.5L92.3,162c-1.1,0.6-1.7,1.7-1.7,3l0,6.3c0,1.1,1.1,1.7,2.1,1.2l21.5-12.5
																	c1.1-0.6,1.7-1.7,1.7-3v-6.3C115.9,149.7,114.7,149,113.8,149.5z"/>
															</g>
														</g>
													</g>
													<g>
														<g>
															<g>
																<path class="st6" d="M88.2,161.6l0,16.2l-53.1-30.7l0-16.2L88.2,161.6z"/>
															</g>
														</g>
													</g>
													<g>
														<g>
															<g>
																<path class="st7" d="M141,131l-52.7,30.7L35.1,131l52.7-30.7L141,131z"/>
															</g>
														</g>
													</g>
												</g>
											</g>
											<g>
												<g>
													<g>
														<g>
															<path class="st8" d="M121.2,151.4l2.3,1.3l-2.3,4l-2.3-1.3L121.2,151.4z"/>
														</g>
													</g>
												</g>
												<g>
													<g>
														<g>
															<path class="st8" d="M121.2,144.5l2.3,1.3l-2.3,4l-2.3-1.3L121.2,144.5z"/>
														</g>
													</g>
												</g>
												<g>
													<g>
														<g>
															<path class="st8" d="M137.6,136.3l0,2.9l-11.1,6.4l0-2.9L137.6,136.3z"/>
														</g>
													</g>
												</g>
												<g>
													<g>
														<g>
															<path class="st8" d="M137.6,143.1l0,3.2l-11.1,6.4l0-3.2L137.6,143.1z"/>
														</g>
													</g>
												</g>
											</g>
										</g>
										<g>
											<g>
												<g>
													<g>
														<g>
															<g>
																<path class="st4" d="M141,110.4l0,16.2l-52.7,30.7l0-16.2L141,110.4z"/>
															</g>
															<g>
																<path class="st5" d="M113.8,129l-21.5,12.5c-1.1,0.6-1.7,1.7-1.7,3l0,6.3c0,1.1,1.1,1.7,2.1,1.2l21.5-12.5
																	c1.1-0.6,1.7-1.7,1.7-3v-6.3C115.9,129.1,114.7,128.4,113.8,129z"/>
															</g>
														</g>
													</g>
													<g>
														<g>
															<g>
																<path class="st6" d="M88.2,141.1l0,16.2l-53.1-30.7l0-16.2L88.2,141.1z"/>
															</g>
														</g>
													</g>
													<g>
														<g>
															<g>
																<path class="st7" d="M141,110.4l-52.7,30.7l-53.1-30.7l52.7-30.7L141,110.4z"/>
															</g>
														</g>
													</g>
												</g>
											</g>
											<g>
												<g>
													<g>
														<g>
															<path class="st8" d="M121.2,130.8l2.3,1.3l-2.3,4l-2.3-1.3L121.2,130.8z"/>
														</g>
													</g>
												</g>
												<g>
													<g>
														<g>
															<path class="st8" d="M121.2,124l2.3,1.3l-2.3,4l-2.3-1.3L121.2,124z"/>
														</g>
													</g>
												</g>
												<g>
													<g>
														<g>
															<path class="st8" d="M137.6,115.7l0,2.9l-11.1,6.4l0-2.9L137.6,115.7z"/>
														</g>
													</g>
												</g>
												<g>
													<g>
														<g>
															<path class="st8" d="M137.6,122.5l0,3.2l-11.1,6.4l0-3.2L137.6,122.5z"/>
														</g>
													</g>
												</g>
											</g>
										</g>
										<g class="st9">
											<g>
												<g>
													<g>
														<path class="st10" d="M146.4,91v47.1l0,17.7v34.9l-40.7,23.7l-17.5,10.1l0-42.5l0-57.3L146.4,91z"/>
													</g>
												</g>
											</g>
											<g>
												<g>
													<g>
														<path class="st11" d="M88.3,124.8l0,36.7v26.7l0,23.7v12.6l-58.6-33.8v-31.9l0-23.7V91L88.3,124.8z"/>
													</g>
												</g>
											</g>
										</g>
									</g>
								</g>
								<g class="st12">
									<g>
										<path class="st13" d="M146.4,98.5v26.2l-58.2,83.6v-26.2L146.4,98.5z"/>
									</g>
									<g>
										<path class="st13" d="M146.4,138.2l0,17.7l-40.7,58.5l-17.5,10.1v-2.8L146.4,138.2z"/>
									</g>
								</g>
								<g class="st14">
									<g>
										<path class="st13" d="M29.8,94.8V121l58.4,83.8v-26.2L29.8,94.8z"/>
									</g>
									<g>
										<path class="st13" d="M29.8,134.4l0,17.7l40.7,58.5l17.6,10.2v-2.8L29.8,134.4z"/>
									</g>
								</g>
							</g>
						</g>
					</g>
					<g>
						<g class="st1">
							<g>
								<path class="st2" d="M150.4,86.5l-54.7,31.8c-4,2.4-10.6,2.3-14.7,0L25.9,86.5c-2-1.2-3.1-2.7-3.1-4.3l0,17.6
									c0,1.5,1,3.1,3.1,4.3l55.1,31.8c4.1,2.4,10.6,2.4,14.7,0l54.7-31.8c2-1.2,3-2.7,3-4.2l0-17.6
									C153.4,83.8,152.4,85.3,150.4,86.5z"/>
							</g>
							<g>
								<g>
									<path class="st3" d="M150.3,78c4.1,2.4,4.1,6.1,0.1,8.5l-54.7,31.8c-4,2.4-10.6,2.3-14.7,0L25.9,86.5
										c-4.1-2.4-4.1-6.1,0-8.5l54.7-31.8c4-2.4,10.6-2.4,14.6,0L150.3,78z"/>
								</g>
							</g>
						</g>
					</g>
					<g>
						<g>
							<g>
								<path class="st15" d="M109.3,102.2c1.5,0.8,1.5,2.2,0,3.1c-1.4,0.8-3.8,0.8-5.3,0c-1.4-0.8-1.5-2.2,0-3
									C105.5,101.4,107.8,101.4,109.3,102.2z"/>
							</g>
						</g>
						<g>
							<g>
								<path class="st16" d="M100.8,107.1c1.5,0.8,1.5,2.2,0,3c-1.5,0.8-3.8,0.8-5.3,0c-1.4-0.8-1.5-2.2,0-3
									C97,106.3,99.4,106.3,100.8,107.1z"/>
							</g>
						</g>
						<g>
							<g>
								<path class="st17" d="M92.4,112c1.5,0.8,1.5,2.2,0,3.1c-1.4,0.8-3.8,0.8-5.3,0c-1.4-0.8-1.5-2.2,0-3
									C88.6,111.2,91,111.2,92.4,112z"/>
							</g>
						</g>
					</g>
					<g>
						<g class="st1">
							<g>
								<path class="st2" d="M126.9,76.2L92.8,96.1c-2.5,1.5-6.6,1.5-9.1,0L49.3,76.2c-1.3-0.7-1.9-1.7-1.9-2.7l0,7.4
									c0,1,0.6,1.9,1.9,2.7l34.3,19.8c2.5,1.5,6.6,1.5,9.1,0l34.1-19.8c1.2-0.7,1.9-1.7,1.9-2.6l0-7.4
									C128.7,74.6,128.1,75.5,126.9,76.2z"/>
							</g>
							<g>
								<g>
									<path class="st13" d="M126.8,71c2.5,1.5,2.6,3.8,0,5.3L92.8,96.1c-2.5,1.5-6.6,1.5-9.1,0L49.3,76.2c-2.5-1.5-2.5-3.8,0-5.3
										l34.1-19.8c2.5-1.5,6.6-1.5,9.1,0L126.8,71z"/>
								</g>
							</g>
						</g>
					</g>
				</g>
			</g>
		</g>
	</g>
	<g>
		<g>
			<g>
				<g>
					<path class="st0" d="M88.3,493.3c-3,0-6-0.7-8.4-2l-55.1-31.8c-2.6-1.5-4-3.6-4.1-5.9c0-2.3,1.4-4.4,4-5.9l54.7-31.8
						c4.6-2.7,11.9-2.7,16.6,0l55.1,31.8h0c2.6,1.5,4.1,3.6,4.1,6c0,2.3-1.4,4.4-4,5.9l-54.7,31.8C94.3,492.6,91.3,493.3,88.3,493.3
						z M87.9,417.7c-2.3,0-4.6,0.5-6.3,1.5L26.8,451c-1.3,0.8-2,1.7-2,2.5c0,0.9,0.8,1.8,2.1,2.5l55.1,31.8c3.5,2,9.3,2,12.7,0
						l54.7-31.8c1.3-0.8,2-1.7,2-2.5c0-0.9-0.8-1.8-2.1-2.6c0,0,0,0,0,0l-55.1-31.8C92.5,418.2,90.2,417.7,87.9,417.7z"/>
				</g>
			</g>
			<g>
				<g>
					<g>
						<g class="st1">
							<g>
								<path class="st2" d="M24.5,428.1c-1-0.8-1.6-1.8-1.7-2.8v-0.6C22.8,425.9,23.4,427.1,24.5,428.1z"/>
							</g>
							<g>
								<g>
									<path class="st2" d="M153.4,424.8l-0.1,17.6c0,1.5-1,3.1-3,4.1l-54.7,31.8c-4,2.4-10.6,2.4-14.7,0l-55.1-31.8
										c-2.1-1.2-3.1-2.7-3.1-4.2l0.1-17c0.1,1,0.7,2,1.7,2.8c-1-0.9-1.5-2-1.6-3.1c-0.1-1.6,0.8-3.2,2.9-4.4l54.7-31.8
										c4-2.4,10.6-2.4,14.7,0l55.1,31.8C152.4,421.8,153.4,423.2,153.4,424.8z"/>
									<path class="st2" d="M22.9,425c0,0.1-0.1,0.2-0.1,0.3v-0.6C22.8,424.8,22.9,424.9,22.9,425z"/>
									<path class="st2" d="M24.5,428.1c-1-0.8-1.6-1.8-1.7-2.8v-0.6C22.8,425.9,23.4,427.1,24.5,428.1z"/>
								</g>
							</g>
						</g>
					</g>
					<g>
						<g class="st1">
							<g>
								<path class="st2" d="M150.4,429l-54.7,31.8c-4,2.4-10.6,2.3-14.7,0L25.9,429c-2-1.2-3.1-2.7-3.1-4.3l0,17.6
									c0,1.5,1,3.1,3.1,4.3l55.1,31.8c4.1,2.4,10.6,2.4,14.7,0l54.7-31.8c2-1.2,3-2.7,3-4.2l0-17.6
									C153.4,426.4,152.4,427.9,150.4,429z"/>
							</g>
							<g>
								<g>
									<path class="st3" d="M150.3,420.5c4.1,2.4,4.1,6.1,0.1,8.5l-54.7,31.8c-4,2.4-10.6,2.3-14.7,0L25.9,429
										c-4.1-2.4-4.1-6.1,0-8.5l54.7-31.8c4-2.4,10.6-2.4,14.6,0L150.3,420.5z"/>
								</g>
							</g>
						</g>
					</g>
					<g>
						<g>
							<g>
								<g>
									<g>
										<g>
											<g>
												<g>
													<g>
														<g>
															<g>
																<path class="st4" d="M141,403.6l0,16.2l-52.7,30.7l0-16.2L141,403.6z"/>
															</g>
															<g>
																<path class="st5" d="M113.8,422.1l-21.5,12.5c-1.1,0.6-1.7,1.7-1.7,3l0,6.3c0,1.1,1.1,1.7,2.1,1.2l21.5-12.5
																	c1.1-0.6,1.7-1.7,1.7-3v-6.3C115.9,422.2,114.7,421.6,113.8,422.1z"/>
															</g>
														</g>
													</g>
													<g>
														<g>
															<g>
																<path class="st6" d="M88.2,434.2l0,16.2l-53.1-30.7l0-16.2L88.2,434.2z"/>
															</g>
														</g>
													</g>
													<g>
														<g>
															<g>
																<path class="st7" d="M141,403.6l-52.7,30.7l-53.1-30.7l52.7-30.7L141,403.6z"/>
															</g>
														</g>
													</g>
												</g>
											</g>
											<g>
												<g>
													<g>
														<g>
															<path class="st8" d="M121.2,423.9l2.3,1.3l-2.3,4l-2.3-1.3L121.2,423.9z"/>
														</g>
													</g>
												</g>
												<g>
													<g>
														<g>
															<path class="st8" d="M121.2,417.1l2.3,1.3l-2.3,4l-2.3-1.3L121.2,417.1z"/>
														</g>
													</g>
												</g>
												<g>
													<g>
														<g>
															<path class="st8" d="M137.6,408.8l0,2.9l-11.1,6.4l0-2.9L137.6,408.8z"/>
														</g>
													</g>
												</g>
												<g>
													<g>
														<g>
															<path class="st8" d="M137.6,415.7l0,3.2l-11.1,6.4l0-3.2L137.6,415.7z"/>
														</g>
													</g>
												</g>
											</g>
										</g>
										<g>
											<g>
												<g>
													<g>
														<g>
															<g>
																<path class="st4" d="M141,383l0,16.2l-52.7,30.7l0-16.2L141,383z"/>
															</g>
															<g>
																<path class="st5" d="M113.8,401.5L92.3,414c-1.1,0.6-1.7,1.7-1.7,3l0,6.3c0,1.1,1.1,1.7,2.1,1.2l21.5-12.5
																	c1.1-0.6,1.7-1.7,1.7-3v-6.3C115.9,401.7,114.7,401,113.8,401.5z"/>
															</g>
														</g>
													</g>
													<g>
														<g>
															<g>
																<path class="st6" d="M88.2,413.6l0,16.2l-53.1-30.7l0-16.2L88.2,413.6z"/>
															</g>
														</g>
													</g>
													<g>
														<g>
															<g>
																<path class="st7" d="M141,383l-52.7,30.7L35.1,383l52.7-30.7L141,383z"/>
															</g>
														</g>
													</g>
												</g>
											</g>
											<g>
												<g>
													<g>
														<g>
															<path class="st8" d="M121.2,403.4l2.3,1.3l-2.3,4l-2.3-1.3L121.2,403.4z"/>
														</g>
													</g>
												</g>
												<g>
													<g>
														<g>
															<path class="st8" d="M121.2,396.5l2.3,1.3l-2.3,4l-2.3-1.3L121.2,396.5z"/>
														</g>
													</g>
												</g>
												<g>
													<g>
														<g>
															<path class="st8" d="M137.6,388.3l0,2.9l-11.1,6.4l0-2.9L137.6,388.3z"/>
														</g>
													</g>
												</g>
												<g>
													<g>
														<g>
															<path class="st8" d="M137.6,395.1l0,3.2l-11.1,6.4l0-3.2L137.6,395.1z"/>
														</g>
													</g>
												</g>
											</g>
										</g>
										<g>
											<g>
												<g>
													<g>
														<g>
															<g>
																<path class="st4" d="M141,362.4l0,16.2l-52.7,30.7l0-16.2L141,362.4z"/>
															</g>
															<g>
																<path class="st5" d="M113.8,381l-21.5,12.5c-1.1,0.6-1.7,1.7-1.7,3l0,6.3c0,1.1,1.1,1.7,2.1,1.2l21.5-12.5
																	c1.1-0.6,1.7-1.7,1.7-3v-6.3C115.9,381.1,114.7,380.5,113.8,381z"/>
															</g>
														</g>
													</g>
													<g>
														<g>
															<g>
																<path class="st6" d="M88.2,393.1l0,16.2l-53.1-30.7l0-16.2L88.2,393.1z"/>
															</g>
														</g>
													</g>
													<g>
														<g>
															<g>
																<path class="st7" d="M141,362.4l-52.7,30.7l-53.1-30.7l52.7-30.7L141,362.4z"/>
															</g>
														</g>
													</g>
												</g>
											</g>
											<g>
												<g>
													<g>
														<g>
															<path class="st8" d="M121.2,382.8l2.3,1.3l-2.3,4l-2.3-1.3L121.2,382.8z"/>
														</g>
													</g>
												</g>
												<g>
													<g>
														<g>
															<path class="st8" d="M121.2,376l2.3,1.3l-2.3,4l-2.3-1.3L121.2,376z"/>
														</g>
													</g>
												</g>
												<g>
													<g>
														<g>
															<path class="st8" d="M137.6,367.7l0,2.9l-11.1,6.4l0-2.9L137.6,367.7z"/>
														</g>
													</g>
												</g>
												<g>
													<g>
														<g>
															<path class="st8" d="M137.6,374.5l0,3.2l-11.1,6.4l0-3.2L137.6,374.5z"/>
														</g>
													</g>
												</g>
											</g>
										</g>
										<g>
											<g>
												<g>
													<g>
														<g>
															<g>
																<path class="st4" d="M141,341.9l0,16.2l-52.7,30.7l0-16.2L141,341.9z"/>
															</g>
															<g>
																<path class="st5" d="M113.8,360.4l-21.5,12.5c-1.1,0.6-1.7,1.7-1.7,3l0,6.3c0,1.1,1.1,1.7,2.1,1.2l21.5-12.5
																	c1.1-0.6,1.7-1.7,1.7-3v-6.3C115.9,360.5,114.7,359.9,113.8,360.4z"/>
															</g>
														</g>
													</g>
													<g>
														<g>
															<g>
																<path class="st6" d="M88.2,372.5l0,16.2l-53.1-30.7l0-16.2L88.2,372.5z"/>
															</g>
														</g>
													</g>
													<g>
														<g>
															<g>
																<path class="st7" d="M141,341.9l-52.7,30.7l-53.1-30.7l52.7-30.7L141,341.9z"/>
															</g>
														</g>
													</g>
												</g>
											</g>
											<g>
												<g>
													<g>
														<g>
															<path class="st8" d="M121.2,362.2l2.3,1.3l-2.3,4l-2.3-1.3L121.2,362.2z"/>
														</g>
													</g>
												</g>
												<g>
													<g>
														<g>
															<path class="st8" d="M121.2,355.4l2.3,1.3l-2.3,4l-2.3-1.3L121.2,355.4z"/>
														</g>
													</g>
												</g>
												<g>
													<g>
														<g>
															<path class="st8" d="M137.6,347.1l0,2.9l-11.1,6.4l0-2.9L137.6,347.1z"/>
														</g>
													</g>
												</g>
												<g>
													<g>
														<g>
															<path class="st8" d="M137.6,354l0,3.2l-11.1,6.4l0-3.2L137.6,354z"/>
														</g>
													</g>
												</g>
											</g>
										</g>
										<g class="st9">
											<g>
												<g>
													<g>
														<path class="st10" d="M146.4,322.5v47.1l0,17.7v34.9l-40.7,23.7L88.2,456l0-42.5l0-57.3L146.4,322.5z"/>
													</g>
												</g>
											</g>
											<g>
												<g>
													<g>
														<path class="st11" d="M88.3,356.3l0,36.7v26.7l0,23.7V456l-58.6-33.8v-31.9l0-23.7v-44.1L88.3,356.3z"/>
													</g>
												</g>
											</g>
										</g>
									</g>
								</g>
								<g class="st12">
									<g>
										<path class="st13" d="M146.4,330v26.2l-58.2,83.6v-26.2L146.4,330z"/>
									</g>
									<g>
										<path class="st13" d="M146.4,369.6l0,17.7l-40.7,58.5L88.2,456v-2.8L146.4,369.6z"/>
									</g>
								</g>
								<g class="st14">
									<g>
										<path class="st13" d="M29.8,326.2v26.2l58.4,83.8V410L29.8,326.2z"/>
									</g>
									<g>
										<path class="st13" d="M29.8,365.9l0,17.7l40.7,58.5l17.6,10.2v-2.8L29.8,365.9z"/>
									</g>
								</g>
							</g>
						</g>
					</g>
					<g>
						<g class="st1">
							<g>
								<path class="st2" d="M153.4,313.8l-0.1,17.5c0,1.6-1,3.1-3,4.2l-54.7,31.8c-4,2.4-10.6,2.4-14.7,0l-55.1-31.8
									c-2.1-1.2-3.1-2.8-3.1-4.2l0.1-17c0.1,1,0.7,2,1.7,2.8c-1-0.9-1.5-2-1.6-3.1c-0.1-1.6,0.8-3.3,2.9-4.5l54.7-31.8
									c4-2.4,10.6-2.4,14.7,0l55.1,31.8C152.4,310.6,153.4,312.2,153.4,313.8z"/>
								<path class="st2" d="M22.9,313.9c0,0.1-0.1,0.2-0.1,0.3v-0.6C22.8,313.7,22.9,313.8,22.9,313.9z"/>
								<path class="st2" d="M24.5,317c-1-0.8-1.6-1.8-1.7-2.8v-0.6C22.8,314.8,23.4,316,24.5,317z"/>
							</g>
							<g>
								<g>
									<path class="st2" d="M24.5,317c-1-0.8-1.6-1.8-1.7-2.8v-0.6C22.8,314.8,23.4,316,24.5,317z"/>
								</g>
							</g>
						</g>
					</g>
					<g>
						<g class="st1">
							<g>
								<path class="st2" d="M150.4,318l-54.7,31.8c-4,2.4-10.6,2.3-14.7,0l-55.1-31.8c-2-1.2-3.1-2.7-3.1-4.3l0,17.6
									c0,1.5,1,3.1,3.1,4.3l55.1,31.8c4.1,2.4,10.6,2.4,14.7,0l54.7-31.8c2-1.2,3-2.7,3-4.2l0-17.6
									C153.4,315.3,152.4,316.8,150.4,318z"/>
							</g>
							<g>
								<g>
									<path class="st3" d="M150.3,309.5c4.1,2.4,4.1,6.1,0.1,8.5l-54.7,31.8c-4,2.4-10.6,2.3-14.7,0l-55.1-31.8
										c-4.1-2.4-4.1-6.1,0-8.5l54.7-31.8c4-2.4,10.6-2.4,14.6,0L150.3,309.5z"/>
								</g>
							</g>
						</g>
					</g>
					<g>
						<g>
							<g>
								<path class="st15" d="M109.3,333.7c1.5,0.8,1.5,2.2,0,3.1c-1.4,0.8-3.8,0.8-5.3,0c-1.4-0.8-1.5-2.2,0-3
									C105.5,332.8,107.8,332.8,109.3,333.7z"/>
							</g>
						</g>
						<g>
							<g>
								<path class="st16" d="M100.8,338.6c1.5,0.8,1.5,2.2,0,3c-1.5,0.8-3.8,0.8-5.3,0c-1.4-0.8-1.5-2.2,0-3
									C97,337.7,99.4,337.7,100.8,338.6z"/>
							</g>
						</g>
						<g>
							<g>
								<path class="st17" d="M92.4,343.5c1.5,0.8,1.5,2.2,0,3.1c-1.4,0.8-3.8,0.8-5.3,0c-1.4-0.8-1.5-2.2,0-3
									C88.6,342.6,91,342.6,92.4,343.5z"/>
							</g>
						</g>
					</g>
					<g>
						<g class="st1">
							<g>
								<path class="st2" d="M126.9,307.7l-34.1,19.8c-2.5,1.5-6.6,1.5-9.1,0l-34.3-19.8c-1.3-0.7-1.9-1.7-1.9-2.7l0,7.4
									c0,1,0.6,1.9,1.9,2.7l34.3,19.8c2.5,1.5,6.6,1.5,9.1,0l34.1-19.8c1.2-0.7,1.9-1.7,1.9-2.6l0-7.4
									C128.7,306,128.1,307,126.9,307.7z"/>
							</g>
							<g>
								<g>
									<path class="st13" d="M126.8,302.4c2.5,1.5,2.6,3.8,0,5.3l-34.1,19.8c-2.5,1.5-6.6,1.5-9.1,0l-34.3-19.8
										c-2.5-1.5-2.5-3.8,0-5.3l34.1-19.8c2.5-1.5,6.6-1.5,9.1,0L126.8,302.4z"/>
								</g>
							</g>
						</g>
					</g>
				</g>
			</g>
		</g>
	</g>
	<g>
		<g>
			<g>
				<g>
					<path class="st0" d="M424.2,261.8c-3,0-6-0.7-8.4-2L360.7,228c-2.6-1.5-4-3.6-4.1-6c0-2.3,1.4-4.4,4-5.9l54.7-31.8
						c4.6-2.7,11.9-2.7,16.6,0l55.1,31.8c2.6,1.5,4.1,3.6,4.1,6c0,2.3-1.4,4.4-4,5.9l-54.7,31.8
						C430.1,261.2,427.2,261.8,424.2,261.8z M423.7,186.2c-2.3,0-4.6,0.5-6.3,1.5l-54.7,31.8c-1.3,0.8-2,1.7-2,2.5s0.8,1.8,2.1,2.6
						l55.1,31.8c3.5,2,9.3,2,12.7,0l54.7-31.8c1.3-0.8,2-1.7,2-2.5c0-0.9-0.8-1.8-2.1-2.6l-55.1-31.8
						C428.3,186.7,426,186.2,423.7,186.2z"/>
				</g>
			</g>
			<g>
				<g>
					<g>
						<g class="st1">
							<g>
								<path class="st2" d="M360.3,196.6c-1-0.8-1.6-1.8-1.7-2.8v-0.5C358.7,194.4,359.3,195.6,360.3,196.6z"/>
							</g>
							<g>
								<g>
									<path class="st2" d="M358.7,193.6c0,0.1-0.1,0.2-0.1,0.3v-0.5C358.7,193.4,358.7,193.5,358.7,193.6z"/>
									<path class="st2" d="M489.2,193.4l-0.1,17.5c0,1.5-1,3.1-3,4.2L431.4,247c-4,2.4-10.6,2.4-14.7,0l-55.1-31.8
										c-2.1-1.2-3.1-2.8-3.1-4.3l0.1-17c0.1,1,0.7,2,1.7,2.8c-1-0.9-1.5-2-1.6-3c-0.1-1.6,0.8-3.2,2.9-4.5l54.7-31.8
										c4-2.4,10.6-2.4,14.7,0l55.1,31.8C488.2,190.3,489.2,191.9,489.2,193.4z"/>
									<path class="st2" d="M360.3,196.6c-1-0.8-1.6-1.8-1.7-2.8v-0.5C358.7,194.4,359.3,195.6,360.3,196.6z"/>
								</g>
							</g>
						</g>
					</g>
					<g>
						<g class="st1">
							<g>
								<path class="st2" d="M486.2,197.6l-54.7,31.8c-4,2.4-10.6,2.3-14.7,0l-55.1-31.8c-2-1.2-3.1-2.7-3.1-4.3l0,17.6
									c0,1.5,1,3.1,3.1,4.3l55.1,31.8c4.1,2.4,10.6,2.4,14.7,0l54.7-31.8c2-1.2,3-2.7,3-4.2l0-17.6
									C489.2,194.9,488.2,196.4,486.2,197.6z"/>
							</g>
							<g>
								<g>
									<path class="st3" d="M486.1,189.1c4.1,2.4,4.1,6.1,0.1,8.5l-54.7,31.8c-4,2.4-10.6,2.3-14.7,0l-55.1-31.8
										c-4.1-2.4-4.1-6.1,0-8.5l54.7-31.8c4-2.4,10.6-2.4,14.6,0L486.1,189.1z"/>
								</g>
							</g>
						</g>
					</g>
					<g>
						<g>
							<g>
								<g>
									<g>
										<g>
											<g>
												<g>
													<g>
														<g>
															<g>
																<path class="st4" d="M476.8,172.1l0,16.2L424,219l0-16.2L476.8,172.1z"/>
															</g>
															<g>
																<path class="st5" d="M449.6,190.7l-21.5,12.5c-1.1,0.6-1.7,1.7-1.7,3l0,6.3c0,1.1,1.1,1.7,2.1,1.2l21.5-12.5
																	c1.1-0.6,1.7-1.7,1.7-3v-6.3C451.7,190.8,450.6,190.1,449.6,190.7z"/>
															</g>
														</g>
													</g>
													<g>
														<g>
															<g>
																<path class="st6" d="M424.1,202.8l0,16.2l-53.1-30.7l0-16.2L424.1,202.8z"/>
															</g>
														</g>
													</g>
													<g>
														<g>
															<g>
																<path class="st7" d="M476.8,172.1l-52.7,30.7L371,172.1l52.7-30.7L476.8,172.1z"/>
															</g>
														</g>
													</g>
												</g>
											</g>
											<g>
												<g>
													<g>
														<g>
															<path class="st8" d="M457,192.5l2.3,1.3l-2.3,4l-2.3-1.3L457,192.5z"/>
														</g>
													</g>
												</g>
												<g>
													<g>
														<g>
															<path class="st8" d="M457,185.7l2.3,1.3l-2.3,4l-2.3-1.3L457,185.7z"/>
														</g>
													</g>
												</g>
												<g>
													<g>
														<g>
															<path class="st8" d="M473.5,177.4l0,2.9l-11.1,6.4l0-2.9L473.5,177.4z"/>
														</g>
													</g>
												</g>
												<g>
													<g>
														<g>
															<path class="st8" d="M473.5,184.2l0,3.2l-11.1,6.4l0-3.2L473.5,184.2z"/>
														</g>
													</g>
												</g>
											</g>
										</g>
										<g>
											<g>
												<g>
													<g>
														<g>
															<g>
																<path class="st4" d="M476.8,151.5l0,16.2L424,198.4l0-16.2L476.8,151.5z"/>
															</g>
															<g>
																<path class="st5" d="M449.6,170.1l-21.5,12.5c-1.1,0.6-1.7,1.7-1.7,3l0,6.3c0,1.1,1.1,1.7,2.1,1.2l21.5-12.5
																	c1.1-0.6,1.7-1.7,1.7-3v-6.3C451.7,170.2,450.6,169.6,449.6,170.1z"/>
															</g>
														</g>
													</g>
													<g>
														<g>
															<g>
																<path class="st6" d="M424.1,182.2l0,16.2l-53.1-30.7l0-16.2L424.1,182.2z"/>
															</g>
														</g>
													</g>
													<g>
														<g>
															<g>
																<path class="st7" d="M476.8,151.5l-52.7,30.7L371,151.5l52.7-30.7L476.8,151.5z"/>
															</g>
														</g>
													</g>
												</g>
											</g>
											<g>
												<g>
													<g>
														<g>
															<path class="st8" d="M457,171.9l2.3,1.3l-2.3,4l-2.3-1.3L457,171.9z"/>
														</g>
													</g>
												</g>
												<g>
													<g>
														<g>
															<path class="st8" d="M457,165.1l2.3,1.3l-2.3,4l-2.3-1.3L457,165.1z"/>
														</g>
													</g>
												</g>
												<g>
													<g>
														<g>
															<path class="st8" d="M473.5,156.8l0,2.9l-11.1,6.4l0-2.9L473.5,156.8z"/>
														</g>
													</g>
												</g>
												<g>
													<g>
														<g>
															<path class="st8" d="M473.5,163.7l0,3.2l-11.1,6.4l0-3.2L473.5,163.7z"/>
														</g>
													</g>
												</g>
											</g>
										</g>
										<g>
											<g>
												<g>
													<g>
														<g>
															<g>
																<path class="st4" d="M476.8,131l0,16.2L424,177.8l0-16.2L476.8,131z"/>
															</g>
															<g>
																<path class="st5" d="M449.6,149.5L428.2,162c-1.1,0.6-1.7,1.7-1.7,3l0,6.3c0,1.1,1.1,1.7,2.1,1.2L450,160
																	c1.1-0.6,1.7-1.7,1.7-3v-6.3C451.7,149.7,450.6,149,449.6,149.5z"/>
															</g>
														</g>
													</g>
													<g>
														<g>
															<g>
																<path class="st6" d="M424.1,161.6l0,16.2l-53.1-30.7l0-16.2L424.1,161.6z"/>
															</g>
														</g>
													</g>
													<g>
														<g>
															<g>
																<path class="st7" d="M476.8,131l-52.7,30.7L371,131l52.7-30.7L476.8,131z"/>
															</g>
														</g>
													</g>
												</g>
											</g>
											<g>
												<g>
													<g>
														<g>
															<path class="st8" d="M457,151.4l2.3,1.3l-2.3,4l-2.3-1.3L457,151.4z"/>
														</g>
													</g>
												</g>
												<g>
													<g>
														<g>
															<path class="st8" d="M457,144.5l2.3,1.3l-2.3,4l-2.3-1.3L457,144.5z"/>
														</g>
													</g>
												</g>
												<g>
													<g>
														<g>
															<path class="st8" d="M473.5,136.3l0,2.9l-11.1,6.4l0-2.9L473.5,136.3z"/>
														</g>
													</g>
												</g>
												<g>
													<g>
														<g>
															<path class="st8" d="M473.5,143.1l0,3.2l-11.1,6.4l0-3.2L473.5,143.1z"/>
														</g>
													</g>
												</g>
											</g>
										</g>
										<g>
											<g>
												<g>
													<g>
														<g>
															<g>
																<path class="st4" d="M476.8,110.4l0,16.2L424,157.3l0-16.2L476.8,110.4z"/>
															</g>
															<g>
																<path class="st5" d="M449.6,129l-21.5,12.5c-1.1,0.6-1.7,1.7-1.7,3l0,6.3c0,1.1,1.1,1.7,2.1,1.2l21.5-12.5
																	c1.1-0.6,1.7-1.7,1.7-3v-6.3C451.7,129.1,450.6,128.4,449.6,129z"/>
															</g>
														</g>
													</g>
													<g>
														<g>
															<g>
																<path class="st6" d="M424.1,141.1l0,16.2l-53.1-30.7l0-16.2L424.1,141.1z"/>
															</g>
														</g>
													</g>
													<g>
														<g>
															<g>
																<path class="st7" d="M476.8,110.4l-52.7,30.7L371,110.4l52.7-30.7L476.8,110.4z"/>
															</g>
														</g>
													</g>
												</g>
											</g>
											<g>
												<g>
													<g>
														<g>
															<path class="st8" d="M457,130.8l2.3,1.3l-2.3,4l-2.3-1.3L457,130.8z"/>
														</g>
													</g>
												</g>
												<g>
													<g>
														<g>
															<path class="st8" d="M457,124l2.3,1.3l-2.3,4l-2.3-1.3L457,124z"/>
														</g>
													</g>
												</g>
												<g>
													<g>
														<g>
															<path class="st8" d="M473.5,115.7l0,2.9l-11.1,6.4l0-2.9L473.5,115.7z"/>
														</g>
													</g>
												</g>
												<g>
													<g>
														<g>
															<path class="st8" d="M473.5,122.5l0,3.2l-11.1,6.4l0-3.2L473.5,122.5z"/>
														</g>
													</g>
												</g>
											</g>
										</g>
										<g class="st9">
											<g>
												<g>
													<g>
														<path class="st10" d="M482.3,91v47.1l0,17.7v34.9l-40.7,23.7L424,224.6l0-42.5l0-57.3L482.3,91z"/>
													</g>
												</g>
											</g>
											<g>
												<g>
													<g>
														<path class="st11" d="M424.1,124.8l0,36.7v26.7l0,23.7v12.6l-58.6-33.8v-31.9l0-23.7V91L424.1,124.8z"/>
													</g>
												</g>
											</g>
										</g>
									</g>
								</g>
								<g class="st12">
									<g>
										<path class="st13" d="M482.3,98.5v26.2L424,208.4v-26.2L482.3,98.5z"/>
									</g>
									<g>
										<path class="st13" d="M482.3,138.2l0,17.7l-40.7,58.5L424,224.6v-2.8L482.3,138.2z"/>
									</g>
								</g>
								<g class="st14">
									<g>
										<path class="st13" d="M365.7,94.8V121l58.4,83.8v-26.2L365.7,94.8z"/>
									</g>
									<g>
										<path class="st13" d="M365.7,134.4l0,17.7l40.7,58.5l17.6,10.2v-2.8L365.7,134.4z"/>
									</g>
								</g>
							</g>
						</g>
					</g>
					<g>
						<g class="st1">
							<g>
								<path class="st2" d="M360.3,85.5c-1-0.8-1.6-1.8-1.7-2.8v-0.6C358.7,83.4,359.3,84.5,360.3,85.5z"/>
							</g>
							<g>
								<g>
									<path class="st2" d="M489.2,82.3l-0.1,17.6c0,1.5-1,3.1-3,4.1l-54.7,31.9c-4,2.3-10.6,2.3-14.7-0.1L361.6,104
										c-2.1-1.2-3.1-2.7-3.1-4.2l0.1-17c0.1,1,0.7,2,1.7,2.8c-1-0.9-1.5-2-1.6-3.1c-0.1-1.6,0.8-3.2,2.9-4.4l54.7-31.8
										c4-2.4,10.6-2.4,14.7,0L486.2,78C488.1,79.2,489.2,80.7,489.2,82.3z"/>
									<path class="st2" d="M358.7,82.4c0,0.1-0.1,0.2-0.1,0.3v-0.6C358.7,82.3,358.7,82.4,358.7,82.4z"/>
									<path class="st2" d="M360.3,85.5c-1-0.8-1.6-1.8-1.7-2.8v-0.6C358.7,83.4,359.3,84.5,360.3,85.5z"/>
								</g>
							</g>
						</g>
					</g>
					<g>
						<g class="st1">
							<g>
								<path class="st2" d="M486.2,86.5l-54.7,31.8c-4,2.4-10.6,2.3-14.7,0l-55.1-31.8c-2-1.2-3.1-2.7-3.1-4.3l0,17.6
									c0,1.5,1,3.1,3.1,4.3l55.1,31.8c4.1,2.4,10.6,2.4,14.7,0l54.7-31.8c2-1.2,3-2.7,3-4.2l0-17.6
									C489.2,83.8,488.2,85.3,486.2,86.5z"/>
							</g>
							<g>
								<g>
									<path class="st3" d="M486.1,78c4.1,2.4,4.1,6.1,0.1,8.5l-54.7,31.8c-4,2.4-10.6,2.3-14.7,0l-55.1-31.8
										c-4.1-2.4-4.1-6.1,0-8.5l54.7-31.8c4-2.4,10.6-2.4,14.6,0L486.1,78z"/>
								</g>
							</g>
						</g>
					</g>
					<g>
						<g>
							<g>
								<path class="st15" d="M445.1,102.2c1.5,0.8,1.5,2.2,0,3.1c-1.4,0.8-3.8,0.8-5.3,0c-1.4-0.8-1.5-2.2,0-3
									C441.3,101.4,443.7,101.4,445.1,102.2z"/>
							</g>
						</g>
						<g>
							<g>
								<path class="st16" d="M436.7,107.1c1.5,0.8,1.5,2.2,0,3c-1.5,0.8-3.8,0.8-5.3,0c-1.4-0.8-1.5-2.2,0-3
									C432.9,106.3,435.2,106.3,436.7,107.1z"/>
							</g>
						</g>
						<g>
							<g>
								<path class="st17" d="M428.3,112c1.5,0.8,1.5,2.2,0,3.1c-1.4,0.8-3.8,0.8-5.3,0c-1.4-0.8-1.5-2.2,0-3
									C424.5,111.2,426.8,111.2,428.3,112z"/>
							</g>
						</g>
					</g>
					<g>
						<g class="st1">
							<g>
								<path class="st2" d="M462.7,76.2l-34.1,19.8c-2.5,1.5-6.6,1.5-9.1,0l-34.3-19.8c-1.3-0.7-1.9-1.7-1.9-2.7l0,7.4
									c0,1,0.6,1.9,1.9,2.7l34.3,19.8c2.5,1.5,6.6,1.5,9.1,0l34.1-19.8c1.2-0.7,1.9-1.7,1.9-2.6l0-7.4
									C464.6,74.6,463.9,75.5,462.7,76.2z"/>
							</g>
							<g>
								<g>
									<path class="st13" d="M462.7,71c2.5,1.5,2.6,3.8,0,5.3l-34.1,19.8c-2.5,1.5-6.6,1.5-9.1,0l-34.3-19.8
										c-2.5-1.5-2.5-3.8,0-5.3l34.1-19.8c2.5-1.5,6.6-1.5,9.1,0L462.7,71z"/>
								</g>
							</g>
						</g>
					</g>
				</g>
			</g>
		</g>
	</g>
	<g>
		<g>
			<g>
				<g>
					<g>
						<path class="st0" d="M424.2,493.3c-3,0-6-0.7-8.4-2l-55.1-31.8c-2.6-1.5-4-3.6-4.1-6c0-2.3,1.4-4.4,4-5.9l54.7-31.8
							c4.6-2.7,11.9-2.7,16.6,0l55.1,31.8h0c2.6,1.5,4.1,3.6,4.1,6c0,2.3-1.4,4.4-4,5.9l-54.7,31.8
							C430.1,492.6,427.2,493.3,424.2,493.3z M423.7,417.7c-2.3,0-4.6,0.5-6.3,1.5L362.6,451c-1.3,0.8-2,1.7-2,2.5
							c0,0.9,0.8,1.8,2.1,2.5l55.1,31.8c3.5,2,9.3,2,12.7,0l54.7-31.8c1.3-0.8,2-1.7,2-2.5c0-0.9-0.8-1.8-2.1-2.6c0,0,0,0,0,0
							l-55.1-31.8C428.3,418.2,426,417.7,423.7,417.7z"/>
					</g>
				</g>
				<g>
					<g>
						<g>
							<g class="st1">
								<g>
									<path class="st2" d="M360.3,428.1c-1-0.8-1.6-1.8-1.7-2.8v-0.6C358.7,425.9,359.3,427.1,360.3,428.1z"/>
								</g>
								<g>
									<g>
										<path class="st2" d="M358.7,425c0,0.1-0.1,0.2-0.1,0.3v-0.6C358.7,424.8,358.7,424.9,358.7,425z"/>
										<path class="st2" d="M489.2,424.8l-0.1,17.6c0,1.5-1,3.1-3,4.1l-54.7,31.8c-4,2.4-10.6,2.4-14.7,0l-55.1-31.8
											c-2.1-1.2-3.1-2.7-3.1-4.2l0.1-17c0.1,1,0.7,2,1.7,2.8c-1-0.9-1.5-2-1.6-3.1c-0.1-1.6,0.8-3.2,2.9-4.4l54.7-31.8
											c4-2.4,10.6-2.4,14.7,0l55.1,31.8C488.1,421.8,489.2,423.2,489.2,424.8z"/>
										<path class="st2" d="M360.3,428.1c-1-0.8-1.6-1.8-1.7-2.8v-0.6C358.7,425.9,359.3,427.1,360.3,428.1z"/>
									</g>
								</g>
							</g>
						</g>
						<g>
							<g class="st1">
								<g>
									<path class="st2" d="M486.2,429l-54.7,31.8c-4,2.4-10.6,2.3-14.7,0L361.7,429c-2-1.2-3.1-2.7-3.1-4.3l0,17.6
										c0,1.5,1,3.1,3.1,4.3l55.1,31.8c4.1,2.4,10.6,2.4,14.7,0l54.7-31.8c2-1.2,3-2.7,3-4.2l0-17.6
										C489.2,426.4,488.2,427.9,486.2,429z"/>
								</g>
								<g>
									<g>
										<path class="st3" d="M486.1,420.5c4.1,2.4,4.1,6.1,0.1,8.5l-54.7,31.8c-4,2.4-10.6,2.3-14.7,0L361.7,429
											c-4.1-2.4-4.1-6.1,0-8.5l54.7-31.8c4-2.4,10.6-2.4,14.6,0L486.1,420.5z"/>
									</g>
								</g>
							</g>
						</g>
						<g>
							<g>
								<g>
									<g>
										<g>
											<g>
												<g>
													<g>
														<g>
															<g>
																<g>
																	<path class="st4" d="M476.8,403.6l0,16.2L424,450.4l0-16.2L476.8,403.6z"/>
																</g>
																<g>
																	<path class="st5" d="M449.6,422.1l-21.5,12.5c-1.1,0.6-1.7,1.7-1.7,3l0,6.3c0,1.1,1.1,1.7,2.1,1.2l21.5-12.5
																		c1.1-0.6,1.7-1.7,1.7-3v-6.3C451.7,422.2,450.6,421.6,449.6,422.1z"/>
																</g>
															</g>
														</g>
														<g>
															<g>
																<g>
																	<path class="st6" d="M424.1,434.2l0,16.2l-53.1-30.7l0-16.2L424.1,434.2z"/>
																</g>
															</g>
														</g>
														<g>
															<g>
																<g>
																	<path class="st7" d="M476.8,403.6l-52.7,30.7L371,403.6l52.7-30.7L476.8,403.6z"/>
																</g>
															</g>
														</g>
													</g>
												</g>
												<g>
													<g>
														<g>
															<g>
																<path class="st8" d="M457,423.9l2.3,1.3l-2.3,4l-2.3-1.3L457,423.9z"/>
															</g>
														</g>
													</g>
													<g>
														<g>
															<g>
																<path class="st8" d="M457,417.1l2.3,1.3l-2.3,4l-2.3-1.3L457,417.1z"/>
															</g>
														</g>
													</g>
													<g>
														<g>
															<g>
																<path class="st8" d="M473.5,408.8l0,2.9l-11.1,6.4l0-2.9L473.5,408.8z"/>
															</g>
														</g>
													</g>
													<g>
														<g>
															<g>
																<path class="st8" d="M473.5,415.7l0,3.2l-11.1,6.4l0-3.2L473.5,415.7z"/>
															</g>
														</g>
													</g>
												</g>
											</g>
											<g>
												<g>
													<g>
														<g>
															<g>
																<g>
																	<path class="st4" d="M476.8,383l0,16.2L424,429.9l0-16.2L476.8,383z"/>
																</g>
																<g>
																	<path class="st5" d="M449.6,401.5L428.2,414c-1.1,0.6-1.7,1.7-1.7,3l0,6.3c0,1.1,1.1,1.7,2.1,1.2L450,412
																		c1.1-0.6,1.7-1.7,1.7-3v-6.3C451.7,401.7,450.6,401,449.6,401.5z"/>
																</g>
															</g>
														</g>
														<g>
															<g>
																<g>
																	<path class="st6" d="M424.1,413.6l0,16.2l-53.1-30.7l0-16.2L424.1,413.6z"/>
																</g>
															</g>
														</g>
														<g>
															<g>
																<g>
																	<path class="st7" d="M476.8,383l-52.7,30.7L371,383l52.7-30.7L476.8,383z"/>
																</g>
															</g>
														</g>
													</g>
												</g>
												<g>
													<g>
														<g>
															<g>
																<path class="st8" d="M457,403.4l2.3,1.3l-2.3,4l-2.3-1.3L457,403.4z"/>
															</g>
														</g>
													</g>
													<g>
														<g>
															<g>
																<path class="st8" d="M457,396.5l2.3,1.3l-2.3,4l-2.3-1.3L457,396.5z"/>
															</g>
														</g>
													</g>
													<g>
														<g>
															<g>
																<path class="st8" d="M473.5,388.3l0,2.9l-11.1,6.4l0-2.9L473.5,388.3z"/>
															</g>
														</g>
													</g>
													<g>
														<g>
															<g>
																<path class="st8" d="M473.5,395.1l0,3.2l-11.1,6.4l0-3.2L473.5,395.1z"/>
															</g>
														</g>
													</g>
												</g>
											</g>
											<g>
												<g>
													<g>
														<g>
															<g>
																<g>
																	<path class="st4" d="M476.8,362.4l0,16.2L424,409.3l0-16.2L476.8,362.4z"/>
																</g>
																<g>
																	<path class="st5" d="M449.6,381l-21.5,12.5c-1.1,0.6-1.7,1.7-1.7,3l0,6.3c0,1.1,1.1,1.7,2.1,1.2l21.5-12.5
																		c1.1-0.6,1.7-1.7,1.7-3v-6.3C451.7,381.1,450.6,380.5,449.6,381z"/>
																</g>
															</g>
														</g>
														<g>
															<g>
																<g>
																	<path class="st6" d="M424.1,393.1l0,16.2l-53.1-30.7l0-16.2L424.1,393.1z"/>
																</g>
															</g>
														</g>
														<g>
															<g>
																<g>
																	<path class="st7" d="M476.8,362.4l-52.7,30.7L371,362.4l52.7-30.7L476.8,362.4z"/>
																</g>
															</g>
														</g>
													</g>
												</g>
												<g>
													<g>
														<g>
															<g>
																<path class="st8" d="M457,382.8l2.3,1.3l-2.3,4l-2.3-1.3L457,382.8z"/>
															</g>
														</g>
													</g>
													<g>
														<g>
															<g>
																<path class="st8" d="M457,376l2.3,1.3l-2.3,4l-2.3-1.3L457,376z"/>
															</g>
														</g>
													</g>
													<g>
														<g>
															<g>
																<path class="st8" d="M473.5,367.7l0,2.9l-11.1,6.4l0-2.9L473.5,367.7z"/>
															</g>
														</g>
													</g>
													<g>
														<g>
															<g>
																<path class="st8" d="M473.5,374.5l0,3.2l-11.1,6.4l0-3.2L473.5,374.5z"/>
															</g>
														</g>
													</g>
												</g>
											</g>
											<g>
												<g>
													<g>
														<g>
															<g>
																<g>
																	<path class="st4" d="M476.8,341.9l0,16.2L424,388.7l0-16.2L476.8,341.9z"/>
																</g>
																<g>
																	<path class="st5" d="M449.6,360.4l-21.5,12.5c-1.1,0.6-1.7,1.7-1.7,3l0,6.3c0,1.1,1.1,1.7,2.1,1.2l21.5-12.5
																		c1.1-0.6,1.7-1.7,1.7-3v-6.3C451.7,360.5,450.6,359.9,449.6,360.4z"/>
																</g>
															</g>
														</g>
														<g>
															<g>
																<g>
																	<path class="st6" d="M424.1,372.5l0,16.2l-53.1-30.7l0-16.2L424.1,372.5z"/>
																</g>
															</g>
														</g>
														<g>
															<g>
																<g>
																	<path class="st7" d="M476.8,341.9l-52.7,30.7L371,341.9l52.7-30.7L476.8,341.9z"/>
																</g>
															</g>
														</g>
													</g>
												</g>
												<g>
													<g>
														<g>
															<g>
																<path class="st8" d="M457,362.2l2.3,1.3l-2.3,4l-2.3-1.3L457,362.2z"/>
															</g>
														</g>
													</g>
													<g>
														<g>
															<g>
																<path class="st8" d="M457,355.4l2.3,1.3l-2.3,4l-2.3-1.3L457,355.4z"/>
															</g>
														</g>
													</g>
													<g>
														<g>
															<g>
																<path class="st8" d="M473.5,347.1l0,2.9l-11.1,6.4l0-2.9L473.5,347.1z"/>
															</g>
														</g>
													</g>
													<g>
														<g>
															<g>
																<path class="st8" d="M473.5,354l0,3.2l-11.1,6.4l0-3.2L473.5,354z"/>
															</g>
														</g>
													</g>
												</g>
											</g>
											<g class="st9">
												<g>
													<g>
														<g>
															<path class="st10" d="M482.3,322.5v47.1l0,17.7v34.9l-40.7,23.7L424,456l0-42.5l0-57.3L482.3,322.5z"/>
														</g>
													</g>
												</g>
												<g>
													<g>
														<g>
															<path class="st11" d="M424.1,356.3l0,36.7v26.7l0,23.7V456l-58.6-33.8v-31.9l0-23.7v-44.1L424.1,356.3z"/>
														</g>
													</g>
												</g>
											</g>
										</g>
									</g>
									<g class="st12">
										<g>
											<path class="st13" d="M482.3,330v26.2L424,439.8v-26.2L482.3,330z"/>
										</g>
										<g>
											<path class="st13" d="M482.3,369.6l0,17.7l-40.7,58.5L424,456v-2.8L482.3,369.6z"/>
										</g>
									</g>
									<g class="st14">
										<g>
											<path class="st13" d="M365.7,326.2v26.2l58.4,83.8V410L365.7,326.2z"/>
										</g>
										<g>
											<path class="st13" d="M365.7,365.9l0,17.7l40.7,58.5l17.6,10.2v-2.8L365.7,365.9z"/>
										</g>
									</g>
								</g>
							</g>
						</g>
						<g>
							<g class="st1">
								<g>
									<path class="st2" d="M360.3,317c-1-0.8-1.6-1.8-1.7-2.8v-0.6C358.7,314.8,359.3,316,360.3,317z"/>
								</g>
								<g>
									<g>
										<path class="st2" d="M489.2,313.8l-0.1,17.5c0,1.6-1,3.1-3,4.2l-54.7,31.8c-4,2.4-10.6,2.4-14.7,0l-55.1-31.8
											c-2.1-1.2-3.1-2.8-3.1-4.2l0.1-17c0.1,1,0.7,2,1.7,2.8c-1-0.9-1.5-2-1.6-3.1c-0.1-1.6,0.8-3.3,2.9-4.5l54.7-31.8
											c4-2.4,10.6-2.4,14.7,0l55.1,31.8C488.2,310.6,489.2,312.2,489.2,313.8z"/>
										<path class="st2" d="M358.7,313.9c0,0.1-0.1,0.2-0.1,0.3v-0.6C358.7,313.7,358.7,313.8,358.7,313.9z"/>
										<path class="st2" d="M360.3,317c-1-0.8-1.6-1.8-1.7-2.8v-0.6C358.7,314.8,359.3,316,360.3,317z"/>
									</g>
								</g>
							</g>
						</g>
						<g>
							<g class="st1">
								<g>
									<path class="st2" d="M486.2,318l-54.7,31.8c-4,2.4-10.6,2.3-14.7,0l-55.1-31.8c-2-1.2-3.1-2.7-3.1-4.3l0,17.6
										c0,1.5,1,3.1,3.1,4.3l55.1,31.8c4.1,2.4,10.6,2.4,14.7,0l54.7-31.8c2-1.2,3-2.7,3-4.2l0-17.6
										C489.2,315.3,488.2,316.8,486.2,318z"/>
								</g>
								<g>
									<g>
										<path class="st3" d="M486.1,309.5c4.1,2.4,4.1,6.1,0.1,8.5l-54.7,31.8c-4,2.4-10.6,2.3-14.7,0l-55.1-31.8
											c-4.1-2.4-4.1-6.1,0-8.5l54.7-31.8c4-2.4,10.6-2.4,14.6,0L486.1,309.5z"/>
									</g>
								</g>
							</g>
						</g>
						<g>
							<g>
								<g>
									<path class="st15" d="M445.1,333.7c1.5,0.8,1.5,2.2,0,3.1c-1.4,0.8-3.8,0.8-5.3,0c-1.4-0.8-1.5-2.2,0-3
										C441.3,332.8,443.7,332.8,445.1,333.7z"/>
								</g>
							</g>
							<g>
								<g>
									<path class="st16" d="M436.7,338.6c1.5,0.8,1.5,2.2,0,3c-1.5,0.8-3.8,0.8-5.3,0c-1.4-0.8-1.5-2.2,0-3
										C432.9,337.7,435.2,337.7,436.7,338.6z"/>
								</g>
							</g>
							<g>
								<g>
									<path class="st17" d="M428.3,343.5c1.5,0.8,1.5,2.2,0,3.1c-1.4,0.8-3.8,0.8-5.3,0c-1.4-0.8-1.5-2.2,0-3
										C424.5,342.6,426.8,342.6,428.3,343.5z"/>
								</g>
							</g>
						</g>
						<g>
							<g class="st1">
								<g>
									<path class="st2" d="M462.7,307.7l-34.1,19.8c-2.5,1.5-6.6,1.5-9.1,0l-34.3-19.8c-1.3-0.7-1.9-1.7-1.9-2.7l0,7.4
										c0,1,0.6,1.9,1.9,2.7l34.3,19.8c2.5,1.5,6.6,1.5,9.1,0l34.1-19.8c1.2-0.7,1.9-1.7,1.9-2.6l0-7.4
										C464.6,306,463.9,307,462.7,307.7z"/>
								</g>
								<g>
									<g>
										<path class="st13" d="M462.7,302.4c2.5,1.5,2.6,3.8,0,5.3l-34.1,19.8c-2.5,1.5-6.6,1.5-9.1,0l-34.3-19.8
											c-2.5-1.5-2.5-3.8,0-5.3l34.1-19.8c2.5-1.5,6.6-1.5,9.1,0L462.7,302.4z"/>
									</g>
								</g>
							</g>
						</g>
					</g>
				</g>
			</g>
		</g>
	</g>
</g>
<g>
	<path class="st0" d="M194.8,285.9c-0.3,0-0.7-0.1-1-0.3l-71.3-41.2c-0.9-0.5-1.3-1.7-0.7-2.7c0.5-1,1.8-1.3,2.7-0.7l71.3,41.2
		c0.9,0.5,1.3,1.7,0.7,2.7C196.2,285.5,195.5,285.9,194.8,285.9z"/>
</g>
<g>
	<path class="st0" d="M398.3,403.3c-0.3,0-0.7-0.1-1-0.3l-86.5-49.9c-0.9-0.5-1.3-1.7-0.7-2.7c0.5-1,1.8-1.3,2.7-0.7l86.5,49.9
		c0.9,0.5,1.3,1.7,0.7,2.7C399.6,403,399,403.3,398.3,403.3z"/>
</g>
<g>
	<path class="st0" d="M319.3,286.3c-0.7,0-1.3-0.4-1.7-1c-0.5-0.9-0.2-2.1,0.7-2.7l71.3-41.2c0.9-0.5,2.1-0.2,2.7,0.7
		c0.5,0.9,0.2,2.1-0.7,2.7L320.3,286C320,286.2,319.6,286.3,319.3,286.3z"/>
</g>
<g>
	<path class="st0" d="M115.8,403.8c-0.7,0-1.3-0.4-1.7-1c-0.5-0.9-0.2-2.1,0.7-2.7l86.5-49.9c0.9-0.5,2.1-0.2,2.7,0.7
		c0.5,0.9,0.2,2.1-0.7,2.7l-86.5,49.9C116.5,403.7,116.2,403.8,115.8,403.8z"/>
</g>
<g>
	<g>
		<path class="st0" d="M256.3,381.2c-3.5,0-7-0.8-9.7-2.4l-75.7-43.7c-3-1.7-4.6-4.1-4.6-6.7c0-2.6,1.6-5,4.5-6.7l75.3-43.7
			c5.4-3.1,13.9-3.1,19.3,0l75.7,43.7c3,1.7,4.6,4.1,4.6,6.8c0,2.6-1.6,5-4.5,6.7l-75.3,43.7C263.2,380.5,259.8,381.2,256.3,381.2z
			 M255.7,279.6c-2.8,0-5.6,0.6-7.7,1.8l-75.3,43.7c-1.6,1-2.6,2.1-2.6,3.3c0,1.2,1,2.4,2.6,3.3l75.7,43.7c4.2,2.4,11.2,2.4,15.4,0
			l75.3-43.7c1.6-1,2.6-2.2,2.6-3.3c0-1.2-1-2.4-2.6-3.3l-75.7-43.7C261.3,280.2,258.5,279.6,255.7,279.6z"/>
	</g>
</g>
<g>
	<g class="st1">
		<g>
			<g>
				<path class="st18" d="M343.7,283.4v34c0,1.8-1.2,3.6-3.5,5l-75.2,43.7c-4.8,2.8-12.6,2.8-17.3,0l-75.8-43.7
					c-2.4-1.5-3.5-3.2-3.5-5.1v-34c0-1.9,1.2-3.6,3.5-5l75.2-43.7c4.8-2.8,12.6-2.8,17.3,0l75.8,43.7
					C342.6,279.7,343.8,281.6,343.7,283.4z"/>
			</g>
		</g>
	</g>
</g>
<g>
	<g class="st1">
		<g>
			<path class="st18" d="M340.2,288.4l-75.3,43.7c-4.8,2.8-12.5,2.8-17.3,0l-75.7-43.7c-2.4-1.4-3.6-3.2-3.6-5.1l0,34
				c0,1.8,1.2,3.7,3.6,5.1l75.7,43.7c4.8,2.8,12.6,2.8,17.3,0l75.3-43.7c2.4-1.4,3.6-3.2,3.6-5l0-34
				C343.7,285.2,342.5,287,340.2,288.4z"/>
		</g>
		<g>
			<g>
				<path class="st19" d="M340.1,278.3c4.8,2.8,4.8,7.3,0.1,10l-75.3,43.7c-4.8,2.8-12.5,2.8-17.3,0l-75.7-43.7
					c-4.8-2.8-4.8-7.3-0.1-10l75.3-43.7c4.8-2.8,12.5-2.8,17.3,0L340.1,278.3z"/>
			</g>
		</g>
	</g>
</g>
<g>
	<g class="st1">
		<g>
			<g>
				<path class="st6" d="M307.4,271.7l-0.1,10.6c0,7.6-4.9,15.2-14.9,20.9c-20,11.6-52.5,11.6-72.6,0c-10.1-5.8-15.2-13.5-15.2-21.2
					v-10.8c0-7.6,4.9-15.1,14.9-20.9c20-11.6,52.5-11.6,72.7,0C302.4,256.3,307.5,264,307.4,271.7z"/>
			</g>
		</g>
	</g>
</g>
<g>
	<g class="st1">
		<g>
			<g>
				<path class="st6" d="M307.3,271.5l0,10.8c0,7.6-5,15.1-14.9,20.9c-20,11.6-52.5,11.6-72.6,0c-10.1-5.8-15.2-13.5-15.2-21.2
					l0-10.8c0,7.7,5,15.3,15.2,21.2c20.1,11.6,52.6,11.6,72.6,0C302.3,286.6,307.3,279.1,307.3,271.5z"/>
			</g>
		</g>
		<g>
			<g>
				
					<ellipse transform="matrix(2.999987e-03 -1 1 2.999987e-03 -16.1238 526.6401)" class="st7" cx="256" cy="271.4" rx="29.7" ry="51.3"/>
			</g>
		</g>
	</g>
</g>
<g>
	<path class="st20" d="M256.2,296.4c-12.9,0-25-2.9-34-8.1c-8.2-4.8-12.8-10.8-12.8-17c0-6.2,4.5-12.1,12.6-16.8
		c9-5.2,21-8.1,33.9-8.1c12.9,0,25,2.9,34,8.1c8.2,4.8,12.8,10.8,12.8,17c0,6.2-4.4,12.1-12.6,16.8
		C281.1,293.5,269.1,296.4,256.2,296.4z"/>
</g>
<g>
	<path class="st21" d="M340.2,304.2l-75.3,43.7c-4.8,2.8-12.5,2.8-17.3,0l-75.7-43.7c-2.4-1.4-3.6-3.2-3.6-5.1l0,3.7
		c0,1.8,1.2,3.7,3.6,5.1l75.7,43.7c4.8,2.8,12.6,2.8,17.3,0l75.3-43.7c2.4-1.4,3.6-3.2,3.6-5l0-3.7
		C343.7,301,342.5,302.8,340.2,304.2z"/>
</g>
<g>
	<g>
		<g>
			<g>
				<path class="st7" d="M273.9,337.5c3.2-1.8,5.8-0.4,5.8,3.3c0,3.6-2.6,8.1-5.8,9.9s-5.7,0.4-5.8-3.3
					C268.2,343.7,270.8,339.3,273.9,337.5z"/>
			</g>
		</g>
		<g>
			<g>
				
					<ellipse transform="matrix(0.5019 -0.8649 0.8649 0.5019 -141.9652 419.1458)" class="st7" cx="293" cy="332.8" rx="8.1" ry="4.7"/>
			</g>
		</g>
		<g>
			<g>
				<path class="st7" d="M311.9,315.6c3.2-1.8,5.8-0.4,5.8,3.3c0,3.6-2.6,8.1-5.8,9.9c-3.2,1.8-5.7,0.4-5.8-3.3
					C306.2,321.8,308.7,317.4,311.9,315.6z"/>
			</g>
		</g>
		<g>
			<g>
				<path class="st7" d="M330.9,304.6c3.2-1.8,5.8-0.4,5.8,3.3c0,3.6-2.6,8.1-5.8,9.9c-3.2,1.8-5.7,0.4-5.8-3.3
					C325.2,310.9,327.7,306.4,330.9,304.6z"/>
			</g>
		</g>
	</g>
	<g>
		<path class="st17" d="M271.4,350.3c-1.9,0-2.1-2.1-2.1-3c0-3.2,2.4-7.3,5.2-8.9c0.7-0.4,1.4-0.6,2-0.6c1.9,0,2.1,2.1,2.1,3
			c0,3.2-2.4,7.3-5.2,9C272.7,350.1,272,350.3,271.4,350.3z"/>
	</g>
	<g>
		<path class="st22" d="M290.4,339.4c-1.9,0-2.1-2.1-2.1-3c0-3.2,2.4-7.3,5.2-8.9c0.7-0.4,1.4-0.6,2-0.6c1.9,0,2.1,2.1,2.1,3
			c0,3.2-2.4,7.3-5.2,8.9C291.7,339.2,291,339.4,290.4,339.4z"/>
	</g>
	<g>
		<path class="st8" d="M309.4,328.4c-1.9,0-2.1-2.1-2.1-3c0-3.2,2.4-7.3,5.2-8.9c0.7-0.4,1.4-0.6,2-0.6c1.9,0,2.1,2.1,2.1,3
			c0,3.2-2.4,7.3-5.2,9C310.7,328.2,310,328.4,309.4,328.4z"/>
	</g>
	<g>
		<path class="st23" d="M328.3,317.5c-1.9,0-2.1-2.1-2.1-3c0-3.2,2.4-7.3,5.2-8.9c0.7-0.4,1.4-0.6,2-0.6c1.9,0,2.1,2.1,2.1,3
			c0,3.2-2.4,7.3-5.2,9C329.6,317.3,328.9,317.5,328.3,317.5z"/>
	</g>
</g>
<g>
	<g>
		<g>
			<g>
				<path class="st7" d="M183.4,317.8c3.2,1.8,5.8,0.4,5.8-3.3c0-3.6-2.6-8.1-5.8-9.9c-3.2-1.8-5.7-0.4-5.8,3.3
					C177.7,311.5,180.3,316,183.4,317.8z"/>
			</g>
		</g>
		<g>
			<g>
				
					<ellipse transform="matrix(0.8649 -0.5019 0.5019 0.8649 -134.4742 145.1407)" class="st7" cx="202.4" cy="322.4" rx="4.7" ry="8.1"/>
			</g>
		</g>
		<g>
			<g>
				<path class="st7" d="M221.4,339.7c3.2,1.8,5.8,0.4,5.8-3.3c0-3.6-2.6-8.1-5.8-9.9c-3.2-1.8-5.7-0.4-5.8,3.3
					C215.7,333.4,218.2,337.9,221.4,339.7z"/>
			</g>
		</g>
		<g>
			<g>
				<path class="st7" d="M240.4,350.7c3.2,1.8,5.8,0.4,5.8-3.3c0-3.6-2.6-8.1-5.8-9.9c-3.2-1.8-5.7-0.4-5.8,3.3
					C234.7,344.4,237.2,348.8,240.4,350.7z"/>
			</g>
		</g>
	</g>
	<g>
		<path class="st17" d="M180.9,304.9c-1.9,0-2.1,2.1-2.1,3c0,3.2,2.4,7.3,5.2,8.9c0.7,0.4,1.4,0.6,2,0.6c1.9,0,2.1-2.1,2.1-3
			c0-3.2-2.4-7.3-5.2-9C182.2,305.1,181.5,304.9,180.9,304.9z"/>
	</g>
	<g>
		<path class="st22" d="M199.9,315.9c-1.9,0-2.1,2.1-2.1,3c0,3.2,2.4,7.3,5.2,8.9c0.7,0.4,1.4,0.6,2,0.6c1.9,0,2.1-2.1,2.1-3
			c0-3.2-2.4-7.3-5.2-8.9C201.2,316.1,200.5,315.9,199.9,315.9z"/>
	</g>
	<g>
		<path class="st8" d="M218.9,326.8c-1.9,0-2.1,2.1-2.1,3c0,3.2,2.4,7.3,5.2,8.9c0.7,0.4,1.4,0.6,2,0.6c1.9,0,2.1-2.1,2.1-3
			c0-3.2-2.4-7.3-5.2-9C220.2,327,219.5,326.8,218.9,326.8z"/>
	</g>
	<g>
		<path class="st23" d="M237.8,337.8c-1.9,0-2.1,2.1-2.1,3c0,3.2,2.4,7.3,5.2,8.9c0.7,0.4,1.4,0.6,2,0.6c1.9,0,2.1-2.1,2.1-3
			c0-3.2-2.4-7.3-5.2-9C239.1,338,238.4,337.8,237.8,337.8z"/>
	</g>
</g>
<g>
	<g>
		<g class="st1">
			<g>
				<g>
					<path class="st8" d="M92.3,307.3l-5.9-3.4l0-3.8l5.9,3.4L92.3,307.3z"/>
				</g>
			</g>
			<g>
				<g>
					<path class="st8" d="M84.9,311.6l-5.9-3.4l0-3.8l5.9,3.4L84.9,311.6z"/>
				</g>
			</g>
			<g>
				<g>
					<path class="st24" d="M88.9,297.2l-5.9-3.4l2.9-1.7l5.9,3.4L88.9,297.2z"/>
				</g>
			</g>
			<g>
				<g>
					<path class="st24" d="M89.6,278.6l5.9,3.4c0.9,0.5,1.5,1.9,1.5,4.4c0,3.2-1.3,6.9-5.2,9.2l-5.9-3.4c3.9-2.2,5.2-5.9,5.2-9.2
						C91.1,280.5,90.6,279.1,89.6,278.6z"/>
				</g>
			</g>
			<g>
				<g>
					<path class="st25" d="M98.6,270.7l5.9,3.4c-1.6-0.9-3.6-0.3-5.1,0.3l-5.9-3.4C95.1,270.3,97.1,269.7,98.6,270.7z"/>
				</g>
			</g>
			<g>
				<g>
					<path class="st24" d="M75,305.2l-5.9-3.4l4.1-2.4l5.9,3.4L75,305.2z"/>
				</g>
			</g>
			<g>
				<g>
					<path class="st8" d="M75.1,313.5l-5.9-3.4l0-8.2l5.9,3.4L75.1,313.5z"/>
				</g>
			</g>
			<g>
				<g>
					<path class="st24" d="M88.8,277l-5.9-3.4l2.7-1.5l5.9,3.4L88.8,277z"/>
				</g>
			</g>
			<g>
				<g>
					<path class="st24" d="M89.1,260.8l5.9,3.4c0.8,0.5,1.2,1.6,1.2,2.9c0,3.4-1.4,6.4-4.7,8.3l-5.9-3.4c3.3-1.9,4.7-5,4.7-8.3
						C90.3,262.4,90,261.3,89.1,260.8z"/>
				</g>
			</g>
			<g>
				<g>
					<path class="st24" d="M97.4,249.8l5.9,3.4c-1.6-0.9-4-0.7-6.8,0.6l-5.9-3.4C93.4,249.1,95.7,248.9,97.4,249.8z"/>
				</g>
			</g>
			<g>
				<g>
					<path class="st24" d="M89.1,257.9l-5.9-3.4l3-1.8l5.9,3.4L89.1,257.9z"/>
				</g>
			</g>
			<g>
				<g>
					<path class="st8" d="M92.2,256.2l-5.9-3.4l0-3.9l5.9,3.4L92.2,256.2z"/>
				</g>
			</g>
			<g>
				<g>
					<path class="st24" d="M92.1,252.3l-5.9-3.4l4.3-2.5l5.9,3.4L92.1,252.3z"/>
				</g>
			</g>
			<g>
				<g>
					<path class="st8" d="M79.2,302.9l-5.9-3.4l-0.1-30.9l5.9,3.4L79.2,302.9z"/>
				</g>
			</g>
			<g>
				<g>
					<path class="st24" d="M84.7,256.5l-5.9-3.4l4.4-2.5l5.9,3.4L84.7,256.5z"/>
				</g>
			</g>
			<g>
				<g>
					<path class="st8" d="M84.8,260.4l-5.9-3.4l0-3.9l5.9,3.4L84.8,260.4z"/>
				</g>
			</g>
			<g>
				<g>
					<path class="st8" d="M74.9,274.4l-5.9-3.4l0-8.2l5.9,3.4L74.9,274.4z"/>
				</g>
			</g>
			<g>
				<g>
					<path class="st26" d="M99.4,274.4c3-1.2,7.7-2.3,7.7,7.5c0,5-1.7,12.6-10.5,19l0,4l-4.3,2.5l0-3.8l-3,1.8l0,3.8l-4.4,2.5l0-3.8
						l-9.8,5.7l0-8.2l4.1-2.4L79.1,272l-4.1,2.4l0-8.2l9.8-5.7l0-3.9l4.4-2.5l0,3.9l3-1.8l0-3.9l4.3-2.5l0,4.1
						c5.7-2.6,9.4-0.9,9.4,6C105.8,265.5,103.4,271.2,99.4,274.4z M91.8,295.6c3.9-2.2,5.2-5.9,5.2-9.2c0-4.8-2.1-5.5-5-3.8
						l-3.2,1.8l0,12.8L91.8,295.6z M88.8,266.4l0,10.6l2.7-1.5c3.3-1.9,4.7-5,4.7-8.3c0-2.4-1.2-4.3-4.8-2.3L88.8,266.4z"/>
				</g>
			</g>
			<g>
				<g>
					<path class="st24" d="M74.9,266.1l-5.9-3.4l9.8-5.7l5.9,3.4L74.9,266.1z"/>
				</g>
			</g>
		</g>
	</g>
</g>
<g>
	<g>
		<g class="st1">
			<g>
				<g>
					<path class="st8" d="M428.2,79.6l-5.9-3.4l0-3.8l5.9,3.4L428.2,79.6z"/>
				</g>
			</g>
			<g>
				<g>
					<path class="st8" d="M420.8,83.9l-5.9-3.4l0-3.8l5.9,3.4L420.8,83.9z"/>
				</g>
			</g>
			<g>
				<g>
					<path class="st24" d="M424.8,69.6l-5.9-3.4l2.9-1.7l5.9,3.4L424.8,69.6z"/>
				</g>
			</g>
			<g>
				<g>
					<path class="st24" d="M425.5,50.9l5.9,3.4c0.9,0.5,1.5,1.9,1.5,4.4c0,3.2-1.3,6.9-5.2,9.2l-5.9-3.4c3.9-2.2,5.2-5.9,5.2-9.2
						C427,52.9,426.5,51.5,425.5,50.9z"/>
				</g>
			</g>
			<g>
				<g>
					<path class="st25" d="M434.6,43l5.9,3.4c-1.6-0.9-3.6-0.3-5.1,0.3l-5.9-3.4C431,42.7,433,42.1,434.6,43z"/>
				</g>
			</g>
			<g>
				<g>
					<path class="st24" d="M410.9,77.6l-5.9-3.4l4.1-2.4l5.9,3.4L410.9,77.6z"/>
				</g>
			</g>
			<g>
				<g>
					<path class="st8" d="M411,85.8l-5.9-3.4l0-8.2l5.9,3.4L411,85.8z"/>
				</g>
			</g>
			<g>
				<g>
					<path class="st24" d="M424.7,49.3l-5.9-3.4l2.7-1.5l5.9,3.4L424.7,49.3z"/>
				</g>
			</g>
			<g>
				<g>
					<path class="st24" d="M425.1,33.1l5.9,3.4c0.8,0.5,1.2,1.6,1.2,2.9c0,3.4-1.4,6.4-4.7,8.3l-5.9-3.4c3.3-1.9,4.7-5,4.7-8.3
						C426.2,34.8,425.9,33.6,425.1,33.1z"/>
				</g>
			</g>
			<g>
				<g>
					<path class="st24" d="M433.3,22.2l5.9,3.4c-1.6-0.9-4-0.7-6.8,0.6l-5.9-3.4C429.3,21.5,431.6,21.2,433.3,22.2z"/>
				</g>
			</g>
			<g>
				<g>
					<path class="st24" d="M425,30.2l-5.9-3.4l3-1.8l5.9,3.4L425,30.2z"/>
				</g>
			</g>
			<g>
				<g>
					<path class="st8" d="M428.1,28.5l-5.9-3.4l0-3.9l5.9,3.4L428.1,28.5z"/>
				</g>
			</g>
			<g>
				<g>
					<path class="st24" d="M428.1,24.6l-5.9-3.4l4.3-2.5l5.9,3.4L428.1,24.6z"/>
				</g>
			</g>
			<g>
				<g>
					<path class="st8" d="M415.1,75.2l-5.9-3.4l-0.1-30.9l5.9,3.4L415.1,75.2z"/>
				</g>
			</g>
			<g>
				<g>
					<path class="st24" d="M420.7,28.9l-5.9-3.4l4.4-2.5l5.9,3.4L420.7,28.9z"/>
				</g>
			</g>
			<g>
				<g>
					<path class="st8" d="M420.7,32.8l-5.9-3.4l0-3.9l5.9,3.4L420.7,32.8z"/>
				</g>
			</g>
			<g>
				<g>
					<path class="st8" d="M410.9,46.7l-5.9-3.4l0-8.2l5.9,3.4L410.9,46.7z"/>
				</g>
			</g>
			<g>
				<g>
					<path class="st26" d="M435.3,46.7c3-1.2,7.7-2.3,7.7,7.5c0,5-1.7,12.6-10.5,19l0,4l-4.3,2.5l0-3.8l-3,1.8l0,3.8l-4.4,2.5l0-3.8
						l-9.8,5.7l0-8.2l4.1-2.4L415,44.3l-4.1,2.4l0-8.2l9.8-5.7l0-3.9l4.4-2.5l0,3.9l3-1.8l0-3.9l4.3-2.5l0,4.1
						c5.7-2.6,9.4-0.9,9.4,6C441.7,37.8,439.3,43.5,435.3,46.7z M427.7,67.9c3.9-2.2,5.2-5.9,5.2-9.2c0-4.8-2.1-5.5-5-3.8l-3.2,1.8
						l0,12.8L427.7,67.9z M424.7,38.7l0,10.6l2.7-1.5c3.3-1.9,4.7-5,4.7-8.3c0-2.4-1.2-4.3-4.8-2.3L424.7,38.7z"/>
				</g>
			</g>
			<g>
				<g>
					<path class="st24" d="M410.8,38.4L405,35l9.8-5.7l5.9,3.4L410.8,38.4z"/>
				</g>
			</g>
		</g>
	</g>
</g>
<g>
	<g>
		<g>
			<g>
				<g>
					<path class="st26" d="M69.6,51.3l15.9-8.9l15.9,8.9l-15.9,7L69.6,51.3z"/>
				</g>
				<g>
					<path class="st24" d="M69.6,51.3l15.9,7h0l15.9-7L85.5,78L69.6,51.3z"/>
				</g>
				<g>
					<path class="st8" d="M85.5,78l0-19.8l15.9-7L85.5,78z"/>
				</g>
			</g>
			<g>
				<g>
					<path class="st24" d="M102.4,49.3l-16.9,7.4h0l-16.6-7.4l16.6-28.1L102.4,49.3z"/>
				</g>
				<g>
					<path class="st8" d="M85.5,21.2v35.5l-16.6-7.4L85.5,21.2z"/>
				</g>
			</g>
		</g>
	</g>
</g>
<g>
	<g>
		<g>
			<g>
				<g>
					<path class="st26" d="M407.9,285.4l15.9-8.9l15.9,8.9l-15.9,7L407.9,285.4z"/>
				</g>
				<g>
					<path class="st24" d="M407.9,285.4l15.9,7h0l15.9-7l-15.9,26.8L407.9,285.4z"/>
				</g>
				<g>
					<path class="st8" d="M423.8,312.2l0-19.8l15.9-7L423.8,312.2z"/>
				</g>
			</g>
			<g>
				<g>
					<path class="st24" d="M440.7,283.4l-16.9,7.4h0l-16.6-7.4l16.6-28.1L440.7,283.4z"/>
				</g>
				<g>
					<path class="st8" d="M423.8,255.3v35.5l-16.6-7.4L423.8,255.3z"/>
				</g>
			</g>
		</g>
	</g>
</g>
<g>
	<g id="OBJECTS">
		<g>
			<polygon class="st27" points="231.2,264.8 235.2,270.3 233,270 229.1,264.5 			"/>
			
				<linearGradient id="SVGID_1_" gradientUnits="userSpaceOnUse" x1="441.8015" y1="176.4125" x2="486.6215" y2="215.3024" gradientTransform="matrix(1 0 0 -1 -203.7553 454.9268)">
				<stop  offset="0" style="stop-color:#D13F05"/>
				<stop  offset="0.2925" style="stop-color:#F67205"/>
				<stop  offset="0.3667" style="stop-color:#F67705"/>
				<stop  offset="0.4526" style="stop-color:#F68505"/>
				<stop  offset="0.5441" style="stop-color:#F69C05"/>
				<stop  offset="0.5638" style="stop-color:#F6A205"/>
				<stop  offset="0.5977" style="stop-color:#F69005"/>
				<stop  offset="0.6432" style="stop-color:#F67F05"/>
				<stop  offset="0.6931" style="stop-color:#F67505"/>
				<stop  offset="0.7553" style="stop-color:#F67205"/>
				<stop  offset="1" style="stop-color:#D13F05"/>
			</linearGradient>
			<path class="st28" d="M276.9,232.1c1.3,1.8,2.7,3.7,4,5.5c2.7,3.8,4.1,8.3,4.1,12.9l-4-5.5C281,240.4,279.6,235.9,276.9,232.1z"
				/>
			<polygon class="st29" points="280.9,245.1 284.9,250.5 282.9,252 278.9,246.5 			"/>
			<polygon class="st27" points="260.8,271.8 264.8,277.3 263.9,278.7 259.9,273.2 			"/>
			
				<linearGradient id="SVGID_2_" gradientUnits="userSpaceOnUse" x1="443.2104" y1="174.7928" x2="488.028" y2="213.6807" gradientTransform="matrix(1 0 0 -1 -203.7553 454.9268)">
				<stop  offset="0" style="stop-color:#D13F05"/>
				<stop  offset="0.2925" style="stop-color:#F67205"/>
				<stop  offset="0.3667" style="stop-color:#F67705"/>
				<stop  offset="0.4526" style="stop-color:#F68505"/>
				<stop  offset="0.5441" style="stop-color:#F69C05"/>
				<stop  offset="0.5638" style="stop-color:#F6A205"/>
				<stop  offset="0.5977" style="stop-color:#F69005"/>
				<stop  offset="0.6432" style="stop-color:#F67F05"/>
				<stop  offset="0.6931" style="stop-color:#F67505"/>
				<stop  offset="0.7553" style="stop-color:#F67205"/>
				<stop  offset="1" style="stop-color:#D13F05"/>
			</linearGradient>
			<path class="st30" d="M259.9,273.2l4,5.5c-5.7,2.2-12,2.6-17.9,1c-4.2-1.1-7.9-3.5-10.8-6.7l-4-5.5c2.9,3.3,6.6,5.6,10.8,6.7
				C248,275.8,254.2,275.4,259.9,273.2z"/>
			<polygon class="st31" points="262.2,272.2 266.2,277.7 264.8,277.3 260.8,271.8 			"/>
			
				<linearGradient id="SVGID_3_" gradientUnits="userSpaceOnUse" x1="449.5044" y1="167.5389" x2="494.3227" y2="206.4274" gradientTransform="matrix(1 0 0 -1 -203.7553 454.9268)">
				<stop  offset="0" style="stop-color:#D13F05"/>
				<stop  offset="0.2925" style="stop-color:#F67205"/>
				<stop  offset="0.3667" style="stop-color:#F67705"/>
				<stop  offset="0.4526" style="stop-color:#F68505"/>
				<stop  offset="0.5441" style="stop-color:#F69C05"/>
				<stop  offset="0.5638" style="stop-color:#F6A205"/>
				<stop  offset="0.5977" style="stop-color:#F69005"/>
				<stop  offset="0.6432" style="stop-color:#F67F05"/>
				<stop  offset="0.6931" style="stop-color:#F67505"/>
				<stop  offset="0.7553" style="stop-color:#F67205"/>
				<stop  offset="1" style="stop-color:#D13F05"/>
			</linearGradient>
			<path class="st32" d="M280.9,247.1l4,5.5c-0.3,3.1-1.1,6.2-2.4,9.1c-3.3,7.1-9.1,12.8-16.2,16.1l-4-5.5c7.1-3.3,12.9-9,16.2-16.1
				C279.8,253.3,280.6,250.2,280.9,247.1z"/>
			
				<linearGradient id="SVGID_4_" gradientUnits="userSpaceOnUse" x1="432.9221" y1="185.4749" x2="482.4291" y2="225.7425" gradientTransform="matrix(1 0 0 -1 -203.7553 454.9268)">
				<stop  offset="0" style="stop-color:#FFFFFF;stop-opacity:0"/>
				<stop  offset="0.2606" style="stop-color:#FFFFFF"/>
				<stop  offset="0.7553" style="stop-color:#FFFFFF"/>
				<stop  offset="1" style="stop-color:#FFFFFF;stop-opacity:0"/>
			</linearGradient>
			<path class="st33" d="M281.1,247.4c-0.3,3.1-1.1,6.2-2.4,9.1c-3.3,7.1-9.1,12.8-16.2,16.1l-1.5-0.4l-0.9,1.4
				c-5.7,2.2-12,2.6-17.9,1c-4.2-1.1-7.9-3.5-10.8-6.7l0-2.7l-2.1-0.3c-3.7-6.2-4.1-14.4-0.5-22.4c1.1-2.4,2.5-4.6,4.1-6.6
				c0.9-0.4,1.7-0.8,2.5-1.3l0.4-1.8c6.7-6.5,16.1-10.1,25-9.2l1.9,1.6l5.4,0.3c8.3,3.5,13.2,11.2,13.1,20l-2,1.5L281.1,247.4z"/>
			
				<linearGradient id="SVGID_5_" gradientUnits="userSpaceOnUse" x1="476.4088" y1="197.6889" x2="426.1967" y2="218.8993" gradientTransform="matrix(1 0 0 -1 -203.7553 454.9268)">
				<stop  offset="0" style="stop-color:#FFAF02"/>
				<stop  offset="1" style="stop-color:#F56D05"/>
			</linearGradient>
			<path class="st34" d="M280.9,247.1c-0.3,3.1-1.1,6.2-2.4,9.1c-3.3,7.1-9.1,12.8-16.2,16.1l-1.5-0.4l-0.9,1.4
				c-5.7,2.2-12,2.6-17.9,1c-4.2-1.1-7.9-3.5-10.8-6.7l0-2.7l-2.1-0.3c-3.7-6.2-4.1-14.4-0.5-22.4c1.1-2.4,2.5-4.6,4.1-6.6
				c0.9-0.4,1.7-0.8,2.5-1.3l0.4-1.8c6.7-6.5,16.1-10.1,25-9.2l1.9,1.6l5.4,0.3c8.3,3.5,13.2,11.2,13.1,20l-2,1.5L280.9,247.1z"/>
			
				<linearGradient id="SVGID_6_" gradientUnits="userSpaceOnUse" x1="438.8758" y1="222.9763" x2="468.0188" y2="195.1202" gradientTransform="matrix(1 0 0 -1 -203.7553 454.9268)">
				<stop  offset="0" style="stop-color:#FFFFFF;stop-opacity:0"/>
				<stop  offset="0.2606" style="stop-color:#FFFFFF"/>
				<stop  offset="0.7553" style="stop-color:#FFFFFF"/>
				<stop  offset="1" style="stop-color:#FFFFFF;stop-opacity:0"/>
			</linearGradient>
			<path class="st35" d="M261.3,230.8c10,2.8,14.4,13.3,9.8,23.4c-4.6,10.1-16.5,16-26.5,13.2c-10-2.8-14.4-13.3-9.8-23.4
				S251.3,227.9,261.3,230.8z"/>
			
				<linearGradient id="SVGID_7_" gradientUnits="userSpaceOnUse" x1="437.2805" y1="205.7862" x2="477.2419" y2="205.7862" gradientTransform="matrix(1 0 0 -1 -203.7553 454.9268)">
				<stop  offset="0" style="stop-color:#CF4505"/>
				<stop  offset="1" style="stop-color:#E45905"/>
			</linearGradient>
			<path class="st36" d="M261.9,230.9c10,2.8,14.4,13.3,9.8,23.4c-4.6,10.1-16.5,16-26.5,13.2c-10-2.8-14.4-13.3-9.8-23.4
				C240,233.9,251.8,228,261.9,230.9z"/>
			<path class="st37" d="M246.7,267.7c-10-2.8-14.4-13.3-9.8-23.4c4.3-9.3,14.8-15.1,24.3-13.6c-9.9-2.4-21.3,3.5-25.8,13.3
				c-4.6,10.1-0.2,20.6,9.8,23.4c0.7,0.2,1.5,0.4,2.2,0.5C247.2,267.8,247,267.8,246.7,267.7z"/>
			
				<radialGradient id="SVGID_8_" cx="-479.3178" cy="-337.4247" r="14.9418" gradientTransform="matrix(7.290000e-02 7.410000e-02 0.4921 -0.4845 472.0643 138.2714)" gradientUnits="userSpaceOnUse">
				<stop  offset="0" style="stop-color:#FFFFFF"/>
				<stop  offset="8.578000e-02" style="stop-color:#FFFFFF;stop-opacity:0.9583"/>
				<stop  offset="0.2351" style="stop-color:#FFFFFF;stop-opacity:0.8462"/>
				<stop  offset="0.4301" style="stop-color:#FFFFFF;stop-opacity:0.6642"/>
				<stop  offset="0.6634" style="stop-color:#FFFFFF;stop-opacity:0.4119"/>
				<stop  offset="0.9261" style="stop-color:#FFFFFF;stop-opacity:9.449000e-02"/>
				<stop  offset="1" style="stop-color:#FFFFFF;stop-opacity:0"/>
			</radialGradient>
			<path class="st38" d="M272.2,267.3c-4.1,4-7.8,6.7-8.4,6.1c-0.6-0.6,2.2-4.3,6.3-8.3c4.1-4,7.8-6.7,8.4-6.1
				C279,259.6,276.2,263.3,272.2,267.3z"/>
			
				<linearGradient id="SVGID_9_" gradientUnits="userSpaceOnUse" x1="450.689" y1="213.4871" x2="468.7051" y2="192.3501" gradientTransform="matrix(1 0 0 -1 -203.7553 454.9268)">
				<stop  offset="0" style="stop-color:#FFFFFF"/>
				<stop  offset="1" style="stop-color:#FFFFFF;stop-opacity:0"/>
			</linearGradient>
			<path class="st39" d="M275.1,230l-43.9,36.3l0,1.2c2.9,3.3,6.6,5.6,10.8,6.7c1,0.3,2,0.5,3.1,0.7l34.1-28.3l-0.3-0.1l2-1.5
				C281,239.5,278.9,234.1,275.1,230z"/>
			
				<linearGradient id="SVGID_10_" gradientUnits="userSpaceOnUse" x1="440.1862" y1="223.2091" x2="449.8226" y2="213.4341" gradientTransform="matrix(1 0 0 -1 -203.7553 454.9268)">
				<stop  offset="0" style="stop-color:#FFFFFF"/>
				<stop  offset="1" style="stop-color:#FFFFFF;stop-opacity:0"/>
			</linearGradient>
			<path class="st40" d="M262.4,224.8l-1.9-1.6c-2.6-0.2-5.3-0.1-7.9,0.4l-24.9,20.6c-1.4,3.7-1.9,7.6-1.6,11.5l37.2-30.8
				L262.4,224.8z"/>
			<g>
				<defs>
					<rect id="SVGID_11_" x="242.2" y="234.8" width="27.8" height="28.6"/>
				</defs>
				<clipPath id="SVGID_12_">
					<use xlink:href="#SVGID_11_"  style="overflow:visible;"/>
				</clipPath>
				<g class="st41">
					
						<linearGradient id="SVGID_13_" gradientUnits="userSpaceOnUse" x1="2404.8374" y1="1753.6698" x2="2404.8374" y2="1725.022" gradientTransform="matrix(1 0 0 1 -2148.7554 -1490.2074)">
						<stop  offset="0" style="stop-color:#FFC000"/>
						<stop  offset="0.28" style="stop-color:#FFC000"/>
						<stop  offset="0.55" style="stop-color:#DAA600"/>
						<stop  offset="1" style="stop-color:#DAA600"/>
					</linearGradient>
					<path class="st42" d="M247.1,246.5c-0.1-0.1-0.2-0.2-0.3-0.4c-1.2-1.4-2-3.1-2.5-4.9c-0.3-1.3-0.4-2.6-0.3-3.9
						c0-0.7,0.2-1.4,0.6-2c0.2-0.4,0.6-0.6,1-0.4c0,0,0,0,0,0c0.9,0.3,1.6,0.9,2.1,1.7c1.3,1.7,2.2,3.7,2.5,5.8
						c0.1,0.7,0.1,1.3,0.2,2c0,0.3,0,0.5,0.1,0.8c0,0.2,0.1,0.3,0.4,0.3c0.9-0.1,1.9-0.1,2.8,0.2c0.8,0.2,1.5,0.5,2.3,0.8
						c1.1,0.4,2,1.1,2.8,1.9c0.1,0.1,0.2,0.2,0.4,0.1c0,0,0,0,0,0c0,0,0,0,0.1-0.1c0.2-0.2,0.4-0.4,0.5-0.5c1.7-2,4-3.4,6.5-4.1
						c0.8-0.3,1.7-0.3,2.5-0.2c0.4,0.1,0.7,0.2,1.1,0.3c0.1,0.1,0.2,0.3,0.3,0.4c0,0.2,0,0.5-0.1,0.7c-0.3,1-0.9,1.9-1.6,2.6
						c-1.8,2-4.2,3.4-6.8,3.9c-0.2,0-0.4,0.1-0.6,0.1c0,0.2,0.1,0.3,0.1,0.4c0.3,0.9,0.4,1.9,0.3,2.8c0,1.1-0.2,2.2-0.6,3.3
						c-0.4,1.2-1,2.4-1.8,3.4c-0.8,0.9-1.8,1.6-3,1.8c-0.8,0.2-1.7,0.3-2.6,0.2c-0.9-0.1-1.7-0.3-2.5-0.5c-0.9-0.2-1.7-0.5-2.5-0.9
						c-1.4-0.5-2.6-1.2-3.7-2.2c-1.1-1-1.9-2.3-2.2-3.7c-0.1-0.7-0.1-1.4,0-2.1c0.1-0.9,0.4-1.8,0.7-2.6c0.5-1.3,1.3-2.5,2.4-3.5
						c0.5-0.5,1-0.9,1.6-1.3L247.1,246.5z M247.9,256.7L247.9,256.7c-1,0-1.2,0.7-1,1.3c0,0.1,0.1,0.2,0.1,0.3
						c0.2,0.8,0.7,1.4,1.4,1.8c0.7,0.3,1.4,0.6,2.1,0.8c1,0.3,2.2,0.1,3-0.7c0.4-0.2,0.5-0.7,0.3-1.1c-0.1-0.1-0.1-0.2-0.2-0.2
						c-0.4-0.3-0.9-0.6-1.4-0.8c-0.8-0.4-1.7-0.6-2.5-0.9C249.2,257,248.5,256.9,247.9,256.7L247.9,256.7z M247.2,249.5
						c0-0.6-0.2-1-0.7-1.1c-0.4-0.1-0.8,0.1-1,0.4c-1,1.2-1.7,2.5-2.1,4c-0.1,0.2-0.1,0.5,0,0.7c0.1,0.4,0.5,0.8,0.9,0.7
						c0.2,0,0.4-0.1,0.5-0.3c0.3-0.5,0.7-1,1-1.5c0.4-0.7,0.7-1.3,1.1-2C246.9,250.2,247.1,249.8,247.2,249.5L247.2,249.5z
						 M260.5,254.7c0-0.3-0.1-0.5-0.1-0.8c-0.1-0.5-0.6-0.7-1.1-0.6c0,0,0,0,0,0c0,0-0.1,0-0.1,0c-0.3,0.1-0.6,0.5-0.6,0.8
						c-0.3,1.2-0.6,2.4-0.8,3.7c-0.1,0.4-0.1,0.8,0,1.1c0.1,0.4,0.5,0.7,0.9,0.6c0.1,0,0.2-0.1,0.3-0.1c0.3-0.2,0.5-0.5,0.6-0.8
						c0.2-0.7,0.5-1.4,0.6-2.1C260.3,255.9,260.4,255.3,260.5,254.7L260.5,254.7z"/>
				</g>
			</g>
		</g>
	</g>
</g>
<g class="st43">
	<path class="st44" d="M302.3,254.7v17.2c0,6.2-4.5,12.2-12.6,16.9c-8.9,5.2-21,8.1-33.9,8.1c-6.6,0-12.9-0.8-18.8-2.2
		c-3.7-0.9-7.2-2.1-10.5-3.5c-1.7-0.7-3.2-1.5-4.7-2.4c-0.4-0.3-0.9-0.5-1.3-0.8c-7.4-4.6-11.5-10.3-11.5-16.1v-17.1
		c0-25.7,20.9-46.6,46.6-46.6c3.4,0,6.6,0.3,9.7,1c8.5,1.8,16.2,5.9,22.2,11.7c0.3,0.3,0.7,0.6,0.9,0.9c1.2,1.2,2.4,2.5,3.4,3.9
		c2.1,2.6,4,5.5,5.4,8.6C300.6,240.3,302.3,247.3,302.3,254.7z"/>
</g>
<g class="st14">
	<g>
		<path class="st13" d="M283.3,218.1l-67.1,67.1c-7.4-4.6-11.5-10.3-11.5-16.1v-6.3l56.3-56.3C269.6,208.1,277.2,212.3,283.3,218.1z
			"/>
	</g>
	<g>
		<path class="st13" d="M293,231.4l-60.4,60.4c-3.7-0.9-7.2-2.1-10.5-3.5l65.5-65.5C289.8,225.4,291.6,228.3,293,231.4z"/>
	</g>
</g>
</svg>
