<?xml version="1.0" encoding="utf-8"?>
<!-- Generator: Adobe Illustrator 25.2.1, SVG Export Plug-In . SVG Version: 6.00 Build 0)  -->
<svg version="1.1" id="Layer_1" xmlns="http://www.w3.org/2000/svg" xmlns:xlink="http://www.w3.org/1999/xlink" x="0px" y="0px"
	 viewBox="0 0 512 512" style="enable-background:new 0 0 512 512;" xml:space="preserve">
<style type="text/css">
	.st0{fill:#4C5C75;}
	.st1{fill:#566DF9;}
	.st2{enable-background:new    ;}
	.st3{fill:#678AEE;}
	.st4{fill:#8FABFE;}
	.st5{fill:#FFFFFF;}
	.st6{fill:#DEDFFB;}
	.st7{fill:#F3F1FC;}
	.st8{fill:#423D9B;}
	.st9{fill:#FFD06C;}
	.st10{fill:#72D561;}
	.st11{fill:#57B3FE;}
	.st12{fill:#FA5F7F;}
	.st13{fill:#D84905;}
	.st14{fill:url(#SVGID_1_);}
	.st15{fill:#F67205;}
	.st16{fill:url(#SVGID_2_);}
	.st17{fill:#F69D05;}
	.st18{fill:url(#SVGID_3_);}
	.st19{opacity:0.7;fill:url(#SVGID_4_);enable-background:new    ;}
	.st20{fill:url(#SVGID_5_);}
	.st21{opacity:0.7;fill:url(#SVGID_6_);enable-background:new    ;}
	.st22{fill:url(#SVGID_7_);}
	.st23{fill:#BA3E05;}
	.st24{opacity:0.5;fill:url(#SVGID_8_);enable-background:new    ;}
	.st25{opacity:0.4;fill:url(#SVGID_9_);enable-background:new    ;}
	.st26{opacity:0.4;fill:url(#SVGID_10_);enable-background:new    ;}
	.st27{clip-path:url(#SVGID_12_);}
	.st28{fill-rule:evenodd;clip-rule:evenodd;fill:url(#SVGID_13_);}
	.st29{fill:url(#SVGID_14_);}
	.st30{fill:url(#SVGID_15_);}
	.st31{fill:url(#SVGID_16_);}
	.st32{opacity:0.7;fill:url(#SVGID_17_);enable-background:new    ;}
	.st33{fill:url(#SVGID_18_);}
	.st34{opacity:0.7;fill:url(#SVGID_19_);enable-background:new    ;}
	.st35{fill:url(#SVGID_20_);}
	.st36{opacity:0.5;fill:url(#SVGID_21_);enable-background:new    ;}
	.st37{opacity:0.4;fill:url(#SVGID_22_);enable-background:new    ;}
	.st38{opacity:0.4;fill:url(#SVGID_23_);enable-background:new    ;}
	.st39{clip-path:url(#SVGID_25_);}
	.st40{fill-rule:evenodd;clip-rule:evenodd;fill:url(#SVGID_26_);}
	.st41{opacity:0.4;}
	.st42{fill:#5094FF;}
</style>
<g>
	<path class="st0" d="M366.3,260.8c-0.2,0-0.5-0.1-0.7-0.2L251,194c-0.7-0.4-0.9-1.3-0.5-2c0.4-0.7,1.3-0.9,2-0.5L367.1,258
		c0.7,0.4,0.9,1.3,0.5,2C367.3,260.5,366.8,260.8,366.3,260.8z"/>
</g>
<g>
	<g>
		<g>
			<path class="st0" d="M318.4,356.6c-4.9,0-9.8-1.1-13.7-3.3l-22.3-12.9c-3.9-2.3-6.1-5.4-6.2-8.8c0-3.4,2.1-6.5,5.9-8.7L431.6,236
				c7.6-4.4,19.6-4.4,27.3,0l22.4,13c3.9,2.3,6.1,5.4,6.1,8.7c0,3.3-2.1,6.4-5.9,8.7c0,0,0,0,0,0L332,353.3
				C328.2,355.5,323.3,356.6,318.4,356.6z M445.2,235.6c-4.4,0-8.8,1-12.1,2.9l-149.5,86.8c-2.9,1.7-4.5,3.9-4.5,6.2
				c0,2.3,1.7,4.5,4.7,6.2l22.3,12.9c6.7,3.9,17.7,3.9,24.3,0L480,263.9c2.9-1.7,4.5-3.9,4.5-6.1c0-2.3-1.7-4.5-4.7-6.2l-22.4-13
				C454.1,236.6,449.6,235.6,445.2,235.6z M480.7,265.1L480.7,265.1L480.7,265.1z"/>
		</g>
	</g>
	<g>
		<g>
			<g>
				<g>
					<path class="st1" d="M493.1,192.3c0.1,27.9-19.3,61.5-43.5,75.4L335,333.9c-9.4,5.4-17.8,5.6-23.5,1.5c0.4,0.3,0.8,0.6,1.2,0.8
						l-27.1-15.8c-5.6-3.2-9.1-10.1-9.2-20.1c0-18.9,12.8-41.9,28.9-52.7c2.4-35.4,27.2-76.8,57.6-94.2c16-9.4,30.5-10.2,41.1-4.1
						l11.7,6.8c2.2-1.7,4.3-3.2,6.5-4.4c12.1-7,23-7.7,31-3.1l26.5,15.5C487.9,168.5,493,178.2,493.1,192.3z"/>
				</g>
			</g>
		</g>
	</g>
	<g>
		<g>
			<g class="st2">
				<g>
					<g>
						<path class="st3" d="M453.3,148.6l27.1,15.7c-7.9-4.6-18.9-4-31,3c-3,1.8-6,3.9-9,6.3l-27.1-15.7c2.9-2.4,5.9-4.5,9-6.3
							C434.4,144.6,445.3,144,453.3,148.6z"/>
					</g>
				</g>
				<g>
					<g>
						<path class="st3" d="M312.7,336.1l-27.1-15.7c-5.6-3.3-9.1-10.2-9.1-20c-0.1-19,12.7-42,28.9-52.7l27.1,15.7
							c-16.2,10.7-29,33.7-28.9,52.7C303.6,325.9,307.1,332.9,312.7,336.1z"/>
					</g>
				</g>
				<g>
					<g>
						<path class="st1" d="M431.1,165c-10.4-6.1-25-5.2-41.1,4.1c-30.3,17.5-55.2,58.8-57.5,94.3l-27.1-15.7
							c2.4-35.5,27.2-76.8,57.5-94.3c16.1-9.4,30.6-10.2,41.1-4.1L431.1,165z"/>
					</g>
				</g>
				<g>
					<g>
						<path class="st4" d="M390,169.1c21.6-12.5,40.4-9.8,50.3,4.5c2.9-2.4,5.9-4.5,9-6.3c24.2-14,43.7-2.7,43.8,25
							c0.1,27.8-19.3,61.5-43.5,75.4L335,333.9c-17.3,10-31.4,2.1-31.4-17.8c-0.1-19,12.7-42,28.9-52.7
							C334.9,227.9,359.7,186.6,390,169.1z"/>
					</g>
				</g>
			</g>
		</g>
		<g>
			<g>
				<g>
					<path class="st5" d="M368.9,251.7c6.5-3.8,11.8-0.8,11.8,6.7c0,7.5-5.2,16.6-11.7,20.4c-6.5,3.8-11.8,0.7-11.8-6.8
						C357.2,264.5,362.4,255.4,368.9,251.7z"/>
				</g>
			</g>
			<g>
				<g>
					<path class="st5" d="M409.8,228.1c6.5-3.7,11.7-0.7,11.7,6.7c0,7.5-5.2,16.6-11.7,20.3c-6.6,3.8-11.8,0.7-11.8-6.8
						C398,240.9,403.2,231.9,409.8,228.1z"/>
				</g>
			</g>
			<g>
				<g>
					<path class="st5" d="M450.6,204.5c6.5-3.8,11.7-0.7,11.7,6.7c0,7.5-5.2,16.6-11.7,20.3c-6.5,3.8-11.8,0.7-11.8-6.8
						C438.8,217.3,444.1,208.3,450.6,204.5z"/>
				</g>
			</g>
		</g>
	</g>
</g>
<g>
	<g>
		<g>
			<path class="st0" d="M139.3,372.9c-0.5,0-1-0.3-1.3-0.7c-0.4-0.7-0.2-1.6,0.5-2l85.4-49.6L83.5,239.4c-0.5-0.3-0.7-0.8-0.7-1.3
				c0-0.5,0.3-1,0.7-1.3l76.3-44.4c0.7-0.4,1.6-0.2,2,0.5c0.4,0.7,0.2,1.6-0.5,2l-74.1,43.1l140.5,81.1c0.5,0.3,0.7,0.8,0.7,1.3
				c0,0.5-0.3,1-0.7,1.3l-87.6,50.9C139.8,372.8,139.6,372.9,139.3,372.9z"/>
		</g>
	</g>
</g>
<g>
	<g>
		<path class="st0" d="M205.6,213.7c-7.5,0-15-1.6-20.7-5l-58.2-33.6c-5.8-3.4-9-7.9-9-12.9c0-4.9,3.2-9.5,8.9-12.8l57.9-33.6
			c11.4-6.6,29.9-6.6,41.4,0l58.2,33.6c5.8,3.4,9,7.9,9,12.9c0,4.9-3.2,9.5-8.9,12.8l-57.9,33.6
			C220.6,212.1,213.1,213.7,205.6,213.7z M205.1,113.8c-7,0-13.9,1.5-19.2,4.6l-57.9,33.6c-4.8,2.8-7.5,6.4-7.5,10.2
			c0,3.8,2.7,7.5,7.6,10.3l58.2,33.6c10.6,6.1,27.9,6.1,38.4,0l57.9-33.6c4.8-2.8,7.5-6.4,7.5-10.2c0-3.8-2.7-7.5-7.6-10.3
			l-58.2-33.6C219,115.4,212.1,113.8,205.1,113.8z"/>
	</g>
</g>
<g>
	<g>
		<g>
			<g>
				<g>
					<path class="st6" d="M291.6,114l-0.2,38.3c0,4.2-2.7,8.4-8.2,11.5l-57.9,33.7c-10.9,6.3-28.8,6.3-39.9,0l-58.2-33.7
						c-5.6-3.2-8.4-7.4-8.4-11.6l0.2-38.3c0-4.2,2.8-8.4,8.2-11.5l57.9-33.7c10.9-6.3,28.8-6.3,39.9,0l58.3,33.7
						C289,105.5,291.7,109.8,291.6,114z"/>
				</g>
			</g>
		</g>
		<g class="st2">
			<g>
				<g>
					<path class="st6" d="M291.6,114l-0.1,38.3c0,4.2-2.7,8.3-8.2,11.5l-57.9,33.6c-10.9,6.4-28.8,6.4-39.9,0l-58.2-33.6
						c-5.6-3.2-8.4-7.4-8.4-11.6l0.1-38.4c0,4.2,2.8,8.5,8.4,11.6l58.2,33.6c11.1,6.4,29,6.4,40,0l57.9-33.6
						C288.9,122.3,291.6,118.1,291.6,114z"/>
				</g>
			</g>
			<g>
				<g>
					<path class="st7" d="M283.3,102.4c11,6.4,11.1,16.7,0.1,23.1l-57.9,33.6c-11,6.4-28.9,6.4-39.9,0l-58.2-33.6
						c-11-6.4-11.1-16.7-0.1-23.1l57.9-33.6c11-6.4,28.9-6.4,39.9,0L283.3,102.4z"/>
				</g>
			</g>
			<g>
				<g>
					<path class="st6" d="M251.7,107.1c6.6,3.8,6.6,10,0.1,13.7l-34.4,20c-6.5,3.8-17.2,3.8-23.7,0l-34.6-20
						c-6.6-3.8-6.6-10-0.1-13.7l34.4-20c6.5-3.8,17.2-3.8,23.7,0L251.7,107.1z"/>
				</g>
			</g>
		</g>
	</g>
	<g>
		<g>
			<g>
				<path class="st8" d="M283.2,137.5L225,171.1l0,17.4l58.2-33.6V137.5z"/>
			</g>
		</g>
		<g>
			<g class="st2">
				<g>
					<g>
						<path class="st9" d="M236.8,169.9c0.6,0.6,1,1.6,1,2.8c0,1.6-0.5,3.3-1.4,4.9c-0.9,1.5-2.1,2.9-3.5,3.7l0-2.3
							c1.7-1,3-3.3,3-5.2c0-0.8-0.2-1.3-0.6-1.7L236.8,169.9z"/>
					</g>
				</g>
				<g>
					<g>
						<path class="st10" d="M229.8,177.2c0,1.9,1.3,2.7,3,1.7l0,2.3c-2.7,1.6-5,0.3-5-2.8L229.8,177.2z"/>
					</g>
				</g>
				<g>
					<g>
						<path class="st9" d="M232.8,169.8c1.7-1,3.1-0.9,4,0l-1.6,2.3c-0.5-0.5-1.4-0.6-2.4,0L232.8,169.8z"/>
					</g>
				</g>
				<g>
					<g>
						<path class="st10" d="M232.8,169.8l0,2.3c-1.7,1-3,3.3-3,5.2l-2,1.1C227.8,175.2,230,171.4,232.8,169.8z"/>
					</g>
				</g>
			</g>
			<g>
				<g>
					<path class="st9" d="M272.9,152.3c0,1.9,1.4,2.7,3,1.7l0,2.3c-2.7,1.6-5,0.3-5-2.8L272.9,152.3z"/>
				</g>
			</g>
			<g>
				<g>
					<path class="st11" d="M279.9,145c0.6,0.6,1,1.5,1,2.8c0,1.6-0.6,3.3-1.4,4.9s-2.1,2.9-3.5,3.7l0-2.3c1.7-1,3-3.3,3-5.2
						c0-0.8-0.2-1.3-0.6-1.7L279.9,145z"/>
				</g>
			</g>
			<g>
				<g>
					<path class="st10" d="M275.9,144.9l0,2.3c-1.6,0.9-3,3.3-3,5.2l-2,1.1C271,150.3,273.2,146.5,275.9,144.9z"/>
				</g>
			</g>
			<g>
				<g>
					<path class="st12" d="M275.9,144.9c1.7-1,3.1-0.9,4,0l-1.6,2.3c-0.6-0.5-1.4-0.6-2.4,0L275.9,144.9z"/>
				</g>
			</g>
		</g>
		<g>
			<g>
				<g>
					<path class="st5" d="M244,172.8v1.9l22.8-13.2v-1.9L244,172.8z"/>
				</g>
			</g>
			<g>
				<g>
					<path class="st5" d="M244,168v1.9l22.8-13.2v-1.9L244,168z"/>
				</g>
			</g>
			<g>
				<g>
					<path class="st5" d="M244,163.1v1.9l22.8-13.2v-1.9L244,163.1z"/>
				</g>
			</g>
		</g>
	</g>
	<g>
		<g>
			<g>
				<path class="st8" d="M129.6,137.5l58.2,33.6l0,17.4L129.6,155V137.5z"/>
			</g>
		</g>
		<g>
			<g class="st2">
				<g>
					<g>
						<path class="st9" d="M176,169.9c-0.6,0.6-1,1.6-1,2.8c0,1.6,0.5,3.3,1.4,4.9c0.9,1.5,2.1,2.9,3.5,3.7l0-2.3
							c-1.7-1-3-3.3-3-5.2c0-0.8,0.2-1.3,0.6-1.7L176,169.9z"/>
					</g>
				</g>
				<g>
					<g>
						<path class="st10" d="M183,177.2c0,1.9-1.3,2.7-3,1.7l0,2.3c2.7,1.6,5,0.3,5-2.8L183,177.2z"/>
					</g>
				</g>
				<g>
					<g>
						<path class="st9" d="M180,169.8c-1.7-1-3.1-0.9-4,0l1.6,2.3c0.5-0.5,1.4-0.6,2.4,0L180,169.8z"/>
					</g>
				</g>
				<g>
					<g>
						<path class="st10" d="M180,169.8l0,2.3c1.7,1,3,3.3,3,5.2l2,1.1C184.9,175.2,182.7,171.4,180,169.8z"/>
					</g>
				</g>
			</g>
			<g>
				<g>
					<path class="st9" d="M139.8,152.3c0,1.9-1.4,2.7-3,1.7l0,2.3c2.7,1.6,5,0.3,5-2.8L139.8,152.3z"/>
				</g>
			</g>
			<g>
				<g>
					<path class="st11" d="M132.9,145c-0.6,0.6-1,1.5-1,2.8c0,1.6,0.6,3.3,1.4,4.9c0.9,1.5,2.1,2.9,3.5,3.7l0-2.3
						c-1.7-1-3-3.3-3-5.2c0-0.8,0.2-1.3,0.6-1.7L132.9,145z"/>
				</g>
			</g>
			<g>
				<g>
					<path class="st10" d="M136.9,144.9l0,2.3c1.6,0.9,3,3.3,3,5.2l2,1.1C141.8,150.3,139.6,146.5,136.9,144.9z"/>
				</g>
			</g>
			<g>
				<g>
					<path class="st12" d="M136.9,144.9c-1.7-1-3.1-0.9-4,0l1.6,2.3c0.6-0.5,1.4-0.6,2.4,0L136.9,144.9z"/>
				</g>
			</g>
		</g>
		<g>
			<g>
				<g>
					<path class="st5" d="M168.8,172.8v1.9L146,161.5v-1.9L168.8,172.8z"/>
				</g>
			</g>
			<g>
				<g>
					<path class="st5" d="M168.8,168v1.9L146,156.7v-1.9L168.8,168z"/>
				</g>
			</g>
			<g>
				<g>
					<path class="st5" d="M168.8,163.1v1.9L146,151.9v-1.9L168.8,163.1z"/>
				</g>
			</g>
		</g>
	</g>
</g>
<g>
	<g>
		<path class="st0" d="M106.9,493c-7.5,0-15-1.7-20.7-5L28,454.5c-5.8-3.4-9-7.9-9.1-12.9c0-4.9,3.2-9.5,8.9-12.8l57.9-33.6
			c11.4-6.6,29.9-6.6,41.4,0l58.2,33.6c5.8,3.4,9,7.9,9.1,12.9c0,4.9-3.2,9.5-8.9,12.8l-57.9,33.6C121.9,491.4,114.4,493,106.9,493z
			 M106.4,393.1c-7,0-13.9,1.5-19.2,4.6l-57.9,33.6c-4.8,2.8-7.5,6.4-7.4,10.2c0,3.8,2.7,7.5,7.6,10.3l58.2,33.6
			c10.6,6.1,27.9,6.1,38.4,0l57.9-33.6c4.8-2.8,7.5-6.4,7.4-10.2c0-3.8-2.7-7.5-7.6-10.3l-58.2-33.6
			C120.3,394.7,113.3,393.1,106.4,393.1z"/>
	</g>
</g>
<g>
	<g>
		<g class="st2">
			<g>
				<g>
					<path class="st6" d="M192.9,393.4l-0.1,38.3c0,4.1-2.8,8.3-8.2,11.5l-58,33.6c-10.9,6.4-28.8,6.4-39.9,0l-58.1-33.6
						c-5.6-3.2-8.4-7.4-8.4-11.6l0.1-38.4c0-4.1,2.8-8.3,8.3-11.4l57.8-33.7c11-6.4,28.9-6.4,40,0l58.2,33.6
						C190.2,384.9,193,389.1,192.9,393.4z"/>
				</g>
			</g>
		</g>
	</g>
	<g>
		<g class="st2">
			<g>
				<g>
					<path class="st6" d="M192.9,393.3l-0.1,38.3c0,4.2-2.7,8.3-8.2,11.5l-57.9,33.6c-10.9,6.4-28.8,6.4-39.9,0l-58.2-33.6
						c-5.6-3.2-8.4-7.4-8.4-11.6l0.1-38.4c0,4.2,2.8,8.5,8.4,11.6l58.2,33.6c11.1,6.4,29,6.4,40,0l57.9-33.6
						C190.2,401.6,192.9,397.4,192.9,393.3z"/>
				</g>
			</g>
			<g>
				<g>
					<path class="st7" d="M184.6,381.7c11,6.4,11.1,16.7,0.1,23.1l-57.9,33.6c-11,6.4-28.9,6.4-39.9,0l-58.2-33.6
						c-11-6.4-11.1-16.7-0.1-23.1l57.9-33.6c11-6.4,28.9-6.4,39.9,0L184.6,381.7z"/>
				</g>
			</g>
			<g>
				<g>
					<path class="st6" d="M153,386.4c6.6,3.8,6.6,10,0.1,13.7l-34.4,20c-6.5,3.8-17.2,3.8-23.7,0l-34.6-20c-6.6-3.8-6.6-10-0.1-13.7
						l34.4-20c6.5-3.8,17.2-3.8,23.7,0L153,386.4z"/>
				</g>
			</g>
		</g>
	</g>
	<g>
		<g>
			<g>
				<path class="st8" d="M184.5,416.9l-58.2,33.6l0,17.4l58.2-33.6V416.9z"/>
			</g>
		</g>
		<g>
			<g class="st2">
				<g>
					<g>
						<path class="st9" d="M138.1,449.2c0.6,0.6,1,1.6,1,2.8c0,1.6-0.5,3.3-1.4,4.9c-0.9,1.5-2.1,2.9-3.5,3.7l0-2.3
							c1.7-1,3-3.3,3-5.2c0-0.8-0.2-1.3-0.6-1.7L138.1,449.2z"/>
					</g>
				</g>
				<g>
					<g>
						<path class="st10" d="M131.1,456.6c0,1.9,1.3,2.7,3,1.7l0,2.3c-2.7,1.6-5,0.3-5-2.8L131.1,456.6z"/>
					</g>
				</g>
				<g>
					<g>
						<path class="st9" d="M134,449.1c1.7-1,3.1-0.9,4,0l-1.6,2.3c-0.5-0.5-1.4-0.6-2.4,0L134,449.1z"/>
					</g>
				</g>
				<g>
					<g>
						<path class="st10" d="M134,449.1l0,2.3c-1.7,1-3,3.3-3,5.2l-2,1.1C129.1,454.5,131.3,450.7,134,449.1z"/>
					</g>
				</g>
			</g>
			<g>
				<g>
					<path class="st9" d="M174.2,431.7c0,1.9,1.4,2.7,3,1.7l0,2.3c-2.7,1.6-5,0.3-5-2.8L174.2,431.7z"/>
				</g>
			</g>
			<g>
				<g>
					<path class="st11" d="M181.2,424.3c0.6,0.6,1,1.5,1,2.8c0,1.6-0.6,3.3-1.4,4.9c-0.9,1.5-2.1,2.9-3.5,3.7l0-2.3
						c1.7-1,3-3.3,3-5.2c0-0.8-0.2-1.3-0.6-1.7L181.2,424.3z"/>
				</g>
			</g>
			<g>
				<g>
					<path class="st10" d="M177.2,424.2l0,2.3c-1.6,0.9-3,3.3-3,5.2l-2,1.1C172.2,429.6,174.4,425.8,177.2,424.2z"/>
				</g>
			</g>
			<g>
				<g>
					<path class="st12" d="M177.2,424.2c1.7-1,3.1-0.9,4,0l-1.6,2.3c-0.6-0.5-1.4-0.6-2.4,0L177.2,424.2z"/>
				</g>
			</g>
		</g>
		<g>
			<g>
				<g>
					<path class="st5" d="M145.2,452.1v1.9l22.8-13.2v-1.9L145.2,452.1z"/>
				</g>
			</g>
			<g>
				<g>
					<path class="st5" d="M145.2,447.3v1.9L168,436v-1.9L145.2,447.3z"/>
				</g>
			</g>
			<g>
				<g>
					<path class="st5" d="M145.2,442.4v1.9l22.8-13.2v-1.9L145.2,442.4z"/>
				</g>
			</g>
		</g>
	</g>
	<g>
		<g>
			<g>
				<path class="st8" d="M30.8,416.9L89,450.5l0,17.4l-58.2-33.6L30.8,416.9z"/>
			</g>
		</g>
		<g>
			<g class="st2">
				<g>
					<g>
						<path class="st9" d="M77.2,449.2c-0.6,0.6-1,1.6-1,2.8c0,1.6,0.5,3.3,1.4,4.9c0.9,1.5,2.1,2.9,3.5,3.7l0-2.3
							c-1.7-1-3-3.3-3-5.2c0-0.8,0.2-1.3,0.6-1.7L77.2,449.2z"/>
					</g>
				</g>
				<g>
					<g>
						<path class="st10" d="M84.2,456.6c0,1.9-1.3,2.7-3,1.7l0,2.3c2.7,1.6,5,0.3,5-2.8L84.2,456.6z"/>
					</g>
				</g>
				<g>
					<g>
						<path class="st9" d="M81.3,449.1c-1.7-1-3.1-0.9-4,0l1.6,2.3c0.5-0.5,1.4-0.6,2.4,0L81.3,449.1z"/>
					</g>
				</g>
				<g>
					<g>
						<path class="st10" d="M81.3,449.1l0,2.3c1.7,1,3,3.3,3,5.2l2,1.1C86.2,454.5,84,450.7,81.3,449.1z"/>
					</g>
				</g>
			</g>
			<g>
				<g>
					<path class="st9" d="M41.1,431.7c0,1.9-1.4,2.7-3,1.7l0,2.3c2.7,1.6,5,0.3,5-2.8L41.1,431.7z"/>
				</g>
			</g>
			<g>
				<g>
					<path class="st11" d="M34.1,424.3c-0.6,0.6-1,1.5-1,2.8c0,1.6,0.6,3.3,1.4,4.9c0.9,1.5,2.1,2.9,3.5,3.7l0-2.3
						c-1.7-1-3-3.3-3-5.2c0-0.8,0.2-1.3,0.6-1.7L34.1,424.3z"/>
				</g>
			</g>
			<g>
				<g>
					<path class="st10" d="M38.1,424.2l0,2.3c1.6,0.9,3,3.3,3,5.2l2,1.1C43.1,429.6,40.9,425.8,38.1,424.2z"/>
				</g>
			</g>
			<g>
				<g>
					<path class="st12" d="M38.1,424.2c-1.7-1-3.1-0.9-4,0l1.6,2.3c0.6-0.5,1.4-0.6,2.4,0L38.1,424.2z"/>
				</g>
			</g>
		</g>
		<g>
			<g>
				<g>
					<path class="st5" d="M70.1,452.1v1.9l-22.8-13.2v-1.9L70.1,452.1z"/>
				</g>
			</g>
			<g>
				<g>
					<path class="st5" d="M70.1,447.3v1.9L47.3,436v-1.9L70.1,447.3z"/>
				</g>
			</g>
			<g>
				<g>
					<path class="st5" d="M70.1,442.4v1.9l-22.8-13.2v-1.9L70.1,442.4z"/>
				</g>
			</g>
		</g>
	</g>
</g>
<g>
	<g id="OBJECTS">
		<g>
			<polygon class="st13" points="181.5,99.8 185.4,105.3 183.3,105 179.3,99.5 			"/>
			
				<linearGradient id="SVGID_1_" gradientUnits="userSpaceOnUse" x1="392.0712" y1="341.3918" x2="436.8912" y2="380.2817" gradientTransform="matrix(1 0 0 -1 -203.7553 454.9268)">
				<stop  offset="0" style="stop-color:#D13F05"/>
				<stop  offset="0.2925" style="stop-color:#F67205"/>
				<stop  offset="0.3667" style="stop-color:#F67705"/>
				<stop  offset="0.4526" style="stop-color:#F68505"/>
				<stop  offset="0.5441" style="stop-color:#F69C05"/>
				<stop  offset="0.5638" style="stop-color:#F6A205"/>
				<stop  offset="0.5977" style="stop-color:#F69005"/>
				<stop  offset="0.6432" style="stop-color:#F67F05"/>
				<stop  offset="0.6931" style="stop-color:#F67505"/>
				<stop  offset="0.7553" style="stop-color:#F67205"/>
				<stop  offset="1" style="stop-color:#D13F05"/>
			</linearGradient>
			<path class="st14" d="M227.1,67.2c1.3,1.8,2.7,3.7,4,5.5c2.7,3.8,4.1,8.3,4.1,12.9l-4-5.5C231.3,75.4,229.8,70.9,227.1,67.2z"/>
			<polygon class="st15" points="231.2,80.1 235.2,85.6 233.2,87 229.2,81.6 			"/>
			<polygon class="st13" points="211,106.8 215,112.3 214.2,113.7 210.2,108.2 			"/>
			
				<linearGradient id="SVGID_2_" gradientUnits="userSpaceOnUse" x1="393.4801" y1="339.7721" x2="438.2978" y2="378.66" gradientTransform="matrix(1 0 0 -1 -203.7553 454.9268)">
				<stop  offset="0" style="stop-color:#D13F05"/>
				<stop  offset="0.2925" style="stop-color:#F67205"/>
				<stop  offset="0.3667" style="stop-color:#F67705"/>
				<stop  offset="0.4526" style="stop-color:#F68505"/>
				<stop  offset="0.5441" style="stop-color:#F69C05"/>
				<stop  offset="0.5638" style="stop-color:#F6A205"/>
				<stop  offset="0.5977" style="stop-color:#F69005"/>
				<stop  offset="0.6432" style="stop-color:#F67F05"/>
				<stop  offset="0.6931" style="stop-color:#F67505"/>
				<stop  offset="0.7553" style="stop-color:#F67205"/>
				<stop  offset="1" style="stop-color:#D13F05"/>
			</linearGradient>
			<path class="st16" d="M210.2,108.2l4,5.5c-5.7,2.2-12,2.6-17.9,1c-4.2-1.1-7.9-3.5-10.8-6.7l-4-5.5c2.9,3.3,6.6,5.6,10.8,6.7
				C198.2,110.8,204.5,110.5,210.2,108.2z"/>
			<polygon class="st17" points="212.5,107.2 216.5,112.7 215,112.3 211,106.8 			"/>
			
				<linearGradient id="SVGID_3_" gradientUnits="userSpaceOnUse" x1="399.7741" y1="332.5182" x2="444.5925" y2="371.4067" gradientTransform="matrix(1 0 0 -1 -203.7553 454.9268)">
				<stop  offset="0" style="stop-color:#D13F05"/>
				<stop  offset="0.2925" style="stop-color:#F67205"/>
				<stop  offset="0.3667" style="stop-color:#F67705"/>
				<stop  offset="0.4526" style="stop-color:#F68505"/>
				<stop  offset="0.5441" style="stop-color:#F69C05"/>
				<stop  offset="0.5638" style="stop-color:#F6A205"/>
				<stop  offset="0.5977" style="stop-color:#F69005"/>
				<stop  offset="0.6432" style="stop-color:#F67F05"/>
				<stop  offset="0.6931" style="stop-color:#F67505"/>
				<stop  offset="0.7553" style="stop-color:#F67205"/>
				<stop  offset="1" style="stop-color:#D13F05"/>
			</linearGradient>
			<path class="st18" d="M231.1,82.1l4,5.5c-0.3,3.1-1.1,6.2-2.4,9.1c-3.3,7.1-9.1,12.8-16.2,16.1l-4-5.5c7.1-3.3,12.9-9,16.2-16.1
				C230,88.3,230.9,85.3,231.1,82.1z"/>
			
				<linearGradient id="SVGID_4_" gradientUnits="userSpaceOnUse" x1="383.1919" y1="350.4543" x2="432.6989" y2="390.7218" gradientTransform="matrix(1 0 0 -1 -203.7553 454.9268)">
				<stop  offset="0" style="stop-color:#FFFFFF;stop-opacity:0"/>
				<stop  offset="0.2606" style="stop-color:#FFFFFF"/>
				<stop  offset="0.7553" style="stop-color:#FFFFFF"/>
				<stop  offset="1" style="stop-color:#FFFFFF;stop-opacity:0"/>
			</linearGradient>
			<path class="st19" d="M231.4,82.4c-0.3,3.1-1.1,6.2-2.4,9.1c-3.3,7.1-9.1,12.8-16.2,16.1l-1.5-0.4l-0.9,1.4
				c-5.7,2.2-12,2.6-17.9,1c-4.2-1.1-7.9-3.5-10.8-6.7l0-2.7l-2.1-0.3c-3.7-6.2-4.1-14.4-0.5-22.4c1.1-2.4,2.5-4.6,4.1-6.6
				c0.9-0.4,1.7-0.8,2.5-1.3l0.4-1.8c6.7-6.5,16.1-10.1,25-9.2l1.9,1.6l5.4,0.3c8.3,3.5,13.2,11.2,13.1,20l-2,1.5L231.4,82.4z"/>
			
				<linearGradient id="SVGID_5_" gradientUnits="userSpaceOnUse" x1="426.6785" y1="362.6682" x2="376.4664" y2="383.8786" gradientTransform="matrix(1 0 0 -1 -203.7553 454.9268)">
				<stop  offset="0" style="stop-color:#FFAF02"/>
				<stop  offset="1" style="stop-color:#F56D05"/>
			</linearGradient>
			<path class="st20" d="M231.1,82.1c-0.3,3.1-1.1,6.2-2.4,9.1c-3.3,7.1-9.1,12.8-16.2,16.1l-1.5-0.4l-0.9,1.4
				c-5.7,2.2-12,2.6-17.9,1c-4.2-1.1-7.9-3.5-10.8-6.7l0-2.7l-2.1-0.3c-3.7-6.2-4.1-14.4-0.5-22.4c1.1-2.4,2.5-4.6,4.1-6.6
				c0.9-0.4,1.7-0.8,2.5-1.3l0.4-1.8c6.7-6.5,16.1-10.1,25-9.2l1.9,1.6l5.4,0.3c8.3,3.5,13.2,11.2,13.1,20l-2,1.5L231.1,82.1z"/>
			
				<linearGradient id="SVGID_6_" gradientUnits="userSpaceOnUse" x1="389.1455" y1="387.9556" x2="418.2885" y2="360.0995" gradientTransform="matrix(1 0 0 -1 -203.7553 454.9268)">
				<stop  offset="0" style="stop-color:#FFFFFF;stop-opacity:0"/>
				<stop  offset="0.2606" style="stop-color:#FFFFFF"/>
				<stop  offset="0.7553" style="stop-color:#FFFFFF"/>
				<stop  offset="1" style="stop-color:#FFFFFF;stop-opacity:0"/>
			</linearGradient>
			<path class="st21" d="M211.6,65.8c10,2.8,14.4,13.3,9.8,23.4c-4.6,10.1-16.5,16-26.5,13.2c-10-2.8-14.4-13.3-9.8-23.4
				S201.6,63,211.6,65.8z"/>
			
				<linearGradient id="SVGID_7_" gradientUnits="userSpaceOnUse" x1="387.5503" y1="370.7655" x2="427.5116" y2="370.7655" gradientTransform="matrix(1 0 0 -1 -203.7553 454.9268)">
				<stop  offset="0" style="stop-color:#CF4505"/>
				<stop  offset="1" style="stop-color:#E45905"/>
			</linearGradient>
			<path class="st22" d="M212.1,65.9c10,2.8,14.4,13.3,9.8,23.4c-4.6,10.1-16.5,16-26.5,13.2c-10-2.8-14.4-13.3-9.8-23.4
				C190.2,69,202.1,63.1,212.1,65.9z"/>
			<path class="st23" d="M197,102.8c-10-2.8-14.4-13.3-9.8-23.4c4.3-9.3,14.8-15.1,24.3-13.6c-9.9-2.4-21.3,3.5-25.8,13.3
				c-4.6,10.1-0.2,20.6,9.8,23.4c0.7,0.2,1.5,0.4,2.2,0.5C197.5,102.9,197.2,102.8,197,102.8z"/>
			
				<radialGradient id="SVGID_8_" cx="-1945.9352" cy="-221.2163" r="14.9418" gradientTransform="matrix(7.290000e-02 7.410000e-02 0.4921 -0.4845 472.0643 138.2714)" gradientUnits="userSpaceOnUse">
				<stop  offset="0" style="stop-color:#FFFFFF"/>
				<stop  offset="8.578000e-02" style="stop-color:#FFFFFF;stop-opacity:0.9583"/>
				<stop  offset="0.2351" style="stop-color:#FFFFFF;stop-opacity:0.8462"/>
				<stop  offset="0.4301" style="stop-color:#FFFFFF;stop-opacity:0.6642"/>
				<stop  offset="0.6634" style="stop-color:#FFFFFF;stop-opacity:0.4119"/>
				<stop  offset="0.9261" style="stop-color:#FFFFFF;stop-opacity:9.449000e-02"/>
				<stop  offset="1" style="stop-color:#FFFFFF;stop-opacity:0"/>
			</radialGradient>
			<path class="st24" d="M222.4,102.4c-4.1,4-7.8,6.7-8.4,6.1c-0.6-0.6,2.2-4.3,6.3-8.3c4.1-4,7.8-6.7,8.4-6.1
				C229.3,94.6,226.5,98.4,222.4,102.4z"/>
			
				<linearGradient id="SVGID_9_" gradientUnits="userSpaceOnUse" x1="400.9588" y1="378.4665" x2="418.9749" y2="357.3294" gradientTransform="matrix(1 0 0 -1 -203.7553 454.9268)">
				<stop  offset="0" style="stop-color:#FFFFFF"/>
				<stop  offset="1" style="stop-color:#FFFFFF;stop-opacity:0"/>
			</linearGradient>
			<path class="st25" d="M225.4,65.1l-43.9,36.3l0,1.2c2.9,3.3,6.6,5.6,10.8,6.7c1,0.3,2,0.5,3.1,0.7l34.1-28.3l-0.3-0.1l2-1.5
				C231.3,74.5,229.2,69.1,225.4,65.1z"/>
			
				<linearGradient id="SVGID_10_" gradientUnits="userSpaceOnUse" x1="390.4559" y1="388.1884" x2="400.0923" y2="378.4134" gradientTransform="matrix(1 0 0 -1 -203.7553 454.9268)">
				<stop  offset="0" style="stop-color:#FFFFFF"/>
				<stop  offset="1" style="stop-color:#FFFFFF;stop-opacity:0"/>
			</linearGradient>
			<path class="st26" d="M212.7,59.8l-1.9-1.6c-2.6-0.2-5.3-0.1-7.9,0.4L178,79.2c-1.4,3.7-1.9,7.6-1.6,11.5l37.2-30.8L212.7,59.8z"
				/>
			<g>
				<defs>
					<rect id="SVGID_11_" x="192.5" y="69.8" width="27.8" height="28.6"/>
				</defs>
				<clipPath id="SVGID_12_">
					<use xlink:href="#SVGID_11_"  style="overflow:visible;"/>
				</clipPath>
				<g class="st27">
					
						<linearGradient id="SVGID_13_" gradientUnits="userSpaceOnUse" x1="2355.1072" y1="1588.6906" x2="2355.1072" y2="1560.0426" gradientTransform="matrix(1 0 0 1 -2148.7554 -1490.2074)">
						<stop  offset="0" style="stop-color:#FFC000"/>
						<stop  offset="0.28" style="stop-color:#FFC000"/>
						<stop  offset="0.55" style="stop-color:#DAA600"/>
						<stop  offset="1" style="stop-color:#DAA600"/>
					</linearGradient>
					<path class="st28" d="M197.3,81.5c-0.1-0.1-0.2-0.2-0.3-0.4c-1.2-1.4-2-3.1-2.5-4.9c-0.3-1.3-0.4-2.6-0.3-3.9
						c0-0.7,0.2-1.4,0.6-2c0.2-0.4,0.6-0.6,1-0.4c0,0,0,0,0,0c0.9,0.3,1.6,0.9,2.1,1.7c1.3,1.7,2.2,3.7,2.5,5.8
						c0.1,0.7,0.1,1.3,0.2,2c0,0.3,0,0.5,0.1,0.8c0,0.2,0.1,0.3,0.4,0.3c0.9-0.1,1.9-0.1,2.8,0.2c0.8,0.2,1.5,0.5,2.3,0.8
						c1.1,0.4,2,1.1,2.8,1.9c0.1,0.1,0.2,0.2,0.4,0.1c0,0,0,0,0,0c0,0,0,0,0.1-0.1c0.2-0.2,0.4-0.4,0.5-0.5c1.7-2,4-3.4,6.5-4.1
						c0.8-0.3,1.7-0.3,2.5-0.2c0.4,0.1,0.7,0.2,1.1,0.3c0.1,0.1,0.2,0.3,0.3,0.4c0,0.2,0,0.5-0.1,0.7c-0.3,1-0.9,1.9-1.6,2.6
						c-1.8,2-4.2,3.4-6.8,3.9c-0.2,0-0.4,0.1-0.6,0.1c0,0.2,0.1,0.3,0.1,0.4c0.3,0.9,0.4,1.9,0.3,2.8c0,1.1-0.2,2.2-0.6,3.3
						c-0.4,1.2-1,2.4-1.8,3.4c-0.8,0.9-1.8,1.6-3,1.8c-0.8,0.2-1.7,0.3-2.6,0.2c-0.9-0.1-1.7-0.3-2.5-0.5c-0.9-0.2-1.7-0.5-2.5-0.9
						c-1.4-0.5-2.6-1.2-3.7-2.2c-1.1-1-1.9-2.3-2.2-3.7c-0.1-0.7-0.1-1.4,0-2.1c0.1-0.9,0.4-1.8,0.7-2.6c0.5-1.3,1.3-2.5,2.4-3.5
						c0.5-0.5,1-0.9,1.6-1.3L197.3,81.5z M198.2,91.7L198.2,91.7c-1,0-1.2,0.7-1,1.3c0,0.1,0.1,0.2,0.1,0.3c0.2,0.8,0.7,1.4,1.4,1.8
						c0.7,0.3,1.4,0.6,2.1,0.8c1,0.3,2.2,0.1,3-0.7c0.4-0.2,0.5-0.7,0.3-1.1c-0.1-0.1-0.1-0.2-0.2-0.2c-0.4-0.3-0.9-0.6-1.4-0.8
						c-0.8-0.4-1.7-0.6-2.5-0.9C199.4,92,198.8,91.9,198.2,91.7L198.2,91.7z M197.4,84.5c0-0.6-0.2-1-0.7-1.1
						c-0.4-0.1-0.8,0.1-1,0.4c-1,1.2-1.7,2.5-2.1,4c-0.1,0.2-0.1,0.5,0,0.7c0.1,0.4,0.5,0.8,0.9,0.7c0.2,0,0.4-0.1,0.5-0.3
						c0.3-0.5,0.7-1,1-1.5c0.4-0.7,0.7-1.3,1.1-2C197.2,85.2,197.3,84.8,197.4,84.5L197.4,84.5z M210.8,89.7c0-0.3-0.1-0.5-0.1-0.8
						c-0.1-0.5-0.6-0.7-1.1-0.6c0,0,0,0,0,0c0,0-0.1,0-0.1,0c-0.3,0.1-0.6,0.5-0.6,0.8c-0.3,1.2-0.6,2.4-0.8,3.7
						c-0.1,0.4-0.1,0.8,0,1.1c0.1,0.4,0.5,0.7,0.9,0.6c0.1,0,0.2-0.1,0.3-0.1c0.3-0.2,0.5-0.5,0.6-0.8c0.2-0.7,0.5-1.4,0.6-2.1
						C210.6,90.9,210.7,90.3,210.8,89.7L210.8,89.7z"/>
				</g>
			</g>
		</g>
	</g>
</g>
<g>
	<g id="OBJECTS_1_">
		<g>
			<polygon class="st13" points="82.3,385.8 86.3,391.3 84.2,391 80.2,385.5 			"/>
			
				<linearGradient id="SVGID_14_" gradientUnits="userSpaceOnUse" x1="292.94" y1="55.3989" x2="337.76" y2="94.2889" gradientTransform="matrix(1 0 0 -1 -203.7553 454.9268)">
				<stop  offset="0" style="stop-color:#D13F05"/>
				<stop  offset="0.2925" style="stop-color:#F67205"/>
				<stop  offset="0.3667" style="stop-color:#F67705"/>
				<stop  offset="0.4526" style="stop-color:#F68505"/>
				<stop  offset="0.5441" style="stop-color:#F69C05"/>
				<stop  offset="0.5638" style="stop-color:#F6A205"/>
				<stop  offset="0.5977" style="stop-color:#F69005"/>
				<stop  offset="0.6432" style="stop-color:#F67F05"/>
				<stop  offset="0.6931" style="stop-color:#F67505"/>
				<stop  offset="0.7553" style="stop-color:#F67205"/>
				<stop  offset="1" style="stop-color:#D13F05"/>
			</linearGradient>
			<path class="st29" d="M128,353.1c1.3,1.8,2.7,3.7,4,5.5c2.7,3.8,4.1,8.3,4.1,12.9l-4-5.5C132.1,361.4,130.7,356.9,128,353.1z"/>
			<polygon class="st15" points="132.1,366.1 136.1,371.6 134,373 130.1,367.6 			"/>
			<polygon class="st13" points="111.9,392.8 115.9,398.3 115,399.7 111.1,394.2 			"/>
			
				<linearGradient id="SVGID_15_" gradientUnits="userSpaceOnUse" x1="294.3489" y1="53.7793" x2="339.1666" y2="92.6672" gradientTransform="matrix(1 0 0 -1 -203.7553 454.9268)">
				<stop  offset="0" style="stop-color:#D13F05"/>
				<stop  offset="0.2925" style="stop-color:#F67205"/>
				<stop  offset="0.3667" style="stop-color:#F67705"/>
				<stop  offset="0.4526" style="stop-color:#F68505"/>
				<stop  offset="0.5441" style="stop-color:#F69C05"/>
				<stop  offset="0.5638" style="stop-color:#F6A205"/>
				<stop  offset="0.5977" style="stop-color:#F69005"/>
				<stop  offset="0.6432" style="stop-color:#F67F05"/>
				<stop  offset="0.6931" style="stop-color:#F67505"/>
				<stop  offset="0.7553" style="stop-color:#F67205"/>
				<stop  offset="1" style="stop-color:#D13F05"/>
			</linearGradient>
			<path class="st30" d="M111.1,394.2l4,5.5c-5.7,2.2-12,2.6-17.9,1c-4.2-1.1-7.9-3.5-10.8-6.7l-4-5.5c2.9,3.3,6.6,5.6,10.8,6.7
				C99.1,396.8,105.4,396.5,111.1,394.2z"/>
			<polygon class="st17" points="113.4,393.2 117.4,398.7 115.9,398.3 111.9,392.8 			"/>
			
				<linearGradient id="SVGID_16_" gradientUnits="userSpaceOnUse" x1="300.6429" y1="46.5253" x2="345.4613" y2="85.4138" gradientTransform="matrix(1 0 0 -1 -203.7553 454.9268)">
				<stop  offset="0" style="stop-color:#D13F05"/>
				<stop  offset="0.2925" style="stop-color:#F67205"/>
				<stop  offset="0.3667" style="stop-color:#F67705"/>
				<stop  offset="0.4526" style="stop-color:#F68505"/>
				<stop  offset="0.5441" style="stop-color:#F69C05"/>
				<stop  offset="0.5638" style="stop-color:#F6A205"/>
				<stop  offset="0.5977" style="stop-color:#F69005"/>
				<stop  offset="0.6432" style="stop-color:#F67F05"/>
				<stop  offset="0.6931" style="stop-color:#F67505"/>
				<stop  offset="0.7553" style="stop-color:#F67205"/>
				<stop  offset="1" style="stop-color:#D13F05"/>
			</linearGradient>
			<path class="st31" d="M132,368.1l4,5.5c-0.3,3.1-1.1,6.2-2.4,9.1c-3.3,7.1-9.1,12.8-16.2,16.1l-4-5.5c7.1-3.3,12.9-9,16.2-16.1
				C130.9,374.3,131.7,371.2,132,368.1z"/>
			
				<linearGradient id="SVGID_17_" gradientUnits="userSpaceOnUse" x1="284.0607" y1="64.4614" x2="333.5677" y2="104.7289" gradientTransform="matrix(1 0 0 -1 -203.7553 454.9268)">
				<stop  offset="0" style="stop-color:#FFFFFF;stop-opacity:0"/>
				<stop  offset="0.2606" style="stop-color:#FFFFFF"/>
				<stop  offset="0.7553" style="stop-color:#FFFFFF"/>
				<stop  offset="1" style="stop-color:#FFFFFF;stop-opacity:0"/>
			</linearGradient>
			<path class="st32" d="M132.2,368.4c-0.3,3.1-1.1,6.2-2.4,9.1c-3.3,7.1-9.1,12.8-16.2,16.1l-1.5-0.4l-0.9,1.4
				c-5.7,2.2-12,2.6-17.9,1c-4.2-1.1-7.9-3.5-10.8-6.7l0-2.7l-2.1-0.3c-3.7-6.2-4.1-14.4-0.5-22.4c1.1-2.4,2.5-4.6,4.1-6.6
				c0.9-0.4,1.7-0.8,2.5-1.3l0.4-1.8c6.7-6.5,16.1-10.1,25-9.2l1.9,1.6l5.4,0.3c8.3,3.5,13.2,11.2,13.1,20l-2,1.5L132.2,368.4z"/>
			
				<linearGradient id="SVGID_18_" gradientUnits="userSpaceOnUse" x1="327.5473" y1="76.6754" x2="277.3352" y2="97.8858" gradientTransform="matrix(1 0 0 -1 -203.7553 454.9268)">
				<stop  offset="0" style="stop-color:#FFAF02"/>
				<stop  offset="1" style="stop-color:#F56D05"/>
			</linearGradient>
			<path class="st33" d="M132,368.1c-0.3,3.1-1.1,6.2-2.4,9.1c-3.3,7.1-9.1,12.8-16.2,16.1l-1.5-0.4l-0.9,1.4
				c-5.7,2.2-12,2.6-17.9,1c-4.2-1.1-7.9-3.5-10.8-6.7l0-2.7l-2.1-0.3c-3.7-6.2-4.1-14.4-0.5-22.4c1.1-2.4,2.5-4.6,4.1-6.6
				c0.9-0.4,1.7-0.8,2.5-1.3l0.4-1.8c6.7-6.5,16.1-10.1,25-9.2l1.9,1.6l5.4,0.3c8.3,3.5,13.2,11.2,13.1,20l-2,1.5L132,368.1z"/>
			
				<linearGradient id="SVGID_19_" gradientUnits="userSpaceOnUse" x1="290.0143" y1="101.9627" x2="319.1573" y2="74.1066" gradientTransform="matrix(1 0 0 -1 -203.7553 454.9268)">
				<stop  offset="0" style="stop-color:#FFFFFF;stop-opacity:0"/>
				<stop  offset="0.2606" style="stop-color:#FFFFFF"/>
				<stop  offset="0.7553" style="stop-color:#FFFFFF"/>
				<stop  offset="1" style="stop-color:#FFFFFF;stop-opacity:0"/>
			</linearGradient>
			<path class="st34" d="M112.5,351.8c10,2.8,14.4,13.3,9.8,23.4c-4.6,10.1-16.5,16-26.5,13.2c-10-2.8-14.4-13.3-9.8-23.4
				S102.5,348.9,112.5,351.8z"/>
			
				<linearGradient id="SVGID_20_" gradientUnits="userSpaceOnUse" x1="288.4191" y1="84.7727" x2="328.3804" y2="84.7727" gradientTransform="matrix(1 0 0 -1 -203.7553 454.9268)">
				<stop  offset="0" style="stop-color:#CF4505"/>
				<stop  offset="1" style="stop-color:#E45905"/>
			</linearGradient>
			<path class="st35" d="M113,351.9c10,2.8,14.4,13.3,9.8,23.4c-4.6,10.1-16.5,16-26.5,13.2c-10-2.8-14.4-13.3-9.8-23.4
				C91.1,355,103,349.1,113,351.9z"/>
			<path class="st23" d="M97.9,388.7c-10-2.8-14.4-13.3-9.8-23.4c4.3-9.3,14.8-15.1,24.3-13.6c-9.9-2.4-21.3,3.5-25.8,13.3
				c-4.6,10.1-0.2,20.6,9.8,23.4c0.7,0.2,1.5,0.4,2.2,0.5C98.3,388.9,98.1,388.8,97.9,388.7z"/>
			
				<radialGradient id="SVGID_21_" cx="-654.4611" cy="-613.9813" r="14.9418" gradientTransform="matrix(7.290000e-02 7.410000e-02 0.4921 -0.4845 472.0643 138.2714)" gradientUnits="userSpaceOnUse">
				<stop  offset="0" style="stop-color:#FFFFFF"/>
				<stop  offset="8.578000e-02" style="stop-color:#FFFFFF;stop-opacity:0.9583"/>
				<stop  offset="0.2351" style="stop-color:#FFFFFF;stop-opacity:0.8462"/>
				<stop  offset="0.4301" style="stop-color:#FFFFFF;stop-opacity:0.6642"/>
				<stop  offset="0.6634" style="stop-color:#FFFFFF;stop-opacity:0.4119"/>
				<stop  offset="0.9261" style="stop-color:#FFFFFF;stop-opacity:9.449000e-02"/>
				<stop  offset="1" style="stop-color:#FFFFFF;stop-opacity:0"/>
			</radialGradient>
			<path class="st36" d="M123.3,388.4c-4.1,4-7.8,6.7-8.4,6.1c-0.6-0.6,2.2-4.3,6.3-8.3c4.1-4,7.8-6.7,8.4-6.1
				C130.2,380.6,127.4,384.4,123.3,388.4z"/>
			
				<linearGradient id="SVGID_22_" gradientUnits="userSpaceOnUse" x1="301.8276" y1="92.4736" x2="319.8437" y2="71.3365" gradientTransform="matrix(1 0 0 -1 -203.7553 454.9268)">
				<stop  offset="0" style="stop-color:#FFFFFF"/>
				<stop  offset="1" style="stop-color:#FFFFFF;stop-opacity:0"/>
			</linearGradient>
			<path class="st37" d="M126.2,351l-43.9,36.3l0,1.2c2.9,3.3,6.6,5.6,10.8,6.7c1,0.3,2,0.5,3.1,0.7l34.1-28.3l-0.3-0.1l2-1.5
				C132.2,360.5,130.1,355.1,126.2,351z"/>
			
				<linearGradient id="SVGID_23_" gradientUnits="userSpaceOnUse" x1="291.3247" y1="102.1956" x2="300.9612" y2="92.4205" gradientTransform="matrix(1 0 0 -1 -203.7553 454.9268)">
				<stop  offset="0" style="stop-color:#FFFFFF"/>
				<stop  offset="1" style="stop-color:#FFFFFF;stop-opacity:0"/>
			</linearGradient>
			<path class="st38" d="M113.6,345.8l-1.9-1.6c-2.6-0.2-5.3-0.1-7.9,0.4l-24.9,20.6c-1.4,3.7-1.9,7.6-1.6,11.5l37.2-30.8
				L113.6,345.8z"/>
			<g>
				<defs>
					<rect id="SVGID_24_" x="93.3" y="355.8" width="27.8" height="28.6"/>
				</defs>
				<clipPath id="SVGID_25_">
					<use xlink:href="#SVGID_24_"  style="overflow:visible;"/>
				</clipPath>
				<g class="st39">
					
						<linearGradient id="SVGID_26_" gradientUnits="userSpaceOnUse" x1="2255.9761" y1="1874.6833" x2="2255.9761" y2="1846.0355" gradientTransform="matrix(1 0 0 1 -2148.7554 -1490.2074)">
						<stop  offset="0" style="stop-color:#FFC000"/>
						<stop  offset="0.28" style="stop-color:#FFC000"/>
						<stop  offset="0.55" style="stop-color:#DAA600"/>
						<stop  offset="1" style="stop-color:#DAA600"/>
					</linearGradient>
					<path class="st40" d="M98.2,367.5c-0.1-0.1-0.2-0.2-0.3-0.4c-1.2-1.4-2-3.1-2.5-4.9c-0.3-1.3-0.4-2.6-0.3-3.9
						c0-0.7,0.2-1.4,0.6-2c0.2-0.4,0.6-0.6,1-0.4c0,0,0,0,0,0c0.9,0.3,1.6,0.9,2.1,1.7c1.3,1.7,2.2,3.7,2.5,5.8
						c0.1,0.7,0.1,1.3,0.2,2c0,0.3,0,0.5,0.1,0.8c0,0.2,0.1,0.3,0.4,0.3c0.9-0.1,1.9-0.1,2.8,0.2c0.8,0.2,1.5,0.5,2.3,0.8
						c1.1,0.4,2,1.1,2.8,1.9c0.1,0.1,0.2,0.2,0.4,0.1c0,0,0,0,0,0c0,0,0,0,0.1-0.1c0.2-0.2,0.4-0.4,0.5-0.5c1.7-2,4-3.4,6.5-4.1
						c0.8-0.3,1.7-0.3,2.5-0.2c0.4,0.1,0.7,0.2,1.1,0.3c0.1,0.1,0.2,0.3,0.3,0.4c0,0.2,0,0.5-0.1,0.7c-0.3,1-0.9,1.9-1.6,2.6
						c-1.8,2-4.2,3.4-6.8,3.9c-0.2,0-0.4,0.1-0.6,0.1c0,0.2,0.1,0.3,0.1,0.4c0.3,0.9,0.4,1.9,0.3,2.8c0,1.1-0.2,2.2-0.6,3.3
						c-0.4,1.2-1,2.4-1.8,3.4c-0.8,0.9-1.8,1.6-3,1.8c-0.8,0.2-1.7,0.3-2.6,0.2c-0.9-0.1-1.7-0.3-2.5-0.5c-0.9-0.2-1.7-0.5-2.5-0.9
						c-1.4-0.5-2.6-1.2-3.7-2.2c-1.1-1-1.9-2.3-2.2-3.7c-0.1-0.7-0.1-1.4,0-2.1c0.1-0.9,0.4-1.8,0.7-2.6c0.5-1.3,1.3-2.5,2.4-3.5
						c0.5-0.5,1-0.9,1.6-1.3L98.2,367.5z M99.1,377.7L99.1,377.7c-1,0-1.2,0.7-1,1.3c0,0.1,0.1,0.2,0.1,0.3c0.2,0.8,0.7,1.4,1.4,1.8
						c0.7,0.3,1.4,0.6,2.1,0.8c1,0.3,2.2,0.1,3-0.7c0.4-0.2,0.5-0.7,0.3-1.1c-0.1-0.1-0.1-0.2-0.2-0.2c-0.4-0.3-0.9-0.6-1.4-0.8
						c-0.8-0.4-1.7-0.6-2.5-0.9C100.3,378,99.7,377.9,99.1,377.7L99.1,377.7z M98.3,370.5c0-0.6-0.2-1-0.7-1.1
						c-0.4-0.1-0.8,0.1-1,0.4c-1,1.2-1.7,2.5-2.1,4c-0.1,0.2-0.1,0.5,0,0.7c0.1,0.4,0.5,0.8,0.9,0.7c0.2,0,0.4-0.1,0.5-0.3
						c0.3-0.5,0.7-1,1-1.5c0.4-0.7,0.7-1.3,1.1-2C98.1,371.2,98.2,370.8,98.3,370.5L98.3,370.5z M111.7,375.7c0-0.3-0.1-0.5-0.1-0.8
						c-0.1-0.5-0.6-0.7-1.1-0.6c0,0,0,0,0,0c0,0-0.1,0-0.1,0c-0.3,0.1-0.6,0.5-0.6,0.8c-0.3,1.2-0.6,2.4-0.8,3.7
						c-0.1,0.4-0.1,0.8,0,1.1c0.1,0.4,0.5,0.7,0.9,0.6c0.1,0,0.2-0.1,0.3-0.1c0.3-0.2,0.5-0.5,0.6-0.8c0.2-0.7,0.5-1.4,0.6-2.1
						C111.5,376.9,111.6,376.3,111.7,375.7L111.7,375.7z"/>
				</g>
			</g>
		</g>
	</g>
</g>
<g class="st41">
	<g>
		<g>
			<path class="st42" d="M256.3,51.5l-0.1,65.6c0,2.5-1.6,4.9-4.8,6.8l-34.2,19.9c-6.5,3.8-17,3.8-23.6,0L159.2,124
				c-3.3-1.9-5-4.4-5-6.9l0.1-65.6c0,2.5,1.6,5,5,6.9l34.4,19.9c6.5,3.8,17.1,3.8,23.6,0l34.2-19.9C254.7,56.5,256.3,54,256.3,51.5z
				"/>
		</g>
	</g>
	<g>
		<g>
			<path class="st11" d="M251.4,44.7c6.5,3.8,6.6,9.9,0.1,13.7l-34.2,19.9c-6.5,3.8-17.1,3.8-23.6,0l-34.4-19.9
				c-6.5-3.8-6.6-9.9-0.1-13.7l34.2-19.9c6.5-3.8,17.1-3.8,23.6,0L251.4,44.7z"/>
		</g>
	</g>
</g>
<g class="st41">
	<g>
		<g>
			<path class="st42" d="M157.6,330.8l-0.1,65.6c0,2.5-1.6,4.9-4.8,6.8l-34.2,19.9c-6.5,3.8-17,3.8-23.6,0l-34.4-19.9
				c-3.3-1.9-5-4.4-5-6.9l0.1-65.6c0,2.5,1.6,5,5,6.9l34.4,19.9c6.5,3.8,17.1,3.8,23.6,0l34.2-19.9
				C156,335.8,157.6,333.3,157.6,330.8z"/>
		</g>
	</g>
	<g>
		<g>
			<path class="st11" d="M152.7,324c6.5,3.8,6.6,9.9,0.1,13.7l-34.2,19.9c-6.5,3.8-17.1,3.8-23.6,0l-34.4-19.9
				c-6.5-3.8-6.6-9.9-0.1-13.7l34.2-19.9c6.5-3.8,17.1-3.8,23.6,0L152.7,324z"/>
		</g>
	</g>
</g>
</svg>
