<svg id="Layer_1" enable-background="new 0 0 56 56" height="512" viewBox="0 0 56 56" width="512" xmlns="http://www.w3.org/2000/svg"><g id="_x36_6"><g><g><g><g><g><g><g><g enable-background="new"><g><g><path d="m15.8 39.9v3.1c0 1.8 1.2 3.6 3.5 5 4.8 2.8 12.5 2.8 17.3 0 2.4-1.4 3.6-3.2 3.6-5v-3.1c0 1.8-1.2 3.6-3.6 5-4.8 2.8-12.5 2.8-17.3 0-2.3-1.4-3.5-3.2-3.5-5z" fill="#febc1f"/></g></g><g><g><path d="m19.4 34.8c-4.8 2.8-4.8 7.2-.1 10 4.8 2.8 12.5 2.8 17.3 0s4.8-7.2.1-10c-4.8-2.7-12.5-2.7-17.3 0z" fill="#ffde9b"/></g></g></g><g enable-background="new"><g><g><path d="m15.8 34.4v3.1c0 1.8 1.2 3.6 3.5 5 4.8 2.8 12.5 2.8 17.3 0 2.4-1.4 3.6-3.2 3.6-5v-3.1c0 1.8-1.2 3.6-3.6 5-4.8 2.8-12.5 2.8-17.3 0-2.3-1.4-3.5-3.2-3.5-5z" fill="#febc1f"/></g></g><g><g><path d="m19.4 29.3c-4.8 2.8-4.8 7.2-.1 10 4.8 2.8 12.5 2.8 17.3 0s4.8-7.2.1-10c-4.8-2.7-12.5-2.7-17.3 0z" fill="#ffde9b"/></g></g></g><g enable-background="new"><g><g><path d="m15.8 28.8v3.1c0 1.8 1.2 3.6 3.5 5 4.8 2.8 12.5 2.8 17.3 0 2.4-1.4 3.6-3.2 3.6-5v-3.1c0 1.8-1.2 3.6-3.6 5-4.8 2.8-12.5 2.8-17.3 0-2.3-1.4-3.5-3.2-3.5-5z" fill="#febc1f"/></g></g><g><g><path d="m19.4 23.8c-4.8 2.8-4.8 7.2-.1 10 4.8 2.8 12.5 2.8 17.3 0s4.8-7.2.1-10c-4.8-2.8-12.5-2.8-17.3 0z" fill="#ffde9b"/></g></g></g><g enable-background="new"><g><g><path d="m15.8 23.3v3.1c0 1.8 1.2 3.6 3.5 5 4.8 2.8 12.5 2.8 17.3 0 2.4-1.4 3.6-3.2 3.6-5v-3.1c0 1.8-1.2 3.6-3.6 5-4.8 2.8-12.5 2.8-17.3 0-2.3-1.4-3.5-3.2-3.5-5z" fill="#febc1f"/></g></g><g><g><path d="m19.4 18.3c-4.8 2.8-4.8 7.2-.1 10 4.8 2.8 12.5 2.8 17.3 0s4.8-7.2.1-10c-4.8-2.8-12.5-2.8-17.3 0z" fill="#ffde9b"/></g></g></g><g enable-background="new"><g><g><path d="m15.8 17.8v3.1c0 1.8 1.2 3.6 3.5 5 4.8 2.8 12.5 2.8 17.3 0 2.4-1.4 3.6-3.2 3.6-5v-3.1c0 1.8-1.2 3.6-3.6 5-4.8 2.8-12.5 2.8-17.3 0-2.3-1.4-3.5-3.2-3.5-5z" fill="#febc1f"/></g></g><g><g><path d="m19.4 12.7c-4.8 2.8-4.8 7.2-.1 10 4.8 2.8 12.5 2.8 17.3 0s4.8-7.2.1-10c-4.8-2.7-12.5-2.7-17.3 0z" fill="#ffde9b"/></g></g></g></g><g opacity=".3"><path d="m16.7 18.5v2.9 9.4 4.9 3.9 4.8c0 1.3 1 2.6 2.8 3.6s4.2 1.7 6.7 1.9c.4 0 .9.1 1.3.1v-28.5c-3.8 0-7.5-.9-10.2-2.5-.1-.2-.3-.3-.6-.5z" fill="#f3f1fc"/></g></g><g opacity=".3"><g><path d="m16.7 21.4.1 9.3 10.9 11.8v-9.4z" fill="#fff"/></g><g><path d="m16.8 35.6v3.9l9.6 10.3c.4 0 .9.1 1.3.1v-2.5z" fill="#fff"/></g></g></g></g></g><g><g><path d="m14.6 11.7.1 32.6c0 2 1.3 3.9 3.9 5.4 5.2 3 13.6 3 18.8 0 2.6-1.5 3.9-3.5 3.9-5.5l-.1-32.6c.1 2.1-26.6 2.1-26.6.1zm2.1 6.8c.2.2.5.3.7.5 2.8 1.6 6.4 2.5 10.2 2.5v28.4c-3 0-6-.8-8.1-2-1.8-1-2.8-2.4-2.8-3.6z" fill="#5094ff"/></g></g><g><path d="m38.9 27-3.7 7.6 3.3-1.9-5.2 9.8 2.4-7-2.6 1.5 1.8-7.7z" fill="#fff"/></g></g><g><path d="m23 34.6c-1.6 0-2.9 1.4-2.9 3 0-1.7-1.3-3-2.9-3 1.6 0 2.9-1.4 2.9-3 0 1.6 1.3 3 2.9 3z" fill="#f8f9fe"/></g></g><g><g enable-background="new"><g><g><path d="m18.6 6.3c-5.2 3-5.2 7.9-.1 10.9 5.2 3 13.6 3 18.8 0s5.2-7.9 0-10.9c-5.1-3-13.5-3.1-18.7 0z" fill="#57b3fe"/></g></g></g></g><g><g enable-background="new"><g><g><path d="m36 9.5v1.8c0 1.2-.8 2.4-2.3 3.3-3.1 1.8-8.2 1.8-11.4 0-1.6-.9-2.4-2.1-2.4-3.3v-1.8c0 1.2 1.1 1.8 2.7 2.8 3.2 1.8 8 1.3 11.1-.5 1.6-1 2.3-1.1 2.3-2.3z" fill="#c9cee2"/></g></g><g><g><path d="m33.6 6.2c3.2 1.8 3.2 4.8 0 6.6-3.1 1.8-8.2 1.8-11.4 0s-3.2-4.8 0-6.6 8.3-1.8 11.4 0z" fill="#f3f1fc"/></g></g></g></g><g><g enable-background="new"><g><g><path d="m31.9 8v1.9c0 .6-.4 1.1-1.1 1.6-1.5.9-4 .9-5.5 0-.8-.4-1.2-1-1.1-1.6v-1.9c0 .6.7.1 1.4.6 1.5.9 3.6.8 5.2-.1.6-.5 1.1.1 1.1-.5z" fill="#dedffb"/></g></g><g><g><path d="m30.7 6.4c1.5.9 1.5 2.3 0 3.2s-4 .9-5.5 0-1.5-2.3 0-3.2 4-.9 5.5 0z" fill="#fff"/></g></g></g></g></g></svg>