<?xml version="1.0" encoding="utf-8"?>
<!-- Generator: Adobe Illustrator 25.2.1, SVG Export Plug-In . SVG Version: 6.00 Build 0)  -->
<svg version="1.1" id="Layer_1" xmlns="http://www.w3.org/2000/svg" xmlns:xlink="http://www.w3.org/1999/xlink" x="0px" y="0px"
	 viewBox="0 0 512 512" style="enable-background:new 0 0 512 512;" xml:space="preserve">
<style type="text/css">
	.st0{fill:#9EA9C9;}
	.st1{enable-background:new    ;}
	.st2{fill:#DEDFFB;}
	.st3{fill:#F3F1FC;}
	.st4{fill:#423D9B;}
	.st5{fill:#FFFFFF;}
	.st6{fill:#F45170;}
	.st7{fill:#497BFE;}
	.st8{opacity:0.7;}
	.st9{fill:#8FABFE;}
	.st10{fill:#4C5C75;}
	.st11{fill:#D84905;}
	.st12{fill:url(#SVGID_1_);}
	.st13{fill:#F67205;}
	.st14{fill:url(#SVGID_2_);}
	.st15{fill:#F69D05;}
	.st16{fill:url(#SVGID_3_);}
	.st17{opacity:0.7;fill:url(#SVGID_4_);enable-background:new    ;}
	.st18{fill:url(#SVGID_5_);}
	.st19{opacity:0.7;fill:url(#SVGID_6_);enable-background:new    ;}
	.st20{fill:url(#SVGID_7_);}
	.st21{fill:#BA3E05;}
	.st22{opacity:0.5;fill:url(#SVGID_8_);enable-background:new    ;}
	.st23{opacity:0.4;fill:url(#SVGID_9_);enable-background:new    ;}
	.st24{opacity:0.4;fill:url(#SVGID_10_);enable-background:new    ;}
	.st25{clip-path:url(#SVGID_12_);}
	.st26{fill-rule:evenodd;clip-rule:evenodd;fill:url(#SVGID_13_);}
	.st27{fill:url(#SVGID_14_);}
	.st28{fill:url(#SVGID_15_);}
	.st29{fill:url(#SVGID_16_);}
	.st30{opacity:0.7;fill:url(#SVGID_17_);enable-background:new    ;}
	.st31{fill:url(#SVGID_18_);}
	.st32{opacity:0.7;fill:url(#SVGID_19_);enable-background:new    ;}
	.st33{fill:url(#SVGID_20_);}
	.st34{opacity:0.5;fill:url(#SVGID_21_);enable-background:new    ;}
	.st35{opacity:0.4;fill:url(#SVGID_22_);enable-background:new    ;}
	.st36{opacity:0.4;fill:url(#SVGID_23_);enable-background:new    ;}
	.st37{clip-path:url(#SVGID_25_);}
	.st38{fill-rule:evenodd;clip-rule:evenodd;fill:url(#SVGID_26_);}
	.st39{fill:url(#SVGID_27_);}
	.st40{fill:url(#SVGID_28_);}
	.st41{fill:url(#SVGID_29_);}
	.st42{opacity:0.7;fill:url(#SVGID_30_);enable-background:new    ;}
	.st43{fill:url(#SVGID_31_);}
	.st44{opacity:0.7;fill:url(#SVGID_32_);enable-background:new    ;}
	.st45{fill:url(#SVGID_33_);}
	.st46{opacity:0.5;fill:url(#SVGID_34_);enable-background:new    ;}
	.st47{opacity:0.4;fill:url(#SVGID_35_);enable-background:new    ;}
	.st48{opacity:0.4;fill:url(#SVGID_36_);enable-background:new    ;}
	.st49{clip-path:url(#SVGID_38_);}
	.st50{fill-rule:evenodd;clip-rule:evenodd;fill:url(#SVGID_39_);}
	.st51{opacity:0.3;}
	.st52{fill:#5094FF;}
	.st53{fill:#57B3FE;}
</style>
<g>
	<g>
		<path class="st0" d="M423.7,440.2c-3.4,0-6.9-0.8-9.5-2.3l-53.8-31.3c-2.9-1.7-4.5-4-4.5-6.6c0-2.6,1.6-5,4.6-6.7l54.1-31.2
			c5.4-3.1,13.7-3.1,19.1,0l53.8,31.3c2.8,1.7,4.5,4.1,4.5,6.6c0,2.6-1.6,5-4.5,6.7l-54.1,31.2C430.6,439.4,427.2,440.2,423.7,440.2
			z M362.4,396.7c-1.6,1-2.6,2.1-2.6,3.3c0,1.1,0.9,2.3,2.5,3.2l53.8,31.3c4.1,2.4,11,2.4,15.1,0l54.1-31.2c1.6-0.9,2.6-2.1,2.6-3.3
			c0-1.1-0.9-2.3-2.5-3.2l-53.8-31.3c-4.1-2.4-11-2.4-15.1,0L362.4,396.7z"/>
	</g>
</g>
<g>
	<g>
		<g>
			<g>
				<g>
					<g>
						<path class="st0" d="M88.2,246.3c-3.4,0-6.9-0.8-9.5-2.3l-54.1-31.2c-2.9-1.7-4.5-4.1-4.5-6.7c0-2.6,1.6-5,4.5-6.6l53.8-31.3
							c5.3-3.1,13.7-3.1,19.1,0l54.1,31.2c2.9,1.7,4.6,4.1,4.6,6.7c0,2.6-1.6,5-4.5,6.6L97.7,244C95.1,245.5,91.6,246.3,88.2,246.3z
							 M87.9,169.8c-2.8,0-5.5,0.6-7.6,1.8l-53.8,31.3c-1.6,0.9-2.5,2.1-2.5,3.2c0,1.1,0.9,2.3,2.6,3.3l54.1,31.2
							c4.1,2.4,11,2.4,15.1,0l53.8-31.3c1.6-0.9,2.5-2.1,2.5-3.2c0-1.1-1-2.3-2.6-3.3l-54.1-31.2C93.4,170.4,90.6,169.8,87.9,169.8z
							"/>
					</g>
				</g>
				<g>
					<g>
						<g>
							<g class="st1">
								<g>
									<path class="st2" d="M152.8,176.8l-55.7,32.4c-4.8,2.8-12.8,2.8-17.7,0l-56-32.3c-2.5-1.4-3.7-3.3-3.7-5.2l0,24.7
										c0,1.9,1.2,3.7,3.7,5.2l56,32.3c4.9,2.8,12.9,2.8,17.7,0l55.7-32.4c2.4-1.4,3.6-3.3,3.6-5.1l0-24.7
										C156.4,173.5,155.2,175.4,152.8,176.8z"/>
								</g>
								<g>
									<g>
										<path class="st3" d="M152.7,166.5c4.9,2.8,4.9,7.4,0.1,10.3l-55.7,32.4c-4.8,2.8-12.8,2.8-17.7,0l-56-32.3
											c-4.9-2.8-4.9-7.5-0.1-10.3L79,134.2c4.9-2.8,12.8-2.8,17.7,0L152.7,166.5z"/>
									</g>
								</g>
							</g>
						</g>
						<g>
							<g>
								<g>
									<path class="st4" d="M28.1,185.5l0,13.8l50,28.9l0-13.8L28.1,185.5z"/>
								</g>
							</g>
							<g>
								<g>
									<g>
										<path class="st5" d="M72.7,214.4c-1.8-1-3.2-0.2-3.2,1.8c0,2,1.4,4.5,3.2,5.5s3.2,0.2,3.2-1.8
											C75.9,218,74.5,215.5,72.7,214.4z"/>
									</g>
								</g>
								<g>
									<g>
										<path class="st5" d="M33.5,191.8c-1.8-1-3.2-0.2-3.2,1.8c0,2,1.4,4.5,3.2,5.5c1.8,1,3.2,0.2,3.2-1.8
											C36.7,195.3,35.2,192.8,33.5,191.8z"/>
									</g>
								</g>
								<g>
									<g>
										<path class="st5" d="M40.4,195.8l0,7.3l25,14.4l0-7.3L40.4,195.8z"/>
									</g>
								</g>
							</g>
						</g>
					</g>
					<g>
						<g>
							<g>
								<g>
									<g>
										<path class="st6" d="M25.9,155.2v16.5c0,1.7,1.1,3.4,3.3,4.7l50.9,29.3c4.5,2.6,11.8,2.5,16.1,0l50.7-29.4
											c2.2-1.3,3.3-3,3.3-4.6v-16.5C150.2,155.2,25.9,155.2,25.9,155.2z"/>
									</g>
								</g>
							</g>
						</g>
					</g>
					<g>
						<g>
							<g class="st1">
								<g>
									<path class="st2" d="M152.8,143.8l-55.7,32.4c-4.8,2.8-12.8,2.8-17.7,0l-56-32.3c-2.5-1.4-3.7-3.3-3.7-5.2l0,24.7
										c0,1.9,1.2,3.7,3.7,5.2l56,32.3c4.9,2.8,12.9,2.8,17.7,0l55.7-32.4c2.4-1.4,3.6-3.3,3.6-5.1l0-24.7
										C156.4,140.5,155.2,142.4,152.8,143.8z"/>
								</g>
								<g>
									<g>
										<path class="st3" d="M152.7,133.5c4.9,2.8,4.9,7.4,0.1,10.3l-55.7,32.4c-4.8,2.8-12.8,2.8-17.7,0l-56-32.3
											c-4.9-2.8-4.9-7.5-0.1-10.3L79,101.2c4.9-2.8,12.8-2.8,17.7,0L152.7,133.5z"/>
									</g>
								</g>
								<g>
									<g>
										<path class="st2" d="M135.1,134.9c3.6,2.1,3.6,5.4,0,7.5l-40.5,23.6c-3.5,2-9.3,2.1-12.9,0L41,142.4
											c-3.6-2.1-3.5-5.4,0-7.5l40.5-23.6c3.6-2.1,9.3-2.1,12.9,0L135.1,134.9z"/>
									</g>
								</g>
							</g>
						</g>
						<g>
							<g>
								<g>
									<path class="st4" d="M149,152.4l0,13.8l-50,28.9l0-13.8L149,152.4z"/>
								</g>
							</g>
							<g>
								<g>
									<g>
										<path class="st5" d="M104.3,181.4c1.8-1,3.2-0.2,3.2,1.8c0,2-1.4,4.5-3.2,5.5c-1.8,1-3.2,0.2-3.2-1.8
											C101.1,184.9,102.6,182.5,104.3,181.4z"/>
									</g>
								</g>
								<g>
									<g>
										<path class="st5" d="M143.6,158.8c1.8-1,3.2-0.2,3.2,1.8c0,2-1.4,4.5-3.2,5.5c-1.8,1-3.2,0.2-3.2-1.8
											C140.4,162.3,141.8,159.8,143.6,158.8z"/>
									</g>
								</g>
								<g>
									<g>
										<path class="st5" d="M136.7,162.8l0,7.3l-25,14.4l0-7.3L136.7,162.8z"/>
									</g>
								</g>
							</g>
						</g>
						<g>
							<g>
								<g>
									<path class="st4" d="M28.1,152.4l0,13.8l50,28.9l0-13.8L28.1,152.4z"/>
								</g>
							</g>
							<g>
								<g>
									<g>
										<path class="st5" d="M72.7,181.4c-1.8-1-3.2-0.2-3.2,1.8c0,2,1.4,4.5,3.2,5.5c1.8,1,3.2,0.2,3.2-1.8
											C75.9,184.9,74.5,182.5,72.7,181.4z"/>
									</g>
								</g>
								<g>
									<g>
										<path class="st5" d="M33.5,158.8c-1.8-1-3.2-0.2-3.2,1.8c0,2,1.4,4.5,3.2,5.5c1.8,1,3.2,0.2,3.2-1.8
											C36.7,162.3,35.2,159.8,33.5,158.8z"/>
									</g>
								</g>
								<g>
									<g>
										<path class="st5" d="M40.4,162.8l0,7.3l25,14.4l0-7.3L40.4,162.8z"/>
									</g>
								</g>
							</g>
						</g>
					</g>
				</g>
			</g>
		</g>
	</g>
	<g>
		<g>
			<g>
				<path class="st7" d="M125.2,197.1c4.1-2.4,7.5-0.5,7.5,4.3c0,4.7-3.3,10.4-7.5,12.8c-4.1,2.4-7.5,0.6-7.5-4.2
					C117.7,205.3,121.1,199.5,125.2,197.1z"/>
			</g>
		</g>
		<g class="st8">
			<g class="st1">
				<g>
					<g>
						<path class="st9" d="M256.2,269.6c-1.4-0.8-3.2-0.7-5.3,0.5c-4.2,2.4-7.5,8.1-7.5,12.9c0,2.3,0.8,4,2.2,4.8l-125.6-73
							c-1.3-0.8-2.1-2.4-2.2-4.8c0-4.8,3.3-10.6,7.5-12.9c2.1-1.2,4-1.3,5.3-0.5L256.2,269.6z"/>
					</g>
				</g>
			</g>
		</g>
	</g>
	<g>
		<g>
			<g>
				<path class="st0" d="M423.8,246.3c-3.4,0-6.9-0.8-9.5-2.3l-53.8-31.3c-2.9-1.7-4.5-4-4.5-6.6c0-2.6,1.6-5,4.6-6.7l54.1-31.2
					c5.4-3.1,13.7-3.1,19.1,0l53.8,31.3c2.9,1.7,4.5,4.1,4.5,6.6c0,2.6-1.6,5-4.5,6.7L433.3,244
					C430.6,245.5,427.2,246.3,423.8,246.3z M362.5,202.8c-1.6,1-2.6,2.1-2.6,3.3c0,1.1,0.9,2.3,2.5,3.2l53.8,31.3
					c4.1,2.4,11,2.4,15.1,0l54.1-31.2c1.6-0.9,2.6-2.1,2.6-3.3c0-1.1-0.9-2.3-2.5-3.2l-53.8-31.3c-4.1-2.4-11-2.4-15.1,0
					L362.5,202.8z"/>
			</g>
		</g>
		<g>
			<g>
				<g>
					<g class="st1">
						<g>
							<path class="st2" d="M359.2,176.8l55.7,32.4c4.8,2.8,12.8,2.8,17.7,0l56-32.3c2.5-1.4,3.7-3.3,3.7-5.2l0,24.7
								c0,1.9-1.2,3.7-3.7,5.2l-56,32.3c-4.9,2.8-12.9,2.8-17.7,0l-55.7-32.4c-2.4-1.4-3.6-3.3-3.6-5.1l0-24.7
								C355.6,173.5,356.8,175.4,359.2,176.8z"/>
						</g>
						<g>
							<g>
								<path class="st3" d="M359.3,166.5c-4.9,2.8-4.9,7.4-0.1,10.3l55.7,32.4c4.8,2.8,12.8,2.8,17.7,0l56-32.3
									c4.9-2.8,4.9-7.5,0.1-10.3l-55.7-32.4c-4.9-2.8-12.8-2.8-17.7,0L359.3,166.5z"/>
							</g>
						</g>
					</g>
				</g>
				<g>
					<g>
						<g>
							<path class="st4" d="M483.9,185.5l0,13.8l-50,28.9l0-13.8L483.9,185.5z"/>
						</g>
					</g>
					<g>
						<g>
							<g>
								<path class="st5" d="M439.3,214.4c1.8-1,3.2-0.2,3.2,1.8c0,2-1.4,4.5-3.2,5.5c-1.8,1-3.2,0.2-3.2-1.8
									C436.1,218,437.5,215.5,439.3,214.4z"/>
							</g>
						</g>
						<g>
							<g>
								<path class="st5" d="M478.5,191.8c1.8-1,3.2-0.2,3.2,1.8s-1.4,4.5-3.2,5.5c-1.8,1-3.2,0.2-3.2-1.8
									C475.3,195.3,476.7,192.8,478.5,191.8z"/>
							</g>
						</g>
						<g>
							<g>
								<path class="st5" d="M471.6,195.8l0,7.3l-25,14.4l0-7.3L471.6,195.8z"/>
							</g>
						</g>
					</g>
				</g>
			</g>
			<g>
				<g>
					<g>
						<g>
							<g>
								<path class="st6" d="M486.1,155.2v16.5c0,1.7-1.1,3.4-3.3,4.7l-50.9,29.3c-4.5,2.6-11.8,2.5-16.1,0l-50.7-29.4
									c-2.2-1.3-3.3-3-3.3-4.6v-16.5H486.1z"/>
							</g>
						</g>
					</g>
				</g>
			</g>
			<g>
				<g>
					<g class="st1">
						<g>
							<path class="st2" d="M359.2,143.8l55.7,32.4c4.8,2.8,12.8,2.8,17.7,0l56-32.3c2.5-1.4,3.7-3.3,3.7-5.2l0,24.7
								c0,1.9-1.2,3.7-3.7,5.2l-56,32.3c-4.9,2.8-12.9,2.8-17.7,0l-55.7-32.4c-2.4-1.4-3.6-3.3-3.6-5.1l0-24.7
								C355.6,140.5,356.8,142.4,359.2,143.8z"/>
						</g>
						<g>
							<g>
								<path class="st3" d="M359.3,133.5c-4.9,2.8-4.9,7.4-0.1,10.3l55.7,32.4c4.8,2.8,12.8,2.8,17.7,0l56-32.3
									c4.9-2.8,4.9-7.5,0.1-10.3l-55.7-32.4c-4.9-2.8-12.8-2.8-17.7,0L359.3,133.5z"/>
							</g>
						</g>
						<g>
							<g>
								<path class="st2" d="M376.9,134.9c-3.6,2.1-3.6,5.4,0,7.5l40.5,23.6c3.5,2,9.3,2.1,12.9,0l40.7-23.5c3.6-2.1,3.5-5.4,0-7.5
									l-40.5-23.6c-3.6-2.1-9.3-2.1-12.9,0L376.9,134.9z"/>
							</g>
						</g>
					</g>
				</g>
				<g>
					<g>
						<g>
							<path class="st4" d="M363,152.4l0,13.8l50,28.9l0-13.8L363,152.4z"/>
						</g>
					</g>
					<g>
						<g>
							<g>
								<path class="st5" d="M407.6,181.4c-1.8-1-3.2-0.2-3.2,1.8c0,2,1.4,4.5,3.2,5.5c1.8,1,3.2,0.2,3.2-1.8
									C410.8,184.9,409.4,182.5,407.6,181.4z"/>
							</g>
						</g>
						<g>
							<g>
								<path class="st5" d="M368.4,158.8c-1.8-1-3.2-0.2-3.2,1.8c0,2,1.4,4.5,3.2,5.5c1.8,1,3.2,0.2,3.2-1.8
									C371.6,162.3,370.2,159.8,368.4,158.8z"/>
							</g>
						</g>
						<g>
							<g>
								<path class="st5" d="M375.3,162.8l0,7.3l25,14.4l0-7.3L375.3,162.8z"/>
							</g>
						</g>
					</g>
				</g>
				<g>
					<g>
						<g>
							<path class="st4" d="M483.9,152.4l0,13.8l-50,28.9l0-13.8L483.9,152.4z"/>
						</g>
					</g>
					<g>
						<g>
							<g>
								<path class="st5" d="M439.3,181.4c1.8-1,3.2-0.2,3.2,1.8c0,2-1.4,4.5-3.2,5.5c-1.8,1-3.2,0.2-3.2-1.8
									C436.1,184.9,437.5,182.5,439.3,181.4z"/>
							</g>
						</g>
						<g>
							<g>
								<path class="st5" d="M478.5,158.8c1.8-1,3.2-0.2,3.2,1.8c0,2-1.4,4.5-3.2,5.5c-1.8,1-3.2,0.2-3.2-1.8
									C475.3,162.3,476.7,159.8,478.5,158.8z"/>
							</g>
						</g>
						<g>
							<g>
								<path class="st5" d="M471.6,162.8l0,7.3l-25,14.4l0-7.3L471.6,162.8z"/>
							</g>
						</g>
					</g>
				</g>
			</g>
		</g>
	</g>
	<g>
		<g>
			<g>
				<path class="st7" d="M388.2,197.1c-4.1-2.4-7.5-0.5-7.5,4.3c0,4.7,3.3,10.4,7.5,12.8c4.1,2.4,7.5,0.6,7.5-4.2
					C395.7,205.3,392.4,199.5,388.2,197.1z"/>
			</g>
		</g>
		<g class="st8">
			<g class="st1">
				<g>
					<g>
						<path class="st9" d="M257.3,269.6c1.4-0.8,3.2-0.7,5.3,0.5c4.2,2.4,7.5,8.1,7.5,12.9c0,2.3-0.8,4-2.2,4.8l125.6-73
							c1.3-0.8,2.1-2.4,2.2-4.8c0-4.8-3.3-10.6-7.5-12.9c-2.1-1.2-4-1.3-5.3-0.5L257.3,269.6z"/>
					</g>
				</g>
			</g>
		</g>
	</g>
	<g>
		<g>
			<g>
				<g>
					<g class="st1">
						<g>
							<g>
								<path class="st2" d="M363.3,234.8l-0.1,38.5c0,2.9-1.9,5.7-5.7,7.9l-86.6,50.4c-7.5,4.3-19.9,4.4-27.6,0l-87.1-50.3
									c-3.8-2.3-5.8-5.1-5.7-8.1v-38.4c0-2.9,1.9-5.8,5.6-8l86.7-50.4c7.6-4.4,19.9-4.4,27.6,0l87.1,50.3
									C361.5,229,363.3,232,363.3,234.8z"/>
							</g>
						</g>
					</g>
				</g>
			</g>
		</g>
	</g>
	<g>
		<g>
			<g>
				<g>
					<g class="st1">
						<g>
							<path class="st2" d="M357.6,242.8l-86.7,50.4c-7.5,4.4-19.9,4.4-27.6,0l-87.1-50.3c-3.8-2.2-5.7-5.1-5.7-8l-0.1,38.5
								c0,2.9,1.9,5.8,5.7,8l87.1,50.3c7.7,4.4,20.1,4.4,27.6,0l86.7-50.4c3.8-2.2,5.7-5.1,5.7-7.9l0.1-38.5
								C363.3,237.7,361.4,240.6,357.6,242.8z"/>
						</g>
						<g>
							<g>
								<path class="st3" d="M357.5,226.8c7.7,4.4,7.7,11.5,0.1,16l-86.7,50.4c-7.5,4.4-19.9,4.4-27.6,0l-87.1-50.3
									c-7.7-4.4-7.6-11.6-0.1-16l86.7-50.4c7.6-4.4,19.9-4.4,27.6,0L357.5,226.8z"/>
							</g>
						</g>
					</g>
				</g>
			</g>
		</g>
	</g>
	<g>
		<g>
			<g>
				<path class="st7" d="M312.5,281.2c4.1-2.4,7.5-0.5,7.5,4.3c0,4.7-3.3,10.4-7.5,12.8c-4.1,2.4-7.5,0.6-7.5-4.2
					S308.3,283.5,312.5,281.2z"/>
			</g>
		</g>
		<g class="st8">
			<g class="st1">
				<g>
					<g>
						<path class="st9" d="M443.4,353.6c-1.4-0.8-3.2-0.7-5.3,0.5c-4.2,2.4-7.5,8.1-7.5,12.9c0,2.3,0.8,4,2.2,4.8l-125.6-73
							c-1.3-0.8-2.1-2.4-2.2-4.8c0-4.8,3.3-10.6,7.5-12.9c2.1-1.2,4-1.3,5.3-0.5L443.4,353.6z"/>
					</g>
				</g>
			</g>
		</g>
	</g>
	<g>
		<g>
			<g>
				<path class="st7" d="M201.2,279.3c-4.1-2.4-7.5-0.5-7.5,4.3c0,4.7,3.3,10.4,7.5,12.8s7.5,0.6,7.5-4.2
					C208.6,287.4,205.3,281.6,201.2,279.3z"/>
			</g>
		</g>
		<g class="st8">
			<g class="st1">
				<g>
					<g>
						<path class="st9" d="M70.2,351.7c1.4-0.8,3.2-0.7,5.3,0.5c4.2,2.4,7.5,8.1,7.5,12.9c0,2.3-0.8,4-2.2,4.8l125.6-73
							c1.3-0.8,2.1-2.4,2.2-4.8c0-4.8-3.3-10.6-7.5-12.9c-2.1-1.2-4-1.3-5.3-0.5L70.2,351.7z"/>
					</g>
				</g>
			</g>
		</g>
	</g>
	<g>
		<g>
			<g>
				<g>
					<g>
						<g>
							<g>
								<path class="st2" d="M489.9,361.5c1.6,1.2,2.5,2.7,2.5,4.1l-0.1,24.7c0,1.9-1.2,3.6-3.6,5.1l-55.6,32.4
									c-4.8,2.8-12.8,2.8-17.7,0l-56-32.4c-2.5-1.4-3.6-3.2-3.6-5.1l0.1-24v-0.5c0,0.1,0,0.1,0,0.2c-0.2-1.6,0.5-3.2,2-4.6
									c-1.5-1.3-2.2-2.7-2.2-4.1l0.1-24.1c-0.4-2.1,0.9-4.1,3.5-5.7l55.7-32.4c4.9-2.9,12.8-2.9,17.7,0l55.9,32.3
									c2.5,1.5,3.7,3.3,3.7,5.2l-0.1,24.7C492.2,358.8,491.4,360.3,489.9,361.5z"/>
							</g>
						</g>
					</g>
				</g>
			</g>
		</g>
	</g>
	<g>
		<g>
			<g>
				<g>
					<g class="st1">
						<g>
							<path class="st2" d="M488.7,370.7L433,403.1c-4.8,2.8-12.8,2.8-17.7,0l-56-32.3c-2.5-1.4-3.7-3.3-3.7-5.2l0,24.7
								c0,1.9,1.2,3.7,3.7,5.2l56,32.3c4.9,2.8,12.9,2.8,17.7,0l55.7-32.4c2.4-1.4,3.6-3.3,3.6-5.1l0-24.7
								C492.3,367.5,491.1,369.3,488.7,370.7z"/>
						</g>
						<g>
							<g>
								<path class="st3" d="M488.6,360.5c4.9,2.8,4.9,7.4,0.1,10.3L433,403.1c-4.8,2.8-12.8,2.8-17.7,0l-56-32.3
									c-4.9-2.8-4.9-7.5-0.1-10.3l55.7-32.4c4.9-2.8,12.8-2.8,17.7,0L488.6,360.5z"/>
							</g>
						</g>
					</g>
				</g>
				<g>
					<g>
						<g>
							<path class="st4" d="M484.8,379.4l0,13.8l-50,28.9l0-13.8L484.8,379.4z"/>
						</g>
					</g>
					<g>
						<g>
							<g>
								<path class="st5" d="M440.2,408.4c1.8-1,3.2-0.2,3.2,1.8c0,2-1.4,4.5-3.2,5.5c-1.8,1-3.2,0.2-3.2-1.8
									C437,411.9,438.4,409.4,440.2,408.4z"/>
							</g>
						</g>
						<g>
							<g>
								<path class="st5" d="M479.4,385.7c1.8-1,3.2-0.2,3.2,1.8c0,2-1.4,4.5-3.2,5.5c-1.8,1-3.2,0.2-3.2-1.8
									C476.2,389.2,477.7,386.7,479.4,385.7z"/>
							</g>
						</g>
						<g>
							<g>
								<path class="st5" d="M472.6,389.7l0,7.3l-25,14.4l0-7.3L472.6,389.7z"/>
							</g>
						</g>
					</g>
				</g>
				<g>
					<g>
						<g>
							<path class="st4" d="M364,379.4l0,13.8l50,28.9l0-13.8L364,379.4z"/>
						</g>
					</g>
					<g>
						<g>
							<g>
								<path class="st5" d="M408.6,408.4c-1.8-1-3.2-0.2-3.2,1.8c0,2,1.4,4.5,3.2,5.5c1.8,1,3.2,0.2,3.2-1.8
									C411.8,411.9,410.3,409.4,408.6,408.4z"/>
							</g>
						</g>
						<g>
							<g>
								<path class="st5" d="M369.4,385.7c-1.8-1-3.2-0.2-3.2,1.8c0,2,1.4,4.5,3.2,5.5c1.8,1,3.2,0.2,3.2-1.8
									C372.6,389.2,371.1,386.7,369.4,385.7z"/>
							</g>
						</g>
						<g>
							<g>
								<path class="st5" d="M376.2,389.7l0,7.3l25,14.4l0-7.3L376.2,389.7z"/>
							</g>
						</g>
					</g>
				</g>
			</g>
			<g>
				<g>
					<g>
						<g>
							<g>
								<path class="st6" d="M361.8,349.1v16.5c0,1.7,1.1,3.4,3.3,4.7l50.9,29.3c4.5,2.6,11.8,2.5,16.1,0l50.7-29.4
									c2.2-1.3,3.3-3,3.3-4.6v-16.5H361.8z"/>
							</g>
						</g>
					</g>
				</g>
			</g>
			<g>
				<g>
					<g class="st1">
						<g>
							<path class="st2" d="M488.7,337.7L433,370.1c-4.8,2.8-12.8,2.8-17.7,0l-56-32.3c-2.5-1.4-3.7-3.3-3.7-5.2l0,24.7
								c0,1.9,1.2,3.7,3.7,5.2l56,32.3c4.9,2.8,12.9,2.8,17.7,0l55.7-32.4c2.4-1.4,3.6-3.2,3.6-5.1l0-24.7
								C492.3,334.4,491.1,336.3,488.7,337.7z"/>
						</g>
						<g>
							<g>
								<path class="st3" d="M488.6,327.4c4.9,2.8,4.9,7.4,0.1,10.3L433,370.1c-4.8,2.8-12.8,2.8-17.7,0l-56-32.3
									c-4.9-2.8-4.9-7.5-0.1-10.3l55.7-32.4c4.9-2.8,12.8-2.8,17.7,0L488.6,327.4z"/>
							</g>
						</g>
						<g>
							<g>
								<path class="st2" d="M471,328.8c3.6,2.1,3.6,5.4,0,7.5l-40.5,23.6c-3.5,2-9.3,2.1-12.9,0l-40.7-23.5c-3.6-2.1-3.5-5.4,0-7.5
									l40.5-23.6c3.6-2.1,9.3-2.1,12.9,0L471,328.8z"/>
							</g>
						</g>
					</g>
				</g>
				<g>
					<g>
						<g>
							<path class="st4" d="M484.8,346.4l0,13.8l-50,28.9l0-13.8L484.8,346.4z"/>
						</g>
					</g>
					<g>
						<g>
							<g>
								<path class="st5" d="M440.2,375.4c1.8-1,3.2-0.2,3.2,1.8c0,2-1.4,4.5-3.2,5.5c-1.8,1-3.2,0.2-3.2-1.8
									C437,378.9,438.4,376.4,440.2,375.4z"/>
							</g>
						</g>
						<g>
							<g>
								<path class="st5" d="M479.4,352.7c1.8-1,3.2-0.2,3.2,1.8c0,2-1.4,4.5-3.2,5.5c-1.8,1-3.2,0.2-3.2-1.8
									C476.2,356.2,477.7,353.7,479.4,352.7z"/>
							</g>
						</g>
						<g>
							<g>
								<path class="st5" d="M472.6,356.7l0,7.3l-25,14.4l0-7.3L472.6,356.7z"/>
							</g>
						</g>
					</g>
				</g>
				<g>
					<g>
						<g>
							<path class="st4" d="M364,346.4l0,13.8l50,28.9l0-13.8L364,346.4z"/>
						</g>
					</g>
					<g>
						<g>
							<g>
								<path class="st5" d="M408.6,375.4c-1.8-1-3.2-0.2-3.2,1.8c0,2,1.4,4.5,3.2,5.5c1.8,1,3.2,0.2,3.2-1.8
									C411.8,378.9,410.3,376.4,408.6,375.4z"/>
							</g>
						</g>
						<g>
							<g>
								<path class="st5" d="M369.4,352.7c-1.8-1-3.2-0.2-3.2,1.8c0,2,1.4,4.5,3.2,5.5c1.8,1,3.2,0.2,3.2-1.8
									C372.6,356.2,371.1,353.7,369.4,352.7z"/>
							</g>
						</g>
						<g>
							<g>
								<path class="st5" d="M376.2,356.7l0,7.3l25,14.4l0-7.3L376.2,356.7z"/>
							</g>
						</g>
					</g>
				</g>
			</g>
		</g>
	</g>
	<g>
		<g>
			<g>
				<path class="st0" d="M87.9,440.2c-3.4,0-6.9-0.8-9.5-2.3l-53.8-31.3c-2.9-1.7-4.5-4-4.5-6.6c0-2.6,1.6-5,4.6-6.7l54.1-31.2
					c5.4-3.1,13.7-3.1,19.1,0l53.8,31.3c2.8,1.7,4.5,4.1,4.5,6.6c0,2.6-1.6,5-4.5,6.7l-54.1,31.2C94.8,439.4,91.3,440.2,87.9,440.2z
					 M26.6,396.7c-1.6,1-2.6,2.1-2.6,3.3c0,1.1,0.9,2.3,2.5,3.2l53.8,31.3c4.1,2.4,11,2.4,15.1,0l54.1-31.2c1.6-0.9,2.6-2.1,2.6-3.3
					c0-1.1-0.9-2.3-2.5-3.2l-53.8-31.3c-4.1-2.4-11-2.4-15.1,0L26.6,396.7z"/>
			</g>
		</g>
		<g>
			<g>
				<g>
					<g class="st1">
						<g>
							<path class="st2" d="M23.3,370.7L79,403.1c4.8,2.8,12.8,2.8,17.7,0l56-32.3c2.5-1.4,3.7-3.3,3.7-5.2l0,24.7
								c0,1.9-1.2,3.7-3.7,5.2l-56,32.3c-4.9,2.8-12.9,2.8-17.7,0l-55.7-32.4c-2.4-1.4-3.6-3.3-3.6-5.1l0-24.7
								C19.7,367.5,20.9,369.3,23.3,370.7z"/>
						</g>
						<g>
							<g>
								<path class="st3" d="M23.4,360.5c-4.9,2.8-4.9,7.4-0.1,10.3L79,403.1c4.8,2.8,12.8,2.8,17.7,0l56-32.3
									c4.9-2.8,4.9-7.5,0.1-10.3l-55.7-32.4c-4.9-2.8-12.8-2.8-17.7,0L23.4,360.5z"/>
							</g>
						</g>
					</g>
				</g>
				<g>
					<g>
						<g>
							<path class="st4" d="M27.1,379.4l0,13.8l50,28.9l0-13.8L27.1,379.4z"/>
						</g>
					</g>
					<g>
						<g>
							<g>
								<path class="st5" d="M71.8,408.4c-1.8-1-3.2-0.2-3.2,1.8c0,2,1.4,4.5,3.2,5.5c1.8,1,3.2,0.2,3.2-1.8
									C75,411.9,73.5,409.4,71.8,408.4z"/>
							</g>
						</g>
						<g>
							<g>
								<path class="st5" d="M32.5,385.7c-1.8-1-3.2-0.2-3.2,1.8c0,2,1.4,4.5,3.2,5.5c1.8,1,3.2,0.2,3.2-1.8
									C35.7,389.2,34.3,386.7,32.5,385.7z"/>
							</g>
						</g>
						<g>
							<g>
								<path class="st5" d="M39.4,389.7l0,7.3l25,14.4l0-7.3L39.4,389.7z"/>
							</g>
						</g>
					</g>
				</g>
				<g>
					<g>
						<g>
							<path class="st4" d="M148,379.4l0,13.8L98,422l0-13.8L148,379.4z"/>
						</g>
					</g>
					<g>
						<g>
							<g>
								<path class="st5" d="M103.4,408.4c1.8-1,3.2-0.2,3.2,1.8c0,2-1.4,4.5-3.2,5.5c-1.8,1-3.2,0.2-3.2-1.8
									C100.2,411.9,101.6,409.4,103.4,408.4z"/>
							</g>
						</g>
						<g>
							<g>
								<path class="st5" d="M142.6,385.7c1.8-1,3.2-0.2,3.2,1.8c0,2-1.4,4.5-3.2,5.5c-1.8,1-3.2,0.2-3.2-1.8
									C139.4,389.2,140.9,386.7,142.6,385.7z"/>
							</g>
						</g>
						<g>
							<g>
								<path class="st5" d="M135.8,389.7l0,7.3l-25,14.4l0-7.3L135.8,389.7z"/>
							</g>
						</g>
					</g>
				</g>
			</g>
			<g>
				<g>
					<g>
						<g>
							<g>
								<path class="st6" d="M150.2,349.1v16.5c0,1.7-1.1,3.4-3.3,4.7L96,399.7c-4.5,2.6-11.8,2.5-16.1,0l-50.7-29.4
									c-2.2-1.3-3.3-3-3.3-4.6v-16.5H150.2z"/>
							</g>
						</g>
					</g>
				</g>
			</g>
			<g>
				<g>
					<g class="st1">
						<g>
							<path class="st2" d="M23.3,337.7L79,370.1c4.8,2.8,12.8,2.8,17.7,0l56-32.3c2.5-1.4,3.7-3.3,3.7-5.2l0,24.7
								c0,1.9-1.2,3.7-3.7,5.2l-56,32.3c-4.9,2.8-12.9,2.8-17.7,0l-55.7-32.4c-2.4-1.4-3.6-3.2-3.6-5.1l0-24.7
								C19.7,334.4,20.9,336.3,23.3,337.7z"/>
						</g>
						<g>
							<g>
								<path class="st3" d="M23.4,327.4c-4.9,2.8-4.9,7.4-0.1,10.3L79,370.1c4.8,2.8,12.8,2.8,17.7,0l56-32.3
									c4.9-2.8,4.9-7.5,0.1-10.3l-55.7-32.4c-4.9-2.8-12.8-2.8-17.7,0L23.4,327.4z"/>
							</g>
						</g>
						<g>
							<g>
								<path class="st2" d="M41,328.8c-3.6,2.1-3.6,5.4,0,7.5l40.5,23.6c3.5,2,9.3,2.1,12.9,0l40.7-23.5c3.6-2.1,3.5-5.4,0-7.5
									l-40.5-23.6c-3.6-2.1-9.3-2.1-12.9,0L41,328.8z"/>
							</g>
						</g>
					</g>
				</g>
				<g>
					<g>
						<g>
							<path class="st4" d="M27.1,346.4l0,13.8l50,28.9l0-13.8L27.1,346.4z"/>
						</g>
					</g>
					<g>
						<g>
							<g>
								<path class="st5" d="M71.8,375.4c-1.8-1-3.2-0.2-3.2,1.8c0,2,1.4,4.5,3.2,5.5c1.8,1,3.2,0.2,3.2-1.8
									C75,378.9,73.5,376.4,71.8,375.4z"/>
							</g>
						</g>
						<g>
							<g>
								<path class="st5" d="M32.5,352.7c-1.8-1-3.2-0.2-3.2,1.8c0,2,1.4,4.5,3.2,5.5c1.8,1,3.2,0.2,3.2-1.8
									C35.7,356.2,34.3,353.7,32.5,352.7z"/>
							</g>
						</g>
						<g>
							<g>
								<path class="st5" d="M39.4,356.7l0,7.3l25,14.4l0-7.3L39.4,356.7z"/>
							</g>
						</g>
					</g>
				</g>
				<g>
					<g>
						<g>
							<path class="st4" d="M148,346.4l0,13.8L98,389l0-13.8L148,346.4z"/>
						</g>
					</g>
					<g>
						<g>
							<g>
								<path class="st5" d="M103.4,375.4c1.8-1,3.2-0.2,3.2,1.8c0,2-1.4,4.5-3.2,5.5c-1.8,1-3.2,0.2-3.2-1.8
									C100.2,378.9,101.6,376.4,103.4,375.4z"/>
							</g>
						</g>
						<g>
							<g>
								<path class="st5" d="M142.6,352.7c1.8-1,3.2-0.2,3.2,1.8c0,2-1.4,4.5-3.2,5.5c-1.8,1-3.2,0.2-3.2-1.8
									C139.4,356.2,140.9,353.7,142.6,352.7z"/>
							</g>
						</g>
						<g>
							<g>
								<path class="st5" d="M135.8,356.7l0,7.3l-25,14.4l0-7.3L135.8,356.7z"/>
							</g>
						</g>
					</g>
				</g>
			</g>
		</g>
	</g>
</g>
<g>
	<g>
		<path class="st0" d="M243.2,198.5c5.4-3.2,14.2-3.2,19.7,0l62.4,36c0.7,0.4,1.1,1,1.7,1.4c3.5-3.1,3.1-7.3-1.7-10l-62.4-36
			c-5.5-3.2-14.3-3.2-19.7,0L181.1,226c-4.6,2.7-5.1,6.9-1.6,10c0.5-0.5,0.9-1,1.6-1.4L243.2,198.5z"/>
	</g>
	<g>
		<path class="st10" d="M243.5,273.4c5.5,3.2,14.4,3.1,19.7,0l62.1-36.1c0.7-0.4,1.1-0.9,1.6-1.4c-0.5-0.5-0.9-1-1.7-1.4l-62.4-36
			c-5.5-3.2-14.3-3.2-19.7,0l-62.1,36.1c-0.7,0.4-1.1,0.9-1.6,1.4c0.5,0.5,0.9,1,1.6,1.4L243.5,273.4z"/>
	</g>
</g>
<g>
	<g id="OBJECTS_2_">
		<g>
			<polygon class="st11" points="236.8,164.1 240.8,169.5 238.7,169.3 234.7,163.8 			"/>
			
				<linearGradient id="SVGID_1_" gradientUnits="userSpaceOnUse" x1="447.4045" y1="277.1264" x2="492.2246" y2="316.0163" gradientTransform="matrix(1 0 0 -1 -203.7553 454.9268)">
				<stop  offset="0" style="stop-color:#D13F05"/>
				<stop  offset="0.2925" style="stop-color:#F67205"/>
				<stop  offset="0.3667" style="stop-color:#F67705"/>
				<stop  offset="0.4526" style="stop-color:#F68505"/>
				<stop  offset="0.5441" style="stop-color:#F69C05"/>
				<stop  offset="0.5638" style="stop-color:#F6A205"/>
				<stop  offset="0.5977" style="stop-color:#F69005"/>
				<stop  offset="0.6432" style="stop-color:#F67F05"/>
				<stop  offset="0.6931" style="stop-color:#F67505"/>
				<stop  offset="0.7553" style="stop-color:#F67205"/>
				<stop  offset="1" style="stop-color:#D13F05"/>
			</linearGradient>
			<path class="st12" d="M282.5,131.4c1.3,1.8,2.7,3.7,4,5.5c2.7,3.8,4.1,8.3,4.1,12.9l-4-5.5C286.6,139.7,285.2,135.2,282.5,131.4z
				"/>
			<polygon class="st13" points="286.5,144.3 290.5,149.8 288.5,151.3 284.5,145.8 			"/>
			<polygon class="st11" points="266.4,171.1 270.4,176.6 269.5,178 265.5,172.5 			"/>
			
				<linearGradient id="SVGID_2_" gradientUnits="userSpaceOnUse" x1="448.8134" y1="275.5067" x2="493.6311" y2="314.3946" gradientTransform="matrix(1 0 0 -1 -203.7553 454.9268)">
				<stop  offset="0" style="stop-color:#D13F05"/>
				<stop  offset="0.2925" style="stop-color:#F67205"/>
				<stop  offset="0.3667" style="stop-color:#F67705"/>
				<stop  offset="0.4526" style="stop-color:#F68505"/>
				<stop  offset="0.5441" style="stop-color:#F69C05"/>
				<stop  offset="0.5638" style="stop-color:#F6A205"/>
				<stop  offset="0.5977" style="stop-color:#F69005"/>
				<stop  offset="0.6432" style="stop-color:#F67F05"/>
				<stop  offset="0.6931" style="stop-color:#F67505"/>
				<stop  offset="0.7553" style="stop-color:#F67205"/>
				<stop  offset="1" style="stop-color:#D13F05"/>
			</linearGradient>
			<path class="st14" d="M265.5,172.5l4,5.5c-5.7,2.2-12,2.6-17.9,1c-4.2-1.1-7.9-3.5-10.8-6.7l-4-5.5c2.9,3.3,6.6,5.6,10.8,6.7
				C253.6,175.1,259.8,174.7,265.5,172.5z"/>
			<polygon class="st15" points="267.8,171.5 271.8,177 270.4,176.6 266.4,171.1 			"/>
			
				<linearGradient id="SVGID_3_" gradientUnits="userSpaceOnUse" x1="455.1075" y1="268.2527" x2="499.9258" y2="307.1413" gradientTransform="matrix(1 0 0 -1 -203.7553 454.9268)">
				<stop  offset="0" style="stop-color:#D13F05"/>
				<stop  offset="0.2925" style="stop-color:#F67205"/>
				<stop  offset="0.3667" style="stop-color:#F67705"/>
				<stop  offset="0.4526" style="stop-color:#F68505"/>
				<stop  offset="0.5441" style="stop-color:#F69C05"/>
				<stop  offset="0.5638" style="stop-color:#F6A205"/>
				<stop  offset="0.5977" style="stop-color:#F69005"/>
				<stop  offset="0.6432" style="stop-color:#F67F05"/>
				<stop  offset="0.6931" style="stop-color:#F67505"/>
				<stop  offset="0.7553" style="stop-color:#F67205"/>
				<stop  offset="1" style="stop-color:#D13F05"/>
			</linearGradient>
			<path class="st16" d="M286.5,146.4l4,5.5c-0.3,3.1-1.1,6.2-2.4,9.1c-3.3,7.1-9.1,12.8-16.2,16.1l-4-5.5c7.1-3.3,12.9-9,16.2-16.1
				C285.4,152.6,286.2,149.5,286.5,146.4z"/>
			
				<linearGradient id="SVGID_4_" gradientUnits="userSpaceOnUse" x1="438.5252" y1="286.1888" x2="488.0322" y2="326.4564" gradientTransform="matrix(1 0 0 -1 -203.7553 454.9268)">
				<stop  offset="0" style="stop-color:#FFFFFF;stop-opacity:0"/>
				<stop  offset="0.2606" style="stop-color:#FFFFFF"/>
				<stop  offset="0.7553" style="stop-color:#FFFFFF"/>
				<stop  offset="1" style="stop-color:#FFFFFF;stop-opacity:0"/>
			</linearGradient>
			<path class="st17" d="M286.7,146.7c-0.3,3.1-1.1,6.2-2.4,9.1c-3.3,7.1-9.1,12.8-16.2,16.1l-1.5-0.4l-0.9,1.4
				c-5.7,2.2-12,2.6-17.9,1c-4.2-1.1-7.9-3.5-10.8-6.7l0-2.7l-2.1-0.3c-3.7-6.2-4.1-14.4-0.5-22.4c1.1-2.4,2.5-4.6,4.1-6.6
				c0.9-0.4,1.7-0.8,2.5-1.3l0.4-1.8c6.7-6.5,16.1-10.1,25-9.2l1.9,1.6l5.4,0.3c8.3,3.5,13.2,11.2,13.1,20l-2,1.5L286.7,146.7z"/>
			
				<linearGradient id="SVGID_5_" gradientUnits="userSpaceOnUse" x1="482.0118" y1="298.4028" x2="431.7998" y2="319.6132" gradientTransform="matrix(1 0 0 -1 -203.7553 454.9268)">
				<stop  offset="0" style="stop-color:#FFAF02"/>
				<stop  offset="1" style="stop-color:#F56D05"/>
			</linearGradient>
			<path class="st18" d="M286.5,146.4c-0.3,3.1-1.1,6.2-2.4,9.1c-3.3,7.1-9.1,12.8-16.2,16.1l-1.5-0.4l-0.9,1.4
				c-5.7,2.2-12,2.6-17.9,1c-4.2-1.1-7.9-3.5-10.8-6.7l0-2.7l-2.1-0.3c-3.7-6.2-4.1-14.4-0.5-22.4c1.1-2.4,2.5-4.6,4.1-6.6
				c0.9-0.4,1.7-0.8,2.5-1.3l0.4-1.8c6.7-6.5,16.1-10.1,25-9.2l1.9,1.6l5.4,0.3c8.3,3.5,13.2,11.2,13.1,20l-2,1.5L286.5,146.4z"/>
			
				<linearGradient id="SVGID_6_" gradientUnits="userSpaceOnUse" x1="444.4789" y1="323.6902" x2="473.6219" y2="295.8341" gradientTransform="matrix(1 0 0 -1 -203.7553 454.9268)">
				<stop  offset="0" style="stop-color:#FFFFFF;stop-opacity:0"/>
				<stop  offset="0.2606" style="stop-color:#FFFFFF"/>
				<stop  offset="0.7553" style="stop-color:#FFFFFF"/>
				<stop  offset="1" style="stop-color:#FFFFFF;stop-opacity:0"/>
			</linearGradient>
			<path class="st19" d="M266.9,130c10,2.8,14.4,13.3,9.8,23.4c-4.6,10.1-16.5,16-26.5,13.2c-10-2.8-14.4-13.3-9.8-23.4
				S256.9,127.2,266.9,130z"/>
			
				<linearGradient id="SVGID_7_" gradientUnits="userSpaceOnUse" x1="442.8836" y1="306.5001" x2="482.845" y2="306.5001" gradientTransform="matrix(1 0 0 -1 -203.7553 454.9268)">
				<stop  offset="0" style="stop-color:#CF4505"/>
				<stop  offset="1" style="stop-color:#E45905"/>
			</linearGradient>
			<path class="st20" d="M267.5,130.1c10,2.8,14.4,13.3,9.8,23.4c-4.6,10.1-16.5,16-26.5,13.2c-10-2.8-14.4-13.3-9.8-23.4
				C245.6,133.2,257.4,127.3,267.5,130.1z"/>
			<path class="st21" d="M252.3,167c-10-2.8-14.4-13.3-9.8-23.4c4.3-9.3,14.8-15.1,24.3-13.6c-9.9-2.4-21.3,3.5-25.8,13.3
				c-4.6,10.1-0.2,20.6,9.8,23.4c0.7,0.2,1.5,0.4,2.2,0.5C252.8,167.1,252.6,167.1,252.3,167z"/>
			
				<radialGradient id="SVGID_8_" cx="-1131.917" cy="-229.3622" r="14.9418" gradientTransform="matrix(7.290000e-02 7.410000e-02 0.4921 -0.4845 472.0643 138.2714)" gradientUnits="userSpaceOnUse">
				<stop  offset="0" style="stop-color:#FFFFFF"/>
				<stop  offset="8.578000e-02" style="stop-color:#FFFFFF;stop-opacity:0.9583"/>
				<stop  offset="0.2351" style="stop-color:#FFFFFF;stop-opacity:0.8462"/>
				<stop  offset="0.4301" style="stop-color:#FFFFFF;stop-opacity:0.6642"/>
				<stop  offset="0.6634" style="stop-color:#FFFFFF;stop-opacity:0.4119"/>
				<stop  offset="0.9261" style="stop-color:#FFFFFF;stop-opacity:9.449000e-02"/>
				<stop  offset="1" style="stop-color:#FFFFFF;stop-opacity:0"/>
			</radialGradient>
			<path class="st22" d="M277.8,166.6c-4.1,4-7.8,6.7-8.4,6.1c-0.6-0.6,2.2-4.3,6.3-8.3c4.1-4,7.8-6.7,8.4-6.1
				C284.6,158.9,281.8,162.6,277.8,166.6z"/>
			
				<linearGradient id="SVGID_9_" gradientUnits="userSpaceOnUse" x1="456.2921" y1="314.201" x2="474.3083" y2="293.064" gradientTransform="matrix(1 0 0 -1 -203.7553 454.9268)">
				<stop  offset="0" style="stop-color:#FFFFFF"/>
				<stop  offset="1" style="stop-color:#FFFFFF;stop-opacity:0"/>
			</linearGradient>
			<path class="st23" d="M280.7,129.3l-43.9,36.3l0,1.2c2.9,3.3,6.6,5.6,10.8,6.7c1,0.3,2,0.5,3.1,0.7l34.1-28.3l-0.3-0.1l2-1.5
				C286.6,138.8,284.5,133.4,280.7,129.3z"/>
			
				<linearGradient id="SVGID_10_" gradientUnits="userSpaceOnUse" x1="445.7893" y1="323.923" x2="455.4257" y2="314.148" gradientTransform="matrix(1 0 0 -1 -203.7553 454.9268)">
				<stop  offset="0" style="stop-color:#FFFFFF"/>
				<stop  offset="1" style="stop-color:#FFFFFF;stop-opacity:0"/>
			</linearGradient>
			<path class="st24" d="M268,124l-1.9-1.6c-2.6-0.2-5.3-0.1-7.9,0.4l-24.9,20.6c-1.4,3.7-1.9,7.6-1.6,11.5l37.2-30.8L268,124z"/>
			<g>
				<defs>
					<rect id="SVGID_11_" x="247.8" y="134.1" width="27.8" height="28.6"/>
				</defs>
				<clipPath id="SVGID_12_">
					<use xlink:href="#SVGID_11_"  style="overflow:visible;"/>
				</clipPath>
				<g class="st25">
					
						<linearGradient id="SVGID_13_" gradientUnits="userSpaceOnUse" x1="2410.4404" y1="1652.9559" x2="2410.4404" y2="1624.3081" gradientTransform="matrix(1 0 0 1 -2148.7554 -1490.2074)">
						<stop  offset="0" style="stop-color:#FFC000"/>
						<stop  offset="0.28" style="stop-color:#FFC000"/>
						<stop  offset="0.55" style="stop-color:#DAA600"/>
						<stop  offset="1" style="stop-color:#DAA600"/>
					</linearGradient>
					<path class="st26" d="M252.7,145.8c-0.1-0.1-0.2-0.2-0.3-0.4c-1.2-1.4-2-3.1-2.5-4.9c-0.3-1.3-0.4-2.6-0.3-3.9
						c0-0.7,0.2-1.4,0.6-2c0.2-0.4,0.6-0.6,1-0.4c0,0,0,0,0,0c0.9,0.3,1.6,0.9,2.1,1.7c1.3,1.7,2.2,3.7,2.5,5.8
						c0.1,0.7,0.1,1.3,0.2,2c0,0.3,0,0.5,0.1,0.8c0,0.2,0.1,0.3,0.4,0.3c0.9-0.1,1.9-0.1,2.8,0.2c0.8,0.2,1.5,0.5,2.3,0.8
						c1.1,0.4,2,1.1,2.8,1.9c0.1,0.1,0.2,0.2,0.4,0.1c0,0,0,0,0,0c0,0,0,0,0.1-0.1c0.2-0.2,0.4-0.4,0.5-0.5c1.7-2,4-3.4,6.5-4.1
						c0.8-0.3,1.7-0.3,2.5-0.2c0.4,0.1,0.7,0.2,1.1,0.3c0.1,0.1,0.2,0.3,0.3,0.4c0,0.2,0,0.5-0.1,0.7c-0.3,1-0.9,1.9-1.6,2.6
						c-1.8,2-4.2,3.4-6.8,3.9c-0.2,0-0.4,0.1-0.6,0.1c0,0.2,0.1,0.3,0.1,0.4c0.3,0.9,0.4,1.9,0.3,2.8c0,1.1-0.2,2.2-0.6,3.3
						c-0.4,1.2-1,2.4-1.8,3.4c-0.8,0.9-1.8,1.6-3,1.8c-0.8,0.2-1.7,0.3-2.6,0.2c-0.9-0.1-1.7-0.3-2.5-0.5c-0.9-0.2-1.7-0.5-2.5-0.9
						c-1.4-0.5-2.6-1.2-3.7-2.2c-1.1-1-1.9-2.3-2.2-3.7c-0.1-0.7-0.1-1.4,0-2.1c0.1-0.9,0.4-1.8,0.7-2.6c0.5-1.3,1.3-2.5,2.4-3.5
						c0.5-0.5,1-0.9,1.6-1.3L252.7,145.8z M253.5,156L253.5,156c-1,0-1.2,0.7-1,1.3c0,0.1,0.1,0.2,0.1,0.3c0.2,0.8,0.7,1.4,1.4,1.8
						c0.7,0.3,1.4,0.6,2.1,0.8c1,0.3,2.2,0.1,3-0.7c0.4-0.2,0.5-0.7,0.3-1.1c-0.1-0.1-0.1-0.2-0.2-0.2c-0.4-0.3-0.9-0.6-1.4-0.8
						c-0.8-0.4-1.7-0.6-2.5-0.9C254.8,156.3,254.1,156.1,253.5,156L253.5,156z M252.8,148.8c0-0.6-0.2-1-0.7-1.1
						c-0.4-0.1-0.8,0.1-1,0.4c-1,1.2-1.7,2.5-2.1,4c-0.1,0.2-0.1,0.5,0,0.7c0.1,0.4,0.5,0.8,0.9,0.7c0.2,0,0.4-0.1,0.5-0.3
						c0.3-0.5,0.7-1,1-1.5c0.4-0.7,0.7-1.3,1.1-2C252.5,149.4,252.7,149.1,252.8,148.8L252.8,148.8z M266.1,154
						c0-0.3-0.1-0.5-0.1-0.8c-0.1-0.5-0.6-0.7-1.1-0.6c0,0,0,0,0,0c0,0-0.1,0-0.1,0c-0.3,0.1-0.6,0.5-0.6,0.8
						c-0.3,1.2-0.6,2.4-0.8,3.7c-0.1,0.4-0.1,0.8,0,1.1c0.1,0.4,0.5,0.7,0.9,0.6c0.1,0,0.2-0.1,0.3-0.1c0.3-0.2,0.5-0.5,0.6-0.8
						c0.2-0.7,0.5-1.4,0.6-2.1C265.9,155.2,266,154.5,266.1,154L266.1,154z"/>
				</g>
			</g>
		</g>
	</g>
</g>
<g>
	<g id="OBJECTS">
		<g>
			<polygon class="st11" points="208,196.7 211.9,202.1 209.8,201.9 205.8,196.4 			"/>
			
				<linearGradient id="SVGID_14_" gradientUnits="userSpaceOnUse" x1="418.5722" y1="244.528" x2="463.3922" y2="283.418" gradientTransform="matrix(1 0 0 -1 -203.7553 454.9268)">
				<stop  offset="0" style="stop-color:#D13F05"/>
				<stop  offset="0.2925" style="stop-color:#F67205"/>
				<stop  offset="0.3667" style="stop-color:#F67705"/>
				<stop  offset="0.4526" style="stop-color:#F68505"/>
				<stop  offset="0.5441" style="stop-color:#F69C05"/>
				<stop  offset="0.5638" style="stop-color:#F6A205"/>
				<stop  offset="0.5977" style="stop-color:#F69005"/>
				<stop  offset="0.6432" style="stop-color:#F67F05"/>
				<stop  offset="0.6931" style="stop-color:#F67505"/>
				<stop  offset="0.7553" style="stop-color:#F67205"/>
				<stop  offset="1" style="stop-color:#D13F05"/>
			</linearGradient>
			<path class="st27" d="M253.6,164c1.3,1.8,2.7,3.7,4,5.5c2.7,3.8,4.1,8.3,4.1,12.9l-4-5.5C257.8,172.3,256.3,167.8,253.6,164z"/>
			<polygon class="st13" points="257.7,176.9 261.7,182.4 259.7,183.9 255.7,178.4 			"/>
			<polygon class="st11" points="237.5,203.7 241.5,209.2 240.7,210.6 236.7,205.1 			"/>
			
				<linearGradient id="SVGID_15_" gradientUnits="userSpaceOnUse" x1="419.9811" y1="242.9084" x2="464.7988" y2="281.7963" gradientTransform="matrix(1 0 0 -1 -203.7553 454.9268)">
				<stop  offset="0" style="stop-color:#D13F05"/>
				<stop  offset="0.2925" style="stop-color:#F67205"/>
				<stop  offset="0.3667" style="stop-color:#F67705"/>
				<stop  offset="0.4526" style="stop-color:#F68505"/>
				<stop  offset="0.5441" style="stop-color:#F69C05"/>
				<stop  offset="0.5638" style="stop-color:#F6A205"/>
				<stop  offset="0.5977" style="stop-color:#F69005"/>
				<stop  offset="0.6432" style="stop-color:#F67F05"/>
				<stop  offset="0.6931" style="stop-color:#F67505"/>
				<stop  offset="0.7553" style="stop-color:#F67205"/>
				<stop  offset="1" style="stop-color:#D13F05"/>
			</linearGradient>
			<path class="st28" d="M236.7,205.1l4,5.5c-5.7,2.2-12,2.6-17.9,1c-4.2-1.1-7.9-3.5-10.8-6.7l-4-5.5c2.9,3.3,6.6,5.6,10.8,6.7
				C224.7,207.7,231,207.3,236.7,205.1z"/>
			<polygon class="st15" points="239,204.1 243,209.6 241.5,209.2 237.5,203.7 			"/>
			
				<linearGradient id="SVGID_16_" gradientUnits="userSpaceOnUse" x1="426.2751" y1="235.6544" x2="471.0935" y2="274.5429" gradientTransform="matrix(1 0 0 -1 -203.7553 454.9268)">
				<stop  offset="0" style="stop-color:#D13F05"/>
				<stop  offset="0.2925" style="stop-color:#F67205"/>
				<stop  offset="0.3667" style="stop-color:#F67705"/>
				<stop  offset="0.4526" style="stop-color:#F68505"/>
				<stop  offset="0.5441" style="stop-color:#F69C05"/>
				<stop  offset="0.5638" style="stop-color:#F6A205"/>
				<stop  offset="0.5977" style="stop-color:#F69005"/>
				<stop  offset="0.6432" style="stop-color:#F67F05"/>
				<stop  offset="0.6931" style="stop-color:#F67505"/>
				<stop  offset="0.7553" style="stop-color:#F67205"/>
				<stop  offset="1" style="stop-color:#D13F05"/>
			</linearGradient>
			<path class="st29" d="M257.6,179l4,5.5c-0.3,3.1-1.1,6.2-2.4,9.1c-3.3,7.1-9.1,12.8-16.2,16.1l-4-5.5c7.1-3.3,12.9-9,16.2-16.1
				C256.5,185.2,257.4,182.1,257.6,179z"/>
			
				<linearGradient id="SVGID_17_" gradientUnits="userSpaceOnUse" x1="409.6929" y1="253.5905" x2="459.1999" y2="293.8581" gradientTransform="matrix(1 0 0 -1 -203.7553 454.9268)">
				<stop  offset="0" style="stop-color:#FFFFFF;stop-opacity:0"/>
				<stop  offset="0.2606" style="stop-color:#FFFFFF"/>
				<stop  offset="0.7553" style="stop-color:#FFFFFF"/>
				<stop  offset="1" style="stop-color:#FFFFFF;stop-opacity:0"/>
			</linearGradient>
			<path class="st30" d="M257.9,179.3c-0.3,3.1-1.1,6.2-2.4,9.1c-3.3,7.1-9.1,12.8-16.2,16.1l-1.5-0.4l-0.9,1.4
				c-5.7,2.2-12,2.6-17.9,1c-4.2-1.1-7.9-3.5-10.8-6.7l0-2.7l-2.1-0.3c-3.7-6.2-4.1-14.4-0.5-22.4c1.1-2.4,2.5-4.6,4.1-6.6
				c0.9-0.4,1.7-0.8,2.5-1.3l0.4-1.8c6.7-6.5,16.1-10.1,25-9.2l1.9,1.6l5.4,0.3c8.3,3.5,13.2,11.2,13.1,20l-2,1.5L257.9,179.3z"/>
			
				<linearGradient id="SVGID_18_" gradientUnits="userSpaceOnUse" x1="453.1795" y1="265.8045" x2="402.9674" y2="287.0149" gradientTransform="matrix(1 0 0 -1 -203.7553 454.9268)">
				<stop  offset="0" style="stop-color:#FFAF02"/>
				<stop  offset="1" style="stop-color:#F56D05"/>
			</linearGradient>
			<path class="st31" d="M257.6,179c-0.3,3.1-1.1,6.2-2.4,9.1c-3.3,7.1-9.1,12.8-16.2,16.1l-1.5-0.4l-0.9,1.4
				c-5.7,2.2-12,2.6-17.9,1c-4.2-1.1-7.9-3.5-10.8-6.7l0-2.7l-2.1-0.3c-3.7-6.2-4.1-14.4-0.5-22.4c1.1-2.4,2.5-4.6,4.1-6.6
				c0.9-0.4,1.7-0.8,2.5-1.3l0.4-1.8c6.7-6.5,16.1-10.1,25-9.2l1.9,1.6l5.4,0.3c8.3,3.5,13.2,11.2,13.1,20l-2,1.5L257.6,179z"/>
			
				<linearGradient id="SVGID_19_" gradientUnits="userSpaceOnUse" x1="415.6465" y1="291.0918" x2="444.7895" y2="263.2357" gradientTransform="matrix(1 0 0 -1 -203.7553 454.9268)">
				<stop  offset="0" style="stop-color:#FFFFFF;stop-opacity:0"/>
				<stop  offset="0.2606" style="stop-color:#FFFFFF"/>
				<stop  offset="0.7553" style="stop-color:#FFFFFF"/>
				<stop  offset="1" style="stop-color:#FFFFFF;stop-opacity:0"/>
			</linearGradient>
			<path class="st32" d="M238.1,162.6c10,2.8,14.4,13.3,9.8,23.4c-4.6,10.1-16.5,16-26.5,13.2c-10-2.8-14.4-13.3-9.8-23.4
				S228.1,159.8,238.1,162.6z"/>
			
				<linearGradient id="SVGID_20_" gradientUnits="userSpaceOnUse" x1="414.0513" y1="273.9018" x2="454.0126" y2="273.9018" gradientTransform="matrix(1 0 0 -1 -203.7553 454.9268)">
				<stop  offset="0" style="stop-color:#CF4505"/>
				<stop  offset="1" style="stop-color:#E45905"/>
			</linearGradient>
			<path class="st33" d="M238.6,162.7c10,2.8,14.4,13.3,9.8,23.4c-4.6,10.1-16.5,16-26.5,13.2c-10-2.8-14.4-13.3-9.8-23.4
				C216.7,165.8,228.6,159.9,238.6,162.7z"/>
			<path class="st21" d="M223.5,199.6c-10-2.8-14.4-13.3-9.8-23.4c4.3-9.3,14.8-15.1,24.3-13.6c-9.9-2.4-21.3,3.5-25.8,13.3
				c-4.6,10.1-0.2,20.6,9.8,23.4c0.7,0.2,1.5,0.4,2.2,0.5C224,199.7,223.7,199.7,223.5,199.6z"/>
			
				<radialGradient id="SVGID_21_" cx="-1103.0476" cy="-292.2292" r="14.9418" gradientTransform="matrix(7.290000e-02 7.410000e-02 0.4921 -0.4845 472.0643 138.2714)" gradientUnits="userSpaceOnUse">
				<stop  offset="0" style="stop-color:#FFFFFF"/>
				<stop  offset="8.578000e-02" style="stop-color:#FFFFFF;stop-opacity:0.9583"/>
				<stop  offset="0.2351" style="stop-color:#FFFFFF;stop-opacity:0.8462"/>
				<stop  offset="0.4301" style="stop-color:#FFFFFF;stop-opacity:0.6642"/>
				<stop  offset="0.6634" style="stop-color:#FFFFFF;stop-opacity:0.4119"/>
				<stop  offset="0.9261" style="stop-color:#FFFFFF;stop-opacity:9.449000e-02"/>
				<stop  offset="1" style="stop-color:#FFFFFF;stop-opacity:0"/>
			</radialGradient>
			<path class="st34" d="M248.9,199.2c-4.1,4-7.8,6.7-8.4,6.1c-0.6-0.6,2.2-4.3,6.3-8.3c4.1-4,7.8-6.7,8.4-6.1
				C255.8,191.5,253,195.2,248.9,199.2z"/>
			
				<linearGradient id="SVGID_22_" gradientUnits="userSpaceOnUse" x1="427.4598" y1="281.6027" x2="445.4759" y2="260.4656" gradientTransform="matrix(1 0 0 -1 -203.7553 454.9268)">
				<stop  offset="0" style="stop-color:#FFFFFF"/>
				<stop  offset="1" style="stop-color:#FFFFFF;stop-opacity:0"/>
			</linearGradient>
			<path class="st35" d="M251.9,161.9L208,198.2l0,1.2c2.9,3.3,6.6,5.6,10.8,6.7c1,0.3,2,0.5,3.1,0.7l34.1-28.3l-0.3-0.1l2-1.5
				C257.8,171.4,255.7,166,251.9,161.9z"/>
			
				<linearGradient id="SVGID_23_" gradientUnits="userSpaceOnUse" x1="416.957" y1="291.3247" x2="426.5934" y2="281.5497" gradientTransform="matrix(1 0 0 -1 -203.7553 454.9268)">
				<stop  offset="0" style="stop-color:#FFFFFF"/>
				<stop  offset="1" style="stop-color:#FFFFFF;stop-opacity:0"/>
			</linearGradient>
			<path class="st36" d="M239.2,156.6l-1.9-1.6c-2.6-0.2-5.3-0.1-7.9,0.4L204.5,176c-1.4,3.7-1.9,7.6-1.6,11.5l37.2-30.8
				L239.2,156.6z"/>
			<g>
				<defs>
					<rect id="SVGID_24_" x="219" y="166.7" width="27.8" height="28.6"/>
				</defs>
				<clipPath id="SVGID_25_">
					<use xlink:href="#SVGID_24_"  style="overflow:visible;"/>
				</clipPath>
				<g class="st37">
					
						<linearGradient id="SVGID_26_" gradientUnits="userSpaceOnUse" x1="2381.6082" y1="1685.5543" x2="2381.6082" y2="1656.9064" gradientTransform="matrix(1 0 0 1 -2148.7554 -1490.2074)">
						<stop  offset="0" style="stop-color:#FFC000"/>
						<stop  offset="0.28" style="stop-color:#FFC000"/>
						<stop  offset="0.55" style="stop-color:#DAA600"/>
						<stop  offset="1" style="stop-color:#DAA600"/>
					</linearGradient>
					<path class="st38" d="M223.8,178.4c-0.1-0.1-0.2-0.2-0.3-0.4c-1.2-1.4-2-3.1-2.5-4.9c-0.3-1.3-0.4-2.6-0.3-3.9
						c0-0.7,0.2-1.4,0.6-2c0.2-0.4,0.6-0.6,1-0.4c0,0,0,0,0,0c0.9,0.3,1.6,0.9,2.1,1.7c1.3,1.7,2.2,3.7,2.5,5.8
						c0.1,0.7,0.1,1.3,0.2,2c0,0.3,0,0.5,0.1,0.8c0,0.2,0.1,0.3,0.4,0.3c0.9-0.1,1.9-0.1,2.8,0.2c0.8,0.2,1.5,0.5,2.3,0.8
						c1.1,0.4,2,1.1,2.8,1.9c0.1,0.1,0.2,0.2,0.4,0.1c0,0,0,0,0,0c0,0,0,0,0.1-0.1c0.2-0.2,0.4-0.4,0.5-0.5c1.7-2,4-3.4,6.5-4.1
						c0.8-0.3,1.7-0.3,2.5-0.2c0.4,0.1,0.7,0.2,1.1,0.3c0.1,0.1,0.2,0.3,0.3,0.4c0,0.2,0,0.5-0.1,0.7c-0.3,1-0.9,1.9-1.6,2.6
						c-1.8,2-4.2,3.4-6.8,3.9c-0.2,0-0.4,0.1-0.6,0.1c0,0.2,0.1,0.3,0.1,0.4c0.3,0.9,0.4,1.9,0.3,2.8c0,1.1-0.2,2.2-0.6,3.3
						c-0.4,1.2-1,2.4-1.8,3.4c-0.8,0.9-1.8,1.6-3,1.8c-0.8,0.2-1.7,0.3-2.6,0.2c-0.9-0.1-1.7-0.3-2.5-0.5c-0.9-0.2-1.7-0.5-2.5-0.9
						c-1.4-0.5-2.6-1.2-3.7-2.2c-1.1-1-1.9-2.3-2.2-3.7c-0.1-0.7-0.1-1.4,0-2.1c0.1-0.9,0.4-1.8,0.7-2.6c0.5-1.3,1.3-2.5,2.4-3.5
						c0.5-0.5,1-0.9,1.6-1.3L223.8,178.4z M224.7,188.6L224.7,188.6c-1,0-1.2,0.7-1,1.3c0,0.1,0.1,0.2,0.1,0.3
						c0.2,0.8,0.7,1.4,1.4,1.8c0.7,0.3,1.4,0.6,2.1,0.8c1,0.3,2.2,0.1,3-0.7c0.4-0.2,0.5-0.7,0.3-1.1c-0.1-0.1-0.1-0.2-0.2-0.2
						c-0.4-0.3-0.9-0.6-1.4-0.8c-0.8-0.4-1.7-0.6-2.5-0.9C225.9,188.9,225.3,188.7,224.7,188.6L224.7,188.6z M223.9,181.4
						c0-0.6-0.2-1-0.7-1.1c-0.4-0.1-0.8,0.1-1,0.4c-1,1.2-1.7,2.5-2.1,4c-0.1,0.2-0.1,0.5,0,0.7c0.1,0.4,0.5,0.8,0.9,0.7
						c0.2,0,0.4-0.1,0.5-0.3c0.3-0.5,0.7-1,1-1.5c0.4-0.7,0.7-1.3,1.1-2C223.7,182,223.8,181.7,223.9,181.4L223.9,181.4z
						 M237.3,186.6c0-0.3-0.1-0.5-0.1-0.8c-0.1-0.5-0.6-0.7-1.1-0.6c0,0,0,0,0,0c0,0-0.1,0-0.1,0c-0.3,0.1-0.6,0.5-0.6,0.8
						c-0.3,1.2-0.6,2.4-0.8,3.7c-0.1,0.4-0.1,0.8,0,1.1c0.1,0.4,0.5,0.7,0.9,0.6c0.1,0,0.2-0.1,0.3-0.1c0.3-0.2,0.5-0.5,0.6-0.8
						c0.2-0.7,0.5-1.4,0.6-2.1C237.1,187.8,237.2,187.1,237.3,186.6L237.3,186.6z"/>
				</g>
			</g>
		</g>
	</g>
</g>
<g>
	<g id="OBJECTS_1_">
		<g>
			<polygon class="st11" points="229.7,228.3 233.6,233.8 231.5,233.5 227.5,228 			"/>
			
				<linearGradient id="SVGID_27_" gradientUnits="userSpaceOnUse" x1="440.2632" y1="212.9161" x2="485.0832" y2="251.8061" gradientTransform="matrix(1 0 0 -1 -203.7553 454.9268)">
				<stop  offset="0" style="stop-color:#D13F05"/>
				<stop  offset="0.2925" style="stop-color:#F67205"/>
				<stop  offset="0.3667" style="stop-color:#F67705"/>
				<stop  offset="0.4526" style="stop-color:#F68505"/>
				<stop  offset="0.5441" style="stop-color:#F69C05"/>
				<stop  offset="0.5638" style="stop-color:#F6A205"/>
				<stop  offset="0.5977" style="stop-color:#F69005"/>
				<stop  offset="0.6432" style="stop-color:#F67F05"/>
				<stop  offset="0.6931" style="stop-color:#F67505"/>
				<stop  offset="0.7553" style="stop-color:#F67205"/>
				<stop  offset="1" style="stop-color:#D13F05"/>
			</linearGradient>
			<path class="st39" d="M275.3,195.6c1.3,1.8,2.7,3.7,4,5.5c2.7,3.8,4.1,8.3,4.1,12.9l-4-5.5C279.5,203.9,278,199.4,275.3,195.6z"
				/>
			<polygon class="st13" points="279.4,208.6 283.4,214 281.4,215.5 277.4,210 			"/>
			<polygon class="st11" points="259.2,235.3 263.2,240.8 262.4,242.2 258.4,236.7 			"/>
			
				<linearGradient id="SVGID_28_" gradientUnits="userSpaceOnUse" x1="441.6721" y1="211.2965" x2="486.4897" y2="250.1844" gradientTransform="matrix(1 0 0 -1 -203.7553 454.9268)">
				<stop  offset="0" style="stop-color:#D13F05"/>
				<stop  offset="0.2925" style="stop-color:#F67205"/>
				<stop  offset="0.3667" style="stop-color:#F67705"/>
				<stop  offset="0.4526" style="stop-color:#F68505"/>
				<stop  offset="0.5441" style="stop-color:#F69C05"/>
				<stop  offset="0.5638" style="stop-color:#F6A205"/>
				<stop  offset="0.5977" style="stop-color:#F69005"/>
				<stop  offset="0.6432" style="stop-color:#F67F05"/>
				<stop  offset="0.6931" style="stop-color:#F67505"/>
				<stop  offset="0.7553" style="stop-color:#F67205"/>
				<stop  offset="1" style="stop-color:#D13F05"/>
			</linearGradient>
			<path class="st40" d="M258.4,236.7l4,5.5c-5.7,2.2-12,2.6-17.9,1c-4.2-1.1-7.9-3.5-10.8-6.7l-4-5.5c2.9,3.3,6.6,5.6,10.8,6.7
				C246.4,239.3,252.7,238.9,258.4,236.7z"/>
			<polygon class="st15" points="260.7,235.7 264.7,241.2 263.2,240.8 259.2,235.3 			"/>
			
				<linearGradient id="SVGID_29_" gradientUnits="userSpaceOnUse" x1="447.9661" y1="204.0425" x2="492.7844" y2="242.931" gradientTransform="matrix(1 0 0 -1 -203.7553 454.9268)">
				<stop  offset="0" style="stop-color:#D13F05"/>
				<stop  offset="0.2925" style="stop-color:#F67205"/>
				<stop  offset="0.3667" style="stop-color:#F67705"/>
				<stop  offset="0.4526" style="stop-color:#F68505"/>
				<stop  offset="0.5441" style="stop-color:#F69C05"/>
				<stop  offset="0.5638" style="stop-color:#F6A205"/>
				<stop  offset="0.5977" style="stop-color:#F69005"/>
				<stop  offset="0.6432" style="stop-color:#F67F05"/>
				<stop  offset="0.6931" style="stop-color:#F67505"/>
				<stop  offset="0.7553" style="stop-color:#F67205"/>
				<stop  offset="1" style="stop-color:#D13F05"/>
			</linearGradient>
			<path class="st41" d="M279.3,210.6l4,5.5c-0.3,3.1-1.1,6.2-2.4,9.1c-3.3,7.1-9.1,12.8-16.2,16.1l-4-5.5c7.1-3.3,12.9-9,16.2-16.1
				C278.2,216.8,279,213.7,279.3,210.6z"/>
			
				<linearGradient id="SVGID_30_" gradientUnits="userSpaceOnUse" x1="431.3839" y1="221.9786" x2="480.8908" y2="262.2462" gradientTransform="matrix(1 0 0 -1 -203.7553 454.9268)">
				<stop  offset="0" style="stop-color:#FFFFFF;stop-opacity:0"/>
				<stop  offset="0.2606" style="stop-color:#FFFFFF"/>
				<stop  offset="0.7553" style="stop-color:#FFFFFF"/>
				<stop  offset="1" style="stop-color:#FFFFFF;stop-opacity:0"/>
			</linearGradient>
			<path class="st42" d="M279.6,210.9c-0.3,3.1-1.1,6.2-2.4,9.1c-3.3,7.1-9.1,12.8-16.2,16.1l-1.5-0.4l-0.9,1.4
				c-5.7,2.2-12,2.6-17.9,1c-4.2-1.1-7.9-3.5-10.8-6.7l0-2.7l-2.1-0.3c-3.7-6.2-4.1-14.4-0.5-22.4c1.1-2.4,2.5-4.6,4.1-6.6
				c0.9-0.4,1.7-0.8,2.5-1.3l0.4-1.8c6.7-6.5,16.1-10.1,25-9.2l1.9,1.6l5.4,0.3c8.3,3.5,13.2,11.2,13.1,20l-2,1.5L279.6,210.9z"/>
			
				<linearGradient id="SVGID_31_" gradientUnits="userSpaceOnUse" x1="474.8705" y1="234.1926" x2="424.6584" y2="255.403" gradientTransform="matrix(1 0 0 -1 -203.7553 454.9268)">
				<stop  offset="0" style="stop-color:#FFAF02"/>
				<stop  offset="1" style="stop-color:#F56D05"/>
			</linearGradient>
			<path class="st43" d="M279.3,210.6c-0.3,3.1-1.1,6.2-2.4,9.1c-3.3,7.1-9.1,12.8-16.2,16.1l-1.5-0.4l-0.9,1.4
				c-5.7,2.2-12,2.6-17.9,1c-4.2-1.1-7.9-3.5-10.8-6.7l0-2.7l-2.1-0.3c-3.7-6.2-4.1-14.4-0.5-22.4c1.1-2.4,2.5-4.6,4.1-6.6
				c0.9-0.4,1.7-0.8,2.5-1.3l0.4-1.8c6.7-6.5,16.1-10.1,25-9.2l1.9,1.6l5.4,0.3c8.3,3.5,13.2,11.2,13.1,20l-2,1.5L279.3,210.6z"/>
			
				<linearGradient id="SVGID_32_" gradientUnits="userSpaceOnUse" x1="437.3375" y1="259.4799" x2="466.4805" y2="231.6238" gradientTransform="matrix(1 0 0 -1 -203.7553 454.9268)">
				<stop  offset="0" style="stop-color:#FFFFFF;stop-opacity:0"/>
				<stop  offset="0.2606" style="stop-color:#FFFFFF"/>
				<stop  offset="0.7553" style="stop-color:#FFFFFF"/>
				<stop  offset="1" style="stop-color:#FFFFFF;stop-opacity:0"/>
			</linearGradient>
			<path class="st44" d="M259.8,194.2c10,2.8,14.4,13.3,9.8,23.4c-4.6,10.1-16.5,16-26.5,13.2c-10-2.8-14.4-13.3-9.8-23.4
				S249.8,191.4,259.8,194.2z"/>
			
				<linearGradient id="SVGID_33_" gradientUnits="userSpaceOnUse" x1="435.7422" y1="242.2899" x2="475.7036" y2="242.2899" gradientTransform="matrix(1 0 0 -1 -203.7553 454.9268)">
				<stop  offset="0" style="stop-color:#CF4505"/>
				<stop  offset="1" style="stop-color:#E45905"/>
			</linearGradient>
			<path class="st45" d="M260.3,194.4c10,2.8,14.4,13.3,9.8,23.4c-4.6,10.1-16.5,16-26.5,13.2c-10-2.8-14.4-13.3-9.8-23.4
				C238.4,197.4,250.3,191.5,260.3,194.4z"/>
			<path class="st21" d="M245.2,231.2c-10-2.8-14.4-13.3-9.8-23.4c4.3-9.3,14.8-15.1,24.3-13.6c-9.9-2.4-21.3,3.5-25.8,13.3
				c-4.6,10.1-0.2,20.6,9.8,23.4c0.7,0.2,1.5,0.4,2.2,0.5C245.6,231.3,245.4,231.3,245.2,231.2z"/>
			
				<radialGradient id="SVGID_34_" cx="-739.9411" cy="-301.9417" r="14.9418" gradientTransform="matrix(7.290000e-02 7.410000e-02 0.4921 -0.4845 472.0643 138.2714)" gradientUnits="userSpaceOnUse">
				<stop  offset="0" style="stop-color:#FFFFFF"/>
				<stop  offset="8.578000e-02" style="stop-color:#FFFFFF;stop-opacity:0.9583"/>
				<stop  offset="0.2351" style="stop-color:#FFFFFF;stop-opacity:0.8462"/>
				<stop  offset="0.4301" style="stop-color:#FFFFFF;stop-opacity:0.6642"/>
				<stop  offset="0.6634" style="stop-color:#FFFFFF;stop-opacity:0.4119"/>
				<stop  offset="0.9261" style="stop-color:#FFFFFF;stop-opacity:9.449000e-02"/>
				<stop  offset="1" style="stop-color:#FFFFFF;stop-opacity:0"/>
			</radialGradient>
			<path class="st46" d="M270.6,230.8c-4.1,4-7.8,6.7-8.4,6.1c-0.6-0.6,2.2-4.3,6.3-8.3c4.1-4,7.8-6.7,8.4-6.1
				C277.5,223.1,274.7,226.8,270.6,230.8z"/>
			
				<linearGradient id="SVGID_35_" gradientUnits="userSpaceOnUse" x1="449.1507" y1="249.9908" x2="467.1669" y2="228.8537" gradientTransform="matrix(1 0 0 -1 -203.7553 454.9268)">
				<stop  offset="0" style="stop-color:#FFFFFF"/>
				<stop  offset="1" style="stop-color:#FFFFFF;stop-opacity:0"/>
			</linearGradient>
			<path class="st47" d="M273.6,193.5l-43.9,36.3l0,1.2c2.9,3.3,6.6,5.6,10.8,6.7c1,0.3,2,0.5,3.1,0.7l34.1-28.3l-0.3-0.1l2-1.5
				C279.5,203,277.4,197.6,273.6,193.5z"/>
			
				<linearGradient id="SVGID_36_" gradientUnits="userSpaceOnUse" x1="438.6479" y1="259.7128" x2="448.2843" y2="249.9378" gradientTransform="matrix(1 0 0 -1 -203.7553 454.9268)">
				<stop  offset="0" style="stop-color:#FFFFFF"/>
				<stop  offset="1" style="stop-color:#FFFFFF;stop-opacity:0"/>
			</linearGradient>
			<path class="st48" d="M260.9,188.3l-1.9-1.6c-2.6-0.2-5.3-0.1-7.9,0.4l-24.9,20.6c-1.4,3.7-1.9,7.6-1.6,11.5l37.2-30.8
				L260.9,188.3z"/>
			<g>
				<defs>
					<rect id="SVGID_37_" x="240.6" y="198.3" width="27.8" height="28.6"/>
				</defs>
				<clipPath id="SVGID_38_">
					<use xlink:href="#SVGID_37_"  style="overflow:visible;"/>
				</clipPath>
				<g class="st49">
					
						<linearGradient id="SVGID_39_" gradientUnits="userSpaceOnUse" x1="2403.2991" y1="1717.1661" x2="2403.2991" y2="1688.5183" gradientTransform="matrix(1 0 0 1 -2148.7554 -1490.2074)">
						<stop  offset="0" style="stop-color:#FFC000"/>
						<stop  offset="0.28" style="stop-color:#FFC000"/>
						<stop  offset="0.55" style="stop-color:#DAA600"/>
						<stop  offset="1" style="stop-color:#DAA600"/>
					</linearGradient>
					<path class="st50" d="M245.5,210c-0.1-0.1-0.2-0.2-0.3-0.4c-1.2-1.4-2-3.1-2.5-4.9c-0.3-1.3-0.4-2.6-0.3-3.9
						c0-0.7,0.2-1.4,0.6-2c0.2-0.4,0.6-0.6,1-0.4c0,0,0,0,0,0c0.9,0.3,1.6,0.9,2.1,1.7c1.3,1.7,2.2,3.7,2.5,5.8
						c0.1,0.7,0.1,1.3,0.2,2c0,0.3,0,0.5,0.1,0.8c0,0.2,0.1,0.3,0.4,0.3c0.9-0.1,1.9-0.1,2.8,0.2c0.8,0.2,1.5,0.5,2.3,0.8
						c1.1,0.4,2,1.1,2.8,1.9c0.1,0.1,0.2,0.2,0.4,0.1c0,0,0,0,0,0c0,0,0,0,0.1-0.1c0.2-0.2,0.4-0.4,0.5-0.5c1.7-2,4-3.4,6.5-4.1
						c0.8-0.3,1.7-0.3,2.5-0.2c0.4,0.1,0.7,0.2,1.1,0.3c0.1,0.1,0.2,0.3,0.3,0.4c0,0.2,0,0.5-0.1,0.7c-0.3,1-0.9,1.9-1.6,2.6
						c-1.8,2-4.2,3.4-6.8,3.9c-0.2,0-0.4,0.1-0.6,0.1c0,0.2,0.1,0.3,0.1,0.4c0.3,0.9,0.4,1.9,0.3,2.8c0,1.1-0.2,2.2-0.6,3.3
						c-0.4,1.2-1,2.4-1.8,3.4c-0.8,0.9-1.8,1.6-3,1.8c-0.8,0.2-1.7,0.3-2.6,0.2c-0.9-0.1-1.7-0.3-2.5-0.5c-0.9-0.2-1.7-0.5-2.5-0.9
						c-1.4-0.5-2.6-1.2-3.7-2.2c-1.1-1-1.9-2.3-2.2-3.7c-0.1-0.7-0.1-1.4,0-2.1c0.1-0.9,0.4-1.8,0.7-2.6c0.5-1.3,1.3-2.5,2.4-3.5
						c0.5-0.5,1-0.9,1.6-1.3L245.5,210z M246.4,220.2L246.4,220.2c-1,0-1.2,0.7-1,1.3c0,0.1,0.1,0.2,0.1,0.3
						c0.2,0.8,0.7,1.4,1.4,1.8c0.7,0.3,1.4,0.6,2.1,0.8c1,0.3,2.2,0.1,3-0.7c0.4-0.2,0.5-0.7,0.3-1.1c-0.1-0.1-0.1-0.2-0.2-0.2
						c-0.4-0.3-0.9-0.6-1.4-0.8c-0.8-0.4-1.7-0.6-2.5-0.9C247.6,220.5,247,220.4,246.4,220.2L246.4,220.2z M245.6,213
						c0-0.6-0.2-1-0.7-1.1c-0.4-0.1-0.8,0.1-1,0.4c-1,1.2-1.7,2.5-2.1,4c-0.1,0.2-0.1,0.5,0,0.7c0.1,0.4,0.5,0.8,0.9,0.7
						c0.2,0,0.4-0.1,0.5-0.3c0.3-0.5,0.7-1,1-1.5c0.4-0.7,0.7-1.3,1.1-2C245.4,213.7,245.5,213.3,245.6,213L245.6,213z M259,218.2
						c0-0.3-0.1-0.5-0.1-0.8c-0.1-0.5-0.6-0.7-1.1-0.6c0,0,0,0,0,0c0,0-0.1,0-0.1,0c-0.3,0.1-0.6,0.5-0.6,0.8
						c-0.3,1.2-0.6,2.4-0.8,3.7c-0.1,0.4-0.1,0.8,0,1.1c0.1,0.4,0.5,0.7,0.9,0.6c0.1,0,0.2-0.1,0.3-0.1c0.3-0.2,0.5-0.5,0.6-0.8
						c0.2-0.7,0.5-1.4,0.6-2.1C258.8,219.4,258.9,218.8,259,218.2L259,218.2z"/>
				</g>
			</g>
		</g>
	</g>
</g>
<g class="st51">
	<g>
		<g>
			<g>
				<g class="st1">
					<g>
						<path class="st52" d="M325.4,119.6l-62.1,36.1c-5.4,3.1-14.2,3.2-19.7,0l-62.4-36c-2.7-1.6-4.1-3.7-4.1-5.7l0,115.7
							c0,2.1,1.4,4.2,4.1,5.7l62.4,36c5.5,3.2,14.4,3.1,19.7,0l62.1-36.1c2.7-1.6,4.1-3.6,4.1-5.7l0-115.7
							C329.4,116,328.1,118.1,325.4,119.6z"/>
					</g>
					<g>
						<g>
							<path class="st53" d="M325.3,108.2c5.5,3.2,5.5,8.3,0.1,11.4l-62.1,36.1c-5.4,3.1-14.2,3.2-19.7,0l-62.4-36
								c-5.5-3.2-5.4-8.3-0.1-11.4l62.1-36.1c5.4-3.2,14.2-3.2,19.7,0L325.3,108.2z"/>
						</g>
					</g>
				</g>
			</g>
		</g>
	</g>
</g>
</svg>
