<svg id="Layer_1" enable-background="new 0 0 52 52" height="512" viewBox="0 0 52 52" width="512" xmlns="http://www.w3.org/2000/svg"><g id="_x32_39_1_"><g><g><g><path d="m27.4110107 29.8152161c-.0429688 0-.0864258-.0112305-.125-.0336914l-9.7783203-5.6459961c-.0771484-.0444336-.125-.1269531-.125-.2158203 0-.0893555.0473633-.171875.1245117-.2167969l9.7128906-5.6445312c.0771484-.0449219.1733398-.0449219.2504883 0l9.7783203 5.6459961c.0771484.0444336.125.1269531.125.2158203 0 .0893555-.0473633.171875-.1245117.2167969l-9.7128906 5.6445312c-.0385742.0224609-.0820312.0336914-.1254883.0336914zm-9.2797851-5.8964844 9.2792969 5.3574219 9.2148438-5.3549805-9.2792969-5.3574219z" fill="#4c5c75"/></g><g><path d="m13.3284912 38.0261536c-.0429688 0-.0864258-.0112305-.125-.0336914l-9.7783203-5.6455078c-.0771484-.0444336-.125-.1269531-.125-.2158203 0-.0893555.0473633-.171875.1245117-.2167969l9.7128906-5.6445312c.0766602-.0449219.1728516-.0449219.2504883 0l9.7783203 5.6455078c.0771484.0444336.125.1269531.125.2158203 0 .0893555-.0473633.171875-.1245117.2167969l-9.7128906 5.6445312c-.0385742.0224609-.0820313.0336914-.1254883.0336914zm-9.2797851-5.8959961 9.2792969 5.3569336 9.2148438-5.3549805-9.2792969-5.3569336z" fill="#4c5c75"/></g><g><path d="m27.9022217 50.1252747c-.0429688 0-.0864258-.0112305-.125-.0336914l-7.215332-4.1660156c-.0771484-.0444336-.125-.1269531-.125-.2158203 0-.0893555.0473633-.171875.1245117-.2167969l19.1743164-11.1430665c.0766602-.0444336.1728516-.0454102.2504883 0l7.215332 4.1660156c.0771484.0444336.125.1269531.125.2158203 0 .0893555-.0473633.171875-.1245117.2167969l-19.1743164 11.1430665c-.0385743.0224609-.0820313.0336914-.1254883.0336914zm-6.7167969-4.4165039 6.7163086 3.8774414 18.6762695-10.8535156-6.7163086-3.8774414z" fill="#4c5c75"/></g><g><g><g><g><g enable-background="new"><g><g><path d="m37.121582 18.5847473-.0100097 4.1599732-9.710022 5.6500244-9.7799683-5.6500244.0100098-4.1599732 9.7099609-5.6500244z" fill="#678aee"/></g></g></g><g><path d="m27.3998184 28.3935699.0111428-4.1646804 9.7128982-5.6445179-.0111427 4.1646785z" fill="#678aee"/></g><g><path d="m27.3998184 28.3935699-9.77849-5.6456146.0111408-4.1646805 9.778492 5.6456147z" fill="#566df9"/></g><g><g><path d="m37.1238594 18.5843716-9.7128982 5.6445179-9.778492-5.6456147 9.7128982-5.6445188z" fill="#8fabfe"/></g><g><path d="m19.5562363 18.5806828 7.7906379-4.5276413 7.8530999 4.5340747-7.7906361 4.5274849z" fill="#566df9"/></g></g></g><g><g><g><path d="m35.8215942 16.5347595-.0100097 2.3899536-8.4199829 4.8900147-8.4700318-4.8900147.0100098-2.3899536 8.4699707 4.8899536z" fill="#1d2943"/></g></g></g><g><g><g><path d="m35.8254471 16.5309296-.0096588 2.3910637-8.4195938 4.8929348.0096588-2.3910656z" fill="#4c5c75"/></g></g><g><g><path d="m27.4058533 21.4238625-.0096588 2.3910656-8.4764538-4.8938847.0096569-2.3910637z" fill="#1d2943"/></g></g></g></g><g><g><g><g><g><path d="m37.121582 13.054718-.0100097 4.1600342-9.710022 5.6499634-9.7799683-5.6499634.0100098-4.1600342 9.7099609-5.6499634z" fill="#678aee"/></g></g></g><g enable-background="new"><g><g><path d="m37.1238594 13.0525799-.0111427 4.1646786-9.7128983 5.6445198.0111428-4.1646786z" fill="#678aee"/></g></g><g><g><path d="m27.4109612 18.6970997-.0111428 4.1646786-9.77849-5.6456147.0111408-4.1646795z" fill="#566df9"/></g></g><g><g><path d="m37.1238594 13.0525799-9.7128982 5.6445198-9.778492-5.6456156 9.7128982-5.6445193z" fill="#8fabfe"/></g><g><path d="m19.5562363 13.0488911 7.7906379-4.5276413 7.8530999 4.5340757-7.7906361 4.5274839z" fill="#566df9"/></g></g></g></g><g><g><g><path d="m30.8269615 17.5103645.0059548 2.1000557-2.6691056 1.541008-.0059528-2.1000557z" fill="#ffd06c"/></g></g><g><g><path d="m34.0273018 16.4977493.0012283.4340821-2.2183895 1.2807865-.0012302-.4340801z" fill="#fff"/></g></g><g><g><path d="m34.0249367 15.6640139.0012321.434081-2.2183914 1.2807885-.0012302-.4340821z" fill="#fff"/></g></g><g><g><path d="m34.0296593 17.3299866.0012321.434082-2.2183914 1.2807884-.0012302-.434082z" fill="#fff"/></g></g><g><g><path d="m35.6836243 14.8562965c.3751564-.2165966.6809654-.0438232.6821938.3887606.0012207.4310894-.3026085.9558401-.6777687 1.1724367-.3751564.2165966-.6809654.0438232-.6821861-.3872662-.0012284-.4325837.3026046-.9573335.677761-1.1739311z" fill="#ffd06c"/></g></g></g><g><g><g><path d="m35.8215942 10.9947205-.0100097 2.4000244-8.4199829 4.8900146-8.4700318-4.9000244.0100098-2.3900146 8.4699707 4.9000244z" fill="#1d2943"/></g></g></g><g><g><g><path d="m35.8254471 10.9991379-.0096588 2.3910637-8.4195938 4.8929348.0096588-2.3910647z" fill="#4c5c75"/></g></g><g><g><path d="m27.4058533 15.8920717-.0096588 2.3910647-8.4764538-4.8938837.0096569-2.3910647z" fill="#1d2943"/></g></g></g></g><g><g><g><g><g><path d="m37.121582 7.5247498-.0100097 4.1599731-9.710022 5.6500244-9.7799683-5.6500244.0100098-4.1699829 9.7099609-5.6400147z" fill="#678aee"/></g></g></g><g enable-background="new"><g><g><path d="m37.1238594 7.5207882-.0111427 4.1646795-9.7128983 5.6445189.0111428-4.1646786z" fill="#678aee"/></g></g><g><g><path d="m27.4109612 13.165308-.0111428 4.1646786-9.77849-5.6456137.0111408-4.16468z" fill="#566df9"/></g></g><g><g><path d="m37.1238594 7.5207882-9.7128982 5.6445198-9.778492-5.6456151 9.7128982-5.6445195z" fill="#8fabfe"/></g><g><path d="m19.5562363 7.5170999 7.7906379-4.5276413 7.8530999 4.5340757-7.7906361 4.5274844z" fill="#566df9"/></g></g></g></g><g><g><g><path d="m30.8269615 11.9785738.0059548 2.1000547-2.6691056 1.541009-.0059528-2.1000557z" fill="#ffd06c"/></g></g><g><g><path d="m34.0273018 10.9659576.0012283.4340811-2.2183895 1.2807884-.0012302-.434082z" fill="#fff"/></g></g><g><g><path d="m34.0249367 10.1322222.0012321.434082-2.2183914 1.2807875-.0012302-.4340821z" fill="#fff"/></g></g><g><g><path d="m34.0296593 11.7981958.0012321.4340811-2.2183914 1.2807884-.0012302-.434082z" fill="#fff"/></g></g><g><g><path d="m35.6836243 9.3245058c.3751564-.2165976.6809654-.0438232.6821938.3887606.0012207.4310894-.3026085.9558392-.6777687 1.1724358-.3751564.2165976-.6809654.0438232-.6821861-.3872662-.0012284-.4325838.3026046-.9573336.677761-1.1739302z" fill="#ffd06c"/></g></g></g></g><g><g><g><path d="m18.3048191 15.2807417-.0013905.4898491 8.424038 4.8636198.0013885-.4898491z" fill="#8fabfe"/></g></g><g><g><path d="m18.3074856 14.3398952-.0013886.4898491 8.4240361 4.8636189.0013885-.4898472z" fill="#8fabfe"/></g></g><g><g><path d="m18.3021564 16.2198982-.0013885.4898491 8.424036 4.8636208.0013886-.4898491z" fill="#8fabfe"/></g></g></g><g><g><g><path d="m18.3048191 20.8125343-.0013905.4898472 8.424038 4.8636208.0013885-.4898491z" fill="#8fabfe"/></g></g><g><g><path d="m18.3074856 19.8716869-.0013886.4898491 8.4240361 4.8636189.0013885-.4898491z" fill="#8fabfe"/></g></g><g><g><path d="m18.3021564 21.7516899-.0013885.4898491 8.424036 4.8636189.0013886-.4898472z" fill="#8fabfe"/></g></g></g><g><g><g><path d="m18.3048191 9.748951-.0013905.4898481 8.424038 4.8636198.0013885-.4898481z" fill="#8fabfe"/></g></g><g><g><path d="m18.3074856 8.8081045-.0013886.4898482 8.4240361 4.8636198.0013885-.4898482z" fill="#8fabfe"/></g></g><g><g><path d="m18.3021564 10.6881075-.0013885.4898491 8.424036 4.8636198.0013886-.4898491z" fill="#8fabfe"/></g></g></g><g><g><g><g><path d="m31.3215942 6.6847229v1.0100098c0 .5800171-.3800049 1.1599731-1.1500244 1.5999756-1.5299683.8900146-4.0299683.8900146-5.5800171 0-.7699585-.4499512-1.1599731-1.039978-1.1599731-1.6300049v-1c0-.5799561.3800049-1.1599731 1.1499634-1.6099854 1.5400391-.8900146 4.0300293-.8900146 5.5800171 0 .7700195.4500122 1.1600341 1.0400391 1.1600341 1.6300049z" fill="#febc1f"/></g></g></g><g enable-background="new"><g><g><path d="m31.3240337 6.6879635-.0028515 1.005672c-.001646.5807576-.3825932 1.1606488-1.1448059 1.6035991-1.5357704.8924923-4.0363846.8902292-5.580225-.0011082-.7771358-.448679-1.1656418-1.038228-1.1639729-1.6269741l.0028477-1.0056677c-.0016651.5887451.3868408 1.1782947 1.1639767 1.6269732 1.5438404.8913374 4.0444546.8936005 5.580225.0011082.7622128-.4429499 1.1431599-1.0228411 1.1448059-1.6036025z" fill="#febc1f"/></g></g><g><g><path d="m30.1590786 5.0592952c1.5438404.8913369 1.5559196 2.3397779.0201492 3.2322707s-4.0363846.8902292-5.580225-.0011082c-1.5438557-.8913445-1.5539589-2.3386445-.0181866-3.2311368 1.5357705-.8924923 4.0344067-.8913707 5.5782624-.0000257z" fill="#ffde9b"/></g></g></g></g></g><g><g><g><g><g><g><path d="m23.0115967 26.7847595-.0100098 4.1699829-9.7200317 5.6400147-9.7799683-5.6400147.0199585-4.1699829 9.710022-5.6400146z" fill="#678aee"/></g></g></g><g enable-background="new"><g><g><path d="m23.0085487 26.7873001-.0111427 4.1646786-9.7128973 5.6445217.0111418-4.1646805z" fill="#678aee"/></g></g><g><g><path d="m13.2956505 32.4318199-.0111418 4.1646805-9.7784915-5.6456165.011142-4.1646805z" fill="#566df9"/></g></g><g><g><path d="m23.0085487 26.7873001-9.7128982 5.6445198-9.7784913-5.6456165 9.7128976-5.6445179z" fill="#8fabfe"/></g><g><path d="m5.4409261 26.7836113 7.7906375-4.5276413 7.8531017 4.5340748-7.790638 4.5274849z" fill="#566df9"/></g></g></g></g><g><g><g><path d="m16.7116508 31.2450848.0059548 2.1000537-2.6691055 1.541008-.0059538-2.1000518z" fill="#ffd06c"/></g></g><g><g><path d="m19.9119892 30.2324696.0012303.4340801-2.2183896 1.2807884-.0012302-.434082z" fill="#fff"/></g></g><g><g><path d="m19.909626 29.3987331.0012302.4340821-2.2183895 1.2807865-.0012302-.4340801z" fill="#fff"/></g></g><g><g><path d="m19.9143486 31.0647068.0012302.434082-2.2183895 1.2807865-.0012302-.434082z" fill="#fff"/></g></g><g><g><path d="m21.5683136 28.5910168c.3751583-.2165966.6809654-.0438232.6821918.3887615.0012226.4310875-.3026085.9558392-.6777649 1.1724358-.3751583.2165966-.6809673.0438232-.682188-.3872662-.0012264-.4325848.3026047-.9573345.6777611-1.1739311z" fill="#ffd06c"/></g></g></g><g><g><g><path d="m21.7115479 24.7347107-.0099488 2.3900146-8.4200439 4.8900147-8.4799805-4.8900147.0100098-2.3900146 8.4799804 4.8900146z" fill="#1d2943"/></g></g></g><g><g><g><path d="m21.7101364 24.7338581-.0096588 2.3910637-8.4195948 4.8929348.0096588-2.3910656z" fill="#4c5c75"/></g></g><g><g><path d="m13.2905416 29.626791-.0096588 2.3910656-8.4764537-4.8938847.0096583-2.3910637z" fill="#1d2943"/></g></g></g></g><g><g><g enable-background="new"><g><g><path d="m23.0115967 21.2547302-.0100098 4.1699829-9.7200317 5.6400147-9.7799683-5.6500244.0199585-4.1599732 9.710022-5.6400146z" fill="#678aee"/></g></g></g><g><path d="m13.2845087 31.0647068.0111418-4.1646786 9.7128982-5.6445198-.0111427 4.1646786z" fill="#678aee"/></g><g><path d="m13.2845087 31.0647068-9.7784915-5.6456146.011142-4.1646786 9.7784913 5.6456146z" fill="#566df9"/></g><g><g><path d="m23.0085487 21.2555084-9.7128982 5.6445198-9.7784913-5.6456146 9.7128976-5.6445198z" fill="#8fabfe"/></g><g><path d="m5.4409261 21.2518196 7.7906375-4.5276413 7.8531017 4.5340767-7.790638 4.527483z" fill="#566df9"/></g></g></g><g><g><g><path d="m16.7116508 25.7132931.0059548 2.1000557-2.6691055 1.541008-.0059538-2.1000557z" fill="#ffd06c"/></g></g><g><g><path d="m19.9119892 24.7006779.0012303.434082-2.2183896 1.2807865-.0012302-.4340801z" fill="#fff"/></g></g><g><g><path d="m19.909626 23.8669415.0012302.434082-2.2183895 1.2807884-.0012302-.434082z" fill="#fff"/></g></g><g><g><path d="m19.9143486 25.5329151.0012302.434082-2.2183895 1.2807885-.0012302-.4340821z" fill="#fff"/></g></g><g><g><path d="m21.5683136 23.0592251c.3751583-.2165966.6809654-.0438232.6821918.3887615.0012226.4310894-.3026085.9558392-.6777649 1.1724358-.3751583.2165966-.6809673.0438232-.682188-.3872662-.0012264-.4325848.3026047-.9573345.6777611-1.1739311z" fill="#ffd06c"/></g></g></g><g><g><g><path d="m21.7115479 19.2047424-.0099488 2.3900147-8.4200439 4.8899536-8.4799805-4.8899536.0100098-2.3900147 8.4799804 4.8900147z" fill="#1d2943"/></g></g></g><g><g><g><path d="m21.7101364 19.2020664-.0096588 2.3910637-8.4195948 4.8929348.0096588-2.3910637z" fill="#4c5c75"/></g></g><g><g><path d="m13.2905416 24.0950012-.0096588 2.3910637-8.4764537-4.8938846.0096583-2.3910637z" fill="#1d2943"/></g></g></g></g><g><g><g enable-background="new"><g><g><path d="m23.0115967 15.724762-.0100098 4.1599731-9.7200317 5.6500244-9.7799683-5.6500244.0199585-4.1599731 9.710022-5.6500245z" fill="#678aee"/></g></g></g><g><path d="m13.2845087 25.5329151.0111418-4.1646786 9.7128982-5.6445198-.0111427 4.1646805z" fill="#678aee"/></g><g><path d="m13.2845087 25.5329151-9.7784915-5.6456146.011142-4.1646795 9.7784913 5.6456155z" fill="#566df9"/></g><g><g><path d="m23.0085487 15.7237167-9.7128982 5.6445198-9.7784913-5.6456155 9.7128976-5.6445189z" fill="#8fabfe"/></g><g><path d="m5.4409261 15.7200279 7.7906375-4.5276403 7.8531017 4.5340757-7.790638 4.527483z" fill="#566df9"/></g></g></g><g><g><g><path d="m16.7116508 20.1815033.0059548 2.1000538-2.6691055 1.541008-.0059538-2.1000538z" fill="#ffd06c"/></g></g><g><g><path d="m19.9119892 19.1688862.0012303.434082-2.2183896 1.2807865-.0012302-.4340801z" fill="#fff"/></g></g><g><g><path d="m19.909626 18.3351517.0012302.4340801-2.2183895 1.2807884-.0012302-.434082z" fill="#fff"/></g></g><g><g><path d="m19.9143486 20.0011253.0012302.4340802-2.2183895 1.2807884-.0012302-.4340821z" fill="#fff"/></g></g><g><g><path d="m21.5683136 17.5274334c.3751583-.2165966.6809654-.0438232.6821918.3887615.0012226.4310894-.3026085.9558392-.6777649 1.1724358-.3751583.2165966-.6809673.0438232-.682188-.3872662-.0012264-.4325828.3026047-.9573326.6777611-1.1739311z" fill="#ffd06c"/></g></g></g></g><g><g><g><path d="m4.1895075 23.4836712-.001389.4898472 8.4240365 4.8636207.0013895-.4898491z" fill="#8fabfe"/></g></g><g><g><path d="m4.1921749 22.5428238-.001389.4898491 8.4240365 4.8636188.0013895-.4898472z" fill="#8fabfe"/></g></g><g><g><path d="m4.1868448 24.4228268-.0013885.4898491 8.424037 4.8636207.0013885-.4898491z" fill="#8fabfe"/></g></g></g><g><g><g><path d="m4.1895075 29.0154629-.001389.4898472 8.4240365 4.8636207.0013895-.4898491z" fill="#8fabfe"/></g></g><g><g><path d="m4.1921749 28.0746155-.001389.4898491 8.4240365 4.8636207.0013895-.4898491z" fill="#8fabfe"/></g></g><g><g><path d="m4.1868448 29.9546185-.0013885.489849 8.424037 4.8636189.0013885-.4898491z" fill="#8fabfe"/></g></g></g><g><g><g><path d="m4.1895075 17.9518795-.001389.4898491 8.4240365 4.8636188.0013895-.489849z" fill="#8fabfe"/></g></g><g><g><path d="m4.1921749 17.0110321-.001389.4898491 8.4240365 4.8636208.0013895-.4898491z" fill="#8fabfe"/></g></g><g><g><path d="m4.1868448 18.891037-.0013885.4898472 8.424037 4.8636207.0013885-.4898491z" fill="#8fabfe"/></g></g></g><g><g><g><g><path d="m17.2115479 14.8947449-.0099487 1c0 .5800171-.3800049 1.1599731-1.1400146 1.6099854-1.5400391.8900146-4.0400391.8900146-5.5800171-.0100098-.7799683-.4400024-1.1699829-1.0299683-1.1599731-1.6199951v-1c0-.5899658.3800049-1.1699829 1.1399536-1.6099854 1.5400391-.8900146 4.0400391-.8900146 5.5800171 0 .7800291.4500122 1.1699828 1.039978 1.1699828 1.6300049z" fill="#febc1f"/></g></g></g><g enable-background="new"><g><g><path d="m17.2087231 14.890892-.0028534 1.0056715c-.0016441.5807581-.3825912 1.1606493-1.144804 1.6035986-1.5357714.8924923-4.0363846.8902302-5.5802259-.0011063-.7771349-.448679-1.1656408-1.038229-1.1639719-1.6269751l.0028477-1.0056677c-.0016651.5887451.3868408 1.1782951 1.1639757 1.6269741 1.5438414.8913364 4.0444546.8935986 5.5802259.0011063.7622127-.4429492 1.1431579-1.0228404 1.1448059-1.6036014z" fill="#febc1f"/></g></g><g><g><path d="m16.043766 13.2622232c1.5438423.8913374 1.5559216 2.3397789.0201511 3.2322702-1.5357714.8924923-4.0363846.8902302-5.5802259-.0011063-1.5438547-.891345-1.5539579-2.338645-.0181866-3.2311382 1.5357705-.8924922 4.0344077-.8913697 5.5782614-.0000257z" fill="#ffde9b"/></g></g></g></g></g><g><g><g><path d="m30.8269615 23.2177105.0059548 2.1000557-2.6691056 1.541008-.0059528-2.1000557z" fill="#ffd06c"/></g></g><g><g><path d="m34.0273018 22.2050953.0012283.434082-2.2183895 1.2807865-.0012302-.434082z" fill="#fff"/></g></g><g><g><path d="m34.0249367 21.3713589.0012321.434082-2.2183914 1.2807884-.0012302-.434082z" fill="#fff"/></g></g><g><g><path d="m34.0296593 23.0373325.0012321.4340821-2.2183914 1.2807884-.0012302-.434082z" fill="#fff"/></g></g><g><g><path d="m35.6836243 20.5636425c.3751564-.2165966.6809654-.0438232.6821938.3887615.0012207.4310894-.3026085.9558392-.6777687 1.1724358-.3751564.2165966-.6809654.0438232-.6821861-.3872662-.0012284-.4325847.3026046-.9573345.677761-1.1739311z" fill="#ffd06c"/></g></g></g></g><g><g enable-background="new"><g><g><path d="m49.2115479 31.6647034c0 2.3900146-1.6699829 5.2800293-3.7099609 6.460022l-16.4000244 9.4700317c-1.0599976.6099854-2.0200195.6599731-2.7099609.2299805l-2.8600464-1.6600342c-.6699829-.3899536-1.0899658-1.2199707-1.0899658-2.4099731-.0100098-2 1.2000122-4.3800049 2.8099976-5.7799683-.0599976-.3300171-.0900269-.6700439-.0900269-1.0700073-.0100098-3.0599976 2.1400146-6.8000488 4.8099976-8.3500366 1.3500366-.7699585 2.5700073-.8499756 3.4500122-.3399658l1.1199951.6499634c.789978-1.2799683 1.8200073-2.3699951 2.9700317-3.0299683 1.25-.7200317 2.3800049-.7800293 3.1999512-.2999878l2.9000244 1.6799927c.0700073.0499878.1500244.0899658.2199707.1499634h.0100098c.5200195-.0799561.9899902 0 1.3699951.2200317l2.9100342 1.6900024c.6699827.3999633 1.0800169 1.2199707 1.0899657 2.3899536z" fill="#dedffb"/></g></g></g></g><g><g enable-background="new"><g><g><path d="m45.2129364 27.5887489 2.9051628 1.6883011c-.6790657-.3946362-1.6171722-.3399601-2.6446609.2532597-.1754532.1012993-.3718414.2510376-.5471992.3866062l-2.9051704-1.6882954c.1753578-.1355724.3717499-.2853107.5472031-.38661 1.0274885-.5932179 1.9655951-.6478958 2.6446646-.2532616z" fill="#dedffb"/></g></g><g><g><path d="m40.7067337 25.529871 2.9051666 1.6883011c-.8181038-.4754333-1.9493065-.4108639-3.1965942.3092594-1.2439384.7181873-2.3581734 1.9370098-3.16605 3.3565712l-2.9051704-1.6882954c.8078804-1.4195652 1.9221153-2.6383858 3.1660538-3.356575 1.2472877-.7201214 2.3784904-.7846928 3.1965942-.3092613z" fill="#e9e7fc"/></g></g><g><g><path d="m36.3218346 29.900238c-.8765945-.5083733-2.099472-.4286861-3.4432487.3462505-2.6710472 1.5416241-4.82547 5.2816486-4.8172512 8.3511753.0027504.3902092.0330086.739212.0962067 1.0607224l-2.9046535-1.6872749c-.0631981-.3215103-.0934219-.6705132-.0961723-1.0634766-.0082188-3.0667572 2.1461697-6.806797 4.8172493-8.3484211 1.3437767-.777689 2.5666237-.8573742 3.4432182-.3462505z" fill="#dedffb"/></g></g><g><g><path d="m26.4408226 47.8523903-2.9051704-1.6882973c-.6726151-.3908844-1.0900574-1.2230377-1.0934143-2.4071312-.005682-2.0039597 1.2036743-4.3863297 2.8094654-5.7859688l2.9051628 1.6883011c-1.6057873 1.3996353-2.8151417 3.7820053-2.8094616 5.785965.0033569 1.1840973.4207992 2.0162468 1.0934181 2.4071312z" fill="#e9e7fc"/></g></g><g><g><path d="m32.8786125 30.2471008c1.9264374-1.1122284 3.5985909-.7953548 4.3706436.6369019.8078766-1.4195614 1.9221115-2.6383839 3.16605-3.3565712 2.4264832-1.4009304 4.4136238-.3208542 4.5109329 2.3894844.1753578-.1355686.3717461-.2853069.5471992-.3866062 2.0404968-1.1780796 3.7284966-.232233 3.735218 2.138649.006752 2.3809643-1.6703568 5.2777309-3.7108536 6.4558125l-16.3993281 9.4681548c-2.0633163 1.1912575-3.7443199.2332993-3.75107-2.1476669-.0056801-2.0039597 1.2036743-4.3863297 2.8094654-5.785965-.0624313-.3213806-.0932884-.6710892-.0943985-1.0622025-.0086994-3.0684432 2.1457882-6.8082618 4.8161411-8.3499908z" fill="#f3f1fc"/></g></g></g></g></g><g><path d="m21.5174561 48.8718567c-.0429688 0-.0864258-.0112305-.125-.0336914l-18.479004-10.6689453c-.0771484-.0444336-.125-.1269531-.125-.2158203 0-.0893555.0473633-.171875.1245117-.2167969l5.2807617-3.0688477c.1181641-.0693359.2719727-.0297852.3417969.0908203.0693359.1191406.0288086.2724609-.0908203.3417969l-4.9077148 2.8520508 17.9799805 10.3803711 1.9750977-1.1479492c.1186523-.0693359.2724609-.0297852.3417969.0908203.0693359.1191406.0288086.2724609-.0908203.3417969l-2.1000977 1.2207031c-.0385743.0224609-.0820313.0336914-.1254883.0336914z" fill="#4c5c75"/></g></g><g><g><g><g><g><g><path d="m32.6254883 35.0660591.0010757.379036-.9620304.5554275-.0010738-.3790359z" fill="#cacdea"/></g></g><g><g><path d="m42.892601 37.7559433-2.5025139 1.4447975.0010529.3790589 2.501461-1.4441948z" fill="#cacdea"/></g></g><g enable-background="new"><g><g><path d="m42.892601 36.8004799-3.973011 2.2938461.0011024.3790627 3.9719086-2.2931977z" fill="#cacdea"/></g></g><g><g><path d="m42.892601 34.8833847-3.7420502 2.1604805.0011025.3790627 3.7409477-2.1598816z" fill="#cacdea"/></g></g><g><g><path d="m40.0107651 39.4197578.0010757.379036-3.738163 2.1582298-.0010757-.3790397z" fill="#cacdea"/></g></g><g><g><path d="m40.7639694 37.0677719.0010758.378994-3.8920937 2.2471008-.0010719-.378994z" fill="#f45170"/></g></g><g><g><path d="m42.2950821 33.3112526.0010719.378994-3.0894813 1.7837143-.0010758-.378994z" fill="#dba660"/></g></g><g><g><path d="m40.2363167 35.4615974.0010719.379036-2.7541428 1.590107-.0010757-.379036z" fill="#cacdea"/></g></g><g><g><path d="m38.5402832 39.3133316.0010719.3790398-3.7491531 2.1645736-.0010757-.3790359z" fill="#cacdea"/></g></g><g><g><path d="m38.7492523 37.2755623.0010758.3790359-3.2324143 1.8662339-.0010719-.379036z" fill="#cacdea"/></g></g><g><g><path d="m42.892601 32.0108795-4.921112 2.8411942.0011024.3790092 4.9200096-2.8405418z" fill="#cacdea"/></g></g><g><g><path d="m38.9087448 35.2663574.0010758.378994-2.5452538 1.4695015-.0010719-.378994z" fill="#cacdea"/></g></g><g><g><path d="m36.2781715 39.65765.001072.378994-3.0400048 1.755146-.0010757-.378994z" fill="#cacdea"/></g></g><g><g><path d="m35.0660629 39.4020538.001072.379036-1.8306008 1.0569-.0010757-.3790398z" fill="#cacdea"/></g></g><g><g><path d="m41.0692711 32.1081619.0010757.379036-5.2664108 3.0405655-.0010757-.379036z" fill="#cacdea"/></g></g><g><g><path d="m37.1963081 37.2167473.0010758.3790359-3.9635544 2.2883606-.0010757-.3790397z" fill="#cacdea"/></g></g><g><g><path d="m35.6323547 37.1579819.001072.378994-2.4023171 1.3869819-.0010757-.378994z" fill="#cacdea"/></g></g><g><g><path d="m37.6031837 35.0647163.001072.379036-4.3758507 2.5264015-.0010757-.3790359z" fill="#cacdea"/></g></g><g><g><path d="m39.7280045 30.9654217.0010719.3790359-4.1339684 2.3867474-.0010757-.379036z" fill="#cacdea"/></g></g></g><g><g><path d="m42.892601 30.0937366-3.8380432 2.2159405.0010529.3789597 3.8369903-2.2152901z" fill="#cacdea"/></g></g><g><g><path d="m42.892601 29.1383705-2.5873833 1.4937954.0011025.3790588 2.5862808-1.4931926z" fill="#cacdea"/></g></g><g><g><path d="m35.1212654 33.6251221.0010719.3790359-1.9020652 1.0981598-.001072-.3790359z" fill="#cacdea"/></g></g><g><g><path d="m32.6281929 36.0199051.0010757.378994-.9620304.5554275-.0010738-.378994z" fill="#cacdea"/></g></g><g><g><path d="m35.2806129 35.4502449.0010758.379036-2.0559883 1.1870269-.0010758-.3790359z" fill="#8fabfe"/></g></g><g><g><path d="m38.3783722 32.7000389.0010757.378994-5.1564712 2.9770889-.0010719-.378994z" fill="#cacdea"/></g></g><g><g><path d="m32.6309166 36.9800491.0010757.379036-.9620323.5554275-.0010738-.3790359z" fill="#cacdea"/></g></g><g><g><path d="m32.6336212 37.9338951.0010758.379036-.9620324.5554275-.0010738-.3790359z" fill="#cacdea"/></g></g><g><g><path d="m32.6363258 38.8877411.001072.378994-.9620285.5554275-.0010758-.378994z" fill="#cacdea"/></g></g><g><g><path d="m32.6390457 39.8478851.0010758.379036-.9620305.5554275-.0010757-.3790359z" fill="#cacdea"/></g></g><g><g><path d="m32.6417503 40.8017311.0010758.379036-.9620304.5554275-.0010758-.3790359z" fill="#cacdea"/></g></g><g><g><path d="m32.644455 41.7555771.0010757.378994-.9620323.5554275-.0010739-.378994z" fill="#cacdea"/></g></g><g><g><path d="m32.6471786 42.7157173.001072.3790398-.9620304.5554275-.0010739-.3790359z" fill="#cacdea"/></g></g><g><g><path d="m34.3898201 41.7096024.0010757.3790397-1.1489372.6633339-.0010719-.3790359z" fill="#cacdea"/></g></g><g><g><path d="m32.6498795 43.6695633.0010757.3790398-.9620304.5554275-.0010738-.3790359z" fill="#cacdea"/></g></g><g><g><path d="m35.7283707 41.8921967.0010757.3790397-2.4847832 1.4345856-.0010719-.379036z" fill="#cacdea"/></g></g></g></g></g></g></g></svg>