<svg id="Layer_1" enable-background="new 0 0 52 52" height="512" viewBox="0 0 52 52" width="512" xmlns="http://www.w3.org/2000/svg"><g id="_x32_8"><g><g fill="#1d2943"><path d="m28.7 7.6c1-.6 2.1-1.1 3.1-1.5-1 .4-2 .9-3.1 1.5z"/><path d="m28.7 7.6c1-.6 2.1-1.1 3.1-1.5-1 .4-2 .9-3.1 1.5z"/><path d="m46.2 17.6c0 11-7.7 24.5-17.3 30-4.8 2.8-9.2 3.1-12.4 1.2-.1 0-.1-.1-.2-.1l-5.4-3.1c-3.1-1.8-5.1-5.7-5.1-11.2 0-11 7.7-24.5 17.3-30 4.8-2.8 9.2-3 12.4-1.2l5.3 3.1c.1 0 .2.1.3.1 3.1 1.8 5.1 5.7 5.1 11.2z"/><path d="m41.1 6.4c-3.1-1.8-7.5-1.6-12.4 1.2-9.6 5.5-17.4 19-17.3 30 0 5.5 1.9 9.3 5.1 11.1l-5.6-3.3c-3.1-1.8-5.1-5.7-5.1-11.1 0-11 7.7-24.5 17.3-30 4.8-2.8 9.2-3 12.4-1.2z"/></g><path d="m28.7 7.6c9.6-5.5 17.4-1.1 17.4 10 0 11-7.7 24.5-17.3 30-9.6 5.6-17.4 1.1-17.5-9.9.1-11.1 7.8-24.5 17.4-30.1z" fill="#4c5c75"/><path d="m21 48c-4.8 0-7.6-3.9-7.6-10.3 0-14.8 13.5-30.4 23.1-30.4 4.8 0 7.6 3.9 7.7 10.3 0 10.4-7.3 23.1-16.3 28.3-2.4 1.4-4.8 2.1-6.9 2.1z" fill="#fff"/><g><g><g><g><path d="m21 20.7 2.5 2.8c-2 2.9-3.3 6.4-3.4 9.6l-4.4 2.5c.1-5 2.1-10.4 5.3-14.9z" fill="#57b3fe"/></g><g><path d="m36.5 11.7c3.2.8 5.3 3.9 5.4 8.6l-4.4 2.5c-.1-3-1.5-5-3.5-5.6z" fill="#f45170"/></g><g><path d="m28.8 13.3c2.9-1.7 5.6-2.1 7.8-1.6l-2.6 5.6c-1.5-.4-3.3-.1-5.3 1s-3.8 3-5.3 5.1l-2.4-2.7c2.2-3.1 4.9-5.8 7.8-7.4z" fill="#ffd06c"/></g></g><g><path d="m33.7 13.6c.5 0 .7.7.4 1.4l-6.8 17.7c-.2.6-.9 1.3-1.4 1.3s-.7-.7-.4-1.4l6.8-17.7c.2-.6.9-1.4 1.4-1.3z" fill="#dedffb"/></g><g><g><path d="m28.6 22.7c1.8-1 3.2-.2 3.2 1.8s-1.4 4.5-3.2 5.6c-1.8 1-3.2.2-3.2-1.8 0-2.1 1.5-4.6 3.2-5.6z" fill="#78e75a"/></g><g><path d="m28.6 24.6c.9-.5 1.6-.1 1.6.9s-.7 2.3-1.6 2.8-1.6.1-1.6-.9c0-1.1.8-2.3 1.6-2.8z" fill="#5ec363"/></g></g></g><g><g><path d="m25.7 37.4c.3.3.5 1 .5 1.9s-.2 1.8-.5 2.5-.8 1.3-1.5 1.7c-.6.4-1.1.4-1.5 0-.3-.3-.5-1-.5-1.9s.2-1.8.5-2.5.8-1.3 1.5-1.7c.6-.3 1.1-.3 1.5 0zm-.5 4.2c.2-.5.3-1.2.3-1.9s-.1-1.2-.3-1.5-.6-.3-1-.1-.7.6-1 1.2c-.2.5-.3 1.2-.3 1.9s.1 1.2.3 1.5.5.3 1 .1c.4-.3.8-.6 1-1.2" fill="#c9cee2"/></g><g><path d="m30.3 34.8c.3.3.5 1 .5 1.9s-.2 1.8-.5 2.5-.8 1.3-1.5 1.7c-.6.4-1.1.4-1.5 0-.3-.3-.5-1-.5-1.9s.2-1.8.5-2.5.8-1.3 1.5-1.7c.6-.3 1.1-.3 1.5 0zm-.5 4.2c.2-.5.3-1.2.3-1.9s-.1-1.2-.3-1.5-.5-.3-1-.1-.7.6-1 1.2c-.2.5-.3 1.2-.3 1.9s.1 1.2.3 1.5.6.3 1 .1c.4-.3.7-.7 1-1.2" fill="#c9cee2"/></g><g><path d="m34.8 32.2c.3.3.5 1 .5 1.9s-.2 1.8-.5 2.5-.8 1.3-1.5 1.7c-.6.4-1.1.4-1.5 0-.3-.3-.5-1-.5-1.9s.2-1.8.5-2.5.8-1.3 1.5-1.7 1.2-.4 1.5 0zm-.4 4.1c.2-.5.3-1.2.3-1.9s-.1-1.2-.3-1.5-.6-.3-1-.1-.8.6-1 1.2c-.2.5-.3 1.2-.3 1.9s.1 1.2.3 1.5.6.3 1 .1.7-.6 1-1.2" fill="#c9cee2"/></g></g></g></g><path d="m21.9 14.8c-1.4 0-2.5 1.1-2.5 2.5 0-.7-.3-1.3-.7-1.8-.5-.5-1.1-.7-1.8-.7.7 0 1.3-.3 1.8-.7.5-.5.7-1.1.7-1.8 0 .7.3 1.3.7 1.8.5.4 1.1.7 1.8.7z" fill="#fff"/></g></svg>