<?xml version="1.0" encoding="utf-8"?>
<!-- Generator: Adobe Illustrator 25.2.1, SVG Export Plug-In . SVG Version: 6.00 Build 0)  -->
<svg version="1.1" id="Layer_1" xmlns="http://www.w3.org/2000/svg" xmlns:xlink="http://www.w3.org/1999/xlink" x="0px" y="0px"
	 viewBox="0 0 512 512" style="enable-background:new 0 0 512 512;" xml:space="preserve">
<style type="text/css">
	.st0{fill:#4C5C75;}
	.st1{fill:#FFFFFF;}
	.st2{fill:#C9CEE2;}
	.st3{enable-background:new    ;}
	.st4{fill:#E3E7F0;}
	.st5{fill:#423D9B;}
	.st6{fill:#F25A5A;}
	.st7{fill:#F8F9FE;}
	.st8{fill:#1D2943;}
	.st9{fill:#DF3260;}
	.st10{fill:#F45170;}
	.st11{fill:#497BFE;}
	.st12{fill:#57B3FE;}
	.st13{fill:#FFDE9B;}
	.st14{fill:#986FF9;}
	.st15{fill:#B28AFD;}
	.st16{fill:#5094FF;}
	.st17{fill:#CC104A;}
	.st18{fill:#E9E7FC;}
	.st19{fill:#D84905;}
	.st20{fill:url(#SVGID_1_);}
	.st21{fill:#F67205;}
	.st22{fill:url(#SVGID_2_);}
	.st23{fill:#F69D05;}
	.st24{fill:url(#SVGID_3_);}
	.st25{opacity:0.7;fill:url(#SVGID_4_);enable-background:new    ;}
	.st26{fill:url(#SVGID_5_);}
	.st27{opacity:0.7;fill:url(#SVGID_6_);enable-background:new    ;}
	.st28{fill:url(#SVGID_7_);}
	.st29{fill:#BA3E05;}
	.st30{opacity:0.5;fill:url(#SVGID_8_);enable-background:new    ;}
	.st31{opacity:0.4;fill:url(#SVGID_9_);enable-background:new    ;}
	.st32{opacity:0.4;fill:url(#SVGID_10_);enable-background:new    ;}
	.st33{clip-path:url(#SVGID_12_);}
	.st34{fill-rule:evenodd;clip-rule:evenodd;fill:url(#SVGID_13_);}
	.st35{opacity:0.3;}
</style>
<g>
	<g>
		<g>
			<g>
				<g>
					<g>
						<g>
							<path class="st0" d="M269.9,456.7l-131.3-75.8l1.3-2.3l131.3,75.8L269.9,456.7z"/>
						</g>
					</g>
				</g>
			</g>
			<g>
				<g>
					<g>
						<path class="st0" d="M201.4,320.3c-31.7-18.4-31.7-48.7,0.4-67.3c50.2-29,137.3-8.7,137.2,33.6
							C339,329.2,251.1,349.2,201.4,320.3z M203.2,255.3c-30.3,17.5-30.3,45.3-0.4,62.7c47.8,27.8,133.6,9,133.6-31.4
							C336.4,246.9,252.1,227,203.2,255.3C204.2,255.3,204.2,255.3,203.2,255.3z"/>
					</g>
				</g>
			</g>
			<g>
				<g>
					<g>
						<g>
							<path class="st0" d="M241.2,456.7l-1.3-2.3l131.3-75.8l1.3,2.3L241.2,456.7z"/>
						</g>
					</g>
				</g>
			</g>
			<g>
				<g>
					<g>
						<g>
							<path class="st0" d="M373,340.1l-48.4-27.9l1.3-2.3l48.4,27.9L373,340.1z"/>
						</g>
					</g>
				</g>
			</g>
			<g>
				<g>
					<g>
						<g>
							<path class="st0" d="M143.3,340.1l-1.3-2.3l48.4-27.9l1.3,2.3L143.3,340.1z"/>
						</g>
					</g>
				</g>
			</g>
			<g>
				<g>
					<g>
						<path class="st0" d="M256.6,491.8l-72-41.5c-1.8-1.1-1.6-3.1,0.1-3.9l71.5-41.6c1.3-0.6,2.9-0.6,4.1,0l72.1,41.7
							c1.6,0.8,1.8,2.8,0,3.9l0,0l-71.6,41.5C259.6,492.5,257.8,492.5,256.6,491.8z M186.6,448.3l71.4,41.2c0.4,0.2,1,0.2,1.3,0
							l71.1-41.2L258.9,407c-0.3-0.2-1.1-0.2-1.5,0L186.6,448.3z"/>
					</g>
				</g>
			</g>
			<g>
				<g>
					<g>
						<path class="st0" d="M408.7,402.4l-72-41.5c-1.8-1.1-1.6-3.1,0.1-3.9l71.5-41.6c1.3-0.6,2.9-0.6,4.1,0l72.1,41.7
							c1.6,0.8,1.8,2.8,0,3.9l0,0l-71.6,41.5C411.7,403.1,410,403.1,408.7,402.4z M338.7,358.9l71.4,41.2c0.4,0.2,1,0.2,1.3,0
							l71.1-41.2L411,317.6c-0.4-0.2-1.1-0.2-1.5,0L338.7,358.9z"/>
					</g>
				</g>
			</g>
			<g>
				<g>
					<g>
						<path class="st0" d="M99.6,402.4l-72-41.5c-1.8-1.1-1.6-3.1,0.1-3.9l71.5-41.6c1.2-0.6,2.9-0.6,4.1,0l72.1,41.7
							c1.6,0.8,1.8,2.8,0,3.9l0,0l-71.6,41.5C102.6,403.1,100.9,403.1,99.6,402.4z M29.6,358.9l71.4,41.2c0.4,0.2,1,0.2,1.3,0
							l71.1-41.2l-71.4-41.3c-0.4-0.2-1.1-0.2-1.5,0L29.6,358.9z"/>
					</g>
				</g>
			</g>
			<g>
				<g>
					<g>
						<path class="st1" d="M210.7,406.7c0.6,0.4,1.1,1.1,1.1,1.9s-0.4,1.1-1.1,0.7c-0.6-0.3-1.1-1.2-1.1-2
							C209.6,406.5,210.1,406.3,210.7,406.7z"/>
					</g>
				</g>
			</g>
			<g>
				<g>
					<g>
						<path class="st1" d="M306.2,406.7c-0.6,0.4-1.1,1.1-1.1,1.9s0.4,1.1,1.1,0.7c0.6-0.3,1.1-1.2,1.1-2
							C307.3,406.5,306.8,406.3,306.2,406.7z"/>
					</g>
				</g>
			</g>
			<g>
				<g>
					<g>
						<path class="st1" d="M276,424.6l-0.6,1l0.6,0.3l26-15l0.6-1l-0.6-0.3L276,424.6z"/>
					</g>
				</g>
			</g>
		</g>
	</g>
	<g>
		<g>
			<g>
				<path class="st2" d="M332.3,251.6l-0.1,29.6c0,10.9-7.2,21.7-21.4,30.1c-28.7,16.7-75.5,16.7-104.5,0
					c-14.5-8.4-21.8-19.4-21.8-30.5l0.1-29.6L332.3,251.6z"/>
			</g>
		</g>
		<g>
			<g>
				<g>
					<g>
						<g>
							<g class="st3">
								<g>
									<g>
										<g>
											
												<ellipse transform="matrix(2.999987e-03 -1 1 2.999987e-03 6.2277 509.1801)" class="st4" cx="258.5" cy="251.5" rx="42.8" ry="73.9"/>
										</g>
									</g>
								</g>
							</g>
						</g>
						<g>
							<g class="st3">
								<g>
									<g>
										<g>
											<path class="st5" d="M326.7,235l-0.1,14.8c0,10.1-6.6,20.1-19.8,27.8c-26.5,15.4-69.8,15.4-96.5,0
												c-13.5-7.8-20.2-18-20.1-28.2l0.1-14.8c0,10.2,6.7,20.4,20.1,28.2c26.7,15.4,70,15.4,96.5,0
												C320.1,255.1,326.7,245,326.7,235z"/>
										</g>
									</g>
								</g>
								<g>
									<g>
										<g>
											
												<ellipse transform="matrix(2.999987e-03 -1 1 2.999987e-03 22.8584 492.5993)" class="st6" cx="258.5" cy="234.8" rx="39.5" ry="68.3"/>
										</g>
									</g>
								</g>
							</g>
						</g>
						<g>
							<g class="st3">
								<g>
									<g>
										<g>
											<path class="st2" d="M332.3,202.2l-0.1,29.6c0,10.9-7.2,21.7-21.4,30.1c-28.7,16.7-75.5,16.7-104.5,0
												c-14.5-8.4-21.8-19.5-21.8-30.5l0.1-29.6L332.3,202.2z"/>
										</g>
									</g>
								</g>
								<g>
									<g>
										<g>
											
												<ellipse transform="matrix(2.999987e-03 -1 1 2.999987e-03 55.6458 459.9101)" class="st4" cx="258.5" cy="202" rx="42.8" ry="73.9"/>
										</g>
									</g>
								</g>
							</g>
						</g>
						<g>
							<g class="st3">
								<g>
									<g>
										<g>
											<path class="st5" d="M326.7,182.4l-0.1,14.8c0,10.1-6.6,20.1-19.8,27.8c-26.5,15.4-69.8,15.4-96.5,0
												c-13.5-7.8-20.2-18-20.1-28.2l0.1-14.8c0,10.2,6.7,20.4,20.1,28.2c26.7,15.4,70,15.4,96.5,0
												C320.1,202.5,326.7,192.4,326.7,182.4z"/>
										</g>
									</g>
								</g>
								<g>
									<g>
										<g>
											
												<ellipse transform="matrix(2.999987e-03 -1 1 2.999987e-03 75.4961 440.1193)" class="st6" cx="258.5" cy="182.2" rx="39.5" ry="68.3"/>
										</g>
									</g>
								</g>
							</g>
						</g>
						<g>
							<g class="st3">
								<g>
									<g>
										<g>
											<path class="st2" d="M332.3,149.5l-0.1,29.6c0,10.9-7.2,21.7-21.4,30.1c-28.7,16.7-75.5,16.7-104.5,0
												c-14.5-8.4-21.8-19.4-21.8-30.5l0.1-29.6L332.3,149.5z"/>
										</g>
									</g>
								</g>
								<g>
									<g>
										<g>
											
												<ellipse transform="matrix(2.999987e-03 -1 1 2.999987e-03 108.3526 407.3611)" class="st4" cx="258.5" cy="149.3" rx="42.8" ry="73.9"/>
										</g>
									</g>
								</g>
							</g>
						</g>
					</g>
					<g>
						<g>
							<g>
								<g>
									<path class="st7" d="M326.7,183.1c0,3.7-2.5,8.1-5.7,9.9c-3.1,1.8-5.7,0.3-5.7-3.3c-0.1-3.7,2.5-8.1,5.7-9.9
										C324.1,178,326.7,179.5,326.7,183.1z"/>
								</g>
							</g>
						</g>
						<g>
							<g>
								<g>
									<path class="st8" d="M324.6,184.3c0,2.3-1.6,5.1-3.6,6.3c-2,1.1-3.6,0.2-3.6-2.1c0-2.3,1.6-5.2,3.6-6.3
										C323,181,324.6,182,324.6,184.3z"/>
								</g>
							</g>
						</g>
					</g>
					<g>
						<g>
							<g>
								<g>
									<path class="st7" d="M326.7,236.1c0,3.7-2.5,8.1-5.7,9.9c-3.1,1.8-5.7,0.3-5.7-3.3c-0.1-3.7,2.5-8.1,5.7-9.9
										C324.1,231,326.7,232.5,326.7,236.1z"/>
								</g>
							</g>
						</g>
						<g>
							<g>
								<g>
									<path class="st8" d="M324.6,237.3c0,2.3-1.6,5.1-3.6,6.3c-2,1.1-3.6,0.2-3.6-2.1c0-2.3,1.6-5.2,3.6-6.3
										C323,234.1,324.6,235,324.6,237.3z"/>
								</g>
							</g>
						</g>
					</g>
					<g>
						<g>
							<g>
								<g>
									<path class="st7" d="M326.7,284.8c0,3.7-2.5,8.1-5.7,9.9c-3.1,1.8-5.7,0.3-5.7-3.3c-0.1-3.7,2.5-8.1,5.7-9.9
										C324.1,279.7,326.7,281.2,326.7,284.8z"/>
								</g>
							</g>
						</g>
						<g>
							<g>
								<g>
									<path class="st8" d="M324.6,286c0,2.3-1.6,5.1-3.6,6.3c-2,1.1-3.6,0.2-3.6-2.1c0-2.3,1.6-5.2,3.6-6.3
										C323,282.8,324.6,283.7,324.6,286z"/>
								</g>
							</g>
						</g>
					</g>
				</g>
			</g>
		</g>
	</g>
	<g>
		<g>
			<g>
				<g>
					<g>
						<g>
							<g>
								<g>
									<g>
										<g>
											<path class="st9" d="M475.5,324.2l-0.1,30.8c0,0.5-0.3,1-1,1.4L413.1,392c-1.3,0.7-3.4,0.7-4.7,0l-61.7-35.7
												c-0.7-0.4-1-0.8-1-1.4l0.1-30.8L475.5,324.2z"/>
										</g>
									</g>
								</g>
								<g>
									<g>
										<g>
											<path class="st10" d="M474.5,325.5l-61.4,35.7c-1.3,0.7-3.4,0.7-4.7,0l-61.7-35.6c-1.3-0.8-1.3-2,0-2.7l61.3-35.7
												c1.3-0.7,3.4-0.7,4.7,0l61.7,35.6C475.8,323.6,475.8,324.8,474.5,325.5z"/>
										</g>
									</g>
								</g>
								<g>
									<g>
										<g>
											<g>
												<path class="st11" d="M412,302.3l40.2,23.2l0.6-0.4c0.8-0.5,0.8-1.3,0-1.8L412,299.8c-0.9-0.5-2.3-0.5-3.1,0l-40.5,23.5
													c-0.9,0.5-0.9,1.3,0,1.8l0.6,0.3l39.9-23.2C409.7,301.8,411.1,301.8,412,302.3z"/>
											</g>
										</g>
									</g>
									<g>
										<g>
											<g>
												<path class="st12" d="M412.3,348.6l39.9-23.2L412,302.3c-0.9-0.5-2.3-0.5-3.1,0L369,325.4l40.2,23.2
													C410,349.1,411.4,349.1,412.3,348.6z"/>
											</g>
										</g>
									</g>
								</g>
								<g>
									<g>
										<g>
											<path class="st1" d="M409.6,354.7l-51-29.4c-0.9-0.5-0.9-1.8,0-2.3l50.6-29.4c0.6-0.3,1.8-0.3,2.4,0l51,29.4
												c0.4,0.2,0.7,0.7,0.7,1.1c0,0.5-0.2,0.9-0.6,1.1l-50.6,29.4C411.4,355.1,410.2,355.1,409.6,354.7z"/>
										</g>
									</g>
								</g>
							</g>
						</g>
					</g>
				</g>
			</g>
			<g>
				<g>
					<g>
						<g>
							<path class="st13" d="M420.6,368.3c1.9-1.1,3.5-0.3,3.5,2c0,2.2-1.6,4.9-3.4,6c-1.9,1.1-3.5,0.3-3.5-1.9
								C417.1,372.1,418.7,369.4,420.6,368.3z"/>
						</g>
					</g>
				</g>
				<g>
					<g>
						<g>
							<path class="st13" d="M468.8,340.5c1.9-1.1,3.5-0.3,3.5,2c0,2.2-1.5,4.8-3.4,6s-3.5,0.3-3.5-1.9
								C465.3,344.3,466.8,341.6,468.8,340.5z"/>
						</g>
					</g>
				</g>
				<g>
					<g>
						<g>
							<path class="st1" d="M460.8,345.4l0,7.4l-32.3,18.6l0-7.4L460.8,345.4z"/>
						</g>
					</g>
				</g>
			</g>
			<g>
				<g>
					<g>
						<g>
							<path class="st13" d="M402.9,368.3c-1.9-1.1-3.5-0.3-3.5,2c0,2.2,1.6,4.9,3.4,6c1.9,1.1,3.5,0.3,3.5-1.9
								C406.4,372.1,404.8,369.4,402.9,368.3z"/>
						</g>
					</g>
				</g>
				<g>
					<g>
						<g>
							<path class="st13" d="M354.7,340.5c-1.9-1.1-3.5-0.3-3.5,2c0,2.2,1.5,4.8,3.4,6s3.5,0.3,3.5-1.9
								C358.2,344.3,356.6,341.6,354.7,340.5z"/>
						</g>
					</g>
				</g>
				<g>
					<g>
						<g>
							<path class="st1" d="M362.7,345.4l0,7.4l32.3,18.6l0-7.4L362.7,345.4z"/>
						</g>
					</g>
				</g>
			</g>
		</g>
		<g>
			<g>
				<g>
					<g>
						<g>
							<g>
								<g>
									<g>
										<g>
											<path class="st14" d="M164.8,324.2l-0.1,30.8c0,0.5-0.3,1-1,1.4L102.4,392c-1.3,0.7-3.4,0.7-4.7,0L36,356.3
												c-0.7-0.4-1-0.8-1-1.4l0.1-30.8L164.8,324.2z"/>
										</g>
									</g>
								</g>
								<g>
									<g>
										<g>
											<path class="st15" d="M163.9,325.5l-61.4,35.7c-1.3,0.7-3.4,0.7-4.7,0l-61.7-35.6c-1.3-0.8-1.3-2,0-2.7l61.3-35.7
												c1.3-0.7,3.4-0.7,4.7,0l61.7,35.6C165.1,323.6,165.1,324.8,163.9,325.5z"/>
										</g>
									</g>
								</g>
								<g>
									<g>
										<g>
											<g>
												<path class="st11" d="M101.4,302.3l40.2,23.2l0.6-0.4c0.8-0.5,0.8-1.3,0-1.8l-40.8-23.5c-0.9-0.5-2.3-0.5-3.1,0
													l-40.5,23.5c-0.9,0.5-0.9,1.3,0,1.8l0.6,0.3l39.9-23.2C99.1,301.8,100.5,301.8,101.4,302.3z"/>
											</g>
										</g>
									</g>
									<g>
										<g>
											<g>
												<path class="st12" d="M101.6,348.6l39.9-23.2l-40.2-23.2c-0.9-0.5-2.3-0.5-3.1,0l-39.9,23.2l40.2,23.2
													C99.4,349.1,100.8,349.1,101.6,348.6z"/>
											</g>
										</g>
									</g>
								</g>
								<g>
									<g>
										<g>
											<path class="st1" d="M98.9,354.7l-51-29.4c-0.4-0.2-0.6-0.7-0.6-1.1c0-0.5,0.2-0.9,0.6-1.1l50.6-29.4
												c0.6-0.3,1.8-0.3,2.4,0l51,29.4c0.4,0.2,0.7,0.7,0.7,1.1c0,0.5-0.2,0.9-0.6,1.1l-50.6,29.4
												C100.7,355.1,99.6,355.1,98.9,354.7z"/>
										</g>
									</g>
								</g>
							</g>
						</g>
					</g>
				</g>
			</g>
			<g>
				<g>
					<g>
						<g>
							<path class="st13" d="M110,368.3c1.9-1.1,3.5-0.3,3.5,2c0,2.2-1.6,4.9-3.4,6c-1.9,1.1-3.5,0.3-3.5-1.9
								C106.5,372.1,108,369.4,110,368.3z"/>
						</g>
					</g>
				</g>
				<g>
					<g>
						<g>
							<path class="st13" d="M158.1,340.5c1.9-1.1,3.5-0.3,3.5,2c0,2.2-1.5,4.8-3.4,6s-3.5,0.3-3.5-1.9
								C154.6,344.3,156.2,341.6,158.1,340.5z"/>
						</g>
					</g>
				</g>
				<g>
					<g>
						<g>
							<path class="st1" d="M150.2,345.4l0,7.4l-32.3,18.6l0-7.4L150.2,345.4z"/>
						</g>
					</g>
				</g>
			</g>
			<g>
				<g>
					<g>
						<g>
							<path class="st13" d="M92.2,368.3c-1.9-1.1-3.5-0.3-3.5,2c0,2.2,1.6,4.9,3.4,6c1.9,1.1,3.5,0.3,3.5-1.9
								C95.8,372.1,94.2,369.4,92.2,368.3z"/>
						</g>
					</g>
				</g>
				<g>
					<g>
						<g>
							<path class="st13" d="M44.1,340.5c-1.9-1.1-3.5-0.3-3.5,2c0,2.2,1.5,4.8,3.4,6s3.5,0.3,3.5-1.9
								C47.6,344.3,46,341.6,44.1,340.5z"/>
						</g>
					</g>
				</g>
				<g>
					<g>
						<g>
							<path class="st1" d="M52.1,345.4l0,7.4l32.3,18.6l0-7.4L52.1,345.4z"/>
						</g>
					</g>
				</g>
			</g>
		</g>
		<g>
			<g>
				<g>
					<g>
						<g>
							<g>
								<g>
									<g>
										<g>
											<path class="st16" d="M323.4,412.9l-0.1,30.8c0,0.5-0.3,1-1,1.4L261,480.7c-1.3,0.7-3.4,0.7-4.7,0L194.5,445
												c-0.7-0.4-1-0.8-1-1.4l0.1-30.8L323.4,412.9z"/>
										</g>
									</g>
								</g>
								<g>
									<g>
										<g>
											<path class="st12" d="M322.4,414.2l-61.4,35.7c-1.3,0.7-3.4,0.7-4.7,0l-61.7-35.6c-1.3-0.8-1.3-2,0-2.7l61.3-35.7
												c1.3-0.7,3.4-0.7,4.7,0l61.7,35.6C323.7,412.2,323.7,413.4,322.4,414.2z"/>
										</g>
									</g>
								</g>
								<g>
									<g>
										<g>
											<g>
												<path class="st11" d="M259.9,390.9l40.2,23.2l0.6-0.4c0.8-0.5,0.8-1.3,0-1.8l-40.8-23.5c-0.9-0.5-2.3-0.5-3.1,0
													l-40.5,23.5c-0.9,0.5-0.9,1.3,0,1.8l0.6,0.3l39.9-23.2C257.6,390.4,259.1,390.4,259.9,390.9z"/>
											</g>
										</g>
									</g>
									<g>
										<g>
											<g>
												<path class="st12" d="M260.2,437.3l39.9-23.2l-40.2-23.2c-0.9-0.5-2.3-0.5-3.1,0l-39.9,23.2l40.2,23.2
													C257.9,437.8,259.3,437.8,260.2,437.3z"/>
											</g>
										</g>
									</g>
								</g>
								<g>
									<g>
										<g>
											<path class="st1" d="M257.5,443.4l-51-29.4c-0.4-0.2-0.6-0.7-0.6-1.1c0-0.5,0.2-0.9,0.6-1.1l50.6-29.4
												c0.6-0.3,1.8-0.3,2.4,0l51,29.4c0.4,0.2,0.7,0.7,0.7,1.1c0,0.5-0.2,0.9-0.6,1.1l-50.6,29.4
												C259.3,443.7,258.1,443.7,257.5,443.4z"/>
										</g>
									</g>
								</g>
							</g>
						</g>
					</g>
				</g>
			</g>
			<g>
				<g>
					<g>
						<g>
							<path class="st13" d="M268.5,457c1.9-1.1,3.5-0.3,3.5,2c0,2.2-1.6,4.9-3.4,6c-1.9,1.1-3.5,0.3-3.5-1.9
								C265,460.7,266.6,458.1,268.5,457z"/>
						</g>
					</g>
				</g>
				<g>
					<g>
						<g>
							<path class="st13" d="M316.7,429.1c1.9-1.1,3.5-0.3,3.5,2c0,2.2-1.5,4.8-3.4,6c-1.9,1.1-3.5,0.3-3.5-1.9
								C313.2,432.9,314.8,430.3,316.7,429.1z"/>
						</g>
					</g>
				</g>
				<g>
					<g>
						<g>
							<path class="st1" d="M308.7,434l0,7.4l-32.3,18.6l0-7.4L308.7,434z"/>
						</g>
					</g>
				</g>
			</g>
			<g>
				<g>
					<g>
						<g>
							<path class="st13" d="M250.8,457c-1.9-1.1-3.5-0.3-3.5,2c0,2.2,1.6,4.9,3.4,6c1.9,1.1,3.5,0.3,3.5-1.9
								C254.3,460.7,252.7,458.1,250.8,457z"/>
						</g>
					</g>
				</g>
				<g>
					<g>
						<g>
							<path class="st13" d="M202.6,429.1c-1.9-1.1-3.5-0.3-3.5,2c0,2.2,1.5,4.8,3.4,6c1.9,1.1,3.5,0.3,3.5-1.9
								C206.1,432.9,204.6,430.3,202.6,429.1z"/>
						</g>
					</g>
				</g>
				<g>
					<g>
						<g>
							<path class="st1" d="M210.6,434l0,7.4l32.3,18.6l0-7.4L210.6,434z"/>
						</g>
					</g>
				</g>
			</g>
		</g>
	</g>
	<g>
		<g>
			<g>
				<g>
					<g>
						<g>
							<g>
								<g>
									<g>
										<g>
											<path class="st9" d="M475.5,288l-0.1,30.8c0,0.5-0.3,1-1,1.4l-61.4,35.7c-1.3,0.7-3.4,0.7-4.7,0l-61.7-35.7
												c-0.7-0.4-1-0.8-1-1.4l0.1-30.8L475.5,288z"/>
										</g>
									</g>
								</g>
								<g>
									<g>
										<g>
											<path class="st10" d="M474.5,289.4L413.1,325c-1.3,0.7-3.4,0.7-4.7,0l-61.7-35.6c-1.3-0.8-1.3-2,0-2.7L408,251
												c1.3-0.7,3.4-0.7,4.7,0l61.7,35.6C475.8,287.4,475.8,288.6,474.5,289.4z"/>
										</g>
									</g>
								</g>
								<g>
									<g>
										<g>
											<g>
												<path class="st17" d="M412,266.1l40.2,23.2l0.6-0.4c0.8-0.5,0.8-1.3,0-1.8L412,263.6c-0.9-0.5-2.3-0.5-3.1,0l-40.5,23.5
													c-0.9,0.5-0.9,1.3,0,1.8l0.6,0.3l39.9-23.2C409.7,265.6,411.1,265.6,412,266.1z"/>
											</g>
										</g>
									</g>
									<g>
										<g>
											<g>
												<path class="st18" d="M412.3,312.5l39.9-23.2L412,266.1c-0.9-0.5-2.3-0.5-3.1,0L369,289.3l40.2,23.2
													C410,312.9,411.4,312.9,412.3,312.5z"/>
											</g>
										</g>
									</g>
								</g>
							</g>
						</g>
					</g>
				</g>
			</g>
			<g>
				<g>
					<g>
						<g>
							<path class="st13" d="M420.6,332.1c1.9-1.1,3.5-0.3,3.5,2c0,2.2-1.6,4.9-3.4,6c-1.9,1.1-3.5,0.3-3.5-1.9
								C417.1,335.9,418.7,333.3,420.6,332.1z"/>
						</g>
					</g>
				</g>
				<g>
					<g>
						<g>
							<path class="st13" d="M468.8,304.3c1.9-1.1,3.5-0.3,3.5,2c0,2.2-1.5,4.8-3.4,6c-1.9,1.1-3.5,0.3-3.5-1.9
								C465.3,308.1,466.8,305.5,468.8,304.3z"/>
						</g>
					</g>
				</g>
				<g>
					<g>
						<g>
							<path class="st1" d="M460.8,309.2l0,7.4l-32.3,18.6l0-7.4L460.8,309.2z"/>
						</g>
					</g>
				</g>
			</g>
			<g>
				<g>
					<g>
						<g>
							<path class="st13" d="M402.9,332.1c-1.9-1.1-3.5-0.3-3.5,2c0,2.2,1.6,4.9,3.4,6c1.9,1.1,3.5,0.3,3.5-1.9
								C406.4,335.9,404.8,333.3,402.9,332.1z"/>
						</g>
					</g>
				</g>
				<g>
					<g>
						<g>
							<path class="st13" d="M354.7,304.3c-1.9-1.1-3.5-0.3-3.5,2c0,2.2,1.5,4.8,3.4,6c1.9,1.1,3.5,0.3,3.5-1.9
								C358.2,308.1,356.6,305.5,354.7,304.3z"/>
						</g>
					</g>
				</g>
				<g>
					<g>
						<g>
							<path class="st1" d="M362.7,309.2l0,7.4l32.3,18.6l0-7.4L362.7,309.2z"/>
						</g>
					</g>
				</g>
			</g>
		</g>
		<g>
			<g>
				<g>
					<g>
						<g>
							<g>
								<g>
									<g>
										<g>
											<path class="st14" d="M164.8,288l-0.1,30.8c0,0.5-0.3,1-1,1.4l-61.4,35.7c-1.3,0.7-3.4,0.7-4.7,0L36,320.2
												c-0.7-0.4-1-0.8-1-1.4l0.1-30.8L164.8,288z"/>
										</g>
									</g>
								</g>
								<g>
									<g>
										<g>
											<path class="st15" d="M163.9,289.4L102.5,325c-1.3,0.7-3.4,0.7-4.7,0l-61.7-35.6c-1.3-0.8-1.3-2,0-2.7L97.4,251
												c1.3-0.7,3.4-0.7,4.7,0l61.7,35.6C165.1,287.4,165.1,288.6,163.9,289.4z"/>
										</g>
									</g>
								</g>
								<g>
									<g>
										<g>
											<g>
												<path class="st14" d="M101.4,266.1l40.2,23.2l0.6-0.4c0.8-0.5,0.8-1.3,0-1.8l-40.8-23.5c-0.9-0.5-2.3-0.5-3.1,0
													l-40.5,23.5c-0.9,0.5-0.9,1.3,0,1.8l0.6,0.3l39.9-23.2C99.1,265.6,100.5,265.6,101.4,266.1z"/>
											</g>
										</g>
									</g>
									<g>
										<g>
											<g>
												<path class="st18" d="M101.6,312.5l39.9-23.2l-40.2-23.2c-0.9-0.5-2.3-0.5-3.1,0l-39.9,23.2l40.2,23.2
													C99.4,312.9,100.8,312.9,101.6,312.5z"/>
											</g>
										</g>
									</g>
								</g>
							</g>
						</g>
					</g>
				</g>
			</g>
			<g>
				<g>
					<g>
						<g>
							<path class="st13" d="M110,332.1c1.9-1.1,3.5-0.3,3.5,2c0,2.2-1.6,4.9-3.4,6c-1.9,1.1-3.5,0.3-3.5-1.9
								C106.5,335.9,108,333.3,110,332.1z"/>
						</g>
					</g>
				</g>
				<g>
					<g>
						<g>
							<path class="st13" d="M158.1,304.3c1.9-1.1,3.5-0.3,3.5,2c0,2.2-1.5,4.8-3.4,6c-1.9,1.1-3.5,0.3-3.5-1.9
								C154.6,308.1,156.2,305.5,158.1,304.3z"/>
						</g>
					</g>
				</g>
				<g>
					<g>
						<g>
							<path class="st1" d="M150.2,309.2l0,7.4l-32.3,18.6l0-7.4L150.2,309.2z"/>
						</g>
					</g>
				</g>
			</g>
			<g>
				<g>
					<g>
						<g>
							<path class="st13" d="M92.2,332.1c-1.9-1.1-3.5-0.3-3.5,2c0,2.2,1.6,4.9,3.4,6c1.9,1.1,3.5,0.3,3.5-1.9
								C95.8,335.9,94.2,333.3,92.2,332.1z"/>
						</g>
					</g>
				</g>
				<g>
					<g>
						<g>
							<path class="st13" d="M44.1,304.3c-1.9-1.1-3.5-0.3-3.5,2c0,2.2,1.5,4.8,3.4,6c1.9,1.1,3.5,0.3,3.5-1.9
								C47.6,308.1,46,305.5,44.1,304.3z"/>
						</g>
					</g>
				</g>
				<g>
					<g>
						<g>
							<path class="st1" d="M52.1,309.2l0,7.4l32.3,18.6l0-7.4L52.1,309.2z"/>
						</g>
					</g>
				</g>
			</g>
		</g>
		<g>
			<g>
				<g>
					<g>
						<g>
							<g>
								<g>
									<g>
										<g>
											<path class="st16" d="M323.4,376.7l-0.1,30.8c0,0.5-0.3,1-1,1.4L261,444.5c-1.3,0.7-3.4,0.7-4.7,0l-61.7-35.7
												c-0.7-0.4-1-0.8-1-1.4l0.1-30.8L323.4,376.7z"/>
										</g>
									</g>
								</g>
								<g>
									<g>
										<g>
											<path class="st12" d="M322.4,378l-61.4,35.7c-1.3,0.7-3.4,0.7-4.7,0L194.6,378c-1.3-0.8-1.3-2,0-2.7l61.3-35.7
												c1.3-0.7,3.4-0.7,4.7,0l61.7,35.6C323.7,376,323.7,377.3,322.4,378z"/>
										</g>
									</g>
								</g>
								<g>
									<g>
										<g>
											<g>
												<path class="st11" d="M259.9,354.7l40.2,23.2l0.6-0.4c0.8-0.5,0.8-1.3,0-1.8l-40.8-23.5c-0.9-0.5-2.3-0.5-3.1,0
													l-40.5,23.5c-0.9,0.5-0.9,1.3,0,1.8l0.6,0.3l39.9-23.2C257.6,354.2,259.1,354.2,259.9,354.7z"/>
											</g>
										</g>
									</g>
									<g>
										<g>
											<g>
												<path class="st18" d="M260.2,401.1l39.9-23.2l-40.2-23.2c-0.9-0.5-2.3-0.5-3.1,0l-39.9,23.2l40.2,23.2
													C257.9,401.6,259.3,401.6,260.2,401.1z"/>
											</g>
										</g>
									</g>
								</g>
							</g>
						</g>
					</g>
				</g>
			</g>
			<g>
				<g>
					<g>
						<g>
							<path class="st13" d="M268.5,420.8c1.9-1.1,3.5-0.3,3.5,2c0,2.2-1.6,4.9-3.4,6c-1.9,1.1-3.5,0.3-3.5-1.9
								C265,424.6,266.6,421.9,268.5,420.8z"/>
						</g>
					</g>
				</g>
				<g>
					<g>
						<g>
							<path class="st13" d="M316.7,393c1.9-1.1,3.5-0.3,3.5,2c0,2.2-1.5,4.8-3.4,6c-1.9,1.1-3.5,0.3-3.5-1.9
								C313.2,396.7,314.8,394.1,316.7,393z"/>
						</g>
					</g>
				</g>
				<g>
					<g>
						<g>
							<path class="st1" d="M308.7,397.8l0,7.4l-32.3,18.6l0-7.4L308.7,397.8z"/>
						</g>
					</g>
				</g>
			</g>
			<g>
				<g>
					<g>
						<g>
							<path class="st13" d="M250.8,420.8c-1.9-1.1-3.5-0.3-3.5,2c0,2.2,1.6,4.9,3.4,6c1.9,1.1,3.5,0.3,3.5-1.9
								C254.3,424.6,252.7,421.9,250.8,420.8z"/>
						</g>
					</g>
				</g>
				<g>
					<g>
						<g>
							<path class="st13" d="M202.6,393c-1.9-1.1-3.5-0.3-3.5,2c0,2.2,1.5,4.8,3.4,6c1.9,1.1,3.5,0.3,3.5-1.9
								C206.1,396.7,204.6,394.1,202.6,393z"/>
						</g>
					</g>
				</g>
				<g>
					<g>
						<g>
							<path class="st1" d="M210.6,397.8l0,7.4l32.3,18.6l0-7.4L210.6,397.8z"/>
						</g>
					</g>
				</g>
			</g>
		</g>
	</g>
</g>
<g>
	<g id="OBJECTS">
		<g>
			<polygon class="st19" points="220.6,114.2 226.8,122.8 223.5,122.3 217.3,113.7 			"/>
			
				<linearGradient id="SVGID_1_" gradientUnits="userSpaceOnUse" x1="435.1195" y1="319.1694" x2="505.5401" y2="380.2726" gradientTransform="matrix(1 0 0 -1 -203.7553 454.9268)">
				<stop  offset="0" style="stop-color:#D13F05"/>
				<stop  offset="0.2925" style="stop-color:#F67205"/>
				<stop  offset="0.3667" style="stop-color:#F67705"/>
				<stop  offset="0.4526" style="stop-color:#F68505"/>
				<stop  offset="0.5441" style="stop-color:#F69C05"/>
				<stop  offset="0.5638" style="stop-color:#F6A205"/>
				<stop  offset="0.5977" style="stop-color:#F69005"/>
				<stop  offset="0.6432" style="stop-color:#F67F05"/>
				<stop  offset="0.6931" style="stop-color:#F67505"/>
				<stop  offset="0.7553" style="stop-color:#F67205"/>
				<stop  offset="1" style="stop-color:#D13F05"/>
			</linearGradient>
			<path class="st20" d="M292.4,62.9c2.1,2.9,4.2,5.7,6.3,8.6c4.2,5.9,6.5,13,6.4,20.3l-6.3-8.6C298.8,75.9,296.6,68.8,292.4,62.9z"
				/>
			<polygon class="st21" points="298.8,83.2 305,91.8 301.8,94.1 295.6,85.5 			"/>
			<polygon class="st19" points="267.1,125.2 273.3,133.8 272,136 265.7,127.4 			"/>
			
				<linearGradient id="SVGID_2_" gradientUnits="userSpaceOnUse" x1="437.3332" y1="316.6245" x2="507.75" y2="377.7246" gradientTransform="matrix(1 0 0 -1 -203.7553 454.9268)">
				<stop  offset="0" style="stop-color:#D13F05"/>
				<stop  offset="0.2925" style="stop-color:#F67205"/>
				<stop  offset="0.3667" style="stop-color:#F67705"/>
				<stop  offset="0.4526" style="stop-color:#F68505"/>
				<stop  offset="0.5441" style="stop-color:#F69C05"/>
				<stop  offset="0.5638" style="stop-color:#F6A205"/>
				<stop  offset="0.5977" style="stop-color:#F69005"/>
				<stop  offset="0.6432" style="stop-color:#F67F05"/>
				<stop  offset="0.6931" style="stop-color:#F67505"/>
				<stop  offset="0.7553" style="stop-color:#F67205"/>
				<stop  offset="1" style="stop-color:#D13F05"/>
			</linearGradient>
			<path class="st22" d="M265.7,127.4l6.3,8.6c-8.9,3.5-18.8,4.1-28.1,1.6c-6.6-1.8-12.5-5.4-17-10.6l-6.3-8.6
				c4.5,5.1,10.4,8.8,17,10.6C246.9,131.5,256.8,130.9,265.7,127.4z"/>
			<polygon class="st23" points="269.4,125.9 275.6,134.5 273.3,133.8 267.1,125.2 			"/>
			
				<linearGradient id="SVGID_3_" gradientUnits="userSpaceOnUse" x1="447.2222" y1="305.2273" x2="517.6401" y2="366.3283" gradientTransform="matrix(1 0 0 -1 -203.7553 454.9268)">
				<stop  offset="0" style="stop-color:#D13F05"/>
				<stop  offset="0.2925" style="stop-color:#F67205"/>
				<stop  offset="0.3667" style="stop-color:#F67705"/>
				<stop  offset="0.4526" style="stop-color:#F68505"/>
				<stop  offset="0.5441" style="stop-color:#F69C05"/>
				<stop  offset="0.5638" style="stop-color:#F6A205"/>
				<stop  offset="0.5977" style="stop-color:#F69005"/>
				<stop  offset="0.6432" style="stop-color:#F67F05"/>
				<stop  offset="0.6931" style="stop-color:#F67505"/>
				<stop  offset="0.7553" style="stop-color:#F67205"/>
				<stop  offset="1" style="stop-color:#D13F05"/>
			</linearGradient>
			<path class="st24" d="M298.6,86.4l6.3,8.6c-0.4,4.9-1.7,9.8-3.8,14.2c-5.2,11.2-14.3,20.1-25.5,25.2l-6.3-8.6
				c11.2-5.1,20.2-14.1,25.5-25.2C296.9,96.1,298.2,91.3,298.6,86.4z"/>
			
				<linearGradient id="SVGID_4_" gradientUnits="userSpaceOnUse" x1="421.1685" y1="333.4082" x2="498.9531" y2="396.6759" gradientTransform="matrix(1 0 0 -1 -203.7553 454.9268)">
				<stop  offset="0" style="stop-color:#FFFFFF;stop-opacity:0"/>
				<stop  offset="0.2606" style="stop-color:#FFFFFF"/>
				<stop  offset="0.7553" style="stop-color:#FFFFFF"/>
				<stop  offset="1" style="stop-color:#FFFFFF;stop-opacity:0"/>
			</linearGradient>
			<path class="st25" d="M299,86.9c-0.4,4.9-1.7,9.8-3.8,14.2c-5.2,11.2-14.3,20.1-25.5,25.2l-2.3-0.6l-1.4,2.2
				c-8.9,3.5-18.8,4.1-28.1,1.6c-6.6-1.8-12.5-5.4-17-10.6l-0.1-4.3l-3.3-0.4c-5.8-9.8-6.5-22.6-0.8-35.1c1.7-3.7,3.9-7.2,6.4-10.4
				c1.3-0.6,2.7-1.3,3.9-2l0.6-2.9C238.4,53.6,253.1,48,267,49.3l3,2.4l8.5,0.4c13.1,5.5,20.7,17.7,20.7,31.5L296,86L299,86.9z"/>
			
				<linearGradient id="SVGID_5_" gradientUnits="userSpaceOnUse" x1="489.494" y1="352.5986" x2="410.6015" y2="385.924" gradientTransform="matrix(1 0 0 -1 -203.7553 454.9268)">
				<stop  offset="0" style="stop-color:#FFAF02"/>
				<stop  offset="1" style="stop-color:#F56D05"/>
			</linearGradient>
			<path class="st26" d="M298.6,86.4c-0.4,4.9-1.7,9.8-3.8,14.2c-5.2,11.2-14.3,20.1-25.5,25.2l-2.3-0.6l-1.4,2.2
				c-8.9,3.5-18.8,4.1-28.1,1.6c-6.6-1.8-12.5-5.4-17-10.6l-0.1-4.3l-3.3-0.4c-5.8-9.8-6.5-22.6-0.8-35.1c1.7-3.7,3.9-7.2,6.4-10.4
				c1.3-0.6,2.7-1.3,3.9-2l0.6-2.9c10.6-10.2,25.3-15.8,39.2-14.4l3,2.4l8.5,0.4c13.1,5.5,20.7,17.7,20.7,31.5l-3.2,2.3L298.6,86.4z
				"/>
			
				<linearGradient id="SVGID_6_" gradientUnits="userSpaceOnUse" x1="430.5227" y1="392.3297" x2="476.3117" y2="348.5626" gradientTransform="matrix(1 0 0 -1 -203.7553 454.9268)">
				<stop  offset="0" style="stop-color:#FFFFFF;stop-opacity:0"/>
				<stop  offset="0.2606" style="stop-color:#FFFFFF"/>
				<stop  offset="0.7553" style="stop-color:#FFFFFF"/>
				<stop  offset="1" style="stop-color:#FFFFFF;stop-opacity:0"/>
			</linearGradient>
			<path class="st27" d="M268,60.7c15.7,4.4,22.6,20.9,15.4,36.7c-7.2,15.9-25.9,25.1-41.6,20.7c-15.7-4.4-22.6-20.9-15.4-36.7
				S252.2,56.3,268,60.7z"/>
			
				<linearGradient id="SVGID_7_" gradientUnits="userSpaceOnUse" x1="428.0163" y1="365.3209" x2="490.8029" y2="365.3209" gradientTransform="matrix(1 0 0 -1 -203.7553 454.9268)">
				<stop  offset="0" style="stop-color:#CF4505"/>
				<stop  offset="1" style="stop-color:#E45905"/>
			</linearGradient>
			<path class="st28" d="M268.8,60.9c15.7,4.4,22.6,20.9,15.4,36.7c-7.2,15.9-25.9,25.1-41.6,20.7c-15.7-4.4-22.6-20.9-15.4-36.7
				C234.4,65.7,253,56.5,268.8,60.9z"/>
			<path class="st29" d="M245,118.8c-15.7-4.4-22.6-20.9-15.4-36.7c6.7-14.7,23.2-23.7,38.1-21.4c-15.5-3.8-33.5,5.4-40.6,21
				c-7.2,15.9-0.4,32.3,15.4,36.7c1.2,0.3,2.3,0.6,3.5,0.8C245.7,119,245.4,118.9,245,118.8z"/>
			
				<radialGradient id="SVGID_8_" cx="-1423.7914" cy="-172.7509" r="23.4764" gradientTransform="matrix(7.290000e-02 7.410000e-02 0.4921 -0.4845 472.0643 138.2714)" gradientUnits="userSpaceOnUse">
				<stop  offset="0" style="stop-color:#FFFFFF"/>
				<stop  offset="8.578000e-02" style="stop-color:#FFFFFF;stop-opacity:0.9583"/>
				<stop  offset="0.2351" style="stop-color:#FFFFFF;stop-opacity:0.8462"/>
				<stop  offset="0.4301" style="stop-color:#FFFFFF;stop-opacity:0.6642"/>
				<stop  offset="0.6634" style="stop-color:#FFFFFF;stop-opacity:0.4119"/>
				<stop  offset="0.9261" style="stop-color:#FFFFFF;stop-opacity:9.449000e-02"/>
				<stop  offset="1" style="stop-color:#FFFFFF;stop-opacity:0"/>
			</radialGradient>
			<path class="st30" d="M285,118.2c-6.4,6.3-12.3,10.6-13.3,9.6c-0.9-1,3.5-6.8,9.8-13.1c6.4-6.3,12.3-10.6,13.3-9.6
				C295.8,106.1,291.4,111.9,285,118.2z"/>
			
				<linearGradient id="SVGID_9_" gradientUnits="userSpaceOnUse" x1="449.0835" y1="377.4205" x2="477.3902" y2="344.2103" gradientTransform="matrix(1 0 0 -1 -203.7553 454.9268)">
				<stop  offset="0" style="stop-color:#FFFFFF"/>
				<stop  offset="1" style="stop-color:#FFFFFF;stop-opacity:0"/>
			</linearGradient>
			<path class="st31" d="M289.6,59.6l-68.9,57.1l0,1.8c4.5,5.1,10.4,8.8,17,10.6c1.6,0.4,3.2,0.8,4.8,1l53.6-44.4l-0.5-0.1l3.2-2.3
				C298.9,74.4,295.6,66,289.6,59.6z"/>
			
				<linearGradient id="SVGID_10_" gradientUnits="userSpaceOnUse" x1="432.5816" y1="392.6956" x2="447.7222" y2="377.3372" gradientTransform="matrix(1 0 0 -1 -203.7553 454.9268)">
				<stop  offset="0" style="stop-color:#FFFFFF"/>
				<stop  offset="1" style="stop-color:#FFFFFF;stop-opacity:0"/>
			</linearGradient>
			<path class="st32" d="M269.6,51.3l-3-2.4c-4.1-0.4-8.3-0.2-12.4,0.6l-39.1,32.4c-2.2,5.7-3,11.9-2.5,18l58.5-48.4L269.6,51.3z"/>
			<g>
				<defs>
					<rect id="SVGID_11_" x="237.9" y="67.1" width="43.7" height="45"/>
				</defs>
				<clipPath id="SVGID_12_">
					<use xlink:href="#SVGID_11_"  style="overflow:visible;"/>
				</clipPath>
				<g class="st33">
					
						<linearGradient id="SVGID_13_" gradientUnits="userSpaceOnUse" x1="2408.4573" y1="1602.3156" x2="2408.4573" y2="1557.3044" gradientTransform="matrix(1 0 0 1 -2148.7554 -1490.2074)">
						<stop  offset="0" style="stop-color:#FFC000"/>
						<stop  offset="0.28" style="stop-color:#FFC000"/>
						<stop  offset="0.55" style="stop-color:#DAA600"/>
						<stop  offset="1" style="stop-color:#DAA600"/>
					</linearGradient>
					<path class="st34" d="M245.5,85.4c-0.2-0.2-0.4-0.4-0.5-0.6c-1.9-2.3-3.2-4.9-3.9-7.7c-0.5-2-0.6-4.1-0.4-6.2
						c0.1-1.1,0.4-2.2,0.9-3.1c0.3-0.6,1-0.9,1.6-0.6c0,0,0,0,0,0c1.4,0.5,2.5,1.5,3.3,2.7c2,2.7,3.4,5.8,4,9.1
						c0.2,1,0.2,2.1,0.3,3.1c0,0.4,0.1,0.8,0.1,1.2c0,0.3,0.2,0.5,0.6,0.4c1.4-0.2,2.9-0.1,4.3,0.3c1.2,0.3,2.4,0.7,3.6,1.2
						c1.7,0.7,3.2,1.7,4.4,3c0.1,0.2,0.4,0.2,0.6,0.1c0,0,0,0,0,0c0,0,0.1-0.1,0.1-0.1c0.3-0.3,0.6-0.6,0.9-0.9
						c2.7-3.1,6.3-5.3,10.3-6.4c1.3-0.4,2.6-0.5,3.9-0.4c0.6,0.1,1.2,0.3,1.7,0.5c0.2,0.2,0.4,0.4,0.4,0.7c0,0.4,0,0.8-0.1,1.1
						c-0.5,1.5-1.4,2.9-2.6,4.1c-2.8,3.1-6.6,5.3-10.7,6c-0.3,0.1-0.6,0.1-1,0.1c0.1,0.3,0.1,0.5,0.2,0.7c0.4,1.4,0.6,2.9,0.5,4.4
						c0,1.8-0.3,3.5-0.9,5.2c-0.6,1.9-1.6,3.7-2.9,5.3c-1.2,1.5-2.9,2.5-4.8,2.8c-1.3,0.4-2.7,0.5-4.1,0.3c-1.3-0.2-2.7-0.4-4-0.7
						c-1.4-0.4-2.7-0.8-4-1.4c-2.2-0.8-4.2-2-5.9-3.5c-1.8-1.5-3-3.6-3.4-5.9c-0.1-1.1-0.1-2.2,0.1-3.3c0.2-1.4,0.6-2.8,1.1-4.1
						c0.8-2.1,2.1-4,3.7-5.6c0.7-0.7,1.6-1.3,2.4-2L245.5,85.4z M246.9,101.5l0,0.1c-1.5-0.1-1.8,0.9-1.5,2c0,0.2,0.1,0.3,0.1,0.5
						c0.3,1.2,1.1,2.3,2.2,2.9c1.1,0.5,2.2,1,3.4,1.3c1.6,0.5,3.4,0.1,4.7-1.1c0.6-0.4,0.8-1.1,0.4-1.7c-0.1-0.1-0.2-0.3-0.3-0.4
						c-0.7-0.5-1.4-1-2.2-1.3c-1.3-0.6-2.6-1-3.9-1.5C248.8,101.9,247.9,101.7,246.9,101.5L246.9,101.5z M245.7,90.2
						c0-1-0.4-1.5-1.1-1.7c-0.6-0.1-1.2,0.1-1.6,0.7c-1.5,1.9-2.6,4-3.3,6.3c-0.1,0.4-0.1,0.8-0.1,1.1c0.1,0.7,0.7,1.2,1.4,1.1
						c0.3,0,0.7-0.2,0.9-0.5c0.5-0.7,1.1-1.5,1.5-2.3c0.6-1,1.1-2.1,1.7-3.1C245.3,91.2,245.5,90.7,245.7,90.2L245.7,90.2z
						 M266.7,98.3c0-0.4-0.1-0.8-0.2-1.3c-0.2-0.7-1-1.2-1.7-1c0,0,0,0,0,0c0,0-0.1,0-0.1,0c-0.5,0.2-0.9,0.7-1,1.3
						c-0.5,1.9-0.9,3.8-1.3,5.8c-0.1,0.6-0.1,1.2,0,1.8c0.1,0.7,0.8,1.1,1.4,0.9c0.2,0,0.3-0.1,0.4-0.2c0.5-0.3,0.8-0.7,0.9-1.3
						c0.4-1.1,0.7-2.2,1-3.3C266.4,100.3,266.5,99.2,266.7,98.3L266.7,98.3z"/>
				</g>
			</g>
		</g>
	</g>
</g>
<g class="st35">
	<g>
		<g>
			<path class="st16" d="M192.2,56.7l0.1,86.6c0,9.7,6.4,19.5,19.2,26.9c25.8,15,67.7,15,93.6,0c13-7.5,19.5-17.4,19.5-27.3
				l-0.1-86.6c0,9.9-6.5,19.7-19.5,27.3c-25.9,15-67.8,15-93.6,0C198.6,76.2,192.2,66.5,192.2,56.7L192.2,56.7z"/>
		</g>
	</g>
	<g>
		<g>
			<path class="st12" d="M211.7,29.4c-25.9,15-26.1,39.2-0.4,54.2c25.8,15,67.7,15,93.6,0c25.9-14.9,26-39.2,0.2-54.2
				C279.5,14.5,237.6,14.5,211.7,29.4z"/>
		</g>
	</g>
</g>
</svg>
