<svg id="Layer_1" enable-background="new 0 0 52 52" height="512" viewBox="0 0 52 52" width="512" xmlns="http://www.w3.org/2000/svg"><g id="_x32_0"><path d="m41.4 10.4-27.2 15.8v-3.7c0-.8.5-1.7 1.2-2.1l25.5-14.8c.3-.2.5 0 .5.3z" fill="#c9cee2"/><path d="m43.1 30.4c0 1.8-1.3 4-2.8 4.8l-24.9 14.4c-.9.5-1.6.5-2.2.1 0 0 .1.1.2.1l-3.6-2.1c-.5-.3-.8-.9-.8-1.8l-.1-20.9 3.6 2.1.1 20.9-.1-20.9 1.6-.9 27.3-15.8 1.6-.9z" fill="#c9cee2"/><path d="m43 9.5.1 20.9c0 1.8-1.2 3.9-2.8 4.8l-24.9 14.4c-1.6.9-2.8.2-2.8-1.6l-.1-20.9z" fill="#e3e7f0"/><path d="m40.9 5.6c.3-.2.5 0 .5.3l.1 25.3c0 .8-.5 1.7-1.2 2.1l-24.9 14.3c-.7.4-1.2.1-1.2-.7l-.1-24.5c0-.8.5-1.7 1.2-2.1z" fill="#fff"/><path d="m13.4 49.8-3.6-2.1c-.5-.3-.8-.9-.8-1.8l-.1-20.9 3.6 2.1.1 20.9c0 .9.3 1.5.8 1.8z" fill="#c9cee2"/><path d="m12.6 27.1-3.7-2.1 31.7-16.8 2.4 1.3z" fill="#c3c7cf"/><g fill="#bf7d5a"><path d="m40.9 4.4c.4-.2.8-.3 1.1-.3-.3 0-.7.1-1.1.3z"/><path d="m43 5.6c0-.7-.2-1.1-.6-1.3 0 0-.1 0-.1-.1l-3.5-2.1c-.4-.2-.9-.2-1.5.1l-25.6 14.8c-1.5.9-2.8 3.1-2.8 4.8v3.1l3.6 2.1v-3.1c0-.4.1-.9.2-1.4-.1.5-.2.9-.2 1.4v3.1l30.5-17.5zm-2.1-1.2c.4-.2.8-.3 1.1-.3-.3 0-.7.1-1.1.3z"/><path d="m40.9 4.4c.4-.2.8-.3 1.1-.3-.3 0-.7.1-1.1.3z"/><path d="m42.4 4.3c-.4-.3-.9-.2-1.5.1l-25.6 14.8c-1.6.9-2.8 3.1-2.8 4.8v3.1l-3.6-2.1v-3.1c0-1.8 1.2-3.9 2.8-4.8l25.5-14.8c.6-.3 1.1-.4 1.5-.1z"/></g><path d="m40.9 4.4c1.2-.7 2.1-.1 2.1 1.2v3.9l-30.4 17.6v-3.1c0-1.8 1.2-3.9 2.8-4.8z" fill="#dba660"/><g><path d="m15.5 21.3c.6-.4 1.2-.1 1.2.7 0 .7-.5 1.6-1.2 2-.6.4-1.2.1-1.2-.7s.5-1.7 1.2-2z" fill="#fff"/></g><g><path d="m19.2 19.1c.6-.4 1.2-.1 1.2.7 0 .7-.5 1.6-1.2 2-.6.4-1.2.1-1.2-.7 0-.7.5-1.6 1.2-2z" fill="#fff"/></g><g><path d="m22.9 17c.6-.4 1.2-.1 1.2.7 0 .7-.5 1.6-1.2 2-.6.4-1.2.1-1.2-.7 0-.7.5-1.6 1.2-2z" fill="#fff"/></g><g><path d="m40.7 7.2c.3-.2.6 0 .6.3 0 .4-.3.8-.6 1l-10.9 6.3c-.3.2-.6 0-.6-.3 0-.4.3-.8.6-1z" fill="#fff"/></g><g><g><g><path d="m20.7 27.8 2.3 2.5c-1.8 2.6-3 5.8-3.1 8.7l-4 2.3c.1-4.4 2-9.4 4.8-13.5z" fill="#57b3fe"/></g><g><path d="m34.8 19.7c2.9.8 4.8 3.5 4.9 7.9l-4 2.3c-.1-2.8-1.3-4.5-3.2-5.1z" fill="#f45170"/></g><g><path d="m27.8 21.1c2.6-1.5 5.1-1.9 7.1-1.4l-2.2 5.1c-1.3-.4-3-.1-4.8.9s-3.5 2.7-4.8 4.6l-2.3-2.5c1.9-2.8 4.3-5.2 7-6.7z" fill="#f3f1fc"/></g></g><g><path d="m31.8 21.5c.2-.1.3-.1.5-.1.5 0 .6.6.4 1.3l-6.2 16c-.2.5-.5.9-.8 1-.2.1-.3.1-.5.1-.5 0-.6-.6-.4-1.3l6.2-15.9c.2-.5.5-.9.8-1.1z" fill="#4c5c75"/></g><g><g><path d="m27.7 29.7c1.6-.9 2.9-.2 2.9 1.7s-1.3 4.1-2.9 5.1c-1.6.9-2.9.2-2.9-1.7s1.3-4.2 2.9-5.1z" fill="#ffd06c"/></g><g><path d="m27.7 31.4c.8-.5 1.5-.1 1.5.8s-.7 2.1-1.5 2.5c-.8.5-1.5.1-1.5-.8s.7-2.1 1.5-2.5z" fill="#febc1f"/></g></g></g></g></svg>