<?xml version="1.0" encoding="utf-8"?>
<!-- Generator: Adobe Illustrator 25.2.1, SVG Export Plug-In . SVG Version: 6.00 Build 0)  -->
<svg version="1.1" id="Layer_1" xmlns="http://www.w3.org/2000/svg" xmlns:xlink="http://www.w3.org/1999/xlink" x="0px" y="0px"
	 viewBox="0 0 512 512" style="enable-background:new 0 0 512 512;" xml:space="preserve">
<style type="text/css">
	.st0{fill:#DEDFFB;}
	.st1{enable-background:new    ;}
	.st2{fill:#F3F1FC;}
	.st3{fill:#9EA9C9;}
	.st4{fill:#4C5C75;}
	.st5{fill:#FFFFFF;}
	.st6{fill:#497BFE;}
	.st7{opacity:0.7;}
	.st8{fill:#8FABFE;}
	.st9{fill:#7E5AF2;}
	.st10{fill:#78E75A;}
	.st11{fill:#5EC363;}
	.st12{fill:#72D561;}
	.st13{opacity:0.2;}
	.st14{fill:#5094FF;}
	.st15{fill:#57B3FE;}
	.st16{fill:#D84905;}
	.st17{fill:url(#SVGID_1_);}
	.st18{fill:#F67205;}
	.st19{fill:url(#SVGID_2_);}
	.st20{fill:#F69D05;}
	.st21{fill:url(#SVGID_3_);}
	.st22{opacity:0.7;fill:url(#SVGID_4_);enable-background:new    ;}
	.st23{fill:url(#SVGID_5_);}
	.st24{opacity:0.7;fill:url(#SVGID_6_);enable-background:new    ;}
	.st25{fill:url(#SVGID_7_);}
	.st26{fill:#BA3E05;}
	.st27{opacity:0.5;fill:url(#SVGID_8_);enable-background:new    ;}
	.st28{opacity:0.4;fill:url(#SVGID_9_);enable-background:new    ;}
	.st29{opacity:0.4;fill:url(#SVGID_10_);enable-background:new    ;}
	.st30{clip-path:url(#SVGID_12_);}
	.st31{fill-rule:evenodd;clip-rule:evenodd;fill:url(#SVGID_13_);}
	.st32{fill:url(#SVGID_14_);}
	.st33{fill:url(#SVGID_15_);}
	.st34{fill:url(#SVGID_16_);}
	.st35{opacity:0.7;fill:url(#SVGID_17_);enable-background:new    ;}
	.st36{fill:url(#SVGID_18_);}
	.st37{opacity:0.7;fill:url(#SVGID_19_);enable-background:new    ;}
	.st38{fill:url(#SVGID_20_);}
	.st39{opacity:0.5;fill:url(#SVGID_21_);enable-background:new    ;}
	.st40{opacity:0.4;fill:url(#SVGID_22_);enable-background:new    ;}
	.st41{opacity:0.4;fill:url(#SVGID_23_);enable-background:new    ;}
	.st42{clip-path:url(#SVGID_25_);}
	.st43{fill-rule:evenodd;clip-rule:evenodd;fill:url(#SVGID_26_);}
	.st44{fill:url(#SVGID_27_);}
	.st45{fill:url(#SVGID_28_);}
	.st46{fill:url(#SVGID_29_);}
	.st47{opacity:0.7;fill:url(#SVGID_30_);enable-background:new    ;}
	.st48{fill:url(#SVGID_31_);}
	.st49{opacity:0.7;fill:url(#SVGID_32_);enable-background:new    ;}
	.st50{fill:url(#SVGID_33_);}
	.st51{opacity:0.5;fill:url(#SVGID_34_);enable-background:new    ;}
	.st52{opacity:0.4;fill:url(#SVGID_35_);enable-background:new    ;}
	.st53{opacity:0.4;fill:url(#SVGID_36_);enable-background:new    ;}
	.st54{clip-path:url(#SVGID_38_);}
	.st55{fill-rule:evenodd;clip-rule:evenodd;fill:url(#SVGID_39_);}
	.st56{fill:url(#SVGID_40_);}
	.st57{fill:url(#SVGID_41_);}
	.st58{fill:url(#SVGID_42_);}
	.st59{opacity:0.7;fill:url(#SVGID_43_);enable-background:new    ;}
	.st60{fill:url(#SVGID_44_);}
	.st61{opacity:0.7;fill:url(#SVGID_45_);enable-background:new    ;}
	.st62{fill:url(#SVGID_46_);}
	.st63{opacity:0.5;fill:url(#SVGID_47_);enable-background:new    ;}
	.st64{opacity:0.4;fill:url(#SVGID_48_);enable-background:new    ;}
	.st65{opacity:0.4;fill:url(#SVGID_49_);enable-background:new    ;}
	.st66{clip-path:url(#SVGID_51_);}
	.st67{fill-rule:evenodd;clip-rule:evenodd;fill:url(#SVGID_52_);}
</style>
<g>
	<g>
		<g>
			<path class="st0" d="M147.5,207c0,9.6-6.3,19-18.9,26.3c-25,14.5-65.5,14.5-90.3,0c-12.4-7.1-18.5-16.5-18.6-25.9v-50
				c0-9.5,6.2-19,18.8-26.3c25-14.5,65.5-14.5,90.3,0c12.4,7.2,18.6,16.6,18.6,26L147.5,207z"/>
		</g>
	</g>
	<g>
		<g>
			<g class="st1">
				<g>
					<g>
						<path class="st0" d="M19.7,157.4l0.1,50c0,9.4,6.2,18.8,18.6,26c24.8,14.4,65.3,14.4,90.3,0c12.6-7.3,18.9-16.8,18.9-26.4
							l-0.1-49.9c0,9.5-6.3,19-18.9,26.3c-25,14.5-65.4,14.5-90.3,0C25.8,176.2,19.7,166.8,19.7,157.4z"/>
					</g>
				</g>
			</g>
		</g>
		<g>
			<g>
				<path class="st2" d="M38.5,131.1c-25,14.4-25.2,37.9-0.3,52.3c24.9,14.4,65.3,14.4,90.3,0s25.2-37.9,0.3-52.3
					C104,116.7,63.5,116.7,38.5,131.1z"/>
			</g>
		</g>
		<g>
			<path class="st3" d="M38.4,161.5c1.2,5.5,5.5,10.9,12.8,15.1c17.7,10.3,46.5,10.3,64.3,0c7.4-4.3,11.8-9.7,13-15.3
				c1.8-7.8-2.5-15.9-12.8-22c-17.7-10.3-46.5-10.3-64.3,0C41,145.4,36.7,153.6,38.4,161.5z"/>
		</g>
		<g>
			<path class="st4" d="M38.4,161.5c1.2,5.5,5.5,10.9,12.8,15.1c17.7,10.3,46.5,10.3,64.3,0c7.4-4.3,11.8-9.7,13-15.3
				c-1.2-5.5-5.5-10.9-12.8-15.1c-17.7-10.3-46.5-10.3-64.3,0C44,150.5,39.7,155.9,38.4,161.5z"/>
		</g>
	</g>
	<g>
		<path class="st5" d="M68.4,216.8c0,8.3,6.7,15.2,15.2,15.2s15.2-6.8,15.2-15.2c0-8.4-6.7-15.2-15.2-15.2S68.4,208.4,68.4,216.8z"
			/>
	</g>
	<g>
		<path class="st3" d="M72.5,216.8c0,6.1,4.9,11.1,11.1,11.1c6.2,0,11.1-5,11.1-11.1c0-6.2-4.9-11.2-11.1-11.2
			C77.4,205.7,72.5,210.7,72.5,216.8z"/>
	</g>
</g>
<g>
	<g>
		<g>
			<path class="st0" d="M492.2,158c0.3-9.7-6-19.5-18.8-27c-25-14.5-65.5-14.5-90.3,0c-12.4,7.2-18.6,16.6-18.6,26l-0.1,49.9
				c0,9.6,6.3,19,18.9,26.3c25,14.5,65.5,14.5,90.3,0c12.4-7.1,18.5-16.5,18.6-25.9l0.1-50C492.3,157.6,492.3,157.8,492.2,158z
				 M492.1,159.3c-0.1,1.3-0.2,2.5-0.6,3.7C491.9,161.8,492,160.5,492.1,159.3z"/>
		</g>
	</g>
	<g>
		<g>
			<g class="st1">
				<g>
					<g>
						<path class="st0" d="M492.3,157.4l-0.1,50c0,9.4-6.2,18.8-18.6,26c-24.8,14.4-65.3,14.4-90.3,0c-12.6-7.3-18.9-16.8-18.9-26.4
							l0.1-49.9c0,9.5,6.3,19,18.9,26.3c25,14.5,65.4,14.5,90.3,0C486.1,176.2,492.3,166.8,492.3,157.4z"/>
					</g>
				</g>
			</g>
		</g>
		<g>
			<g>
				<path class="st2" d="M473.4,131.1c25,14.4,25.2,37.9,0.3,52.3s-65.3,14.4-90.3,0c-25-14.4-25.2-37.9-0.3-52.3
					C408,116.7,448.4,116.7,473.4,131.1z"/>
			</g>
		</g>
		<g>
			<path class="st3" d="M473.5,161.5c-1.2,5.5-5.5,10.9-12.8,15.1c-17.7,10.3-46.5,10.3-64.3,0c-7.4-4.3-11.8-9.7-13-15.3
				c-1.8-7.8,2.5-15.9,12.8-22c17.7-10.3,46.5-10.3,64.3,0C470.9,145.4,475.3,153.6,473.5,161.5z"/>
		</g>
		<g>
			<path class="st4" d="M473.5,161.5c-1.2,5.5-5.5,10.9-12.8,15.1c-17.7,10.3-46.5,10.3-64.3,0c-7.4-4.3-11.8-9.7-13-15.3
				c1.2-5.5,5.5-10.9,12.8-15.1c17.7-10.3,46.5-10.3,64.3,0C467.9,150.5,472.3,155.9,473.5,161.5z"/>
		</g>
	</g>
	<g>
		<path class="st5" d="M443.5,216.8c0,8.3-6.7,15.2-15.2,15.2c-8.4,0-15.2-6.8-15.2-15.2c0-8.4,6.7-15.2,15.2-15.2
			C436.8,201.6,443.5,208.4,443.5,216.8z"/>
	</g>
	<g>
		<path class="st3" d="M439.5,216.8c0,6.1-4.9,11.1-11.1,11.1c-6.2,0-11.1-5-11.1-11.1c0-6.2,4.9-11.2,11.1-11.2
			C434.5,205.7,439.5,210.7,439.5,216.8z"/>
	</g>
</g>
<g>
	<g>
		<g>
			<g>
				<path class="st6" d="M122.3,203.7c4.1-2.4,7.5-0.5,7.5,4.3c0,4.7-3.3,10.4-7.5,12.8c-4.1,2.4-7.5,0.6-7.5-4.2
					C114.8,211.9,118.2,206.1,122.3,203.7z"/>
			</g>
		</g>
		<g class="st7">
			<g class="st1">
				<g>
					<g>
						<path class="st8" d="M253.3,276.2c-1.4-0.8-3.2-0.7-5.3,0.5c-4.2,2.4-7.5,8.1-7.5,12.9c0,2.3,0.8,4,2.2,4.8l-125.6-73
							c-1.3-0.8-2.1-2.4-2.2-4.8c0-4.8,3.3-10.6,7.5-12.9c2.1-1.2,4-1.3,5.3-0.5L253.3,276.2z"/>
					</g>
				</g>
			</g>
		</g>
	</g>
	<g>
		<g>
			<g>
				<path class="st6" d="M385.3,203.7c-4.1-2.4-7.5-0.5-7.5,4.3c0,4.7,3.3,10.4,7.5,12.8s7.5,0.6,7.5-4.2
					C392.8,211.9,389.5,206.1,385.3,203.7z"/>
			</g>
		</g>
		<g class="st7">
			<g class="st1">
				<g>
					<g>
						<path class="st8" d="M254.4,276.2c1.4-0.8,3.2-0.7,5.3,0.5c4.2,2.4,7.5,8.1,7.5,12.9c0,2.3-0.8,4-2.2,4.8l125.6-73
							c1.3-0.8,2.1-2.4,2.2-4.8c0-4.8-3.3-10.6-7.5-12.9c-2.1-1.2-4-1.3-5.3-0.5L254.4,276.2z"/>
					</g>
				</g>
			</g>
		</g>
	</g>
</g>
<g>
	<g>
		<g>
			<g>
				<path class="st0" d="M306.6,265.3l-0.1,50c0,9.4-6.2,18.8-18.5,25.9c-24.9,14.5-65.3,14.5-90.4,0c-12.6-7.3-18.8-16.7-18.8-26.3
					l0.1-49.8c0-9.5,6.1-18.9,18.5-26.1c24.9-14.5,65.3-14.5,90.3,0C300.3,246.3,306.6,255.8,306.6,265.3z"/>
			</g>
		</g>
		<g>
			<g class="st1">
				<g>
					<g>
						<path class="st0" d="M306.6,265.3l-0.1,50c0,9.4-6.2,18.8-18.6,26c-24.8,14.4-65.3,14.4-90.3,0c-12.6-7.3-18.9-16.8-18.9-26.4
							l0.1-49.9c0,9.5,6.3,19,18.9,26.3c25,14.5,65.4,14.5,90.3,0C300.5,284.1,306.6,274.7,306.6,265.3z"/>
					</g>
				</g>
			</g>
		</g>
		<g>
			<g>
				<path class="st2" d="M287.8,239c25,14.4,25.2,37.9,0.3,52.3c-24.9,14.4-65.3,14.4-90.3,0c-25-14.4-25.2-37.9-0.3-52.3
					C222.3,224.5,262.7,224.5,287.8,239z"/>
			</g>
		</g>
		<g>
			<path class="st3" d="M287.8,269.4c-1.2,5.5-5.5,10.9-12.8,15.1c-17.7,10.3-46.5,10.3-64.3,0c-7.4-4.3-11.8-9.7-13-15.3
				c-1.8-7.8,2.5-15.9,12.8-22c17.7-10.3,46.5-10.3,64.3,0C285.3,253.3,289.6,261.5,287.8,269.4z"/>
		</g>
		<g>
			<path class="st4" d="M287.8,269.4c-1.2,5.5-5.5,10.9-12.8,15.1c-17.7,10.3-46.5,10.3-64.3,0c-7.4-4.3-11.8-9.7-13-15.3
				c1.2-5.5,5.5-10.9,12.8-15.1c17.7-10.3,46.5-10.3,64.3,0C282.3,258.4,286.6,263.8,287.8,269.4z"/>
		</g>
		<g>
			<g>
				<g>
					<g>
						<g>
							<g>
								<g>
									<path class="st9" d="M267.2,227.9c1,12-0.7,23.7-4.9,34.9l-0.2,0.4l-0.3,0.2c-4.2,2.6-8.3,3.7-12.2,3.3l-8.2-0.9
										c-2.8-0.3-5.6-1.4-8.3-3.3c-6.3-4.5-11.9-13.2-16.8-25.9l-0.3-0.9l0.5-0.7c0.8-1.1,1.6-2.3,2.3-3.5
										c2.3-3.8,4.2-8.1,5.8-12.9c1.3-4.2,2.4-8.7,3.2-13.6l0.2-1l0.6,0c4.9-0.2,9.5-2,13.7-5.6c2-1.7,3.8-3.7,5.6-6.1l0.5-0.7
										l8.2,0.9l0.4,0.7C262.8,204.5,266.3,216.2,267.2,227.9z"/>
								</g>
							</g>
						</g>
						<g>
							<g>
								<g>
									<g>
										<g>
											<g class="st1">
												<g>
													<g>
														<path class="st10" d="M256.5,192.4l-0.5,0.7c-1.8,2.4-3.7,4.5-5.7,6.2c-4.2,3.6-8.8,5.5-13.7,5.6l-0.6,0l-8.2-0.9
															l0.6,0c4.9-0.2,9.5-2,13.7-5.6c2-1.7,3.9-3.7,5.6-6.2l0.5-0.7L256.5,192.4z"/>
													</g>
												</g>
												<g>
													<g>
														<path class="st10" d="M249.6,266.7l-8.2-0.9c-2.8-0.3-5.6-1.4-8.3-3.3c-6.3-4.5-12-13.2-16.8-25.9l-0.3-0.9l8.2,0.9
															l0.3,0.8c4.8,12.8,10.5,21.5,16.8,25.9C244,265.3,246.8,266.4,249.6,266.7z"/>
													</g>
												</g>
												<g>
													<g>
														<path class="st11" d="M236.1,204.9l0.6,0c7.2-0.2,13.7-4.2,19.3-11.8l0.5-0.7l0.4,0.8c5.9,11.3,9.4,23,10.3,34.8
															c1,12-0.7,23.7-4.9,34.9l-0.1,0.4l-0.3,0.2c-7.2,4.5-14.1,4.5-20.5,0c-6.3-4.5-11.9-13.2-16.8-25.9l-0.3-0.9l0.5-0.7
															c5.5-7.7,9.3-17.8,11.2-30L236.1,204.9z"/>
													</g>
												</g>
											</g>
										</g>
									</g>
									<g>
										<g>
											<path class="st5" d="M259.9,257.8c-3.3,1.8-6.6,2.4-9.4,2c-0.1,0-0.1,0-0.2,0c-4-0.5-7.6-2.8-10.8-6.3
												c-3.9-4.2-7.1-10.1-9.6-16.2c4.3-7.1,7.4-15.7,9.4-25.6c5.2-0.8,10-3.4,14.5-7.8c0,0,0.1-0.1,0.1-0.1
												c0.3-0.3,0.8-0.8,1.1-1.1c0.2-0.3,0.6-0.6,0.8-0.9C262.2,215.9,267.4,236,259.9,257.8z"/>
										</g>
									</g>
								</g>
							</g>
						</g>
					</g>
				</g>
				<g>
					<g>
						<g>
							<path class="st12" d="M236.1,204.9l-0.2,1c-0.8,4.9-1.8,9.4-3.1,13.6c-1.5,4.8-3.5,9.1-5.8,12.9c-0.7,1.2-1.5,2.4-2.3,3.5
								l-0.5,0.7l-8.2-0.9l0.5-0.7c0.8-1.1,1.6-2.3,2.3-3.5c2.3-3.8,4.2-8.1,5.8-12.9c1.3-4.2,2.4-8.7,3.1-13.6l0.1-1L236.1,204.9z"
								/>
						</g>
					</g>
				</g>
			</g>
			<g>
				<g>
					<g>
						<path class="st11" d="M256.1,224.1c2.7,6,1.7,15.3-2.2,20.7c-3.9,5.4-9.3,4.8-12-1.2c-2.7-6.1-1.7-15.4,2.2-20.8
							C248,217.5,253.4,218,256.1,224.1z"/>
					</g>
				</g>
				<g>
					<g>
						<g>
							<path class="st5" d="M250,224.1c0.2-0.3,0.5-0.5,0.8-0.5c0.6,0.1,1,1,0.9,2.1l-1.5,14.2c0,0.5-0.2,1-0.5,1.3
								c-0.2,0.3-0.5,0.5-0.9,0.5l-2.9-0.3c-0.6-0.1-1-1-0.9-2.1c0.1-0.5,0.2-1,0.5-1.3c0.2-0.3,0.5-0.5,0.9-0.5l1.8,0.2l1.3-12.3
								C249.6,224.9,249.8,224.4,250,224.1z"/>
						</g>
					</g>
				</g>
			</g>
		</g>
		<g class="st13">
			<g class="st1">
				<g>
					<g>
						<path class="st14" d="M288.3,201.8l-0.1,64.2c0,6.7-4.4,13.4-13.2,18.5c-17.7,10.3-46.5,10.3-64.3,0c-9-5.2-13.4-12-13.4-18.8
							l0.1-64.2c0,6.8,4.5,13.6,13.4,18.8c17.8,10.3,46.6,10.3,64.3,0C283.8,215.2,288.2,208.5,288.3,201.8z"/>
					</g>
				</g>
				<g>
					<g>
						<path class="st15" d="M274.8,183.1c17.8,10.3,17.9,27,0.2,37.2c-17.7,10.3-46.5,10.3-64.3,0s-17.9-27-0.2-37.2
							S257,172.8,274.8,183.1z"/>
					</g>
				</g>
			</g>
		</g>
	</g>
	<g>
		<path class="st5" d="M257.9,324.7c0,8.3-6.7,15.2-15.2,15.2s-15.2-6.8-15.2-15.2c0-8.4,6.7-15.2,15.2-15.2
			S257.9,316.3,257.9,324.7z"/>
	</g>
	<g>
		<path class="st3" d="M253.8,324.7c0,6.1-4.9,11.1-11.1,11.1c-6.2,0-11.1-5-11.1-11.1c0-6.2,4.9-11.2,11.1-11.2
			C248.9,313.6,253.8,318.6,253.8,324.7z"/>
	</g>
</g>
<g>
	<g>
		<g>
			<g>
				<path class="st6" d="M287.1,307.2c4.1-2.4,7.5-0.5,7.5,4.3c0,4.7-3.3,10.4-7.5,12.8c-4.1,2.4-7.5,0.6-7.5-4.2
					C279.6,315.4,283,309.6,287.1,307.2z"/>
			</g>
		</g>
		<g class="st7">
			<g class="st1">
				<g>
					<g>
						<path class="st8" d="M418.1,379.7c-1.4-0.8-3.2-0.7-5.3,0.5c-4.2,2.4-7.5,8.1-7.5,12.9c0,2.3,0.8,4,2.2,4.8l-125.6-73
							c-1.3-0.8-2.1-2.4-2.2-4.8c0-4.8,3.3-10.6,7.5-12.9c2.1-1.2,4-1.3,5.3-0.5L418.1,379.7z"/>
					</g>
				</g>
			</g>
		</g>
	</g>
	<g>
		<g>
			<g>
				<path class="st6" d="M202.9,307.2c-4.1-2.4-7.5-0.5-7.5,4.3c0,4.7,3.3,10.4,7.5,12.8c4.1,2.4,7.5,0.6,7.5-4.2
					C210.4,315.4,207,309.6,202.9,307.2z"/>
			</g>
		</g>
		<g class="st7">
			<g class="st1">
				<g>
					<g>
						<path class="st8" d="M72,379.7c1.4-0.8,3.2-0.7,5.3,0.5c4.2,2.4,7.5,8.1,7.5,12.9c0,2.3-0.8,4-2.2,4.8l125.6-73
							c1.3-0.8,2.1-2.4,2.2-4.8c0-4.8-3.3-10.6-7.5-12.9c-2.1-1.2-4-1.3-5.3-0.5L72,379.7z"/>
					</g>
				</g>
			</g>
		</g>
	</g>
</g>
<g>
	<g>
		<g>
			<path class="st0" d="M147.5,357.7l-0.1,50c0,9.4-6.2,18.8-18.6,25.9c-24.8,14.5-65.3,14.5-90.3,0c-12.6-7.3-18.8-16.7-18.8-26.3
				l0.1-49.8c0-9.5,6.1-18.9,18.5-26.1c24.8-14.4,65.3-14.5,90.3,0C141.2,338.7,147.5,348.3,147.5,357.7z"/>
		</g>
	</g>
	<g>
		<g>
			<g class="st1">
				<g>
					<g>
						<path class="st0" d="M147.5,357.8l-0.1,50c0,9.4-6.2,18.8-18.6,26c-24.8,14.4-65.3,14.4-90.3,0c-12.6-7.3-18.9-16.8-18.9-26.4
							l0.1-49.9c0,9.5,6.3,19,18.9,26.3c25,14.5,65.4,14.5,90.3,0C141.3,376.6,147.5,367.2,147.5,357.8z"/>
					</g>
				</g>
			</g>
		</g>
		<g>
			<g>
				<path class="st2" d="M128.6,331.5c25,14.4,25.2,37.9,0.3,52.3c-24.9,14.4-65.3,14.4-90.3,0c-25-14.4-25.2-37.9-0.3-52.3
					C63.2,317,103.6,317,128.6,331.5z"/>
			</g>
		</g>
		<g>
			<path class="st3" d="M128.7,361.8c-1.2,5.5-5.5,10.9-12.8,15.1c-17.7,10.3-46.5,10.3-64.3,0c-7.4-4.3-11.8-9.7-13-15.3
				c-1.8-7.8,2.5-16,12.8-22c17.7-10.3,46.5-10.3,64.3,0C126.1,345.8,130.5,354,128.7,361.8z"/>
		</g>
		<g>
			<path class="st4" d="M128.7,361.8c-1.2,5.5-5.5,10.9-12.8,15.1c-17.7,10.3-46.5,10.3-64.3,0c-7.4-4.3-11.8-9.7-13-15.3
				c1.2-5.5,5.5-10.9,12.8-15.1c17.7-10.3,46.5-10.3,64.3,0C123.1,350.9,127.5,356.3,128.7,361.8z"/>
		</g>
	</g>
	<g>
		<path class="st5" d="M98.7,417.2c0,8.3-6.7,15.2-15.2,15.2s-15.2-6.8-15.2-15.2c0-8.4,6.7-15.2,15.2-15.2S98.7,408.8,98.7,417.2z"
			/>
	</g>
	<g>
		<path class="st3" d="M94.7,417.2c0,6.1-4.9,11.1-11.1,11.1c-6.2,0-11.1-5-11.1-11.1c0-6.2,4.9-11.2,11.1-11.2
			C89.8,406,94.7,411,94.7,417.2z"/>
	</g>
</g>
<g>
	<g>
		<g>
			<path class="st0" d="M492.3,407.4c0,9.6-6.3,19-18.9,26.3c-25,14.5-65.5,14.5-90.3,0c-12.4-7.1-18.6-16.5-18.6-25.9l-0.1-50
				c0-9.5,6.3-19,18.9-26.3c25-14.5,65.5-14.4,90.3,0c12.5,7.3,18.7,16.9,18.5,26.4c0-0.1,0-0.2,0-0.3v1.1L492.3,407.4z"/>
		</g>
	</g>
	<g>
		<g>
			<g class="st1">
				<g>
					<g>
						<path class="st0" d="M364.5,357.8l0.1,50c0,9.4,6.2,18.8,18.6,26c24.8,14.4,65.3,14.4,90.3,0c12.6-7.3,18.9-16.8,18.9-26.4
							l-0.1-49.9c0,9.5-6.3,19-18.9,26.3c-25,14.5-65.4,14.5-90.3,0C370.6,376.6,364.5,367.2,364.5,357.8z"/>
					</g>
				</g>
			</g>
		</g>
		<g>
			<g>
				<path class="st2" d="M383.3,331.5c-25,14.4-25.2,37.9-0.3,52.3c24.9,14.4,65.3,14.4,90.3,0c25-14.4,25.2-37.9,0.3-52.3
					S408.3,317,383.3,331.5z"/>
			</g>
		</g>
		<g>
			<path class="st3" d="M383.2,361.8c1.2,5.5,5.5,10.9,12.8,15.1c17.7,10.3,46.5,10.3,64.3,0c7.4-4.3,11.8-9.7,13-15.3
				c1.8-7.8-2.5-16-12.8-22c-17.7-10.3-46.5-10.3-64.3,0C385.8,345.8,381.5,354,383.2,361.8z"/>
		</g>
		<g>
			<path class="st4" d="M383.2,361.8c1.2,5.5,5.5,10.9,12.8,15.1c17.7,10.3,46.5,10.3,64.3,0c7.4-4.3,11.8-9.7,13-15.3
				c-1.2-5.5-5.5-10.9-12.8-15.1c-17.7-10.3-46.5-10.3-64.3,0C388.8,350.9,384.5,356.3,383.2,361.8z"/>
		</g>
	</g>
	<g>
		<path class="st5" d="M413.2,417.2c0,8.3,6.7,15.2,15.2,15.2c8.4,0,15.2-6.8,15.2-15.2c0-8.4-6.7-15.2-15.2-15.2
			C420,402,413.2,408.8,413.2,417.2z"/>
	</g>
	<g>
		<path class="st3" d="M417.3,417.2c0,6.1,4.9,11.1,11.1,11.1c6.2,0,11.1-5,11.1-11.1c0-6.2-4.9-11.2-11.1-11.2
			C422.2,406,417.3,411,417.3,417.2z"/>
	</g>
</g>
<g>
	<g id="OBJECTS">
		<g>
			<polygon class="st16" points="61.2,149.2 65.1,154.7 63,154.4 59,148.9 			"/>
			
				<linearGradient id="SVGID_1_" gradientUnits="userSpaceOnUse" x1="271.7789" y1="292.0082" x2="316.5989" y2="330.8982" gradientTransform="matrix(1 0 0 -1 -203.7553 454.9268)">
				<stop  offset="0" style="stop-color:#D13F05"/>
				<stop  offset="0.2925" style="stop-color:#F67205"/>
				<stop  offset="0.3667" style="stop-color:#F67705"/>
				<stop  offset="0.4526" style="stop-color:#F68505"/>
				<stop  offset="0.5441" style="stop-color:#F69C05"/>
				<stop  offset="0.5638" style="stop-color:#F6A205"/>
				<stop  offset="0.5977" style="stop-color:#F69005"/>
				<stop  offset="0.6432" style="stop-color:#F67F05"/>
				<stop  offset="0.6931" style="stop-color:#F67505"/>
				<stop  offset="0.7553" style="stop-color:#F67205"/>
				<stop  offset="1" style="stop-color:#D13F05"/>
			</linearGradient>
			<path class="st17" d="M106.8,116.5c1.3,1.8,2.7,3.7,4,5.5c2.7,3.8,4.1,8.3,4.1,12.9l-4-5.5C111,124.8,109.5,120.3,106.8,116.5z"
				/>
			<polygon class="st18" points="110.9,129.5 114.9,134.9 112.9,136.4 108.9,130.9 			"/>
			<polygon class="st16" points="90.8,156.2 94.7,161.7 93.9,163.1 89.9,157.6 			"/>
			
				<linearGradient id="SVGID_2_" gradientUnits="userSpaceOnUse" x1="273.1877" y1="290.3885" x2="318.0054" y2="329.2765" gradientTransform="matrix(1 0 0 -1 -203.7553 454.9268)">
				<stop  offset="0" style="stop-color:#D13F05"/>
				<stop  offset="0.2925" style="stop-color:#F67205"/>
				<stop  offset="0.3667" style="stop-color:#F67705"/>
				<stop  offset="0.4526" style="stop-color:#F68505"/>
				<stop  offset="0.5441" style="stop-color:#F69C05"/>
				<stop  offset="0.5638" style="stop-color:#F6A205"/>
				<stop  offset="0.5977" style="stop-color:#F69005"/>
				<stop  offset="0.6432" style="stop-color:#F67F05"/>
				<stop  offset="0.6931" style="stop-color:#F67505"/>
				<stop  offset="0.7553" style="stop-color:#F67205"/>
				<stop  offset="1" style="stop-color:#D13F05"/>
			</linearGradient>
			<path class="st19" d="M89.9,157.6l4,5.5c-5.7,2.2-12,2.6-17.9,1c-4.2-1.1-7.9-3.5-10.8-6.7l-4-5.5c2.9,3.3,6.6,5.6,10.8,6.7
				C77.9,160.2,84.2,159.8,89.9,157.6z"/>
			<polygon class="st20" points="92.2,156.6 96.2,162.1 94.7,161.7 90.8,156.2 			"/>
			
				<linearGradient id="SVGID_3_" gradientUnits="userSpaceOnUse" x1="279.4818" y1="283.1346" x2="324.3001" y2="322.0231" gradientTransform="matrix(1 0 0 -1 -203.7553 454.9268)">
				<stop  offset="0" style="stop-color:#D13F05"/>
				<stop  offset="0.2925" style="stop-color:#F67205"/>
				<stop  offset="0.3667" style="stop-color:#F67705"/>
				<stop  offset="0.4526" style="stop-color:#F68505"/>
				<stop  offset="0.5441" style="stop-color:#F69C05"/>
				<stop  offset="0.5638" style="stop-color:#F6A205"/>
				<stop  offset="0.5977" style="stop-color:#F69005"/>
				<stop  offset="0.6432" style="stop-color:#F67F05"/>
				<stop  offset="0.6931" style="stop-color:#F67505"/>
				<stop  offset="0.7553" style="stop-color:#F67205"/>
				<stop  offset="1" style="stop-color:#D13F05"/>
			</linearGradient>
			<path class="st21" d="M110.8,131.5l4,5.5c-0.3,3.1-1.1,6.2-2.4,9.1c-3.3,7.1-9.1,12.8-16.2,16.1l-4-5.5c7.1-3.3,12.9-9,16.2-16.1
				C109.7,137.7,110.6,134.6,110.8,131.5z"/>
			
				<linearGradient id="SVGID_4_" gradientUnits="userSpaceOnUse" x1="262.8995" y1="301.0707" x2="312.4065" y2="341.3383" gradientTransform="matrix(1 0 0 -1 -203.7553 454.9268)">
				<stop  offset="0" style="stop-color:#FFFFFF;stop-opacity:0"/>
				<stop  offset="0.2606" style="stop-color:#FFFFFF"/>
				<stop  offset="0.7553" style="stop-color:#FFFFFF"/>
				<stop  offset="1" style="stop-color:#FFFFFF;stop-opacity:0"/>
			</linearGradient>
			<path class="st22" d="M111.1,131.8c-0.3,3.1-1.1,6.2-2.4,9.1c-3.3,7.1-9.1,12.8-16.2,16.1l-1.5-0.4l-0.9,1.4
				c-5.7,2.2-12,2.6-17.9,1c-4.2-1.1-7.9-3.5-10.8-6.7l0-2.7l-2.1-0.3c-3.7-6.2-4.1-14.4-0.5-22.4c1.1-2.4,2.5-4.6,4.1-6.6
				c0.9-0.4,1.7-0.8,2.5-1.3l0.4-1.8c6.7-6.5,16.1-10.1,25-9.2l1.9,1.6l5.4,0.3c8.3,3.5,13.2,11.2,13.1,20l-2,1.5L111.1,131.8z"/>
			
				<linearGradient id="SVGID_5_" gradientUnits="userSpaceOnUse" x1="306.3861" y1="313.2847" x2="256.1741" y2="334.4951" gradientTransform="matrix(1 0 0 -1 -203.7553 454.9268)">
				<stop  offset="0" style="stop-color:#FFAF02"/>
				<stop  offset="1" style="stop-color:#F56D05"/>
			</linearGradient>
			<path class="st23" d="M110.8,131.5c-0.3,3.1-1.1,6.2-2.4,9.1c-3.3,7.1-9.1,12.8-16.2,16.1l-1.5-0.4l-0.9,1.4
				c-5.7,2.2-12,2.6-17.9,1c-4.2-1.1-7.9-3.5-10.8-6.7l0-2.7l-2.1-0.3c-3.7-6.2-4.1-14.4-0.5-22.4c1.1-2.4,2.5-4.6,4.1-6.6
				c0.9-0.4,1.7-0.8,2.5-1.3l0.4-1.8c6.7-6.5,16.1-10.1,25-9.2l1.9,1.6l5.4,0.3c8.3,3.5,13.2,11.2,13.1,20l-2,1.5L110.8,131.5z"/>
			
				<linearGradient id="SVGID_6_" gradientUnits="userSpaceOnUse" x1="268.8532" y1="338.572" x2="297.9962" y2="310.7159" gradientTransform="matrix(1 0 0 -1 -203.7553 454.9268)">
				<stop  offset="0" style="stop-color:#FFFFFF;stop-opacity:0"/>
				<stop  offset="0.2606" style="stop-color:#FFFFFF"/>
				<stop  offset="0.7553" style="stop-color:#FFFFFF"/>
				<stop  offset="1" style="stop-color:#FFFFFF;stop-opacity:0"/>
			</linearGradient>
			<path class="st24" d="M91.3,115.2c10,2.8,14.4,13.3,9.8,23.4c-4.6,10.1-16.5,16-26.5,13.2c-10-2.8-14.4-13.3-9.8-23.4
				S81.3,112.3,91.3,115.2z"/>
			
				<linearGradient id="SVGID_7_" gradientUnits="userSpaceOnUse" x1="267.2579" y1="321.382" x2="307.2193" y2="321.382" gradientTransform="matrix(1 0 0 -1 -203.7553 454.9268)">
				<stop  offset="0" style="stop-color:#CF4505"/>
				<stop  offset="1" style="stop-color:#E45905"/>
			</linearGradient>
			<path class="st25" d="M91.8,115.3c10,2.8,14.4,13.3,9.8,23.4c-4.6,10.1-16.5,16-26.5,13.2c-10-2.8-14.4-13.3-9.8-23.4
				C69.9,118.3,81.8,112.4,91.8,115.3z"/>
			<path class="st26" d="M76.7,152.1c-10-2.8-14.4-13.3-9.8-23.4c4.3-9.3,14.8-15.1,24.3-13.6c-9.9-2.4-21.3,3.5-25.8,13.3
				c-4.6,10.1-0.2,20.6,9.8,23.4c0.7,0.2,1.5,0.4,2.2,0.5C77.2,152.2,76.9,152.2,76.7,152.1z"/>
			
				<radialGradient id="SVGID_8_" cx="-2419.2952" cy="-395.5394" r="14.9418" gradientTransform="matrix(7.290000e-02 7.410000e-02 0.4921 -0.4845 472.0643 138.2714)" gradientUnits="userSpaceOnUse">
				<stop  offset="0" style="stop-color:#FFFFFF"/>
				<stop  offset="8.578000e-02" style="stop-color:#FFFFFF;stop-opacity:0.9583"/>
				<stop  offset="0.2351" style="stop-color:#FFFFFF;stop-opacity:0.8462"/>
				<stop  offset="0.4301" style="stop-color:#FFFFFF;stop-opacity:0.6642"/>
				<stop  offset="0.6634" style="stop-color:#FFFFFF;stop-opacity:0.4119"/>
				<stop  offset="0.9261" style="stop-color:#FFFFFF;stop-opacity:9.449000e-02"/>
				<stop  offset="1" style="stop-color:#FFFFFF;stop-opacity:0"/>
			</radialGradient>
			<path class="st27" d="M102.1,151.7c-4.1,4-7.8,6.7-8.4,6.1c-0.6-0.6,2.2-4.3,6.3-8.3c4.1-4,7.8-6.7,8.4-6.1
				C109,144,106.2,147.7,102.1,151.7z"/>
			
				<linearGradient id="SVGID_9_" gradientUnits="userSpaceOnUse" x1="280.6664" y1="329.0829" x2="298.6826" y2="307.9458" gradientTransform="matrix(1 0 0 -1 -203.7553 454.9268)">
				<stop  offset="0" style="stop-color:#FFFFFF"/>
				<stop  offset="1" style="stop-color:#FFFFFF;stop-opacity:0"/>
			</linearGradient>
			<path class="st28" d="M105.1,114.4l-43.9,36.3l0,1.2c2.9,3.3,6.6,5.6,10.8,6.7c1,0.3,2,0.5,3.1,0.7l34.1-28.3l-0.3-0.1l2-1.5
				C111,123.9,108.9,118.5,105.1,114.4z"/>
			
				<linearGradient id="SVGID_10_" gradientUnits="userSpaceOnUse" x1="270.1636" y1="338.8049" x2="279.8" y2="329.0298" gradientTransform="matrix(1 0 0 -1 -203.7553 454.9268)">
				<stop  offset="0" style="stop-color:#FFFFFF"/>
				<stop  offset="1" style="stop-color:#FFFFFF;stop-opacity:0"/>
			</linearGradient>
			<path class="st29" d="M92.4,109.2l-1.9-1.6c-2.6-0.2-5.3-0.1-7.9,0.4l-24.9,20.6c-1.4,3.7-1.9,7.6-1.6,11.5l37.2-30.8L92.4,109.2
				z"/>
			<g>
				<defs>
					<rect id="SVGID_11_" x="72.2" y="119.2" width="27.8" height="28.6"/>
				</defs>
				<clipPath id="SVGID_12_">
					<use xlink:href="#SVGID_11_"  style="overflow:visible;"/>
				</clipPath>
				<g class="st30">
					
						<linearGradient id="SVGID_13_" gradientUnits="userSpaceOnUse" x1="2234.8149" y1="1638.0741" x2="2234.8149" y2="1609.4261" gradientTransform="matrix(1 0 0 1 -2148.7554 -1490.2074)">
						<stop  offset="0" style="stop-color:#FFC000"/>
						<stop  offset="0.28" style="stop-color:#FFC000"/>
						<stop  offset="0.55" style="stop-color:#DAA600"/>
						<stop  offset="1" style="stop-color:#DAA600"/>
					</linearGradient>
					<path class="st31" d="M77,130.9c-0.1-0.1-0.2-0.2-0.3-0.4c-1.2-1.4-2-3.1-2.5-4.9c-0.3-1.3-0.4-2.6-0.3-3.9
						c0-0.7,0.2-1.4,0.6-2c0.2-0.4,0.6-0.6,1-0.4c0,0,0,0,0,0c0.9,0.3,1.6,0.9,2.1,1.7c1.3,1.7,2.2,3.7,2.5,5.8
						c0.1,0.7,0.1,1.3,0.2,2c0,0.3,0,0.5,0.1,0.8c0,0.2,0.1,0.3,0.4,0.3c0.9-0.1,1.9-0.1,2.8,0.2c0.8,0.2,1.5,0.5,2.3,0.8
						c1.1,0.4,2,1.1,2.8,1.9c0.1,0.1,0.2,0.2,0.4,0.1c0,0,0,0,0,0c0,0,0,0,0.1-0.1c0.2-0.2,0.4-0.4,0.5-0.5c1.7-2,4-3.4,6.5-4.1
						c0.8-0.3,1.7-0.3,2.5-0.2c0.4,0.1,0.7,0.2,1.1,0.3c0.1,0.1,0.2,0.3,0.3,0.4c0,0.2,0,0.5-0.1,0.7c-0.3,1-0.9,1.9-1.6,2.6
						c-1.8,2-4.2,3.4-6.8,3.9c-0.2,0-0.4,0.1-0.6,0.1c0,0.2,0.1,0.3,0.1,0.4c0.3,0.9,0.4,1.9,0.3,2.8c0,1.1-0.2,2.2-0.6,3.3
						c-0.4,1.2-1,2.4-1.8,3.4c-0.8,0.9-1.8,1.6-3,1.8c-0.8,0.2-1.7,0.3-2.6,0.2c-0.9-0.1-1.7-0.3-2.5-0.5c-0.9-0.2-1.7-0.5-2.5-0.9
						c-1.4-0.5-2.6-1.2-3.7-2.2c-1.1-1-1.9-2.3-2.2-3.7c-0.1-0.7-0.1-1.4,0-2.1c0.1-0.9,0.4-1.8,0.7-2.6c0.5-1.3,1.3-2.5,2.4-3.5
						c0.5-0.5,1-0.9,1.6-1.3L77,130.9z M77.9,141.1L77.9,141.1c-1,0-1.2,0.7-1,1.3c0,0.1,0.1,0.2,0.1,0.3c0.2,0.8,0.7,1.4,1.4,1.8
						c0.7,0.3,1.4,0.6,2.1,0.8c1,0.3,2.2,0.1,3-0.7c0.4-0.2,0.5-0.7,0.3-1.1c-0.1-0.1-0.1-0.2-0.2-0.2c-0.4-0.3-0.9-0.6-1.4-0.8
						c-0.8-0.4-1.7-0.6-2.5-0.9C79.1,141.4,78.5,141.3,77.9,141.1L77.9,141.1z M77.2,133.9c0-0.6-0.2-1-0.7-1.1
						c-0.4-0.1-0.8,0.1-1,0.4c-1,1.2-1.7,2.5-2.1,4c-0.1,0.2-0.1,0.5,0,0.7c0.1,0.4,0.5,0.8,0.9,0.7c0.2,0,0.4-0.1,0.5-0.3
						c0.3-0.5,0.7-1,1-1.5c0.4-0.7,0.7-1.3,1.1-2C76.9,134.6,77,134.2,77.2,133.9L77.2,133.9z M90.5,139.1c0-0.3-0.1-0.5-0.1-0.8
						c-0.1-0.5-0.6-0.7-1.1-0.6c0,0,0,0,0,0c0,0-0.1,0-0.1,0c-0.3,0.1-0.6,0.5-0.6,0.8c-0.3,1.2-0.6,2.4-0.8,3.7
						c-0.1,0.4-0.1,0.8,0,1.1c0.1,0.4,0.5,0.7,0.9,0.6c0.1,0,0.2-0.1,0.3-0.1c0.3-0.2,0.5-0.5,0.6-0.8c0.2-0.7,0.5-1.4,0.6-2.1
						C90.3,140.3,90.4,139.7,90.5,139.1L90.5,139.1z"/>
				</g>
			</g>
		</g>
	</g>
</g>
<g>
	<g id="OBJECTS_1_">
		<g>
			<polygon class="st16" points="406,149.2 409.9,154.7 407.8,154.4 403.8,148.9 			"/>
			
				<linearGradient id="SVGID_14_" gradientUnits="userSpaceOnUse" x1="616.5758" y1="292.0082" x2="661.3958" y2="330.8982" gradientTransform="matrix(1 0 0 -1 -203.7553 454.9268)">
				<stop  offset="0" style="stop-color:#D13F05"/>
				<stop  offset="0.2925" style="stop-color:#F67205"/>
				<stop  offset="0.3667" style="stop-color:#F67705"/>
				<stop  offset="0.4526" style="stop-color:#F68505"/>
				<stop  offset="0.5441" style="stop-color:#F69C05"/>
				<stop  offset="0.5638" style="stop-color:#F6A205"/>
				<stop  offset="0.5977" style="stop-color:#F69005"/>
				<stop  offset="0.6432" style="stop-color:#F67F05"/>
				<stop  offset="0.6931" style="stop-color:#F67505"/>
				<stop  offset="0.7553" style="stop-color:#F67205"/>
				<stop  offset="1" style="stop-color:#D13F05"/>
			</linearGradient>
			<path class="st32" d="M451.6,116.5c1.3,1.8,2.7,3.7,4,5.5c2.7,3.8,4.1,8.3,4.1,12.9l-4-5.5C455.8,124.8,454.3,120.3,451.6,116.5z
				"/>
			<polygon class="st18" points="455.7,129.5 459.7,134.9 457.7,136.4 453.7,130.9 			"/>
			<polygon class="st16" points="435.6,156.2 439.5,161.7 438.7,163.1 434.7,157.6 			"/>
			
				<linearGradient id="SVGID_15_" gradientUnits="userSpaceOnUse" x1="617.9847" y1="290.3885" x2="662.8024" y2="329.2765" gradientTransform="matrix(1 0 0 -1 -203.7553 454.9268)">
				<stop  offset="0" style="stop-color:#D13F05"/>
				<stop  offset="0.2925" style="stop-color:#F67205"/>
				<stop  offset="0.3667" style="stop-color:#F67705"/>
				<stop  offset="0.4526" style="stop-color:#F68505"/>
				<stop  offset="0.5441" style="stop-color:#F69C05"/>
				<stop  offset="0.5638" style="stop-color:#F6A205"/>
				<stop  offset="0.5977" style="stop-color:#F69005"/>
				<stop  offset="0.6432" style="stop-color:#F67F05"/>
				<stop  offset="0.6931" style="stop-color:#F67505"/>
				<stop  offset="0.7553" style="stop-color:#F67205"/>
				<stop  offset="1" style="stop-color:#D13F05"/>
			</linearGradient>
			<path class="st33" d="M434.7,157.6l4,5.5c-5.7,2.2-12,2.6-17.9,1c-4.2-1.1-7.9-3.5-10.8-6.7l-4-5.5c2.9,3.3,6.6,5.6,10.8,6.7
				C422.7,160.2,429,159.8,434.7,157.6z"/>
			<polygon class="st20" points="437,156.6 441,162.1 439.5,161.7 435.6,156.2 			"/>
			
				<linearGradient id="SVGID_16_" gradientUnits="userSpaceOnUse" x1="624.2787" y1="283.1346" x2="669.097" y2="322.0231" gradientTransform="matrix(1 0 0 -1 -203.7553 454.9268)">
				<stop  offset="0" style="stop-color:#D13F05"/>
				<stop  offset="0.2925" style="stop-color:#F67205"/>
				<stop  offset="0.3667" style="stop-color:#F67705"/>
				<stop  offset="0.4526" style="stop-color:#F68505"/>
				<stop  offset="0.5441" style="stop-color:#F69C05"/>
				<stop  offset="0.5638" style="stop-color:#F6A205"/>
				<stop  offset="0.5977" style="stop-color:#F69005"/>
				<stop  offset="0.6432" style="stop-color:#F67F05"/>
				<stop  offset="0.6931" style="stop-color:#F67505"/>
				<stop  offset="0.7553" style="stop-color:#F67205"/>
				<stop  offset="1" style="stop-color:#D13F05"/>
			</linearGradient>
			<path class="st34" d="M455.6,131.5l4,5.5c-0.3,3.1-1.1,6.2-2.4,9.1c-3.3,7.1-9.1,12.8-16.2,16.1l-4-5.5c7.1-3.3,12.9-9,16.2-16.1
				C454.5,137.7,455.4,134.6,455.6,131.5z"/>
			
				<linearGradient id="SVGID_17_" gradientUnits="userSpaceOnUse" x1="607.6965" y1="301.0707" x2="657.2034" y2="341.3383" gradientTransform="matrix(1 0 0 -1 -203.7553 454.9268)">
				<stop  offset="0" style="stop-color:#FFFFFF;stop-opacity:0"/>
				<stop  offset="0.2606" style="stop-color:#FFFFFF"/>
				<stop  offset="0.7553" style="stop-color:#FFFFFF"/>
				<stop  offset="1" style="stop-color:#FFFFFF;stop-opacity:0"/>
			</linearGradient>
			<path class="st35" d="M455.9,131.8c-0.3,3.1-1.1,6.2-2.4,9.1c-3.3,7.1-9.1,12.8-16.2,16.1l-1.5-0.4l-0.9,1.4
				c-5.7,2.2-12,2.6-17.9,1c-4.2-1.1-7.9-3.5-10.8-6.7l0-2.7l-2.1-0.3c-3.7-6.2-4.1-14.4-0.5-22.4c1.1-2.4,2.5-4.6,4.1-6.6
				c0.9-0.4,1.7-0.8,2.5-1.3l0.4-1.8c6.7-6.5,16.1-10.1,25-9.2l1.9,1.6l5.4,0.3c8.3,3.5,13.2,11.2,13.1,20l-2,1.5L455.9,131.8z"/>
			
				<linearGradient id="SVGID_18_" gradientUnits="userSpaceOnUse" x1="651.1831" y1="313.2847" x2="600.971" y2="334.4951" gradientTransform="matrix(1 0 0 -1 -203.7553 454.9268)">
				<stop  offset="0" style="stop-color:#FFAF02"/>
				<stop  offset="1" style="stop-color:#F56D05"/>
			</linearGradient>
			<path class="st36" d="M455.6,131.5c-0.3,3.1-1.1,6.2-2.4,9.1c-3.3,7.1-9.1,12.8-16.2,16.1l-1.5-0.4l-0.9,1.4
				c-5.7,2.2-12,2.6-17.9,1c-4.2-1.1-7.9-3.5-10.8-6.7l0-2.7l-2.1-0.3c-3.7-6.2-4.1-14.4-0.5-22.4c1.1-2.4,2.5-4.6,4.1-6.6
				c0.9-0.4,1.7-0.8,2.5-1.3l0.4-1.8c6.7-6.5,16.1-10.1,25-9.2l1.9,1.6l5.4,0.3c8.3,3.5,13.2,11.2,13.1,20l-2,1.5L455.6,131.5z"/>
			
				<linearGradient id="SVGID_19_" gradientUnits="userSpaceOnUse" x1="613.6501" y1="338.572" x2="642.7931" y2="310.7159" gradientTransform="matrix(1 0 0 -1 -203.7553 454.9268)">
				<stop  offset="0" style="stop-color:#FFFFFF;stop-opacity:0"/>
				<stop  offset="0.2606" style="stop-color:#FFFFFF"/>
				<stop  offset="0.7553" style="stop-color:#FFFFFF"/>
				<stop  offset="1" style="stop-color:#FFFFFF;stop-opacity:0"/>
			</linearGradient>
			<path class="st37" d="M436.1,115.2c10,2.8,14.4,13.3,9.8,23.4c-4.6,10.1-16.5,16-26.5,13.2c-10-2.8-14.4-13.3-9.8-23.4
				S426.1,112.3,436.1,115.2z"/>
			
				<linearGradient id="SVGID_20_" gradientUnits="userSpaceOnUse" x1="612.0549" y1="321.382" x2="652.0162" y2="321.382" gradientTransform="matrix(1 0 0 -1 -203.7553 454.9268)">
				<stop  offset="0" style="stop-color:#CF4505"/>
				<stop  offset="1" style="stop-color:#E45905"/>
			</linearGradient>
			<path class="st38" d="M436.6,115.3c10,2.8,14.4,13.3,9.8,23.4c-4.6,10.1-16.5,16-26.5,13.2c-10-2.8-14.4-13.3-9.8-23.4
				C414.7,118.3,426.6,112.4,436.6,115.3z"/>
			<path class="st26" d="M421.5,152.1c-10-2.8-14.4-13.3-9.8-23.4c4.3-9.3,14.8-15.1,24.3-13.6c-9.9-2.4-21.3,3.5-25.8,13.3
				c-4.6,10.1-0.2,20.6,9.8,23.4c0.7,0.2,1.5,0.4,2.2,0.5C422,152.2,421.7,152.2,421.5,152.1z"/>
			
				<radialGradient id="SVGID_21_" cx="-92.139" cy="-39.6214" r="14.9418" gradientTransform="matrix(7.290000e-02 7.410000e-02 0.4921 -0.4845 472.0643 138.2714)" gradientUnits="userSpaceOnUse">
				<stop  offset="0" style="stop-color:#FFFFFF"/>
				<stop  offset="8.578000e-02" style="stop-color:#FFFFFF;stop-opacity:0.9583"/>
				<stop  offset="0.2351" style="stop-color:#FFFFFF;stop-opacity:0.8462"/>
				<stop  offset="0.4301" style="stop-color:#FFFFFF;stop-opacity:0.6642"/>
				<stop  offset="0.6634" style="stop-color:#FFFFFF;stop-opacity:0.4119"/>
				<stop  offset="0.9261" style="stop-color:#FFFFFF;stop-opacity:9.449000e-02"/>
				<stop  offset="1" style="stop-color:#FFFFFF;stop-opacity:0"/>
			</radialGradient>
			<path class="st39" d="M446.9,151.7c-4.1,4-7.8,6.7-8.4,6.1c-0.6-0.6,2.2-4.3,6.3-8.3c4.1-4,7.8-6.7,8.4-6.1
				C453.8,144,451,147.7,446.9,151.7z"/>
			
				<linearGradient id="SVGID_22_" gradientUnits="userSpaceOnUse" x1="625.4634" y1="329.0829" x2="643.4795" y2="307.9458" gradientTransform="matrix(1 0 0 -1 -203.7553 454.9268)">
				<stop  offset="0" style="stop-color:#FFFFFF"/>
				<stop  offset="1" style="stop-color:#FFFFFF;stop-opacity:0"/>
			</linearGradient>
			<path class="st40" d="M449.9,114.4L406,150.8l0,1.2c2.9,3.3,6.6,5.6,10.8,6.7c1,0.3,2,0.5,3.1,0.7L454,131l-0.3-0.1l2-1.5
				C455.8,123.9,453.7,118.5,449.9,114.4z"/>
			
				<linearGradient id="SVGID_23_" gradientUnits="userSpaceOnUse" x1="614.9605" y1="338.8049" x2="624.5969" y2="329.0298" gradientTransform="matrix(1 0 0 -1 -203.7553 454.9268)">
				<stop  offset="0" style="stop-color:#FFFFFF"/>
				<stop  offset="1" style="stop-color:#FFFFFF;stop-opacity:0"/>
			</linearGradient>
			<path class="st41" d="M437.2,109.2l-1.9-1.6c-2.6-0.2-5.3-0.1-7.9,0.4l-24.9,20.6c-1.4,3.7-1.9,7.6-1.6,11.5l37.2-30.8
				L437.2,109.2z"/>
			<g>
				<defs>
					<rect id="SVGID_24_" x="417" y="119.2" width="27.8" height="28.6"/>
				</defs>
				<clipPath id="SVGID_25_">
					<use xlink:href="#SVGID_24_"  style="overflow:visible;"/>
				</clipPath>
				<g class="st42">
					
						<linearGradient id="SVGID_26_" gradientUnits="userSpaceOnUse" x1="2579.6118" y1="1638.0741" x2="2579.6118" y2="1609.4261" gradientTransform="matrix(1 0 0 1 -2148.7554 -1490.2074)">
						<stop  offset="0" style="stop-color:#FFC000"/>
						<stop  offset="0.28" style="stop-color:#FFC000"/>
						<stop  offset="0.55" style="stop-color:#DAA600"/>
						<stop  offset="1" style="stop-color:#DAA600"/>
					</linearGradient>
					<path class="st43" d="M421.8,130.9c-0.1-0.1-0.2-0.2-0.3-0.4c-1.2-1.4-2-3.1-2.5-4.9c-0.3-1.3-0.4-2.6-0.3-3.9
						c0-0.7,0.2-1.4,0.6-2c0.2-0.4,0.6-0.6,1-0.4c0,0,0,0,0,0c0.9,0.3,1.6,0.9,2.1,1.7c1.3,1.7,2.2,3.7,2.5,5.8
						c0.1,0.7,0.1,1.3,0.2,2c0,0.3,0,0.5,0.1,0.8c0,0.2,0.1,0.3,0.4,0.3c0.9-0.1,1.9-0.1,2.8,0.2c0.8,0.2,1.5,0.5,2.3,0.8
						c1.1,0.4,2,1.1,2.8,1.9c0.1,0.1,0.2,0.2,0.4,0.1c0,0,0,0,0,0c0,0,0,0,0.1-0.1c0.2-0.2,0.4-0.4,0.5-0.5c1.7-2,4-3.4,6.5-4.1
						c0.8-0.3,1.7-0.3,2.5-0.2c0.4,0.1,0.7,0.2,1.1,0.3c0.1,0.1,0.2,0.3,0.3,0.4c0,0.2,0,0.5-0.1,0.7c-0.3,1-0.9,1.9-1.6,2.6
						c-1.8,2-4.2,3.4-6.8,3.9c-0.2,0-0.4,0.1-0.6,0.1c0,0.2,0.1,0.3,0.1,0.4c0.3,0.9,0.4,1.9,0.3,2.8c0,1.1-0.2,2.2-0.6,3.3
						c-0.4,1.2-1,2.4-1.8,3.4c-0.8,0.9-1.8,1.6-3,1.8c-0.8,0.2-1.7,0.3-2.6,0.2c-0.9-0.1-1.7-0.3-2.5-0.5c-0.9-0.2-1.7-0.5-2.5-0.9
						c-1.4-0.5-2.6-1.2-3.7-2.2c-1.1-1-1.9-2.3-2.2-3.7c-0.1-0.7-0.1-1.4,0-2.1c0.1-0.9,0.4-1.8,0.7-2.6c0.5-1.3,1.3-2.5,2.4-3.5
						c0.5-0.5,1-0.9,1.6-1.3L421.8,130.9z M422.7,141.1L422.7,141.1c-1,0-1.2,0.7-1,1.3c0,0.1,0.1,0.2,0.1,0.3
						c0.2,0.8,0.7,1.4,1.4,1.8c0.7,0.3,1.4,0.6,2.1,0.8c1,0.3,2.2,0.1,3-0.7c0.4-0.2,0.5-0.7,0.3-1.1c-0.1-0.1-0.1-0.2-0.2-0.2
						c-0.4-0.3-0.9-0.6-1.4-0.8c-0.8-0.4-1.7-0.6-2.5-0.9C423.9,141.4,423.3,141.3,422.7,141.1L422.7,141.1z M422,133.9
						c0-0.6-0.2-1-0.7-1.1c-0.4-0.1-0.8,0.1-1,0.4c-1,1.2-1.7,2.5-2.1,4c-0.1,0.2-0.1,0.5,0,0.7c0.1,0.4,0.5,0.8,0.9,0.7
						c0.2,0,0.4-0.1,0.5-0.3c0.3-0.5,0.7-1,1-1.5c0.4-0.7,0.7-1.3,1.1-2C421.7,134.6,421.8,134.2,422,133.9L422,133.9z M435.3,139.1
						c0-0.3-0.1-0.5-0.1-0.8c-0.1-0.5-0.6-0.7-1.1-0.6c0,0,0,0,0,0c0,0-0.1,0-0.1,0c-0.3,0.1-0.6,0.5-0.6,0.8
						c-0.3,1.2-0.6,2.4-0.8,3.7c-0.1,0.4-0.1,0.8,0,1.1c0.1,0.4,0.5,0.7,0.9,0.6c0.1,0,0.2-0.1,0.3-0.1c0.3-0.2,0.5-0.5,0.6-0.8
						c0.2-0.7,0.5-1.4,0.6-2.1C435.1,140.3,435.2,139.7,435.3,139.1L435.3,139.1z"/>
				</g>
			</g>
		</g>
	</g>
</g>
<g>
	<g id="OBJECTS_3_">
		<g>
			<polygon class="st16" points="60.9,352.8 64.9,358.3 62.8,358 58.8,352.5 			"/>
			
				<linearGradient id="SVGID_27_" gradientUnits="userSpaceOnUse" x1="271.552" y1="88.3876" x2="316.372" y2="127.2775" gradientTransform="matrix(1 0 0 -1 -203.7553 454.9268)">
				<stop  offset="0" style="stop-color:#D13F05"/>
				<stop  offset="0.2925" style="stop-color:#F67205"/>
				<stop  offset="0.3667" style="stop-color:#F67705"/>
				<stop  offset="0.4526" style="stop-color:#F68505"/>
				<stop  offset="0.5441" style="stop-color:#F69C05"/>
				<stop  offset="0.5638" style="stop-color:#F6A205"/>
				<stop  offset="0.5977" style="stop-color:#F69005"/>
				<stop  offset="0.6432" style="stop-color:#F67F05"/>
				<stop  offset="0.6931" style="stop-color:#F67505"/>
				<stop  offset="0.7553" style="stop-color:#F67205"/>
				<stop  offset="1" style="stop-color:#D13F05"/>
			</linearGradient>
			<path class="st44" d="M106.6,320.2c1.3,1.8,2.7,3.7,4,5.5c2.7,3.8,4.1,8.3,4.1,12.9l-4-5.5C110.7,328.5,109.3,323.9,106.6,320.2z
				"/>
			<polygon class="st18" points="110.7,333.1 114.7,338.6 112.7,340 108.7,334.6 			"/>
			<polygon class="st16" points="90.5,359.8 94.5,365.3 93.6,366.7 89.7,361.2 			"/>
			
				<linearGradient id="SVGID_28_" gradientUnits="userSpaceOnUse" x1="272.9608" y1="86.7679" x2="317.7785" y2="125.6558" gradientTransform="matrix(1 0 0 -1 -203.7553 454.9268)">
				<stop  offset="0" style="stop-color:#D13F05"/>
				<stop  offset="0.2925" style="stop-color:#F67205"/>
				<stop  offset="0.3667" style="stop-color:#F67705"/>
				<stop  offset="0.4526" style="stop-color:#F68505"/>
				<stop  offset="0.5441" style="stop-color:#F69C05"/>
				<stop  offset="0.5638" style="stop-color:#F6A205"/>
				<stop  offset="0.5977" style="stop-color:#F69005"/>
				<stop  offset="0.6432" style="stop-color:#F67F05"/>
				<stop  offset="0.6931" style="stop-color:#F67505"/>
				<stop  offset="0.7553" style="stop-color:#F67205"/>
				<stop  offset="1" style="stop-color:#D13F05"/>
			</linearGradient>
			<path class="st45" d="M89.7,361.2l4,5.5c-5.7,2.2-12,2.6-17.9,1c-4.2-1.1-7.9-3.5-10.8-6.7l-4-5.5c2.9,3.3,6.6,5.6,10.8,6.7
				C77.7,363.8,84,363.5,89.7,361.2z"/>
			<polygon class="st20" points="92,360.2 96,365.7 94.5,365.3 90.5,359.8 			"/>
			
				<linearGradient id="SVGID_29_" gradientUnits="userSpaceOnUse" x1="279.2549" y1="79.514" x2="324.0732" y2="118.4025" gradientTransform="matrix(1 0 0 -1 -203.7553 454.9268)">
				<stop  offset="0" style="stop-color:#D13F05"/>
				<stop  offset="0.2925" style="stop-color:#F67205"/>
				<stop  offset="0.3667" style="stop-color:#F67705"/>
				<stop  offset="0.4526" style="stop-color:#F68505"/>
				<stop  offset="0.5441" style="stop-color:#F69C05"/>
				<stop  offset="0.5638" style="stop-color:#F6A205"/>
				<stop  offset="0.5977" style="stop-color:#F69005"/>
				<stop  offset="0.6432" style="stop-color:#F67F05"/>
				<stop  offset="0.6931" style="stop-color:#F67505"/>
				<stop  offset="0.7553" style="stop-color:#F67205"/>
				<stop  offset="1" style="stop-color:#D13F05"/>
			</linearGradient>
			<path class="st46" d="M110.6,335.1l4,5.5c-0.3,3.1-1.1,6.2-2.4,9.1c-3.3,7.1-9.1,12.8-16.2,16.1l-4-5.5c7.1-3.3,12.9-9,16.2-16.1
				C109.5,341.3,110.3,338.3,110.6,335.1z"/>
			
				<linearGradient id="SVGID_30_" gradientUnits="userSpaceOnUse" x1="262.6726" y1="97.4501" x2="312.1796" y2="137.7176" gradientTransform="matrix(1 0 0 -1 -203.7553 454.9268)">
				<stop  offset="0" style="stop-color:#FFFFFF;stop-opacity:0"/>
				<stop  offset="0.2606" style="stop-color:#FFFFFF"/>
				<stop  offset="0.7553" style="stop-color:#FFFFFF"/>
				<stop  offset="1" style="stop-color:#FFFFFF;stop-opacity:0"/>
			</linearGradient>
			<path class="st47" d="M110.9,335.4c-0.3,3.1-1.1,6.2-2.4,9.1c-3.3,7.1-9.1,12.8-16.2,16.1l-1.5-0.4l-0.9,1.4
				c-5.7,2.2-12,2.6-17.9,1c-4.2-1.1-7.9-3.5-10.8-6.7l0-2.7l-2.1-0.3c-3.7-6.2-4.1-14.4-0.5-22.4c1.1-2.4,2.5-4.6,4.1-6.6
				c0.9-0.4,1.7-0.8,2.5-1.3l0.4-1.8c6.7-6.5,16.1-10.1,25-9.2l1.9,1.6l5.4,0.3c8.3,3.5,13.2,11.2,13.1,20l-2,1.5L110.9,335.4z"/>
			
				<linearGradient id="SVGID_31_" gradientUnits="userSpaceOnUse" x1="306.1592" y1="109.664" x2="255.9472" y2="130.8744" gradientTransform="matrix(1 0 0 -1 -203.7553 454.9268)">
				<stop  offset="0" style="stop-color:#FFAF02"/>
				<stop  offset="1" style="stop-color:#F56D05"/>
			</linearGradient>
			<path class="st48" d="M110.6,335.1c-0.3,3.1-1.1,6.2-2.4,9.1c-3.3,7.1-9.1,12.8-16.2,16.1l-1.5-0.4l-0.9,1.4
				c-5.7,2.2-12,2.6-17.9,1c-4.2-1.1-7.9-3.5-10.8-6.7l0-2.7l-2.1-0.3c-3.7-6.2-4.1-14.4-0.5-22.4c1.1-2.4,2.5-4.6,4.1-6.6
				c0.9-0.4,1.7-0.8,2.5-1.3l0.4-1.8c6.7-6.5,16.1-10.1,25-9.2l1.9,1.6l5.4,0.3c8.3,3.5,13.2,11.2,13.1,20l-2,1.5L110.6,335.1z"/>
			
				<linearGradient id="SVGID_32_" gradientUnits="userSpaceOnUse" x1="268.6263" y1="134.9514" x2="297.7693" y2="107.0953" gradientTransform="matrix(1 0 0 -1 -203.7553 454.9268)">
				<stop  offset="0" style="stop-color:#FFFFFF;stop-opacity:0"/>
				<stop  offset="0.2606" style="stop-color:#FFFFFF"/>
				<stop  offset="0.7553" style="stop-color:#FFFFFF"/>
				<stop  offset="1" style="stop-color:#FFFFFF;stop-opacity:0"/>
			</linearGradient>
			<path class="st49" d="M91.1,318.8c10,2.8,14.4,13.3,9.8,23.4c-4.6,10.1-16.5,16-26.5,13.2c-10-2.8-14.4-13.3-9.8-23.4
				C69.2,321.9,81.1,316,91.1,318.8z"/>
			
				<linearGradient id="SVGID_33_" gradientUnits="userSpaceOnUse" x1="267.031" y1="117.7613" x2="306.9924" y2="117.7613" gradientTransform="matrix(1 0 0 -1 -203.7553 454.9268)">
				<stop  offset="0" style="stop-color:#CF4505"/>
				<stop  offset="1" style="stop-color:#E45905"/>
			</linearGradient>
			<path class="st50" d="M91.6,318.9c10,2.8,14.4,13.3,9.8,23.4c-4.6,10.1-16.5,16-26.5,13.2c-10-2.8-14.4-13.3-9.8-23.4
				C69.7,322,81.6,316.1,91.6,318.9z"/>
			<path class="st26" d="M76.5,355.8c-10-2.8-14.4-13.3-9.8-23.4c4.3-9.3,14.8-15.1,24.3-13.6c-9.9-2.4-21.3,3.5-25.8,13.3
				c-4.6,10.1-0.2,20.6,9.8,23.4c0.7,0.2,1.5,0.4,2.2,0.5C76.9,355.9,76.7,355.8,76.5,355.8z"/>
			
				<radialGradient id="SVGID_34_" cx="-1024.9613" cy="-602.558" r="14.9418" gradientTransform="matrix(7.290000e-02 7.410000e-02 0.4921 -0.4845 472.0643 138.2714)" gradientUnits="userSpaceOnUse">
				<stop  offset="0" style="stop-color:#FFFFFF"/>
				<stop  offset="8.578000e-02" style="stop-color:#FFFFFF;stop-opacity:0.9583"/>
				<stop  offset="0.2351" style="stop-color:#FFFFFF;stop-opacity:0.8462"/>
				<stop  offset="0.4301" style="stop-color:#FFFFFF;stop-opacity:0.6642"/>
				<stop  offset="0.6634" style="stop-color:#FFFFFF;stop-opacity:0.4119"/>
				<stop  offset="0.9261" style="stop-color:#FFFFFF;stop-opacity:9.449000e-02"/>
				<stop  offset="1" style="stop-color:#FFFFFF;stop-opacity:0"/>
			</radialGradient>
			<path class="st51" d="M101.9,355.4c-4.1,4-7.8,6.7-8.4,6.1c-0.6-0.6,2.2-4.3,6.3-8.3c4.1-4,7.8-6.7,8.4-6.1
				C108.8,347.6,106,351.4,101.9,355.4z"/>
			
				<linearGradient id="SVGID_35_" gradientUnits="userSpaceOnUse" x1="280.4395" y1="125.4622" x2="298.4557" y2="104.3252" gradientTransform="matrix(1 0 0 -1 -203.7553 454.9268)">
				<stop  offset="0" style="stop-color:#FFFFFF"/>
				<stop  offset="1" style="stop-color:#FFFFFF;stop-opacity:0"/>
			</linearGradient>
			<path class="st52" d="M104.8,318.1L61,354.4l0,1.2c2.9,3.3,6.6,5.6,10.8,6.7c1,0.3,2,0.5,3.1,0.7l34.1-28.3l-0.3-0.1l2-1.5
				C110.8,327.5,108.7,322.1,104.8,318.1z"/>
			
				<linearGradient id="SVGID_36_" gradientUnits="userSpaceOnUse" x1="269.9367" y1="135.1842" x2="279.5731" y2="125.4092" gradientTransform="matrix(1 0 0 -1 -203.7553 454.9268)">
				<stop  offset="0" style="stop-color:#FFFFFF"/>
				<stop  offset="1" style="stop-color:#FFFFFF;stop-opacity:0"/>
			</linearGradient>
			<path class="st53" d="M92.2,312.8l-1.9-1.6c-2.6-0.2-5.3-0.1-7.9,0.4l-24.9,20.6c-1.4,3.7-1.9,7.6-1.6,11.5l37.2-30.8L92.2,312.8
				z"/>
			<g>
				<defs>
					<rect id="SVGID_37_" x="71.9" y="322.8" width="27.8" height="28.6"/>
				</defs>
				<clipPath id="SVGID_38_">
					<use xlink:href="#SVGID_37_"  style="overflow:visible;"/>
				</clipPath>
				<g class="st54">
					
						<linearGradient id="SVGID_39_" gradientUnits="userSpaceOnUse" x1="2234.5879" y1="1841.6947" x2="2234.5879" y2="1813.0469" gradientTransform="matrix(1 0 0 1 -2148.7554 -1490.2074)">
						<stop  offset="0" style="stop-color:#FFC000"/>
						<stop  offset="0.28" style="stop-color:#FFC000"/>
						<stop  offset="0.55" style="stop-color:#DAA600"/>
						<stop  offset="1" style="stop-color:#DAA600"/>
					</linearGradient>
					<path class="st55" d="M76.8,334.5c-0.1-0.1-0.2-0.2-0.3-0.4c-1.2-1.4-2-3.1-2.5-4.9c-0.3-1.3-0.4-2.6-0.3-3.9
						c0-0.7,0.2-1.4,0.6-2c0.2-0.4,0.6-0.6,1-0.4c0,0,0,0,0,0c0.9,0.3,1.6,0.9,2.1,1.7c1.3,1.7,2.2,3.7,2.5,5.8
						c0.1,0.7,0.1,1.3,0.2,2c0,0.3,0,0.5,0.1,0.8c0,0.2,0.1,0.3,0.4,0.3c0.9-0.1,1.9-0.1,2.8,0.2c0.8,0.2,1.5,0.5,2.3,0.8
						c1.1,0.4,2,1.1,2.8,1.9c0.1,0.1,0.2,0.2,0.4,0.1c0,0,0,0,0,0c0,0,0,0,0.1-0.1c0.2-0.2,0.4-0.4,0.5-0.5c1.7-2,4-3.4,6.5-4.1
						c0.8-0.3,1.7-0.3,2.5-0.2c0.4,0.1,0.7,0.2,1.1,0.3c0.1,0.1,0.2,0.3,0.3,0.4c0,0.2,0,0.5-0.1,0.7c-0.3,1-0.9,1.9-1.6,2.6
						c-1.8,2-4.2,3.4-6.8,3.9c-0.2,0-0.4,0.1-0.6,0.1c0,0.2,0.1,0.3,0.1,0.4c0.3,0.9,0.4,1.9,0.3,2.8c0,1.1-0.2,2.2-0.6,3.3
						c-0.4,1.2-1,2.4-1.8,3.4c-0.8,0.9-1.8,1.6-3,1.8c-0.8,0.2-1.7,0.3-2.6,0.2c-0.9-0.1-1.7-0.3-2.5-0.5c-0.9-0.2-1.7-0.5-2.5-0.9
						c-1.4-0.5-2.6-1.2-3.7-2.2c-1.1-1-1.9-2.3-2.2-3.7c-0.1-0.7-0.1-1.4,0-2.1c0.1-0.9,0.4-1.8,0.7-2.6c0.5-1.3,1.3-2.5,2.4-3.5
						c0.5-0.5,1-0.9,1.6-1.3L76.8,334.5z M77.7,344.7L77.7,344.7c-1,0-1.2,0.7-1,1.3c0,0.1,0.1,0.2,0.1,0.3c0.2,0.8,0.7,1.4,1.4,1.8
						c0.7,0.3,1.4,0.6,2.1,0.8c1,0.3,2.2,0.1,3-0.7c0.4-0.2,0.5-0.7,0.3-1.1c-0.1-0.1-0.1-0.2-0.2-0.2c-0.4-0.3-0.9-0.6-1.4-0.8
						c-0.8-0.4-1.7-0.6-2.5-0.9C78.9,345,78.3,344.9,77.7,344.7L77.7,344.7z M76.9,337.5c0-0.6-0.2-1-0.7-1.1
						c-0.4-0.1-0.8,0.1-1,0.4c-1,1.2-1.7,2.5-2.1,4c-0.1,0.2-0.1,0.5,0,0.7c0.1,0.4,0.5,0.8,0.9,0.7c0.2,0,0.4-0.1,0.5-0.3
						c0.3-0.5,0.7-1,1-1.5c0.4-0.7,0.7-1.3,1.1-2C76.7,338.2,76.8,337.9,76.9,337.5L76.9,337.5z M90.3,342.7c0-0.3-0.1-0.5-0.1-0.8
						c-0.1-0.5-0.6-0.7-1.1-0.6c0,0,0,0,0,0c0,0-0.1,0-0.1,0c-0.3,0.1-0.6,0.5-0.6,0.8c-0.3,1.2-0.6,2.4-0.8,3.7
						c-0.1,0.4-0.1,0.8,0,1.1c0.1,0.4,0.5,0.7,0.9,0.6c0.1,0,0.2-0.1,0.3-0.1c0.3-0.2,0.5-0.5,0.6-0.8c0.2-0.7,0.5-1.4,0.6-2.1
						C90.1,343.9,90.2,343.3,90.3,342.7L90.3,342.7z"/>
				</g>
			</g>
		</g>
	</g>
</g>
<g>
	<g id="OBJECTS_2_">
		<g>
			<polygon class="st16" points="405.7,352.8 409.7,358.3 407.6,358 403.6,352.5 			"/>
			
				<linearGradient id="SVGID_40_" gradientUnits="userSpaceOnUse" x1="616.3489" y1="88.3876" x2="661.1689" y2="127.2775" gradientTransform="matrix(1 0 0 -1 -203.7553 454.9268)">
				<stop  offset="0" style="stop-color:#D13F05"/>
				<stop  offset="0.2925" style="stop-color:#F67205"/>
				<stop  offset="0.3667" style="stop-color:#F67705"/>
				<stop  offset="0.4526" style="stop-color:#F68505"/>
				<stop  offset="0.5441" style="stop-color:#F69C05"/>
				<stop  offset="0.5638" style="stop-color:#F6A205"/>
				<stop  offset="0.5977" style="stop-color:#F69005"/>
				<stop  offset="0.6432" style="stop-color:#F67F05"/>
				<stop  offset="0.6931" style="stop-color:#F67505"/>
				<stop  offset="0.7553" style="stop-color:#F67205"/>
				<stop  offset="1" style="stop-color:#D13F05"/>
			</linearGradient>
			<path class="st56" d="M451.4,320.2c1.3,1.8,2.7,3.7,4,5.5c2.7,3.8,4.1,8.3,4.1,12.9l-4-5.5C455.5,328.5,454.1,323.9,451.4,320.2z
				"/>
			<polygon class="st18" points="455.5,333.1 459.5,338.6 457.5,340 453.5,334.6 			"/>
			<polygon class="st16" points="435.3,359.8 439.3,365.3 438.4,366.7 434.5,361.2 			"/>
			
				<linearGradient id="SVGID_41_" gradientUnits="userSpaceOnUse" x1="617.7578" y1="86.7679" x2="662.5755" y2="125.6558" gradientTransform="matrix(1 0 0 -1 -203.7553 454.9268)">
				<stop  offset="0" style="stop-color:#D13F05"/>
				<stop  offset="0.2925" style="stop-color:#F67205"/>
				<stop  offset="0.3667" style="stop-color:#F67705"/>
				<stop  offset="0.4526" style="stop-color:#F68505"/>
				<stop  offset="0.5441" style="stop-color:#F69C05"/>
				<stop  offset="0.5638" style="stop-color:#F6A205"/>
				<stop  offset="0.5977" style="stop-color:#F69005"/>
				<stop  offset="0.6432" style="stop-color:#F67F05"/>
				<stop  offset="0.6931" style="stop-color:#F67505"/>
				<stop  offset="0.7553" style="stop-color:#F67205"/>
				<stop  offset="1" style="stop-color:#D13F05"/>
			</linearGradient>
			<path class="st57" d="M434.5,361.2l4,5.5c-5.7,2.2-12,2.6-17.9,1c-4.2-1.1-7.9-3.5-10.8-6.7l-4-5.5c2.9,3.3,6.6,5.6,10.8,6.7
				C422.5,363.8,428.8,363.5,434.5,361.2z"/>
			<polygon class="st20" points="436.8,360.2 440.8,365.7 439.3,365.3 435.3,359.8 			"/>
			
				<linearGradient id="SVGID_42_" gradientUnits="userSpaceOnUse" x1="624.0518" y1="79.514" x2="668.8702" y2="118.4025" gradientTransform="matrix(1 0 0 -1 -203.7553 454.9268)">
				<stop  offset="0" style="stop-color:#D13F05"/>
				<stop  offset="0.2925" style="stop-color:#F67205"/>
				<stop  offset="0.3667" style="stop-color:#F67705"/>
				<stop  offset="0.4526" style="stop-color:#F68505"/>
				<stop  offset="0.5441" style="stop-color:#F69C05"/>
				<stop  offset="0.5638" style="stop-color:#F6A205"/>
				<stop  offset="0.5977" style="stop-color:#F69005"/>
				<stop  offset="0.6432" style="stop-color:#F67F05"/>
				<stop  offset="0.6931" style="stop-color:#F67505"/>
				<stop  offset="0.7553" style="stop-color:#F67205"/>
				<stop  offset="1" style="stop-color:#D13F05"/>
			</linearGradient>
			<path class="st58" d="M455.4,335.1l4,5.5c-0.3,3.1-1.1,6.2-2.4,9.1c-3.3,7.1-9.1,12.8-16.2,16.1l-4-5.5c7.1-3.3,12.9-9,16.2-16.1
				C454.3,341.3,455.1,338.3,455.4,335.1z"/>
			
				<linearGradient id="SVGID_43_" gradientUnits="userSpaceOnUse" x1="607.4695" y1="97.4501" x2="656.9766" y2="137.7176" gradientTransform="matrix(1 0 0 -1 -203.7553 454.9268)">
				<stop  offset="0" style="stop-color:#FFFFFF;stop-opacity:0"/>
				<stop  offset="0.2606" style="stop-color:#FFFFFF"/>
				<stop  offset="0.7553" style="stop-color:#FFFFFF"/>
				<stop  offset="1" style="stop-color:#FFFFFF;stop-opacity:0"/>
			</linearGradient>
			<path class="st59" d="M455.7,335.4c-0.3,3.1-1.1,6.2-2.4,9.1c-3.3,7.1-9.1,12.8-16.2,16.1l-1.5-0.4l-0.9,1.4
				c-5.7,2.2-12,2.6-17.9,1c-4.2-1.1-7.9-3.5-10.8-6.7l0-2.7l-2.1-0.3c-3.7-6.2-4.1-14.4-0.5-22.4c1.1-2.4,2.5-4.6,4.1-6.6
				c0.9-0.4,1.7-0.8,2.5-1.3l0.4-1.8c6.7-6.5,16.1-10.1,25-9.2l1.9,1.6l5.4,0.3c8.3,3.5,13.2,11.2,13.1,20l-2,1.5L455.7,335.4z"/>
			
				<linearGradient id="SVGID_44_" gradientUnits="userSpaceOnUse" x1="650.9562" y1="109.664" x2="600.7441" y2="130.8744" gradientTransform="matrix(1 0 0 -1 -203.7553 454.9268)">
				<stop  offset="0" style="stop-color:#FFAF02"/>
				<stop  offset="1" style="stop-color:#F56D05"/>
			</linearGradient>
			<path class="st60" d="M455.4,335.1c-0.3,3.1-1.1,6.2-2.4,9.1c-3.3,7.1-9.1,12.8-16.2,16.1l-1.5-0.4l-0.9,1.4
				c-5.7,2.2-12,2.6-17.9,1c-4.2-1.1-7.9-3.5-10.8-6.7l0-2.7l-2.1-0.3c-3.7-6.2-4.1-14.4-0.5-22.4c1.1-2.4,2.5-4.6,4.1-6.6
				c0.9-0.4,1.7-0.8,2.5-1.3l0.4-1.8c6.7-6.5,16.1-10.1,25-9.2l1.9,1.6l5.4,0.3c8.3,3.5,13.2,11.2,13.1,20l-2,1.5L455.4,335.1z"/>
			
				<linearGradient id="SVGID_45_" gradientUnits="userSpaceOnUse" x1="613.4232" y1="134.9514" x2="642.5662" y2="107.0953" gradientTransform="matrix(1 0 0 -1 -203.7553 454.9268)">
				<stop  offset="0" style="stop-color:#FFFFFF;stop-opacity:0"/>
				<stop  offset="0.2606" style="stop-color:#FFFFFF"/>
				<stop  offset="0.7553" style="stop-color:#FFFFFF"/>
				<stop  offset="1" style="stop-color:#FFFFFF;stop-opacity:0"/>
			</linearGradient>
			<path class="st61" d="M435.9,318.8c10,2.8,14.4,13.3,9.8,23.4c-4.6,10.1-16.5,16-26.5,13.2c-10-2.8-14.4-13.3-9.8-23.4
				C414,321.9,425.9,316,435.9,318.8z"/>
			
				<linearGradient id="SVGID_46_" gradientUnits="userSpaceOnUse" x1="611.828" y1="117.7613" x2="651.7893" y2="117.7613" gradientTransform="matrix(1 0 0 -1 -203.7553 454.9268)">
				<stop  offset="0" style="stop-color:#CF4505"/>
				<stop  offset="1" style="stop-color:#E45905"/>
			</linearGradient>
			<path class="st62" d="M436.4,318.9c10,2.8,14.4,13.3,9.8,23.4c-4.6,10.1-16.5,16-26.5,13.2c-10-2.8-14.4-13.3-9.8-23.4
				C414.5,322,426.4,316.1,436.4,318.9z"/>
			<path class="st26" d="M421.3,355.8c-10-2.8-14.4-13.3-9.8-23.4c4.3-9.3,14.8-15.1,24.3-13.6c-9.9-2.4-21.3,3.5-25.8,13.3
				c-4.6,10.1-0.2,20.6,9.8,23.4c0.7,0.2,1.5,0.4,2.2,0.5C421.7,355.9,421.5,355.8,421.3,355.8z"/>
			
				<radialGradient id="SVGID_47_" cx="1302.1949" cy="-246.6399" r="14.9418" gradientTransform="matrix(7.290000e-02 7.410000e-02 0.4921 -0.4845 472.0643 138.2714)" gradientUnits="userSpaceOnUse">
				<stop  offset="0" style="stop-color:#FFFFFF"/>
				<stop  offset="8.578000e-02" style="stop-color:#FFFFFF;stop-opacity:0.9583"/>
				<stop  offset="0.2351" style="stop-color:#FFFFFF;stop-opacity:0.8462"/>
				<stop  offset="0.4301" style="stop-color:#FFFFFF;stop-opacity:0.6642"/>
				<stop  offset="0.6634" style="stop-color:#FFFFFF;stop-opacity:0.4119"/>
				<stop  offset="0.9261" style="stop-color:#FFFFFF;stop-opacity:9.449000e-02"/>
				<stop  offset="1" style="stop-color:#FFFFFF;stop-opacity:0"/>
			</radialGradient>
			<path class="st63" d="M446.7,355.4c-4.1,4-7.8,6.7-8.4,6.1c-0.6-0.6,2.2-4.3,6.3-8.3c4.1-4,7.8-6.7,8.4-6.1
				C453.6,347.6,450.8,351.4,446.7,355.4z"/>
			
				<linearGradient id="SVGID_48_" gradientUnits="userSpaceOnUse" x1="625.2365" y1="125.4622" x2="643.2526" y2="104.3252" gradientTransform="matrix(1 0 0 -1 -203.7553 454.9268)">
				<stop  offset="0" style="stop-color:#FFFFFF"/>
				<stop  offset="1" style="stop-color:#FFFFFF;stop-opacity:0"/>
			</linearGradient>
			<path class="st64" d="M449.6,318.1l-43.9,36.3l0,1.2c2.9,3.3,6.6,5.6,10.8,6.7c1,0.3,2,0.5,3.1,0.7l34.1-28.3l-0.3-0.1l2-1.5
				C455.6,327.5,453.5,322.1,449.6,318.1z"/>
			
				<linearGradient id="SVGID_49_" gradientUnits="userSpaceOnUse" x1="614.7336" y1="135.1842" x2="624.3701" y2="125.4092" gradientTransform="matrix(1 0 0 -1 -203.7553 454.9268)">
				<stop  offset="0" style="stop-color:#FFFFFF"/>
				<stop  offset="1" style="stop-color:#FFFFFF;stop-opacity:0"/>
			</linearGradient>
			<path class="st65" d="M437,312.8l-1.9-1.6c-2.6-0.2-5.3-0.1-7.9,0.4l-24.9,20.6c-1.4,3.7-1.9,7.6-1.6,11.5l37.2-30.8L437,312.8z"
				/>
			<g>
				<defs>
					<rect id="SVGID_50_" x="416.7" y="322.8" width="27.8" height="28.6"/>
				</defs>
				<clipPath id="SVGID_51_">
					<use xlink:href="#SVGID_50_"  style="overflow:visible;"/>
				</clipPath>
				<g class="st66">
					
						<linearGradient id="SVGID_52_" gradientUnits="userSpaceOnUse" x1="2579.385" y1="1841.6947" x2="2579.385" y2="1813.0469" gradientTransform="matrix(1 0 0 1 -2148.7554 -1490.2074)">
						<stop  offset="0" style="stop-color:#FFC000"/>
						<stop  offset="0.28" style="stop-color:#FFC000"/>
						<stop  offset="0.55" style="stop-color:#DAA600"/>
						<stop  offset="1" style="stop-color:#DAA600"/>
					</linearGradient>
					<path class="st67" d="M421.6,334.5c-0.1-0.1-0.2-0.2-0.3-0.4c-1.2-1.4-2-3.1-2.5-4.9c-0.3-1.3-0.4-2.6-0.3-3.9
						c0-0.7,0.2-1.4,0.6-2c0.2-0.4,0.6-0.6,1-0.4c0,0,0,0,0,0c0.9,0.3,1.6,0.9,2.1,1.7c1.3,1.7,2.2,3.7,2.5,5.8
						c0.1,0.7,0.1,1.3,0.2,2c0,0.3,0,0.5,0.1,0.8c0,0.2,0.1,0.3,0.4,0.3c0.9-0.1,1.9-0.1,2.8,0.2c0.8,0.2,1.5,0.5,2.3,0.8
						c1.1,0.4,2,1.1,2.8,1.9c0.1,0.1,0.2,0.2,0.4,0.1c0,0,0,0,0,0c0,0,0,0,0.1-0.1c0.2-0.2,0.4-0.4,0.5-0.5c1.7-2,4-3.4,6.5-4.1
						c0.8-0.3,1.7-0.3,2.5-0.2c0.4,0.1,0.7,0.2,1.1,0.3c0.1,0.1,0.2,0.3,0.3,0.4c0,0.2,0,0.5-0.1,0.7c-0.3,1-0.9,1.9-1.6,2.6
						c-1.8,2-4.2,3.4-6.8,3.9c-0.2,0-0.4,0.1-0.6,0.1c0,0.2,0.1,0.3,0.1,0.4c0.3,0.9,0.4,1.9,0.3,2.8c0,1.1-0.2,2.2-0.6,3.3
						c-0.4,1.2-1,2.4-1.8,3.4c-0.8,0.9-1.8,1.6-3,1.8c-0.8,0.2-1.7,0.3-2.6,0.2c-0.9-0.1-1.7-0.3-2.5-0.5c-0.9-0.2-1.7-0.5-2.5-0.9
						c-1.4-0.5-2.6-1.2-3.7-2.2c-1.1-1-1.9-2.3-2.2-3.7c-0.1-0.7-0.1-1.4,0-2.1c0.1-0.9,0.4-1.8,0.7-2.6c0.5-1.3,1.3-2.5,2.4-3.5
						c0.5-0.5,1-0.9,1.6-1.3L421.6,334.5z M422.5,344.7L422.5,344.7c-1,0-1.2,0.7-1,1.3c0,0.1,0.1,0.2,0.1,0.3
						c0.2,0.8,0.7,1.4,1.4,1.8c0.7,0.3,1.4,0.6,2.1,0.8c1,0.3,2.2,0.1,3-0.7c0.4-0.2,0.5-0.7,0.3-1.1c-0.1-0.1-0.1-0.2-0.2-0.2
						c-0.4-0.3-0.9-0.6-1.4-0.8c-0.8-0.4-1.7-0.6-2.5-0.9C423.7,345,423.1,344.9,422.5,344.7L422.5,344.7z M421.7,337.5
						c0-0.6-0.2-1-0.7-1.1c-0.4-0.1-0.8,0.1-1,0.4c-1,1.2-1.7,2.5-2.1,4c-0.1,0.2-0.1,0.5,0,0.7c0.1,0.4,0.5,0.8,0.9,0.7
						c0.2,0,0.4-0.1,0.5-0.3c0.3-0.5,0.7-1,1-1.5c0.4-0.7,0.7-1.3,1.1-2C421.5,338.2,421.6,337.9,421.7,337.5L421.7,337.5z
						 M435.1,342.7c0-0.3-0.1-0.5-0.1-0.8c-0.1-0.5-0.6-0.7-1.1-0.6c0,0,0,0,0,0c0,0-0.1,0-0.1,0c-0.3,0.1-0.6,0.5-0.6,0.8
						c-0.3,1.2-0.6,2.4-0.8,3.7c-0.1,0.4-0.1,0.8,0,1.1c0.1,0.4,0.5,0.7,0.9,0.6c0.1,0,0.2-0.1,0.3-0.1c0.3-0.2,0.5-0.5,0.6-0.8
						c0.2-0.7,0.5-1.4,0.6-2.1C434.9,343.9,435,343.3,435.1,342.7L435.1,342.7z"/>
				</g>
			</g>
		</g>
	</g>
</g>
<g class="st13">
	<g class="st1">
		<g>
			<g>
				<path class="st14" d="M38,93.9l0.1,64.2c0,6.7,4.4,13.4,13.2,18.5c17.7,10.3,46.5,10.3,64.3,0c9-5.2,13.4-12,13.4-18.8L129,93.7
					c0,6.8-4.5,13.6-13.4,18.8c-17.8,10.3-46.6,10.3-64.3,0C42.5,107.3,38.1,100.6,38,93.9z"/>
			</g>
		</g>
		<g>
			<g>
				<path class="st15" d="M51.5,75.2c-17.8,10.3-17.9,27-0.2,37.2c17.7,10.3,46.5,10.3,64.3,0s17.9-27,0.2-37.2
					C98.1,64.9,69.3,64.9,51.5,75.2z"/>
			</g>
		</g>
	</g>
</g>
<g class="st13">
	<g class="st1">
		<g>
			<g>
				<path class="st14" d="M473.9,93.9l-0.1,64.2c0,6.7-4.4,13.4-13.2,18.5c-17.7,10.3-46.5,10.3-64.3,0c-9-5.2-13.4-12-13.4-18.8
					l0.1-64.2c0,6.8,4.5,13.6,13.4,18.8c17.8,10.3,46.6,10.3,64.3,0C469.5,107.3,473.9,100.6,473.9,93.9z"/>
			</g>
		</g>
		<g>
			<g>
				<path class="st15" d="M460.5,75.2c17.8,10.3,17.9,27,0.2,37.2c-17.7,10.3-46.5,10.3-64.3,0s-17.9-27-0.2-37.2
					C413.9,64.9,442.7,64.9,460.5,75.2z"/>
			</g>
		</g>
	</g>
</g>
<g class="st13">
	<g class="st1">
		<g>
			<g>
				<path class="st14" d="M129.1,294.3l-0.1,64.2c0,6.7-4.4,13.4-13.2,18.5c-17.7,10.3-46.5,10.3-64.3,0c-9-5.2-13.4-12-13.4-18.8
					l0.1-64.2c0,6.8,4.5,13.6,13.4,18.8c17.8,10.3,46.6,10.3,64.3,0C124.7,307.7,129.1,301,129.1,294.3z"/>
			</g>
		</g>
		<g>
			<g>
				<path class="st15" d="M115.7,275.6c17.8,10.3,17.9,27,0.2,37.2c-17.7,10.3-46.5,10.3-64.3,0s-17.9-27-0.2-37.2
					C69.1,265.3,97.9,265.3,115.7,275.6z"/>
			</g>
		</g>
	</g>
</g>
<g class="st13">
	<g class="st1">
		<g>
			<g>
				<path class="st14" d="M382.8,294.3l0.1,64.2c0,6.7,4.4,13.4,13.2,18.5c17.7,10.3,46.5,10.3,64.3,0c9-5.2,13.4-12,13.4-18.8
					l-0.1-64.2c0,6.8-4.5,13.6-13.4,18.8c-17.8,10.3-46.6,10.3-64.3,0C387.3,307.7,382.9,301,382.8,294.3z"/>
			</g>
		</g>
		<g>
			<g>
				<path class="st15" d="M396.3,275.6c-17.8,10.3-17.9,27-0.2,37.2c17.7,10.3,46.5,10.3,64.3,0s17.9-27,0.2-37.2
					C442.9,265.3,414.1,265.3,396.3,275.6z"/>
			</g>
		</g>
	</g>
</g>
</svg>
