<svg id="Layer_1" enable-background="new 0 0 52 52" height="512" viewBox="0 0 52 52" width="512" xmlns="http://www.w3.org/2000/svg"><g id="_x39_"><g><g><g enable-background="new"><g><g><g><g><path d="m43.7 32.6v1.6l-10.9 6.3v-1.5l-1.4-.8 10.9-6.3z" fill="#e9e7fc"/></g></g></g></g><g><g><g><g><path d="m32.8 39 10.9-6.4v1.6l-10.9 6.3z" fill="#f3f1fc"/></g></g></g></g><g><g><g><g><path d="m31.4 38.2 10.9-6.3 1.4.7-10.9 6.4z" fill="#e9e7fc"/></g></g></g></g><g><g><g><g><path d="m32.8 39v1.5l-1.4-.7v-1.6z" fill="#dedffb"/></g></g></g></g></g></g><g><g enable-background="new"><g><g><g><g><path d="m33.2 41.6-5.1 2.9-2.1-1.2v-3.3l5.1-2.9 2 1.2z" fill="#111d33"/></g></g></g></g></g></g><g><g enable-background="new"><g><g><g><g><path d="m28 44.5-2-1.2v-3.3l2 1.2z" fill="#111d33"/></g></g></g></g><g><g><g><g><path d="m28 41.2-2-1.2 5.1-2.9 2 1.2z" fill="#1d2943"/></g></g></g></g><g><g><g><g><path d="m33.1 38.3v3.3l-5.1 2.9v-3.3z" fill="#4c5c75"/></g></g></g></g></g></g><g><g enable-background="new"><g><g><g><g><path d="m30.8 25.5-.1 13.8-1.3.8-1.4-.8.1-13.8 1.3.8z" fill="#dedffb"/></g></g></g></g><g><g><g><g><path d="m30.8 25.5-.1 13.8-1.3.8v-13.8z" fill="#f3f1fc"/></g></g></g></g><g><g><g><g><path d="m29.4 26.3v13.8l-1.4-.8.1-13.8z" fill="#dedffb"/></g></g></g></g><g><g><g><g><path d="m30.8 25.5-1.4.8-1.3-.8 1.3-.7z" fill="#adb2c3"/></g></g></g></g></g></g><g><g enable-background="new"><g><g><g><g><path d="m27.7 41.9v1.5l-10.9 6.4-1.4-.8v-1.6l11-6.3z" fill="#dedffb"/></g></g></g></g></g></g><g><g enable-background="new"><g><g><g><g><path d="m16.8 48.2 10.9-6.3v1.5l-10.9 6.4z" fill="#f3f1fc"/></g></g></g></g><g><g><g><g><path d="m15.4 47.4 11-6.3 1.3.8-10.9 6.3z" fill="#e9e7fc"/></g></g></g></g><g><g><g><g><path d="m16.8 48.2v1.6l-1.4-.8v-1.6z" fill="#dedffb"/></g></g></g></g></g></g></g><g><g><g><g><g><g><path d="m11.3 25.1 16.1-9.3 11.3 6.5-16.2 9.3z" fill="#1d2943"/></g></g></g><g><g><g><path d="m41.7 26.3-19.2 11.1-14.2-8.3v-4l19.2-11.1 14.2 8.3z" fill="#111d33"/></g></g></g><g><g><g><path d="m22.5 37.4-14.2-8.3v-4l14.2 8.2z" fill="#1d2943"/></g></g></g><g><g><g><path d="m22.5 33.3-14.2-8.2 19.1-11.1 14.3 8.3z" fill="#4c5c75"/></g></g></g><g><g><g><path d="m41.7 22.3v4.1l-19.2 11v-4.1z" fill="#111d33"/></g></g></g><g><g><g><g><path d="m23.7 34 7.5-4.3v1.8l-7.5 4.3z" fill="#ffd06c"/></g></g></g><g><g><g><g><g><path d="m35.5 27.3c.4-.2.7 0 .7.4 0 .5-.3 1-.7 1.2s-.7.1-.7-.4c-.1-.4.3-1 .7-1.2z" fill="#f45170"/></g></g></g></g><g><g><g><g><path d="m37.6 26c.4-.2.7 0 .7.4 0 .5-.3 1-.7 1.2s-.7.1-.7-.4c0-.4.3-.9.7-1.2z" fill="#78e75a"/></g></g></g></g><g><g><g><g><path d="m39.8 24.8c.4-.2.7 0 .7.4s-.3 1-.7 1.2-.7.1-.7-.4c0-.4.3-1 .7-1.2z" fill="#57b3fe"/></g></g></g></g></g></g></g></g><g><g><g><g><g><path d="m22.5 31.5-14.2-8.3v-4l14.2 8.2z" fill="#1d2943"/></g></g></g><g><g><g><path d="m22.5 27.4-14.2-8.2 19.1-11.1 14.3 8.3z" fill="#4c5c75"/></g></g></g><g><g><g><path d="m11.3 19.2 16.1-9.3 11.3 6.5-16.2 9.3z" fill="#1d2943"/></g></g></g><g><g><g><path d="m41.7 16.4v4.1l-19.2 11v-4.1z" fill="#111d33"/></g></g></g><g><g><g><g><path d="m23.7 28.1 7.5-4.3v1.8l-7.5 4.3z" fill="#ffd06c"/></g></g></g><g><g><g><g><g><path d="m35.5 21.4c.4-.2.7 0 .7.4s-.3 1-.7 1.2-.7.1-.7-.4c-.1-.4.3-1 .7-1.2z" fill="#f45170"/></g></g></g></g><g><g><g><g><path d="m37.6 20.1c.4-.2.7 0 .7.4 0 .5-.3 1-.7 1.2s-.7.1-.7-.4.3-.9.7-1.2z" fill="#78e75a"/></g></g></g></g><g><g><g><g><path d="m39.8 18.9c.4-.2.7 0 .7.4 0 .5-.3 1-.7 1.2s-.7.1-.7-.4c0-.4.3-1 .7-1.2z" fill="#57b3fe"/></g></g></g></g></g></g></g></g><g><g><g><g><g><path d="m11.3 19.2 16.1-9.3 11.3 6.5-16.2 9.3z" fill="#1d2943"/></g></g></g><g><g><g><path d="m41.7 20.5-19.2 11-14.2-8.3v-4l19.2-11.1 14.2 8.3z" fill="#111d33"/></g></g></g><g><g><g><path d="m22.5 31.5-14.2-8.3v-4l14.2 8.2z" fill="#1d2943"/></g></g></g><g><g><g><path d="m22.5 27.4-14.2-8.2 19.1-11.1 14.3 8.3z" fill="#4c5c75"/></g></g></g><g><g><g><path d="m41.7 16.4v4.1l-19.2 11v-4.1z" fill="#111d33"/></g></g></g><g><g><g><g><path d="m23.7 28.1 7.5-4.3v1.8l-7.5 4.3z" fill="#ffd06c"/></g></g></g><g><g><g><g><g><path d="m35.5 21.4c.4-.2.7 0 .7.4s-.3 1-.7 1.2-.7.1-.7-.4c-.1-.4.3-1 .7-1.2z" fill="#f45170"/></g></g></g></g><g><g><g><g><path d="m37.6 20.1c.4-.2.7 0 .7.4 0 .5-.3 1-.7 1.2s-.7.1-.7-.4.3-.9.7-1.2z" fill="#78e75a"/></g></g></g></g><g><g><g><g><path d="m39.8 18.9c.4-.2.7 0 .7.4 0 .5-.3 1-.7 1.2s-.7.1-.7-.4c0-.4.3-1 .7-1.2z" fill="#57b3fe"/></g></g></g></g></g></g></g></g><g><g><g><path d="m41.7 14.6-19.2 11-14.2-8.3v-4l19.2-11.1 14.2 8.3z" fill="#111d33"/></g></g></g><g><g><g><path d="m22.5 25.6-14.2-8.3v-4l14.2 8.2z" fill="#1d2943"/></g></g></g><g><g><g><path d="m22.5 21.5-14.2-8.2 19.1-11.1 14.3 8.3z" fill="#4c5c75"/></g></g></g><g><g><g><path d="m41.7 10.5v4.1l-19.2 11v-4.1z" fill="#111d33"/></g></g></g><g><g><g><g><path d="m23.7 22.2 7.5-4.3v1.8l-7.5 4.3z" fill="#ffd06c"/></g></g></g><g><g><g><g><g><path d="m35.5 15.5c.4-.2.7 0 .7.4 0 .5-.3 1-.7 1.2s-.7.1-.7-.4.3-1 .7-1.2z" fill="#f45170"/></g></g></g></g><g><g><g><g><path d="m37.6 14.3c.4-.2.7 0 .7.4 0 .5-.3 1-.7 1.2s-.7.1-.7-.4.3-1 .7-1.2z" fill="#78e75a"/></g></g></g></g><g><g><g><g><path d="m39.8 13c.4-.2.7 0 .7.4 0 .5-.3 1-.7 1.2s-.7.1-.7-.4c0-.4.3-1 .7-1.2z" fill="#57b3fe"/></g></g></g></g></g></g><g><g><g><g><g><g><path d="m22.2 12.8-2.4-1.4c-1.5-.8-1.5-2.4 0-3.3 1.3-.7 3.3-.7 4.5 0l2.4 1.4-.6 1-2.4-1.4c-.9-.5-2.5-.5-3.4 0-.7.4-.7.9 0 1.3l2.4 1.4z" fill="#dedffb"/></g></g></g></g></g><g><g><g><g><path d="m31.3 12.8c0 .1-.1.3-.3.3l-5 3c-.3.2-.9.2-1.2 0l-3.9-2.3c-.2-.1-.2-.2-.2-.4v-1.4c0-.1.1-.2.3-.3l5.1-2.9c.3-.2.9-.2 1.2 0l3.9 2.3c.2.1.3.3.2.4z" fill="#748bfd"/></g></g></g></g><g><g><g><g><path d="m31.3 12.8c0 .1-.1.3-.3.3l-5.1 2.9c-.3.2-.9.2-1.2 0l-3.9-2.3c-.2-.1-.2-.2-.2-.3v-1.4c0 .1.1.3.3.3l3.9 2.3c.3.2.9.2 1.2 0l5.1-2.9c.2-.1.2-.2.2-.3z" fill="#748bfd"/></g></g></g></g><g><g><g><g><path d="m20.8 11.7c-.3.2-.3.5 0 .7l3.9 2.3c.3.2.9.2 1.2 0l5.1-2.9c.3-.2.3-.5 0-.7l-3.9-2.3c-.3-.2-.9-.2-1.2 0z" fill="#8fabfe"/></g></g></g></g><g><g><g><g><path d="m27.7 11.9c-.1.1-1.6.9-1.5.9l-1-.9c-.3 0-.6 0-.8-.2-.4-.3-.4-.6 0-.8s1-.2 1.4 0c.2.1.3.3.3.5.1-.1 1.7.5 1.6.5z" fill="#1d2943"/></g></g></g></g></g></g></g></svg>