<?xml version="1.0" encoding="utf-8"?>
<!-- Generator: Adobe Illustrator 25.2.1, SVG Export Plug-In . SVG Version: 6.00 Build 0)  -->
<svg version="1.1" id="Layer_1" xmlns="http://www.w3.org/2000/svg" xmlns:xlink="http://www.w3.org/1999/xlink" x="0px" y="0px"
	 viewBox="0 0 512 512" style="enable-background:new 0 0 512 512;" xml:space="preserve">
<style type="text/css">
	.st0{fill:#4C5C75;}
	.st1{fill:#DEDFFB;}
	.st2{enable-background:new    ;}
	.st3{fill:#E9E7FC;}
	.st4{fill:#F3F1FC;}
	.st5{fill:#1D2943;}
	.st6{fill:#78E75A;}
	.st7{fill:#FFD06C;}
	.st8{fill:#57B3FE;}
	.st9{fill:#C5C7E2;}
	.st10{fill:#B0B8CF;}
	.st11{fill:#C9CEE2;}
	.st12{fill:#E3E7F0;}
	.st13{fill:#F45170;}
	.st14{fill:#D84905;}
	.st15{fill:url(#SVGID_1_);}
	.st16{fill:#F67205;}
	.st17{fill:url(#SVGID_2_);}
	.st18{fill:#F69D05;}
	.st19{fill:url(#SVGID_3_);}
	.st20{opacity:0.7;fill:url(#SVGID_4_);enable-background:new    ;}
	.st21{fill:url(#SVGID_5_);}
	.st22{opacity:0.7;fill:url(#SVGID_6_);enable-background:new    ;}
	.st23{fill:url(#SVGID_7_);}
	.st24{fill:#BA3E05;}
	.st25{opacity:0.5;fill:url(#SVGID_8_);enable-background:new    ;}
	.st26{opacity:0.4;fill:url(#SVGID_9_);enable-background:new    ;}
	.st27{opacity:0.4;fill:url(#SVGID_10_);enable-background:new    ;}
	.st28{clip-path:url(#SVGID_12_);}
	.st29{fill-rule:evenodd;clip-rule:evenodd;fill:url(#SVGID_13_);}
</style>
<g>
	<g>
		<path class="st0" d="M219.8,471.6c-0.3,0-0.7-0.1-1-0.3L30.3,362.5c-0.6-0.4-1-1-1-1.7c0-0.7,0.4-1.4,1-1.7l238.3-138.5L203.4,183
			c-0.9-0.5-1.3-1.8-0.7-2.7c0.5-0.9,1.7-1.3,2.7-0.7l68.2,39.4c0.6,0.4,1,1,1,1.7c0,0.7-0.4,1.4-1,1.7L35.2,360.8l184.6,106.6
			l19.2-11.2c0.9-0.6,2.1-0.2,2.7,0.7c0.5,0.9,0.2,2.1-0.7,2.7l-20.2,11.8C220.5,471.6,220.2,471.6,219.8,471.6z"/>
	</g>
	<g>
		<path class="st0" d="M193.3,185.8c-4.3,0-8.6-1-11.9-2.9c-3.6-2.1-5.5-4.9-5.5-8c0-3.1,1.9-6,5.5-8.1c6.5-3.8,17.2-3.8,23.8,0
			c3.6,2,5.5,4.9,5.5,8c0,3.1-1.9,6-5.4,8.1c0,0,0,0,0,0C201.9,184.8,197.6,185.8,193.3,185.8z M193.2,167.9c-3.6,0-7.2,0.8-9.9,2.3
			c-2.3,1.3-3.5,3-3.5,4.6c0,1.6,1.3,3.3,3.5,4.6c5.4,3.1,14.5,3.1,19.9,0c2.2-1.3,3.5-3,3.5-4.7c0-1.7-1.3-3.3-3.6-4.6
			C200.4,168.7,196.8,167.9,193.2,167.9z M204.2,181.2L204.2,181.2L204.2,181.2z"/>
	</g>
</g>
<g>
	<g>
		<g>
			<g>
				<path class="st0" d="M400.5,406.3c-0.3,0-0.7-0.1-1-0.3l-80.7-46.6c-0.6-0.4-1-1-1-1.7c0-0.7,0.4-1.4,1-1.7l80.2-46.6
					c0.6-0.3,1.4-0.4,2,0l80.7,46.6c0.6,0.4,1,1,1,1.7c0,0.7-0.4,1.4-1,1.7l-80.2,46.6C401.2,406.2,400.9,406.3,400.5,406.3z
					 M323.8,357.8l76.7,44.3l76.2-44.3L400,313.5L323.8,357.8z"/>
			</g>
		</g>
		<g>
			<g>
				<g>
					<g>
						<g>
							<g>
								<path class="st1" d="M480.5,172.4L480,344.8l-80.1,46.7l-80.7-46.6l0.5-172.4l80.2-46.7L480.5,172.4z"/>
							</g>
						</g>
					</g>
					<g class="st2">
						<g>
							<g>
								<path class="st1" d="M480.5,172.4L480,344.9l-80.2,46.6l0.5-172.4L480.5,172.4z"/>
							</g>
						</g>
						<g>
							<g>
								<path class="st3" d="M400.3,219l-0.5,172.4l-80.7-46.6l0.5-172.4L400.3,219z"/>
							</g>
						</g>
						<g>
							<g>
								<path class="st4" d="M480.5,172.4L400.3,219l-80.7-46.6l80.2-46.6L480.5,172.4z"/>
							</g>
						</g>
					</g>
				</g>
				<g>
					<g>
						<g>
							<path class="st5" d="M474,209.2l-67.7,39.1l-0.1-24.2l67.7-39.1L474,209.2z"/>
						</g>
					</g>
					<g>
						<g>
							<g>
								<path class="st6" d="M410.1,229.8l0,3.9l3.4-1.9l0-3.9L410.1,229.8z"/>
							</g>
						</g>
						<g>
							<g>
								<path class="st6" d="M426.8,216.3l0,3.9l3.3-1.9l0,3.9l3.4-1.9l0-3.9l-3.2,1.9l0-3.9L426.8,216.3z"/>
							</g>
						</g>
						<g>
							<g>
								<path class="st6" d="M420.1,220.2l0,3.9l3.3-1.9l0,3.9l3.4-1.9l0-3.9l-3.3,1.9l0-3.9L420.1,220.2z"/>
							</g>
						</g>
						<g>
							<g>
								<g>
									<path class="st6" d="M433.4,212.5l0,3.9l3.3-1.9l0,3.9l3.4-1.9l0-3.9l-3.2,1.9l0-3.9L433.4,212.5z"/>
								</g>
							</g>
							<g>
								<g>
									<g>
										<path class="st6" d="M413.5,225l0,3.9l3.3-1.9l0,3.9l3.4-1.9l0-3.9l-3.3,1.9l0-3.9L413.5,225z"/>
									</g>
								</g>
								<g>
									<g>
										<path class="st4" d="M439.8,220.7l-29.6,17.1l0,3.6l29.6-17.1V220.7z"/>
									</g>
								</g>
							</g>
						</g>
					</g>
					<g>
						<g>
							<g>
								<path class="st7" d="M463.1,195l0,16.8l-4.9,2.8l0-16.8L463.1,195z"/>
							</g>
						</g>
						<g>
							<g>
								<path class="st7" d="M471.6,190.2l0,16.8l-4.9,2.8l0-16.8L471.6,190.2z"/>
							</g>
						</g>
					</g>
				</g>
				<g>
					<g>
						<g>
							<path class="st5" d="M474,242.4l-67.7,39.1l-0.1-24.2l67.7-39.1L474,242.4z"/>
						</g>
					</g>
					<g>
						<g>
							<g>
								<path class="st8" d="M410.1,263l0,3.9l3.4-1.9l0-3.9L410.1,263z"/>
							</g>
						</g>
						<g>
							<g>
								<path class="st8" d="M426.8,249.5l0,3.9l3.3-1.9l0,3.9l3.4-1.9l0-3.9l-3.2,1.9l0-3.9L426.8,249.5z"/>
							</g>
						</g>
						<g>
							<g>
								<path class="st8" d="M420.1,253.4l0,3.9l3.3-1.9l0,3.9l3.4-1.9l0-3.9l-3.3,1.9l0-3.9L420.1,253.4z"/>
							</g>
						</g>
						<g>
							<g>
								<g>
									<path class="st8" d="M433.4,245.7l0,3.9l3.3-1.9l0,3.9l3.4-1.9l0-3.9l-3.2,1.9l0-3.9L433.4,245.7z"/>
								</g>
							</g>
							<g>
								<g>
									<g>
										<path class="st8" d="M413.5,258.2l0,3.9l3.3-1.9l0,3.9l3.4-1.9l0-3.9l-3.3,1.9l0-3.9L413.5,258.2z"/>
									</g>
								</g>
								<g>
									<g>
										<path class="st4" d="M439.8,253.9L410.1,271l0,3.6l29.6-17.1V253.9z"/>
									</g>
								</g>
							</g>
						</g>
					</g>
					<g>
						<g>
							<g>
								<path class="st7" d="M463.1,228.2l0,16.8l-4.9,2.8l0-16.8L463.1,228.2z"/>
							</g>
						</g>
						<g>
							<g>
								<path class="st7" d="M471.6,223.4l0,16.8l-4.9,2.8l0-16.8L471.6,223.4z"/>
							</g>
						</g>
					</g>
				</g>
				<g>
					<g>
						<g>
							<path class="st5" d="M474,275.6l-67.7,39.1l-0.1-24.2l67.7-39.1L474,275.6z"/>
						</g>
					</g>
					<g>
						<g>
							<g>
								<path class="st6" d="M410.1,296.2l0,3.9l3.4-1.9l0-3.9L410.1,296.2z"/>
							</g>
						</g>
						<g>
							<g>
								<path class="st6" d="M426.8,282.7l0,3.9l3.3-1.9l0,3.9l3.4-1.9l0-3.9l-3.2,1.9l0-3.9L426.8,282.7z"/>
							</g>
						</g>
						<g>
							<g>
								<path class="st6" d="M420.1,286.6l0,3.9l3.3-1.9l0,3.9l3.4-1.9l0-3.9l-3.3,1.9l0-3.9L420.1,286.6z"/>
							</g>
						</g>
						<g>
							<g>
								<g>
									<path class="st6" d="M433.4,278.9l0,3.9l3.3-1.9l0,3.9l3.4-1.9l0-3.9l-3.2,1.9l0-3.9L433.4,278.9z"/>
								</g>
							</g>
							<g>
								<g>
									<g>
										<path class="st6" d="M413.5,291.4l0,3.9l3.3-1.9l0,3.9l3.4-1.9l0-3.9l-3.3,1.9l0-3.9L413.5,291.4z"/>
									</g>
								</g>
								<g>
									<g>
										<path class="st4" d="M439.8,287.1l-29.6,17.1l0,3.6l29.6-17.1V287.1z"/>
									</g>
								</g>
							</g>
						</g>
					</g>
					<g>
						<g>
							<g>
								<path class="st7" d="M463.1,261.5l0,16.8l-4.9,2.8l0-16.8L463.1,261.5z"/>
							</g>
						</g>
						<g>
							<g>
								<path class="st7" d="M471.6,256.6l0,16.8l-4.9,2.8l0-16.8L471.6,256.6z"/>
							</g>
						</g>
					</g>
				</g>
			</g>
			<g>
				<g class="st2">
					<g>
						<g>
							<path class="st1" d="M405.9,135.9l-68.8,40l-7.1-4.1l68.8-40L405.9,135.9z"/>
						</g>
					</g>
					<g>
						<g>
							<path class="st1" d="M417,142.3l-68.8,40l-7.1-4.1l68.8-40L417,142.3z"/>
						</g>
					</g>
					<g>
						<g>
							<path class="st1" d="M428.1,148.7l-68.8,40l-7.1-4.1l68.8-40L428.1,148.7z"/>
						</g>
					</g>
				</g>
			</g>
		</g>
		<g>
			<g>
				<g>
					<path class="st9" d="M474,289.7l-67.7,39.1l-0.1-5.1l67.7-39.1L474,289.7z"/>
				</g>
			</g>
		</g>
		<g>
			<g>
				<g>
					<path class="st9" d="M474,299.4l-67.7,39.1l-0.1-5.1l67.7-39.1L474,299.4z"/>
				</g>
			</g>
		</g>
		<g>
			<g>
				<g>
					<path class="st9" d="M474,309l-67.7,39.1l-0.1-5.1l67.7-39.1L474,309z"/>
				</g>
			</g>
		</g>
		<g>
			<g>
				<g>
					<path class="st9" d="M474,318.7l-67.7,39.1l-0.1-5.1l67.7-39.1L474,318.7z"/>
				</g>
			</g>
		</g>
		<g>
			<g>
				<g>
					<path class="st9" d="M474,328.4l-67.7,39.1l-0.1-5.1l67.7-39.1L474,328.4z"/>
				</g>
			</g>
		</g>
		<g>
			<g>
				<g>
					<path class="st9" d="M474,338.1l-67.7,39.1l-0.1-5.1l67.7-39.1L474,338.1z"/>
				</g>
			</g>
		</g>
	</g>
	<g>
		<g>
			<g>
				<path class="st0" d="M279.1,482.9c-0.3,0-0.7-0.1-1-0.3l-83.3-48.1c-0.6-0.4-1-1-1-1.7c0-0.7,0.4-1.4,1-1.7l82.8-48.1
					c0.6-0.3,1.4-0.4,2,0l83.3,48.1c0.6,0.4,1,1,1,1.7c0,0.7-0.4,1.4-1,1.7l-82.8,48.1C279.8,482.8,279.5,482.9,279.1,482.9z
					 M199.8,432.8l79.4,45.8l78.9-45.8L278.6,387L199.8,432.8z"/>
			</g>
		</g>
		<g>
			<g>
				<g>
					<g>
						<g>
							<g>
								<path class="st10" d="M361.9,239.8l-0.5,178l-82.8,48l-83.3-48l0.5-178l82.8-48.1L361.9,239.8z"/>
							</g>
						</g>
					</g>
					<g class="st2">
						<g>
							<g>
								<path class="st11" d="M361.9,239.8l-0.5,178L278.6,466l0.5-178L361.9,239.8z"/>
							</g>
						</g>
						<g>
							<g>
								<path class="st10" d="M279.1,287.9l-0.5,178l-83.3-48.1l0.5-178L279.1,287.9z"/>
							</g>
						</g>
						<g>
							<g>
								<path class="st12" d="M361.9,239.8l-82.8,48.1l-83.3-48.1l82.8-48.1L361.9,239.8z"/>
							</g>
						</g>
					</g>
				</g>
				<g>
					<g>
						<g>
							<path class="st5" d="M355.3,277.7l-69.9,40.3l-0.1-25l69.9-40.3L355.3,277.7z"/>
						</g>
					</g>
					<g>
						<g>
							<g>
								<path class="st8" d="M289.3,299l0,4l3.5-2l0-4L289.3,299z"/>
							</g>
						</g>
						<g>
							<g>
								<path class="st8" d="M306.5,285.1l0,4l3.4-1.9l0,4l3.5-2l0-4l-3.3,1.9l0-4L306.5,285.1z"/>
							</g>
						</g>
						<g>
							<g>
								<path class="st8" d="M299.6,289.1l0,4l3.4-2l0,4l3.5-2l0-4l-3.4,1.9l0-4L299.6,289.1z"/>
							</g>
						</g>
						<g>
							<g>
								<g>
									<path class="st8" d="M313.4,281.2l0,4l3.4-2l0,4l3.5-2l0-4l-3.3,1.9l0-4L313.4,281.2z"/>
								</g>
							</g>
							<g>
								<g>
									<g>
										<path class="st8" d="M292.8,294.1l0,4l3.4-2l0,4l3.5-2l0-4l-3.4,1.9l0-4L292.8,294.1z"/>
									</g>
								</g>
								<g>
									<g>
										<path class="st4" d="M319.9,289.7l-30.6,17.7l0,3.7l30.6-17.7V289.7z"/>
									</g>
								</g>
							</g>
						</g>
					</g>
					<g>
						<g>
							<g>
								<path class="st7" d="M344,263.1l0,17.4l-5.1,2.9l0-17.4L344,263.1z"/>
							</g>
						</g>
						<g>
							<g>
								<path class="st7" d="M352.7,258.1l0,17.4l-5.1,2.9l0-17.4L352.7,258.1z"/>
							</g>
						</g>
					</g>
				</g>
				<g>
					<g>
						<g>
							<path class="st5" d="M355.3,312l-69.9,40.3l-0.1-25l69.9-40.3L355.3,312z"/>
						</g>
					</g>
					<g>
						<g>
							<g>
								<path class="st6" d="M289.3,333.3l0,4l3.5-2l0-4L289.3,333.3z"/>
							</g>
						</g>
						<g>
							<g>
								<path class="st6" d="M306.5,319.4l0,4l3.4-1.9l0,4l3.5-2l0-4l-3.3,1.9l0-4L306.5,319.4z"/>
							</g>
						</g>
						<g>
							<g>
								<path class="st6" d="M299.6,323.4l0,4l3.4-2l0,4l3.5-2l0-4l-3.4,1.9l0-4L299.6,323.4z"/>
							</g>
						</g>
						<g>
							<g>
								<g>
									<path class="st6" d="M313.4,315.4l0,4l3.4-2l0,4l3.5-2l0-4l-3.3,1.9l0-4L313.4,315.4z"/>
								</g>
							</g>
							<g>
								<g>
									<g>
										<path class="st6" d="M292.8,328.4l0,4l3.4-2l0,4l3.5-2l0-4l-3.4,1.9l0-4L292.8,328.4z"/>
									</g>
								</g>
								<g>
									<g>
										<path class="st4" d="M319.9,324l-30.6,17.7l0,3.7l30.6-17.7V324z"/>
									</g>
								</g>
							</g>
						</g>
					</g>
					<g>
						<g>
							<g>
								<path class="st7" d="M344,297.4l0,17.4l-5.1,2.9l0-17.4L344,297.4z"/>
							</g>
						</g>
						<g>
							<g>
								<path class="st7" d="M352.7,292.4l0,17.4l-5.1,2.9l0-17.4L352.7,292.4z"/>
							</g>
						</g>
					</g>
				</g>
				<g>
					<g>
						<g>
							<path class="st5" d="M355.3,346.3l-69.9,40.3l-0.1-25l69.9-40.3L355.3,346.3z"/>
						</g>
					</g>
					<g>
						<g>
							<g>
								<path class="st13" d="M289.3,367.6l0,4l3.5-2l0-4L289.3,367.6z"/>
							</g>
						</g>
						<g>
							<g>
								<path class="st13" d="M306.5,353.7l0,4l3.4-1.9l0,4l3.5-2l0-4l-3.3,1.9l0-4L306.5,353.7z"/>
							</g>
						</g>
						<g>
							<g>
								<path class="st13" d="M299.6,357.7l0,4l3.4-2l0,4l3.5-2l0-4l-3.4,1.9l0-4L299.6,357.7z"/>
							</g>
						</g>
						<g>
							<g>
								<g>
									<path class="st13" d="M313.4,349.7l0,4l3.4-2l0,4l3.5-2l0-4l-3.3,1.9l0-4L313.4,349.7z"/>
								</g>
							</g>
							<g>
								<g>
									<g>
										<path class="st13" d="M292.8,362.7l0,4l3.4-2l0,4l3.5-2l0-4l-3.4,1.9l0-4L292.8,362.7z"/>
									</g>
								</g>
								<g>
									<g>
										<path class="st4" d="M319.9,358.2l-30.6,17.7l0,3.7l30.6-17.7V358.2z"/>
									</g>
								</g>
							</g>
						</g>
					</g>
					<g>
						<g>
							<g>
								<path class="st7" d="M344,331.7l0,17.4L339,352l0-17.4L344,331.7z"/>
							</g>
						</g>
						<g>
							<g>
								<path class="st7" d="M352.7,326.7l0,17.4l-5.1,2.9l0-17.4L352.7,326.7z"/>
							</g>
						</g>
					</g>
				</g>
				<g>
					<g>
						<g>
							<path class="st5" d="M355.3,380.6l-69.9,40.3l-0.1-25l69.9-40.3L355.3,380.6z"/>
						</g>
					</g>
					<g>
						<g>
							<g>
								<path class="st6" d="M289.3,401.9l0,4l3.5-2l0-4L289.3,401.9z"/>
							</g>
						</g>
						<g>
							<g>
								<path class="st6" d="M306.5,388l0,4l3.4-1.9l0,4l3.5-2l0-4l-3.3,1.9l0-4L306.5,388z"/>
							</g>
						</g>
						<g>
							<g>
								<path class="st6" d="M299.6,391.9l0,4l3.4-2l0,4l3.5-2l0-4l-3.4,1.9l0-4L299.6,391.9z"/>
							</g>
						</g>
						<g>
							<g>
								<g>
									<path class="st6" d="M313.4,384l0,4l3.4-2l0,4l3.5-2l0-4l-3.3,1.9l0-4L313.4,384z"/>
								</g>
							</g>
							<g>
								<g>
									<g>
										<path class="st6" d="M292.8,397l0,4l3.4-2l0,4l3.5-2l0-4l-3.4,1.9l0-4L292.8,397z"/>
									</g>
								</g>
								<g>
									<g>
										<path class="st4" d="M319.9,392.5l-30.6,17.7l0,3.7l30.6-17.7V392.5z"/>
									</g>
								</g>
							</g>
						</g>
					</g>
					<g>
						<g>
							<g>
								<path class="st7" d="M344,366l0,17.4l-5.1,2.9l0-17.4L344,366z"/>
							</g>
						</g>
						<g>
							<g>
								<path class="st7" d="M352.7,361l0,17.4l-5.1,2.9l0-17.4L352.7,361z"/>
							</g>
						</g>
					</g>
				</g>
			</g>
			<g>
				<g class="st2">
					<g>
						<g>
							<path class="st11" d="M284.9,202.1l-71,41.3l-7.3-4.2l71-41.3L284.9,202.1z"/>
						</g>
					</g>
					<g>
						<g>
							<path class="st11" d="M296.3,208.7l-71,41.3l-7.4-4.2l71-41.3L296.3,208.7z"/>
						</g>
					</g>
					<g>
						<g>
							<path class="st11" d="M307.8,215.3l-71,41.3l-7.4-4.2l71-41.3L307.8,215.3z"/>
						</g>
					</g>
				</g>
			</g>
		</g>
	</g>
</g>
<g>
	<g id="OBJECTS">
		<g>
			<polygon class="st14" points="59.9,146.1 69.8,159.8 64.5,159.1 54.6,145.4 			"/>
			
				<linearGradient id="SVGID_1_" gradientUnits="userSpaceOnUse" x1="280.7685" y1="274.4577" x2="392.8185" y2="371.6826" gradientTransform="matrix(1 0 0 -1 -203.7553 454.9268)">
				<stop  offset="0" style="stop-color:#D13F05"/>
				<stop  offset="0.2925" style="stop-color:#F67205"/>
				<stop  offset="0.3667" style="stop-color:#F67705"/>
				<stop  offset="0.4526" style="stop-color:#F68505"/>
				<stop  offset="0.5441" style="stop-color:#F69C05"/>
				<stop  offset="0.5638" style="stop-color:#F6A205"/>
				<stop  offset="0.5977" style="stop-color:#F69005"/>
				<stop  offset="0.6432" style="stop-color:#F67F05"/>
				<stop  offset="0.6931" style="stop-color:#F67505"/>
				<stop  offset="0.7553" style="stop-color:#F67205"/>
				<stop  offset="1" style="stop-color:#D13F05"/>
			</linearGradient>
			<path class="st15" d="M174.1,64.5c3.3,4.6,6.6,9.1,10,13.7c6.7,9.4,10.3,20.7,10.2,32.3l-10-13.7
				C184.4,85.2,180.8,73.9,174.1,64.5z"/>
			<polygon class="st16" points="184.3,96.8 194.2,110.5 189.2,114.2 179.2,100.5 			"/>
			<polygon class="st14" points="133.8,163.7 143.8,177.4 141.6,180.9 131.7,167.2 			"/>
			
				<linearGradient id="SVGID_2_" gradientUnits="userSpaceOnUse" x1="284.2907" y1="270.4085" x2="396.3348" y2="367.6283" gradientTransform="matrix(1 0 0 -1 -203.7553 454.9268)">
				<stop  offset="0" style="stop-color:#D13F05"/>
				<stop  offset="0.2925" style="stop-color:#F67205"/>
				<stop  offset="0.3667" style="stop-color:#F67705"/>
				<stop  offset="0.4526" style="stop-color:#F68505"/>
				<stop  offset="0.5441" style="stop-color:#F69C05"/>
				<stop  offset="0.5638" style="stop-color:#F6A205"/>
				<stop  offset="0.5977" style="stop-color:#F69005"/>
				<stop  offset="0.6432" style="stop-color:#F67F05"/>
				<stop  offset="0.6931" style="stop-color:#F67505"/>
				<stop  offset="0.7553" style="stop-color:#F67205"/>
				<stop  offset="1" style="stop-color:#D13F05"/>
			</linearGradient>
			<path class="st17" d="M131.7,167.2l10,13.7c-14.2,5.6-29.9,6.5-44.7,2.6c-10.5-2.8-19.9-8.7-27-16.8L60,153
				c7.1,8.2,16.5,14,27,16.8C101.8,173.7,117.4,172.8,131.7,167.2z"/>
			<polygon class="st18" points="137.5,164.7 147.4,178.4 143.8,177.4 133.8,163.7 			"/>
			
				<linearGradient id="SVGID_3_" gradientUnits="userSpaceOnUse" x1="300.0257" y1="252.2737" x2="412.0716" y2="349.4949" gradientTransform="matrix(1 0 0 -1 -203.7553 454.9268)">
				<stop  offset="0" style="stop-color:#D13F05"/>
				<stop  offset="0.2925" style="stop-color:#F67205"/>
				<stop  offset="0.3667" style="stop-color:#F67705"/>
				<stop  offset="0.4526" style="stop-color:#F68505"/>
				<stop  offset="0.5441" style="stop-color:#F69C05"/>
				<stop  offset="0.5638" style="stop-color:#F6A205"/>
				<stop  offset="0.5977" style="stop-color:#F69005"/>
				<stop  offset="0.6432" style="stop-color:#F67F05"/>
				<stop  offset="0.6931" style="stop-color:#F67505"/>
				<stop  offset="0.7553" style="stop-color:#F67205"/>
				<stop  offset="1" style="stop-color:#D13F05"/>
			</linearGradient>
			<path class="st19" d="M184.1,101.9l10,13.7c-0.7,7.8-2.8,15.5-6.1,22.7c-8.3,17.8-22.7,32-40.5,40.2l-10-13.7
				c17.8-8.2,32.2-22.4,40.5-40.2C181.3,117.4,183.4,109.8,184.1,101.9z"/>
			
				<linearGradient id="SVGID_4_" gradientUnits="userSpaceOnUse" x1="258.5701" y1="297.1139" x2="382.3376" y2="397.7827" gradientTransform="matrix(1 0 0 -1 -203.7553 454.9268)">
				<stop  offset="0" style="stop-color:#FFFFFF;stop-opacity:0"/>
				<stop  offset="0.2606" style="stop-color:#FFFFFF"/>
				<stop  offset="0.7553" style="stop-color:#FFFFFF"/>
				<stop  offset="1" style="stop-color:#FFFFFF;stop-opacity:0"/>
			</linearGradient>
			<path class="st20" d="M184.7,102.7c-0.7,7.8-2.8,15.5-6.1,22.7c-8.3,17.8-22.7,32-40.5,40.2l-3.6-1l-2.2,3.5
				c-14.2,5.6-29.9,6.5-44.7,2.6c-10.5-2.8-19.9-8.7-27-16.8l-0.1-6.8l-5.3-0.7C46,130.6,44.8,110.3,54,90.3
				c2.7-5.9,6.1-11.4,10.2-16.5c2.1-1,4.2-2,6.2-3.2l0.9-4.6c16.9-16.2,40.2-25.2,62.4-23l4.8,3.9l13.5,0.7
				c20.8,8.8,32.9,28.1,32.9,50.1l-5.1,3.7L184.7,102.7z"/>
			
				<linearGradient id="SVGID_5_" gradientUnits="userSpaceOnUse" x1="367.2867" y1="327.6488" x2="241.7565" y2="380.6748" gradientTransform="matrix(1 0 0 -1 -203.7553 454.9268)">
				<stop  offset="0" style="stop-color:#FFAF02"/>
				<stop  offset="1" style="stop-color:#F56D05"/>
			</linearGradient>
			<path class="st21" d="M184.1,101.9c-0.7,7.8-2.8,15.5-6.1,22.7c-8.3,17.8-22.7,32-40.5,40.2l-3.6-1l-2.2,3.5
				c-14.2,5.6-29.9,6.5-44.7,2.6c-10.5-2.8-19.9-8.7-27-16.8l-0.1-6.8l-5.3-0.7c-9.2-15.6-10.3-35.9-1.2-55.9
				c2.7-5.9,6.1-11.4,10.2-16.5c2.1-1,4.2-2,6.2-3.2l0.9-4.6c16.9-16.2,40.2-25.2,62.4-23l4.8,3.9l13.5,0.7
				c20.8,8.8,32.9,28.1,32.9,50.1l-5.1,3.7L184.1,101.9z"/>
			
				<linearGradient id="SVGID_6_" gradientUnits="userSpaceOnUse" x1="273.4543" y1="390.8672" x2="346.3117" y2="321.227" gradientTransform="matrix(1 0 0 -1 -203.7553 454.9268)">
				<stop  offset="0" style="stop-color:#FFFFFF;stop-opacity:0"/>
				<stop  offset="0.2606" style="stop-color:#FFFFFF"/>
				<stop  offset="0.7553" style="stop-color:#FFFFFF"/>
				<stop  offset="1" style="stop-color:#FFFFFF;stop-opacity:0"/>
			</linearGradient>
			<path class="st22" d="M135.3,61.1c25,7,36,33.2,24.5,58.5c-11.5,25.2-41.2,40-66.2,32.9c-25-7-36-33.2-24.5-58.5
				S110.2,54,135.3,61.1z"/>
			
				<linearGradient id="SVGID_7_" gradientUnits="userSpaceOnUse" x1="269.4661" y1="347.892" x2="369.3695" y2="347.892" gradientTransform="matrix(1 0 0 -1 -203.7553 454.9268)">
				<stop  offset="0" style="stop-color:#CF4505"/>
				<stop  offset="1" style="stop-color:#E45905"/>
			</linearGradient>
			<path class="st23" d="M136.5,61.3c25,7,36,33.2,24.5,58.5c-11.5,25.2-41.2,40-66.2,32.9c-25-7-36-33.2-24.5-58.5
				C81.8,69,111.5,54.3,136.5,61.3z"/>
			<path class="st24" d="M98.8,153.5c-25-7-36-33.2-24.5-58.5c10.7-23.4,36.9-37.7,60.6-34.1c-24.7-6-53.3,8.7-64.6,33.3
				c-11.5,25.2-0.6,51.4,24.5,58.5c1.8,0.5,3.7,0.9,5.6,1.2C99.9,153.8,99.3,153.7,98.8,153.5z"/>
			
				<radialGradient id="SVGID_8_" cx="-2030.1732" cy="-334.2379" r="37.3546" gradientTransform="matrix(7.290000e-02 7.410000e-02 0.4921 -0.4845 472.0643 138.2714)" gradientUnits="userSpaceOnUse">
				<stop  offset="0" style="stop-color:#FFFFFF"/>
				<stop  offset="8.578000e-02" style="stop-color:#FFFFFF;stop-opacity:0.9583"/>
				<stop  offset="0.2351" style="stop-color:#FFFFFF;stop-opacity:0.8462"/>
				<stop  offset="0.4301" style="stop-color:#FFFFFF;stop-opacity:0.6642"/>
				<stop  offset="0.6634" style="stop-color:#FFFFFF;stop-opacity:0.4119"/>
				<stop  offset="0.9261" style="stop-color:#FFFFFF;stop-opacity:9.449000e-02"/>
				<stop  offset="1" style="stop-color:#FFFFFF;stop-opacity:0"/>
			</radialGradient>
			<path class="st25" d="M162.3,152.5c-10.2,10-19.6,16.9-21.1,15.3c-1.5-1.5,5.5-10.9,15.7-20.9c10.2-10,19.6-16.9,21.1-15.3
				C179.5,133.2,172.5,142.5,162.3,152.5z"/>
			
				<linearGradient id="SVGID_9_" gradientUnits="userSpaceOnUse" x1="302.9873" y1="367.1443" x2="348.0277" y2="314.3017" gradientTransform="matrix(1 0 0 -1 -203.7553 454.9268)">
				<stop  offset="0" style="stop-color:#FFFFFF"/>
				<stop  offset="1" style="stop-color:#FFFFFF;stop-opacity:0"/>
			</linearGradient>
			<path class="st26" d="M169.6,59.3L59.9,150.1L60,153c7.1,8.2,16.5,14,27,16.8c2.5,0.7,5.1,1.2,7.6,1.6l85.4-70.7l-0.8-0.2
				l5.1-3.7C184.4,82.9,179.2,69.4,169.6,59.3z"/>
			
				<linearGradient id="SVGID_10_" gradientUnits="userSpaceOnUse" x1="276.7303" y1="391.4494" x2="300.8213" y2="367.0117" gradientTransform="matrix(1 0 0 -1 -203.7553 454.9268)">
				<stop  offset="0" style="stop-color:#FFFFFF"/>
				<stop  offset="1" style="stop-color:#FFFFFF;stop-opacity:0"/>
			</linearGradient>
			<path class="st27" d="M137.9,46.1l-4.8-3.9c-6.6-0.6-13.2-0.3-19.7,0.9L51.3,94.6c-3.5,9.1-4.8,19-3.9,28.7l93.1-77.1L137.9,46.1
				z"/>
			<g>
				<defs>
					<rect id="SVGID_11_" x="87.4" y="71.2" width="69.5" height="71.6"/>
				</defs>
				<clipPath id="SVGID_12_">
					<use xlink:href="#SVGID_11_"  style="overflow:visible;"/>
				</clipPath>
				<g class="st28">
					
						<linearGradient id="SVGID_13_" gradientUnits="userSpaceOnUse" x1="2270.8584" y1="1633.0468" x2="2270.8584" y2="1561.427" gradientTransform="matrix(1 0 0 1 -2148.7554 -1490.2074)">
						<stop  offset="0" style="stop-color:#FFC000"/>
						<stop  offset="0.28" style="stop-color:#FFC000"/>
						<stop  offset="0.55" style="stop-color:#DAA600"/>
						<stop  offset="1" style="stop-color:#DAA600"/>
					</linearGradient>
					<path class="st29" d="M99.6,100.4c-0.3-0.3-0.6-0.6-0.9-0.9c-3-3.6-5.1-7.8-6.2-12.3c-0.8-3.2-1-6.5-0.7-9.8
						c0.1-1.7,0.6-3.5,1.4-5c0.4-1,1.6-1.4,2.5-1c0,0,0,0,0.1,0c2.2,0.9,4,2.3,5.3,4.3c3.3,4.2,5.4,9.2,6.3,14.5
						c0.3,1.6,0.3,3.3,0.5,5c0.1,0.6,0.1,1.3,0.2,1.9c0.1,0.5,0.3,0.8,0.9,0.7c2.3-0.3,4.6-0.2,6.9,0.5c1.9,0.5,3.9,1.1,5.7,1.9
						c2.7,1,5.1,2.7,7,4.8c0.2,0.3,0.6,0.4,0.9,0.2c0,0,0,0,0,0c0.1,0,0.1-0.1,0.1-0.1c0.5-0.4,0.9-0.9,1.4-1.4
						c4.3-4.9,10-8.5,16.3-10.2c2-0.6,4.1-0.8,6.2-0.6c0.9,0.1,1.8,0.4,2.7,0.8c0.4,0.3,0.6,0.7,0.7,1.1c0,0.6,0,1.2-0.2,1.8
						c-0.9,2.5-2.3,4.7-4.1,6.6c-4.5,5-10.5,8.4-17.1,9.6c-0.5,0.1-1,0.1-1.5,0.2c0.1,0.4,0.1,0.8,0.2,1.1c0.7,2.3,0.9,4.7,0.8,7
						c0,2.8-0.5,5.6-1.4,8.2c-1,3.1-2.5,5.9-4.5,8.4c-1.9,2.3-4.6,3.9-7.6,4.5c-2.1,0.6-4.3,0.8-6.5,0.5c-2.1-0.2-4.3-0.6-6.3-1.2
						c-2.2-0.6-4.3-1.3-6.4-2.2c-3.4-1.2-6.6-3.1-9.4-5.5c-2.9-2.4-4.8-5.7-5.5-9.4c-0.2-1.7-0.1-3.5,0.1-5.2
						c0.3-2.3,0.9-4.5,1.8-6.6c1.3-3.3,3.4-6.3,5.9-8.8c1.2-1.1,2.6-2.1,3.9-3.2L99.6,100.4z M101.8,126l0,0.2
						c-2.3-0.2-2.8,1.5-2.4,3.2c0.1,0.3,0.1,0.6,0.2,0.8c0.5,1.9,1.8,3.6,3.5,4.6c1.7,0.9,3.5,1.6,5.4,2c2.6,0.8,5.5,0.1,7.4-1.8
						c0.9-0.6,1.2-1.8,0.7-2.8c-0.1-0.2-0.3-0.4-0.5-0.6c-1.1-0.9-2.2-1.6-3.5-2.1c-2-0.9-4.1-1.6-6.2-2.3
						C104.8,126.7,103.2,126.3,101.8,126L101.8,126z M99.8,107.9c0-1.6-0.6-2.4-1.7-2.6c-1-0.2-2,0.2-2.5,1c-2.4,3-4.2,6.4-5.3,10
						c-0.2,0.6-0.2,1.2-0.1,1.8c0.1,1.1,1.2,1.9,2.3,1.7c0.5-0.1,1-0.4,1.4-0.8c0.9-1.2,1.7-2.4,2.4-3.7c0.9-1.6,1.8-3.3,2.6-5
						C99.2,109.6,99.6,108.7,99.8,107.9L99.8,107.9z M133.2,120.9c-0.1-0.7-0.1-1.3-0.3-2c-0.3-1.2-1.5-1.9-2.7-1.5c0,0,0,0,0,0
						c-0.1,0-0.1,0-0.2,0.1c-0.8,0.4-1.4,1.2-1.5,2.1c-0.7,3-1.5,6.1-2.1,9.2c-0.2,0.9-0.2,1.9,0,2.9c0.2,1,1.2,1.7,2.3,1.5
						c0.2,0,0.5-0.1,0.7-0.3c0.7-0.4,1.3-1.2,1.5-2c0.6-1.7,1.1-3.5,1.6-5.2C132.7,124,132.9,122.3,133.2,120.9L133.2,120.9z"/>
				</g>
			</g>
		</g>
	</g>
</g>
</svg>
