<?xml version="1.0" encoding="utf-8"?>
<!-- Generator: Adobe Illustrator 21.0.0, SVG Export Plug-In . SVG Version: 6.00 Build 0)  -->
<svg version="1.1" id="Слой_1" xmlns="http://www.w3.org/2000/svg" xmlns:xlink="http://www.w3.org/1999/xlink" x="0px" y="0px"
	 viewBox="0 0 2118.6 1268.1" style="enable-background:new 0 0 2118.6 1268.1;" xml:space="preserve">
<style type="text/css">
	.st0{clip-path:url(#SVGID_2_);fill:url(#SVGID_3_);}
	.st1{clip-path:url(#SVGID_5_);fill:url(#SVGID_6_);}
	.st2{clip-path:url(#SVGID_8_);fill:url(#SVGID_9_);}
	.st3{clip-path:url(#SVGID_11_);fill:url(#SVGID_12_);}
	.st4{clip-path:url(#SVGID_14_);fill:url(#SVGID_15_);}
	.st5{clip-path:url(#SVGID_17_);fill:url(#SVGID_18_);}
	.st6{clip-path:url(#SVGID_20_);fill:url(#SVGID_21_);}
	.st7{clip-path:url(#SVGID_23_);fill:url(#SVGID_24_);}
	.st8{clip-path:url(#SVGID_26_);fill:url(#SVGID_27_);}
	.st9{clip-path:url(#SVGID_29_);fill:url(#SVGID_30_);}
	.st10{clip-path:url(#SVGID_32_);fill:url(#SVGID_33_);}
	.st11{clip-path:url(#SVGID_35_);fill:url(#SVGID_36_);}
	.st12{fill:#FFFFFF;}
	.st13{fill:#9E005D;}
</style>
<title>logo_white</title>
<g>
	<defs>
		<path id="SVGID_1_" d="M686.3,479.6l-18,40.3l86.4,187.4c4.3,9.3,8.9,17.8,14,25.6l82.1-181c13.4-29.5,60.4-31.3,68.8,0
			c-26-97.5-70.4-158.3-122.7-158.3C762.4,393.6,724.6,420,686.3,479.6"/>
	</defs>
	<clipPath id="SVGID_2_">
		<use xlink:href="#SVGID_1_"  style="overflow:visible;"/>
	</clipPath>
	
		<linearGradient id="SVGID_3_" gradientUnits="userSpaceOnUse" x1="223.8067" y1="3470.2341" x2="225.4454" y2="3470.2341" gradientTransform="matrix(-152.3329 295.1472 295.1472 152.3329 -989298.875 -594209)">
		<stop  offset="0" style="stop-color:#6F00FF"/>
		<stop  offset="0.299" style="stop-color:#8417FF"/>
		<stop  offset="0.9229" style="stop-color:#B851FF"/>
		<stop  offset="1" style="stop-color:#BF59FF"/>
	</linearGradient>
	<polygon class="st0" points="1057.9,465 866.7,835.4 530,661.6 721.2,291.2 	"/>
</g>
<g>
	<defs>
		<polygon id="SVGID_4_" points="1367.8,568.5 1406.9,681.6 1533.5,636.5 1670.2,329.4 1532.5,201.9 		"/>
	</defs>
	<clipPath id="SVGID_5_">
		<use xlink:href="#SVGID_4_"  style="overflow:visible;"/>
	</clipPath>
	
		<linearGradient id="SVGID_6_" gradientUnits="userSpaceOnUse" x1="224.6746" y1="3472.437" x2="226.3133" y2="3472.437" gradientTransform="matrix(-218.9813 461.7642 461.7642 218.9813 -1552554.125 -864071.3125)">
		<stop  offset="0" style="stop-color:#005EBD"/>
		<stop  offset="0.2051" style="stop-color:#0B75C6"/>
		<stop  offset="0.6319" style="stop-color:#27AFDD"/>
		<stop  offset="1" style="stop-color:#41E6F2"/>
	</linearGradient>
	<polygon class="st1" points="1855.9,290 1614.7,798.6 1182.1,593.5 1423.4,84.8 	"/>
</g>
<g>
	<defs>
		<path id="SVGID_7_" d="M1535.9,96.4c13.5,30.3,13.6,67.8-3.4,105.5l29.3,125.7l108.4,1.8c26.8-59.4,24.8-124.5-0.1-179.5
			c-37.6-57.7-75.8-81.3-101.9-81.3C1551,68.6,1539,78.9,1535.9,96.4"/>
	</defs>
	<clipPath id="SVGID_8_">
		<use xlink:href="#SVGID_7_"  style="overflow:visible;"/>
	</clipPath>
	
		<linearGradient id="SVGID_9_" gradientUnits="userSpaceOnUse" x1="224.4481" y1="3472.2566" x2="226.0868" y2="3472.2566" gradientTransform="matrix(-204.8417 431.9482 431.9482 204.8417 -1452188.875 -808129.625)">
		<stop  offset="0" style="stop-color:#005EBD"/>
		<stop  offset="0.2051" style="stop-color:#0B75C6"/>
		<stop  offset="0.6319" style="stop-color:#27AFDD"/>
		<stop  offset="1" style="stop-color:#41E6F2"/>
	</linearGradient>
	<polygon class="st2" points="1797.9,116.5 1666.8,393.1 1431.6,281.5 1562.7,4.9 	"/>
</g>
<g>
	<defs>
		<path id="SVGID_10_" d="M100.1,329.6l227.8,505.5c0.1,0.2,0.2,0.4,0.3,0.6c-0.1-0.1-0.2-0.3-0.3-0.4c3.3,7.4,7,14.5,11.2,21.5
			c22.1,37.3,83.2,81.9,134.7,48.4c79.3-51.6,87.5-142.4,87.5-142.4c-13.4,29.5-55.4,29.5-68.8,0L237.7,202.1L100.1,329.6z"/>
	</defs>
	<clipPath id="SVGID_11_">
		<use xlink:href="#SVGID_10_"  style="overflow:visible;"/>
	</clipPath>
	
		<linearGradient id="SVGID_12_" gradientUnits="userSpaceOnUse" x1="233.0015" y1="3475.1409" x2="234.6402" y2="3475.1409" gradientTransform="matrix(-177.5761 -397.4322 -397.4322 177.5761 1422938 -523707.9062)">
		<stop  offset="0" style="stop-color:#BF0050"/>
		<stop  offset="0.1657" style="stop-color:#C41167"/>
		<stop  offset="0.514" style="stop-color:#D13BA3"/>
		<stop  offset="1" style="stop-color:#E57DFF"/>
	</linearGradient>
	<polygon class="st3" points="176.8,1110.4 -174.3,324.7 484.4,30.4 835.5,816.1 	"/>
</g>
<g>
	<defs>
		<path id="SVGID_13_" d="M234.4,96.6c31.6,10,59.8,34.7,76.8,72.4l72.5,160.8l109.9,27.1l27.8-154.5l-23.5-52
			c-26.8-59.4-76.8-101-134.5-118.8c-17.1-3.4-32.7-4.8-46.6-4.9C244.6,26.6,215.9,66.8,234.4,96.6"/>
	</defs>
	<clipPath id="SVGID_14_">
		<use xlink:href="#SVGID_13_"  style="overflow:visible;"/>
	</clipPath>
	
		<linearGradient id="SVGID_15_" gradientUnits="userSpaceOnUse" x1="223.9574" y1="3475.1321" x2="225.5961" y2="3475.1321" gradientTransform="matrix(244.9136 504.9447 504.9447 -244.9136 -1809278.875 738113.9375)">
		<stop  offset="0" style="stop-color:#FF6A00"/>
		<stop  offset="0.2634" style="stop-color:#FF8100"/>
		<stop  offset="0.8119" style="stop-color:#FFBB00"/>
		<stop  offset="1" style="stop-color:#FFD000"/>
	</linearGradient>
	<polygon class="st4" points="463.2,-93.3 651.1,294 274.1,476.8 86.3,89.5 	"/>
</g>
<g>
	<defs>
		<path id="SVGID_16_" d="M1272.3,150.1l-23.5,52l27.8,154.5l109.9-27.1l72.5-160.8c41.4-91.9,149.3-106.6,211.1-18.9
			c-21.1-46.8-58.7-86.3-109.2-109.1c-29.1-13.1-59.5-19.3-89.5-19.3C1388.2,21.5,1308.7,69.3,1272.3,150.1"/>
	</defs>
	<clipPath id="SVGID_17_">
		<use xlink:href="#SVGID_16_"  style="overflow:visible;"/>
	</clipPath>
	
		<linearGradient id="SVGID_18_" gradientUnits="userSpaceOnUse" x1="230.6262" y1="3477.4045" x2="232.265" y2="3477.4045" gradientTransform="matrix(237.9979 -510.9025 -510.9025 -237.9979 1722822.25 946411.4375)">
		<stop  offset="0" style="stop-color:#53A600"/>
		<stop  offset="0.2368" style="stop-color:#69B700"/>
		<stop  offset="0.7279" style="stop-color:#A2E400"/>
		<stop  offset="1" style="stop-color:#C4FF00"/>
	</linearGradient>
	<polygon class="st5" points="1120.6,296.9 1324,-139.8 1798.4,81.2 1595,517.9 	"/>
</g>
<g>
	<defs>
		<path id="SVGID_19_" d="M1042.2,924.4c0,0,0.1,0,0.1-0.1v0C1042.3,924.4,1042.3,924.4,1042.2,924.4 M384.2,329.6l195.9,436.5
			C633.9,886,753.9,963.7,885.4,963.7c55.7,0,109.4-14,156.9-39.3C916.5,988.3,822,856.5,754.7,707.4L521.9,202.1L384.2,329.6z"/>
	</defs>
	<clipPath id="SVGID_20_">
		<use xlink:href="#SVGID_19_"  style="overflow:visible;"/>
	</clipPath>
	
		<linearGradient id="SVGID_21_" gradientUnits="userSpaceOnUse" x1="224.146" y1="3475.2649" x2="225.7847" y2="3475.2649" gradientTransform="matrix(257.0383 529.9426 529.9426 -257.0383 -1898870.375 774512.25)">
		<stop  offset="0" style="stop-color:#FF6A00"/>
		<stop  offset="0.2634" style="stop-color:#FF8100"/>
		<stop  offset="0.8119" style="stop-color:#FFBB00"/>
		<stop  offset="1" style="stop-color:#FFD000"/>
	</linearGradient>
	<polygon class="st6" points="917,-56.3 1351.1,838.6 509.5,1246.8 75.5,351.9 	"/>
</g>
<g>
	<defs>
		<path id="SVGID_22_" d="M1016.1,707.4c-27.9,61.2-73,87.7-130.7,87.7c-57.7,0-102.8-26.5-130.7-87.7
			c67.3,149.2,161.9,281.1,287.7,217c8.9-4.7,10.9-5.9,19.3-11.1c55.6-34.5,101.2-85.2,129-147.2l195.9-436.5
			c-32.4-31.2-92.6-48.2-137.7-127.5L1016.1,707.4z"/>
	</defs>
	<clipPath id="SVGID_23_">
		<use xlink:href="#SVGID_22_"  style="overflow:visible;"/>
	</clipPath>
	
		<linearGradient id="SVGID_24_" gradientUnits="userSpaceOnUse" x1="230.6262" y1="3477.5046" x2="232.265" y2="3477.5046" gradientTransform="matrix(237.9983 -510.9035 -510.9035 -237.9983 1722712.625 946360.6875)">
		<stop  offset="0" style="stop-color:#53A600"/>
		<stop  offset="0.2368" style="stop-color:#69B700"/>
		<stop  offset="0.7279" style="stop-color:#A2E400"/>
		<stop  offset="1" style="stop-color:#C4FF00"/>
	</linearGradient>
	<polygon class="st7" points="453.7,848.2 867.3,-39.7 1687.6,342.3 1273.9,1230.3 	"/>
</g>
<g>
	<defs>
		<path id="SVGID_25_" d="M686.3,479.6C762.4,365.7,859.9,419,919.6,552c0,0,133,294.1,136,299.4l0.3,0.6l0.1,0c0,0,0,0,0,0
			c75.3,102.6,181.1,28.9,224.7-89.2c-13.4,29.5-55.4,29.5-68.8,0l-0.1,0.1L1084,479.6c-0.1-0.2-0.2-0.4-0.3-0.6
			c0.1,0.1,0.2,0.3,0.3,0.4c-21.1-46.8-58.7-86.3-109.2-109.1c-29.1-13.1-59.6-19.3-89.5-19.3C802.1,351,722.7,398.8,686.3,479.6"/>
	</defs>
	<clipPath id="SVGID_26_">
		<use xlink:href="#SVGID_25_"  style="overflow:visible;"/>
	</clipPath>
	
		<linearGradient id="SVGID_27_" gradientUnits="userSpaceOnUse" x1="233.7488" y1="3473.6138" x2="235.3876" y2="3473.6138" gradientTransform="matrix(-185.6575 -285.6266 -285.6266 185.6575 1036695.125 -577241.25)">
		<stop  offset="0" style="stop-color:#132AAD"/>
		<stop  offset="0.2062" style="stop-color:#2541BB"/>
		<stop  offset="0.6365" style="stop-color:#557CDE"/>
		<stop  offset="1" style="stop-color:#80B3FF"/>
	</linearGradient>
	<polygon class="st8" points="862.8,1226.2 410.5,530.3 1104.1,79.4 1556.4,775.3 	"/>
</g>
<g>
	<defs>
		<path id="SVGID_28_" d="M1280.6,762.8c-43.7,118.2-149.4,191.8-224.7,89.2c54.6,97.9,176,139.3,280,92.4
			c50.5-22.7,88.1-62.3,109.2-109.1c-0.1,0.1-0.2,0.3-0.3,0.4c0.1-0.2,0.2-0.4,0.3-0.6l88.4-198.6l-165.7-68L1280.6,762.8z"/>
	</defs>
	<clipPath id="SVGID_29_">
		<use xlink:href="#SVGID_28_"  style="overflow:visible;"/>
	</clipPath>
	
		<linearGradient id="SVGID_30_" gradientUnits="userSpaceOnUse" x1="224.6746" y1="3472.4116" x2="226.3133" y2="3472.4116" gradientTransform="matrix(-218.9805 461.7624 461.7624 218.9805 -1552588.625 -864087.125)">
		<stop  offset="0" style="stop-color:#005EBD"/>
		<stop  offset="0.2051" style="stop-color:#0B75C6"/>
		<stop  offset="0.6319" style="stop-color:#27AFDD"/>
		<stop  offset="1" style="stop-color:#41E6F2"/>
	</linearGradient>
	<polygon class="st9" points="1697.2,646.2 1445.8,1176.2 892.2,913.7 1143.6,383.6 	"/>
</g>
<g>
	<defs>
		<path id="SVGID_31_" d="M561.2,762.8c-34,78.7-139.9,194.5-222.1,94c22.1,37.3,55.4,68.5,98,87.6c86.6,39,185.2,16.9,247.3-48
			C640,863,603.7,818.6,580.1,766.1l-10.2-22.7L561.2,762.8z"/>
	</defs>
	<clipPath id="SVGID_32_">
		<use xlink:href="#SVGID_31_"  style="overflow:visible;"/>
	</clipPath>
	
		<linearGradient id="SVGID_33_" gradientUnits="userSpaceOnUse" x1="223.8067" y1="3470.0647" x2="225.4454" y2="3470.0647" gradientTransform="matrix(-152.3318 295.1451 295.1451 152.3318 -989342.1875 -594230.75)">
		<stop  offset="0" style="stop-color:#6F00FF"/>
		<stop  offset="0.299" style="stop-color:#8417FF"/>
		<stop  offset="0.9229" style="stop-color:#B851FF"/>
		<stop  offset="1" style="stop-color:#BF59FF"/>
	</linearGradient>
	<polygon class="st10" points="782.2,793.9 611.7,1124.2 241.3,933 411.7,602.7 	"/>
</g>
<g>
	<defs>
		<path id="SVGID_34_" d="M209.4,41C99.5,90.5,50.6,219.8,100.1,329.6l108.4-1.8l29.3-125.6c-41.4-91.9,19-182.5,125.6-170.6
			c-20.8-6.4-42.5-9.8-64.5-9.8C268.9,21.7,238.4,27.9,209.4,41"/>
	</defs>
	<clipPath id="SVGID_35_">
		<use xlink:href="#SVGID_34_"  style="overflow:visible;"/>
	</clipPath>
	
		<linearGradient id="SVGID_36_" gradientUnits="userSpaceOnUse" x1="232.3997" y1="3475.0994" x2="234.0385" y2="3475.0994" gradientTransform="matrix(-199.9373 -447.4787 -447.4787 199.9373 1602003.875 -589965.1875)">
		<stop  offset="0" style="stop-color:#BF0050"/>
		<stop  offset="0.1657" style="stop-color:#C41167"/>
		<stop  offset="0.514" style="stop-color:#D13BA3"/>
		<stop  offset="1" style="stop-color:#E57DFF"/>
	</linearGradient>
	<polygon class="st11" points="102.6,446.1 -64.9,71.2 311.3,-96.9 478.8,278 	"/>
</g>
<g>
	<path class="st12" d="M124.5,1257.8c-18.1,0-35-2.9-50.5-8.7c-15.5-5.8-28.9-14-40.1-24.7c-11.3-10.7-20-23.3-26.4-37.9
		C1.2,1172-2,1156-2,1138.5c0-17.5,3.2-33.5,9.5-48c6.3-14.5,15.2-27.1,26.5-37.9c11.4-10.7,24.9-19,40.5-24.7
		c15.6-5.8,32.7-8.7,51.3-8.7c21.6,0,41,3.6,58,10.8c17,7.2,31.1,17.6,42.3,31.1l-41.3,37.4c-7.9-8.5-16.3-14.9-25.4-19.2
		c-9.1-4.3-19.2-6.4-30.3-6.4c-9.8,0-18.8,1.5-26.9,4.6c-8.1,3.1-15,7.5-20.6,13.3c-5.7,5.8-10.1,12.7-13.3,20.6
		c-3.2,8-4.8,17-4.8,27c0,9.6,1.6,18.5,4.8,26.5c3.2,8.1,7.6,15,13.3,20.8c5.7,5.8,12.5,10.3,20.5,13.4c8,3.2,16.8,4.8,26.4,4.8
		c9.6,0,19-1.6,28.2-4.8c9.2-3.2,18.5-8.6,27.9-16.2l36.4,45.6c-13.1,9.4-28.3,16.6-45.6,21.6
		C158.1,1255.3,141.1,1257.8,124.5,1257.8z M163.5,1220.2v-86.5h57.4v95L163.5,1220.2z"/>
	<path class="st12" d="M246.1,1253.3v-229.4H311v178h109.5v51.5H246.1z"/>
	<path class="st12" d="M542.1,1257.8c-18.4,0-35.3-2.9-50.8-8.8c-15.5-5.9-29-14.3-40.5-25.1c-11.5-10.8-20.4-23.4-26.7-37.9
		c-6.3-14.4-9.5-30.3-9.5-47.5c0-17.3,3.2-33.1,9.5-47.5c6.3-14.4,15.2-27,26.7-37.9c11.5-10.8,25-19.2,40.5-25.1
		c15.5-5.9,32.4-8.8,50.8-8.8c18.6,0,35.6,2.9,51,8.8s28.8,14.3,40.1,25.1c11.4,10.8,20.3,23.4,26.7,37.9
		c6.4,14.4,9.7,30.3,9.7,47.5c0,17.3-3.2,33.2-9.7,47.7c-6.4,14.5-15.4,27.2-26.7,37.9c-11.4,10.7-24.7,19-40.1,24.9
		S560.6,1257.8,542.1,1257.8z M542.1,1204.1c8.7,0,16.9-1.5,24.4-4.6c7.5-3.1,14.1-7.5,19.7-13.3c5.6-5.8,9.9-12.7,13.1-20.8
		c3.2-8.1,4.8-17,4.8-26.9c0-10-1.6-19.1-4.8-27c-3.2-8-7.5-14.9-13.1-20.6c-5.6-5.8-12.1-10.2-19.7-13.3
		c-7.5-3.1-15.7-4.6-24.4-4.6c-8.7,0-16.9,1.5-24.4,4.6c-7.5,3.1-14.1,7.5-19.7,13.3c-5.6,5.8-9.9,12.7-13.1,20.6
		c-3.2,8-4.8,17-4.8,27c0,9.8,1.6,18.8,4.8,26.9c3.2,8.1,7.5,15,13.1,20.8c5.6,5.8,12.1,10.2,19.7,13.3
		C525.2,1202.6,533.3,1204.1,542.1,1204.1z"/>
	<path class="st12" d="M767.9,1257.8c-18.8,0-36.9-2.4-54.2-7c-17.4-4.7-31.5-10.8-42.4-18.2l21.3-47.9c10.3,6.6,22.1,12,35.6,16.2
		c13.4,4.3,26.8,6.4,40.1,6.4c9,0,16.2-0.8,21.6-2.5c5.5-1.6,9.4-3.8,12-6.6c2.5-2.7,3.8-6,3.8-9.7c0-5.2-2.4-9.4-7.2-12.5
		c-4.8-3.1-11-5.6-18.7-7.5c-7.7-2-16.1-3.9-25.4-5.9c-9.3-2-18.6-4.5-27.9-7.5c-9.3-3.1-17.8-7-25.4-12
		c-7.7-4.9-13.9-11.4-18.7-19.3c-4.8-8-7.2-18.1-7.2-30.3c0-13.8,3.8-26.2,11.3-37.4c7.5-11.1,18.8-20.1,33.9-26.9
		c15.1-6.8,33.9-10.2,56.4-10.2c15.1,0,29.9,1.7,44.4,5.1c14.5,3.4,27.5,8.4,38.8,14.9l-20,48.2c-10.9-5.9-21.7-10.3-32.4-13.3
		c-10.7-2.9-21.1-4.4-31.1-4.4c-9,0-16.2,0.9-21.6,2.8c-5.5,1.9-9.4,4.3-11.8,7.4c-2.4,3.1-3.6,6.6-3.6,10.5c0,5,2.3,9,7,12
		c4.7,2.9,10.9,5.4,18.7,7.2c7.8,1.9,16.3,3.8,25.6,5.7c9.3,2,18.6,4.4,27.9,7.4c9.3,2.9,17.8,6.9,25.4,11.8
		c7.6,4.9,13.8,11.4,18.5,19.3c4.7,8,7,18,7,30c0,13.3-3.8,25.6-11.3,36.9c-7.5,11.3-18.8,20.3-33.8,27
		C809.5,1254.5,790.6,1257.8,767.9,1257.8z"/>
	<path class="st12" d="M963.9,1257.8c-18.8,0-36.9-2.4-54.2-7c-17.4-4.7-31.5-10.8-42.4-18.2l21.3-47.9c10.3,6.6,22.1,12,35.6,16.2
		c13.4,4.3,26.8,6.4,40.1,6.4c9,0,16.2-0.8,21.6-2.5c5.5-1.6,9.4-3.8,12-6.6c2.5-2.7,3.8-6,3.8-9.7c0-5.2-2.4-9.4-7.2-12.5
		c-4.8-3.1-11-5.6-18.7-7.5c-7.7-2-16.1-3.9-25.4-5.9c-9.3-2-18.6-4.5-27.9-7.5c-9.3-3.1-17.8-7-25.4-12
		c-7.7-4.9-13.9-11.4-18.7-19.3c-4.8-8-7.2-18.1-7.2-30.3c0-13.8,3.8-26.2,11.3-37.4c7.5-11.1,18.8-20.1,33.9-26.9
		c15.1-6.8,33.9-10.2,56.4-10.2c15.1,0,29.9,1.7,44.4,5.1c14.5,3.4,27.5,8.4,38.8,14.9l-20,48.2c-10.9-5.9-21.7-10.3-32.4-13.3
		c-10.7-2.9-21.1-4.4-31.1-4.4c-9,0-16.2,0.9-21.6,2.8c-5.5,1.9-9.4,4.3-11.8,7.4c-2.4,3.1-3.6,6.6-3.6,10.5c0,5,2.3,9,7,12
		c4.7,2.9,10.9,5.4,18.7,7.2c7.8,1.9,16.3,3.8,25.6,5.7c9.3,2,18.6,4.4,27.9,7.4c9.3,2.9,17.8,6.9,25.4,11.8
		c7.6,4.9,13.8,11.4,18.5,19.3c4.7,8,7,18,7,30c0,13.3-3.8,25.6-11.3,36.9c-7.5,11.3-18.8,20.3-33.8,27
		C1005.4,1254.5,986.6,1257.8,963.9,1257.8z"/>
	<path class="st12" d="M1051.7,1253.3l101.3-229.4h63.9l101.6,229.4H1251l-79.3-197.6h25.6l-79.3,197.6H1051.7z M1107.1,1208.7
		l16.7-47.9h112.1l16.7,47.9H1107.1z"/>
	<path class="st12" d="M1320.5,1253.3v-229.4h104.9c21,0,39.1,3.4,54.2,10.2c15.2,6.8,26.9,16.6,35.2,29.3
		c8.3,12.8,12.5,27.9,12.5,45.4c0,17.3-4.2,32.2-12.5,44.7c-8.3,12.6-20,22.2-35.2,28.8c-15.2,6.7-33.3,10-54.2,10h-68.8l28.8-27.2
		v88.2H1320.5z M1385.4,1172l-28.8-29.8h64.9c13.5,0,23.6-2.9,30.3-8.8c6.7-5.9,10-14.1,10-24.6c0-10.7-3.3-19-10-24.9
		c-6.7-5.9-16.8-8.8-30.3-8.8h-64.9l28.8-29.8V1172z M1462.4,1253.3l-57-83.6h69.2l57.4,83.6H1462.4z"/>
	<path class="st12" d="M1601.7,1253.3v-97l15.1,39l-102.6-171.4h68.5l74.1,124.2h-39.7l74.4-124.2h62.9l-102.3,171.4l14.4-39v97
		H1601.7z"/>
	<path class="st12" d="M1764.9,1256.2c-10.5,0-19.3-3.5-26.5-10.5c-7.2-7-10.8-15.8-10.8-26.5c0-11.1,3.6-20,10.8-26.7
		c7.2-6.7,16.1-10,26.5-10c10.5,0,19.3,3.3,26.5,10c7.2,6.7,10.8,15.6,10.8,26.7c0,10.7-3.6,19.6-10.8,26.5
		C1784.2,1252.7,1775.4,1256.2,1764.9,1256.2z"/>
	<path class="st12" d="M1846.5,1056c-11.4,0-20.5-3.2-27.5-9.5c-7-6.3-10.5-14.2-10.5-23.6c0-9.4,3.5-17.3,10.5-23.6
		c7-6.3,16.2-9.5,27.5-9.5c11.4,0,20.5,3,27.5,9c7,6,10.5,13.7,10.5,23.1c0,9.8-3.4,18-10.3,24.4
		C1867.3,1052.7,1858.1,1056,1846.5,1056z M1815.3,1253.3v-177.6h62.3v177.6H1815.3z"/>
	<path class="st12" d="M1991,1256.2c-19.4,0-36.7-3.9-51.8-11.8c-15.1-7.9-26.9-18.7-35.6-32.6c-8.6-13.9-12.9-29.8-12.9-47.7
		c0-17.9,4.3-33.8,12.9-47.5c8.6-13.8,20.5-24.5,35.6-32.3c15.1-7.8,32.3-11.6,51.8-11.6c19.4,0,36.8,3.9,51.9,11.6
		c15.2,7.8,27,18.5,35.6,32.3c8.5,13.8,12.8,29.6,12.8,47.5c0,17.9-4.3,33.8-12.8,47.7c-8.5,13.9-20.4,24.7-35.6,32.6
		C2027.8,1252.3,2010.5,1256.2,1991,1256.2z M1991,1206.7c7.2,0,13.6-1.6,19.2-4.9c5.6-3.3,10-8.1,13.3-14.6
		c3.3-6.4,4.9-14.1,4.9-23.1c0-9-1.6-16.6-4.9-22.8s-7.7-11-13.3-14.3c-5.6-3.3-12-4.9-19.2-4.9c-7,0-13.3,1.6-18.8,4.9
		c-5.6,3.3-10.1,8-13.4,14.3c-3.4,6.2-5.1,13.8-5.1,22.8c0,9,1.7,16.7,5.1,23.1c3.4,6.4,7.9,11.3,13.4,14.6
		C1977.7,1205.1,1984,1206.7,1991,1206.7z"/>
</g>
<g>
	<path class="st13" d="M1645.4,951.3c-35.9,0-71.7-4.4-107.3-13.3c-35.7-8.8-66.7-21.4-93.3-37.6l53.1-109.9
		c20.6,13.8,43.6,24.3,69,31.7c25.3,7.4,50,11.1,74.1,11.1c25.1,0,45-4.7,59.7-14c14.7-9.3,22.1-22.6,22.1-39.8
		c0-15.2-6.2-27.4-18.4-36.5c-12.3-9.1-32.4-13.6-60.5-13.6h-61.2v-92.2l138.6-149.7l14,50.1h-264V424.8h373.1v91.4l-138.6,149.7
		l-71.5-40.6h39.8c64.4,0,113.2,14.4,146.4,43.1c33.2,28.8,49.8,65.8,49.8,111c0,29.5-8,57.3-24,83.3c-16,26.1-40.4,47.3-73.4,63.8
		C1740,943,1697.5,951.3,1645.4,951.3z"/>
</g>
</svg>
