<svg id="Layer_1" enable-background="new 0 0 512 512" viewBox="0 0 512 512" xmlns="http://www.w3.org/2000/svg" xmlns:xlink="http://www.w3.org/1999/xlink"><linearGradient id="lg1"><stop offset="0" stop-color="#f5fdff"/><stop offset="1" stop-color="#b4d2e2"/></linearGradient><linearGradient id="SVGID_1_" gradientUnits="userSpaceOnUse" x1="255.196" x2="263.475" xlink:href="#lg1" y1="421.343" y2="538.163"/><linearGradient id="lg2"><stop offset="0" stop-color="#7bacdf" stop-opacity="0"/><stop offset="1" stop-color="#7bacdf"/></linearGradient><linearGradient id="SVGID_00000023254223166325491040000000963610895754490027_" gradientUnits="userSpaceOnUse" x1="256" x2="256" xlink:href="#lg2" y1="487.648" y2="514.339"/><linearGradient id="SVGID_00000123404172124126091890000014087919834452184470_" gradientUnits="userSpaceOnUse" x1="256" x2="256" xlink:href="#lg2" y1="491.327" y2="452.421"/><linearGradient id="SVGID_00000138566243415967742030000013643172115661336485_" gradientUnits="userSpaceOnUse" x1="450.866" x2="484.031" xlink:href="#lg2" y1="443.714" y2="443.714"/><linearGradient id="SVGID_00000048500597466093406020000000296664878762813828_" gradientUnits="userSpaceOnUse" x1="198.472" x2="418.036" xlink:href="#lg1" y1="206.684" y2="548.862"/><linearGradient id="SVGID_00000099645143848383619510000006906701570572492705_" gradientUnits="userSpaceOnUse" x1="444.19" x2="488.342" xlink:href="#lg2" y1="262.23" y2="256.711"/><linearGradient id="SVGID_00000127735650079699296410000007704105586767999106_" gradientUnits="userSpaceOnUse" x1="256" x2="256" xlink:href="#lg2" y1="139.948" y2="95.796"/><linearGradient id="SVGID_00000056413977495476685710000016893723751451719870_" gradientUnits="userSpaceOnUse" x1="256" x2="256" xlink:href="#lg2" y1="403.792" y2="466.399"/><linearGradient id="lg3"><stop offset="0" stop-color="#fd4755"/><stop offset="1" stop-color="#ca2e43"/></linearGradient><linearGradient id="SVGID_00000176024483092218073600000007312330496313729441_" gradientUnits="userSpaceOnUse" x1="255.352" x2="256.302" xlink:href="#lg3" y1="-17.324" y2="84.379"/><linearGradient id="SVGID_00000176040901546171786740000008570619114451730056_" gradientUnits="userSpaceOnUse" x1="90.901" x2="90.901" xlink:href="#lg3" y1="22.525" y2=".143"/><linearGradient id="SVGID_00000042737216929001737720000012069313532246151816_" gradientUnits="userSpaceOnUse" x1="145.934" x2="145.934" xlink:href="#lg3" y1="22.525" y2=".143"/><linearGradient id="SVGID_00000033364159940295625930000007743035398640129408_" gradientUnits="userSpaceOnUse" x1="200.967" x2="200.967" xlink:href="#lg3" y1="22.525" y2=".143"/><linearGradient id="SVGID_00000119831367717330198470000001751725441609798563_" gradientUnits="userSpaceOnUse" x1="256" x2="256" xlink:href="#lg3" y1="22.525" y2=".143"/><linearGradient id="SVGID_00000072246587878217865850000013873403967577023371_" gradientUnits="userSpaceOnUse" x1="311.033" x2="311.033" xlink:href="#lg3" y1="22.525" y2=".143"/><linearGradient id="SVGID_00000163039349728262743670000007636467470875633287_" gradientUnits="userSpaceOnUse" x1="366.066" x2="366.066" xlink:href="#lg3" y1="22.525" y2=".143"/><linearGradient id="SVGID_00000172432975325659492440000002922717219637939373_" gradientUnits="userSpaceOnUse" x1="421.1" x2="421.1" xlink:href="#lg3" y1="22.525" y2=".143"/><linearGradient id="lg4"><stop offset="0" stop-color="#a72b2b" stop-opacity="0"/><stop offset=".242" stop-color="#a22c2b" stop-opacity=".242"/><stop offset=".5343" stop-color="#942e29" stop-opacity=".534"/><stop offset=".8514" stop-color="#7b3127" stop-opacity=".851"/><stop offset="1" stop-color="#6d3326"/></linearGradient><linearGradient id="SVGID_00000121261103374714820570000002754437255448944279_" gradientUnits="userSpaceOnUse" x1="256" x2="256" xlink:href="#lg4" y1="83.224" y2="102.848"/><linearGradient id="SVGID_00000124880057932485561500000000408085736867419783_" gradientUnits="userSpaceOnUse" x1="450.866" x2="474.977" xlink:href="#lg4" y1="52.037" y2="52.037"/><linearGradient id="SVGID_00000120559651486221995100000015515163477473776061_" gradientUnits="userSpaceOnUse" x1="178.483" x2="303.948" y1="268.258" y2="344.535"><stop offset="0" stop-color="#5a5a5a"/><stop offset="1" stop-color="#444"/></linearGradient><linearGradient id="lg5"><stop offset="0" stop-color="#f6ab31"/><stop offset="1" stop-color="#ca6e59"/></linearGradient><linearGradient id="SVGID_00000060017362832934866700000009474358026334978733_" gradientUnits="userSpaceOnUse" x1="156.053" x2="214.509" xlink:href="#lg5" y1="17.886" y2="215.351"/><linearGradient id="SVGID_00000098195112201979005820000000757074511232664755_" gradientUnits="userSpaceOnUse" x1="214.467" x2="272.923" xlink:href="#lg5" y1=".594" y2="198.059"/><linearGradient id="SVGID_00000006686573522112120660000013136025744493011363_" gradientUnits="userSpaceOnUse" x1="261.964" x2="320.42" xlink:href="#lg5" y1="-13.467" y2="183.999"/><g><g><g><path d="m459.792 512h-407.584c-12.636 0-22.879-10.243-22.879-22.879v-113.694h453.341v113.694c.001 12.636-10.243 22.879-22.878 22.879z" fill="url(#SVGID_1_)"/><path d="m459.792 512h-407.584c-12.636 0-22.879-10.243-22.879-22.879v-113.694h453.341v113.694c.001 12.636-10.243 22.879-22.878 22.879z" fill="url(#SVGID_00000023254223166325491040000000963610895754490027_)"/><path d="m459.792 512h-407.584c-12.636 0-22.879-10.243-22.879-22.879v-113.694h453.341v113.694c.001 12.636-10.243 22.879-22.878 22.879z" fill="url(#SVGID_00000123404172124126091890000014087919834452184470_)"/><path d="m357.962 512h101.83c12.636 0 22.879-10.243 22.879-22.879v-113.694h-124.709z" fill="url(#SVGID_00000138566243415967742030000013643172115661336485_)"/></g><g><path d="m484.572 458.213h-457.144c-16.254 0-28.795-14.305-26.669-30.419l45.63-345.796h419.222l45.63 345.796c2.126 16.114-10.415 30.419-26.669 30.419z" fill="url(#SVGID_00000048500597466093406020000000296664878762813828_)"/><path d="m465.611 81.998h-189.515v376.215h208.476c16.254 0 28.796-14.305 26.669-30.419z" fill="url(#SVGID_00000099645143848383619510000006906701570572492705_)"/><path d="m481.754 204.337-16.143-122.339h-419.222l-16.143 122.339z" fill="url(#SVGID_00000127735650079699296410000007704105586767999106_)"/><path d="m.759 427.794c-2.126 16.115 10.415 30.419 26.669 30.419h457.143c16.254 0 28.796-14.305 26.669-30.419l-16.353-123.93h-477.774z" fill="url(#SVGID_00000056413977495476685710000016893723751451719870_)"/></g><g><path d="m458.369 104.074h-404.738c-10.666 0-19.312-8.646-19.312-19.312v-65.45c-.001-10.666 8.646-19.312 19.312-19.312h404.739c10.666 0 19.312 8.646 19.312 19.312v65.449c0 10.667-8.647 19.313-19.313 19.313z" fill="url(#SVGID_00000176024483092218073600000007312330496313729441_)"/><g><path d="m95.415 25.376h-9.03c-8.924 0-16.158-7.234-16.158-16.158v-9.218h41.347v9.218c0 8.924-7.235 16.158-16.159 16.158z" fill="url(#SVGID_00000176040901546171786740000008570619114451730056_)"/><path d="m150.449 25.376h-9.03c-8.924 0-16.158-7.234-16.158-16.158v-9.218h41.347v9.218c-.001 8.924-7.235 16.158-16.159 16.158z" fill="url(#SVGID_00000042737216929001737720000012069313532246151816_)"/><path d="m205.482 25.376h-9.03c-8.924 0-16.158-7.234-16.158-16.158v-9.218h41.347v9.218c-.001 8.924-7.235 16.158-16.159 16.158z" fill="url(#SVGID_00000033364159940295625930000007743035398640129408_)"/><path d="m260.515 25.376h-9.03c-8.924 0-16.158-7.234-16.158-16.158v-9.218h41.347v9.218c-.001 8.924-7.235 16.158-16.159 16.158z" fill="url(#SVGID_00000119831367717330198470000001751725441609798563_)"/><path d="m315.548 25.376h-9.03c-8.924 0-16.158-7.234-16.158-16.158v-9.218h41.347v9.218c-.001 8.924-7.235 16.158-16.159 16.158z" fill="url(#SVGID_00000072246587878217865850000013873403967577023371_)"/><path d="m370.581 25.376h-9.03c-8.924 0-16.158-7.234-16.158-16.158v-9.218h41.347v9.218c0 8.924-7.235 16.158-16.159 16.158z" fill="url(#SVGID_00000163039349728262743670000007636467470875633287_)"/><path d="m425.614 25.376h-9.03c-8.924 0-16.158-7.234-16.158-16.158v-9.218h41.347v9.218c0 8.924-7.235 16.158-16.159 16.158z" fill="url(#SVGID_00000172432975325659492440000002922717219637939373_)"/></g><path d="m34.318 20.214v64.548c0 10.666 8.647 19.312 19.312 19.312h404.739c10.666 0 19.312-8.646 19.312-19.312v-64.548z" fill="url(#SVGID_00000121261103374714820570000002754437255448944279_)"/><path d="m458.369 0h-156.886v104.074h156.886c10.666 0 19.312-8.646 19.312-19.312v-65.45c.001-10.665-8.646-19.312-19.312-19.312z" fill="url(#SVGID_00000124880057932485561500000000408085736867419783_)"/></g></g><g><path d="m267.217 288.626c-15.166 0-29.385 2.843-39.495 13.902v-28.437c0-21.802 11.059-31.596 29.7-31.596 14.851 0 27.489 6.319 27.489 18.326 0 14.534 12.006 18.01 25.593 18.01 15.798 0 23.065-4.74 23.065-19.906 0-26.225-21.169-59.401-74.567-59.401-45.499 0-80.57 20.222-80.57 74.567v83.731c0 54.345 34.124 74.567 77.727 74.567s77.41-20.222 77.41-74.567v-2.844c0-50.554-30.333-66.352-66.352-66.352zm17.062 72.671c0 21.802-10.427 31.28-28.12 31.28s-28.437-9.479-28.437-31.28v-5.688c0-20.854 11.059-29.068 28.12-29.068 18.01 0 28.437 8.847 28.437 31.912z" fill="url(#SVGID_00000120559651486221995100000015515163477473776061_)"/><g><path d="m213.625 125.785c-.988-3.142-5.027-4.668-9.157-4.668s-8.17 1.526-9.158 4.668l-16.699 54.767c-.09.359-.18.718-.18.987 0 3.322 5.117 5.746 8.978 5.746 2.244 0 4.04-.718 4.579-2.603l3.052-11.222h18.943l3.053 11.222c.539 1.885 2.334 2.603 4.578 2.603 3.86 0 8.979-2.424 8.979-5.746 0-.269-.09-.628-.18-.987zm-15.711 36.9 6.554-24.061 6.553 24.061z" fill="url(#SVGID_00000060017362832934866700000009474358026334978733_)"/><path d="m273.777 121.655c-3.591 0-7.003 1.257-7.003 4.22v40.76c0 6.105-3.232 8.978-8.619 8.978s-8.619-2.873-8.619-8.978v-40.76c0-2.963-3.591-4.22-7.003-4.22-3.591 0-7.003 1.257-7.003 4.22v40.76c0 15.443 9.876 21.189 22.625 21.189 12.659 0 22.625-5.746 22.625-21.189v-40.76c0-2.963-3.591-4.22-7.003-4.22z" fill="url(#SVGID_00000098195112201979005820000000757074511232664755_)"/><path d="m329.349 152.809h-15.083c-2.694 0-4.22 2.783-4.22 5.387 0 2.783 1.526 5.387 4.22 5.387h5.297v3.052c0 6.105-3.052 8.978-8.08 8.978s-7.99-2.873-7.99-8.978v-23.791c0-6.105 2.962-8.978 8.08-8.978 7.631 0 7.901 4.848 7.99 8.08.09 3.232 3.232 4.219 7.003 4.219 4.758 0 7.003-1.257 7.003-6.644 0-11.401-9.696-17.866-22.535-17.866-11.76 0-21.547 5.746-21.547 21.189v23.791c0 15.443 9.606 21.189 21.996 21.189s22.086-5.746 22.086-21.189v-9.426c0-2.335-1.527-4.4-4.22-4.4z" fill="url(#SVGID_00000006686573522112120660000013136025744493011363_)"/></g></g></g><g/><g/><g/><g/><g/><g/><g/><g/><g/><g/><g/><g/><g/><g/><g/></svg>