<svg xmlns="http://www.w3.org/2000/svg" xmlns:xlink="http://www.w3.org/1999/xlink" viewBox="0 0 30.4146 28.0959">
  <defs>
    <radialGradient id="radial-gradient" cx="8.59492" cy="4.23579" r="27.98813" gradientUnits="userSpaceOnUse">
      <stop offset="0" stop-color="#c6eafb"/>
      <stop offset="0.329" stop-color="#5cc6f2"/>
      <stop offset="1" stop-color="#24499f"/>
    </radialGradient>
    <radialGradient id="radial-gradient-2" cx="-0.76727" cy="-1.27394" r="10.64134" gradientUnits="userSpaceOnUse">
      <stop offset="0" stop-color="#a9e0f9"/>
      <stop offset="1" stop-color="#4884c5"/>
    </radialGradient>
    <radialGradient id="radial-gradient-3" cx="8.19731" cy="4.91664" r="30.77171" gradientUnits="userSpaceOnUse">
      <stop offset="0" stop-color="#a9e0f9"/>
      <stop offset="1" stop-color="#467fc1"/>
    </radialGradient>
    <radialGradient id="radial-gradient-4" cx="13.17111" cy="29.46615" r="21.38645" gradientUnits="userSpaceOnUse">
      <stop offset="0" stop-color="#a9e0f9"/>
      <stop offset="1" stop-color="#246ab4"/>
    </radialGradient>
    <radialGradient id="radial-gradient-5" cx="31.78537" cy="9.16591" r="15.53729" gradientUnits="userSpaceOnUse">
      <stop offset="0" stop-color="#5cc6f2"/>
      <stop offset="1" stop-color="#24499f"/>
    </radialGradient>
    <radialGradient id="radial-gradient-6" cx="-0.75285" cy="19.90476" r="13.57301" xlink:href="#radial-gradient-2"/>
    <radialGradient id="radial-gradient-7" cx="9.52079" cy="32.61309" r="24.9496" gradientUnits="userSpaceOnUse">
      <stop offset="0" stop-color="#7dd3f7"/>
      <stop offset="1" stop-color="#273e98"/>
    </radialGradient>
    <radialGradient id="radial-gradient-8" cx="6.18989" cy="29.02962" r="22.63572" gradientUnits="userSpaceOnUse">
      <stop offset="0" stop-color="#a9e0f9"/>
      <stop offset="1" stop-color="#4479bd"/>
    </radialGradient>
    <radialGradient id="radial-gradient-9" cx="278.68142" cy="480.27741" r="13.20861" gradientUnits="userSpaceOnUse">
      <stop offset="0" stop-color="#0a0b12"/>
      <stop offset="1" stop-color="#fff"/>
    </radialGradient>
    <radialGradient id="radial-gradient-10" cx="265.32615" cy="482.01889" r="14.20068" gradientUnits="userSpaceOnUse">
      <stop offset="0.31227" stop-color="#0a0b12"/>
      <stop offset="1" stop-color="#4bafe3"/>
    </radialGradient>
    <radialGradient id="radial-gradient-11" cx="278.15257" cy="460.4366" r="23.05101" gradientUnits="userSpaceOnUse">
      <stop offset="0.56877" stop-color="#0a0b12"/>
      <stop offset="0.59813" stop-color="#0e1018"/>
      <stop offset="0.63717" stop-color="#172029"/>
      <stop offset="0.68169" stop-color="#283944"/>
      <stop offset="0.73026" stop-color="#3f5c6b"/>
      <stop offset="0.7821" stop-color="#5c899d"/>
      <stop offset="0.8359" stop-color="#80bfd8"/>
      <stop offset="0.85874" stop-color="#90d8f4"/>
    </radialGradient>
  </defs>
  <g style="isolation: isolate">
    <g id="Layer_1" data-name="Layer 1">
      <g>
        <g>
          <polygon points="21.007 4.086 28.018 9.729 29.185 13.681 23.825 13.625 15.077 9.595 8.066 3.951 6.899 0 12.259 0.056 21.007 4.086 21.007 4.086" fill-rule="evenodd" fill="url(#radial-gradient)"/>
          <polygon points="6.899 0 0 2.415 1.593 7.807 8.066 3.951 6.899 0 6.899 0" fill-rule="evenodd" fill="url(#radial-gradient-2)"/>
          <polygon points="8.066 3.951 1.593 7.807 11.161 15.509 15.077 9.595 8.066 3.951 8.066 3.951" fill-rule="evenodd" fill="url(#radial-gradient-3)"/>
          <polygon points="15.077 9.595 23.825 13.625 23.099 21.009 11.161 15.509 15.077 9.595 15.077 9.595" fill-rule="evenodd" fill="url(#radial-gradient-4)"/>
          <polygon points="29.185 13.681 30.415 21.085 23.099 21.009 23.825 13.625 29.185 13.681 29.185 13.681" fill-rule="evenodd" fill="url(#radial-gradient-5)"/>
          <polygon points="1.593 7.807 5.77 28.096 11.161 15.509 1.593 7.807 1.593 7.807" fill-rule="evenodd" fill="url(#radial-gradient-6)"/>
          <polygon points="11.161 15.509 23.099 21.009 5.77 28.096 11.161 15.509 11.161 15.509" fill-rule="evenodd" fill="url(#radial-gradient-7)"/>
          <polygon points="30.415 21.085 5.77 28.096 23.099 21.009 30.415 21.085 30.415 21.085" fill-rule="evenodd" fill="url(#radial-gradient-8)"/>
          <polygon points="0 2.415 5.77 28.096 1.593 7.807 0 2.415 0 2.415" fill="#99d9ec" fill-rule="evenodd"/>
          <path d="M268.618,466.98581c2.4063,2.3353,7.1554,9.6201,8.425,12.1225l1.113.5128,2.46.0255.41891.0044a60.78616,60.78616,0,0,1-7.09961-10.2156l-5.3173-2.4496Z" transform="translate(-254.33116 -465.99601)" fill-rule="evenodd" opacity="0.5" fill="url(#radial-gradient-9)" style="mix-blend-mode: screen"/>
          <path d="M256.95716,478.82111c-.0886-3.6308,1.418-2.5431,2.9986-.9173,4.9613,5.103,3.3158,8.0514,1.1582,13.8236q2.18895-5.111,4.378-10.222-4.784-3.8511-9.568-7.702.5166,2.50875,1.0332,5.0177Z" transform="translate(-254.33116 -465.99601)" fill="#a3def9" fill-rule="evenodd" opacity="0.75" style="mix-blend-mode: screen"/>
          <path d="M269.19916,483.21321c4.8943,2.2653,2.8515,4.8982-1.2862,6.9691l-7.8117,3.9096,17.3292-7.0867-8.2313-3.792Z" transform="translate(-254.33116 -465.99601)" fill-rule="evenodd" opacity="0.5" fill="url(#radial-gradient-10)" style="mix-blend-mode: screen"/>
          <path d="M262.39706,469.94731l-1.0655-3.6069c.3812,1.8371.6164,2.4935.083,3.285a12.112,12.112,0,0,1-2.9353,2.6558l3.9178-2.3339Z" transform="translate(-254.33116 -465.99601)" fill="#a3dce9" fill-rule="evenodd" style="mix-blend-mode: screen"/>
          <path d="M258.47926,472.28121l-.0005.0003.0005-.0003Zm10.9288,3.3098-7.011-5.6437-3.9177,2.3339c1.964-1.057,3.14151-1.4423,3.8887-1.1609a15.2873,15.2873,0,0,1,3.21481,2.0763c1.62009,1.2169,2.332,2.4538,2.34359,3.1174.01441.8188-.7634,2.4255-1.80859,4.2462l3.29019-4.9692Z" transform="translate(-254.33116 -465.99601)" fill="#fff" fill-rule="evenodd"/>
          <path d="M269.40806,475.591l-3.29019,4.9692c1.51659-2.1665,2.70359-3.1666,3.53419-3.363,1.1193-.2647,2.7519.1006,5.93181,1.2389l-6.17581-2.8451Z" transform="translate(-254.33116 -465.99601)" fill="#a3dce9" fill-rule="evenodd" opacity="0.5" style="mix-blend-mode: screen"/>
        </g>
        <path d="M265.07276,466.03591l-3.84289-.0399.78609,2.6611.3811,1.2902,7.011,5.6437,3.3911,1.5622c-2.1134-1.8789-7.5159-9.4703-7.7264-11.1173Z" transform="translate(-254.33116 -465.99601)" fill-rule="evenodd" fill="url(#radial-gradient-11)" style="mix-blend-mode: screen"/>
      </g>
    </g>
  </g>
</svg>
