<?xml version="1.0" encoding="utf-8"?>
<!-- Generator: Adobe Illustrator 25.2.1, SVG Export Plug-In . SVG Version: 6.00 Build 0)  -->
<svg version="1.1" id="Capa_1" xmlns="http://www.w3.org/2000/svg" xmlns:xlink="http://www.w3.org/1999/xlink" x="0px" y="0px"
	 viewBox="0 0 512 512" style="enable-background:new 0 0 512 512;" xml:space="preserve">
<style type="text/css">
	.st0{fill:url(#SVGID_1_);}
	.st1{fill:url(#SVGID_2_);}
	.st2{fill:url(#SVGID_3_);}
	.st3{fill:url(#SVGID_4_);}
	.st4{fill:url(#SVGID_5_);}
	.st5{fill:url(#SVGID_6_);}
	.st6{fill:url(#SVGID_7_);}
	.st7{fill:url(#SVGID_8_);}
	.st8{fill:url(#SVGID_9_);}
	.st9{fill:url(#SVGID_10_);}
	.st10{fill:url(#SVGID_11_);}
	.st11{fill:url(#SVGID_12_);}
	.st12{fill:url(#SVGID_13_);}
	.st13{fill:url(#SVGID_14_);}
	.st14{fill:url(#SVGID_15_);}
	.st15{fill:url(#SVGID_16_);}
	.st16{fill:url(#SVGID_17_);}
	.st17{fill:url(#SVGID_18_);}
	.st18{fill:url(#SVGID_19_);}
	.st19{fill:url(#SVGID_20_);}
	.st20{fill:url(#SVGID_21_);}
	.st21{fill:url(#SVGID_22_);}
</style>
<linearGradient id="SVGID_1_" gradientUnits="userSpaceOnUse" x1="155.0175" y1="457.7133" x2="370.8115" y2="126.0873" gradientTransform="matrix(1 0 0 -1 0 511.76)">
	<stop  offset="0" style="stop-color:#EAEBFF"/>
	<stop  offset="1" style="stop-color:#ADB9EB"/>
</linearGradient>
<path class="st0" d="M435.3,418.5H76.7c-21.1,0-38.3-17.1-38.3-38.3V38.3C38.4,17.1,55.5,0,76.7,0h358.6c21.1,0,38.3,17.1,38.3,38.3
	v341.9C473.6,401.3,456.4,418.5,435.3,418.5z"/>
<linearGradient id="SVGID_2_" gradientUnits="userSpaceOnUse" x1="408.842" y1="302.5255" x2="474.384" y2="302.5255" gradientTransform="matrix(1 0 0 -1 0 511.76)">
	<stop  offset="0" style="stop-color:#ADB9EB;stop-opacity:0"/>
	<stop  offset="0.2592" style="stop-color:#AAB5E7;stop-opacity:0.259"/>
	<stop  offset="0.5415" style="stop-color:#A0A7DA;stop-opacity:0.542"/>
	<stop  offset="0.8338" style="stop-color:#8F92C6;stop-opacity:0.834"/>
	<stop  offset="1" style="stop-color:#8382B7"/>
</linearGradient>
<path class="st1" d="M435.3,0H260.2v418.5h175.2c21.1,0,38.3-17.1,38.3-38.3V38.3C473.6,17.1,456.4,0,435.3,0z"/>
<linearGradient id="SVGID_3_" gradientUnits="userSpaceOnUse" x1="348.13" y1="214.007" x2="175.198" y2="386.939" gradientTransform="matrix(1 0 0 -1 0 511.76)">
	<stop  offset="0" style="stop-color:#EAEBFF"/>
	<stop  offset="1" style="stop-color:#ADB9EB"/>
</linearGradient>
<ellipse class="st2" cx="256" cy="205.6" rx="132.4" ry="92.9"/>
<linearGradient id="SVGID_4_" gradientUnits="userSpaceOnUse" x1="256.0005" y1="250.265" x2="256.0005" y2="171.324" gradientTransform="matrix(1 0 0 -1 0 511.76)">
	<stop  offset="0" style="stop-color:#ADB9EB;stop-opacity:0"/>
	<stop  offset="0.2592" style="stop-color:#AAB5E7;stop-opacity:0.259"/>
	<stop  offset="0.5415" style="stop-color:#A0A7DA;stop-opacity:0.542"/>
	<stop  offset="0.8338" style="stop-color:#8F92C6;stop-opacity:0.834"/>
	<stop  offset="1" style="stop-color:#8382B7"/>
</linearGradient>
<path class="st3" d="M38.4,194.3v104.2c0,21.1,17.1,38.3,38.3,38.3h358.6c21.1,0,38.3-17.1,38.3-38.3V194.3H38.4z"/>
<linearGradient id="SVGID_5_" gradientUnits="userSpaceOnUse" x1="384.4619" y1="240.1317" x2="319.5909" y2="260.4486" gradientTransform="matrix(1 0 0 -1 0 511.76)">
	<stop  offset="0" style="stop-color:#ADB9EB;stop-opacity:0"/>
	<stop  offset="0.2592" style="stop-color:#AAB5E7;stop-opacity:0.259"/>
	<stop  offset="0.5415" style="stop-color:#A0A7DA;stop-opacity:0.542"/>
	<stop  offset="0.8338" style="stop-color:#8F92C6;stop-opacity:0.834"/>
	<stop  offset="1" style="stop-color:#8382B7"/>
</linearGradient>
<path class="st4" d="M429.1,307.8L310.2,188.9v118.9H429.1z"/>
<linearGradient id="SVGID_6_" gradientUnits="userSpaceOnUse" x1="182.5653" y1="321.8041" x2="285.2193" y2="106.8742" gradientTransform="matrix(1 0 0 -1 0 511.76)">
	<stop  offset="0" style="stop-color:#EAEBFF"/>
	<stop  offset="1" style="stop-color:#ADB9EB"/>
</linearGradient>
<path class="st5" d="M435.3,336.8H76.7c-21.1,0-38.3-17.1-38.3-38.3v81.7c0,21.1,17.1,38.3,38.3,38.3h358.6
	c21.1,0,38.3-17.1,38.3-38.3v-81.7C473.6,319.7,456.4,336.8,435.3,336.8z"/>
<linearGradient id="SVGID_7_" gradientUnits="userSpaceOnUse" x1="143.8575" y1="425.6652" x2="289.2825" y2="92.0412" gradientTransform="matrix(1 0 0 -1 0 511.76)">
	<stop  offset="0" style="stop-color:#ADB9EB;stop-opacity:0"/>
	<stop  offset="0.2592" style="stop-color:#AAB5E7;stop-opacity:0.259"/>
	<stop  offset="0.5415" style="stop-color:#A0A7DA;stop-opacity:0.542"/>
	<stop  offset="0.8338" style="stop-color:#8F92C6;stop-opacity:0.834"/>
	<stop  offset="1" style="stop-color:#8382B7"/>
</linearGradient>
<path class="st6" d="M435.3,336.8H76.7c-21.1,0-38.3-17.1-38.3-38.3v81.7c0,21.1,17.1,38.3,38.3,38.3h358.6
	c21.1,0,38.3-17.1,38.3-38.3v-81.7C473.6,319.7,456.4,336.8,435.3,336.8z"/>
<g>
	
		<linearGradient id="SVGID_8_" gradientUnits="userSpaceOnUse" x1="191.287" y1="286.706" x2="310.305" y2="286.706" gradientTransform="matrix(1 0 0 -1 0 511.76)">
		<stop  offset="0" style="stop-color:#FFA1AE"/>
		<stop  offset="1" style="stop-color:#E41F2D"/>
	</linearGradient>
	<path class="st7" d="M344.4,170.1H167.6v47.7h0c0,0,0,0.1,0,0.1c0,34.3,39.6,62,88.4,62s88.4-27.8,88.4-62c0,0,0-0.1,0-0.1h0V170.1
		z"/>
	
		<linearGradient id="SVGID_9_" gradientUnits="userSpaceOnUse" x1="256" y1="308.983" x2="256" y2="216.4" gradientTransform="matrix(1 0 0 -1 0 511.76)">
		<stop  offset="0" style="stop-color:#C41926;stop-opacity:0"/>
		<stop  offset="0.1758" style="stop-color:#C01A27;stop-opacity:0.176"/>
		<stop  offset="0.3761" style="stop-color:#B21E29;stop-opacity:0.376"/>
		<stop  offset="0.5886" style="stop-color:#9B242C;stop-opacity:0.589"/>
		<stop  offset="0.8079" style="stop-color:#7B2D31;stop-opacity:0.808"/>
		<stop  offset="1" style="stop-color:#593636"/>
	</linearGradient>
	<path class="st8" d="M344.4,170.1H167.6v47.7h0c0,0,0,0.1,0,0.1c0,34.3,39.6,62,88.4,62s88.4-27.8,88.4-62c0,0,0-0.1,0-0.1h0V170.1
		z"/>
	
		<linearGradient id="SVGID_10_" gradientUnits="userSpaceOnUse" x1="236.1399" y1="318.1379" x2="322.9549" y2="258.9889" gradientTransform="matrix(1 0 0 -1 0 511.76)">
		<stop  offset="0" style="stop-color:#C41926;stop-opacity:0"/>
		<stop  offset="0.1758" style="stop-color:#C01A27;stop-opacity:0.176"/>
		<stop  offset="0.3761" style="stop-color:#B21E29;stop-opacity:0.376"/>
		<stop  offset="0.5886" style="stop-color:#9B242C;stop-opacity:0.589"/>
		<stop  offset="0.8079" style="stop-color:#7B2D31;stop-opacity:0.808"/>
		<stop  offset="1" style="stop-color:#593636"/>
	</linearGradient>
	<path class="st9" d="M344.4,170.1H167.6v47.7h0c0,0,0,0.1,0,0.1c0,34.3,39.6,62,88.4,62s88.4-27.8,88.4-62c0,0,0-0.1,0-0.1h0V170.1
		z"/>
	<g>
		
			<linearGradient id="SVGID_11_" gradientUnits="userSpaceOnUse" x1="226.492" y1="370.531" x2="295.916" y2="301.107" gradientTransform="matrix(1 0 0 -1 0 511.76)">
			<stop  offset="0" style="stop-color:#FFA1AE"/>
			<stop  offset="1" style="stop-color:#E41F2D"/>
		</linearGradient>
		<ellipse class="st10" cx="256" cy="170.7" rx="88.4" ry="62"/>
		
			<linearGradient id="SVGID_12_" gradientUnits="userSpaceOnUse" x1="256" y1="335.695" x2="256" y2="261.258" gradientTransform="matrix(1 0 0 -1 0 511.76)">
			<stop  offset="0" style="stop-color:#C41926;stop-opacity:0"/>
			<stop  offset="0.1758" style="stop-color:#C01A27;stop-opacity:0.176"/>
			<stop  offset="0.3761" style="stop-color:#B21E29;stop-opacity:0.376"/>
			<stop  offset="0.5886" style="stop-color:#9B242C;stop-opacity:0.589"/>
			<stop  offset="0.8079" style="stop-color:#7B2D31;stop-opacity:0.808"/>
			<stop  offset="1" style="stop-color:#593636"/>
		</linearGradient>
		<path class="st11" d="M167.6,170.7c0,34.3,39.6,62,88.4,62s88.4-27.8,88.4-62c0-7.4-1.9-14.5-5.3-21.1H172.9
			C169.5,156.2,167.6,163.3,167.6,170.7L167.6,170.7z"/>
		
			<linearGradient id="SVGID_13_" gradientUnits="userSpaceOnUse" x1="261.8447" y1="335.1807" x2="324.4217" y2="272.6037" gradientTransform="matrix(1 0 0 -1 0 511.76)">
			<stop  offset="0" style="stop-color:#C41926;stop-opacity:0"/>
			<stop  offset="0.1758" style="stop-color:#C01A27;stop-opacity:0.176"/>
			<stop  offset="0.3761" style="stop-color:#B21E29;stop-opacity:0.376"/>
			<stop  offset="0.5886" style="stop-color:#9B242C;stop-opacity:0.589"/>
			<stop  offset="0.8079" style="stop-color:#7B2D31;stop-opacity:0.808"/>
			<stop  offset="1" style="stop-color:#593636"/>
		</linearGradient>
		<path class="st12" d="M193.5,214.6c34.5,24.2,90.5,24.2,125,0s34.5-63.5,0-87.7c-7.5-5.2-16-9.4-25-12.3l-117.6,82.5
			C180.2,203.4,186,209.4,193.5,214.6L193.5,214.6z"/>
	</g>
</g>
<linearGradient id="SVGID_14_" gradientUnits="userSpaceOnUse" x1="381.716" y1="255.919" x2="316.845" y2="281.226" gradientTransform="matrix(1 0 0 -1 0 511.76)">
	<stop  offset="0" style="stop-color:#C41926;stop-opacity:0"/>
	<stop  offset="0.1758" style="stop-color:#C01A27;stop-opacity:0.176"/>
	<stop  offset="0.3761" style="stop-color:#B21E29;stop-opacity:0.376"/>
	<stop  offset="0.5886" style="stop-color:#9B242C;stop-opacity:0.589"/>
	<stop  offset="0.8079" style="stop-color:#7B2D31;stop-opacity:0.808"/>
	<stop  offset="1" style="stop-color:#593636"/>
</linearGradient>
<path class="st13" d="M310.2,266.9c19.1-10.4,31.9-26.2,33.9-44.1l-33.9-33.9V266.9z"/>
<g>
	<g>
		<g>
			
				<linearGradient id="SVGID_15_" gradientUnits="userSpaceOnUse" x1="231.7575" y1="257.6515" x2="609.4525" y2="-131.9395" gradientTransform="matrix(1 0 0 -1 0 511.76)">
				<stop  offset="0" style="stop-color:#FFDFCF"/>
				<stop  offset="1" style="stop-color:#FFA78F"/>
			</linearGradient>
			<path class="st14" d="M473.6,315.3v103.2c0,7.2-0.9,14.4-2.7,21.3c-1.8,6.9-4.4,13.7-7.9,20c-4.2,7.6-6.4,16.2-6.4,24.9v14.1
				c0,7.3-5.9,13.2-13.2,13.2H294.6c-7.3,0-13.2-5.9-13.2-13.2c0-24.4-8.7-48.1-24.7-66.5c-13.7-15.9-29.6-29.9-47.2-41.6
				c-2.7-1.8-5.1-3.3-7.3-4.6c-8.9-5.2-13.1-15.4-10.7-25.1c0.3-1.4,0.8-2.8,1.4-4.1c5.3-11.7,19.3-16.8,30.8-11.2
				c12.1,5.9,23.9,12.5,35.3,19.7l8.1,5.6V206c0-13.3,12-24.2,25.2-24.5c13.6-0.3,25,11.1,25.2,24.7v82.2c2-9.8,14.4-16.9,27.9-15.3
				c9.9,1.1,18.6,4.7,25,9.9c5.3-3.8,12.8-5.8,20.6-4.9c9.9,1.1,18.6,4.7,25,9.9c5.3-3.8,12.8-5.8,20.6-4.9
				C458,285.6,473.6,299.3,473.6,315.3L473.6,315.3z"/>
			
				<linearGradient id="SVGID_16_" gradientUnits="userSpaceOnUse" x1="424.08" y1="111.0378" x2="484.866" y2="104.2838" gradientTransform="matrix(1 0 0 -1 0 511.76)">
				<stop  offset="0" style="stop-color:#F89580;stop-opacity:0"/>
				<stop  offset="0.2622" style="stop-color:#F3917C;stop-opacity:0.263"/>
				<stop  offset="0.5812" style="stop-color:#E48671;stop-opacity:0.583"/>
				<stop  offset="0.9283" style="stop-color:#CB755E;stop-opacity:0.931"/>
				<stop  offset="0.9972" style="stop-color:#C5715A"/>
			</linearGradient>
			<path class="st15" d="M436.8,283.1c-7.9-0.9-15.4,1.1-20.6,4.9c-6.4-5.1-15.1-8.7-25-9.9c-7.9-0.9-15.4,1.1-20.6,4.9
				c-4.4-3.5-9.8-6.2-15.9-8v237h88.7c7.3,0,13.2-5.9,13.2-13.2v-14.1c0-8.7,2.2-17.3,6.4-24.9c3.5-6.3,6.1-13,7.9-20
				c1.8-6.9,2.7-14.1,2.7-21.3V315.3C473.6,299.3,458,285.6,436.8,283.1L436.8,283.1z"/>
			
				<linearGradient id="SVGID_17_" gradientUnits="userSpaceOnUse" x1="381.3393" y1="214.7482" x2="364.9243" y2="232.3372" gradientTransform="matrix(1 0 0 -1 0 511.76)">
				<stop  offset="0" style="stop-color:#F89580;stop-opacity:0"/>
				<stop  offset="0.2622" style="stop-color:#F3917C;stop-opacity:0.263"/>
				<stop  offset="0.5812" style="stop-color:#E48671;stop-opacity:0.583"/>
				<stop  offset="0.9283" style="stop-color:#CB755E;stop-opacity:0.931"/>
				<stop  offset="0.9972" style="stop-color:#C5715A"/>
			</linearGradient>
			<path class="st16" d="M427.9,310.3v34.6h-45.7v-39.6c0-8-3.9-15.5-10.5-21.2c-0.4-0.4-0.9-0.8-1.3-1.1c5.3-3.8,12.8-5.8,20.6-4.9
				c10.6,1.2,19.8,5.2,26.4,11C424,294.8,427.9,302.3,427.9,310.3L427.9,310.3z"/>
			
				<linearGradient id="SVGID_18_" gradientUnits="userSpaceOnUse" x1="427.993" y1="209.8419" x2="408.1349" y2="229.7" gradientTransform="matrix(1 0 0 -1 0 511.76)">
				<stop  offset="0" style="stop-color:#F89580;stop-opacity:0"/>
				<stop  offset="0.2622" style="stop-color:#F3917C;stop-opacity:0.263"/>
				<stop  offset="0.5812" style="stop-color:#E48671;stop-opacity:0.583"/>
				<stop  offset="0.9283" style="stop-color:#CB755E;stop-opacity:0.931"/>
				<stop  offset="0.9972" style="stop-color:#C5715A"/>
			</linearGradient>
			<path class="st17" d="M473.6,315.3v29.6h-45.6v-34.6c0-8.6-4.4-16.4-11.8-22.3c5.3-3.8,12.8-5.8,20.6-4.9
				C458,285.6,473.6,299.2,473.6,315.3L473.6,315.3z"/>
			
				<linearGradient id="SVGID_19_" gradientUnits="userSpaceOnUse" x1="333.6293" y1="207.5253" x2="294.2323" y2="244.1093" gradientTransform="matrix(1 0 0 -1 0 511.76)">
				<stop  offset="0" style="stop-color:#F89580;stop-opacity:0"/>
				<stop  offset="0.2622" style="stop-color:#F3917C;stop-opacity:0.263"/>
				<stop  offset="0.5812" style="stop-color:#E48671;stop-opacity:0.583"/>
				<stop  offset="0.9283" style="stop-color:#CB755E;stop-opacity:0.931"/>
				<stop  offset="0.9972" style="stop-color:#C5715A"/>
			</linearGradient>
			<path class="st18" d="M345.5,273.1c-13.4-1.5-25.7,5.4-27.9,15l0,0.2c0,0,0,0,0,0v56.5h64.7v-39.6
				C382.3,289.2,366.6,275.6,345.5,273.1L345.5,273.1z"/>
			
				<linearGradient id="SVGID_20_" gradientUnits="userSpaceOnUse" x1="243.8249" y1="129.2654" x2="263.3589" y2="154.8093" gradientTransform="matrix(1 0 0 -1 0 511.76)">
				<stop  offset="0" style="stop-color:#F89580;stop-opacity:0"/>
				<stop  offset="0.2622" style="stop-color:#F3917C;stop-opacity:0.263"/>
				<stop  offset="0.5812" style="stop-color:#E48671;stop-opacity:0.583"/>
				<stop  offset="0.9283" style="stop-color:#CB755E;stop-opacity:0.931"/>
				<stop  offset="0.9972" style="stop-color:#C5715A"/>
			</linearGradient>
			<path class="st19" d="M267.1,371.1L267.1,371.1l-8.1-5.6c-11.4-7.2-23.1-13.8-35.3-19.7c-11.6-5.6-25.5-0.6-30.8,11.2
				c-0.6,1.4-1.1,2.7-1.4,4.1c-2.3,9.6,1.9,19.9,10.7,25.1c2.2,1.3,4.7,2.8,7.3,4.6c22.3,14.7,41.7,33.2,57.6,54.5L267.1,371.1
				L267.1,371.1z"/>
			
				<linearGradient id="SVGID_21_" gradientUnits="userSpaceOnUse" x1="301.651" y1="248.0471" x2="345.269" y2="257.8961" gradientTransform="matrix(1 0 0 -1 0 511.76)">
				<stop  offset="0" style="stop-color:#F89580;stop-opacity:0"/>
				<stop  offset="0.2622" style="stop-color:#F3917C;stop-opacity:0.263"/>
				<stop  offset="0.5812" style="stop-color:#E48671;stop-opacity:0.583"/>
				<stop  offset="0.9283" style="stop-color:#CB755E;stop-opacity:0.931"/>
				<stop  offset="0.9972" style="stop-color:#C5715A"/>
			</linearGradient>
			<path class="st20" d="M317.6,206.2v138.7h-50.4V206c0-13.3,12-24.2,25.2-24.5C305.9,181.2,317.3,192.6,317.6,206.2L317.6,206.2z"
				/>
			
				<linearGradient id="SVGID_22_" gradientUnits="userSpaceOnUse" x1="356.0795" y1="31.134" x2="356.0795" y2="-4.478" gradientTransform="matrix(1 0 0 -1 0 511.76)">
				<stop  offset="0" style="stop-color:#F89580;stop-opacity:0"/>
				<stop  offset="0.2622" style="stop-color:#F3917C;stop-opacity:0.263"/>
				<stop  offset="0.5812" style="stop-color:#E48671;stop-opacity:0.583"/>
				<stop  offset="0.9283" style="stop-color:#CB755E;stop-opacity:0.931"/>
				<stop  offset="0.9972" style="stop-color:#C5715A"/>
			</linearGradient>
			<path class="st21" d="M238.6,413.5c6.4,5.9,12.5,12.2,18.2,18.8c16,18.5,24.7,42.2,24.7,66.6c0,7.3,5.9,13.1,13.2,13.1h148.7
				c7.3,0,13.2-5.9,13.2-13.2v-14.1c0-8.7,2.2-17.3,6.4-24.9c3.5-6.3,6.1-13,7.9-20c1.8-6.9,2.7-14.1,2.7-21.3v-5L238.6,413.5
				L238.6,413.5z"/>
		</g>
	</g>
</g>
<g>
	<path d="M120.2,33c1.9,0,3.5,0.9,4.8,2.7c0.8,0.9,1.7,4.5,2.7,10.6c1.8,10,3.6,21.1,5.4,33.3v0.2c0,2.5-1.2,4.3-3.6,5.5
		c-0.8,0.3-1.5,0.4-2.2,0.4c-2,0-3.6-1-4.9-2.9c-0.5-0.6-0.9-2.6-1.3-6c-1.3-8.5-2.3-14.8-3-18.8h-0.1c-0.2,0.5-1.5,3.8-4,10
		c-1.3,2.1-3,3.1-5.1,3.1c-2.5,0-4.4-1.5-5.9-4.6c-3-5.4-4.6-8.1-4.6-8.2h0c-1.2,15-1.9,22.9-2,23.6c-0.5,1.7-1.4,2.9-2.7,3.6
		c-1,0.5-2,0.8-2.9,0.8c-2.1,0-3.9-1.1-5.1-3.2c-0.4-0.9-0.6-1.7-0.6-2.6c0.1-1.3,1.2-15.4,3.5-42.4c0.5-1.7,1.2-2.9,2.3-3.7
		c1-0.8,2.2-1.1,3.4-1.1c2.5,0,4.4,1.5,5.8,4.4l8,14.2h0c3.1-7.7,5.3-12.8,6.7-15.4C116.2,34.1,118,33,120.2,33z"/>
	<path d="M169.2,33c1.9,0,3.5,0.9,4.8,2.7c0.4,0.6,0.8,1.6,1,3c-0.5,18.5-0.9,27.7-1.1,27.7c0,0.7-0.4,2.6-1.2,5.7
		c-0.6,1.7-1.3,3.3-2.1,4.8c-0.6,1.2-1.7,2.6-3.1,4.2c-1.7,1.7-3,2.7-3.9,3.1c-2.6,1.4-4.9,2.2-7.1,2.2h-1.4c-2.5,0-5.2-0.9-8.1-2.7
		c-7.2-5.2-10.8-14.1-10.8-26.8v-2.3c0-4-0.1-8.7-0.3-14.2c0-1.9,0.9-3.5,2.7-4.8c1-0.6,2-0.9,3.1-0.9c1.9,0,3.5,0.9,4.8,2.7
		c0.7,0.8,1,2.6,1,5.6c0.2,3.3,0.3,7.1,0.3,11.4v2c0,8.6,1.7,14.4,5.2,17.4c0.9,0.7,1.8,1.1,2.7,1.1h0.4c1.4,0,2.8-1.1,4.2-3.3
		c0.6-1.1,1.2-2.3,1.6-3.7c0.5-2.1,0.8-4.8,0.8-8.1c0.3-7.2,0.6-14.3,0.7-21.4c0.1-0.9,0.4-1.8,1-2.8C165.7,33.8,167.3,33,169.2,33z
		"/>
	<path d="M186.8,33c2.1,0,3.9,1.1,5.1,3.2c0.4,0.9,0.6,1.7,0.6,2.6v35.8l20.2-0.5c1,0,2.2,0.5,3.4,1.4c1.4,1.3,2.1,2.7,2.1,4.4
		c0,2-0.9,3.6-2.8,4.8c-0.7,0.6-2.3,0.9-4.8,0.9c-14.1,0.3-22.1,0.5-23.9,0.5c-2,0-3.6-1-4.9-2.9c-0.5-0.9-0.8-1.9-0.8-3V38.8
		c0-2.5,1.2-4.3,3.6-5.5C185.5,33.1,186.2,33,186.8,33z"/>
	<path d="M212.6,33c23.4,0.4,35,0.6,35,0.7c1.6,0.4,2.8,1.2,3.6,2.2c0.7,1.1,1.1,2.3,1.1,3.4c0,2.1-1,3.7-3,5
		c-1,0.5-1.8,0.7-2.6,0.7c-6.8-0.1-10.6-0.2-11.4-0.2v35.5c0,2.5-1.2,4.3-3.6,5.5c-0.8,0.3-1.5,0.4-2.2,0.4c-2.1,0-3.9-1.1-5.1-3.2
		c-0.4-0.9-0.6-1.7-0.6-2.6V44.6c-8.3-0.1-12.5-0.2-12.5-0.4c-1.6-0.5-2.7-1.3-3.4-2.5c-0.6-1-0.9-2-0.9-3.1c0-2.1,1-3.7,3-5
		C210.8,33.2,211.7,33,212.6,33z"/>
	<path d="M260.8,33.5c2.1,0,3.8,1.1,5.1,3.3c0.4,0.9,0.6,1.8,0.6,2.7v40.8c0,2.4-1.1,4.2-3.4,5.3c-0.8,0.4-1.6,0.5-2.4,0.5
		c-2,0-3.6-1-4.9-2.9c-0.5-0.9-0.8-1.9-0.8-3V39.4c0-2.4,1.2-4.2,3.6-5.4C259.4,33.7,260.2,33.5,260.8,33.5z"/>
	<path d="M293.5,33c23.4,0.4,35,0.6,35,0.7c1.6,0.4,2.8,1.2,3.6,2.2c0.7,1.1,1.1,2.3,1.1,3.4c0,2.1-1,3.7-3,5
		c-1,0.5-1.8,0.7-2.6,0.7c-6.8-0.1-10.6-0.2-11.4-0.2v35.5c0,2.5-1.2,4.3-3.6,5.5c-0.8,0.3-1.5,0.4-2.2,0.4c-2.1,0-3.9-1.1-5.1-3.2
		c-0.4-0.9-0.6-1.7-0.6-2.6V44.6c-8.3-0.1-12.5-0.2-12.5-0.4c-1.6-0.5-2.7-1.3-3.4-2.5c-0.6-1-0.9-2-0.9-3.1c0-2.1,1-3.7,3-5
		C291.7,33.2,292.6,33,293.5,33z"/>
	<path d="M345.2,33.1L345.2,33.1c3.5,0,6.3,2.7,8.2,8.1c2.8,7.2,6.1,18.9,9.9,35.3c0.5,2,0.8,3.3,0.8,4c0,2.1-1.1,3.8-3.3,5.1
		c-0.9,0.4-1.7,0.6-2.5,0.6c-2,0-3.7-1-5-3c-0.3-0.4-0.9-2.5-1.7-6.4c-0.5-2-0.7-2.9-0.8-2.9h-0.1c-0.9,0-5,0.2-12.5,0.6
		c-0.1,0.1-0.8,2.4-2,7c-0.5,1.4-1.4,2.4-2.7,3.2c-0.9,0.5-1.8,0.7-2.7,0.7c-1.9,0-3.5-0.9-4.8-2.7c-0.6-1-0.9-2-0.9-3.1
		c0-1.4,2.4-10.1,7.3-26.3c2.8-8.8,5.2-14.5,7.2-17.3C341.2,34.1,343.1,33.1,345.2,33.1z M341.5,62.7c0,0.1,0,0.1,0,0.1
		c3.5-0.2,5.6-0.3,6.4-0.3c0,0,0-0.1,0-0.1c-1.1-4.1-2.1-7.6-2.9-10.3h0c-0.1,0-1,2.7-2.7,8.1C341.9,61.7,341.6,62.5,341.5,62.7z"/>
	<path d="M381.4,33h1.1c6,0,10.9,1.6,14.9,4.8c4.1,3.7,6.1,8.4,6.1,14.2v0.3c0,6.3-2.8,11.1-8.3,14.5c-3.7,2-8.2,3-13.5,3h0
		c-1.1,0-2,0-2.9-0.1v0c0,3.9,0.2,7.5,0.5,10.8c0,2-1,3.6-2.9,4.9c-1,0.5-1.9,0.8-2.9,0.8c-2.2,0-3.9-1.1-5.2-3.3
		c-0.6-1.3-0.9-3.3-0.9-5.8c-0.3-4.4-0.5-16.9-0.7-37.5c0-1.2,0.5-2.4,1.6-3.7c1-1,2-1.6,2.8-1.7C374.9,33.4,378.3,33,381.4,33z
		 M378.3,44.7l0.1,12.9l0,0.5c1,0.1,2,0.2,3.2,0.2c5.4-0.1,8.7-1.3,9.8-3.6c0.3-0.7,0.5-1.6,0.5-2.6c0-3.4-1.2-5.6-3.6-6.6
		c-1.6-0.7-3.7-1.1-6.4-1.1h-0.1C379.6,44.5,378.5,44.6,378.3,44.7z"/>
</g>
</svg>
