<?xml version="1.0" encoding="utf-8"?>
<!-- Generator: Adobe Illustrator 25.2.1, SVG Export Plug-In . SVG Version: 6.00 Build 0)  -->
<svg version="1.1" id="Capa_1" xmlns="http://www.w3.org/2000/svg" xmlns:xlink="http://www.w3.org/1999/xlink" x="0px" y="0px"
	 viewBox="0 0 512 512" style="enable-background:new 0 0 512 512;" xml:space="preserve">
<style type="text/css">
	.st0{fill:url(#SVGID_1_);}
	.st1{fill:url(#SVGID_2_);}
	.st2{fill:url(#SVGID_3_);}
</style>
<g>
	
		<linearGradient id="SVGID_1_" gradientUnits="userSpaceOnUse" x1="160.4845" y1="352.0993" x2="391.3045" y2="121.2793" gradientTransform="matrix(1.0039 0 0 -1.0039 5.098116e-02 514.6454)">
		<stop  offset="0" style="stop-color:#FEE97D"/>
		<stop  offset="1" style="stop-color:#FAC600"/>
	</linearGradient>
	<path class="st0" d="M394.2,220.4h-69.2c-12,0-21.8-9.8-21.8-21.8V21.8c0-21.6-28.1-30.1-40-12l-163.7,248
		c-9.6,14.5,0.8,33.8,18.2,33.8h69.2c12,0,21.8,9.8,21.8,21.8v176.7c0,21.6,28.1,30.1,40,12l163.7-248
		C422,239.7,411.6,220.4,394.2,220.4L394.2,220.4z"/>
	
		<linearGradient id="SVGID_2_" gradientUnits="userSpaceOnUse" x1="351.9522" y1="256.7545" x2="117.7432" y2="256.7545" gradientTransform="matrix(1.0039 0 0 -1.0039 5.098116e-02 514.6454)">
		<stop  offset="0" style="stop-color:#FAC600;stop-opacity:0"/>
		<stop  offset="0.6899" style="stop-color:#D68C3D;stop-opacity:0.69"/>
		<stop  offset="1" style="stop-color:#C5715A"/>
	</linearGradient>
	<path class="st1" d="M412.4,254.2l-163.7,248c-6.3,9.5-17.1,11.7-25.9,8.4l68.6-212.2c5.8-17.9-7.6-36.3-26.4-36.3h-18.6
		c-18.7,0-32.1-18.1-26.5-36l70-224.3c7.5,3.1,13.3,10.2,13.3,20.1v176.7c0,12,9.8,21.8,21.8,21.8h69.2
		C411.6,220.4,422,239.7,412.4,254.2L412.4,254.2z"/>
	
		<linearGradient id="SVGID_3_" gradientUnits="userSpaceOnUse" x1="273.1607" y1="111.531" x2="273.1607" y2="11.893" gradientTransform="matrix(1.0039 0 0 -1.0039 5.098116e-02 514.6454)">
		<stop  offset="0" style="stop-color:#FAC600;stop-opacity:0"/>
		<stop  offset="0.6899" style="stop-color:#D68C3D;stop-opacity:0.69"/>
		<stop  offset="1" style="stop-color:#C5715A"/>
	</linearGradient>
	<path class="st2" d="M208.7,364.2v126c0,21.6,28.1,30.1,40,12l91.1-138H208.7z"/>
</g>
</svg>
