<svg width="192" height="192" xmlns="http://www.w3.org/2000/svg" xmlns:xlink="http://www.w3.org/1999/xlink" xml:space="preserve" overflow="hidden"><g transform="translate(-1058 -118)"><path d="M1141.2 268.4 1166.8 268.4 1166.8 278 1141.2 278Z" fill="#FFFFFF"/><path d="M1154 245.078C1153.66 243.59 1153.3 242.058 1152.93 240.467 1147.59 220.335 1144.72 199.626 1144.4 178.8 1144.4 144.928 1150.66 125.421 1153.93 124.4L1153.96 124.4C1157.33 125.405 1163.6 144.915 1163.6 178.8 1163.28 199.626 1160.41 220.335 1155.07 240.467 1154.7 242.058 1154.34 243.59 1154 245.078Z" fill="#FFFFFF"/><path d="M1145.44 125.811C1139.75 138.182 1138 162.541 1138 178.8 1138.35 200.116 1141.27 221.312 1146.69 241.93 1148.43 248.53 1149.74 255.234 1150.62 262L1145.68 262C1143.49 248.682 1137.49 238.378 1131.63 228.432 1123.75 215.066 1115.6 201.245 1115.6 178.8 1115.6 152.976 1128.38 131.344 1145.44 125.811Z" fill="#FFFFFF"/><path d="M1157.38 262C1158.26 255.234 1159.57 248.53 1161.31 241.93 1166.73 221.312 1169.65 200.116 1170 178.8 1170 162.541 1168.25 138.182 1162.56 125.811 1179.62 131.344 1192.4 152.976 1192.4 178.8 1192.4 201.245 1184.25 215.066 1176.37 228.432 1170.51 238.378 1164.51 248.682 1162.32 262Z" fill="#FFFFFF"/><path d="M1133.49 259.738C1129.54 247.29 1120.52 237.523 1111.8 228.058 1099.51 214.746 1086.8 200.97 1086.8 178.8 1086.8 155.942 1104.33 136.371 1129.04 128.33 1117.09 139.258 1109.2 157.802 1109.2 178.8 1109.2 202.989 1117.8 217.574 1126.11 231.68 1131.76 241.254 1137.08 250.374 1139.2 262L1136.52 262C1135.12 261.989 1133.9 261.073 1133.49 259.738Z" fill="#FFFFFF"/><path d="M1170 297.2C1170 300.735 1167.14 303.6 1163.6 303.6L1144.4 303.6C1140.86 303.6 1138 300.735 1138 297.2L1138 284.4 1170 284.4Z" fill="#FFFFFF"/><path d="M1196.2 228.08C1187.48 237.533 1178.46 247.299 1174.51 259.76 1174.1 261.095 1172.88 262.011 1171.48 262.022L1168.8 262.022C1170.92 250.397 1176.24 241.277 1181.89 231.702 1190.2 217.574 1198.8 202.989 1198.8 178.8 1198.8 157.802 1190.91 139.258 1178.96 128.33 1203.67 136.371 1221.2 155.942 1221.2 178.8 1221.2 200.97 1208.49 214.746 1196.2 228.08Z" fill="#FFFFFF"/></g></svg>