<svg width="661" height="613" xmlns="http://www.w3.org/2000/svg" xmlns:xlink="http://www.w3.org/1999/xlink" xml:space="preserve" overflow="hidden"><g transform="translate(-2833 -531)"><path d="M3046.33 814.552C3059.04 787.824 3076.43 763.583 3097.56 742.947 3084.44 743.497 3070.91 743.776 3057.38 743.776 2969.15 743.776 2875.95 731.591 2833.56 705.552L2833.56 767.458C2833.56 782.97 2908.67 813.024 3046.33 814.552Z" fill="#777777" fill-rule="evenodd"/><path d="M3023.54 908.552C3024.79 884.498 3029.37 860.723 3037.56 837.926 2955.82 836.118 2872.97 823.746 2833.56 799.552L2833.56 861.84C2833.42 876.159 2898.78 903.969 3023.54 908.552Z" fill="#777777" fill-rule="evenodd"/><path d="M3036.56 1002.56C3028.54 979.775 3023.85 956.033 3022.74 931.886 2960.83 929.55 2874.6 919.258 2833.56 894.556L2833.56 956.033C2833.56 970.858 2905.14 999.677 3036.56 1002.56Z" fill="#777777" fill-rule="evenodd"/><path d="M3281.56 578.557C3281.56 604.517 3181.27 625.557 3057.56 625.557 2933.85 625.557 2833.56 604.517 2833.56 578.557 2833.56 552.596 2933.85 531.557 3057.56 531.557 3181.27 531.557 3281.56 552.596 3281.56 578.557Z" fill="#777777" fill-rule="evenodd"/><path d="M2833.56 988.556 2833.56 1050.45C2833.56 1066.47 2912.47 1097.56 3057.21 1097.56 3070.31 1097.56 3083.01 1097.28 3095.56 1096.72 3075.14 1076.42 3058.44 1052.79 3046.17 1026.83 2961.73 1025.86 2874.26 1013.56 2833.56 988.556Z" fill="#777777" fill-rule="evenodd"/><path d="M3057.56 720.556C3082.15 720.556 3106.06 719.586 3128.87 717.655 3170.18 688.78 3219.38 673.307 3269.81 673.307 3273.81 673.307 3277.69 673.723 3281.56 673.861L3281.56 611.556C3239.14 637.531 3145.86 649.687 3057.56 649.687 2969.26 649.687 2875.98 637.67 2833.56 611.556L2833.56 673.307C2833.56 689.334 2912.6 720.556 3057.56 720.556Z" fill="#777777" fill-rule="evenodd"/><path d="M3269.56 696.554C3145.88 696.554 3045.56 796.656 3045.56 920.054 3045.56 1043.45 3145.88 1143.55 3269.56 1143.55 3393.24 1143.55 3493.56 1043.45 3493.56 920.054 3493.42 796.656 3393.24 696.693 3269.56 696.554ZM3269.56 1120.12C3158.88 1120.12 3069.05 1030.64 3069.05 920.054 3069.05 809.473 3158.74 719.989 3269.56 719.989 3380.38 719.989 3470.06 809.473 3470.06 920.054 3469.92 1030.5 3380.24 1119.98 3269.56 1120.12Z" fill="#777777" fill-rule="evenodd"/><path d="M3269.56 743.553C3171.79 743.553 3092.56 822.79 3092.56 920.553 3092.56 1018.32 3171.79 1097.55 3269.56 1097.55 3367.32 1097.55 3446.56 1018.32 3446.56 920.553 3446.42 822.929 3367.32 743.692 3269.56 743.553Z" fill="#777777" fill-rule="evenodd"/><path d="M3208.66 890.783C3207.63 889.577 3206.42 888.531 3205.56 887.326 3195.05 874.032 3187.47 858.5 3183.34 841.924 3180.58 830.185 3179.72 817.936 3180.92 805.849 3181.27 799.456 3182.99 793.078 3185.92 787.557 3188.16 783.751 3190.91 782.545 3195.05 784.099 3203.15 787.034 3209.01 793.078 3214 799.805 3225.54 815.511 3233.29 833.816 3236.56 853.154 3237.59 859.197 3237.76 865.402 3238.29 871.62 3238.46 874.032 3238.62 876.283 3238.8 878.695 3238.97 880.598 3239.83 881.63 3242.07 881.282 3250.34 880.076 3258.61 880.598 3266.53 883.01 3273.42 884.739 3280.31 887.151 3286.85 890.086 3296.33 894.227 3305.11 899.587 3311.83 907.869 3312.53 908.901 3314.07 909.249 3315.1 908.566 3315.27 908.392 3315.45 908.217 3315.62 908.043 3317.34 906.489 3318.89 904.76 3320.45 903.031 3335.95 884.913 3356.09 871.794 3378.67 865.576 3385.9 863.164 3393.47 862.467 3400.88 863.338 3404.15 863.847 3407.42 864.892 3410.53 866.273 3411.9 867.305 3412.77 868.685 3412.93 870.414 3413.11 872.652 3412.93 874.903 3412.25 876.966 3409.49 886.294 3403.8 893.892 3397.61 901.142 3381.24 920.305 3360.57 931.347 3336.63 936.52 3334.91 936.868 3333.18 937.042 3331.12 937.216 3331.47 938.771 3331.64 939.977 3331.98 941.183 3334.74 949.639 3334.91 958.282 3334.91 967.087 3334.74 977.432 3333.02 987.617 3329.91 997.292 3326.47 1008.51 3320.96 1019.04 3313.73 1028.36 3306.67 1037.33 3297.36 1042.35 3286.68 1045.11 3279.11 1047.18 3271.36 1047.87 3263.61 1047.18 3256.02 1046.31 3248.45 1044.76 3241.04 1042.87 3233.29 1040.62 3225.71 1038.03 3218.3 1034.75 3206.25 1029.57 3194.53 1023.88 3184.89 1014.38 3175.24 1004.89 3167.14 994.009 3165.43 979.858 3164.73 973.466 3164.91 967.087 3165.76 960.695 3166.81 952.239 3169.05 944.118 3172.32 936.359 3177.13 924.097 3184.37 913.055 3193.5 903.728 3197.8 899.587 3202.8 895.956 3207.28 891.989L3208.66 890.783ZM3216.41 985.03 3216.23 985.727C3207.8 985.03 3206.07 991.248 3207.45 997.466 3207.63 998.498 3207.96 999.53 3208.31 1000.4 3210.9 1007.3 3214 1013.86 3221.06 1017.31 3227.09 1020.6 3233.64 1023.01 3240.18 1024.74 3242.94 1025.59 3245.86 1025.94 3248.8 1025.94 3255.51 1025.59 3261.37 1022.33 3266.71 1018.01 3271.01 1014.55 3271.53 1009.21 3267.22 1005.75 3263.44 1002.64 3259.29 1000.05 3254.82 997.976 3247.59 994.706 3240 991.932 3232.6 989.346 3227.25 987.617 3221.74 986.411 3216.41 985.03L3216.41 985.03ZM3209.52 918.576C3209.52 912.706 3207.28 909.772 3203.31 908.901 3199.36 907.869 3196.6 909.946 3194.36 912.706 3185.75 923.574 3179.38 936.185 3175.42 949.639 3174.89 951.89 3174.73 954.128 3175.07 956.379 3175.42 959.489 3177.65 962.075 3180.58 962.598 3183.34 963.281 3186.26 962.249 3187.99 959.663 3191.09 955.348 3194.02 950.859 3196.6 946.195 3199.87 940.151 3202.98 933.933 3206.07 927.715 3207.45 924.62 3208.66 921.685 3209.52 918.576ZM3328.53 966.564C3328.37 964.152 3328.02 961.727 3327.5 959.14 3326.29 954.825 3321.99 952.239 3317.86 953.445 3317.51 953.445 3317.34 953.619 3317 953.793 3313.56 955.174 3312.18 958.282 3311.48 961.378 3308.91 972.608 3306.32 983.824 3304.08 995.215 3303.4 998.673 3303.4 1002.29 3303.91 1005.75 3304.76 1010.76 3310.11 1012.65 3314.42 1010.24 3317 1008.68 3318.89 1005.92 3319.75 1002.99 3321.82 996.595 3323.89 990.216 3325.26 983.824 3326.99 977.781 3327.67 971.737 3328.53 966.564Z" fill="#282B30" fill-rule="evenodd"/></g></svg>