<svg xmlns="http://www.w3.org/2000/svg" xmlns:xlink="http://www.w3.org/1999/xlink" viewBox="0 0 110.12381 110.99106">
  <defs>
    <linearGradient id="_15" data-name="  15" x1="175.11299" y1="73.00205" x2="175.11299" y2="149.3975" gradientUnits="userSpaceOnUse">
      <stop offset="0.02235" stop-color="#5a4153"/>
      <stop offset="0.94852" stop-color="#3e2645"/>
    </linearGradient>
    <linearGradient id="_16" data-name="  16" x1="203.98277" y1="97.88845" x2="215.2009" y2="97.88845" gradientUnits="userSpaceOnUse">
      <stop offset="0" stop-color="#3b2d87"/>
      <stop offset="1" stop-color="#a638d0"/>
    </linearGradient>
    <linearGradient id="_144" data-name="  144" x1="174.92061" y1="135.36153" x2="203.87261" y2="135.36153" gradientUnits="userSpaceOnUse">
      <stop offset="0" stop-color="#961f63"/>
      <stop offset="1" stop-color="#ea7052"/>
    </linearGradient>
    <linearGradient id="_15-2" x1="175.2158" y1="59.2229" x2="175.2158" y2="133.6633" xlink:href="#_15"/>
    <linearGradient id="_105" data-name="  105" x1="190.4271" y1="78.0197" x2="190.4271" y2="59.7752" gradientUnits="userSpaceOnUse">
      <stop offset="0" stop-color="#662d87"/>
      <stop offset="1" stop-color="#d01c5c"/>
    </linearGradient>
    <linearGradient id="_2" data-name="  2" x1="175.2041" y1="105.011" x2="206.228" y2="105.011" gradientUnits="userSpaceOnUse">
      <stop offset="0" stop-color="#a3849f"/>
      <stop offset="1" stop-color="#9a95a5"/>
    </linearGradient>
    <clipPath id="clip-path" transform="translate(-119.9822 -38.40644)">
      <path id="SVGID" d="M214.10589,73.6309c-.6324-.6768-1.3212-1.3402-1.99889-1.9848-.09211-.0876-.18791-.1761-.28781-.2683a84.40082,84.40082,0,0,0-10.0154-7.7397,10.37036,10.37036,0,0,1-2.8932-1.3719A11.87255,11.87255,0,0,1,196.6341,60.54l-.002-.002a97.7751,97.7751,0,0,0-19.6301-8.0748c-.0526-.0145-.1069-.03-.1615-.0446-.7744-.2071-1.3017-.3472-1.5127-.3974-.0212-.004-.0425-.0101-.0638-.0141l-.0426-.012-.017.004c-.0107.002-.0299.006-.0511.012-13.9779,3.4411-27.9895,10.6656-38.1269,20.8956q-.3624.3657-.721.7411l.0207.1565c.0485.3916.1952,1.5053.4296,3.1472l.0053.0353c1.0336,7.2087,2.2358,14.4035,3.7349,21.5306,1.5532,7.3842,3.0507,15.7459,7.0156,22.1119,3.3278,5.3432,10.2574,9.3411,15.3887,12.9198,4.0298,2.8104,8.1286,5.5299,12.303,8.1217,4.1751-2.593,8.2746-5.3131,12.3055-8.1244,5.1226-3.5727,12.07139-7.5931,15.3913-12.9205,3.97009-6.371,5.47359-14.7165,7.02539-22.1075,1.4963-7.1269,2.7078-14.3177,3.7451-21.525l.0052-.0352c.2354-1.6416.3826-2.7549.4317-3.1465l.02061-.1564Zm-10.677,18.1221c-1.3716,8.0149-2.4962,17.5518-6.66089,24.8065-3.2101,3.9417-7.973,6.8819-12.0703,9.7143-3.0973,2.1413-6.2855,4.2243-9.4936,6.2395-3.2107-2.0072-6.3942-4.0973-9.4899-6.2379-4.0665-2.8119-8.88-5.7815-12.0675-9.7138-4.1643-7.2482-5.2849-16.801-6.6513-24.8105-.8453-4.9546-1.5735-9.974-2.2003-14.985a74.37789,74.37789,0,0,1,30.4237-16.5036,74.54277,74.54277,0,0,1,30.41749,16.5086C205.00709,81.7811,204.27669,86.7998,203.42889,91.753Z" fill="#71647e"/>
    </clipPath>
    <linearGradient id="_2-2" x1="-10115.88008" y1="-3221.31725" x2="-10093.10467" y2="-3221.31725" gradientTransform="matrix(-0.0245, -0.9997, 0.9997, -0.0245, 3115.5649, -10077.4777)" xlink:href="#_2"/>
    <linearGradient id="_2-3" x1="-10063.397" y1="-3129.84134" x2="-10075.86251" y2="-3239.32956" gradientTransform="matrix(-0.0245, -0.9997, 0.9997, -0.0245, 3115.5649, -10077.4777)" xlink:href="#_2"/>
    <linearGradient id="_2-4" x1="-10121.10723" y1="-3123.26622" x2="-10133.57303" y2="-3232.75697" gradientTransform="matrix(-0.0245, -0.9997, 0.9997, -0.0245, 3115.5649, -10077.4777)" xlink:href="#_2"/>
    <linearGradient id="_2-5" x1="-10104.05543" y1="-3125.21147" x2="-10116.52" y2="-3234.69146" gradientTransform="matrix(-0.0245, -0.9997, 0.9997, -0.0245, 3115.5649, -10077.4777)" xlink:href="#_2"/>
    <linearGradient id="_2-6" x1="-10082.62644" y1="-3127.11332" x2="-10095.31004" y2="-3238.5171" gradientTransform="matrix(-0.0245, -0.9997, 0.9997, -0.0245, 3115.5649, -10077.4777)" xlink:href="#_2"/>
    <linearGradient id="_2-7" x1="-10057.67857" y1="-3130.49025" x2="-10070.14435" y2="-3239.98088" gradientTransform="matrix(-0.0245, -0.9997, 0.9997, -0.0245, 3115.5649, -10077.4777)" xlink:href="#_2"/>
    <linearGradient id="_2-8" x1="136.98727" y1="68.0804" x2="175.77078" y2="68.0804" xlink:href="#_2"/>
    <linearGradient id="_16-2" x1="175.2157" y1="60.2625" x2="175.2157" y2="85.0947" xlink:href="#_16"/>
    <linearGradient id="_2-9" x1="143.25175" y1="63.05147" x2="166.0062" y2="63.05147" xlink:href="#_2"/>
    <linearGradient id="_144-2" x1="175.2167" y1="51.9951" x2="175.2167" y2="76.9934" xlink:href="#_144"/>
    <linearGradient id="_102" data-name="  102" x1="156.10194" y1="130.63949" x2="161.07127" y2="130.63949" gradientUnits="userSpaceOnUse">
      <stop offset="0" stop-color="#3e2b52"/>
      <stop offset="1" stop-color="#422457"/>
    </linearGradient>
    <linearGradient id="_105-2" x1="156.23304" y1="130.30113" x2="159.19191" y2="130.30113" xlink:href="#_105"/>
    <linearGradient id="_102-2" x1="196.37285" y1="62.65679" x2="201.80379" y2="62.65679" xlink:href="#_102"/>
    <linearGradient id="_105-3" x1="196.44648" y1="62.2602" x2="198.5394" y2="62.2602" xlink:href="#_105"/>
    <linearGradient id="_102-3" x1="158.15785" y1="94.9746" x2="192.06821" y2="94.9746" xlink:href="#_102"/>
    <linearGradient id="_1827" data-name="  1827" x1="175.11241" y1="79.3518" x2="175.11241" y2="109.98405" gradientUnits="userSpaceOnUse">
      <stop offset="0.02235" stop-color="#a98bc9"/>
      <stop offset="0.94852" stop-color="#72679e"/>
    </linearGradient>
    <linearGradient id="_1099" data-name="  1099" x1="159.0696" y1="92.2513" x2="175.0869" y2="92.2513" gradientUnits="userSpaceOnUse">
      <stop offset="0" stop-color="#95a8cf"/>
      <stop offset="1"/>
    </linearGradient>
    <linearGradient id="_105-4" x1="158.4871" y1="98.23048" x2="175.0869" y2="98.23048" xlink:href="#_105"/>
    <linearGradient id="_105-5" x1="-6.3474" y1="98.23048" x2="10.2524" y2="98.23048" gradientTransform="matrix(-1, 0, 0, 1, 185.3654, 0)" xlink:href="#_105"/>
    <linearGradient id="_105-6" x1="165.2485" y1="103.21205" x2="185.01521" y2="103.21205" xlink:href="#_105"/>
    <linearGradient id="_15-3" x1="279.76081" y1="1627.58929" x2="279.76081" y2="1614.7693" gradientTransform="matrix(0.6886, 0.7251, -0.7251, 0.6886, 1186.4999, -1193.4314)" xlink:href="#_15"/>
    <linearGradient id="_15-4" x1="2694.48492" y1="-915.12992" x2="2694.48492" y2="-927.94998" gradientTransform="matrix(-0.6886, 0.7251, 0.7251, 0.6886, 2669.8697, -1193.4314)" xlink:href="#_15"/>
  </defs>
  <g style="isolation: isolate">
    <g id="rank_icon" data-name="rank icon">
      <g>
        <g>
          <path d="M215.12269,85.3877c-3.2254,12.1261-5.56069,25.6703-11.1348,36.7339-3.3491,6.6475-10.53829,12.0557-16.14229,16.9178-4.114,3.5693-8.3217,7.0416-12.6431,10.3581-9.7682-7.4386-21.4347-15.6696-28.2496-26.0233h-.0019a12.75358,12.75358,0,0,1-.7243-1.2525c-5.5178-11.2202-7.9113-24.6161-11.1345-36.734a41.58947,41.58947,0,0,1,1.2132-11.7399q38.9076-1.29435,77.8226.0075A45.66187,45.66187,0,0,1,215.12269,85.3877Z" transform="translate(-119.9822 -38.40644)" fill="url(#_15)"/>
          <path d="M215.12269,85.3877c-3.2254,12.1261-5.6503,25.4024-11.1348,36.7339-.1433-8.3915,2.749-17.5363,4.5444-25.6583q2.5344-11.4657,5.59571-22.808A45.66187,45.66187,0,0,1,215.12269,85.3877Z" transform="translate(-119.9822 -38.40644)" opacity="0.5" fill="url(#_16)" style="mix-blend-mode: multiply"/>
          <path d="M175.2034,149.3969c-.4026-.1776-.7396-10.2432,1.7009-13.1926,3.1633-3.8228,9.3163-6.7483,13.9972-9.4808,2.0702-1.2084,12.43639-6.6552,12.9385-5.1301.44779,1.3598-3.83551,6.0994-5.56011,7.8868-3.08119,3.1936-6.82879,6.359-10.14279,9.3073C183.5259,142.8901,175.2034,149.3969,175.2034,149.3969Z" transform="translate(-119.9822 -38.40644)" opacity="0.5" fill="url(#_144)" style="mix-blend-mode: multiply"/>
          <path d="M146.9529,123.3742h-.0019a12.75358,12.75358,0,0,1-.7243-1.2525c-5.5178-11.2202-7.9113-24.6161-11.1345-36.734a41.58947,41.58947,0,0,1,1.2132-11.7399c1.377-.0477,2.0657-.0704,3.4427-.1137C141.7039,90.0416,142.7549,107.25,146.9529,123.3742Z" transform="translate(-119.9822 -38.40644)" fill="#fff" opacity="0.5" style="mix-blend-mode: soft-light"/>
          <path d="M206.34489,76.0363a89.39215,89.39215,0,0,0-8.282-6.5259l-.0058-.0041a80.71923,80.71923,0,0,0-20.82749-9.7311h-.0021c-.6483-.1902-1.2288-.3494-1.7346-.48-.1094-.029-.1642-.0434-.2737-.0723-.1088.0289-.163.0433-.2717.0723a75.19146,75.19146,0,0,0-30.8606,16.736c-.1411.1302-.2116.1954-.3525.3256.0248.1942.0371.2911.0618.4853.0606.4735.1267.9814.1981,1.5189.5991,4.5072,1.2718,9.0445,2.0436,13.5128,1.4077,8.1501,2.5916,17.8227,6.834,25.1939l.0197.032.0213.03c3.2046,4.078,8.1601,7.0834,12.3251,9.9867,1.5164,1.057,3.0363,2.0693,4.4443,2.9989q2.51715,1.66155,5.0766,3.2679c.1782.1122.2671.1683.4451.2801.1787-.112.2681-.168.447-.2802.0687-.0421.1377-.087.2082-.1322,3.1075-1.991,6.2758-4.0317,9.3143-6.1361,4.1732-2.8903,9.1237-5.8982,12.3281-9.9874l.0214-.03.0197-.0319c4.24249-7.3775,5.42769-17.0335,6.84169-25.1899.6864-3.9599,1.3-7.9707,1.84361-11.9694.15339-1.1277.29069-2.1557.40539-3.059.0254-.1942.0383-.2911.0638-.4851C206.55639,76.2317,206.48589,76.1667,206.34489,76.0363Zm-5.7908,15.3514c-1.2649,7.6537-2.33409,16.4853-6.03469,23.5068-3.1603,3.5169-7.4193,6.2175-11.2515,8.8536-2.6354,1.8127-5.3424,3.588-8.0634,5.3084-2.7198-1.7196-5.4253-3.4949-8.0597-5.3071-3.8314-2.6356-8.0653-5.3569-11.2491-8.8532-3.7053-7.0368-4.7605-15.8344-6.0253-23.5102-.7284-4.421-1.3631-8.9002-1.9037-13.3705a72.3339,72.3339,0,0,1,27.2512-14.6287A72.31559,72.31559,0,0,1,202.464,78.0197C201.91449,82.4886,201.28459,86.9676,200.55409,91.3877Z" transform="translate(-119.9822 -38.40644)" fill="url(#_15-2)"/>
          <path d="M202.464,78.0197c-.54951,4.4689-1.17941,8.9479-1.90991,13.368-1.2649,7.6537-2.33409,16.4853-6.03469,23.5068-2.9266,4.3319-7.0842,7.6872-11.2722,10.6165-2.6001,1.8186-5.3284,3.5897-8.0429,5.31-2.7135-1.7196-5.4403-3.4905-8.0394-5.3087-4.1905-2.931-8.3386-6.2845-11.2692-10.6161-3.3373-6.3476-4.3654-14.1578-5.6155-21.0878l-.0021-.002c-.1341-.7791-.2727-1.5875-.4077-2.4204-.7187-4.4344-1.3631-8.9002-1.9037-13.3705a54.27461,54.27461,0,0,1,4.9161-3.9131,74.39016,74.39016,0,0,1,19.2469-9.7742c1.1736-.3866,2.2172-.7005,3.0882-.9414a75.63907,75.63907,0,0,1,9.8181,3.5562A71.4979,71.4979,0,0,1,202.464,78.0197Z" transform="translate(-119.9822 -38.40644)" fill="#479dff"/>
          <path d="M205.63629,76.7711c-1.2729.4964-1.9074.7462-3.17229,1.2486a72.31559,72.31559,0,0,0-27.2461-14.6329c.0004-1.2496.0005-1.8745.0009-3.1243.8025-.196,1.2042-.2934,2.0087-.4873h.0021a80.71923,80.71923,0,0,1,20.82749,9.7311l.0058.0041Q201.87334,73.1158,205.63629,76.7711Z" transform="translate(-119.9822 -38.40644)" opacity="0.5" fill="url(#_105)" style="mix-blend-mode: multiply"/>
          <path d="M206.228,79.9062c-.54191,4.001-1.15711,8.0096-1.84361,11.9694-1.4141,8.1565-2.5992,17.8124-6.84169,25.1899l-.0197.0319-.0214.03c-3.2044,4.0892-8.1549,7.0969-12.3281,9.9874-3.0385,2.1044-6.1669,4.1539-9.3143,6.1361-.2618-.295-.3928-.4425-.6551-.7376.0001-.6765.0001-1.0149.0002-1.6916,2.7146-1.7201,5.4429-3.4913,8.0428-5.3099,4.1882-2.9295,8.3458-6.285,11.2723-10.6173,3.7006-7.0215,4.76989-15.8532,6.03469-23.5068.7304-4.4202,1.3604-8.8991,1.90991-13.368,1.26489-.5024,1.89939-.7522,3.17229-1.2486C205.87409,78.026,205.99239,78.653,206.228,79.9062Z" transform="translate(-119.9822 -38.40644)" opacity="0.8" fill="url(#_2)"/>
          <g>
            <path id="SVGID-2" data-name="SVGID" d="M214.10589,73.6309c-.6324-.6768-1.3212-1.3402-1.99889-1.9848-.09211-.0876-.18791-.1761-.28781-.2683a84.40082,84.40082,0,0,0-10.0154-7.7397,10.37036,10.37036,0,0,1-2.8932-1.3719A11.87255,11.87255,0,0,1,196.6341,60.54l-.002-.002a97.7751,97.7751,0,0,0-19.6301-8.0748c-.0526-.0145-.1069-.03-.1615-.0446-.7744-.2071-1.3017-.3472-1.5127-.3974-.0212-.004-.0425-.0101-.0638-.0141l-.0426-.012-.017.004c-.0107.002-.0299.006-.0511.012-13.9779,3.4411-27.9895,10.6656-38.1269,20.8956q-.3624.3657-.721.7411l.0207.1565c.0485.3916.1952,1.5053.4296,3.1472l.0053.0353c1.0336,7.2087,2.2358,14.4035,3.7349,21.5306,1.5532,7.3842,3.0507,15.7459,7.0156,22.1119,3.3278,5.3432,10.2574,9.3411,15.3887,12.9198,4.0298,2.8104,8.1286,5.5299,12.303,8.1217,4.1751-2.593,8.2746-5.3131,12.3055-8.1244,5.1226-3.5727,12.07139-7.5931,15.3913-12.9205,3.97009-6.371,5.47359-14.7165,7.02539-22.1075,1.4963-7.1269,2.7078-14.3177,3.7451-21.525l.0052-.0352c.2354-1.6416.3826-2.7549.4317-3.1465l.02061-.1564Zm-10.677,18.1221c-1.3716,8.0149-2.4962,17.5518-6.66089,24.8065-3.2101,3.9417-7.973,6.8819-12.0703,9.7143-3.0973,2.1413-6.2855,4.2243-9.4936,6.2395-3.2107-2.0072-6.3942-4.0973-9.4899-6.2379-4.0665-2.8119-8.88-5.7815-12.0675-9.7138-4.1643-7.2482-5.2849-16.801-6.6513-24.8105-.8453-4.9546-1.5735-9.974-2.2003-14.985a74.37789,74.37789,0,0,1,30.4237-16.5036,74.54277,74.54277,0,0,1,30.41749,16.5086C205.00709,81.7811,204.27669,86.7998,203.42889,91.753Z" transform="translate(-119.9822 -38.40644)" fill="#71647e"/>
            <g clip-path="url(#clip-path)">
              <g>
                <path d="M170.0922,55.9464c1.9559-.6155,1.3234-17.4652,1.3234-17.4652l1.3922.1055s-2.125,14.6042-1.2851,16.959c.8398,2.3548,20.1383-2.038,20.1383-2.038l-.8936,1.7143s-14.6004,1.1848-21.9198,2.0303c0,0-4.8218.4521-4.7765.8833.0825.7847-.547,17.297-.547,17.297l-1.0125-.0767s1.9121-12.4871.3992-17.0261c-.4803-1.441-18.8171-.2803-18.8171-.2803l.8361-.9549S165.8634,57.2772,170.0922,55.9464Z" transform="translate(-119.9822 -38.40644)" fill="#542c4a"/>
                <path d="M136.7346,84.1294c-.4446-1.9345-16.7524-2.6112-16.7524-2.6112l.2081-1.3353s13.9303,3.166,16.2668,2.5354c2.3365-.6305-.4284-19.5887-.4284-19.5887l1.586.9933s.0281,14.1795.2849,21.3071c0,0,.068,4.6875.4875,4.6767.7636-.0196,16.6495,1.849,16.6495,1.849l-.1514.9712s-11.9037-2.7989-16.3992-1.6857c-1.4272.3534-1.7078,18.1367-1.7078,18.1367l-.8576-.8798S137.6957,88.3117,136.7346,84.1294Z" transform="translate(-119.9822 -38.40644)" fill="#542c4a"/>
                <path d="M165.5995,129.6652c-1.7292.3974-2.3341,14.9751-2.3341,14.9751l-1.1936-.186s2.8301-12.4525,2.2664-14.541c-.5637-2.0886-17.5105.3829-17.5105.3829l.8879-1.4177s12.6752-.0251,19.0466-.2547c0,0,4.1902-.0608,4.1805-.4358-.0175-.6826,1.6529-14.8831,1.6529-14.8831l.8681.1353s-2.502,10.6408-1.5068,14.6595c.3159,1.2757,21.3266,2.2014,21.3266,2.2014l-1.2153.8808S169.3381,128.8061,165.5995,129.6652Z" transform="translate(-119.9822 -38.40644)" fill="#542c4a"/>
                <path d="M192.9411,65.114c-1.3006.2989-1.7556,11.2639-1.7556,11.2639l-.8979-.14s2.1288-9.3664,1.7048-10.9374-13.1709.2881-13.1709.2881l-2.5472-.6929s12.7489-.3924,17.5414-.5651c0,0,3.1517-.0457,3.1444-.3278-.0132-.5134,1.24329-11.1947,1.24329-11.1947l.653.1018s-1.88189,8.0038-1.13339,11.0265c.23759.9596,29.30369,1.1629,29.30369,1.1629l.0938,1.8499S195.7532,64.4677,192.9411,65.114Z" transform="translate(-119.9822 -38.40644)" fill="#542c4a"/>
                <path d="M209.49569,89.4837c-.5984-2.0261-17.96769-1.6813-17.96769-1.6813l.134-1.4322s15.00579,2.4549,17.44689,1.6326-1.4781-22.4812-1.4781-22.4812l1.6953.1397s.7544,17.5728,1.4922,25.1282c0,0,.378,4.9755.8229,4.9366.8099-.0706,17.8086.8785,17.8086.8785l-.0974,1.0416s-12.8288-2.1971-17.5322-.7212c-1.49319.4685-1.1503,23.608-1.1503,23.608l-1.1088.0562S210.78959,93.8642,209.49569,89.4837Z" transform="translate(-119.9822 -38.40644)" fill="#542c4a"/>
                <path d="M199.96939,120.3115c1.3007-.2989.8789-14.7341.8789-14.7341l.5622-.6396s-.6272,13.6954-.2032,15.2664,22.8112-1.7359,22.8112-1.7359l-.3556,2.3241s-20.2157.1617-25.0082.3344c0,0-3.15169.0458-3.14439.3278.0132.5134-1.2433,11.1947-1.2433,11.1947l-.653-.1018s1.8819-8.0037,1.1334-11.0264c-.2376-.9596-15.9352-1.7753-15.9352-1.7753l-.0374-.7368S197.1573,120.9577,199.96939,120.3115Z" transform="translate(-119.9822 -38.40644)" fill="#542c4a"/>
                <path d="M144.8715,114.8666c-1.2236.5329.345,11.3947.345,11.3947l-.9082.0275s.3705-9.5981-.3351-11.0644-12.8935,2.7045-12.8935,2.7045l.4604-1.1709s9.368-1.7714,14.047-2.8222c0,0,3.0896-.6244,3.0306-.9003-.1073-.5022-.554-21.4168-.554-21.4168l.7106-.1135s-.7104,18.4912.581,21.3248c.41.8996,13.5129-1.3908,13.5129-1.3908l1.1323.8679S147.5168,113.7144,144.8715,114.8666Z" transform="translate(-119.9822 -38.40644)" fill="#542c4a"/>
                <path d="M139.0311,88.8183c.9656.6879,20.2353,2.4129,21.9952,1.4345,1.76-.9784,2.5278-28.7434,1.0842-30.6288-1.4437-1.8855-20.7312-2.1409-22.2239.5455C138.3938,62.8559,137.7619,87.9143,139.0311,88.8183Z" transform="translate(-119.9822 -38.40644)" fill="#51385b" opacity="0.5"/>
                <path d="M138.6302,93.2217c-.6785,6.4895-1.4291,20.2262-.3342,20.9532,1.2775.8482,9.1339-1.2301,9.2684-1.5622.79-1.9509.5092-19.4744-.7526-20.0778C145.5501,91.9316,138.9333,90.3225,138.6302,93.2217Z" transform="translate(-119.9822 -38.40644)" opacity="0.8" fill="url(#_2-2)"/>
                <path d="M135.7975,84.178c1.1346.216.6312,17.5388-.5113,22.7611-.2972,1.3581-10.1212,1.1836-10.8383-.5133-.7171-1.697-1.5199-23.8214-.2223-23.8739C125.5232,82.4995,134.3858,83.9093,135.7975,84.178Z" transform="translate(-119.9822 -38.40644)" fill="#51385b" opacity="0.5"/>
                <path d="M124.112,80.0402c4.8527,1.9555,12.2189,2.7686,12.3495,1.8791s.6256-13.6279-1.0292-16.1851c-1.6547-2.5572-10.6399-.3104-11.0575,1.7262C123.9571,69.4969,122.8765,79.5424,124.112,80.0402Z" transform="translate(-119.9822 -38.40644)" opacity="0.8" fill="url(#_2-3)"/>
                <path d="M145.2843,116.1497c-1.4039,3.6667.3587,11.3177,1.876,11.748,1.5173.4304,22.4558.436,22.961-.1479s2.5781-13.5045,1.153-14.4125C169.8492,112.4294,146.429,113.1601,145.2843,116.1497Z" transform="translate(-119.9822 -38.40644)" fill="#51385b" opacity="0.5"/>
                <path d="M172.8201,127.6316c2.9755.9086,18.4996,2.2476,19.4798,1.9638.9802-.2839,3.296-7.5428,1.6258-7.8494-1.6701-.3067-19.6782-1.5794-20.8027-.8242C171.9985,121.6769,171.2372,127.1482,172.8201,127.6316Z" transform="translate(-119.9822 -38.40644)" opacity="0.8" fill="url(#_2-4)"/>
                <path d="M166.1399,130.6516c-1.2878.9959-2.6098,8.8462-1.4287,9.9603,1.181,1.114,22.1612.7029,23.0006-1.0842s.2065-8.9448-2.1644-9.0148C183.1765,130.4428,167.943,129.2573,166.1399,130.6516Z" transform="translate(-119.9822 -38.40644)" fill="#51385b" opacity="0.5"/>
                <path d="M198.87339,120.1117c1.7171-1.0232,2.256-10.0786,1.2008-10.3466s-14.42549-1.3732-15.33389-.2794c-.9084,1.0937-3.1948,9.3653-.6904,9.9729C186.5542,120.0661,198.00289,120.6304,198.87339,120.1117Z" transform="translate(-119.9822 -38.40644)" fill="#51385b" opacity="0.5"/>
                <path d="M196.1585,121.6912c-1.4955,1.059-2.9547,21.4426-1.8388,22.4543s13.13219,1.5481,14.09869-1.3852,1.396-21.4723-.5242-21.3572C205.974,121.5183,196.8672,121.1893,196.1585,121.6912Z" transform="translate(-119.9822 -38.40644)" fill="#51385b" opacity="0.5"/>
                <path d="M201.44989,119.2913c-.145,1.5682,6.1465,1.047,7.4545.5981.9784-.3358.4943-28.5499-.7235-29.4767-1.2177-.9267-6.5976-1.9919-6.54389.1941C201.77719,96.3186,201.81509,115.339,201.44989,119.2913Z" transform="translate(-119.9822 -38.40644)" opacity="0.8" fill="url(#_2-5)"/>
                <path d="M211.26849,119.8074c1.4439.5795,18.1359-.9425,18.6688-3.3456.5328-2.403-.2758-18.412-1.3152-18.4253-1.0395-.0133-16.0635-1.2969-16.5935-.1979S210.52049,119.5073,211.26849,119.8074Z" transform="translate(-119.9822 -38.40644)" fill="#51385b" opacity="0.5"/>
                <path d="M212.40189,94.8817c1.2504.2775,16.25711,2.5436,16.5696.4577.31251-2.086.9379-27.8319-4.108-28.0809-5.0458-.2491-15.01649-1.6176-14.975-.7992C210.02489,69.1507,211.12659,94.5986,212.40189,94.8817Z" transform="translate(-119.9822 -38.40644)" opacity="0.8" fill="url(#_2-6)"/>
                <path d="M208.19089,87.2767c.9877-.7553-.6183-21.3389-1.66-21.4172-1.0417-.0784-11.96169-.9207-12.87769.0986-.9159,1.0193-2.8595,18.5768-1.2074,19.5231C194.098,86.4276,206.857,88.2966,208.19089,87.2767Z" transform="translate(-119.9822 -38.40644)" fill="#51385b" opacity="0.5"/>
                <path d="M196.0946,63.9161c.5744.0161.7156-8.2738-.8192-8.6297-1.5349-.3559-29.8057,2.3327-30.6292,3.2882-.8235.9554-.4907,6.3523.7657,6.7372C166.6683,65.6966,179.9285,63.4643,196.0946,63.9161Z" transform="translate(-119.9822 -38.40644)" opacity="0.8" fill="url(#_2-7)"/>
                <path d="M201.19609,63.4896c2.1203,1.177,12.0848,1.262,12.7735-.3136s-.2211-11.127-2.864-10.8474c-2.643.2796-8.122.518-8.827,1.8862C201.57349,55.583,199.73189,62.6768,201.19609,63.4896Z" transform="translate(-119.9822 -38.40644)" fill="#51385b" opacity="0.5"/>
                <path d="M172.2421,55.3983c1.7669.2486,17.478-1.506,18.4381-2.1388.96-.6329,2.9052-13.476-1.7409-14.1933-4.6462-.7173-14.8451-1.3502-15.4122.9498C172.9601,42.316,170.9965,55.2231,172.2421,55.3983Z" transform="translate(-119.9822 -38.40644)" fill="#51385b" opacity="0.5"/>
                <path d="M168.867,55.4812c1.0854-.7841,1.9059-13.3713.8951-14.3336-1.0108-.9624-20.2635-.0222-21.0054,1.5027-.7419,1.525-1.6511,13.024-.3383,13.7355C149.7313,57.0973,167.6418,56.3662,168.867,55.4812Z" transform="translate(-119.9822 -38.40644)" fill="#51385b" opacity="0.5"/>
                <path d="M184.6213,120.1138s4.4743,4.1933,5.1496.4414C189.7709,120.5552,186.117,120.1264,184.6213,120.1138Z" transform="translate(-119.9822 -38.40644)" fill="#542c4a"/>
                <path d="M136.663,100.2937s4.0477-1.6103.2273-6.2618C136.8903,94.0319,136.0569,98.9362,136.663,100.2937Z" transform="translate(-119.9822 -38.40644)" fill="#542c4a"/>
                <path d="M143.0521,115.999c-1.2732-.116-11.3464.6864-11.9466,2.4388-.6001,1.7524-.4535,9.4461,1.2858,10.1338,1.7394.6877,10.4145-.1418,10.8676-1.7718C143.7119,125.1697,143.8309,116.0699,143.0521,115.999Z" transform="translate(-119.9822 -38.40644)" fill="#51385b" opacity="0.5"/>
                <path d="M149.3632,92.5541c-.391,1.893-.1642,19.8101.4456,19.8337.6099.0235,11.0445-.6817,11.4184-1.9518s-3.2122-15.5034-3.8143-15.765C156.8108,94.4093,149.4755,92.0102,149.3632,92.5541Z" transform="translate(-119.9822 -38.40644)" fill="#51385b" opacity="0.5"/>
              </g>
            </g>
          </g>
          <path d="M137.1696,73.689c-.702,2.3883.7988,10.051,1.528,10.0548a25.2914,25.2914,0,0,0,5.8901-2.0852c.4283-.2188-.3468-4.3891.2074-4.8925,10.3518-9.4019,21.2111-13.3958,29.6787-16.9931,1.7832-.7576,1.4579-7.2115.6263-7.3289-3.1806-.449-15.9582,4.7693-22.7928,8.931C147.1756,64.4998,138.0152,70.8121,137.1696,73.689Z" transform="translate(-119.9822 -38.40644)" opacity="0.3" fill="url(#_2-8)" style="mix-blend-mode: screen"/>
          <path d="M202.464,78.0197c-.54951,4.4689-1.17941,8.9479-1.90991,13.368-1.2649,7.6537-2.33409,16.4853-6.03469,23.5068-2.9265,4.3323-7.0841,7.6878-11.2723,10.6173-2.5999,1.8186-5.3282,3.5898-8.0428,5.3099.0574-11.2299.1066-22.4631.0066-33.6916-.1-11.2371-.3229-22.5058.007-33.7433A72.31559,72.31559,0,0,1,202.464,78.0197Z" transform="translate(-119.9822 -38.40644)" fill="#632c7c" opacity="0.5" style="mix-blend-mode: multiply"/>
          <path d="M202.464,78.0197c-.54951,4.4689-1.17941,8.9479-1.90991,13.368-1.2649,7.6537-2.33409,16.4853-6.03469,23.5068-2.9266,4.3319-7.0842,7.6872-11.2722,10.6165-2.6001,1.8186-5.3284,3.5897-8.0429,5.31-2.7135-1.7196-5.4403-3.4905-8.0394-5.3087-4.1905-2.931-8.3386-6.2845-11.2692-10.6161-3.3373-6.3476-4.3654-14.1578-5.6155-21.0878l-.0021-.002c-.1341-.7791-.2727-1.5875-.4077-2.4204-.7187-4.4344-1.3631-8.9002-1.9037-13.3705a58.057,58.057,0,0,1,4.9161-3.9131l.0827-.0415a10.501,10.501,0,0,0-3.6859,4.4781c-1.2558,3.7317,3.2752,21.6839,5.3494,25.723,2.2992,4.4775,15.2659-1.6908,20.1787-1.9528,4.8057-.2563,19.1957,6.9892,21.6388,2.504,6.20489-11.391,1.68309-29.7305-11.433-37.8704l.0225.0002A73.50007,73.50007,0,0,1,202.464,78.0197Z" transform="translate(-119.9822 -38.40644)" fill="#345db8" opacity="0.3" style="mix-blend-mode: multiply"/>
          <path d="M144.9763,78.0809c1.2008.948,3.2759,2.2121,3.2759,2.2121,3.1914-6.5375,11.3642-9.589,17.8058-11.0209,7.3925-1.6433,15.9105,2.4153,22.3058,6.0011,4.3355,2.4308,10.29059,5.5621,13.15809,9.8215,1.3214-.9722,1.9859-1.4564,3.3225-2.4207.3103-2.3619.4685-3.5426.7919-5.9029C190.4271,63.404,175.2188,60.2625,175.2188,60.2625s-17.6296,4.5111-30.4237,16.5036C144.868,77.2919,144.9041,77.5549,144.9763,78.0809Z" transform="translate(-119.9822 -38.40644)" opacity="0.5" fill="url(#_16-2)" style="mix-blend-mode: multiply"/>
          <path d="M211.61729,83.0828c-1.2288-.628-5.774-.287-6.4579,1.467-.4158,1.0665-1.4763,7.2286-2.1871,11.1538-1.3829,7.6381-5.49819,17.2212-6.35309,22.93-.2359,1.5753,4.52489,2.7517,5.53919,2.1739,3.5423-2.018,5.6038-13.2035,6.78661-18.8954.99559-4.7913,2.18219-9.6157,2.86889-14.4733C212.01039,86.0493,212.40909,83.4874,211.61729,83.0828Z" transform="translate(-119.9822 -38.40644)" fill="#451f47" opacity="0.7"/>
          <path d="M144.7951,82.8155c-.5388-.4139-5.5401.8061-6.1017,1.7731-.6029,1.0381.8384,8.5908,1.6327,12.3969,1.5723,7.5341,3.2742,16.4827,6.888,22.1235,1.423,2.2213,5.6769-1.1862,5.0679-3.2344a143.07551,143.07551,0,0,1-4.3153-17.4205C147.2364,93.9526,145.7603,83.557,144.7951,82.8155Z" transform="translate(-119.9822 -38.40644)" fill="#451f47" opacity="0.7"/>
          <path d="M176.155,147.7969c-.4783.0887-.5403-5.4824-.3101-5.7911,2.3129-3.1025,7.7213-4.427,5.0243,1.5353C180.0717,145.3044,177.8566,147.4813,176.155,147.7969Z" transform="translate(-119.9822 -38.40644)" fill="#c6a8ff" opacity="0.5" style="mix-blend-mode: soft-light"/>
          <path d="M197.822,125.8142c2.04179-1.8571-3.3639-5.9937-4.0838-5.5463-1.1017.6847-18.1356,12.2206-18.5215,12.7302-.86,1.1355-.1025,7.7579.267,7.8194C176.3402,140.9602,193.7918,129.4798,197.822,125.8142Z" transform="translate(-119.9822 -38.40644)" fill="#ffffc5" opacity="0.5" style="mix-blend-mode: soft-light"/>
          <path d="M165.4547,63.3868c1.1815-.5184.2848-8.3122-.9996-7.8598-10.4934,3.6959-21.2295,11.9761-21.2033,12.3308.0362.4899,6.392,3.6758,9.0395,2.4641C154.2341,69.4327,160.3188,65.6402,165.4547,63.3868Z" transform="translate(-119.9822 -38.40644)" opacity="0.3" fill="url(#_2-9)" style="mix-blend-mode: screen"/>
          <path d="M214.128,73.6553l-.02061.1564c-.1747,1.2584-.2611,1.8877-.4317,3.1465l-.0052.0352c-2.79649-5.3343-7.7611-9.3541-12.4763-12.8203-1.3728-1.009-2.8505-1.998-4.32689-2.9047-6.1959-3.805-13.7473-7.6448-21.0489-8.4559-5.4433-.6047-16.5515,5.2041-22.9834,9.2225-5.2057,3.2524-14.3596,8.4511-16.074,14.9518l-.0053-.0353c-.1698-1.259-.2557-1.8886-.4296-3.1472l-.0207-.1565c.2383-.2501.4794-.5015.721-.7411a81.87077,81.87077,0,0,1,38.1269-20.8956c.0212-.006.0404-.01.0511-.012l.017-.004.0426.012c.0213.004.0426.0101.0638.0141.5091.1287,1.0155.2656,1.5127.3974.0547.0145.1089.0301.1615.0446a97.58794,97.58794,0,0,1,19.6301,8.0748l.002.002a11.85832,11.85832,0,0,0,2.27649,1.7262,10.37782,10.37782,0,0,0,2.8932,1.3719,84.80393,84.80393,0,0,1,10.0154,7.7397q.14985.1383.28781.2683c1.18989,1.1242,1.874,1.8467,1.99889,1.9848Z" transform="translate(-119.9822 -38.40644)" opacity="0.5" fill="url(#_144-2)" style="mix-blend-mode: multiply"/>
          <path d="M160.8658,122.8078s12.1851,10.4436,14.2352,10.4436c1.9365,0,13.0361-9.3185,13.0361-9.3185-.0069-.0091-11.4767,7.5341-12.8778,7.5341C173.859,131.467,160.8658,122.8078,160.8658,122.8078Z" transform="translate(-119.9822 -38.40644)" fill="#d6bad0"/>
          <path d="M203.20089,93.067c.1374.0308-6.43289,23.4925-6.43289,23.4925-.0948-.0437,3.75739-7.6087,4.99739-12.292C202.59019,101.1521,203.20089,93.067,203.20089,93.067Z" transform="translate(-119.9822 -38.40644)" fill="#d6bad0"/>
          <path d="M156.1699,128.6651c-.5567.9796,2.4175,5.8972,4.875,3.2989C161.4715,131.513,156.5881,127.9294,156.1699,128.6651Z" transform="translate(-119.9822 -38.40644)" fill="url(#_102)"/>
          <path d="M156.2461,129.009c-.1441.7406.9373,2.7267,1.6343,2.8384.6971.1117,2.1249-1.1253.7062-2.026C157.0045,128.817,156.3547,128.451,156.2461,129.009Z" transform="translate(-119.9822 -38.40644)" opacity="0.5" fill="url(#_105-2)" style="mix-blend-mode: multiply"/>
          <path d="M158.224,132.3634c1.9555,1.1161,3.3905.5722,3.1657-.1952a1.494,1.494,0,0,0-.8244-.9863s.5869.4568.2714.9147C160.5212,132.5543,158.224,132.3634,158.224,132.3634Z" transform="translate(-119.9822 -38.40644)" fill="#d6bad0"/>
          <path d="M201.80379,63.6381a5.74177,5.74177,0,0,1-.6096.535c-2.1868,1.5889-4.80409-.2-4.82129-2.7426a1.47784,1.47784,0,0,1,.2612-.8905,11.85832,11.85832,0,0,0,2.27649,1.7262A10.37782,10.37782,0,0,0,201.80379,63.6381Z" transform="translate(-119.9822 -38.40644)" fill="url(#_102-2)"/>
          <path d="M196.5287,60.7191c-.2276.6932.006,2.7855.8433,3.093.83709.3076,1.34029-1.1531,1.11259-1.506C198.25689,61.9533,196.6477,60.3571,196.5287,60.7191Z" transform="translate(-119.9822 -38.40644)" opacity="0.5" fill="url(#_105-3)" style="mix-blend-mode: multiply"/>
          <path d="M197.3178,63.9785s1.63539,1.5749,4.17789-.0535a2.02,2.02,0,0,1-2.089,1.5536C198.43449,65.4822,197.3178,63.9785,197.3178,63.9785Z" transform="translate(-119.9822 -38.40644)" fill="#d6bad0"/>
        </g>
        <g>
          <path d="M165.4796,111.1998a1.2183,1.2183,0,0,1-.7889-.2426c-1.1722-.9423-.3879-4.8135.6751-9.3975.2204-.9506.4479-1.9317.4639-2.2089a20.45,20.45,0,0,0-2.2054-1.9622c-3.2637-2.7048-5.7368-4.8851-5.4427-6.2886.2459-1.1759,2.8706-1.6265,8.2945-2.1386a25.49807,25.49807,0,0,0,2.8832-.353,22.12143,22.12143,0,0,0,.9729-2.2499c1.6675-4.1629,3.1773-7.6091,4.7665-7.6091a1.10552,1.10552,0,0,1,.5224.1416l.0458.0239c1.4031.7991,3.155,4.7763,4.6871,8.4415.2351.5624.4772,1.1415.5813,1.3512a22.34492,22.34492,0,0,0,2.7011.286c4.1313.3109,7.61.6754,8.3341,1.99a.72535.72535,0,0,1,.0957.3422c.0685.976-1.6163,2.4501-4.3994,4.7609-1.325,1.1002-3.1397,2.6068-3.2323,3.0465a21.78915,21.78915,0,0,0,.5287,2.7661c.9623,4.3221,1.6741,7.9847.6322,9.0286a1.02,1.02,0,0,1-.7528.2684c-1.4057,0-4.4365-1.7742-7.6835-3.7507-.8786-.5348-1.7848-1.0863-2.0856-1.2168-.2849.1281-1.1157.6546-1.9214,1.165-3.1418,1.9913-6.0899,3.7806-7.6354,3.8058Z" transform="translate(-119.9822 -38.40644)" fill="url(#_102-3)"/>
          <path d="M191.1691,91.1471v.004c.1056,1.5001-7.3276,6.329-7.4088,7.5103-.0792,1.155,2.6022,9.8203,1.2443,11.1782-1.1042,1.1063-9.3188-4.6543-9.9258-4.6888h-.006c-.5197,0-7.0375,4.7964-9.2845,4.833h-.0019a.81489.81489,0,0,1-.5379-.1442c-1.4474-1.161,1.3538-10.2566,1.2543-11.0137-.0994-.7592-7.833-5.925-7.4332-7.829.331-1.5792,10.1208-1.7152,10.7073-2.1699.5866-.4568,3.3046-9.4752,5.3222-9.4752a.69675.69675,0,0,1,.345.1056l.0062.002c1.7862,1.0149,4.6747,8.9414,5.0156,9.4285.3654.5216,9.6579.2923,10.6606,2.109A.31318.31318,0,0,1,191.1691,91.1471Z" transform="translate(-119.9822 -38.40644)" fill="url(#_1827)"/>
          <path d="M175.0869,95.6756l-8.5841,3.1503c-.0994-.7592-7.833-5.925-7.4332-7.829Z" transform="translate(-119.9822 -38.40644)" fill="#451f47" opacity="0.4"/>
          <path d="M180.4659,88.8879l-5.379,6.7877.0122-16.3238.345.1056.0062.002C177.2365,80.4743,180.125,88.4008,180.4659,88.8879Z" transform="translate(-119.9822 -38.40644)" fill="#451f47" opacity="0.4"/>
          <path d="M191.1691,91.1471v.004c.1056,1.5001-7.3276,6.329-7.4088,7.5103l-8.6734-2.9858,16.0396-4.6787Z" transform="translate(-119.9822 -38.40644)" fill="#451f47" opacity="0.4"/>
          <path d="M185.0046,109.8396c-1.1042,1.1063-9.3188-4.6543-9.9258-4.6888v.008l-.006-.008.0141-9.4752Z" transform="translate(-119.9822 -38.40644)" fill="#451f47" opacity="0.4"/>
          <path d="M175.0869,95.6756l-.0081,9.4752v.008l-.006-.008c-.5197,0-7.0375,4.7964-9.2845,4.833h-.0019l-.5379-.1442Z" transform="translate(-119.9822 -38.40644)" fill="#451f47" opacity="0.4"/>
          <path d="M175.0869,95.6756l-16.0173-4.6787c.331-1.5792,10.1208-1.7152,10.7073-2.1699Z" transform="translate(-119.9822 -38.40644)" opacity="0.5" fill="url(#_1099)" style="mix-blend-mode: color-dodge"/>
          <path d="M159.0696,90.9969c-2.6906.7899,4.7385,15.1808,6.0581,14.4793,1.3197-.7016,8.8876-8.2157,9.9592-9.8006C175.0869,95.6756,160.8513,90.4738,159.0696,90.9969Z" transform="translate(-119.9822 -38.40644)" opacity="0.5" fill="url(#_105-4)" style="mix-blend-mode: multiply"/>
          <path d="M191.1303,90.9969c2.6906.7899-4.7385,15.1808-6.0581,14.4793-1.3196-.7016-8.8876-8.2157-9.9592-9.8006C175.113,95.6756,189.3486,90.4738,191.1303,90.9969Z" transform="translate(-119.9822 -38.40644)" opacity="0.5" fill="url(#_105-5)" style="mix-blend-mode: multiply"/>
          <path d="M175.0869,95.6756c-2.461,3.4734-9.8384,13.3327-9.8384,14.164,0,1.1782,19.3782,1.3047,19.7561,0S175.5483,95.0245,175.0869,95.6756Z" transform="translate(-119.9822 -38.40644)" opacity="0.5" fill="url(#_105-6)" style="mix-blend-mode: multiply"/>
        </g>
        <g>
          <path d="M138.2784,76.3803c2.4994,9.1783,6.0504,1.9545,5.3254-.629Z" transform="translate(-119.9822 -38.40644)" fill="#6e5066" opacity="0.5" style="mix-blend-mode: multiply"/>
          <path d="M143.6038,75.7513a2.4335,2.4335,0,0,1-2.6627,2.6627,2.66272,2.66272,0,0,1-2.6627-2.6627,2.49906,2.49906,0,0,1,2.6627-2.6627A2.72462,2.72462,0,0,1,143.6038,75.7513Z" transform="translate(-119.9822 -38.40644)" fill="#63495f"/>
          <path d="M138.6049,75.7513c.9697.554,4.6764.0254,4.6511-.5902a2.8857,2.8857,0,0,0-3.0439-1.8317C138.8024,73.6167,137.9939,75.4022,138.6049,75.7513Z" transform="translate(-119.9822 -38.40644)" fill="#d6bad0"/>
          <path d="M139.1077,77.4776c1.6059,1.1595,3.5556.8531,4.35-.862C144.0759,75.2809,137.8078,76.539,139.1077,77.4776Z" transform="translate(-119.9822 -38.40644)" fill="#fff" style="mix-blend-mode: soft-light"/>
        </g>
        <g>
          <path d="M206.88129,76.3803c2.4993,9.1783,6.0503,1.9545,5.3254-.629Z" transform="translate(-119.9822 -38.40644)" fill="#6e5066" opacity="0.5" style="mix-blend-mode: multiply"/>
          <path d="M212.20669,75.7513A2.43359,2.43359,0,0,1,209.544,78.414a2.66273,2.66273,0,0,1-2.66271-2.6627,2.49906,2.49906,0,0,1,2.66271-2.6627A2.72476,2.72476,0,0,1,212.20669,75.7513Z" transform="translate(-119.9822 -38.40644)" fill="#63495f"/>
          <path d="M207.20769,75.7513c.9698.554,4.6765.0254,4.6511-.5902a2.88547,2.88547,0,0,0-3.04379-1.8317C207.40529,73.6167,206.59669,75.4022,207.20769,75.7513Z" transform="translate(-119.9822 -38.40644)" fill="#d6bad0"/>
          <path d="M207.71059,77.4776c1.6058,1.1595,3.5556.8531,4.35-.862C212.67879,75.2809,206.41069,76.539,207.71059,77.4776Z" transform="translate(-119.9822 -38.40644)" fill="#fff" style="mix-blend-mode: soft-light"/>
        </g>
        <g>
          <path d="M172.4024,137.2653c2.4994,9.1783,6.0504,1.9545,5.3254-.629Z" transform="translate(-119.9822 -38.40644)" fill="#6e5066" opacity="0.5" style="mix-blend-mode: multiply"/>
          <path d="M177.7278,136.6363a2.4335,2.4335,0,0,1-2.6627,2.6627,2.66279,2.66279,0,0,1-2.6627-2.6627,2.49906,2.49906,0,0,1,2.6627-2.6627A2.72462,2.72462,0,0,1,177.7278,136.6363Z" transform="translate(-119.9822 -38.40644)" fill="#63495f"/>
          <path d="M172.7289,136.6363c.9697.554,4.6764.0254,4.6511-.5902a2.8857,2.8857,0,0,0-3.0439-1.8317C172.9264,134.5017,172.1179,136.2872,172.7289,136.6363Z" transform="translate(-119.9822 -38.40644)" fill="#d6bad0"/>
          <path d="M173.2317,138.3626c1.6059,1.1595,3.5557.8531,4.3501-.862C178.2,136.1659,171.9318,137.424,173.2317,138.3626Z" transform="translate(-119.9822 -38.40644)" fill="#fff" style="mix-blend-mode: soft-light"/>
        </g>
        <g>
          <path d="M172.3335,56.8422c2.4994,9.1783,6.0504,1.9545,5.3254-.629Z" transform="translate(-119.9822 -38.40644)" fill="#6e5066" opacity="0.5" style="mix-blend-mode: multiply"/>
          <path d="M177.6589,56.2132a2.4335,2.4335,0,0,1-2.6627,2.6627,2.66279,2.66279,0,0,1-2.6627-2.6627,2.49906,2.49906,0,0,1,2.6627-2.6627A2.72462,2.72462,0,0,1,177.6589,56.2132Z" transform="translate(-119.9822 -38.40644)" fill="#63495f"/>
          <path d="M172.66,56.2132c.9697.554,4.6764.0254,4.6511-.5902a2.8857,2.8857,0,0,0-3.0439-1.8317C172.8575,54.0786,172.049,55.8641,172.66,56.2132Z" transform="translate(-119.9822 -38.40644)" fill="#d6bad0"/>
          <path d="M173.1628,57.9395c1.6059,1.1595,3.5557.8531,4.3501-.862C178.131,55.7428,171.8629,57.0009,173.1628,57.9395Z" transform="translate(-119.9822 -38.40644)" fill="#fff" style="mix-blend-mode: soft-light"/>
        </g>
        <g>
          <path d="M210.86949,124.0864a18.94807,18.94807,0,0,1-2.8097,2.6694c-3.0095,2.0933-9.7974,2.6716-9.7974,2.6716l.9932-4.8247Z" transform="translate(-119.9822 -38.40644)" fill="url(#_15-3)"/>
          <path d="M205.30089,115.3399c5.262,2.1756,6.193,8.2653,5.5686,8.7465-4.7369,3.6501-11.6139.5163-11.6139.5163s-2.30689-6.8049-1.36789-8.2206C198.71959,115.1279,205.30089,115.3399,205.30089,115.3399Z" transform="translate(-119.9822 -38.40644)" fill="#71647e"/>
          <path d="M210.06689,124.2457c.80611-.6279-11.5584-7.8407-12.17919-7.4614s.37469,6.9821,1.94109,7.889C200.32769,124.9621,206.39449,127.1066,210.06689,124.2457Z" transform="translate(-119.9822 -38.40644)" fill="#d81bdc" opacity="0.4" style="mix-blend-mode: multiply"/>
          <path d="M210.66819,123.6587c.4237-.305.2857-4.575-4.1268-7.5725-1.8588-1.2627-8.4273-.1753-8.279-.0192C198.41069,116.2232,210.24759,123.9616,210.66819,123.6587Z" transform="translate(-119.9822 -38.40644)" fill="#fff" style="mix-blend-mode: soft-light"/>
        </g>
        <g>
          <path d="M138.9953,124.0864a18.95915,18.95915,0,0,0,2.8097,2.6694c3.0095,2.0933,9.7975,2.6716,9.7975,2.6716l-.9932-4.8247Z" transform="translate(-119.9822 -38.40644)" fill="url(#_15-4)"/>
          <path d="M144.5639,115.3399c-5.2619,2.1756-6.193,8.2653-5.5686,8.7465,4.737,3.6501,11.614.5163,11.614.5163s2.3068-6.8049,1.3679-8.2206C151.1453,115.1279,144.5639,115.3399,144.5639,115.3399Z" transform="translate(-119.9822 -38.40644)" fill="#71647e"/>
          <path d="M139.798,124.2457c-.8061-.6279,11.5584-7.8407,12.1792-7.4614s-.3747,6.9821-1.9412,7.889C149.5371,124.9621,143.4703,127.1066,139.798,124.2457Z" transform="translate(-119.9822 -38.40644)" fill="#d81bdc" opacity="0.4" style="mix-blend-mode: multiply"/>
          <path d="M139.1966,123.6587c-.4236-.305-.2856-4.575,4.1269-7.5725,1.8587-1.2627,8.4272-.1753,8.279-.0192C151.4542,116.2232,139.6173,123.9616,139.1966,123.6587Z" transform="translate(-119.9822 -38.40644)" fill="#fff" style="mix-blend-mode: soft-light"/>
        </g>
      </g>
    </g>
  </g>
</svg>
