<svg xmlns="http://www.w3.org/2000/svg" xmlns:xlink="http://www.w3.org/1999/xlink" viewBox="0 0 129.50075 125.1437">
  <defs>
    <linearGradient id="_1866" data-name="  1866" x1="679.09848" y1="78.41353" x2="638.06481" y2="78.41353" gradientUnits="userSpaceOnUse">
      <stop offset="0" stop-color="#1b8bbf"/>
      <stop offset="0.57143" stop-color="#f046ed"/>
      <stop offset="0.99405" stop-color="#f7c319"/>
    </linearGradient>
    <linearGradient id="_1866-2" x1="726.53178" y1="78.41353" x2="767.56556" y2="78.41353" xlink:href="#_1866"/>
    <linearGradient id="_638" data-name="  638" x1="662.90518" y1="121.32611" x2="743.178" y2="121.32611" gradientUnits="userSpaceOnUse">
      <stop offset="0" stop-color="#de0086"/>
      <stop offset="1" stop-color="#ff003b"/>
    </linearGradient>
    <linearGradient id="_1274" data-name="  1274" x1="662.90518" y1="153.02941" x2="743.178" y2="153.02941" gradientUnits="userSpaceOnUse">
      <stop offset="0" stop-color="#ffa933"/>
      <stop offset="0.79365" stop-color="#ffbd2b"/>
      <stop offset="0.90085" stop-color="#e5942f"/>
      <stop offset="1" stop-color="#ca6b34"/>
    </linearGradient>
    <linearGradient id="_638-2" x1="701.22248" y1="114.9348" x2="701.22248" y2="177.1388" xlink:href="#_638"/>
    <linearGradient id="_192" data-name="  192" x1="687.80928" y1="165.125" x2="714.63568" y2="165.125" gradientUnits="userSpaceOnUse">
      <stop offset="0" stop-color="#ca6b34"/>
      <stop offset="0.06501" stop-color="#cc6e34"/>
      <stop offset="0.113" stop-color="#d27733"/>
      <stop offset="0.15555" stop-color="#dc8731"/>
      <stop offset="0.19483" stop-color="#eb9e2e"/>
      <stop offset="0.23168" stop-color="#febb2b"/>
      <stop offset="0.23413" stop-color="#ffbd2b"/>
      <stop offset="0.60066" stop-color="#ffba2c"/>
      <stop offset="0.87094" stop-color="#ffb130"/>
      <stop offset="1" stop-color="#ffa933"/>
    </linearGradient>
    <linearGradient id="_1284" data-name="  1284" x1="683.28888" y1="146.00255" x2="719.15608" y2="146.00255" gradientUnits="userSpaceOnUse">
      <stop offset="0" stop-color="#ee9c50"/>
      <stop offset="0.07302" stop-color="#e59255"/>
      <stop offset="0.50685" stop-color="#b3586f"/>
      <stop offset="0.82838" stop-color="#94357f"/>
      <stop offset="1" stop-color="#882785"/>
    </linearGradient>
    <linearGradient id="_27" data-name="  27" x1="702.81515" y1="149.3975" x2="702.81515" y2="73.00205" gradientUnits="userSpaceOnUse">
      <stop offset="0" stop-color="#4133a1"/>
      <stop offset="1" stop-color="#d241b4"/>
    </linearGradient>
    <linearGradient id="_27-2" x1="702.91798" y1="133.6633" x2="702.91798" y2="59.2229" xlink:href="#_27"/>
    <linearGradient id="_26" data-name="  26" x1="702.91743" y1="63.3868" x2="702.91743" y2="130.821" gradientUnits="userSpaceOnUse">
      <stop offset="0" stop-color="#4abcc2"/>
      <stop offset="1" stop-color="#facb20"/>
    </linearGradient>
    <linearGradient id="_105" data-name="  105" x1="718.12928" y1="78.0197" x2="718.12928" y2="59.7752" gradientUnits="userSpaceOnUse">
      <stop offset="0" stop-color="#662d87"/>
      <stop offset="1" stop-color="#d01c5c"/>
    </linearGradient>
    <linearGradient id="_1904" data-name="  1904" x1="718.41823" y1="133.2509" x2="718.41823" y2="76.7711" gradientUnits="userSpaceOnUse">
      <stop offset="0" stop-color="#f046ed"/>
      <stop offset="0.99405" stop-color="#f7c319"/>
    </linearGradient>
    <linearGradient id="_1866-3" x1="741.83008" y1="96.83295" x2="664.00758" y2="96.83295" xlink:href="#_1866"/>
    <linearGradient id="_1962" data-name="  1962" x1="675.66878" y1="98.8819" x2="730.16608" y2="98.8819" gradientUnits="userSpaceOnUse">
      <stop offset="0" stop-color="#80afff"/>
      <stop offset="0.13302" stop-color="#94b9ef"/>
      <stop offset="0.53866" stop-color="#ced6c2"/>
      <stop offset="0.83946" stop-color="#f1e8a6"/>
      <stop offset="1" stop-color="#ffef9b"/>
    </linearGradient>
    <linearGradient id="_1925" data-name="  1925" x1="733.43735" y1="83.54287" x2="733.43735" y2="110.03303" gradientUnits="userSpaceOnUse">
      <stop offset="0" stop-color="#e42a7b"/>
      <stop offset="1" stop-color="#fff"/>
    </linearGradient>
    <linearGradient id="_1925-2" x1="672.61662" y1="82.73253" x2="672.61662" y2="111.77576" xlink:href="#_1925"/>
    <linearGradient id="_108" data-name="  108" x1="683.80412" y1="130.63949" x2="688.77337" y2="130.63949" gradientUnits="userSpaceOnUse">
      <stop offset="0" stop-color="#832645"/>
      <stop offset="1" stop-color="#b41e2d"/>
    </linearGradient>
    <linearGradient id="_108-2" x1="724.07504" y1="62.65679" x2="729.506" y2="62.65679" xlink:href="#_108"/>
    <linearGradient id="_1932" data-name="  1932" x1="732.42398" y1="124.2637" x2="732.42398" y2="129.6047" gradientUnits="userSpaceOnUse">
      <stop offset="0" stop-color="#4133a1"/>
      <stop offset="1" stop-color="#4a34a2"/>
    </linearGradient>
    <linearGradient id="_1909" data-name="  1909" x1="643.95672" y1="1238.06266" x2="636.32247" y2="1230.81273" gradientTransform="matrix(0.6886, 0.7251, -0.7251, 0.6886, 1186.4999, -1193.4314)" gradientUnits="userSpaceOnUse">
      <stop offset="0" stop-color="#1b8bbf"/>
      <stop offset="1" stop-color="#f046ed"/>
    </linearGradient>
    <linearGradient id="_1932-2" x1="673.15688" y1="124.2637" x2="673.15688" y2="129.6047" xlink:href="#_1932"/>
    <linearGradient id="_1909-2" x1="2331.67118" y1="-539.11096" x2="2324.03693" y2="-546.36089" gradientTransform="matrix(-0.6886, 0.7251, 0.7251, 0.6886, 2669.8697, -1193.4314)" xlink:href="#_1909"/>
    <linearGradient id="_1932-3" x1="1005.28882" y1="372.17923" x2="1005.28882" y2="359.60233" gradientTransform="matrix(0.9221, 0.387, -0.387, 0.9221, -40.65, -642.65)" xlink:href="#_1932"/>
    <linearGradient id="_1909-3" x1="999.92422" y1="357.17702" x2="1004.14804" y2="367.24042" gradientTransform="matrix(0.9221, 0.387, -0.387, 0.9221, -40.65, -642.65)" xlink:href="#_1909"/>
    <linearGradient id="_1932-4" x1="3358.04305" y1="-615.89062" x2="3358.04305" y2="-627.83489" gradientTransform="matrix(-0.9221, 0.387, 0.387, 0.9221, 3998.3461, -642.65)" xlink:href="#_1932"/>
    <linearGradient id="_1909-4" x1="3352.67839" y1="-630.26021" x2="3356.90221" y2="-620.1968" gradientTransform="matrix(-0.9221, 0.387, 0.387, 0.9221, 3998.3461, -642.65)" xlink:href="#_1909"/>
    <linearGradient id="_1899" data-name="  1899" x1="677.97205" y1="95.3091" x2="727.66383" y2="95.3091" gradientUnits="userSpaceOnUse">
      <stop offset="0" stop-color="#4a5bad"/>
      <stop offset="1" stop-color="#9158bc"/>
    </linearGradient>
    <linearGradient id="_1851" data-name="  1851" x1="931.445" y1="2042.45711" x2="911.36395" y2="2014.15211" gradientTransform="translate(1124.7677 -2089.1493) rotate(35.35251)" gradientUnits="userSpaceOnUse">
      <stop offset="0" stop-color="#1b8bbf"/>
      <stop offset="0.99405" stop-color="#f7c319"/>
    </linearGradient>
    <linearGradient id="_1904-2" x1="702.81437" y1="117.30617" x2="702.81437" y2="72.4131" xlink:href="#_1904"/>
    <linearGradient id="_1866-4" x1="5451.35662" y1="103.70954" x2="5451.35662" y2="90.64011" gradientTransform="matrix(-1, 0, 0, 1, 6153.9801, 0)" xlink:href="#_1866"/>
    <linearGradient id="_1899-2" x1="5444.17738" y1="100.01299" x2="5458.5346" y2="100.01299" gradientTransform="matrix(-1, 0, 0, 1, 6153.9801, 0)" xlink:href="#_1899"/>
    <linearGradient id="_314" data-name="  314" x1="5454.95188" y1="92.18079" x2="5457.95532" y2="92.18079" gradientTransform="matrix(-1, 0, 0, 1, 6153.9801, 0)" gradientUnits="userSpaceOnUse">
      <stop offset="0" stop-color="#ebbd38"/>
      <stop offset="1" stop-color="#fff29e"/>
    </linearGradient>
    <linearGradient id="_108-3" x1="5445.19501" y1="96.37645" x2="5457.17236" y2="96.37645" gradientTransform="matrix(-1, 0, 0, 1, 6153.8404, 0)" xlink:href="#_108"/>
    <linearGradient id="_638-3" x1="-2522.34112" y1="-1836.76247" x2="-2522.34112" y2="-1846.14118" gradientTransform="translate(3788.51679 -385.2192) rotate(-45)" xlink:href="#_638"/>
    <radialGradient id="_289" data-name="  289" cx="65.02388" cy="42.2286" r="10.1929" gradientUnits="userSpaceOnUse">
      <stop offset="0.09524" stop-color="#b41e2d"/>
      <stop offset="0.34362" stop-color="#7b141f"/>
      <stop offset="0.65591" stop-color="#39090e"/>
      <stop offset="0.88327" stop-color="#100304"/>
      <stop offset="1"/>
    </radialGradient>
    <linearGradient id="_108-4" x1="-2494.49626" y1="-1871.84153" x2="-2494.68503" y2="-1866.81346" gradientTransform="translate(3788.65649 -385.2192) rotate(-45)" xlink:href="#_108"/>
    <linearGradient id="_638-4" x1="-2494.51635" y1="-1867.47454" x2="-2494.51635" y2="-1871.77502" gradientTransform="translate(3788.65649 -385.2192) rotate(-45)" xlink:href="#_638"/>
    <linearGradient id="_108-5" x1="-2551.25146" y1="-1815.08634" x2="-2551.44022" y2="-1810.05826" gradientTransform="translate(3788.65649 -385.2192) rotate(-45)" xlink:href="#_108"/>
    <linearGradient id="_638-5" x1="-2551.27155" y1="-1810.71934" x2="-2551.27155" y2="-1815.01982" gradientTransform="translate(3788.65649 -385.2192) rotate(-45)" xlink:href="#_638"/>
    <linearGradient id="_108-6" x1="-2526.59639" y1="-1882.65952" x2="-2526.78516" y2="-1877.63146" gradientTransform="translate(3788.65649 -385.2192) rotate(-45)" xlink:href="#_108"/>
    <linearGradient id="_638-6" x1="-2526.6165" y1="-1878.29256" x2="-2526.6165" y2="-1882.59301" gradientTransform="translate(3788.65649 -385.2192) rotate(-45)" xlink:href="#_638"/>
    <linearGradient id="_108-7" x1="-2483.25787" y1="-1839.32102" x2="-2483.44663" y2="-1834.29296" gradientTransform="translate(3788.65649 -385.2192) rotate(-45)" xlink:href="#_108"/>
    <linearGradient id="_638-7" x1="-2483.27796" y1="-1834.954" x2="-2483.27796" y2="-1839.25446" gradientTransform="translate(3788.65649 -385.2192) rotate(-45)" xlink:href="#_638"/>
  </defs>
  <g style="isolation: isolate">
    <g id="rank_icon" data-name="rank icon">
      <g>
        <g>
          <g>
            <path d="M679.09848,77.1749l-6.6309,3.5069-4.8568,24.0865c-1.659.1202-6.1362-2.3837-10.033-4.8551-3.4605-2.1931-9.0077-8.623-9.03-9.2275v-.0018a14.00687,14.00687,0,0,1,2.5761-2.0591s-6.9263-9.0335-7.3848-10.1704c-.3212-.7986-2.6912-5.2192-2.9762-6.3046l-.0018-.0017c-.1202-.4602,7.9584-.5547,7.9584-.5547l-.0017-.0017a36.84053,36.84053,0,0,1-2.9179-3.5189c-1.8393-2.7153-7.9686-16.0182-7.7282-16.0182,16.4629,0,33.8996,14.0809,34.7051,15.3862.1923.3108.395.6646.6079,1.051C674.85478,71.1641,676.81948,75.3614,679.09848,77.1749Z" transform="translate(-638.06481 -51.9951)" fill="url(#_1866)"/>
            <path d="M679.09828,77.1749l-6.6306,3.5069-4.8568,24.0865c-3.1325.2284-14.6982-6.8129-19.0631-14.0828.0481.3298,4.3636,2.7617,7.9859,1.9947,2.1572-.4567,13.5752-8.8265,12.5242-9.5873-.6475-.4689-10.47588,1.1882-17.934,5.5319,0,0-6.9262-9.0333-7.3848-10.1703-.32108-.7986-2.6917-5.2194-2.9768-6.3047a20.31321,20.31321,0,0,0,5.8964,5.4248c2.0998,1.397,9.5499,3.7049,13.6729,4.4608,2.6671.4889,12.0916-3.7153,11.293-5.2039-.395-.7368-4.5445-4.6826-22.905-5.2381l-.0018-.0017A36.85554,36.85554,0,0,1,645.8,68.0728c-1.83932-2.7153-7.95332-15.9327-7.72832-16.0186a32.60148,32.60148,0,0,0,12.4878,13.099c1.3154.7915,22.254,3.5035,22.2179,2.2875C674.29388,69.9001,676.48958,75.0986,679.09828,77.1749Z" transform="translate(-638.06481 -51.9951)" fill="#8e3d9c" opacity="0.5" style="mix-blend-mode: multiply"/>
            <path d="M647.78758,64.048c1.2549,1.3779,5.8216,7.3864,5.5816,7.4242a9.12767,9.12767,0,0,1-4.5941-.6087c-2.7279-1.9716-6.3987-8.8542-7.7794-12.1578C640.19428,56.7879,646.62558,62.7722,647.78758,64.048Z" transform="translate(-638.06481 -51.9951)" fill="#d42f55" opacity="0.5" style="mix-blend-mode: multiply"/>
            <path d="M648.217,79.6412c.51238.5912,3.91308,8.4703,2.90688,8.0671s-6.9984-7.6997-8.5011-12.1652C642.24618,74.4239,647.32968,78.6174,648.217,79.6412Z" transform="translate(-638.06481 -51.9951)" fill="#d42f55" opacity="0.5" style="mix-blend-mode: multiply"/>
            <path d="M649.93438,92.3452c.0464.4093,6.2879,8.1098,16.8204,12.0095,1.2497.4627.3387-4.3266-.7013-5.6933C663.78138,95.6756,649.793,91.0981,649.93438,92.3452Z" transform="translate(-638.06481 -51.9951)" fill="#d42f55" opacity="0.5" style="mix-blend-mode: multiply"/>
            <path d="M650.55948,65.1532c4.5364,1.3041,20.3224,2.8364,21.5837,2.547,1.0644-.2442-29.3464-8.9742-27.4016-6.929A28.50288,28.50288,0,0,0,650.55948,65.1532Z" transform="translate(-638.06481 -51.9951)" fill="#fff" style="mix-blend-mode: soft-light"/>
            <path d="M672.86378,69.2302c-3.9032-1.7895-22.98778-3.8893-22.9316-3.4769.12882.9446,3.7764,5.4134,4.2957,5.636.8322.3568,6.4657-.6546,22.7857,5.2704C677.60908,76.8759,674.63538,70.0425,672.86378,69.2302Z" transform="translate(-638.06481 -51.9951)" fill="#da0553" opacity="0.2" style="mix-blend-mode: multiply"/>
            <path d="M679.09848,77.1749l-6.6309,3.5069-4.8568,24.0865c-1.659.1202-6.1362-2.3837-10.033-4.8551,0,0-.8895-5.5534-1.0441-7.233-.1545-1.6779,1.7265-7.2876,1.7265-7.2876s-3.205-3.873-3.1018-4.691c.3575-2.8321,8.1677-7.9238,8.1677-7.9238S676.81948,75.3614,679.09848,77.1749Z" transform="translate(-638.06481 -51.9951)" fill="#b839b6" opacity="0.5" style="mix-blend-mode: multiply"/>
          </g>
          <g>
            <path d="M726.53178,77.1749l6.6309,3.5069,4.8568,24.0865c1.659.1202,6.1362-2.3837,10.033-4.8551,3.46052-2.1931,9.0077-8.623,9.0301-9.2275v-.0018a14.01072,14.01072,0,0,0-2.5761-2.0591s6.9262-9.0335,7.3848-10.1704c.3211-.7986,2.6911-5.2192,2.9762-6.3046l.0017-.0017c.1203-.4602-7.9584-.5547-7.9584-.5547l.0017-.0017a36.82174,36.82174,0,0,0,2.9179-3.5189c1.8393-2.7153,7.9687-16.0182,7.7283-16.0182-16.463,0-33.89968,14.0809-34.7051,15.3862-.1924.3108-.395.6646-.608,1.051C730.77548,71.1641,728.81078,75.3614,726.53178,77.1749Z" transform="translate(-638.06481 -51.9951)" fill="url(#_1866-2)"/>
            <path d="M726.53208,77.1749l6.6306,3.5069,4.8567,24.0865c3.13262.2284,14.6983-6.8129,19.0631-14.0828-.0481.3298-4.3636,2.7617-7.9859,1.9947-2.1571-.4567-13.5752-8.8265-12.5241-9.5873.6474-.4689,10.4759,1.1882,17.9339,5.5319,0,0,6.9263-9.0333,7.3848-10.1703.3212-.7986,2.6917-5.2194,2.97682-6.3047a20.31377,20.31377,0,0,1-5.89642,5.4248c-2.0998,1.397-9.5498,3.7049-13.6729,4.4608-2.667.4889-12.0916-3.7153-11.293-5.2039.395-.7368,4.5446-4.6826,22.9051-5.2381l.0017-.0017a36.83908,36.83908,0,0,0,2.9178-3.5189c1.8394-2.7153,7.9533-15.9327,7.7283-16.0186a32.60041,32.60041,0,0,1-12.4878,13.099c-1.3154.7915-22.2539,3.5035-22.2179,2.2875C731.33638,69.9001,729.14078,75.0986,726.53208,77.1749Z" transform="translate(-638.06481 -51.9951)" fill="#8e3d9c" opacity="0.5" style="mix-blend-mode: multiply"/>
            <path d="M757.84268,64.048c-1.2549,1.3779-5.8216,7.3864-5.5815,7.4242a9.127,9.127,0,0,0,4.594-.6087c2.7279-1.9716,6.39882-8.8542,7.7794-12.1578C765.43608,56.7879,759.00468,62.7722,757.84268,64.048Z" transform="translate(-638.06481 -51.9951)" fill="#d42f55" opacity="0.5" style="mix-blend-mode: multiply"/>
            <path d="M757.41338,79.6412c-.5125.5912-3.9132,8.4703-2.907,8.0671s6.9984-7.6997,8.5011-12.1652C763.38408,74.4239,758.30068,78.6174,757.41338,79.6412Z" transform="translate(-638.06481 -51.9951)" fill="#d42f55" opacity="0.5" style="mix-blend-mode: multiply"/>
            <path d="M755.696,92.3452c-.04642.4093-6.32112,6.1001-7.00482,6.7137-.9917.8901-9.7941,6.9884-9.5036,5.2958.5252-3.0595,1.321-6.7315,2.6082-7.9116C742.753,95.5655,755.75608,91.8148,755.696,92.3452Z" transform="translate(-638.06481 -51.9951)" fill="#d42f55" opacity="0.5" style="mix-blend-mode: multiply"/>
            <path d="M755.07078,65.1532c-4.5364,1.3041-20.3223,2.8364-21.5836,2.547-1.0645-.2442,29.3463-8.9742,27.4015-6.929A28.50017,28.50017,0,0,1,755.07078,65.1532Z" transform="translate(-638.06481 -51.9951)" fill="#da0553" opacity="0.2" style="mix-blend-mode: multiply"/>
            <path d="M732.76658,69.2302c3.9031-1.7895,22.9878-3.8893,22.9315-3.4769-.1288.9446-3.7764,5.4134-4.2956,5.636-.8322.3568-6.4657-.6546-22.7858,5.2704C728.02118,76.8759,730.99488,70.0425,732.76658,69.2302Z" transform="translate(-638.06481 -51.9951)" fill="#da0553" opacity="0.2" style="mix-blend-mode: multiply"/>
            <path d="M726.53178,77.1749l6.6309,3.5069,4.8568,24.0865c1.659.1202,6.1362-2.3837,10.033-4.8551,0,0,.8896-5.5534,1.0441-7.233.1546-1.6779-1.7265-7.2876-1.7265-7.2876s3.2051-3.873,3.1018-4.691c-.3575-2.8321-8.1677-7.9238-8.1677-7.9238S728.81078,75.3614,726.53178,77.1749Z" transform="translate(-638.06481 -51.9951)" fill="#b839b6" opacity="0.5" style="mix-blend-mode: multiply"/>
          </g>
        </g>
        <g>
          <path d="M743.178,170.6816c-7.97182.1738-15.62732-9.4415-15.62732-9.4415v-2.9522a11.80534,11.80534,0,0,1-1.3529-.2086c-4.6749-.9989-5.8822-4.4252-5.8822-4.4252v-3.2873c-6.8118-5.8128-17.6408-9.1474-17.6408-9.1474-10.96478.6321-25.6976,15.1625-25.6976,15.1625l-.9325,3.8025c-4.7286,6.5335-13.1395,10.4972-13.1395,10.4972l.6825-9.9852.3004-4.3619,5.775-84.3662,68.0464.6924c-.8281,23.4376,3.3791,74.3462,4.91852,91.914C742.96938,168.431,743.178,170.6816,743.178,170.6816Z" transform="translate(-638.06481 -51.9951)" fill="url(#_638)"/>
          <path d="M743.178,170.6816c-7.97182.1738-15.62732-9.4415-15.62732-9.4415v-2.9522a11.80534,11.80534,0,0,1-1.3529-.2086c-4.6749-.9989-5.8822-4.4252-5.8822-4.4252v-3.2873c-6.8118-5.8128-17.6408-9.1474-17.6408-9.1474-10.96478.6321-25.6976,15.1625-25.6976,15.1625l-.9325,3.8025c-4.7286,6.5335-13.1395,10.4972-13.1395,10.4972l.6825-9.9852s7.1632-.8723,12.456-9.4066c0,0,13.0839-13.0765,25.9736-15.9149,0,0,12.17572,5.3514,18.5385,9.5805v2.9081s1.67522,6.3848,7.6017,5.642v2.2095s4.8963,8.6512,14.47052,8.8597C742.96938,168.431,743.178,170.6816,743.178,170.6816Z" transform="translate(-638.06481 -51.9951)" fill="url(#_1274)"/>
          <path d="M743.178,170.6817s-6.80842-50.0173-8.79352-51.0129c-1.9882-.9957-6.8338,38.6192-6.8338,38.6192a11.80534,11.80534,0,0,1-1.3529-.2086s-1.536-29.5129-3.3569-29.4022c-1.8237.1106-2.5253,21.6897-2.5253,21.6897-6.8118-5.8128-17.6408-9.1474-17.6408-9.1474-10.96478.6321-25.6976,15.1625-25.6976,15.1625-1.8965-25.4797-5.9856-25.1699-6.6178-24.6895-.6321.4805-6.4395,24.6895-6.4395,24.6895s-.0096-.0158-.0318-.0474l5.775-84.366,68.0464.6922C736.70138,101.2442,743.178,170.6817,743.178,170.6817Z" transform="translate(-638.06481 -51.9951)" fill="#8e3d9c" opacity="0.5" style="mix-blend-mode: multiply"/>
        </g>
        <g>
          <path d="M719.15608,114.9348c-2.02708,6.6768-3.2375,19.1489-3.9915,29.8603-.20758,2.9594-.382,5.7836-.5289,8.3141v.002c-.3544,6.1165-.5503,10.5214-.6952,10.9699-.4153,1.2789-9.6577,11.7083-12.6288,12.9892v.0685c-.0295-.0098-.0588-.0215-.0882-.0333-.0294.0118-.0607.0235-.0881.0333v-.0685c-2.319-.9989-8.4493-7.5621-11.2343-11.0091v-.002a10.72041,10.72041,0,0,1-1.3965-1.9781c-.145-.4485-.3408-4.8514-.6953-10.968v-.0019c-.188-3.2493-.4191-6.9823-.7129-10.8603-.7638-10.0846-1.9371-21.1623-3.8075-27.3161l17.34312,2.2974.59148.0784,10.4509-1.3848Z" transform="translate(-638.06481 -51.9951)" fill="url(#_638-2)"/>
          <path d="M714.63568,153.1112c-.3544,6.1165-.5503,10.5214-.6952,10.9699-.4153,1.2789-9.6577,11.7083-12.6288,12.9892v.0685c-.0295-.0098-.0588-.0215-.0882-.0333-.0294.0118-.0607.0235-.0881.0333v-.0685c-2.9731-1.2809-12.2156-11.7103-12.6308-12.9892-.145-.4485-.3408-4.8514-.6953-10.968,6.63172,12.5348,13.3966,17.0395,13.3966,17.0395S711.13378,162.1186,714.63568,153.1112Z" transform="translate(-638.06481 -51.9951)" fill="url(#_192)"/>
          <path d="M719.15608,114.9348c-2.5873,8.5218-3.8427,26.4779-4.5204,38.1744v.002c-.3544,6.1165-.5503,10.5214-.6952,10.9699-.4153,1.2789-9.6577,11.7083-12.6288,12.9892a249.17588,249.17588,0,0,0-4.08768-25.0799c-1.02222-4.292-6.86622-9.2507-7.03832-8.2561-.2813,1.6254-1.30168,8.3016-.2846,22.3249a10.72041,10.72041,0,0,1-1.3965-1.9781c-.145-.4485-.3408-4.8514-.6953-10.968v-.0019c-.6757-11.6966-1.9311-29.6546-4.5204-38.1764l17.34312,2.2974c3.14348,3.0985,4.21888,4.4103,4.21888,16.4171,0,8.1488,2.1954,24.6383,2.1954,24.6383,5.2235-10.6134,4.7789-36.9267,4.6281-42.3618Z" transform="translate(-638.06481 -51.9951)" opacity="0.8" fill="url(#_1284)" style="mix-blend-mode: multiply"/>
        </g>
        <g>
          <path d="M742.82488,85.3877c-3.2254,12.1261-5.5607,25.6703-11.1348,36.7339-3.34908,6.6475-10.5383,12.0557-16.1423,16.9178-4.1141,3.5693-8.32178,7.0416-12.6431,10.3581-9.7682-7.4386-21.43468-15.6696-28.24968-26.0233h-.00192a12.75563,12.75563,0,0,1-.7242-1.2525c-5.5178-11.2202-7.9113-24.6161-11.1345-36.734a41.58582,41.58582,0,0,1,1.2132-11.7399q38.90745-1.29435,77.8225.0075A45.66639,45.66639,0,0,1,742.82488,85.3877Z" transform="translate(-638.06481 -51.9951)" fill="url(#_27)"/>
          <path d="M742.82488,85.3877c-3.2254,12.1261-5.6503,25.4024-11.1348,36.7339-.1434-8.3915,2.749-17.5363,4.5444-25.6583q2.5344-11.4657,5.5956-22.808A45.66639,45.66639,0,0,1,742.82488,85.3877Z" transform="translate(-638.06481 -51.9951)" fill="#d42f55" opacity="0.7" style="mix-blend-mode: multiply"/>
          <path d="M702.90548,149.3969c-.40248-.1776-.7396-10.2432,1.7009-13.1926,3.1633-3.8228,9.3164-6.7483,13.9972-9.4808,2.0703-1.2084,12.4365-6.6552,12.9386-5.1301.4477,1.3598-3.7969,6.2239-5.5215,8.0113-3.0812,3.1936-6.8675,6.2345-10.1814,9.1828C711.228,142.8901,702.90548,149.3969,702.90548,149.3969Z" transform="translate(-638.06481 -51.9951)" fill="#b30053" opacity="0.3" style="mix-blend-mode: multiply"/>
          <path d="M674.655,123.3742h-.00192a12.75563,12.75563,0,0,1-.7242-1.2525c-5.5178-11.2202-7.9113-24.6161-11.1345-36.734a41.58582,41.58582,0,0,1,1.2132-11.7399c1.377-.0477,2.0657-.0704,3.4427-.1137C669.40608,90.0416,670.45708,107.25,674.655,123.3742Z" transform="translate(-638.06481 -51.9951)" fill="#d42f55" opacity="0.7" style="mix-blend-mode: multiply"/>
          <path d="M734.04708,76.0363a89.37991,89.37991,0,0,0-8.28208-6.5259l-.00582-.0041a80.71882,80.71882,0,0,0-20.8274-9.7311h-.0021c-.6483-.1902-1.2288-.3494-1.7346-.48-.1094-.029-.1642-.0434-.2738-.0723-.1088.0289-.163.0433-.2717.0723a75.19109,75.19109,0,0,0-30.8605,16.736c-.14108.1302-.2116.1954-.3525.3256l.0618.4853c.06062.4735.1267.9814.1981,1.5189.599,4.5072,1.2717,9.0445,2.04352,13.5128,1.40778,8.1501,2.59158,17.8227,6.83408,25.1939l.0196.032.0214.03c3.2046,4.078,8.16,7.0834,12.3251,9.9867,1.5164,1.057,3.0363,2.0693,4.4443,2.9989q2.517,1.66155,5.0766,3.2679c.1781.1122.267.1683.4451.2801.1786-.112.2681-.168.447-.2802.0687-.0421.1377-.087.2082-.1322,3.1075-1.991,6.2758-4.0317,9.3143-6.1361,4.1732-2.8903,9.1237-5.8982,12.3281-9.9874l.0213-.03.0198-.0319c4.2424-7.3775,5.4277-17.0335,6.8416-25.1899.68652-3.9599,1.3-7.9707,1.8437-11.9694.1533-1.1277.2906-2.1557.4053-3.059.02552-.1942.0383-.2911.0639-.4851C734.25858,76.2317,734.18808,76.1667,734.04708,76.0363Zm-5.7908,15.3514c-1.2649,7.6537-2.3342,16.4853-6.0347,23.5068-3.1603,3.5169-7.4193,6.2175-11.25158,8.8536-2.63532,1.8127-5.34242,3.588-8.06332,5.3084-2.7199-1.7196-5.4253-3.4949-8.0598-5.3071-3.8313-2.6356-8.0652-5.3569-11.249-8.8532-3.7054-7.0368-4.7605-15.8344-6.0253-23.5102-.7284-4.421-1.3631-8.9002-1.9038-13.3705a72.33431,72.33431,0,0,1,27.2513-14.6287,72.31443,72.31443,0,0,1,27.246,14.6329C729.61668,82.4886,728.98678,86.9676,728.25628,91.3877Z" transform="translate(-638.06481 -51.9951)" fill="url(#_27-2)"/>
          <path d="M730.16608,78.0197c-.5494,4.4689-1.1793,8.9479-1.9098,13.368-1.2649,7.6537-2.3342,16.4853-6.0347,23.5068-2.92658,4.3319-7.0843,7.6872-11.2722,10.6165-2.6001,1.8186-5.32838,3.5897-8.0429,5.31-2.7136-1.7196-5.4403-3.4905-8.03948-5.3087-4.19042-2.931-8.33862-6.2845-11.26912-10.6161-3.3373-6.3476-4.3654-14.1578-5.6156-21.0878l-.0021-.002c-.134-.7791-.2726-1.5875-.4076-2.4204-.7188-4.4344-1.3631-8.9002-1.9038-13.3705a54.2734,54.2734,0,0,1,4.91622-3.9131,74.38654,74.38654,0,0,1,19.24688-9.7742c1.1736-.3866,2.21712-.7005,3.0882-.9414a75.638,75.638,0,0,1,9.8181,3.5562A71.49733,71.49733,0,0,1,730.16608,78.0197Z" transform="translate(-638.06481 -51.9951)" fill="url(#_26)"/>
          <path d="M733.33848,76.7711c-1.2729.4964-1.9074.7462-3.1724,1.2486a72.31443,72.31443,0,0,0-27.246-14.6329c.0004-1.2496.0005-1.8745.00092-3.1243.80238-.196,1.20418-.2934,2.00868-.4873h.0021a80.71882,80.71882,0,0,1,20.8274,9.7311l.00582.0041Q729.57557,73.1158,733.33848,76.7711Z" transform="translate(-638.06481 -51.9951)" opacity="0.5" fill="url(#_105)" style="mix-blend-mode: multiply"/>
          <path d="M733.93018,79.9062c-.542,4.001-1.1571,8.0096-1.8437,11.9694-1.414,8.1565-2.5992,17.8124-6.8416,25.1899l-.0198.0319-.0213.03c-3.2044,4.0892-8.1549,7.0969-12.3281,9.9874-3.0385,2.1044-6.1669,4.1539-9.3143,6.1361-.2618-.295-.3928-.4425-.6551-.7376.0001-.6765.0001-1.0149.0002-1.6916,2.7146-1.7201,5.4429-3.4913,8.0428-5.3099,4.1881-2.9295,8.3458-6.285,11.2723-10.6173,3.7005-7.0215,4.7699-15.8532,6.0347-23.5068.7304-4.4202,1.3604-8.8991,1.9098-13.368,1.265-.5024,1.8995-.7522,3.1724-1.2486C733.57628,78.026,733.69448,78.653,733.93018,79.9062Z" transform="translate(-638.06481 -51.9951)" fill="url(#_1904)"/>
          <path d="M741.80808,73.6309c-.6324-.6768-1.3212-1.3402-1.9989-1.9848-.0921-.0876-.188-.1761-.2878-.2683A84.40954,84.40954,0,0,0,729.506,63.6381a10.37058,10.37058,0,0,1-2.89322-1.3719,11.88067,11.88067,0,0,1-2.2766-1.7262l-.002-.002a97.77186,97.77186,0,0,0-19.63-8.0748c-.0526-.0145-.1069-.03-.1615-.0446-.7744-.2071-1.30168-.3472-1.51268-.3974-.02122-.004-.04252-.0101-.06392-.0141l-.0426-.012-.0169.004c-.0107.002-.0299.006-.0511.012-13.9779,3.4411-27.98948,10.6656-38.127,20.8956q-.3624.3657-.7209.7411l.0207.1565c.0485.3916.1952,1.5053.4296,3.1472l.0053.0353c1.0336,7.2087,2.23582,14.4035,3.7349,21.5306,1.5532,7.3842,3.0507,15.7459,7.0156,22.1119,3.3278,5.3432,10.2574,9.3411,15.3887,12.9198,4.0298,2.8104,8.12862,5.5299,12.3029,8.1217,4.1752-2.593,8.27472-5.3131,12.3056-8.1244,5.1226-3.5727,12.0714-7.5931,15.3913-12.9205,3.9701-6.371,5.4736-14.7165,7.0254-22.1075,1.4962-7.1269,2.7078-14.3177,3.745-21.525l.0053-.0352c.2354-1.6416.3826-2.7549.4316-3.1465l.0206-.1564Zm-10.677,18.1221c-1.3717,8.0149-2.4963,17.5518-6.6609,24.8065-3.2101,3.9417-7.973,6.8819-12.0703,9.7143-3.0973,2.1413-6.2855,4.2243-9.4936,6.2395-3.2108-2.0072-6.3942-4.0973-9.49-6.2379-4.0665-2.8119-8.8799-5.7815-12.0674-9.7138-4.1643-7.2482-5.285-16.801-6.6514-24.8105-.8452-4.9546-1.5734-9.974-2.2002-14.985A74.37784,74.37784,0,0,1,702.921,60.2625a74.54292,74.54292,0,0,1,30.41748,16.5086C732.70918,81.7811,731.97888,86.7998,731.13108,91.753Z" transform="translate(-638.06481 -51.9951)" fill="url(#_1866-3)"/>
          <path d="M741.11028,73.6892c-.8448-2.8769-10.18-8.5206-15.3109-11.6453-6.8355-4.1633-19.43738-10.0484-22.6182-9.6002a2.245,2.245,0,0,1-.3793,0c-3.1806-.4482-15.9573,4.7689-22.7927,8.9322-5.1309,3.1246-14.2916,9.4364-15.1384,12.3133-.7004,2.3877.7995,10.0507,1.5299,10.055a25.35316,25.35316,0,0,0,5.8895-2.086c.4289-.2176-.3469-4.3897.20682-4.8917,10.35238-9.4021,20.94318-13.7151,29.25188-16.504a2.19672,2.19672,0,0,1,1.7599-.1049c6.5266,2.4876,19.6249,7.2068,29.9773,16.6089.55392.502-.2219,4.6741.2068,4.8917a25.32162,25.32162,0,0,0,5.8895,2.086C740.313,83.7399,741.81278,76.0769,741.11028,73.6892Z" transform="translate(-638.06481 -51.9951)" fill="#fff" style="mix-blend-mode: soft-light"/>
          <path d="M730.09038,78.0197c-.5495,4.4689-1.17938,8.9479-1.9099,13.368-1.2649,7.6537-2.3341,16.4853-6.0347,23.5068-2.9265,4.3323-7.0841,7.6878-11.2722,10.6173-2.6,1.8186-5.3283,3.5898-8.0429,5.3099.0574-11.2299.1066-22.4631.0067-33.6916-.1001-11.2371-.323-22.5058.0069-33.7433A72.31484,72.31484,0,0,1,730.09038,78.0197Z" transform="translate(-638.06481 -51.9951)" fill="#e6006a" opacity="0.3" style="mix-blend-mode: multiply"/>
          <path d="M730.16608,78.0197c-.5494,4.4689-1.1793,8.9479-1.9098,13.368-1.2649,7.6537-2.3342,16.4853-6.0347,23.5068-2.92658,4.3319-7.0843,7.6872-11.2722,10.6165-2.6001,1.8186-5.32838,3.5897-8.0429,5.31-2.7136-1.7196-5.4403-3.4905-8.03948-5.3087-4.19042-2.931-8.33862-6.2845-11.26912-10.6161-3.3373-6.3476-4.3654-14.1578-5.6156-21.0878l-.0021-.002c-.134-.7791-.2726-1.5875-.4076-2.4204-.7188-4.4344-1.3631-8.9002-1.9038-13.3705a58.05552,58.05552,0,0,1,4.91622-3.9131l.08268-.0415a10.501,10.501,0,0,0-3.6859,4.4781c-1.2559,3.7317,2.0748,18.3119,3.0616,22.744,1.32462,5.9477,17.2474-2.5668,22.1602-2.8289,4.8057-.2563,19.4283,11.0421,21.87142,6.5569,6.20488-11.391,1.75668-29.9283-11.35932-38.0682l.0225.0002A73.49747,73.49747,0,0,1,730.16608,78.0197Z" transform="translate(-638.06481 -51.9951)" opacity="0.8" fill="url(#_1962)" style="mix-blend-mode: multiply"/>
          <path d="M672.67838,78.0809c1.2008.948,3.276,2.2121,3.276,2.2121,3.1914-6.5375,11.3641-9.589,17.8058-11.0209,7.3925-1.6433,15.9105,2.4153,22.30582,6.0011,4.33548,2.4308,10.29058,5.5621,13.15808,9.8215,1.3214-.9722,1.9858-1.4564,3.3225-2.4207.3103-2.3619.4685-3.5426.7919-5.9029C718.12928,63.404,702.921,60.2625,702.921,60.2625s-17.62972,4.5111-30.42372,16.5036C672.57018,77.2919,672.60628,77.5549,672.67838,78.0809Z" transform="translate(-638.06481 -51.9951)" fill="#d42f55" opacity="0.5" style="mix-blend-mode: multiply"/>
          <path d="M739.13708,84.3648c-1.2288-.628-5.5916-1.569-6.2755.185-.4158,1.0665-1.4764,7.2286-2.1871,11.1538-1.383,7.6381-2.5496,8.9441-3.486,13.0782-.3518,1.5535,6.2514,1.4607,7.2109.7957.7391-.5121,1.0649-1.9735,2.2477-7.6654.9957-4.7913,2.1822-9.6157,2.869-14.4733C739.71258,86.0493,739.92888,84.7694,739.13708,84.3648Z" transform="translate(-638.06481 -51.9951)" opacity="0.8" fill="url(#_1925)" style="mix-blend-mode: multiply"/>
          <path d="M672.49728,82.8155c-.5388-.4139-5.5401.8061-6.1017,1.7731-.603,1.0381.83842,8.5908,1.6327,12.3969,1.5723,7.5341,2.7868,11.9305,3.4083,12.9529,1.37042,2.2542,8.1149,2.4776,7.5059.4293-1.0858-3.6518-2.1731-5.129-3.2737-11.9136C674.93858,93.9526,673.46238,83.557,672.49728,82.8155Z" transform="translate(-638.06481 -51.9951)" opacity="0.8" fill="url(#_1925-2)" style="mix-blend-mode: multiply"/>
          <path d="M703.85718,147.7969c-.4784.0887-.5403-5.4824-.3101-5.7911,2.31292-3.1025,11.8672-7.1493,9.1703-1.1871C711.91978,142.582,705.55878,147.4813,703.85718,147.7969Z" transform="translate(-638.06481 -51.9951)" fill="#b30053" opacity="0.3" style="mix-blend-mode: multiply"/>
          <path d="M725.52418,125.8142c.7952-.8514-.7518-7.7051-1.4717-7.2578-1.1018.6847-20.7477,13.9321-21.1336,14.4417-.8601,1.1355-.1025,7.7579.267,7.8194C704.04238,140.9602,722.95418,128.5659,725.52418,125.8142Z" transform="translate(-638.06481 -51.9951)" fill="#fff" style="mix-blend-mode: soft-light"/>
          <path d="M693.15688,63.3868c1.1815-.5184.2848-8.3122-.9996-7.8598-10.4934,3.6959-21.2295,11.9761-21.20328,12.3308.03618.4899,6.392,3.6758,9.03948,2.4641C681.93628,69.4327,688.02088,65.6402,693.15688,63.3868Z" transform="translate(-638.06481 -51.9951)" fill="#fff" style="mix-blend-mode: soft-light"/>
          <path d="M741.83008,73.6553l-.0206.1564c-.1746,1.2584-.261,1.8877-.4316,3.1465l-.0053.0352c1.2591-5.8106-7.761-9.3541-12.4762-12.8203-1.3728-1.009-2.8505-1.998-4.3269-2.9047-6.196-3.805-13.3378-7.0724-20.6394-7.8835-5.4432-.6047-16.3242,3.9669-23.0015,7.5629-5.3909,2.9032-15.4225,9.9845-16.7597,13.877-.0022-.0141.29112,2.1408.289,2.1267-.1698-1.259-.2557-1.8886-.4296-3.1472l-.0207-.1565c.2383-.2501.4793-.5015.7209-.7411a81.8711,81.8711,0,0,1,38.127-20.8956c.0212-.006.0404-.01.0511-.012l.0169-.004.0426.012c.0214.004.0427.0101.06392.0141.50908.1287,1.01548.2656,1.51268.3974.0547.0145.1089.0301.1615.0446a97.58471,97.58471,0,0,1,19.63,8.0748l.002.002a11.86643,11.86643,0,0,0,2.2766,1.7262,10.378,10.378,0,0,0,2.89322,1.3719,84.80536,84.80536,0,0,1,10.01538,7.7397q.1497.1383.2878.2683c1.1899,1.1242,1.874,1.8467,1.9989,1.9848Z" transform="translate(-638.06481 -51.9951)" fill="#d42f55" opacity="0.8" style="mix-blend-mode: multiply"/>
          <path d="M688.56788,122.8078s12.18512,10.4436,14.2353,10.4436c1.9365,0,13.0361-9.3185,13.0361-9.3185-.007-.0091-11.489,7.3492-12.8778,7.5341C700.053,131.8545,688.56788,122.8078,688.56788,122.8078Z" transform="translate(-638.06481 -51.9951)" fill="#fff"/>
          <path d="M730.85738,93.3857c.1374.0309-6.3872,23.1738-6.3872,23.1738a63.379,63.379,0,0,0,4.9974-12.292A90.81868,90.81868,0,0,0,730.85738,93.3857Z" transform="translate(-638.06481 -51.9951)" fill="#fff"/>
          <path d="M674.91808,93.067c-.1374.0308,5.9256,22.5754,5.9256,22.5754.0948-.0437-3.511-6.6916-4.751-11.3749C675.26788,101.1521,674.91808,93.067,674.91808,93.067Z" transform="translate(-638.06481 -51.9951)" fill="#fff"/>
          <path d="M696.07178,133.2256c3.7935.1844,1.3787-2.4079-.12678-3.3887-1.419-.9243-5.62622-2.3372-5.89692-1.844C689.61758,128.7773,693.54678,133.1029,696.07178,133.2256Z" transform="translate(-638.06481 -51.9951)" fill="#ee9c50" opacity="0.2" style="mix-blend-mode: multiply"/>
          <path d="M696.93228,134.7468c-2.3738-.9598-3.20428-1.2923-2.0715.5882S698.462,135.3653,696.93228,134.7468Z" transform="translate(-638.06481 -51.9951)" fill="#ee9c50" opacity="0.2" style="mix-blend-mode: multiply"/>
          <path d="M683.87208,128.6651c-.5567.9796,2.4174,5.8972,4.87492,3.2989C689.17358,131.513,684.29028,127.9294,683.87208,128.6651Z" transform="translate(-638.06481 -51.9951)" fill="url(#_108)"/>
          <path d="M683.94828,129.009c-.1441.7406.9373,2.7267,1.6343,2.8384.6971.1117,2.1248-1.1253.7062-2.026C684.70658,128.817,684.05688,128.451,683.94828,129.009Z" transform="translate(-638.06481 -51.9951)" fill="#d42f55" opacity="0.5" style="mix-blend-mode: multiply"/>
          <path d="M685.92618,132.3634c1.9555,1.1161,3.3905.5722,3.1656-.1952a1.49366,1.49366,0,0,0-.8244-.9863s.587.4568.2715.9147C688.22328,132.5543,685.92618,132.3634,685.92618,132.3634Z" transform="translate(-638.06481 -51.9951)" fill="#fff"/>
          <path d="M729.506,63.6381a5.74185,5.74185,0,0,1-.60962.535c-2.1868,1.5889-4.8041-.2-4.8213-2.7426a1.47819,1.47819,0,0,1,.2611-.8905,11.86643,11.86643,0,0,0,2.2766,1.7262A10.378,10.378,0,0,0,729.506,63.6381Z" transform="translate(-638.06481 -51.9951)" fill="url(#_108-2)"/>
          <path d="M724.23088,60.7191c-.2276.6932.006,2.7855.8432,3.093.8372.3076,1.3404-1.1531,1.1127-1.506C725.95908,61.9533,724.34988,60.3571,724.23088,60.7191Z" transform="translate(-638.06481 -51.9951)" fill="#d42f55" opacity="0.5" style="mix-blend-mode: multiply"/>
          <path d="M725.02,63.9785s1.63538,1.5749,4.17788-.0535a2.02,2.02,0,0,1-2.089,1.5536C726.13668,65.4822,725.02,63.9785,725.02,63.9785Z" transform="translate(-638.06481 -51.9951)" fill="#fff"/>
          <path d="M703.08868,53.0643c-.3615,2.1815-.4958,5.9872.31232,6.7109.80808.7236,11.52888,4.4948,11.85218,4.4948.3232,0,1.29582-6.9497-.3233-7.9194C713.31088,55.3809,703.312,51.7171,703.08868,53.0643Z" transform="translate(-638.06481 -51.9951)" fill="#da0553" opacity="0.2" style="mix-blend-mode: multiply"/>
        </g>
        <g>
          <path d="M738.72758,124.2637a18.95144,18.95144,0,0,1-2.8098,2.6694c-3.0095,2.0934-9.7974,2.6716-9.7974,2.6716l.9932-4.8247Z" transform="translate(-638.06481 -51.9951)" fill="url(#_1932)"/>
          <path d="M733.159,115.5172c5.26188,2.1757,6.19288,8.2654,5.56858,8.7465-4.737,3.6501-11.614.5163-11.614.5163s-2.3069-6.8049-1.3679-8.2205C726.57758,115.3052,733.159,115.5172,733.159,115.5172Z" transform="translate(-638.06481 -51.9951)" fill="url(#_1909)"/>
          <path d="M737.92488,124.4231c.80612-.628-11.5584-7.8407-12.1792-7.4614s.3747,6.9821,1.9411,7.889C728.18568,125.1395,734.25248,127.2839,737.92488,124.4231Z" transform="translate(-638.06481 -51.9951)" fill="#b839b6" opacity="0.5" style="mix-blend-mode: multiply"/>
          <path d="M738.52618,123.836c.4237-.305.2857-4.575-4.1268-7.5725-1.8588-1.2627-8.4272-.1752-8.279-.0191C726.26868,116.4005,738.10558,124.1389,738.52618,123.836Z" transform="translate(-638.06481 -51.9951)" fill="#fff" style="mix-blend-mode: soft-light"/>
        </g>
        <g>
          <path d="M666.85328,124.2637a18.95871,18.95871,0,0,0,2.80972,2.6694c3.00948,2.0934,9.79748,2.6716,9.79748,2.6716l-.9932-4.8247Z" transform="translate(-638.06481 -51.9951)" fill="url(#_1932-2)"/>
          <path d="M672.42188,115.5172c-5.26188,2.1757-6.193,8.2654-5.5686,8.7465,4.737,3.6501,11.614.5163,11.614.5163s2.3068-6.8049,1.3679-8.2205C679.00328,115.3052,672.42188,115.5172,672.42188,115.5172Z" transform="translate(-638.06481 -51.9951)" fill="url(#_1909-2)"/>
          <path d="M667.656,124.4231c-.80612-.628,11.55838-7.8407,12.17918-7.4614s-.3747,6.9821-1.94118,7.889C677.39518,125.1395,671.32828,127.2839,667.656,124.4231Z" transform="translate(-638.06481 -51.9951)" fill="#b839b6" opacity="0.5" style="mix-blend-mode: multiply"/>
          <path d="M667.05458,123.836c-.42358-.305-.28558-4.575,4.1269-7.5725,1.8588-1.2627,8.4272-.1752,8.279-.0191C679.31218,116.4005,667.47528,124.1389,667.05458,123.836Z" transform="translate(-638.06481 -51.9951)" fill="#fff" style="mix-blend-mode: soft-light"/>
        </g>
        <g>
          <path d="M750.63638,79.4448a18.94928,18.94928,0,0,1-1.4992,3.5739c-1.9137,3.1268-7.2696,6.3858-7.2696,6.3858l-1.6573-4.8169Z" transform="translate(-638.06481 -51.9951)" fill="url(#_1932-3)"/>
          <path d="M742.02068,73.6758c5.6927-.1239,8.9939,5.0774,8.6157,5.769-2.86938,5.2468-10.4261,5.1428-10.4261,5.1428s-4.8484-5.3028-4.558-6.9766C735.90958,76.1282,742.02068,73.6758,742.02068,73.6758Z" transform="translate(-638.06481 -51.9951)" fill="url(#_1909-3)"/>
          <path d="M749.96558,79.9135c.4855-.8991-13.7357-2.5311-14.1515-1.9342-.4159.5969,3.1506,6.2421,4.9495,6.4425C741.33648,84.4857,747.75348,84.0096,749.96558,79.9135Z" transform="translate(-638.06481 -51.9951)" fill="#da0553" opacity="0.2" style="mix-blend-mode: multiply"/>
          <path d="M750.28008,79.1342c.2652-.4496-1.5782-4.3037-6.8235-5.2739-2.2097-.4087-7.7864,3.2283-7.5879,3.3116S750.01668,79.5806,750.28008,79.1342Z" transform="translate(-638.06481 -51.9951)" fill="#fff" style="mix-blend-mode: soft-light"/>
        </g>
        <g>
          <path d="M655.44688,79.4448a18.9508,18.9508,0,0,0,1.4992,3.5739c1.9137,3.1268,6.7433,5.9206,6.7433,5.9206l2.1835-4.3517Z" transform="translate(-638.06481 -51.9951)" fill="url(#_1932-4)"/>
          <path d="M664.06258,73.6758c-5.6927-.1239-8.9939,5.0774-8.6157,5.769,2.8694,5.2468,10.426,5.1428,10.426,5.1428s4.8485-5.3028,4.55812-6.9766C670.17368,76.1282,664.06258,73.6758,664.06258,73.6758Z" transform="translate(-638.06481 -51.9951)" fill="url(#_1909-4)"/>
          <path d="M656.11768,79.9135c-.4855-.8991,13.7357-2.5311,14.1515-1.9342.4159.5969-3.1506,6.2421-4.9495,6.4425C664.74678,84.4857,658.32968,84.0096,656.11768,79.9135Z" transform="translate(-638.06481 -51.9951)" fill="#da0553" opacity="0.2" style="mix-blend-mode: multiply"/>
          <path d="M655.80318,79.1342c-.26518-.4496,1.5782-4.3037,6.8235-5.2739,2.2097-.4087,7.7864,3.2283,7.5879,3.3116C670.016,77.2552,656.06658,79.5806,655.80318,79.1342Z" transform="translate(-638.06481 -51.9951)" fill="#fff" style="mix-blend-mode: soft-light"/>
        </g>
        <g>
          <path d="M688.69688,119.0879a1.78609,1.78609,0,0,1-1.1562-.3555c-1.7178-1.3809-.0201-6.9567.9894-13.7724.1214-.8197-4.7494-1.1698-4.7259-1.576-.28018-.4294,2.59982-4.1367,2.1736-4.5371-3.9921-3.7509-8.4075-7.1593-7.9765-9.2162.3603-1.7233,4.6848-2.4043,12.1561-3.1342,1.2043-.1176-.2525-4.7595.45562-5.5884,1.44688-.5747,5.43008,1.0387,5.84178.1756,2.8294-5.9321,4.0103-9.5534,6.3394-9.5534a1.61982,1.61982,0,0,1,.7656.2074l.06722.0351c2.05618,1.1711,3.33028,3.9393,5.57558,9.3109.3445.8241,3.7065-1.0764,4.56842-.5915,1.20808.5915.01658,5.4344.79138,5.5489,6.1947.9159,11.8971,1.4924,12.9583,3.419a1.06258,1.06258,0,0,1,.1402.5015c.1004,1.4304-2.3687,3.5908-6.4475,6.9774-1.9419,1.6123.128,5.0592-.0078,5.7034-.4485,1.3566-4.3498,1.0389-3.9545,2.8152,1.4104,6.3343,2.4536,11.702.9266,13.2319a1.495,1.495,0,0,1-1.1032.3933c-2.0602,0-6.6436-2.5233-11.2607-5.4969-.5061-.3259-1.7759,3.2492-3.0576,2.9736-.7011.2756-2.1635-3.4911-2.8148-3.0494-4.4967,3.0494-8.9251,5.5407-11.19,5.5775Z" transform="translate(-638.06481 -51.9951)" fill="url(#_1899)"/>
          <g>
            <path d="M720.69828,102.4297l-.0027.0037c-.8822,1.4494-10.8751,1.0402-11.7211,2.0743-.8269,1.0112-4.0166,10.7359-6.1528,11.099-1.7384.2971-5.5369-10.3671-6.073-10.7951l-.0055-.0039c-.47818-.3393-9.6076-.1807-11.69918-1.614l-.00182-.0013a.92006.92006,0,0,1-.4009-.4839c-.5739-2.0133,7.9421-8.5546,8.3449-9.3163.4041-.7635-3.3401-10.5664-1.7291-12.0574,1.3356-1.2372,10.4333,5.0291,11.26992,4.9935.83808-.0372,9.22708-6.5619,11.08378-5.2446a.7854.7854,0,0,1,.2485.3224l.0044.0058c.9811,2.1001-1.53568,11.2802-1.54,11.9511-.0043.7185,8.6968,6.5742,8.4334,8.9007A.35325.35325,0,0,1,720.69828,102.4297Z" transform="translate(-638.06481 -51.9951)" fill="url(#_1851)"/>
            <path d="M702.94228,96.0975l-9.9561-2.7053c.4041-.7635-3.3401-10.5664-1.7291-12.0574Z" transform="translate(-638.06481 -51.9951)" fill="#da0553" opacity="0.2" style="mix-blend-mode: multiply"/>
            <path d="M712.32368,93.363l-9.3814,2.7345,10.6685-15.0138.2485.3224.0044.0058C714.84478,83.512,712.328,92.6921,712.32368,93.363Z" transform="translate(-638.06481 -51.9951)" fill="#da0553" opacity="0.2" style="mix-blend-mode: multiply"/>
            <path d="M720.69828,102.4297l-.0027.0037c-.8822,1.4494-10.8751,1.0402-11.7211,2.0743l-6.0322-8.4102,17.8148,6.1662Z" transform="translate(-638.06481 -51.9951)" fill="#da0553" opacity="0.2" style="mix-blend-mode: multiply"/>
            <path d="M702.82168,115.6067c-1.7384.2971-5.5369-10.3671-6.073-10.7951l-.0052.0074a.072.072,0,0,0-.0003-.0113l6.1991-8.7102Z" transform="translate(-638.06481 -51.9951)" fill="#da0553" opacity="0.2" style="mix-blend-mode: multiply"/>
            <path d="M702.94228,96.0975l-6.1936,8.7141-.0052.0074a.072.072,0,0,0-.0003-.0113c-.47818-.3393-9.6076-.1807-11.69918-1.614l-.00182-.0013-.4009-.4839Z" transform="translate(-638.06481 -51.9951)" fill="#da0553" opacity="0.2" style="mix-blend-mode: multiply"/>
            <path d="M702.94228,96.0975l-11.6852-14.7627c1.3356-1.2372,10.4333,5.0291,11.26992,4.9935Z" transform="translate(-638.06481 -51.9951)" fill="#fff" style="mix-blend-mode: soft-light"/>
          </g>
          <g>
            <path d="M726.34628,89.6996v.006c.15472,2.1984-10.7391,9.2755-10.858,11.0067-.1161,1.6927,3.8136,14.3921,1.8235,16.3822-1.6183,1.6213-13.6572-6.8211-14.5467-6.8717h-.0089c-.7616,0-10.3138,7.0294-13.6068,7.083h-.0029a1.19446,1.19446,0,0,1-.7883-.2113c-2.1211-1.7015,1.9842-15.0316,1.8383-16.1412-.1457-1.1126-11.4797-8.6834-10.8937-11.4737.485-2.3145,14.8324-2.5138,15.692-3.1802.8598-.6693,4.8431-13.8863,7.8-13.8863a1.02194,1.02194,0,0,1,.5057.1547l.009.0029c2.6177,1.4874,6.851,13.1041,7.3507,13.818.5354.7645,14.1541.4284,15.6236,3.0909A.45956.45956,0,0,1,726.34628,89.6996Z" transform="translate(-638.06481 -51.9951)" fill="url(#_1904-2)"/>
            <path d="M702.777,96.3364l-12.58052,4.6169c-.1457-1.1126-11.4797-8.6834-10.8937-11.4737Z" transform="translate(-638.06481 -51.9951)" fill="#da0553" opacity="0.2" style="mix-blend-mode: multiply"/>
            <path d="M710.66018,86.3887,702.777,96.3364l.01778-23.9233.5057.1547.009.0029C705.92718,74.0581,710.16048,85.6748,710.66018,86.3887Z" transform="translate(-638.06481 -51.9951)" fill="#da0553" opacity="0.2" style="mix-blend-mode: multiply"/>
            <path d="M726.34628,89.6996v.006c.15472,2.1984-10.7391,9.2755-10.858,11.0067L702.777,96.3364l23.50678-6.8568Z" transform="translate(-638.06481 -51.9951)" fill="#da0553" opacity="0.2" style="mix-blend-mode: multiply"/>
            <path d="M717.31178,117.0945c-1.6183,1.6213-13.6572-6.8211-14.5467-6.8717v.0118l-.0089-.0118.02082-13.8864Z" transform="translate(-638.06481 -51.9951)" fill="#da0553" opacity="0.2" style="mix-blend-mode: multiply"/>
            <path d="M702.777,96.3364l-.01192,13.8864v.0118l-.0089-.0118c-.7616,0-10.3138,7.0294-13.6068,7.083h-.0029l-.7883-.2113Z" transform="translate(-638.06481 -51.9951)" fill="#da0553" opacity="0.2" style="mix-blend-mode: multiply"/>
            <path d="M702.777,96.3364l-23.47422-6.8568c.485-2.3145,14.8324-2.5138,15.692-3.1802Z" transform="translate(-638.06481 -51.9951)" fill="#fff" style="mix-blend-mode: soft-light"/>
          </g>
          <path d="M679.30278,89.4796c-3.9432,1.1576,6.9445,22.2483,8.8785,21.2201,1.9339-1.0282,13.0251-12.0405,14.59572-14.3633C702.777,96.3364,681.914,88.713,679.30278,89.4796Z" transform="translate(-638.06481 -51.9951)" fill="#cf1e97" opacity="0.5" style="mix-blend-mode: multiply"/>
          <path d="M726.28928,89.4796c3.9432,1.1576-6.9445,22.2483-8.8784,21.2201-1.934-1.0282-13.0252-12.0405-14.5957-14.3633C702.81518,96.3364,723.67808,88.713,726.28928,89.4796Z" transform="translate(-638.06481 -51.9951)" fill="#cf1e97" opacity="0.5" style="mix-blend-mode: multiply"/>
          <path d="M702.79478,72.4131c-.4785.1097-.0297,37.8097-.0297,37.8097,1.3704.5133,13.1082,8.1537,14.5467,6.8717,2.2914-2.0422-2.1033-14.6762-1.8235-16.3822.2798-1.7059,11.554-9.2326,10.801-11.2327-1.0306-2.7375-14.99528-2.4743-15.6291-3.0909C709.50588,85.2659,705.34978,71.8275,702.79478,72.4131Z" transform="translate(-638.06481 -51.9951)" fill="#da0553" opacity="0.3" style="mix-blend-mode: multiply"/>
          <path d="M702.777,96.3364c-3.60682,5.0904-14.41882,19.5399-14.41882,20.7581,0,1.7267,28.39982,1.9121,28.9536,0S703.45308,95.3822,702.777,96.3364Z" transform="translate(-638.06481 -51.9951)" fill="#cf1e97" opacity="0.5" style="mix-blend-mode: multiply"/>
          <path d="M710.14688,93.7629c2.4553,2.8514-.5744,7.9805-1.4323,9.4145-.858,1.434-4.6128,4.133-5.8994,4.2041s-4.5153-1.6724-5.613-4.3199c-1.0977-2.6474-1.93718-7.0213,0-8.3536C699.13938,93.3758,708.75658,92.1482,710.14688,93.7629Z" transform="translate(-638.06481 -51.9951)" fill="#7e527c" opacity="0.5" style="mix-blend-mode: multiply"/>
          <g>
            <path d="M708.73318,92.8332a7.15365,7.15365,0,1,1-12.9528,1.5347C697.49928,88.5361,706.21628,88.5975,708.73318,92.8332Z" transform="translate(-638.06481 -51.9951)" fill="url(#_1866-4)"/>
            <path d="M703.78038,103.576a7.29439,7.29439,0,0,0,6.0197-7.2081c-.4838,4.0467-3.4303,7.5764-9.3137,6.1854-.718-.1698-4.706-2.016-5.0362-6.2013A7.2015,7.2015,0,0,0,703.78038,103.576Z" transform="translate(-638.06481 -51.9951)" fill="url(#_1899-2)"/>
            <path d="M696.02478,93.6853c.2504.5991,3.3775-2.4481,2.96622-3.0866h-.00252A6.0394,6.0394,0,0,0,696.02478,93.6853Z" transform="translate(-638.06481 -51.9951)" opacity="0.5" fill="url(#_314)" style="mix-blend-mode: color-dodge"/>
            <g>
              <path d="M697.03948,94.1397c-1.9622,4.0527,4.221,12.4131,9.8339,6.063C713.09068,93.1688,701.28148,85.3784,697.03948,94.1397Z" transform="translate(-638.06481 -51.9951)" fill="url(#_108-3)"/>
              <path d="M698.65758,94.1107a4.88007,4.88007,0,0,0,1.9022,6.4159c2.5415,1.7404,5.6549-.3177,6.731-2.4491,1.5375-3.0453-1.3915-6.2027-3.209-6.7198C702.26428,90.8405,699.522,92.3744,698.65758,94.1107Z" transform="translate(-638.06481 -51.9951)" fill="url(#_638-3)"/>
              <path d="M698.22828,96.2485a4.15684,4.15684,0,0,0,1.6235,3.6292c1.6236,1.1105,2.7696,1.2995,2.89322,1.1161a5.12359,5.12359,0,0,0,.04338-1.7337,7.085,7.085,0,0,1-1.9535-1.5357c-.6105-.8417-.8198-1.1361-.994-1.1524C699.66678,96.5557,698.28838,95.988,698.22828,96.2485Z" transform="translate(-638.06481 -51.9951)" fill="#b82774" opacity="0.4" style="mix-blend-mode: multiply"/>
              <path d="M700.17668,96.4754c-.228.9856,2.5926,2.8214,2.8501,2.7847,1.2136-.1734,2.68322-2.8571,2.70922-3.7292.01758-.5893-2.25392-2.4905-2.97942-2.2625A7.52176,7.52176,0,0,0,700.17668,96.4754Z" transform="translate(-638.06481 -51.9951)" fill="#fff" style="mix-blend-mode: soft-light"/>
              <path d="M703.02678,99.2601c-.3359.1408-.21478,1.6682-.0999,1.6819,1.278.1524,2.5926-.5613,3.8729-2.2284a3.613,3.613,0,0,0,.50722-3.7338c-.16342-.205-1.56452.3099-1.571.5511A5.16393,5.16393,0,0,1,703.02678,99.2601Z" transform="translate(-638.06481 -51.9951)" fill="#b82774" opacity="0.8" style="mix-blend-mode: multiply"/>
              <path d="M698.135,95.9117c-.01452.229,1.66748.7803,1.79268.6394.20432-.2303,2.7415-3.2184,2.7522-3.4027.0174-.298.0907-1.7472-.3388-1.768a6.22091,6.22091,0,0,0-3.0826,1.8603A4.20791,4.20791,0,0,0,698.135,95.9117Z" transform="translate(-638.06481 -51.9951)" fill="#fff" opacity="0.75"/>
              <path d="M698.65758,94.1107a6.42227,6.42227,0,0,1,2.1695-2.1s.7476.2276.1625,1.1703C700.40448,94.1238,698.65758,94.1107,698.65758,94.1107Z" transform="translate(-638.06481 -51.9951)" fill="#fff"/>
              <path d="M702.17548,98.8087c-.0518.0826.4889,1.1394.6376,1.1096a2.49043,2.49043,0,0,0,.6471-.8533C703.39008,99.0702,702.28858,98.6282,702.17548,98.8087Z" transform="translate(-638.06481 -51.9951)" fill="#fff"/>
              <path d="M705.503,95.0488a1.4398,1.4398,0,0,0,.098,1.2223c.124.0307.68388-1.0191.61518-1.0848C706.14758,95.1207,705.70368,94.8036,705.503,95.0488Z" transform="translate(-638.06481 -51.9951)" fill="#fff"/>
              <path d="M700.90848,102.1947a6.22372,6.22372,0,0,0,5.9649-1.992,5.63236,5.63236,0,0,0,1.4525-5.979,5.59391,5.59391,0,0,1-1.4846,6.7712A5.2264,5.2264,0,0,1,700.90848,102.1947Z" transform="translate(-638.06481 -51.9951)" fill="#ffd2ff"/>
              <path d="M699.84918,101.6427c-1.6553-2.1009-3.7548-6.4156-.8811-9.3885s7.2161-.1697,8.4764.4056c0,0-2.701-4.7311-8.2522-2.119-2.1218.9984-2.6735,2.4968-2.4955,5.8846C696.85988,99.5298,699.84918,101.6427,699.84918,101.6427Z" transform="translate(-638.06481 -51.9951)" fill="#d42f55" opacity="0.5" style="mix-blend-mode: multiply"/>
            </g>
          </g>
          <circle cx="65.02388" cy="42.2286" r="10.1929" opacity="0.5" fill="url(#_289)" style="mix-blend-mode: color-dodge"/>
        </g>
        <g>
          <path d="M700.09478,55.6797c-.89978,1.8583,1.9355,5.6918,4.50922,2.7801C707.45478,55.2345,702.03988,51.6623,700.09478,55.6797Z" transform="translate(-638.06481 -51.9951)" fill="url(#_108-4)"/>
          <path d="M700.83668,55.6664a2.23775,2.23775,0,0,0,.87232,2.9419c1.16528.798,2.59288-.1457,3.08638-1.123.705-1.3964-.6381-2.8441-1.4715-3.0813A2.52609,2.52609,0,0,0,700.83668,55.6664Z" transform="translate(-638.06481 -51.9951)" fill="url(#_638-4)"/>
          <path d="M700.63988,56.6466a1.9062,1.9062,0,0,0,.7444,1.6642c.7445.5092,1.27.5958,1.32672.5117a2.35043,2.35043,0,0,0,.01978-.795,3.24787,3.24787,0,0,1-.8957-.7041c-.2799-.386-.3759-.5209-.4558-.5284C701.29948,56.7875,700.66738,56.5272,700.63988,56.6466Z" transform="translate(-638.06481 -51.9951)" fill="#b82774" opacity="0.4" style="mix-blend-mode: multiply"/>
          <path d="M701.53328,56.7507c-.1046.4519,1.1888,1.2937,1.3069,1.2768.5565-.0795,1.2303-1.31,1.2422-1.7099.0081-.2702-1.03338-1.142-1.3661-1.0374A3.4483,3.4483,0,0,0,701.53328,56.7507Z" transform="translate(-638.06481 -51.9951)" fill="#fff" style="mix-blend-mode: soft-light"/>
          <path d="M702.84018,58.0275c-.1541.0646-.0985.765-.0458.7713a2.03285,2.03285,0,0,0,1.7758-1.0218,1.65666,1.65666,0,0,0,.2326-1.7121c-.0749-.094-.7174.1421-.7204.2527A2.36751,2.36751,0,0,1,702.84018,58.0275Z" transform="translate(-638.06481 -51.9951)" fill="#b82774" opacity="0.8" style="mix-blend-mode: multiply"/>
          <path d="M700.59708,56.4922c-.0066.105.7646.3578.822.2932.0937-.1056,1.2571-1.4757,1.262-1.5603.008-.1366.0416-.8011-.1553-.8107a2.85193,2.85193,0,0,0-1.4135.853A1.9302,1.9302,0,0,0,700.59708,56.4922Z" transform="translate(-638.06481 -51.9951)" fill="#fff" opacity="0.75"/>
          <path d="M700.83668,55.6664a2.94511,2.94511,0,0,1,.9948-.9629s.3428.1043.07452.5366S700.83668,55.6664,700.83668,55.6664Z" transform="translate(-638.06481 -51.9951)" fill="#fff"/>
          <path d="M702.44978,57.8206c-.0237.0378.22422.5224.2924.5088a1.14421,1.14421,0,0,0,.2967-.3913C703.00668,57.9405,702.50168,57.7378,702.44978,57.8206Z" transform="translate(-638.06481 -51.9951)" fill="#fff"/>
          <path d="M703.97558,56.0965a.66054.66054,0,0,0,.0449.5605c.0569.0141.3136-.4673.2821-.4974S704.06758,55.9841,703.97558,56.0965Z" transform="translate(-638.06481 -51.9951)" fill="#fff"/>
          <path d="M701.86878,59.3732a2.854,2.854,0,0,0,2.73522-.9134,2.58273,2.58273,0,0,0,.666-2.7416,2.56493,2.56493,0,0,1-.68082,3.1048A2.39643,2.39643,0,0,1,701.86878,59.3732Z" transform="translate(-638.06481 -51.9951)" fill="#fff7c4"/>
          <path d="M701.38308,59.1201a2.971,2.971,0,0,1-.0793-4.0224c1.3177-1.3631,2.9841-.3604,3.5621-.0966,0,0-1.9906-2.7215-4.2905-1.1015a2.57324,2.57324,0,0,0-.8986,3.0301A5.26958,5.26958,0,0,0,701.38308,59.1201Z" transform="translate(-638.06481 -51.9951)" fill="#e54136" opacity="0.5" style="mix-blend-mode: multiply"/>
        </g>
        <g>
          <path d="M700.09478,135.9429c-.89978,1.8583,1.9355,5.6918,4.50922,2.7801C707.45478,135.4977,702.03988,131.9255,700.09478,135.9429Z" transform="translate(-638.06481 -51.9951)" fill="url(#_108-5)"/>
          <path d="M700.83668,135.9296a2.23775,2.23775,0,0,0,.87232,2.9419c1.16528.798,2.59288-.1457,3.08638-1.123.705-1.3964-.6381-2.8441-1.4715-3.0813A2.52609,2.52609,0,0,0,700.83668,135.9296Z" transform="translate(-638.06481 -51.9951)" fill="url(#_638-5)"/>
          <path d="M700.63988,136.9098a1.90611,1.90611,0,0,0,.7444,1.6642c.7445.5092,1.27.5958,1.32672.5117a2.35043,2.35043,0,0,0,.01978-.795,3.24787,3.24787,0,0,1-.8957-.7041c-.2799-.386-.3759-.5209-.4558-.5284C701.29948,137.0507,700.66738,136.7904,700.63988,136.9098Z" transform="translate(-638.06481 -51.9951)" fill="#b82774" opacity="0.4" style="mix-blend-mode: multiply"/>
          <path d="M701.53328,137.0139c-.1046.4519,1.1888,1.2937,1.3069,1.2768.5565-.0795,1.2303-1.31,1.2422-1.7099.0081-.2702-1.03338-1.142-1.3661-1.0374A3.4483,3.4483,0,0,0,701.53328,137.0139Z" transform="translate(-638.06481 -51.9951)" fill="#fff" style="mix-blend-mode: soft-light"/>
          <path d="M702.84018,138.2907c-.1541.0646-.0985.765-.0458.7713a2.03285,2.03285,0,0,0,1.7758-1.0218,1.65666,1.65666,0,0,0,.2326-1.7121c-.0749-.094-.7174.1421-.7204.2527A2.36751,2.36751,0,0,1,702.84018,138.2907Z" transform="translate(-638.06481 -51.9951)" fill="#b82774" opacity="0.8" style="mix-blend-mode: multiply"/>
          <path d="M700.59708,136.7554c-.0066.105.7646.3578.822.2932.0937-.1056,1.2571-1.4757,1.262-1.5603.008-.1366.0416-.8011-.1553-.8107a2.85193,2.85193,0,0,0-1.4135.853A1.9302,1.9302,0,0,0,700.59708,136.7554Z" transform="translate(-638.06481 -51.9951)" fill="#fff" opacity="0.75"/>
          <path d="M700.83668,135.9296a2.94511,2.94511,0,0,1,.9948-.9629s.3428.1043.07452.5366S700.83668,135.9296,700.83668,135.9296Z" transform="translate(-638.06481 -51.9951)" fill="#fff"/>
          <path d="M702.44978,138.0838c-.0237.0378.22422.5224.2924.5088a1.14328,1.14328,0,0,0,.2967-.3913C703.00668,138.2037,702.50168,138.001,702.44978,138.0838Z" transform="translate(-638.06481 -51.9951)" fill="#fff"/>
          <path d="M703.97558,136.3597a.66054.66054,0,0,0,.0449.5605c.0569.0141.3136-.4673.2821-.4974S704.06758,136.2473,703.97558,136.3597Z" transform="translate(-638.06481 -51.9951)" fill="#fff"/>
          <path d="M701.86878,139.6364a2.854,2.854,0,0,0,2.73522-.9134,2.58273,2.58273,0,0,0,.666-2.7416,2.56493,2.56493,0,0,1-.68082,3.1048A2.39643,2.39643,0,0,1,701.86878,139.6364Z" transform="translate(-638.06481 -51.9951)" fill="#fff7c4"/>
          <path d="M701.38308,139.3833a2.971,2.971,0,0,1-.0793-4.0224c1.3177-1.3631,2.9841-.3604,3.5621-.0966,0,0-1.9906-2.7214-4.2905-1.1015a2.57324,2.57324,0,0,0-.8986,3.0301A5.26958,5.26958,0,0,0,701.38308,139.3833Z" transform="translate(-638.06481 -51.9951)" fill="#e54136" opacity="0.5" style="mix-blend-mode: multiply"/>
        </g>
        <g>
          <path d="M669.74738,70.7283c-.8998,1.8583,1.9355,5.6918,4.5092,2.7801C677.10738,70.2831,671.69248,66.7109,669.74738,70.7283Z" transform="translate(-638.06481 -51.9951)" fill="url(#_108-6)"/>
          <path d="M670.48928,70.715a2.2378,2.2378,0,0,0,.8722,2.9419c1.1654.798,2.593-.1457,3.0864-1.123.70512-1.3964-.638-2.8441-1.4714-3.0813A2.52609,2.52609,0,0,0,670.48928,70.715Z" transform="translate(-638.06481 -51.9951)" fill="url(#_638-6)"/>
          <path d="M670.29248,71.6952a1.90592,1.90592,0,0,0,.7444,1.6642c.7445.5092,1.27.5958,1.3267.5117a2.35,2.35,0,0,0,.0198-.795,3.24758,3.24758,0,0,1-.8957-.7041c-.2799-.386-.3759-.5209-.4558-.5284C670.95208,71.8361,670.32,71.5758,670.29248,71.6952Z" transform="translate(-638.06481 -51.9951)" fill="#b82774" opacity="0.4" style="mix-blend-mode: multiply"/>
          <path d="M671.18588,71.7993c-.1046.4519,1.1888,1.2937,1.3069,1.2768.5564-.0795,1.2303-1.31,1.24222-1.7099.00808-.2702-1.03352-1.142-1.36622-1.0374A3.44809,3.44809,0,0,0,671.18588,71.7993Z" transform="translate(-638.06481 -51.9951)" fill="#fff" style="mix-blend-mode: soft-light"/>
          <path d="M672.49278,73.0761c-.1541.0646-.0985.765-.04578.7713a2.03282,2.03282,0,0,0,1.77578-1.0218,1.65671,1.65671,0,0,0,.2326-1.7121c-.0749-.094-.71738.1421-.72038.2527A2.36759,2.36759,0,0,1,672.49278,73.0761Z" transform="translate(-638.06481 -51.9951)" fill="#b82774" opacity="0.8" style="mix-blend-mode: multiply"/>
          <path d="M670.24968,71.5408c-.0066.105.7646.3578.822.2932.0937-.1056,1.2571-1.4757,1.262-1.5603.008-.1366.0416-.8011-.1553-.8107a2.85193,2.85193,0,0,0-1.4135.853A1.9302,1.9302,0,0,0,670.24968,71.5408Z" transform="translate(-638.06481 -51.9951)" fill="#fff" opacity="0.75"/>
          <path d="M670.48928,70.715a2.94488,2.94488,0,0,1,.9948-.9629s.3428.1043.0745.5366S670.48928,70.715,670.48928,70.715Z" transform="translate(-638.06481 -51.9951)" fill="#fff"/>
          <path d="M672.10238,72.8692c-.0237.0378.2242.5224.2924.5088a1.14421,1.14421,0,0,0,.2967-.3913C672.65928,72.9891,672.15428,72.7864,672.10238,72.8692Z" transform="translate(-638.06481 -51.9951)" fill="#fff"/>
          <path d="M673.62818,71.1451a.66018.66018,0,0,0,.0449.5605c.05692.0141.3136-.4673.2821-.4974S673.72018,71.0327,673.62818,71.1451Z" transform="translate(-638.06481 -51.9951)" fill="#fff"/>
          <path d="M671.52138,74.4218a2.854,2.854,0,0,0,2.7352-.9134,2.58287,2.58287,0,0,0,.666-2.7416,2.56491,2.56491,0,0,1-.6808,3.1048A2.39643,2.39643,0,0,1,671.52138,74.4218Z" transform="translate(-638.06481 -51.9951)" fill="#fff7c4"/>
          <path d="M671.03568,74.1687a2.971,2.971,0,0,1-.0793-4.0224c1.3177-1.3631,2.9841-.3604,3.562-.0966,0,0-1.9905-2.7215-4.29038-1.1015a2.57341,2.57341,0,0,0-.89872,3.0301A5.27026,5.27026,0,0,0,671.03568,74.1687Z" transform="translate(-638.06481 -51.9951)" fill="#e54136" opacity="0.5" style="mix-blend-mode: multiply"/>
        </g>
        <g>
          <path d="M731.03668,70.7283c-.89968,1.8583,1.9355,5.6918,4.5092,2.7801C738.39678,70.2831,732.98178,66.7109,731.03668,70.7283Z" transform="translate(-638.06481 -51.9951)" fill="url(#_108-7)"/>
          <path d="M731.77868,70.715a2.23761,2.23761,0,0,0,.8722,2.9419c1.1654.798,2.593-.1457,3.0864-1.123.705-1.3964-.638-2.8441-1.4714-3.0813A2.526,2.526,0,0,0,731.77868,70.715Z" transform="translate(-638.06481 -51.9951)" fill="url(#_638-7)"/>
          <path d="M731.58178,71.6952a1.90636,1.90636,0,0,0,.7445,1.6642c.7444.5092,1.2699.5958,1.3266.5117a2.34756,2.34756,0,0,0,.0199-.795,3.246,3.246,0,0,1-.89578-.7041c-.27992-.386-.37592-.5209-.45572-.5284C732.24138,71.8361,731.60938,71.5758,731.58178,71.6952Z" transform="translate(-638.06481 -51.9951)" fill="#b82774" opacity="0.4" style="mix-blend-mode: multiply"/>
          <path d="M732.47518,71.7993c-.1045.4519,1.18882,1.2937,1.3069,1.2768.5565-.0795,1.2303-1.31,1.2423-1.7099.008-.2702-1.0335-1.142-1.3662-1.0374A3.449,3.449,0,0,0,732.47518,71.7993Z" transform="translate(-638.06481 -51.9951)" fill="#fff" style="mix-blend-mode: soft-light"/>
          <path d="M733.78208,73.0761c-.154.0646-.0985.765-.0458.7713a2.03285,2.03285,0,0,0,1.7758-1.0218,1.65648,1.65648,0,0,0,.2326-1.7121c-.0749-.094-.7174.1421-.7203.2527A2.36763,2.36763,0,0,1,733.78208,73.0761Z" transform="translate(-638.06481 -51.9951)" fill="#b82774" opacity="0.8" style="mix-blend-mode: multiply"/>
          <path d="M731.539,71.5408c-.00662.105.76468.3578.822.2932.09368-.1056,1.25708-1.4757,1.262-1.5603.008-.1366.04158-.8011-.15532-.8107a2.85241,2.85241,0,0,0-1.4135.853A1.93,1.93,0,0,0,731.539,71.5408Z" transform="translate(-638.06481 -51.9951)" fill="#fff" opacity="0.75"/>
          <path d="M731.77868,70.715a2.944,2.944,0,0,1,.9947-.9629s.3429.1043.07462.5366S731.77868,70.715,731.77868,70.715Z" transform="translate(-638.06481 -51.9951)" fill="#fff"/>
          <path d="M733.39168,72.8692c-.02368.0378.2242.5224.2924.5088a1.14267,1.14267,0,0,0,.2967-.3913C733.94868,72.9891,733.44358,72.7864,733.39168,72.8692Z" transform="translate(-638.06481 -51.9951)" fill="#fff"/>
          <path d="M734.91748,71.1451a.66054.66054,0,0,0,.0449.5605c.0569.0141.3137-.4673.2822-.4974S735.00958,71.0327,734.91748,71.1451Z" transform="translate(-638.06481 -51.9951)" fill="#fff"/>
          <path d="M732.81078,74.4218a2.85383,2.85383,0,0,0,2.7351-.9134,2.58243,2.58243,0,0,0,.666-2.7416,2.565,2.565,0,0,1-.6807,3.1048A2.39642,2.39642,0,0,1,732.81078,74.4218Z" transform="translate(-638.06481 -51.9951)" fill="#fff7c4"/>
          <path d="M732.32508,74.1687a2.97088,2.97088,0,0,1-.0793-4.0224c1.3177-1.3631,2.9841-.3604,3.562-.0966,0,0-1.9906-2.7215-4.2905-1.1015a2.57324,2.57324,0,0,0-.8986,3.0301A5.2694,5.2694,0,0,0,732.32508,74.1687Z" transform="translate(-638.06481 -51.9951)" fill="#e54136" opacity="0.5" style="mix-blend-mode: multiply"/>
        </g>
      </g>
    </g>
  </g>
</svg>
