<svg xmlns="http://www.w3.org/2000/svg" xmlns:xlink="http://www.w3.org/1999/xlink" viewBox="0 0 129.50075 97.4024">
  <defs>
    <linearGradient id="_19" data-name="  19" x1="369.68535" y1="52.0546" x2="369.68535" y2="104.77246" gradientUnits="userSpaceOnUse">
      <stop offset="0" stop-color="#d2cdde"/>
      <stop offset="0.14676" stop-color="#cfc9db"/>
      <stop offset="0.27833" stop-color="#c4bfd3"/>
      <stop offset="0.40408" stop-color="#b2acc5"/>
      <stop offset="0.52547" stop-color="#9993b2"/>
      <stop offset="0.63408" stop-color="#7c759b"/>
      <stop offset="0.69553" stop-color="#9d95ae"/>
      <stop offset="1" stop-color="#d4e7ea"/>
    </linearGradient>
    <linearGradient id="_187" data-name="  187" x1="352.0305" y1="64.93828" x2="364.48201" y2="64.93828" gradientUnits="userSpaceOnUse">
      <stop offset="0" stop-color="#8680e8"/>
      <stop offset="1" stop-color="#3b80f4"/>
    </linearGradient>
    <linearGradient id="_187-2" x1="353.70659" y1="81.53905" x2="362.41266" y2="81.53905" xlink:href="#_187"/>
    <linearGradient id="_187-3" x1="361.03703" y1="98.26041" x2="378.46383" y2="98.26041" xlink:href="#_187"/>
    <linearGradient id="_1554" data-name="  1554" x1="378.23092" y1="104.77246" x2="378.23092" y2="72.7778" gradientUnits="userSpaceOnUse">
      <stop offset="0" stop-color="#2743b8"/>
      <stop offset="1" stop-color="#cbc2e5"/>
    </linearGradient>
    <linearGradient id="_19-2" x1="458.15238" y1="52.0546" x2="458.15238" y2="104.77246" xlink:href="#_19"/>
    <linearGradient id="_187-4" x1="463.35576" y1="64.93828" x2="475.8072" y2="64.93828" xlink:href="#_187"/>
    <linearGradient id="_187-5" x1="465.42501" y1="81.53905" x2="474.13109" y2="81.53905" xlink:href="#_187"/>
    <linearGradient id="_187-6" x1="450.28426" y1="98.47201" x2="466.7999" y2="98.47201" xlink:href="#_187"/>
    <linearGradient id="_1554-2" x1="449.60676" y1="104.77246" x2="449.60676" y2="72.7778" xlink:href="#_1554"/>
    <linearGradient id="_176" data-name="  176" x1="413.91883" y1="149.3975" x2="413.91883" y2="73.00205" gradientUnits="userSpaceOnUse">
      <stop offset="0" stop-color="#728ee3"/>
      <stop offset="0.29888" stop-color="#836888"/>
      <stop offset="1" stop-color="#6d636a"/>
    </linearGradient>
    <linearGradient id="_187-7" x1="442.78856" y1="97.88845" x2="454.00675" y2="97.88845" xlink:href="#_187"/>
    <linearGradient id="_187-8" x1="373.83092" y1="98.45415" x2="385.75869" y2="98.45415" xlink:href="#_187"/>
    <linearGradient id="_1570" data-name="  1570" x1="414.02169" y1="133.6633" x2="414.02169" y2="59.2229" gradientUnits="userSpaceOnUse">
      <stop offset="0" stop-color="#728ee3"/>
      <stop offset="0.29888" stop-color="#624a66"/>
      <stop offset="1" stop-color="#6d636a"/>
    </linearGradient>
    <linearGradient id="_1641" data-name="  1641" x1="414.02114" y1="63.3868" x2="414.02114" y2="130.821" gradientUnits="userSpaceOnUse">
      <stop offset="0" stop-color="#d23fda"/>
      <stop offset="0.81662" stop-color="#781297"/>
      <stop offset="1" stop-color="#3e4ce6"/>
    </linearGradient>
    <linearGradient id="_1565" data-name="  1565" x1="429.52194" y1="133.2509" x2="429.52194" y2="76.7711" gradientUnits="userSpaceOnUse">
      <stop offset="0" stop-color="#d2cdde"/>
      <stop offset="0.54281" stop-color="#7c759b"/>
      <stop offset="1" stop-color="#d4e7ea"/>
    </linearGradient>
    <linearGradient id="_19-3" x1="414.02254" y1="141.6708" x2="414.02254" y2="51.9951" xlink:href="#_19"/>
    <linearGradient id="_1707" data-name="  1707" x1="414.02114" y1="130.821" x2="414.02114" y2="66.9428" gradientUnits="userSpaceOnUse">
      <stop offset="0" stop-color="#ae64c9"/>
      <stop offset="1" stop-color="#8e98e5"/>
    </linearGradient>
    <linearGradient id="_1554-3" x1="414.02149" y1="60.2625" x2="414.02149" y2="85.0947" xlink:href="#_1554"/>
    <linearGradient id="_1297" data-name="  1297" x1="443.52769" y1="129.6047" x2="443.52769" y2="124.2637" gradientUnits="userSpaceOnUse">
      <stop offset="0" stop-color="#5d4877"/>
      <stop offset="1" stop-color="#40314b"/>
    </linearGradient>
    <linearGradient id="_1939" data-name="  1939" x1="437.37654" y1="1440.30401" x2="445.01079" y2="1447.55393" gradientTransform="matrix(0.6886, 0.7251, -0.7251, 0.6886, 1186.4999, -1193.4314)" gradientUnits="userSpaceOnUse">
      <stop offset="0" stop-color="#d2cdde"/>
      <stop offset="1" stop-color="#7c759b"/>
    </linearGradient>
    <linearGradient id="_1297-2" x1="384.2606" y1="129.6047" x2="384.2606" y2="124.2637" xlink:href="#_1297"/>
    <linearGradient id="_1939-2" x1="2522.98286" y1="-755.85217" x2="2530.61711" y2="-748.60224" gradientTransform="matrix(-0.6886, 0.7251, 0.7251, 0.6886, 2669.8697, -1193.4314)" xlink:href="#_1939"/>
    <linearGradient id="_1936" data-name="  1936" x1="738.80559" y1="484.02067" x2="738.80559" y2="471.44382" gradientTransform="matrix(0.9221, 0.387, -0.387, 0.9221, -40.65, -642.65)" gradientUnits="userSpaceOnUse">
      <stop offset="0" stop-color="#728ee3"/>
      <stop offset="1" stop-color="#836888"/>
    </linearGradient>
    <linearGradient id="_1939-3" x1="733.44098" y1="469.01848" x2="737.66479" y2="479.08189" gradientTransform="matrix(0.9221, 0.387, -0.387, 0.9221, -40.65, -642.65)" xlink:href="#_1939"/>
    <linearGradient id="_1936-2" x1="3624.52625" y1="-727.7321" x2="3624.52625" y2="-739.67634" gradientTransform="matrix(-0.9221, 0.387, 0.387, 0.9221, 3998.3461, -642.65)" xlink:href="#_1936"/>
    <linearGradient id="_1939-4" x1="3619.16164" y1="-742.10167" x2="3623.38545" y2="-732.03827" gradientTransform="matrix(-0.9221, 0.387, 0.387, 0.9221, 3998.3461, -642.65)" xlink:href="#_1939"/>
    <linearGradient id="_1577" data-name="  1577" x1="393.18727" y1="94.9746" x2="434.65046" y2="94.9746" gradientUnits="userSpaceOnUse">
      <stop offset="0" stop-color="#6a6ea8"/>
      <stop offset="1" stop-color="#624a66"/>
    </linearGradient>
    <linearGradient id="_1564" data-name="  1564" x1="413.91821" y1="75.8722" x2="413.91821" y2="113.32709" gradientUnits="userSpaceOnUse">
      <stop offset="0" stop-color="#d2cdde"/>
      <stop offset="0.81662" stop-color="#7c759b"/>
      <stop offset="1" stop-color="#d4e7ea"/>
    </linearGradient>
    <linearGradient id="_187-9" x1="393.58994" y1="98.95568" x2="413.887" y2="98.95568" xlink:href="#_187"/>
    <linearGradient id="_187-10" x1="413.91889" y1="98.95568" x2="434.21591" y2="98.95568" xlink:href="#_187"/>
    <linearGradient id="_187-11" x1="401.85719" y1="105.04674" x2="426.02657" y2="105.04674" xlink:href="#_187"/>
    <linearGradient id="_187-12" x1="420.41027" y1="99.24314" x2="408.11169" y2="99.24314" xlink:href="#_187"/>
    <linearGradient id="_19-4" x1="5740.33406" y1="101.98322" x2="5740.33406" y2="91.05844" gradientTransform="matrix(-1, 0, 0, 1, 6153.9801, 0)" xlink:href="#_19"/>
    <linearGradient id="_176-2" x1="5734.33289" y1="98.89325" x2="5746.33412" y2="98.89325" gradientTransform="matrix(-1, 0, 0, 1, 6153.9801, 0)" xlink:href="#_176"/>
    <linearGradient id="_314" data-name="  314" x1="5743.33929" y1="92.34628" x2="5745.84991" y2="92.34628" gradientTransform="matrix(-1, 0, 0, 1, 6153.9801, 0)" gradientUnits="userSpaceOnUse">
      <stop offset="0" stop-color="#ebbd38"/>
      <stop offset="1" stop-color="#fff29e"/>
    </linearGradient>
    <linearGradient id="_1577-2" x1="5735.16057" y1="95.85346" x2="5745.17249" y2="95.85346" gradientTransform="matrix(-1, 0, 0, 1, 6153.8404, 0)" xlink:href="#_1577"/>
    <linearGradient id="_23" data-name="  23" x1="-2726.35691" y1="-2042.2551" x2="-2726.35691" y2="-2050.09486" gradientTransform="translate(3788.51679 -385.2192) rotate(-45)" gradientUnits="userSpaceOnUse">
      <stop offset="0" stop-color="#7600de"/>
      <stop offset="1" stop-color="#de00ff"/>
    </linearGradient>
    <linearGradient id="_187-13" x1="408.66582" y1="95.28679" x2="417.676" y2="95.28679" xlink:href="#_187"/>
  </defs>
  <g style="isolation: isolate">
    <g id="rank_icon" data-name="rank icon">
      <g>
        <g>
          <g>
            <path d="M390.20219,77.1749l-6.6309,3.5069-4.8568,24.0865c-1.659.1202-6.1362-2.3837-10.033-4.8551-3.46049-2.1931-9.0077-8.623-9.03-9.2275v-.0018a14.00687,14.00687,0,0,1,2.5761-2.0591s-6.9263-9.0335-7.3848-10.1704c-.3212-.7986-2.6912-5.2192-2.9762-6.3046l-.0018-.0017c-.1202-.4602,7.9584-.5547,7.9584-.5547l-.0017-.0017a36.8374,36.8374,0,0,1-2.9179-3.5189c-1.8393-2.7153-7.96859-16.0182-7.7282-16.0182,16.4629,0,33.89961,14.0809,34.7051,15.3862.1923.3108.395.6646.6079,1.051C385.95849,71.1641,387.92319,75.3614,390.20219,77.1749Z" transform="translate(-349.16851 -51.9951)" fill="url(#_19)"/>
            <path d="M390.202,77.1749l-6.63061,3.5069-4.8568,24.0865c-3.1325.2284-14.6982-6.8129-19.0631-14.0828.0481.3298,4.3636,2.7617,7.9859,1.9947,2.1572-.4567,13.5752-8.8265,12.5242-9.5873-.6475-.4689-10.4759,1.1882-17.934,5.5319,0,0-6.9262-9.0333-7.3848-10.1703-.3211-.7986-2.6917-5.2194-2.97679-6.3047a20.31292,20.31292,0,0,0,5.89639,5.4248c2.0998,1.397,9.5499,3.7049,13.6729,4.4608,2.6671.4889,12.0916-3.7153,11.293-5.2039-.395-.7368-4.5446-4.6826-22.905-5.2381l-.0018-.0017a36.85632,36.85632,0,0,1-2.9178-3.5189c-1.8393-2.7153-7.9533-15.9327-7.7283-16.0186a32.60131,32.60131,0,0,0,12.4878,13.099c1.3154.7915,22.254,3.5035,22.2179,2.2875C385.39759,69.9001,387.59329,75.0986,390.202,77.1749Z" transform="translate(-349.16851 -51.9951)" fill="#6e5066" opacity="0.5" style="mix-blend-mode: multiply"/>
            <path d="M358.89129,64.048c1.2549,1.3779,5.8216,7.3864,5.5816,7.4242a9.12767,9.12767,0,0,1-4.5941-.6087c-2.7279-1.9716-6.3987-8.8542-7.7794-12.1578C351.298,56.7879,357.72929,62.7722,358.89129,64.048Z" transform="translate(-349.16851 -51.9951)" opacity="0.5" fill="url(#_187)" style="mix-blend-mode: multiply"/>
            <path d="M359.32069,79.6412c.5124.5912,3.9131,8.4703,2.9069,8.0671s-6.9984-7.6997-8.5011-12.1652C353.34989,74.4239,358.43339,78.6174,359.32069,79.6412Z" transform="translate(-349.16851 -51.9951)" opacity="0.5" fill="url(#_187-2)" style="mix-blend-mode: multiply"/>
            <path d="M361.03809,92.3452c.0464.4093,6.28791,8.1098,16.8204,12.0095,1.2497.4627.3387-4.3266-.7013-5.6933C374.88509,95.6756,360.89669,91.0981,361.03809,92.3452Z" transform="translate(-349.16851 -51.9951)" opacity="0.5" fill="url(#_187-3)" style="mix-blend-mode: multiply"/>
            <path d="M361.66319,65.1532c4.5364,1.3041,20.3224,2.8364,21.5837,2.547,1.0644-.2442-29.3464-8.9742-27.4016-6.929A28.50315,28.50315,0,0,0,361.66319,65.1532Z" transform="translate(-349.16851 -51.9951)" fill="#fff" style="mix-blend-mode: soft-light"/>
            <path d="M383.96749,69.2302c-3.9032-1.7895-22.9878-3.8893-22.9316-3.4769.1288.9446,3.7764,5.4134,4.2957,5.636.8322.3568,6.4657-.6546,22.7857,5.2704C388.71279,76.8759,385.73909,70.0425,383.96749,69.2302Z" transform="translate(-349.16851 -51.9951)" fill="#bfb5df" opacity="0.5" style="mix-blend-mode: multiply"/>
            <path d="M390.20219,77.1749l-6.6309,3.5069-4.8568,24.0865c-1.659.1202-6.1362-2.3837-10.033-4.8551,0,0-.88949-5.5534-1.0441-7.233-.1545-1.6779,1.7265-7.2876,1.7265-7.2876s-3.205-3.873-3.1018-4.691c.3575-2.8321,8.1677-7.9238,8.1677-7.9238S387.92319,75.3614,390.20219,77.1749Z" transform="translate(-349.16851 -51.9951)" opacity="0.5" fill="url(#_1554)" style="mix-blend-mode: multiply"/>
          </g>
          <g>
            <path d="M437.63549,77.1749l6.6309,3.5069,4.8568,24.0865c1.659.1202,6.1362-2.3837,10.033-4.8551,3.4605-2.1931,9.0077-8.623,9.0301-9.2275v-.0018a14.01072,14.01072,0,0,0-2.5761-2.0591s6.9262-9.0335,7.38481-10.1704c.32109-.7986,2.69109-5.2192,2.97619-6.3046l.0017-.0017c.1202-.4602-7.9584-.5547-7.9584-.5547l.0017-.0017a36.83583,36.83583,0,0,0,2.9179-3.5189c1.8393-2.7153,7.9687-16.0182,7.7283-16.0182-16.463,0-33.8997,14.0809-34.7051,15.3862-.1924.3108-.395.6646-.608,1.051C441.87919,71.1641,439.91449,75.3614,437.63549,77.1749Z" transform="translate(-349.16851 -51.9951)" fill="url(#_19-2)"/>
            <path d="M437.63579,77.1749l6.6305,3.5069,4.8568,24.0865c3.1326.2284,14.6983-6.8129,19.0631-14.0828-.0481.3298-4.3636,2.7617-7.9859,1.9947-2.1571-.4567-13.5752-8.8265-12.5241-9.5873.6474-.4689,10.4759,1.1882,17.9339,5.5319,0,0,6.9263-9.0333,7.3848-10.1703.3212-.7986,2.6917-5.2194,2.9768-6.3047a20.31321,20.31321,0,0,1-5.8964,5.4248c-2.0998,1.397-9.5498,3.7049-13.6729,4.4608-2.667.4889-12.0916-3.7153-11.293-5.2039.395-.7368,4.54461-4.6826,22.9051-5.2381l.0017-.0017a36.83868,36.83868,0,0,0,2.91781-3.5189c1.83939-2.7153,7.95329-15.9327,7.72829-16.0186a32.60041,32.60041,0,0,1-12.4878,13.099c-1.3154.7915-22.254,3.5035-22.2179,2.2875C442.44009,69.9001,440.24449,75.0986,437.63579,77.1749Z" transform="translate(-349.16851 -51.9951)" fill="#6e5066" opacity="0.5" style="mix-blend-mode: multiply"/>
            <path d="M468.94639,64.048c-1.2549,1.3779-5.8216,7.3864-5.5815,7.4242a9.12723,9.12723,0,0,0,4.594-.6087c2.7279-1.9716,6.3988-8.8542,7.7794-12.1578C476.53979,56.7879,470.10839,62.7722,468.94639,64.048Z" transform="translate(-349.16851 -51.9951)" opacity="0.5" fill="url(#_187-4)" style="mix-blend-mode: multiply"/>
            <path d="M468.517,79.6412c-.51241.5912-3.91311,8.4703-2.90691,8.0671s6.9984-7.6997,8.5011-12.1652C474.48779,74.4239,469.40439,78.6174,468.517,79.6412Z" transform="translate(-349.16851 -51.9951)" opacity="0.5" fill="url(#_187-5)" style="mix-blend-mode: multiply"/>
            <path d="M466.79969,92.3452c-.0464.4093-6.3211,6.1001-7.0048,6.7137-.9917.8901-9.7941,6.9884-9.5036,5.2958.5251-3.0595,1.321-6.7315,2.6082-7.9116C453.85669,95.5655,466.85979,91.8148,466.79969,92.3452Z" transform="translate(-349.16851 -51.9951)" opacity="0.5" fill="url(#_187-6)" style="mix-blend-mode: multiply"/>
            <path d="M466.17449,65.1532c-4.5364,1.3041-20.3223,2.8364-21.5836,2.547-1.0645-.2442,29.3463-8.9742,27.4015-6.929A28.50017,28.50017,0,0,1,466.17449,65.1532Z" transform="translate(-349.16851 -51.9951)" fill="#fff" style="mix-blend-mode: soft-light"/>
            <path d="M443.87029,69.2302c3.9031-1.7895,22.9878-3.8893,22.9315-3.4769-.12879.9446-3.7764,5.4134-4.2956,5.636-.83219.3568-6.4657-.6546-22.7858,5.2704C439.12489,76.8759,442.09859,70.0425,443.87029,69.2302Z" transform="translate(-349.16851 -51.9951)" fill="#bfb5df" opacity="0.5" style="mix-blend-mode: multiply"/>
            <path d="M437.63549,77.1749l6.6309,3.5069,4.8568,24.0865c1.659.1202,6.1362-2.3837,10.033-4.8551,0,0,.8896-5.5534,1.0441-7.233.1546-1.6779-1.7265-7.2876-1.7265-7.2876s3.205-3.873,3.1018-4.691c-.3575-2.8321-8.1677-7.9238-8.1677-7.9238S439.91449,75.3614,437.63549,77.1749Z" transform="translate(-349.16851 -51.9951)" opacity="0.5" fill="url(#_1554-2)" style="mix-blend-mode: multiply"/>
          </g>
        </g>
        <g>
          <path d="M453.92859,85.3877c-3.2255,12.1261-5.5607,25.6703-11.1349,36.7339-3.349,6.6475-10.5382,12.0557-16.1422,16.9178-4.1141,3.5693-8.3218,7.0416-12.6431,10.3581-9.7682-7.4386-21.4347-15.6696-28.2497-26.0233h-.0019a12.7516,12.7516,0,0,1-.7242-1.2525c-5.5178-11.2202-7.9113-24.6161-11.13459-36.734a41.58918,41.58918,0,0,1,1.21329-11.7399q38.90745-1.29435,77.8225.0075A45.66639,45.66639,0,0,1,453.92859,85.3877Z" transform="translate(-349.16851 -51.9951)" fill="url(#_176)"/>
          <path d="M453.92859,85.3877c-3.2255,12.1261-5.6503,25.4024-11.1349,36.7339-.1433-8.3915,2.7491-17.5363,4.5445-25.6583q2.5344-11.4657,5.5956-22.808A45.66639,45.66639,0,0,1,453.92859,85.3877Z" transform="translate(-349.16851 -51.9951)" opacity="0.5" fill="url(#_187-7)" style="mix-blend-mode: multiply"/>
          <path d="M414.00919,149.3969c-.4025-.1776-.7396-10.2432,1.7009-13.1926,3.1633-3.8228,9.3164-6.7483,13.9972-9.4808,2.0703-1.2084,12.4365-6.6552,12.9386-5.1301.4477,1.3598-3.8355,6.0994-5.5601,7.8868-3.0812,3.1936-6.8289,6.359-10.14279,9.3073C422.33169,142.8901,414.00919,149.3969,414.00919,149.3969Z" transform="translate(-349.16851 -51.9951)" fill="#6e5066" opacity="0.5" style="mix-blend-mode: multiply"/>
          <path d="M385.75869,123.3742h-.0019a12.7516,12.7516,0,0,1-.7242-1.2525c-5.5178-11.2202-7.9113-24.6161-11.13459-36.734a41.58918,41.58918,0,0,1,1.21329-11.7399c1.377-.0477,2.06571-.0704,3.44271-.1137C380.50969,90.0416,381.56079,107.25,385.75869,123.3742Z" transform="translate(-349.16851 -51.9951)" opacity="0.5" fill="url(#_187-8)" style="mix-blend-mode: multiply"/>
          <path d="M445.15079,76.0363a89.38018,89.38018,0,0,0-8.2821-6.5259l-.0058-.0041a80.71882,80.71882,0,0,0-20.8274-9.7311h-.0021c-.6483-.1902-1.2288-.3494-1.7346-.48-.1094-.029-.1642-.0434-.27379-.0723l-.27171.0723a75.19115,75.19115,0,0,0-30.8605,16.736c-.1411.1302-.2116.1954-.3525.3256l.0618.4853c.0606.4735.1267.9814.1981,1.5189.599,4.5072,1.2717,9.0445,2.0435,13.5128,1.4078,8.1501,2.5916,17.8227,6.8341,25.1939l.0196.032.0214.03c3.2046,4.078,8.16,7.0834,12.3251,9.9867,1.5164,1.057,3.0363,2.0693,4.4443,2.9989q2.517,1.66155,5.0766,3.2679c.1781.1122.267.1683.4451.2801.1786-.112.26811-.168.4469-.2802.0688-.0421.1378-.087.2083-.1322,3.1075-1.991,6.2758-4.0317,9.3143-6.1361,4.1732-2.8903,9.1237-5.8982,12.3281-9.9874l.0213-.03.0198-.0319c4.24241-7.3775,5.4277-17.0335,6.8416-25.1899.6865-3.9599,1.3-7.9707,1.8437-11.9694.1533-1.1277.2906-2.1557.4053-3.059.0255-.1942.0383-.2911.0639-.4851C445.36229,76.2317,445.29179,76.1667,445.15079,76.0363Zm-5.7909,15.3514c-1.2648,7.6537-2.3341,16.4853-6.0346,23.5068-3.16029,3.5169-7.41929,6.2175-11.2516,8.8536-2.6353,1.8127-5.3424,3.588-8.0633,5.3084-2.7199-1.7196-5.4253-3.4949-8.0598-5.3071-3.8313-2.6356-8.0652-5.3569-11.249-8.8532-3.7054-7.0368-4.7605-15.8344-6.0253-23.5102-.7284-4.421-1.3631-8.9002-1.9038-13.3705a72.33431,72.33431,0,0,1,27.2513-14.6287,72.31443,72.31443,0,0,1,27.246,14.6329C440.72039,82.4886,440.09049,86.9676,439.35989,91.3877Z" transform="translate(-349.16851 -51.9951)" fill="url(#_1570)"/>
          <path d="M441.26979,78.0197c-.5494,4.4689-1.1793,8.9479-1.9099,13.368-1.2648,7.6537-2.3341,16.4853-6.0346,23.5068-2.9267,4.3319-7.08429,7.6872-11.2722,10.6165-2.60009,1.8186-5.3284,3.5897-8.0429,5.31-2.7136-1.7196-5.4403-3.4905-8.0395-5.3087-4.1904-2.931-8.3386-6.2845-11.2691-10.6161-3.3373-6.3476-4.3654-14.1578-5.61559-21.0878l-.00211-.002c-.134-.7791-.2726-1.5875-.4076-2.4204-.7188-4.4344-1.3631-8.9002-1.9038-13.3705a54.27592,54.27592,0,0,1,4.9162-3.9131,74.387,74.387,0,0,1,19.2469-9.7742c1.1735-.3866,2.2171-.7005,3.0882-.9414a75.63853,75.63853,0,0,1,9.8181,3.5562A71.49733,71.49733,0,0,1,441.26979,78.0197Z" transform="translate(-349.16851 -51.9951)" fill="url(#_1641)"/>
          <path d="M444.44209,76.7711c-1.2728.4964-1.9073.7462-3.1723,1.2486a72.31443,72.31443,0,0,0-27.246-14.6329c.0004-1.2496.0005-1.8745.0009-3.1243.8024-.196,1.2042-.2934,2.0087-.4873h.0021a80.71882,80.71882,0,0,1,20.8274,9.7311l.0058.0041Q440.67929,73.1158,444.44209,76.7711Z" transform="translate(-349.16851 -51.9951)" fill="#7f6593" opacity="0.3" style="mix-blend-mode: multiply"/>
          <path d="M445.03389,79.9062c-.542,4.001-1.1571,8.0096-1.8437,11.9694-1.4141,8.1565-2.59919,17.8124-6.8416,25.1899l-.0198.0319-.0213.03c-3.2044,4.0892-8.1549,7.0969-12.3281,9.9874-3.0385,2.1044-6.1669,4.1539-9.3143,6.1361-.2618-.295-.3928-.4425-.65509-.7376.00009-.6765.00009-1.0149.00019-1.6916,2.7146-1.7201,5.4429-3.4913,8.04281-5.3099,4.18809-2.9295,8.34579-6.285,11.27229-10.6173,3.7005-7.0215,4.7699-15.8532,6.0346-23.5068.7305-4.4202,1.3605-8.8991,1.9099-13.368,1.265-.5024,1.8995-.7522,3.1723-1.2486C444.67989,78.026,444.79819,78.653,445.03389,79.9062Z" transform="translate(-349.16851 -51.9951)" fill="url(#_1565)"/>
          <path d="M452.91169,73.6309c-.6323-.6768-1.3211-1.3402-1.9988-1.9848-.0921-.0876-.188-.1761-.2878-.2683a84.40975,84.40975,0,0,0-10.0154-7.7397,10.36891,10.36891,0,0,1-2.8932-1.3719,11.88067,11.88067,0,0,1-2.2766-1.7262l-.002-.002a97.77186,97.77186,0,0,0-19.63-8.0748c-.0526-.0145-.10689-.03-.1615-.0446-.7745-.2071-1.3017-.3472-1.5127-.3974-.0212-.004-.0425-.0101-.0639-.0141l-.0426-.012-.0169.004c-.0107.002-.0299.006-.0511.012-13.9779,3.4411-27.9895,10.6656-38.127,20.8956q-.3624.3657-.7209.7411l.02071.1565c.04849.3916.19519,1.5053.42959,3.1472l.0053.0353c1.0336,7.2087,2.2358,14.4035,3.7349,21.5306,1.55321,7.3842,3.0507,15.7459,7.0155,22.1119,3.3279,5.3432,10.2575,9.3411,15.3888,12.9198,4.0298,2.8104,8.1286,5.5299,12.30291,8.1217,4.17519-2.593,8.27459-5.3131,12.30559-8.1244,5.1226-3.5727,12.07141-7.5931,15.3913-12.9205,3.97011-6.371,5.4736-14.7165,7.0254-22.1075,1.4962-7.1269,2.7078-14.3177,3.745-21.525l.0053-.0352c.23541-1.6416.3826-2.7549.4316-3.1465l.0206-.1564ZM442.23479,91.753c-1.3717,8.0149-2.4963,17.5518-6.6609,24.8065-3.2101,3.9417-7.973,6.8819-12.0703,9.7143-3.0973,2.1413-6.2855,4.2243-9.49359,6.2395-3.21081-2.0072-6.39421-4.0973-9.49-6.2379-4.06651-2.8119-8.87991-5.7815-12.06741-9.7138-4.1643-7.2482-5.285-16.801-6.6514-24.8105-.84519-4.9546-1.5734-9.974-2.2003-14.985a74.3789,74.3789,0,0,1,30.4238-16.5036,74.54179,74.54179,0,0,1,30.4174,16.5086C443.81289,81.7811,443.08259,86.7998,442.23479,91.753Z" transform="translate(-349.16851 -51.9951)" fill="url(#_19-3)"/>
          <path d="M452.214,73.6892c-.84481-2.8769-10.18-8.5206-15.31091-11.6453-6.8355-4.1633-19.4374-10.0484-22.6182-9.6002a2.245,2.245,0,0,1-.3793,0c-3.18059-.4482-15.9573,4.7689-22.7927,8.9322-5.13089,3.1246-14.2916,9.4364-15.1384,12.3133-.7004,2.3877.79951,10.0507,1.5299,10.055a25.35316,25.35316,0,0,0,5.8895-2.086c.4288-.2176-.347-4.3897.2068-4.8917,10.3524-9.4021,20.9432-13.7151,29.2519-16.504a2.19672,2.19672,0,0,1,1.7599-.1049c6.5266,2.4876,19.6249,7.2068,29.9773,16.6089.5539.502-.2219,4.6741.2068,4.8917a25.32162,25.32162,0,0,0,5.8895,2.086C451.41659,83.7399,452.91649,76.0769,452.214,73.6892Z" transform="translate(-349.16851 -51.9951)" fill="#fff" style="mix-blend-mode: soft-light"/>
          <path d="M386.77249,78.0197c.54951,4.4689,1.1794,8.9479,1.9099,13.368,1.2649,7.6537,2.3341,16.4853,6.0347,23.5068,2.9265,4.3323,7.0841,7.6878,11.2723,10.6173,2.5999,1.8186,5.3282,3.5898,8.0428,5.3099-.0574-11.2299-.1066-22.4631-.0067-33.6916.1001-11.2371.323-22.5058-.0069-33.7433A72.31484,72.31484,0,0,0,386.77249,78.0197Z" transform="translate(-349.16851 -51.9951)" fill="#fff" opacity="0.7" style="mix-blend-mode: soft-light"/>
          <path d="M441.26979,78.0197c-.5494,4.4689-1.1793,8.9479-1.9099,13.368-1.2648,7.6537-2.3341,16.4853-6.0346,23.5068-2.9267,4.3319-7.08429,7.6872-11.2722,10.6165-2.60009,1.8186-5.3284,3.5897-8.0429,5.31-2.7136-1.7196-5.4403-3.4905-8.0395-5.3087-4.1904-2.931-8.3386-6.2845-11.2691-10.6161-3.3373-6.3476-4.3654-14.1578-5.61559-21.0878l-.00211-.002c-.134-.7791-.2726-1.5875-.4076-2.4204-.7188-4.4344-1.3631-8.9002-1.9038-13.3705a58.05841,58.05841,0,0,1,4.9162-3.9131l.0827-.0415a10.501,10.501,0,0,0-3.6859,4.4781c-1.2559,3.7317,2.0748,18.3119,3.0616,22.744,1.3246,5.9477,17.2474-2.5668,22.1602-2.8289,4.80571-.2563,19.4283,11.0421,21.8714,6.5569,6.2049-11.391,1.7567-29.9283-11.3593-38.0682l.0225.0002A73.49747,73.49747,0,0,1,441.26979,78.0197Z" transform="translate(-349.16851 -51.9951)" opacity="0.5" fill="url(#_1707)" style="mix-blend-mode: multiply"/>
          <path d="M383.78209,78.0809c1.2008.948,3.276,2.2121,3.276,2.2121,1.9263-3.9015,11.3123-9.2576,17.754-10.6895a30.83009,30.83009,0,0,1,22.6725,4.0518c4.1821,2.6861,9.9757,7.18,12.8432,11.4394,1.3213-.9722,1.9858-1.4564,3.3225-2.4207.3102-2.3619.4685-3.5426.7918-5.9029-15.20909-13.3671-30.4174-16.5086-30.4174-16.5086s-17.62969,4.5111-30.4238,16.5036C383.67389,77.2919,383.71,77.5549,383.78209,78.0809Z" transform="translate(-349.16851 -51.9951)" opacity="0.5" fill="url(#_1554-3)" style="mix-blend-mode: multiply"/>
          <path d="M450.24079,84.3648c-1.22879-.628-5.5916-1.569-6.2755.185-.4158,1.0665-1.4764,7.2286-2.1871,11.1538-1.383,7.6381-2.5496,8.9441-3.486,13.0782-.3518,1.5535,6.2514,1.4607,7.2109.7957.7391-.5121,1.06491-1.9735,2.2477-7.6654.9956-4.7913,2.18221-9.6157,2.869-14.4733C450.81629,86.0493,451.03259,84.7694,450.24079,84.3648Z" transform="translate(-349.16851 -51.9951)" fill="#7f6593" opacity="0.3" style="mix-blend-mode: multiply"/>
          <path d="M383.60089,82.8155c-.5387-.4139-5.54.8061-6.1016,1.7731-.603,1.0381.8384,8.5908,1.63271,12.3969,1.57229,7.5341,2.78679,11.9305,3.40829,12.9529,1.3704,2.2542,8.1149,2.4776,7.5059.4293-1.0858-3.6518-2.17319-5.129-3.2737-11.9136C386.04229,93.9526,384.56609,83.557,383.60089,82.8155Z" transform="translate(-349.16851 -51.9951)" fill="#7f6593" opacity="0.3" style="mix-blend-mode: multiply"/>
          <path d="M414.96089,147.7969c-.4784.0887-.5404-5.4824-.3101-5.7911,2.3128-3.1025,11.86721-7.1493,9.1703-1.1871C423.02349,142.582,416.66249,147.4813,414.96089,147.7969Z" transform="translate(-349.16851 -51.9951)" fill="#6e5066" opacity="0.5" style="mix-blend-mode: multiply"/>
          <path d="M436.62789,125.8142c.7952-.8514-.7518-7.7051-1.4717-7.2578-1.1018.6847-20.7477,13.9321-21.1337,14.4417-.86,1.1355-.1024,7.7579.2671,7.8194C415.14609,140.9602,434.05789,128.5659,436.62789,125.8142Z" transform="translate(-349.16851 -51.9951)" fill="#fff" style="mix-blend-mode: soft-light"/>
          <path d="M404.26059,63.3868c1.1815-.5184.2848-8.3122-.99959-7.8598-10.49341,3.6959-21.22951,11.9761-21.20331,12.3308.0362.4899,6.392,3.6758,9.0395,2.4641C393.04,69.4327,399.12459,65.6402,404.26059,63.3868Z" transform="translate(-349.16851 -51.9951)" fill="#fff" style="mix-blend-mode: soft-light"/>
          <path d="M452.93379,73.6553l-.0206.1564c-.1746,1.2584-.261,1.8877-.4316,3.1465l-.0053.0352c-1.6728-8.096-7.761-9.3541-12.4762-12.8203-1.3728-1.009-2.8505-1.998-4.3269-2.9047-6.196-3.805-13.7474-7.6448-21.0489-8.4559-5.44329-.6047-16.5515,5.2041-22.9835,9.2225-5.2056,3.2524-14.3596,8.4511-16.0739,14.9518l-.0053-.0353c-.1698-1.259-.2557-1.8886-.42959-3.1472l-.02071-.1565c.2383-.2501.4793-.5015.7209-.7411a81.87115,81.87115,0,0,1,38.127-20.8956c.0212-.006.0404-.01.0511-.012l.0169-.004.0426.012c.0214.004.0427.0101.0639.0141.5091.1287,1.0155.2656,1.5127.3974.0547.0145.1089.0301.1615.0446a97.58447,97.58447,0,0,1,19.63,8.0748l.002.002a11.86643,11.86643,0,0,0,2.2766,1.7262,10.37638,10.37638,0,0,0,2.8932,1.3719,84.80311,84.80311,0,0,1,10.0154,7.7397q.1497.1383.2878.2683c1.1899,1.1242,1.8739,1.8467,1.9988,1.9848Z" transform="translate(-349.16851 -51.9951)" fill="#7e527c" opacity="0.8" style="mix-blend-mode: multiply"/>
          <path d="M399.67159,122.8078s12.1851,10.4436,14.2353,10.4436c1.9365,0,13.03611-9.3185,13.03611-9.3185-.007-.0091-11.489,7.3492-12.87781,7.5341C411.15669,131.8545,399.67159,122.8078,399.67159,122.8078Z" transform="translate(-349.16851 -51.9951)" fill="#fff"/>
          <path d="M441.96109,93.3857c.1374.0309-6.3872,23.1738-6.3872,23.1738a63.379,63.379,0,0,0,4.9974-12.292A90.823,90.823,0,0,0,441.96109,93.3857Z" transform="translate(-349.16851 -51.9951)" fill="#fff"/>
          <path d="M386.02179,93.067c-.1374.0308,5.9256,22.5754,5.9256,22.5754.0948-.0437-3.511-6.6916-4.751-11.3749C386.37159,101.1521,386.02179,93.067,386.02179,93.067Z" transform="translate(-349.16851 -51.9951)" fill="#fff"/>
          <path d="M407.17549,133.2256c3.79351.1844,1.3787-2.4079-.1268-3.3887-1.419-.9243-5.6262-2.3372-5.8969-1.844C400.72129,128.7773,404.65049,133.1029,407.17549,133.2256Z" transform="translate(-349.16851 -51.9951)" fill="#7f6593" opacity="0.2" style="mix-blend-mode: multiply"/>
          <path d="M408.036,134.7468c-2.37381-.9598-3.20431-1.2923-2.07151.5882S409.56569,135.3653,408.036,134.7468Z" transform="translate(-349.16851 -51.9951)" fill="#7f6593" opacity="0.2" style="mix-blend-mode: multiply"/>
          <path d="M394.97579,128.6651c-.5567.9796,2.4174,5.8972,4.8749,3.2989C400.27729,131.513,395.394,127.9294,394.97579,128.6651Z" transform="translate(-349.16851 -51.9951)" fill="#63495f"/>
          <path d="M395.052,129.009c-.14421.7406.93729,2.7267,1.63429,2.8384.6971.1117,2.1248-1.1253.7062-2.026C395.81029,128.817,395.16049,128.451,395.052,129.009Z" transform="translate(-349.16851 -51.9951)" fill="#5b3952" opacity="0.5" style="mix-blend-mode: multiply"/>
          <path d="M397.02979,132.3634c1.9556,1.1161,3.3906.5722,3.1657-.1952a1.49371,1.49371,0,0,0-.8244-.9863s.587.4568.2715.9147C399.327,132.5543,397.02979,132.3634,397.02979,132.3634Z" transform="translate(-349.16851 -51.9951)" fill="#fff"/>
          <path d="M440.60969,63.6381a5.74177,5.74177,0,0,1-.6096.535c-2.1868,1.5889-4.80409-.2-4.8213-2.7426a1.47827,1.47827,0,0,1,.2611-.8905,11.86643,11.86643,0,0,0,2.2766,1.7262A10.37638,10.37638,0,0,0,440.60969,63.6381Z" transform="translate(-349.16851 -51.9951)" fill="#63495f"/>
          <path d="M435.33459,60.7191c-.22759.6932.006,2.7855.8432,3.093.83721.3076,1.3403-1.1531,1.1127-1.506C437.06279,61.9533,435.45359,60.3571,435.33459,60.7191Z" transform="translate(-349.16851 -51.9951)" fill="#5b3952" opacity="0.5" style="mix-blend-mode: multiply"/>
          <path d="M436.12359,63.9785s1.6355,1.5749,4.178-.0535a2.02,2.02,0,0,1-2.089,1.5536C437.24039,65.4822,436.12359,63.9785,436.12359,63.9785Z" transform="translate(-349.16851 -51.9951)" fill="#fff"/>
          <path d="M414.19239,53.0643c-.3615,2.1815-.4958,5.9872.3123,6.7109.8081.7236,11.5289,4.4948,11.8522,4.4948.3232,0,1.2958-6.9497-.3233-7.9194C424.41459,55.3809,414.41569,51.7171,414.19239,53.0643Z" transform="translate(-349.16851 -51.9951)" fill="#6e5066" opacity="0.5" style="mix-blend-mode: multiply"/>
        </g>
        <g>
          <path d="M449.83129,124.2637a18.95144,18.95144,0,0,1-2.8098,2.6694c-3.00949,2.0934-9.7974,2.6716-9.7974,2.6716l.9932-4.8247Z" transform="translate(-349.16851 -51.9951)" fill="url(#_1297)"/>
          <path d="M444.26269,115.5172c5.2619,2.1757,6.1929,8.2654,5.5686,8.7465-4.737,3.6501-11.614.5163-11.614.5163s-2.3069-6.8049-1.3679-8.2205C437.68129,115.3052,444.26269,115.5172,444.26269,115.5172Z" transform="translate(-349.16851 -51.9951)" fill="url(#_1939)"/>
          <path d="M449.02859,124.4231c.8061-.628-11.5584-7.8407-12.1792-7.4614s.3747,6.9821,1.9411,7.889C439.28939,125.1395,445.35619,127.2839,449.02859,124.4231Z" transform="translate(-349.16851 -51.9951)" fill="#7f6593" opacity="0.3" style="mix-blend-mode: multiply"/>
          <path d="M449.62989,123.836c.4237-.305.2857-4.575-4.1268-7.5725-1.8588-1.2627-8.4273-.1752-8.279-.0191S449.20929,124.1389,449.62989,123.836Z" transform="translate(-349.16851 -51.9951)" fill="#fff" style="mix-blend-mode: soft-light"/>
        </g>
        <g>
          <path d="M377.957,124.2637a18.95881,18.95881,0,0,0,2.80969,2.6694c3.0095,2.0934,9.7975,2.6716,9.7975,2.6716L389.571,124.78Z" transform="translate(-349.16851 -51.9951)" fill="url(#_1297-2)"/>
          <path d="M383.52559,115.5172c-5.2619,2.1757-6.193,8.2654-5.56859,8.7465,4.737,3.6501,11.614.5163,11.614.5163s2.30679-6.8049,1.36789-8.2205C390.107,115.3052,383.52559,115.5172,383.52559,115.5172Z" transform="translate(-349.16851 -51.9951)" fill="url(#_1939-2)"/>
          <path d="M378.75969,124.4231c-.8061-.628,11.5584-7.8407,12.1792-7.4614s-.3747,6.9821-1.9412,7.889C388.49879,125.1395,382.432,127.2839,378.75969,124.4231Z" transform="translate(-349.16851 -51.9951)" fill="#7f6593" opacity="0.3" style="mix-blend-mode: multiply"/>
          <path d="M378.15829,123.836c-.4236-.305-.2856-4.575,4.1269-7.5725,1.85881-1.2627,8.4272-.1752,8.279-.0191C390.41589,116.4005,378.579,124.1389,378.15829,123.836Z" transform="translate(-349.16851 -51.9951)" fill="#fff" style="mix-blend-mode: soft-light"/>
        </g>
        <g>
          <path d="M461.62949,79.4448a18.96047,18.96047,0,0,1-1.4991,3.5739c-1.9137,3.1268-7.2696,6.3858-7.2696,6.3858l-1.6573-4.8169Z" transform="translate(-349.16851 -51.9951)" fill="url(#_1936)"/>
          <path d="M453.01389,73.6758c5.6926-.1239,8.9938,5.0774,8.6156,5.769-2.8693,5.2468-10.426,5.1428-10.426,5.1428s-4.84849-5.3028-4.558-6.9766C446.90279,76.1282,453.01389,73.6758,453.01389,73.6758Z" transform="translate(-349.16851 -51.9951)" fill="url(#_1939-3)"/>
          <path d="M460.95869,79.9135c.4855-.8991-13.7356-2.5311-14.1515-1.9342s3.1507,6.2421,4.9496,6.4425C452.32969,84.4857,458.74669,84.0096,460.95869,79.9135Z" transform="translate(-349.16851 -51.9951)" fill="#7f6593" opacity="0.3" style="mix-blend-mode: multiply"/>
          <path d="M461.27319,79.1342c.2653-.4496-1.5781-4.3037-6.8235-5.2739-2.2096-.4087-7.7864,3.2283-7.5878,3.3116C447.06039,77.2552,461.00989,79.5806,461.27319,79.1342Z" transform="translate(-349.16851 -51.9951)" fill="#fff" style="mix-blend-mode: soft-light"/>
        </g>
        <g>
          <path d="M366.44009,79.4448a18.96124,18.96124,0,0,0,1.4991,3.5739c1.9137,3.1268,6.7433,5.9206,6.7433,5.9206l2.1836-4.3517Z" transform="translate(-349.16851 -51.9951)" fill="url(#_1936-2)"/>
          <path d="M375.05569,73.6758c-5.6926-.1239-8.9938,5.0774-8.6156,5.769,2.8693,5.2468,10.426,5.1428,10.426,5.1428s4.8485-5.3028,4.558-6.9766C381.16679,76.1282,375.05569,73.6758,375.05569,73.6758Z" transform="translate(-349.16851 -51.9951)" fill="url(#_1939-4)"/>
          <path d="M367.11089,79.9135c-.4856-.8991,13.7356-2.5311,14.1515-1.9342s-3.1507,6.2421-4.9496,6.4425C375.73989,84.4857,369.32289,84.0096,367.11089,79.9135Z" transform="translate(-349.16851 -51.9951)" fill="#7f6593" opacity="0.3" style="mix-blend-mode: multiply"/>
          <path d="M366.79639,79.1342c-.2653-.4496,1.5781-4.3037,6.8235-5.2739,2.2096-.4087,7.7864,3.2283,7.5878,3.3116C381.00919,77.2552,367.05969,79.5806,366.79639,79.1342Z" transform="translate(-349.16851 -51.9951)" fill="#fff" style="mix-blend-mode: soft-light"/>
        </g>
        <g>
          <path d="M402.13979,114.8136a1.48958,1.48958,0,0,1-.9646-.2967c-1.43319-1.1521-.47419-5.8855.8255-11.4905.2694-1.1623.5476-2.3619.5672-2.7009a24.99212,24.99212,0,0,0-2.6966-2.3992c-3.9906-3.3072-7.0145-5.9731-6.655-7.6893.30071-1.4377,3.51-1.9888,10.142-2.6148a31.14788,31.14788,0,0,0,3.5253-.4318,27.04278,27.04278,0,0,0,1.1897-2.7509c2.0389-5.0902,3.8849-9.3039,5.8281-9.3039a1.35161,1.35161,0,0,1,.6387.1731l.0561.0293c1.7155.977,3.8577,5.84,5.731,10.3216.2874.6876.5834,1.3958.7107,1.6521a27.3038,27.3038,0,0,0,3.3027.3497c5.0515.3802,9.3051.826,10.19041,2.4333a.88889.88889,0,0,1,.117.4185c.08369,1.1933-1.97631,2.9958-5.37921,5.8212-1.6202,1.3452-3.839,3.1875-3.9523,3.725a26.64414,26.64414,0,0,0,.64651,3.3823c1.17659,5.2847,2.047,9.763.773,11.0395a1.24729,1.24729,0,0,1-.92041.3281c-1.7188,0-5.4248-2.1694-9.3949-4.5861-1.0743-.6539-2.1823-1.3282-2.5501-1.4878-.3484.1566-1.3643.8004-2.3494,1.4245-3.8416,2.4348-7.4463,4.6227-9.3359,4.6534Z" transform="translate(-349.16851 -51.9951)" fill="url(#_1577)"/>
          <path d="M433.55119,90.2946v.0049c.129,1.8342-8.9598,7.7387-9.059,9.1831-.0968,1.4122,3.18181,12.0075,1.5214,13.6678-1.3502,1.3527-11.3944-5.6909-12.13659-5.7331h-.00731c-.6354,0-8.6049,5.8647-11.3524,5.9095h-.0024a.99707.99707,0,0,1-.6577-.1764c-1.7697-1.4195,1.6555-12.541,1.53381-13.4667-.12161-.9283-9.57771-7.2447-9.08881-9.5727.4046-1.931,12.3749-2.0973,13.0921-2.6533.7173-.5584,4.0406-11.5855,6.5076-11.5855a.85151.85151,0,0,1,.4218.1291l.0076.0024c2.184,1.241,5.7159,10.9329,6.13271,11.5285.44669.6378,11.809.3574,13.035,2.5788A.38426.38426,0,0,1,433.55119,90.2946Z" transform="translate(-349.16851 -51.9951)" fill="url(#_1564)"/>
          <path d="M413.887,95.8317l-10.496,3.852c-.12161-.9283-9.57771-7.2447-9.08881-9.5727Z" transform="translate(-349.16851 -51.9951)" fill="#7e527c" opacity="0.5" style="mix-blend-mode: multiply"/>
          <path d="M420.464,87.5322l-6.577,8.2995.01489-19.9595.4218.1291.0076.0024C416.51529,77.2447,420.04719,86.9366,420.464,87.5322Z" transform="translate(-349.16851 -51.9951)" fill="#7e527c" opacity="0.5" style="mix-blend-mode: multiply"/>
          <path d="M433.55119,90.2946v.0049c.129,1.8342-8.9598,7.7387-9.059,9.1831L413.887,95.8317l19.612-5.7207Z" transform="translate(-349.16851 -51.9951)" fill="#7e527c" opacity="0.5" style="mix-blend-mode: multiply"/>
          <path d="M426.01359,113.1504c-1.3502,1.3527-11.3944-5.6909-12.13659-5.7331v.0098l-.00731-.0098.01731-11.5856Z" transform="translate(-349.16851 -51.9951)" fill="#7e527c" opacity="0.5" style="mix-blend-mode: multiply"/>
          <path d="M413.887,95.8317l-.01,11.5856v.0098l-.00731-.0098c-.6354,0-8.6049,5.8647-11.3524,5.9095h-.0024l-.6577-.1764Z" transform="translate(-349.16851 -51.9951)" fill="#7e527c" opacity="0.5" style="mix-blend-mode: multiply"/>
          <path d="M413.887,95.8317,394.30219,90.111c.4046-1.931,12.3749-2.0973,13.0921-2.6533Z" transform="translate(-349.16851 -51.9951)" fill="#fff" style="mix-blend-mode: soft-light"/>
          <path d="M394.30219,90.111c-3.2899.9658,5.7939,18.562,7.4074,17.7042,1.6135-.8579,10.8671-10.0456,12.17741-11.9835C413.887,95.8317,396.48069,89.4714,394.30219,90.111Z" transform="translate(-349.16851 -51.9951)" opacity="0.5" fill="url(#_187-9)" style="mix-blend-mode: multiply"/>
          <path d="M433.50369,90.111c3.2898.9658-5.7939,18.562-7.4075,17.7042-1.6135-.8579-10.867-10.0456-12.1773-11.9835C413.91889,95.8317,431.32509,89.4714,433.50369,90.111Z" transform="translate(-349.16851 -51.9951)" opacity="0.5" fill="url(#_187-10)" style="mix-blend-mode: multiply"/>
          <path d="M413.887,95.8317c-3.00921,4.247-12.02981,16.3023-12.02981,17.3187,0,1.4407,23.6943,1.5953,24.1564,0C426.47559,111.5552,414.45109,95.0356,413.887,95.8317Z" transform="translate(-349.16851 -51.9951)" opacity="0.5" fill="url(#_187-11)" style="mix-blend-mode: multiply"/>
          <path d="M408.99029,102.59c1.768,2.7644,5.56471,3.097,6.1753,3.1688.6106.0719,3.843-1.6684,4.92041-5.5032,1.07749-3.8348-.75791-6.8227-2.178-7.4623-1.42-.6397-9.72741,3.3925-9.79061,5.5392A7.62751,7.62751,0,0,0,408.99029,102.59Z" transform="translate(-349.16851 -51.9951)" opacity="0.5" fill="url(#_187-12)" style="mix-blend-mode: multiply"/>
          <g>
            <path d="M418.75319,92.8917a5.97976,5.97976,0,1,1-10.8273,1.2828C409.36269,89.2997,416.64929,89.351,418.75319,92.8917Z" transform="translate(-349.16851 -51.9951)" fill="url(#_19-4)"/>
            <path d="M414.61319,101.8716a6.09728,6.09728,0,0,0,5.03181-6.0253c-.40431,3.3827-2.86741,6.3332-7.78531,5.1704a6.3295,6.3295,0,0,1-4.2098-5.1837A6.01978,6.01978,0,0,0,414.61319,101.8716Z" transform="translate(-349.16851 -51.9951)" fill="url(#_176-2)"/>
            <path d="M408.13019,93.6039c.2093.5008,2.8233-2.0464,2.4795-2.5801h-.0021A5.04887,5.04887,0,0,0,408.13019,93.6039Z" transform="translate(-349.16851 -51.9951)" opacity="0.5" fill="url(#_314)" style="mix-blend-mode: color-dodge"/>
            <g>
              <path d="M408.97839,93.9838c-1.6402,3.3877,3.5284,10.3761,8.2202,5.068C422.39569,93.1722,412.52429,86.6601,408.97839,93.9838Z" transform="translate(-349.16851 -51.9951)" fill="url(#_1577-2)"/>
              <path d="M410.331,93.9595a4.07928,4.07928,0,0,0,1.59,5.3631c2.12449,1.4548,4.727-.2655,5.62649-2.0472,1.2852-2.5456-1.1632-5.1848-2.6824-5.6171C413.34579,91.226,411.05349,92.5081,410.331,93.9595Z" transform="translate(-349.16851 -51.9951)" fill="url(#_23)"/>
              <path d="M409.97209,95.7465a3.47469,3.47469,0,0,0,1.3571,3.0337c1.3572.9283,2.3152,1.0862,2.4185.933a4.28206,4.28206,0,0,0,.0362-1.4493,5.91934,5.91934,0,0,1-1.63289-1.2837c-.51031-.7036-.68531-.9496-.83091-.9632C411.17449,96.0033,410.02229,95.5288,409.97209,95.7465Z" transform="translate(-349.16851 -51.9951)" fill="#b82774" opacity="0.4" style="mix-blend-mode: multiply"/>
              <path d="M411.60079,95.9362c-.1906.8239,2.16721,2.3585,2.3824,2.3277,1.0145-.1449,2.2429-2.3882,2.2647-3.1172.0147-.4926-1.8841-2.0818-2.4906-1.8913A6.287,6.287,0,0,0,411.60079,95.9362Z" transform="translate(-349.16851 -51.9951)" fill="#fff" style="mix-blend-mode: soft-light"/>
              <path d="M413.98319,98.2639c-.2808.1178-.1795,1.3945-.0835,1.4059,1.06831.1274,2.1672-.4691,3.23731-1.8627a3.01992,3.01992,0,0,0,.42409-3.1211c-.1366-.1713-1.3078.259-1.3132.4607A4.31631,4.31631,0,0,1,413.98319,98.2639Z" transform="translate(-349.16851 -51.9951)" fill="#b82774" opacity="0.8" style="mix-blend-mode: multiply"/>
              <path d="M409.89409,95.465c-.01209.1914,1.39391.6523,1.4985.5344.1708-.1924,2.2917-2.6902,2.3006-2.8443.0145-.2491.07581-1.4604-.2831-1.4779a5.20065,5.20065,0,0,0-2.5768,1.555A3.51813,3.51813,0,0,0,409.89409,95.465Z" transform="translate(-349.16851 -51.9951)" fill="#fff" opacity="0.75"/>
              <path d="M410.331,93.9595a5.36622,5.36622,0,0,1,1.81339-1.7553s.625.1902.1359.9782S410.331,93.9595,410.331,93.9595Z" transform="translate(-349.16851 -51.9951)" fill="#fff"/>
              <path d="M413.27159,97.8866c-.0433.069.4087.9524.533.9276a2.08509,2.08509,0,0,0,.5409-.7133C414.28689,98.1052,413.36609,97.7357,413.27159,97.8866Z" transform="translate(-349.16851 -51.9951)" fill="#fff"/>
              <path d="M416.05309,94.7437a1.203,1.203,0,0,0,.08191,1.0217c.10359.0257.57169-.8519.51429-.9068C416.59189,94.8038,416.22079,94.5387,416.05309,94.7437Z" transform="translate(-349.16851 -51.9951)" fill="#fff"/>
              <path d="M412.21249,100.717a5.20249,5.20249,0,0,0,4.9861-1.6652,4.70789,4.70789,0,0,0,1.2142-4.9978,4.676,4.676,0,0,1-1.2411,5.6601A4.36874,4.36874,0,0,1,412.21249,100.717Z" transform="translate(-349.16851 -51.9951)" fill="#ffd2ff"/>
              <path d="M411.32709,100.2556c-1.3838-1.7562-3.1387-5.3629-.7366-7.8479,2.4022-2.4851,6.032-.1419,7.08551.339a5.10906,5.10906,0,0,0-6.89811-1.7713c-1.7736.8346-2.2348,2.0871-2.086,4.919C408.82829,98.4894,411.32709,100.2556,411.32709,100.2556Z" transform="translate(-349.16851 -51.9951)" opacity="0.5" fill="url(#_187-13)" style="mix-blend-mode: multiply"/>
            </g>
          </g>
        </g>
        <g>
          <path d="M380.56359,71.4808c2.49941,9.1783,6.05041,1.9545,5.32541-.6291Z" transform="translate(-349.16851 -51.9951)" fill="#6e5066" opacity="0.5" style="mix-blend-mode: multiply"/>
          <path d="M385.889,70.8517a2.43347,2.43347,0,0,1-2.66271,2.6627,2.66272,2.66272,0,0,1-2.6627-2.6627,2.4991,2.4991,0,0,1,2.6627-2.6627A2.72471,2.72471,0,0,1,385.889,70.8517Z" transform="translate(-349.16851 -51.9951)" fill="#63495f"/>
          <path d="M380.89009,70.8517c.9697.554,4.6764.0255,4.6511-.5902a2.88582,2.88582,0,0,0-3.0439-1.8317C381.08759,68.7172,380.27909,70.5026,380.89009,70.8517Z" transform="translate(-349.16851 -51.9951)" fill="#fff"/>
          <path d="M381.39289,72.5781c1.6059,1.1595,3.5557.853,4.35011-.8621C386.36119,70.3813,380.093,71.6395,381.39289,72.5781Z" transform="translate(-349.16851 -51.9951)" fill="#fff" style="mix-blend-mode: soft-light"/>
        </g>
        <g>
          <path d="M441.73159,71.3722c2.49941,9.1783,6.0503,1.9545,5.32541-.6291Z" transform="translate(-349.16851 -51.9951)" fill="#6e5066" opacity="0.5" style="mix-blend-mode: multiply"/>
          <path d="M447.057,70.7431a2.43347,2.43347,0,0,1-2.66271,2.6627,2.66266,2.66266,0,0,1-2.6627-2.6627,2.4991,2.4991,0,0,1,2.6627-2.6627A2.72478,2.72478,0,0,1,447.057,70.7431Z" transform="translate(-349.16851 -51.9951)" fill="#63495f"/>
          <path d="M442.05809,70.7431c.9697.554,4.6764.0255,4.651-.5902a2.88559,2.88559,0,0,0-3.0438-1.8317C442.25559,68.6085,441.447,70.394,442.05809,70.7431Z" transform="translate(-349.16851 -51.9951)" fill="#fff"/>
          <path d="M442.56089,72.4695c1.6058,1.1595,3.5556.853,4.35-.8621C447.52909,70.2727,441.261,71.5309,442.56089,72.4695Z" transform="translate(-349.16851 -51.9951)" fill="#fff" style="mix-blend-mode: soft-light"/>
        </g>
        <g>
          <path d="M410.70939,56.8422c2.4994,9.1783,6.0504,1.9545,5.3254-.629Z" transform="translate(-349.16851 -51.9951)" fill="#6e5066" opacity="0.5" style="mix-blend-mode: multiply"/>
          <path d="M416.03479,56.2132a2.4335,2.4335,0,0,1-2.6627,2.6627,2.66272,2.66272,0,0,1-2.6627-2.6627,2.49906,2.49906,0,0,1,2.6627-2.6627A2.72462,2.72462,0,0,1,416.03479,56.2132Z" transform="translate(-349.16851 -51.9951)" fill="#63495f"/>
          <path d="M411.03589,56.2132c.9697.554,4.6764.0254,4.65111-.5902a2.88573,2.88573,0,0,0-3.04391-1.8317C411.23339,54.0786,410.42489,55.8641,411.03589,56.2132Z" transform="translate(-349.16851 -51.9951)" fill="#fff"/>
          <path d="M411.53869,57.9395c1.6059,1.1595,3.5557.8531,4.35-.862C416.50689,55.7428,410.23879,57.0009,411.53869,57.9395Z" transform="translate(-349.16851 -51.9951)" fill="#fff" style="mix-blend-mode: soft-light"/>
        </g>
        <g>
          <path d="M410.70939,137.3739c2.4994,9.1783,6.0504,1.9545,5.3254-.629Z" transform="translate(-349.16851 -51.9951)" fill="#6e5066" opacity="0.5" style="mix-blend-mode: multiply"/>
          <path d="M416.03479,136.7449a2.4335,2.4335,0,0,1-2.6627,2.6627,2.66272,2.66272,0,0,1-2.6627-2.6627,2.49906,2.49906,0,0,1,2.6627-2.6627A2.72462,2.72462,0,0,1,416.03479,136.7449Z" transform="translate(-349.16851 -51.9951)" fill="#63495f"/>
          <path d="M411.03589,136.7449c.9697.554,4.6764.0254,4.65111-.5902a2.88573,2.88573,0,0,0-3.04391-1.8317C411.23339,134.6103,410.42489,136.3958,411.03589,136.7449Z" transform="translate(-349.16851 -51.9951)" fill="#fff"/>
          <path d="M411.53869,138.4712c1.6059,1.1595,3.5557.8531,4.35-.862C416.50689,136.2745,410.23879,137.5326,411.53869,138.4712Z" transform="translate(-349.16851 -51.9951)" fill="#fff" style="mix-blend-mode: soft-light"/>
        </g>
      </g>
    </g>
  </g>
</svg>
