<svg xmlns="http://www.w3.org/2000/svg" xmlns:xlink="http://www.w3.org/1999/xlink" viewBox="0 0 95.24807 97.4024">
  <defs>
    <linearGradient id="_494" data-name="  494" x1="286.76279" y1="149.3975" x2="286.76279" y2="73.00205" gradientUnits="userSpaceOnUse">
      <stop offset="0" stop-color="#ca143c"/>
      <stop offset="0.48883" stop-color="#db1f16"/>
      <stop offset="1" stop-color="#a4013e"/>
    </linearGradient>
    <linearGradient id="_112" data-name="  112" x1="286.8656" y1="133.6633" x2="286.8656" y2="59.2229" gradientUnits="userSpaceOnUse">
      <stop offset="0" stop-color="#ca143c"/>
      <stop offset="1" stop-color="#a4013e"/>
    </linearGradient>
    <linearGradient id="_1698" data-name="  1698" x1="259.61649" y1="97.1039" x2="314.11379" y2="97.1039" gradientUnits="userSpaceOnUse">
      <stop offset="0" stop-color="#538839"/>
      <stop offset="1" stop-color="#5e6b1c"/>
    </linearGradient>
    <linearGradient id="_134" data-name="  134" x1="286.85389" y1="105.011" x2="317.87779" y2="105.011" gradientUnits="userSpaceOnUse">
      <stop offset="0" stop-color="#f5643b"/>
      <stop offset="1" stop-color="#f53636"/>
    </linearGradient>
    <linearGradient id="_141" data-name="  141" x1="286.86649" y1="141.6708" x2="286.86649" y2="51.9951" gradientUnits="userSpaceOnUse">
      <stop offset="0" stop-color="#ffb092"/>
      <stop offset="0.0182" stop-color="#ffa586"/>
      <stop offset="0.07022" stop-color="#ff8b68"/>
      <stop offset="0.12812" stop-color="#ff7550"/>
      <stop offset="0.19315" stop-color="#ff643d"/>
      <stop offset="0.26937" stop-color="#ff5830"/>
      <stop offset="0.36724" stop-color="#ff5128"/>
      <stop offset="0.56265" stop-color="#ff4f26"/>
      <stop offset="0.65982" stop-color="#ff6f3b"/>
      <stop offset="1" stop-color="#ff938d"/>
    </linearGradient>
    <linearGradient id="_535" data-name="  535" x1="286.76214" y1="76.1566" x2="286.76214" y2="113.05379" gradientUnits="userSpaceOnUse">
      <stop offset="0" stop-color="#ffb092"/>
      <stop offset="0.63408" stop-color="#ff4f26"/>
      <stop offset="0.69553" stop-color="#ff6f3b"/>
      <stop offset="1" stop-color="#ff938d"/>
    </linearGradient>
    <linearGradient id="_494-2" x1="356.88335" y1="1546.63627" x2="356.88335" y2="1533.81622" gradientTransform="matrix(0.6886, 0.7251, -0.7251, 0.6886, 1186.4999, -1193.4314)" xlink:href="#_494"/>
    <linearGradient id="_163" data-name="  163" x1="349.81162" y1="1532.5104" x2="357.44587" y2="1539.76033" gradientTransform="matrix(0.6886, 0.7251, -0.7251, 0.6886, 1186.4999, -1193.4314)" gradientUnits="userSpaceOnUse">
      <stop offset="0" stop-color="#ff7a49"/>
      <stop offset="0.0902" stop-color="#ff7745"/>
      <stop offset="0.39359" stop-color="#ff713d"/>
      <stop offset="1" stop-color="#ff6f3b"/>
    </linearGradient>
    <linearGradient id="_494-3" x1="2617.61952" y1="-833.93271" x2="2617.61952" y2="-846.7527" gradientTransform="matrix(-0.6886, 0.7251, 0.7251, 0.6886, 2669.8697, -1193.4314)" xlink:href="#_494"/>
    <linearGradient id="_163-2" x1="2610.54776" y1="-848.05854" x2="2618.18201" y2="-840.80862" gradientTransform="matrix(-0.6886, 0.7251, 0.7251, 0.6886, 2669.8697, -1193.4314)" xlink:href="#_163"/>
    <linearGradient id="_494-4" x1="621.66683" y1="533.18706" x2="621.66683" y2="520.6102" gradientTransform="matrix(0.9221, 0.387, -0.387, 0.9221, -40.65, -642.65)" xlink:href="#_494"/>
    <linearGradient id="_163-3" x1="616.30217" y1="518.18487" x2="620.52602" y2="528.24836" gradientTransform="matrix(0.9221, 0.387, -0.387, 0.9221, -40.65, -642.65)" xlink:href="#_163"/>
    <linearGradient id="_494-5" x1="3741.66788" y1="-776.89171" x2="3741.66788" y2="-788.83608" gradientTransform="matrix(-0.9221, 0.387, 0.387, 0.9221, 3998.3461, -642.65)" xlink:href="#_494"/>
    <linearGradient id="_163-4" x1="3736.3032" y1="-791.2614" x2="3740.52705" y2="-781.1979" gradientTransform="matrix(-0.9221, 0.387, 0.387, 0.9221, 3998.3461, -642.65)" xlink:href="#_163"/>
  </defs>
  <g style="isolation: isolate">
    <g id="rank_icon" data-name="rank icon">
      <g>
        <g>
          <path d="M326.77249,85.3877c-3.2254,12.1261-5.5607,25.6703-11.1348,36.7339-3.3491,6.6475-10.5383,12.0557-16.1423,16.9178-4.114,3.5693-8.3217,7.0416-12.6431,10.3581-9.7682-7.4386-21.4347-15.6696-28.2496-26.0233h-.0019a12.75358,12.75358,0,0,1-.7243-1.2525c-5.5178-11.2202-7.9113-24.6161-11.13449-36.734a41.5891,41.5891,0,0,1,1.21319-11.7399q38.9076-1.29435,77.8226.0075A45.66188,45.66188,0,0,1,326.77249,85.3877Z" transform="translate(-239.36967 -51.9951)" fill="url(#_494)"/>
          <path d="M326.77249,85.3877c-3.2254,12.1261-5.6502,25.4024-11.1348,36.7339-.1433-8.3915,2.749-17.5363,4.5444-25.6583q2.5344-11.4657,5.5957-22.808A45.66188,45.66188,0,0,1,326.77249,85.3877Z" transform="translate(-239.36967 -51.9951)" fill="#b8038b" opacity="0.5" style="mix-blend-mode: multiply"/>
          <path d="M286.85319,149.3969c-.4026-.1776-.7396-10.2432,1.7009-13.1926,3.1633-3.8228,9.3163-6.7483,13.9972-9.4808,2.0702-1.2084,12.4364-6.6552,12.9385-5.1301.4478,1.3598-3.8355,6.0994-5.5601,7.8868-3.0812,3.1936-6.8288,6.359-10.1428,9.3073C295.17569,142.8901,286.85319,149.3969,286.85319,149.3969Z" transform="translate(-239.36967 -51.9951)" fill="#b8038b" opacity="0.5" style="mix-blend-mode: multiply"/>
          <path d="M258.60269,123.3742h-.0019a12.75358,12.75358,0,0,1-.7243-1.2525c-5.5178-11.2202-7.9113-24.6161-11.13449-36.734a41.5891,41.5891,0,0,1,1.21319-11.7399c1.377-.0477,2.0657-.0704,3.4427-.1137C253.35369,90.0416,254.40469,107.25,258.60269,123.3742Z" transform="translate(-239.36967 -51.9951)" fill="#c10065" opacity="0.5" style="mix-blend-mode: multiply"/>
          <path d="M317.99479,76.0363a89.4068,89.4068,0,0,0-8.2821-6.5259l-.0058-.0041a80.71945,80.71945,0,0,0-20.8275-9.7311h-.0021c-.64829-.1902-1.2288-.3494-1.7346-.48-.1094-.029-.1642-.0434-.27369-.0723l-.27171.0723a75.19152,75.19152,0,0,0-30.8606,16.736c-.1411.1302-.2116.1954-.3525.3256.02481.1942.0371.2911.06181.4853.06059.4735.12669.9814.19809,1.5189.5991,4.5072,1.2718,9.0445,2.0436,13.5128,1.4077,8.1501,2.5916,17.8227,6.834,25.1939l.0197.032.0213.03c3.2047,4.078,8.1601,7.0834,12.3251,9.9867,1.5164,1.057,3.0363,2.0693,4.4443,2.9989q2.51715,1.66155,5.0766,3.2679c.1782.1122.2671.1683.4451.2801.1787-.112.2681-.168.447-.2802.0687-.0421.1377-.087.20821-.1322,3.10749-1.991,6.27589-4.0317,9.31429-6.1361,4.1732-2.8903,9.12371-5.8982,12.3281-9.9874l.0214-.03.0197-.0319c4.24251-7.3775,5.4277-17.0335,6.8417-25.1899.6864-3.9599,1.3-7.9707,1.8436-11.9694.1534-1.1277.2907-2.1557.4054-3.059.0254-.1942.0383-.2911.06381-.4851C318.20619,76.2317,318.13569,76.1667,317.99479,76.0363Zm-5.7909,15.3514c-1.26489,7.6537-2.3341,16.4853-6.0347,23.5068-3.1603,3.5169-7.4193,6.2175-11.2515,8.8536-2.6354,1.8127-5.3424,3.588-8.0634,5.3084-2.7198-1.7196-5.42529-3.4949-8.0597-5.3071-3.8314-2.6356-8.0653-5.3569-11.2491-8.8532-3.7053-7.0368-4.76049-15.8344-6.0253-23.5102-.7284-4.421-1.3631-8.9002-1.9037-13.3705a72.3339,72.3339,0,0,1,27.2512-14.6287,72.31559,72.31559,0,0,1,27.2461,14.6329C313.56429,82.4886,312.93439,86.9676,312.20389,91.3877Z" transform="translate(-239.36967 -51.9951)" fill="url(#_112)"/>
          <path d="M314.11379,78.0197c-.5495,4.4689-1.1794,8.9479-1.9099,13.368-1.26489,7.6537-2.3341,16.4853-6.0347,23.5068-2.9266,4.3319-7.08419,7.6872-11.27219,10.6165-2.60011,1.8186-5.32841,3.5897-8.04291,5.31-2.7135-1.7196-5.4403-3.4905-8.0394-5.3087-4.1905-2.931-8.3386-6.2845-11.2692-10.6161-3.3373-6.3476-4.3654-14.1578-5.61549-21.0878l-.00211-.002c-.1341-.7791-.2727-1.5875-.4077-2.4204-.7187-4.4344-1.3631-8.9002-1.9037-13.3705a54.27461,54.27461,0,0,1,4.9161-3.9131,74.39016,74.39016,0,0,1,19.2469-9.7742c1.1736-.3866,2.2172-.7005,3.0882-.9414a75.63907,75.63907,0,0,1,9.8181,3.5562A71.49771,71.49771,0,0,1,314.11379,78.0197Z" transform="translate(-239.36967 -51.9951)" fill="url(#_1698)"/>
          <path d="M317.28609,76.7711c-1.2729.4964-1.9074.7462-3.1723,1.2486a72.31559,72.31559,0,0,0-27.2461-14.6329c.0004-1.2496.0005-1.8745.0009-3.1243.8025-.196,1.2042-.2934,2.0087-.4873h.0021a80.71945,80.71945,0,0,1,20.8275,9.7311l.0058.0041Q313.52315,73.1158,317.28609,76.7711Z" transform="translate(-239.36967 -51.9951)" fill="#b8038b" opacity="0.5" style="mix-blend-mode: multiply"/>
          <path d="M317.87779,79.9062c-.5419,4.001-1.1571,8.0096-1.8436,11.9694-1.4141,8.1565-2.59919,17.8124-6.8417,25.1899l-.0197.0319-.0214.03c-3.20439,4.0892-8.1549,7.0969-12.3281,9.9874-3.0384,2.1044-6.1669,4.1539-9.31429,6.1361-.26181-.295-.39281-.4425-.65511-.7376.00011-.6765.00011-1.0149.0002-1.6916,2.7146-1.7201,5.44291-3.4913,8.0428-5.3099,4.1882-2.9295,8.3458-6.285,11.2723-10.6173,3.7006-7.0215,4.7699-15.8532,6.0347-23.5068.7304-4.4202,1.3604-8.8991,1.9099-13.368,1.2649-.5024,1.8994-.7522,3.1723-1.2486C317.52389,78.026,317.64219,78.653,317.87779,79.9062Z" transform="translate(-239.36967 -51.9951)" fill="url(#_134)"/>
          <path d="M325.75569,73.6309c-.6324-.6768-1.3212-1.3402-1.9989-1.9848-.0921-.0876-.1879-.1761-.28779-.2683a84.40255,84.40255,0,0,0-10.01541-7.7397,10.37036,10.37036,0,0,1-2.8932-1.3719,11.87292,11.87292,0,0,1-2.2765-1.7262l-.002-.002a97.77486,97.77486,0,0,0-19.6301-8.0748c-.0526-.0145-.1069-.03-.1615-.0446-.7744-.2071-1.3017-.3472-1.5127-.3974-.0212-.004-.0425-.0101-.0638-.0141l-.0426-.012-.017.004c-.0107.002-.0299.006-.0511.012-13.9779,3.4411-27.9895,10.6656-38.1269,20.8956q-.3624.3657-.721.7411l.0207.1565c.0485.3916.1952,1.5053.4296,3.1472l.0053.0353c1.0336,7.2087,2.2358,14.4035,3.7349,21.5306,1.5532,7.3842,3.0507,15.7459,7.0156,22.1119,3.3278,5.3432,10.2574,9.3411,15.38871,12.9198,4.02979,2.8104,8.12859,5.5299,12.303,8.1217,4.17519-2.593,8.27459-5.3131,12.30549-8.1244,5.1226-3.5727,12.07151-7.5931,15.3913-12.9205,3.9701-6.371,5.4736-14.7165,7.0254-22.1075,1.4963-7.1269,2.70781-14.3177,3.7451-21.525l.0052-.0352c.2354-1.6416.3826-2.7549.4317-3.1465l.0206-.1564Zm-10.677,18.1221c-1.3716,8.0149-2.4962,17.5518-6.6609,24.8065-3.2101,3.9417-7.973,6.8819-12.0703,9.7143-3.0973,2.1413-6.28549,4.2243-9.4936,6.2395-3.2107-2.0072-6.3942-4.0973-9.48989-6.2379-4.06651-2.8119-8.88-5.7815-12.06751-9.7138-4.1643-7.2482-5.2849-16.801-6.6513-24.8105-.8453-4.9546-1.5735-9.974-2.2003-14.985a74.37789,74.37789,0,0,1,30.4237-16.5036,74.54223,74.54223,0,0,1,30.4175,16.5086C316.65689,81.7811,315.92649,86.7998,315.07869,91.753Z" transform="translate(-239.36967 -51.9951)" fill="url(#_141)"/>
          <path d="M325.058,73.6892c-.84491-2.8769-10.18-8.5206-15.31091-11.6453-6.8355-4.1633-19.4375-10.0484-22.6183-9.6002a2.245,2.245,0,0,1-.3793,0c-3.1806-.4482-15.9572,4.7689-22.7926,8.9322-5.131,3.1246-14.2917,9.4364-15.1385,12.3133-.7003,2.3877.7995,10.0507,1.5299,10.055a25.353,25.353,0,0,0,5.8895-2.086c.4289-.2176-.3469-4.3897.2069-4.8917,10.35231-9.4021,20.9432-13.7151,29.2518-16.504a2.19672,2.19672,0,0,1,1.7599-.1049c6.52661,2.4876,14.9095,4.1124,29.9773,16.6089.5754.4772-.2219,4.6741.2069,4.8917a25.32109,25.32109,0,0,0,5.88941,2.086C324.26059,83.7399,325.76039,76.0769,325.058,73.6892Z" transform="translate(-239.36967 -51.9951)" fill="#fff" opacity="0.5" style="mix-blend-mode: soft-light"/>
          <path d="M259.61649,78.0197c.5494,4.4689,1.1793,8.9479,1.9098,13.368,1.2649,7.6537,2.3342,16.4853,6.03471,23.5068,2.92649,4.3323,7.08419,7.6878,11.27229,10.6173,2.5999,1.8186,5.3282,3.5898,8.0428,5.3099-.0573-11.2299-.1066-22.4631-.0066-33.6916.1-11.2371.3229-22.5058-.007-33.7433A72.31443,72.31443,0,0,0,259.61649,78.0197Z" transform="translate(-239.36967 -51.9951)" fill="#fffb8c" opacity="0.5" style="mix-blend-mode: soft-light"/>
          <path d="M314.11379,78.0197c-.5495,4.4689-1.1794,8.9479-1.9099,13.368-1.26489,7.6537-2.3341,16.4853-6.0347,23.5068-2.9266,4.3319-7.08419,7.6872-11.27219,10.6165-2.60011,1.8186-5.32841,3.5897-8.04291,5.31-2.7135-1.7196-5.4403-3.4905-8.0394-5.3087-4.1905-2.931-8.3386-6.2845-11.2692-10.6161-3.3373-6.3476-4.3654-14.1578-5.61549-21.0878l-.00211-.002c-.1341-.7791-.2727-1.5875-.4077-2.4204-.7187-4.4344-1.3631-8.9002-1.9037-13.3705a58.057,58.057,0,0,1,4.9161-3.9131l.0827-.0415a10.501,10.501,0,0,0-3.6859,4.4781c-1.2558,3.7317,2.0748,18.3119,3.0617,22.744,1.3245,5.9477,17.2474-2.5668,22.1601-2.8289,4.8057-.2563,19.4283,11.0421,21.8715,6.5569,6.2049-11.391,1.7567-29.9283-11.3594-38.0682l.0225.0002A73.49987,73.49987,0,0,1,314.11379,78.0197Z" transform="translate(-239.36967 -51.9951)" fill="#912774" opacity="0.3" style="mix-blend-mode: multiply"/>
          <path d="M256.62609,78.0809c1.2008.948,3.27591,2.2121,3.27591,2.2121,3.19139-6.5375,11.36419-9.589,17.80579-11.0209,7.3925-1.6433,15.9105,2.4153,22.3059,6.0011,4.3354,2.4308,10.2905,5.5621,13.158,9.8215,1.3214-.9722,1.9859-1.4564,3.3225-2.4207.3103-2.3619.4685-3.5426.7919-5.9029a76.2778,76.2778,0,0,0-30.4175-16.5086s-17.62959,4.5111-30.4237,16.5036C256.51779,77.2919,256.55389,77.5549,256.62609,78.0809Z" transform="translate(-239.36967 -51.9951)" fill="#762fbe" opacity="0.5" style="mix-blend-mode: multiply"/>
          <path d="M323.08469,84.3648c-1.2288-.628-5.5916-1.569-6.2755.185-.4158,1.0665-1.4763,7.2286-2.1871,11.1538-1.3829,7.6381-2.5496,8.9441-3.4859,13.0782-.3519,1.5535,6.2513,1.4607,7.21081.7957.73909-.5121,1.065-1.9735,2.24779-7.6654.9956-4.7913,2.18221-9.6157,2.8689-14.4733C323.66019,86.0493,323.87649,84.7694,323.08469,84.3648Z" transform="translate(-239.36967 -51.9951)" fill="#d81bdc" opacity="0.4" style="mix-blend-mode: multiply"/>
          <path d="M256.44489,82.8155c-.5388-.4139-5.5401.8061-6.1017,1.7731-.6029,1.0381.8384,8.5908,1.6327,12.3969,1.5723,7.5341,2.7868,11.9305,3.4083,12.9529,1.3704,2.2542,8.1149,2.4776,7.5059.4293-1.0858-3.6518-2.17309-5.129-3.2736-11.9136C258.88619,93.9526,257.41009,83.557,256.44489,82.8155Z" transform="translate(-239.36967 -51.9951)" fill="#d81bdc" opacity="0.4" style="mix-blend-mode: multiply"/>
          <path d="M287.80479,147.7969c-.4783.0887-.5403-5.4824-.3101-5.7911,2.3129-3.1025,7.72131-4.427,5.02431,1.5353C291.72149,145.3044,289.50639,147.4813,287.80479,147.7969Z" transform="translate(-239.36967 -51.9951)" fill="#fff" style="mix-blend-mode: soft-light"/>
          <path d="M309.47179,125.8142c.79521-.8514-.75179-7.7051-1.4717-7.2578-1.1017.6847-20.7477,13.9321-21.1336,14.4417-.86,1.1355-.10249,7.7579.267,7.8194C287.99,140.9602,306.90179,128.5659,309.47179,125.8142Z" transform="translate(-239.36967 -51.9951)" fill="#fff" style="mix-blend-mode: soft-light"/>
          <path d="M277.10449,63.3868c1.1816-.5184.2848-8.3122-.9996-7.8598-10.4934,3.6959-21.2295,11.9761-21.2033,12.3308.0362.4899,6.392,3.6758,9.0395,2.4641C265.88389,69.4327,271.96859,65.6402,277.10449,63.3868Z" transform="translate(-239.36967 -51.9951)" fill="#fff" style="mix-blend-mode: soft-light"/>
          <path d="M325.77779,73.6553l-.0206.1564c-.1747,1.2584-.2611,1.8877-.4317,3.1465l-.0052.0352c-1.6729-8.096-7.7611-9.3541-12.4762-12.8203-1.3729-1.009-2.8506-1.998-4.327-2.9047-6.1959-3.805-13.7473-7.6448-21.0489-8.4559-5.4433-.6047-16.5515,5.2041-22.9834,9.2225-5.2057,3.2524-14.3596,8.4511-16.074,14.9518l-.0053-.0353c-.1698-1.259-.2557-1.8886-.4296-3.1472l-.0207-.1565c.2383-.2501.4794-.5015.721-.7411a81.87082,81.87082,0,0,1,38.1269-20.8956c.0212-.006.0404-.01.0511-.012l.017-.004.0426.012c.0213.004.0426.0101.0638.0141.5091.1287,1.0155.2656,1.5127.3974.05471.0145.1089.0301.1615.0446a97.5877,97.5877,0,0,1,19.6301,8.0748l.002.002a11.85824,11.85824,0,0,0,2.2765,1.7262,10.37782,10.37782,0,0,0,2.8932,1.3719A84.80485,84.80485,0,0,1,323.469,71.3778q.14983.1383.28779.2683c1.1899,1.1242,1.874,1.8467,1.9989,1.9848Z" transform="translate(-239.36967 -51.9951)" fill="#d64a6d" opacity="0.8" style="mix-blend-mode: multiply"/>
          <path d="M272.51559,122.8078s12.1851,10.4436,14.2352,10.4436c1.9365,0,13.0361-9.3185,13.0361-9.3185-.00689-.0091-11.489,7.3492-12.8778,7.5341C284.00059,131.8545,272.51559,122.8078,272.51559,122.8078Z" transform="translate(-239.36967 -51.9951)" fill="#ffba95"/>
          <path d="M314.85069,93.067c.1374.0308-6.4329,23.4925-6.4329,23.4925-.09479-.0437,3.7574-7.6087,4.9974-12.292C314.24,101.1521,314.85069,93.067,314.85069,93.067Z" transform="translate(-239.36967 -51.9951)" fill="#ffba95"/>
          <path d="M258.86579,93.067c-.1375.0308,5.9255,22.5754,5.9255,22.5754.0948-.0437-3.5109-6.6916-4.751-11.3749C259.21549,101.1521,258.86579,93.067,258.86579,93.067Z" transform="translate(-239.36967 -51.9951)" fill="#ffba95"/>
          <path d="M280.01949,133.2256c3.7934.1844,1.3787-2.4079-.1268-3.3887-1.4191-.9243-5.6262-2.3372-5.897-1.844C273.56529,128.7773,277.49449,133.1029,280.01949,133.2256Z" transform="translate(-239.36967 -51.9951)" fill="#b8038b" opacity="0.3" style="mix-blend-mode: multiply"/>
          <path d="M280.88,134.7468c-2.37381-.9598-3.20441-1.2923-2.07151.5882C279.94129,137.2155,282.40969,135.3653,280.88,134.7468Z" transform="translate(-239.36967 -51.9951)" fill="#b8038b" opacity="0.3" style="mix-blend-mode: multiply"/>
          <path d="M267.81979,128.6651c-.55679.9796,2.4174,5.8972,4.8749,3.2989C273.12129,131.513,268.23789,127.9294,267.81979,128.6651Z" transform="translate(-239.36967 -51.9951)" fill="#cc1f38"/>
          <path d="M267.89589,129.009c-.1441.7406.9373,2.7267,1.6343,2.8384.6971.1117,2.1249-1.1253.7062-2.026C268.65429,128.817,268.00449,128.451,267.89589,129.009Z" transform="translate(-239.36967 -51.9951)" fill="#d640c6" opacity="0.5" style="mix-blend-mode: multiply"/>
          <path d="M269.87379,132.3634c1.9555,1.1161,3.3905.5722,3.1657-.1952a1.494,1.494,0,0,0-.8244-.9863s.58691.4568.2714.9147C272.171,132.5543,269.87379,132.3634,269.87379,132.3634Z" transform="translate(-239.36967 -51.9951)" fill="#ffba95"/>
          <path d="M313.45359,63.6381a5.75126,5.75126,0,0,1-.6095.535c-2.1869,1.5889-4.80409-.2-4.8214-2.7426a1.47784,1.47784,0,0,1,.2612-.8905,11.85824,11.85824,0,0,0,2.2765,1.7262A10.37782,10.37782,0,0,0,313.45359,63.6381Z" transform="translate(-239.36967 -51.9951)" fill="#cc1f38"/>
          <path d="M308.17849,60.7191c-.2276.6932.006,2.7855.8433,3.093.8371.3076,1.3403-1.1531,1.1126-1.506C309.90669,61.9533,308.29749,60.3571,308.17849,60.7191Z" transform="translate(-239.36967 -51.9951)" fill="#d640c6" opacity="0.5" style="mix-blend-mode: multiply"/>
          <path d="M308.96759,63.9785s1.63541,1.5749,4.1779-.0535a2.02,2.02,0,0,1-2.089,1.5536C310.08429,65.4822,308.96759,63.9785,308.96759,63.9785Z" transform="translate(-239.36967 -51.9951)" fill="#fff"/>
          <path d="M287.03639,53.0643c-.3616,2.1815-.4958,5.9872.3123,6.7109.8081.7236,11.5289,4.4948,11.8521,4.4948s1.2958-6.9497-.3232-7.9194C297.25849,55.3809,287.25959,51.7171,287.03639,53.0643Z" transform="translate(-239.36967 -51.9951)" fill="#d64a6d" opacity="0.8" style="mix-blend-mode: multiply"/>
        </g>
        <g>
          <path d="M275.15909,114.5182a1.46744,1.46744,0,0,1-.9502-.2922c-1.41189-1.135-.4672-5.798.81311-11.3194.26549-1.1451.53949-2.3269.55879-2.6607a24.60862,24.60862,0,0,0-2.6565-2.3636c-3.9312-3.258-6.91-5.8842-6.5558-7.5748.2962-1.4163,3.4577-1.9591,9.991-2.5759a30.67993,30.67993,0,0,0,3.4728-.4253,26.61848,26.61848,0,0,0,1.1719-2.71c2.0086-5.0143,3.8271-9.1653,5.7414-9.1653a1.33127,1.33127,0,0,1,.6292.1705l.05521.0288c1.69.9625,3.80029,5.7531,5.64569,10.168.2832.6774.5748,1.375.7002,1.6275a26.9048,26.9048,0,0,0,3.2535.3445c4.9763.3745,9.1665.8136,10.0387,2.397a.87421.87421,0,0,1,.1152.4123c.0825,1.1756-1.9469,2.9512-5.2991,5.7346-1.5961,1.3252-3.7818,3.14-3.8935,3.6695a26.25066,26.25066,0,0,0,.6369,3.3319c1.1591,5.2061,2.0166,9.6177.7615,10.8752a1.22887,1.22887,0,0,1-.9067.3232c-1.6932,0-5.344-2.137-9.255-4.5178-1.0583-.6441-2.1499-1.3084-2.5122-1.4657-.3431.1543-1.3439.7885-2.3143,1.4033-3.7844,2.3986-7.3355,4.5539-9.197,4.5842Z" transform="translate(-239.36967 -51.9951)" fill="#cc1f38"/>
          <path d="M306.10279,90.3642v.0049c.12721,1.8069-8.8263,7.6235-8.9241,9.0464-.0954,1.3912,3.1344,11.8287,1.4987,13.4643-1.33,1.3326-11.2247-5.6062-11.9558-5.6477h-.0073c-.6259,0-8.4768,5.7774-11.18329,5.8214h-.00241a.98185.98185,0,0,1-.6479-.1737c-1.7433-1.3984,1.6308-12.3543,1.5109-13.2663-.1197-.9144-9.435-7.1368-8.9534-9.4301.3986-1.9023,12.1906-2.0661,12.8971-2.6138.70671-.5501,3.9805-11.413,6.4108-11.413a.83909.83909,0,0,1,.4156.1272l.0074.0023c2.1515,1.2225,5.6308,10.7702,6.0414,11.3569.4401.6283,11.6332.3521,12.841,2.5404A.37906.37906,0,0,1,306.10279,90.3642Z" transform="translate(-239.36967 -51.9951)" fill="url(#_535)"/>
          <path d="M286.73139,95.819l-10.3398,3.7945c-.1197-.9144-9.435-7.1368-8.9534-9.4301Z" transform="translate(-239.36967 -51.9951)" fill="#c10065" opacity="0.5" style="mix-blend-mode: multiply"/>
          <path d="M293.21049,87.643l-6.4791,8.176.0147-19.6624.4156.1272.0074.0023C289.32059,77.5086,292.79989,87.0563,293.21049,87.643Z" transform="translate(-239.36967 -51.9951)" fill="#c10065" opacity="0.5" style="mix-blend-mode: multiply"/>
          <path d="M306.10279,90.3642v.0049c.12721,1.8069-8.8263,7.6235-8.9241,9.0464l-10.4473-3.5965,19.3201-5.6356Z" transform="translate(-239.36967 -51.9951)" fill="#c10065" opacity="0.5" style="mix-blend-mode: multiply"/>
          <path d="M298.67739,112.8798c-1.33,1.3326-11.2247-5.6062-11.9558-5.6477v.0097l-.0073-.0097.0171-11.4131Z" transform="translate(-239.36967 -51.9951)" fill="#c10065" opacity="0.5" style="mix-blend-mode: multiply"/>
          <path d="M286.73139,95.819l-.0098,11.4131v.0097l-.0073-.0097c-.6259,0-8.4768,5.7774-11.18329,5.8214h-.00241l-.6479-.1737Z" transform="translate(-239.36967 -51.9951)" fill="#c10065" opacity="0.5" style="mix-blend-mode: multiply"/>
          <path d="M286.73139,95.819l-19.2932-5.6356c.3986-1.9023,12.1906-2.0661,12.8971-2.6138Z" transform="translate(-239.36967 -51.9951)" fill="#fff" style="mix-blend-mode: soft-light"/>
          <path d="M267.43819,90.1834c-3.2409.9514,5.7076,18.2857,7.2971,17.4406s10.7053-9.896,11.9961-11.805C286.73139,95.819,269.58429,89.5533,267.43819,90.1834Z" transform="translate(-239.36967 -51.9951)" fill="#d81bdc" opacity="0.4" style="mix-blend-mode: multiply"/>
          <path d="M306.056,90.1834c3.24089.9514-5.70761,18.2857-7.29711,17.4406s-10.7053-9.896-11.9961-11.805C286.76279,95.819,303.90989,89.5533,306.056,90.1834Z" transform="translate(-239.36967 -51.9951)" fill="#d81bdc" opacity="0.4" style="mix-blend-mode: multiply"/>
          <path d="M286.74609,76.1566c-.3933.0902-.0245,31.0755-.0245,31.0755,1.1263.4218,10.7736,6.7014,11.9558,5.6477,1.8833-1.6784-1.7287-12.0622-1.4987-13.4643s9.4962-7.5882,8.87731-9.2321c-.847-2.2499-12.32451-2.0336-12.84551-2.5404C292.26189,86.7202,288.846,75.6752,286.74609,76.1566Z" transform="translate(-239.36967 -51.9951)" fill="#b8038b" opacity="0.3" style="mix-blend-mode: multiply"/>
          <path d="M286.73139,95.819c-2.96439,4.1837-11.8507,16.0596-11.8507,17.0608,0,1.4192,23.3416,1.5716,23.7967,0C299.13259,111.3083,287.28709,95.0347,286.73139,95.819Z" transform="translate(-239.36967 -51.9951)" fill="#d81bdc" opacity="0.4" style="mix-blend-mode: multiply"/>
        </g>
        <g>
          <path d="M322.67519,124.2637a18.95915,18.95915,0,0,1-2.8097,2.6694c-3.00949,2.0934-9.79749,2.6716-9.79749,2.6716l.99319-4.8247Z" transform="translate(-239.36967 -51.9951)" fill="url(#_494-2)"/>
          <path d="M317.10659,115.5172c5.2619,2.1757,6.193,8.2654,5.5686,8.7465-4.737,3.6501-11.614.5163-11.614.5163s-2.3068-6.8049-1.3679-8.2205C310.52519,115.3052,317.10659,115.5172,317.10659,115.5172Z" transform="translate(-239.36967 -51.9951)" fill="url(#_163)"/>
          <path d="M321.87249,124.4231c.8061-.628-11.5584-7.8407-12.1792-7.4614s.37471,6.9821,1.9412,7.889C312.13339,125.1395,318.20019,127.2839,321.87249,124.4231Z" transform="translate(-239.36967 -51.9951)" fill="#d81bdc" opacity="0.4" style="mix-blend-mode: multiply"/>
          <path d="M322.47389,123.836c.4236-.305.2856-4.575-4.12689-7.5725-1.85871-1.2627-8.42721-.1752-8.279-.0191C310.21629,116.4005,322.05319,124.1389,322.47389,123.836Z" transform="translate(-239.36967 -51.9951)" fill="#fff" style="mix-blend-mode: soft-light"/>
        </g>
        <g>
          <path d="M250.801,124.2637a18.94773,18.94773,0,0,0,2.80969,2.6694c3.0095,2.0934,9.7974,2.6716,9.7974,2.6716l-.9932-4.8247Z" transform="translate(-239.36967 -51.9951)" fill="url(#_494-3)"/>
          <path d="M256.36959,115.5172c-5.262,2.1757-6.193,8.2654-5.56859,8.7465,4.73689,3.6501,11.61389.5163,11.61389.5163s2.3069-6.8049,1.3679-8.2205C262.95089,115.3052,256.36959,115.5172,256.36959,115.5172Z" transform="translate(-239.36967 -51.9951)" fill="url(#_163-2)"/>
          <path d="M251.60359,124.4231c-.8061-.628,11.55841-7.8407,12.1792-7.4614s-.3747,6.9821-1.9411,7.889C261.34279,125.1395,255.276,127.2839,251.60359,124.4231Z" transform="translate(-239.36967 -51.9951)" fill="#d81bdc" opacity="0.4" style="mix-blend-mode: multiply"/>
          <path d="M251.00229,123.836c-.4237-.305-.2857-4.575,4.1268-7.5725,1.8588-1.2627,8.4273-.1752,8.279-.0191S251.42289,124.1389,251.00229,123.836Z" transform="translate(-239.36967 -51.9951)" fill="#fff" style="mix-blend-mode: soft-light"/>
        </g>
        <g>
          <path d="M334.58839,79.4484a18.948,18.948,0,0,1-1.4991,3.574c-1.9137,3.1268-7.2696,6.3857-7.2696,6.3857l-1.6573-4.8168Z" transform="translate(-239.36967 -51.9951)" fill="url(#_494-4)"/>
          <path d="M325.97279,73.6794c5.6927-.1238,8.9939,5.0775,8.6156,5.769-2.8693,5.2469-10.426,5.1429-10.426,5.1429s-4.84839-5.3029-4.558-6.9766C319.86169,76.1318,325.97279,73.6794,325.97279,73.6794Z" transform="translate(-239.36967 -51.9951)" fill="url(#_163-3)"/>
          <path d="M333.91759,79.9171c.4856-.8991-13.73559-2.5311-14.1515-1.9341-.4158.5969,3.1507,6.242,4.9496,6.4425C325.28859,84.4893,331.70559,84.0132,333.91759,79.9171Z" transform="translate(-239.36967 -51.9951)" fill="#d81bdc" opacity="0.4" style="mix-blend-mode: multiply"/>
          <path d="M334.23219,79.1378c.2652-.4496-1.57819-4.3037-6.8235-5.2739-2.20969-.4086-7.7864,3.2283-7.5879,3.3116S333.96879,79.5843,334.23219,79.1378Z" transform="translate(-239.36967 -51.9951)" fill="#fff" style="mix-blend-mode: soft-light"/>
        </g>
        <g>
          <path d="M239.399,79.4484a18.95162,18.95162,0,0,0,1.49919,3.574c1.9137,3.1268,6.7433,5.9206,6.7433,5.9206l2.18351-4.3517Z" transform="translate(-239.36967 -51.9951)" fill="url(#_494-5)"/>
          <path d="M248.01459,73.6794c-5.69259-.1238-8.9938,5.0775-8.61559,5.769,2.86939,5.2469,10.426,5.1429,10.426,5.1429s4.84849-5.3029,4.55809-6.9766C254.12569,76.1318,248.01459,73.6794,248.01459,73.6794Z" transform="translate(-239.36967 -51.9951)" fill="url(#_163-4)"/>
          <path d="M240.06979,79.9171c-.4855-.8991,13.7357-2.5311,14.1515-1.9341.4159.5969-3.1507,6.242-4.9495,6.4425C248.69889,84.4893,242.28179,84.0132,240.06979,79.9171Z" transform="translate(-239.36967 -51.9951)" fill="#d81bdc" opacity="0.4" style="mix-blend-mode: multiply"/>
          <path d="M239.75529,79.1378c-.2652-.4496,1.5782-4.3037,6.8235-5.2739,2.2096-.4086,7.7864,3.2283,7.5879,3.3116C253.96809,77.2588,240.01869,79.5843,239.75529,79.1378Z" transform="translate(-239.36967 -51.9951)" fill="#fff" style="mix-blend-mode: soft-light"/>
        </g>
        <g>
          <path d="M253.73429,71.517c2.4994,9.1784,6.0504,1.9545,5.3254-.629Z" transform="translate(-239.36967 -51.9951)" fill="#b8038b" opacity="0.5" style="mix-blend-mode: multiply"/>
          <path d="M259.05969,70.888a2.4335,2.4335,0,0,1-2.66269,2.6627,2.66273,2.66273,0,0,1-2.66271-2.6627,2.49906,2.49906,0,0,1,2.66271-2.6627A2.72462,2.72462,0,0,1,259.05969,70.888Z" transform="translate(-239.36967 -51.9951)" fill="#cc1f38"/>
          <path d="M254.06079,70.888c.9697.554,4.6764.0255,4.6511-.5902a2.8857,2.8857,0,0,0-3.04389-1.8317C254.25829,68.7534,253.44979,70.5389,254.06079,70.888Z" transform="translate(-239.36967 -51.9951)" fill="#fff"/>
          <path d="M254.56359,72.6144c1.6059,1.1595,3.5557.853,4.3501-.8621C259.53189,70.4176,253.26369,71.6758,254.56359,72.6144Z" transform="translate(-239.36967 -51.9951)" fill="#fff" style="mix-blend-mode: soft-light"/>
        </g>
        <g>
          <path d="M314.57549,71.517c2.4994,9.1784,6.0504,1.9545,5.3254-.629Z" transform="translate(-239.36967 -51.9951)" fill="#b8038b" opacity="0.5" style="mix-blend-mode: multiply"/>
          <path d="M319.90089,70.888a2.4335,2.4335,0,0,1-2.6627,2.6627,2.66272,2.66272,0,0,1-2.6627-2.6627,2.49906,2.49906,0,0,1,2.6627-2.6627A2.72462,2.72462,0,0,1,319.90089,70.888Z" transform="translate(-239.36967 -51.9951)" fill="#cc1f38"/>
          <path d="M314.902,70.888c.96969.554,4.67639.0255,4.65109-.5902a2.8857,2.8857,0,0,0-3.0439-1.8317C315.09949,68.7534,314.291,70.5389,314.902,70.888Z" transform="translate(-239.36967 -51.9951)" fill="#fff"/>
          <path d="M315.40479,72.6144c1.6059,1.1595,3.5557.853,4.3501-.8621C320.37309,70.4176,314.10489,71.6758,315.40479,72.6144Z" transform="translate(-239.36967 -51.9951)" fill="#fff" style="mix-blend-mode: soft-light"/>
        </g>
        <g>
          <path d="M283.64149,56.8422c2.4993,9.1783,6.0503,1.9545,5.3254-.629Z" transform="translate(-239.36967 -51.9951)" fill="#b8038b" opacity="0.5" style="mix-blend-mode: multiply"/>
          <path d="M288.96689,56.2132a2.43359,2.43359,0,0,1-2.6627,2.6627,2.66272,2.66272,0,0,1-2.6627-2.6627,2.49906,2.49906,0,0,1,2.6627-2.6627A2.72476,2.72476,0,0,1,288.96689,56.2132Z" transform="translate(-239.36967 -51.9951)" fill="#cc1f38"/>
          <path d="M283.96789,56.2132c.9698.554,4.6765.0254,4.65111-.5902a2.8855,2.8855,0,0,0-3.04381-1.8317C284.16549,54.0786,283.35689,55.8641,283.96789,56.2132Z" transform="translate(-239.36967 -51.9951)" fill="#fff"/>
          <path d="M284.47079,57.9395c1.6058,1.1595,3.5556.8531,4.35-.862C289.439,55.7428,283.17079,57.0009,284.47079,57.9395Z" transform="translate(-239.36967 -51.9951)" fill="#fff" style="mix-blend-mode: soft-light"/>
        </g>
        <g>
          <path d="M283.64149,137.3739c2.4993,9.1783,6.0503,1.9545,5.3254-.629Z" transform="translate(-239.36967 -51.9951)" fill="#b8038b" opacity="0.5" style="mix-blend-mode: multiply"/>
          <path d="M288.96689,136.7449a2.43359,2.43359,0,0,1-2.6627,2.6627,2.66272,2.66272,0,0,1-2.6627-2.6627,2.49906,2.49906,0,0,1,2.6627-2.6627A2.72476,2.72476,0,0,1,288.96689,136.7449Z" transform="translate(-239.36967 -51.9951)" fill="#cc1f38"/>
          <path d="M283.96789,136.7449c.9698.554,4.6765.0254,4.65111-.5902a2.8855,2.8855,0,0,0-3.04381-1.8317C284.16549,134.6103,283.35689,136.3958,283.96789,136.7449Z" transform="translate(-239.36967 -51.9951)" fill="#fff"/>
          <path d="M284.47079,138.4712c1.6058,1.1595,3.5556.8531,4.35-.862C289.439,136.2745,283.17079,137.5326,284.47079,138.4712Z" transform="translate(-239.36967 -51.9951)" fill="#fff" style="mix-blend-mode: soft-light"/>
        </g>
      </g>
    </g>
  </g>
</svg>
