<svg xmlns="http://www.w3.org/2000/svg" xmlns:xlink="http://www.w3.org/1999/xlink" viewBox="0 0 129.50075 118.68883">
  <defs>
    <linearGradient id="_1311" data-name="  1311" x1="518.31449" y1="121.32611" x2="598.58728" y2="121.32611" gradientUnits="userSpaceOnUse">
      <stop offset="0" stop-color="#f23113"/>
      <stop offset="1" stop-color="#ad0c1f"/>
    </linearGradient>
    <linearGradient id="_1274" data-name="  1274" x1="518.31449" y1="153.02941" x2="598.58728" y2="153.02941" gradientUnits="userSpaceOnUse">
      <stop offset="0" stop-color="#ffa933"/>
      <stop offset="0.79365" stop-color="#ffbd2b"/>
      <stop offset="0.90085" stop-color="#e5942f"/>
      <stop offset="1" stop-color="#ca6b34"/>
    </linearGradient>
    <linearGradient id="_1255" data-name="  1255" x1="513.8054" y1="52.0546" x2="513.8054" y2="104.77246" gradientUnits="userSpaceOnUse">
      <stop offset="0" stop-color="#ffea34"/>
      <stop offset="0.76106" stop-color="#ff8100"/>
      <stop offset="1" stop-color="#ffa400"/>
    </linearGradient>
    <linearGradient id="_1255-2" x1="602.27242" y1="52.0546" x2="602.27242" y2="104.77246" xlink:href="#_1255"/>
    <linearGradient id="_1244" data-name="  1244" x1="558.03893" y1="149.3975" x2="558.03893" y2="73.00205" gradientUnits="userSpaceOnUse">
      <stop offset="0" stop-color="#ff5900"/>
      <stop offset="0.63499" stop-color="#fe6800"/>
      <stop offset="0.90804" stop-color="#fa9300"/>
      <stop offset="1" stop-color="#f63f00"/>
    </linearGradient>
    <linearGradient id="_466" data-name="  466" x1="558.14179" y1="133.6633" x2="558.14179" y2="59.2229" gradientUnits="userSpaceOnUse">
      <stop offset="0" stop-color="#ffba00"/>
      <stop offset="0.2095" stop-color="#fe6800"/>
      <stop offset="1" stop-color="#d41b00"/>
    </linearGradient>
    <linearGradient id="_1311-2" x1="530.89259" y1="97.1039" x2="585.38989" y2="97.1039" xlink:href="#_1311"/>
    <linearGradient id="_105" data-name="  105" x1="573.35299" y1="78.0197" x2="573.35299" y2="59.7752" gradientUnits="userSpaceOnUse">
      <stop offset="0" stop-color="#662d87"/>
      <stop offset="1" stop-color="#d01c5c"/>
    </linearGradient>
    <linearGradient id="_1247" data-name="  1247" x1="558.13" y1="105.011" x2="589.154" y2="105.011" gradientUnits="userSpaceOnUse">
      <stop offset="0" stop-color="#ffab00"/>
      <stop offset="1" stop-color="#ffba00"/>
    </linearGradient>
    <linearGradient id="_467" data-name="  467" x1="558.14259" y1="141.6708" x2="558.14259" y2="51.9951" gradientUnits="userSpaceOnUse">
      <stop offset="0" stop-color="#ffea34"/>
      <stop offset="0.63408" stop-color="#ff8100"/>
      <stop offset="0.69553" stop-color="#ffa400"/>
      <stop offset="1" stop-color="#ffba00"/>
    </linearGradient>
    <linearGradient id="_1267" data-name="  1267" x1="587.64774" y1="124.2637" x2="587.64774" y2="129.6047" gradientUnits="userSpaceOnUse">
      <stop offset="0" stop-color="#ff5900"/>
      <stop offset="1" stop-color="#f63f00"/>
    </linearGradient>
    <linearGradient id="_1255-3" x1="536.62356" y1="1335.79629" x2="544.25781" y2="1343.04622" gradientTransform="matrix(0.6886, 0.7251, -0.7251, 0.6886, 1186.4999, -1193.4314)" xlink:href="#_1255"/>
    <linearGradient id="_1267-2" x1="528.38064" y1="124.2637" x2="528.38064" y2="129.6047" xlink:href="#_1267"/>
    <linearGradient id="_1255-4" x1="2423.73583" y1="-651.34444" x2="2431.37008" y2="-644.09451" gradientTransform="matrix(-0.6886, 0.7251, 0.7251, 0.6886, 2669.8697, -1193.4314)" xlink:href="#_1255"/>
    <linearGradient id="_1952" data-name="  1952" x1="871.61925" y1="428.27958" x2="871.61925" y2="415.70269" gradientTransform="matrix(0.9221, 0.387, -0.387, 0.9221, -40.65, -642.65)" gradientUnits="userSpaceOnUse">
      <stop offset="0" stop-color="#da2700"/>
      <stop offset="1" stop-color="#d41b00"/>
    </linearGradient>
    <linearGradient id="_1255-5" x1="866.2546" y1="413.27738" x2="870.47842" y2="423.34078" gradientTransform="matrix(0.9221, 0.387, -0.387, 0.9221, -40.65, -642.65)" xlink:href="#_1255"/>
    <linearGradient id="_1952-2" x1="3491.71267" y1="-671.99098" x2="3491.71267" y2="-683.93526" gradientTransform="matrix(-0.9221, 0.387, 0.387, 0.9221, 3998.3461, -642.65)" xlink:href="#_1952"/>
    <linearGradient id="_1255-6" x1="3486.34802" y1="-686.36057" x2="3490.57184" y2="-676.29716" gradientTransform="matrix(-0.9221, 0.387, 0.387, 0.9221, 3998.3461, -642.65)" xlink:href="#_1255"/>
    <linearGradient id="_108" data-name="  108" x1="558.03891" y1="114.8136" x2="558.03891" y2="75.1356" gradientUnits="userSpaceOnUse">
      <stop offset="0" stop-color="#832645"/>
      <stop offset="1" stop-color="#b41e2d"/>
    </linearGradient>
    <linearGradient id="_464" data-name="  464" x1="558.03826" y1="75.8722" x2="558.03826" y2="113.32709" gradientUnits="userSpaceOnUse">
      <stop offset="0" stop-color="#ffab00"/>
      <stop offset="0.48603" stop-color="#ffba00"/>
      <stop offset="1" stop-color="#ef6c00"/>
    </linearGradient>
    <linearGradient id="_467-2" x1="5596.10109" y1="101.9832" x2="5596.10109" y2="91.07921" gradientTransform="matrix(-1, 0, 0, 1, 6153.9801, 0)" xlink:href="#_467"/>
    <linearGradient id="_1267-3" x1="5590.11141" y1="98.89913" x2="5602.08982" y2="98.89913" gradientTransform="matrix(-1, 0, 0, 1, 6153.9801, 0)" xlink:href="#_1267"/>
    <linearGradient id="_314" data-name="  314" x1="5599.10066" y1="92.36462" x2="5601.60651" y2="92.36462" gradientTransform="matrix(-1, 0, 0, 1, 6153.9801, 0)" gradientUnits="userSpaceOnUse">
      <stop offset="0" stop-color="#ebbd38"/>
      <stop offset="1" stop-color="#fff29e"/>
    </linearGradient>
    <linearGradient id="_108-2" x1="5590.93719" y1="95.86511" x2="5600.93011" y2="95.86511" gradientTransform="matrix(-1, 0, 0, 1, 6153.8404, 0)" xlink:href="#_108"/>
    <linearGradient id="_20" data-name="  20" x1="-2624.37651" y1="-1940.26543" x2="-2624.37651" y2="-1948.09021" gradientTransform="translate(3788.51679 -385.2192) rotate(-45)" gradientUnits="userSpaceOnUse">
      <stop offset="0" stop-color="#eb175a"/>
      <stop offset="1" stop-color="#ff1f19"/>
    </linearGradient>
    <radialGradient id="_289" data-name="  289" cx="558.00704" cy="95.83175" r="8.50405" gradientTransform="translate(530.72247 -469.68672) rotate(77.49292)" gradientUnits="userSpaceOnUse">
      <stop offset="0.09524" stop-color="#b41e2d"/>
      <stop offset="0.34362" stop-color="#7b141f"/>
      <stop offset="0.65591" stop-color="#39090e"/>
      <stop offset="0.88327" stop-color="#100304"/>
      <stop offset="1"/>
    </radialGradient>
    <linearGradient id="_108-3" x1="-2596.86952" y1="-1974.21481" x2="-2597.05828" y2="-1969.18675" gradientTransform="translate(3788.65649 -385.2192) rotate(-45)" xlink:href="#_108"/>
    <linearGradient id="_20-2" x1="-2596.88961" y1="-1969.84778" x2="-2596.88961" y2="-1974.14826" gradientTransform="translate(3788.65649 -385.2192) rotate(-45)" xlink:href="#_20"/>
    <linearGradient id="_108-4" x1="-2653.62471" y1="-1917.45962" x2="-2653.81348" y2="-1912.43155" gradientTransform="translate(3788.65649 -385.2192) rotate(-45)" xlink:href="#_108"/>
    <linearGradient id="_20-3" x1="-2653.64481" y1="-1913.09259" x2="-2653.64481" y2="-1917.39306" gradientTransform="translate(3788.65649 -385.2192) rotate(-45)" xlink:href="#_20"/>
    <linearGradient id="_108-5" x1="-2628.98768" y1="-1985.01477" x2="-2629.17644" y2="-1979.98671" gradientTransform="translate(3788.65649 -385.2192) rotate(-45)" xlink:href="#_108"/>
    <linearGradient id="_20-4" x1="-2629.00777" y1="-1980.64774" x2="-2629.00777" y2="-1984.94822" gradientTransform="translate(3788.65649 -385.2192) rotate(-45)" xlink:href="#_20"/>
    <linearGradient id="_108-6" x1="-2629.02224" y1="-1985.07875" x2="-2629.21101" y2="-1980.0507" gradientTransform="translate(3788.65649 -385.2192) rotate(-45)" xlink:href="#_108"/>
    <linearGradient id="_20-5" x1="-2629.04236" y1="-1980.71169" x2="-2629.04236" y2="-1985.01218" gradientTransform="translate(3788.65649 -385.2192) rotate(-45)" xlink:href="#_20"/>
    <linearGradient id="_108-7" x1="-2585.72028" y1="-1941.77676" x2="-2585.90904" y2="-1936.7487" gradientTransform="translate(3788.65649 -385.2192) rotate(-45)" xlink:href="#_108"/>
    <linearGradient id="_20-6" x1="-2585.74039" y1="-1937.40973" x2="-2585.74039" y2="-1941.71021" gradientTransform="translate(3788.65649 -385.2192) rotate(-45)" xlink:href="#_20"/>
  </defs>
  <g style="isolation: isolate">
    <g id="rank_icon" data-name="rank icon">
      <g>
        <g>
          <path d="M598.58728,170.6816c-7.97189.1738-15.62739-9.4415-15.62739-9.4415v-2.9522a11.80482,11.80482,0,0,1-1.35289-.2086c-4.67491-.9989-5.88211-4.4252-5.88211-4.4252v-3.2873c-6.81189-5.8128-17.64089-9.1474-17.64089-9.1474-10.96481.6321-25.69761,15.1625-25.69761,15.1625l-.9325,3.8025c-4.7286,6.5335-13.1394,10.4972-13.1394,10.4972l.68251-9.9852.30029-4.3619,5.775-84.3662,68.0465.6924c-.8282,23.4376,3.379,74.3462,4.91839,91.914C598.37858,168.431,598.58728,170.6816,598.58728,170.6816Z" transform="translate(-493.28851 -51.9951)" fill="url(#_1311)"/>
          <path d="M598.58728,170.6816c-7.97189.1738-15.62739-9.4415-15.62739-9.4415v-2.9522a11.80482,11.80482,0,0,1-1.35289-.2086c-4.67491-.9989-5.88211-4.4252-5.88211-4.4252v-3.2873c-6.81189-5.8128-17.64089-9.1474-17.64089-9.1474-10.96481.6321-25.69761,15.1625-25.69761,15.1625l-.9325,3.8025c-4.7286,6.5335-13.1394,10.4972-13.1394,10.4972l.68251-9.9852s7.16319-.8723,12.45589-9.4066c0,0,13.0839-13.0765,25.9736-15.9149,0,0,12.1758,5.3514,18.53851,9.5805v2.9081s1.67519,6.3848,7.60179,5.642v2.2095s4.89621,8.6512,14.47039,8.8597C598.37858,168.431,598.58728,170.6816,598.58728,170.6816Z" transform="translate(-493.28851 -51.9951)" fill="url(#_1274)"/>
          <path d="M598.58728,170.6817s-6.80849-50.0173-8.79359-51.0129c-1.9882-.9957-6.8338,38.6192-6.8338,38.6192a11.80482,11.80482,0,0,1-1.35289-.2086s-1.536-29.5129-3.35691-29.4022c-1.8236.1106-2.5252,21.6897-2.5252,21.6897-6.81189-5.8128-17.64089-9.1474-17.64089-9.1474-10.96481.6321-25.69761,15.1625-25.69761,15.1625-1.8965-25.4797-5.9856-25.1699-6.6177-24.6895-.6322.4805-6.4396,24.6895-6.4396,24.6895s-.0096-.0158-.0318-.0474l5.775-84.366,68.0465.6922C592.11059,101.2442,598.58728,170.6817,598.58728,170.6817Z" transform="translate(-493.28851 -51.9951)" fill="#8e3d9c" opacity="0.5" style="mix-blend-mode: multiply"/>
        </g>
        <g>
          <g>
            <path d="M534.32229,77.1749l-6.6309,3.5069-4.8568,24.0865c-1.659.1202-6.1363-2.3837-10.033-4.8551-3.4605-2.1931-9.0077-8.623-9.0301-9.2275v-.0018a14.01072,14.01072,0,0,1,2.5761-2.0591s-6.9262-9.0335-7.3848-10.1704c-.3211-.7986-2.6911-5.2192-2.9762-6.3046l-.0017-.0017c-.1203-.4602,7.9584-.5547,7.9584-.5547l-.0017-.0017a36.8233,36.8233,0,0,1-2.9179-3.5189c-1.8393-2.7153-7.96869-16.0182-7.7283-16.0182,16.463,0,33.8997,14.0809,34.7051,15.3862.1924.3108.395.6646.608,1.051C530.07859,71.1641,532.04329,75.3614,534.32229,77.1749Z" transform="translate(-493.28851 -51.9951)" fill="url(#_1255)"/>
            <path d="M534.322,77.1749l-6.63061,3.5069-4.8568,24.0865c-3.1325.2284-14.6982-6.8129-19.063-14.0828.0481.3298,4.3636,2.7617,7.9859,1.9947,2.1571-.4567,13.5752-8.8265,12.5241-9.5873-.6474-.4689-10.4759,1.1882-17.9339,5.5319,0,0-6.9263-9.0333-7.3848-10.1703-.3212-.7986-2.6917-5.2194-2.9768-6.3047a20.31321,20.31321,0,0,0,5.8964,5.4248c2.0998,1.397,9.5498,3.7049,13.6729,4.4608,2.667.4889,12.09161-3.7153,11.293-5.2039-.395-.7368-4.5446-4.6826-22.9051-5.2381l-.0017-.0017a36.84064,36.84064,0,0,1-2.9178-3.5189c-1.8394-2.7153-7.9533-15.9327-7.7283-16.0186a32.60041,32.60041,0,0,0,12.4878,13.099c1.3154.7915,22.2539,3.5035,22.2179,2.2875C529.51769,69.9001,531.71329,75.0986,534.322,77.1749Z" transform="translate(-493.28851 -51.9951)" fill="#d42f55" opacity="0.4" style="mix-blend-mode: multiply"/>
            <path d="M503.01139,64.048c1.2549,1.3779,5.82161,7.3864,5.5815,7.4242a9.127,9.127,0,0,1-4.594-.6087c-2.72789-1.9716-6.3988-8.8542-7.7794-12.1578C495.418,56.7879,501.84939,62.7722,503.01139,64.048Z" transform="translate(-493.28851 -51.9951)" fill="#d42f55" opacity="0.5" style="mix-blend-mode: multiply"/>
            <path d="M503.44069,79.6412c.5125.5912,3.9132,8.4703,2.907,8.0671s-6.9984-7.6997-8.5011-12.1652C497.47,74.4239,502.55339,78.6174,503.44069,79.6412Z" transform="translate(-493.28851 -51.9951)" fill="#d42f55" opacity="0.5" style="mix-blend-mode: multiply"/>
            <path d="M505.15809,92.3452c.0464.4093,6.288,8.1098,16.8205,12.0095,1.2497.4627.3386-4.3266-.7014-5.6933C519.00519,95.6756,505.01679,91.0981,505.15809,92.3452Z" transform="translate(-493.28851 -51.9951)" fill="#d42f55" opacity="0.5" style="mix-blend-mode: multiply"/>
            <path d="M505.78329,65.1532c4.5363,1.3041,20.3223,2.8364,21.5836,2.547,1.0645-.2442-29.3463-8.9742-27.4015-6.929A28.50044,28.50044,0,0,0,505.78329,65.1532Z" transform="translate(-493.28851 -51.9951)" fill="#fff" style="mix-blend-mode: soft-light"/>
            <path d="M528.08749,69.2302c-3.9031-1.7895-22.9878-3.8893-22.93149-3.4769.12879.9446,3.77639,5.4134,4.29559,5.636.8322.3568,6.4657-.6546,22.7858,5.2704C532.83289,76.8759,529.85919,70.0425,528.08749,69.2302Z" transform="translate(-493.28851 -51.9951)" fill="#da0553" opacity="0.2" style="mix-blend-mode: multiply"/>
            <path d="M534.32229,77.1749l-6.6309,3.5069-4.8568,24.0865c-1.659.1202-6.1363-2.3837-10.033-4.8551,0,0-.88959-5.5534-1.0441-7.233-.1546-1.6779,1.72651-7.2876,1.72651-7.2876s-3.20511-3.873-3.10181-4.691c.3575-2.8321,8.1677-7.9238,8.1677-7.9238S532.04329,75.3614,534.32229,77.1749Z" transform="translate(-493.28851 -51.9951)" fill="#da0553" opacity="0.3" style="mix-blend-mode: multiply"/>
          </g>
          <g>
            <path d="M581.75559,77.1749l6.6309,3.5069,4.8568,24.0865c1.65889.1202,6.13619-2.3837,10.033-4.8551,3.4605-2.1931,9.00772-8.623,9.03-9.2275v-.0018a14.00687,14.00687,0,0,0-2.5761-2.0591s6.9262-9.0335,7.38482-10.1704c.32118-.7986,2.69118-5.2192,2.97618-6.3046l.00182-.0017c.12018-.4602-7.95842-.5547-7.95842-.5547l.0017-.0017a36.8257,36.8257,0,0,0,2.9178-3.5189c1.8394-2.7153,7.9687-16.0182,7.7283-16.0182-16.4629,0-33.89959,14.0809-34.70509,15.3862-.19229.3108-.395.6646-.6079,1.051C585.99929,71.1641,584.03459,75.3614,581.75559,77.1749Z" transform="translate(-493.28851 -51.9951)" fill="url(#_1255-2)"/>
            <path d="M581.75579,77.1749l6.6306,3.5069,4.8568,24.0865c3.13249.2284,14.69819-6.8129,19.06309-14.0828-.0481.3298-4.3636,2.7617-7.9859,1.9947-2.1572-.4567-13.57519-8.8265-12.52419-9.5873.6475-.4689,10.47589,1.1882,17.934,5.5319,0,0,6.9262-9.0333,7.38482-10.1703.32108-.7986,2.69168-5.2194,2.97678-6.3047a20.31321,20.31321,0,0,1-5.8964,5.4248c-2.0998,1.397-9.5499,3.7049-13.6729,4.4608-2.6671.4889-12.09159-3.7153-11.293-5.2039.395-.7368,4.54451-4.6826,22.905-5.2381l.0017-.0017a36.83512,36.83512,0,0,0,2.9179-3.5189c1.8393-2.7153,7.9533-15.9327,7.7283-16.0186a32.60131,32.60131,0,0,1-12.4878,13.099c-1.3154.7915-22.254,3.5035-22.21789,2.2875C586.56019,69.9001,584.36449,75.0986,581.75579,77.1749Z" transform="translate(-493.28851 -51.9951)" fill="#d42f55" opacity="0.4" style="mix-blend-mode: multiply"/>
            <path d="M613.06648,64.048c-1.2549,1.3779-5.8216,7.3864-5.5816,7.4242a9.1278,9.1278,0,0,0,4.59412-.6087c2.72788-1.9716,6.39868-8.8542,7.77938-12.1578C620.65978,56.7879,614.22848,62.7722,613.06648,64.048Z" transform="translate(-493.28851 -51.9951)" fill="#d42f55" opacity="0.5" style="mix-blend-mode: multiply"/>
            <path d="M612.63708,79.6412c-.5124.5912-3.91308,8.4703-2.9069,8.0671s6.9984-7.6997,8.5011-12.1652C618.60788,74.4239,613.52438,78.6174,612.63708,79.6412Z" transform="translate(-493.28851 -51.9951)" fill="#d42f55" opacity="0.5" style="mix-blend-mode: multiply"/>
            <path d="M610.91968,92.3452c-.0464.4093-6.321,6.1001-7.00468,6.7137-.99182.8901-9.79412,6.9884-9.50362,5.2958.5251-3.0595,1.3209-6.7315,2.6081-7.9116C597.97668,95.5655,610.97978,91.8148,610.91968,92.3452Z" transform="translate(-493.28851 -51.9951)" fill="#d42f55" opacity="0.5" style="mix-blend-mode: multiply"/>
            <path d="M610.29458,65.1532c-4.5364,1.3041-20.32239,2.8364-21.58369,2.547-1.0644-.2442,29.34639-8.9742,27.40159-6.929A28.50288,28.50288,0,0,1,610.29458,65.1532Z" transform="translate(-493.28851 -51.9951)" fill="#da0553" opacity="0.2" style="mix-blend-mode: multiply"/>
            <path d="M587.99029,69.2302c3.9032-1.7895,22.98779-3.8893,22.93159-3.4769-.1288.9446-3.7764,5.4134-4.2957,5.636-.83218.3568-6.4657-.6546-22.78569,5.2704C583.245,76.8759,586.21869,70.0425,587.99029,69.2302Z" transform="translate(-493.28851 -51.9951)" fill="#da0553" opacity="0.2" style="mix-blend-mode: multiply"/>
            <path d="M581.75559,77.1749l6.6309,3.5069,4.8568,24.0865c1.65889.1202,6.13619-2.3837,10.033-4.8551,0,0,.8895-5.5534,1.0441-7.233.1545-1.6779-1.7265-7.2876-1.7265-7.2876s3.205-3.873,3.1018-4.691c-.3575-2.8321-8.16768-7.9238-8.16768-7.9238S584.03459,75.3614,581.75559,77.1749Z" transform="translate(-493.28851 -51.9951)" fill="#da0553" opacity="0.3" style="mix-blend-mode: multiply"/>
          </g>
        </g>
        <g>
          <path d="M598.04868,85.3877c-3.2255,12.1261-5.56079,25.6703-11.13489,36.7339-3.3491,6.6475-10.5382,12.0557-16.1422,16.9178-4.1141,3.5693-8.3218,7.0416-12.6431,10.3581-9.7683-7.4386-21.4347-15.6696-28.2497-26.0233h-.0019a12.73345,12.73345,0,0,1-.7242-1.2525c-5.5179-11.2202-7.9113-24.6161-11.1346-36.734a41.59312,41.59312,0,0,1,1.2132-11.7399q38.9076-1.29435,77.82259.0075A45.66639,45.66639,0,0,1,598.04868,85.3877Z" transform="translate(-493.28851 -51.9951)" fill="url(#_1244)"/>
          <path d="M598.04868,85.3877c-3.2255,12.1261-5.65029,25.4024-11.13489,36.7339-.1433-8.3915,2.749-17.5363,4.5444-25.6583q2.53455-11.4657,5.59569-22.808A45.66639,45.66639,0,0,1,598.04868,85.3877Z" transform="translate(-493.28851 -51.9951)" fill="#d42f55" opacity="0.7" style="mix-blend-mode: multiply"/>
          <path d="M558.12929,149.3969c-.4026-.1776-.7396-10.2432,1.7009-13.1926,3.1633-3.8228,9.3163-6.7483,13.9972-9.4808,2.0702-1.2084,12.4365-6.6552,12.93861-5.1301.44769,1.3598-3.797,6.2239-5.52161,8.0113-3.0812,3.1936-6.86739,6.2345-10.18139,9.1828C566.45179,142.8901,558.12929,149.3969,558.12929,149.3969Z" transform="translate(-493.28851 -51.9951)" fill="#b30053" opacity="0.3" style="mix-blend-mode: multiply"/>
          <path d="M529.87879,123.3742h-.0019a12.73345,12.73345,0,0,1-.7242-1.2525c-5.5179-11.2202-7.9113-24.6161-11.1346-36.734a41.59312,41.59312,0,0,1,1.2132-11.7399c1.377-.0477,2.06571-.0704,3.4428-.1137C524.62979,90.0416,525.68089,107.25,529.87879,123.3742Z" transform="translate(-493.28851 -51.9951)" fill="#d42f55" opacity="0.7" style="mix-blend-mode: multiply"/>
          <path d="M589.27089,76.0363a89.39348,89.39348,0,0,0-8.2821-6.5259l-.00579-.0041a80.71967,80.71967,0,0,0-20.82751-9.7311h-.0021c-.6482-.1902-1.2287-.3494-1.7345-.48-.1095-.029-.1643-.0434-.2738-.0723-.1088.0289-.163.0433-.2717.0723a75.19046,75.19046,0,0,0-30.8605,16.736c-.1411.1302-.2116.1954-.3525.3256l.0617.4853c.0606.4735.1267.9814.1982,1.5189.599,4.5072,1.27171,9.0445,2.0435,13.5128,1.4077,8.1501,2.5916,17.8227,6.834,25.1939l.0197.032.0213.03c3.2047,4.078,8.1601,7.0834,12.32521,9.9867,1.51629,1.057,3.03619,2.0693,4.44419,2.9989q2.51715,1.66155,5.0766,3.2679c.17821.1122.2671.1683.4451.2801.1787-.112.26811-.168.447-.2802.0687-.0421.1377-.087.2082-.1322,3.1076-1.991,6.27591-4.0317,9.3144-6.1361,4.1732-2.8903,9.1236-5.8982,12.328-9.9874l.0214-.03.0198-.0319c4.2424-7.3775,5.4276-17.0335,6.8416-25.1899.6864-3.9599,1.3-7.9707,1.84371-11.9694.15329-1.1277.29059-2.1557.40529-3.059.0255-.1942.0383-.2911.0639-.4851C589.48239,76.2317,589.41189,76.1667,589.27089,76.0363ZM583.48,91.3877c-1.26491,7.6537-2.33411,16.4853-6.03471,23.5068-3.16029,3.5169-7.4192,6.2175-11.2515,8.8536-2.6354,1.8127-5.3424,3.588-8.0633,5.3084-2.7199-1.7196-5.4254-3.4949-8.0598-5.3071-3.8313-2.6356-8.0652-5.3569-11.249-8.8532-3.7054-7.0368-4.7606-15.8344-6.0253-23.5102-.7285-4.421-1.3632-8.9002-1.9038-13.3705a72.3339,72.3339,0,0,1,27.2512-14.6287,72.31409,72.31409,0,0,1,27.2461,14.6329C584.84039,82.4886,584.21059,86.9676,583.48,91.3877Z" transform="translate(-493.28851 -51.9951)" fill="url(#_466)"/>
          <path d="M585.38989,78.0197c-.5495,4.4689-1.1793,8.9479-1.90989,13.368-1.26491,7.6537-2.33411,16.4853-6.03471,23.5068-2.9266,4.3319-7.0842,7.6872-11.2721,10.6165-2.60019,1.8186-5.3285,3.5897-8.043,5.31-2.7135-1.7196-5.44019-3.4905-8.0394-5.3087-4.1905-2.931-8.3386-6.2845-11.2691-10.6161-3.3373-6.3476-4.3655-14.1578-5.6156-21.0878l-.00209-.002c-.13411-.7791-.27261-1.5875-.40761-2.4204-.7188-4.4344-1.3632-8.9002-1.9038-13.3705a54.26341,54.26341,0,0,1,4.9162-3.9131,74.387,74.387,0,0,1,19.2469-9.7742c1.1735-.3866,2.2171-.7005,3.0881-.9414a75.63372,75.63372,0,0,1,9.8181,3.5562A71.4979,71.4979,0,0,1,585.38989,78.0197Z" transform="translate(-493.28851 -51.9951)" fill="url(#_1311-2)"/>
          <path d="M588.56219,76.7711c-1.2729.4964-1.9073.7462-3.1723,1.2486a72.31409,72.31409,0,0,0-27.2461-14.6329c.0004-1.2496.0005-1.8745.001-3.1243.8024-.196,1.2041-.2934,2.0086-.4873h.0021A80.71967,80.71967,0,0,1,580.983,69.5063l.00579.0041Q584.79924,73.1158,588.56219,76.7711Z" transform="translate(-493.28851 -51.9951)" opacity="0.5" fill="url(#_105)" style="mix-blend-mode: multiply"/>
          <path d="M589.154,79.9062c-.542,4.001-1.15711,8.0096-1.84371,11.9694-1.4141,8.1565-2.5992,17.8124-6.8416,25.1899l-.0198.0319-.0214.03c-3.2044,4.0892-8.1548,7.0969-12.328,9.9874-3.03849,2.1044-6.167,4.1539-9.3144,6.1361-.2617-.295-.3927-.4425-.65509-.7376.00009-.6765.00009-1.0149.00019-1.6916,2.7147-1.7201,5.4429-3.4913,8.0429-5.3099,4.1881-2.9295,8.3457-6.285,11.2722-10.6173,3.7006-7.0215,4.7699-15.8532,6.03471-23.5068.73049-4.4202,1.36039-8.8991,1.90989-13.368,1.265-.5024,1.8994-.7522,3.1723-1.2486C588.8,78.026,588.91829,78.653,589.154,79.9062Z" transform="translate(-493.28851 -51.9951)" fill="url(#_1247)"/>
          <path d="M597.03178,73.6309c-.6324-.6768-1.3212-1.3402-1.9989-1.9848-.0921-.0876-.18788-.1761-.2878-.2683a84.40071,84.40071,0,0,0-10.01539-7.7397,10.36924,10.36924,0,0,1-2.8931-1.3719A11.87535,11.87535,0,0,1,579.56,60.54l-.002-.002a97.77473,97.77473,0,0,0-19.63-8.0748c-.05271-.0145-.107-.03-.16161-.0446-.77439-.2071-1.3017-.3472-1.5126-.3974-.0213-.004-.0425-.0101-.0639-.0141l-.0426-.012-.017.004c-.0107.002-.0298.006-.0511.012-13.9778,3.4411-27.9894,10.6656-38.1269,20.8956q-.3624.3657-.721.7411l.02071.1565c.04849.3916.19519,1.5053.42969,3.1472l.0052.0353c1.0336,7.2087,2.2359,14.4035,3.735,21.5306,1.55311,7.3842,3.0507,15.7459,7.0155,22.1119,3.3278,5.3432,10.2574,9.3411,15.3888,12.9198,4.0297,2.8104,8.1285,5.5299,12.3029,8.1217,4.1752-2.593,8.2746-5.3131,12.3055-8.1244,5.1226-3.5727,12.0715-7.5931,15.3913-12.9205,3.97011-6.371,5.4736-14.7165,7.0255-22.1075,1.49619-7.1269,2.70769-14.3177,3.745-21.525l.0053-.0352c.23532-1.6416.3825-2.7549.4316-3.1465l.0206-.1564ZM586.35489,91.753c-1.3717,8.0149-2.4963,17.5518-6.661,24.8065-3.2101,3.9417-7.97289,6.8819-12.0703,9.7143-3.0973,2.1413-6.2855,4.2243-9.49359,6.2395-3.21071-2.0072-6.39421-4.0973-9.48991-6.2379-4.0665-2.8119-8.88-5.7815-12.0674-9.7138-4.1644-7.2482-5.285-16.801-6.6514-24.8105-.84529-4.9546-1.5735-9.974-2.20029-14.985a74.37753,74.37753,0,0,1,30.42379-16.5036,74.54237,74.54237,0,0,1,30.4174,16.5086C587.933,81.7811,587.20259,86.7998,586.35489,91.753Z" transform="translate(-493.28851 -51.9951)" fill="url(#_467)"/>
          <path d="M596.33408,73.6892c-.8448-2.8769-10.18-8.5206-15.31089-11.6453-6.8355-4.1633-19.4375-10.0484-22.61819-9.6002a2.24625,2.24625,0,0,1-.37941,0c-3.18059-.4482-15.9572,4.7689-22.79259,8.9322-5.13091,3.1246-14.29161,9.4364-15.13851,12.3133-.7003,2.3877.79951,10.0507,1.53,10.055a25.35275,25.35275,0,0,0,5.8894-2.086c.4289-.2176-.34689-4.3897.2069-4.8917,10.3523-9.4021,20.94321-13.7151,29.2519-16.504a2.1965,2.1965,0,0,1,1.7598-.1049c6.5266,2.4876,19.625,7.2068,29.9773,16.6089.5539.502-.2219,4.6741.2069,4.8917a25.32158,25.32158,0,0,0,5.88949,2.086C595.53668,83.7399,597.03648,76.0769,596.33408,73.6892Z" transform="translate(-493.28851 -51.9951)" fill="#fff" style="mix-blend-mode: soft-light"/>
          <path d="M530.89259,78.0197c.5495,4.4689,1.1793,8.9479,1.9099,13.368,1.2648,7.6537,2.3341,16.4853,6.0346,23.5068,2.9266,4.3323,7.0842,7.6878,11.2723,10.6173,2.5999,1.8186,5.3282,3.5898,8.0428,5.3099-.0573-11.2299-.1066-22.4631-.0066-33.6916.1001-11.2371.3229-22.5058-.0069-33.7433A72.31409,72.31409,0,0,0,530.89259,78.0197Z" transform="translate(-493.28851 -51.9951)" fill="#fff5f2" opacity="0.7" style="mix-blend-mode: soft-light"/>
          <path d="M585.38989,78.0197c-.5495,4.4689-1.1793,8.9479-1.90989,13.368-1.26491,7.6537-2.33411,16.4853-6.03471,23.5068-2.9266,4.3319-7.0842,7.6872-11.2721,10.6165-2.60019,1.8186-5.3285,3.5897-8.043,5.31-2.7135-1.7196-5.44019-3.4905-8.0394-5.3087-4.1905-2.931-8.3386-6.2845-11.2691-10.6161-3.3373-6.3476-4.3655-14.1578-5.6156-21.0878l-.00209-.002c-.13411-.7791-.27261-1.5875-.40761-2.4204-.7188-4.4344-1.3632-8.9002-1.9038-13.3705a58.0425,58.0425,0,0,1,4.9162-3.9131l.0827-.0415a10.50051,10.50051,0,0,0-3.686,4.4781c-1.2558,3.7317,2.0748,18.3119,3.0617,22.744,1.3245,5.9477,17.2474-2.5668,22.1602-2.8289,4.80561-.2563,19.4282,11.0421,21.8714,6.5569,6.2049-11.391,1.7567-29.9283-11.3594-38.0682l.0225.0002A73.49806,73.49806,0,0,1,585.38989,78.0197Z" transform="translate(-493.28851 -51.9951)" fill="#b30053" opacity="0.3" style="mix-blend-mode: multiply"/>
          <path d="M527.90219,78.0809c1.20081.948,3.276,2.2121,3.276,2.2121,3.1913-6.5375,11.3641-9.589,17.80581-11.0209,7.39239-1.6433,15.91039,2.4153,22.30579,6.0011,4.3354,2.4308,10.2905,5.5621,13.158,9.8215,1.3214-.9722,1.9859-1.4564,3.3225-2.4207.3103-2.3619.4686-3.5426.7919-5.9029-15.20919-13.3671-30.4174-16.5086-30.4174-16.5086s-17.6297,4.5111-30.42379,16.5036C527.79389,77.2919,527.83,77.5549,527.90219,78.0809Z" transform="translate(-493.28851 -51.9951)" fill="#d42f55" opacity="0.8" style="mix-blend-mode: multiply"/>
          <path d="M594.36078,84.3648c-1.22878-.628-5.59159-1.569-6.27549.185-.4158,1.0665-1.47629,7.2286-2.1871,11.1538-1.3829,7.6381-2.5496,8.9441-3.4859,13.0782-.3519,1.5535,6.2513,1.4607,7.2109.7957.7391-.5121,1.0649-1.9735,2.2477-7.6654.9956-4.7913,2.18219-9.6157,2.869-14.4733C594.93628,86.0493,595.15258,84.7694,594.36078,84.3648Z" transform="translate(-493.28851 -51.9951)" fill="#da0553" opacity="0.2" style="mix-blend-mode: multiply"/>
          <path d="M527.721,82.8155c-.53871-.4139-5.54.8061-6.10171,1.7731-.6029,1.0381.8384,8.5908,1.63271,12.3969,1.57239,7.5341,2.78689,11.9305,3.40839,12.9529,1.3704,2.2542,8.1149,2.4776,7.5058.4293-1.0858-3.6518-2.1731-5.129-3.2736-11.9136C530.16239,93.9526,528.68619,83.557,527.721,82.8155Z" transform="translate(-493.28851 -51.9951)" fill="#da0553" opacity="0.2" style="mix-blend-mode: multiply"/>
          <path d="M559.08089,147.7969c-.4783.0887-.5403-5.4824-.3101-5.7911,2.3129-3.1025,11.86721-7.1493,9.1703-1.1871C567.14349,142.582,560.78259,147.4813,559.08089,147.7969Z" transform="translate(-493.28851 -51.9951)" fill="#b30053" opacity="0.3" style="mix-blend-mode: multiply"/>
          <path d="M580.74789,125.8142c.7952-.8514-.7518-7.7051-1.4716-7.2578-1.1018.6847-20.7477,13.9321-21.1337,14.4417-.86,1.1355-.1025,7.7579.267,7.8194C559.26609,140.9602,578.17789,128.5659,580.74789,125.8142Z" transform="translate(-493.28851 -51.9951)" fill="#fff" style="mix-blend-mode: soft-light"/>
          <path d="M548.38059,63.3868c1.1816-.5184.2849-8.3122-.99959-7.8598-10.49341,3.6959-21.22951,11.9761-21.20331,12.3308.0362.4899,6.3921,3.6758,9.0395,2.4641C537.16009,69.4327,543.24469,65.6402,548.38059,63.3868Z" transform="translate(-493.28851 -51.9951)" fill="#fff" style="mix-blend-mode: soft-light"/>
          <path d="M597.05388,73.6553l-.0206.1564c-.1747,1.2584-.2611,1.8877-.4316,3.1465l-.0053.0352c1.259-5.8106-7.761-9.3541-12.47619-12.8203-1.3729-1.009-2.8506-1.998-4.3269-2.9047-6.196-3.805-13.3378-7.0724-20.6394-7.8835-5.4433-.6047-16.3242,3.9669-23.0015,7.5629-5.3909,2.9032-15.4225,9.9845-16.7597,13.877-.0022-.0141.2911,2.1408.289,2.1267-.1699-1.259-.25569-1.8886-.42969-3.1472l-.02071-.1565c.2383-.2501.4794-.5015.721-.7411a81.87077,81.87077,0,0,1,38.1269-20.8956c.0213-.006.0404-.01.0511-.012l.017-.004.0426.012c.0214.004.0426.0101.0639.0141.509.1287,1.0155.2656,1.5126.3974.0548.0145.1089.0301.16161.0446a97.58758,97.58758,0,0,1,19.63,8.0748l.002.002a11.86157,11.86157,0,0,0,2.27659,1.7262,10.37671,10.37671,0,0,0,2.8931,1.3719,84.80218,84.80218,0,0,1,10.01539,7.7397q.14988.1383.2878.2683c1.19,1.1242,1.874,1.8467,1.9989,1.9848Z" transform="translate(-493.28851 -51.9951)" fill="#d42f55" opacity="0.8" style="mix-blend-mode: multiply"/>
          <path d="M543.79169,122.8078s12.1851,10.4436,14.2352,10.4436c1.9365,0,13.03611-9.3185,13.03611-9.3185-.00691-.0091-11.489,7.3492-12.87771,7.5341C555.27669,131.8545,543.79169,122.8078,543.79169,122.8078Z" transform="translate(-493.28851 -51.9951)" fill="#fff"/>
          <path d="M586.08109,93.3857c.1374.0309-6.3872,23.1738-6.3872,23.1738a63.37171,63.37171,0,0,0,4.9974-12.292A90.80157,90.80157,0,0,0,586.08109,93.3857Z" transform="translate(-493.28851 -51.9951)" fill="#fff"/>
          <path d="M530.14189,93.067c-.1374.0308,5.9256,22.5754,5.9256,22.5754.0948-.0437-3.511-6.6916-4.7511-11.3749C530.49159,101.1521,530.14189,93.067,530.14189,93.067Z" transform="translate(-493.28851 -51.9951)" fill="#fff"/>
          <path d="M551.29559,133.2256c3.79341.1844,1.3787-2.4079-.1268-3.3887-1.419-.9243-5.6262-2.3372-5.8969-1.844C544.84139,128.7773,548.77059,133.1029,551.29559,133.2256Z" transform="translate(-493.28851 -51.9951)" fill="#ee9c50" opacity="0.2" style="mix-blend-mode: multiply"/>
          <path d="M552.15609,134.7468c-2.3738-.9598-3.2043-1.2923-2.0715.5882S553.68579,135.3653,552.15609,134.7468Z" transform="translate(-493.28851 -51.9951)" fill="#ee9c50" opacity="0.2" style="mix-blend-mode: multiply"/>
          <path d="M539.09589,128.6651c-.5568.9796,2.4174,5.8972,4.8749,3.2989C544.39739,131.513,539.514,127.9294,539.09589,128.6651Z" transform="translate(-493.28851 -51.9951)" fill="#ed4800"/>
          <path d="M539.172,129.009c-.14411.7406.93739,2.7267,1.63439,2.8384.6971.1117,2.1248-1.1253.7061-2.026C539.93039,128.817,539.28059,128.451,539.172,129.009Z" transform="translate(-493.28851 -51.9951)" fill="#d42f55" opacity="0.8" style="mix-blend-mode: multiply"/>
          <path d="M541.14989,132.3634c1.9555,1.1161,3.3906.5722,3.1657-.1952a1.494,1.494,0,0,0-.8244-.9863s.5869.4568.2715.9147C543.44709,132.5543,541.14989,132.3634,541.14989,132.3634Z" transform="translate(-493.28851 -51.9951)" fill="#fff"/>
          <path d="M584.72969,63.6381a5.73152,5.73152,0,0,1-.6095.535c-2.1868,1.5889-4.8041-.2-4.8214-2.7426A1.47788,1.47788,0,0,1,579.56,60.54a11.86157,11.86157,0,0,0,2.27659,1.7262A10.37671,10.37671,0,0,0,584.72969,63.6381Z" transform="translate(-493.28851 -51.9951)" fill="#ed4800"/>
          <path d="M579.45469,60.7191c-.2276.6932.0059,2.7855.8432,3.093.83711.3076,1.3403-1.1531,1.1126-1.506C581.18279,61.9533,579.57369,60.3571,579.45469,60.7191Z" transform="translate(-493.28851 -51.9951)" fill="#d42f55" opacity="0.8" style="mix-blend-mode: multiply"/>
          <path d="M580.24369,63.9785s1.6355,1.5749,4.1779-.0535a2.01983,2.01983,0,0,1-2.0889,1.5536C581.36039,65.4822,580.24369,63.9785,580.24369,63.9785Z" transform="translate(-493.28851 -51.9951)" fill="#fff"/>
          <path d="M558.31249,53.0643c-.3616,2.1815-.4958,5.9872.3123,6.7109.8081.7236,11.5289,4.4948,11.8521,4.4948.3233,0,1.2958-6.9497-.3232-7.9194S558.53579,51.7171,558.31249,53.0643Z" transform="translate(-493.28851 -51.9951)" fill="#da0553" opacity="0.2" style="mix-blend-mode: multiply"/>
        </g>
        <g>
          <path d="M593.95128,124.2637a18.95327,18.95327,0,0,1-2.80969,2.6694c-3.0095,2.0934-9.7974,2.6716-9.7974,2.6716l.9932-4.8247Z" transform="translate(-493.28851 -51.9951)" fill="url(#_1267)"/>
          <path d="M588.38269,115.5172c5.262,2.1757,6.193,8.2654,5.56859,8.7465-4.73689,3.6501-11.61389.5163-11.61389.5163s-2.3069-6.8049-1.368-8.2205C581.80129,115.3052,588.38269,115.5172,588.38269,115.5172Z" transform="translate(-493.28851 -51.9951)" fill="url(#_1255-3)"/>
          <path d="M593.14869,124.4231c.80609-.628-11.5585-7.8407-12.1793-7.4614-.6207.3793.3748,6.9821,1.9412,7.889C583.40949,125.1395,589.47629,127.2839,593.14869,124.4231Z" transform="translate(-493.28851 -51.9951)" fill="#da0553" opacity="0.2" style="mix-blend-mode: multiply"/>
          <path d="M593.75,123.836c.42368-.305.28558-4.575-4.12681-7.5725-1.8588-1.2627-8.4273-.1752-8.279-.0191C581.49239,116.4005,593.32929,124.1389,593.75,123.836Z" transform="translate(-493.28851 -51.9951)" fill="#fff" style="mix-blend-mode: soft-light"/>
        </g>
        <g>
          <path d="M522.07709,124.2637a18.95361,18.95361,0,0,0,2.8097,2.6694c3.0095,2.0934,9.7974,2.6716,9.7974,2.6716L533.691,124.78Z" transform="translate(-493.28851 -51.9951)" fill="url(#_1267-2)"/>
          <path d="M527.64569,115.5172c-5.262,2.1757-6.193,8.2654-5.5686,8.7465,4.73691,3.6501,11.61391.5163,11.61391.5163s2.30689-6.8049,1.36789-8.2205C534.22709,115.3052,527.64569,115.5172,527.64569,115.5172Z" transform="translate(-493.28851 -51.9951)" fill="url(#_1255-4)"/>
          <path d="M522.87969,124.4231c-.8061-.628,11.5585-7.8407,12.1792-7.4614.6208.3793-.3747,6.9821-1.9411,7.889C532.61889,125.1395,526.55209,127.2839,522.87969,124.4231Z" transform="translate(-493.28851 -51.9951)" fill="#da0553" opacity="0.2" style="mix-blend-mode: multiply"/>
          <path d="M522.27839,123.836c-.4237-.305-.2856-4.575,4.1268-7.5725,1.85881-1.2627,8.4273-.1752,8.279-.0191C534.536,116.4005,522.699,124.1389,522.27839,123.836Z" transform="translate(-493.28851 -51.9951)" fill="#fff" style="mix-blend-mode: soft-light"/>
        </g>
        <g>
          <path d="M605.66878,79.4448a18.94928,18.94928,0,0,1-1.4992,3.5739c-1.9137,3.1268-7.26958,6.3858-7.26958,6.3858l-1.65722-4.8169Z" transform="translate(-493.28851 -51.9951)" fill="url(#_1952)"/>
          <path d="M597.05308,73.6758c5.6927-.1239,8.99392,5.0774,8.6157,5.769-2.8694,5.2468-10.426,5.1428-10.426,5.1428s-4.84849-5.3028-4.55809-6.9766C590.942,76.1282,597.05308,73.6758,597.05308,73.6758Z" transform="translate(-493.28851 -51.9951)" fill="url(#_1255-5)"/>
          <path d="M604.998,79.9135c.48548-.8991-13.73571-2.5311-14.15151-1.9342-.4159.5969,3.15059,6.2421,4.94951,6.4425C596.36888,84.4857,602.786,84.0096,604.998,79.9135Z" transform="translate(-493.28851 -51.9951)" fill="#da0553" opacity="0.2" style="mix-blend-mode: multiply"/>
          <path d="M605.31248,79.1342c.2652-.4496-1.5782-4.3037-6.82348-5.2739-2.20972-.4087-7.78641,3.2283-7.58791,3.3116S605.04908,79.5806,605.31248,79.1342Z" transform="translate(-493.28851 -51.9951)" fill="#fff" style="mix-blend-mode: soft-light"/>
        </g>
        <g>
          <path d="M510.47929,79.4448a18.94928,18.94928,0,0,0,1.4992,3.5739c1.9137,3.1268,6.7433,5.9206,6.7433,5.9206l2.1835-4.3517Z" transform="translate(-493.28851 -51.9951)" fill="url(#_1952-2)"/>
          <path d="M519.095,73.6758c-5.69271-.1239-8.99391,5.0774-8.61571,5.769,2.8694,5.2468,10.426,5.1428,10.426,5.1428s4.8485-5.3028,4.5581-6.9766C525.20609,76.1282,519.095,73.6758,519.095,73.6758Z" transform="translate(-493.28851 -51.9951)" fill="url(#_1255-6)"/>
          <path d="M511.15009,79.9135c-.4855-.8991,13.7357-2.5311,14.1515-1.9342.4159.5969-3.15059,6.2421-4.9495,6.4425C519.77919,84.4857,513.36209,84.0096,511.15009,79.9135Z" transform="translate(-493.28851 -51.9951)" fill="#da0553" opacity="0.2" style="mix-blend-mode: multiply"/>
          <path d="M510.83559,79.1342c-.2652-.4496,1.5782-4.3037,6.8235-5.2739,2.2097-.4087,7.7864,3.2283,7.58791,3.3116S511.099,79.5806,510.83559,79.1342Z" transform="translate(-493.28851 -51.9951)" fill="#fff" style="mix-blend-mode: soft-light"/>
        </g>
        <g>
          <path d="M546.25989,114.8136a1.48958,1.48958,0,0,1-.9646-.2967c-1.43329-1.1521-.47429-5.8855.8254-11.4905.2695-1.1623.5477-2.3619.56731-2.7009a24.99766,24.99766,0,0,0-2.69671-2.3992c-3.9906-3.3072-7.0145-5.9731-6.6549-7.6893.30061-1.4377,3.51-1.9888,10.142-2.6148a31.15114,31.15114,0,0,0,3.5253-.4318,27.02555,27.02555,0,0,0,1.1896-2.7509c2.039-5.0902,3.8849-9.3039,5.8281-9.3039a1.35165,1.35165,0,0,1,.6388.1731l.056.0293c1.7156.977,3.8577,5.84,5.731,10.3216.2875.6876.5835,1.3958.71081,1.6521a27.30057,27.30057,0,0,0,3.30269.3497c5.0514.3802,9.305.826,10.1904,2.4333a.88757.88757,0,0,1,.11691.4185c.08379,1.1933-1.97631,2.9958-5.37921,5.8212-1.6202,1.3452-3.8389,3.1875-3.9523,3.725a26.68377,26.68377,0,0,0,.64651,3.3823c1.17669,5.2847,2.04709,9.763.77309,11.0395a1.2475,1.2475,0,0,1-.9205.3281c-1.7188,0-5.4247-2.1694-9.3949-4.5861-1.0743-.6539-2.1823-1.3282-2.5501-1.4878-.3483.1566-1.3642.8004-2.3493,1.4245-3.8416,2.4348-7.44629,4.6227-9.336,4.6534Z" transform="translate(-493.28851 -51.9951)" fill="url(#_108)"/>
          <path d="M577.67119,90.2946v.0049c.1291,1.8342-8.9597,7.7387-9.059,9.1831-.0968,1.4122,3.18181,12.0075,1.5214,13.6678-1.3501,1.3527-11.3943-5.6909-12.1365-5.7331h-.0074c-.6354,0-8.6049,5.8647-11.3523,5.9095H546.635a.99693.99693,0,0,1-.65771-.1764c-1.7697-1.4195,1.6554-12.541,1.53371-13.4667-.12151-.9283-9.57761-7.2447-9.08871-9.5727.4046-1.931,12.3748-2.0973,13.092-2.6533.7173-.5584,4.0406-11.5855,6.50771-11.5855a.85177.85177,0,0,1,.42179.1291l.0075.0024c2.1841,1.241,5.7159,10.9329,6.1328,11.5285.4467.6378,11.809.3574,13.035,2.5788A.38407.38407,0,0,1,577.67119,90.2946Z" transform="translate(-493.28851 -51.9951)" fill="url(#_464)"/>
          <path d="M558.007,95.8317l-10.496,3.852c-.12151-.9283-9.57761-7.2447-9.08871-9.5727Z" transform="translate(-493.28851 -51.9951)" fill="#da0553" opacity="0.2" style="mix-blend-mode: multiply"/>
          <path d="M564.58409,87.5322,558.007,95.8317l.015-19.9595.42179.1291.0075.0024C560.63539,77.2447,564.16719,86.9366,564.58409,87.5322Z" transform="translate(-493.28851 -51.9951)" fill="#da0553" opacity="0.2" style="mix-blend-mode: multiply"/>
          <path d="M577.67119,90.2946v.0049c.1291,1.8342-8.9597,7.7387-9.059,9.1831L558.007,95.8317l19.61209-5.7207Z" transform="translate(-493.28851 -51.9951)" fill="#da0553" opacity="0.2" style="mix-blend-mode: multiply"/>
          <path d="M570.13359,113.1504c-1.3501,1.3527-11.3943-5.6909-12.1365-5.7331v.0098l-.0074-.0098.01731-11.5856Z" transform="translate(-493.28851 -51.9951)" fill="#da0553" opacity="0.2" style="mix-blend-mode: multiply"/>
          <path d="M558.007,95.8317l-.00991,11.5856v.0098l-.0074-.0098c-.6354,0-8.6049,5.8647-11.3523,5.9095H546.635l-.65771-.1764Z" transform="translate(-493.28851 -51.9951)" fill="#da0553" opacity="0.2" style="mix-blend-mode: multiply"/>
          <path d="M558.007,95.8317,538.42229,90.111c.4046-1.931,12.3748-2.0973,13.092-2.6533Z" transform="translate(-493.28851 -51.9951)" fill="#fff" style="mix-blend-mode: soft-light"/>
          <path d="M538.42229,90.111c-3.2899.9658,5.7939,18.562,7.4074,17.7042,1.6135-.8579,10.867-10.0456,12.17731-11.9835C558.007,95.8317,540.60079,89.4714,538.42229,90.111Z" transform="translate(-493.28851 -51.9951)" fill="#d42f55" opacity="0.5" style="mix-blend-mode: multiply"/>
          <path d="M577.62369,90.111c3.2899.9658-5.7939,18.562-7.4074,17.7042-1.6135-.8579-10.867-10.0456-12.1774-11.9835C558.03889,95.8317,575.44519,89.4714,577.62369,90.111Z" transform="translate(-493.28851 -51.9951)" fill="#d42f55" opacity="0.5" style="mix-blend-mode: multiply"/>
          <path d="M558.022,75.8722c-.39931.0915-.02491,31.5451-.02491,31.5451,1.1434.4282,10.9364,6.8027,12.1365,5.7331,1.9118-1.7038-1.7548-12.2445-1.5214-13.6678.2335-1.4233,9.63981-7.7029,9.0115-9.3716-.8598-2.2839-12.5108-2.0643-13.0396-2.5788C563.62109,86.5954,560.15359,75.3836,558.022,75.8722Z" transform="translate(-493.28851 -51.9951)" fill="#da0553" opacity="0.3" style="mix-blend-mode: multiply"/>
          <path d="M558.007,95.8317c-3.00911,4.247-12.02971,16.3023-12.02971,17.3187,0,1.4407,23.6943,1.5953,24.1563,0C570.59569,111.5552,558.57109,95.0356,558.007,95.8317Z" transform="translate(-493.28851 -51.9951)" fill="#d42f55" opacity="0.5" style="mix-blend-mode: multiply"/>
          <path d="M564.15589,93.6846c2.0485,2.379-.4793,6.6582-1.195,7.8546-.7158,1.1964-3.8485,3.4483-4.922,3.5076-1.0734.0592-3.7671-1.3953-4.68289-3.6041-.91591-2.2089-1.61621-5.8581,0-6.9696S562.99589,92.3374,564.15589,93.6846Z" transform="translate(-493.28851 -51.9951)" fill="#7e527c" opacity="0.5" style="mix-blend-mode: multiply"/>
          <g>
            <path d="M562.97639,92.909a5.96834,5.96834,0,1,1-10.8066,1.2804C553.60379,89.3238,560.87649,89.375,562.97639,92.909Z" transform="translate(-493.28851 -51.9951)" fill="url(#_467-2)"/>
            <path d="M558.84419,101.8718a6.08575,6.08575,0,0,0,5.0223-6.0138c-.4036,3.3762-2.8619,6.3211-7.77049,5.1605a6.31754,6.31754,0,0,1-4.20181-5.1738A6.00833,6.00833,0,0,0,558.84419,101.8718Z" transform="translate(-493.28851 -51.9951)" fill="url(#_1267-3)"/>
            <path d="M552.37359,93.6198c.209.4999,2.8179-2.0425,2.4748-2.5751h-.0021A5.0389,5.0389,0,0,0,552.37359,93.6198Z" transform="translate(-493.28851 -51.9951)" opacity="0.5" fill="url(#_314)" style="mix-blend-mode: color-dodge"/>
            <g>
              <path d="M553.22019,93.999c-1.6371,3.3812,3.5217,10.3563,8.2046,5.0584C566.612,93.189,556.75939,86.6893,553.22019,93.999Z" transform="translate(-493.28851 -51.9951)" fill="url(#_108-2)"/>
              <path d="M554.57019,93.9748a4.07147,4.07147,0,0,0,1.587,5.3528c2.1205,1.4521,4.718-.265,5.61581-2.0433,1.28279-2.5407-1.16091-5.1749-2.67731-5.6064S555.29139,92.5262,554.57019,93.9748Z" transform="translate(-493.28851 -51.9951)" fill="url(#_20)"/>
              <path d="M554.212,95.7583a3.46854,3.46854,0,0,0,1.35459,3.028c1.3546.9265,2.3107,1.0841,2.4138.9312a4.27418,4.27418,0,0,0,.0362-1.4466,5.90936,5.90936,0,0,1-1.6299-1.2812c-.5093-.7022-.6839-.9478-.8292-.9614S554.26219,95.541,554.212,95.7583Z" transform="translate(-493.28851 -51.9951)" fill="#b82774" opacity="0.4" style="mix-blend-mode: multiply"/>
              <path d="M555.83759,95.9477c-.1902.8223,2.1631,2.3539,2.3779,2.3232,1.01251-.1446,2.2386-2.3836,2.2603-3.1113.0147-.4916-1.8804-2.0778-2.48579-1.8876A6.27613,6.27613,0,0,0,555.83759,95.9477Z" transform="translate(-493.28851 -51.9951)" fill="#fff" style="mix-blend-mode: soft-light"/>
              <path d="M558.21549,98.2709c-.2803.1176-.1792,1.3918-.0833,1.4033,1.0662.1271,2.163-.4683,3.2311-1.8592a3.01406,3.01406,0,0,0,.4232-3.1151c-.1363-.1711-1.3053.2585-1.3107.4597A4.3079,4.3079,0,0,1,558.21549,98.2709Z" transform="translate(-493.28851 -51.9951)" fill="#b82774" opacity="0.8" style="mix-blend-mode: multiply"/>
              <path d="M554.13419,95.4774c-.0121.191,1.3912.651,1.4956.5334.1705-.1921,2.2873-2.6851,2.2963-2.8389.0144-.2486.0756-1.4577-.2827-1.4751a5.19011,5.19011,0,0,0-2.5718,1.5521A3.51083,3.51083,0,0,0,554.13419,95.4774Z" transform="translate(-493.28851 -51.9951)" fill="#fff" opacity="0.75"/>
              <path d="M554.57019,93.9748a5.35743,5.35743,0,0,1,1.81-1.7521s.62381.1899.1356.9764C556.02759,93.9857,554.57019,93.9748,554.57019,93.9748Z" transform="translate(-493.28851 -51.9951)" fill="#fff"/>
              <path d="M557.50519,97.8943c-.04319.0689.408.9507.532.9258a2.08013,2.08013,0,0,0,.5399-.7119C558.51859,98.1125,557.59959,97.7438,557.50519,97.8943Z" transform="translate(-493.28851 -51.9951)" fill="#fff"/>
              <path d="M560.28139,94.7575a1.20121,1.20121,0,0,0,.0817,1.0197c.1035.0256.5707-.8503.5134-.905C560.81919,94.8174,560.44889,94.5529,560.28139,94.7575Z" transform="translate(-493.28851 -51.9951)" fill="#fff"/>
              <path d="M556.44809,100.7194a5.19278,5.19278,0,0,0,4.9767-1.662,4.699,4.699,0,0,0,1.2118-4.9883,4.667,4.667,0,0,1-1.2387,5.6493A4.36045,4.36045,0,0,1,556.44809,100.7194Z" transform="translate(-493.28851 -51.9951)" fill="#ffd2ff"/>
              <path d="M555.56439,100.2588c-1.3811-1.7528-3.1327-5.3526-.7351-7.8329,2.3975-2.4803,6.0204-.1416,7.072.3384a5.09929,5.09929,0,0,0-6.885-1.7679c-1.77029.8329-2.2305,2.0831-2.082,4.9095C553.07039,98.496,555.56439,100.2588,555.56439,100.2588Z" transform="translate(-493.28851 -51.9951)" fill="#d42f55" opacity="0.5" style="mix-blend-mode: multiply"/>
            </g>
          </g>
          <circle cx="558.00702" cy="95.83173" r="8.50408" transform="translate(-149.68117 567.84839) rotate(-77.49292)" opacity="0.5" fill="url(#_289)" style="mix-blend-mode: color-dodge"/>
        </g>
        <g>
          <path d="M555.31849,55.6797c-.8997,1.8583,1.93551,5.6918,4.5092,2.7801C562.67859,55.2345,557.26359,51.6623,555.31849,55.6797Z" transform="translate(-493.28851 -51.9951)" fill="url(#_108-3)"/>
          <path d="M556.06049,55.6664a2.2377,2.2377,0,0,0,.8722,2.9419c1.1654.798,2.593-.1457,3.0864-1.123.705-1.3964-.638-2.8441-1.4714-3.0813A2.526,2.526,0,0,0,556.06049,55.6664Z" transform="translate(-493.28851 -51.9951)" fill="url(#_20-2)"/>
          <path d="M555.86359,56.6466a1.90636,1.90636,0,0,0,.7445,1.6642c.7445.5092,1.27.5958,1.3266.5117a2.34756,2.34756,0,0,0,.0199-.795,3.24749,3.24749,0,0,1-.8958-.7041c-.2799-.386-.3759-.5209-.4557-.5284C556.52319,56.7875,555.89119,56.5272,555.86359,56.6466Z" transform="translate(-493.28851 -51.9951)" fill="#b82774" opacity="0.4" style="mix-blend-mode: multiply"/>
          <path d="M556.757,56.7507c-.10451.4519,1.18889,1.2937,1.30689,1.2768.5565-.0795,1.2304-1.31,1.2423-1.7099.0081-.2702-1.0335-1.142-1.36619-1.0374A3.44889,3.44889,0,0,0,556.757,56.7507Z" transform="translate(-493.28851 -51.9951)" fill="#fff" style="mix-blend-mode: soft-light"/>
          <path d="M558.06389,58.0275c-.154.0646-.0985.765-.0458.7713A2.03312,2.03312,0,0,0,559.794,57.777a1.65693,1.65693,0,0,0,.23259-1.7121c-.075-.094-.7174.1421-.7204.2527A2.36737,2.36737,0,0,1,558.06389,58.0275Z" transform="translate(-493.28851 -51.9951)" fill="#b82774" opacity="0.8" style="mix-blend-mode: multiply"/>
          <path d="M555.82079,56.4922c-.0066.105.7647.3578.8221.2932.0937-.1056,1.257-1.4757,1.262-1.5603.0079-.1366.0415-.8011-.1554-.8107a2.85228,2.85228,0,0,0-1.41349.853A1.93018,1.93018,0,0,0,555.82079,56.4922Z" transform="translate(-493.28851 -51.9951)" fill="#fff" opacity="0.75"/>
          <path d="M556.06049,55.6664a2.94488,2.94488,0,0,1,.9948-.9629s.3428.1043.0745.5366S556.06049,55.6664,556.06049,55.6664Z" transform="translate(-493.28851 -51.9951)" fill="#fff"/>
          <path d="M557.67359,57.8206c-.0238.0378.2242.5224.2923.5088a1.14468,1.14468,0,0,0,.2968-.3913C558.23049,57.9405,557.72539,57.7378,557.67359,57.8206Z" transform="translate(-493.28851 -51.9951)" fill="#fff"/>
          <path d="M559.19939,56.0965a.65982.65982,0,0,0,.0449.5605c.0568.0141.3136-.4673.2821-.4974S559.29139,55.9841,559.19939,56.0965Z" transform="translate(-493.28851 -51.9951)" fill="#fff"/>
          <path d="M557.09259,59.3732a2.85383,2.85383,0,0,0,2.7351-.9134,2.58276,2.58276,0,0,0,.6661-2.7416,2.56508,2.56508,0,0,1-.68079,3.1048A2.39644,2.39644,0,0,1,557.09259,59.3732Z" transform="translate(-493.28851 -51.9951)" fill="#fff7c4"/>
          <path d="M556.60689,59.1201a2.971,2.971,0,0,1-.0793-4.0224c1.3177-1.3631,2.9841-.3604,3.562-.0966,0,0-1.99059-2.7215-4.2905-1.1015a2.57324,2.57324,0,0,0-.8986,3.0301A5.2694,5.2694,0,0,0,556.60689,59.1201Z" transform="translate(-493.28851 -51.9951)" fill="#e54136" opacity="0.5" style="mix-blend-mode: multiply"/>
        </g>
        <g>
          <path d="M555.31849,135.9429c-.8997,1.8583,1.93551,5.6918,4.5092,2.7801C562.67859,135.4977,557.26359,131.9255,555.31849,135.9429Z" transform="translate(-493.28851 -51.9951)" fill="url(#_108-4)"/>
          <path d="M556.06049,135.9296a2.2377,2.2377,0,0,0,.8722,2.9419c1.1654.798,2.593-.1457,3.0864-1.123.705-1.3964-.638-2.8441-1.4714-3.0813A2.526,2.526,0,0,0,556.06049,135.9296Z" transform="translate(-493.28851 -51.9951)" fill="url(#_20-3)"/>
          <path d="M555.86359,136.9098a1.90628,1.90628,0,0,0,.7445,1.6642c.7445.5092,1.27.5958,1.3266.5117a2.34756,2.34756,0,0,0,.0199-.795,3.24749,3.24749,0,0,1-.8958-.7041c-.2799-.386-.3759-.5209-.4557-.5284C556.52319,137.0507,555.89119,136.7904,555.86359,136.9098Z" transform="translate(-493.28851 -51.9951)" fill="#b82774" opacity="0.4" style="mix-blend-mode: multiply"/>
          <path d="M556.757,137.0139c-.10451.4519,1.18889,1.2937,1.30689,1.2768.5565-.0795,1.2304-1.31,1.2423-1.7099.0081-.2702-1.0335-1.142-1.36619-1.0374A3.44889,3.44889,0,0,0,556.757,137.0139Z" transform="translate(-493.28851 -51.9951)" fill="#fff" style="mix-blend-mode: soft-light"/>
          <path d="M558.06389,138.2907c-.154.0646-.0985.765-.0458.7713a2.03312,2.03312,0,0,0,1.77591-1.0218,1.65693,1.65693,0,0,0,.23259-1.7121c-.075-.094-.7174.1421-.7204.2527A2.36737,2.36737,0,0,1,558.06389,138.2907Z" transform="translate(-493.28851 -51.9951)" fill="#b82774" opacity="0.8" style="mix-blend-mode: multiply"/>
          <path d="M555.82079,136.7554c-.0066.105.7647.3578.8221.2932.0937-.1056,1.257-1.4757,1.262-1.5603.0079-.1366.0415-.8011-.1554-.8107a2.85228,2.85228,0,0,0-1.41349.853A1.93018,1.93018,0,0,0,555.82079,136.7554Z" transform="translate(-493.28851 -51.9951)" fill="#fff" opacity="0.75"/>
          <path d="M556.06049,135.9296a2.94488,2.94488,0,0,1,.9948-.9629s.3428.1043.0745.5366S556.06049,135.9296,556.06049,135.9296Z" transform="translate(-493.28851 -51.9951)" fill="#fff"/>
          <path d="M557.67359,138.0838c-.0238.0378.2242.5224.2923.5088a1.14375,1.14375,0,0,0,.2968-.3913C558.23049,138.2037,557.72539,138.001,557.67359,138.0838Z" transform="translate(-493.28851 -51.9951)" fill="#fff"/>
          <path d="M559.19939,136.3597a.65982.65982,0,0,0,.0449.5605c.0568.0141.3136-.4673.2821-.4974S559.29139,136.2473,559.19939,136.3597Z" transform="translate(-493.28851 -51.9951)" fill="#fff"/>
          <path d="M557.09259,139.6364a2.85383,2.85383,0,0,0,2.7351-.9134,2.58276,2.58276,0,0,0,.6661-2.7416,2.56508,2.56508,0,0,1-.68079,3.1048A2.39644,2.39644,0,0,1,557.09259,139.6364Z" transform="translate(-493.28851 -51.9951)" fill="#fff7c4"/>
          <path d="M556.60689,139.3833a2.971,2.971,0,0,1-.0793-4.0224c1.3177-1.3631,2.9841-.3604,3.562-.0966,0,0-1.99059-2.7214-4.2905-1.1015a2.57324,2.57324,0,0,0-.8986,3.0301A5.2694,5.2694,0,0,0,556.60689,139.3833Z" transform="translate(-493.28851 -51.9951)" fill="#e54136" opacity="0.5" style="mix-blend-mode: multiply"/>
        </g>
        <g>
          <path d="M524.97109,70.7538c-.8997,1.8583,1.9355,5.6918,4.5092,2.7801C532.33119,70.3086,526.91619,66.7364,524.97109,70.7538Z" transform="translate(-493.28851 -51.9951)" fill="url(#_108-5)"/>
          <path d="M525.71309,70.7405a2.23771,2.23771,0,0,0,.8722,2.9419c1.1654.798,2.593-.1457,3.0864-1.123.705-1.3964-.638-2.8441-1.4714-3.0813A2.526,2.526,0,0,0,525.71309,70.7405Z" transform="translate(-493.28851 -51.9951)" fill="url(#_20-4)"/>
          <path d="M525.51619,71.7207a1.90628,1.90628,0,0,0,.7445,1.6642c.7445.5092,1.2699.5958,1.3266.5118a2.34713,2.34713,0,0,0,.0199-.795,3.25068,3.25068,0,0,1-.8958-.7042c-.2799-.386-.3759-.5209-.4557-.5284C526.17579,71.8616,525.54379,71.6013,525.51619,71.7207Z" transform="translate(-493.28851 -51.9951)" fill="#b82774" opacity="0.4" style="mix-blend-mode: multiply"/>
          <path d="M526.40959,71.8248c-.1045.4519,1.1889,1.2937,1.3069,1.2769.55651-.0795,1.2304-1.3101,1.2423-1.71.0081-.2702-1.0335-1.142-1.3662-1.0374A3.449,3.449,0,0,0,526.40959,71.8248Z" transform="translate(-493.28851 -51.9951)" fill="#fff" style="mix-blend-mode: soft-light"/>
          <path d="M527.71649,73.1017c-.154.0646-.09849.7649-.0458.7712a2.03287,2.03287,0,0,0,1.7759-1.0218,1.65693,1.65693,0,0,0,.2326-1.7121c-.075-.094-.7174.1421-.7204.2527A2.36774,2.36774,0,0,1,527.71649,73.1017Z" transform="translate(-493.28851 -51.9951)" fill="#b82774" opacity="0.8" style="mix-blend-mode: multiply"/>
          <path d="M525.47339,71.5663c-.0066.105.7647.3578.8221.2932.0937-.1056,1.257-1.4757,1.262-1.5602.0079-.1367.04151-.8012-.1554-.8107a2.85266,2.85266,0,0,0-1.4135.8529A1.93038,1.93038,0,0,0,525.47339,71.5663Z" transform="translate(-493.28851 -51.9951)" fill="#fff" opacity="0.75"/>
          <path d="M525.71309,70.7405a2.94374,2.94374,0,0,1,.9948-.9629s.3428.1043.0745.5366S525.71309,70.7405,525.71309,70.7405Z" transform="translate(-493.28851 -51.9951)" fill="#fff"/>
          <path d="M527.32619,72.8947c-.0238.0378.2242.5225.2923.5088a1.14375,1.14375,0,0,0,.2968-.3913C527.88309,73.0146,527.378,72.8119,527.32619,72.8947Z" transform="translate(-493.28851 -51.9951)" fill="#fff"/>
          <path d="M528.852,71.1707a.65964.65964,0,0,0,.04489.5604c.0568.0141.3136-.4673.28211-.4974S528.944,71.0582,528.852,71.1707Z" transform="translate(-493.28851 -51.9951)" fill="#fff"/>
          <path d="M526.74519,74.4473a2.85383,2.85383,0,0,0,2.7351-.9134,2.58278,2.58278,0,0,0,.6661-2.7416,2.56521,2.56521,0,0,1-.6808,3.1049A2.39649,2.39649,0,0,1,526.74519,74.4473Z" transform="translate(-493.28851 -51.9951)" fill="#fff7c4"/>
          <path d="M526.25949,74.1942a2.97084,2.97084,0,0,1-.0793-4.0223c1.3177-1.3632,2.9841-.3605,3.562-.0967,0,0-1.9906-2.7214-4.2905-1.1015a2.57327,2.57327,0,0,0-.8986,3.0301A5.2694,5.2694,0,0,0,526.25949,74.1942Z" transform="translate(-493.28851 -51.9951)" fill="#e54136" opacity="0.5" style="mix-blend-mode: multiply"/>
        </g>
        <g>
          <path d="M524.90139,70.733c-.8997,1.8583,1.9355,5.6918,4.5092,2.7801C532.26149,70.2878,526.84659,66.7156,524.90139,70.733Z" transform="translate(-493.28851 -51.9951)" fill="url(#_108-6)"/>
          <path d="M525.64339,70.7197a2.23768,2.23768,0,0,0,.8722,2.9419c1.16541.7981,2.593-.1456,3.08641-1.123.705-1.3964-.638-2.8441-1.47141-3.0812A2.52593,2.52593,0,0,0,525.64339,70.7197Z" transform="translate(-493.28851 -51.9951)" fill="url(#_20-5)"/>
          <path d="M525.44649,71.7a1.90622,1.90622,0,0,0,.74451,1.6641c.74449.5092,1.27.5958,1.32659.5118a2.3476,2.3476,0,0,0,.0199-.795,3.25068,3.25068,0,0,1-.8958-.7042c-.2799-.3859-.3759-.5209-.45569-.5284C526.10609,71.8408,525.47409,71.5805,525.44649,71.7Z" transform="translate(-493.28851 -51.9951)" fill="#b82774" opacity="0.4" style="mix-blend-mode: multiply"/>
          <path d="M526.33989,71.804c-.1045.452,1.1889,1.2937,1.3069,1.2769.5565-.0795,1.2304-1.3101,1.2423-1.71.0081-.2702-1.0335-1.142-1.3662-1.0374A3.449,3.449,0,0,0,526.33989,71.804Z" transform="translate(-493.28851 -51.9951)" fill="#fff" style="mix-blend-mode: soft-light"/>
          <path d="M527.64679,73.0809c-.154.0646-.0985.7649-.04579.7712a2.03286,2.03286,0,0,0,1.77589-1.0218,1.65693,1.65693,0,0,0,.2326-1.7121c-.075-.094-.7174.1421-.7204.2527A2.36755,2.36755,0,0,1,527.64679,73.0809Z" transform="translate(-493.28851 -51.9951)" fill="#b82774" opacity="0.8" style="mix-blend-mode: multiply"/>
          <path d="M525.40369,71.5456c-.0066.1049.7647.3577.8221.2931.0937-.1056,1.257-1.4757,1.262-1.5602.0079-.1367.0416-.8012-.1554-.8107a2.85233,2.85233,0,0,0-1.4135.853A1.93,1.93,0,0,0,525.40369,71.5456Z" transform="translate(-493.28851 -51.9951)" fill="#fff" opacity="0.75"/>
          <path d="M525.64339,70.7197a2.94488,2.94488,0,0,1,.9948-.9629s.34281.1043.0745.5366S525.64339,70.7197,525.64339,70.7197Z" transform="translate(-493.28851 -51.9951)" fill="#fff"/>
          <path d="M527.25649,72.8739c-.0238.0379.2242.5225.2923.5088a1.14269,1.14269,0,0,0,.2968-.3913C527.81339,72.9938,527.30829,72.7911,527.25649,72.8739Z" transform="translate(-493.28851 -51.9951)" fill="#fff"/>
          <path d="M528.78229,71.1499a.65959.65959,0,0,0,.0449.5604c.05681.0141.3136-.4673.2821-.4974S528.87429,71.0374,528.78229,71.1499Z" transform="translate(-493.28851 -51.9951)" fill="#fff"/>
          <path d="M526.67549,74.4265a2.85383,2.85383,0,0,0,2.7351-.9134,2.58277,2.58277,0,0,0,.6661-2.7416,2.56506,2.56506,0,0,1-.6808,3.1049A2.3965,2.3965,0,0,1,526.67549,74.4265Z" transform="translate(-493.28851 -51.9951)" fill="#fff7c4"/>
          <path d="M526.18979,74.1734a2.97083,2.97083,0,0,1-.0793-4.0223c1.3177-1.3632,2.9841-.3605,3.562-.0967,0,0-1.9906-2.7214-4.29049-1.1015a2.57326,2.57326,0,0,0-.89861,3.0301A5.26859,5.26859,0,0,0,526.18979,74.1734Z" transform="translate(-493.28851 -51.9951)" fill="#e54136" opacity="0.5" style="mix-blend-mode: multiply"/>
        </g>
        <g>
          <path d="M586.13909,70.733c-.8998,1.8583,1.9355,5.6918,4.5092,2.7801C593.49909,70.2878,588.08419,66.7156,586.13909,70.733Z" transform="translate(-493.28851 -51.9951)" fill="url(#_108-7)"/>
          <path d="M586.881,70.7197a2.2377,2.2377,0,0,0,.87229,2.9419c1.1653.7981,2.5929-.1456,3.0864-1.123.705-1.3964-.6381-2.8441-1.4715-3.0812A2.526,2.526,0,0,0,586.881,70.7197Z" transform="translate(-493.28851 -51.9951)" fill="url(#_20-6)"/>
          <path d="M586.68419,71.7a1.906,1.906,0,0,0,.7444,1.6641c.7445.5092,1.27.5958,1.3267.5118a2.35,2.35,0,0,0,.0198-.795,3.25076,3.25076,0,0,1-.8957-.7042c-.2799-.3859-.3759-.5209-.4558-.5284C587.34379,71.8408,586.71169,71.5805,586.68419,71.7Z" transform="translate(-493.28851 -51.9951)" fill="#b82774" opacity="0.4" style="mix-blend-mode: multiply"/>
          <path d="M587.57759,71.804c-.10459.452,1.1888,1.2937,1.3069,1.2769.55651-.0795,1.2303-1.3101,1.2422-1.71.0081-.2702-1.0334-1.142-1.3661-1.0374A3.44837,3.44837,0,0,0,587.57759,71.804Z" transform="translate(-493.28851 -51.9951)" fill="#fff" style="mix-blend-mode: soft-light"/>
          <path d="M588.88449,73.0809c-.1541.0646-.09849.7649-.0458.7712a2.03263,2.03263,0,0,0,1.7758-1.0218,1.6567,1.6567,0,0,0,.2326-1.7121c-.0749-.094-.7174.1421-.7204.2527A2.36769,2.36769,0,0,1,588.88449,73.0809Z" transform="translate(-493.28851 -51.9951)" fill="#b82774" opacity="0.8" style="mix-blend-mode: multiply"/>
          <path d="M586.64139,71.5456c-.0066.1049.76461.3577.822.2931.0937-.1056,1.2571-1.4757,1.262-1.5602.008-.1367.04161-.8012-.1553-.8107a2.85193,2.85193,0,0,0-1.4135.853A1.93,1.93,0,0,0,586.64139,71.5456Z" transform="translate(-493.28851 -51.9951)" fill="#fff" opacity="0.75"/>
          <path d="M586.881,70.7197a2.9448,2.9448,0,0,1,.99479-.9629s.3429.1043.0745.5366C587.682,70.7257,586.881,70.7197,586.881,70.7197Z" transform="translate(-493.28851 -51.9951)" fill="#fff"/>
          <path d="M588.49409,72.8739c-.0237.0379.2242.5225.2924.5088a1.14236,1.14236,0,0,0,.2967-.3913C589.051,72.9938,588.546,72.7911,588.49409,72.8739Z" transform="translate(-493.28851 -51.9951)" fill="#fff"/>
          <path d="M590.01989,71.1499a.66034.66034,0,0,0,.0449.5604c.0569.0141.3136-.4673.2821-.4974C590.31549,71.1828,590.11189,71.0374,590.01989,71.1499Z" transform="translate(-493.28851 -51.9951)" fill="#fff"/>
          <path d="M587.91309,74.4265a2.854,2.854,0,0,0,2.7352-.9134,2.58264,2.58264,0,0,0,.666-2.7416,2.56506,2.56506,0,0,1-.6808,3.1049A2.3965,2.3965,0,0,1,587.91309,74.4265Z" transform="translate(-493.28851 -51.9951)" fill="#fff7c4"/>
          <path d="M587.42739,74.1734a2.97093,2.97093,0,0,1-.0793-4.0223c1.3177-1.3632,2.9841-.3605,3.5621-.0967,0,0-1.9906-2.7214-4.2905-1.1015a2.57327,2.57327,0,0,0-.8986,3.0301A5.26876,5.26876,0,0,0,587.42739,74.1734Z" transform="translate(-493.28851 -51.9951)" fill="#e54136" opacity="0.5" style="mix-blend-mode: multiply"/>
        </g>
      </g>
    </g>
  </g>
</svg>
