<svg xmlns="http://www.w3.org/2000/svg" viewBox="0 0 150 154.26"><defs><style>.cls-1{fill:#fff;}</style></defs><g id="Layer_2" data-name="Layer 2"><g id="OBJECTS"><path class="cls-1" d="M150,154.26H0V0H150ZM26.85,63l-.85.68c-2.77,2.25-5.75,4.3-8.29,6.79A55.78,55.78,0,0,0,5.07,89.32a50.19,50.19,0,0,0-3.91,14.09A49,49,0,0,0,1,114.56c1.12,8.18,5.9,14.45,11.71,20s12.79,8.8,20,11.77A111.28,111.28,0,0,0,46.27,151a99.76,99.76,0,0,0,13.51,2.5,38,38,0,0,0,13.82-1.16c6.39-1.56,12-4.45,16.22-9.68a56,56,0,0,0,9.69-18,57.2,57.2,0,0,0,3-17.51c0-5.06-.13-10.1-1.77-15-.23-.69-.33-1.43-.53-2.31,1.22-.16,2.28-.21,3.3-.43C117.8,86.35,130.25,80,140,68.92c3.69-4.19,7-8.62,8.72-14a9.76,9.76,0,0,0,.46-3.85,3.37,3.37,0,0,0-1.46-2.43,20.85,20.85,0,0,0-5.76-1.7,33,33,0,0,0-13.31,1.36A71.78,71.78,0,0,0,93.77,70a35.7,35.7,0,0,1-2.89,2.88,1.4,1.4,0,0,1-2.25-.12c-4-4.8-9.32-7.89-14.94-10.34A84.67,84.67,0,0,0,61.5,58.37a35,35,0,0,0-14.69-1c-1.32.21-1.79-.43-1.93-1.5-.18-1.35-.24-2.72-.36-4.08-.32-3.56-.35-7.17-1-10.67A70.38,70.38,0,0,0,30,10.22c-3-3.9-6.43-7.43-11.28-9.11-2.45-.85-4.17-.19-5.49,2a24.64,24.64,0,0,0-3,10.65,62.29,62.29,0,0,0,1.48,20.89A67.92,67.92,0,0,0,25,61C25.54,61.66,26.19,62.27,26.85,63Z"/><path d="M26.85,63c-.66-.7-1.31-1.31-1.86-2a67.92,67.92,0,0,1-13.31-26.3A62.29,62.29,0,0,1,10.2,13.78a24.64,24.64,0,0,1,3-10.65c1.32-2.21,3-2.87,5.49-2C23.57,2.79,27,6.32,30,10.22A70.38,70.38,0,0,1,43.52,41.15c.65,3.5.68,7.11,1,10.67.12,1.36.18,2.73.36,4.08.14,1.07.61,1.71,1.93,1.5a35,35,0,0,1,14.69,1,84.67,84.67,0,0,1,12.19,4.08C79.31,64.9,84.59,68,88.63,72.79a1.4,1.4,0,0,0,2.25.12A35.7,35.7,0,0,0,93.77,70a71.78,71.78,0,0,1,34.89-21.76A33,33,0,0,1,142,46.91a20.85,20.85,0,0,1,5.76,1.7A3.37,3.37,0,0,1,149.19,51a9.76,9.76,0,0,1-.46,3.85c-1.7,5.41-5,9.84-8.72,14C130.25,80,117.8,86.35,103.53,89.41c-1,.22-2.08.27-3.3.43.2.88.3,1.62.53,2.31,1.64,4.87,1.77,9.91,1.77,15a57.2,57.2,0,0,1-3,17.51,56,56,0,0,1-9.69,18c-4.18,5.23-9.83,8.12-16.22,9.68a38,38,0,0,1-13.82,1.16A99.76,99.76,0,0,1,46.27,151a111.28,111.28,0,0,1-13.6-4.66c-7.19-3-14.24-6.28-20-11.77S2.1,122.74,1,114.56a49,49,0,0,1,.18-11.15A50.19,50.19,0,0,1,5.07,89.32,55.78,55.78,0,0,1,17.71,70.44C20.25,68,23.23,65.9,26,63.65Zm4.66,54.63-.1.4c-5-.39-6.07,3.17-5.23,6.76a13.37,13.37,0,0,0,.49,1.75c1.53,4,3.4,7.81,7.58,9.79a53.71,53.71,0,0,0,11.44,4.31,19.21,19.21,0,0,0,5.18.72c4.06-.23,7.54-2.07,10.7-4.56,2.53-2,2.84-5.15.32-7.12a34.67,34.67,0,0,0-7.45-4.53c-4.35-1.89-8.84-3.46-13.34-5C38,119.13,34.71,118.44,31.51,117.6ZM27.43,79.08c0-3.43-1.32-5.08-3.67-5.65s-4,.58-5.39,2.24A64.57,64.57,0,0,0,7,97.06a9.26,9.26,0,0,0-.2,3.86,4.08,4.08,0,0,0,3.35,3.65,4.09,4.09,0,0,0,4.42-1.68,79.43,79.43,0,0,0,5.15-7.83c2-3.49,3.86-7.07,5.63-10.69A55.62,55.62,0,0,0,27.43,79.08Zm71.24,27.81a37,37,0,0,0-.57-4.26,4.69,4.69,0,0,0-6.24-3.12c-2.11.76-2.85,2.57-3.3,4.42-1.58,6.51-3.12,13-4.45,19.6a16.21,16.21,0,0,0-.06,6.13c.55,2.93,3.67,4.05,6.3,2.59A7.14,7.14,0,0,0,93.56,128c1.23-3.68,2.43-7.38,3.34-11.15C97.72,113.42,98.14,109.9,98.67,106.89Z"/><path class="cls-1" d="M31.51,117.6c3.2.84,6.45,1.53,9.59,2.56,4.5,1.5,9,3.07,13.34,5a34.67,34.67,0,0,1,7.45,4.53c2.52,2,2.21,5.12-.32,7.12-3.16,2.49-6.64,4.33-10.7,4.56a19.21,19.21,0,0,1-5.18-.72,53.71,53.71,0,0,1-11.44-4.31c-4.18-2-6.05-5.76-7.58-9.79a13.37,13.37,0,0,1-.49-1.75c-.84-3.59.23-7.15,5.23-6.76Z"/><path class="cls-1" d="M27.43,79.08a55.62,55.62,0,0,1-2.07,5.29c-1.77,3.62-3.63,7.2-5.63,10.69a79.43,79.43,0,0,1-5.15,7.83,4.09,4.09,0,0,1-4.42,1.68,4.08,4.08,0,0,1-3.35-3.65A9.26,9.26,0,0,1,7,97.06,64.57,64.57,0,0,1,18.37,75.67c1.38-1.66,3-2.84,5.39-2.24S27.47,75.65,27.43,79.08Z"/><path class="cls-1" d="M98.67,106.89c-.53,3-1,6.53-1.77,9.94C96,120.6,94.79,124.3,93.56,128a7.14,7.14,0,0,1-3.21,4.27c-2.63,1.46-5.75.34-6.3-2.59a16.21,16.21,0,0,1,.06-6.13c1.33-6.56,2.87-13.09,4.45-19.6.45-1.85,1.19-3.66,3.3-4.42a4.69,4.69,0,0,1,6.24,3.12A37,37,0,0,1,98.67,106.89Z"/></g></g></svg>