<svg xmlns="http://www.w3.org/2000/svg" xmlns:xlink="http://www.w3.org/1999/xlink" viewBox="0 0 32.27288 34.23461">
  <defs>
    <linearGradient id="linear-gradient" x1="267.21905" y1="499.19453" x2="284.48431" y2="469.43948" gradientUnits="userSpaceOnUse">
      <stop offset="0.28755" stop-color="#31461e"/>
      <stop offset="1" stop-color="#76b042"/>
    </linearGradient>
    <radialGradient id="radial-gradient" cx="268.80691" cy="475.88227" r="22.92204" gradientUnits="userSpaceOnUse">
      <stop offset="0" stop-color="#95c13d"/>
      <stop offset="1" stop-color="#010101"/>
    </radialGradient>
    <radialGradient id="radial-gradient-2" cx="265.62213" cy="464.44383" r="28.66728" gradientUnits="userSpaceOnUse">
      <stop offset="0" stop-color="#8bc63f"/>
      <stop offset="1" stop-color="#50883e"/>
    </radialGradient>
    <radialGradient id="radial-gradient-3" cx="270.72669" cy="484.18974" r="37.19757" gradientUnits="userSpaceOnUse">
      <stop offset="0" stop-color="#010101"/>
      <stop offset="1" stop-color="#95c13d"/>
    </radialGradient>
    <radialGradient id="New_Gradient_Swatch_86" data-name="New Gradient Swatch 86" cx="264.93139" cy="467.09637" r="44.92799" gradientUnits="userSpaceOnUse">
      <stop offset="0" stop-color="#fff"/>
      <stop offset="1" stop-color="#b4c5e6"/>
    </radialGradient>
    <linearGradient id="New_Gradient_Swatch_150" data-name="New Gradient Swatch 150" x1="15.38933" y1="16.85071" x2="28.45564" y2="14.55614" gradientUnits="userSpaceOnUse">
      <stop offset="0" stop-color="#636eb3"/>
      <stop offset="0.5981" stop-color="#c3c7e2"/>
      <stop offset="1" stop-color="#fff"/>
    </linearGradient>
    <linearGradient id="New_Gradient_Swatch_150-2" x1="15.53873" y1="16.97141" x2="18.15201" y2="28.28501" xlink:href="#New_Gradient_Swatch_150"/>
    <radialGradient id="radial-gradient-4" cx="273.14996" cy="485.61322" r="23.83888" gradientUnits="userSpaceOnUse">
      <stop offset="0.5948" stop-color="#fff"/>
      <stop offset="0.75584" stop-color="#b5cfc7"/>
      <stop offset="0.92235" stop-color="#6da191"/>
      <stop offset="1" stop-color="#518f7c"/>
    </radialGradient>
    <radialGradient id="New_Gradient_Swatch_74" data-name="New Gradient Swatch 74" cx="21.22615" cy="3.64444" r="14.86291" gradientUnits="userSpaceOnUse">
      <stop offset="0" stop-color="#fff"/>
      <stop offset="1" stop-color="#010101"/>
    </radialGradient>
    <radialGradient id="New_Gradient_Swatch_74-2" cx="27.95618" cy="26.85388" r="17.78652" xlink:href="#New_Gradient_Swatch_74"/>
    <radialGradient id="New_Gradient_Swatch_125" data-name="New Gradient Swatch 125" cx="267.12798" cy="476.67386" r="4.7686" gradientUnits="userSpaceOnUse">
      <stop offset="0" stop-color="#abdded"/>
      <stop offset="1" stop-color="#010101"/>
    </radialGradient>
    <radialGradient id="New_Gradient_Swatch_74-3" cx="267.4368" cy="477.34222" r="3.02281" xlink:href="#New_Gradient_Swatch_74"/>
    <radialGradient id="radial-gradient-5" cx="270.24928" cy="477.56445" r="21.87949" xlink:href="#radial-gradient-3"/>
  </defs>
  <g style="isolation: isolate">
    <g id="Layer_1" data-name="Layer 1">
      <g>
        <path d="M279.28066,466.01266c6.4776,4.5781,8.5191,13.9689,3.7784,22.18-4.7407,8.2112-13.8949,11.1401-21.0977,7.8179l-1.78539-.8236,17.499-30.3092,1.60569,1.1349Z" transform="translate(-253.38198 -463.11892)" fill-rule="evenodd" fill="url(#linear-gradient)"/>
        <path d="M279.15336,466.44216c6.1363,4.3369,8.0704,13.2331,3.5794,21.0118s-13.1632,10.5533-19.9865,7.4061l-1.6916-.7802,16.5774-28.7129,1.5213,1.0752Z" transform="translate(-253.38198 -463.11892)" fill-rule="evenodd" opacity="0.5" fill="url(#radial-gradient)" style="mix-blend-mode: screen"/>
        <path d="M277.53856,464.79806c7.0023,4.0427,8.7613,14.1055,3.9287,22.4756-4.8324,8.3702-14.4264,11.8782-21.4288,7.8354-7.00249-4.0428-8.7613-14.1055-3.9288-22.4757,4.8324-8.3701,14.4266-11.8782,21.4289-7.8353Z" transform="translate(-253.38198 -463.11892)" fill-rule="evenodd" fill="url(#radial-gradient-2)"/>
        <path d="M284.17726,478.18506c.2466-5.5933-2.0895-10.7605-6.6387-13.387-7.0023-4.0429-16.5965-.5348-21.4289,7.8353a20.3159,20.3159,0,0,0-2.52469,7.1646c3.45969,5.7071,11.36129,8.5147,19.31449,6.3836a19.12746,19.12746,0,0,0,11.2778-7.9965Z" transform="translate(-253.38198 -463.11892)" fill-rule="evenodd" fill="url(#radial-gradient-3)" style="mix-blend-mode: screen"/>
        <path d="M276.33986,466.87406c6.0432,3.489,7.5613,12.1733,3.3907,19.3969-4.1707,7.2235-12.4504,10.251-18.4935,6.762s-7.56109-12.1733-3.3907-19.3968c4.17061-7.2236,12.4505-10.2511,18.4935-6.7621Z" transform="translate(-253.38198 -463.11892)" fill-rule="evenodd" fill="url(#New_Gradient_Swatch_86)"/>
        <path d="M275.80056,467.80836a.64227.64227,0,0,0-.8424.308l-.7416,1.2843a.58471.58471,0,1,0,.9969.5755l.74151-1.2844a.64225.64225,0,0,0-.15441-.8834ZM263.206,489.623a.64241.64241,0,0,0-.84241.3079l-.74159,1.2844a.58469.58469,0,1,0,.99679.5755l.7416-1.2844a.64243.64243,0,0,0-.15439-.8834Zm15.743-3.8033a.64242.64242,0,0,0-.15451-.8835l-1.0743-.6203a.69888.69888,0,0,0-.6879,1.1915l1.0744.6203a.64229.64229,0,0,0,.84231-.308Zm-18.24971-10.5365a.64258.64258,0,0,0-.1544-.8835l-1.0745-.6203a.6989.6989,0,0,0-.6879,1.1915l1.07451.6203a.64221.64221,0,0,0,.84229-.308Zm17.5582-1.7695a.528.528,0,0,0,.8068.1751.76591.76591,0,0,0,.2873-.9192.52789.52789,0,0,0-.80659-.175.766.766,0,0,0-.28751.9191Zm.97851,5.5973a.528.528,0,0,0,.555.6111.766.766,0,0,0,.65219-.7084.528.528,0,0,0-.555-.6111.76578.76578,0,0,0-.65219.7084Zm-5.95351,10.3116a.766.766,0,0,0-.2873.9191.52792.52792,0,0,0,.8067.175.76618.76618,0,0,0,.2874-.9191.52808.52808,0,0,0-.8068-.175Zm-5.33649,1.9513a.7661.7661,0,0,0-.65231.7085.528.528,0,0,0,.5549.6111.7658.7658,0,0,0,.6521-.7085.52774.52774,0,0,0-.55469-.6111Zm-8.62671-4.9805a.52769.52769,0,0,0-.8065-.175.76618.76618,0,0,0-.2874.9191.52785.52785,0,0,0,.80661.175.76551.76551,0,0,0,.28729-.9191Zm-.97829-5.5973a.52783.52783,0,0,0-.55481-.6111.76609.76609,0,0,0-.6523.7085.528.528,0,0,0,.5549.6111.766.766,0,0,0,.65221-.7085Zm5.95349-10.3116a.76621.76621,0,0,0,.2874-.919.528.528,0,0,0-.8068-.1751.766.766,0,0,0-.2873.9191.52792.52792,0,0,0,.8067.175Zm5.33651-1.9512a.76647.76647,0,0,0,.65239-.7086.528.528,0,0,0-.555-.6111.766.766,0,0,0-.6522.7085.528.528,0,0,0,.55481.6112Z" transform="translate(-253.38198 -463.11892)" fill="#010101" fill-rule="evenodd"/>
        <polygon points="17.671 15.26 15.514 16.82 17.894 17.601 26.829 15.261 27.358 14.785 26.757 14.504 17.671 15.26 17.671 15.26" fill-rule="evenodd" fill="url(#New_Gradient_Swatch_150)" style="mix-blend-mode: multiply"/>
        <polygon points="17.113 18.427 15.516 16.835 14.802 19.143 17.022 25.245 17.49 25.545 17.769 25.013 17.113 18.427 17.113 18.427" fill-rule="evenodd" fill="url(#New_Gradient_Swatch_150-2)" style="mix-blend-mode: multiply"/>
        <path d="M258.02856,474.43266c4.0909-7.0857,12.1359-10.134,18.1452-6.9547q.0915.04845.1826.0989.0831.046.1657.0938a11.44825,11.44825,0,0,1,5.2854,7.1907,11.65926,11.65926,0,0,0-5.1541-7.7991q-.0879-.0549-.1772-.1082-.06779-.04035-.1363-.08c-6.043-3.489-14.32289-.4615-18.4935,6.7621a16.40714,16.40714,0,0,0-1.8947,12.2061,16.58475,16.58475,0,0,1,2.0769-11.4096Z" transform="translate(-253.38198 -463.11892)" fill-rule="evenodd" fill="url(#radial-gradient-4)" style="mix-blend-mode: multiply"/>
        <polygon points="17.341 14.848 15.055 16.631 17.462 17.365 26.741 14.43 27.306 13.892 26.701 13.616 17.341 14.848 17.341 14.848" fill="#010101" fill-rule="evenodd"/>
        <polygon points="16.615 18.287 15.048 16.642 14.21 19.166 16.209 25.651 16.676 25.953 16.987 25.366 16.615 18.287 16.615 18.287" fill="#010101" fill-rule="evenodd"/>
        <polygon points="15.055 16.631 27.306 13.892 26.701 13.616 17.341 14.848 15.055 16.631 15.055 16.631" fill-rule="evenodd" fill="url(#New_Gradient_Swatch_74)"/>
        <polygon points="16.987 25.366 16.615 18.287 15.048 16.642 16.676 25.953 16.987 25.366 16.987 25.366" fill-rule="evenodd" fill="url(#New_Gradient_Swatch_74-2)"/>
        <path d="M269.52776,478.67316a1.50207,1.50207,0,0,1-1.4784,2.5608l-.352-.2032,1.4785-2.5608.3519.2032Z" transform="translate(-253.38198 -463.11892)" fill="#1d1d1b" fill-rule="evenodd"/>
        <path d="M269.17586,478.47a1.50209,1.50209,0,1,1-1.8104.662,1.374,1.374,0,0,1,1.8104-.662Z" transform="translate(-253.38198 -463.11892)" fill-rule="evenodd" fill="url(#New_Gradient_Swatch_125)"/>
        <path d="M269.28066,478.85836a.978.978,0,1,1-1.2363-.2161.8946.8946,0,0,1,1.2363.2161Z" transform="translate(-253.38198 -463.11892)" fill-rule="evenodd" fill="url(#New_Gradient_Swatch_74-3)" style="mix-blend-mode: screen"/>
        <path d="M262.74806,466.08556a16.84026,16.84026,0,0,0-1.8026,1.5396c-1.2362,1.2172-.4574,1.5232.6671.6972,5.7808-4.2464,11.2906-5.0285,17.5213-1.0438.3425.2191.6313.3343.7458.2339.1281-.1124.0456-.4717-.2593-.7876a11.72873,11.72873,0,0,0-7.0543-3.3169,14.557,14.557,0,0,0-9.818,2.6776Z" transform="translate(-253.38198 -463.11892)" fill-rule="evenodd" fill="url(#radial-gradient-5)" style="mix-blend-mode: screen"/>
      </g>
    </g>
  </g>
</svg>
