<svg xmlns="http://www.w3.org/2000/svg" xmlns:xlink="http://www.w3.org/1999/xlink" viewBox="0 0 35.20287 34.27671">
  <defs>
    <radialGradient id="radial-gradient" cx="262.71316" cy="469.26065" r="31.18942" gradientUnits="userSpaceOnUse">
      <stop offset="0" stop-color="#f6ec23"/>
      <stop offset="1" stop-color="#f8981d"/>
    </radialGradient>
    <radialGradient id="radial-gradient-2" cx="266.76481" cy="472.28951" r="29.72916" gradientUnits="userSpaceOnUse">
      <stop offset="0" stop-color="#fff"/>
      <stop offset="0.10348" stop-color="#fffdf9"/>
      <stop offset="0.23686" stop-color="#fef6e9"/>
      <stop offset="0.38666" stop-color="#feeacf"/>
      <stop offset="0.54849" stop-color="#fddaaa"/>
      <stop offset="0.71999" stop-color="#fbc67a"/>
      <stop offset="0.89684" stop-color="#faad41"/>
      <stop offset="1" stop-color="#f99d1c"/>
    </radialGradient>
    <radialGradient id="radial-gradient-3" cx="258.82391" cy="463.31804" r="27.36763" gradientUnits="userSpaceOnUse">
      <stop offset="0" stop-color="#fef165"/>
      <stop offset="0.11069" stop-color="#f9ed63"/>
      <stop offset="0.23513" stop-color="#ece05e"/>
      <stop offset="0.36629" stop-color="#d5ca55"/>
      <stop offset="0.50207" stop-color="#b6ac48"/>
      <stop offset="0.64153" stop-color="#8d8638"/>
      <stop offset="0.78405" stop-color="#5b5725"/>
      <stop offset="0.92627" stop-color="#22200e"/>
      <stop offset="1" stop-color="#010101"/>
    </radialGradient>
    <radialGradient id="radial-gradient-4" cx="258.92645" cy="464.37904" r="19.82465" gradientUnits="userSpaceOnUse">
      <stop offset="0" stop-color="#fefad1"/>
      <stop offset="1" stop-color="#010101"/>
    </radialGradient>
    <radialGradient id="radial-gradient-5" cx="272.28417" cy="491.67359" r="12.76146" gradientUnits="userSpaceOnUse">
      <stop offset="0" stop-color="#010101"/>
      <stop offset="0.07373" stop-color="#222012"/>
      <stop offset="0.21595" stop-color="#5b582f"/>
      <stop offset="0.35847" stop-color="#8d8748"/>
      <stop offset="0.49793" stop-color="#b6ae5d"/>
      <stop offset="0.63371" stop-color="#d5cc6d"/>
      <stop offset="0.76487" stop-color="#ece279"/>
      <stop offset="0.88931" stop-color="#f9ef80"/>
      <stop offset="1" stop-color="#fef382"/>
    </radialGradient>
    <radialGradient id="radial-gradient-6" cx="276.39553" cy="471.96014" r="14.5277" gradientUnits="userSpaceOnUse">
      <stop offset="0" stop-color="#fbad18"/>
      <stop offset="1" stop-color="#f47421"/>
    </radialGradient>
    <radialGradient id="radial-gradient-7" cx="269.24624" cy="493.3833" r="13.35277" gradientUnits="userSpaceOnUse">
      <stop offset="0" stop-color="#f7901e"/>
      <stop offset="1" stop-color="#e76b24"/>
    </radialGradient>
    <radialGradient id="radial-gradient-8" cx="283.62791" cy="482.76293" r="16.68527" xlink:href="#radial-gradient-6"/>
    <radialGradient id="radial-gradient-9" cx="259.49735" cy="500.04337" r="13.36108" xlink:href="#radial-gradient-7"/>
    <radialGradient id="radial-gradient-10" cx="270.99604" cy="485.96697" r="16.85547" gradientUnits="userSpaceOnUse">
      <stop offset="0" stop-color="#fff"/>
      <stop offset="0.10668" stop-color="#fefbf9"/>
      <stop offset="0.24416" stop-color="#faeee9"/>
      <stop offset="0.39857" stop-color="#f4d9cf"/>
      <stop offset="0.56533" stop-color="#ecbbaa"/>
      <stop offset="0.74207" stop-color="#e2957a"/>
      <stop offset="0.92443" stop-color="#d66841"/>
      <stop offset="1" stop-color="#d05327"/>
    </radialGradient>
    <radialGradient id="radial-gradient-11" cx="272.09775" cy="482.65012" r="16.02964" xlink:href="#radial-gradient-10"/>
    <radialGradient id="radial-gradient-12" cx="284.70047" cy="472.85195" r="7.29409" xlink:href="#radial-gradient-3"/>
    <radialGradient id="radial-gradient-13" cx="258.93829" cy="490.3289" r="7.46884" xlink:href="#radial-gradient-3"/>
    <radialGradient id="radial-gradient-14" cx="282.46826" cy="490.55381" r="7.91588" xlink:href="#radial-gradient-3"/>
  </defs>
  <g style="isolation: isolate">
    <g id="Layer_1" data-name="Layer 1">
      <g>
        <path d="M279.96356,497.12341a1.1063,1.1063,0,0,0,1.3722-.9969c.2065-2.9958-1.4568-8.8236-1.0195-10.1697.4374-1.3462,5.2086-5.0832,6.8024-7.6282a1.10665,1.10665,0,0,0-.524-1.6131c-2.7856-1.1222-8.842-1.3411-9.9872-2.173-.9217-.6697-5.295-10.2832-6.9885-11.2645-.2931-.1698-.6303.1361-.8479.3958-1.928,2.3023-3.0201,10.0368-4.1652,10.8687-1.1452.8319-8.8195-.5536-11.6048.5685a1.07207,1.07207,0,0,0-.6384.6843c-.2711.8341,5.8184,7.0385,6.4748,7.6922a9.61244,9.61244,0,0,1,2.0596,2.4693c.4374,1.3461-1.2259,7.1739-1.0194,10.1697a1.1063,1.1063,0,0,0,1.3722.9969c2.9131-.7293,7.9414-4.1121,9.3569-4.1121,1.4154,0,6.4437,3.3828,9.3568,4.1121Z" transform="translate(-252.08743 -462.88221)" fill="#fed401" fill-rule="evenodd"/>
        <path d="M278.128,494.68571a1.10641,1.10641,0,0,0,1.3721-.997c.2066-2.9958-1.4568-8.8235-1.0194-10.1696.4373-1.3462,5.2085-5.0832,6.8023-7.6283a1.10635,1.10635,0,0,0-.524-1.613c-2.7856-1.1222-8.8419-1.3411-9.9871-2.1731-1.1451-.8318-3.225-6.5244-5.1529-8.8266a1.10632,1.10632,0,0,0-1.696,0c-1.9278,2.3022-4.0077,7.9948-5.1528,8.8266-1.1451.832-7.2015,1.0509-9.9871,2.1731a1.1064,1.1064,0,0,0-.5239,1.613c1.5939,2.5451,6.3648,6.2821,6.8023,7.6283.4375,1.346-1.226,7.1739-1.0195,10.1696a1.10644,1.10644,0,0,0,1.3722.997c2.9129-.7293,7.9414-4.1122,9.357-4.1122,1.4154,0,6.4436,3.3829,9.3568,4.1122Z" transform="translate(-252.08743 -462.88221)" fill-rule="evenodd" fill="url(#radial-gradient)"/>
        <path d="M284.14926,475.74981c-3.3673,2.4151-5.2627,3.8598-8.2036,5.7991a1.29921,1.29921,0,0,0-.6364,1.273c.8623,2.7981,3.3238,7.2825,3.5006,10.0778.104,1.6458-1.3003,1.1461-2.127.7903-2.8478-1.2256-4.7677-2.9551-7.4999-4.3529a2.36975,2.36975,0,0,0-2.6902.222c-1.6431,1.078-4.5797,3.7079-7.0253,4.4721-.6902.2157-1.1232.1651-1.397-.1526a1.10875,1.10875,0,0,0,1.3437.8071c2.9129-.7293,7.9414-4.1122,9.357-4.1122,1.4154,0,6.4436,3.3829,9.3568,4.1122a1.10616,1.10616,0,0,0,1.3721-.9969c.2066-2.9959-1.4568-8.8236-1.0194-10.1697.4373-1.3462,5.2085-5.0832,6.8023-7.6283a1.10635,1.10635,0,0,0-.524-1.613c-2.7855-1.1222-8.8419-1.3411-9.9871-2.1731-1.1451-.8319-3.225-6.5244-5.1529-8.8266a1.10614,1.10614,0,0,0-1.696,0,11.23435,11.23435,0,0,0-.9093,1.2937c.8421-.8834,1.7158-1.4283,2.4963-.2082a30.43549,30.43549,0,0,1,2.8589,6.978c.4891,1.431.7806,2.0162,3.5923,2.2112,3.2215.2234,5.8987.441,7.8169.7648,1.0556.1783,1.0818.9225.3712,1.4322Z" transform="translate(-252.08743 -462.88221)" fill-rule="evenodd" fill="url(#radial-gradient-2)" style="mix-blend-mode: multiply"/>
        <path d="M266.911,465.22981c-.9125,1.6937-1.7101,3.5444-2.5635,5.2688-.7274,1.4696-.9943,2.3399-2.8112,2.652-2.2464.3859-4.539.4504-6.7892.8133-2.4354.3928-3.0079.9457-1.2375,2.8996,1.0495,1.1583,5.8421,5.5011,6.1577,6.563.279.938-.2444,2.6602-.288,3.7446-.0206.5134.175,1.2752,1.0255.3359,6.617-7.3088,8.3029-8.673,17.9278-11.8812,1.0368-.3455,2.0963-.5998,3.147-.9193.2923-.0888.6864-.378-.1766-.495-3.0104-.4085-5.4196-.083-8.0269-.3183-1.161-.1047-1.9043-1.5032-2.2631-2.4752-.758-2.0537-1.152-4.2278-1.8742-6.2942-.5664-1.6209-1.6161-1.0288-2.2278.106Z" transform="translate(-252.08743 -462.88221)" fill-rule="evenodd" fill="url(#radial-gradient-3)" style="mix-blend-mode: screen"/>
        <path d="M259.21126,474.75061c-.6189-.1223-.4653-.7677.1062-.9017.9234-.2166,1.8882-.2581,2.811-.4774a2.629,2.629,0,0,0,2.0687-1.6796c.9885-2.0433,1.99-4.6647,3.041-6.471.38-.6529.8082-.5525.7073.1768a49.73174,49.73174,0,0,1-1.5205,6.8246c-.3299,1.162-.7025,2.4067-2.2984,2.599a21.20827,21.20827,0,0,1-4.9153-.0707Zm-2.2714-.7427a14.3542,14.3542,0,0,0-3.0735.5393c-.9688.3375-.7676.5501.1121.598a22.00025,22.00025,0,0,0,2.8199-.0235c1.3204-.0977,1.1416-1.1851.1415-1.1138Z" transform="translate(-252.08743 -462.88221)" fill-rule="evenodd" fill="url(#radial-gradient-4)" style="mix-blend-mode: screen"/>
        <path d="M275.893,491.971c-.4333.1772-1.4838.412-.2121,1.1138a8.18986,8.18986,0,0,0,1.7149.6896c1.2777.3636,1.288-.5534,1.0962-1.4852a30.68055,30.68055,0,0,0-1.9648-5.6774c-.3506-.7978-.7874-1.2186-.6466.0549.1594,1.4411.4139,2.8715.5605,4.3142.0668.6573.0446.7477-.5481.9901Z" transform="translate(-252.08743 -462.88221)" fill-rule="evenodd" fill="url(#radial-gradient-5)" style="mix-blend-mode: screen"/>
        <path d="M258.23336,494.24391a13.99221,13.99221,0,0,0,2.0977,2.7013,1.07223,1.07223,0,0,0,.9188.1782c2.9131-.7293,7.9414-4.1121,9.3569-4.1121,1.4154,0,6.4437,3.3828,9.3568,4.1121a1.1063,1.1063,0,0,0,1.3722-.9969c.2065-2.9958-1.4568-8.8236-1.0195-10.1697.4374-1.3462,5.2086-5.0832,6.8024-7.6282a1.07174,1.07174,0,0,0,.1143-.9288,13.40569,13.40569,0,0,0-2.0763-2.8533,3.676,3.676,0,0,1,.2407.4155,1.07244,1.07244,0,0,1-.1144.9288c-1.5938,2.5451-6.365,6.2821-6.8023,7.6283-.4374,1.3461,1.226,7.1738,1.0194,10.1697a1.10627,1.10627,0,0,1-1.3721.9969c-2.9132-.7293-7.9414-4.1122-9.3568-4.1122-1.4156,0-6.4441,3.3829-9.357,4.1122a1.07256,1.07256,0,0,1-.9188-.1782c-.0536-.0391-.2175-.2184-.262-.2636Z" transform="translate(-252.08743 -462.88221)" fill="#848484" fill-rule="evenodd"/>
        <path d="M278.48066,483.51911l1.8376,2.4314c.4503-1.3515,5.2091-5.0808,6.8004-7.6219a1.07174,1.07174,0,0,0,.1143-.9288,1.54231,1.54231,0,0,0-.1035-.2315,15.20847,15.20847,0,0,0-1.9728-2.6218,3.676,3.676,0,0,1,.2407.4155,1.07244,1.07244,0,0,1-.1144.9288q-.10785.1722-.2344.3513c-1.781,2.526-6.1502,5.9915-6.5679,7.277Z" transform="translate(-252.08743 -462.88221)" fill-rule="evenodd" fill="url(#radial-gradient-6)"/>
        <path d="M280.31826,485.95051l-1.8376-2.4314c-.4374,1.3461,1.226,7.1738,1.0194,10.1697a1.07165,1.07165,0,0,1-.4534.8187q-.0363.0264-.0739.0497l1.8404,2.4349q.0348-.02205.0692-.0469a1.07194,1.07194,0,0,0,.4534-.8187c.2065-2.9958-1.4568-8.8236-1.0195-10.1697l.002-.0063Z" transform="translate(-252.08743 -462.88221)" fill-rule="evenodd" fill="url(#radial-gradient-7)"/>
        <path d="M278.128,494.68571c-2.9132-.7293-7.9414-4.1122-9.3568-4.1122l1.8424,2.4378c1.4248.0108,6.4416,3.384,9.35,4.1121a1.06847,1.06847,0,0,0,.8496-.1313l-1.8404-2.4349a1.06707,1.06707,0,0,1-.8448.1285Z" transform="translate(-252.08743 -462.88221)" fill-rule="evenodd" fill="url(#radial-gradient-8)"/>
        <path d="M261.24986,497.12341c2.9131-.7293,7.9414-4.1121,9.3569-4.1121h.0068l-1.8424-2.4378c-1.3393,0-5.9127,3.0282-8.8687,3.9721q-.2526.0807-.4883.1401a1.07256,1.07256,0,0,1-.9188-.1782c-.0536-.0391-.2175-.2184-.262-.2636a15.5961,15.5961,0,0,0,1.9648,2.5893,1.48389,1.48389,0,0,0,.1329.112,1.07223,1.07223,0,0,0,.9188.1782Z" transform="translate(-252.08743 -462.88221)" fill-rule="evenodd" fill="url(#radial-gradient-9)"/>
        <path d="M271.91386,492.94691a2.23533,2.23533,0,0,0-2.5327-.1193c-2.3776,1.0677-5.4174,3.1724-7.6643,3.7393a1.96352,1.96352,0,0,1-1.9756-.2283,4.17481,4.17481,0,0,0,.5898.6066,1.07223,1.07223,0,0,0,.9188.1782c2.9131-.7293,7.9414-4.1121,9.3569-4.1121,1.4154,0,6.4437,3.3828,9.3568,4.1121a1.11838,1.11838,0,0,0,.3996.0288,8.30883,8.30883,0,0,1-2.2037-.8637c-2.032-.9982-4.3647-2.4277-6.2456-3.3416Z" transform="translate(-252.08743 -462.88221)" fill-rule="evenodd" fill="url(#radial-gradient-10)" style="mix-blend-mode: multiply"/>
        <path d="M281.02346,484.06771c-1.3941,1.3343-1.4849,1.6762-1.1749,3.606.4165,2.5952,1.0551,5.3817,1.2746,7.9783a2.87613,2.87613,0,0,1-.0745,1.1472,1.06708,1.06708,0,0,0,.2871-.6727c.2065-2.9958-1.4568-8.8236-1.0195-10.1697.4374-1.3462,5.2086-5.0832,6.8024-7.6282a1.07174,1.07174,0,0,0,.1143-.9288,7.70287,7.70287,0,0,0-.9426-1.4935c.5739,1.23.4497,2.6134-1.2554,4.377-1.2776,1.3215-2.6836,2.5133-4.0115,3.7844Z" transform="translate(-252.08743 -462.88221)" fill-rule="evenodd" fill="url(#radial-gradient-11)" style="mix-blend-mode: multiply"/>
        <path d="M285.17356,476.48481c.9565-.1779,1.5263,1.2548,1.4653,2.0488a3.34063,3.34063,0,0,1-.336.9003,10.60631,10.60631,0,0,0,.8158-1.1053,1.07174,1.07174,0,0,0,.1143-.9288,1.54231,1.54231,0,0,0-.1035-.2315,15.20847,15.20847,0,0,0-1.9728-2.6218,3.676,3.676,0,0,1,.2407.4155,1.07244,1.07244,0,0,1-.1144.9288q-.10785.1722-.2344.3513c-.1002.1423-.2088.2876-.3243.4353a1.34638,1.34638,0,0,1,.4493-.1926Z" transform="translate(-252.08743 -462.88221)" fill-rule="evenodd" fill="url(#radial-gradient-12)" style="mix-blend-mode: screen"/>
        <path d="M259.99906,495.14191a1.0919,1.0919,0,0,1-.1223-.1943.5577.5577,0,0,1-.0474-.3789c-.1425.0442-.2812.0834-.4152.117a1.07256,1.07256,0,0,1-.9188-.1782c-.0536-.0391-.2175-.2184-.262-.2636a15.5961,15.5961,0,0,0,1.9648,2.5893,1.48389,1.48389,0,0,0,.1329.112,1.07223,1.07223,0,0,0,.9188.1782c.2704-.0677.5593-.1583.8618-.267a1.31739,1.31739,0,0,1-.9458-.4017,13.17464,13.17464,0,0,1-1.1668-1.3128Z" transform="translate(-252.08743 -462.88221)" fill-rule="evenodd" fill="url(#radial-gradient-13)" style="mix-blend-mode: screen"/>
        <path d="M278.29166,494.95621a11.6316,11.6316,0,0,1,1.021,1.3128c.2077.2866.4116.6475.2547.7433q.20385.0627.3962.1111a1.11161,1.11161,0,0,0,1.3215-.726.52612.52612,0,0,1-.4076-.2079c-.3439-.4029-.6612-.8283-.9681-1.2598a1.51109,1.51109,0,0,1-.4259-1.1072,1.10774,1.10774,0,0,1-1.3555.8632q-.1392-.03495-.2846-.0776a1.97522,1.97522,0,0,1,.4483.3481Z" transform="translate(-252.08743 -462.88221)" fill-rule="evenodd" fill="url(#radial-gradient-14)" style="mix-blend-mode: screen"/>
      </g>
    </g>
  </g>
</svg>
