<svg xmlns="http://www.w3.org/2000/svg" xmlns:xlink="http://www.w3.org/1999/xlink" viewBox="0 0 47.66295 47.66295">
  <defs>
    <linearGradient id="Degradado_sin_nombre_12" data-name="Degradado sin nombre 12" x1="6.98008" y1="6.98008" x2="40.68288" y2="40.68288" gradientUnits="userSpaceOnUse">
      <stop offset="0" stop-color="#2cb5e5"/>
      <stop offset="0.64669" stop-color="#6c6ef6"/>
      <stop offset="1" stop-color="#9146ff"/>
    </linearGradient>
  </defs>
  <g id="ELEMENTS">
    <g>
      <circle cx="23.83148" cy="23.83148" r="23.83148" fill="url(#Degradado_sin_nombre_12)"/>
      <path d="M421.94677,197.93056s11.92193-4.89277,16.05662-6.61558c1.585-.68916,6.96016-2.89438,6.96016-2.89438s2.48089-.96474,2.27414,1.37823c-.069.96482-.62024,4.34153-1.17148,7.9939-.827,5.16852-1.7229,10.81928-1.7229,10.81928s-.13783,1.58507-1.30932,1.86064c-1.17148.27566-3.10113-.96474-3.44562-1.2404-.27566-.20666-5.16843-3.30779-6.96016-4.82394a1.30565,1.30565,0,0,1,.06883-2.20514c2.48089-2.27413,5.44419-5.09951,7.23582-6.89124.827-.827,1.6539-2.75655-1.79163-.41359-4.89277,3.3768-9.71672,6.54676-9.71672,6.54676a4.04878,4.04878,0,0,1-3.16995.06891c-2.06748-.62015-4.47937-1.44714-4.47937-1.44714s-1.6538-1.03365,1.17158-2.13631Z" transform="translate(-411.77669 -174.66188)" fill="#fff"/>
    </g>
  </g>
</svg>
