<svg xmlns="http://www.w3.org/2000/svg" xmlns:xlink="http://www.w3.org/1999/xlink" viewBox="0 0 92.48 90.52"><defs><style>.cls-1{fill:none;}.cls-2{isolation:isolate;}.cls-3{fill:#d84905;}.cls-4{fill:url(#linear-gradient);}.cls-5{fill:#f67205;}.cls-6{fill:url(#linear-gradient-2);}.cls-7{fill:#f69d05;}.cls-8{fill:url(#linear-gradient-3);}.cls-11,.cls-9{opacity:0.7;}.cls-11,.cls-14,.cls-15,.cls-16,.cls-9{mix-blend-mode:overlay;}.cls-9{fill:url(#linear-gradient-4);}.cls-10{fill:url(#linear-gradient-5);}.cls-11{fill:url(#linear-gradient-6);}.cls-12{fill:url(#linear-gradient-7);}.cls-13{fill:#ba3e05;}.cls-14{opacity:0.5;fill:url(#radial-gradient);}.cls-15,.cls-16{opacity:0.4;}.cls-15{fill:url(#linear-gradient-8);}.cls-16{fill:url(#linear-gradient-9);}.cls-17{clip-path:url(#clip-path);}.cls-18{fill-rule:evenodd;fill:url(#linear-gradient-10);}</style><linearGradient id="linear-gradient" x1="18.82" y1="87.11" x2="89.25" y2="26" gradientUnits="userSpaceOnUse"><stop offset="0" stop-color="#d13f05"/><stop offset="0.29" stop-color="#f67205"/><stop offset="0.37" stop-color="#f67705"/><stop offset="0.45" stop-color="#f68505"/><stop offset="0.54" stop-color="#f69c05"/><stop offset="0.56" stop-color="#f6a205"/><stop offset="0.6" stop-color="#f69005"/><stop offset="0.64" stop-color="#f67f05"/><stop offset="0.69" stop-color="#f67505"/><stop offset="0.76" stop-color="#f67205"/><stop offset="1" stop-color="#d13f05"/></linearGradient><linearGradient id="linear-gradient-2" x1="21.04" y1="89.65" x2="91.46" y2="28.55" xlink:href="#linear-gradient"/><linearGradient id="linear-gradient-3" x1="30.92" y1="101.04" x2="101.34" y2="39.94" xlink:href="#linear-gradient"/><linearGradient id="linear-gradient-4" x1="4.87" y1="72.86" x2="82.65" y2="9.59" gradientUnits="userSpaceOnUse"><stop offset="0" stop-color="#fff" stop-opacity="0"/><stop offset="0.26" stop-color="#fff"/><stop offset="0.76" stop-color="#fff"/><stop offset="1" stop-color="#fff" stop-opacity="0"/></linearGradient><linearGradient id="linear-gradient-5" x1="73.2" y1="53.67" x2="-5.69" y2="20.34" gradientUnits="userSpaceOnUse"><stop offset="0" stop-color="#ffaf02"/><stop offset="1" stop-color="#f56d05"/></linearGradient><linearGradient id="linear-gradient-6" x1="14.23" y1="13.95" x2="60.02" y2="57.71" xlink:href="#linear-gradient-4"/><linearGradient id="linear-gradient-7" x1="11.72" y1="40.96" x2="74.51" y2="40.96" gradientUnits="userSpaceOnUse"><stop offset="0" stop-color="#cf4505"/><stop offset="1" stop-color="#e45905"/></linearGradient><radialGradient id="radial-gradient" cx="-5005.87" cy="807.61" r="23.48" gradientTransform="matrix(0.07, 0.07, -0.49, 0.48, 833.07, 47.47)" gradientUnits="userSpaceOnUse"><stop offset="0" stop-color="#fff"/><stop offset="0.09" stop-color="#fff" stop-opacity="0.96"/><stop offset="0.24" stop-color="#fff" stop-opacity="0.85"/><stop offset="0.43" stop-color="#fff" stop-opacity="0.66"/><stop offset="0.66" stop-color="#fff" stop-opacity="0.41"/><stop offset="0.93" stop-color="#fff" stop-opacity="0.09"/><stop offset="1" stop-color="#fff" stop-opacity="0"/></radialGradient><linearGradient id="linear-gradient-8" x1="32.79" y1="28.85" x2="61.1" y2="62.06" gradientUnits="userSpaceOnUse"><stop offset="0" stop-color="#fff"/><stop offset="1" stop-color="#fff" stop-opacity="0"/></linearGradient><linearGradient id="linear-gradient-9" x1="16.29" y1="13.58" x2="31.43" y2="28.94" xlink:href="#linear-gradient-8"/><clipPath id="clip-path"><rect class="cls-1" x="25.33" y="18.46" width="43.67" height="45"/></clipPath><linearGradient id="linear-gradient-10" x1="1992.16" y1="-650.74" x2="1992.16" y2="-605.74" gradientTransform="matrix(1, 0, 0, -1, -1945, -587.28)" gradientUnits="userSpaceOnUse"><stop offset="0" stop-color="#ffc000"/><stop offset="0.28" stop-color="#ffc000"/><stop offset="0.55" stop-color="#daa600"/><stop offset="1" stop-color="#daa600"/></linearGradient></defs><g class="cls-2"><g id="Layer_2" data-name="Layer 2"><g id="OBJECTS"><polygon class="cls-3" points="8.05 65.53 14.31 74.13 10.97 73.69 4.72 65.08 8.05 65.53"/><path class="cls-4" d="M79.82,14.23l6.25,8.61a34.21,34.21,0,0,1,6.41,20.31l-6.25-8.61A34.32,34.32,0,0,0,79.82,14.23Z"/><polygon class="cls-5" points="86.23 34.54 92.48 43.15 89.31 45.48 83.05 36.88 86.23 34.54"/><polygon class="cls-3" points="54.54 76.58 60.79 85.19 59.44 87.36 53.18 78.75 54.54 76.58"/><path class="cls-6" d="M53.18,78.75l6.26,8.61A45.3,45.3,0,0,1,31.35,89a34.41,34.41,0,0,1-17-10.57L8.13,69.83a34.5,34.5,0,0,0,17,10.57A45.23,45.23,0,0,0,53.18,78.75Z"/><polygon class="cls-7" points="56.82 77.22 63.08 85.83 60.79 85.19 54.54 76.58 56.82 77.22"/><path class="cls-8" d="M86.1,37.73l6.25,8.61a42.83,42.83,0,0,1-3.82,14.24A52.15,52.15,0,0,1,63.08,85.83l-6.26-8.61A52.23,52.23,0,0,0,82.28,52,43.13,43.13,0,0,0,86.1,37.73Z"/><path class="cls-9" d="M86.48,38.22a43.07,43.07,0,0,1-3.82,14.24A52.21,52.21,0,0,1,57.2,77.71l-2.28-.64-1.36,2.17a45.23,45.23,0,0,1-28.09,1.65,34.5,34.5,0,0,1-17-10.57L8.43,66,5.1,65.57C-.68,55.79-1.4,43,4.33,30.42a49.39,49.39,0,0,1,6.42-10.37,44.08,44.08,0,0,0,3.93-2l.57-2.89C25.85,4.94,40.53-.68,54.48.69l3,2.44L66,3.55C79.05,9.06,86.62,21.21,86.61,35l-3.18,2.33Z"/><path class="cls-10" d="M86.1,37.73A43.13,43.13,0,0,1,82.28,52,52.23,52.23,0,0,1,56.82,77.22l-2.28-.64-1.36,2.17A45.23,45.23,0,0,1,25.09,80.4a34.5,34.5,0,0,1-17-10.57l-.08-4.3-3.33-.45C-1.06,55.31-1.78,42.49,4,29.94a49.46,49.46,0,0,1,6.42-10.38,40,40,0,0,0,3.93-2l.57-2.88C25.47,4.45,40.15-1.17,54.1.2l3,2.44,8.47.43c13.09,5.5,20.66,17.65,20.65,31.47l-3.18,2.34Z"/><path class="cls-11" d="M55.43,12.07C71.17,16.5,78.06,33,70.81,48.81S44.92,73.93,29.18,69.5,6.54,48.61,13.79,32.76,39.68,7.64,55.43,12.07Z"/><path class="cls-12" d="M56.24,12.24C72,16.67,78.87,33.12,71.63,49S45.74,74.1,30,69.67,7.36,48.79,14.6,32.93,40.49,7.81,56.24,12.24Z"/><path class="cls-13" d="M32.49,70.16C16.75,65.73,9.86,49.28,17.1,33.42,23.81,18.74,40.3,9.71,55.2,12c-15.52-3.76-33.51,5.44-40.6,21C7.36,48.79,14.25,65.24,30,69.67a31,31,0,0,0,3.54.76C33.18,70.34,32.83,70.26,32.49,70.16Z"/><path class="cls-14" d="M72.43,69.56c-6.38,6.28-12.32,10.59-13.26,9.63S62.63,72.36,69,66.08s12.32-10.6,13.26-9.64S78.81,63.27,72.43,69.56Z"/><path class="cls-15" d="M77,10.93,8.1,68l0,1.83a34.5,34.5,0,0,0,17,10.57,41.41,41.41,0,0,0,4.8,1L83.53,37l-.48-.13,3.18-2.34A33.81,33.81,0,0,0,77,10.93Z"/><path class="cls-16" d="M57.11,2.64,54.1.2A45,45,0,0,0,41.75.76L2.65,33.12A40.26,40.26,0,0,0,.2,51.17L58.72,2.72Z"/><g class="cls-17"><path class="cls-18" d="M33,36.77c-.19-.2-.38-.38-.55-.59a20,20,0,0,1-3.91-7.73,18.53,18.53,0,0,1-.44-6.16A7.29,7.29,0,0,1,29,19.16a1.19,1.19,0,0,1,1.61-.59,7.18,7.18,0,0,1,3.33,2.67,20.68,20.68,0,0,1,4,9.1c.2,1,.2,2.1.3,3.14,0,.4,0,.81.1,1.2s.18.51.57.44a10.5,10.5,0,0,1,4.32.3,24.79,24.79,0,0,1,3.59,1.2,11.41,11.41,0,0,1,4.39,3,.41.41,0,0,0,.57.12.39.39,0,0,0,.1-.08,11.5,11.5,0,0,0,.85-.86A21.11,21.11,0,0,1,63,32.43,9.64,9.64,0,0,1,66.87,32a5.94,5.94,0,0,1,1.7.5,1,1,0,0,1,.42.7,2.88,2.88,0,0,1-.14,1.13,11.31,11.31,0,0,1-2.56,4.12,19.1,19.1,0,0,1-10.73,6c-.3.07-.62.08-1,.13a5,5,0,0,0,.15.68,13.68,13.68,0,0,1,.52,4.41,16.74,16.74,0,0,1-.88,5.16,16.44,16.44,0,0,1-2.85,5.29,8.4,8.4,0,0,1-4.77,2.85,11.16,11.16,0,0,1-4.07.34,30,30,0,0,1-4-.73,33.69,33.69,0,0,1-4-1.37,18.61,18.61,0,0,1-5.88-3.47,10.06,10.06,0,0,1-3.43-5.89,14.4,14.4,0,0,1,.05-3.28,14.89,14.89,0,0,1,1.14-4.14A16.62,16.62,0,0,1,30.31,39c.75-.72,1.63-1.33,2.44-2Zm1.37,16.08,0,.12c-1.47-.12-1.78.93-1.54,2a4.44,4.44,0,0,0,.15.52,4.68,4.68,0,0,0,2.23,2.88,15.69,15.69,0,0,0,3.36,1.27,5.65,5.65,0,0,0,1.53.21,5.61,5.61,0,0,0,3.14-1.34,1.27,1.27,0,0,0,.1-2.1,10.41,10.41,0,0,0-2.19-1.33c-1.28-.56-2.6-1-3.93-1.47-.91-.3-1.88-.5-2.82-.75ZM33.17,41.5c0-1-.39-1.49-1.08-1.66a1.5,1.5,0,0,0-1.58.66,19.09,19.09,0,0,0-3.35,6.29,2.74,2.74,0,0,0-.06,1.14,1.28,1.28,0,0,0,2.29.58,24.6,24.6,0,0,0,1.51-2.3c.59-1,1.14-2.08,1.66-3.15C32.79,42.55,33,42,33.17,41.5Zm21,8.19A10.88,10.88,0,0,0,54,48.43a1.38,1.38,0,0,0-1.7-1l-.14.05a1.62,1.62,0,0,0-1,1.3c-.46,1.91-.91,3.82-1.31,5.76a4.79,4.79,0,0,0,0,1.81,1.2,1.2,0,0,0,1.85.76,2.11,2.11,0,0,0,.94-1.25c.37-1.08.72-2.17,1-3.28S54,50.57,54.13,49.69Z"/></g></g></g></g></svg>