<svg width="192" height="192" xmlns="http://www.w3.org/2000/svg" xmlns:xlink="http://www.w3.org/1999/xlink" xml:space="preserve" overflow="hidden"><g transform="translate(-554 -141)"><path d="M695.307 304.098C692.641 292.648 684.491 283.326 673.502 279.16L652.676 271.263C651.902 270.783 651.143 269.163 650.471 267.733L650.119 266.984C649.975 266.68 649.982 266.165 650.055 265.8L675.799 265.797C676.458 265.765 692.042 264.904 699.598 258.37 701.438 256.773 701.729 253.964 700.25 251.963 694.273 243.918 674.721 215.397 674.154 186.149 674.129 185.701 671.351 141.362 627.575 141 583.851 141.362 581.07 185.701 581.041 186.251 580.478 215.378 560.939 243.899 554.964 251.947 553.473 253.957 553.768 256.789 555.63 258.392 563.189 264.907 578.744 265.765 579.563 265.8L605.157 265.8C605.234 266.155 605.234 266.664 605.08 266.978L604.709 267.765C604.04 269.186 603.291 270.785 602.526 271.265L581.701 279.16C570.708 283.326 562.561 292.648 559.896 304.097L554.084 329.077C553.864 330.027 554.088 331.026 554.696 331.79 555.3 332.555 556.225 333 557.201 333L698.001 333C698.974 333 699.902 332.555 700.507 331.79 701.112 331.026 701.339 330.027 701.115 329.077L695.307 304.098Z" fill="#FFFFFF"/><path d="M732.866 260.23 711.327 246.733C709.064 245.497 707.599 243.129 707.599 240.701L707.599 231.939C710.168 229.293 716.76 221.77 719.407 211.811 722.053 209.635 723.599 206.416 723.599 202.963L723.599 191.91C723.599 189.318 722.473 186.714 720.399 184.454L720.396 169.626C720.38 169.341 718.444 141.001 685.199 141.001 674.915 141.001 667.702 143.789 662.668 147.366 675.171 158.73 679.948 175.146 680.543 185.792 681.084 213.363 699.699 240.486 705.388 248.147 708.844 252.819 708.14 259.427 703.794 263.203 694.726 271.05 677.999 272.096 676.121 272.189L673.174 272.189 675.769 273.174C686.057 277.075 694.182 284.832 698.703 294.602L742.799 294.602C744.569 294.602 745.999 293.168 745.999 291.402L745.999 282.451C745.999 273.197 740.972 264.691 732.866 260.23Z" fill="#FFFFFF"/></g></svg>