<svg width="512" height="512" xmlns="http://www.w3.org/2000/svg" xmlns:xlink="http://www.w3.org/1999/xlink" xml:space="preserve" overflow="hidden"><g transform="translate(-384 -104)"><path d="M746.959 174.698C678.92 121.511 604.291 96.1331 550.883 106.147 604.259 119.367 664.334 152.401 721.336 200.317L746.959 174.698Z" fill="#777777"/><path d="M389.451 584.243C382.186 591.508 382.186 603.287 389.451 610.551 396.715 617.816 408.494 617.816 415.759 610.551L742.886 283.424 716.578 257.116 389.451 584.243Z" fill="#777777"/><path d="M825.303 253.042 799.683 278.662 799.683 278.662C847.598 335.662 880.632 395.735 893.854 449.11 903.86 395.699 878.481 321.078 825.303 253.042Z" fill="#777777"/><path d="M827.848 211.397 788.605 172.155C784.949 168.51 779.033 168.51 775.376 172.155L723.046 224.485C721.29 226.239 720.303 228.618 720.303 231.1 720.303 233.583 721.29 235.962 723.046 237.716L762.288 276.958C765.987 280.491 771.81 280.491 775.509 276.958L827.848 224.628C831.493 220.97 831.493 215.054 827.848 211.397Z" fill="#777777"/></g></svg>