<svg width="1557" height="1651" xmlns="http://www.w3.org/2000/svg" xmlns:xlink="http://www.w3.org/1999/xlink" xml:space="preserve" overflow="hidden"><g transform="translate(-203 -647)"><path d="M476.333 1319.17C469.45 1311.69 462.569 1304.85 456.833 1297.37 390.881 1214.29 343.281 1117.47 317.474 1013.76 299.696 939.798 294.534 863.612 301.99 787.961 303.71 747.844 314.607 708.307 333.531 672.771 347.296 648.711 365.074 641.817 390.881 651.024 441.923 668.769 478.053 707.151 509.596 749.001 582.429 846.979 631.176 961.59 651.244 1082.52 658.13 1120.32 658.13 1159.28 661.567 1197.66 662.714 1212.56 663.293 1226.93 665.583 1241.82 667.307 1253.25 671.895 1260.15 685.659 1257.83 737.268 1250.41 789.457 1253.83 839.926 1268.73 883.51 1280.21 926.523 1294.53 967.814 1312.85 1026.88 1339.22 1081.94 1372.45 1124.38 1424.04 1128.97 1430.89 1138.14 1433.2 1144.45 1428.62 1145.6 1428.04 1146.74 1426.88 1147.89 1425.73 1158.78 1415.99 1168.53 1405.71 1178.28 1394.24 1275.2 1280.78 1402.52 1199.4 1544.17 1159.28 1589.48 1144.96 1637.08 1139.8 1684.11 1144.96 1704.75 1147.81 1725.4 1154.12 1744.32 1163.28 1752.93 1169.02 1758.08 1178.76 1759.24 1189.08 1760.38 1202.82 1758.66 1217.19 1754.64 1230.93 1736.87 1289.37 1702.46 1336.91 1663.46 1382.19 1561.38 1502.54 1430.62 1571.29 1280.94 1603.98 1270.62 1606.25 1259.15 1606.83 1246.53 1608.56 1248.82 1618.3 1249.4 1626.31 1252.26 1633.2 1269.47 1685.9 1270.62 1740.34 1270.62 1794.78 1270.04 1858.96 1259.15 1922.55 1239.08 1983.88 1217.28 2054.38 1182.87 2120.29 1137.57 2178.15 1093.98 2234.32 1034.34 2265.81 967.814 2282.44 920.789 2295.61 871.467 2300.19 822.72 2295.03 775.12 2289.29 727.525 2280.13 681.067 2268.12 632.32 2254.38 584.718 2237.75 538.27 2217.69 463.141 2185.04 389.161 2150.09 328.37 2090.49 268.153 2031.43 217.686 1962.67 206.216 1874.43 202.201 1834.32 202.774 1794.2 207.935 1754.08 214.244 1701.38 228.008 1650.37 248.654 1602.25 279.05 1525.44 323.783 1456.1 381.131 1398.24 407.513 1371.87 439.056 1349.54 468.303 1324.9L476.333 1319.17ZM525.08 1908.81 523.933 1913.39C471.744 1909.39 460.274 1947.77 468.877 1986.2 470.024 1992.47 471.744 1998.78 474.039 2005.1 490.093 2048.06 509.596 2089.33 553.754 2110.5 591.606 2130.56 632.32 2146.04 673.611 2156.93 691.393 2162.1 709.741 2164.99 728.093 2164.99 770.531 2162.67 807.236 2142.61 840.499 2115.66 866.88 2093.92 870.32 2060.11 843.94 2038.9 819.853 2019.42 794.046 2002.79 765.944 1990.2 720.064 1969.56 673.042 1952.93 626.014 1936.34 593.321 1924.87 558.916 1917.39 525.08 1908.81L525.08 1908.81ZM482.642 1492.8C482.642 1455.53 468.877 1437.78 444.217 1432.04 419.556 1425.73 402.351 1438.36 387.44 1456.1 334.106 1524.91 293.387 1602.83 268.153 1687.06 264.713 1700.8 264.138 1714.55 265.86 1728.87 267.58 1748.92 281.917 1764.98 300.843 1768.41 318.621 1773.03 336.973 1765.56 347.296 1750.08 366.794 1723.17 385.147 1695.07 401.204 1665.85 422.424 1628.04 441.923 1589.62 460.274 1550.66 468.877 1531.18 476.333 1512.27 482.642 1492.8ZM1229.33 1792.51C1228.18 1777.03 1226.46 1761.56 1223.59 1746.66 1216.13 1719.7 1189.18 1703.65 1163.38 1711.12 1161.65 1711.7 1159.94 1712.28 1158.21 1712.86 1135.85 1720.86 1128.39 1740.34 1123.81 1760.4 1107.17 1830.89 1091.12 1900.81 1077.35 1971.83 1073.34 1993.63 1072.76 2015.99 1076.78 2037.74 1082.51 2069.28 1115.2 2081.28 1142.73 2065.85 1159.36 2055.53 1171.4 2038.9 1176.57 2020 1189.18 1980.46 1201.8 1940.34 1211.55 1899.65 1219.58 1862.96 1223.59 1825.16 1229.33 1792.51Z" fill="#777777" fill-rule="evenodd"/></g></svg>