<svg id="Layer_1" enable-background="new 0 0 50 50" height="512" viewBox="0 0 50 50" width="512" xmlns="http://www.w3.org/2000/svg"><g id="_x37_9"><g><g><g><g enable-background="new"><g><g><path d="m18.187706 15.994173c.0100098 3.8500366-2.6999502 8.5500488-6.0499868 10.4800415-1.7199707.9899902-3.2799683 1.0700073-4.3800054.3999634-.0100098-.0100097-.0100098-.0100097-.0100098-.0100097l-4.9699707-2.8299561c-1.0900269-.6400146-1.7600098-1.9800415-1.7800293-3.9000244 0-3.8499756 2.710022-8.539978 6.0599976-10.4799805 1.6900029-.9700317 3.2200322-1.0599976 4.3200078-.4299927l4.9899893 2.8499756c1.1200561.6199952 1.8100586 1.9799805 1.8200073 3.9199829z" fill="#bf7d5a"/></g></g></g></g><g><g enable-background="new"><g><g><path d="m16.410593 12.0991392c-1.1064968-.6387777-2.6349697-.5589914-4.3118067.4220467-3.364953 1.9391012-6.0684304 6.6273527-6.0570126 10.4828596 0 1.9163342.6730323 3.2623291 1.7680416 3.9011078l-5.02806-2.8710823c-1.0950787-.6387787-1.7680414-1.9847736-1.7794592-3.9011097 0-3.8440876 2.7034078-8.5436869 6.0570121-10.4828587 1.6881857-.9696207 3.2167282-1.0608244 4.3231554-.4220457z" fill="#bf7d5a"/></g></g><g><g><ellipse cx="12.113" cy="19.497" fill="#dba660" rx="8.562" ry="4.959" transform="matrix(.502 -.865 .865 .502 -10.83 20.174)"/></g></g></g></g><g><g enable-background="new"><g><g><path d="m20.147728 18.2142048c.0100098 3.3499756-2.3499756 7.4299927-5.2600088 9.1099854-1.5.8599854-2.8499756.9299927-3.8099976.3300171l-2.1300049-1.2000123c-.9500127-.5499878-1.5399785-1.7199707-1.5499883-3.3800049 0-3.3399658 2.3499761-7.4299927 5.27002-9.1099854 1.4599609-.8400269 2.789978-.9199829 3.749999-.3699951l1.9899902 1.1300049c.0700073.039978.1400146.0700073.2000122.1099854.9400026.5499878 1.5299684 1.7199707 1.5399782 3.3800049z" fill="#c9cee2"/></g></g></g></g><g><g enable-background="new"><g><g><path d="m18.6042309 14.8361502c-.9612064-.5549021-2.2889805-.4855919-3.7456369.3666296-2.9231119 1.6844845-5.2716055 5.7571373-5.2616863 9.10639 0 1.6647072.5846586 2.8339634 1.5358858 3.3888664l-2.1856985-1.2390747c-.9512877-.5549011-1.5358858-1.7241592-1.5458045-3.3888664 0-3.3393345 2.3484321-7.4218445 5.2616858-9.10639 1.4665155-.8423023 2.7943506-.9215317 3.755496-.3666286z" fill="#c9cee2"/></g></g><g><g><ellipse cx="14.871" cy="21.262" fill="#e3e7f0" rx="7.438" ry="4.308" transform="matrix(.502 -.865 .865 .502 -10.984 23.437)"/></g></g></g></g><path d="m17.5915947 16.2639351 3.4156284 1.8457222c.3960686.2140255.8304157.3479385 1.2782402.3940926l7.4660778.7694855c1.1289196.1163502 2.2095776.518425 3.1399994 1.1682816l1.2470016.8709717 6.2038651 4.7611065c1.3330231.914444 1.6602631 1.8952274.7832108 2.5969658-1.1908226.5940781-2.4311523.4513855-3.545063-.0618324 1.1542778.9219799 2.6526756 1.7761726 4.3181534 2.6676292.5797234.3103008 1.2025986.5344543 1.8396759.6972294 1.3844414.3537292 2.683403.7816315 3.8384285 1.3344154 1.6886368 1.1864586 1.4984741 2.8477592-.3091621 2.5351334 2.7523117 1.6417427 2.0133171 3.353508-.7007675 2.9473534l-1.5870361-.1236649c1.4251289 1.5473824.8688889 2.7929688-1.0140381 2.4619064l-4.9743385-.8753166c-.9296265.3560982-2.0202599.2543564-3.259861-.2707367-.6364136-.2695885-1.3099632-.4412498-1.9895058-.5674133-.9090767-.1687775-1.9251919-.5418053-2.9837418-.9957733-1.430481-.6287918-3.0966187-1.2217941-4.9053822-1.7931404-1.9350433-.385006-3.9220982-1.5699272-5.9565334-3.4832344-1.4009228-1.1373329-2.647253-2.2383709-3.3369637-3.2087116-.265852-.3740234-.5978594-.684557-.9844522-.931778l-3.503027-2.2401295c-.5048103-.3228168-.7147121-.5156231-.8434134-.7603188-1.7956924-3.414072 2.0768137-9.4217281 5.2770195-9.9363232.3727818-.0599423.7538109.0185813 1.0859852.19808z" fill="#f4d6d4"/><g fill="#f5c9c6"><path d="m30.7789726 21.6010284c.0242214.3666706.0453606.7312546.0955868 1.089817.0582123.3493233.1020794.7301178.2545586.9970837l.0344486.0603085-.0215664.0626736c-.2786064.809679-.9301376 1.324295-1.6097412 1.6953259-.6917076.3611736-1.44207.5738811-2.1961308.6837502-1.5122528.2145805-3.0329685.0734501-4.4923306-.2400665.7506046-.0058041 1.4912109.0069084 2.2295589-.0180855.7374592-.0338402 1.468399-.0992756 2.1850452-.2203541.7150078-.1249142 1.414135-.3236198 2.0513077-.6345882.6235199-.3041515 1.2356339-.7649384 1.5183887-1.3572426l.0128651.122612c-.1649323-.3974705-.1675491-.7668743-.1635284-1.1403313.0107595-.3709699.037531-.7381307.1015378-1.1009027z"/><path d="m30.9850826 23.7651882c1.1151714.5729294 2.1351223 1.2813358 3.123682 2.0312901.4868622.3847885.971035.7743359 1.4240799 1.2025433.451828.4270401.9058838.864399 1.2644958 1.3829765-1.011097-.7287674-2.0192146-1.4288845-2.9962044-2.1878033-.9718436-.7625752-1.9326342-1.5402889-2.8160533-2.4290066z"/><path d="m47.2676544 35.8431244c-2.5653763-.0921211-5.0784454-.8679008-7.4064102-1.9445152-2.3101234-1.1293068-4.4726715-2.5539207-6.3616371-4.279953 2.1422882 1.3921871 4.2785912 2.7658005 6.5771027 3.8259544 2.2726898 1.1123543 4.686531 1.893322 7.1909446 2.3985138z"/><path d="m44.979847 38.6668358c-2.6210976-.7066574-5.1224251-1.8010483-7.5386963-3.0331955-2.3902969-1.2843132-4.7092896-2.7112617-6.8270645-4.4073257 2.3512802 1.348156 4.6592941 2.7377625 7.0601578 3.9621391 2.3738708 1.2764244 4.827938 2.3812561 7.305603 3.4783821z"/><path d="m38.9914703 40.2534294c.255703-.1740761.2940483-.5083199.1755486-.7575684-.1096001-.2584-.2981262-.481884-.5062561-.6799126-.4095955-.405117-.8862267-.7467003-1.3723221-1.0684166l.036602.0199013c-.8964233-.328228-1.7645607-.7103119-2.6262856-1.1119576-.8618851-.4002647-1.7070007-.8364258-2.5405197-1.2942352-1.653511-.9331512-3.261179-1.9893456-4.6426487-3.2967529 1.5605526 1.0809441 3.203228 1.9975128 4.871069 2.8748398 1.6677246.8740425 3.367836 1.6963425 5.0782242 2.4832649l.027317.0125618.0096359.0075531c.4720535.3690948.9427567.7481422 1.3332481 1.2164536.1917343.2335854.3661194.4956398.4528046.7969666.1077233.2945709-.0112457.6780052-.2964172.7973022z"/></g></g></g><g><g><g><path d="m43.147728 21.3741779c-.5942612 4.6263752-3.8158226 9.4682541-7.0599976 12.9000263-.2000122.2000122-.4100342.4099731-.6199951.5499878-.3000488.1699829-.5500488.2200317-.7900391.2399902-1.4500122.1799927-2.7999878-.0100098-3.9799805-.5299683-.3400269-.1500244-.6699829-.3300171-.9799805-.5499878.1199951.0899658.25.1799927.3800049.25l-3.9000244-2.2700214c-1.1099854-.6500244-1.9899902-1.6699829-2.3499756-3.2200317-.210022-.9499512-.210022-2.0599976-.210022-3.1699829v-7.3900146c0-.0999756-.0100098-.1999512.0400391-.3099976v-.0100098h-.0100098c.0899658-.25.3099976-.4299927.4899902-.5599976 2.3999634-1.7399902 4.7199707-4 6.8099976-6.5999756.1300049-.1699829.289978-.3599854.4499512-.4500122.2400513-.1499634.4200439-.1300049.5800171-.1099854 2.0200195.1900024 4.2800293-.2200317 6.6000366-1.2000122.1900024-.0899658.4099731-.1699829.5499878-.0999756l3.8800049 2.2699585s.0100098 0 .0199585.0100098c.0300293.0100098.0599976.0300293.0800171.0700073.0300293.0700073.039978.1699829.039978.2700195.0154114 10.3602524.0100098 6.7871532.0100098 7.5599976 0 .7500001.0800171 1.5299684-.0299682 2.3499757z" fill="#497bfe"/></g></g><g enable-background="new"><g><path d="m43.1472473 21.3746891c-.6193771 4.66889-3.8000679 9.4536152-7.0611267 12.9027424-.1995163.199585-.4101334.410202-.6207466.5432129-.2992477.17733-.543148.2216454-.7869835.2438354-1.4521179.1773949-2.8045063-.0110931-3.9794998-.5320511-1.3745136-.5986252-2.527317-1.6960182-2.9374504-3.5138855-.2217121-.953352-.2217121-2.0729351-.2217121-3.1814213v-7.3824959c0-.0997944 0-.2106152.0443153-.3214378.0776024-.2439022.2993126-.4212303.4877377-.5653381 2.3832741-1.7292385 4.711071-3.9905958 6.7950325-6.5844183.1441078-.1773958.2882156-.3658199.4544487-.4655457.2328072-.1330805.4212303-.1219845.587532-.0997934 2.0174561.1773281 4.2787437-.2217112 6.5844154-1.2082815.2438354-.0997257.5209579-.1995192.6318474-.0110273.0332184.0665064.0443153.1662321.0443153.2660255.017086 10.3601074.011097 6.7870026.011097 7.5598927 0 .7537632.0776024 1.5297165-.0332222 2.349987z" fill="#57b3fe"/></g><g><path d="m43.0461998 11.1240721c-.1321106-.0813141-.3557053 0-.54879.0813141-2.3169136.9856882-4.5729179 1.3921947-6.5849838 1.2092857-.1727371-.0203438-.355648-.0305157-.5894165.1015959-.1727371.1015949-.3150215.2946768-.4572411.4674759-2.083271 2.5913086-4.4103546 4.8574257-6.7984104 6.5849857-.182909.1422825-.3963356.3150196-.4878197.5588989v.0101719c-.0406265.1219406-.0406265.2134266-.0406265.3150215 0 2.4693699 0 4.9286289.0101719 7.3878269-.0101719 1.1076279 0 2.2254887.2133636 3.1705513.3455372 1.544651 1.2296295 2.5811386 2.3373184 3.2213516l-3.9022522-2.2661152c-1.1076279-.6503868-1.9917831-1.6767635-2.3474293-3.2213516-.2134247-.9552345-.2134247-2.0629253-.2134247-3.1706142v-7.3877659c0-.101656-.0101109-.2032528.0406876-.3150196v-.0101719h-.0101719c.091423-.2438793.3150215-.4267883.4877586-.5589008 2.3982277-1.7377319 4.7253742-3.9936762 6.8085823-6.5951567.1321106-.1727991.2946758-.365881.457304-.457304.2337074-.1422834.4166164-.1219397.5792446-.1016579 2.0222359.182909 4.2781792-.2235355 6.5951576-1.2092857.1930809-.0812521.4166145-.1625652.5487251-.091424z" fill="#497bfe"/></g></g><path d="m35.3715706 15.2426243c1.744976.0746727 3.6494637-.2363796 5.596756-.8992538l.0095673 5.950346c.0007629.2679901.008812.5317707.0168495.7955875.0157928.4186859.0316086.8457756-.004097 1.1264286-.5125618 3.6606178-3.0936203 7.4167919-5.607151 10.1075325-1.1750412.1079865-2.2559242-.0481071-3.2207451-.4641495-.8478851-.3744965-1.9304543-1.125185-2.2631283-2.5940628-.1626587-.7197685-.1580505-1.6703644-.160923-2.683712l-.0089741-5.7409973c1.9665298-1.6051331 3.8738098-3.5031986 5.6418457-5.5977192z" fill="#fff"/><g><g><path d="m35.3622055 19.4814377c1.8546906-1.0708046 3.3662605-.2094078 3.3723297 1.9318981.0060425 2.1311798-1.4957123 4.7323189-3.350399 5.8031235-1.8590965 1.073349-3.3706551.2119484-3.3766975-1.9192314-.006073-2.141306 1.4956741-4.7424412 3.3547668-5.8157902z" fill="#f45170"/></g><g><g><path d="m37.1217117 21.7434216-2.0222359 3.4957447c-.0609703.1117687-.1422844.1930828-.2235985.2438793-.0609703.0304546-.1117668.0406265-.1625633.0406265-.0305176 0-.0711441 0-.1015968-.0202827l-.9755783-.5589619c-.0406265-.0202808-.0813141-.0710793-.0914879-.1321106-.0304527-.1219406 0-.274334.0711441-.4064445.0609703-.1016579.1422844-.1930809.2337685-.2438793.091423-.0507984.1930809-.0609703.2540512-.0203438l.7214661.4166164 1.7885284-3.099411c.0609703-.1015968.1422844-.1930828.2235985-.2438793.0609703-.0304546.1117668-.0406265.1625633-.0406265.0406265 0 .0711441 0 .1015968.0202827.0508614.0305157.0813141.0813141.1016579.1422825.0304527.1117687 0 .2642231-.0813141.4065075z" fill="#fff"/></g></g></g></g></g></svg>