<?xml version="1.0" encoding="utf-8"?>
<!-- Generator: Adobe Illustrator 25.2.1, SVG Export Plug-In . SVG Version: 6.00 Build 0)  -->
<svg version="1.1" id="Layer_1" xmlns="http://www.w3.org/2000/svg" xmlns:xlink="http://www.w3.org/1999/xlink" x="0px" y="0px"
	 viewBox="0 0 512 512" style="enable-background:new 0 0 512 512;" xml:space="preserve">
<style type="text/css">
	.st0{fill:#9EA9C9;}
	.st1{fill:#C9CEE2;}
	.st2{fill:#B0B8CF;}
	.st3{fill:#E3E7F0;}
	.st4{fill:#423D9B;}
	.st5{fill:#FFFFFF;}
	.st6{fill:#F45170;}
	.st7{fill:#FFD06C;}
	.st8{fill:#4C5C75;}
	.st9{opacity:0.6;}
	.st10{fill:#DEDFFB;}
	.st11{enable-background:new    ;}
	.st12{fill:#57B3FE;}
	.st13{fill:#F3F1FC;}
	.st14{fill:#D84905;}
	.st15{fill:url(#SVGID_1_);}
	.st16{fill:#F67205;}
	.st17{fill:url(#SVGID_2_);}
	.st18{fill:#F69D05;}
	.st19{fill:url(#SVGID_3_);}
	.st20{opacity:0.7;fill:url(#SVGID_4_);enable-background:new    ;}
	.st21{fill:url(#SVGID_5_);}
	.st22{opacity:0.7;fill:url(#SVGID_6_);enable-background:new    ;}
	.st23{fill:url(#SVGID_7_);}
	.st24{fill:#BA3E05;}
	.st25{opacity:0.5;fill:url(#SVGID_8_);enable-background:new    ;}
	.st26{opacity:0.4;fill:url(#SVGID_9_);enable-background:new    ;}
	.st27{opacity:0.4;fill:url(#SVGID_10_);enable-background:new    ;}
	.st28{clip-path:url(#SVGID_12_);}
	.st29{fill-rule:evenodd;clip-rule:evenodd;fill:url(#SVGID_13_);}
	.st30{fill:url(#SVGID_14_);}
	.st31{fill:url(#SVGID_15_);}
	.st32{fill:url(#SVGID_16_);}
	.st33{opacity:0.7;fill:url(#SVGID_17_);enable-background:new    ;}
	.st34{fill:url(#SVGID_18_);}
	.st35{opacity:0.7;fill:url(#SVGID_19_);enable-background:new    ;}
	.st36{fill:url(#SVGID_20_);}
	.st37{opacity:0.5;fill:url(#SVGID_21_);enable-background:new    ;}
	.st38{opacity:0.4;fill:url(#SVGID_22_);enable-background:new    ;}
	.st39{opacity:0.4;fill:url(#SVGID_23_);enable-background:new    ;}
	.st40{clip-path:url(#SVGID_25_);}
	.st41{fill-rule:evenodd;clip-rule:evenodd;fill:url(#SVGID_26_);}
	.st42{fill:url(#SVGID_27_);}
	.st43{fill:url(#SVGID_28_);}
	.st44{fill:url(#SVGID_29_);}
	.st45{opacity:0.7;fill:url(#SVGID_30_);enable-background:new    ;}
	.st46{fill:url(#SVGID_31_);}
	.st47{opacity:0.7;fill:url(#SVGID_32_);enable-background:new    ;}
	.st48{fill:url(#SVGID_33_);}
	.st49{opacity:0.5;fill:url(#SVGID_34_);enable-background:new    ;}
	.st50{opacity:0.4;fill:url(#SVGID_35_);enable-background:new    ;}
	.st51{opacity:0.4;fill:url(#SVGID_36_);enable-background:new    ;}
	.st52{clip-path:url(#SVGID_38_);}
	.st53{fill-rule:evenodd;clip-rule:evenodd;fill:url(#SVGID_39_);}
	.st54{fill:url(#SVGID_40_);}
	.st55{fill:url(#SVGID_41_);}
	.st56{fill:url(#SVGID_42_);}
	.st57{opacity:0.7;fill:url(#SVGID_43_);enable-background:new    ;}
	.st58{fill:url(#SVGID_44_);}
	.st59{opacity:0.7;fill:url(#SVGID_45_);enable-background:new    ;}
	.st60{fill:url(#SVGID_46_);}
	.st61{opacity:0.5;fill:url(#SVGID_47_);enable-background:new    ;}
	.st62{opacity:0.4;fill:url(#SVGID_48_);enable-background:new    ;}
	.st63{opacity:0.4;fill:url(#SVGID_49_);enable-background:new    ;}
	.st64{clip-path:url(#SVGID_51_);}
	.st65{fill-rule:evenodd;clip-rule:evenodd;fill:url(#SVGID_52_);}
</style>
<g>
	<g>
		<g>
			<g>
				<g>
					<g>
						<g>
							<path class="st0" d="M323.5,258.1c-1.7,0-3.4-0.4-4.8-1.2l-64.1-37.6c-1.5-0.9-2.4-2.2-2.4-3.7c0-1.4,0.9-2.7,2.3-3.6
								l63.7-37.6c2.6-1.6,6.8-1.5,9.5,0l64.1,37.6h0c1.6,0.9,2.5,2.2,2.5,3.7c0,1.4-0.8,2.7-2.4,3.6L328.2,257
								C326.8,257.8,325.1,258.1,323.5,258.1z M322.9,176.2c-1.2,0-2.4,0.2-3.2,0.8l-63.7,37.6c-0.6,0.3-0.9,0.7-0.9,1
								c0,0.3,0.4,0.8,1,1.1l64.1,37.6c1.8,1.1,4.8,1.1,6.5,0l63.7-37.6c0.6-0.3,0.9-0.7,0.9-1c0-0.3-0.3-0.7-1-1.1L326.2,177
								C325.3,176.5,324.1,176.2,322.9,176.2z"/>
						</g>
					</g>
				</g>
			</g>
			<g>
				<g>
					<g>
						<g>
							<g>
								<g>
									<g>
										<g>
											<path class="st1" d="M385,204.9c2.1,1.2,2.1,3.1,0.1,4.3l-58,34.2c-2,1.2-5.2,1.2-7.3,0l-58.3-34.2
												c-2-1.2-2.1-3.1-0.1-4.3l58-34.2c2-1.2,5.3-1.2,7.3,0L385,204.9z"/>
										</g>
									</g>
								</g>
							</g>
						</g>
						<g>
							<g>
								<g>
									<g>
										<path class="st2" d="M394.1,173l-0.1,29.6c0,0.9-0.6,1.7-1.7,2.4l-64.8,38.3c-2.2,1.3-5.9,1.3-8.2,0L254,205
											c-1.1-0.6-1.7-1.5-1.7-2.5l0.1-29.6c0,0.9,0.6,1.8,1.7,2.5l65.2,38.3c2.3,1.3,6,1.3,8.2,0l64.8-38.3
											C393.5,174.8,394.1,173.9,394.1,173z"/>
									</g>
								</g>
							</g>
						</g>
						<g>
							<g>
								<g>
									<g>
										<path class="st3" d="M392.3,170.6c2.3,1.4,2.3,3.5,0.1,4.8l-64.9,38.3c-2.2,1.3-5.9,1.3-8.2,0l-65.2-38.3
											c-2.3-1.3-2.3-3.5-0.1-4.8l64.9-38.3c2.2-1.3,5.9-1.3,8.2,0L392.3,170.6z"/>
									</g>
								</g>
							</g>
						</g>
						<g>
							<g>
								<g>
									<g>
										<g>
											<path class="st4" d="M388.5,165.6l-0.1,9.5c0,0.9-0.6,1.6-1.6,2.2l-59.7,35.3c-2.1,1.2-5.4,1.2-7.6,0l-60.1-35.3
												c-1-0.6-1.6-1.4-1.6-2.3l0.1-9.5c0,0.9,0.6,1.7,1.6,2.3l60.1,35.3c2.1,1.2,5.5,1.2,7.6,0l59.7-35.3
												C388,167.2,388.5,166.4,388.5,165.6z"/>
										</g>
									</g>
								</g>
							</g>
							<g>
								<g>
									<g>
										<g>
											<path class="st1" d="M385,166.9c2.1,1.2,2.1,3.1,0.1,4.3l-58,34.2c-2,1.2-5.2,1.2-7.3,0l-58.3-34.2
												c-2-1.2-2.1-3.1-0.1-4.3l58-34.2c2-1.2,5.3-1.2,7.3,0L385,166.9z"/>
										</g>
									</g>
								</g>
							</g>
						</g>
						<g>
							<g>
								<g>
									<g>
										<path class="st2" d="M394.1,135l-0.1,29.6c0,0.9-0.6,1.7-1.7,2.4l-64.8,38.3c-2.2,1.3-5.9,1.3-8.2,0L254,167
											c-1.1-0.6-1.7-1.5-1.7-2.5l0.1-29.6c0,0.9,0.6,1.8,1.7,2.5l65.2,38.3c2.3,1.3,6,1.3,8.2,0l64.8-38.3
											C393.5,136.8,394.1,136,394.1,135z"/>
									</g>
								</g>
							</g>
						</g>
						<g>
							<g>
								<g>
									<g>
										<path class="st3" d="M392.3,132.6c2.3,1.4,2.3,3.5,0.1,4.8l-64.9,38.3c-2.2,1.3-5.9,1.3-8.2,0l-65.2-38.3
											c-2.3-1.3-2.3-3.5-0.1-4.8l64.9-38.3c2.2-1.3,5.9-1.3,8.2,0L392.3,132.6z"/>
									</g>
								</g>
							</g>
						</g>
						<g>
							<g>
								<g>
									<g>
										<g>
											<path class="st4" d="M388.5,126.4l-0.1,9.5c0,0.9-0.6,1.6-1.6,2.2l-59.7,35.3c-2.1,1.2-5.4,1.2-7.6,0l-60.1-35.3
												c-1-0.6-1.6-1.4-1.6-2.3l0.1-9.5c0,0.9,0.6,1.7,1.6,2.3l60.1,35.3c2.1,1.2,5.5,1.2,7.6,0l59.7-35.3
												C388,128,388.5,127.3,388.5,126.4z"/>
										</g>
									</g>
								</g>
							</g>
							<g>
								<g>
									<g>
										<g>
											<path class="st1" d="M385,128.9c2.1,1.2,2.1,3.1,0.1,4.3l-58,34.2c-2,1.2-5.2,1.2-7.3,0l-58.3-34.2
												c-2-1.2-2.1-3.1-0.1-4.3l58-34.2c2-1.2,5.3-1.2,7.3,0L385,128.9z"/>
										</g>
									</g>
								</g>
							</g>
						</g>
						<g>
							<g>
								<g>
									<g>
										<path class="st2" d="M394.1,97l-0.1,29.6c0,0.9-0.6,1.7-1.7,2.4l-64.8,38.3c-2.2,1.3-5.9,1.3-8.2,0L254,129
											c-1.1-0.6-1.7-1.5-1.7-2.5l0.1-29.6c0,0.9,0.6,1.8,1.7,2.5l65.2,38.3c2.3,1.3,6,1.3,8.2,0l64.8-38.3
											C393.5,98.8,394.1,98,394.1,97z"/>
									</g>
								</g>
							</g>
						</g>
						<g>
							<g>
								<g>
									<g>
										<path class="st3" d="M392.3,94.6c2.3,1.4,2.3,3.5,0.1,4.8l-64.9,38.3c-2.2,1.3-5.9,1.3-8.2,0l-65.2-38.3
											c-2.3-1.3-2.3-3.5-0.1-4.8l64.9-38.3c2.2-1.3,5.9-1.3,8.2,0L392.3,94.6z"/>
									</g>
								</g>
							</g>
						</g>
						<g>
							<g>
								<g>
									<g>
										<path class="st2" d="M323.4,129.8c-1.5,0-2.9-0.3-4.1-1l-48-28.2c-1.5-0.9-2.3-2.2-2.3-3.6c0-1.4,0.8-2.7,2.3-3.6
											l47.7-28.2c2.3-1.3,5.8-1.3,8.2,0l48,28.2c1.5,0.9,2.3,2.2,2.3,3.6c0,1.4-0.8,2.7-2.3,3.6l-47.7,28.2
											C326.3,129.5,324.8,129.8,323.4,129.8z"/>
									</g>
								</g>
							</g>
						</g>
					</g>
				</g>
				<g>
					<g>
						<g>
							<g>
								<path class="st5" d="M388.7,186.6l0,15L329.2,236l0-15L388.7,186.6z"/>
							</g>
						</g>
					</g>
					<g>
						<g>
							<g>
								<g>
									<g>
										<path class="st6" d="M345.7,214.8c-2,1.1-3.6,3.9-3.6,6.2c0,2.3,1.6,3.2,3.6,2c2-1.1,3.6-3.9,3.6-6.2
											C349.3,214.6,347.7,213.7,345.7,214.8z"/>
									</g>
								</g>
							</g>
						</g>
						<g>
							<g>
								<g>
									<path class="st7" d="M382.1,193.6c1.3-0.7,2.1-0.2,2.1,1.2l0,3.2c0,1.3-0.9,3-2.1,3.7l-25.1,14.5c-1.3,0.7-2.1,0.1-2.1-1.2
										l0-3.2c0-1.4,0.9-3,2.1-3.7L382.1,193.6z"/>
								</g>
							</g>
						</g>
					</g>
				</g>
				<g>
					<g>
						<g>
							<g>
								<path class="st5" d="M388.7,148.2l0,15l-59.5,34.4l0-15L388.7,148.2z"/>
							</g>
						</g>
					</g>
					<g>
						<g>
							<g>
								<g>
									<g>
										<path class="st6" d="M345.7,176.5c-2,1.1-3.6,3.9-3.6,6.2c0,2.3,1.6,3.2,3.6,2c2-1.1,3.6-3.9,3.6-6.2
											C349.3,176.2,347.7,175.3,345.7,176.5z"/>
									</g>
								</g>
							</g>
						</g>
						<g>
							<g>
								<g>
									<path class="st7" d="M382.1,155.2c1.3-0.7,2.1-0.2,2.1,1.2l0,3.2c0,1.3-0.9,3-2.1,3.7l-25.1,14.5c-1.3,0.7-2.1,0.1-2.1-1.2
										l0-3.2c0-1.4,0.9-3,2.1-3.7L382.1,155.2z"/>
								</g>
							</g>
						</g>
					</g>
				</g>
				<g>
					<g>
						<g>
							<g>
								<path class="st5" d="M388.7,109.8l0,15l-59.5,34.4l0-15L388.7,109.8z"/>
							</g>
						</g>
					</g>
					<g>
						<g>
							<g>
								<g>
									<g>
										<path class="st6" d="M335.4,144c-2,1.1-3.6,3.9-3.6,6.2c0,2.3,1.6,3.2,3.6,2c2-1.1,3.6-3.9,3.6-6.2
											C339,143.8,337.4,142.9,335.4,144z"/>
									</g>
								</g>
							</g>
						</g>
						<g>
							<g>
								<g>
									<g>
										<path class="st6" d="M335.4,220.8c-2,1.1-3.6,3.9-3.6,6.2c0,2.3,1.6,3.2,3.6,2c2-1.1,3.6-3.9,3.6-6.2
											C339,220.6,337.4,219.6,335.4,220.8z"/>
									</g>
								</g>
							</g>
						</g>
						<g>
							<g>
								<g>
									<g>
										<path class="st6" d="M335.4,182.4c-2,1.1-3.6,3.9-3.6,6.2c0,2.3,1.6,3.2,3.6,2c2-1.1,3.6-3.9,3.6-6.2
											C339,182.2,337.4,181.3,335.4,182.4z"/>
									</g>
								</g>
							</g>
						</g>
						<g>
							<g>
								<g>
									<g>
										<path class="st6" d="M345.7,214.8c-2,1.1-3.6,3.9-3.6,6.2c0,2.3,1.6,3.2,3.6,2c2-1.1,3.6-3.9,3.6-6.2
											C349.3,214.6,347.7,213.7,345.7,214.8z"/>
									</g>
								</g>
							</g>
						</g>
						<g>
							<g>
								<g>
									<g>
										<path class="st6" d="M345.7,176.5c-2,1.1-3.6,3.9-3.6,6.2c0,2.3,1.6,3.2,3.6,2c2-1.1,3.6-3.9,3.6-6.2
											C349.3,176.2,347.7,175.3,345.7,176.5z"/>
									</g>
								</g>
							</g>
						</g>
						<g>
							<g>
								<g>
									<g>
										<path class="st6" d="M345.7,214.8c-2,1.1-3.6,3.9-3.6,6.2c0,2.3,1.6,3.2,3.6,2c2-1.1,3.6-3.9,3.6-6.2
											C349.3,214.6,347.7,213.7,345.7,214.8z"/>
									</g>
								</g>
							</g>
						</g>
						<g>
							<g>
								<g>
									<g>
										<path class="st6" d="M345.7,176.5c-2,1.1-3.6,3.9-3.6,6.2c0,2.3,1.6,3.2,3.6,2c2-1.1,3.6-3.9,3.6-6.2
											C349.3,176.2,347.7,175.3,345.7,176.5z"/>
									</g>
								</g>
							</g>
						</g>
						<g>
							<g>
								<g>
									<g>
										<path class="st6" d="M345.7,138.1c-2,1.1-3.6,3.9-3.6,6.2c0,2.3,1.6,3.2,3.6,2c2-1.1,3.6-3.9,3.6-6.2
											C349.3,137.9,347.7,137,345.7,138.1z"/>
									</g>
								</g>
							</g>
						</g>
						<g>
							<g>
								<g>
									<path class="st7" d="M382.1,116.9c1.3-0.7,2.1-0.2,2.1,1.2l0,3.2c0,1.3-0.9,3-2.1,3.7l-25.1,14.5c-1.3,0.7-2.1,0.1-2.1-1.2
										l0-3.2c0-1.4,0.9-3,2.1-3.7L382.1,116.9z"/>
								</g>
							</g>
						</g>
					</g>
				</g>
			</g>
		</g>
		<g>
			<g>
				<g>
					<path class="st8" d="M268.4,115.4l0,15.5l-4.8-2.8l0-15.5L268.4,115.4z"/>
				</g>
			</g>
			<g>
				<g>
					<path class="st8" d="M276.9,120.4l0,15.5l-4.8-2.8l0-15.5L276.9,120.4z"/>
				</g>
			</g>
			<g>
				<g>
					<path class="st8" d="M285.4,125.3l0,15.5l-4.8-2.8l0-15.5L285.4,125.3z"/>
				</g>
			</g>
			<g>
				<g>
					<path class="st8" d="M294,130.2l0,15.5l-4.8-2.8l0-15.5L294,130.2z"/>
				</g>
			</g>
			<g>
				<g>
					<path class="st8" d="M302.5,135.1l0,15.5l-4.8-2.8l0-15.5L302.5,135.1z"/>
				</g>
			</g>
			<g>
				<g>
					<path class="st8" d="M311,140l0,15.5l-4.8-2.8l0-15.5L311,140z"/>
				</g>
			</g>
		</g>
		<g>
			<g>
				<g>
					<path class="st8" d="M268.4,153.4l0,15.5l-4.8-2.8l0-15.5L268.4,153.4z"/>
				</g>
			</g>
			<g>
				<g>
					<path class="st8" d="M276.9,158.3l0,15.5l-4.8-2.8l0-15.5L276.9,158.3z"/>
				</g>
			</g>
			<g>
				<g>
					<path class="st8" d="M285.4,163.2l0,15.5l-4.8-2.8l0-15.5L285.4,163.2z"/>
				</g>
			</g>
			<g>
				<g>
					<path class="st8" d="M294,168.1l0,15.5l-4.8-2.8l0-15.5L294,168.1z"/>
				</g>
			</g>
			<g>
				<g>
					<path class="st8" d="M302.5,173l0,15.5l-4.8-2.8l0-15.5L302.5,173z"/>
				</g>
			</g>
			<g>
				<g>
					<path class="st8" d="M311,178l0,15.5l-4.8-2.8l0-15.5L311,178z"/>
				</g>
			</g>
		</g>
		<g>
			<g>
				<g>
					<path class="st8" d="M268.4,192.2l0,15.5l-4.8-2.8l0-15.5L268.4,192.2z"/>
				</g>
			</g>
			<g>
				<g>
					<path class="st8" d="M276.9,197.1l0,15.5l-4.8-2.8l0-15.5L276.9,197.1z"/>
				</g>
			</g>
			<g>
				<g>
					<path class="st8" d="M285.4,202l0,15.5l-4.8-2.8l0-15.5L285.4,202z"/>
				</g>
			</g>
			<g>
				<g>
					<path class="st8" d="M294,206.9l0,15.5l-4.8-2.8l0-15.5L294,206.9z"/>
				</g>
			</g>
			<g>
				<g>
					<path class="st8" d="M302.5,211.8l0,15.5l-4.8-2.8l0-15.5L302.5,211.8z"/>
				</g>
			</g>
			<g>
				<g>
					<path class="st8" d="M311,216.8l0,15.5l-4.8-2.8l0-15.5L311,216.8z"/>
				</g>
			</g>
		</g>
	</g>
	<g>
		<g>
			<g>
				<g>
					<g>
						<g>
							<path class="st0" d="M207.3,326.7c-1.7,0-3.4-0.4-4.8-1.2l-64.1-37.6c-1.5-0.9-2.4-2.2-2.4-3.7c0-1.4,0.9-2.7,2.3-3.6
								L202,243c2.7-1.5,6.8-1.5,9.5,0l64.1,37.6h0c1.6,0.9,2.5,2.2,2.5,3.7c0,1.4-0.8,2.7-2.4,3.6L212,325.5
								C210.7,326.3,209,326.7,207.3,326.7z M206.7,244.8c-1.2,0-2.4,0.2-3.2,0.8l-63.7,37.6c-0.6,0.3-0.9,0.7-0.9,1
								c0,0.3,0.4,0.8,1,1.1l64.1,37.6c1.8,1.1,4.8,1.1,6.5,0l63.7-37.6c0.6-0.3,0.9-0.7,0.9-1c0-0.3-0.3-0.7-1-1.1l-64.1-37.6
								C209.2,245.1,208,244.8,206.7,244.8z"/>
						</g>
					</g>
				</g>
			</g>
			<g>
				<g>
					<g>
						<g>
							<g>
								<g>
									<g>
										<g>
											<path class="st1" d="M268.8,273.4c2.1,1.2,2.1,3.1,0.1,4.3l-58,34.2c-2,1.2-5.2,1.2-7.3,0l-58.3-34.2
												c-2-1.2-2.1-3.1-0.1-4.3l58-34.2c2-1.2,5.3-1.2,7.3,0L268.8,273.4z"/>
										</g>
									</g>
								</g>
							</g>
						</g>
						<g>
							<g>
								<g>
									<g>
										<path class="st2" d="M277.9,241.6l-0.1,29.6c0,0.9-0.6,1.7-1.7,2.4l-64.8,38.3c-2.2,1.3-5.9,1.3-8.2,0l-65.2-38.3
											c-1.1-0.6-1.7-1.5-1.7-2.5l0.1-29.6c0,0.9,0.6,1.8,1.7,2.5l65.2,38.3c2.3,1.3,6,1.3,8.2,0l64.8-38.3
											C277.3,243.3,277.9,242.5,277.9,241.6z"/>
									</g>
								</g>
							</g>
						</g>
						<g>
							<g>
								<g>
									<g>
										<path class="st3" d="M276.1,239.1c2.3,1.4,2.3,3.5,0.1,4.8l-64.9,38.3c-2.2,1.3-5.9,1.3-8.2,0L137.9,244
											c-2.3-1.3-2.3-3.5-0.1-4.8l64.9-38.3c2.2-1.3,5.9-1.3,8.2,0L276.1,239.1z"/>
									</g>
								</g>
							</g>
						</g>
						<g>
							<g>
								<g>
									<g>
										<g>
											<path class="st4" d="M272.4,234.1l-0.1,9.5c0,0.9-0.6,1.6-1.6,2.2L211,281.1c-2.1,1.2-5.4,1.2-7.6,0l-60.1-35.3
												c-1-0.6-1.6-1.4-1.6-2.3l0.1-9.5c0,0.9,0.6,1.7,1.6,2.3l60.1,35.3c2.1,1.2,5.5,1.2,7.6,0l59.7-35.3
												C271.8,235.7,272.4,235,272.4,234.1z"/>
										</g>
									</g>
								</g>
							</g>
							<g>
								<g>
									<g>
										<g>
											<path class="st1" d="M268.8,235.4c2.1,1.2,2.1,3.1,0.1,4.3l-58,34.2c-2,1.2-5.2,1.2-7.3,0l-58.3-34.2
												c-2-1.2-2.1-3.1-0.1-4.3l58-34.2c2-1.2,5.3-1.2,7.3,0L268.8,235.4z"/>
										</g>
									</g>
								</g>
							</g>
						</g>
						<g>
							<g>
								<g>
									<g>
										<path class="st2" d="M277.9,203.6l-0.1,29.6c0,0.9-0.6,1.7-1.7,2.4l-64.8,38.3c-2.2,1.3-5.9,1.3-8.2,0l-65.2-38.3
											c-1.1-0.6-1.7-1.5-1.7-2.5l0.1-29.6c0,0.9,0.6,1.8,1.7,2.5l65.2,38.3c2.3,1.3,6,1.3,8.2,0l64.8-38.3
											C277.3,205.3,277.9,204.5,277.9,203.6z"/>
									</g>
								</g>
							</g>
						</g>
						<g>
							<g>
								<g>
									<g>
										<path class="st3" d="M276.1,201.2c2.3,1.4,2.3,3.5,0.1,4.8l-64.9,38.3c-2.2,1.3-5.9,1.3-8.2,0L137.9,206
											c-2.3-1.3-2.3-3.5-0.1-4.8l64.9-38.3c2.2-1.3,5.9-1.3,8.2,0L276.1,201.2z"/>
									</g>
								</g>
							</g>
						</g>
						<g>
							<g>
								<g>
									<g>
										<g>
											<path class="st4" d="M272.4,195l-0.1,9.5c0,0.9-0.6,1.6-1.6,2.2L211,242c-2.1,1.2-5.4,1.2-7.6,0l-60.1-35.3
												c-1-0.6-1.6-1.4-1.6-2.3l0.1-9.5c0,0.9,0.6,1.7,1.6,2.3l60.1,35.3c2.1,1.2,5.5,1.2,7.6,0l59.7-35.3
												C271.8,196.6,272.4,195.8,272.4,195z"/>
										</g>
									</g>
								</g>
							</g>
							<g>
								<g>
									<g>
										<g>
											<path class="st1" d="M268.8,197.4c2.1,1.2,2.1,3.1,0.1,4.3l-58,34.2c-2,1.2-5.2,1.2-7.3,0l-58.3-34.2
												c-2-1.2-2.1-3.1-0.1-4.3l58-34.2c2-1.2,5.3-1.2,7.3,0L268.8,197.4z"/>
										</g>
									</g>
								</g>
							</g>
						</g>
						<g>
							<g>
								<g>
									<g>
										<path class="st2" d="M277.9,165.6l-0.1,29.6c0,0.9-0.6,1.7-1.7,2.4l-64.8,38.3c-2.2,1.3-5.9,1.3-8.2,0l-65.2-38.3
											c-1.1-0.6-1.7-1.5-1.7-2.5l0.1-29.6c0,0.9,0.6,1.8,1.7,2.5l65.2,38.3c2.3,1.3,6,1.3,8.2,0l64.8-38.3
											C277.3,167.3,277.9,166.5,277.9,165.6z"/>
									</g>
								</g>
							</g>
						</g>
						<g>
							<g>
								<g>
									<g>
										<path class="st3" d="M276.1,163.2c2.3,1.4,2.3,3.5,0.1,4.8l-64.9,38.3c-2.2,1.3-5.9,1.3-8.2,0L137.9,168
											c-2.3-1.3-2.3-3.5-0.1-4.8l64.9-38.3c2.2-1.3,5.9-1.3,8.2,0L276.1,163.2z"/>
									</g>
								</g>
							</g>
						</g>
						<g>
							<g>
								<g>
									<g>
										<path class="st2" d="M207.3,198.4c-1.5,0-2.9-0.3-4.1-1l-48-28.2c-1.5-0.9-2.3-2.2-2.3-3.6c0-1.4,0.8-2.7,2.3-3.6
											l47.7-28.2c2.3-1.3,5.8-1.3,8.2,0l48,28.2c1.5,0.9,2.3,2.2,2.3,3.6c0,1.4-0.8,2.7-2.3,3.6l-47.7,28.2
											C210.1,198,208.7,198.4,207.3,198.4z"/>
									</g>
								</g>
							</g>
						</g>
					</g>
				</g>
				<g>
					<g>
						<g>
							<g>
								<path class="st5" d="M272.6,255.1l0,15l-59.5,34.4l0-15L272.6,255.1z"/>
							</g>
						</g>
					</g>
					<g>
						<g>
							<g>
								<g>
									<g>
										<path class="st6" d="M229.6,283.4c-2,1.1-3.6,3.9-3.6,6.2c0,2.3,1.6,3.2,3.6,2c2-1.1,3.6-3.9,3.6-6.2
											C233.1,283.2,231.5,282.3,229.6,283.4z"/>
									</g>
								</g>
							</g>
						</g>
						<g>
							<g>
								<g>
									<path class="st7" d="M266,262.2c1.3-0.7,2.1-0.2,2.1,1.2l0,3.2c0,1.3-0.9,3-2.1,3.7L241,284.8c-1.3,0.7-2.1,0.1-2.1-1.2
										l0-3.2c0-1.4,0.9-3,2.1-3.7L266,262.2z"/>
								</g>
							</g>
						</g>
					</g>
				</g>
				<g>
					<g>
						<g>
							<g>
								<path class="st5" d="M272.6,216.8l0,15l-59.5,34.4l0-15L272.6,216.8z"/>
							</g>
						</g>
					</g>
					<g>
						<g>
							<g>
								<g>
									<g>
										<path class="st6" d="M229.6,245c-2,1.1-3.6,3.9-3.6,6.2c0,2.3,1.6,3.2,3.6,2c2-1.1,3.6-3.9,3.6-6.2
											C233.1,244.8,231.5,243.9,229.6,245z"/>
									</g>
								</g>
							</g>
						</g>
						<g>
							<g>
								<g>
									<path class="st7" d="M266,223.8c1.3-0.7,2.1-0.2,2.1,1.2l0,3.2c0,1.3-0.9,3-2.1,3.7L241,246.4c-1.3,0.7-2.1,0.1-2.1-1.2
										l0-3.2c0-1.4,0.9-3,2.1-3.7L266,223.8z"/>
								</g>
							</g>
						</g>
					</g>
				</g>
				<g>
					<g>
						<g>
							<g>
								<path class="st5" d="M272.6,178.4l0,15l-59.5,34.4l0-15L272.6,178.4z"/>
							</g>
						</g>
					</g>
					<g>
						<g>
							<g>
								<g>
									<g>
										<path class="st6" d="M219.3,212.6c-2,1.1-3.6,3.9-3.6,6.2c0,2.3,1.6,3.2,3.6,2c2-1.1,3.6-3.9,3.6-6.2
											S221.2,211.4,219.3,212.6z"/>
									</g>
								</g>
							</g>
						</g>
						<g>
							<g>
								<g>
									<g>
										<path class="st6" d="M219.3,289.3c-2,1.1-3.6,3.9-3.6,6.2c0,2.3,1.6,3.2,3.6,2c2-1.1,3.6-3.9,3.6-6.2
											S221.2,288.2,219.3,289.3z"/>
									</g>
								</g>
							</g>
						</g>
						<g>
							<g>
								<g>
									<g>
										<path class="st6" d="M219.3,250.9c-2,1.1-3.6,3.9-3.6,6.2c0,2.3,1.6,3.2,3.6,2c2-1.1,3.6-3.9,3.6-6.2
											C222.9,250.7,221.2,249.8,219.3,250.9z"/>
									</g>
								</g>
							</g>
						</g>
						<g>
							<g>
								<g>
									<g>
										<path class="st6" d="M229.6,283.4c-2,1.1-3.6,3.9-3.6,6.2c0,2.3,1.6,3.2,3.6,2c2-1.1,3.6-3.9,3.6-6.2
											C233.1,283.2,231.5,282.3,229.6,283.4z"/>
									</g>
								</g>
							</g>
						</g>
						<g>
							<g>
								<g>
									<g>
										<path class="st6" d="M229.6,245c-2,1.1-3.6,3.9-3.6,6.2c0,2.3,1.6,3.2,3.6,2c2-1.1,3.6-3.9,3.6-6.2
											C233.1,244.8,231.5,243.9,229.6,245z"/>
									</g>
								</g>
							</g>
						</g>
						<g>
							<g>
								<g>
									<g>
										<path class="st6" d="M229.6,283.4c-2,1.1-3.6,3.9-3.6,6.2c0,2.3,1.6,3.2,3.6,2c2-1.1,3.6-3.9,3.6-6.2
											C233.1,283.2,231.5,282.3,229.6,283.4z"/>
									</g>
								</g>
							</g>
						</g>
						<g>
							<g>
								<g>
									<g>
										<path class="st6" d="M229.6,245c-2,1.1-3.6,3.9-3.6,6.2c0,2.3,1.6,3.2,3.6,2c2-1.1,3.6-3.9,3.6-6.2
											C233.1,244.8,231.5,243.9,229.6,245z"/>
									</g>
								</g>
							</g>
						</g>
						<g>
							<g>
								<g>
									<g>
										<path class="st6" d="M229.6,206.6c-2,1.1-3.6,3.9-3.6,6.2c0,2.3,1.6,3.2,3.6,2c2-1.1,3.6-3.9,3.6-6.2
											C233.1,206.4,231.5,205.5,229.6,206.6z"/>
									</g>
								</g>
							</g>
						</g>
						<g>
							<g>
								<g>
									<path class="st7" d="M266,185.4c1.3-0.7,2.1-0.2,2.1,1.2l0,3.2c0,1.3-0.9,3-2.1,3.7L241,208c-1.3,0.7-2.1,0.1-2.1-1.2
										l0-3.2c0-1.4,0.9-3,2.1-3.7L266,185.4z"/>
								</g>
							</g>
						</g>
					</g>
				</g>
			</g>
		</g>
		<g>
			<g>
				<g>
					<path class="st8" d="M152.3,184l0,15.5l-4.8-2.8l0-15.5L152.3,184z"/>
				</g>
			</g>
			<g>
				<g>
					<path class="st8" d="M160.8,188.9l0,15.5l-4.8-2.8l0-15.5L160.8,188.9z"/>
				</g>
			</g>
			<g>
				<g>
					<path class="st8" d="M169.3,193.8l0,15.5l-4.8-2.8l0-15.5L169.3,193.8z"/>
				</g>
			</g>
			<g>
				<g>
					<path class="st8" d="M177.8,198.7l0,15.5l-4.8-2.8l0-15.5L177.8,198.7z"/>
				</g>
			</g>
			<g>
				<g>
					<path class="st8" d="M186.3,203.6l0,15.5l-4.8-2.8l0-15.5L186.3,203.6z"/>
				</g>
			</g>
			<g>
				<g>
					<path class="st8" d="M194.9,208.6l0,15.5l-4.8-2.8l0-15.5L194.9,208.6z"/>
				</g>
			</g>
		</g>
		<g>
			<g>
				<g>
					<path class="st8" d="M152.3,222l0,15.5l-4.8-2.8l0-15.5L152.3,222z"/>
				</g>
			</g>
			<g>
				<g>
					<path class="st8" d="M160.8,226.9l0,15.5l-4.8-2.8l0-15.5L160.8,226.9z"/>
				</g>
			</g>
			<g>
				<g>
					<path class="st8" d="M169.3,231.8l0,15.5l-4.8-2.8l0-15.5L169.3,231.8z"/>
				</g>
			</g>
			<g>
				<g>
					<path class="st8" d="M177.8,236.7l0,15.5l-4.8-2.8l0-15.5L177.8,236.7z"/>
				</g>
			</g>
			<g>
				<g>
					<path class="st8" d="M186.3,241.6l0,15.5l-4.8-2.8l0-15.5L186.3,241.6z"/>
				</g>
			</g>
			<g>
				<g>
					<path class="st8" d="M194.9,246.5l0,15.5l-4.8-2.8l0-15.5L194.9,246.5z"/>
				</g>
			</g>
		</g>
		<g>
			<g>
				<g>
					<path class="st8" d="M152.3,260.7l0,15.5l-4.8-2.8l0-15.5L152.3,260.7z"/>
				</g>
			</g>
			<g>
				<g>
					<path class="st8" d="M160.8,265.7l0,15.5l-4.8-2.8l0-15.5L160.8,265.7z"/>
				</g>
			</g>
			<g>
				<g>
					<path class="st8" d="M169.3,270.6l0,15.5l-4.8-2.8l0-15.5L169.3,270.6z"/>
				</g>
			</g>
			<g>
				<g>
					<path class="st8" d="M177.8,275.5l0,15.5l-4.8-2.8l0-15.5L177.8,275.5z"/>
				</g>
			</g>
			<g>
				<g>
					<path class="st8" d="M186.3,280.4l0,15.5l-4.8-2.8l0-15.5L186.3,280.4z"/>
				</g>
			</g>
			<g>
				<g>
					<path class="st8" d="M194.9,285.3l0,15.5l-4.8-2.8l0-15.5L194.9,285.3z"/>
				</g>
			</g>
		</g>
	</g>
	<g>
		<g>
			<g>
				<g>
					<g>
						<g>
							<path class="st0" d="M91.2,395.2c-1.7,0-3.4-0.4-4.8-1.2l-64.1-37.6c-1.5-0.9-2.4-2.2-2.4-3.7c0-1.4,0.9-2.7,2.3-3.6
								l63.7-37.6c2.6-1.6,6.8-1.5,9.5,0l64.1,37.6c1.6,0.9,2.5,2.2,2.5,3.7c0,1.4-0.8,2.7-2.4,3.6l-63.7,37.6
								C94.6,394.9,92.9,395.2,91.2,395.2z M90.6,313.4c-1.2,0-2.4,0.2-3.2,0.8l-63.7,37.6c-0.6,0.3-0.9,0.7-0.9,1
								c0,0.4,0.4,0.8,1,1.1l64.1,37.6c1.8,1,4.8,1.1,6.5,0l63.7-37.6c0.6-0.3,0.9-0.7,0.9-1c0-0.3-0.3-0.7-1-1.1l-64.1-37.6
								C93,313.6,91.8,313.4,90.6,313.4z"/>
						</g>
					</g>
				</g>
			</g>
			<g>
				<g>
					<g>
						<g>
							<g>
								<g>
									<g>
										<g>
											<path class="st1" d="M152.7,342c2.1,1.2,2.1,3.1,0.1,4.3l-58,34.2c-2,1.2-5.2,1.2-7.3,0l-58.3-34.2
												c-2-1.2-2.1-3.1-0.1-4.3l58-34.2c2-1.2,5.3-1.2,7.3,0L152.7,342z"/>
										</g>
									</g>
								</g>
							</g>
						</g>
						<g>
							<g>
								<g>
									<g>
										<path class="st2" d="M161.8,310.1l-0.1,29.6c0,0.9-0.6,1.7-1.7,2.4l-64.8,38.3c-2.2,1.3-5.9,1.3-8.2,0l-65.2-38.3
											c-1.1-0.6-1.7-1.5-1.7-2.5l0.1-29.6c0,0.9,0.6,1.8,1.7,2.5L87,350.8c2.3,1.3,6,1.3,8.2,0l64.8-38.3
											C161.2,311.9,161.8,311,161.8,310.1z"/>
									</g>
								</g>
							</g>
						</g>
						<g>
							<g>
								<g>
									<g>
										<path class="st3" d="M160,307.7c2.3,1.4,2.3,3.5,0.1,4.8l-64.9,38.3c-2.2,1.3-5.9,1.3-8.2,0l-65.2-38.3
											c-2.3-1.3-2.3-3.5-0.1-4.8l64.9-38.3c2.2-1.3,5.9-1.3,8.2,0L160,307.7z"/>
									</g>
								</g>
							</g>
						</g>
						<g>
							<g>
								<g>
									<g>
										<g>
											<path class="st4" d="M156.3,302.7l-0.1,9.5c0,0.9-0.6,1.6-1.6,2.2l-59.7,35.3c-2.1,1.2-5.4,1.2-7.6,0l-60.1-35.3
												c-1-0.6-1.6-1.4-1.6-2.3l0.1-9.5c0,0.9,0.6,1.7,1.6,2.3l60.1,35.3c2.1,1.2,5.5,1.2,7.6,0l59.7-35.3
												C155.7,304.3,156.3,303.5,156.3,302.7z"/>
										</g>
									</g>
								</g>
							</g>
							<g>
								<g>
									<g>
										<g>
											<path class="st1" d="M152.7,304c2.1,1.2,2.1,3.1,0.1,4.3l-58,34.2c-2,1.2-5.2,1.2-7.3,0l-58.3-34.2
												c-2-1.2-2.1-3.1-0.1-4.3l58-34.2c2-1.2,5.3-1.2,7.3,0L152.7,304z"/>
										</g>
									</g>
								</g>
							</g>
						</g>
						<g>
							<g>
								<g>
									<g>
										<path class="st2" d="M161.8,272.1l-0.1,29.6c0,0.9-0.6,1.7-1.7,2.4l-64.8,38.3c-2.2,1.3-5.9,1.3-8.2,0l-65.2-38.3
											c-1.1-0.6-1.7-1.5-1.7-2.5l0.1-29.6c0,0.9,0.6,1.8,1.7,2.5L87,312.8c2.3,1.3,6,1.3,8.2,0l64.8-38.3
											C161.2,273.9,161.8,273.1,161.8,272.1z"/>
									</g>
								</g>
							</g>
						</g>
						<g>
							<g>
								<g>
									<g>
										<path class="st3" d="M160,269.7c2.3,1.4,2.3,3.5,0.1,4.8l-64.9,38.3c-2.2,1.3-5.9,1.3-8.2,0l-65.2-38.3
											c-2.3-1.3-2.3-3.5-0.1-4.8l64.9-38.3c2.2-1.3,5.9-1.3,8.2,0L160,269.7z"/>
									</g>
								</g>
							</g>
						</g>
						<g>
							<g>
								<g>
									<g>
										<g>
											<path class="st4" d="M156.3,263.5l-0.1,9.5c0,0.9-0.6,1.6-1.6,2.2l-59.7,35.3c-2.1,1.2-5.4,1.2-7.6,0l-60.1-35.3
												c-1-0.6-1.6-1.4-1.6-2.3l0.1-9.5c0,0.9,0.6,1.7,1.6,2.3L87.4,301c2.1,1.2,5.5,1.2,7.6,0l59.7-35.3
												C155.7,265.2,156.3,264.4,156.3,263.5z"/>
										</g>
									</g>
								</g>
							</g>
							<g>
								<g>
									<g>
										<g>
											<path class="st1" d="M152.7,266c2.1,1.2,2.1,3.1,0.1,4.3l-58,34.2c-2,1.2-5.2,1.2-7.3,0l-58.3-34.2
												c-2-1.2-2.1-3.1-0.1-4.3l58-34.2c2-1.2,5.3-1.2,7.3,0L152.7,266z"/>
										</g>
									</g>
								</g>
							</g>
						</g>
						<g>
							<g>
								<g>
									<g>
										<path class="st2" d="M161.8,234.1l-0.1,29.6c0,0.9-0.6,1.7-1.7,2.4l-64.8,38.3c-2.2,1.3-5.9,1.3-8.2,0l-65.2-38.3
											c-1.1-0.6-1.7-1.5-1.7-2.5l0.1-29.6c0,0.9,0.6,1.8,1.7,2.5L87,274.8c2.3,1.3,6,1.3,8.2,0l64.8-38.3
											C161.2,235.9,161.8,235.1,161.8,234.1z"/>
									</g>
								</g>
							</g>
						</g>
						<g>
							<g>
								<g>
									<g>
										<path class="st3" d="M160,231.7c2.3,1.4,2.3,3.5,0.1,4.8l-64.9,38.3c-2.2,1.3-5.9,1.3-8.2,0l-65.2-38.3
											c-2.3-1.3-2.3-3.5-0.1-4.8l64.9-38.3c2.2-1.3,5.9-1.3,8.2,0L160,231.7z"/>
									</g>
								</g>
							</g>
						</g>
						<g>
							<g>
								<g>
									<g>
										<path class="st2" d="M91.1,266.9c-1.5,0-2.9-0.3-4.1-1l-48-28.2c-1.5-0.9-2.3-2.2-2.3-3.6c0-1.4,0.8-2.7,2.3-3.6
											l47.7-28.2c2.3-1.3,5.8-1.3,8.2,0l48,28.2c1.5,0.9,2.3,2.2,2.3,3.6c0,1.4-0.8,2.7-2.3,3.6l-47.7,28.2
											C94,266.6,92.6,266.9,91.1,266.9z"/>
									</g>
								</g>
							</g>
						</g>
					</g>
				</g>
				<g>
					<g>
						<g>
							<g>
								<path class="st5" d="M156.4,323.7l0,15L97,373.1l0-15L156.4,323.7z"/>
							</g>
						</g>
					</g>
					<g>
						<g>
							<g>
								<g>
									<g>
										<path class="st6" d="M113.4,351.9c-2,1.1-3.6,3.9-3.6,6.2c0,2.3,1.6,3.2,3.6,2c2-1.1,3.6-3.9,3.6-6.2
											C117,351.7,115.4,350.8,113.4,351.9z"/>
									</g>
								</g>
							</g>
						</g>
						<g>
							<g>
								<g>
									<path class="st7" d="M149.9,330.7c1.3-0.7,2.1-0.2,2.1,1.2l0,3.2c0,1.3-0.9,3-2.1,3.7l-25.1,14.5c-1.3,0.7-2.1,0.1-2.1-1.2
										l0-3.2c0-1.4,0.9-3,2.1-3.7L149.9,330.7z"/>
								</g>
							</g>
						</g>
					</g>
				</g>
				<g>
					<g>
						<g>
							<g>
								<path class="st5" d="M156.4,285.3l0,15L97,334.7l0-15L156.4,285.3z"/>
							</g>
						</g>
					</g>
					<g>
						<g>
							<g>
								<g>
									<g>
										<path class="st6" d="M113.4,313.6c-2,1.1-3.6,3.9-3.6,6.2c0,2.3,1.6,3.2,3.6,2c2-1.1,3.6-3.9,3.6-6.2
											C117,313.4,115.4,312.4,113.4,313.6z"/>
									</g>
								</g>
							</g>
						</g>
						<g>
							<g>
								<g>
									<path class="st7" d="M149.9,292.3c1.3-0.7,2.1-0.2,2.1,1.2l0,3.2c0,1.3-0.9,3-2.1,3.7l-25.1,14.5c-1.3,0.7-2.1,0.1-2.1-1.2
										l0-3.2c0-1.4,0.9-3,2.1-3.7L149.9,292.3z"/>
								</g>
							</g>
						</g>
					</g>
				</g>
				<g>
					<g>
						<g>
							<g>
								<path class="st5" d="M156.4,246.9l0,15L97,296.3l0-15L156.4,246.9z"/>
							</g>
						</g>
					</g>
					<g>
						<g>
							<g>
								<g>
									<g>
										<path class="st6" d="M103.1,281.1c-2,1.1-3.6,3.9-3.6,6.2c0,2.3,1.6,3.2,3.6,2c2-1.1,3.6-3.9,3.6-6.2
											C106.7,280.9,105.1,280,103.1,281.1z"/>
									</g>
								</g>
							</g>
						</g>
						<g>
							<g>
								<g>
									<g>
										<path class="st6" d="M103.1,357.9c-2,1.1-3.6,3.9-3.6,6.2c0,2.3,1.6,3.2,3.6,2c2-1.1,3.6-3.9,3.6-6.2
											C106.7,357.7,105.1,356.7,103.1,357.9z"/>
									</g>
								</g>
							</g>
						</g>
						<g>
							<g>
								<g>
									<g>
										<path class="st6" d="M103.1,319.5c-2,1.1-3.6,3.9-3.6,6.2c0,2.3,1.6,3.2,3.6,2c2-1.1,3.6-3.9,3.6-6.2
											C106.7,319.3,105.1,318.4,103.1,319.5z"/>
									</g>
								</g>
							</g>
						</g>
						<g>
							<g>
								<g>
									<g>
										<path class="st6" d="M113.4,351.9c-2,1.1-3.6,3.9-3.6,6.2c0,2.3,1.6,3.2,3.6,2c2-1.1,3.6-3.9,3.6-6.2
											C117,351.7,115.4,350.8,113.4,351.9z"/>
									</g>
								</g>
							</g>
						</g>
						<g>
							<g>
								<g>
									<g>
										<path class="st6" d="M113.4,313.6c-2,1.1-3.6,3.9-3.6,6.2c0,2.3,1.6,3.2,3.6,2c2-1.1,3.6-3.9,3.6-6.2
											C117,313.4,115.4,312.4,113.4,313.6z"/>
									</g>
								</g>
							</g>
						</g>
						<g>
							<g>
								<g>
									<g>
										<path class="st6" d="M113.4,351.9c-2,1.1-3.6,3.9-3.6,6.2c0,2.3,1.6,3.2,3.6,2c2-1.1,3.6-3.9,3.6-6.2
											C117,351.7,115.4,350.8,113.4,351.9z"/>
									</g>
								</g>
							</g>
						</g>
						<g>
							<g>
								<g>
									<g>
										<path class="st6" d="M113.4,313.6c-2,1.1-3.6,3.9-3.6,6.2c0,2.3,1.6,3.2,3.6,2c2-1.1,3.6-3.9,3.6-6.2
											C117,313.4,115.4,312.4,113.4,313.6z"/>
									</g>
								</g>
							</g>
						</g>
						<g>
							<g>
								<g>
									<g>
										<path class="st6" d="M113.4,275.2c-2,1.1-3.6,3.9-3.6,6.2c0,2.3,1.6,3.2,3.6,2c2-1.1,3.6-3.9,3.6-6.2
											S115.4,274.1,113.4,275.2z"/>
									</g>
								</g>
							</g>
						</g>
						<g>
							<g>
								<g>
									<path class="st7" d="M149.9,254c1.3-0.7,2.1-0.2,2.1,1.2l0,3.2c0,1.3-0.9,3-2.1,3.7l-25.1,14.5c-1.3,0.7-2.1,0.1-2.1-1.2
										l0-3.2c0-1.4,0.9-3,2.1-3.7L149.9,254z"/>
								</g>
							</g>
						</g>
					</g>
				</g>
			</g>
		</g>
		<g>
			<g>
				<g>
					<path class="st8" d="M36.2,252.6l0,15.5l-4.8-2.8l0-15.5L36.2,252.6z"/>
				</g>
			</g>
			<g>
				<g>
					<path class="st8" d="M44.7,257.5l0,15.5l-4.8-2.8l0-15.5L44.7,257.5z"/>
				</g>
			</g>
			<g>
				<g>
					<path class="st8" d="M53.2,262.4l0,15.5l-4.8-2.8l0-15.5L53.2,262.4z"/>
				</g>
			</g>
			<g>
				<g>
					<path class="st8" d="M61.7,267.3l0,15.5l-4.8-2.8l0-15.5L61.7,267.3z"/>
				</g>
			</g>
			<g>
				<g>
					<path class="st8" d="M70.2,272.2l0,15.5l-4.8-2.8l0-15.5L70.2,272.2z"/>
				</g>
			</g>
			<g>
				<g>
					<path class="st8" d="M78.7,277.1l0,15.5l-4.8-2.8l0-15.5L78.7,277.1z"/>
				</g>
			</g>
		</g>
		<g>
			<g>
				<g>
					<path class="st8" d="M36.2,290.5l0,15.5l-4.8-2.8l0-15.5L36.2,290.5z"/>
				</g>
			</g>
			<g>
				<g>
					<path class="st8" d="M44.7,295.4l0,15.5l-4.8-2.8l0-15.5L44.7,295.4z"/>
				</g>
			</g>
			<g>
				<g>
					<path class="st8" d="M53.2,300.3l0,15.5l-4.8-2.8l0-15.5L53.2,300.3z"/>
				</g>
			</g>
			<g>
				<g>
					<path class="st8" d="M61.7,305.2l0,15.5l-4.8-2.8l0-15.5L61.7,305.2z"/>
				</g>
			</g>
			<g>
				<g>
					<path class="st8" d="M70.2,310.2l0,15.5l-4.8-2.8l0-15.5L70.2,310.2z"/>
				</g>
			</g>
			<g>
				<g>
					<path class="st8" d="M78.7,315.1l0,15.5l-4.8-2.8l0-15.5L78.7,315.1z"/>
				</g>
			</g>
		</g>
		<g>
			<g>
				<g>
					<path class="st8" d="M36.2,329.3l0,15.5l-4.8-2.8l0-15.5L36.2,329.3z"/>
				</g>
			</g>
			<g>
				<g>
					<path class="st8" d="M44.7,334.2l0,15.5l-4.8-2.8l0-15.5L44.7,334.2z"/>
				</g>
			</g>
			<g>
				<g>
					<path class="st8" d="M53.2,339.1l0,15.5l-4.8-2.8l0-15.5L53.2,339.1z"/>
				</g>
			</g>
			<g>
				<g>
					<path class="st8" d="M61.7,344l0,15.5l-4.8-2.8l0-15.5L61.7,344z"/>
				</g>
			</g>
			<g>
				<g>
					<path class="st8" d="M70.2,348.9l0,15.5l-4.8-2.8l0-15.5L70.2,348.9z"/>
				</g>
			</g>
			<g>
				<g>
					<path class="st8" d="M78.7,353.9l0,15.5l-4.8-2.8l0-15.5L78.7,353.9z"/>
				</g>
			</g>
		</g>
	</g>
	<g>
		<g>
			<g>
				<g>
					<path class="st0" d="M145.4,385.8c-1.7,0-3.4-0.4-4.8-1.2L125,376c-0.7-0.4-1-1.3-0.6-2c0.4-0.7,1.3-1,2-0.6l15.6,8.6
						c1.8,1.1,4.8,1.1,6.6,0.1l111.3-65.6c0.7-0.4,1.6-0.2,2,0.5c0.4,0.7,0.2,1.6-0.5,2l-111.3,65.6
						C148.8,385.4,147.1,385.8,145.4,385.8z"/>
				</g>
				<g>
					<path class="st0" d="M149.4,384.9c-0.5,0-1-0.3-1.3-0.7c-0.4-0.7-0.2-1.6,0.5-2L376,247.9c0.6-0.3,0.9-0.7,0.9-1
						c0-0.3-0.3-0.7-1-1.1l-15.6-8.6c-0.7-0.4-1-1.3-0.6-2c0.4-0.7,1.3-1,2-0.6l15.6,8.6c1.6,0.9,2.5,2.2,2.5,3.7
						c0,1.4-0.8,2.7-2.4,3.6L150.1,384.7C149.9,384.8,149.7,384.9,149.4,384.9z"/>
				</g>
			</g>
		</g>
	</g>
	<g>
		<g>
			<path class="st0" d="M315.1,362.3c-0.3,0-0.5-0.1-0.7-0.2l-64.1-37.6c-0.7-0.4-0.9-1.3-0.5-2c0.4-0.7,1.3-0.9,2-0.5l64.1,37.6
				c0.7,0.4,0.9,1.3,0.5,2C316.1,362,315.6,362.3,315.1,362.3z"/>
		</g>
	</g>
</g>
<g>
	<path class="st5" d="M102.4,239.8c-1.2,0.7-2.6,1.3-4,1.7c-1.1,0.3-2.3,0.6-3.5,0.8c-0.6,0.1-1.2,0.1-1.8,0.2
		c-3.2,0.3-6.6-0.1-9.5-1c-1.4-0.4-2.8-1-4-1.7c-6.3-3.6-6.4-9.6-0.1-13.2c1.2-0.7,2.6-1.3,4.1-1.7c3-0.9,6.3-1.2,9.5-0.9
		c0.6,0,1.2,0.1,1.8,0.2c1.2,0.2,2.4,0.4,3.5,0.8c1.4,0.4,2.8,1,4,1.7C108.6,230.2,108.7,236.1,102.4,239.8z"/>
</g>
<g class="st9">
	<path class="st10" d="M54,193.2l21,41.7c0,0.1,0.1,0.2,0.2,0.2c0.6,1.7,2,3.3,4.3,4.7c1.2,0.7,2.6,1.3,4,1.7c3,0.9,6.4,1.3,9.6,1
		c0.6-0.1,1.2-0.1,1.8-0.2c1.2-0.2,2.3-0.5,3.5-0.8c1.4-0.4,2.8-1,4.1-1.7c2.3-1.3,3.7-3,4.3-4.7c0.1-0.1,0.1-0.1,0.1-0.2l21-41.8
		H54z"/>
</g>
<g>
	<path class="st5" d="M218.5,170.1c-1.2,0.7-2.6,1.3-4,1.7c-1.1,0.3-2.3,0.6-3.5,0.8c-0.6,0.1-1.2,0.1-1.8,0.2
		c-3.2,0.3-6.6-0.1-9.5-1c-1.4-0.4-2.8-1-4-1.7c-6.3-3.6-6.4-9.6-0.1-13.2c1.2-0.7,2.6-1.3,4.1-1.7c3-0.9,6.3-1.2,9.5-0.9
		c0.6,0,1.2,0.1,1.8,0.2c1.2,0.2,2.4,0.4,3.5,0.8c1.4,0.4,2.8,1,4,1.7C224.8,160.5,224.8,166.4,218.5,170.1z"/>
</g>
<g class="st9">
	<path class="st10" d="M170.2,123.5l21,41.7c0,0.1,0.1,0.2,0.2,0.2c0.6,1.7,2,3.3,4.3,4.7c1.2,0.7,2.6,1.3,4,1.7
		c3,0.9,6.4,1.3,9.6,1c0.6-0.1,1.2-0.1,1.8-0.2c1.2-0.2,2.3-0.5,3.5-0.8c1.4-0.4,2.8-1,4.1-1.7c2.3-1.3,3.7-3,4.3-4.7
		c0.1-0.1,0.1-0.1,0.1-0.2l21-41.8H170.2z"/>
</g>
<g>
	<path class="st5" d="M334.7,103.8c-1.2,0.7-2.6,1.3-4,1.7c-1.1,0.3-2.3,0.6-3.5,0.8c-0.6,0.1-1.2,0.1-1.8,0.2
		c-3.2,0.3-6.6-0.1-9.5-1c-1.4-0.4-2.8-1-4-1.7c-6.3-3.6-6.4-9.6-0.1-13.2c1.2-0.7,2.6-1.3,4.1-1.7c3-0.9,6.3-1.2,9.5-0.9
		c0.6,0,1.2,0.1,1.8,0.2c1.2,0.2,2.4,0.4,3.5,0.8c1.4,0.4,2.8,1,4,1.7C341,94.2,341,100.2,334.7,103.8z"/>
</g>
<g class="st9">
	<path class="st10" d="M286.3,57.2l21,41.7c0,0.1,0.1,0.2,0.2,0.2c0.6,1.7,2,3.3,4.3,4.7c1.2,0.7,2.6,1.3,4,1.7c3,0.9,6.4,1.3,9.6,1
		c0.6-0.1,1.2-0.1,1.8-0.2c1.2-0.2,2.3-0.5,3.5-0.8c1.4-0.4,2.8-1,4.1-1.7c2.3-1.3,3.7-3,4.3-4.7c0.1-0.1,0.1-0.1,0.1-0.2l21-41.8
		H286.3z"/>
</g>
<g>
	<g>
		<g>
			<g>
				<g class="st11">
					<g>
						<g>
							<path class="st2" d="M286.7,429.3l-10.4,6l-18,1.3l-0.4-1.8l17-1.3l10.4-6C285.7,428.1,286.2,428.7,286.7,429.3z"/>
						</g>
					</g>
					<g>
						<g>
							<path class="st2" d="M293.7,435.9l-31.8,18.4l-34.9-1.5l-0.5-1.8l33.8,1.6l31.5-18.2C292.4,434.9,293,435.5,293.7,435.9z"/>
						</g>
					</g>
					<g>
						<g>
							<path class="st2" d="M323.8,450.6l-9.8,5.7l-2.3,9.8l-3-0.2l2.4-10.5l9.7-5.7h0.1C321.9,450.1,322.8,450.3,323.8,450.6z"/>
						</g>
					</g>
					<g>
						<g>
							<path class="st2" d="M302.1,441.7l-49.6,28.7l-2.1-1.3l49.7-28.7c0.6,0.4,1.2,0.7,1.9,1.1C302,441.6,302,441.7,302.1,441.7z"
								/>
						</g>
					</g>
					<g>
						<g>
							<path class="st2" d="M309.7,445.5c0.8,0.4,1.7,0.8,2.6,1.1l-25.4,14.7l-6.2,24.7l-3.1-0.3l6.4-25v-0.3L309.7,445.5z"/>
						</g>
					</g>
				</g>
				<g class="st11">
					<g>
						<g>
							<path class="st2" d="M408.9,350.1l-2.4,10.5l-9.2,5.3c-1-0.3-2-0.6-3-0.9l9.2-5.3l2.3-9.8L408.9,350.1z"/>
						</g>
					</g>
					<g>
						<g>
							<path class="st2" d="M443,328.6l-6.4,25v0.3l-28.1,16.2c-0.8-0.4-1.7-0.7-2.6-1.1l27.7-16l6.3-24.8L443,328.6z"/>
						</g>
					</g>
					<g>
						<g>
							<path class="st2" d="M470.2,345.2l-52.1,30.1c-0.6-0.5-1.2-0.8-1.9-1.2c-0.1,0-0.1-0.1-0.1-0.1l52-30L470.2,345.2z"/>
						</g>
					</g>
					<g>
						<g>
							<path class="st2" d="M488.5,358.1l-25.9,2.2l-36.4,20.9c-0.5-0.5-1.1-0.9-1.8-1.5l36.7-21.2l26.8-2.2L488.5,358.1z"/>
						</g>
					</g>
					<g>
						<g>
							<path class="st2" d="M459.7,381.2l-17,1.3l-9.8,5.7c-0.5-0.6-0.9-1.1-1.4-1.7l9.8-5.7l18.1-1.4L459.7,381.2z"/>
						</g>
					</g>
				</g>
			</g>
		</g>
	</g>
	<g>
		<g>
			<g>
				<g>
					<path class="st2" d="M358.8,455.2c-20.6,0-41.3-4.5-56.9-13.7c-15.3-8.9-23.8-20.8-23.8-33.6c0-12.9,8.6-24.9,24.2-33.9
						c31.5-18.2,82.6-18.2,113.8,0C431.6,383,440,395,440,407.8c0,12.8-8.6,24.9-24.1,33.8C400.1,450.7,379.5,455.2,358.8,455.2z
						 M303.3,375.4l0.7,1.2c-14.6,8.5-22.7,19.6-22.7,31.4c0,11.7,7.9,22.8,22.3,31.1c30.4,17.7,80.1,17.7,110.7,0
						c14.6-8.4,22.7-19.6,22.7-31.4c0-11.7-7.9-22.8-22.4-31.2c-30.4-17.7-80-17.7-110.6,0L303.3,375.4z"/>
				</g>
			</g>
		</g>
	</g>
	<g>
		<path class="st6" d="M410.1,353c-0.3,0.2-0.7,0.3-1.1,0.5c-0.3,0.1-0.6,0.2-0.9,0.2c-0.2,0-0.3,0-0.5,0c-0.9,0.1-1.8,0-2.6-0.3
			c-0.4-0.1-0.7-0.3-1.1-0.5c-1.7-1-1.7-2.6,0-3.5c0.3-0.2,0.7-0.3,1.1-0.5c0.8-0.2,1.7-0.3,2.6-0.3c0.2,0,0.3,0,0.5,0.1
			c0.3,0,0.6,0.1,0.9,0.2c0.4,0.1,0.7,0.3,1.1,0.5C411.8,350.5,411.8,352.1,410.1,353z"/>
	</g>
	<g>
		<path class="st6" d="M444.1,330.1c-0.3,0.2-0.7,0.3-1.1,0.5c-0.3,0.1-0.6,0.2-0.9,0.2c-0.2,0-0.3,0-0.5,0c-0.9,0.1-1.8,0-2.6-0.3
			c-0.4-0.1-0.7-0.3-1.1-0.5c-1.7-1-1.7-2.6,0-3.5c0.3-0.2,0.7-0.3,1.1-0.5c0.8-0.2,1.7-0.3,2.6-0.3c0.2,0,0.3,0,0.5,0.1
			c0.3,0,0.6,0.1,0.9,0.2c0.4,0.1,0.7,0.3,1.1,0.5C445.7,327.6,445.8,329.2,444.1,330.1z"/>
	</g>
	<g>
		<path class="st6" d="M472.5,345.3c-0.3,0.2-0.7,0.3-1.1,0.5c-0.3,0.1-0.6,0.2-0.9,0.2c-0.2,0-0.3,0-0.5,0c-0.9,0.1-1.8,0-2.6-0.3
			c-0.4-0.1-0.7-0.3-1.1-0.5c-1.7-1-1.7-2.6,0-3.5c0.3-0.2,0.7-0.3,1.1-0.5c0.8-0.2,1.7-0.3,2.6-0.3c0.2,0,0.3,0,0.5,0.1
			c0.3,0,0.6,0.1,0.9,0.2c0.4,0.1,0.7,0.3,1.1,0.5C474.2,342.7,474.2,344.3,472.5,345.3z"/>
	</g>
	<g>
		<path class="st6" d="M490.9,358.4c-0.3,0.2-0.7,0.3-1.1,0.5c-0.3,0.1-0.6,0.2-0.9,0.2c-0.2,0-0.3,0-0.5,0c-0.9,0.1-1.8,0-2.6-0.3
			c-0.4-0.1-0.7-0.3-1.1-0.5c-1.7-1-1.7-2.6,0-3.5c0.3-0.2,0.7-0.3,1.1-0.5c0.8-0.2,1.7-0.3,2.6-0.3c0.2,0,0.3,0,0.5,0.1
			c0.3,0,0.6,0.1,0.9,0.2c0.4,0.1,0.7,0.3,1.1,0.5C492.6,355.8,492.6,357.4,490.9,358.4z"/>
	</g>
	<g>
		<path class="st6" d="M461.9,381.9c-0.3,0.2-0.7,0.3-1.1,0.5c-0.3,0.1-0.6,0.2-0.9,0.2c-0.2,0-0.3,0-0.5,0c-0.9,0.1-1.8,0-2.6-0.3
			c-0.4-0.1-0.7-0.3-1.1-0.5c-1.7-1-1.7-2.6,0-3.5c0.3-0.2,0.7-0.3,1.1-0.5c0.8-0.2,1.7-0.3,2.6-0.3c0.2,0,0.3,0,0.5,0.1
			c0.3,0,0.6,0.1,0.9,0.2c0.4,0.1,0.7,0.3,1.1,0.5C463.6,379.3,463.6,380.9,461.9,381.9z"/>
	</g>
	<g>
		<path class="st6" d="M261,437.7c-0.3,0.2-0.7,0.3-1.1,0.5c-0.3,0.1-0.6,0.2-0.9,0.2c-0.2,0-0.3,0-0.5,0c-0.9,0.1-1.8,0-2.6-0.3
			c-0.4-0.1-0.7-0.3-1.1-0.5c-1.7-1-1.7-2.6,0-3.5c0.3-0.2,0.7-0.3,1.1-0.5c0.8-0.2,1.7-0.3,2.6-0.3c0.2,0,0.3,0,0.5,0.1
			c0.3,0,0.6,0.1,0.9,0.2c0.4,0.1,0.7,0.3,1.1,0.5C262.7,435.2,262.7,436.7,261,437.7z"/>
	</g>
	<g>
		<path class="st6" d="M230.2,453.8c-0.3,0.2-0.7,0.3-1.1,0.5c-0.3,0.1-0.6,0.2-0.9,0.2c-0.2,0-0.3,0-0.5,0c-0.9,0.1-1.8,0-2.6-0.3
			c-0.4-0.1-0.7-0.3-1.1-0.5c-1.7-1-1.7-2.6,0-3.5c0.3-0.2,0.7-0.3,1.1-0.5c0.8-0.2,1.7-0.3,2.6-0.3c0.2,0,0.3,0,0.5,0.1
			c0.3,0,0.6,0.1,0.9,0.2c0.4,0.1,0.7,0.3,1.1,0.5C231.9,451.2,231.9,452.8,230.2,453.8z"/>
	</g>
	<g>
		<path class="st6" d="M254.3,471.4c-0.3,0.2-0.7,0.3-1.1,0.5c-0.3,0.1-0.6,0.2-0.9,0.2c-0.2,0-0.3,0-0.5,0c-0.9,0.1-1.8,0-2.6-0.3
			c-0.4-0.1-0.7-0.3-1.1-0.5c-1.7-1-1.7-2.6,0-3.5c0.3-0.2,0.7-0.3,1.1-0.5c0.8-0.2,1.7-0.3,2.6-0.3c0.2,0,0.3,0,0.5,0.1
			c0.3,0,0.6,0.1,0.9,0.2c0.4,0.1,0.7,0.3,1.1,0.5C256,468.8,256,470.4,254.3,471.4z"/>
	</g>
	<g>
		<path class="st6" d="M281.9,487.1c-0.3,0.2-0.7,0.3-1.1,0.5c-0.3,0.1-0.6,0.2-0.9,0.2c-0.2,0-0.3,0-0.5,0c-0.9,0.1-1.8,0-2.6-0.3
			c-0.4-0.1-0.7-0.3-1.1-0.5c-1.7-1-1.7-2.6,0-3.5c0.3-0.2,0.7-0.3,1.1-0.5c0.8-0.2,1.7-0.3,2.6-0.3c0.2,0,0.3,0,0.5,0.1
			c0.3,0,0.6,0.1,0.9,0.2c0.4,0.1,0.7,0.3,1.1,0.5C283.6,484.5,283.6,486.1,281.9,487.1z"/>
	</g>
	<g>
		<path class="st6" d="M312.4,467.9c-0.3,0.2-0.7,0.3-1.1,0.5c-0.3,0.1-0.6,0.2-0.9,0.2c-0.2,0-0.3,0-0.5,0c-0.9,0.1-1.8,0-2.6-0.3
			c-0.4-0.1-0.7-0.3-1.1-0.5c-1.7-1-1.7-2.6,0-3.5c0.3-0.2,0.7-0.3,1.1-0.5c0.8-0.2,1.7-0.3,2.6-0.3c0.2,0,0.3,0,0.5,0.1
			c0.3,0,0.6,0.1,0.9,0.2c0.4,0.1,0.7,0.3,1.1,0.5C314.1,465.3,314.1,466.9,312.4,467.9z"/>
	</g>
	<g>
		<g>
			<g>
				<g class="st11">
					<g>
						<g>
							<path class="st2" d="M428.3,429.3l10.4,6l18,1.3l0.4-1.8l-17-1.3l-10.4-6C429.3,428.1,428.8,428.7,428.3,429.3z"/>
						</g>
					</g>
					<g>
						<g>
							<path class="st2" d="M421.4,435.9l31.8,18.4l34.9-1.5l0.5-1.8l-33.8,1.6l-31.5-18.2C422.6,434.9,422,435.5,421.4,435.9z"/>
						</g>
					</g>
					<g>
						<g>
							<path class="st2" d="M391.2,450.6l9.8,5.7l2.3,9.8l3-0.2l-2.4-10.5l-9.7-5.7h-0.1C393.1,450.1,392.2,450.3,391.2,450.6z"/>
						</g>
					</g>
					<g>
						<g>
							<path class="st2" d="M413,441.7l49.6,28.7l2.1-1.3L415,440.4c-0.6,0.4-1.2,0.7-1.9,1.1C413,441.6,413,441.7,413,441.7z"/>
						</g>
					</g>
					<g>
						<g>
							<path class="st2" d="M405.3,445.5c-0.8,0.4-1.7,0.8-2.6,1.1l25.4,14.7l6.2,24.7l3.1-0.3l-6.4-25v-0.3L405.3,445.5z"/>
						</g>
					</g>
				</g>
			</g>
		</g>
	</g>
	<g>
		<path class="st6" d="M454,437.7c0.3,0.2,0.7,0.3,1.1,0.5c0.3,0.1,0.6,0.2,0.9,0.2c0.2,0,0.3,0,0.5,0c0.9,0.1,1.8,0,2.6-0.3
			c0.4-0.1,0.7-0.3,1.1-0.5c1.7-1,1.7-2.6,0-3.5c-0.3-0.2-0.7-0.3-1.1-0.5c-0.8-0.2-1.7-0.3-2.6-0.3c-0.2,0-0.3,0-0.5,0.1
			c-0.3,0-0.6,0.1-0.9,0.2c-0.4,0.1-0.7,0.3-1.1,0.5C452.4,435.2,452.4,436.7,454,437.7z"/>
	</g>
	<g>
		<path class="st6" d="M484.8,453.8c0.3,0.2,0.7,0.3,1.1,0.5c0.3,0.1,0.6,0.2,0.9,0.2c0.2,0,0.3,0,0.5,0c0.9,0.1,1.8,0,2.6-0.3
			c0.4-0.1,0.7-0.3,1.1-0.5c1.7-1,1.7-2.6,0-3.5c-0.3-0.2-0.7-0.3-1.1-0.5c-0.8-0.2-1.7-0.3-2.6-0.3c-0.2,0-0.3,0-0.5,0.1
			c-0.3,0-0.6,0.1-0.9,0.2c-0.4,0.1-0.7,0.3-1.1,0.5C483.1,451.2,483.1,452.8,484.8,453.8z"/>
	</g>
	<g>
		<path class="st6" d="M460.7,471.4c0.3,0.2,0.7,0.3,1.1,0.5c0.3,0.1,0.6,0.2,0.9,0.2c0.2,0,0.3,0,0.5,0c0.9,0.1,1.8,0,2.6-0.3
			c0.4-0.1,0.7-0.3,1.1-0.5c1.7-1,1.7-2.6,0-3.5c-0.3-0.2-0.7-0.3-1.1-0.5c-0.8-0.2-1.7-0.3-2.6-0.3c-0.2,0-0.3,0-0.5,0.1
			c-0.3,0-0.6,0.1-0.9,0.2c-0.4,0.1-0.7,0.3-1.1,0.5C459.1,468.8,459,470.4,460.7,471.4z"/>
	</g>
	<g>
		<path class="st6" d="M433.2,487.1c0.3,0.2,0.7,0.3,1.1,0.5c0.3,0.1,0.6,0.2,0.9,0.2c0.2,0,0.3,0,0.5,0c0.9,0.1,1.8,0,2.6-0.3
			c0.4-0.1,0.7-0.3,1.1-0.5c1.7-1,1.7-2.6,0-3.5c-0.3-0.2-0.7-0.3-1.1-0.5c-0.8-0.2-1.7-0.3-2.6-0.3c-0.2,0-0.3,0-0.5,0.1
			c-0.3,0-0.6,0.1-0.9,0.2c-0.4,0.1-0.7,0.3-1.1,0.5C431.5,484.5,431.5,486.1,433.2,487.1z"/>
	</g>
	<g>
		<path class="st6" d="M402.6,467.9c0.3,0.2,0.7,0.3,1.1,0.5c0.3,0.1,0.6,0.2,0.9,0.2c0.2,0,0.3,0,0.5,0c0.9,0.1,1.8,0,2.6-0.3
			c0.4-0.1,0.7-0.3,1.1-0.5c1.7-1,1.7-2.6,0-3.5c-0.3-0.2-0.7-0.3-1.1-0.5c-0.8-0.2-1.7-0.3-2.6-0.3c-0.2,0-0.3,0-0.5,0.1
			c-0.3,0-0.6,0.1-0.9,0.2c-0.4,0.1-0.7,0.3-1.1,0.5C400.9,465.3,400.9,466.9,402.6,467.9z"/>
	</g>
</g>
<g>
	<g>
		<g>
			<g>
				<g class="st11">
					<g>
						<g>
							<path class="st10" d="M433.7,362.9l-0.1,32.2c-0.1,11.2-7.4,22.4-22.1,30.9c-29.6,17.2-77.8,17.2-107.7,0
								c-15-8.7-22.5-20-22.5-31.4l0.1-32.1L433.7,362.9z"/>
						</g>
						<g>
							<path class="st12" d="M357.7,435.2c-19.7,0-38.1-4.4-52-12.4c-13.3-7.7-20.6-17.6-20.6-28.1l0-11.5c4.1,5.2,9.7,9.9,16.8,14
								c15,8.7,34.8,13.4,55.8,13.4c21,0,40.8-4.8,55.7-13.4c6.8-4,12.3-8.6,16.3-13.6l0,11.5c0,10.3-7.2,20.1-20.2,27.7
								C395.7,430.8,377.3,435.2,357.7,435.2C357.7,435.2,357.7,435.2,357.7,435.2z"/>
						</g>
					</g>
					<g>
						<g>
							<path class="st13" d="M411.2,331.6c29.8,17.2,30,45.1,0.4,62.4c-29.6,17.2-77.8,17.2-107.7,0c-29.8-17.2-30-45.1-0.4-62.4
								C333.1,314.3,381.3,314.3,411.2,331.6z"/>
						</g>
					</g>
				</g>
			</g>
		</g>
	</g>
</g>
<g>
	<g>
		<path class="st10" d="M401.7,363.3c-1.9,4.5-5.9,8.7-11.9,12.2c-17.7,10.3-46.6,10.3-64.4,0c-6.2-3.6-10.2-7.9-12.1-12.5
			c-3.6-8.6,0.3-18.1,11.9-24.8c17.7-10.3,46.6-10.3,64.4,0C401.4,345,405.4,354.6,401.7,363.3z"/>
	</g>
</g>
<g>
	<path class="st5" d="M373.1,369.7c-1.7,1-3.5,1.8-5.5,2.3c-1.5,0.5-3.1,0.8-4.7,1c-0.8,0.1-1.6,0.2-2.4,0.2c-4.4,0.4-9-0.1-13-1.3
		c-2-0.6-3.8-1.3-5.4-2.3c-8.6-5-8.7-13.1-0.1-18.1c1.7-1,3.6-1.8,5.6-2.4c4-1.2,8.6-1.6,13-1.3c0.8,0,1.6,0.1,2.4,0.3
		c1.6,0.2,3.2,0.6,4.7,1.1c2,0.6,3.8,1.3,5.4,2.3C381.7,356.6,381.7,364.7,373.1,369.7z"/>
</g>
<g class="st9">
	<path class="st12" d="M307.2,306.1l28.6,56.9c0,0.1,0.1,0.2,0.2,0.3c0.8,2.4,2.8,4.5,5.9,6.4c1.7,0.9,3.5,1.8,5.5,2.3
		c4.1,1.2,8.7,1.8,13.1,1.3c0.8-0.1,1.7-0.1,2.5-0.2c1.7-0.3,3.2-0.6,4.7-1.1c2-0.5,3.8-1.3,5.6-2.3c3.1-1.8,5.1-4,5.9-6.4
		c0.1-0.1,0.1-0.1,0.1-0.2l28.6-57H307.2z"/>
</g>
<g>
	<g id="OBJECTS">
		<g>
			<polygon class="st14" points="315.5,321.2 322.4,330.8 318.7,330.3 311.7,320.8 			"/>
			
				<linearGradient id="SVGID_1_" gradientUnits="userSpaceOnUse" x1="531.213" y1="109.6393" x2="609.648" y2="177.6967" gradientTransform="matrix(1 0 0 -1 -203.7553 454.9268)">
				<stop  offset="0" style="stop-color:#D13F05"/>
				<stop  offset="0.2925" style="stop-color:#F67205"/>
				<stop  offset="0.3667" style="stop-color:#F67705"/>
				<stop  offset="0.4526" style="stop-color:#F68505"/>
				<stop  offset="0.5441" style="stop-color:#F69C05"/>
				<stop  offset="0.5638" style="stop-color:#F6A205"/>
				<stop  offset="0.5977" style="stop-color:#F69005"/>
				<stop  offset="0.6432" style="stop-color:#F67F05"/>
				<stop  offset="0.6931" style="stop-color:#F67505"/>
				<stop  offset="0.7553" style="stop-color:#F67205"/>
				<stop  offset="1" style="stop-color:#D13F05"/>
			</linearGradient>
			<path class="st15" d="M395.4,264.1c2.3,3.2,4.6,6.4,7,9.6c4.7,6.6,7.2,14.5,7.1,22.6l-7-9.6C402.6,278.6,400.1,270.7,395.4,264.1
				z"/>
			<polygon class="st16" points="402.5,286.7 409.5,296.3 406,298.9 399,289.3 			"/>
			<polygon class="st14" points="367.2,333.6 374.2,343.1 372.7,345.6 365.7,336 			"/>
			
				<linearGradient id="SVGID_2_" gradientUnits="userSpaceOnUse" x1="533.6785" y1="106.8048" x2="612.1094" y2="174.8587" gradientTransform="matrix(1 0 0 -1 -203.7553 454.9268)">
				<stop  offset="0" style="stop-color:#D13F05"/>
				<stop  offset="0.2925" style="stop-color:#F67205"/>
				<stop  offset="0.3667" style="stop-color:#F67705"/>
				<stop  offset="0.4526" style="stop-color:#F68505"/>
				<stop  offset="0.5441" style="stop-color:#F69C05"/>
				<stop  offset="0.5638" style="stop-color:#F6A205"/>
				<stop  offset="0.5977" style="stop-color:#F69005"/>
				<stop  offset="0.6432" style="stop-color:#F67F05"/>
				<stop  offset="0.6931" style="stop-color:#F67505"/>
				<stop  offset="0.7553" style="stop-color:#F67205"/>
				<stop  offset="1" style="stop-color:#D13F05"/>
			</linearGradient>
			<path class="st17" d="M365.7,336l7,9.6c-10,3.9-20.9,4.6-31.3,1.8c-7.3-2-13.9-6.1-18.9-11.8l-7-9.6c5,5.7,11.6,9.8,18.9,11.8
				C344.8,340.5,355.8,339.9,365.7,336z"/>
			<polygon class="st18" points="369.8,334.3 376.7,343.9 374.2,343.1 367.2,333.6 			"/>
			
				<linearGradient id="SVGID_3_" gradientUnits="userSpaceOnUse" x1="544.6931" y1="94.1104" x2="623.1251" y2="162.1653" gradientTransform="matrix(1 0 0 -1 -203.7553 454.9268)">
				<stop  offset="0" style="stop-color:#D13F05"/>
				<stop  offset="0.2925" style="stop-color:#F67205"/>
				<stop  offset="0.3667" style="stop-color:#F67705"/>
				<stop  offset="0.4526" style="stop-color:#F68505"/>
				<stop  offset="0.5441" style="stop-color:#F69C05"/>
				<stop  offset="0.5638" style="stop-color:#F6A205"/>
				<stop  offset="0.5977" style="stop-color:#F69005"/>
				<stop  offset="0.6432" style="stop-color:#F67F05"/>
				<stop  offset="0.6931" style="stop-color:#F67505"/>
				<stop  offset="0.7553" style="stop-color:#F67205"/>
				<stop  offset="1" style="stop-color:#D13F05"/>
			</linearGradient>
			<path class="st19" d="M402.4,290.3l7,9.6c-0.5,5.5-1.9,10.9-4.3,15.9c-5.8,12.4-15.9,22.4-28.4,28.1l-7-9.6
				c12.5-5.7,22.5-15.7,28.4-28.1C400.5,301.2,401.9,295.8,402.4,290.3z"/>
			
				<linearGradient id="SVGID_4_" gradientUnits="userSpaceOnUse" x1="515.6741" y1="125.4986" x2="602.3113" y2="195.9668" gradientTransform="matrix(1 0 0 -1 -203.7553 454.9268)">
				<stop  offset="0" style="stop-color:#FFFFFF;stop-opacity:0"/>
				<stop  offset="0.2606" style="stop-color:#FFFFFF"/>
				<stop  offset="0.7553" style="stop-color:#FFFFFF"/>
				<stop  offset="1" style="stop-color:#FFFFFF;stop-opacity:0"/>
			</linearGradient>
			<path class="st20" d="M402.8,290.8c-0.5,5.5-1.9,10.9-4.3,15.9c-5.8,12.4-15.9,22.4-28.4,28.1l-2.5-0.7l-1.5,2.4
				c-10,3.9-20.9,4.6-31.3,1.8c-7.3-2-13.9-6.1-18.9-11.8l-0.1-4.8l-3.7-0.5c-6.4-10.9-7.2-25.2-0.9-39.1c1.9-4.1,4.3-8,7.1-11.6
				c1.5-0.7,3-1.4,4.4-2.3l0.6-3.2c11.8-11.4,28.2-17.6,43.7-16.1l3.4,2.7l9.4,0.5c14.6,6.1,23,19.7,23,35.1l-3.5,2.6L402.8,290.8z"
				/>
			
				<linearGradient id="SVGID_5_" gradientUnits="userSpaceOnUse" x1="591.7757" y1="146.873" x2="503.9046" y2="183.9912" gradientTransform="matrix(1 0 0 -1 -203.7553 454.9268)">
				<stop  offset="0" style="stop-color:#FFAF02"/>
				<stop  offset="1" style="stop-color:#F56D05"/>
			</linearGradient>
			<path class="st21" d="M402.4,290.3c-0.5,5.5-1.9,10.9-4.3,15.9c-5.8,12.4-15.9,22.4-28.4,28.1l-2.5-0.7l-1.5,2.4
				c-10,3.9-20.9,4.6-31.3,1.8c-7.3-2-13.9-6.1-18.9-11.8l-0.1-4.8l-3.7-0.5c-6.4-10.9-7.2-25.2-0.9-39.1c1.9-4.1,4.3-8,7.1-11.6
				c1.5-0.7,3-1.4,4.4-2.3l0.6-3.2c11.8-11.4,28.2-17.6,43.7-16.1l3.4,2.7l9.4,0.5c14.6,6.1,23,19.7,23,35.1l-3.5,2.6L402.4,290.3z"
				/>
			
				<linearGradient id="SVGID_6_" gradientUnits="userSpaceOnUse" x1="526.093" y1="191.1259" x2="577.0933" y2="142.3777" gradientTransform="matrix(1 0 0 -1 -203.7553 454.9268)">
				<stop  offset="0" style="stop-color:#FFFFFF;stop-opacity:0"/>
				<stop  offset="0.2606" style="stop-color:#FFFFFF"/>
				<stop  offset="0.7553" style="stop-color:#FFFFFF"/>
				<stop  offset="1" style="stop-color:#FFFFFF;stop-opacity:0"/>
			</linearGradient>
			<path class="st22" d="M368.2,261.7c17.5,4.9,25.2,23.3,17.1,40.9c-8.1,17.7-28.8,28-46.4,23c-17.5-4.9-25.2-23.3-17.1-40.9
				S350.7,256.8,368.2,261.7z"/>
			
				<linearGradient id="SVGID_7_" gradientUnits="userSpaceOnUse" x1="523.3013" y1="161.0433" x2="593.2337" y2="161.0433" gradientTransform="matrix(1 0 0 -1 -203.7553 454.9268)">
				<stop  offset="0" style="stop-color:#CF4505"/>
				<stop  offset="1" style="stop-color:#E45905"/>
			</linearGradient>
			<path class="st23" d="M369.1,261.9c17.5,4.9,25.2,23.3,17.1,40.9c-8.1,17.7-28.8,28-46.4,23c-17.5-4.9-25.2-23.3-17.1-40.9
				C330.8,267.3,351.6,257,369.1,261.9z"/>
			<path class="st24" d="M342.7,326.4c-17.5-4.9-25.2-23.3-17.1-40.9c7.5-16.4,25.8-26.4,42.4-23.9c-17.3-4.2-37.3,6.1-45.2,23.3
				c-8.1,17.7-0.4,36,17.1,40.9c1.3,0.4,2.6,0.6,3.9,0.8C343.4,326.6,343.1,326.5,342.7,326.4z"/>
			
				<radialGradient id="SVGID_8_" cx="685.9651" cy="-278.0174" r="26.1482" gradientTransform="matrix(7.290000e-02 7.410000e-02 0.4921 -0.4845 472.0643 138.2714)" gradientUnits="userSpaceOnUse">
				<stop  offset="0" style="stop-color:#FFFFFF"/>
				<stop  offset="8.578000e-02" style="stop-color:#FFFFFF;stop-opacity:0.9583"/>
				<stop  offset="0.2351" style="stop-color:#FFFFFF;stop-opacity:0.8462"/>
				<stop  offset="0.4301" style="stop-color:#FFFFFF;stop-opacity:0.6642"/>
				<stop  offset="0.6634" style="stop-color:#FFFFFF;stop-opacity:0.4119"/>
				<stop  offset="0.9261" style="stop-color:#FFFFFF;stop-opacity:9.449000e-02"/>
				<stop  offset="1" style="stop-color:#FFFFFF;stop-opacity:0"/>
			</radialGradient>
			<path class="st25" d="M387.2,325.7c-7.1,7-13.7,11.8-14.8,10.7c-1.1-1.1,3.9-7.6,11-14.6c7.1-7,13.7-11.8,14.8-10.7
				C399.2,312.2,394.3,318.7,387.2,325.7z"/>
			
				<linearGradient id="SVGID_9_" gradientUnits="userSpaceOnUse" x1="546.7662" y1="174.5199" x2="578.2944" y2="137.5301" gradientTransform="matrix(1 0 0 -1 -203.7553 454.9268)">
				<stop  offset="0" style="stop-color:#FFFFFF"/>
				<stop  offset="1" style="stop-color:#FFFFFF;stop-opacity:0"/>
			</linearGradient>
			<path class="st26" d="M392.3,260.4L315.5,324l0,2c5,5.7,11.6,9.8,18.9,11.8c1.8,0.5,3.5,0.9,5.3,1.1l59.8-49.5l-0.5-0.2l3.5-2.6
				C402.7,277,399,267.5,392.3,260.4z"/>
			
				<linearGradient id="SVGID_10_" gradientUnits="userSpaceOnUse" x1="528.3862" y1="191.5334" x2="545.2499" y2="174.4271" gradientTransform="matrix(1 0 0 -1 -203.7553 454.9268)">
				<stop  offset="0" style="stop-color:#FFFFFF"/>
				<stop  offset="1" style="stop-color:#FFFFFF;stop-opacity:0"/>
			</linearGradient>
			<path class="st27" d="M370.1,251.2l-3.4-2.7c-4.6-0.4-9.2-0.2-13.8,0.6l-43.5,36c-2.4,6.4-3.4,13.3-2.7,20.1l65.2-54L370.1,251.2
				z"/>
			<g>
				<defs>
					<rect id="SVGID_11_" x="334.7" y="268.8" width="48.6" height="50.1"/>
				</defs>
				<clipPath id="SVGID_12_">
					<use xlink:href="#SVGID_11_"  style="overflow:visible;"/>
				</clipPath>
				<g class="st28">
					
						<linearGradient id="SVGID_13_" gradientUnits="userSpaceOnUse" x1="2507.7759" y1="1809.1542" x2="2507.7759" y2="1759.0203" gradientTransform="matrix(1 0 0 1 -2148.7554 -1490.2074)">
						<stop  offset="0" style="stop-color:#FFC000"/>
						<stop  offset="0.28" style="stop-color:#FFC000"/>
						<stop  offset="0.55" style="stop-color:#DAA600"/>
						<stop  offset="1" style="stop-color:#DAA600"/>
					</linearGradient>
					<path class="st29" d="M343.2,289.2c-0.2-0.2-0.4-0.4-0.6-0.7c-2.1-2.5-3.6-5.5-4.4-8.6c-0.5-2.2-0.7-4.6-0.5-6.9
						c0.1-1.2,0.4-2.4,1-3.5c0.3-0.7,1.1-1,1.8-0.7c0,0,0,0,0,0c1.5,0.6,2.8,1.6,3.7,3c2.3,3,3.8,6.4,4.4,10.1
						c0.2,1.1,0.2,2.3,0.3,3.5c0,0.4,0.1,0.9,0.1,1.3c0,0.4,0.2,0.6,0.6,0.5c1.6-0.2,3.3-0.1,4.8,0.3c1.4,0.3,2.7,0.8,4,1.3
						c1.9,0.7,3.6,1.9,4.9,3.4c0.1,0.2,0.4,0.3,0.6,0.1c0,0,0,0,0,0c0,0,0.1-0.1,0.1-0.1c0.3-0.3,0.6-0.6,0.9-1
						c3-3.4,7-5.9,11.4-7.1c1.4-0.4,2.9-0.6,4.4-0.4c0.7,0.1,1.3,0.3,1.9,0.6c0.3,0.2,0.4,0.5,0.5,0.8c0,0.4,0,0.9-0.2,1.3
						c-0.6,1.7-1.6,3.3-2.9,4.6c-3.1,3.5-7.3,5.9-12,6.7c-0.3,0.1-0.7,0.1-1.1,0.1c0.1,0.3,0.1,0.5,0.2,0.8c0.5,1.6,0.7,3.3,0.6,4.9
						c0,2-0.4,3.9-1,5.7c-0.7,2.1-1.8,4.1-3.2,5.9c-1.4,1.6-3.2,2.7-5.3,3.2c-1.5,0.4-3,0.5-4.5,0.4c-1.5-0.2-3-0.4-4.4-0.8
						c-1.5-0.4-3-0.9-4.5-1.5c-2.4-0.9-4.6-2.2-6.6-3.9c-2-1.7-3.3-4-3.8-6.6c-0.1-1.2-0.1-2.4,0.1-3.7c0.2-1.6,0.6-3.1,1.3-4.6
						c0.9-2.3,2.4-4.4,4.1-6.2c0.8-0.8,1.8-1.5,2.7-2.2L343.2,289.2z M344.8,307.1l0,0.1c-1.6-0.1-2,1-1.7,2.2
						c0,0.2,0.1,0.4,0.2,0.6c0.4,1.4,1.3,2.5,2.5,3.2c1.2,0.6,2.4,1.1,3.7,1.4c1.8,0.6,3.8,0.1,5.2-1.3c0.7-0.4,0.9-1.3,0.5-1.9
						c-0.1-0.2-0.2-0.3-0.4-0.4c-0.7-0.6-1.6-1.1-2.4-1.5c-1.4-0.6-2.9-1.1-4.4-1.6C346.9,307.6,345.8,307.4,344.8,307.1
						L344.8,307.1z M343.4,294.5c0-1.1-0.4-1.7-1.2-1.9c-0.7-0.1-1.4,0.1-1.8,0.7c-1.7,2.1-2.9,4.5-3.7,7c-0.1,0.4-0.1,0.8-0.1,1.3
						c0.1,0.8,0.8,1.3,1.6,1.2c0.4-0.1,0.7-0.3,1-0.6c0.6-0.8,1.2-1.7,1.7-2.6c0.7-1.1,1.3-2.3,1.8-3.5
						C343,295.7,343.2,295.1,343.4,294.5L343.4,294.5z M366.8,303.6c0-0.5-0.1-0.9-0.2-1.4c-0.2-0.8-1.1-1.3-1.9-1.1c0,0,0,0,0,0
						c-0.1,0-0.1,0-0.2,0.1c-0.6,0.3-1,0.8-1.1,1.4c-0.5,2.1-1,4.3-1.5,6.4c-0.1,0.7-0.1,1.3,0,2c0.1,0.7,0.9,1.2,1.6,1.1
						c0.2,0,0.3-0.1,0.5-0.2c0.5-0.3,0.9-0.8,1.1-1.4c0.4-1.2,0.8-2.4,1.1-3.7C366.5,305.7,366.6,304.6,366.8,303.6L366.8,303.6z"/>
				</g>
			</g>
		</g>
	</g>
</g>
<g>
	<g id="OBJECTS_1_">
		<g>
			<polygon class="st14" points="60.5,202.7 65.5,209.6 62.8,209.2 57.8,202.4 			"/>
			
				<linearGradient id="SVGID_14_" gradientUnits="userSpaceOnUse" x1="272.8259" y1="235.039" x2="328.8509" y2="283.6514" gradientTransform="matrix(1 0 0 -1 -203.7553 454.9268)">
				<stop  offset="0" style="stop-color:#D13F05"/>
				<stop  offset="0.2925" style="stop-color:#F67205"/>
				<stop  offset="0.3667" style="stop-color:#F67705"/>
				<stop  offset="0.4526" style="stop-color:#F68505"/>
				<stop  offset="0.5441" style="stop-color:#F69C05"/>
				<stop  offset="0.5638" style="stop-color:#F6A205"/>
				<stop  offset="0.5977" style="stop-color:#F69005"/>
				<stop  offset="0.6432" style="stop-color:#F67F05"/>
				<stop  offset="0.6931" style="stop-color:#F67505"/>
				<stop  offset="0.7553" style="stop-color:#F67205"/>
				<stop  offset="1" style="stop-color:#D13F05"/>
			</linearGradient>
			<path class="st30" d="M117.6,161.9c1.7,2.3,3.3,4.6,5,6.8c3.4,4.7,5.2,10.4,5.1,16.2l-5-6.8C122.8,172.3,121,166.6,117.6,161.9z"
				/>
			<polygon class="st16" points="122.7,178.1 127.7,184.9 125.1,186.8 120.2,179.9 			"/>
			<polygon class="st14" points="97.5,211.5 102.5,218.4 101.4,220.1 96.4,213.2 			"/>
			
				<linearGradient id="SVGID_15_" gradientUnits="userSpaceOnUse" x1="274.587" y1="233.0144" x2="330.6091" y2="281.6243" gradientTransform="matrix(1 0 0 -1 -203.7553 454.9268)">
				<stop  offset="0" style="stop-color:#D13F05"/>
				<stop  offset="0.2925" style="stop-color:#F67205"/>
				<stop  offset="0.3667" style="stop-color:#F67705"/>
				<stop  offset="0.4526" style="stop-color:#F68505"/>
				<stop  offset="0.5441" style="stop-color:#F69C05"/>
				<stop  offset="0.5638" style="stop-color:#F6A205"/>
				<stop  offset="0.5977" style="stop-color:#F69005"/>
				<stop  offset="0.6432" style="stop-color:#F67F05"/>
				<stop  offset="0.6931" style="stop-color:#F67505"/>
				<stop  offset="0.7553" style="stop-color:#F67205"/>
				<stop  offset="1" style="stop-color:#D13F05"/>
			</linearGradient>
			<path class="st31" d="M96.4,213.2l5,6.8c-7.1,2.8-14.9,3.3-22.3,1.3c-5.2-1.4-9.9-4.3-13.5-8.4l-5-6.8c3.6,4.1,8.3,7,13.5,8.4
				C81.5,216.5,89.3,216,96.4,213.2z"/>
			<polygon class="st18" points="99.3,212 104.3,218.9 102.5,218.4 97.5,211.5 			"/>
			
				<linearGradient id="SVGID_16_" gradientUnits="userSpaceOnUse" x1="282.4545" y1="223.947" x2="338.4774" y2="272.5576" gradientTransform="matrix(1 0 0 -1 -203.7553 454.9268)">
				<stop  offset="0" style="stop-color:#D13F05"/>
				<stop  offset="0.2925" style="stop-color:#F67205"/>
				<stop  offset="0.3667" style="stop-color:#F67705"/>
				<stop  offset="0.4526" style="stop-color:#F68505"/>
				<stop  offset="0.5441" style="stop-color:#F69C05"/>
				<stop  offset="0.5638" style="stop-color:#F6A205"/>
				<stop  offset="0.5977" style="stop-color:#F69005"/>
				<stop  offset="0.6432" style="stop-color:#F67F05"/>
				<stop  offset="0.6931" style="stop-color:#F67505"/>
				<stop  offset="0.7553" style="stop-color:#F67205"/>
				<stop  offset="1" style="stop-color:#D13F05"/>
			</linearGradient>
			<path class="st32" d="M122.6,180.6l5,6.8c-0.4,3.9-1.4,7.8-3,11.3c-4.2,8.9-11.3,16-20.3,20.1l-5-6.8
				c8.9-4.1,16.1-11.2,20.3-20.1C121.2,188.4,122.2,184.5,122.6,180.6z"/>
			
				<linearGradient id="SVGID_17_" gradientUnits="userSpaceOnUse" x1="261.7267" y1="246.3671" x2="323.6104" y2="296.7015" gradientTransform="matrix(1 0 0 -1 -203.7553 454.9268)">
				<stop  offset="0" style="stop-color:#FFFFFF;stop-opacity:0"/>
				<stop  offset="0.2606" style="stop-color:#FFFFFF"/>
				<stop  offset="0.7553" style="stop-color:#FFFFFF"/>
				<stop  offset="1" style="stop-color:#FFFFFF;stop-opacity:0"/>
			</linearGradient>
			<path class="st33" d="M122.9,181c-0.4,3.9-1.4,7.8-3,11.3c-4.2,8.9-11.3,16-20.3,20.1l-1.8-0.5l-1.1,1.7
				c-7.1,2.8-14.9,3.3-22.3,1.3c-5.2-1.4-9.9-4.3-13.5-8.4l-0.1-3.4l-2.7-0.4c-4.6-7.8-5.2-18-0.6-28c1.4-3,3.1-5.7,5.1-8.3
				c1.1-0.5,2.1-1,3.1-1.6l0.5-2.3c8.4-8.1,20.1-12.6,31.2-11.5l2.4,1.9l6.7,0.3c10.4,4.4,16.4,14,16.4,25l-2.5,1.9L122.9,181z"/>
			
				<linearGradient id="SVGID_18_" gradientUnits="userSpaceOnUse" x1="316.085" y1="261.6345" x2="253.3199" y2="288.1475" gradientTransform="matrix(1 0 0 -1 -203.7553 454.9268)">
				<stop  offset="0" style="stop-color:#FFAF02"/>
				<stop  offset="1" style="stop-color:#F56D05"/>
			</linearGradient>
			<path class="st34" d="M122.6,180.6c-0.4,3.9-1.4,7.8-3,11.3c-4.2,8.9-11.3,16-20.3,20.1l-1.8-0.5l-1.1,1.7
				c-7.1,2.8-14.9,3.3-22.3,1.3c-5.2-1.4-9.9-4.3-13.5-8.4l-0.1-3.4l-2.7-0.4c-4.6-7.8-5.2-18-0.6-28c1.4-3,3.1-5.7,5.1-8.3
				c1.1-0.5,2.1-1,3.1-1.6l0.5-2.3c8.4-8.1,20.1-12.6,31.2-11.5l2.4,1.9l6.7,0.3c10.4,4.4,16.4,14,16.4,25l-2.5,1.9L122.6,180.6z"/>
			
				<linearGradient id="SVGID_19_" gradientUnits="userSpaceOnUse" x1="269.1688" y1="293.2437" x2="305.5975" y2="258.4236" gradientTransform="matrix(1 0 0 -1 -203.7553 454.9268)">
				<stop  offset="0" style="stop-color:#FFFFFF;stop-opacity:0"/>
				<stop  offset="0.2606" style="stop-color:#FFFFFF"/>
				<stop  offset="0.7553" style="stop-color:#FFFFFF"/>
				<stop  offset="1" style="stop-color:#FFFFFF;stop-opacity:0"/>
			</linearGradient>
			<path class="st35" d="M98.2,160.2c12.5,3.5,18,16.6,12.2,29.2c-5.8,12.6-20.6,20-33.1,16.5c-12.5-3.5-18-16.6-12.2-29.2
				S85.7,156.7,98.2,160.2z"/>
			
				<linearGradient id="SVGID_20_" gradientUnits="userSpaceOnUse" x1="267.1747" y1="271.7561" x2="317.1264" y2="271.7561" gradientTransform="matrix(1 0 0 -1 -203.7553 454.9268)">
				<stop  offset="0" style="stop-color:#CF4505"/>
				<stop  offset="1" style="stop-color:#E45905"/>
			</linearGradient>
			<path class="st36" d="M98.8,160.3c12.5,3.5,18,16.6,12.2,29.2c-5.8,12.6-20.6,20-33.1,16.5c-12.5-3.5-18-16.6-12.2-29.2
				C71.5,164.2,86.3,156.8,98.8,160.3z"/>
			<path class="st24" d="M79.9,206.4c-12.5-3.5-18-16.6-12.2-29.2c5.3-11.7,18.5-18.9,30.3-17.1c-12.3-3-26.7,4.3-32.3,16.7
				c-5.8,12.6-0.3,25.7,12.2,29.2c0.9,0.3,1.9,0.5,2.8,0.6C80.5,206.5,80.2,206.5,79.9,206.4z"/>
			
				<radialGradient id="SVGID_21_" cx="-1987.0022" cy="-440.6721" r="18.6773" gradientTransform="matrix(7.290000e-02 7.410000e-02 0.4921 -0.4845 472.0643 138.2714)" gradientUnits="userSpaceOnUse">
				<stop  offset="0" style="stop-color:#FFFFFF"/>
				<stop  offset="8.578000e-02" style="stop-color:#FFFFFF;stop-opacity:0.9583"/>
				<stop  offset="0.2351" style="stop-color:#FFFFFF;stop-opacity:0.8462"/>
				<stop  offset="0.4301" style="stop-color:#FFFFFF;stop-opacity:0.6642"/>
				<stop  offset="0.6634" style="stop-color:#FFFFFF;stop-opacity:0.4119"/>
				<stop  offset="0.9261" style="stop-color:#FFFFFF;stop-opacity:9.449000e-02"/>
				<stop  offset="1" style="stop-color:#FFFFFF;stop-opacity:0"/>
			</radialGradient>
			<path class="st37" d="M111.7,205.9c-5.1,5-9.8,8.4-10.6,7.7c-0.8-0.8,2.8-5.4,7.8-10.4c5.1-5,9.8-8.4,10.6-7.7
				C120.3,196.3,116.8,200.9,111.7,205.9z"/>
			
				<linearGradient id="SVGID_22_" gradientUnits="userSpaceOnUse" x1="283.9353" y1="281.3823" x2="306.4555" y2="254.961" gradientTransform="matrix(1 0 0 -1 -203.7553 454.9268)">
				<stop  offset="0" style="stop-color:#FFFFFF"/>
				<stop  offset="1" style="stop-color:#FFFFFF;stop-opacity:0"/>
			</linearGradient>
			<path class="st38" d="M115.4,159.3l-54.8,45.4l0,1.5c3.6,4.1,8.3,7,13.5,8.4c1.3,0.4,2.5,0.6,3.8,0.8l42.7-35.3l-0.4-0.1l2.5-1.9
				C122.8,171.1,120.2,164.4,115.4,159.3z"/>
			
				<linearGradient id="SVGID_23_" gradientUnits="userSpaceOnUse" x1="270.8068" y1="293.5348" x2="282.8523" y2="281.316" gradientTransform="matrix(1 0 0 -1 -203.7553 454.9268)">
				<stop  offset="0" style="stop-color:#FFFFFF"/>
				<stop  offset="1" style="stop-color:#FFFFFF;stop-opacity:0"/>
			</linearGradient>
			<path class="st39" d="M99.5,152.7l-2.4-1.9c-3.3-0.3-6.6-0.2-9.8,0.4l-31.1,25.7c-1.7,4.6-2.4,9.5-1.9,14.4l46.6-38.5L99.5,152.7
				z"/>
			<g>
				<defs>
					<rect id="SVGID_24_" x="74.2" y="165.3" width="34.7" height="35.8"/>
				</defs>
				<clipPath id="SVGID_25_">
					<use xlink:href="#SVGID_24_"  style="overflow:visible;"/>
				</clipPath>
				<g class="st40">
					
						<linearGradient id="SVGID_26_" gradientUnits="userSpaceOnUse" x1="2240.3708" y1="1691.2804" x2="2240.3708" y2="1655.4705" gradientTransform="matrix(1 0 0 1 -2148.7554 -1490.2074)">
						<stop  offset="0" style="stop-color:#FFC000"/>
						<stop  offset="0.28" style="stop-color:#FFC000"/>
						<stop  offset="0.55" style="stop-color:#DAA600"/>
						<stop  offset="1" style="stop-color:#DAA600"/>
					</linearGradient>
					<path class="st41" d="M80.3,179.8c-0.2-0.2-0.3-0.3-0.4-0.5c-1.5-1.8-2.5-3.9-3.1-6.2c-0.4-1.6-0.5-3.3-0.3-4.9
						c0-0.9,0.3-1.7,0.7-2.5c0.2-0.5,0.8-0.7,1.3-0.5c0,0,0,0,0,0c1.1,0.4,2,1.2,2.6,2.1c1.6,2.1,2.7,4.6,3.2,7.2
						c0.2,0.8,0.2,1.7,0.2,2.5c0,0.3,0,0.6,0.1,1c0,0.3,0.1,0.4,0.5,0.4c1.1-0.2,2.3-0.1,3.4,0.2c1,0.2,1.9,0.6,2.9,1
						c1.3,0.5,2.5,1.3,3.5,2.4c0.1,0.2,0.3,0.2,0.5,0.1c0,0,0,0,0,0c0,0,0.1,0,0.1-0.1c0.2-0.2,0.5-0.4,0.7-0.7
						c2.2-2.5,5-4.2,8.2-5.1c1-0.3,2.1-0.4,3.1-0.3c0.5,0.1,0.9,0.2,1.3,0.4c0.2,0.1,0.3,0.3,0.3,0.6c0,0.3,0,0.6-0.1,0.9
						c-0.4,1.2-1.1,2.3-2,3.3c-2.2,2.5-5.2,4.2-8.5,4.8c-0.2,0.1-0.5,0.1-0.8,0.1c0,0.2,0.1,0.4,0.1,0.5c0.3,1.1,0.5,2.3,0.4,3.5
						c0,1.4-0.3,2.8-0.7,4.1c-0.5,1.5-1.3,3-2.3,4.2c-1,1.2-2.3,2-3.8,2.3c-1.1,0.3-2.1,0.4-3.2,0.3c-1.1-0.1-2.1-0.3-3.2-0.6
						c-1.1-0.3-2.1-0.7-3.2-1.1c-1.7-0.6-3.3-1.6-4.7-2.8c-1.4-1.2-2.4-2.9-2.7-4.7c-0.1-0.9-0.1-1.7,0-2.6c0.1-1.1,0.4-2.2,0.9-3.3
						c0.7-1.7,1.7-3.2,3-4.4c0.6-0.6,1.3-1.1,1.9-1.6L80.3,179.8z M81.4,192.6L81.4,192.6c-1.2,0-1.4,0.8-1.2,1.7
						c0,0.1,0.1,0.3,0.1,0.4c0.3,1,0.9,1.8,1.8,2.3c0.9,0.4,1.7,0.8,2.7,1c1.3,0.4,2.7,0.1,3.7-0.9c0.5-0.3,0.6-0.9,0.3-1.4
						c-0.1-0.1-0.2-0.2-0.3-0.3c-0.5-0.4-1.1-0.8-1.7-1.1c-1-0.4-2.1-0.8-3.1-1.2C83,193,82.2,192.8,81.4,192.6L81.4,192.6z
						 M80.5,183.6c0-0.8-0.3-1.2-0.9-1.3c-0.5-0.1-1,0.1-1.3,0.5c-1.2,1.5-2.1,3.2-2.7,5c-0.1,0.3-0.1,0.6,0,0.9
						c0.1,0.6,0.6,0.9,1.1,0.9c0.3,0,0.5-0.2,0.7-0.4c0.4-0.6,0.8-1.2,1.2-1.8c0.5-0.8,0.9-1.7,1.3-2.5
						C80.2,184.4,80.3,184,80.5,183.6L80.5,183.6z M97.2,190.1c0-0.3-0.1-0.7-0.1-1c-0.2-0.6-0.8-0.9-1.3-0.8c0,0,0,0,0,0
						c0,0-0.1,0-0.1,0c-0.4,0.2-0.7,0.6-0.8,1c-0.4,1.5-0.7,3-1,4.6c-0.1,0.5-0.1,1,0,1.4c0.1,0.5,0.6,0.9,1.1,0.8
						c0.1,0,0.2-0.1,0.3-0.1c0.4-0.2,0.6-0.6,0.8-1c0.3-0.9,0.6-1.7,0.8-2.6C96.9,191.6,97,190.8,97.2,190.1L97.2,190.1z"/>
				</g>
			</g>
		</g>
	</g>
</g>
<g>
	<g id="OBJECTS_2_">
		<g>
			<polygon class="st14" points="176.6,132.7 181.6,139.5 178.9,139.2 174,132.3 			"/>
			
				<linearGradient id="SVGID_27_" gradientUnits="userSpaceOnUse" x1="388.942" y1="305.0874" x2="444.967" y2="353.6999" gradientTransform="matrix(1 0 0 -1 -203.7553 454.9268)">
				<stop  offset="0" style="stop-color:#D13F05"/>
				<stop  offset="0.2925" style="stop-color:#F67205"/>
				<stop  offset="0.3667" style="stop-color:#F67705"/>
				<stop  offset="0.4526" style="stop-color:#F68505"/>
				<stop  offset="0.5441" style="stop-color:#F69C05"/>
				<stop  offset="0.5638" style="stop-color:#F6A205"/>
				<stop  offset="0.5977" style="stop-color:#F69005"/>
				<stop  offset="0.6432" style="stop-color:#F67F05"/>
				<stop  offset="0.6931" style="stop-color:#F67505"/>
				<stop  offset="0.7553" style="stop-color:#F67205"/>
				<stop  offset="1" style="stop-color:#D13F05"/>
			</linearGradient>
			<path class="st42" d="M233.7,91.9c1.7,2.3,3.3,4.6,5,6.8c3.4,4.7,5.2,10.4,5.1,16.2l-5-6.8C238.9,102.2,237.1,96.6,233.7,91.9z"
				/>
			<polygon class="st16" points="238.8,108 243.8,114.9 241.3,116.7 236.3,109.9 			"/>
			<polygon class="st14" points="213.6,141.5 218.6,148.3 217.5,150 212.5,143.2 			"/>
			
				<linearGradient id="SVGID_28_" gradientUnits="userSpaceOnUse" x1="390.7031" y1="303.0628" x2="446.7252" y2="351.6727" gradientTransform="matrix(1 0 0 -1 -203.7553 454.9268)">
				<stop  offset="0" style="stop-color:#D13F05"/>
				<stop  offset="0.2925" style="stop-color:#F67205"/>
				<stop  offset="0.3667" style="stop-color:#F67705"/>
				<stop  offset="0.4526" style="stop-color:#F68505"/>
				<stop  offset="0.5441" style="stop-color:#F69C05"/>
				<stop  offset="0.5638" style="stop-color:#F6A205"/>
				<stop  offset="0.5977" style="stop-color:#F69005"/>
				<stop  offset="0.6432" style="stop-color:#F67F05"/>
				<stop  offset="0.6931" style="stop-color:#F67505"/>
				<stop  offset="0.7553" style="stop-color:#F67205"/>
				<stop  offset="1" style="stop-color:#D13F05"/>
			</linearGradient>
			<path class="st43" d="M212.5,143.2l5,6.8c-7.1,2.8-14.9,3.3-22.3,1.3c-5.2-1.4-9.9-4.3-13.5-8.4l-5-6.8c3.6,4.1,8.3,7,13.5,8.4
				C197.6,146.5,205.4,146,212.5,143.2z"/>
			<polygon class="st18" points="215.4,142 220.4,148.8 218.6,148.3 213.6,141.5 			"/>
			
				<linearGradient id="SVGID_29_" gradientUnits="userSpaceOnUse" x1="398.5706" y1="293.9954" x2="454.5935" y2="342.606" gradientTransform="matrix(1 0 0 -1 -203.7553 454.9268)">
				<stop  offset="0" style="stop-color:#D13F05"/>
				<stop  offset="0.2925" style="stop-color:#F67205"/>
				<stop  offset="0.3667" style="stop-color:#F67705"/>
				<stop  offset="0.4526" style="stop-color:#F68505"/>
				<stop  offset="0.5441" style="stop-color:#F69C05"/>
				<stop  offset="0.5638" style="stop-color:#F6A205"/>
				<stop  offset="0.5977" style="stop-color:#F69005"/>
				<stop  offset="0.6432" style="stop-color:#F67F05"/>
				<stop  offset="0.6931" style="stop-color:#F67505"/>
				<stop  offset="0.7553" style="stop-color:#F67205"/>
				<stop  offset="1" style="stop-color:#D13F05"/>
			</linearGradient>
			<path class="st44" d="M238.7,110.6l5,6.8c-0.4,3.9-1.4,7.8-3,11.3c-4.2,8.9-11.3,16-20.3,20.1l-5-6.8
				c8.9-4.1,16.1-11.2,20.3-20.1C237.3,118.3,238.4,114.5,238.7,110.6z"/>
			
				<linearGradient id="SVGID_30_" gradientUnits="userSpaceOnUse" x1="377.8428" y1="316.4155" x2="439.7265" y2="366.7499" gradientTransform="matrix(1 0 0 -1 -203.7553 454.9268)">
				<stop  offset="0" style="stop-color:#FFFFFF;stop-opacity:0"/>
				<stop  offset="0.2606" style="stop-color:#FFFFFF"/>
				<stop  offset="0.7553" style="stop-color:#FFFFFF"/>
				<stop  offset="1" style="stop-color:#FFFFFF;stop-opacity:0"/>
			</linearGradient>
			<path class="st45" d="M239,110.9c-0.4,3.9-1.4,7.8-3,11.3c-4.2,8.9-11.3,16-20.3,20.1l-1.8-0.5l-1.1,1.7
				c-7.1,2.8-14.9,3.3-22.3,1.3c-5.2-1.4-9.9-4.3-13.5-8.4l-0.1-3.4l-2.7-0.4c-4.6-7.8-5.2-18-0.6-28c1.4-3,3.1-5.7,5.1-8.3
				c1.1-0.5,2.1-1,3.1-1.6l0.5-2.3c8.4-8.1,20.1-12.6,31.2-11.5l2.4,1.9l6.7,0.3c10.4,4.4,16.4,14,16.4,25l-2.5,1.9L239,110.9z"/>
			
				<linearGradient id="SVGID_31_" gradientUnits="userSpaceOnUse" x1="432.2011" y1="331.683" x2="369.436" y2="358.196" gradientTransform="matrix(1 0 0 -1 -203.7553 454.9268)">
				<stop  offset="0" style="stop-color:#FFAF02"/>
				<stop  offset="1" style="stop-color:#F56D05"/>
			</linearGradient>
			<path class="st46" d="M238.7,110.6c-0.4,3.9-1.4,7.8-3,11.3c-4.2,8.9-11.3,16-20.3,20.1l-1.8-0.5l-1.1,1.7
				c-7.1,2.8-14.9,3.3-22.3,1.3c-5.2-1.4-9.9-4.3-13.5-8.4l-0.1-3.4l-2.7-0.4c-4.6-7.8-5.2-18-0.6-28c1.4-3,3.1-5.7,5.1-8.3
				c1.1-0.5,2.1-1,3.1-1.6l0.5-2.3c8.4-8.1,20.1-12.6,31.2-11.5l2.4,1.9l6.7,0.3c10.4,4.4,16.4,14,16.4,25l-2.5,1.9L238.7,110.6z"/>
			
				<linearGradient id="SVGID_32_" gradientUnits="userSpaceOnUse" x1="385.2849" y1="363.2921" x2="421.7136" y2="328.472" gradientTransform="matrix(1 0 0 -1 -203.7553 454.9268)">
				<stop  offset="0" style="stop-color:#FFFFFF;stop-opacity:0"/>
				<stop  offset="0.2606" style="stop-color:#FFFFFF"/>
				<stop  offset="0.7553" style="stop-color:#FFFFFF"/>
				<stop  offset="1" style="stop-color:#FFFFFF;stop-opacity:0"/>
			</linearGradient>
			<path class="st47" d="M214.3,90.1c12.5,3.5,18,16.6,12.2,29.2c-5.8,12.6-20.6,20-33.1,16.5c-12.5-3.5-18-16.6-12.2-29.2
				C186.9,94,201.8,86.6,214.3,90.1z"/>
			
				<linearGradient id="SVGID_33_" gradientUnits="userSpaceOnUse" x1="383.2908" y1="341.8046" x2="433.2425" y2="341.8046" gradientTransform="matrix(1 0 0 -1 -203.7553 454.9268)">
				<stop  offset="0" style="stop-color:#CF4505"/>
				<stop  offset="1" style="stop-color:#E45905"/>
			</linearGradient>
			<path class="st48" d="M215,90.3c12.5,3.5,18,16.6,12.2,29.2c-5.8,12.6-20.6,20-33.1,16.5c-12.5-3.5-18-16.6-12.2-29.2
				C187.6,94.1,202.4,86.8,215,90.3z"/>
			<path class="st24" d="M196.1,136.4c-12.5-3.5-18-16.6-12.2-29.2c5.3-11.7,18.5-18.9,30.3-17.1c-12.3-3-26.7,4.3-32.3,16.7
				c-5.8,12.6-0.3,25.7,12.2,29.2c0.9,0.3,1.9,0.5,2.8,0.6C196.6,136.5,196.3,136.4,196.1,136.4z"/>
			
				<radialGradient id="SVGID_34_" cx="-1683.4916" cy="-249.674" r="18.6773" gradientTransform="matrix(7.290000e-02 7.410000e-02 0.4921 -0.4845 472.0643 138.2714)" gradientUnits="userSpaceOnUse">
				<stop  offset="0" style="stop-color:#FFFFFF"/>
				<stop  offset="8.578000e-02" style="stop-color:#FFFFFF;stop-opacity:0.9583"/>
				<stop  offset="0.2351" style="stop-color:#FFFFFF;stop-opacity:0.8462"/>
				<stop  offset="0.4301" style="stop-color:#FFFFFF;stop-opacity:0.6642"/>
				<stop  offset="0.6634" style="stop-color:#FFFFFF;stop-opacity:0.4119"/>
				<stop  offset="0.9261" style="stop-color:#FFFFFF;stop-opacity:9.449000e-02"/>
				<stop  offset="1" style="stop-color:#FFFFFF;stop-opacity:0"/>
			</radialGradient>
			<path class="st49" d="M227.8,135.9c-5.1,5-9.8,8.4-10.6,7.7c-0.8-0.8,2.8-5.4,7.8-10.4c5.1-5,9.8-8.4,10.6-7.7
				C236.4,126.2,232.9,130.9,227.8,135.9z"/>
			
				<linearGradient id="SVGID_35_" gradientUnits="userSpaceOnUse" x1="400.0514" y1="351.4307" x2="422.5716" y2="325.0094" gradientTransform="matrix(1 0 0 -1 -203.7553 454.9268)">
				<stop  offset="0" style="stop-color:#FFFFFF"/>
				<stop  offset="1" style="stop-color:#FFFFFF;stop-opacity:0"/>
			</linearGradient>
			<path class="st50" d="M231.5,89.2l-54.8,45.4l0,1.5c3.6,4.1,8.3,7,13.5,8.4c1.3,0.4,2.5,0.6,3.8,0.8l42.7-35.3l-0.4-0.1l2.5-1.9
				C238.9,101,236.3,94.3,231.5,89.2z"/>
			
				<linearGradient id="SVGID_36_" gradientUnits="userSpaceOnUse" x1="386.9229" y1="363.5833" x2="398.9684" y2="351.3644" gradientTransform="matrix(1 0 0 -1 -203.7553 454.9268)">
				<stop  offset="0" style="stop-color:#FFFFFF"/>
				<stop  offset="1" style="stop-color:#FFFFFF;stop-opacity:0"/>
			</linearGradient>
			<path class="st51" d="M215.6,82.6l-2.4-1.9c-3.3-0.3-6.6-0.2-9.8,0.4l-31.1,25.7c-1.7,4.6-2.4,9.5-1.9,14.4l46.6-38.5L215.6,82.6
				z"/>
			<g>
				<defs>
					<rect id="SVGID_37_" x="190.4" y="95.2" width="34.7" height="35.8"/>
				</defs>
				<clipPath id="SVGID_38_">
					<use xlink:href="#SVGID_37_"  style="overflow:visible;"/>
				</clipPath>
				<g class="st52">
					
						<linearGradient id="SVGID_39_" gradientUnits="userSpaceOnUse" x1="2356.4871" y1="1621.2319" x2="2356.4871" y2="1585.4221" gradientTransform="matrix(1 0 0 1 -2148.7554 -1490.2074)">
						<stop  offset="0" style="stop-color:#FFC000"/>
						<stop  offset="0.28" style="stop-color:#FFC000"/>
						<stop  offset="0.55" style="stop-color:#DAA600"/>
						<stop  offset="1" style="stop-color:#DAA600"/>
					</linearGradient>
					<path class="st53" d="M196.5,109.8c-0.2-0.2-0.3-0.3-0.4-0.5c-1.5-1.8-2.5-3.9-3.1-6.2c-0.4-1.6-0.5-3.3-0.3-4.9
						c0-0.9,0.3-1.7,0.7-2.5c0.2-0.5,0.8-0.7,1.3-0.5c0,0,0,0,0,0c1.1,0.4,2,1.2,2.6,2.1c1.6,2.1,2.7,4.6,3.2,7.2
						c0.2,0.8,0.2,1.7,0.2,2.5c0,0.3,0,0.6,0.1,1c0,0.3,0.1,0.4,0.5,0.4c1.1-0.2,2.3-0.1,3.4,0.2c1,0.2,1.9,0.6,2.9,1
						c1.3,0.5,2.5,1.3,3.5,2.4c0.1,0.2,0.3,0.2,0.5,0.1c0,0,0,0,0,0c0,0,0.1,0,0.1-0.1c0.2-0.2,0.5-0.4,0.7-0.7
						c2.2-2.5,5-4.2,8.2-5.1c1-0.3,2.1-0.4,3.1-0.3c0.5,0.1,0.9,0.2,1.3,0.4c0.2,0.1,0.3,0.3,0.3,0.6c0,0.3,0,0.6-0.1,0.9
						c-0.4,1.2-1.1,2.3-2,3.3c-2.2,2.5-5.2,4.2-8.5,4.8c-0.2,0.1-0.5,0.1-0.8,0.1c0,0.2,0.1,0.4,0.1,0.5c0.3,1.1,0.5,2.3,0.4,3.5
						c0,1.4-0.3,2.8-0.7,4.1c-0.5,1.5-1.3,3-2.3,4.2c-1,1.2-2.3,2-3.8,2.3c-1.1,0.3-2.1,0.4-3.2,0.3c-1.1-0.1-2.1-0.3-3.2-0.6
						c-1.1-0.3-2.1-0.7-3.2-1.1c-1.7-0.6-3.3-1.6-4.7-2.8c-1.4-1.2-2.4-2.9-2.7-4.7c-0.1-0.9-0.1-1.7,0-2.6c0.1-1.1,0.4-2.2,0.9-3.3
						c0.7-1.7,1.7-3.2,3-4.4c0.6-0.6,1.3-1.1,1.9-1.6L196.5,109.8z M197.6,122.6L197.6,122.6c-1.2,0-1.4,0.8-1.2,1.7
						c0,0.1,0.1,0.3,0.1,0.4c0.3,1,0.9,1.8,1.8,2.3c0.9,0.4,1.7,0.8,2.7,1c1.3,0.4,2.7,0.1,3.7-0.9c0.5-0.3,0.6-0.9,0.3-1.4
						c-0.1-0.1-0.2-0.2-0.3-0.3c-0.5-0.4-1.1-0.8-1.7-1.1c-1-0.4-2.1-0.8-3.1-1.2C199.1,122.9,198.3,122.8,197.6,122.6L197.6,122.6z
						 M196.6,113.6c0-0.8-0.3-1.2-0.9-1.3c-0.5-0.1-1,0.1-1.3,0.5c-1.2,1.5-2.1,3.2-2.7,5c-0.1,0.3-0.1,0.6,0,0.9
						c0.1,0.6,0.6,0.9,1.1,0.9c0.3,0,0.5-0.2,0.7-0.4c0.4-0.6,0.8-1.2,1.2-1.8c0.5-0.8,0.9-1.7,1.3-2.5
						C196.3,114.4,196.5,114,196.6,113.6L196.6,113.6z M213.3,120.1c0-0.3-0.1-0.7-0.1-1c-0.2-0.6-0.8-0.9-1.3-0.8c0,0,0,0,0,0
						c0,0-0.1,0-0.1,0c-0.4,0.2-0.7,0.6-0.8,1c-0.4,1.5-0.7,3-1,4.6c-0.1,0.5-0.1,1,0,1.4c0.1,0.5,0.6,0.9,1.1,0.8
						c0.1,0,0.2-0.1,0.3-0.1c0.4-0.2,0.6-0.6,0.8-1c0.3-0.9,0.6-1.7,0.8-2.6C213.1,121.6,213.1,120.8,213.3,120.1L213.3,120.1z"/>
				</g>
			</g>
		</g>
	</g>
</g>
<g>
	<g id="OBJECTS_3_">
		<g>
			<polygon class="st14" points="292.8,68 297.7,74.8 295.1,74.5 290.1,67.6 			"/>
			
				<linearGradient id="SVGID_40_" gradientUnits="userSpaceOnUse" x1="505.0956" y1="369.7872" x2="561.1206" y2="418.3996" gradientTransform="matrix(1 0 0 -1 -203.7553 454.9268)">
				<stop  offset="0" style="stop-color:#D13F05"/>
				<stop  offset="0.2925" style="stop-color:#F67205"/>
				<stop  offset="0.3667" style="stop-color:#F67705"/>
				<stop  offset="0.4526" style="stop-color:#F68505"/>
				<stop  offset="0.5441" style="stop-color:#F69C05"/>
				<stop  offset="0.5638" style="stop-color:#F6A205"/>
				<stop  offset="0.5977" style="stop-color:#F69005"/>
				<stop  offset="0.6432" style="stop-color:#F67F05"/>
				<stop  offset="0.6931" style="stop-color:#F67505"/>
				<stop  offset="0.7553" style="stop-color:#F67205"/>
				<stop  offset="1" style="stop-color:#D13F05"/>
			</linearGradient>
			<path class="st54" d="M349.9,27.2c1.7,2.3,3.3,4.6,5,6.8c3.4,4.7,5.2,10.4,5.1,16.2l-5-6.8C355,37.5,353.2,31.9,349.9,27.2z"/>
			<polygon class="st16" points="355,43.3 359.9,50.2 357.4,52 352.4,45.2 			"/>
			<polygon class="st14" points="329.8,76.8 334.7,83.6 333.6,85.3 328.7,78.5 			"/>
			
				<linearGradient id="SVGID_41_" gradientUnits="userSpaceOnUse" x1="506.8567" y1="367.7626" x2="562.8788" y2="416.3725" gradientTransform="matrix(1 0 0 -1 -203.7553 454.9268)">
				<stop  offset="0" style="stop-color:#D13F05"/>
				<stop  offset="0.2925" style="stop-color:#F67205"/>
				<stop  offset="0.3667" style="stop-color:#F67705"/>
				<stop  offset="0.4526" style="stop-color:#F68505"/>
				<stop  offset="0.5441" style="stop-color:#F69C05"/>
				<stop  offset="0.5638" style="stop-color:#F6A205"/>
				<stop  offset="0.5977" style="stop-color:#F69005"/>
				<stop  offset="0.6432" style="stop-color:#F67F05"/>
				<stop  offset="0.6931" style="stop-color:#F67505"/>
				<stop  offset="0.7553" style="stop-color:#F67205"/>
				<stop  offset="1" style="stop-color:#D13F05"/>
			</linearGradient>
			<path class="st55" d="M328.7,78.5l5,6.8c-7.1,2.8-14.9,3.3-22.3,1.3c-5.2-1.4-9.9-4.3-13.5-8.4l-5-6.8c3.6,4.1,8.3,7,13.5,8.4
				C313.7,81.8,321.6,81.3,328.7,78.5z"/>
			<polygon class="st18" points="331.6,77.3 336.5,84.1 334.7,83.6 329.8,76.8 			"/>
			
				<linearGradient id="SVGID_42_" gradientUnits="userSpaceOnUse" x1="514.7242" y1="358.6952" x2="570.7471" y2="407.3058" gradientTransform="matrix(1 0 0 -1 -203.7553 454.9268)">
				<stop  offset="0" style="stop-color:#D13F05"/>
				<stop  offset="0.2925" style="stop-color:#F67205"/>
				<stop  offset="0.3667" style="stop-color:#F67705"/>
				<stop  offset="0.4526" style="stop-color:#F68505"/>
				<stop  offset="0.5441" style="stop-color:#F69C05"/>
				<stop  offset="0.5638" style="stop-color:#F6A205"/>
				<stop  offset="0.5977" style="stop-color:#F69005"/>
				<stop  offset="0.6432" style="stop-color:#F67F05"/>
				<stop  offset="0.6931" style="stop-color:#F67505"/>
				<stop  offset="0.7553" style="stop-color:#F67205"/>
				<stop  offset="1" style="stop-color:#D13F05"/>
			</linearGradient>
			<path class="st56" d="M354.9,45.9l5,6.8c-0.4,3.9-1.4,7.8-3,11.3c-4.2,8.9-11.3,16-20.3,20.1l-5-6.8c8.9-4.1,16.1-11.2,20.3-20.1
				C353.5,53.6,354.5,49.8,354.9,45.9z"/>
			
				<linearGradient id="SVGID_43_" gradientUnits="userSpaceOnUse" x1="493.9964" y1="381.1153" x2="555.8801" y2="431.4497" gradientTransform="matrix(1 0 0 -1 -203.7553 454.9268)">
				<stop  offset="0" style="stop-color:#FFFFFF;stop-opacity:0"/>
				<stop  offset="0.2606" style="stop-color:#FFFFFF"/>
				<stop  offset="0.7553" style="stop-color:#FFFFFF"/>
				<stop  offset="1" style="stop-color:#FFFFFF;stop-opacity:0"/>
			</linearGradient>
			<path class="st57" d="M355.2,46.2c-0.4,3.9-1.4,7.8-3,11.3c-4.2,8.9-11.3,16-20.3,20.1l-1.8-0.5l-1.1,1.7
				c-7.1,2.8-14.9,3.3-22.3,1.3c-5.2-1.4-9.9-4.3-13.5-8.4l-0.1-3.4l-2.7-0.4c-4.6-7.8-5.2-18-0.6-28c1.4-3,3.1-5.7,5.1-8.3
				c1.1-0.5,2.1-1,3.1-1.6l0.5-2.3c8.4-8.1,20.1-12.6,31.2-11.5l2.4,1.9l6.7,0.3c10.4,4.4,16.4,14,16.4,25l-2.5,1.9L355.2,46.2z"/>
			
				<linearGradient id="SVGID_44_" gradientUnits="userSpaceOnUse" x1="548.3547" y1="396.3827" x2="485.5896" y2="422.8957" gradientTransform="matrix(1 0 0 -1 -203.7553 454.9268)">
				<stop  offset="0" style="stop-color:#FFAF02"/>
				<stop  offset="1" style="stop-color:#F56D05"/>
			</linearGradient>
			<path class="st58" d="M354.9,45.9c-0.4,3.9-1.4,7.8-3,11.3c-4.2,8.9-11.3,16-20.3,20.1l-1.8-0.5l-1.1,1.7
				c-7.1,2.8-14.9,3.3-22.3,1.3c-5.2-1.4-9.9-4.3-13.5-8.4l-0.1-3.4l-2.7-0.4c-4.6-7.8-5.2-18-0.6-28c1.4-3,3.1-5.7,5.1-8.3
				c1.1-0.5,2.1-1,3.1-1.6l0.5-2.3c8.4-8.1,20.1-12.6,31.2-11.5l2.4,1.9l6.7,0.3c10.4,4.4,16.4,14,16.4,25l-2.5,1.9L354.9,45.9z"/>
			
				<linearGradient id="SVGID_45_" gradientUnits="userSpaceOnUse" x1="501.4385" y1="427.9919" x2="537.8672" y2="393.1718" gradientTransform="matrix(1 0 0 -1 -203.7553 454.9268)">
				<stop  offset="0" style="stop-color:#FFFFFF;stop-opacity:0"/>
				<stop  offset="0.2606" style="stop-color:#FFFFFF"/>
				<stop  offset="0.7553" style="stop-color:#FFFFFF"/>
				<stop  offset="1" style="stop-color:#FFFFFF;stop-opacity:0"/>
			</linearGradient>
			<path class="st59" d="M330.5,25.4c12.5,3.5,18,16.6,12.2,29.2c-5.8,12.6-20.6,20-33.1,16.5c-12.5-3.5-18-16.6-12.2-29.2
				S317.9,21.9,330.5,25.4z"/>
			
				<linearGradient id="SVGID_46_" gradientUnits="userSpaceOnUse" x1="499.4444" y1="406.5043" x2="549.3961" y2="406.5043" gradientTransform="matrix(1 0 0 -1 -203.7553 454.9268)">
				<stop  offset="0" style="stop-color:#CF4505"/>
				<stop  offset="1" style="stop-color:#E45905"/>
			</linearGradient>
			<path class="st60" d="M331.1,25.6c12.5,3.5,18,16.6,12.2,29.2c-5.8,12.6-20.6,20-33.1,16.5c-12.5-3.5-18-16.6-12.2-29.2
				C303.7,29.4,318.6,22.1,331.1,25.6z"/>
			<path class="st24" d="M312.2,71.7c-12.5-3.5-18-16.6-12.2-29.2c5.3-11.7,18.5-18.9,30.3-17.1c-12.3-3-26.7,4.3-32.3,16.7
				c-5.8,12.6-0.3,25.7,12.2,29.2c0.9,0.3,1.9,0.5,2.8,0.6C312.8,71.8,312.5,71.7,312.2,71.7z"/>
			
				<radialGradient id="SVGID_47_" cx="-1343.0613" cy="-64.069" r="18.6773" gradientTransform="matrix(7.290000e-02 7.410000e-02 0.4921 -0.4845 472.0643 138.2714)" gradientUnits="userSpaceOnUse">
				<stop  offset="0" style="stop-color:#FFFFFF"/>
				<stop  offset="8.578000e-02" style="stop-color:#FFFFFF;stop-opacity:0.9583"/>
				<stop  offset="0.2351" style="stop-color:#FFFFFF;stop-opacity:0.8462"/>
				<stop  offset="0.4301" style="stop-color:#FFFFFF;stop-opacity:0.6642"/>
				<stop  offset="0.6634" style="stop-color:#FFFFFF;stop-opacity:0.4119"/>
				<stop  offset="0.9261" style="stop-color:#FFFFFF;stop-opacity:9.449000e-02"/>
				<stop  offset="1" style="stop-color:#FFFFFF;stop-opacity:0"/>
			</radialGradient>
			<path class="st61" d="M344,71.2c-5.1,5-9.8,8.4-10.6,7.7c-0.8-0.8,2.8-5.4,7.8-10.4c5.1-5,9.8-8.4,10.6-7.7
				C352.6,61.5,349.1,66.2,344,71.2z"/>
			
				<linearGradient id="SVGID_48_" gradientUnits="userSpaceOnUse" x1="516.205" y1="416.1305" x2="538.7252" y2="389.7092" gradientTransform="matrix(1 0 0 -1 -203.7553 454.9268)">
				<stop  offset="0" style="stop-color:#FFFFFF"/>
				<stop  offset="1" style="stop-color:#FFFFFF;stop-opacity:0"/>
			</linearGradient>
			<path class="st62" d="M347.7,24.5l-54.8,45.4l0,1.5c3.6,4.1,8.3,7,13.5,8.4c1.3,0.4,2.5,0.6,3.8,0.8l42.7-35.3l-0.4-0.1l2.5-1.9
				C355.1,36.3,352.4,29.6,347.7,24.5z"/>
			
				<linearGradient id="SVGID_49_" gradientUnits="userSpaceOnUse" x1="503.0765" y1="428.283" x2="515.122" y2="416.0642" gradientTransform="matrix(1 0 0 -1 -203.7553 454.9268)">
				<stop  offset="0" style="stop-color:#FFFFFF"/>
				<stop  offset="1" style="stop-color:#FFFFFF;stop-opacity:0"/>
			</linearGradient>
			<path class="st63" d="M331.8,17.9l-2.4-1.9c-3.3-0.3-6.6-0.2-9.8,0.4l-31.1,25.7c-1.7,4.6-2.4,9.5-1.9,14.4L333.1,18L331.8,17.9z
				"/>
			<g>
				<defs>
					<rect id="SVGID_50_" x="306.5" y="30.5" width="34.7" height="35.8"/>
				</defs>
				<clipPath id="SVGID_51_">
					<use xlink:href="#SVGID_50_"  style="overflow:visible;"/>
				</clipPath>
				<g class="st64">
					
						<linearGradient id="SVGID_52_" gradientUnits="userSpaceOnUse" x1="2472.6406" y1="1556.5321" x2="2472.6406" y2="1520.7223" gradientTransform="matrix(1 0 0 1 -2148.7554 -1490.2074)">
						<stop  offset="0" style="stop-color:#FFC000"/>
						<stop  offset="0.28" style="stop-color:#FFC000"/>
						<stop  offset="0.55" style="stop-color:#DAA600"/>
						<stop  offset="1" style="stop-color:#DAA600"/>
					</linearGradient>
					<path class="st65" d="M312.6,45.1c-0.2-0.2-0.3-0.3-0.4-0.5c-1.5-1.8-2.5-3.9-3.1-6.2c-0.4-1.6-0.5-3.3-0.3-4.9
						c0-0.9,0.3-1.7,0.7-2.5c0.2-0.5,0.8-0.7,1.3-0.5c0,0,0,0,0,0c1.1,0.4,2,1.2,2.6,2.1c1.6,2.1,2.7,4.6,3.2,7.2
						c0.2,0.8,0.2,1.7,0.2,2.5c0,0.3,0,0.6,0.1,1c0,0.3,0.1,0.4,0.5,0.4c1.1-0.2,2.3-0.1,3.4,0.2c1,0.2,1.9,0.6,2.9,1
						c1.3,0.5,2.5,1.3,3.5,2.4c0.1,0.2,0.3,0.2,0.5,0.1c0,0,0,0,0,0c0,0,0.1,0,0.1-0.1c0.2-0.2,0.5-0.4,0.7-0.7
						c2.2-2.5,5-4.2,8.2-5.1c1-0.3,2.1-0.4,3.1-0.3c0.5,0.1,0.9,0.2,1.3,0.4c0.2,0.1,0.3,0.3,0.3,0.6c0,0.3,0,0.6-0.1,0.9
						c-0.4,1.2-1.1,2.3-2,3.3c-2.2,2.5-5.2,4.2-8.5,4.8c-0.2,0.1-0.5,0.1-0.8,0.1c0,0.2,0.1,0.4,0.1,0.5c0.3,1.1,0.5,2.3,0.4,3.5
						c0,1.4-0.3,2.8-0.7,4.1c-0.5,1.5-1.3,3-2.3,4.2c-1,1.2-2.3,2-3.8,2.3c-1.1,0.3-2.1,0.4-3.2,0.3c-1.1-0.1-2.1-0.3-3.2-0.6
						c-1.1-0.3-2.1-0.7-3.2-1.1c-1.7-0.6-3.3-1.6-4.7-2.8c-1.4-1.2-2.4-2.9-2.7-4.7c-0.1-0.9-0.1-1.7,0-2.6c0.1-1.1,0.4-2.2,0.9-3.3
						c0.7-1.7,1.7-3.2,3-4.4c0.6-0.6,1.3-1.1,1.9-1.6L312.6,45.1z M313.7,57.9L313.7,57.9c-1.2,0-1.4,0.8-1.2,1.7
						c0,0.1,0.1,0.3,0.1,0.4c0.3,1,0.9,1.8,1.8,2.3c0.9,0.4,1.7,0.8,2.7,1c1.3,0.4,2.7,0.1,3.7-0.9c0.5-0.3,0.6-0.9,0.3-1.4
						c-0.1-0.1-0.2-0.2-0.3-0.3c-0.5-0.4-1.1-0.8-1.7-1.1c-1-0.4-2.1-0.8-3.1-1.2C315.2,58.2,314.5,58.1,313.7,57.9L313.7,57.9z
						 M312.8,48.9c0-0.8-0.3-1.2-0.9-1.3c-0.5-0.1-1,0.1-1.3,0.5c-1.2,1.5-2.1,3.2-2.7,5c-0.1,0.3-0.1,0.6,0,0.9
						c0.1,0.6,0.6,0.9,1.1,0.9c0.3,0,0.5-0.2,0.7-0.4c0.4-0.6,0.8-1.2,1.2-1.8c0.5-0.8,0.9-1.7,1.3-2.5
						C312.5,49.7,312.6,49.3,312.8,48.9L312.8,48.9z M329.4,55.4c0-0.3-0.1-0.7-0.1-1c-0.2-0.6-0.8-0.9-1.3-0.8c0,0,0,0,0,0
						c0,0-0.1,0-0.1,0c-0.4,0.2-0.7,0.6-0.8,1c-0.4,1.5-0.7,3-1,4.6c-0.1,0.5-0.1,1,0,1.4c0.1,0.5,0.6,0.9,1.1,0.8
						c0.1,0,0.2-0.1,0.3-0.1c0.4-0.2,0.6-0.6,0.8-1c0.3-0.9,0.6-1.7,0.8-2.6C329.2,56.9,329.3,56.1,329.4,55.4L329.4,55.4z"/>
				</g>
			</g>
		</g>
	</g>
</g>
</svg>
