<svg id="Layer_1" enable-background="new 0 0 52 52" height="512" viewBox="0 0 52 52" width="512" xmlns="http://www.w3.org/2000/svg"><g id="_x35_0"><g><g><g><path d="m8.934351 44.332489-6.5043945-3.7548828c-.7193835-.4155045-.6854159-1.1447754-.0068359-1.5371094l6.4707031-3.7607422c.6318359-.3671875 1.6230469-.3671875 2.2578125 0l6.5048828 3.7548828c.7046585.4066887.7105389 1.1285973.0073242 1.5371094l-6.4711914 3.7607422c-.6155806.35812-1.6300211.363224-2.2583008 0zm1.0874023-8.9287109c-.3364258 0-.671875.0732422-.9267578.2216797l-6.4711914 3.7607422c-.4278371.2471046-.428421.5946388.0063477.8457031l6.5043945 3.7548828c.5048828.2910156 1.355957.2910156 1.8569336 0l6.4711914-3.7607422c.4271202-.248394.4373512-.587738-.0063477-.8457031l-6.5048828-3.7548828c-.2568359-.147461-.59375-.2216797-.9296875-.2216797z" fill="#9ea9c9"/></g></g></g><g><g><g><path d="m20.7966557 37.5141296-6.5043945-3.7558594c-.7173939-.4128876-.6872082-1.1420135-.0073242-1.5371094l6.4711914-3.7607422c.6318359-.3671875 1.6225586-.3671875 2.2583008 0l6.5043945 3.7558594c.7046585.4066887.7105389 1.1285973.0073242 1.5371094l-6.4711914 3.7607422c-.6287766.3659745-1.6204644.3683968-2.2583008 0zm1.0874023-8.9296875c-.3364258 0-.671875.0732422-.9267578.2216797l-6.4711914 3.7607422c-.4321175.2516403-.4232759.5976105.0063477.8457031l6.5043945 3.7558594c.5048828.2910156 1.355957.2910156 1.8569336 0l6.4711914-3.7607422c.4271202-.248394.4373512-.587738-.0063477-.8457031l-6.5043945-3.7558594c-.256836-.1474609-.59375-.2216797-.9301758-.2216797z" fill="#9ea9c9"/></g></g></g><g><g><g><path d="m32.6589622 30.6957703-6.5043964-3.7558594c-.718153-.4133244-.6867199-1.1420135-.0068359-1.5371094l6.470705-3.7607422c.6318359-.3671875 1.6225586-.3671875 2.2583008 0l6.5043945 3.7558594c.7046547.4066887.710537 1.1285954.0073242 1.5371094l-6.4711914 3.7607422c-.6280555.3649883-1.6240043.3669185-2.2583008 0zm.1606446-8.7080078-6.470705 3.7607422c-.2045898.1191406-.3217773.2724609-.3217773.4208984.0004883.1494141.1196289.3046875.3276367.4248047l6.5043964 3.7558594c.5048828.2910156 1.3544922.2910156 1.8574219 0l6.4707031-3.7607422c.4271164-.2483959.4373512-.587738-.0063477-.8457031l-6.5043945-3.7558594c-.5138664-.2950306-1.3484764-.296114-1.8569336 0z" fill="#9ea9c9"/></g></g></g><g><g><g><path d="m41.7121964 21.8498783-.0099487 2.8699951c0 .210083-.1400146.4300537-.4200439.5899658l-6.4699708 3.7600098c-.5599976.3300781-1.4899902.3300781-2.0599976 0l-6.5100117-3.75c-.2800293-.1699219-.4199829-.3898926-.4199829-.5999756v-2.8699951c0-.2199707.1399536-.4399414.4199829-.5999756l6.4699726-3.7600098c.5700073-.3299561 1.4900513-.3299561 2.0599976 0l6.5 3.7600098c.3900146.2199707.4900513.5198975.3700562.7999268.0299682-.0699463.0699463-.1298828.0699463-.1999512z" fill="#dedffb"/></g><g><path d="m41.7121964 21.8498783-.0099487 2.8699951c0 .210083-.1400146.4300537-.4200439.5899658l-6.4699708 3.7600098c-.5599976.3300781-1.4899902.3300781-2.0599976 0l-6.5100117-3.75c-.2800293-.1699219-.4199829-.3898926-.4199829-.5999756v-2.8699951c0-.2199707.1399536-.4399414.4199829-.5999756l6.4699726-3.7600098c.5700073-.3299561 1.4900513-.3299561 2.0599976 0l6.5 3.7600098c.3900146.2199707.4900513.5198975.3700562.7999268.0299682-.0699463.0699463-.1298828.0699463-.1999512z" fill="#dedffb"/></g><g><g enable-background="new"><g><g><path d="m41.2837791 22.4386253-6.4711494 3.7606335c-.5592461.3249989-1.4854317.3301659-2.0572319 0l-6.5045452-3.7553806c-.2866497-.1654892-.428093-.3828239-.427496-.59939l-.0048676 2.8718834c-.0005989.2165661.1408882.4339008.4275379.59939l6.5045033 3.7553806c.5718422.3301678 1.497982.3249989 2.0572739 0l6.4711037-3.7606335c.2822495-.1639938.4235268-.3776569.4241219-.5916595l.0048714-2.8718834c-.000599.2140026-.1419183.4276657-.424122.5916595z" fill="#dedffb"/></g></g><g><g><g><path d="m41.2770386 21.2470169c.5718307.3301468.5748215.8614788.0067215 1.1916218l-6.471138 3.7606163c-.5592499.3250008-1.485424.330164-2.0572548.0000172l-6.5045204-3.7553864c-.5718307-.3301468-.5659428-.8666382-.0066929-1.1916389l6.4711399-3.7606144c.5681-.3301449 1.4853935-.3301487 2.0572243-.0000019z" fill="#f3f1fc"/></g></g></g></g></g><g><g enable-background="new"><g><g><path d="m39.7460709 12.2459841-5.1480179 2.9917097c-.4448967.2585478-1.1817055.2626591-1.6365929 0l-5.1745853-2.9875307c-.2280388-.1316519-.3405628-.3045492-.3400879-.4768353l-.0038719 8.926362c-.0004768.1722851.1120815.3451824.3401203.4768353l5.1745491 2.9875298c.4549217.2626591 1.1916962.2585487 1.636631 0l5.1479797-2.9917088c.2245407-.1304626.3369293-.3004379.3374023-.470686l.0038757-8.9263611c-.0004767.1702472-.1128997.3402224-.3374022.4706851z" fill="#9ea9c9"/></g></g><g><g><path d="m39.7460709 14.175251-5.1480179 2.9917107c-.4448967.2585468-1.1817055.2626572-1.6365929 0l-5.1745853-2.9875317c-.2280388-.1316519-.3405628-.3045492-.3400879-.4768343l-.0038719.7765322c-.0004768.172286.1120815.3451824.3401203.4768353l5.1745491 2.9875298c.4549217.2626591 1.1916962.2585487 1.636631 0l5.1479797-2.9917088c.2245407-.1304636.3369293-.3004389.3374023-.470686l.0038757-.7765322c-.0004767.1702471-.1128997.3402224-.3374022.470685z" fill="#4c5c75"/></g></g><g><g><path d="m39.7460709 15.8175354-5.1480179 2.9917107c-.4448967.2585468-1.1817055.2626572-1.6365929 0l-5.1745853-2.9875317c-.2280388-.1316519-.3405628-.3045492-.3400879-.4768343l-.0038719.7765322c-.0004768.1722851.1120815.3451824.3401203.4768353l5.1745491 2.9875317c.4549217.2626572 1.1916962.2585468 1.636631 0l5.1479797-2.9917107c.2245407-.1304626.3369293-.3004379.3374023-.470686l.0038757-.7765322c-.0004767.1702471-.1128997.3402224-.3374022.470685z" fill="#4c5c75"/></g></g><g><g><path d="m39.7460709 17.4598198-5.1480179 2.9917107c-.4448967.2585468-1.1817055.2626591-1.6365929 0l-5.1745853-2.9875317c-.2280388-.1316509-.3405628-.3045483-.3400879-.4768353l-.0038719.7765331c-.0004768.172287.1120815.3451824.3401203.4768353l5.1745491 2.9875317c.4549217.2626572 1.1916962.2585468 1.636631 0l5.1479797-2.9917107c.2245407-.1304626.3369293-.3004379.3374023-.470686l.0038757-.7765312c-.0004767.1702462-.1128997.3402214-.3374022.4706841z" fill="#4c5c75"/></g></g><g><g><path d="m39.7460709 19.1021042-5.1480179 2.9917107c-.4448967.2585468-1.1817055.2626591-1.6365929 0l-5.1745853-2.9875317c-.2280388-.1316509-.3405628-.3045483-.3400879-.4768333l-.0038719.7765312c-.0004768.172287.1120815.3451843.3401203.4768353l5.1745491 2.9875317c.4549217.2626572 1.1916962.2585468 1.636631 0l5.1479797-2.9917107c.2245407-.1304626.3369293-.3004379.3374023-.470686l.0038757-.7765312c-.0004767.1702461-.1128997.3402213-.3374022.470684z" fill="#4c5c75"/></g></g><g><g><g><path d="m39.7407074 11.2980204c.4549141.2626429.4572906.6853352.0053482.9479752l-5.1480064 2.9916954c-.4449005.2585487-1.1817055.2626572-1.6366158.0000143l-5.1745625-2.9875355c-.4549122-.2626429-.4502277-.6894398-.0053253-.9479895l5.1480083-2.9916945c.4519424-.26264 1.1816826-.2626438 1.6365929-.000001z" fill="#c9cee2"/></g></g></g></g></g><g opacity=".35"><g enable-background="new"><g><g><path d="m40.5451393 9.7793608-5.8236313 3.3842974c-.5032883.2925177-1.336792.2971296-1.8514175.0000391l-5.8536491-3.3796091c-.2564659-.1480846-.3837566-.3441334-.3832188-.5397215l-.0290947 12.3362799c-.000576.195549.1267529.3916359.3831806.5396824l5.8536873 3.3796082c.5146255.2971306 1.3481331.2924786 1.8514175 0l5.8236313-3.3843365c.2539673-.147583.3811073-.3398666.3816452-.5324574l.0291328-12.3362398c-.0005378.1925515-.127716.3848342-.3816833.5324573z" fill="#57b3fe"/></g></g></g></g><g><path d="m41.7121964 6.5298104-.0099487 2.8701177c0 .2099609-.1400146.4299316-.4200439.5899658l-6.4699707 3.7600098c-.5599976.3199463-1.4899902.3299561-2.0599976 0l-6.5100117-3.7600098c-.2800293-.1600342-.4199829-.3800049-.4199829-.5899658v-2.8801274c0-.2099609.1399536-.4299316.4199829-.5898438l6.4699726-3.7600098c.5700073-.330078 1.4900513-.330078 2.0599976 0l6.5 3.7600098c.3900146.2199707.4900513.5198975.3700562.7999268.0299681-.0699463.0699462-.1300049.0699462-.2000733z" fill="#dedffb"/></g><g><g enable-background="new"><g><g><path d="m41.2837791 7.1172633-6.4711494 3.7606339c-.5592461.3249989-1.4854317.3301668-2.0572319 0l-6.5045452-3.7553806c-.2866497-.1654892-.428093-.3828239-.427496-.5993905l-.0048675 2.8718839c-.0005989.2165661.1408882.4339018.4275379.59939l6.5045033 3.7553806c.5718422.3301668 1.497982.3249989 2.0572739 0l6.4711037-3.7606335c.2822495-.1639938.4235268-.377656.4241219-.5916595l.0048714-2.8718843c-.0005991.214004-.1419184.4276662-.4241221.59166z" fill="#dedffb"/></g></g><g><g><g><path d="m41.2770386 5.9256558c.5718307.3301468.5748215.8614788.0067215 1.1916218l-6.471138 3.7606149c-.5592499.3250008-1.485424.3301659-2.0572548.0000191l-6.5045204-3.7553868c-.5718307-.3301468-.5659428-.8666387-.0066929-1.1916394l6.4711399-3.7606151c.5681-.3301433 1.4853935-.3301476 2.0572243-.0000007z" fill="#f3f1fc"/></g></g></g></g></g><g><path d="m38.9021988 5.6799569v1.1699219c0 .1199951-.0799561.2399902-.2399902.3300781l-4.3099976 2.5000005c-.3099976.1799316-.8300171.1799316-1.1499634 0l-4.330019-2.5000005c-.1600342-.1000977-.2399902-.2200928-.2399902-.3400879v-1.1599121c0-.1201172.0799561-.2399902.2399902-.3300781l4.2999897-2.5c.3200073-.1899414.8300171-.1899414 1.1500244 0l4.3399658 2.5c.210022.1199951.2700195.2900391.2000122.4499512.0200196-.039917.0399781-.0799561.0399781-.1198731z" fill="#b0b8cf"/></g><g><g><g><g><g enable-background="new"><g><g><path d="m38.6651268 6.0155425-4.3040924 2.501266c-.3181801.1849184-.8336906.1836567-1.1539421-.0012407l-4.332243-2.501225c-.16115-.093049-.241642-.2145624-.2413101-.3358898l-.0039101 1.1619873c-.00033.1213274.0801411.2428617.2413101.3358893l4.3322239 2.5012255c.3202705.1848974.8357811.1861591 1.153965.0012407l4.3040886-2.5012455c.1575279-.0915594.2361145-.2109833.2364693-.3306766l.0039101-1.1619868c-.0003319.1196928-.0789414.2391172-.2364693.3306556z" fill="#b0b8cf"/></g></g><g><g><g><path d="m38.6592064 5.3471441c.3202667.1849046.3241043.4835038.0059204.6684122l-4.304081 2.5012579c-.3181839.1849079-.8336945.1836605-1.1539574-.0012436l-4.3322392-2.5012178c-.3202648-.1849055-.3219376-.482255-.0037537-.6671634l4.3040791-2.5012581c.3181839-.1849082.8315315-.1849105 1.1517982-.0000052z" fill="#fff"/></g></g></g></g></g><g><g><g><g><g><g><path d="m35.7709999 6.8340392c-1.1048965.63797-2.8937645.63797-3.9921188 0-1.1048965-.6379299-1.0983143-1.6704917 0-2.3084211 1.0917702-.6313868 2.8609314-.63797 3.9724083 0 1.0983162.6379294 1.1114807 1.6704912.0197105 2.3084211z" fill="#4c5c75"/></g></g></g></g></g></g><g><g><g><g><path d="m34.8353195 4.7160873c.1044807.130868.0016136.2871113-.2297783.3411961-.2494202.0582976-.4948158.1722903-.635273.3879371.0766754.0227695.1528206.0602517.2070122.1195178.4939842-.0432119 1.0855522.0264173 1.4487534.3705683.1390724.1322041.0512772.303803-.1892853.3672366-.1713028.0456314-.3682518.0219636-.494339-.0508318-.1323204-.076396-.1727905-.3254828-.7661133-.451942-.0494881.0609355-.1324272.0981669-.2079697.1195192.1147881.4164615-.2268944.6936674-.6338959.8373008-.181076.0636926-.4041634.045104-.5445862-.0359702-.2223206-.128356-.1510811-.3480864.13974-.4160624.2480659-.057982.4925385-.1687889.635273-.3879371-.0745964-.0198221-.155056-.0592217-.2047043-.1195173-.4964026.0445719-1.0863036-.0260434-1.4510631-.3705677-.1379147-.1315365-.0535736-.3024683.1892872-.3672366.1713028-.0456319.3682518-.0219636.4943352.0508313.1334991.077075.169117.3209324.7672729.45261.0494385-.0576491.1311531-.0969934.2045174-.1188521-.1137085-.4163499.230896-.6956038.6361923-.8386354.2078705-.0731202.5161591-.0390526.6346245.1108354z" fill="#fff"/></g></g></g></g></g></g></g><g><g><g><g><ellipse cx="36.631" cy="9.075" fill="#f45170" rx=".239" ry=".412" transform="matrix(.003 -1 1 .003 27.452 45.68)"/></g></g></g><g><g><g><ellipse cx="35.604" cy="9.672" fill="#f45170" rx=".239" ry=".412" transform="matrix(.003 -1 1 .003 25.832 45.249)"/></g></g></g><g><g><g><path d="m34.8718719 10.0973816c.1621056.0935917.162941.244071-.0012703.3394995-.1610413.0935869-.420826.0935946-.5829315.0000029-.1620979-.093586-.1629448-.244071-.0019035-.3376579.1642113-.0954286.4240112-.0954305.5861053-.0018445z" fill="#f45170"/></g></g></g></g><g><g><g><g><path d="m41.3485298 8.2905769.0007744.2728167-3.8301888 2.21136-.0007743-.2728167z" fill="#b0b8cf"/></g></g></g><g><g><g><path d="m41.3500786 8.8362103.0007591.2676849-3.8301887 2.21136-.0007592-.267685z" fill="#b0b8cf"/></g></g></g><g><g><g><path d="m41.3469963 7.7500753.0007591.267685-3.8301887 2.21136-.0007591-.267685z" fill="#b0b8cf"/></g></g></g></g></g><g><g><path d="m29.8522091 28.739893-.0100098 2.8699951c0 .2099609-.1399536.4299335-.4199829.5899677l-6.4699707 3.7600098c-.5599976.3299561-1.4900513.3299561-2.0599976 0l-6.5100098-3.75c-.2800293-.1700439-.4200439-.3900166-.4200439-.5999775v-2.8699951c0-.2200928.1400146-.4300537.4200439-.5999756l6.4699707-3.7600098c.5700073-.3300781 1.4899902-.3300781 2.0599976 0l6.5 3.7600098c.3900146.2199707.4899902.5300293.3599854.8099365.0400391-.0699463.0800171-.1400147.0800171-.2099609z" fill="#dedffb"/></g><g><g enable-background="new"><g><g><path d="m29.4234085 29.3291855-6.4711494 3.7606354c-.5592461.3249969-1.4854298.3301659-2.05723 0l-6.5045471-3.7553825c-.2866478-.1654873-.428093-.382822-.427495-.59939l-.0048685 2.8718853c-.000598.2165661.1408901.4338989.4275379.5993881l6.5045033 3.7553825c.5718441.3301659 1.4979839.3249969 2.0572739 0l6.4711056-3.7606354c.2822495-.1639938.4235249-.377655.4241219-.5916595l.0048695-2.8718834c-.0005991.2140045-.1419165.4276657-.4241221.5916595z" fill="#dedffb"/></g></g><g><g><g><path d="m29.4166698 28.137579c.5718307.3301468.5748215.8614788.0067215 1.1916218l-6.471138 3.7606163c-.5592499.3250008-1.4854259.330162-2.0572567.0000153l-6.5045195-3.7553844c-.5718317-.3301468-.5659428-.8666382-.0066919-1.1916389l6.471138-3.7606163c.5681-.330143 1.4853954-.3301468 2.0572262 0z" fill="#f3f1fc"/></g></g></g></g></g><g><g enable-background="new"><g><g><path d="m27.8857002 19.1365452-5.148016 2.9917107c-.4448986.2585468-1.1817074.2626572-1.6365948 0l-5.1745844-2.9875317c-.2280388-.1316509-.3405628-.3045483-.3400869-.4768353l-.0038729 8.926363c-.0004759.1722851.1120825.3451824.3401203.4768333l5.1745501 2.9875317c.4549217.2626591 1.1916962.2585468 1.6366291 0l5.1479816-2.9917107c.2245388-.1304626.3369274-.3004379.3374043-.4706841l.0038719-8.926363c-.0004749.1702482-.1128978.3402234-.3374023.4706861z" fill="#9ea9c9"/></g></g><g><g><path d="m27.8857002 21.0658131-5.148016 2.9917088c-.4448986.2585487-1.1817074.2626591-1.6365948 0l-5.1745844-2.9875298c-.2280388-.1316528-.3405628-.3045502-.3400869-.4768353l-.0038729.7765331c-.0004759.1722851.1120825.3451824.3401203.4768333l5.1745501 2.9875317c.4549217.2626591 1.1916962.2585468 1.6366291 0l5.1479816-2.9917107c.2245388-.1304626.3369274-.3004379.3374043-.4706841l.0038719-.7765331c-.0004749.1702481-.1128978.3402234-.3374023.4706861z" fill="#4c5c75"/></g></g><g><g><path d="m27.8857002 22.7080975-5.148016 2.9917088c-.4448986.2585487-1.1817074.2626591-1.6365948 0l-5.1745844-2.9875298c-.2280388-.1316528-.3405628-.3045502-.3400869-.4768353l-.0038729.7765331c-.0004759.1722851.1120825.3451824.3401203.4768333l5.1745501 2.9875317c.4549217.2626591 1.1916962.2585468 1.6366291 0l5.1479816-2.9917107c.2245388-.1304626.3369274-.3004379.3374043-.4706841l.0038719-.7765331c-.0004749.1702481-.1128978.3402234-.3374023.4706861z" fill="#4c5c75"/></g></g><g><g><path d="m27.8857002 24.3503819-5.148016 2.9917107c-.4448986.2585468-1.1817074.2626572-1.6365948 0l-5.1745844-2.9875317c-.2280388-.1316528-.3405628-.3045502-.3400869-.4768353l-.0038729.7765331c-.0004759.1722851.1120825.3451824.3401203.4768353l5.1745501 2.9875298c.4549217.2626591 1.1916962.2585487 1.6366291 0l5.1479816-2.9917088c.2245388-.1304646.3369274-.3004398.3374043-.470686l.0038719-.7765331c-.0004749.170248-.1128978.3402233-.3374023.470686z" fill="#4c5c75"/></g></g><g><g><path d="m27.8857002 25.9926662-5.148016 2.9917107c-.4448986.2585468-1.1817074.2626572-1.6365948 0l-5.1745844-2.9875317c-.2280388-.1316528-.3405628-.3045502-.3400869-.4768353l-.0038729.7765331c-.0004759.1722851.1120825.3451824.3401203.4768353l5.1745501 2.9875298c.4549217.2626591 1.1916962.2585487 1.6366291 0l5.1479816-2.9917088c.2245388-.1304626.3369274-.3004379.3374043-.470686l.0038719-.7765331c-.0004749.1702481-.1128978.3402234-.3374023.470686z" fill="#4c5c75"/></g></g><g><g><g><path d="m27.8803387 18.1885815c.4549122.2626438.4572906.6853352.0053482.9479752l-5.1480064 2.9916954c-.4449024.2585487-1.1817055.2626572-1.6366177.0000134l-5.1745625-2.9875355c-.4549103-.2626419-.4502258-.6894398-.0053234-.9479885l5.1480064-2.9916945c.4519424-.26264 1.1816826-.2626438 1.6365929-.000001z" fill="#c9cee2"/></g></g></g></g></g><g opacity=".35"><g enable-background="new"><g><g><path d="m28.6847706 16.6699219-5.8236332 3.3842983c-.5032864.2925167-1.336792.2971287-1.8514156.0000381l-5.8536491-3.3796101c-.2564669-.1480827-.3837585-.3441334-.3832207-.5397205l-.0290937 12.3362789c-.000577.195549.1267538.3916378.3831816.5396824l5.8536873 3.3796101c.5146236.2971306 1.3481312.2924767 1.8514175 0l5.8236313-3.3843365c.2539692-.1475849.3811054-.3398666.3816452-.5324574l.0291309-12.3362408c-.0005379.1925527-.1277142.3848344-.3816815.5324575z" fill="#57b3fe"/></g></g></g></g><g><path d="m29.8522091 13.4199476-.0100098 2.8698721c0 .210083-.1399536.4300537-.4199829.5900879l-6.4699707 3.7600098c-.5599976.3299561-1.4900513.3299561-2.0599976 0l-6.5100098-3.75c-.2800293-.1700439-.4200439-.3900146-.4200439-.6000977v-2.8798819c0-.210083.1400146-.4300537.4200439-.5900879l6.4699707-3.7600098c.5700073-.3299561 1.4899902-.3299561 2.0599976 0l6.5 3.7600098c.3900146.2199707.4899902.5300293.3599854.8100586.0400391-.0700683.0800171-.1400146.0800171-.2099609z" fill="#dedffb"/></g><g><g enable-background="new"><g><g><path d="m29.4234085 14.0078249-6.4711494 3.7606344c-.5592461.3249989-1.4854298.3301659-2.05723 0l-6.5045471-3.7553816c-.2866478-.1654892-.428093-.3828239-.427495-.59939l-.0048685 2.8718843c-.000598.2165661.1408901.4339008.4275379.59939l6.5045033 3.7553806c.5718441.3301659 1.4979839.3249989 2.0572739 0l6.4711056-3.7606335c.2822495-.1639957.4235249-.3776569.4241219-.5916615l.0048695-2.8718834c-.0005991.2140038-.1419165.4276659-.4241221.5916607z" fill="#dedffb"/></g></g><g><g><g><path d="m29.4166698 12.8162174c.5718307.3301468.5748215.8614779.0067215 1.1916218l-6.471138 3.7606144c-.5592499.3250008-1.4854259.3301659-2.0572567.0000191l-6.5045195-3.7553864c-.5718317-.3301477-.5659428-.8666391-.0066919-1.1916399l6.471138-3.7606153c.5681-.330143 1.4853954-.3301477 2.0572262 0z" fill="#f3f1fc"/></g></g></g></g></g><g><path d="m27.0422115 12.5798597v1.1600342c-.0100098.1199951-.0800171.2399902-.2399902.3299561l-4.3099976 2.499999c-.3099976.1800537-.8300171.1800537-1.1500244 0l-4.3299561-2.499999c-.1600342-.0999756-.2400513-.2199707-.2400513-.3399658v-1.1600342c0-.1199951.0800171-.2399902.2400513-.3299561l4.2999878-2.5c.3200073-.1900635.8300171-.1900635 1.1499634 0l4.3400269 2.5c.210022.1199951.2700195.289917.2000122.4500732.0199585-.040039.039978-.0800781.039978-.1101074z" fill="#b0b8cf"/></g><g><g><g><g><g enable-background="new"><g><g><path d="m26.8047562 12.9061031-4.3040886 2.5012665c-.318182.1849184-.8336945.1836567-1.153944-.0012407l-4.3322449-2.5012255c-.1611481-.0930481-.2416401-.2145615-.2413101-.3358889l-.0039082 1.1619873c-.0003319.1213274.0801392.2428608.2413101.3358889l4.332222 2.5012245c.3202705.1848984.835783.186161 1.153965.0012417l4.3040886-2.5012455c.1575279-.0915594.2361183-.2109833.2364693-.3306761l.0039101-1.1619873c-.0003319.1196928-.0789414.2391167-.2364693.3306551z" fill="#b0b8cf"/></g></g><g><g><g><path d="m26.7988377 12.2377052c.3202648.1849041.3241024.4835043.0059185.6684122l-4.3040791 2.5012579c-.3181839.1849089-.8336964.1836615-1.1539593-.0012436l-4.3322372-2.5012178c-.3202648-.1849051-.3219395-.482255-.0037556-.6671638l4.304081-2.5012579c.3181839-.1849079.8315296-.1849098 1.1517963-.0000048z" fill="#fff"/></g></g></g></g></g><g><g><g><g><g><g><path d="m23.9106312 13.7245998c-1.1048965.63797-2.8937664.63797-3.9921188 0-1.1048965-.637929-1.0983143-1.6704912 0-2.3084211 1.0917702-.6313868 2.8609295-.63797 3.9724083 0 1.0983142.6379299 1.1114807 1.6704922.0197105 2.3084211z" fill="#4c5c75"/></g></g></g></g></g></g><g><g><g><g><path d="m22.8858109 11.5323019c.2190266.1264553.1529713.3469162-.1406384.4155426-.2494202.0582981-.4948177.1722908-.6352749.3879375.0766754.022769.1528225.0602512.2070122.1195173.4939861-.0432119 1.0855522.0264168 1.4487553.3705683.1390705.1322041.0512772.3038025-.1892853.3672361-.1713047.0456314-.3682518.0219641-.4943371-.0508318-.1322708-.0763655-.1732941-.3255892-.7661152-.4519415-.04949.060936-.1324291.0981674-.2079716.1195192.1147881.416461-.2268944.6936674-.6338959.8373003-.209671.0737524-.5143089.0396938-.6346226-.1108351-.1044846-.1308689-.0016174-.2871113.2297764-.341197.2480679-.0579815.4925385-.1687889.635273-.3879366-.0745926-.0198221-.155056-.0592222-.2047043-.1195183-.4964027.0445728-1.0863018-.0260429-1.4510612-.3705673-.1379147-.1315365-.0535755-.3024683.1892853-.3672361.1713028-.0456324.3682518-.0219641.4943371.0508308.1329384.0767527.1692314.3209581.7672729.45261.0494366-.0576487.1311512-.0969934.2045155-.1188517-.1137066-.4163504.230896-.6956043.6361942-.8386354.1810742-.0636948.4056225-.0442618.5454846.0364887z" fill="#fff"/></g></g></g></g></g></g></g><g><g><g><g><ellipse cx="24.77" cy="15.966" fill="#f45170" rx=".239" ry=".412" transform="matrix(.003 -1 1 .003 8.734 40.691)"/></g></g></g><g><g><g><ellipse cx="23.744" cy="16.562" fill="#f45170" rx=".239" ry=".412" transform="matrix(.003 -1 1 .003 7.115 40.259)"/></g></g></g><g><g><g><path d="m23.0115032 16.9879436c.1621056.0935917.162941.2440701-.0012684.3394985-.1610432.0935879-.4208298.0935955-.5829353.0000038-.162096-.093586-.1629429-.244072-.0019016-.3376579.1642112-.0954303.4240093-.0954303.5861053-.0018444z" fill="#f45170"/></g></g></g></g><g><g><g><g><path d="m29.4881611 15.181138.0007725.2728167-3.8301888 2.2113609-.0007725-.2728176z" fill="#b0b8cf"/></g></g></g><g><g><g><path d="m29.4897079 15.7267714.0007592.2676849-3.8301888 2.21136-.0007591-.267685z" fill="#b0b8cf"/></g></g></g><g><g><g><path d="m29.4866276 14.6406364.0007591.267685-3.8301887 2.2113609-.0007592-.2676849z" fill="#b0b8cf"/></g></g></g></g></g><g><g><path d="m17.982214 35.6299095v2.8699951c0 .2099609-.1400146.4300537-.4199829.5899658l-6.4799805 3.7600098c-.5500488.3300781-1.4800415.3300781-2.0500488 0l-6.5100093-3.75c-.2799683-.1699219-.4299927-.3900146-.4199829-.5999756v-2.8699951c0-.2199707.1400146-.4300537.4199829-.6000977l6.4700313-3.7600117c.5700073-.329834 1.4899902-.329834 2.0599976 0l6.5 3.7600117c.3900146.2200928.4899902.5300293.3599854.8100586.0400389-.0700683.0700072-.1400146.0700072-.2099609z" fill="#dedffb"/></g><g><g enable-background="new"><g><g><path d="m17.5630379 36.2197456-6.4711485 3.7606354c-.5592461.3250008-1.4854288.3301659-2.05723 0l-6.5045466-3.7553787c-.286648-.1654892-.428093-.3828239-.4274952-.5993919l-.0048686 2.8718833c-.000598.216568.1408899.4339027.4275379.5993919l6.5045042 3.7553787c.5718441.3301659 1.4979839.3250008 2.057272 0l6.4711075-3.7606316c.2822495-.1639938.4235229-.3776588.4241219-.5916634l.0048676-2.8718834c-.0005974.2140047-.1419147.4276659-.4241222.5916597z" fill="#dedffb"/></g></g><g><g><g><path d="m17.5563011 35.028141c.5718307.3301468.5748215.8614769.0067215 1.1916199l-6.471139 3.7606163c-.5592508.3250008-1.485425.3301659-2.0572567.0000191l-6.5045195-3.7553864c-.571831-.3301468-.5659423-.8666382-.0066919-1.1916389l6.471139-3.7606163c.568099-.330143 1.4853945-.3301487 2.0572262-.0000019z" fill="#f3f1fc"/></g></g></g></g></g><g><g enable-background="new"><g><g><path d="m16.0253315 26.0271072-5.1480169 2.9917088c-.4448986.2585487-1.1817083.2626591-1.6365948 0l-5.1745844-2.9875298c-.2280383-.1316528-.3405626-.3045502-.3400869-.4768353l-.0038731 8.9263611c-.0004756.172287.1120825.3451843.3401206.4768333l5.17455 2.9875337c.4549217.2626572 1.1916971.2585449 1.6366291 0l5.1479826-2.9917107c.2245388-.1304626.3369274-.3004379.3374023-.4706841l.0038738-8.926363c-.0004768.1702462-.1128978.3402234-.3374023.470686z" fill="#9ea9c9"/></g></g><g><g><path d="m16.0253315 27.9563732-5.1480169 2.9917107c-.4448986.2585468-1.1817083.2626572-1.6365948 0l-5.1745844-2.9875317c-.2280383-.1316509-.3405626-.3045483-.3400869-.4768353l-.0038731.7765331c-.0004756.1722851.1120825.3451824.3401206.4768353l5.17455 2.9875317c.4549217.2626572 1.1916971.2585468 1.6366291 0l5.1479826-2.9917107c.2245388-.1304626.3369274-.3004379.3374023-.470686l.0038738-.7765331c-.0004768.1702481-.1128978.3402234-.3374023.470686z" fill="#4c5c75"/></g></g><g><g><path d="m16.0253315 29.5986576-5.1480169 2.9917088c-.4448986.2585487-1.1817083.262661-1.6365948 0l-5.1745844-2.9875298c-.2280383-.1316509-.3405626-.3045483-.3400869-.4768353l-.0038731.7765331c-.0004756.1722851.1120825.3451824.3401206.4768353l5.1745501 2.9875317c.4549217.2626572 1.1916971.2585449 1.6366291 0l5.1479826-2.9917107c.2245388-.1304626.3369274-.3004379.3374023-.470686l.0038738-.7765312c-.0004769.1702462-.1128979.3402215-.3374024.4706841z" fill="#4c5c75"/></g></g><g><g><path d="m16.0253315 31.240942-5.1480169 2.9917126c-.4448986.2585449-1.1817083.2626572-1.6365948 0l-5.1745844-2.9875336c-.2280383-.1316509-.3405626-.3045483-.3400869-.4768333l-.0038731.7765312c-.0004756.172287.1120825.3451843.3401206.4768372l5.1745501 2.9875298c.4549217.2626572 1.1916971.2585487 1.6366291 0l5.1479826-2.9917107c.2245388-.1304626.3369274-.3004379.3374023-.470686l.0038738-.7765312c-.0004769.1702461-.1128979.3402214-.3374024.470684z" fill="#4c5c75"/></g></g><g><g><path d="m16.0253315 32.8832283-5.1480169 2.9917107c-.4448986.2585449-1.1817083.2626572-1.6365948 0l-5.1745844-2.9875336c-.2280383-.1316528-.3405626-.3045464-.3400869-.4768333l-.0038731.7765312c-.0004756.172287.1120825.3451843.3401206.4768372l5.1745501 2.9875298c.4549217.2626572 1.1916971.2585487 1.6366291 0l5.1479826-2.9917107c.2245388-.1304626.3369274-.3004379.3374023-.4706841l.0038738-.776535c-.0004769.1702499-.1128979.3402252-.3374024.4706878z" fill="#4c5c75"/></g></g><g><g><g><path d="m16.0199699 25.0791435c.4549103.2626419.4572906.6853352.0053482.9479752l-5.1480083 2.9916935c-.4449015.2585506-1.1817055.2626591-1.6366158.0000153l-5.1745629-2.9875355c-.454911-.2626419-.4502263-.6894398-.0053239-.9479885l5.1480074-2.9916954c.4519424-.26264 1.1816816-.2626438 1.6365919 0z" fill="#c9cee2"/></g></g></g></g></g><g opacity=".35"><g enable-background="new"><g><g><path d="m16.8243999 23.5604839-5.8236313 3.3842964c-.5032864.2925167-1.3367929.2971306-1.8514175.0000381l-5.8536482-3.3796082c-.2564666-.1480846-.3837583-.3441334-.3832202-.5397205l-.0290942 12.336277c-.0005765.1955528.1267536.3916397.3831818.5396843l5.8536873 3.3796082c.5146236.2971306 1.3481302.2924805 1.8514166 0l5.8236332-3.3843346c.2539673-.1475868.3811054-.3398666.3816433-.5324593l.0291328-12.3362389c-.0005381.1925508-.1277144.3848345-.3816836.5324575z" fill="#57b3fe"/></g></g></g></g><g><path d="m17.982214 20.3098392v2.8701172c0 .2099609-.1400146.4299316-.4199829.5898438l-6.4799805 3.7600098c-.5500488.3300781-1.4800415.3300781-2.0500488 0l-6.5100093-3.75c-.2799683-.1699219-.4299927-.3898926-.4199829-.5998535v-2.8701172c0-.2199707.1400146-.4399414.4199829-.5999756l6.4700313-3.7600088c.5700073-.3299561 1.4899902-.3299561 2.0599976 0l6.5 3.7600088c.3900146.2200928.4899902.5300293.3599854.8099365.0400389-.0699463.0700072-.1398926.0700072-.209961z" fill="#dedffb"/></g><g><g enable-background="new"><g><g><path d="m17.5630379 20.898386-6.4711485 3.7606335c-.5592461.3249989-1.4854288.3301659-2.05723 0l-6.5045466-3.7553806c-.286648-.1654892-.428093-.3828239-.4274952-.59939l-.0048686 2.8718833c-.000598.2165661.1408899.4339008.4275379.59939l6.5045042 3.7553806c.5718441.3301678 1.4979839.3249989 2.057272 0l6.4711075-3.7606335c.2822495-.1639938.4235229-.377655.4241219-.5916595l.0048676-2.8718834c-.0005974.2140027-.1419147.4276658-.4241222.5916596z" fill="#dedffb"/></g></g><g><g><g><path d="m17.5563011 19.7067776c.5718307.3301468.5748215.8614788.0067215 1.1916218l-6.471139 3.7606163c-.5592508.3250008-1.485425.330164-2.0572567.0000172l-6.5045195-3.7553864c-.571831-.3301468-.5659423-.8666382-.0066919-1.1916389l6.471139-3.7606153c.568099-.330143 1.4853945-.3301468 2.0572262 0z" fill="#f3f1fc"/></g></g></g></g></g><g><path d="m15.1822262 19.4698734-.0100098 1.1600342c0 .1199951-.0700073.2399902-.2299805.3299561l-4.3099976 2.5c-.3099976.1800537-.8300171.1800537-1.1500244 0l-4.3300166-2.5c-.1599731-.0999756-.2399902-.2199707-.2399902-.3399658v-1.1600342c0-.1199951.0800171-.2399902.2399902-.3299561l4.3000484-2.5c.3199463-.1899414.8299561-.1899414 1.1499634 0l4.3400269 2.5c.2099609.1199951.2699585.3000488.2000122.4499512.0199584-.0400391.039978-.0699463.039978-.1099854z" fill="#b0b8cf"/></g><g><g><g><g><g enable-background="new"><g><g><path d="m14.9443865 19.7966652-4.3040895 2.5012665c-.318181.1849174-.8336935.1836567-1.153944-.0012417l-4.332243-2.5012245c-.161149-.09305-.241641-.2145634-.2413101-.3358898l-.0039097 1.1619873c-.0003309.1213264.0801401.2428608.2413096.3358898l4.3322229 2.5012245c.3202715.1848984.835783.1861591 1.153965.0012417l4.3040886-2.5012455c.1575289-.0915604.2361174-.2109833.2364693-.330677l.0039101-1.1619873c-.0003309.1196937-.0789403.2391166-.2364692.330656z" fill="#b0b8cf"/></g></g><g><g><g><path d="m14.9384689 19.1282673c.3202639.1849041.3241024.4835033.0059175.6684113l-4.3040791 2.5012589c-.3181839.1849079-.8336964.1836605-1.1539602-.0012436l-4.3322362-2.5012189c-.3202653-.184906-.321939-.4822559-.0037551-.6671638l4.3040795-2.5012569c.3181839-.1849079.8315315-.1849117 1.1517973-.0000057z" fill="#fff"/></g></g></g></g></g><g><g><g><g><g><g><path d="m12.0502605 20.6151619c-1.1048965.63797-2.8937654.63797-3.9921188 0-1.1048965-.6379299-1.0983133-1.6704922 0-2.3084221 1.0917702-.6313858 2.8609295-.63797 3.9724102 0 1.0983133.6379299 1.1114798 1.6704922.0197086 2.3084221z" fill="#4c5c75"/></g></g></g></g></g></g><g><g><g><g><path d="m11.1145792 18.4972095c.1044827.1308689.0016165.2871113-.2297773.3411961-.2494202.0582981-.4948158.1722908-.635273.3879375.0766745.0227699.1528225.0602512.2070103.1195183.4939871-.0432129 1.0855541.0264168 1.4487562.3705673.1390715.1322041.0512781.3038025-.1892862.3672371-.1713028.0456314-.3682518.0219631-.4943371-.0508327-.1323214-.076395-.1727934-.3254814-.7661152-.4519405-.04949.0609341-.1324291.0981655-.2079697.1195183.1147871.4164619-.2268953.6936684-.6338978.8373013-.5521736.1942253-.976408-.3184376-.4048462-.4520321.2480698-.0579834.4925404-.1687908.6352739-.3879375-.0745935-.0198231-.155056-.0592213-.2047052-.1195183-.4993944.0448418-1.0865679-.0262947-1.4510603-.3705673-.1379147-.1315365-.0535755-.3024673.1892853-.3672371.1713028-.0456314.3682518-.0219631.4943361.0508327.1108208.063982.1816616.3236923.7672729.45261.0494375-.0576496.1311512-.0969944.2045174-.1188526-.1137075-.4163494.230896-.6956043.6361933-.8386364.2078715-.0731202.51616-.0390511.6346226.1108359z" fill="#fff"/></g></g></g></g></g></g></g><g><g><g><g><ellipse cx="12.91" cy="22.856" fill="#f45170" rx=".239" ry=".412" transform="matrix(.003 -1 1 .003 -9.983 35.702)"/></g></g></g><g><g><g><ellipse cx="11.884" cy="23.453" fill="#f45170" rx=".239" ry=".412" transform="matrix(.003 -1 1 .003 -11.603 35.27)"/></g></g></g><g><g><g><path d="m11.1511335 23.8785038c.1621056.0935917.1629419.2440701-.0012693.3395004-.1610413.093586-.4208288.0935936-.5829353.0000019-.1620951-.093586-.1629419-.2440701-.0018997-.3376579.1642103-.0954285.4240093-.0954304.5861043-.0018444z" fill="#f45170"/></g></g></g></g><g><g><g><g><path d="m17.6277905 22.0716991.0007743.2728157-3.8301897 2.211361-.0007734-.2728157z" fill="#b0b8cf"/></g></g></g><g><g><g><path d="m17.6293373 22.6173325.0007591.2676849-3.8301887 2.2113609-.0007591-.2676849z" fill="#b0b8cf"/></g></g></g><g><g><g><path d="m17.6262589 21.5311966.0007591.2676849-3.8301897 2.211361-.0007582-.267685z" fill="#b0b8cf"/></g></g></g></g></g></g><g><g><g><path d="m15.9685307 43.9526062-2.0112305-1.1611328c-.0957031-.0546875-.128418-.1767578-.0732422-.2724609.0556641-.0957031.1777344-.1289062.2734375-.0732422l2.0112305 1.1611328c.5029297.2910156 1.3540039.2910156 1.8569336 0l22.1572284-12.9619141c.4336777-.2516155.4322739-.5915642-.0058594-.8457031l-2.0107422-1.1611328c-.0957031-.0546875-.128418-.1767578-.0732422-.2724609.0561523-.0957031.1772461-.1289062.2734375-.0732422l2.0107422 1.1611328c.7046547.4066887.710537 1.1285954.0073242 1.5371094l-22.1577167 12.961914c-.6231918.3600235-1.6342601.3613396-2.2583007 0z" fill="#9ea9c9"/></g></g></g><g><g><path d="m41.8069115 44.8647156-12.840334-7.413086.2001953-.3457031 12.840334 7.413086z" fill="#9ea9c9"/></g></g><g><g><g><g><g><path d="m42.3708763 49.9682312-4.6811523-2.7207031c-.3197823-.1850815-.319622-.555439.0029297-.7412109l4.7128906-2.7207031c.2529297-.1455078.6328125-.1455078.8837891 0l4.6811523 2.7207031c.3197784.1850815.3196182.555439-.0029297.7412109l-4.7128906 2.7207031c-.2484017.1444206-.6305161.1472549-.8837891 0zm-4.4804687-3.0664062 4.6816406 2.7207031c.1259766.0722656.3554688.0722656.4824219 0l4.7128906-2.7207031c.0494194-.0296516.0425529-.0259552.0024414-.0498047l-4.6816406-2.7207031c-.1259766-.0722656-.3554688-.0722656-.4824219 0l-4.7128906 2.7207031c-.0516777.0310058-.0419541.0263137-.0024414.0498047z" fill="#9ea9c9"/></g></g></g><g><path d="m50.0424576 29.7561283-.0158081-.2207031h-.000061l-.0001221-.0023193-.0007935.0003662c-.1012115-.0588531-2.0047226-1.1657219-1.8859863-1.0966797l-.0004272.0002441-.00177-.0009766-.2006836.1140137c-1.870224 1.062767-3.9267921 1.5877113-5.921936.7790527l-.1416626-.05896.0112305.0064697-.0020142-.0007324-.0090942-.0053711-.1220703.1933594-.0189209.0294189c-1.5445709 2.4089413-3.4387054 4.5851879-5.907959 6.0499287l-.199707.1156006-.0158081.2470703c-.1383972 2.5502281-.0201416 5.869606 1.282959 8.0494385.4556046.7620239 1.0578918 1.3397522 1.6447754 1.6850586 1.7551994.9858055 2.5429802 1.7096977 4.3328857 1.6789551.2426147-.0036621.4943237-.0244141.7523193-.0571289.0370483-.0046387.0705566-.0029297.1079102-.0081787l.0788574-.010498.0788574-.0788574c.0164795-.0167236.0298462-.0356445.0462646-.0523682.5211792-.5319824 1.0111694-1.0866699 1.4692383-1.6630859 3.2587852-4.0888558 5.03693-9.4998665 4.6395263-15.6931172z" fill="#7e5af2"/></g><g><g><g><g><g><g><g><path d="m48.8124809 39.2593994c-1.0512428 2.9960518-2.7069359 5.6556969-4.9250755 7.9053421l-.0788269.0788574-.0788536.0104904c-1.2930412.1839867-2.3968353.0105247-3.3061523-.520359l-1.8869972-1.0932732c-.6517677-.3837242-1.1984329-.9408836-1.6451988-1.6872559-1.0459824-1.7503319-1.4769974-4.4572678-1.2825203-8.0472755l.0157852-.2470589.1997375-.1156197c2.4696693-1.4650421 4.3639603-3.6417084 5.9079895-6.0499153l.1418953-.2207527.1419258.0578117c1.9910316.8085861 4.0347786.286171 5.9185104-.7779102l.2050018-.115654 1.8869629 1.0985641.0157852.2207527c.2154923 3.3587324-.1997375 6.5545217-1.229969 9.503256z" fill="#7e5af2"/></g></g></g></g><g><g><g><g><g><g enable-background="new"><g><g><g><path d="m50.0261879 29.5338268-.2006798.1141014c-1.8725891 1.0639648-3.9332657 1.5810947-5.9219093.779089l-.1416473-.0590076-1.8887367-1.0978336.141674.0590324c1.9944763.8082142 4.0505333.2841873 5.9219093-.779089l.2006798-.1141243z" fill="#b28afd"/></g></g></g><g><g><g><path d="m40.425293 46.7334061-1.88871-1.0938721c-.6531715-.381691-1.200119-.9404297-1.6447563-1.6841164-1.0466766-1.7510033-1.4794998-4.4581642-1.2827568-8.050663l.015728-.2439575 1.8848 1.0978317-.0118179.2400169c-.1967392 3.5964394.2361069 6.3036003 1.27882 8.0506668.4446372.7436639.9955214 1.3063394 1.648693 1.6840936z" fill="#b28afd"/></g></g></g><g><g><g><path d="m43.7608223 30.3683929.1422348.0575714c1.767189.7158813 3.7597847.4534969 5.9211311-.7777309l.2022858-.1151237.0143852.2247887c.2159882 3.3553944-.1987495 6.5530338-1.2307167 9.5011463-1.048481 2.9950676-2.705513 5.6541061-4.9245148 7.9047775l-.0769653.0779724-.0773926.0111465c-2.2244911.3147812-3.8909149-.425457-4.953167-2.2018929-1.0452881-1.748806-1.4767685-4.4578819-1.2804832-8.0513039l.0130653-.2406387.202282-.118454c2.1612473-1.2644234 4.1488152-3.2999878 5.9061737-6.050766z" fill="#7e5af2"/></g></g></g></g></g></g><g><g><g><path d="m43.83741 45.7021904c-1.0077667.078289-1.8687553-.1369286-2.5242577-.5283051h.0195274c-.9490089-.5478973-1.5751915-1.5066986-1.9665108-2.7003632-.4794579-1.4381981-.6261826-3.1993446-.596859-4.9408455 1.7904663-1.2523651 3.4635277-2.9840698 4.9996071-5.1659164 1.8120728.4858398 3.3206596.0677299 5.0288658-.6163883.0782891 4.0799198-.7924918 9.4708462-4.9603728 13.9518185z" fill="#fff"/></g></g></g></g></g></g></g></g><g><g><g><g><path d="m43.7620392 30.3684711-.1416702.2203484c-1.517952 2.3744678-3.4808044 4.6396885-5.9061775 6.0517445l-.2045937.1180649-1.8848-1.0978317.2006798-.118042c2.4410553-1.4213715 4.3932495-3.6896782 5.9061775-6.0478287l.1416512-.224287z" fill="#986ff9"/></g></g></g></g></g></g><g><g><g><path d="m41.0152969 38.1941605c-.0185928.0322151-.0273628.0644112-.0272789.094883.0000839.0316048.0090141.0535851.027729.0631256.0187225.0106735.0413399.0077896.0688438-.0080948l.608963-.3515816c.026516-.0153122.0500641-.0390778.0696411-.0718651.0186119-.0310898.028347-.063839.0282631-.0954475-.0000916-.0316048-.0099792-.0518951-.0287132-.0636864-.0196991-.0101051-.0433044-.0077858-.0698204.0075302l-.1817131.104908-.0035782-1.2629318c-.000103-.0349884-.010994-.058094-.0316811-.0698891-.0206947-.0129089-.0472488-.0088921-.0767097.0081215l-.0412598.0238152c-.0206184.0119057-.0412369.0294533-.0618286.0526543l-.2667084.3145103c-.0392189.0452576-.0587616.0927124-.0586205.1412468.0000954.0327225.0090065.0547142.027729.0653801.0187225.0106735.0423164.0072212.070816-.0092316.0137444-.0079346.0304298-.0220947.0510216-.0441475l.1814232-.2076225.0031357 1.1071815-.2210007.127594c-.0274999.0158768-.0500524.0401955-.0686529.0735474zm.0420533.129322c.0082359-.0009384.017334-.0042076.027153-.0098763-.0098191.0056687-.0189171.0089379-.027153.0098763zm.7066078-.4824333c.0000725.0237083-.0067596.0457382-.0204697.0683479.01371-.0226097.0205345-.0446396.0204697-.0683479-.0000687-.0225716-.0069962-.0377808-.0207901-.0456429.0137939.0078621.0207329.0230713.0207901.0456429zm-.3075829-1.2671471c.0083771.0047684.0142899.011528.0181313.0203362-.0038414-.0088081-.0097656-.0155678-.0181389-.0203362-.0078773-.0044975-.0164986-.0063019-.0259628-.0053635.0094642-.0009383.0180854.000866.0259704.0053635zm-.3468666.4975777c-.0083275.0087662-.0159416.0159874-.022686.0217171-.0067482.0057373-.0126381.0099792-.0175476.0128174-.0107994.0062332-.0203857.0100746-.028862.0114365.0084763-.0013618.0180626-.0052147.028862-.0114479.0049095-.0028343.0107994-.0070686.0175476-.0128059.0067444-.0057297.0143585-.0129585.022686-.0217285l.2196579-.2511673z" fill="#4c5c75"/></g></g><g><g><path d="m42.5913506 37.4967575c.175808-.1015129.3131027-.2565231.4069672-.4610634.0928917-.201725.1394615-.4320946.1387482-.6837692-.0007133-.2505608-.0484314-.4264908-.1421547-.5204697-.0947227-.0956612-.2324486-.0930214-.4082565.0084877-.176796.1020737-.3140869.2582092-.4069786.4621887-.0919037.201149-.1384659.4315224-.1377602.6820717.0007133.2516861.0484276.4276237.1411781.5221672.0937347.0962258.2314605.0924607.4082565-.009613zm.2478256-1.419384c.0602226.0726204.0901108.2057152.0906448.3941994.0005455.1907387-.0284958.3589783-.0881081.5007973-.0586281.14011-.140007.2390976-.2509918.3031807-.1100082.0635071-.1926651.059227-.2518921-.0128365-.0592384-.0732002-.0901108-.206852-.0906563-.3975906-.0005341-.1884842.0294914-.3561707.0881195-.4974174.0586281-.14011.140995-.239666.2509995-.3031769.1109848-.0640717.1926537-.0592271.2518845.012844z" fill="#4c5c75"/></g></g><g><g><path d="m43.4894638 36.7657013c-.0186081.0322227-.0273705.0644112-.0272865.0948792.0000954.0316048.0090065.0535965.027729.0631256.0187225.0106773.0413399.0077934.0688438-.0080833l.608963-.3515892c.0265274-.015316.0500641-.0390816.0686646-.0712967.0195885-.031662.029335-.0644112.0292397-.0960159-.0000839-.0316048-.0099792-.0518875-.0287018-.0636902-.0197105-.0101013-.0433159-.0077744-.0698395.0075417l-.1817055.104908-.0035782-1.2629318c-.000103-.0349884-.0109863-.058094-.0316811-.0698891-.0206947-.0129204-.047245-.0088997-.0767097.0081139l-.0412483.0238113c-.0206299.0119171-.0412407.0294647-.0618401.0526581l-.2667007.314518c-.0392189.0452499-.0587692.092701-.0586281.1412354.0000954.0327339.0090141.0547142.027729.0653915.0187225.0106659.0423279.0072098.0708046-.0092316.0137558-.0079422.0304413-.0220947.0510445-.0441589l.1814041-.2076187.0031433 1.1071892-.2209892.1275826c-.0275039.0158803-.0500641.0402066-.0686569.0735509zm.7281914-.2847672c.0137024-.0226097.0205269-.0446358.020462-.0683365.0000649.0237084-.006752.0457268-.020462.0683365zm-.7030945-.7919464c.0084801-.0013618.0180664-.0052032.0288734-.0114365-.010807.0062447-.0203933.0100747-.0288734.0114365z" fill="#4c5c75"/></g></g><g><g><path d="m45.0655098 36.0682945c.1758194-.1015015.3131104-.2565117.4069672-.4610519.0919037-.2011604.1394615-.4320946.1387482-.6837807-.0007019-.2505569-.0494156-.4259148-.1421661-.5204582-.0947113-.0956688-.2324371-.0930214-.4082451.0084763-.1768036.1020737-.3140984.258213-.4069672.4621887-.0919151.2011528-.138485.4315224-.1377716.6820831.0007133.2516861.0484314.4276161.1411781.5221596.0937347.0962333.2314605.0924568.4082565-.0096169zm.2478256-1.4193802c.0602226.0726166.0901108.2057228.0906448.3941994.0005379.1907387-.0284958.3589783-.0881004.5007973-.0586281.1401176-.1409912.239666-.2509995.3031769-.1100082.0635185-.1926537.0592308-.2518921-.0128365-.0592384-.0732002-.0901108-.2068481-.0906563-.3975868-.0005341-.1884766.0294914-.3561707.0881195-.4974098.0586395-.1401176.140995-.239666.2509918-.3031769.1100084-.0635109.1926652-.059227.2518922.0128364z" fill="#4c5c75"/></g></g><g><g><path d="m46.0176888 34.2806969c.0137444-.0079346.0304298-.0220947.051033-.0441589l.1814117-.2076111.0031357 1.1071777-.2210007.127594c-.0274925.0158691-.0510292.04076-.0686531.0735512-.0185928.0322151-.0273628.0644112-.0272675.0948792.0000839.0316048.0090027.0535851.0277176.0631256.0187225.0106773.0413513.007782.0688438-.0080948l.608963-.3515778c.026516-.015316.0500679-.0390816.0686684-.0713043.0195847-.0316544.0293312-.0644112.0292473-.0960197-.0000954-.0316048-.0099907-.0518837-.0287247-.0636787-.0196991-.0101013-.0433044-.007782-.0698204.0075302l-.1817055.1049118-.0035858-1.2629356c-.0000916-.0349846-.0109863-.058094-.0316811-.0698853-.0216789-.0123482-.047245-.0088921-.0767097.00811l-.0412598.0238228c-.0206184.0119057-.0412369.0294533-.0618172.0526581l-.2667122.3145103c-.0392265.0452576-.0587654.0927086-.0586243.141243.0000839.0327225.0090027.0547142.0277252.0653801.0187342.0106658.0423281.0072211.0708163-.0092278zm-.0000954-.0315972c-.0216026.0124702-.0383263.0153427-.051136.0080376.0128098.0072937.0295334.0044327.051136-.0080452.0049133-.0028381.0107994-.0070724.0175514-.0128098-.006752.0057374-.0126381.0099831-.0175514.0128174zm.2622871.9032898-.0033722-1.1884384zm.1248055-1.4354095c-.0078773-.0044899-.0164871-.0062943-.0259514-.005352.0094643-.0009499.018074.0008621.0259514.005352z" fill="#4c5c75"/></g></g><g><g><path d="m41.3624535 40.9273033c.1758194-.1015129.3121262-.2559509.406002-.4604988.0928879-.201725.1394501-.4320869.1387367-.683773-.0007133-.2505569-.0484314-.4264908-.1421547-.5204697-.0947227-.0956688-.2314606-.0935936-.40728.0079155-.1777725.1026382-.3140793.258213-.4079437.4627609-.0919151.2011528-.1374931.4309616-.1367874.6815109.0007133.2516823.0474548.4281883.1402054.5227203.0947113.0956689.2314491.0924683.4092217-.0101661zm.2478332-1.4193916c.0592384.0731888.0901146.2057228.0906487.3941994.0005455.1907349-.0294762.3595505-.0881119.5007973-.0586281.14011-.1409836.239666-.2509918.3031769-.1100044.0635109-.1926613.059227-.2518921-.0128441-.060215-.0726204-.0901108-.2068405-.0906525-.3975792-.0005379-.1884766.0285034-.3555984.0881195-.4974098.0586281-.14011.1409836-.2396584.2509918-.3031769.1100045-.063511.1926613-.0592309.2518883.0128364z" fill="#4c5c75"/></g></g><g><g><path d="m42.2595825 40.1956825c-.0176163.0327759-.0273514.0655289-.0272675.0960083.0000839.0315933.0099792.0530128.0287018.062561.0177383.0112381.0413437.0077744.0688438-.0081024l.6079788-.351017c.0275116-.0158806.0510521-.0396423.0696526-.0718575.0195847-.031662.028347-.0638504.0282631-.0954475-.0000954-.0316048-.0090141-.0524559-.0287132-.0636978-.0187225-.0106544-.0423279-.0083351-.0698318.0075417l-.1807289.1043434-.0035744-1.2629318c-.000103-.0349846-.0109863-.058094-.0326691-.0693245-.0206947-.0129089-.0462608-.0094528-.0767097.0081215l-.0412483.0238228c-.0196419.0113411-.0402527.0288811-.0608521.0520821l-.2676888.3150749c-.0382309.0446854-.0587654.0927124-.0586243.1412468.0000916.0327301.0099983.0541496.0287094.0648155.0177498.0112305.0413437.0077858.0708084-.0092316.0137558-.0079422.0294647-.0215302.0510406-.0441551l.1804276-.2070503.0031471 1.1071815-.2200165.1270218c-.0275.0158768-.0510481.0407791-.0696486.0729942zm.3138809-1.372734.0033684 1.1884346zm.4153061 1.0885314c.0136986-.0226097.0205269-.0446472.0204582-.0683365.0000687.0236893-.0067481.0457268-.0204582.0683365zm-.7032165-.7920227c.0086021-.001297.0181885-.0051346.0289955-.0113716-.010807.0062447-.0203857.0100746-.0289955.0113716z" fill="#4c5c75"/></g></g><g><g><path d="m43.8366203 39.4988403c.1758194-.1015091.3121262-.2559471.4059944-.4604988.0928879-.2017136.1394539-.4320869.1387367-.6837692-.0007019-.2505493-.0484276-.4264908-.1421547-.520462-.0947113-.0956688-.2314606-.0935936-.4072685.0079079-.1777802.1026459-.3140907.2582092-.4079552.4627609-.0919037.201149-.1384773.4315224-.137764.6820793.0007133.2516861.0484314.4276161.1411705.5221596.0947229.0956687.2314607.0924606.4092408-.0101777zm.2478371-1.4193802c.0592308.0731888.0901031.2057228.0906372.3941994.0005341.1907349-.0294724.3595505-.0881004.5007858-.0586395.1401215-.140995.2396698-.2510033.3031769-.110981.0640831-.1926537.0592308-.2518883-.0128326-.060215-.072628-.0901146-.2068405-.0906563-.3975792-.0005379-.1884842.0285149-.3556099.0881195-.4974098.0586357-.1401176.140007-.2391014.2509918-.3031769.1100045-.0635185.1926614-.0592384.2518998.0128364z" fill="#4c5c75"/></g></g><g><g><path d="m45.0732079 38.7849007c.1758194-.1015091.3131104-.2565193.406971-.461071.0919113-.2011414.1394691-.4320869.1387558-.6837692-.0007133-.2505608-.049427-.4259186-.1421661-.520462-.0947113-.0956764-.2324371-.093029-.4082527.0084801-.176796.1020737-.3140907.2582092-.406971.4621887-.0919151.201149-.1384773.4315224-.1377716.6820793.0007133.2516861.048439.4276161.1411819.5221519.0937347.0962409.2314605.0924758.4082527-.0095978zm.247837-1.4193917c.060215.072628.0900993.2057228.0906372.3942108.0005417.1907272-.0284882.3589783-.0881042.5007782-.0586281.1401176-.1409912.2396774-.2509995.3031845-.1100044.0635109-.1926537.0592308-.2518806-.0128441-.0592384-.0731888-.0901222-.2068405-.0906563-.3975792-.0005341-.1884727.0294838-.3561707.0881119-.497406.0586357-.1401215.1409912-.2396698.2509995-.3031769.1099967-.0635108.1926536-.0592307.251892.0128327z" fill="#4c5c75"/></g></g><g><g><path d="m46.0253868 36.9972916c.0137482-.0079422.0304337-.0221024.051033-.0441666l.1814156-.2076035.0031357 1.1071701-.220993.127594c-.0275002.0158806-.0510406.0407791-.0686646.072422-.0185928.0333443-.0273514.0655403-.0272675.0960159.0000839.0315971.0090065.0535774.0277176.0631256.0187225.0106697.0413513.0077744.0688438-.0081024l.6089668-.3515778c.026516-.015316.0500641-.0390816.0686646-.0712967.0195847-.031662.0293312-.0644226.0292473-.0960159-.0000916-.0316048-.0099907-.0518951-.0287209-.0636902-.0196991-.0100937-.0433044-.0077744-.0698204.0075302l-.1817055.104908-.0035782-1.2629242c-.000103-.0349846-.0109863-.0580902-.0316887-.0698853-.0216713-.0123558-.0472488-.0088921-.0767136.0081139l-.041256.023819c-.0206223.0119095-.0412292.0294647-.061821.0526581l-.2667084.3145027c-.0392303.0452538-.0587692.09272-.0586281.1412544.0000916.0327225.0090027.0547104.0277367.0653687.0187227.0106774.0423281.0072213.0708048-.00922zm.2621918.8716926-.0033684-1.1884384zm.4324074-.168251c.0000381.0118484-.0016632.0232849-.0050697.0345802-.003418.0112991-.0085449.0224533-.0153999.0337677-.006855.0118675-.0144501.0221863-.022789.0309563.0083389-.00877.015934-.0190887.0227776-.0309563.0068665-.0113144.0119934-.0224686.0154114-.0337677.0034065-.0112953.0050964-.0227318.0050583-.0345802-.0000267-.0095215-.0019531-.0170135-.0044212-.0239143.0024679.0069122.0044019.0143928.0044325.0239143z" fill="#4c5c75"/></g></g><g><g><path d="m41.0306931 43.6262169c-.018589.0333519-.027359.0655403-.0272751.0960083.0000916.0316048.0090141.0535851.0277252.0631332.018734.0106697.0413437.0077858.0688438-.008091l.6089745-.3515892c.026516-.015316.0500565-.0390816.0696449-.0718689.0186005-.0310898.0283432-.063839.0282516-.0954437-.0000839-.0315971-.0099831-.0518875-.0287056-.0636902-.0197067-.0101013-.0433121-.0077744-.069828.0075417l-.1817169.104908-.0035744-1.2629356c-.000103-.0349846-.0109863-.0580902-.0316734-.0698853-.0207024-.0129204-.0472565-.0088997-.0767212.0081139l-.0412483.023819c-.0206261.0119057-.0412369.0294647-.0618362.0526581l-.2667007.3145103c-.0392189.0452461-.0587692.0927124-.0586281.1412354.0000954.0327339.0090141.0547142.0277367.0653801.0187149.0106773.0423203.0072289.0708046-.0092201.0137482-.0079346.0304413-.0220947.051033-.0441589l.1814156-.2076187.0031433 1.1071777-.2210007.127594c-.0275002.0158804-.0500527.0402068-.0686646.0724219zm.0197105.0112305c.0063667-.0115852.0137062-.0217552.0219231-.0304604-.0082169.0087051-.0155563.0188828-.0219231.030468-.0068474.0118599-.0117378.0234489-.014904.0348816.0031662-.0114327.0080566-.0230217.014904-.0348892zm.0494995.1093483c-.009819.0056648-.0189095.0089302-.0271454.0098686.0082359-.0009384.0173264-.0042038.0271454-.0098763l.6089668-.3515816zm.3993073-.3922158-.0000076.0000076-.0036621-1.294529zm-.0274353-1.3474884c-.0078888-.0044861-.0164986-.0062981-.0259628-.0053596.0094642-.0009499.018074.0008621.0259628.0053596zm-.3870926.5321045c-.010807.0062332-.0203934.0100746-.0288734.0112953.0084801-.0012207.0180664-.0050621.0288658-.0112953.0049095-.0028343.0107956-.0070801.0175476-.0128174-.0067521.0057373-.0126267.0099831-.01754.0128174z" fill="#4c5c75"/></g></g><g><g><path d="m42.6067467 42.9299393c.1758194-.1015015.3131142-.2565002.4069786-.4610519.0928917-.201725.1394539-.4320946.1387405-.6837807-.0007057-.2505493-.0484314-.4264793-.1421585-.5204697-.0947113-.0956612-.2324448-.0930099-.4082527.0084877-.176796.1020737-.3140907.258213-.406971.4621887-.0919113.2011604-.1384735.4315224-.1377602.6820831.0007133.2516823.0484314.4276161.1411705.5221596.0937424.096241.2314606.0924568.4082528-.0096168zm.2478294-1.4193802c.0602226.072628.0901184.2057228.0906525.3941994.0005379.1907349-.0284958.3589859-.0881081.5007973-.0586281.1401176-.140007.2391014-.2509918.3031769-.1100082.0635185-.1926613.0592384-.2518921-.0128365-.0592461-.0731888-.0901184-.2068481-.0906639-.3975868-.0005264-.1884766.0294914-.356163.0881271-.4974098.0586281-.1401176.1409836-.239666.2509918-.3031769.1109849-.0640832.1926537-.0592309.2518845.0128364z" fill="#4c5c75"/></g></g><g><g><path d="m43.5048637 42.1977654c-.0186005.0333405-.0273628.0655403-.0272789.0960083.0000877.0316048.0090065.0535851.027729.0631256.0187111.0106735.0413399.007782.0688438-.0080948l.6089554-.3515816c.0265236-.0153122.0500755-.0390778.0686646-.0713005.0195961-.0316544.029335-.064415.0292473-.0960197-.0000916-.0315933-.0099907-.0518837-.0287132-.0636864-.0196991-.0101051-.0433044-.0077744-.069828.0075378l-.1817055.104908-.0035858-1.2629318c-.0000954-.0349846-.0109863-.058094-.0316734-.0698853-.0207024-.0129204-.047245-.0088921-.0767212.0081215l-.0412483.0238113c-.0206261.0119057-.0412369.0294647-.0618286.0526543l-.2667084.3145103c-.0392189.0452499-.0587578.0927124-.0586166.1412392.0000839.0327301.0090027.0547104.0277176.0653877.0187302.0106773.0423279.0072212.070816-.0092316.013752-.0079308.0304298-.0220909.0510292-.0441551l.1814156-.2076111.0031357 1.1071777-.2209892.1275864c-.0275041.0158883-.050068.0402146-.0686571.0724298zm.0047989.046112c-.0031662.0114365-.0046043.0227242-.0045738.034008-.0000305-.0112838.0014076-.0225715.0045738-.034008zm.7233925-.3297501c-.006855.0118675-.0144501.0221863-.022789.0309563-.0083351.00877-.0174065.0159912-.0272369.0216713l-.6089554.3515816c-.0098228.0056725-.0189209.0089378-.0271568.0098763.0082359-.0009384.0173264-.0042038.0271454-.0098763l.6089668-.3515892c.0098305-.0056725.0189018-.0128822.0272369-.0216637.0083389-.00877.015934-.0190964.022789-.0309639.006855-.0113068.011982-.0224609.0153999-.0337563-.0034179.0112954-.0085449.022461-.0153999.0337639zm-.2871208-1.3354949c.0078888.0044861.0138016.0112495.017765.0201225-.0039635-.008873-.0098877-.0156364-.0177727-.0201225-.0078812-.0044975-.0164909-.0063019-.0259552-.0053635.0094643-.0009384.0180855.0008659.0259629.0053635zm-.458046.4916801c.0000648.0248337.0060158.0406113.0198097.0473404-.0137939-.0067291-.0197448-.0225144-.0198097-.0473404zm.0709458.040432c.0098228-.0056801.0235672-.0169945.0402412-.0345459-.016674.0175514-.0304107.0288658-.0402412.0345459z" fill="#4c5c75"/></g></g><g><g><path d="m45.0809097 41.5014877c.1758156-.1015091.3131104-.2565117.4069672-.4610634.0919151-.201149.139473-.4320946.1387596-.6837769-.0007172-.2505493-.049427-.4259109-.14217-.520462-.0947113-.0956688-.2324333-.0930214-.4082527.0084877-.176796.1020737-.3140869.258213-.406971.4621811-.0919037.2011604-.1384735.43153-.1377602.6820793.0007133.2516861.0484314.4276161.1411781.5221672.0937272.0962334.2314531.0924607.408249-.009613zm.2478333-1.4193802c.060215.072628.0901031.2057228.0906372.3941994.0005455.1907349-.0284882.3589859-.0881004.5007973-.0586281.14011-.140995.239666-.2509918.3031769-.1100082.0635109-.1926613.059227-.2518921-.0128441-.0592384-.0731926-.0901184-.206852-.0906563-.3975906-.0005341-.1884727.0294838-.3561516.0881233-.497406.0586281-.1401215.1409798-.2396698.250988-.3031807.1100006-.0635071.1926651-.059227.2518921.0128478z" fill="#4c5c75"/></g></g><g><g><path d="m46.0330887 39.7138863c.0137444-.0079308.0304298-.0220909.0510292-.0441589l.1814156-.2076187.0031471 1.1071815-.2210007.127594c-.027504.0158768-.0510445.0407677-.0686684.072422-.018589.0333405-.0273514.0655365-.0272675.0960045.0000954.0316048.0090065.0535889.0277214.0631371.0187302.0106659.0413513.0077744.0688438-.0080948l.6089706-.3515892c.026516-.015316.0500565-.0390778.0686569-.0712929.0195885-.031662.0293427-.0644226.0292473-.0960274-.0000916-.0315971-.0099869-.0518875-.0287094-.0636787-.0197105-.0101051-.0433159-.0077744-.0698318.0075302l-.1817055.104908-.0035782-1.2629356c-.000103-.0349846-.0109863-.0580902-.0316772-.0698738-.0216827-.0123596-.0472488-.0089035-.0767136.00811l-.041256.0238228c-.0206299.0119057-.0412407.0294647-.0618324.0526466l-.2666969.3145103c-.0392303.0452576-.0587807.09272-.0586395.1412468.0000954.0327301.0090141.0547104.0277367.0653801.0187226.0106735.042328.0072174.0708085-.0092239zm-.0000878-.0316048c-.010807.006237-.0203934.0100746-.0288696.0112953.0084763-.0012207.0180626-.0050583.028862-.0112953.0049095-.0028343.0107994-.0070801.0175476-.0128136-.0067482.0057335-.0126266.0099793-.01754.0128136zm.0152207 1.2076034c-.009819.005661-.0189095.0089302-.0271454.0098686.0082359-.0009384.0173264-.0042076.0271454-.0098801l.6089668-.3515778zm.6794624-.4725646v.0000114c-.0000267-.0112877-.0017853-.0207329-.005249-.028347.0034637.0076141.0052223.0170479.005249.0283356zm-.4058876-1.237526c-.0166969.0096436-.033371.02491-.0490608.0430222.0156784-.0180931.0323639-.0333786.0490608-.0430222z" fill="#4c5c75"/></g></g></g></g></g></svg>