<svg id="Layer_1" enable-background="new 0 0 53 53" height="512" viewBox="0 0 53 53" width="512" xmlns="http://www.w3.org/2000/svg"><g id="_x35_7"><g><path d="m41.8500061 19.0967541c-.039978.1000366-.0799561.1900024-.1199951.2900391-.039978.0999756-.0800171.1899414-.1199951.2799683-.0100098.039978-.0299683.0800171-.0499878.1199951-.0100098.0499878-.0300293.0900269-.0499878.1400146-.0200195.039978-.0400391.0899658-.0599976.1300049-.0500488.1199951-.1000366.2299805-.1500244.3499756-.0899658.2200317-.1799927.4299927-.2700195.6300049-.0499878.1199951-.0999756.2299805-.1399536.3300171-.0800171.1599731-.1500244.3200073-.2200317.4799805-.1499634.3200073-.3099976.6500244-.4699707.9799805-.0200195.0300293-.0300293.0600586-.0400391.0900269-.0100098.0100098-.0100098.0200195-.0199585.0300293-.0100098.0299683-.0300293.0599976-.0400391.0899658-.5199585 1.0499878-1.0599976 2.039978-1.6199951 2.9799805-.0499878.0900269-.0999756.1700439-.1599731.2600098-.1900024.3099976-.3800049.6199951-.5800171.9200439-.0200195.0299683-.039978.0599976-.0499878.0799561-.0300293.0400391-.0599976.0800171-.0800171.1199951-.1099854.1600342-.2199707.3300171-.3300171.4900513l-.0099488-.01001c-.0599976.0999756-.1300049.1999512-.210022.2999878h.0100098c-.1099854.1599731-.2300415.3200073-.3500366.4699707-.0099487.0100098-.0099487.0200195-.0199585.0300293-.0200195.0299683-.0400391.0599976-.0599976.0800171-.1400146.1900024-.2900391.3699951-.4400024.5499878-.2900391.3699951-.6000366.7299805-.9100342 1.0800171-.0199585.0199585-.0299683.039978-.0499878.0599976-.0100098.0099487-.0100098.0099487-.0200195.0199585l-.0099487.0100098c0 .0100098-.0100098.0200195-.0200195.0300293-.0400391.039978-.0700073.0799561-.1099854.1199951-.460022.5100098-.9300537 1-1.4000244 1.4699726l3.0700073 2.1400146.0100098 1.0200195.6300049.3699951c-.0200195-.0100098-.0400391-.0200195-.0599976-.0200195.3199463.1500244.5199585.5100098.5199585 1.039978.0100098 1.0200195-.7099609 2.25-1.5899658 2.7600098-.460022.2600098-.8699951.2800293-1.1600342.0900269-.0199585-.0100098-.039978-.0200195-.0599976-.0400391l-1.1499634-.6599731c-.2900391-.1699829-.4700317-.5200195-.4700317-1.0300293 0-.7999878.4500122-1.7599487 1.0900269-2.3599854l-.0100098-.8599854-1.9700317-1.3699951c-1.3399658 1.2000122-2.7199707 2.2199707-4.1099854 3.0200195-.3699951.2099609-.7399902.4099731-1.0999756.5899658l.0199585 3.9100342.5700073.3399658c.3200073.1400146.5200195.5100098.5200195 1.0499878.0100098 1.0100098-.7000122 2.25-1.5900269 2.7600098-.4599609.2700195-.8699951.2800293-1.1599731.0900269-.0200195-.0100098-.039978-.0300293-.0599976-.0400391l-1.1500244-.6599731c-.289978-.1699829-.4699707-.5200195-.4699707-1.0300293 0-.8099976.460022-1.7599487 1.0899658-2.3599854l-.0099487-3.1400146c-1.2800293.4300537-2.5200195.6500244-3.6700439.6600342v.6900024l-3.4899902 6.5v.5800171l.5700073.3399658c.3200073.1400146.5200195.5100098.5300293 1.0499878 0 1.0100098-.710022 2.25-1.6000366 2.7600098-.4799805.2700195-.9099731.2700195-1.2000122.0499878.0200195.0300293.0500488.0500488.0700073.0599976l-1.2399902-.7199707c-.289978-.1699829-.460022-.5300293-.460022-1.0300293-.0099487-.8099976.4500122-1.7599487 1.0800171-2.3699951v-1.2999878l3.4899902-6.5100098v-.3900146c-.1300049-.0499878-.2600098-.0999756-.3899536-.1499634-.3099976-.1300049-.6000366-.2700195-.8700562-.4299927l-3.7199707-2.1600342c-.1799927-.1099854-.3499756-.2199707-.5200195-.3399658-.1599731-.1000366-.3099976-.210022-.4599609-.3300171-.7800293-.6199951-1.4800415-1.3800049-2.0500488-2.1599731.9000244-2.2600117 2.0800171-4.8099995 3.4800415-7.119997.0199585-.0300293.039978-.0600586.0599976-.0900269.039978-.0700073.0899658-.1500244.1400146-.2299805.1399536-.2300415.289978-.4500122.4299927-.6799927.0299683-.0400391.0599976-.0800171.0899658-.1200562.1199951-.1900024.2399902-.3699951.3699951-.5499878.1300049-.1900024.2700195-.3800049.4100342-.5700073s.2799683-.3699951.4199829-.5499878c.0800171-.1099854.1600342-.2099609.2399902-.3099976.0300293-.0299683.0599976-.0700073.0900269-.0999756.1699829-.2200317.3499756-.4299927.5299683-.6400146.1600342-.1900024.3200073-.3699951.4800415-.5499878.0700073-.0700073.0899658-.1000366.1199951-.1300049.0799561-.0900269.1599731-.1699829.2399902-.25l-2.6600342-1.8599854v-1.0100098l-.6299438-.3699951c-.2900391-.1700439-.4700317-.5200195-.4700317-1.0300293 0-1.0100088.710022-2.2399893 1.5999756-2.749999.4400024-.2600098.8400269-.2799683 1.1300049-.1099854l1.1799927.6900024c.3200073.1499634.5200195.5100098.5200195 1.0499878.0100098.8099966-.4500122 1.7600088-1.0800171 2.3699942v.8599854l1.4900513 1.0400391c1.6799927-1.6700439 3.4599609-3.0599976 5.25-4.1000357.1499634-.0799561.289978-.1699829.4400024-.2399902l-.0100098-2.8499756-.6300049-.3699951c-.2900391-.1700439-.4700317-.5200195-.4700317-1.0200195 0-1.0200195.710022-2.25 1.5900269-2.7600098.4500122-.2600098.8499756-.2799683 1.1400146-.1099854l1.1799927.6900024c.3200073.1500244.5199585.5100098.5199585 1.0499878.0100098.8099976-.4499512 1.7600098-1.0799561 2.3699951v1.9500122c1.4099731-.5300293 2.7799683-.8300171 4.0499878-.8699951l3.1199951-5.7999878v-.5700072l-.6400146-.3699951c-.2799683-.1700439-.4599609-.5200195-.4599609-1.0200195 0-1.0200195.7099609-2.2500002 1.5899658-2.76001.4400024-.25.8500366-.2799683 1.1400146-.1099854l1.1699829.6900024c.3300171.1500244.5300293.5200195.5300293 1.0599978 0 .8099976-.4500122 1.7600098-1.0800171 2.3599854v1.3099976l-2.9500122 5.4700317c.4700317.1400146.9299927.3499756 1.3599854.5999756l3.5 2.0400381.0900269.0499878c.5499878.2999878 1.0599976.6799927 1.539978 1.1099854l.0300293.0200195c.1499634.1300049.2999878.2699585.4400024.4199829l.039978.039978c.1300049.1300049.25.2600098.3699951.4000244.0800171.0800171.1500244.1599731.2200317.25.0100098.0100098.0199585.0200195.0299683.039978.1799927.2000122.3400269.4200439.5.6300049z" fill="#f3f1fc"/></g><g><g><g><g enable-background="new"><g><path d="m17.3113708 45.7828789 1.2399178.720562c-.174469-.1013908-.3894157-.1332779-.629652-.0869141-.1596661.0308113-.3304195.0960999-.5079651.1986046l-1.2399178-.720562c.1775455-.1025047.348299-.1677895.5079651-.1986046.2402363-.0463638.4551831-.0144768.629652.0869141z" fill="#8fabfe"/></g><g><path d="m16.2910709 50.3924942-1.2399178-.7205582c-.2866945-.1666145-.4646349-.5212173-.4660645-1.0256882-.0022926-.8085785.4530907-1.7596703 1.0857267-2.3677063.158041-.1518974.3271294-.2824669.5029383-.3839722l1.2399178.720562c-.1758099.1015053-.3448982.2320747-.5029392.3839722-.6326351.608036.8280678 1.3902779.8303604 2.1988564.0014306.5044708-1.7367171 1.0279236-1.4500217 1.1945343z" fill="#8fabfe"/></g><g><path d="m17.4136715 46.6151314c.1775455-.1025047.348299-.1677933.5079651-.1986046.6342106-.1223984 1.0921612.30056 1.09445 1.1079102.0028763 1.0144844-.7091675 2.2477951-1.59202 2.7575073-.8794861.5077744-1.5961847.09935-1.599061-.9151344-.0022917-.8085785.4530916-1.7596703 1.0857267-2.3677063.158041-.1518975.3271293-.2824669.5029392-.3839722z" fill="#678aee"/></g><g><path d="m21.4100037 38.0367584v1.0200195l-3.4899902 6.5v.8599854c-.1599731.0300293-.3300171.0999756-.5100098.2000122-.1699829.0999756-.3399658.2299805-.5.3800049l-1.2399902-.7200317v-1.2999878l3.4899902-6.5100098v-1.0299683c.3300171-.0300293.6700439-.0700073 1.0100098-.1199951z" fill="#dedffb"/></g><g><path d="m16.9107323 46.9991035-1.2399168-.7205619-.0036936-1.3028031 1.2399177.720562z" fill="#dedffb"/></g><g><path d="m16.9070396 45.6963005-1.2399177-.720562 3.4951248-6.5051727 1.2399178.720562z" fill="#f3f1fc"/></g><g><path d="m20.4021645 39.1911278-1.2399178-.720562-.0029373-1.0363998 1.2399177.7205619z" fill="#f3f1fc"/></g><g><path d="m20.3992271 38.1547279-1.2399197-.720562c.3329601-.0241661.6703644-.062542 1.0122223-.1177063l1.2399158.720562c-.3418559.0551644-.6792601.0935402-1.0122184.1177063z" fill="#f3f1fc"/></g><g><path d="m20.3992271 38.1547279c.3329582-.0241661.6703625-.062542 1.0122204-.1177063l.0028839 1.0170364-3.4951267 6.5051727.0024319.857296c-.1596661.0308113-.3304195.0960999-.5079651.1986046-.1758099.1015053-.3448982.2320747-.5029392.3839722l-.0036926-1.302803 3.4951248-6.5051727z" fill="#dedffb"/></g></g><g enable-background="new"><g><path d="m36.1478691 34.9076195 1.2399139.7205658c-.1744652-.1013908-.3894119-.1332779-.6296539-.0869102-.1596527.0307999-.3304062.0960884-.5079651.1986046l-1.2399178-.720562c.1775589-.1025162.3483124-.1678009.5079651-.1986046.2402421-.0463677.4551888-.0144806.6296578.0869064z" fill="#f45170"/></g><g><path d="m35.1275635 39.5172386-1.2399216-.7205582c-.2866898-.1666107-.4646301-.5212173-.4660606-1.0256844-.0022926-.8085785.4531059-1.7596817 1.0857239-2.3677101.1580429-.1518936.3271446-.2824745.5029411-.3839684l1.2399178.720562c-.1757965.1014938-.3448982.2320709-.5029411.3839684-.632618.6080284-.1338005 1.7074471-.1315079 2.5160255.0014304.5044671-.774849.7107583-.4881516.8773652z" fill="#f45170"/></g><g><path d="m36.250164 35.7398796c.1775589-.1025162.3483124-.1678047.5079651-.1986046.6342239-.122406 1.0921593.3005562 1.0944481 1.1079102.0028763 1.0144806-.7091675 2.2477913-1.5920181 2.7575073-.8794861.5077705-1.5961838.0993462-1.5990601-.9151382-.0022926-.8085785.4531059-1.7596779 1.0857239-2.3677063.1580429-.1518975.3271446-.2824746.5029411-.3839684z" fill="#df3260"/></g><g><path d="m35.7472229 36.123848-1.2399178-.720562-.0024261-.8562279 1.2399178.720562z" fill="#f3f1fc"/></g><g><path d="m35.7447968 35.2676201-1.2399178-.720562-3.5216541-2.4540329 1.2399158.720562z" fill="#f3f1fc"/></g><g><path d="m32.220253 31.7939587-1.2399197-.7205601c.3421822-.3397636.6787014-.6904793 1.010704-1.0515099l1.2399158.720562c-.3320006.3610306-.6685218.7117462-1.0107001 1.051508z" fill="#f3f1fc"/></g><g><path d="m32.2231407 32.8135872-1.2399158-.720562-.0028916-1.0196266 1.2399197.7205601z" fill="#f3f1fc"/></g><g><path d="m33.2309532 30.7424507.0029526 1.0402679 3.5205269 2.4546814.0036964 1.303875c-.1596527.0307999-.3304062.0960884-.5079651.1986046-.1757965.1014938-.3448982.2320709-.5029411.3839684l-.0024261-.8562279-3.521656-2.4540329-.0028877-1.0196285c.3421782-.3397618.6786994-.6904774 1.0107001-1.051508z" fill="#dedffb"/></g></g><g enable-background="new"><g><path d="m26.7296352 40.3452568 1.2399158.720562c-.1747417-.1015511-.3900928-.1333771-.6307983-.086689-.1593151.0308914-.3297176.0961151-.5068359.1983757l-1.2399178-.720562c.1771183-.1022606.3475227-.1674843.5068359-.1983757.2407056-.0466881.4560567-.0148621.6308003.086689z" fill="#78e75a"/></g><g><path d="m25.7093163 44.9548645-1.2399197-.7205582c-.2866917-.1666107-.464632-.5212173-.4660625-1.0256844-.0022907-.8080902.4525757-1.7585487 1.0846004-2.3666382.1583748-.1523857.3278294-.2832909.5040646-.3850403l1.2399178.720562c-.1762352.1017494-.3456898.2326546-.5040646.3850403-.6320248.6080856.2849712 1.4637375.287262 2.2718239.0014304.5044709-1.1924916.953888-.905798 1.1204949z" fill="#78e75a"/></g><g><path d="m26.8319168 41.1775055c.1771183-.1022606.3475208-.1674843.5068359-.1983757.634819-.1231346 1.0932903.299839 1.0955811 1.1076813.0028744 1.0144844-.7091694 2.2477913-1.5920219 2.7575073-.8794861.5077705-1.5961838.0993462-1.5990601-.9151344-.0022907-.8080902.4525757-1.7585526 1.0846004-2.3666382.1583748-.1523857.3278294-.2832909.5040646-.3850403z" fill="#5ec363"/></g><g><path d="m26.3129349 36.3008423-1.2399178-.7205582c.1413479-.0762253.2834816-.1556053.425087-.2373619.0283222-.0163498.056612-.0327873.0848885-.049324.1673527-.0966225.3335876-.1951904.5009251-.2969589l1.2399158.720562c-.1673374.1017685-.3335705.2003365-.5009251.2969589-.0282745.0165329-.0565643.0329742-.0848866.049324-.1416053.0817566-.283739.1611366-.4250869.2373581z" fill="#f3f1fc"/></g><g><path d="m26.3278522 41.5625458-1.2399177-.720562-.0149174-5.2617035 1.2399178.720562z" fill="#f3f1fc"/></g><g><path d="m27.3238354 35.7172012.0149174 5.2619286c-.1593151.0308914-.3297176.0961151-.5068359.1983757-.1762352.1017494-.3456898.2326546-.5040646.3850403l-.0149174-5.2617035c.1413479-.0762215.2834816-.1556015.425087-.2373581.0283222-.0163498.056612-.0327911.0848866-.049324.1673545-.0966225.3335875-.1951905.5009269-.296959z" fill="#dedffb"/></g></g></g><g><g enable-background="new"><g><path d="m37.6876106 27.2773991-3.7197533-2.1616821c.0168648-.0255013.033699-.0510559.0505219-.0766354.2534523-.3857651.5009232-.7815609.7424545-1.1853065l3.7197533 2.161684c-.2415314.4037457-.4890022.7995415-.7424545 1.1853065-.0168228.0255795-.0336571.0511341-.0505219.0766335z" fill="#ffd06c"/></g><g><path d="m38.480587 26.0154591c-.2521324.4214554-.5107536.8354721-.7758675 1.2360535-.0056992.0086212-.0113983.0172768-.0171089.0258865.0168648-.0254993.033699-.051054.0505219-.0766335.2534523-.3857651.5009231-.7815609.7424545-1.1853065z" fill="#ffd06c"/></g><g><path d="m37.6876106 27.2773991c-.0026436.004034-.0053024.0080605-.007946.0121117-.131916.201479-.2670059.401041-.4032288.5950146.1321144-.1893749.2631645-.3828163.3913002-.5770302.0066071-.0100232.0132638-.0200539.0198746-.0300961z" fill="#ffd06c"/></g><g><path d="m37.2764359 27.8845253-3.7197533-2.1616821c.1321144-.1893768.2631645-.3828182.3913002-.5770321.0066109-.0100231.0132637-.0200539.0198746-.0300961l3.7197533 2.1616859c-.0066109.0100403-.0132675.020071-.0198746.0300941-.1281357.194214-.2591858.3876554-.3913002.5770303z" fill="#ffd06c"/></g><g><path d="m40.8851585 21.3654766c-.2482033.5518208-.5121155 1.112709-.7895546 1.6723595.0027008-.0054531.0053711-.0109043.0080719-.0163727.0128365-.0259991.0256271-.0519524.0384178-.0779762.0046577-.0094738.009346-.0190372.0139885-.0285034.0137596-.0280399.027462-.0560093.0411453-.0840225.0007744-.0016022.001564-.0032158.0023537-.0048294.1601028-.3280468.3156166-.6561966.4667511-.9826794.0739708-.1597825.1469155-.31917.2188263-.4779759z" fill="#ffd06c"/></g><g><path d="m40.0956039 23.0378361-3.7197533-2.1616821c.0027008-.0054531.0053711-.0109062.0080719-.0163746.0128365-.0259991.0256271-.0519524.0384178-.0779762.0046577-.0094738.009346-.0190372.0139885-.0285034.0137596-.0280399.027462-.0560093.0411453-.0840206.0007744-.0016041.001564-.0032177.0023537-.0048313.1601028-.3280468.3156166-.6561966.4667511-.9826794.0739708-.1597824.1469193-.31917.2188301-.4779758l3.7197495 2.161684c-.0719109.1588058-.1448555.3181934-.2188263.4779758-.1511345.3264828-.3066483.6546326-.4667511.9826794-.0007896.0016136-.0015793.0032272-.0023537.0048294-.0136833.0280132-.0273857.0559826-.0411453.0840225-.0046425.0094662-.0093307.0190296-.0139885.0285034-.0127907.0260239-.0255814.0519772-.0384178.0779762-.0027008.0054684-.0053711.0109196-.0080719.0163727z" fill="#ffd06c"/></g><g><path d="m41.0327263 21.0333576-3.7197533-2.1616821c.0813141-.1843834.1611061-.3681507.239357-.5509052.0068207-.0158958.0136299-.0317669.0204201-.0476646.0035477-.0083256.0071259-.0166683.0106735-.0249939.1363373-.319622.2678337-.636097.3940926-.9476547.0039711-.0098152.0079117-.0195427.0118828-.029356.0061493-.0152302.0123024-.0304775.0184402-.0456829.0393066-.0974083.0781746-.1943855.1164474-.29076l3.7197495 2.1616859c-.038269.0963707-.077137.1933498-.1164436.2907581-.0061378.0152054-.012291.0304527-.0184441.0456829-.0039673.0098133-.0079079.0195408-.011879.0293541-.1262589.3115597-.2577553.6280346-.3940964.9476566-.0035439.0083256-.007122.0166683-.0106697.0249939-.0067902.0158978-.0135994.0317688-.0204201.0476646-.0782508.1827545-.1580428.3665218-.2393569.5509033z" fill="#ffd06c"/></g><g><path d="m41.8440399 19.0963421c-.2468681.6260433-.5195427 1.2773151-.8113136 1.9370155.0813141-.1843815.1611061-.3681488.239357-.5509033.0068207-.0158958.0136299-.0317669.0204201-.0476646.0035477-.0083256.0071259-.0166683.0106697-.0249939.1363411-.319622.2678375-.636097.3940964-.9476566.0039711-.0098133.0079117-.0195408.011879-.0293541.0061531-.0152302.0123062-.0304775.0184441-.0456829.0393065-.0974084.0781745-.1943875.1164473-.2907601z" fill="#ffd06c"/></g><g><path d="m41.8440399 19.0963421-3.7197532-2.161684.0011024-.0032158 3.7197533 2.161684z" fill="#ffd06c"/></g><g><path d="m41.8451424 19.0931263-3.7197533-2.161684.0011291-.0006504 3.7197533 2.161684z" fill="#ffd06c"/></g><g><path d="m41.8462715 19.0924759-.0022316.0038662.0011025-.0032158z" fill="#ffd06c"/></g><g><path d="m35.0835838 30.6269398-3.7197552-2.161684c.0349274-.0391178.0697746-.0783691.1045933-.117672.0088081-.0099583.0176754-.0199528.0264816-.0299129.0093403-.0105648.0186348-.0211029.0279732-.031702.3264847-.3702583.6477394-.7492466.9622841-1.1377926.1665878-.2046833.3313484-.4149895.4938774-.6299381.124054-.1640644.2468185-.330822.3680954-.4998932l3.7197533 2.161684c-.1212769.1690712-.2440414.3358288-.3680954.4998932-.1625328.2149487-.3272896.4252548-.4938774.6299381-.3145447.388546-.6357994.7675343-.9622841 1.1377926-.0093384.0105991-.0186348.0211372-.0279732.031702-.0088081.0099602-.0176735.0199547-.0264816.0299129-.0348167.0393028-.0696678.0785523-.1045914.117672z" fill="#ffd06c"/></g><g><path d="m28.3781509 32.9896355-3.7197533-2.161684c.0407372-.0235195.0816269-.0473366.122364-.0711727.0696964-.0409756.0970421-.0570965.1244946-.0733662.07271-.043314.1002541-.0597935.1279945-.0764771.0705013-.0425091.1011963-.061142.1319981-.0799255.1603451-.0980282.289032-.1783409.4177589-.2602539.0433044-.0275612.0863495-.0551491.1292419-.0828075 2.0121078-1.2977047 4.0062199-2.9680634 5.9057312-4.9481354.0299721-.0312443.059763-.0623322.0897045-.0937519.0354805-.0370541.0709305-.074213.1063499-.1114616.0612831-.0644703.122427-.1293011.1834946-.1943665 2.1617908-2.3038292 4.1812801-4.9801903 6.1278591-7.9047909l3.7197533 2.1616859c-1.946579 2.9245987-3.9660683 5.6009598-6.127861 7.9047871-.0610657.0650673-.1222115.1298981-.1834946.1943684-.0354195.0372486-.0708694.0744076-.1063499.1114616-.0299416.0314198-.0597305.0625076-.0897026.0937519-1.8995094 1.980072-3.8936234 3.6504307-5.9057312 4.9481373-.0428925.0276566-.0859375.0552444-.1292439.0828056-.128727.081913-.257412.1622238-.4177589.2602539-.0308018.0187836-.0614967.0374146-.1319981.0799255-.0277405.0166817-.0552826.033165-.1279945.0764771-.0274525.0162697-.0547962.0323906-.1244946.0733681-.0407351.0238342-.0816248.0476493-.122362.0711708z" fill="#ffd06c"/></g><g><path d="m41.8462715 19.0924759-3.7197571-2.1616821c-.4607887-.6234016-.9980392-1.2323971-1.599247-1.7734308l3.7197495 2.1616869c.6012116.5410308 1.1384583 1.1500263 1.5992546 1.773426z" fill="#ffd06c"/></g><g><path d="m28.4646053 20.0756931c.5387306.3131218 1.0774403.6262321 1.6161919.9393177.7011852.4074821 1.4023457.8149395 2.1035595 1.2223663.2864494.4937038.4485321 1.1429195.4507599 1.927536l-3.7197552-2.1616821c-.002224-.7846183-.1643085-1.4338321-.4507561-1.9275379z" fill="#8cbce5"/></g><g><path d="m28.4646053 20.0756931c.2723255-.4450264.4425335-.9584675.4412632-1.4216118 1.2399406.7205658 2.4798088 1.4411163 3.7197495 2.161684.0012741.4631443-.1689339.9765854-.4412613 1.4216118-1.1159248-.6485042-2.6038246-1.5131778-3.7197514-2.161684z" fill="#8cbce5"/></g><g><path d="m28.8656883 18.3024597c1.2399406.7205677 2.4798088 1.4411182 3.7197495 2.161684.0259056.105093.0398178.2225399.0401802.3514557 0 .0000553.0000038.0001106.0000038.0001659-1.2399445-.7205677-2.4798126-1.4411182-3.7197552-2.161684 0-.0000553 0-.0001106 0-.0001659-.0003643-.1289158-.0142746-.2463627-.0401783-.3514557z" fill="#8cbce5"/></g><g><path d="m28.8656883 18.3024597c-.0175228-.0711002-.0405369-.1365452-.0685558-.1960621 1.2399387.7205677 2.4798088 1.4411182 3.7197514 2.1616859.028019.059515.051033.1249599.0685577.1960602-1.2399445-.7205657-2.4798126-1.4411163-3.7197533-2.161684z" fill="#8cbce5"/></g><g><path d="m28.7971325 18.1063976c-.0685768-.1456566-.1671467-.255806-.2886581-.3264256l3.7197514 2.161684c.1215134.0706196.2200813.180769.2886581.3264256-.6199169-.3602505-1.2397957-.7204933-1.8597107-1.0807438-.1460304-.0848637-.3407364-.1980152-.4867668-.2828789-.0722008-.0419579-.1684685-.0979023-.2406693-.1398602-.1411362-.0820198-.329319-.1913795-.4704571-.2733994-.1346073-.0782261-.3140831-.1825256-.4486923-.2607517-.0640373-.0372141-.1633968-.0694617-.2134552-.12405z" fill="#8cbce5"/></g><g><path d="m14.8708878 34.6731911-3.7197542-2.1616821c2.0439539.6879807 4.1712799 1.0240402 6.4432058.7788963.9318523-.1005516 1.8842049-.3011055 2.8489799-.5977325.2340164-.071949.4686737-.1495285.704031-.2327385.022089-.0078087.0441628-.015625.066267-.0235329.9839764-.3540726 1.9466228-.7884464 2.9112759-1.3107948.0486355-.0263767.0860233-.0467892.1233215-.0672703.0598011-.0329304.0912781-.0503674.1227398-.0678825.068346-.0381279.1000824-.055994.1318474-.0739307.0719109-.0406933.1137295-.0645046.1555958-.0885715l3.7197533 2.161684c-.0418663.0240669-.0836868.0478783-.1555977.0885696-.031765.0179367-.0634995.0358047-.1318474.0739326-.0314598.0175133-.0629387.0349503-.1227379.0678825-.0372982.0204811-.074688.0408936-.1233215.0672722-.9646549.5223465-1.9272995.9567223-2.9112759 1.3107948-.0221043.0079041-.044178.0157204-.066267.0235291-.2353592.08321-.4700165.1607895-.7040329.2327423-.9647751.2966232-1.9171257.4971771-2.848978.5977325-2.2719269.2451401-4.399252-.0909195-6.4432049-.7789001z" fill="#ffd06c"/></g><g><path d="m24.65205 29.3875751c2.3621464-1.3637867 4.2710075-4.6700649 4.2633133-7.384346l3.7197495 2.1616859c.0076981 2.7142773-1.9011631 6.0205574-4.2633095 7.3843441-1.1886826.6862869-2.2657394.7499504-3.0434837.2979469l-3.7197533-2.1616821c.7777443.4519998 1.8548012.3883363 3.0434837-.2979488z" fill="#8cbce5"/></g><g><path d="m30.2913857 23.2743053-3.7197533-2.161684c.248867.1446247.5940151.12323.9762268-.0974407.3536434-.2041759.6753139-.5449333.916748-.9394875l3.7197495 2.1616859c-.2414322.3945522-.5631008.7353096-.9167442.9394855-.3822117.2206708-.7273598.2420656-.9762268.0974408z" fill="#693b63"/></g><g><path d="m29.1502819 16.6563015c.100481-.02878.2008076-.0565147.3009682-.0831985l3.7197514 2.1616859c-.1001587.0266819-.2004852.0544167-.3009682.0831966-1.2399426-.7205639-2.4798108-1.4411163-3.7197514-2.161684z" fill="#8cbce5"/></g><g><path d="m28.5084572 17.7799644 3.7197495 2.1616859c-.2477207-.1439648-.5907993-.1236477-.9694977.0949936l-3.7197514-2.161684c.3786983-.2186412.7217751-.2389583.9694996-.0949955z" fill="#efebe9"/></g><g><path d="m30.2913857 23.2743053-3.7197533-2.161684c-.2455273-.1426868-.3973389-.44697-.3985691-.8809147-.001152-.406292.1326714-.8542175.3536701-1.2605057.2493553-.4584293.6096916-.8638382 1.0122242-1.096241l3.7197514 2.161684c-.4025307.2324028-.7628689.6378117-1.0122242 1.096241-.2209969.4062862-.3548222.8542118-.3536701 1.2605057.0012302.4339448.1530437.7382279.398571.8809147z" fill="#efebe9"/></g><g><path d="m28.3439407 21.7194862-3.7197533-2.161684c.6829586-.3943043 1.3288841-.5830822 1.9025459-.5866013l3.7197514 2.161684c-.5736617.0035191-1.2195873.1922971-1.902544.5866013z" fill="#693b63"/></g><g><path d="m29.1502819 16.6563015c1.2399406.7205677 2.4798088 1.4411201 3.7197514 2.1616879-1.3635674.3905735-2.7556534.973938-4.1530743 1.7398949-1.2399406-.7205658-2.4798107-1.4411163-3.7197533-2.161684 1.3974228-.765957 2.7895069-1.3493215 4.1530762-1.7398988z" fill="#8cbce5"/></g><g><path d="m24.9919033 18.3991089c.0017738-.0009727.0035381-.0019417.0053043-.0029087 1.2399406.7205677 2.4798107 1.4411182 3.7197514 2.161684-.0017643.000967-.0035305.001936-.0053024.0029087-1.2399426-.7205658-2.4798127-1.4411163-3.7197533-2.161684z" fill="#8cbce5"/></g><g><path d="m24.9919033 18.3991089c1.2399406.7205677 2.4798107 1.4411182 3.7197514 2.1616859-.0215282.0118122-.0442333.024334-.0825443.0455399-1.2399502-.7205563-2.479826-1.441103-3.7197704-2.1616726.0383224-.0212154.0610312-.0337372.0825633-.0455532z" fill="#8cbce5"/></g><g><path d="m24.9093418 18.4446602c1.2399426.7205715 2.4798183 1.4411182 3.7197666 2.1616783-.0015869.0008755-.0032005.00177-.0048428.0026798-.0025139.0013924-.0050297.0027866-.0075436.0041809-1.2399426-.7205658-2.4798126-1.4411163-3.7197552-2.161684.0025177-.0013943.0050316-.0027885.0075455-.0041809.0016385-.0009079.0032464-.0017986.0048295-.0026741z" fill="#8cbce5"/></g><g><path d="m24.8969707 18.4515152c1.2399387.7205677 2.4798088 1.4411182 3.7197495 2.161684-.0286541.0158939-.057291.0318565-.0859509.0478973-1.2399426-.7205658-2.4798126-1.4411163-3.7197533-2.161684.0286599-.0160408.0572968-.0320015.0859547-.0478973z" fill="#8cbce5"/></g><g><path d="m24.811018 18.4994125c1.2399387.7205677 2.4798088 1.4411182 3.7197495 2.161684-.0004501.0002537-.0009041.0005074-.0013561.000761-.0193157.0108376-.0386505.0216637-.0579739.0325527-.0126896.0071583-.0254555.0143681-.0381451.0215569-.0116901.0066128-.0233955.0132446-.0351067.0198917-1.2399426-.7205639-2.4798107-1.4411144-3.7197533-2.1616821.0117111-.006649.0234165-.0132809.0351067-.0198936.0126896-.0071888.0254574-.0143986.038147-.0215569.0193214-.0108891.0386562-.0217152.057972-.0325527.0004539-.0002536.0009059-.0005073.0013599-.000761z" fill="#8cbce5"/></g><g><path d="m24.6590042 18.5852146c.0064754-.003685.0129528-.0073643.0194302-.0110397 1.2399406.7205696 2.4798088 1.4411201 3.7197514 2.1616859-.0064754.0036736-.0129528.0073528-.0194302.0110378-1.2399426-.7205657-2.4798107-1.4411163-3.7197514-2.161684z" fill="#8cbce5"/></g><g><path d="m24.6590042 18.5852146c1.2399406.7205677 2.4798088 1.4411182 3.7197514 2.161684-.0136356.0077572-.0272694.0155296-.0408821.0233135-.0013065.0007572-.002615.0015163-.0039234.0022755-1.2399426-.7205677-2.4798107-1.4411182-3.7197533-2.161684.0013084-.0007591.0026169-.0015182.0039234-.0022755.0136127-.0077839.0272465-.0155563.040884-.0233135z" fill="#8cbce5"/></g><g><path d="m24.6141987 18.6108036c1.2399406.7205658 2.4798088 1.4411163 3.7197514 2.161684-.0260048.0150909-.0521221.0303612-.0781326.045578-1.2399445-.7205639-2.4798145-1.4411144-3.7197552-2.1616802.0260124-.0152206.0521297-.0304909.0781364-.0455818z" fill="#8cbce5"/></g><g><path d="m24.5360641 18.6563816c1.2399387.7205696 2.4798088 1.4411201 3.7197495 2.1616859-.0019016.001112-.0038052.0022278-.0057087.0033398-.0198441.0116348-.0396824.0232983-.0716915.042181-.0255814.0151024-.0511608.0302658-.0767403.0454903-1.2399426-.7205639-2.4798107-1.4411144-3.7197533-2.1616821.0255795-.0152264.0511608-.0303898.0767403-.0454922.0320091-.0188828.0518475-.0305462.0716915-.042181.0019036-.001112.003809-.0022259.0057125-.0033417z" fill="#8cbce5"/></g><g><path d="m25.3283691 31.8472366-3.7197552-2.161684c-.767807-.4462013-1.2439098-1.3949661-1.2477341-2.7433872-.0076942-2.7142849 1.9011631-6.0205784 4.2633076-7.3843632l3.7197533 2.161684c-2.3621445 1.3637848-4.2710018 4.6700783-4.2633076 7.3843613.0038224 1.348423.4799271 2.2971878 1.247736 2.7433891z" fill="#693b63"/></g><g><path d="m24.3819218 18.7473946c1.2399406.7205696 2.4798088 1.4411201 3.7197514 2.1616859-1.4776287.8794346-2.9538689 1.9609108-4.3981018 3.2267895-1.2399445-.7205639-2.4798145-1.4411144-3.7197552-2.1616802 1.4442367-1.2658825 2.920475-2.3473587 4.3981056-3.2267952z" fill="#8cbce5"/></g><g><path d="m19.7910461 22.1574688c1.1443672.6650276 2.2886639 1.3300381 3.433033 1.9950638.0515366.0299492.1030788.0599022.1546154.0898533.0382271.022213.0764618.0444336.114687.0666485.0052242.0030365.0113735.0101204.017416.0101204-1.0729389 1.9646645-1.7237606 4.1368542-1.7181797 6.1056767.0058708 2.0705872.7367134 3.5268707 1.9158726 4.212101l-3.7197533-2.1616859c-1.1791592-.6852283-1.9100018-2.1415119-1.9158707-4.2120972-.0055828-1.9688245.6452389-4.1410142 1.7181797-6.1056806z" fill="#8cbce5"/></g><g><path d="m33.1710052 18.734787c1.0832367.7203865 1.747654 2.1350384 1.7532463 4.1084919.0065994 2.3270683-.9051781 4.9387455-2.3445969 7.1556702-2.2571964 1.9130478-4.7983723 3.5724239-7.6151161 4.587904-.0532303.0191307-.0753784.0269508-.0974407.0347595-.2353592.0832138-.4700127.1607933-.7040291.2327423-1.4431362-.5539589-2.3638592-2.1044502-2.370451-4.4295235-.0056057-1.9773197.6508694-4.1597652 1.7320957-6.1311016 2.8040887-2.4919815 6.0504323-4.6009884 9.6462918-5.5589428zm-.5358886 5.4301262c-.0022278-.7846165-.1643105-1.4338322-.4507599-1.927536.2723618-.4450798.4425774-.9585896.4412613-1.4217777-.002449-.8647327-.6143494-1.2134514-1.366909-.7789612-.4025364.2324047-.7628708.6378136-1.0122299 1.0962467-.5736599.0035152-1.2195873.1922932-1.902544.5865993-2.3621407 1.363781-4.2709999 4.6700764-4.2633057 7.3843651.0076942 2.7142792 1.9290333 3.8091908 4.2911739 2.4454098 2.3621464-1.3637867 4.2710075-4.6700668 4.2633133-7.384346" fill="#57b3fe"/></g><g><path d="m19.7910461 22.1574688c.004631-.0084782.0092678-.0169525.0139141-.025423l3.7197514 2.161684c-.0046444.0084705-.0092831.0169449-.0139122.025423-1.2399425-.7205658-2.4798126-1.4411163-3.7197533-2.161684z" fill="#8cbce5"/></g><g><path d="m19.9838181 21.9741859c1.2399387.7205696 2.4798088 1.4411201 3.7197514 2.1616879-.0596733.0523014-.1192932.1049213-.1788559.157856l-3.7197552-2.161684c.0595645-.0529347.1191863-.1055546.1788597-.1578599z" fill="#8cbce5"/></g><g><path d="m21.7926178 30.4248219c.0065918 2.3250751.9273109 3.8755665 2.3704453 4.4295292-.9647732.2966232-1.9171276.4971848-2.8489723.5977364-2.2719364.2451363-4.3992519-.0909195-6.4376049-.7886009 2.4043045-3.610796 5.1347103-7.1793098 8.3459206-10.0984192.0334682-.0304222.0626335-.0567837.0916119-.0829449.0701466-.0632439.1403885-.126049.2106857-.1883888-1.0812207 1.9713286-1.737692 4.1537665-1.7320863 6.1310882z" fill="#fff"/></g><g><path d="m17.9005108 37.4962196-3.7197552-2.1616821c-.1802588-.1047554-.3547926-.2162361-.5253515-.3342628-.1538906-.1064873-.3043623-.2181892-.4516125-.3345947-.788311-.6231537-1.4797916-1.3781891-2.0526571-2.154171l3.7197523 2.1616821c.5728664.7759819 1.2643461 1.5310173 2.0526571 2.154171.1472511.1164055.2977219.2281113.4516125.3345947.1705589.1180267.3450928.2295074.5253544.3342628z" fill="#e8c78f"/></g><g><path d="m38.8100281 16.2567883c-.8099976-.4700308-1.7000122-.7800283-2.6500244-.8500357-2.3399658-.1799927-4.3422661 1.3544798-7.1422539 2.9644651-5.2834587 3.0490113-12.1226578 11.2104931-14.1477242 16.2955456l-3.7200317-2.1599731c.9000244-2.2600117 2.0800171-4.8099995 3.4800415-7.119997.0199585-.0300293.039978-.0600586.0599976-.0900269 1.8550072-3.2483864 5.9028587-7.5990906 9.8900146-9.9000235 2.7999878-1.6099854 5.5199585-2.3299561 7.8599854-2.1499634.9500122.0700073 1.8399658.3800049 2.6499634.8499756z" fill="#ffd06c"/></g><g><path d="m28.2981987 17.5611248c2.7972641-1.6150188 5.5230408-2.32973 7.8661842-2.1498518 2.3574715.1643982 4.3424301 1.8689699 5.6807594 3.6818533-2.7361107-.922533-5.385437-1.1471519-8.2626038-.46241-3.8876991.9431782-7.3222065 3.1917076-10.2685146 5.8514137-.0289803.026165-.0581436.0525246-.0871086.0788555-3.2051048 2.9134865-5.9428368 6.487751-8.3560467 10.1057472 1.5386047-3.8809433 3.5639915-7.8184452 6.2613239-10.961031.1579514-.1840019.3173714-.3659439.4782333-.5456829.067585-.0753345.0936279-.1042213.1197758-.1331539 2.0546647-2.2675094 4.3043901-4.1588458 6.5679971-5.4657401z" fill="#febc1f"/></g><g><path d="m41.8395348 19.0963631c-2.6449203 3.980854-5.6324844 7.8220596-9.2598839 10.9025898 1.439415-2.2169361 2.3511925-4.8285942 2.344593-7.1556797-.0055962-1.9734421-.6700134-3.388092-1.7532463-4.1084881.1143837-.0305672.2284737-.059679.3423691-.0874062.0378113-.0091648.0535126-.0129337.0691719-.0166645 2.8091469-.66856 5.4566803-.4857826 8.2569962.4656487z" fill="#fff"/></g><g><path d="m29.4319973 32.3456383c-.0428905.0276642-.0859489.0552559-.1292458.0828094-4.7506618 3.0232086-9.3245411 3.9638481-14.4318647 2.2447548.5728483.7759743 1.2643366 1.5310135 2.05264 2.1541634 3.3790417 2.6709251 7.8260517 1.4893837 11.4945126-.6287651 3.5525093-2.0510368 7.0561199-5.5778923 9.2695522-8.9211941.0168724-.0255013.0337067-.0510597.0505219-.0766354.8645897-1.3175945 1.658268-2.7470284 2.4179649-4.2857704.0137482-.0280514.027462-.0560112.043499-.0888672.1600914-.3280315.3156166-.6561928.4667397-.9826717.2115173-.4577961.4135551-.9125404.6368446-1.4336472.1363449-.3196239.2678452-.6361046.4244232-1.0226974.0391769-.0972042.0778885-.1939449.1175461-.2939739-3.3636399 5.0536174-7.353859 9.9894905-12.4131337 13.2524948z" fill="#febc1f"/></g><g><path d="m37.0668869 28.180027c-.2801552.3918724-.5682182.771492-.861969 1.1311302-.3654861.4514809-.7400284.8900776-1.1213341 1.3157825.0349236-.0391197.0697746-.0783691.1045914-.117672.0088081-.0099583.0176735-.0199528.0264816-.0299129.0093384-.0105648.0186348-.0211029.0279732-.031702.3264847-.3702583.6477394-.7492466.9622841-1.1377926.1665878-.2046833.3313446-.4149895.4938774-.6299381.124054-.1640644.2468185-.330822.3680954-.4998951z" fill="#ffd06c"/></g><g><path d="m40.2470207 17.3190479c.603447.5397396 1.1395836 1.1493778 1.5992508 1.773428-.4607963-.6233997-.998043-1.2323952-1.5992508-1.773428z" fill="#ffd06c"/></g><g><path d="m31.258709 20.036644c.7525673-.434494 1.36446-.0857754 1.3669128.7789612.0013123.4631882-.1689034.976696-.4412613 1.421772-.241436.3945541-.5631046.7353115-.916748.9394875-.7592983.4383812-1.3723202.0903149-1.3747978-.783474-.001152-.4062939.1326733-.8542194.3536701-1.2605057.2493553-.4584294.6096935-.8638382 1.0122242-1.096241z" fill="#fff"/></g><g><path d="m28.3439407 21.7194862c.6829567-.3943043 1.3288822-.5830822 1.902544-.5866013-.2209969.4062862-.3548222.8542118-.3536701 1.2605057.0024776.8737888.6154995 1.2218552 1.3747978.783474.3536434-.2041759.675312-.5449333.916748-.9394875.2864494.4937057.4485321 1.1429253.4507561 1.9275379.0076942 2.7142849-1.9011631 6.0205593-4.2633076 7.3843441s-4.2834816.2688732-4.2911758-2.4454117 1.9011632-6.0205764 4.2633076-7.3843612z" fill="#111d33"/></g></g></g><g enable-background="new"><g><path d="m32.1735535 15.3224077-1.2399159-.720561-.0018596-.6556644 1.2399177.720561z" fill="#f3f1fc"/></g><g><path d="m32.1716957 14.6667433-1.2399177-.720561 3.4962539-6.5058222 1.2399178.720561z" fill="#f3f1fc"/></g><g><path d="m34.9324379 6.3851085c.1762352-.1017494.3456917-.2326889.5040665-.3850594l1.2399139.7205625c-.158371.1523695-.3278275.2833085-.5040627.3850584-.413311-.2401862-.8266067-.4803715-1.2399177-.7205615z" fill="#f3f1fc"/></g><g><path d="m34.425602 6.5834827c.1593323-.0309167.3297195-.0961146.5068359-.1983743.413311.24019.8266068.4803753 1.2399178.7205634-.1771164.1022577-.3475075.1674557-.5068359.1983724-.3719788-.2161679-.8679429-.5043921-1.2399178-.7205615z" fill="#f3f1fc"/></g><g><path d="m35.6655197 7.3040442c.1593285-.0309167.3297195-.0961146.5068359-.1983743.1762352-.1017499.3456917-.2326889.5040665-.3850594l.0036888 1.3019466-3.4951248 6.5051708.0019264.678895c-.332962.0228701-.6703682.061245-1.0133591.1157846l-.0018578-.6556644 3.496254-6.5058222z" fill="#dedffb"/></g><g><path d="m35.6679497 8.1609211-1.2399178-.720561-.0024299-.8568774 1.2399177.7205615z" fill="#dedffb"/></g><g><path d="m37.2900085 3.3267353c-.2799683-.1699829-.0818176 1.0426233-.5218201 1.2926233-.8800049.5100098-1.0455627.5135221-1.0455627 1.5235319 0 .5-.9725952.9038768-.692627 1.0738597l-1.2399902-.7199707c-.2799683-.1700439-.4599609-.5200195-.4599609-1.0200195 0-1.0200195.7099609-2.2500002 1.5899658-2.76001.4400024-.25.8500366-.2799683 1.1400146-.1099854z" fill="#8fabfe"/></g><g><path d="m36.1619606 3.4388559c.8794861-.5077715 1.5961838-.0993464 1.5990601.9151361.0022926.8080883-.4525757 1.7585325-1.0845985 2.3666186-.1583748.1523705-.3278313.2833095-.5040665.3850594-.1771164.1022596-.3475075.1674576-.5068359.1983743-.634819.123116-1.0932884-.2998371-1.0955811-1.1076803-.0028763-1.0144826.7091713-2.247793 1.5920219-2.7575081z" fill="#678aee"/></g></g><g enable-background="new"><g><path d="m20.355175 22.6163273-1.2399177-.720562-.0019284-.680191 1.2399178.7205619z" fill="#f3f1fc"/></g><g><path d="m20.3532467 21.9361362-1.2399178-.7205619-3.5205269-2.4546814 1.2399178.7205619z" fill="#f3f1fc"/></g><g><path d="m16.0959473 17.2603626c.1762199-.1017418.3456745-.2326794.5040646-.3850594l1.2399139.7205639c-.1583862.1523762-.3278408.2833157-.5040607.3850574-.413313-.2401885-.8266087-.4803733-1.2399178-.7205619z" fill="#f3f1fc"/></g><g><path d="m15.5891104 17.4587364c.1593151-.0309067.3297186-.0961151.5068369-.1983738.4133091.2401886.8266048.4803734 1.2399158.720562-.1771164.1022587-.3475208.1674652-.506834.1983738-.3719769-.2161674-.8679438-.5043907-1.2399187-.720562z" fill="#f3f1fc"/></g><g><path d="m16.8290291 18.1792984c.1593132-.0309086.3297176-.0961151.5068359-.1983738.1762199-.1017418.3456745-.2326813.5040646-.3850594l.0024281.8566666 3.5205269 2.4546814.0018673.6582394c-.3410549.3391113-.6775723.689827-1.0095768 1.0508747l-.0019283-.680191-3.5205269-2.4546814z" fill="#dedffb"/></g><g><path d="m16.8327198 19.4814548-1.2399178-.7205619-.0036916-1.3021565 1.2399187.720562z" fill="#f3f1fc"/></g><g><path d="m18.4600525 14.2067404c-.2900391-.1699829-.2843838 1.7921448-.7243862 2.0521555-.8900146.5099487-.4066772-.1847458-.4066772.825264 0 .5099487-1.4189854.8426113-1.1289463 1.0125942l-1.2399902-.7199707c-.2900391-.1700439-.4700317-.5200195-.4700317-1.0300293 0-1.0100088.710022-2.2399893 1.5999756-2.749999.4400024-.2600098.8400269-.2799683 1.1300049-.1099854z" fill="#f45170"/></g><g><path d="m17.32547 14.3141098c.8794861-.5077715 1.5961838-.0993462 1.5990601.9151363.0022907.8080883-.4525909 1.7585411-1.0846004 2.3666191-.15839.1523781-.3278446.2833176-.5040646.3850594-.1771183.1022587-.3475227.1674652-.5068359.1983738-.6348343.1231251-1.0932903-.2998371-1.0955801-1.1076813-.0028764-1.0144825.7091683-2.2477922 1.5920209-2.7575073z" fill="#df3260"/></g></g><g enable-background="new"><g><path d="m25.5141926 11.8227358c.1758099-.1015034.3448982-.2320919.5029392-.3839884l1.2399158.7205629c-.1580391.1518955-.3271275.2824831-.5029373.3839865-.0994492-.0577927-.1989021-.1155882-.2983513-.1733809-.1071968-.062295-.2143993-.1245975-.3215961-.1868916-.2066574-.1200951-.4133129-.2401933-.6199703-.3602885z" fill="#f3f1fc"/></g><g><path d="m25.0062275 12.0213404c.1596508-.0308208.3304195-.0960989.5079651-.1986046.413311.2401876.8266068.4803734 1.2399178.720561-.1775455.1025057-.3483143.1677837-.5079651.1986046-.3719769-.2161665-.8679448-.5043907-1.2399178-.720561z" fill="#f3f1fc"/></g><g><path d="m26.2600365 17.6415844-1.2399178-.720562-.0138912-4.899682 1.2399177.720561z" fill="#f3f1fc"/></g><g><path d="m26.2461452 12.7419014c.1596508-.0308208.3304195-.0960989.5079651-.1986046.1758099-.1015034.3448982-.232091.5029392-.3839884l.0138874 4.8986311c-.1684952.0921097-.3381157.1861629-.5077229.2840862-.1673546.0966225-.3358231.1977634-.5031776.2995586z" fill="#dedffb"/></g><g><path d="m27.8800354 8.7667379c-.2900391-.1699829-.3606415 1.1528339-.8106537 1.4128437-.8800049.5100098-.2840443.3818779-.2840443 1.4018974 0 .5-1.4552898.9052906-1.1653118 1.0752735l-1.2399902-.7199707c-.2900391-.1700439-.4700317-.5200195-.4700317-1.0200195 0-1.0200195.710022-2.25 1.5900269-2.7600098.4500122-.2600098.8499756-.2799683 1.1400146-.1099854z" fill="#78e75a"/></g><g><path d="m26.7437153 8.876483c.8794861-.5077715 1.5961838-.0993462 1.5990601.9151363.0022926.8085785-.4531059 1.7596626-1.0857258 2.3676891-.158041.1518974-.3271294.282485-.5029392.3839884-.1775455.1025057-.3483143.1677837-.5079651.1986046-.6342106.1223803-1.0921612-.3005571-1.09445-1.1079111-.0028763-1.0144825.7091674-2.2477923 1.59202-2.7575073z" fill="#5ec363"/></g></g></g><path d="m20.6801186 25.6318626c-1.0634003 0-1.9279671.8645668-1.9279671 1.9366207 0-.5361328-.2161427-1.0202351-.5706444-1.3660831-.3457947-.3543968-.8299503-.5705376-1.3659782-.5705376.5360279 0 1.0201836-.2161427 1.3659782-.5706444.3545017-.3458481.5706444-.8300571.5706444-1.3659782 0 .5359211.2161407 1.0201302.5619354 1.3659782.3545036.3545018.8386593.5706444 1.3660317.5706444z" fill="#fff"/></g></g></svg>