<svg width="96" height="96" xmlns="http://www.w3.org/2000/svg" xmlns:xlink="http://www.w3.org/1999/xlink" xml:space="preserve" overflow="hidden"><g transform="translate(-439 -557)"><path d="M487 561C462.6 561 443 580.6 443 605 443 629.4 462.6 649 487 649 511.4 649 531 629.4 531 605 531 580.6 511.4 561 487 561ZM480.6 621.8C480.2 622.6 479.8 623 479 623L465 623C463.8 623 462.6 621.4 463.4 620.2L482.6 582.2C483.4 581 485 581 485.8 581.8L494.2 594.2C494.6 595 494.6 595.8 494.2 596.2ZM509 623 490.2 623C489 623 487.8 621.4 488.6 620.2L496.6 604.2C497.4 603 499 603 499.8 603.8L510.6 619.8C511.4 621 510.6 623 509 623Z" fill="#E84142"/></g></svg>