<svg width="96" height="96" xmlns="http://www.w3.org/2000/svg" xmlns:xlink="http://www.w3.org/1999/xlink" xml:space="preserve" overflow="hidden"><g transform="translate(-545 -457)"><path d="M589 505.4 586.2 516.2C589.4 517 599.4 520.2 601 514.2 603 507.8 592.6 506.2 589 505.4Z" fill="#F7931A"/><path d="M593 461C568.6 461 549 480.6 549 505 549 529.4 568.6 549 593 549 617.4 549 637 529.4 637 505 637 480.6 617.4 461 593 461ZM612.6 498.6C611.8 503 609.4 505 606.6 505.8 611 508.2 613 511.4 611 517.4 608.2 525 602.2 525.4 593.8 523.8L591.8 531.8 587 530.6 589 522.6C587.8 522.2 586.6 521.8 585 521.8L583 529.8 578.2 528.6 580.2 520.6C579 520.2 577.8 520.2 576.6 519.8L570.2 518.2 573 512.6C573 512.6 576.2 513.4 576.6 513.4 577.8 513.8 578.6 513 578.6 512.2L581.8 499.4 582.2 499.4 581.8 499.4 584.2 490.2C584.2 489 583.8 487.8 581.8 487.4 581.8 487.4 578.2 486.6 578.2 486.6L579.4 481.4 586.2 483C587 483.4 588.2 483.4 589.4 483.8L591.4 475.8 596.2 477 594.2 485C595.4 485.4 597 485.4 598.2 485.8L600.2 478.2 605 479.4 603 487.4C609 489.8 613.4 493 612.6 498.6Z" fill="#F7931A"/><path d="M592.6 491 590.2 500.6C593 501.4 601.4 504.2 602.6 498.6 604.2 493 595.4 491.8 592.6 491Z" fill="#F7931A"/></g></svg>