<svg width="96" height="96" xmlns="http://www.w3.org/2000/svg" xmlns:xlink="http://www.w3.org/1999/xlink" xml:space="preserve" overflow="hidden"><g transform="translate(-649 -557)"><path d="M697 561C672.6 561 653 580.6 653 605 653 629.4 672.6 649 697 649 721.4 649 741 629.4 741 605 741 580.6 721.4 561 697 561ZM685.8 587.4 690.2 583 697 576.2 703.8 583 708.2 587.4 714.6 593.8 707.8 600.6 701.4 594.2 697 589.8 692.6 594.2 686.2 600.6 679.4 593.8ZM703.4 605 697 611.4 690.6 605 697 598.6ZM668.2 605 675 598.2 681.8 605 675 611.8ZM697 633.8 690.2 627 685.8 622.6 679.4 616.2 686.2 609.4 692.6 615.8 697 620.2 701.4 615.8 707.8 609.4 714.6 616.2ZM719 611.8 712.2 605 719 598.2 725.8 605Z" fill="#F0B90B"/></g></svg>