<svg width="96" height="96" xmlns="http://www.w3.org/2000/svg" xmlns:xlink="http://www.w3.org/1999/xlink" xml:space="preserve" overflow="hidden"><g transform="translate(-749 -557)"><path d="M797 561C772.6 561 753 580.6 753 605 753 629.4 772.6 649 797 649 821.4 649 841 629.4 841 605 841 580.6 821.4 561 797 561ZM819 590.2C819.8 589.8 820.6 590.2 821 590.6 821.4 591.4 821 592.2 820.6 592.6 819.8 593 819 592.6 818.6 592.2 817.8 591.8 818.2 590.6 819 590.2ZM810.6 577.8C811 577 812.2 576.6 813 577 813.8 577.4 814.2 578.6 813.4 579 813 579.8 811.8 580.2 811.4 579.4 810.6 579.4 810.2 578.6 810.6 577.8ZM813 595.8C813.8 597 813.4 598.6 812.2 599 811 599.8 809.4 599.4 809 598.2 808.2 597 808.6 595.4 809.8 595 811 594.2 812.2 594.6 813 595.8ZM810.6 605C810.6 607.4 809 609 806.6 609 804.2 609 802.6 607.4 802.6 605 802.6 602.6 804.2 601 806.6 601 809 601 810.6 602.6 810.6 605ZM805 586.2C805.8 585 807 584.6 808.2 585.4 809.4 586.2 809.8 587.4 809 588.6 808.2 589.8 807 590.2 805.8 589.4 804.6 589 804.2 587.4 805 586.2ZM805.8 596.6C805.8 599 804.2 600.6 801.8 600.6 799.4 600.6 797.8 599 797.8 596.6 797.8 594.2 799.4 592.6 801.8 592.6 803.8 592.6 805.8 594.6 805.8 596.6ZM797 577C797.8 577 798.6 577.8 798.6 578.6 798.6 579.4 797.8 580.2 797 580.2 796.2 580.2 795.4 579.4 795.4 578.6 795.4 577.8 796.2 577 797 577ZM797 586.6C798.2 586.6 799.4 587.8 799.4 589 799.4 590.2 798.2 591.4 797 591.4 795.8 591.4 794.6 590.2 794.6 589 794.6 587.8 795.8 586.6 797 586.6ZM796.2 596.6C796.2 599 794.6 600.6 792.2 600.6 789.8 600.6 788.2 599 788.2 596.6 788.2 594.2 789.8 592.6 792.2 592.6 794.6 592.6 796.2 594.6 796.2 596.6ZM791.4 605C791.4 607.4 789.8 609 787.4 609 785 609 783.4 607.4 783.4 605 783.4 602.6 785 601 787.4 601 789.8 601 791.4 602.6 791.4 605ZM785.8 585.4C787 584.6 788.6 585 789 586.2 789.4 587.4 789.4 589 788.2 589.8 787 590.2 785.4 589.8 785 588.6 784.2 587.4 784.6 586.2 785.8 585.4ZM785 598.2C784.2 599.4 783 599.8 781.8 599 780.6 598.2 780.2 597 781 595.8 781.8 594.6 783 594.2 784.2 595 785.4 595.4 785.8 597 785 598.2ZM766.6 606.6C765.8 606.6 765 605.8 765 605 765 604.2 765.8 603.4 766.6 603.4 767.4 603.4 768.2 604.2 768.2 605 768.2 605.8 767.4 606.6 766.6 606.6ZM772.6 591C773 590.2 774.2 589.8 775 590.6 775.8 591.4 776.2 592.2 775.4 592.6 775 593.4 774.2 593.8 773.4 593 772.6 592.2 772.2 591.8 772.6 591ZM775 619.8C774.2 620.2 773.4 619.8 773 619.4 772.6 618.6 773 617.8 773.4 617.4 774.2 617 775 617.4 775.4 617.8 776.2 618.2 775.8 619.4 775 619.8ZM777 607.4C775.8 607.4 774.6 606.2 774.6 605 774.6 603.8 775.8 602.6 777 602.6 778.2 602.6 779.4 603.8 779.4 605 779.4 606.2 778.2 607.4 777 607.4ZM781 577.4C781.8 577 782.6 577.4 783 577.8 783.4 578.2 783 579.4 782.6 579.8 781.8 580.6 781 580.2 780.6 579.4 780.2 578.6 780.2 577.8 781 577.4ZM783.4 632.2C783 633 781.8 633.4 781 633 780.2 632.6 779.8 631.4 780.6 631 781 630.2 782.2 629.8 782.6 630.6 783.4 630.6 783.8 631.4 783.4 632.2ZM781 614.2C780.2 613 780.6 611.4 781.8 611 783 610.2 784.6 610.6 785 611.8 785.8 613 785.4 614.6 784.2 615 783 615.8 781.8 615.4 781 614.2ZM789 623.8C788.2 625 787 625.4 785.8 624.6 784.6 623.8 784.2 622.6 785 621.4 785.8 620.2 787 619.8 788.2 620.6 789.4 621 789.8 622.6 789 623.8ZM788.2 613.4C788.2 611 789.8 609.4 792.2 609.4 794.6 609.4 796.2 611 796.2 613.4 796.2 615.8 794.6 617.4 792.2 617.4 789.8 617.4 788.2 615.4 788.2 613.4ZM797 633C796.2 633 795.4 632.2 795.4 631.4 795.4 630.6 796.2 629.8 797 629.8 797.8 629.8 798.6 630.6 798.6 631.4 798.6 632.2 797.8 633 797 633ZM797 623.4C795.8 623.4 794.6 622.2 794.6 621 794.6 619.8 795.8 618.6 797 618.6 798.2 618.6 799.4 619.8 799.4 621 799.4 622.6 798.2 623.4 797 623.4ZM801.8 617.4C799.4 617.4 797.8 615.8 797.8 613.4 797.8 611 799.4 609.4 801.8 609.4 804.2 609.4 805.8 611 805.8 613.4 805.8 615.8 803.8 617.4 801.8 617.4ZM808.2 624.6C807 625.4 805.4 625 805 623.8 804.2 622.6 804.6 621 805.8 620.6 807 619.8 808.6 620.2 809 621.4 809.8 622.6 809.4 623.8 808.2 624.6ZM809 611.8C809.8 610.6 811 610.2 812.2 611 813.4 611.8 813.8 613 813 614.2 812.2 615.4 811 615.8 809.8 615 808.6 614.6 808.2 613 809 611.8ZM813 633C812.2 633.4 811.4 633 811 632.6 810.6 632.2 811 631 811.4 630.6 811.8 630.2 813 630.6 813.4 631 813.8 631.4 813.8 632.2 813 633ZM814.6 605C814.6 603.8 815.8 602.6 817 602.6 818.2 602.6 819.4 603.8 819.4 605 819.4 606.2 818.2 607.4 817 607.4 815.8 607.4 814.6 606.2 814.6 605ZM821.4 619C821 619.8 819.8 620.2 819.4 619.4 819 618.6 818.2 617.8 819 617.4 819.4 616.6 820.6 616.2 821 617 821.4 617.8 821.8 618.2 821.4 619ZM827.4 606.6C826.6 606.6 825.8 605.8 825.8 605 825.8 604.2 826.6 603.4 827.4 603.4 828.2 603.4 829 604.2 829 605 829 605.8 828.2 606.6 827.4 606.6Z" fill="#0133AE"/></g></svg>