<svg width="297" height="297" xmlns="http://www.w3.org/2000/svg" xmlns:xlink="http://www.w3.org/1999/xlink" xml:space="preserve" overflow="hidden"><defs><clipPath id="clip0"><rect x="2917" y="1586" width="297" height="297"/></clipPath></defs><g clip-path="url(#clip0)" transform="translate(-2917 -1586)"><path d="M3065.5 1586C2983.15 1586 2917 1652.15 2917 1734.5 2917 1816.85 2983.15 1883 3065.5 1883 3147.85 1883 3214 1816.85 3214 1734.5 3214 1652.15 3147.85 1586 3065.5 1586Z" fill="#FF9211" fill-rule="evenodd"/><g><g><g><path d="M100.469 23.8973 21.5201 69.5024 21.5201 160.775 100.469 206.38 179.417 160.775 179.417 69.5024 100.469 23.8973ZM103.784 0.875817C101.72-0.312792 99.2176-0.312792 97.1532 0.875817L3.31559 55.1139C1.25117 56.3026 0 58.4921 0 60.8693L0 169.346C0 171.723 1.25117 173.912 3.31559 175.101L97.1532 229.339C99.2176 230.528 101.72 230.528 103.784 229.339L197.622 175.101C199.686 173.912 200.938 171.723 200.938 169.346L200.938 60.8693C200.938 58.4921 199.686 56.3026 197.622 55.1139L103.784 0.875817Z" fill="#FFFFFF" fill-rule="evenodd" transform="matrix(1 0 0 1.00247 2965 1619.08)"/><path d="M100.469 56.9281 50.1093 86.0178 50.1093 144.197 100.156 173.099C100.344 173.224 100.469 173.412 100.469 173.662L100.469 183.609C100.469 184.109 99.9057 184.422 99.4678 184.172L42.6648 151.391C41.1009 150.515 40.1625 148.889 40.1625 147.075L40.1625 83.1401C40.1625 81.3885 41.1009 79.6994 42.6648 78.8236L97.9664 46.8562C99.5304 45.9804 101.407 45.9804 102.909 46.8562L159.962 79.6994C160.4 79.9496 160.4 80.5752 159.962 80.8254 156.584 82.8273 154.895 83.7031 151.079 85.8301 150.891 85.9552 150.641 85.9552 150.453 85.8301L100.469 56.9281Z" fill="#FFFFFF" transform="matrix(1 0 0 1.00247 2965 1619.08)"/><path d="M108.789 116.359C108.789 116.108 108.914 115.858 109.164 115.796L159.211 89.1457C159.649 88.8955 160.212 89.2083 160.212 89.7087L160.212 154.582C160.212 154.832 160.087 155.02 159.899 155.145L109.853 184.234C109.415 184.485 108.852 184.172 108.852 183.671L108.852 116.359Z" fill="#FFFFFF" transform="matrix(1 0 0 1.00247 2965 1619.08)"/></g></g></g></g></svg>