<svg width="96" height="96" xmlns="http://www.w3.org/2000/svg" xmlns:xlink="http://www.w3.org/1999/xlink" xml:space="preserve" overflow="hidden"><g transform="translate(-643 -461)"><path d="M689 501.8C688.2 501.4 687 500.6 686.2 500.2L686.2 503.4C686.6 503 687 503 687.4 502.6 687.8 502.6 688.6 502.2 689 501.8Z" fill="#2E3148"/><path d="M695.4 498.2C694.6 489 692.2 484.2 691 484.2 689.8 484.2 687.4 489 686.6 498.6 688.2 499.4 689.8 500.2 691 501 692.6 500.2 693.8 499 695.4 498.2Z" fill="#2E3148"/><path d="M694.6 503C695 503.4 695.4 503.4 695.8 503.8 695.8 502.6 695.8 501.4 695.8 500.6 695 501 694.2 501.4 693 502.2 693.8 502.2 694.2 502.6 694.6 503Z" fill="#2E3148"/><path d="M686.6 519.8C686.6 521.4 687 523 687.4 524.6 688.6 525 689.4 525.8 689.4 527 689.4 527.8 689 528.6 688.6 529 689.4 532.6 690.6 534.6 691.4 534.6 692.6 534.6 695 529.8 695.8 520.2 694.2 519.4 692.6 518.6 691.4 517.8 689.4 518.2 688.2 519 686.6 519.8Z" fill="#2E3148"/><path d="M687.4 515C687 514.6 686.6 514.6 686.2 514.2L686.2 517.4C687 517 688.2 516.6 689 515.8 688.6 515.8 687.8 515.4 687.4 515Z" fill="#2E3148"/><path d="M680.6 510.2C672.6 516.6 669.4 521.4 670.2 522.2 671 523.4 676.2 522.6 684.6 518.2 684.6 516.2 684.2 514.2 684.2 512.6 683 512.2 681.8 511 680.6 510.2Z" fill="#2E3148"/><path d="M682.2 509C682.6 509.4 683.4 509.8 684.2 510.2 684.2 509.8 684.2 509.4 684.2 509 684.2 508.6 684.2 508.2 684.2 507.8 683.4 508.2 682.6 508.6 682.2 509Z" fill="#2E3148"/><path d="M669.8 495.8C669.4 496.2 670.2 497.8 672.2 500.2L673 500.2C674.2 500.2 675.4 501.4 675.4 502.6L675.4 503.4C677 504.6 678.6 506.2 680.6 507.8 681.8 507 683 506.2 684.2 505 684.2 503 684.2 501.4 684.6 499.4 678.2 496.2 673.8 495 671.4 495 670.6 495 670.2 495.4 669.8 495.8Z" fill="#2E3148"/><path d="M693.8 505C693 504.2 691.8 503.8 691 503.4 690.2 503.8 689.4 504.6 688.2 505 687.4 505.4 686.6 505.8 685.8 506.6L685.8 509.4C685.8 509.4 685.8 511.4 685.8 512.2 686.6 512.6 687.4 513 688.2 513.8 689 514.6 690.2 515 691 515.4 691.8 515 692.6 514.2 693.8 513.8 694.6 513.4 695.4 513 696.2 512.2 696.2 511.4 696.2 510.2 696.2 509.4 696.2 508.6 696.2 507.4 696.2 506.6 695.4 505.8 694.6 505.4 693.8 505ZM691 511.4C689.8 511.4 688.6 510.2 688.6 509 688.6 507.8 689.8 506.6 691 506.6 692.2 506.6 693.4 507.8 693.4 509 693.4 510.2 692.2 511.4 691 511.4Z" fill="#2E3148"/><path d="M697.8 513C697.8 515 697.4 516.6 697.4 518.6 703.8 521.8 708.2 523 710.2 523 711 523 711.4 523 711.8 522.6 712.6 521.4 709.4 516.6 701 510.6 700.2 511 699 512.2 697.8 513Z" fill="#2E3148"/><path d="M699.8 509C699 508.6 698.6 508.2 697.8 507.8L697.8 509C697.8 509 697.8 509.8 697.8 510.2 698.6 509.8 699.4 509.4 699.8 509Z" fill="#2E3148"/><path d="M693 516.2C693.8 516.6 695 517.4 695.8 517.8 695.8 516.6 695.8 515.8 695.8 514.6 695.4 515 695 515 694.6 515.4 694.2 515.4 693.4 515.8 693 516.2Z" fill="#2E3148"/><path d="M712.2 495.8C712.2 495.4 711.4 495.4 710.6 495.4 709.8 495.4 708.6 495.4 707 495.8 707 497 705.8 497.8 704.6 497.8 703.8 497.8 703.4 497.4 703 497 701.4 497.4 699.8 498.2 697.8 499.4 697.8 501.4 698.2 503.4 698.2 505 699.4 505.8 700.6 506.6 701.8 507.8 709 502.2 712.2 497.8 712.2 495.8Z" fill="#2E3148"/><path d="M691 465C666.6 465 647 484.6 647 509 647 533.4 666.6 553 691 553 715.4 553 735 533.4 735 509 735 484.6 715.4 465 691 465ZM713.8 523.4C713 524.2 712.2 524.6 710.6 524.6 707.4 524.6 702.6 522.6 697.4 520.2 696.6 528.2 694.6 535.8 691 535.8 689 535.8 687.4 533 686.2 528.6 685 528.2 684.2 527.4 684.2 526.2 684.2 525.4 684.6 524.6 685.4 524.2 685 523 685 521.4 685 520.2 679.8 523 674.6 525 671.4 525 669.8 525 668.6 524.6 668.2 523.8 666.2 520.6 672.2 514.6 679 509.4 677.4 508.2 675.4 506.6 674.2 505.4 673.8 505.4 673.8 505.4 673.4 505.4 672.2 505.4 671 504.2 671 503 671 502.6 671 502.2 671.4 501.8 669.4 499.8 668.2 497.8 668.2 496.2 668.2 495.8 668.2 495.4 668.6 495 670.6 492.2 677.8 494.2 685 497.8 685.8 489.8 687.8 482.2 691.4 482.2 695 482.2 697 489.4 697.8 497.8 699.4 497 701 496.2 702.6 495.8 702.6 494.6 703.8 493.4 705 493.4 705.8 493.4 706.2 493.8 707 494.2 709.8 493 712.6 493 713.8 494.6 715.8 497.8 709.8 503.8 703 509 709.8 514.2 715.8 520.2 713.8 523.4Z" fill="#2E3148"/></g></svg>