<svg width="86" height="86" xmlns="http://www.w3.org/2000/svg" xmlns:xlink="http://www.w3.org/1999/xlink" xml:space="preserve" overflow="hidden"><g transform="translate(-374 -274)"><path d="M460 317C460 340.748 440.748 360 417 360 393.252 360 374 340.748 374 317 374 293.252 393.252 274 417 274 440.748 274 460 293.252 460 317Z" fill="#393753"/><path d="M438.44 316.905C438.44 328.791 428.804 338.427 416.918 338.427 405.032 338.427 395.397 328.791 395.397 316.905 395.397 305.019 405.032 295.384 416.918 295.384 428.804 295.384 438.44 305.019 438.44 316.905Z" fill="#22253C"/><path d="M417 285.253C413.22 285.253 409.892 299.473 409.892 316.983 409.892 334.492 413.065 348.747 417 348.747 420.935 348.747 424.104 334.415 424.104 317 424.104 299.585 420.93 285.253 417 285.253ZM417.49 346.932C417.303 347.182 416.95 347.234 416.699 347.048 416.656 347.014 416.617 346.975 416.583 346.932 415.31 345.134 414.399 343.106 413.9 340.96 410.722 330.824 411.479 309.002 411.479 309.002 412.949 291.832 415.71 287.76 416.57 286.84 416.778 286.667 417.08 286.667 417.288 286.84 418.452 288.282 419.29 289.959 419.748 291.755 421.764 299.511 422.776 307.494 422.758 315.508 422.819 322.615 422.262 329.714 421.094 336.724 419.49 345.156 417.486 346.932 417.486 346.932Z" fill="#6F7390"/><path d="M444.52 301.21C442.551 297.809 428.674 302.118 413.47 310.855 398.265 319.593 387.536 329.384 389.48 332.79 391.424 336.195 405.326 331.882 420.569 323.072 435.812 314.261 446.511 304.5 444.546 301.142ZM391.277 332.334C390.965 332.364 390.688 332.136 390.657 331.824 390.65 331.754 390.656 331.684 390.675 331.616 391.587 329.615 392.869 327.806 394.455 326.284 401.679 318.492 420.93 308.284 420.93 308.284 436.698 300.974 441.57 301.288 442.826 301.628 443.11 301.68 443.3 301.949 443.256 302.234 443.256 303.859 440.246 306.77 440.246 306.77 434.573 312.364 428.216 317.218 421.326 321.218 415.173 324.797 408.727 327.845 402.057 330.33 393.926 333.241 391.355 332.334 391.355 332.334Z" fill="#6F7390"/><path d="M444.451 332.91C446.416 329.509 435.714 319.636 420.552 310.864 405.39 302.092 391.505 297.693 389.54 301.09 387.575 304.487 398.278 314.325 413.44 323.063 428.601 331.801 442.486 336.307 444.451 332.91ZM390.826 302.38C390.668 302.109 390.759 301.762 391.029 301.603 391.03 301.603 391.031 301.602 391.032 301.602 391.075 301.579 391.119 301.56 391.166 301.546 393.356 301.322 395.568 301.542 397.672 302.191 408.146 304.53 426.563 316.14 426.563 316.14 440.783 326.086 442.976 330.472 443.277 331.723 443.358 331.982 443.227 332.26 442.976 332.364 441.161 332.66 439.304 332.558 437.533 332.063 429.814 329.918 422.404 326.79 415.482 322.758 409.309 319.257 403.451 315.229 397.973 310.718 391.355 305.106 390.826 302.38 390.826 302.38Z" fill="#6F7390"/><path d="M420.664 316.905C420.664 318.974 418.987 320.651 416.918 320.651 414.85 320.651 413.173 318.974 413.173 316.905 413.173 314.837 414.85 313.16 416.918 313.16 418.987 313.16 420.664 314.837 420.664 316.905Z" fill="#B7B9C8"/><path d="M434.389 302.573C434.389 303.806 433.425 304.805 432.235 304.805 431.045 304.805 430.081 303.806 430.081 302.573 430.081 301.341 431.045 300.342 432.235 300.342 433.425 300.342 434.389 301.341 434.389 302.573Z" fill="#B7B9C8"/><path d="M398.841 310.21C398.841 311.443 397.877 312.442 396.687 312.442 395.497 312.442 394.533 311.443 394.533 310.21 394.533 308.978 395.497 307.979 396.687 307.979 397.877 307.979 398.841 308.978 398.841 310.21Z" fill="#B7B9C8"/><path d="M414.687 337.666C414.687 338.898 413.722 339.897 412.532 339.897 411.343 339.897 410.378 338.898 410.378 337.666 410.378 336.433 411.342 335.434 412.532 335.434 413.722 335.434 414.687 336.433 414.687 337.666Z" fill="#B7B9C8"/></g></svg>