<svg width="86" height="86" xmlns="http://www.w3.org/2000/svg" xmlns:xlink="http://www.w3.org/1999/xlink" xml:space="preserve" overflow="hidden"><g transform="translate(-540 -260)"><path d="M626 303C626 326.748 606.748 346 583 346 559.252 346 540 326.748 540 303 540 279.252 559.252 260 583 260 606.748 260 626 279.252 626 303Z" fill="#5F7EDD"/><path d="M582.996 314.713 568.548 306.178 582.996 326.543 597.457 306.178Z" fill="#FFFFFF"/><path d="M597.448 303.439 582.996 311.978 568.543 303.439 582.996 279.457Z" fill="#FFFFFF"/><path d="M597.448 303.439 582.996 296.868 582.996 279.457Z" fill="#C1CCF7"/><path d="M597.457 306.178 582.996 326.543 582.996 314.713Z" fill="#C1CCF7"/><path d="M582.996 296.868 582.996 311.978 568.548 303.439Z" fill="#C1CCF7"/><path d="M597.448 303.439 582.996 311.978 582.996 296.868Z" fill="#8198EE"/></g></svg>