<svg width="86" height="87" xmlns="http://www.w3.org/2000/svg" xmlns:xlink="http://www.w3.org/1999/xlink" xml:space="preserve" overflow="hidden"><defs><clipPath id="clip0"><rect x="447" y="466" width="86" height="87"/></clipPath></defs><g clip-path="url(#clip0)" transform="translate(-447 -466)"><path d="M84.6562 53.3469C78.8781 76.4594 55.6313 90.4344 32.5187 84.7906 9.40625 79.1469-4.43437 55.7656 1.20938 32.6531 6.85313 9.54062 30.2344-4.43437 53.3469 1.34375 53.3469 1.34375 53.3469 1.34375 53.3469 1.34375 76.4594 7.12188 90.4344 30.3687 84.6562 53.3469Z" fill="#2B2B2B" transform="matrix(1 0 0 1.01163 447 466)"/><path d="M76.8625 51.4656C72.1594 70.1438 53.2125 81.5656 34.5344 76.8625 15.8562 72.2937 4.43437 53.3469 9.1375 34.5344 13.8406 15.7219 32.6531 4.43437 51.4656 9.1375 51.4656 9.1375 51.4656 9.1375 51.4656 9.1375 70.1438 13.8406 81.5656 32.7875 76.8625 51.4656Z" fill="#2B2B2B" transform="matrix(1 0 0 1.01163 447 466)"/><path d="M53.8844 26.7406 46.3594 37.8937C46.0906 38.2969 46.225 38.7 46.6281 38.9688 46.8969 39.1031 47.3 39.1031 47.5688 38.8344L54.9594 32.3844C55.0938 32.25 55.2281 32.25 55.3625 32.3844 55.3625 32.3844 55.4969 32.5187 55.4969 32.5187L55.4969 52.675C55.6313 52.8094 55.4969 52.9438 55.3625 53.0781 55.3625 53.0781 55.3625 53.0781 55.3625 53.0781 55.2281 53.2125 55.0938 53.0781 54.9594 53.0781 54.9594 53.0781 54.9594 53.0781 54.9594 53.0781L32.3844 26.2031C31.7125 25.2625 30.6375 24.8594 29.4281 24.8594L28.6219 24.8594C26.4719 24.8594 24.8594 26.6062 24.8594 28.7563L24.8594 57.1094C24.8594 59.2594 26.6062 61.0063 28.7563 61.0063 30.1 61.0063 31.3094 60.3344 32.1156 59.125L39.6406 47.9719C39.9094 47.5688 39.9094 47.1656 39.5062 46.7625 39.5062 46.7625 39.5062 46.7625 39.5062 46.7625 39.1031 46.4937 38.5656 46.4937 38.2969 46.8969L30.9062 53.3469C30.7719 53.4813 30.6375 53.4813 30.5031 53.3469 30.5031 53.3469 30.5031 53.3469 30.5031 53.3469 30.3687 53.2125 30.3687 53.2125 30.3687 53.0781L30.3687 33.0563C30.3687 32.9219 30.5031 32.7875 30.6375 32.7875 30.7719 32.7875 30.7719 32.7875 30.9062 32.9219L53.3469 59.7969C54.0187 60.6031 55.0938 61.1406 56.3031 61.1406L57.1094 61.1406C59.2594 61.1406 61.0063 59.3937 61.0063 57.2437L61.0063 28.7563C61.0063 26.6062 59.2594 24.8594 56.975 24.9937 55.7656 24.9937 54.5562 25.6656 53.8844 26.7406L53.8844 26.7406Z" fill="#08ED9A" transform="matrix(1 0 0 1.01163 447 466)"/></g></svg>