<svg width="297" height="297" xmlns="http://www.w3.org/2000/svg" xmlns:xlink="http://www.w3.org/1999/xlink" xml:space="preserve" overflow="hidden"><defs><clipPath id="clip0"><rect x="2930" y="1925" width="297" height="297"/></clipPath></defs><g clip-path="url(#clip0)" transform="translate(-2930 -1925)"><path d="M3078.5 1925C2996.15 1925 2930 1991.15 2930 2073.5 2930 2155.85 2996.15 2222 3078.5 2222 3160.85 2222 3227 2155.85 3227 2073.5 3227 1991.15 3160.85 1925 3078.5 1925Z" fill="#7030A0" fill-rule="evenodd"/><path d="M2983.92 2030.77C2963.83 2032.15 2946.42 2048.77 2945.08 2069.54 2943.74 2091.69 2959.81 2111.08 2981.24 2113.85 2982.58 2113.85 2982.58 2113.85 2982.58 2112.46 2982.58 2112.46 2982.58 2112.46 2982.58 2112.46 2981.24 2108.31 2979.9 2104.15 2978.56 2100 2978.56 2100 2978.56 2098.62 2977.22 2098.62 2965.17 2094.46 2957.13 2083.38 2957.13 2069.54 2957.13 2057.08 2966.51 2047.38 2977.22 2043.23 2985.26 2043.23 2991.95 2044.62 2997.31 2047.38 2997.31 2047.38 2998.65 2047.38 2998.65 2047.38L3001.33 2048.77 3013.38 2055.69 3013.38 2055.69 3020.08 2059.85C3020.08 2059.85 3020.08 2059.85 3020.08 2061.23L3020.08 2080.62C3020.08 2082 3020.08 2082 3021.42 2082 3021.42 2082 3021.42 2082 3021.42 2082L3032.13 2077.85C3032.13 2077.85 3033.47 2077.85 3033.47 2076.46L3033.47 2069.54C3033.47 2068.15 3033.47 2068.15 3034.81 2068.15 3034.81 2068.15 3034.81 2068.15 3034.81 2068.15L3104.46 2106.92 3117.85 2113.85C3117.85 2113.85 3117.85 2113.85 3117.85 2113.85L3131.24 2113.85C3132.58 2113.85 3132.58 2113.85 3132.58 2112.46L3132.58 2101.38C3132.58 2100 3132.58 2100 3133.92 2100 3133.92 2100 3133.92 2100 3133.92 2100L3147.31 2106.92 3148.65 2108.31C3149.99 2108.31 3149.99 2109.69 3151.33 2109.69 3155.35 2111.08 3159.37 2112.46 3164.72 2112.46 3164.72 2112.46 3166.06 2112.46 3166.06 2112.46 3167.4 2112.46 3168.74 2112.46 3170.08 2112.46 3190.17 2111.08 3207.58 2094.46 3208.92 2073.69 3210.26 2051.54 3194.19 2032.15 3172.76 2029.38 3171.42 2029.38 3171.42 2029.38 3171.42 2030.77 3171.42 2030.77 3171.42 2030.77 3171.42 2030.77 3172.76 2034.92 3174.1 2039.08 3175.44 2043.23 3175.44 2043.23 3175.44 2044.62 3176.78 2044.62 3188.83 2048.77 3196.87 2059.85 3196.87 2073.69 3196.87 2086.15 3187.49 2095.85 3176.78 2100 3170.08 2101.38 3164.72 2101.38 3158.03 2098.62 3158.03 2098.62 3156.69 2098.62 3156.69 2098.62L3154.01 2097.23 3141.96 2090.31 3141.96 2090.31 3135.26 2086.15C3135.26 2086.15 3135.26 2086.15 3135.26 2084.77L3135.26 2065.38C3135.26 2064 3135.26 2064 3133.92 2064 3133.92 2064 3133.92 2064 3133.92 2064L3123.21 2068.15C3123.21 2068.15 3121.87 2068.15 3121.87 2069.54L3121.87 2076.46C3121.87 2077.85 3121.87 2077.85 3120.53 2077.85 3120.53 2077.85 3120.53 2077.85 3120.53 2077.85L3046.87 2037.69 3034.81 2030.77C3034.81 2030.77 3034.81 2030.77 3034.81 2030.77L3022.76 2030.77C3021.42 2030.77 3021.42 2030.77 3021.42 2032.15L3021.42 2043.23C3021.42 2044.62 3021.42 2044.62 3020.08 2044.62 3020.08 2044.62 3020.08 2044.62 3020.08 2044.62L3006.69 2037.69 3004.01 2034.92C3002.67 2034.92 3002.67 2033.54 3001.33 2033.54 2997.31 2032.15 2993.29 2030.77 2989.28 2030.77 2989.28 2030.77 2987.94 2030.77 2987.94 2030.77 2986.6 2030.77 2985.26 2030.77 2983.92 2030.77L2983.92 2030.77ZM3158.03 2051.54C3158.03 2050.15 3156.69 2048.77 3156.69 2046 3155.35 2041.85 3154.01 2037.69 3151.33 2033.54 3149.99 2032.15 3149.99 2030.77 3148.65 2029.38 3125.88 1987.85 3074.99 1974 3034.81 1997.54 3022.76 2004.46 3012.04 2015.54 3005.35 2029.38 3005.35 2029.38 3004.01 2030.77 3004.01 2029.38 2999.99 2028 2995.97 2026.62 2993.29 2026.62 2993.29 2026.62 2991.95 2025.23 2991.95 2025.23 2991.95 2025.23 2991.95 2025.23 2991.95 2025.23 2995.97 2016.92 3001.33 2010 3008.03 2003.08 3025.44 1985.08 3049.54 1974 3076.33 1974 3103.12 1974 3127.22 1985.08 3144.64 2003.08 3151.33 2008.62 3158.03 2016.92 3162.05 2025.23 3163.39 2026.62 3163.39 2028 3164.72 2029.38 3166.06 2033.54 3168.74 2037.69 3170.08 2043.23 3170.08 2044.62 3171.42 2046 3171.42 2048.77 3174.1 2064 3175.44 2079.23 3171.42 2093.08 3171.42 2093.08 3171.42 2094.46 3170.08 2094.46 3166.06 2094.46 3162.05 2094.46 3159.37 2093.08 3159.37 2093.08 3158.03 2091.69 3158.03 2091.69 3160.71 2079.23 3160.71 2065.38 3158.03 2051.54L3158.03 2051.54ZM3170.08 2048.77 3168.74 2048.77C3168.74 2048.77 3170.08 2048.77 3170.08 2048.77ZM3004.01 2115.23C3026.78 2156.77 3077.67 2170.62 3117.85 2147.08 3129.9 2140.15 3140.62 2129.08 3148.65 2116.62 3148.65 2116.62 3149.99 2115.23 3149.99 2116.62 3152.67 2118 3156.69 2119.38 3160.71 2119.38 3160.71 2119.38 3162.05 2120.77 3162.05 2120.77 3162.05 2120.77 3162.05 2120.77 3162.05 2120.77 3158.03 2129.08 3152.67 2136 3145.97 2142.92 3128.56 2160.92 3104.46 2172 3077.67 2172 3050.88 2172 3026.78 2160.92 3009.36 2142.92 3002.67 2136 2997.31 2127.69 2991.95 2119.38 2990.61 2118 2990.61 2116.62 2989.28 2115.23 2987.94 2111.08 2985.26 2106.92 2983.92 2101.38 2983.92 2100 2982.58 2098.62 2982.58 2095.85 2979.9 2080.62 2978.56 2065.38 2982.58 2051.54 2982.58 2051.54 2982.58 2050.15 2983.92 2050.15 2987.94 2050.15 2991.95 2050.15 2994.63 2051.54 2994.63 2051.54 2995.97 2052.92 2995.97 2052.92 2993.29 2066.77 2993.29 2079.23 2995.97 2093.08 2995.97 2094.46 2997.31 2095.85 2997.31 2098.62 2998.65 2102.77 2999.99 2106.92 3002.67 2111.08 3002.67 2112.46 3004.01 2113.85 3004.01 2115.23L3004.01 2115.23ZM3056.24 2086.15C3056.24 2086.15 3057.58 2087.54 3056.24 2087.54 3056.24 2087.54 3056.24 2087.54 3056.24 2087.54L3034.81 2095.85C3034.81 2095.85 3033.47 2095.85 3033.47 2097.23L3033.47 2112.46C3033.47 2112.46 3033.47 2113.85 3032.13 2113.85 3032.13 2113.85 3032.13 2113.85 3032.13 2113.85L3022.76 2113.85C3021.42 2113.85 3021.42 2113.85 3021.42 2112.46L3021.42 2104.15C3021.42 2102.77 3021.42 2102.77 3020.08 2102.77 3020.08 2102.77 3020.08 2102.77 3020.08 2102.77L3008.03 2108.31C3008.03 2108.31 3006.69 2108.31 3006.69 2108.31 3005.35 2105.54 3004.01 2101.38 3002.67 2097.23 3002.67 2097.23 3002.67 2095.85 3004.01 2095.85L3037.49 2082 3044.19 2079.23C3044.19 2079.23 3045.53 2079.23 3045.53 2079.23L3056.24 2086.15 3056.24 2086.15ZM3116.51 2062.62 3109.81 2065.38C3109.81 2065.38 3108.47 2065.38 3108.47 2065.38L3096.42 2058.46C3096.42 2058.46 3095.08 2057.08 3096.42 2057.08 3096.42 2057.08 3096.42 2057.08 3096.42 2057.08L3117.85 2048.77C3117.85 2048.77 3119.19 2048.77 3119.19 2047.38L3119.19 2032.15C3119.19 2030.77 3119.19 2030.77 3120.53 2030.77L3131.24 2030.77C3132.58 2030.77 3132.58 2030.77 3132.58 2032.15L3132.58 2040.46C3132.58 2041.85 3132.58 2041.85 3133.92 2041.85 3133.92 2041.85 3133.92 2041.85 3133.92 2041.85L3145.97 2036.31C3145.97 2036.31 3147.31 2036.31 3147.31 2036.31 3148.65 2039.08 3149.99 2043.23 3151.33 2047.38 3151.33 2047.38 3151.33 2048.77 3149.99 2048.77L3116.51 2062.62 3116.51 2062.62ZM3034.81 2051.54 3034.81 2048.77C3034.81 2047.38 3034.81 2047.38 3036.15 2047.38 3036.15 2047.38 3036.15 2047.38 3036.15 2047.38L3117.85 2093.08C3117.85 2093.08 3117.85 2093.08 3117.85 2094.46L3117.85 2097.23C3117.85 2098.62 3117.85 2098.62 3116.51 2098.62 3116.51 2098.62 3116.51 2098.62 3116.51 2098.62L3034.81 2051.54C3034.81 2051.54 3034.81 2051.54 3034.81 2051.54L3034.81 2051.54Z" fill="#FFFFFF" fill-rule="evenodd"/></g></svg>