<svg width="96" height="96" xmlns="http://www.w3.org/2000/svg" xmlns:xlink="http://www.w3.org/1999/xlink" xml:space="preserve" overflow="hidden"><g transform="translate(-342 -461)"><path d="M390 465C365.6 465 346 484.6 346 509 346 533.4 365.6 553 390 553 414.4 553 434 533.4 434 509 434 484.6 414.4 465 390 465ZM361.2 494.2C364 489 368.8 486.2 372.4 487.8 376 489.8 376.8 495.4 374 501 371.2 506.2 366.4 509 362.8 507.4 359.2 505.4 358.4 499.8 361.2 494.2ZM374.4 531.8C371.2 533.8 365.6 531.4 362.4 526.6 359.2 521.4 359.2 515.8 362.8 513.8 366 511.8 371.6 514.2 374.8 519 378 523.8 378 529.4 374.4 531.8ZM390 541.4C384 541.4 379.2 538.2 379.2 534.2 379.2 530.2 384 527 390 527 396 527 400.8 530.2 400.8 534.2 400.8 538.2 396 541.4 390 541.4ZM390 491C384 491 379.2 487.8 379.2 483.8 379.2 479.8 384 476.6 390 476.6 396 476.6 400.8 479.8 400.8 483.8 400.8 487.8 396 491 390 491ZM406 487C409.6 485 414.8 487.4 418 492.6 421.2 497.8 420.8 503.4 417.2 505.4 413.6 507.4 408.4 505 405.6 499.8 402.4 494.6 402.8 489 406 487ZM418.4 524.6C415.6 529.8 410.4 532.6 406.8 530.6 403.2 528.6 402.8 523 405.6 517.8 408.4 512.6 413.6 509.8 417.2 511.8 420.8 513.8 421.2 519.4 418.4 524.6Z" fill="#E6007A"/></g></svg>