<svg width="96" height="96" xmlns="http://www.w3.org/2000/svg" xmlns:xlink="http://www.w3.org/1999/xlink" xml:space="preserve" overflow="hidden"><g transform="translate(-549 -553)"><path d="M592.2 625 595 601.8 577.8 587.4Z" fill="#FF0013"/><path d="M608.6 586.6 579.4 583.8 597 598.2Z" fill="#FF0013"/><path d="M595.8 627 619.8 599.8 599 603Z" fill="#FF0013"/><path d="M597 557C572.6 557 553 576.6 553 601 553 625.4 572.6 645 597 645 621.4 645 641 625.4 641 601 641 576.6 621.4 557 597 557ZM592.2 637 569.8 578.6 613.8 583 627.8 597Z" fill="#FF0013"/><path d="M602.6 598.2 620.6 595.8 613 587.8Z" fill="#FF0013"/></g></svg>