<svg xmlns="http://www.w3.org/2000/svg" xmlns:xlink="http://www.w3.org/1999/xlink" viewBox="0 0 92.48198 90.52225">
  <defs>
    <linearGradient id="linear-gradient" x1="222.58009" y1="143.9406" x2="293.00061" y2="82.83731" gradientUnits="userSpaceOnUse">
      <stop offset="0" stop-color="#d13f05"/>
      <stop offset="0.29255" stop-color="#f67205"/>
      <stop offset="0.36672" stop-color="#f67705"/>
      <stop offset="0.45264" stop-color="#f68505"/>
      <stop offset="0.5441" stop-color="#f69c05"/>
      <stop offset="0.56383" stop-color="#f6a205"/>
      <stop offset="0.59772" stop-color="#f69005"/>
      <stop offset="0.64323" stop-color="#f67f05"/>
      <stop offset="0.69315" stop-color="#f67505"/>
      <stop offset="0.75532" stop-color="#f67205"/>
      <stop offset="1" stop-color="#d13f05"/>
    </linearGradient>
    <linearGradient id="linear-gradient-2" x1="224.79371" y1="146.4854" x2="295.21054" y2="85.38531" xlink:href="#linear-gradient"/>
    <linearGradient id="linear-gradient-3" x1="234.67879" y1="157.87808" x2="305.09667" y2="96.77708" xlink:href="#linear-gradient"/>
    <linearGradient id="linear-gradient-4" x1="208.62366" y1="129.69519" x2="286.40825" y2="66.42747" gradientUnits="userSpaceOnUse">
      <stop offset="0" stop-color="#fff" stop-opacity="0"/>
      <stop offset="0.26064" stop-color="#fff"/>
      <stop offset="0.75532" stop-color="#fff"/>
      <stop offset="1" stop-color="#fff" stop-opacity="0"/>
    </linearGradient>
    <linearGradient id="linear-gradient-5" x1="276.95861" y1="110.50171" x2="198.06618" y2="77.17624" gradientUnits="userSpaceOnUse">
      <stop offset="0" stop-color="#ffaf02"/>
      <stop offset="1" stop-color="#f56d05"/>
    </linearGradient>
    <linearGradient id="linear-gradient-6" x1="217.9833" y1="70.7803" x2="263.77232" y2="114.54734" xlink:href="#linear-gradient-4"/>
    <linearGradient id="linear-gradient-7" x1="215.47689" y1="97.78905" x2="278.26351" y2="97.78905" gradientUnits="userSpaceOnUse">
      <stop offset="0" stop-color="#cf4505"/>
      <stop offset="1" stop-color="#e45905"/>
    </linearGradient>
    <radialGradient id="radial-gradient" cx="-4802.11377" cy="864.4385" r="23.47635" gradientTransform="matrix(0.0729, 0.0741, -0.4921, 0.4845, 1049.9394, 61.6656)" gradientUnits="userSpaceOnUse">
      <stop offset="0" stop-color="#fff"/>
      <stop offset="0.08578" stop-color="#fff" stop-opacity="0.95826"/>
      <stop offset="0.2351" stop-color="#fff" stop-opacity="0.84623"/>
      <stop offset="0.43012" stop-color="#fff" stop-opacity="0.66416"/>
      <stop offset="0.66336" stop-color="#fff" stop-opacity="0.41187"/>
      <stop offset="0.92612" stop-color="#fff" stop-opacity="0.09449"/>
      <stop offset="1" stop-color="#fff" stop-opacity="0"/>
    </radialGradient>
    <linearGradient id="linear-gradient-8" x1="236.54765" y1="85.68642" x2="264.85435" y2="118.89662" gradientUnits="userSpaceOnUse">
      <stop offset="0" stop-color="#fff"/>
      <stop offset="1" stop-color="#fff" stop-opacity="0"/>
    </linearGradient>
    <linearGradient id="linear-gradient-9" x1="220.04219" y1="70.4144" x2="235.18278" y2="85.77281" xlink:href="#linear-gradient-8"/>
    <clipPath id="clip-path" transform="translate(-203.75534 -56.83317)">
      <rect x="229.08392" y="75.29108" width="43.66808" height="45" fill="none"/>
    </clipPath>
    <linearGradient id="linear-gradient-10" x1="2195.91798" y1="-593.90546" x2="2195.91798" y2="-548.90534" gradientTransform="matrix(1, 0, 0, -1, -1945, -473.61426)" gradientUnits="userSpaceOnUse">
      <stop offset="0" stop-color="#ffc000"/>
      <stop offset="0.28" stop-color="#ffc000"/>
      <stop offset="0.55" stop-color="#daa600"/>
      <stop offset="1" stop-color="#daa600"/>
    </linearGradient>
  </defs>
  <g style="isolation: isolate">
    <g id="OBJECTS">
      <g>
        <polygon points="8.054 65.526 14.309 74.132 10.972 73.69 4.717 65.084 8.054 65.526" fill="#d84905"/>
        <path d="M283.57419,71.0625q3.1275,4.30365,6.2549,8.6064a34.25378,34.25378,0,0,1,6.4082,20.314l-6.2549-8.6064A34.2631,34.2631,0,0,0,283.57419,71.0625Z" transform="translate(-203.75534 -56.83317)" fill="url(#linear-gradient)"/>
        <polygon points="86.227 34.543 92.482 43.15 89.306 45.483 83.05 36.876 86.227 34.543" fill="#f67205"/>
        <polygon points="54.538 76.58 60.792 85.186 59.435 87.359 53.18 78.753 54.538 76.58" fill="#d84905"/>
        <path d="M256.93549,135.5859l6.2549,8.606a45.22277,45.22277,0,0,1-28.0888,1.6475,34.4467,34.4467,0,0,1-16.961-10.5704l-6.2549-8.6064a34.44582,34.44582,0,0,0,16.962,10.5703A45.22239,45.22239,0,0,0,256.93549,135.5859Z" transform="translate(-203.75534 -56.83317)" fill="url(#linear-gradient-2)"/>
        <polygon points="56.824 77.223 63.079 85.829 60.792 85.186 54.538 76.58 56.824 77.223" fill="#f69d05"/>
        <path d="M289.85449,94.5674l6.2549,8.6059a42.95335,42.95335,0,0,1-3.8213,14.2427A52.20847,52.20847,0,0,1,266.834,142.6626l-6.25491-8.606a52.207,52.207,0,0,0,25.4541-25.2461A43.00743,43.00743,0,0,0,289.85449,94.5674Z" transform="translate(-203.75534 -56.83317)" fill="url(#linear-gradient-3)"/>
        <path d="M290.23339,95.0547a43.0306,43.0306,0,0,1-3.8203,14.2432,52.21138,52.21138,0,0,1-25.45409,25.246l-2.28711-.6435-1.3574,2.1728a45.22246,45.22246,0,0,1-28.0879,1.6475,34.45665,34.45665,0,0,1-16.962-10.5703l-.0761-4.3037-3.3369-.4419c-5.7745-9.7778-6.501-22.5928-.7647-35.1489a49.65139,49.65139,0,0,1,6.419-10.3765,40.86013,40.86013,0,0,0,3.9277-2.0303l.5732-2.8823c10.5948-10.1948,25.2813-15.8125,39.2256-14.4424l3.0098,2.4375,8.4687.4253c13.0948,5.5059,20.66611,17.6538,20.6514,31.4771l-3.1777,2.333Z" transform="translate(-203.75534 -56.83317)" opacity="0.7" fill="url(#linear-gradient-4)" style="mix-blend-mode: overlay"/>
        <path d="M289.85449,94.5674a43.00743,43.00743,0,0,1-3.8213,14.2431,52.207,52.207,0,0,1-25.4541,25.2461l-2.28609-.6435-1.35751,2.1728a45.22239,45.22239,0,0,1-28.0878,1.647,34.44582,34.44582,0,0,1-16.962-10.5703l-.0761-4.3037-3.3369-.4419c-5.7745-9.7774-6.502-22.5928-.76469-35.1484a49.638,49.638,0,0,1,6.419-10.3765,41.12514,41.12514,0,0,0,3.92769-2.0303l.5732-2.8823c10.5948-10.1948,25.2803-15.813,39.2256-14.4424l3.0098,2.4375,8.46871.4253c13.09479,5.5054,20.66509,17.6538,20.65039,31.4766l-3.1767,2.333Z" transform="translate(-203.75534 -56.83317)" fill="url(#linear-gradient-5)"/>
        <path d="M259.18069,68.8984c15.7422,4.4302,22.6347,20.8848,15.3896,36.7412-7.2441,15.8555-25.8906,25.1236-41.6338,20.6929-15.7431-4.4302-22.6367-20.8847-15.3916-36.7407S243.43649,64.4683,259.18069,68.8984Z" transform="translate(-203.75534 -56.83317)" opacity="0.7" fill="url(#linear-gradient-6)" style="mix-blend-mode: overlay"/>
        <path d="M259.99319,69.0718c15.7422,4.4302,22.6347,20.8847,15.3896,36.7412-7.2441,15.8559-25.8906,25.1235-41.63379,20.6933-15.74311-4.4306-22.63671-20.8852-15.39161-36.7407C225.60249,73.9092,244.249,64.6416,259.99319,69.0718Z" transform="translate(-203.75534 -56.83317)" fill="url(#linear-gradient-7)"/>
        <path d="M236.24609,126.9956c-15.7432-4.4302-22.6357-20.8848-15.3906-36.7407,6.709-14.6841,23.1953-23.7085,38.10151-21.4453-15.51851-3.752-33.51271,5.4458-40.59961,20.956-7.2451,15.8555-.3515,32.3101,15.39161,36.7407a29.2407,29.2407,0,0,0,3.53419.752C236.93749,127.1743,236.58979,127.0928,236.24609,126.9956Z" transform="translate(-203.75534 -56.83317)" fill="#ba3e05"/>
        <path d="M276.18749,126.3887c-6.3799,6.2798-12.3184,10.5927-13.2637,9.6323-.9453-.9605,3.459-6.8301,9.8389-13.1108,6.3799-6.2798,12.31931-10.5928,13.2637-9.6324C286.97269,114.2383,282.56739,120.1079,276.18749,126.3887Z" transform="translate(-203.75534 -56.83317)" opacity="0.5" fill="url(#radial-gradient)" style="mix-blend-mode: overlay"/>
        <path d="M280.791,67.7617,211.85349,124.835l.0322,1.8276a34.44582,34.44582,0,0,0,16.962,10.5703,39.98591,39.98591,0,0,0,4.7939,1.0278L287.29,93.8457l-.48431-.1362,3.1767-2.333A33.81788,33.81788,0,0,0,280.791,67.7617Z" transform="translate(-203.75534 -56.83317)" opacity="0.4" fill="url(#linear-gradient-8)" style="mix-blend-mode: overlay"/>
        <path d="M260.86329,59.4746l-3.0098-2.4375a44.83719,44.83719,0,0,0-12.35249.5547L206.40819,89.9565a40.12536,40.12536,0,0,0-2.45019,18.0464l58.51859-48.4477Z" transform="translate(-203.75534 -56.83317)" opacity="0.4" fill="url(#linear-gradient-9)" style="mix-blend-mode: overlay"/>
        <g clip-path="url(#clip-path)">
          <path d="M236.75675,93.60567c-.1944-.20613-.38531-.38563-.54736-.58859a19.98992,19.98992,0,0,1-3.9149-7.73879,18.33871,18.33871,0,0,1-.43541-6.15571,7.25114,7.25114,0,0,1,.88256-3.13395,1.19737,1.19737,0,0,1,1.61479-.58849,7.22065,7.22065,0,0,1,3.32664,2.67466,20.71156,20.71156,0,0,1,3.97706,9.10148c.19123,1.0297.2001,2.09207.294,3.13954.03551.40021.053.80327.10591,1.20063.04123.3149.1795.503.56766.44144a10.292,10.292,0,0,1,4.32114.294,24.92027,24.92027,0,0,1,3.58573,1.20063,11.49979,11.49979,0,0,1,4.3944,3.03394.41175.41175,0,0,0,.5705.11734.40292.40292,0,0,0,.09134-.08214,10.46354,10.46354,0,0,0,.85021-.85624,21.11248,21.11248,0,0,1,10.26279-6.40306,9.70225,9.70225,0,0,1,3.92378-.39134,6.13112,6.13112,0,0,1,1.6944.50043.99015.99015,0,0,1,.42051.70306,2.87835,2.87835,0,0,1-.1351,1.13309,11.36513,11.36513,0,0,1-2.56522,4.11945,19.06943,19.06943,0,0,1-10.73023,6.04979c-.2943.06469-.61205.07928-.97072.12653.05867.25877.08816.47664.15571.6796a13.61524,13.61524,0,0,1,.52071,4.41406,16.84406,16.84406,0,0,1-.88223,5.15232,16.48953,16.48953,0,0,1-2.85032,5.29662,8.40287,8.40287,0,0,1-4.77114,2.8481,11.169,11.169,0,0,1-4.06522.34154,29.38486,29.38486,0,0,1-3.97992-.73573,32.72811,32.72811,0,0,1-4.00021-1.37124,18.551,18.551,0,0,1-5.883-3.46332,10.07808,10.07808,0,0,1-3.43256-5.88806,14.42575,14.42575,0,0,1,.053-3.281,14.77181,14.77181,0,0,1,1.14419-4.14609,16.41356,16.41356,0,0,1,3.718-5.55539c.74715-.718,1.62369-1.33573,2.43838-1.99789Zm1.37061,16.075-.02949.11765c-1.47082-.1148-1.78541.93267-1.53837,1.989a3.91145,3.91145,0,0,0,.14429.515,4.69537,4.69537,0,0,0,2.22939,2.88076,15.78159,15.78159,0,0,0,3.36532,1.26818,4.66471,4.66471,0,0,0,4.67093-1.12991,1.26586,1.26586,0,0,0,.09419-2.09493,10.2,10.2,0,0,0-2.19133-1.33319c-1.2796-.55592-2.60042-1.018-3.9241-1.47114-.91173-.3-1.8796-.50328-2.82083-.75032Zm-1.2-11.34355c0-1.00941-.38848-1.49493-1.0795-1.66269a1.51049,1.51049,0,0,0-1.58562.6593,18.9978,18.9978,0,0,0-3.3444,6.294,2.73012,2.73012,0,0,0-.059,1.13594,1.269,1.269,0,0,0,2.28552.5797,23.37559,23.37559,0,0,0,1.51491-2.30422c.58827-1.02685,1.13562-2.08034,1.656-3.14556A16.30245,16.30245,0,0,0,236.92737,98.33717Zm20.955,8.18308a10.89842,10.89842,0,0,0-.16776-1.25327,1.37923,1.37923,0,0,0-1.696-.9647,1.3599,1.3599,0,0,0-.13954.04662,1.61457,1.61457,0,0,0-.97071,1.30053c-.46459,1.91543-.91777,3.82516-1.30878,5.76723a4.77359,4.77359,0,0,0-.01776,1.80381,1.2048,1.2048,0,0,0,1.85328.762,2.10173,2.10173,0,0,0,.94408-1.25043c.36184-1.083.7148-2.17167.98245-3.281C257.603,108.44171,257.7263,107.406,257.88233,106.52025Z" transform="translate(-203.75534 -56.83317)" fill-rule="evenodd" fill="url(#linear-gradient-10)"/>
        </g>
      </g>
    </g>
  </g>
</svg>
