<?xml version="1.0" encoding="utf-8"?>
<!-- Generator: Adobe Illustrator 25.2.1, SVG Export Plug-In . SVG Version: 6.00 Build 0)  -->
<svg version="1.1" id="Layer_1" xmlns="http://www.w3.org/2000/svg" xmlns:xlink="http://www.w3.org/1999/xlink" x="0px" y="0px"
	 viewBox="0 0 512 512" style="enable-background:new 0 0 512 512;" xml:space="preserve">
<style type="text/css">
	.st0{fill:#9EA9C9;}
	.st1{fill:#B28AFD;}
	.st2{fill:#7E5AF2;}
	.st3{fill:#986FF9;}
	.st4{fill:#DEDFFB;}
	.st5{fill:#F3F1FC;}
	.st6{fill:#FFFFFF;}
	.st7{fill:#78E75A;}
	.st8{fill:#F45170;}
	.st9{fill:#FFD06C;}
	.st10{fill:#1D2943;}
	.st11{fill:#FE90A9;}
	.st12{fill:#B0B8CF;}
	.st13{fill:#C9CEE2;}
	.st14{fill:#E3E7F0;}
	.st15{fill:#423D9B;}
	.st16{fill:#678AEE;}
	.st17{fill:#72D561;}
	.st18{opacity:0.6;}
	.st19{fill:#D84905;}
	.st20{fill:url(#SVGID_1_);}
	.st21{fill:#F67205;}
	.st22{fill:url(#SVGID_2_);}
	.st23{fill:#F69D05;}
	.st24{fill:url(#SVGID_3_);}
	.st25{opacity:0.7;fill:url(#SVGID_4_);enable-background:new    ;}
	.st26{fill:url(#SVGID_5_);}
	.st27{opacity:0.7;fill:url(#SVGID_6_);enable-background:new    ;}
	.st28{fill:url(#SVGID_7_);}
	.st29{fill:#BA3E05;}
	.st30{opacity:0.5;fill:url(#SVGID_8_);enable-background:new    ;}
	.st31{opacity:0.4;fill:url(#SVGID_9_);enable-background:new    ;}
	.st32{opacity:0.4;fill:url(#SVGID_10_);enable-background:new    ;}
	.st33{clip-path:url(#SVGID_12_);}
	.st34{fill-rule:evenodd;clip-rule:evenodd;fill:url(#SVGID_13_);}
</style>
<g>
	<g>
		<path class="st0" d="M368,408.9c-0.3,0-0.7-0.1-1-0.3l-80-46.5c-0.9-0.5-1.3-1.8-0.7-2.7c0.5-0.9,1.8-1.3,2.7-0.7l80,46.5
			c0.9,0.5,1.3,1.8,0.7,2.7C369.3,408.5,368.6,408.9,368,408.9z"/>
	</g>
</g>
<g>
	<g>
		<g>
			<g>
				<path class="st0" d="M233.1,385.8l-80.5-46.8c-4.7-2.7-4.7-7.8,0-10.5l81-46.8c4-2.3,10.3-2.3,14.3,0l80.5,46.8
					c4.7,2.7,4.7,7.8,0,10.5l-81,46.8C243.4,388.2,237.1,388.2,233.1,385.8z M154.6,331.9c-2.1,1.2-2.1,2.5,0,3.7l80.5,46.8
					c2.8,1.6,7.5,1.6,10.3,0l81-46.8c2-1.2,2.2-2.5,0-3.7L246,285.2c-2.8-1.6-7.5-1.6-10.3,0L154.6,331.9z"/>
			</g>
		</g>
	</g>
	<g>
		<path class="st1" d="M328.1,318.3c-0.1-19.2,0.2,61.9-0.5-173.5l0-11.8c0,0,0,0,0,0c0-0.8-0.4-1.5-1-2.2c-0.4-0.5-0.8-0.9-1.5-1.3
			L246.8,84c-3.3-1.9-8.7-1.9-12,0L156,129.6c-1.4,0.8-2.5,2-2.5,3.6v0c0,0,0-0.1,0-0.1c0.1,33.2-0.2-90.8,0.5,185.3
			c0,1.2,0.8,2.5,2.5,3.5l78.4,45.5c3.3,2,8.9,1.6,11.8,0.1c0.1,0,0.2,0,0.2-0.1l78.8-45.5C326.6,321.2,328.1,319.5,328.1,318.3z"/>
	</g>
	<g>
		<g>
			<g>
				<g>
					<g>
						<g>
							<g>
								<g>
									<path class="st2" d="M328.1,318.3c0,1.2-0.8,2.5-2.5,3.5l-78.8,45.5c-3.8,2.1-9.1,1.7-12,0l-78.4-45.5
										c-1.6-1-2.5-2.2-2.5-3.5l-0.1-16.9l-0.3-0.2v-8.7l0.3,0.2c-0.1-23.3-0.3-138.5-0.3-131.3l-0.1-28.3c0-1.3,0.8-2.6,2.5-3.5
										L234.8,84c3.3-1.9,8.7-1.9,12,0l78.3,45.5c1.6,0.9,2.5,2.2,2.5,3.5l0.2,28.8v13l0.3,108v4.4L328.1,318.3z"/>
								</g>
							</g>
						</g>
					</g>
					<g>
						<g>
							<g>
								<g>
									<g>
										<g>
											<g>
												<g>
													<g>
														<path class="st3" d="M153.5,133.1l0.1,37c0-3.7,0.2,52.6,0.4,148.3c0,1.2,0.8,2.5,2.5,3.4l78.3,45.5
															c3.3,1.9,8.7,1.9,12,0l78.8-45.5c1.7-1,2.5-2.2,2.5-3.5l-0.1-31v-4.4l-0.3-108v-4.4l-0.1-37.5c0,1.3-0.8,2.5-2.5,3.5
															L246.3,182c-3.3,1.9-8.7,1.9-12,0L156,136.5C154.3,135.5,153.5,134.3,153.5,133.1z"/>
													</g>
												</g>
											</g>
											<g>
												<g>
													<g>
														<path class="st2" d="M240.4,183.4c-2.2,0-4.5-0.4-6.2-1.4L156,136.5c-1.6-1-2.5-2.2-2.5-3.4l0.1,37
															c0.2,69.9-0.3-110.6,0.4,148.3c0,1.2,0.8,2.5,2.5,3.4l78.3,45.5c1.6,0.9,3.6,1.3,5.6,1.4V183.4z"/>
													</g>
												</g>
											</g>
											<g>
												<g>
													<g>
														<g>
															<g>
																<g>
																	<path class="st4" d="M153.6,161.4l0,8.7l79.8,46.4c2.1,1.2,4.7,1.8,7.4,1.8c2.7,0,5.3-0.6,7.4-1.8l79.6-45.9v-8.6
																		l-81.4,47c-3,1.7-8,1.7-11,0L153.6,161.4z"/>
																</g>
															</g>
														</g>
													</g>
												</g>
												<g>
													<g>
														<g>
															<g>
																<g>
																	<path class="st5" d="M246.3,208.9c-1.6,0.9-3.8,1.3-6,1.2v8.1c0.2,0,0.3,0.1,0.5,0.1c2.7,0,5.3-0.6,7.4-1.8
																		l79.6-45.9v-8.6L246.3,208.9z"/>
																</g>
															</g>
														</g>
													</g>
												</g>
											</g>
											<g>
												<g>
													<g>
														<path class="st1" d="M156,129.6c-3.3,1.9-3.3,5,0,6.9l78.3,45.5c3.3,1.9,8.7,1.9,12,0l78.8-45.5c3.3-1.9,3.3-5,0-6.9
															l-78.3-45.5c-3.3-1.9-8.7-1.9-12,0L156,129.6z"/>
													</g>
												</g>
											</g>
											<g>
												<g>
													<g>
														<g>
															<g>
																<g>
																	<path class="st6" d="M258.4,226.7c-1.9,1.1-3.4,3.7-3.4,5.8c0,2.1,1.5,3,3.4,1.9l57.6-33.2
																		c1.9-1.1,3.4-3.7,3.4-5.8c0-2.2-1.5-3-3.4-1.9L258.4,226.7z"/>
																</g>
															</g>
														</g>
													</g>
													<g>
														<g>
															<g>
																<g>
																	<path class="st6" d="M258.5,245.4c-1.9,1.1-3.4,3.7-3.4,5.8c0,2.2,1.5,3,3.4,1.9l57.6-33.2
																		c1.9-1.1,3.4-3.7,3.4-5.8c0-2.1-1.5-3-3.4-1.9L258.5,245.4z"/>
																</g>
															</g>
														</g>
													</g>
													<g>
														<g>
															<g>
																<g>
																	<path class="st6" d="M258.6,264.1c-1.9,1.1-3.4,3.7-3.4,5.8c0,2.1,1.5,3,3.4,1.9l57.6-33.2
																		c1.9-1.1,3.4-3.7,3.4-5.8c0-2.2-1.6-3-3.4-1.9L258.6,264.1z"/>
																</g>
															</g>
														</g>
													</g>
												</g>
												<g>
													<g>
														<g>
															<g>
																<g>
																	<path class="st7" d="M258.4,226.7l26.5-15.3v7.8l-26.5,15.3c-1.9,1.1-3.4,0.2-3.4-1.9
																		C255.1,230.4,256.6,227.8,258.4,226.7z"/>
																</g>
															</g>
														</g>
													</g>
													<g>
														<g>
															<g>
																<g>
																	<path class="st8" d="M258.5,245.4l26.4-15.2v7.8l-26.4,15.2c-1.9,1.1-3.4,0.2-3.4-1.9
																		C255.1,249.1,256.7,246.5,258.5,245.4z"/>
																</g>
															</g>
														</g>
													</g>
													<g>
														<g>
															<g>
																<g>
																	<path class="st9" d="M258.6,264.1l26.3-15.2v7.8l-26.3,15.2c-1.9,1.1-3.4,0.2-3.4-1.9
																		C255.2,267.8,256.7,265.2,258.6,264.1z"/>
																</g>
															</g>
														</g>
													</g>
												</g>
											</g>
										</g>
									</g>
								</g>
							</g>
						</g>
						<g>
							<g>
								<g>
									<g>
										<g>
											<path class="st4" d="M153.6,292.6l0,8.7l79.8,46.4c2.1,1.2,4.7,1.8,7.4,1.8c2.7,0,5.3-0.6,7.4-1.8l79.6-45.9V293
												l-81.4,47c-3,1.7-8,1.7-11,0L153.6,292.6z"/>
										</g>
									</g>
								</g>
							</g>
						</g>
						<g>
							<g>
								<g>
									<g>
										<g>
											<path class="st5" d="M246.3,340c-1.6,0.9-3.8,1.3-5.9,1.2v8.1c0.1,0,0.3,0,0.4,0c2.7,0,5.3-0.6,7.4-1.8l79.6-45.9V293
												L246.3,340z"/>
										</g>
									</g>
								</g>
							</g>
						</g>
						<g>
							<g>
								<g>
									<path class="st10" d="M299.7,281.8c0.1,7.8-5.4,17.3-12.3,21.2c-6.9,4-12.3,0.8-12.3-7c-0.1-7.8,5.4-17.3,12.3-21.3
										C294.2,270.7,299.7,273.9,299.7,281.8z"/>
								</g>
							</g>
							<g>
								<g>
									<path class="st11" d="M287.4,279.9c0.5-0.3,0.9-0.1,0.9,0.5l0,10c0,0.6-0.4,1.2-0.9,1.5c-0.5,0.3-0.9,0.1-0.9-0.5l0-10
										C286.5,280.9,286.9,280.2,287.4,279.9z"/>
								</g>
							</g>
							<g>
								<g>
									<path class="st11" d="M283.1,286.6c0.2-0.1,0.4-0.2,0.6-0.1c0.4,0.2,0.4,0.8,0,1.4c-1.4,2.4-1.8,5-1,6.7
										c0.7,1.7,2.4,2.2,4.4,1.2c0.1,0,0.2-0.1,0.2-0.1c1.9-1.1,3.6-3.3,4.5-5.8c0.9-2.6,0.7-4.9-0.5-6c-0.3-0.3-0.3-0.9,0.1-1.5
										c0.2-0.2,0.4-0.4,0.5-0.5c0.3-0.2,0.5-0.2,0.7,0c1.7,1.4,2,4.5,0.7,8.1c-1.2,3.4-3.5,6.3-6,7.8L287,298
										c-2.7,1.4-4.9,0.8-6-1.6c-1-2.3-0.5-5.8,1.4-9.1C282.6,287,282.9,286.7,283.1,286.6z"/>
								</g>
							</g>
						</g>
					</g>
				</g>
			</g>
		</g>
		<g>
			<g>
				<g>
					<g>
						<path class="st1" d="M171.1,193.6c2.3,1.3,4.2,4.6,4.2,7.2l-0.3,85.4c0,2.6-1.9,3.7-4.2,2.4c-2.3-1.3-4.2-4.6-4.2-7.2
							l0.3-85.4C166.9,193.4,168.8,192.3,171.1,193.6z"/>
					</g>
				</g>
			</g>
			<g>
				<g>
					<g>
						<path class="st1" d="M187.4,203.1c2.3,1.3,4.2,4.6,4.2,7.2l-0.3,85.4c0,2.6-1.9,3.7-4.2,2.4c-2.3-1.3-4.2-4.6-4.2-7.2
							l0.3-85.4C183.2,202.8,185.1,201.7,187.4,203.1z"/>
					</g>
				</g>
			</g>
			<g>
				<g>
					<g>
						<path class="st1" d="M203,212c2.3,1.3,4.2,4.6,4.2,7.2l-0.3,85.4c0,2.6-1.8,3.7-4.2,2.4c-2.3-1.3-4.2-4.6-4.2-7.2l0.3-85.4
							C198.8,211.8,200.7,210.7,203,212z"/>
					</g>
				</g>
			</g>
			<g>
				<g>
					<g>
						<path class="st1" d="M219.3,221.4c2.3,1.3,4.2,4.6,4.2,7.2l-0.3,85.4c0,2.6-1.8,3.7-4.2,2.4c-2.3-1.3-4.2-4.6-4.2-7.2
							l0.3-85.4C215.1,221.2,217,220.1,219.3,221.4z"/>
					</g>
				</g>
			</g>
		</g>
	</g>
</g>
<g>
	<g>
		<g>
			<g>
				<g>
					<g>
						<path class="st0" d="M79.8,487.8l-56.9-33.4c-3-1.8-3-5-0.1-6.7l56.6-33.4c2.4-1.4,6.2-1.4,8.6,0c43.1,27.6,67.3,34.1,57,40.1
							l-56.6,33.4C85.9,489.3,82.2,489.2,79.8,487.8z M80.9,416.8l-56.6,33.4c-0.9,0.5-1,1,0.1,1.6l56.9,33.4c1.5,0.9,4.1,0.9,5.6,0
							c59.1-35.4,59.2-33.5,56.5-35.1l-56.9-33.4C85,415.9,82.4,415.9,80.9,416.8z"/>
					</g>
				</g>
			</g>
		</g>
	</g>
	<g>
		<path class="st12" d="M145.2,407.7l-2.7,1.7l2.8,1.6c1.3,0.8,1.7,1.9,1.3,2.9c0.2-0.2,0.3-0.5,0.3-0.7l-0.1,26.3
			c0,0.8-0.6,1.5-1.6,2.1l-57.6,34.1c0,0-0.1,0-0.2,0l-0.1,0.1c-2.1,1.1-5,1-7-0.1l-57.9-34.1c-1-0.6-1.6-1.4-1.6-2.2l0.1-26.2V413
			c0-0.8,0.5-1.5,1.5-2.1l2.8-1.6l-2.8-1.7c-1-0.5-1.6-1.4-1.6-2.2l0.1-26.2v-0.1c0-0.7,0.5-1.5,1.5-2.1l2.8-1.6l-2.8-1.6
			c-1-0.6-1.6-1.4-1.6-2.3l0.1-26.2c0-0.8,0.5-1.6,1.5-2.2l57.6-34c2.1-1.2,5.3-1.2,7.3,0l58,34c1.8,1.3,1.6,3.8,1.6,2.2l-0.1,26.3
			c0,0.9-0.6,1.6-1.6,2.2l-2.7,1.6l2.8,1.6c1.8,1.3,1.6,3.5,1.6,2.2l-0.1,26.3C146.8,406.4,146.2,407.2,145.2,407.7z"/>
	</g>
	<g>
		<g>
			<g>
				<g>
					<g>
						<g>
							<g>
								<g>
									<g>
										<path class="st13" d="M138.9,445.2l-51.5,30.4c-1.8,1.1-4.6,1.1-6.5,0L29,445.2c-1.8-1.1-1.9-2.8-0.1-3.8L80.5,411
											c1.8-1.1,4.7-1,6.5,0C132,438.8,144.9,441.6,138.9,445.2z"/>
									</g>
								</g>
							</g>
						</g>
					</g>
				</g>
				<g>
					<g>
						<g>
							<g>
								<g>
									<path class="st12" d="M146.9,413.1l-0.1,26.3c0,0.8-0.5,1.6-1.5,2.1l-57.6,34c-2,1.2-5.2,1.2-7.3,0l-58-34
										c-1-0.5-1.5-1.4-1.5-2.2L21,413c0,0.8,0.5,1.6,1.5,2.2l58,34c2.1,1.2,5.3,1.2,7.3,0l57.6-34
										C146.3,414.6,146.9,413.9,146.9,413.1z"/>
								</g>
							</g>
						</g>
					</g>
				</g>
				<g>
					<g>
						<g>
							<g>
								<g>
									<path class="st14" d="M145.3,410.9c2.1,1.2,2.1,3.1,0.1,4.3l-57.6,34c-2,1.2-5.2,1.2-7.3,0l-58-34c-2-1.2-2.1-3.1-0.1-4.3
										l57.6-34c2-1.2,5.3-1.1,7.3,0L145.3,410.9z"/>
								</g>
							</g>
						</g>
					</g>
				</g>
				<g>
					<g>
						<g>
							<g>
								<g>
									<g>
										<path class="st15" d="M142,406.5l-0.1,8.4c0,0.8-0.5,1.4-1.4,1.9l-53.1,31.4c-1.8,1.1-4.8,1.1-6.7,0l-53.4-31.4
											c-0.9-0.5-1.4-1.3-1.4-2l0.1-8.4c0,0.8,0.5,1.5,1.4,2l53.4,31.4c1.9,1.1,4.9,1.1,6.7,0l53.1-31.4
											C141.5,407.9,142,407.2,142,406.5z"/>
									</g>
								</g>
							</g>
						</g>
					</g>
					<g>
						<g>
							<g>
								<g>
									<g>
										<path class="st13" d="M138.8,407.6c1.8,1.1,1.9,2.8,0.1,3.8l-51.5,30.4c-1.8,1.1-4.6,1.1-6.5,0L29,411.5
											c-1.8-1.1-1.9-2.8-0.1-3.8l51.5-30.4c1.8-1.1,4.7-1,6.5,0L138.8,407.6z"/>
									</g>
								</g>
							</g>
						</g>
					</g>
				</g>
				<g>
					<g>
						<g>
							<g>
								<g>
									<g>
										<path class="st6" d="M48.5,444.9c0,2-1.3,2.8-3.1,1.8c-1.7-1-3.1-3.5-3.1-5.5c0-2,1.3-2.8,3.1-1.7
											C47.1,440.6,48.5,442.9,48.5,444.9z"/>
									</g>
								</g>
							</g>
						</g>
						<g>
							<g>
								<g>
									<g>
										<path class="st6" d="M40,440c0,2-1.3,2.8-3.1,1.8c-1.8-1-3.1-3.5-3.1-5.5c0-2,1.4-2.8,3.1-1.8C38.7,435.5,40,438,40,440z"
											/>
									</g>
								</g>
							</g>
						</g>
						<g>
							<g>
								<g>
									<g>
										<path class="st6" d="M31.6,435.1c0,2-1.3,2.7-3.1,1.7c-1.7-1-3.1-3.4-3.1-5.4c0-2,1.4-2.8,3.1-1.8
											C30.2,430.6,31.6,433.1,31.6,435.1z"/>
									</g>
								</g>
							</g>
						</g>
					</g>
				</g>
				<g>
					<g>
						<g>
							<g>
								<g>
									<path class="st12" d="M146.9,379.3l-0.1,26.3c0,0.8-0.5,1.6-1.5,2.1l-57.6,34c-2,1.2-5.2,1.2-7.3,0l-58-34
										c-1-0.5-1.5-1.4-1.5-2.2l0.1-26.3c0,0.8,0.5,1.6,1.5,2.2l58,34c2.1,1.2,5.3,1.2,7.3,0l57.6-34
										C146.3,380.9,146.9,380.2,146.9,379.3z"/>
								</g>
							</g>
						</g>
					</g>
				</g>
				<g>
					<g>
						<g>
							<g>
								<g>
									<path class="st14" d="M145.3,377.2c2.1,1.2,2.1,3.1,0.1,4.3l-57.6,34c-2,1.2-5.2,1.2-7.3,0l-58-34c-2-1.2-2.1-3.1-0.1-4.3
										l57.6-34c2-1.2,5.3-1.1,7.3,0L145.3,377.2z"/>
								</g>
							</g>
						</g>
					</g>
				</g>
				<g>
					<g>
						<g>
							<g>
								<g>
									<g>
										<path class="st15" d="M142,371.7l-0.1,8.4c0,0.8-0.5,1.4-1.4,1.9l-53.1,31.4c-1.8,1.1-4.8,1.1-6.7,0l-53.4-31.4
											c-0.9-0.5-1.4-1.3-1.4-2l0.1-8.4c0,0.8,0.5,1.5,1.4,2L80.8,405c1.9,1.1,4.9,1.1,6.7,0l53.1-31.4
											C141.5,373.1,142,372.5,142,371.7z"/>
									</g>
								</g>
							</g>
						</g>
					</g>
					<g>
						<g>
							<g>
								<g>
									<g>
										<path class="st13" d="M138.8,373.9c1.8,1.1,1.9,2.8,0.1,3.8l-51.5,30.4c-1.8,1.1-4.6,1.1-6.5,0L29,377.7
											c-1.8-1.1-1.9-2.8-0.1-3.8l51.5-30.4c1.8-1.1,4.7-1,6.5,0L138.8,373.9z"/>
									</g>
								</g>
							</g>
						</g>
					</g>
				</g>
				<g>
					<g>
						<g>
							<g>
								<g>
									<g>
										<path class="st6" d="M48.5,410.8c0,2-1.3,2.8-3.1,1.8c-1.7-1-3.1-3.5-3.1-5.5c0-2,1.3-2.8,3.1-1.7
											C47.1,406.4,48.5,408.8,48.5,410.8z"/>
									</g>
								</g>
							</g>
						</g>
						<g>
							<g>
								<g>
									<g>
										<path class="st6" d="M40,405.9c0,2-1.3,2.8-3.1,1.8c-1.8-1-3.1-3.5-3.1-5.5c0-2,1.4-2.8,3.1-1.8
											C38.7,401.4,40,403.8,40,405.9z"/>
									</g>
								</g>
							</g>
						</g>
						<g>
							<g>
								<g>
									<g>
										<path class="st6" d="M31.6,400.9c0,2-1.3,2.7-3.1,1.7c-1.7-1-3.1-3.4-3.1-5.4c0-2,1.4-2.8,3.1-1.8
											C30.2,396.5,31.6,398.9,31.6,400.9z"/>
									</g>
								</g>
							</g>
						</g>
					</g>
				</g>
				<g>
					<g>
						<g>
							<g>
								<g>
									<path class="st12" d="M146.9,345.6l-0.1,26.3c0,0.8-0.5,1.6-1.5,2.1l-57.6,34c-2,1.2-5.2,1.2-7.3,0l-58-34
										c-1-0.5-1.5-1.4-1.5-2.2l0.1-26.3c0,0.8,0.5,1.6,1.5,2.2l58,34c2.1,1.2,5.3,1.2,7.3,0l57.6-34
										C146.3,347.1,146.9,346.4,146.9,345.6z"/>
								</g>
							</g>
						</g>
					</g>
				</g>
				<g>
					<g>
						<g>
							<g>
								<g>
									<path class="st14" d="M145.3,343.4c2.1,1.2,2.1,3.1,0.1,4.3l-57.6,34c-2,1.2-5.2,1.2-7.3,0l-58-34c-2-1.2-2.1-3.1-0.1-4.3
										l57.6-34c2-1.2,5.3-1.1,7.3,0L145.3,343.4z"/>
								</g>
							</g>
						</g>
					</g>
				</g>
				<g>
					<g>
						<g>
							<g>
								<g>
									<path class="st12" d="M80.4,373.8l-42.7-25c-2.7-1.6-2.7-4.8,0-6.4l42.4-25c2-1.2,5.1-1.2,7.3,0l42.7,25
										c2.8,1.6,2.7,4.8,0,6.4l-42.4,25C85.7,375,82.5,375,80.4,373.8z"/>
								</g>
							</g>
						</g>
					</g>
				</g>
				<g>
					<g>
						<g>
							<g>
								<g>
									<g>
										<path class="st6" d="M48.5,377c0,2-1.3,2.8-3.1,1.8c-1.7-1-3.1-3.5-3.1-5.5c0-2,1.3-2.8,3.1-1.7
											C47.1,372.6,48.5,375,48.5,377z"/>
									</g>
								</g>
							</g>
						</g>
						<g>
							<g>
								<g>
									<g>
										<path class="st6" d="M40,372.1c0,2-1.3,2.8-3.1,1.8c-1.8-1-3.1-3.5-3.1-5.5c0-2,1.4-2.8,3.1-1.8S40,370.1,40,372.1z"/>
									</g>
								</g>
							</g>
						</g>
						<g>
							<g>
								<g>
									<g>
										<path class="st6" d="M31.6,367.1c0,2-1.3,2.7-3.1,1.7c-1.7-1-3.1-3.4-3.1-5.4c0-2,1.4-2.8,3.1-1.8
											C30.2,362.7,31.6,365.1,31.6,367.1z"/>
									</g>
								</g>
							</g>
						</g>
					</g>
				</g>
			</g>
		</g>
		<g>
			<g>
				<g>
					<g>
						<g>
							<path class="st6" d="M142.1,425.1l0,13.3L89.3,469l0-13.3L142.1,425.1z"/>
						</g>
					</g>
				</g>
			</g>
			<g>
				<g>
					<g>
						<g>
							<g>
								<g>
									<path class="st8" d="M136.6,431.3c-4.2,2.4-4.2,9.7,0,7.3c1.7-1,3.2-3.4,3.2-5.5C139.8,431.2,138.4,430.3,136.6,431.3z"/>
								</g>
							</g>
						</g>
					</g>
					<g>
						<g>
							<g>
								<g>
									<path class="st8" d="M94.8,455.5c-1.8,1-3.2,3.5-3.2,5.5c0,2,1.4,2.8,3.2,1.8c1.7-1,3.2-3.4,3.2-5.5
										C97.9,455.3,96.5,454.5,94.8,455.5z"/>
								</g>
							</g>
						</g>
					</g>
				</g>
				<g>
					<g>
						<g>
							<g>
								<path class="st9" d="M130.2,434.9c1.1-0.6,1.9-0.1,1.9,1.1c-0.2,1.1,0.8,4.6-1.9,6.1l-28.4,16.4c-1.1,0.6-1.9,0.1-1.9-1.1
									l0-2.9c0-1.2,0.8-2.6,1.9-3.3L130.2,434.9z"/>
							</g>
						</g>
					</g>
				</g>
			</g>
		</g>
		<g>
			<g>
				<g>
					<g>
						<g>
							<path class="st6" d="M142.1,391.1l0,13.3l-52.9,30.5l0-13.3L142.1,391.1z"/>
						</g>
					</g>
				</g>
			</g>
			<g>
				<g>
					<g>
						<g>
							<g>
								<g>
									<path class="st8" d="M136.6,397.3c-1.8,1-3.2,3.5-3.2,5.5c0,2,1.4,2.8,3.2,1.8c1.7-1,3.2-3.4,3.2-5.5
										C139.8,397.1,138.4,396.2,136.6,397.3z"/>
								</g>
							</g>
						</g>
					</g>
					<g>
						<g>
							<g>
								<g>
									<path class="st8" d="M94.8,421.4c-1.8,1-3.2,3.5-3.2,5.5s1.4,2.8,3.2,1.8c1.7-1,3.2-3.4,3.2-5.5
										C97.9,421.2,96.5,420.4,94.8,421.4z"/>
								</g>
							</g>
						</g>
					</g>
				</g>
				<g>
					<g>
						<g>
							<g>
								<path class="st9" d="M130.2,400.8c1.1-0.6,1.9-0.1,1.9,1.1l0,2.9c0,1.2-0.8,2.6-1.9,3.3l-28.4,16.4
									c-1.1,0.6-1.9,0.1-1.9-1.1l0-2.9c0-1.2,0.8-2.6,1.9-3.3L130.2,400.8z"/>
							</g>
						</g>
					</g>
				</g>
			</g>
		</g>
		<g>
			<g>
				<g>
					<g>
						<g>
							<path class="st6" d="M142.1,357l0,13.3l-52.9,30.5l0-13.3L142.1,357z"/>
						</g>
					</g>
				</g>
			</g>
			<g>
				<g>
					<g>
						<g>
							<g>
								<g>
									<path class="st8" d="M136.6,363.2c-1.8,1-3.2,3.5-3.2,5.5c0,2,1.4,2.8,3.2,1.8c1.7-1,3.2-3.4,3.2-5.5
										C139.8,363,138.4,362.2,136.6,363.2z"/>
								</g>
							</g>
						</g>
					</g>
					<g>
						<g>
							<g>
								<g>
									<path class="st8" d="M94.8,387.3c-1.8,1-3.2,3.5-3.2,5.5c0,2,1.4,2.8,3.2,1.8c1.7-1,3.2-3.4,3.2-5.5
										C97.9,387.1,96.5,386.3,94.8,387.3z"/>
								</g>
							</g>
						</g>
					</g>
				</g>
				<g>
					<g>
						<g>
							<g>
								<path class="st9" d="M130.2,366.7c1.1-0.6,1.9-0.1,1.9,1.1l0,2.9c0,1.2-0.8,2.6-1.9,3.3l-28.4,16.4
									c-1.1,0.6-1.9,0.1-1.9-1.1l0-2.9c0-1.2,0.8-2.6,1.9-3.3L130.2,366.7z"/>
							</g>
						</g>
					</g>
				</g>
			</g>
		</g>
	</g>
</g>
<g>
	<g>
		<g>
			<g>
				<g>
					<g>
						<path class="st0" d="M424,284.6L367,251.2c-3-1.7-3-5-0.1-6.7l56.6-33.4c2.4-1.4,6.2-1.4,8.6,0l56.9,33.4
							c3.1,1.8,2.9,5.1,0.1,6.7l-56.6,33.4C430.1,286.1,426.4,286,424,284.6z M425.1,213.6L368.5,247c-0.9,0.5-1,1,0.1,1.6
							l56.9,33.4c1.5,0.9,4.1,0.9,5.6,0l56.6-33.4c1-0.6,0.9-1.1-0.1-1.6l-56.9-33.4C429.2,212.7,426.6,212.7,425.1,213.6z"/>
					</g>
				</g>
			</g>
		</g>
	</g>
	<g>
		<path class="st12" d="M489.4,204.6l-2.7,1.6l2.7,1.6c1.4,0.9,1.8,2,1.4,3c0.2-0.2,0.3-0.5,0.3-0.8l-0.1,26.3
			c0,0.9-0.6,1.6-1.6,2.1l-57.6,34.1c-0.1,0.1-0.2,0.1-0.2,0.1h-0.1c-1.5,1-4.7,1.2-7-0.1l-58-34.1c-1-0.5-1.5-1.3-1.5-2.2l0.1-26.2
			c0-0.8,0.5-1.6,1.5-2.2l2.7-1.6l-2.8-1.6c-1-0.6-1.5-1.4-1.5-2.2l0.1-26.3c0-0.8,0.5-1.5,1.5-2.1l2.7-1.7l-2.8-1.6
			c-1-0.5-1.5-1.4-1.5-2.2l0.1-26.2v-0.1c0-0.7,0.5-1.5,1.5-2.1l57.6-34c2-1.2,5.2-1.2,7.3,0l57.9,34c1.4,0.8,1.8,2,1.4,2.9
			c0.2-0.2,0.3-0.4,0.3-0.7l-0.1,26.3c0,0.8-0.6,1.6-1.6,2.1l-2.7,1.6l2.7,1.7c1.4,0.8,1.8,1.9,1.4,2.9c0.2-0.2,0.3-0.5,0.3-0.8
			l-0.1,26.3C491,203.3,490.4,204,489.4,204.6z"/>
	</g>
	<g>
		<g>
			<g>
				<g>
					<g>
						<g>
							<g>
								<g>
									<g>
										<path class="st13" d="M483,238.2c1.8,1.1,1.9,2.8,0.1,3.8l-51.5,30.4c-1.8,1.1-4.6,1.1-6.5,0L373.2,242
											c-1.8-1.1-1.9-2.8-0.1-3.8l51.5-30.4c1.8-1.1,4.7-1,6.5,0L483,238.2z"/>
									</g>
								</g>
							</g>
						</g>
					</g>
				</g>
				<g>
					<g>
						<g>
							<g>
								<g>
									<path class="st12" d="M491.1,209.9l-0.1,26.3c0,0.8-0.5,1.6-1.5,2.1l-57.6,34c-2,1.2-5.2,1.2-7.3,0l-58-34
										c-1-0.5-1.5-1.4-1.5-2.2l0.1-26.3c0,0.8,0.5,1.6,1.5,2.2l58,34c2.1,1.2,5.3,1.2,7.3,0l57.6-34
										C490.5,211.5,491.1,210.7,491.1,209.9z"/>
								</g>
							</g>
						</g>
					</g>
				</g>
				<g>
					<g>
						<g>
							<g>
								<g>
									<path class="st14" d="M489.5,207.8c2.1,1.2,2.1,3.1,0.1,4.3l-57.6,34c-2,1.2-5.2,1.2-7.3,0l-58-34c-2-1.2-2.1-3.1-0.1-4.3
										l57.6-34c2-1.2,5.3-1.1,7.3,0L489.5,207.8z"/>
								</g>
							</g>
						</g>
					</g>
				</g>
				<g>
					<g>
						<g>
							<g>
								<g>
									<g>
										<path class="st15" d="M486.1,203.3l-0.1,8.4c0,0.8-0.5,1.4-1.4,1.9L431.6,245c-1.8,1.1-4.8,1.1-6.7,0l-53.4-31.4
											c-0.9-0.5-1.4-1.3-1.4-2l0.1-8.4c0,0.8,0.5,1.5,1.4,2l53.4,31.4c1.9,1.1,4.9,1.1,6.7,0l53.1-31.4
											C485.7,204.7,486.1,204.1,486.1,203.3z"/>
									</g>
								</g>
							</g>
						</g>
					</g>
					<g>
						<g>
							<g>
								<g>
									<g>
										<path class="st13" d="M483,204.5c1.8,1.1,1.9,2.8,0.1,3.8l-51.5,30.4c-1.8,1.1-4.6,1.1-6.5,0l-51.8-30.4
											c-1.8-1.1-1.9-2.8-0.1-3.8l51.5-30.4c1.8-1.1,4.7-1,6.5,0L483,204.5z"/>
									</g>
								</g>
							</g>
						</g>
					</g>
				</g>
				<g>
					<g>
						<g>
							<g>
								<g>
									<g>
										<path class="st6" d="M392.7,241.8c0,2-1.3,2.8-3.1,1.8c-1.7-1-3.1-3.5-3.1-5.5c0-2,1.3-2.8,3.1-1.7
											C391.3,237.4,392.7,239.8,392.7,241.8z"/>
									</g>
								</g>
							</g>
						</g>
						<g>
							<g>
								<g>
									<g>
										<path class="st6" d="M384.2,236.8c0,2-1.3,2.8-3.1,1.8c-1.8-1-3.1-3.5-3.1-5.5c0-2,1.4-2.8,3.1-1.8
											S384.2,234.8,384.2,236.8z"/>
									</g>
								</g>
							</g>
						</g>
						<g>
							<g>
								<g>
									<g>
										<path class="st6" d="M375.8,231.9c0,2-1.3,2.7-3.1,1.7c-1.7-1-3.1-3.4-3.1-5.4c0-2,1.4-2.8,3.1-1.8
											C374.4,227.4,375.8,229.9,375.8,231.9z"/>
									</g>
								</g>
							</g>
						</g>
					</g>
				</g>
				<g>
					<g>
						<g>
							<g>
								<g>
									<path class="st12" d="M491.1,176.2l-0.1,26.3c0,0.8-0.5,1.6-1.5,2.1l-57.6,34c-2,1.2-5.2,1.2-7.3,0l-58-34
										c-1-0.5-1.5-1.4-1.5-2.2l0.1-26.3c0,0.8,0.5,1.6,1.5,2.2l58,34c2.1,1.2,5.3,1.2,7.3,0l57.6-34
										C490.5,177.7,491.1,177,491.1,176.2z"/>
								</g>
							</g>
						</g>
					</g>
				</g>
				<g>
					<g>
						<g>
							<g>
								<g>
									<path class="st14" d="M489.5,174c2.1,1.2,2.1,3.1,0.1,4.3l-57.6,34c-2,1.2-5.2,1.2-7.3,0l-58-34c-2-1.2-2.1-3.1-0.1-4.3
										l57.6-34c2-1.2,5.3-1.1,7.3,0L489.5,174z"/>
								</g>
							</g>
						</g>
					</g>
				</g>
				<g>
					<g>
						<g>
							<g>
								<g>
									<g>
										<path class="st15" d="M486.1,168.5l-0.1,8.4c0,0.8-0.5,1.4-1.4,1.9l-53.1,31.4c-1.8,1.1-4.8,1.1-6.7,0l-53.4-31.4
											c-0.9-0.5-1.4-1.3-1.4-2l0.1-8.4c0,0.8,0.5,1.5,1.4,2l53.4,31.4c1.9,1.1,4.9,1.1,6.7,0l53.1-31.4
											C485.7,170,486.1,169.3,486.1,168.5z"/>
									</g>
								</g>
							</g>
						</g>
					</g>
					<g>
						<g>
							<g>
								<g>
									<g>
										<path class="st13" d="M483,170.7c1.8,1.1,1.9,2.8,0.1,3.8L431.5,205c-1.8,1.1-4.6,1.1-6.5,0l-51.8-30.4
											c-1.8-1.1-1.9-2.8-0.1-3.8l51.5-30.4c1.8-1.1,4.7-1,6.5,0L483,170.7z"/>
									</g>
								</g>
							</g>
						</g>
					</g>
				</g>
				<g>
					<g>
						<g>
							<g>
								<g>
									<g>
										<path class="st6" d="M392.7,207.6c0,2-1.3,2.8-3.1,1.8c-1.7-1-3.1-3.5-3.1-5.5c0-2,1.3-2.8,3.1-1.7
											C391.3,203.2,392.7,205.6,392.7,207.6z"/>
									</g>
								</g>
							</g>
						</g>
						<g>
							<g>
								<g>
									<g>
										<path class="st6" d="M384.2,202.7c0,2-1.3,2.8-3.1,1.8c-1.8-1-3.1-3.5-3.1-5.5c0-2,1.4-2.8,3.1-1.8
											C382.9,198.2,384.2,200.7,384.2,202.7z"/>
									</g>
								</g>
							</g>
						</g>
						<g>
							<g>
								<g>
									<g>
										<path class="st6" d="M375.8,197.8c0,2-1.3,2.7-3.1,1.7c-1.7-1-3.1-3.4-3.1-5.4c0-2,1.4-2.8,3.1-1.8
											C374.4,193.3,375.8,195.7,375.8,197.8z"/>
									</g>
								</g>
							</g>
						</g>
					</g>
				</g>
				<g>
					<g>
						<g>
							<g>
								<g>
									<path class="st12" d="M491.1,142.4l-0.1,26.3c0,0.8-0.5,1.6-1.5,2.1l-57.6,34c-2,1.2-5.2,1.2-7.3,0l-58-34
										c-1-0.5-1.5-1.4-1.5-2.2l0.1-26.3c0,0.8,0.5,1.6,1.5,2.2l58,34c2.1,1.2,5.3,1.2,7.3,0l57.6-34
										C490.5,144,491.1,143.2,491.1,142.4z"/>
								</g>
							</g>
						</g>
					</g>
				</g>
				<g>
					<g>
						<g>
							<g>
								<g>
									<path class="st14" d="M489.5,140.3c2.1,1.2,2.1,3.1,0.1,4.3l-57.6,34c-2,1.2-5.2,1.2-7.3,0l-58-34c-2-1.2-2.1-3.1-0.1-4.3
										l57.6-34c2-1.2,5.3-1.1,7.3,0L489.5,140.3z"/>
								</g>
							</g>
						</g>
					</g>
				</g>
				<g>
					<g>
						<g>
							<g>
								<g>
									<path class="st12" d="M424.6,170.6l-42.7-25c-2.7-1.6-2.7-4.8,0-6.4l42.4-25c2-1.2,5.1-1.2,7.3,0l42.7,25
										c2.8,1.6,2.7,4.8,0,6.4l-42.4,25C429.9,171.8,426.7,171.9,424.6,170.6z"/>
								</g>
							</g>
						</g>
					</g>
				</g>
				<g>
					<g>
						<g>
							<g>
								<g>
									<g>
										<path class="st6" d="M392.7,173.8c0,2-1.3,2.8-3.1,1.8c-1.7-1-3.1-3.5-3.1-5.5c0-2,1.3-2.8,3.1-1.7
											C391.3,169.4,392.7,171.8,392.7,173.8z"/>
									</g>
								</g>
							</g>
						</g>
						<g>
							<g>
								<g>
									<g>
										<path class="st6" d="M384.2,168.9c0,2-1.3,2.8-3.1,1.8c-1.8-1-3.1-3.5-3.1-5.5c0-2,1.4-2.8,3.1-1.8
											C382.9,164.4,384.2,166.9,384.2,168.9z"/>
									</g>
								</g>
							</g>
						</g>
						<g>
							<g>
								<g>
									<g>
										<path class="st6" d="M375.8,164c0,2-1.3,2.7-3.1,1.7c-1.7-1-3.1-3.4-3.1-5.4c0-2,1.4-2.8,3.1-1.8
											C374.4,159.5,375.8,161.9,375.8,164z"/>
									</g>
								</g>
							</g>
						</g>
					</g>
				</g>
			</g>
		</g>
		<g>
			<g>
				<g>
					<g>
						<g>
							<path class="st6" d="M486.3,222l0,13.3l-52.9,30.5l0-13.3L486.3,222z"/>
						</g>
					</g>
				</g>
			</g>
			<g>
				<g>
					<g>
						<g>
							<g>
								<g>
									<path class="st8" d="M480.8,228.2c-1.8,1-3.2,3.5-3.2,5.5c0,2,1.4,2.8,3.2,1.8c1.7-1,3.2-3.4,3.2-5.5
										C484,228,482.6,227.2,480.8,228.2z"/>
								</g>
							</g>
						</g>
					</g>
					<g>
						<g>
							<g>
								<g>
									<path class="st8" d="M439,252.3c-1.8,1-3.2,3.5-3.2,5.5c0,2,1.4,2.8,3.2,1.8c1.7-1,3.2-3.4,3.2-5.5
										C442.1,252.1,440.7,251.3,439,252.3z"/>
								</g>
							</g>
						</g>
					</g>
				</g>
				<g>
					<g>
						<g>
							<g>
								<path class="st16" d="M474.4,231.7c1.1-0.6,1.9-0.1,1.9,1.1l0,2.9c0,1.2-0.8,2.6-1.9,3.3l-28.4,16.4
									c-1.1,0.6-1.9,0.1-1.9-1.1l0-2.9c0-1.2,0.8-2.6,1.9-3.3L474.4,231.7z"/>
							</g>
						</g>
					</g>
				</g>
			</g>
		</g>
		<g>
			<g>
				<g>
					<g>
						<g>
							<path class="st6" d="M486.3,187.9l0,13.3l-52.9,30.5l0-13.3L486.3,187.9z"/>
						</g>
					</g>
				</g>
			</g>
			<g>
				<g>
					<g>
						<g>
							<g>
								<g>
									<path class="st8" d="M480.8,194.1c-1.8,1-3.2,3.5-3.2,5.5c0,2,1.4,2.8,3.2,1.8c1.7-1,3.2-3.4,3.2-5.5
										C484,193.9,482.6,193.1,480.8,194.1z"/>
								</g>
							</g>
						</g>
					</g>
					<g>
						<g>
							<g>
								<g>
									<path class="st8" d="M439,218.2c-1.8,1-3.2,3.5-3.2,5.5c0,2,1.4,2.8,3.2,1.8c1.7-1,3.2-3.4,3.2-5.5
										C442.1,218.1,440.7,217.2,439,218.2z"/>
								</g>
							</g>
						</g>
					</g>
				</g>
				<g>
					<g>
						<g>
							<g>
								<path class="st16" d="M474.4,197.6c1.1-0.6,1.9-0.1,1.9,1.1l0,2.9c0,1.2-0.8,2.6-1.9,3.3l-28.4,16.4
									c-1.1,0.6-1.9,0.1-1.9-1.1l0-2.9c0-1.2,0.8-2.6,1.9-3.3L474.4,197.6z"/>
							</g>
						</g>
					</g>
				</g>
			</g>
		</g>
		<g>
			<g>
				<g>
					<g>
						<g>
							<path class="st6" d="M486.3,153.8l0,13.3l-52.9,30.5l0-13.3L486.3,153.8z"/>
						</g>
					</g>
				</g>
			</g>
			<g>
				<g>
					<g>
						<g>
							<g>
								<g>
									<path class="st8" d="M480.8,160c-1.8,1-3.2,3.5-3.2,5.5c0,2,1.4,2.8,3.2,1.8c1.7-1,3.2-3.4,3.2-5.5
										C484,159.8,482.6,159,480.8,160z"/>
								</g>
							</g>
						</g>
					</g>
					<g>
						<g>
							<g>
								<g>
									<path class="st8" d="M439,184.2c-1.8,1-3.2,3.5-3.2,5.5c0,2,1.4,2.8,3.2,1.8c1.7-1,3.2-3.4,3.2-5.5
										C442.1,184,440.7,183.1,439,184.2z"/>
								</g>
							</g>
						</g>
					</g>
				</g>
				<g>
					<g>
						<g>
							<g>
								<path class="st16" d="M474.4,163.5c1.1-0.6,1.9-0.1,1.9,1.1l0,2.9c0,1.2-0.8,2.6-1.9,3.3l-28.4,16.4
									c-1.1,0.6-1.9,0.1-1.9-1.1l0-2.9c0-1.2,0.8-2.6,1.9-3.3L474.4,163.5z"/>
							</g>
						</g>
					</g>
				</g>
			</g>
		</g>
	</g>
</g>
<g>
	<g>
		<g>
			<path class="st0" d="M134.5,484.5l-20.2-11.8c-0.9-0.5-1.3-1.8-0.7-2.7c0.5-0.9,1.8-1.3,2.7-0.7l20.2,11.8
				c2.8,1.6,7.5,1.6,10.3,0l334.7-194.3c1-0.6,1.6-1.3,1.6-1.9c0-0.6-0.6-1.3-1.6-1.9l-22.3-13.3c-0.9-0.6-1.2-1.8-0.7-2.7
				c0.6-0.9,1.8-1.2,2.7-0.7l22.3,13.3c2.2,1.3,3.5,3.2,3.5,5.3c0,2-1.3,4-3.5,5.3L148.7,484.5C144.7,486.8,138.5,486.8,134.5,484.5
				L134.5,484.5z"/>
		</g>
	</g>
</g>
<g>
	<g>
		<g>
			<g>
				<g>
					<g>
						<path class="st0" d="M410.7,491.9l-56.9-33.4c-3-1.8-3-5-0.1-6.7l56.6-33.4c2.4-1.4,6.2-1.4,8.6,0l56.9,33.4
							c3.1,1.8,2.9,5.1,0.1,6.7L419.4,492C416.9,493.4,413.2,493.4,410.7,491.9z M414.6,420.3c-1,0-2,0.2-2.8,0.6l-56.6,33.4
							c-0.9,0.5-1,1,0.1,1.6l56.9,33.4c1.5,0.9,4.1,0.9,5.6,0l56.6-33.4c1-0.6,1-1-0.1-1.6h0L417.5,421
							C416.7,420.5,415.6,420.3,414.6,420.3z"/>
					</g>
				</g>
			</g>
		</g>
	</g>
	<g>
		<path class="st12" d="M476.2,411.9l-2.8,1.6l2.8,1.6c1.3,0.9,1.7,2,1.3,3c0.2-0.2,0.3-0.5,0.3-0.8l-0.1,26.3
			c0,0.8-0.5,1.6-1.5,2.1l-57.7,34.1c0,0-0.1,0-0.2,0.1h-0.1c-0.9,0.6-2.1,0.8-3.2,0.8c-1.3,0-2.7-0.3-3.6-0.9l-58-34.1
			c-1-0.5-1.6-1.4-1.6-2.2l0.1-26.2v-0.1c0-0.7,0.5-1.5,1.5-2.1l2.8-1.6l-2.8-1.6c-1-0.6-1.6-1.4-1.6-2.3l0.1-26.2
			c0-0.8,0.5-1.6,1.5-2.1l2.8-1.7l-2.8-1.6c-1-0.6-1.6-1.4-1.6-2.2l0.1-26.2v-0.1c0-0.8,0.5-1.5,1.5-2.1l57.6-34.1
			c2.1-1.2,5.3-1.1,7.3,0.1l58,34c1.3,0.8,1.7,1.9,1.3,2.9c0.2-0.2,0.3-0.4,0.3-0.7l-0.1,26.3c0,0.8-0.5,1.5-1.5,2.1l-2.8,1.6
			l2.8,1.7c1.3,0.8,1.7,1.9,1.3,2.9c0.2-0.2,0.3-0.5,0.3-0.8l-0.1,26.3C477.7,410.6,477.2,411.3,476.2,411.9z"/>
	</g>
	<g>
		<g>
			<g>
				<g>
					<g>
						<g>
							<g>
								<g>
									<g>
										<path class="st13" d="M469.7,445.5c1.8,1.1,1.9,2.8,0.1,3.8l-51.5,30.4c-1.8,1.1-4.6,1.1-6.5,0L360,449.4
											c-1.8-1.1-1.9-2.8-0.1-3.8l51.5-30.4c1.8-1.1,4.7-1,6.5,0L469.7,445.5z"/>
									</g>
								</g>
							</g>
						</g>
					</g>
				</g>
				<g>
					<g>
						<g>
							<g>
								<g>
									<path class="st12" d="M477.8,417.2l-0.1,26.3c0,0.8-0.5,1.6-1.5,2.1l-57.6,34c-2,1.2-5.2,1.2-7.3,0l-58-34
										c-1-0.5-1.5-1.4-1.5-2.2l0.1-26.3c0,0.8,0.5,1.6,1.5,2.2l58,34c2.1,1.2,5.3,1.2,7.3,0l57.6-34
										C477.3,418.8,477.8,418.1,477.8,417.2z"/>
								</g>
							</g>
						</g>
					</g>
				</g>
				<g>
					<g>
						<g>
							<g>
								<g>
									<path class="st14" d="M476.2,415.1c2.1,1.2,2.1,3.1,0.1,4.3l-57.6,34c-2,1.2-5.2,1.2-7.3,0l-58-34c-2-1.2-2.1-3.1-0.1-4.3
										l57.6-34c2-1.2,5.3-1.1,7.3,0L476.2,415.1z"/>
								</g>
							</g>
						</g>
					</g>
				</g>
				<g>
					<g>
						<g>
							<g>
								<g>
									<g>
										<path class="st15" d="M472.9,410.6l-0.1,8.4c0,0.8-0.5,1.4-1.4,1.9l-53.1,31.4c-1.8,1.1-4.8,1.1-6.7,0L358.2,421
											c-0.9-0.5-1.4-1.3-1.4-2l0.1-8.4c0,0.8,0.5,1.5,1.4,2l53.4,31.4c1.9,1.1,4.9,1.1,6.7,0l53.1-31.4
											C472.4,412.1,472.9,411.4,472.9,410.6z"/>
									</g>
								</g>
							</g>
						</g>
					</g>
					<g>
						<g>
							<g>
								<g>
									<g>
										<path class="st13" d="M469.7,411.8c1.8,1.1,1.9,2.8,0.1,3.8L418.3,446c-1.8,1.1-4.6,1.1-6.5,0L360,415.6
											c-1.8-1.1-1.9-2.8-0.1-3.8l51.5-30.4c1.8-1.1,4.7-1,6.5,0L469.7,411.8z"/>
									</g>
								</g>
							</g>
						</g>
					</g>
				</g>
				<g>
					<g>
						<g>
							<g>
								<g>
									<g>
										<path class="st6" d="M379.4,449.1c0,2-1.3,2.8-3.1,1.8c-1.7-1-3.1-3.5-3.1-5.5c0-2,1.3-2.8,3.1-1.7
											C378.1,444.7,379.4,447.1,379.4,449.1z"/>
									</g>
								</g>
							</g>
						</g>
						<g>
							<g>
								<g>
									<g>
										<path class="st6" d="M371,444.2c0,2-1.3,2.8-3.1,1.8c-1.8-1-3.1-3.5-3.1-5.5c0-2,1.4-2.8,3.1-1.8S371,442.2,371,444.2z"/>
									</g>
								</g>
							</g>
						</g>
						<g>
							<g>
								<g>
									<g>
										<path class="st6" d="M362.5,439.3c0,2-1.3,2.7-3.1,1.7c-1.7-1-3.1-3.4-3.1-5.4c0-2,1.4-2.8,3.1-1.8
											C361.2,434.8,362.5,437.2,362.5,439.3z"/>
									</g>
								</g>
							</g>
						</g>
					</g>
				</g>
				<g>
					<g>
						<g>
							<g>
								<g>
									<path class="st12" d="M477.8,383.5l-0.1,26.3c0,0.8-0.5,1.6-1.5,2.1l-57.6,34c-2,1.2-5.2,1.2-7.3,0l-58-34
										c-1-0.5-1.5-1.4-1.5-2.2l0.1-26.3c0,0.8,0.5,1.6,1.5,2.2l58,34c2.1,1.2,5.3,1.2,7.3,0l57.6-34
										C477.3,385.1,477.8,384.3,477.8,383.5z"/>
								</g>
							</g>
						</g>
					</g>
				</g>
				<g>
					<g>
						<g>
							<g>
								<g>
									<path class="st14" d="M476.2,381.4c2.1,1.2,2.1,3.1,0.1,4.3l-57.6,34c-2,1.2-5.2,1.2-7.3,0l-58-34c-2-1.2-2.1-3.1-0.1-4.3
										l57.6-34c2-1.2,5.3-1.1,7.3,0L476.2,381.4z"/>
								</g>
							</g>
						</g>
					</g>
				</g>
				<g>
					<g>
						<g>
							<g>
								<g>
									<g>
										<path class="st15" d="M472.9,375.9l-0.1,8.4c0,0.8-0.5,1.4-1.4,1.9l-53.1,31.4c-1.8,1.1-4.8,1.1-6.7,0l-53.4-31.4
											c-0.9-0.5-1.4-1.3-1.4-2l0.1-8.4c0,0.8,0.5,1.5,1.4,2l53.4,31.4c1.9,1.1,4.9,1.1,6.7,0l53.1-31.4
											C472.4,377.3,472.9,376.6,472.9,375.9z"/>
									</g>
								</g>
							</g>
						</g>
					</g>
					<g>
						<g>
							<g>
								<g>
									<g>
										<path class="st13" d="M469.7,378.1c1.8,1.1,1.9,2.8,0.1,3.8l-51.5,30.4c-1.8,1.1-4.6,1.1-6.5,0L360,381.9
											c-1.8-1.1-1.9-2.8-0.1-3.8l51.5-30.4c1.8-1.1,4.7-1,6.5,0L469.7,378.1z"/>
									</g>
								</g>
							</g>
						</g>
					</g>
				</g>
				<g>
					<g>
						<g>
							<g>
								<g>
									<g>
										<path class="st6" d="M379.4,414.9c0,2-1.3,2.8-3.1,1.8c-1.7-1-3.1-3.5-3.1-5.5c0-2,1.3-2.8,3.1-1.7
											C378.1,410.6,379.4,412.9,379.4,414.9z"/>
									</g>
								</g>
							</g>
						</g>
						<g>
							<g>
								<g>
									<g>
										<path class="st6" d="M371,410c0,2-1.3,2.8-3.1,1.8c-1.8-1-3.1-3.5-3.1-5.5c0-2,1.4-2.8,3.1-1.8S371,408,371,410z"/>
									</g>
								</g>
							</g>
						</g>
						<g>
							<g>
								<g>
									<g>
										<path class="st6" d="M362.5,405.1c0,2-1.3,2.7-3.1,1.7c-1.7-1-3.1-3.4-3.1-5.4c0-2,1.4-2.8,3.1-1.8
											C361.2,400.6,362.5,403.1,362.5,405.1z"/>
									</g>
								</g>
							</g>
						</g>
					</g>
				</g>
				<g>
					<g>
						<g>
							<g>
								<g>
									<path class="st12" d="M477.8,349.8l-0.1,26.3c0,0.8-0.5,1.6-1.5,2.1l-57.6,34c-2,1.2-5.2,1.2-7.3,0l-58-34
										c-1-0.5-1.5-1.4-1.5-2.2l0.1-26.3c0,0.8,0.5,1.6,1.5,2.2l58,34c2.1,1.2,5.3,1.2,7.3,0l57.6-34
										C477.3,351.3,477.8,350.6,477.8,349.8z"/>
								</g>
							</g>
						</g>
					</g>
				</g>
				<g>
					<g>
						<g>
							<g>
								<g>
									<path class="st14" d="M476.2,347.6c2.1,1.2,2.1,3.1,0.1,4.3l-57.6,34c-2,1.2-5.2,1.2-7.3,0l-58-34c-2-1.2-2.1-3.1-0.1-4.3
										l57.6-34c2-1.2,5.3-1.1,7.3,0L476.2,347.6z"/>
								</g>
							</g>
						</g>
					</g>
				</g>
				<g>
					<g>
						<g>
							<g>
								<g>
									<path class="st12" d="M415,378.9c-1.3,0-2.6-0.3-3.7-0.9l-42.7-25c-1.3-0.8-2.1-2-2.1-3.2c0-1.3,0.7-2.4,2-3.2l42.4-25
										c2-1.2,5.1-1.2,7.3,0l42.7,25c1.3,0.8,2.1,2,2.1,3.2c0,1.3-0.7,2.4-2,3.2l-42.4,25C417.6,378.6,416.3,378.9,415,378.9z"/>
								</g>
							</g>
						</g>
					</g>
				</g>
				<g>
					<g>
						<g>
							<g>
								<g>
									<g>
										<path class="st6" d="M379.4,381.2c0,2-1.3,2.8-3.1,1.8c-1.7-1-3.1-3.5-3.1-5.5c0-2,1.3-2.8,3.1-1.7
											C378.1,376.8,379.4,379.1,379.4,381.2z"/>
									</g>
								</g>
							</g>
						</g>
						<g>
							<g>
								<g>
									<g>
										<path class="st6" d="M371,376.2c0,2-1.3,2.8-3.1,1.8c-1.8-1-3.1-3.5-3.1-5.5c0-2,1.4-2.8,3.1-1.8S371,374.2,371,376.2z"/>
									</g>
								</g>
							</g>
						</g>
						<g>
							<g>
								<g>
									<g>
										<path class="st6" d="M362.5,371.3c0,2-1.3,2.7-3.1,1.7c-1.7-1-3.1-3.4-3.1-5.4c0-2,1.4-2.8,3.1-1.8
											C361.2,366.8,362.5,369.3,362.5,371.3z"/>
									</g>
								</g>
							</g>
						</g>
					</g>
				</g>
			</g>
		</g>
		<g>
			<g>
				<g>
					<g>
						<g>
							<path class="st6" d="M473.1,429.3l0,13.3l-52.9,30.5l0-13.3L473.1,429.3z"/>
						</g>
					</g>
				</g>
			</g>
			<g>
				<g>
					<g>
						<g>
							<g>
								<g>
									<path class="st8" d="M467.6,435.5c-1.8,1-3.2,3.5-3.2,5.5c0,2,1.4,2.8,3.2,1.8c1.7-1,3.2-3.4,3.2-5.5
										C470.7,435.3,469.3,434.5,467.6,435.5z"/>
								</g>
							</g>
						</g>
					</g>
					<g>
						<g>
							<g>
								<g>
									<path class="st8" d="M425.7,459.7c-1.8,1-3.2,3.5-3.2,5.5c0,2,1.4,2.8,3.2,1.8c1.7-1,3.2-3.4,3.2-5.5
										C428.9,459.5,427.5,458.7,425.7,459.7z"/>
								</g>
							</g>
						</g>
					</g>
				</g>
				<g>
					<g>
						<g>
							<g>
								<path class="st17" d="M461.1,439.1c1.1-0.6,1.9-0.1,1.9,1.1l0,2.9c0,1.2-0.8,2.6-1.9,3.3l-28.4,16.4
									c-1.1,0.6-1.9,0.1-1.9-1.1l0-2.9c0-1.2,0.8-2.6,1.9-3.3L461.1,439.1z"/>
							</g>
						</g>
					</g>
				</g>
			</g>
		</g>
		<g>
			<g>
				<g>
					<g>
						<g>
							<path class="st6" d="M473.1,395.2l0,13.3l-52.9,30.5l0-13.3L473.1,395.2z"/>
						</g>
					</g>
				</g>
			</g>
			<g>
				<g>
					<g>
						<g>
							<g>
								<g>
									<path class="st8" d="M467.6,401.4c-1.8,1-3.2,3.5-3.2,5.5c0,2,1.4,2.8,3.2,1.8c1.7-1,3.2-3.4,3.2-5.5
										C470.7,401.2,469.3,400.4,467.6,401.4z"/>
								</g>
							</g>
						</g>
					</g>
					<g>
						<g>
							<g>
								<g>
									<path class="st8" d="M425.7,425.6c-1.8,1-3.2,3.5-3.2,5.5c0,2,1.4,2.8,3.2,1.8c1.7-1,3.2-3.4,3.2-5.5
										C428.9,425.4,427.5,424.6,425.7,425.6z"/>
								</g>
							</g>
						</g>
					</g>
				</g>
				<g>
					<g>
						<g>
							<g>
								<path class="st17" d="M461.1,405c1.1-0.6,1.9-0.1,1.9,1.1l0,2.9c0,1.2-0.8,2.6-1.9,3.3l-28.4,16.4c-1.1,0.6-1.9,0.1-1.9-1.1
									l0-2.9c0-1.2,0.8-2.6,1.9-3.3L461.1,405z"/>
							</g>
						</g>
					</g>
				</g>
			</g>
		</g>
		<g>
			<g>
				<g>
					<g>
						<g>
							<path class="st6" d="M473.1,361.1l0,13.3L420.2,405l0-13.3L473.1,361.1z"/>
						</g>
					</g>
				</g>
			</g>
			<g>
				<g>
					<g>
						<g>
							<g>
								<g>
									<path class="st8" d="M467.6,367.3c-1.8,1-3.2,3.5-3.2,5.5c0,2,1.4,2.8,3.2,1.8c1.7-1,3.2-3.4,3.2-5.5
										C470.7,367.1,469.3,366.3,467.6,367.3z"/>
								</g>
							</g>
						</g>
					</g>
					<g>
						<g>
							<g>
								<g>
									<path class="st8" d="M425.7,391.5c-1.8,1-3.2,3.5-3.2,5.5c0,2,1.4,2.8,3.2,1.8c1.7-1,3.2-3.4,3.2-5.5
										C428.9,391.3,427.5,390.5,425.7,391.5z"/>
								</g>
							</g>
						</g>
					</g>
				</g>
				<g>
					<g>
						<g>
							<g>
								<path class="st17" d="M461.1,370.9c1.1-0.6,1.9-0.1,1.9,1.1l0,2.9c0,1.2-0.8,2.6-1.9,3.3l-28.4,16.4
									c-1.1,0.6-1.9,0.1-1.9-1.1l0-2.9c0-1.2,0.8-2.6,1.9-3.3L461.1,370.9z"/>
							</g>
						</g>
					</g>
				</g>
			</g>
		</g>
	</g>
</g>
<g>
	<g>
		<path class="st6" d="M260.6,149.1c-9.3,5.4-22.9,6-32.9,3c-16.4-4.8-21-18.1-7.1-26.1c11.6-6.7,29.5-6.2,40,0
			C271.6,132.3,271.6,142.7,260.6,149.1z"/>
	</g>
</g>
<g class="st18">
	<g>
		<path class="st4" d="M176,67.6l36.7,72.9c0,0.1,0.1,0.3,0.3,0.4c2,5.6,8.7,9.6,14.6,11.1c10.4,3.1,22.9,2.6,33.2-2.9
			c4-2.2,6.5-5.2,7.5-8.2c0.1-0.1,0.1-0.1,0.1-0.3l36.7-73H176z"/>
	</g>
</g>
<g>
	<g id="OBJECTS">
		<g>
			<polygon class="st19" points="189.2,89.6 197.6,101.2 193.1,100.6 184.7,89 			"/>
			
				<linearGradient id="SVGID_1_" gradientUnits="userSpaceOnUse" x1="407.5067" y1="336.1478" x2="502.7492" y2="418.789" gradientTransform="matrix(1 0 0 -1 -203.7553 454.9268)">
				<stop  offset="0" style="stop-color:#D13F05"/>
				<stop  offset="0.2925" style="stop-color:#F67205"/>
				<stop  offset="0.3667" style="stop-color:#F67705"/>
				<stop  offset="0.4526" style="stop-color:#F68505"/>
				<stop  offset="0.5441" style="stop-color:#F69C05"/>
				<stop  offset="0.5638" style="stop-color:#F6A205"/>
				<stop  offset="0.5977" style="stop-color:#F69005"/>
				<stop  offset="0.6432" style="stop-color:#F67F05"/>
				<stop  offset="0.6931" style="stop-color:#F67505"/>
				<stop  offset="0.7553" style="stop-color:#F67205"/>
				<stop  offset="1" style="stop-color:#D13F05"/>
			</linearGradient>
			<path class="st20" d="M286.2,20.2c2.8,3.9,5.6,7.8,8.5,11.6c5.7,8,8.8,17.6,8.7,27.5l-8.5-11.6C295,37.8,292,28.2,286.2,20.2z"/>
			<polygon class="st21" points="294.9,47.7 303.4,59.3 299.1,62.5 290.6,50.8 			"/>
			<polygon class="st19" points="252.1,104.5 260.5,116.2 258.7,119.1 250.2,107.5 			"/>
			
				<linearGradient id="SVGID_2_" gradientUnits="userSpaceOnUse" x1="410.5005" y1="332.706" x2="505.7381" y2="415.3428" gradientTransform="matrix(1 0 0 -1 -203.7553 454.9268)">
				<stop  offset="0" style="stop-color:#D13F05"/>
				<stop  offset="0.2925" style="stop-color:#F67205"/>
				<stop  offset="0.3667" style="stop-color:#F67705"/>
				<stop  offset="0.4526" style="stop-color:#F68505"/>
				<stop  offset="0.5441" style="stop-color:#F69C05"/>
				<stop  offset="0.5638" style="stop-color:#F6A205"/>
				<stop  offset="0.5977" style="stop-color:#F69005"/>
				<stop  offset="0.6432" style="stop-color:#F67F05"/>
				<stop  offset="0.6931" style="stop-color:#F67505"/>
				<stop  offset="0.7553" style="stop-color:#F67205"/>
				<stop  offset="1" style="stop-color:#D13F05"/>
			</linearGradient>
			<path class="st22" d="M250.2,107.5l8.5,11.6c-12.1,4.8-25.4,5.5-38,2.2c-8.9-2.4-16.9-7.4-22.9-14.3l-8.5-11.6
				c6.1,6.9,14,11.9,22.9,14.3C224.8,113,238.1,112.2,250.2,107.5z"/>
			<polygon class="st23" points="255.1,105.4 263.6,117 260.5,116.2 252.1,104.5 			"/>
			
				<linearGradient id="SVGID_3_" gradientUnits="userSpaceOnUse" x1="423.8753" y1="317.2914" x2="519.1143" y2="399.9295" gradientTransform="matrix(1 0 0 -1 -203.7553 454.9268)">
				<stop  offset="0" style="stop-color:#D13F05"/>
				<stop  offset="0.2925" style="stop-color:#F67205"/>
				<stop  offset="0.3667" style="stop-color:#F67705"/>
				<stop  offset="0.4526" style="stop-color:#F68505"/>
				<stop  offset="0.5441" style="stop-color:#F69C05"/>
				<stop  offset="0.5638" style="stop-color:#F6A205"/>
				<stop  offset="0.5977" style="stop-color:#F69005"/>
				<stop  offset="0.6432" style="stop-color:#F67F05"/>
				<stop  offset="0.6931" style="stop-color:#F67505"/>
				<stop  offset="0.7553" style="stop-color:#F67205"/>
				<stop  offset="1" style="stop-color:#D13F05"/>
			</linearGradient>
			<path class="st24" d="M294.7,52l8.5,11.6c-0.6,6.7-2.3,13.2-5.2,19.3c-7.1,15.1-19.3,27.2-34.4,34.1l-8.5-11.6
				c15.1-7,27.3-19.1,34.4-34.1C292.4,65.2,294.1,58.7,294.7,52z"/>
			
				<linearGradient id="SVGID_4_" gradientUnits="userSpaceOnUse" x1="388.638" y1="355.4056" x2="493.8404" y2="440.9741" gradientTransform="matrix(1 0 0 -1 -203.7553 454.9268)">
				<stop  offset="0" style="stop-color:#FFFFFF;stop-opacity:0"/>
				<stop  offset="0.2606" style="stop-color:#FFFFFF"/>
				<stop  offset="0.7553" style="stop-color:#FFFFFF"/>
				<stop  offset="1" style="stop-color:#FFFFFF;stop-opacity:0"/>
			</linearGradient>
			<path class="st25" d="M295.3,52.7c-0.6,6.7-2.3,13.2-5.2,19.3c-7.1,15.1-19.3,27.2-34.4,34.1l-3.1-0.9l-1.8,2.9
				c-12.1,4.8-25.4,5.5-38,2.2c-8.9-2.4-16.9-7.4-22.9-14.3l-0.1-5.8l-4.5-0.6c-7.8-13.2-8.8-30.6-1-47.5c2.3-5,5.2-9.7,8.7-14
				c1.8-0.8,3.6-1.7,5.3-2.7l0.8-3.9C213.2,7.6,233.1,0,252,1.9l4.1,3.3l11.5,0.6c17.7,7.4,28,23.9,27.9,42.6l-4.3,3.2L295.3,52.7z"
				/>
			
				<linearGradient id="SVGID_5_" gradientUnits="userSpaceOnUse" x1="481.0471" y1="381.3602" x2="374.3465" y2="426.4323" gradientTransform="matrix(1 0 0 -1 -203.7553 454.9268)">
				<stop  offset="0" style="stop-color:#FFAF02"/>
				<stop  offset="1" style="stop-color:#F56D05"/>
			</linearGradient>
			<path class="st26" d="M294.7,52c-0.6,6.7-2.3,13.2-5.2,19.3c-7.1,15.1-19.3,27.2-34.4,34.1l-3.1-0.9l-1.8,2.9
				c-12.1,4.8-25.4,5.5-38,2.2c-8.9-2.4-16.9-7.4-22.9-14.3l-0.1-5.8l-4.5-0.6c-7.8-13.2-8.8-30.6-1-47.5c2.3-5,5.2-9.7,8.7-14
				c1.8-0.8,3.6-1.7,5.3-2.7l0.8-3.9C212.7,7,232.6-0.6,251.5,1.2l4.1,3.3L267,5.1c17.7,7.4,27.9,23.9,27.9,42.6l-4.3,3.2L294.7,52z
				"/>
			
				<linearGradient id="SVGID_6_" gradientUnits="userSpaceOnUse" x1="401.2896" y1="435.0959" x2="463.2184" y2="375.9017" gradientTransform="matrix(1 0 0 -1 -203.7553 454.9268)">
				<stop  offset="0" style="stop-color:#FFFFFF;stop-opacity:0"/>
				<stop  offset="0.2606" style="stop-color:#FFFFFF"/>
				<stop  offset="0.7553" style="stop-color:#FFFFFF"/>
				<stop  offset="1" style="stop-color:#FFFFFF;stop-opacity:0"/>
			</linearGradient>
			<path class="st27" d="M253.3,17.3c21.3,6,30.6,28.2,20.8,49.7c-9.8,21.4-35,34-56.3,28c-21.3-6-30.6-28.2-20.8-49.7
				S232,11.3,253.3,17.3z"/>
			
				<linearGradient id="SVGID_7_" gradientUnits="userSpaceOnUse" x1="397.8997" y1="398.567" x2="482.8175" y2="398.567" gradientTransform="matrix(1 0 0 -1 -203.7553 454.9268)">
				<stop  offset="0" style="stop-color:#CF4505"/>
				<stop  offset="1" style="stop-color:#E45905"/>
			</linearGradient>
			<path class="st28" d="M254.4,17.5c21.3,6,30.6,28.2,20.8,49.7c-9.8,21.4-35,34-56.3,28c-21.3-6-30.6-28.2-20.8-49.7
				C207.8,24.1,233.1,11.5,254.4,17.5z"/>
			<path class="st29" d="M222.2,95.9c-21.3-6-30.6-28.2-20.8-49.7c9.1-19.9,31.4-32.1,51.5-29c-21-5.1-45.3,7.4-54.9,28.3
				c-9.8,21.4-0.5,43.7,20.8,49.7c1.6,0.4,3.2,0.8,4.8,1C223.2,96.1,222.7,96,222.2,95.9z"/>
			
				<radialGradient id="SVGID_8_" cx="-1649.7061" cy="-158.2246" r="31.7514" gradientTransform="matrix(7.290000e-02 7.410000e-02 0.4921 -0.4845 472.0643 138.2714)" gradientUnits="userSpaceOnUse">
				<stop  offset="0" style="stop-color:#FFFFFF"/>
				<stop  offset="8.578000e-02" style="stop-color:#FFFFFF;stop-opacity:0.9583"/>
				<stop  offset="0.2351" style="stop-color:#FFFFFF;stop-opacity:0.8462"/>
				<stop  offset="0.4301" style="stop-color:#FFFFFF;stop-opacity:0.6642"/>
				<stop  offset="0.6634" style="stop-color:#FFFFFF;stop-opacity:0.4119"/>
				<stop  offset="0.9261" style="stop-color:#FFFFFF;stop-opacity:9.449000e-02"/>
				<stop  offset="1" style="stop-color:#FFFFFF;stop-opacity:0"/>
			</radialGradient>
			<path class="st30" d="M276.3,95c-8.6,8.5-16.7,14.3-17.9,13c-1.3-1.3,4.7-9.2,13.3-17.7c8.6-8.5,16.7-14.3,17.9-13
				C290.8,78.6,284.9,86.5,276.3,95z"/>
			
				<linearGradient id="SVGID_9_" gradientUnits="userSpaceOnUse" x1="426.3927" y1="414.9315" x2="464.677" y2="370.0152" gradientTransform="matrix(1 0 0 -1 -203.7553 454.9268)">
				<stop  offset="0" style="stop-color:#FFFFFF"/>
				<stop  offset="1" style="stop-color:#FFFFFF;stop-opacity:0"/>
			</linearGradient>
			<path class="st31" d="M282.5,15.7l-93.2,77.2l0,2.5c6.1,6.9,14,11.9,22.9,14.3c2.1,0.6,4.3,1.1,6.5,1.4L291.3,51l-0.7-0.2
				l4.3-3.2C295.1,35.8,290.6,24.4,282.5,15.7z"/>
			
				<linearGradient id="SVGID_10_" gradientUnits="userSpaceOnUse" x1="404.0742" y1="435.5907" x2="424.5516" y2="414.8188" gradientTransform="matrix(1 0 0 -1 -203.7553 454.9268)">
				<stop  offset="0" style="stop-color:#FFFFFF"/>
				<stop  offset="1" style="stop-color:#FFFFFF;stop-opacity:0"/>
			</linearGradient>
			<path class="st32" d="M255.5,4.5l-4.1-3.3C245.9,0.7,240.3,1,234.8,2l-52.9,43.8c-3,7.8-4.1,16.1-3.3,24.4l79.1-65.5L255.5,4.5z"
				/>
			<g>
				<defs>
					<rect id="SVGID_11_" x="212.5" y="25.9" width="59.1" height="60.9"/>
				</defs>
				<clipPath id="SVGID_12_">
					<use xlink:href="#SVGID_11_"  style="overflow:visible;"/>
				</clipPath>
				<g class="st33">
					
						<linearGradient id="SVGID_13_" gradientUnits="userSpaceOnUse" x1="2390.833" y1="1577.0011" x2="2390.833" y2="1516.1243" gradientTransform="matrix(1 0 0 1 -2148.7554 -1490.2074)">
						<stop  offset="0" style="stop-color:#FFC000"/>
						<stop  offset="0.28" style="stop-color:#FFC000"/>
						<stop  offset="0.55" style="stop-color:#DAA600"/>
						<stop  offset="1" style="stop-color:#DAA600"/>
					</linearGradient>
					<path class="st34" d="M222.9,50.7c-0.3-0.3-0.5-0.5-0.7-0.8c-2.5-3.1-4.3-6.6-5.3-10.5c-0.7-2.7-0.9-5.5-0.6-8.3
						c0.1-1.5,0.5-2.9,1.2-4.2c0.4-0.8,1.3-1.2,2.1-0.8c0,0,0,0,0,0c1.8,0.7,3.4,2,4.5,3.6c2.8,3.6,4.6,7.8,5.4,12.3
						c0.3,1.4,0.3,2.8,0.4,4.2c0,0.5,0.1,1.1,0.1,1.6c0.1,0.4,0.2,0.7,0.8,0.6c2-0.3,3.9-0.1,5.8,0.4c1.7,0.4,3.3,1,4.8,1.6
						c2.3,0.9,4.3,2.3,5.9,4.1c0.2,0.3,0.5,0.3,0.8,0.2c0,0,0,0,0,0c0,0,0.1-0.1,0.1-0.1c0.4-0.4,0.8-0.8,1.1-1.2
						c3.7-4.2,8.5-7.2,13.9-8.7c1.7-0.5,3.5-0.7,5.3-0.5c0.8,0.1,1.6,0.3,2.3,0.7c0.3,0.2,0.5,0.6,0.6,1c0,0.5,0,1-0.2,1.5
						c-0.7,2.1-1.9,4-3.5,5.6c-3.8,4.3-8.9,7.1-14.5,8.2c-0.4,0.1-0.8,0.1-1.3,0.2c0.1,0.3,0.1,0.6,0.2,0.9c0.6,1.9,0.8,4,0.7,6
						c0,2.4-0.4,4.7-1.2,7c-0.8,2.6-2.1,5-3.9,7.2c-1.7,2-3.9,3.3-6.5,3.9c-1.8,0.5-3.7,0.6-5.5,0.5c-1.8-0.2-3.6-0.5-5.4-1
						c-1.8-0.5-3.6-1.1-5.4-1.9c-2.9-1.1-5.6-2.6-8-4.7c-2.4-2-4.1-4.9-4.6-8c-0.1-1.5-0.1-3,0.1-4.4c0.2-1.9,0.8-3.8,1.5-5.6
						c1.1-2.8,2.9-5.4,5-7.5c1-1,2.2-1.8,3.3-2.7L222.9,50.7z M224.8,72.4l0,0.2c-2-0.2-2.4,1.3-2.1,2.7c0,0.2,0.1,0.5,0.2,0.7
						c0.4,1.7,1.5,3.1,3,3.9c1.4,0.7,3,1.3,4.6,1.7c2.2,0.7,4.7,0.1,6.3-1.5c0.8-0.5,1.1-1.5,0.6-2.4c-0.1-0.2-0.3-0.3-0.4-0.5
						c-0.9-0.7-1.9-1.3-3-1.8c-1.7-0.8-3.5-1.4-5.3-2C227.4,73,226.1,72.8,224.8,72.4L224.8,72.4z M223.2,57.1c0-1.4-0.5-2-1.5-2.2
						c-0.8-0.2-1.7,0.2-2.1,0.9c-2,2.5-3.6,5.4-4.5,8.5c-0.1,0.5-0.2,1-0.1,1.5c0.1,0.9,1,1.6,1.9,1.5c0.5-0.1,0.9-0.3,1.2-0.7
						c0.7-1,1.4-2,2-3.1c0.8-1.4,1.5-2.8,2.2-4.3C222.6,58.5,222.9,57.8,223.2,57.1L223.2,57.1z M251.5,68.2c0-0.6-0.1-1.1-0.2-1.7
						c-0.3-1-1.3-1.6-2.3-1.3c0,0,0,0,0,0c-0.1,0-0.1,0-0.2,0.1c-0.7,0.3-1.2,1-1.3,1.8c-0.6,2.6-1.2,5.2-1.8,7.8
						c-0.2,0.8-0.2,1.6,0,2.4c0.2,0.9,1,1.5,1.9,1.3c0.2,0,0.4-0.1,0.6-0.2c0.6-0.4,1.1-1,1.3-1.7c0.5-1.5,1-2.9,1.3-4.4
						C251.1,70.8,251.3,69.4,251.5,68.2L251.5,68.2z"/>
				</g>
			</g>
		</g>
	</g>
</g>
</svg>
