<?xml version="1.0" encoding="utf-8"?>
<!-- Generator: Adobe Illustrator 25.2.1, SVG Export Plug-In . SVG Version: 6.00 Build 0)  -->
<svg version="1.1" id="Layer_1" xmlns="http://www.w3.org/2000/svg" xmlns:xlink="http://www.w3.org/1999/xlink" x="0px" y="0px"
	 viewBox="0 0 512 512" style="enable-background:new 0 0 512 512;" xml:space="preserve">
<style type="text/css">
	.st0{fill:#4C5C75;}
	.st1{fill:#C9CEE2;}
	.st2{fill:#B0B8CF;}
	.st3{fill:#E3E7F0;}
	.st4{fill:#423D9B;}
	.st5{fill:#FFFFFF;}
	.st6{opacity:0.6;}
	.st7{fill:#57B3FE;}
	.st8{fill:#F45170;}
	.st9{fill:#FFD06C;}
	.st10{fill:#DEDFFB;}
	.st11{fill:#1D2943;}
	.st12{fill:#F8F9FE;}
	.st13{enable-background:new    ;}
	.st14{fill:#E9E7FC;}
	.st15{fill:#DBA660;}
	.st16{fill:#78E75A;}
	.st17{fill:#F3F1FC;}
	.st18{fill:#DF3260;}
	.st19{fill:#6BB4F9;}
	.st20{fill:#D84905;}
	.st21{fill:url(#SVGID_1_);}
	.st22{fill:#F67205;}
	.st23{fill:url(#SVGID_2_);}
	.st24{fill:#F69D05;}
	.st25{fill:url(#SVGID_3_);}
	.st26{opacity:0.7;fill:url(#SVGID_4_);enable-background:new    ;}
	.st27{fill:url(#SVGID_5_);}
	.st28{opacity:0.7;fill:url(#SVGID_6_);enable-background:new    ;}
	.st29{fill:url(#SVGID_7_);}
	.st30{fill:#BA3E05;}
	.st31{opacity:0.5;fill:url(#SVGID_8_);enable-background:new    ;}
	.st32{opacity:0.4;fill:url(#SVGID_9_);enable-background:new    ;}
	.st33{opacity:0.4;fill:url(#SVGID_10_);enable-background:new    ;}
	.st34{clip-path:url(#SVGID_12_);}
	.st35{fill-rule:evenodd;clip-rule:evenodd;fill:url(#SVGID_13_);}
</style>
<g>
	<path class="st0" d="M286.6,266.9c-0.7,0-1.3-0.4-1.7-1c-0.5-0.9-0.2-2.1,0.7-2.7l65.7-37.9c0.9-0.5,2.1-0.2,2.7,0.7
		c0.5,0.9,0.2,2.1-0.7,2.7l-65.7,37.9C287.3,266.8,286.9,266.9,286.6,266.9z"/>
</g>
<g>
	<path class="st0" d="M402.2,493.3c-2,0-4-0.5-5.6-1.4l-72.8-42.7c-1.8-1.1-2.9-2.7-2.9-4.4c0-1.7,1-3.3,2.8-4.3l72.4-42.8
		c3.1-1.8,8-1.8,11.1,0l72.8,42.7c1.9,1.1,2.9,2.7,2.9,4.4c0,1.7-1,3.3-2.8,4.3l-72.4,42.8C406.1,492.8,404.2,493.3,402.2,493.3z
		 M401.5,400.2c-1.3,0-2.6,0.3-3.5,0.8l-72.4,42.7c-0.6,0.4-0.9,0.7-0.9,0.9c0,0.2,0.3,0.6,1,1l72.8,42.7c2,1.2,5.2,1.2,7.1,0
		l72.4-42.8c0.7-0.4,0.9-0.8,0.9-0.9c0-0.2-0.2-0.6-1-1l0,0l-72.8-42.7C404.2,400.5,402.9,400.2,401.5,400.2z"/>
</g>
<g>
	<g>
		<g>
			<g>
				<g>
					<g>
						<g>
							<g>
								<g>
									<g>
										<path class="st1" d="M470.9,437c2.3,1.4,2.3,3.5,0.1,4.8L406.2,480c-2.2,1.3-5.8,1.3-8.2,0l-65.1-38.2
											c-2.3-1.3-2.3-3.5-0.1-4.8l64.8-38.2c2.2-1.3,5.9-1.3,8.2,0L470.9,437z"/>
									</g>
								</g>
							</g>
						</g>
					</g>
					<g>
						<g>
							<g>
								<g>
									<path class="st2" d="M481,401.5l-0.1,33c0,1.1-0.7,2-1.9,2.7L406.6,480c-2.6,1.5-6.6,1.5-9.2,0l-72.9-42.8
										c-1.3-0.7-2-1.7-2-2.8l0.2-33c0-1,0.6-2,1.8-2.7L397,356c2.5-1.5,6.6-1.4,9.1,0.1l72.9,42.6
										C480.3,399.5,481,400.5,481,401.5z"/>
								</g>
							</g>
						</g>
					</g>
					<g>
						<g>
							<g>
								<g>
									<path class="st2" d="M481,401.5l-0.1,33c0,1-0.7,2-1.9,2.6l-72.4,42.8c-2.5,1.5-6.5,1.5-9.1,0l-72.8-42.8
										c-1.2-0.7-1.9-1.7-1.9-2.8l0.1-33c0,1,0.7,2.1,1.9,2.8l72.8,42.8c2.6,1.5,6.7,1.5,9.1,0l72.4-42.8
										C480.3,403.4,481,402.5,481,401.5z"/>
								</g>
							</g>
						</g>
					</g>
					<g>
						<g>
							<g>
								<g>
									<path class="st3" d="M479,398.8c2.6,1.5,2.6,3.9,0.1,5.4l-72.4,42.7c-2.5,1.5-6.5,1.5-9.1,0l-72.8-42.7
										c-2.5-1.5-2.6-3.9-0.1-5.4l72.4-42.7c2.5-1.5,6.6-1.4,9.1,0L479,398.8z"/>
								</g>
							</g>
						</g>
					</g>
					<g>
						<g>
							<g>
								<g>
									<g>
										<path class="st4" d="M474.8,391.9l-0.1,10.6c0,1-0.6,1.8-1.8,2.4l-66.7,39.4c-2.3,1.4-6,1.4-8.4,0l-67.1-39.4
											c-1.1-0.6-1.8-1.6-1.8-2.5l0.1-10.6c0,1,0.6,1.9,1.8,2.5l67.1,39.4c2.4,1.4,6.1,1.4,8.4,0l66.7-39.4
											C474.2,393.7,474.8,392.8,474.8,391.9z"/>
									</g>
								</g>
							</g>
						</g>
						<g>
							<g>
								<g>
									<g>
										<path class="st1" d="M470.9,394.6c2.3,1.4,2.3,3.5,0.1,4.8l-64.8,38.2c-2.2,1.3-5.8,1.3-8.2,0l-65.1-38.2
											c-2.3-1.3-2.3-3.5-0.1-4.8l64.8-38.2c2.2-1.3,5.9-1.3,8.2,0L470.9,394.6z"/>
									</g>
								</g>
							</g>
						</g>
					</g>
					<g>
						<g>
							<g>
								<g>
									<path class="st2" d="M481,359.2l-0.1,33c0,1-0.7,1.9-1.9,2.6l-72.4,42.8c-2.6,1.5-6.6,1.5-9.2,0l-72.9-42.8
										c-1.3-0.7-2-1.7-2-2.8l0.2-33c0-0.9,0.6-1.9,1.8-2.6l72.5-42.7c2.5-1.5,6.6-1.5,9.1,0l72.9,42.7
										C480.3,357.2,481,358.2,481,359.2z"/>
								</g>
							</g>
						</g>
					</g>
					<g>
						<g>
							<g>
								<g>
									<path class="st2" d="M481,359.1l-0.1,33c0,1-0.7,2-1.9,2.6l-72.4,42.8c-2.5,1.5-6.5,1.5-9.1,0l-72.8-42.8
										c-1.2-0.7-1.9-1.7-1.9-2.8l0.1-33c0,1,0.7,2.1,1.9,2.8l72.8,42.8c2.6,1.5,6.7,1.5,9.1,0l72.4-42.8
										C480.3,361,481,360.1,481,359.1z"/>
								</g>
							</g>
						</g>
					</g>
					<g>
						<g>
							<g>
								<g>
									<path class="st3" d="M479,356.4c2.6,1.5,2.6,3.9,0.1,5.4l-72.4,42.7c-2.5,1.5-6.5,1.5-9.1,0l-72.8-42.7
										c-2.5-1.5-2.6-3.9-0.1-5.4l72.4-42.7c2.5-1.5,6.6-1.4,9.1,0L479,356.4z"/>
								</g>
							</g>
						</g>
					</g>
					<g>
						<g>
							<g>
								<g>
									<path class="st1" d="M402.1,395.7c-1.6,0-3.3-0.4-4.6-1.2l-53.6-31.4c-1.6-1-2.6-2.5-2.6-4.1s0.9-3,2.5-4l53.3-31.5
										c2.6-1.5,6.5-1.5,9.1,0l53.6,31.4c1.7,1,2.6,2.5,2.6,4.1s-0.9,3-2.5,4l-53.3,31.5C405.3,395.3,403.7,395.7,402.1,395.7z"/>
								</g>
							</g>
						</g>
					</g>
				</g>
			</g>
			<g>
				<g>
					<g>
						<g>
							<path class="st5" d="M475,416.2V433l-66.4,38.4v-16.8L475,416.2z"/>
						</g>
					</g>
				</g>
			</g>
			<g>
				<g>
					<g>
						<g>
							<path class="st5" d="M475,373.4v16.8l-66.4,38.4v-16.8L475,373.4z"/>
						</g>
					</g>
				</g>
			</g>
		</g>
	</g>
	<g>
		<g>
			<g>
				<path class="st0" d="M340.8,379.6v17.3l-5.4-3.1v-17.3L340.8,379.6z"/>
			</g>
		</g>
		<g>
			<g>
				<path class="st0" d="M350.3,385.1v17.3l-5.4-3.1V382L350.3,385.1z"/>
			</g>
		</g>
		<g>
			<g>
				<path class="st0" d="M359.8,390.6v17.3l-5.4-3.1v-17.3L359.8,390.6z"/>
			</g>
		</g>
	</g>
	<g>
		<g>
			<g>
				<path class="st0" d="M340.8,422v17.3l-5.4-3.1v-17.3L340.8,422z"/>
			</g>
		</g>
		<g>
			<g>
				<path class="st0" d="M350.3,427.5v17.3l-5.4-3.1v-17.3L350.3,427.5z"/>
			</g>
		</g>
		<g>
			<g>
				<path class="st0" d="M359.8,433v17.3l-5.4-3.1v-17.3L359.8,433z"/>
			</g>
		</g>
	</g>
</g>
<g>
	<g>
		<path class="st2" d="M436.8,362.3c-1.5,3.5-4.6,6.9-9.4,9.6c-14,8.1-36.8,8.1-50.8,0c-4.9-2.8-8.1-6.2-9.6-9.8
			c-2.9-6.8,0.3-14.3,9.4-19.6c14-8.1,36.8-8.1,50.8,0C436.5,347.9,439.7,355.4,436.8,362.3z"/>
	</g>
</g>
<g>
	<path class="st5" d="M414.2,367.3c-1.3,0.8-2.8,1.4-4.4,1.8c-1.2,0.4-2.4,0.6-3.7,0.8c-0.6,0.1-1.3,0.2-1.9,0.2
		c-3.5,0.3-7.1-0.1-10.3-1c-1.5-0.4-3-1.1-4.3-1.8c-6.8-3.9-6.9-10.3-0.1-14.2c1.3-0.8,2.8-1.4,4.4-1.9c3.2-1,6.8-1.3,10.3-1
		c0.6,0,1.3,0.1,1.9,0.2c1.3,0.2,2.5,0.5,3.7,0.8c1.5,0.4,3,1.1,4.3,1.8C421,357,421,363.4,414.2,367.3z"/>
</g>
<g class="st6">
	<path class="st7" d="M362.2,317.2l22.6,44.9c0,0.1,0.1,0.2,0.2,0.2c0.7,1.9,2.2,3.6,4.6,5.1c1.3,0.7,2.8,1.4,4.3,1.8
		c3.3,1,6.8,1.4,10.3,1.1c0.7-0.1,1.3-0.1,2-0.2c1.3-0.2,2.5-0.5,3.7-0.9c1.5-0.4,3-1.1,4.4-1.8c2.4-1.4,4-3.2,4.6-5.1
		c0.1-0.1,0.1-0.1,0.1-0.2l22.6-44.9H362.2z"/>
</g>
<g>
	<g>
		<g>
			<g>
				<g>
					<g>
						<g>
							<path class="st8" d="M469.3,424c-1.9,1.1-3.3,3.7-3.3,5.8c0,2.1,1.5,3,3.4,1.9c1.8-1.1,3.3-3.6,3.3-5.8
								C472.7,423.8,471.2,422.9,469.3,424z"/>
						</g>
					</g>
				</g>
			</g>
		</g>
		<g>
			<g>
				<g>
					<g>
						<g>
							<path class="st8" d="M414.3,455.9c-1.9,1.1-3.3,3.7-3.3,5.8c0,2.1,1.5,3,3.4,1.9c1.8-1.1,3.3-3.6,3.3-5.8
								C417.7,455.7,416.2,454.8,414.3,455.9z"/>
						</g>
					</g>
				</g>
			</g>
		</g>
	</g>
	<g>
		<g>
			<g>
				<g>
					<path class="st9" d="M460.6,428.8c1.3-0.7,2.2-0.2,2.2,1.3v3.3c0,1.4-0.9,3-2.2,3.8l-37.5,21.7c-1.3,0.7-2.2,0.1-2.2-1.3v-3.3
						c0-1.4,0.9-3,2.2-3.8L460.6,428.8z"/>
				</g>
			</g>
		</g>
	</g>
</g>
<g>
	<g>
		<g>
			<g>
				<g>
					<g>
						<g>
							<path class="st8" d="M469.3,381.1c-1.9,1.1-3.3,3.7-3.3,5.8c0,2.1,1.5,3,3.4,1.9c1.8-1.1,3.3-3.6,3.3-5.8
								C472.7,380.9,471.2,380.1,469.3,381.1z"/>
						</g>
					</g>
				</g>
			</g>
		</g>
		<g>
			<g>
				<g>
					<g>
						<g>
							<path class="st8" d="M414.3,413c-1.9,1.1-3.3,3.7-3.3,5.8c0,2.1,1.5,3,3.4,1.9c1.8-1.1,3.3-3.6,3.3-5.8
								C417.7,412.8,416.2,412,414.3,413z"/>
						</g>
					</g>
				</g>
			</g>
		</g>
	</g>
	<g>
		<g>
			<g>
				<g>
					<path class="st9" d="M460.6,385.9c1.3-0.7,2.2-0.2,2.2,1.3v3.3c0,1.4-0.9,3-2.2,3.8L423.1,416c-1.3,0.7-2.2,0.1-2.2-1.3v-3.3
						c0-1.4,0.9-3,2.2-3.8L460.6,385.9z"/>
				</g>
			</g>
		</g>
	</g>
</g>
<g>
	<g>
		<g>
			<g>
				<g>
					<g>
						<g>
							<path class="st0" d="M148,413.7c-2.9,0-5.8-0.7-8-2L29,347.2c-0.6-0.4-1-1-1-1.7s0.4-1.4,1-1.7l189.5-109.4
								c0.6-0.4,1.4-0.4,2,0l111.1,64.5c2.5,1.4,3.9,3.5,3.9,5.7c0,2.3-1.4,4.3-3.9,5.8L156,411.7C153.8,413,150.9,413.7,148,413.7z
								 M33.9,345.5L142,408.3c3.2,1.9,8.8,1.9,12,0L329.5,307c1.2-0.7,1.9-1.6,1.9-2.4s-0.7-1.6-1.9-2.3l-110.1-64L33.9,345.5z"/>
						</g>
					</g>
				</g>
			</g>
			<g>
				<g>
					<g>
						<g>
							<g>
								<g>
									<g>
										<g>
											<path class="st10" d="M327.1,269.4l-108.5-63.1L33.5,313.2l0,0l0,0l-0.1,18.1l108.5,63.1c3.8,2.2,9.9,2.2,13.7,0
												l171.4-99c1.9-1.1,2.9-2.6,2.9-4v-18C330,272,329.1,270.5,327.1,269.4z"/>
										</g>
										<g>
											<path class="st11" d="M214.4,69.1c-0.1,0-0.2-0.1-0.4-0.1C214.2,69,214.3,69.1,214.4,69.1z"/>
										</g>
										<g>
											<g>
												<g>
													<g>
														<g>
															<g>
																<g>
																	<path class="st0" d="M76.7,287.5c0,0.8-0.3,1.4-0.8,1.7L57.4,300c0.5-0.3-1.7-0.4-1.7-1.2c0-1.7,0.4-2.7-1-3.5
																		c-0.7-0.4-0.5-2-1-1.7l18.6-10.8c0.5-0.3,1.1-0.2,1.9,0.2C75.5,283.8,76.7,285.8,76.7,287.5z"/>
																</g>
															</g>
														</g>
														<g>
															<g>
																<g>
																	<path class="st11" d="M55.5,293.7c1.5,0.8,2.6,2.9,2.6,4.6s-1.2,2.3-2.7,1.5s-2.6-2.9-2.6-4.5
																		C52.9,293.6,54.1,292.9,55.5,293.7z"/>
																</g>
															</g>
														</g>
													</g>
													<g>
														<g>
															<g>
																<g>
																	<path class="st0" d="M196.7,217.8c0,0.8-0.3,1.4-0.8,1.7l-18.6,10.8c0.5-0.3-0.9-0.9-0.9-1.7c0-1.7-0.7-2.2-2.1-3
																		c-0.7-0.4-0.2-2-0.7-1.7l18.6-10.8c0.5-0.3,1.1-0.2,1.9,0.2C195.5,214.1,196.7,216.1,196.7,217.8z"/>
																</g>
															</g>
														</g>
														<g>
															<g>
																<g>
																	<path class="st11" d="M175.5,224c1.5,0.8,2.6,2.9,2.6,4.6c0,1.7-1.2,2.3-2.7,1.5s-2.6-2.9-2.6-4.5
																		C172.8,223.8,174,223.2,175.5,224z"/>
																</g>
															</g>
														</g>
													</g>
													<g>
														<g>
															<g>
																<g>
																	<path class="st11" d="M216.2,69.5c-1.2-0.7,1.3,2.4-0.6,3.5L33.4,306.3L19.1,298l-0.4-125.5c0-4.4,3-9.6,6.8-11.8
																		l171.4-99c1.9-1.1,3.7-1.2,4.9-0.5L216.2,69.5z"/>
																</g>
															</g>
														</g>
													</g>
													<g>
														<g>
															<g>
																<path class="st0" d="M218.6,199.4L33.4,306.3L33,180.8c0-4.4,3-9.6,6.8-11.8l171.4-99c3.8-2.2,6.9-0.4,6.9,3.9
																	L218.6,199.4z"/>
															</g>
														</g>
													</g>
													<g>
														<g>
															<g>
																<g>
																	<path class="st10" d="M329.9,273.4v18.1c0,1.4-1,2.9-2.9,4l-171.4,99c-3.8,2.2-10,2.2-13.7,0L33.4,331.4l0.1-18.1
																		C33.4,313.2,329.9,274.8,329.9,273.4z"/>
																</g>
															</g>
														</g>
													</g>
													<g>
														<g>
															<g>
																<g>
																	<path class="st12" d="M33.5,313.2L142,376.3c3.8,2.2,9.9,2.2,13.7,0l171.4-99c3.8-2.2,3.8-5.7,0.1-7.9l-108.5-63.1
																		L33.5,313.2z"/>
																</g>
															</g>
														</g>
													</g>
													<g>
														<g>
															<g>
																<path class="st10" d="M174.4,322.8l24.3,14c2.1,1.2,4.6,1.2,6.6,0l52.6-30.5c0.8-0.4,1.3-1.1,1.5-1.9
																	c-0.2-0.7-0.7-1.4-1.5-1.9l-24.3-14c-2.1-1.2-4.6-1.2-6.7,0L174.3,319c-0.8,0.4-1.3,1.1-1.5,1.9
																	C173.2,321.7,173.7,322.4,174.4,322.8z"/>
															</g>
														</g>
													</g>
													<g>
														<g>
															<g>
																<g>
																	<path class="st0" d="M176.6,284.3c-0.4,0.3-0.4,0.7,0,0.9l8.4,4.9c0.4,0.3,1.1,0.3,1.6,0l8.4-4.9
																		c0.4-0.3,0.4-0.7,0-0.9l-8.4-4.9c-0.4-0.3-1.1-0.3-1.6,0L176.6,284.3z"/>
																</g>
															</g>
														</g>
														<g>
															<g>
																<g>
																	<path class="st0" d="M121.4,331.8c-0.4,0.3-0.4,0.7,0,0.9l8.4,4.9c0.4,0.3,1.1,0.3,1.6,0l8.4-4.9
																		c0.4-0.3,0.4-0.7,0-0.9l-8.4-4.9c-0.4-0.3-1.1-0.2-1.6,0L121.4,331.8z"/>
																</g>
															</g>
														</g>
														<g>
															<g>
																<g>
																	<path class="st0" d="M135.1,323.9c-0.4,0.3-0.4,0.7,0,0.9l8.4,4.9c0.4,0.3,1.1,0.3,1.6,0l8.4-4.9
																		c0.4-0.3,0.4-0.7,0-0.9l-8.4-4.9c-0.4-0.3-1.1-0.3-1.6,0L135.1,323.9z"/>
																</g>
															</g>
														</g>
														<g>
															<g>
																<g>
																	<path class="st0" d="M148.9,315.9c-0.4,0.3-0.4,0.7,0,0.9l8.4,4.9c0.4,0.3,1.1,0.3,1.6,0l77.2-44.6
																		c0.4-0.3,0.4-0.7,0-0.9l-8.4-4.9c-0.4-0.3-1.1-0.2-1.6,0L148.9,315.9z"/>
																</g>
															</g>
														</g>
														<g>
															<g>
																<g>
																	<path class="st0" d="M162.9,292.2c-0.4,0.3-0.4,0.7,0,0.9l8.4,4.9c0.4,0.3,1.1,0.3,1.6,0l8.4-4.9
																		c0.4-0.3,0.4-0.7,0-0.9l-8.4-4.9c-0.4-0.3-1.1-0.3-1.6,0L162.9,292.2z"/>
																</g>
															</g>
														</g>
														<g>
															<g>
																<g>
																	<path class="st0" d="M149.1,300.2c-0.4,0.3-0.4,0.7,0,0.9l8.4,4.9c0.4,0.3,1.1,0.3,1.6,0l8.4-4.9
																		c0.4-0.3,0.4-0.7,0-0.9l-8.4-4.9c-0.4-0.3-1.1-0.3-1.6,0L149.1,300.2z"/>
																</g>
															</g>
														</g>
														<g>
															<g>
																<g>
																	<path class="st0" d="M135.7,292.3c-0.4,0.3-0.4,0.7,0,0.9l8.4,4.9c0.4,0.3,1.1,0.3,1.6,0l8.4-4.9
																		c0.4-0.3,0.4-0.7,0-0.9l-8.4-4.9c-0.4-0.3-1.1-0.3-1.6,0L135.7,292.3z"/>
																</g>
															</g>
														</g>
														<g>
															<g>
																<g>
																	<path class="st0" d="M121.9,300.3c-0.4,0.3-0.4,0.7,0,0.9l8.4,4.9c0.4,0.3,1.1,0.3,1.6,0l8.4-4.9
																		c0.4-0.3,0.4-0.7,0-0.9l-8.4-4.9c-0.4-0.3-1.1-0.3-1.6,0L121.9,300.3z"/>
																</g>
															</g>
														</g>
														<g>
															<g>
																<g>
																	<path class="st0" d="M80.9,308.3c-0.4,0.3-0.4,0.7,0,0.9l8.4,4.9c0.4,0.3,1.1,0.3,1.6,0l8.4-4.9
																		c0.4-0.3,0.4-0.7,0-0.9l-8.4-4.9c-0.4-0.3-1.1-0.3-1.6,0L80.9,308.3z"/>
																</g>
															</g>
														</g>
														<g>
															<g>
																<g>
																	<path class="st0" d="M94.4,316.1c-0.4,0.3-0.4,0.7,0,0.9l8.4,4.9c0.4,0.3,1.1,0.3,1.6,0l22.2-12.8
																		c0.4-0.3,0.4-0.7,0-0.9l-8.4-4.9c-0.4-0.3-1.1-0.3-1.6,0L94.4,316.1z"/>
																</g>
															</g>
														</g>
														<g>
															<g>
																<g>
																	<path class="st0" d="M107.9,324c-0.4,0.3-0.4,0.7,0,0.9l8.4,4.9c0.4,0.3,1.1,0.3,1.6,0l35.9-20.7
																		c0.4-0.3,0.4-0.7,0-0.9l-8.4-4.9c-0.4-0.3-1.1-0.3-1.6,0L107.9,324z"/>
																</g>
															</g>
														</g>
														<g>
															<g>
																<g>
																	<path class="st0" d="M94.7,300.4c-0.4,0.3-0.4,0.7,0,0.9l8.4,4.9c0.4,0.3,1.1,0.3,1.6,0l8.4-4.9
																		c0.4-0.3,0.4-0.7,0-0.9l-8.4-4.9c-0.4-0.3-1.1-0.3-1.6,0L94.7,300.4z"/>
																</g>
															</g>
														</g>
														<g>
															<g>
																<g>
																	<path class="st0" d="M108.4,292.4c-0.4,0.3-0.4,0.7,0,0.9l8.4,4.9c0.4,0.3,1.1,0.3,1.6,0l8.4-4.9
																		c0.4-0.3,0.4-0.7,0-0.9l-8.4-4.9c-0.4-0.3-1.1-0.3-1.6,0L108.4,292.4z"/>
																</g>
															</g>
														</g>
														<g>
															<g>
																<g>
																	<path class="st0" d="M122.2,284.5c-0.4,0.3-0.4,0.7,0,0.9l8.4,4.9c0.4,0.3,1.1,0.3,1.6,0l8.4-4.9
																		c0.4-0.3,0.4-0.7,0-0.9l-8.4-4.9c-0.4-0.3-1.1-0.3-1.6,0L122.2,284.5z"/>
																</g>
															</g>
														</g>
														<g>
															<g>
																<g>
																	<path class="st0" d="M149.4,284.4c-0.4,0.3-0.4,0.7,0,0.9l8.4,4.9c0.4,0.3,1.1,0.3,1.6,0l8.4-4.9
																		c0.4-0.3,0.4-0.7,0-0.9l-8.4-4.9c-0.4-0.3-1.1-0.3-1.6,0L149.4,284.4z"/>
																</g>
															</g>
														</g>
														<g>
															<g>
																<g>
																	<path class="st0" d="M135.9,276.6c-0.4,0.3-0.4,0.7,0,0.9l8.4,4.9c0.4,0.3,1.1,0.3,1.6,0l8.4-4.9
																		c0.4-0.3,0.4-0.7,0-0.9l-8.4-4.9c-0.4-0.3-1.1-0.3-1.6,0L135.9,276.6z"/>
																</g>
															</g>
														</g>
														<g>
															<g>
																<g>
																	<path class="st0" d="M204.1,268.4c-0.4,0.3-0.4,0.7,0,0.9l8.4,4.9c0.4,0.3,1.1,0.3,1.6,0l8.4-4.9
																		c0.4-0.3,0.4-0.7,0-0.9l-8.4-4.9c-0.4-0.3-1.1-0.3-1.6,0L204.1,268.4z"/>
																</g>
															</g>
														</g>
														<g>
															<g>
																<g>
																	<path class="st0" d="M190.4,276.3c-0.4,0.3-0.4,0.7,0,0.9l8.4,4.9c0.4,0.3,1.1,0.2,1.6,0l8.4-4.9
																		c0.4-0.3,0.4-0.7,0-0.9l-8.4-4.9c-0.4-0.3-1.1-0.3-1.6,0L190.4,276.3z"/>
																</g>
															</g>
														</g>
														<g class="st13">
															<g>
																<g>
																	<g>
																		<path class="st0" d="M177.2,252.8c-0.4,0.3-0.4,0.7,0,0.9l8.4,4.9c0.4,0.3,1.1,0.3,1.6,0l8.4-4.9
																			c0.4-0.3,0.4-0.7,0-0.9l-8.4-4.9c-0.4-0.3-1.1-0.3-1.6,0L177.2,252.8z"/>
																	</g>
																</g>
															</g>
															<g>
																<g>
																	<g>
																		<path class="st0" d="M190.6,260.6c-0.4,0.3-0.4,0.7,0,0.9l8.4,4.9c0.4,0.3,1.1,0.3,1.6,0l8.4-4.9
																			c0.4-0.3,0.4-0.7,0-0.9l-8.4-4.9c-0.4-0.3-1.1-0.2-1.6,0L190.6,260.6z"/>
																	</g>
																</g>
															</g>
															<g>
																<g>
																	<g>
																		<path class="st0" d="M163.4,260.7c-0.4,0.3-0.4,0.7,0,0.9l8.4,4.9c0.4,0.3,1.1,0.2,1.6,0l8.4-4.9
																			c0.4-0.3,0.4-0.7,0-0.9l-8.4-4.9c-0.4-0.3-1.1-0.3-1.6,0L163.4,260.7z"/>
																	</g>
																</g>
															</g>
															<g>
																<g>
																	<g>
																		<path class="st0" d="M176.9,268.5c-0.4,0.3-0.4,0.7,0,0.9l8.4,4.9c0.4,0.3,1.1,0.3,1.6,0l8.4-4.9
																			c0.4-0.3,0.4-0.7,0-0.9l-8.4-4.9c-0.4-0.3-1.1-0.2-1.6,0L176.9,268.5z"/>
																	</g>
																</g>
															</g>
															<g>
																<g>
																	<g>
																		<path class="st0" d="M149.7,268.6c-0.4,0.3-0.4,0.7,0,0.9l8.4,4.9c0.4,0.3,1.1,0.3,1.6,0l8.4-4.9
																			c0.4-0.3,0.4-0.7,0-0.9l-8.4-4.9c-0.4-0.3-1.1-0.3-1.6,0L149.7,268.6z"/>
																	</g>
																</g>
															</g>
															<g>
																<g>
																	<g>
																		<path class="st0" d="M163.2,276.5c-0.4,0.3-0.4,0.7,0,0.9l8.4,4.9c0.4,0.3,1.1,0.3,1.6,0l8.4-4.9
																			c0.4-0.3,0.4-0.7,0-0.9l-8.4-4.9c-0.4-0.3-1.1-0.3-1.6,0L163.2,276.5z"/>
																	</g>
																</g>
															</g>
														</g>
														<g>
															<g>
																<g>
																	<path class="st0" d="M231.3,268.3c-0.4,0.3-0.4,0.7,0,0.9l8.4,4.9c0.4,0.3,1.1,0.3,1.6,0l8.4-4.9
																		c0.4-0.3,0.4-0.7,0-0.9l-8.4-4.9c-0.4-0.3-1.1-0.3-1.6,0L231.3,268.3z"/>
																</g>
															</g>
														</g>
														<g class="st13">
															<g>
																<g>
																	<g>
																		<path class="st0" d="M204.7,236.9c-0.4,0.3-0.4,0.7,0,0.9l8.4,4.9c0.4,0.3,1.1,0.3,1.6,0l8.4-4.9
																			c0.4-0.3,0.4-0.7,0-0.9l-8.4-4.9c-0.4-0.3-1.1-0.3-1.6,0L204.7,236.9z"/>
																	</g>
																</g>
															</g>
															<g>
																<g>
																	<g>
																		<path class="st0" d="M190.9,244.8c-0.4,0.3-0.4,0.7,0,0.9l8.4,4.9c0.4,0.3,1.1,0.3,1.6,0l8.4-4.9
																			c0.4-0.3,0.4-0.7,0-0.9l-8.4-4.9c-0.4-0.3-1.1-0.3-1.6,0L190.9,244.8z"/>
																	</g>
																</g>
															</g>
															<g>
																<g>
																	<g>
																		<path class="st0" d="M204.4,252.6c-0.4,0.3-0.4,0.7,0,0.9l8.4,4.9c0.4,0.3,1.1,0.3,1.6,0l13-7.5l12.7,7.4
																			c0.4,0.3,1.1,0.3,1.6,0l8.4-4.9c0.4-0.3,0.4-0.7,0-0.9l-21.9-12.7c-0.4-0.3-1.1-0.3-1.6,0L204.4,252.6z"/>
																	</g>
																</g>
															</g>
														</g>
														<g>
															<g>
																<g>
																	<path class="st0" d="M217.9,260.5c-0.4,0.3-0.4,0.7,0,0.9l8.4,4.9c0.4,0.3,1.1,0.3,1.6,0l8.4-4.9
																		c0.4-0.3,0.4-0.7,0-0.9l-8.4-4.9c-0.4-0.3-1.1-0.3-1.6,0L217.9,260.5z"/>
																</g>
															</g>
														</g>
														<g>
															<g>
																<g>
																	<path class="st0" d="M245.1,260.4c-0.4,0.3-0.4,0.7,0,0.9l8.4,4.9c0.4,0.3,1.1,0.3,1.6,0l8.4-4.9
																		c0.4-0.3,0.4-0.7,0-0.9l-8.4-4.9c-0.4-0.3-1.1-0.3-1.6,0L245.1,260.4z"/>
																</g>
															</g>
														</g>
													</g>
													<g>
														<g>
															<g>
																<g>
																	<path class="st10" d="M283.3,250l-11.2,6.4l-50-29.1l11.2-6.4L283.3,250z"/>
																</g>
															</g>
														</g>
														<g>
															<g>
																<g>
																	<path class="st10" d="M121.7,343.3l-11.2,6.4l-50-29.1l11.2-6.4L121.7,343.3z"/>
																</g>
															</g>
														</g>
													</g>
												</g>
											</g>
											<g>
												<path class="st5" d="M212.4,195.8L39.6,295.5l-0.4-114.8c0-2,1.9-5.3,3.8-6.3l169-97.7L212.4,195.8z"/>
											</g>
										</g>
									</g>
								</g>
							</g>
						</g>
					</g>
				</g>
			</g>
		</g>
	</g>
	<g>
		<g>
			<g>
				<path class="st14" d="M56.4,177.9v4.1l-10.5,6.1V184L56.4,177.9z"/>
			</g>
		</g>
		<g>
			<g>
				<path class="st8" d="M85.4,182.1v4.1l-22.5,13v-4.1L85.4,182.1z"/>
			</g>
		</g>
		<g class="st13">
			<g>
				<g>
					<path class="st14" d="M185.8,197.3v4.1l-44.6,25.8v-4.1L185.8,197.3z"/>
				</g>
			</g>
			<g>
				<g>
					<path class="st14" d="M192.1,172.7v4.1L151,200.6v-4.1L192.1,172.7z"/>
				</g>
			</g>
			<g>
				<g>
					<path class="st14" d="M170.9,195.4v4.1L125.1,226v-4.1L170.9,195.4z"/>
				</g>
			</g>
			<g>
				<g>
					<path class="st14" d="M180.4,169.1v4.1l-52.8,30.5v-4.1L180.4,169.1z"/>
				</g>
			</g>
			<g>
				<g>
					<path class="st14" d="M137,225.5v4.1l-40.9,23.6v-4.1L137,225.5z"/>
				</g>
			</g>
			<g>
				<g>
					<path class="st7" d="M145.3,199.8v4.1l-42.5,24.6v-4.1L145.3,199.8z"/>
				</g>
			</g>
			<g>
				<g>
					<path class="st15" d="M162,158.7v4.1l-33.8,19.5v-4.1L162,158.7z"/>
				</g>
			</g>
			<g>
				<g>
					<path class="st14" d="M139.5,182.2v4.1l-30.1,17.4v-4.1L139.5,182.2z"/>
				</g>
			</g>
			<g>
				<g>
					<path class="st14" d="M121,224.3v4.1l-41,23.7V248L121,224.3z"/>
				</g>
			</g>
			<g>
				<g>
					<path class="st14" d="M123.3,202.1v4.1L88,226.6v-4.1L123.3,202.1z"/>
				</g>
			</g>
			<g>
				<g>
					<path class="st14" d="M96.3,228.1v4.1L63,251.4v-4.1L96.3,228.1z"/>
				</g>
			</g>
			<g>
				<g>
					<path class="st14" d="M83,225.3v4.1L63,241v-4.1L83,225.3z"/>
				</g>
			</g>
			<g>
				<g>
					<path class="st14" d="M148.6,145.5v4.1L91,182.8v-4.1L148.6,145.5z"/>
				</g>
			</g>
			<g>
				<g>
					<path class="st14" d="M106.3,201.4v4.1l-43.3,25v-4.1L106.3,201.4z"/>
				</g>
			</g>
			<g>
				<g>
					<path class="st14" d="M89.2,200.8v4.1L63,220.1V216L89.2,200.8z"/>
				</g>
			</g>
			<g>
				<g>
					<path class="st14" d="M110.8,177.8v4.1l-47.9,27.6v-4.1L110.8,177.8z"/>
				</g>
			</g>
			<g>
				<g>
					<path class="st14" d="M133.9,133.1v4.1l-45.1,26.1v-4.1L133.9,133.1z"/>
				</g>
			</g>
		</g>
		<g>
			<g>
				<path class="st14" d="M83.6,162.1v4.1l-20.8,12v-4.1L83.6,162.1z"/>
			</g>
		</g>
		<g>
			<g>
				<path class="st14" d="M56.4,188.3v4.1l-10.5,6.1v-4.1L56.4,188.3z"/>
			</g>
		</g>
		<g>
			<g>
				<path class="st14" d="M125,180.1v4.1l-27.8,16.1v-4.1L125,180.1z"/>
			</g>
		</g>
		<g>
			<g>
				<path class="st14" d="M119.2,152v4.1l-56.4,32.6v-4.1L119.2,152z"/>
			</g>
		</g>
		<g>
			<g>
				<path class="st14" d="M56.4,198.8v4.1L45.9,209v-4.1L56.4,198.8z"/>
			</g>
		</g>
		<g>
			<g>
				<path class="st14" d="M56.4,209.2v4.1l-10.5,6.1v-4.1L56.4,209.2z"/>
			</g>
		</g>
		<g>
			<g>
				<path class="st14" d="M56.5,219.7v4.1L46,229.9v-4.1L56.5,219.7z"/>
			</g>
		</g>
		<g>
			<g>
				<path class="st14" d="M56.5,230.1v4.1L46,240.3v-4.1L56.5,230.1z"/>
			</g>
		</g>
		<g>
			<g>
				<path class="st14" d="M56.5,240.6v4.1L46,250.8v-4.1L56.5,240.6z"/>
			</g>
		</g>
		<g>
			<g>
				<path class="st14" d="M56.6,251v4.1l-10.5,6.1v-4.1L56.6,251z"/>
			</g>
		</g>
		<g>
			<g>
				<path class="st14" d="M56.6,261.5v4.1l-10.5,6.1v-4.1L56.6,261.5z"/>
			</g>
		</g>
		<g>
			<g>
				<path class="st14" d="M75.6,250.5v4.1l-12.5,7.2v-4.1L75.6,250.5z"/>
			</g>
		</g>
		<g>
			<g>
				<path class="st14" d="M56.6,271.9v4.1l-10.5,6.1V278L56.6,271.9z"/>
			</g>
		</g>
		<g>
			<g>
				<path class="st16" d="M90.2,252.5v4.1l-27.1,15.7v-4.1L90.2,252.5z"/>
			</g>
		</g>
	</g>
	<g>
		<g>
			<path class="st8" d="M182.5,122.2c1-1.9,1.5-3.9,1.5-6s-0.5-3.5-1.5-4.3s-2.4-0.7-4.2,0.4c-1.8,1-3.2,2.5-4.2,4.4s-1.5,3.9-1.5,6
				s0.5,3.5,1.5,4.3s2.4,0.7,4.2-0.4C180.1,125.6,181.5,124.1,182.5,122.2z M176.1,123.9c-0.5-0.5-0.8-1.4-0.8-2.7
				c0-1.3,0.3-2.5,0.8-3.7c0.5-1.1,1.3-2,2.3-2.6s1.7-0.6,2.3-0.1c0.5,0.5,0.8,1.4,0.8,2.7c0,1.3-0.3,2.5-0.8,3.7
				c-0.5,1.1-1.3,2-2.3,2.5C177.4,124.4,176.6,124.5,176.1,123.9z"/>
		</g>
		<g>
			<path class="st8" d="M196.6,118.7c-1-0.8-2.4-0.7-4.2,0.4c-1.8,1-3.2,2.5-4.2,4.4s-1.5,3.9-1.5,6c0,2.1,0.5,3.5,1.5,4.3
				s2.4,0.7,4.2-0.4c1.8-1,3.2-2.5,4.2-4.4s1.5-3.9,1.5-6C198,120.9,197.5,119.4,196.6,118.7z M190.2,130.7
				c-0.5-0.5-0.8-1.4-0.8-2.7c0-1.3,0.3-2.5,0.8-3.7c0.5-1.1,1.3-2,2.3-2.5c1-0.6,1.7-0.6,2.3-0.1c0.5,0.5,0.8,1.4,0.8,2.7
				c0,1.3-0.3,2.5-0.8,3.7c-0.5,1.1-1.3,2-2.3,2.6C191.5,131.2,190.7,131.3,190.2,130.7z"/>
		</g>
		<g>
			<path class="st8" d="M193.6,105c0-0.4-0.1-0.6-0.4-0.7c-0.2-0.1-0.5,0-0.9,0.2c-0.4,0.3-0.8,0.7-1,1.3l-14,34
				c-0.1,0.3-0.2,0.6-0.2,0.8c0,0.4,0.1,0.7,0.4,0.8c0.2,0.1,0.5,0.1,0.8-0.1c0.2-0.1,0.4-0.3,0.6-0.6c0.2-0.2,0.3-0.5,0.5-0.8
				l13.9-33.8C193.5,105.6,193.6,105.3,193.6,105z"/>
		</g>
	</g>
</g>
<g>
	<g>
		<g>
			<path class="st0" d="M460.9,290.1c-2,0-3.9-0.4-5.4-1.3l-160.2-92.5c-1.8-1-2.8-2.6-2.8-4.2c0-1.7,1-3.2,2.8-4.3l24.2-14
				c3-1.7,7.7-1.8,10.8,0l160.2,92.6c1.8,1,2.8,2.6,2.8,4.2c0,1.7-1,3.2-2.8,4.3l-24.2,14C464.8,289.7,462.8,290.1,460.9,290.1z
				 M324.9,176.4c-1.3,0-2.5,0.3-3.4,0.8l-24.2,14c-0.6,0.4-0.8,0.7-0.8,0.9c0,0.1,0.2,0.5,0.8,0.8l160.2,92.5c1.8,1,5,1.1,6.9,0
				l24.2-14c0.6-0.4,0.8-0.7,0.8-0.9c0-0.1-0.2-0.5-0.8-0.8l-160.2-92.6C327.4,176.7,326.2,176.4,324.9,176.4z M296.3,189.5
				L296.3,189.5L296.3,189.5z"/>
		</g>
	</g>
	<g>
		<g>
			<g>
				<g>
					<g>
						<g>
							<g>
								<path class="st10" d="M483.3,144L483,260.8c-0.1,3.7-1.4,6.3-3.4,7.5l-13.3,7.7c-2.2,1.5-5.3,1.4-8.8-0.6l-163.1-94.1
									c-6.5-3.7-11.7-12.7-11.6-20.2l0.3-116.7l11.7-6.9L483.3,144z"/>
							</g>
						</g>
					</g>
					<g class="st13">
						<g>
							<g>
								<path class="st10" d="M465.9,276.2l13.7-7.9c2.1-1.2,3.4-3.8,3.4-7.5l0.3-116.7l-13.7,7.9l-0.3,116.7
									C469.3,272.4,468,275,465.9,276.2z"/>
							</g>
						</g>
						<g>
							<g>
								<path class="st17" d="M469.6,152l13.7-7.9L294.8,37.5l-11.7,6.8L469.6,152z"/>
							</g>
						</g>
						<g>
							<g>
								<path class="st17" d="M283.1,44.3L282.8,161c0,7.4,5.2,16.4,11.7,20.2l163.1,94.2c6.4,3.7,11.7,0.8,11.7-6.7l0.3-116.7
									L283.1,44.3z"/>
							</g>
						</g>
					</g>
					<g>
						<g>
							<g>
								<path class="st18" d="M483.3,134.7v9.4l-13.7,8L283.2,44.4v-9.5c0-3.9,1.5-6.6,3.8-7.6c-0.1,0-0.3,0-0.4,0.1l13.7-7.9
									c2.2-1.3,5-1.1,8.4,0.8l163.1,94.1C478.1,118.2,483.3,127.3,483.3,134.7z"/>
							</g>
						</g>
					</g>
					<g class="st13">
						<g>
							<path class="st8" d="M300.3,19.5c2.1-1.2,5.1-1.1,8.3,0.8l163.1,94.2c6.5,3.7,11.7,12.8,11.7,20.2v9.4l-13.7,7.9v-9.4
								c0-7.4-5.2-16.4-11.7-20.2L294.9,28.3c-3.3-1.9-6.2-2.1-8.3-0.8L300.3,19.5z"/>
						</g>
						<g>
							<g>
								<path class="st18" d="M294.9,28.3c-6.5-3.7-11.7-0.7-11.7,6.7v9.4L469.6,152v-9.4c0-7.4-5.2-16.4-11.7-20.2L294.9,28.3z"/>
							</g>
						</g>
					</g>
				</g>
			</g>
		</g>
		<g>
			<g>
				<g>
					<g>
						<path class="st10" d="M293.7,59.9v4.5l25,14.4v-4.5L293.7,59.9z"/>
					</g>
				</g>
				<g>
					<g>
						<path class="st10" d="M293.7,71.3v4.5l25,14.4v-4.5L293.7,71.3z"/>
					</g>
				</g>
				<g>
					<g>
						<path class="st10" d="M293.7,82.7v4.5l25,14.4v-4.5L293.7,82.7z"/>
					</g>
				</g>
				<g>
					<g>
						<path class="st10" d="M293.7,94.1v4.5l25,14.4v-4.5L293.7,94.1z"/>
					</g>
				</g>
				<g>
					<g>
						<path class="st10" d="M293.6,105.5v4.5l25,14.4v-4.5L293.6,105.5z"/>
					</g>
				</g>
				<g>
					<g>
						<path class="st10" d="M293.6,117v4.5l25,14.4v-4.5L293.6,117z"/>
					</g>
				</g>
				<g>
					<g>
						<path class="st10" d="M293.6,128.4v4.5l25,14.4v-4.5L293.6,128.4z"/>
					</g>
				</g>
				<g>
					<g>
						<path class="st10" d="M293.5,139.8v4.5l25,14.4v-4.5L293.5,139.8z"/>
					</g>
				</g>
				<g>
					<g>
						<path class="st10" d="M293.5,151.2v4.5l25,14.4v-4.5L293.5,151.2z"/>
					</g>
				</g>
				<g>
					<g>
						<path class="st10" d="M293.5,162.6v4.5l25,14.4V177L293.5,162.6z"/>
					</g>
				</g>
			</g>
			<g>
				<g>
					<g>
						<path class="st10" d="M447.5,147.5v4.5l11.5,6.6v-4.5L447.5,147.5z"/>
					</g>
				</g>
				<g>
					<g>
						<path class="st10" d="M328.3,113v4.5l55.4,32V145L328.3,113z"/>
					</g>
				</g>
				<g>
					<g>
						<path class="st10" d="M359.3,199.5v4.5l44.7,25.8v-4.5L359.3,199.5z"/>
					</g>
				</g>
				<g>
					<g>
						<path class="st10" d="M328.1,181.5v4.5l26.7,15.4v-4.5L328.1,181.5z"/>
					</g>
				</g>
				<g class="st13">
					<g>
						<g>
							<path class="st10" d="M350.3,171.5v4.5l46.5,26.8v-4.5L350.3,171.5z"/>
						</g>
					</g>
					<g>
						<g>
							<path class="st10" d="M376.8,198.2v4.5l44.8,25.9v-4.5L376.8,198.2z"/>
						</g>
					</g>
					<g>
						<g>
							<path class="st10" d="M374.4,173.9v4.5l38.6,22.3v-4.5L374.4,173.9z"/>
						</g>
					</g>
					<g>
						<g>
							<path class="st10" d="M403.9,202.4v4.5l36.3,21v-4.5L403.9,202.4z"/>
						</g>
					</g>
					<g>
						<g>
							<path class="st10" d="M418.3,199.3v4.5l21.9,12.6v-4.5L418.3,199.3z"/>
						</g>
					</g>
					<g>
						<g>
							<path class="st0" d="M392.9,173.2v4.5l47.3,27.3v-4.5L392.9,173.2z"/>
						</g>
					</g>
					<g>
						<g>
							<path class="st10" d="M411.6,172.5v4.5l28.7,16.6v-4.5L411.6,172.5z"/>
						</g>
					</g>
				</g>
				<g>
					<g>
						<path class="st8" d="M328.2,158.7v4.5l15.9,9.2v-4.5L328.2,158.7z"/>
					</g>
				</g>
				<g class="st13">
					<g>
						<g>
							<path class="st10" d="M328.2,147.3v4.5l41.3,23.9v-4.5L328.2,147.3z"/>
						</g>
					</g>
					<g>
						<g>
							<path class="st10" d="M332,126.6v4.5l36.9,21.3v-4.5L332,126.6z"/>
						</g>
					</g>
					<g>
						<g>
							<path class="st10" d="M356.6,152.2v4.5l32.9,19v-4.5L356.6,152.2z"/>
						</g>
					</g>
					<g>
						<g>
							<path class="st10" d="M372.5,149.9v4.5l30.4,17.5v-4.5L372.5,149.9z"/>
						</g>
					</g>
					<g>
						<g>
							<path class="st10" d="M346.6,112.1v4.5l62.9,36.3v-4.5L346.6,112.1z"/>
						</g>
					</g>
					<g>
						<g>
							<path class="st10" d="M388,147.5v4.5l52.3,30.2v-4.5L388,147.5z"/>
						</g>
					</g>
					<g>
						<g>
							<path class="st10" d="M378.8,119.3v4.5l61.6,35.6v-4.5L378.8,119.3z"/>
						</g>
					</g>
					<g>
						<g>
							<path class="st10" d="M417.7,130.3v4.5l22.8,13.1v-4.5L417.7,130.3z"/>
						</g>
					</g>
				</g>
				<g>
					<g>
						<path class="st19" d="M328.4,90.2v4.5l42.3,24.4v-4.5L328.4,90.2z"/>
					</g>
				</g>
				<g>
					<g>
						<path class="st10" d="M362.7,98.5v4.5l49.3,28.5V127L362.7,98.5z"/>
					</g>
				</g>
				<g>
					<g>
						<path class="st10" d="M328.4,78.8v4.5l27.3,15.8v-4.5L328.4,78.8z"/>
					</g>
				</g>
				<g>
					<g>
						<path class="st10" d="M447.5,158.9v4.5L459,170v-4.5L447.5,158.9z"/>
					</g>
				</g>
				<g>
					<g>
						<path class="st10" d="M447.4,170.3v4.5l11.5,6.6v-4.5L447.4,170.3z"/>
					</g>
				</g>
				<g>
					<g>
						<path class="st16" d="M415.8,152v4.5l24.6,14.2v-4.5L415.8,152z"/>
					</g>
				</g>
				<g>
					<g>
						<path class="st10" d="M447.4,181.8v4.5l11.5,6.6v-4.5L447.4,181.8z"/>
					</g>
				</g>
				<g>
					<g>
						<path class="st10" d="M447.4,193.2v4.5l11.5,6.6v-4.5L447.4,193.2z"/>
					</g>
				</g>
				<g>
					<g>
						<path class="st10" d="M447.3,204.6v4.5l11.5,6.6v-4.5L447.3,204.6z"/>
					</g>
				</g>
				<g>
					<g>
						<path class="st10" d="M447.3,216v4.5l11.5,6.6v-4.5L447.3,216z"/>
					</g>
				</g>
				<g>
					<g>
						<path class="st10" d="M447.3,227.4v4.5l11.5,6.6V234L447.3,227.4z"/>
					</g>
				</g>
				<g>
					<g>
						<path class="st10" d="M447.2,238.8v4.5l11.5,6.6v-4.5L447.2,238.8z"/>
					</g>
				</g>
				<g>
					<g>
						<path class="st10" d="M426.5,226.9v4.5l13.7,7.9v-4.5L426.5,226.9z"/>
					</g>
				</g>
				<g>
					<g>
						<path class="st10" d="M447.2,250.3v4.5l11.5,6.6v-4.5L447.2,250.3z"/>
					</g>
				</g>
				<g>
					<g>
						<path class="st15" d="M410.4,229v4.5l29.7,17.1v-4.5L410.4,229z"/>
					</g>
				</g>
			</g>
		</g>
	</g>
</g>
<g>
	<g>
		<g>
			<path class="st5" d="M297.1,47.4c2.8,1.6,5,0.4,5.1-2.9c0-3.2-2.3-7.1-5-8.7c-2.8-1.6-5-0.3-5.1,2.9
				C292,42,294.3,45.8,297.1,47.4z"/>
		</g>
	</g>
	<g>
		<g>
			<path class="st5" d="M315.1,57.8c2.8,1.6,5.1,0.5,5.1-2.8c0-3.2-2.3-7.1-5.1-8.7c-2.8-1.6-4.9-0.2-5,2.9
				C310.2,52.4,312.4,56.2,315.1,57.8z"/>
		</g>
	</g>
	<g>
		<g>
			<path class="st5" d="M333.3,68.3c2.8,1.6,5,0.4,5.1-2.9c0-3.2-2.3-7.1-5-8.7c-2.8-1.6-5-0.3-5.1,2.9
				C328.2,62.9,330.5,66.7,333.3,68.3z"/>
		</g>
	</g>
	<g>
		<g>
			<path class="st5" d="M455.6,139c2.8,1.6,5.1,0.2,5.1-2.9c0-3.2-2.4-7.2-5.1-8.7l-67-38.7c-2.8-1.6-5-0.3-5.1,2.9
				c0,3.2,2.2,7.2,5,8.8L455.6,139z"/>
		</g>
	</g>
</g>
<g>
	<path class="st0" d="M339.4,487c-0.3,0-0.7-0.1-1-0.3l-110.3-64.1l-94.8,54.8c-0.6,0.4-1.4,0.4-2,0L26,416.4c-0.6-0.3-1-1-1-1.7
		s0.4-1.4,1-1.7l60.6-35c0.9-0.5,2.1-0.2,2.7,0.7c0.5,0.9,0.2,2.1-0.7,2.7L31,414.7l101.3,58.8l94.8-54.8c0.6-0.4,1.4-0.4,2,0
		l110.3,64.1l23.8-13.7c0.9-0.5,2.2-0.2,2.7,0.7c0.5,0.9,0.2,2.1-0.7,2.7l-24.8,14.3C340.1,487,339.8,487,339.4,487z"/>
</g>
<g>
	<g id="OBJECTS">
		<g>
			<polygon class="st20" points="360,310.7 366.9,320.1 363.2,319.7 356.4,310.3 			"/>
			
				<linearGradient id="SVGID_1_" gradientUnits="userSpaceOnUse" x1="575.5522" y1="839.1964" x2="652.6397" y2="772.3082" gradientTransform="matrix(1 0 0 1 -203.7553 -504.8332)">
				<stop  offset="0" style="stop-color:#D13F05"/>
				<stop  offset="0.2925" style="stop-color:#F67205"/>
				<stop  offset="0.3667" style="stop-color:#F67705"/>
				<stop  offset="0.4526" style="stop-color:#F68505"/>
				<stop  offset="0.5441" style="stop-color:#F69C05"/>
				<stop  offset="0.5638" style="stop-color:#F6A205"/>
				<stop  offset="0.5977" style="stop-color:#F69005"/>
				<stop  offset="0.6432" style="stop-color:#F67F05"/>
				<stop  offset="0.6931" style="stop-color:#F67505"/>
				<stop  offset="0.7553" style="stop-color:#F67205"/>
				<stop  offset="1" style="stop-color:#D13F05"/>
			</linearGradient>
			<path class="st21" d="M438.6,254.6c2.3,3.2,4.6,6.2,6.9,9.4c4.6,6.5,7.1,14.2,7,22.2l-6.9-9.4C445.7,268.8,443.2,261,438.6,254.6
				z"/>
			<polygon class="st22" points="445.6,276.8 452.4,286.2 449,288.8 442.1,279.4 			"/>
			<polygon class="st20" points="410.9,322.9 417.8,332.3 416.3,334.6 409.4,325.2 			"/>
			
				<linearGradient id="SVGID_2_" gradientUnits="userSpaceOnUse" x1="577.9072" y1="841.9034" x2="654.9907" y2="775.0187" gradientTransform="matrix(1 0 0 1 -203.7553 -504.8332)">
				<stop  offset="0" style="stop-color:#D13F05"/>
				<stop  offset="0.2925" style="stop-color:#F67205"/>
				<stop  offset="0.3667" style="stop-color:#F67705"/>
				<stop  offset="0.4526" style="stop-color:#F68505"/>
				<stop  offset="0.5441" style="stop-color:#F69C05"/>
				<stop  offset="0.5638" style="stop-color:#F6A205"/>
				<stop  offset="0.5977" style="stop-color:#F69005"/>
				<stop  offset="0.6432" style="stop-color:#F67F05"/>
				<stop  offset="0.6931" style="stop-color:#F67505"/>
				<stop  offset="0.7553" style="stop-color:#F67205"/>
				<stop  offset="1" style="stop-color:#D13F05"/>
			</linearGradient>
			<path class="st23" d="M409.4,325.2l6.9,9.4c-9.7,3.8-20.6,4.5-30.8,1.8c-7.2-2-13.7-5.9-18.6-11.6l-6.9-9.4
				c4.9,5.6,11.4,9.6,18.6,11.6C388.9,329.7,399.6,329.1,409.4,325.2z"/>
			<polygon class="st24" points="413.4,323.5 420.2,332.9 417.8,332.3 410.9,322.9 			"/>
			
				<linearGradient id="SVGID_3_" gradientUnits="userSpaceOnUse" x1="588.8035" y1="854.4615" x2="665.8882" y2="787.5759" gradientTransform="matrix(1 0 0 1 -203.7553 -504.8332)">
				<stop  offset="0" style="stop-color:#D13F05"/>
				<stop  offset="0.2925" style="stop-color:#F67205"/>
				<stop  offset="0.3667" style="stop-color:#F67705"/>
				<stop  offset="0.4526" style="stop-color:#F68505"/>
				<stop  offset="0.5441" style="stop-color:#F69C05"/>
				<stop  offset="0.5638" style="stop-color:#F6A205"/>
				<stop  offset="0.5977" style="stop-color:#F69005"/>
				<stop  offset="0.6432" style="stop-color:#F67F05"/>
				<stop  offset="0.6931" style="stop-color:#F67505"/>
				<stop  offset="0.7553" style="stop-color:#F67205"/>
				<stop  offset="1" style="stop-color:#D13F05"/>
			</linearGradient>
			<path class="st25" d="M445.5,280.3l6.9,9.4c-0.4,5.4-1.9,10.7-4.2,15.5c-5.7,12.3-15.7,22-27.9,27.6l-6.9-9.4
				c12.3-5.6,22.1-15.4,27.9-27.6C443.5,291,444.9,285.8,445.5,280.3z"/>
			
				<linearGradient id="SVGID_4_" gradientUnits="userSpaceOnUse" x1="560.2021" y1="823.5137" x2="645.3509" y2="754.2562" gradientTransform="matrix(1 0 0 1 -203.7553 -504.8332)">
				<stop  offset="0" style="stop-color:#FFFFFF;stop-opacity:0"/>
				<stop  offset="0.2606" style="stop-color:#FFFFFF"/>
				<stop  offset="0.7553" style="stop-color:#FFFFFF"/>
				<stop  offset="1" style="stop-color:#FFFFFF;stop-opacity:0"/>
			</linearGradient>
			<path class="st26" d="M445.8,280.8c-0.4,5.4-1.9,10.7-4.2,15.5c-5.7,12.3-15.7,22-27.9,27.6l-2.5-0.7l-1.5,2.4
				c-9.7,3.8-20.6,4.5-30.8,1.8c-7.2-2-13.7-5.9-18.6-11.6l-0.1-4.7l-3.6-0.4c-6.3-10.7-7.1-24.7-0.9-38.4c1.9-4.1,4.3-7.9,7-11.4
				c1.4-0.7,3-1.4,4.3-2.2l0.7-3.2c11.6-11.2,27.7-17.3,42.9-15.8l3.3,2.6l9.3,0.4c14.3,6,22.7,19.4,22.7,34.5l-3.5,2.5L445.8,280.8
				z"/>
			
				<linearGradient id="SVGID_5_" gradientUnits="userSpaceOnUse" x1="635.0814" y1="802.5712" x2="548.72" y2="766.0907" gradientTransform="matrix(1 0 0 1 -203.7553 -504.8332)">
				<stop  offset="0" style="stop-color:#FFAF02"/>
				<stop  offset="1" style="stop-color:#F56D05"/>
			</linearGradient>
			<path class="st27" d="M445.5,280.3c-0.4,5.4-1.9,10.7-4.2,15.5c-5.7,12.3-15.7,22-27.9,27.6l-2.5-0.7l-1.5,2.4
				c-9.7,3.8-20.6,4.5-30.8,1.8c-7.2-2-13.7-5.9-18.6-11.6l-0.1-4.7l-3.6-0.4c-6.3-10.7-7.1-24.7-0.9-38.4c1.9-4.1,4.3-7.9,7-11.4
				c1.4-0.7,3-1.4,4.3-2.2l0.7-3.2c11.6-11.2,27.7-17.3,42.9-15.8l3.3,2.6l9.3,0.4c14.3,6,22.7,19.4,22.7,34.5l-3.5,2.5L445.5,280.3
				z"/>
			
				<linearGradient id="SVGID_6_" gradientUnits="userSpaceOnUse" x1="570.5167" y1="759.1043" x2="620.6409" y2="807.0149" gradientTransform="matrix(1 0 0 1 -203.7553 -504.8332)">
				<stop  offset="0" style="stop-color:#FFFFFF;stop-opacity:0"/>
				<stop  offset="0.2606" style="stop-color:#FFFFFF"/>
				<stop  offset="0.7553" style="stop-color:#FFFFFF"/>
				<stop  offset="1" style="stop-color:#FFFFFF;stop-opacity:0"/>
			</linearGradient>
			<path class="st28" d="M411.9,252.3c17.2,4.8,24.7,22.9,16.9,40.2c-7.9,17.4-28.4,27.5-45.5,22.7s-24.7-22.9-16.9-40.2
				C374.2,257.5,394.6,247.3,411.9,252.3z"/>
			
				<linearGradient id="SVGID_7_" gradientUnits="userSpaceOnUse" x1="567.7724" y1="788.6294" x2="636.5032" y2="788.6294" gradientTransform="matrix(1 0 0 1 -203.7553 -504.8332)">
				<stop  offset="0" style="stop-color:#CF4505"/>
				<stop  offset="1" style="stop-color:#E45905"/>
			</linearGradient>
			<path class="st29" d="M412.7,252.4c17.2,4.8,24.7,22.9,16.9,40.2c-7.9,17.4-28.4,27.5-45.5,22.7s-24.7-22.9-16.9-40.2
				C375.1,257.7,395.6,247.6,412.7,252.4z"/>
			<path class="st30" d="M386.8,315.8c-17.2-4.8-24.7-22.9-16.9-40.2c7.3-16.1,25.4-25.9,41.7-23.4c-17-4.2-36.7,5.9-44.4,23
				c-7.9,17.4-0.4,35.4,16.9,40.2c1.3,0.3,2.5,0.7,3.8,0.9C387.5,316,387.1,315.9,386.8,315.8z"/>
			
				<radialGradient id="SVGID_8_" cx="2516.417" cy="1172.3528" r="25.7099" gradientTransform="matrix(7.290000e-02 7.410000e-02 -0.4921 0.4845 822.0795 -441.241)" gradientUnits="userSpaceOnUse">
				<stop  offset="0" style="stop-color:#FFFFFF"/>
				<stop  offset="8.578000e-02" style="stop-color:#FFFFFF;stop-opacity:0.9583"/>
				<stop  offset="0.2351" style="stop-color:#FFFFFF;stop-opacity:0.8462"/>
				<stop  offset="0.4301" style="stop-color:#FFFFFF;stop-opacity:0.6642"/>
				<stop  offset="0.6634" style="stop-color:#FFFFFF;stop-opacity:0.4119"/>
				<stop  offset="0.9261" style="stop-color:#FFFFFF;stop-opacity:9.449000e-02"/>
				<stop  offset="1" style="stop-color:#FFFFFF;stop-opacity:0"/>
			</radialGradient>
			<path class="st31" d="M430.5,315.1c-7,6.9-13.5,11.6-14.6,10.5c-1-1.1,3.8-7.4,10.7-14.3c7-6.9,13.5-11.6,14.6-10.5
				C442.3,301.9,437.5,308.3,430.5,315.1z"/>
			
				<linearGradient id="SVGID_9_" gradientUnits="userSpaceOnUse" x1="590.8436" y1="775.4175" x2="621.8302" y2="811.7718" gradientTransform="matrix(1 0 0 1 -203.7553 -504.8332)">
				<stop  offset="0" style="stop-color:#FFFFFF"/>
				<stop  offset="1" style="stop-color:#FFFFFF;stop-opacity:0"/>
			</linearGradient>
			<path class="st32" d="M435.5,251l-75.4,62.5v2c4.9,5.6,11.4,9.6,18.6,11.6c1.8,0.4,3.5,0.9,5.3,1.1l58.7-48.6l-0.5-0.1l3.5-2.5
				C445.7,267.3,442.1,258,435.5,251z"/>
			
				<linearGradient id="SVGID_10_" gradientUnits="userSpaceOnUse" x1="572.6912" y1="758.782" x2="589.2653" y2="775.5944" gradientTransform="matrix(1 0 0 1 -203.7553 -504.8332)">
				<stop  offset="0" style="stop-color:#FFFFFF"/>
				<stop  offset="1" style="stop-color:#FFFFFF;stop-opacity:0"/>
			</linearGradient>
			<path class="st33" d="M413.7,241.9l-3.3-2.6c-4.5-0.4-9.1-0.2-13.6,0.7l-42.8,35.5c-2.4,6.2-3.3,13-2.7,19.7l64-53L413.7,241.9z"
				/>
			<g>
				<g>
					<defs>
						<rect id="SVGID_11_" x="378.9" y="259.2" width="47.8" height="49.3"/>
					</defs>
					<clipPath id="SVGID_12_">
						<use xlink:href="#SVGID_11_"  style="overflow:visible;"/>
					</clipPath>
					<g class="st34">
						
							<linearGradient id="SVGID_13_" gradientUnits="userSpaceOnUse" x1="2551.7795" y1="-1286.9175" x2="2551.7795" y2="-1237.645" gradientTransform="matrix(1 0 0 -1 -2148.7554 -978.4474)">
							<stop  offset="0" style="stop-color:#FFC000"/>
							<stop  offset="0.28" style="stop-color:#FFC000"/>
							<stop  offset="0.55" style="stop-color:#DAA600"/>
							<stop  offset="1" style="stop-color:#DAA600"/>
						</linearGradient>
						<path class="st35" d="M387.4,279.3c-0.2-0.2-0.4-0.4-0.5-0.7c-2.1-2.5-3.5-5.4-4.3-8.4c-0.5-2.2-0.7-4.5-0.4-6.8
							c0.1-1.2,0.4-2.4,1-3.4c0.3-0.7,1.1-1,1.8-0.7l0,0c1.5,0.5,2.7,1.6,3.6,3c2.2,3,3.7,6.3,4.4,10c0.2,1.1,0.2,2.3,0.3,3.4
							c0,0.4,0.1,0.9,0.1,1.3c0,0.3,0.2,0.5,0.7,0.4c1.5-0.2,3.2-0.1,4.7,0.3c1.3,0.3,2.6,0.8,3.9,1.3c1.9,0.8,3.5,1.9,4.8,3.3
							c0.1,0.2,0.4,0.2,0.7,0.1l0,0l0.1-0.1c0.3-0.3,0.7-0.7,1-1c3-3.4,6.9-5.8,11.3-7c1.4-0.4,2.8-0.5,4.3-0.4
							c0.7,0.1,1.3,0.3,1.9,0.5c0.2,0.2,0.4,0.4,0.4,0.8c0,0.4,0,0.9-0.1,1.2c-0.5,1.6-1.5,3.2-2.8,4.5c-3.1,3.4-7.2,5.8-11.7,6.6
							c-0.3,0.1-0.7,0.1-1.1,0.1c0.1,0.3,0.1,0.5,0.2,0.8c0.4,1.5,0.7,3.2,0.5,4.8c0,2-0.3,3.8-1,5.7c-0.7,2.1-1.8,4.1-3.2,5.8
							c-1.3,1.6-3.2,2.7-5.3,3.1c-1.4,0.4-3,0.5-4.5,0.3c-1.4-0.2-3-0.4-4.4-0.8c-1.5-0.4-3-0.9-4.4-1.5c-2.4-0.9-4.6-2.2-6.5-3.8
							c-2-1.6-3.3-3.9-3.7-6.5c-0.1-1.2-0.1-2.4,0.1-3.6c0.2-1.5,0.7-3.1,1.2-4.5c0.9-2.3,2.3-4.4,4.1-6.1c0.8-0.8,1.8-1.4,2.6-2.2
							L387.4,279.3z M388.8,296.8v0.1c-1.6-0.1-2,1-1.6,2.2c0,0.2,0.1,0.3,0.1,0.5c0.3,1.3,1.2,2.5,2.4,3.2c1.2,0.5,2.4,1.1,3.7,1.4
							c1.8,0.5,3.7,0.1,5.1-1.2c0.7-0.4,0.9-1.2,0.4-1.9c-0.1-0.1-0.2-0.3-0.3-0.4c-0.8-0.5-1.5-1.1-2.4-1.4
							c-1.4-0.7-2.8-1.1-4.3-1.6C390.9,297.4,389.9,297.1,388.8,296.8L388.8,296.8z M387.5,284.4c0-1.1-0.4-1.6-1.2-1.9
							c-0.7-0.1-1.3,0.1-1.8,0.8c-1.6,2.1-2.8,4.4-3.6,6.9c-0.1,0.4-0.1,0.9-0.1,1.2c0.1,0.8,0.8,1.3,1.5,1.2c0.3,0,0.8-0.2,1-0.5
							c0.5-0.8,1.2-1.6,1.6-2.5c0.7-1.1,1.2-2.3,1.9-3.4C387.1,285.5,387.4,285,387.5,284.4L387.5,284.4z M410.4,293.4
							c0-0.4-0.1-0.9-0.2-1.4c-0.2-0.8-1.1-1.3-1.9-1.1l0,0h-0.1c-0.5,0.2-1,0.8-1.1,1.4c-0.5,2.1-1,4.2-1.4,6.3
							c-0.1,0.7-0.1,1.3,0,2c0.1,0.8,0.9,1.2,1.5,1c0.2,0,0.3-0.1,0.4-0.2c0.5-0.3,0.9-0.8,1-1.4c0.4-1.2,0.8-2.4,1.1-3.6
							C410.1,295.5,410.2,294.4,410.4,293.4L410.4,293.4z"/>
					</g>
				</g>
			</g>
		</g>
	</g>
</g>
</svg>
