<?xml version="1.0" encoding="utf-8"?>
<!-- Generator: Adobe Illustrator 25.2.1, SVG Export Plug-In . SVG Version: 6.00 Build 0)  -->
<svg version="1.1" id="Layer_1" xmlns="http://www.w3.org/2000/svg" xmlns:xlink="http://www.w3.org/1999/xlink" x="0px" y="0px"
	 viewBox="0 0 512 512" style="enable-background:new 0 0 512 512;" xml:space="preserve">
<style type="text/css">
	.st0{fill:#9EA9C9;}
	.st1{fill:#C9CEE2;}
	.st2{fill:#E9E7FC;}
	.st3{fill:#1D2943;}
	.st4{fill:#FFFFFF;}
	.st5{fill:#5EC363;}
	.st6{fill:#72D561;}
	.st7{fill:#78E75A;}
	.st8{fill:#50B069;}
	.st9{fill:#FFDE9B;}
	.st10{fill:#FEBC1F;}
	.st11{fill:#FFD06C;}
	.st12{fill:#F3A250;}
	.st13{fill:#4C5C75;}
	.st14{fill:#D84905;}
	.st15{fill:url(#SVGID_1_);}
	.st16{fill:#F67205;}
	.st17{fill:url(#SVGID_2_);}
	.st18{fill:#F69D05;}
	.st19{fill:url(#SVGID_3_);}
	.st20{opacity:0.7;fill:url(#SVGID_4_);enable-background:new    ;}
	.st21{fill:url(#SVGID_5_);}
	.st22{opacity:0.7;fill:url(#SVGID_6_);enable-background:new    ;}
	.st23{fill:url(#SVGID_7_);}
	.st24{fill:#BA3E05;}
	.st25{opacity:0.5;fill:url(#SVGID_8_);enable-background:new    ;}
	.st26{opacity:0.4;fill:url(#SVGID_9_);enable-background:new    ;}
	.st27{opacity:0.4;fill:url(#SVGID_10_);enable-background:new    ;}
	.st28{clip-path:url(#SVGID_12_);}
	.st29{fill-rule:evenodd;clip-rule:evenodd;fill:url(#SVGID_13_);}
	.st30{opacity:0.3;}
	.st31{fill:#5094FF;}
	.st32{fill:#57B3FE;}
</style>
<g>
	<g>
		<g>
			<g>
				<g>
					<g>
						<path class="st0" d="M265.3,341.8l-87.7-50.7c-5.2-3-5.2-8.6,0-11.6l87.1-50.6c4.2-2.5,10.9-2.5,15.2,0l87.7,50.7
							c5.2,3,5.2,8.6,0,11.6l-87.1,50.6C276.3,344.3,269.6,344.3,265.3,341.8z M272.3,232c-1.9,0-3.8,0.4-5.1,1.2L180,283.8
							c-1.9,1.1-1.7,2.1,0,3.1l87.7,50.7c2.7,1.6,7.5,1.6,10.2,0l87.1-50.6c1.9-1.1,1.8-2.1,0-3.1l-87.7-50.7
							C276,232.4,274.2,232,272.3,232z"/>
					</g>
				</g>
			</g>
			<g>
				<g>
					<g>
						<path class="st0" d="M116.8,428.2L29,377.5c-5.2-3-5.2-8.7,0-11.6l87.1-50.6c4.2-2.5,10.9-2.5,15.2,0l87.7,50.6
							c5.2,3,5.2,8.7,0,11.6l-87.1,50.6C127.7,430.6,121,430.6,116.8,428.2z M118.6,319.5l-87.1,50.6c-1.9,1.1-1.7,2.1,0,3.1
							l87.7,50.6c2.7,1.6,7.5,1.6,10.2,0l87.1-50.6c1.9-1.1,1.7-2.1,0-3.1l-87.7-50.6C126.1,317.9,121.3,317.9,118.6,319.5z"/>
					</g>
				</g>
			</g>
		</g>
		<g>
			<g>
				<g>
					<g>
						<g>
							<path class="st1" d="M366.4,235.9l-87.7-50.6c-3.5-2-9.2-2-12.7,0l-87.1,50.6c-1.7,1-2.6,2.3-2.6,3.7c0,0,0,0,0,0v0
								c0,0,0,0,0,0l-0.1,31.3c0,1.3,0.9,2.7,2.6,3.7l87.7,50.6c3.5,2,9.2,2,12.7,0l87.1-50.6c1.7-1,2.6-2.3,2.6-3.7l0.1-31.3
								c0,0.4-0.2,0.9-0.4,1.3C369.4,239.2,368.7,237.3,366.4,235.9z M176.6,240.9c0.1,0.2,0.1,0.4,0.2,0.6
								C176.7,241.3,176.7,241.1,176.6,240.9z M366.4,243.3l-87.1,50.6c-3.5,2-9.2,2-12.7,0l-87.7-50.6l87.7,50.6
								c3.5,2,9.2,2,12.7,0L366.4,243.3c0.9-0.5,1.5-1.1,2-1.7C367.9,242.2,367.3,242.8,366.4,243.3z"/>
						</g>
						<g>
							<g>
								<g>
									<g>
										<path class="st1" d="M366.4,243.3l-87.1,50.6c-3.5,2-9.2,2-12.7,0l-87.7-50.6c-1.8-1-2.7-2.4-2.6-3.7l-0.1,31.3
											c0,1.3,0.9,2.7,2.6,3.7l87.7,50.6c3.5,2,9.2,2,12.7,0l87.1-50.6c1.7-1,2.6-2.3,2.6-3.7l0.1-31.3
											C369,240.9,368.1,242.3,366.4,243.3z"/>
									</g>
								</g>
								<g>
									<g>
										<g>
											<path class="st2" d="M366.4,235.9c3.5,2,3.5,5.3,0,7.4l-87.1,50.6c-3.5,2-9.2,2-12.7,0l-87.7-50.6c-3.5-2-3.5-5.3,0-7.4
												l87.1-50.6c3.5-2,9.2-2,12.7,0L366.4,235.9z"/>
										</g>
									</g>
								</g>
							</g>
							<g>
								<g>
									<g>
										<g>
											<path class="st3" d="M183.7,255.8v11.8c0,1.7,1.2,3.8,2.7,4.6l72.6,41.9c1.5,0.9,2.7,0.2,2.7-1.5l0-11.8
												c0-1.7-1.2-3.8-2.7-4.6l-72.6-41.9C184.9,253.4,183.7,254.1,183.7,255.8z"/>
										</g>
									</g>
								</g>
								<g>
									<g>
										<g>
											<path class="st4" d="M255,298.1c0.9,0.5,1.6,1.7,1.6,2.7l0,6.1c0,1-0.7,1.4-1.6,0.9l-35.3-20.4c-0.9-0.5-1.6-1.7-1.6-2.7
												l0-6.1c0-1,0.7-1.4,1.6-0.9L255,298.1z"/>
										</g>
									</g>
								</g>
								<g>
									<g>
										<g>
											<g>
												<path class="st4" d="M194.5,263.7c1.9,1.1,3.5,3.9,3.5,6.1c0,2.2-1.6,3.2-3.6,2c-1.9-1.1-3.5-3.9-3.5-6.1
													C191,263.5,192.5,262.6,194.5,263.7z"/>
											</g>
										</g>
									</g>
									<g>
										<g>
											<g>
												
													<ellipse transform="matrix(0.8649 -0.5019 0.5019 0.8649 -109.9579 140.2563)" class="st4" cx="205.6" cy="274.4" rx="2.9" ry="5"/>
											</g>
										</g>
									</g>
								</g>
							</g>
						</g>
						<g>
							<path class="st5" d="M354.1,64.1l-78.5-45.6l-85,49.1l0.4,171.9l78.5,45.6l85-49.1L354.1,64.1z"/>
						</g>
						<g>
							<g>
								<g>
									<g>
										<g>
											<g>
												<g>
													<g>
														<g>
															<path class="st5" d="M190.7,67.5l0.4,171.9l78.5,45.6l-0.4-171.9L190.7,67.5z"/>
														</g>
													</g>
													<g>
														<g>
															<path class="st6" d="M269.1,113.1l0.4,171.9l85-49.1l-0.4-171.9L269.1,113.1z"/>
														</g>
													</g>
													<g>
														<g>
															<path class="st5" d="M345,230.6l-0.3-150.1l-66.1,38.2l0.3,150.1L345,230.6z"/>
														</g>
													</g>
													<g>
														<g>
															<path class="st7" d="M190.7,67.5l78.5,45.6l85-49.1l-78.5-45.6L190.7,67.5z"/>
														</g>
													</g>
												</g>
											</g>
										</g>
									</g>
								</g>
								<g>
									<g>
										<g>
											<path class="st5" d="M226.2,70.7l37.5,21.9c4.7,2.7,12.3,2.7,17,0l37.7-21.8c4.6-2.7,4.8-7.1,0-9.8L281.1,39
												c-4.7-2.7-12.4-2.7-17.1,0l-37.7,21.7C221.5,63.6,221.5,68,226.2,70.7z"/>
										</g>
									</g>
								</g>
							</g>
							<g>
								<g>
									<g>
										<path class="st8" d="M200.2,165.2l-0.2,66.5l57.9,33.4l0.2-66.5L200.2,165.2z"/>
									</g>
								</g>
							</g>
							<g>
								<g>
									<g>
										<g>
											<g>
												<path class="st3" d="M205.6,201.7c0,14.9,10.4,33,23.4,40.4c7.4,4.3,14,4.1,18.3,0.5c3.2-2.8,5.1-7.5,5.2-13.9
													c0-14.8-10.4-33-23.4-40.4c-5.6-3.2-10.7-3.9-14.8-2.5C209,187.7,205.6,193.2,205.6,201.7z"/>
											</g>
										</g>
									</g>
									<g>
										<g>
											<g>
												<g>
													<g>
														<g>
															<g>
																<g>
																	<g>
																		<g>
																			<g>
																				<path class="st4" d="M219.8,196.4c0.4,0.2,0.7,0.5,1.1,0.8c2.7,2.3,5.1,5.2,6.7,9.1c0.2,0.5,0.4,0.8,0.7,1
																					c0.1,0.1,0.3,0.1,0.5,0.1c-0.8-4.4-2.7-8.5-5.4-12.5l0.5-0.1c1.7,0.3,3.3,0.9,5.1,1.9c0.9,0.5,1.8,1.1,2.7,1.8
																					c1.6,1.3,2.8,3.1,3.4,5.3c0.9,3.7,0.8,6.9-0.6,9.1l0.3,1.6c2.6-1.3,3.9-4,4.5-7.6l0.5,0.6
																					c1.9,3.2,3.5,6.4,4.3,9.9c0.5,2,0.3,3.7-0.8,4.5c-2,1.3-4.4,1.5-7.4-0.1c-0.6-0.3-0.9-0.2-0.9,0.5
																					c1.3,1.2,2.6,2.1,3.8,2.8c2,1.2,4,1.8,6.1,2.2l0,0.9c-0.5,2.5-1.6,4.5-3.3,5.8c-0.9,0.7-2.1,0.7-3.4,0
																					c-0.4-0.2-0.8-0.5-1.2-0.9c-2.7-2.3-5-5.2-6.6-9l-1.2-1.1c0.8,4.4,2.8,8.5,5.4,12.5l-0.5,0.2
																					c-1.6-0.3-3.3-0.9-5-1.9c-0.9-0.5-1.8-1.1-2.7-1.8c-1.6-1.3-2.8-3.3-3.3-5.3c-0.9-3.6-0.8-6.8,0.5-9
																					c0.3-0.5,0.3-1-0.5-1.9c-0.9,1.2-2,2-2.7,3.3c-0.7,1.3-1.1,3-1.7,4.5l-0.3-0.4c-2-3.2-3.5-6.5-4.4-9.8
																					c-0.5-2.1-0.3-3.8,0.8-4.5c2-1.3,4.4-1.5,7.5,0c0.6,0.3,0.8,0.2,0.9-0.7c-1.4-1-2.8-2-4.1-2.7
																					c-0.3-0.2-0.6-0.3-0.9-0.5c-1.7-0.8-3.3-1.2-4.8-1.7l-0.1-0.2l0-0.5c0.5-2.6,1.5-4.5,3.1-5.8
																					C217.3,195.7,218.5,195.7,219.8,196.4z M228.9,221.1c0,0,0.1,0,0.1,0.1c2.9,1.6,5.2,0.3,5.2-3
																					c-0.1-3.3-2.4-7.4-5.2-9c-2.9-1.5-5.2-0.2-5.2,3.2C223.9,215.5,226.1,219.5,228.9,221.1z"/>
																			</g>
																		</g>
																	</g>
																</g>
																<g>
																	<g>
																		<g>
																			<path class="st4" d="M229.2,212.3c-1.5-0.8-2.6-0.2-2.6,1.5c0,1.6,1.1,3.6,2.6,4.4c1.4,0.8,2.6,0.2,2.6-1.4
																				C231.8,215.1,230.6,213.1,229.2,212.3z"/>
																		</g>
																	</g>
																</g>
															</g>
														</g>
													</g>
												</g>
											</g>
										</g>
									</g>
								</g>
							</g>
							<g>
								<g>
									<g>
										<path class="st8" d="M200.2,89.6l-0.2,66.5l57.9,33.4l0.2-66.5L200.2,89.6z"/>
									</g>
								</g>
							</g>
							<g>
								<g>
									<g>
										<g>
											<g>
												<path class="st3" d="M205.6,126.1c0,14.9,10.4,33,23.4,40.4c7.4,4.3,14,4.1,18.3,0.5c3.2-2.8,5.1-7.5,5.2-13.9
													c0-14.8-10.4-33-23.4-40.4c-5.6-3.2-10.7-3.9-14.8-2.5C209,112.1,205.6,117.7,205.6,126.1z"/>
											</g>
										</g>
									</g>
									<g>
										<g>
											<g>
												<g>
													<g>
														<g>
															<g>
																<g>
																	<g>
																		<g>
																			<g>
																				<path class="st4" d="M219.8,120.8c0.4,0.2,0.7,0.5,1.1,0.8c2.7,2.3,5.1,5.2,6.7,9.1c0.2,0.5,0.4,0.8,0.7,1
																					c0.1,0.1,0.3,0.1,0.5,0.1c-0.8-4.4-2.7-8.5-5.4-12.5l0.5-0.1c1.7,0.3,3.3,0.9,5.1,1.9c0.9,0.5,1.8,1.1,2.7,1.8
																					c1.6,1.3,2.8,3.1,3.4,5.3c0.9,3.7,0.8,6.9-0.6,9.1l0.3,1.6c2.6-1.3,3.9-4,4.5-7.6l0.5,0.6
																					c1.9,3.2,3.5,6.4,4.3,9.9c0.5,2,0.3,3.7-0.8,4.5c-2,1.3-4.4,1.5-7.4-0.1c-0.6-0.3-0.9-0.2-0.9,0.5
																					c1.3,1.2,2.6,2.1,3.8,2.8c2,1.2,4,1.8,6.1,2.2l0,0.9c-0.5,2.5-1.6,4.5-3.3,5.8c-0.9,0.7-2.1,0.7-3.4,0
																					c-0.4-0.2-0.8-0.5-1.2-0.9c-2.7-2.3-5-5.2-6.6-9l-1.2-1.1c0.8,4.4,2.8,8.5,5.4,12.5l-0.5,0.2
																					c-1.6-0.3-3.3-0.9-5-1.9c-0.9-0.5-1.8-1.1-2.7-1.8c-1.6-1.3-2.8-3.3-3.3-5.3c-0.9-3.6-0.8-6.8,0.5-9
																					c0.3-0.5,0.3-1-0.5-1.9c-0.9,1.2-2,2-2.7,3.3c-0.7,1.3-1.1,3-1.7,4.5l-0.3-0.4c-2-3.2-3.5-6.5-4.4-9.8
																					c-0.5-2.1-0.3-3.8,0.8-4.5c2-1.3,4.4-1.5,7.5,0c0.6,0.3,0.8,0.2,0.9-0.7c-1.4-1-2.8-2-4.1-2.7
																					c-0.3-0.2-0.6-0.3-0.9-0.5c-1.7-0.8-3.3-1.2-4.8-1.7l-0.1-0.2l0-0.5c0.5-2.6,1.5-4.5,3.1-5.8
																					C217.3,120.1,218.5,120.1,219.8,120.8z M228.9,145.5c0,0,0.1,0,0.1,0.1c2.9,1.6,5.2,0.3,5.2-3
																					c-0.1-3.3-2.4-7.4-5.2-9c-2.9-1.5-5.2-0.2-5.2,3.2C223.9,139.9,226.1,143.9,228.9,145.5z"/>
																			</g>
																		</g>
																	</g>
																</g>
																<g>
																	<g>
																		<g>
																			<path class="st4" d="M229.2,136.7c-1.5-0.8-2.6-0.2-2.6,1.5c0,1.6,1.1,3.6,2.6,4.4c1.4,0.8,2.6,0.2,2.6-1.4
																				C231.8,139.5,230.6,137.5,229.2,136.7z"/>
																		</g>
																	</g>
																</g>
															</g>
														</g>
													</g>
												</g>
											</g>
										</g>
									</g>
								</g>
							</g>
							<g>
								<g>
									<g>
										<g>
											<g>
												<path class="st3" d="M285.8,125.6v11.6l52.1-30l0-11.6L285.8,125.6z"/>
											</g>
										</g>
									</g>
									<g>
										<g>
											<g>
												<g>
													<path class="st9" d="M292.4,124.2c-1.8,1-3.2,3.5-3.2,5.5c0,2,1.4,2.9,3.2,1.8c1.8-1,3.2-3.5,3.2-5.5
														C295.7,124.1,294.2,123.2,292.4,124.2z"/>
												</g>
											</g>
										</g>
									</g>
								</g>
								<g>
									<g>
										<g>
											<g>
												<path class="st3" d="M285.8,148.9v11.6l52.1-30l0-11.6L285.8,148.9z"/>
											</g>
										</g>
									</g>
									<g>
										<g>
											<g>
												<g>
													<path class="st9" d="M292.4,147.5c-1.8,1-3.2,3.5-3.2,5.5c0,2,1.4,2.9,3.2,1.8c1.8-1,3.2-3.5,3.2-5.5
														C295.7,147.4,294.2,146.5,292.4,147.5z"/>
												</g>
											</g>
										</g>
									</g>
								</g>
								<g>
									<g>
										<g>
											<g>
												<path class="st3" d="M285.8,172.2v11.6l52.1-30l0-11.6L285.8,172.2z"/>
											</g>
										</g>
									</g>
									<g>
										<g>
											<g>
												<g>
													<path class="st9" d="M292.4,170.8c-1.8,1-3.2,3.5-3.2,5.5c0,2,1.4,2.9,3.2,1.8c1.8-1,3.2-3.5,3.2-5.5
														C295.7,170.6,294.2,169.8,292.4,170.8z"/>
												</g>
											</g>
										</g>
									</g>
								</g>
								<g>
									<g>
										<g>
											<g>
												<path class="st3" d="M285.8,195.5V207l52.1-30l0-11.6L285.8,195.5z"/>
											</g>
										</g>
									</g>
									<g>
										<g>
											<g>
												<g>
													<path class="st9" d="M292.4,194.1c-1.8,1-3.2,3.5-3.2,5.5c0,2,1.4,2.9,3.2,1.8c1.8-1,3.2-3.5,3.2-5.5
														C295.7,193.9,294.2,193.1,292.4,194.1z"/>
												</g>
											</g>
										</g>
									</g>
								</g>
								<g>
									<g>
										<g>
											<g>
												<path class="st3" d="M285.8,218.7v11.6l52.1-30l0-11.6L285.8,218.7z"/>
											</g>
										</g>
									</g>
									<g>
										<g>
											<g>
												<g>
													<path class="st9" d="M292.4,217.4c-1.8,1-3.2,3.5-3.2,5.5c0,2,1.4,2.9,3.2,1.8c1.8-1,3.2-3.5,3.2-5.5
														C295.7,217.2,294.2,216.4,292.4,217.4z"/>
												</g>
											</g>
										</g>
									</g>
								</g>
								<g>
									<g>
										<g>
											<g>
												<path class="st3" d="M285.8,242v11.6l52.1-30l0-11.6L285.8,242z"/>
											</g>
										</g>
									</g>
									<g>
										<g>
											<g>
												<g>
													<path class="st9" d="M292.4,240.7c-1.8,1-3.2,3.5-3.2,5.5c0,2,1.4,2.9,3.2,1.8c1.8-1,3.2-3.5,3.2-5.5
														C295.7,240.5,294.2,239.7,292.4,240.7z"/>
												</g>
											</g>
										</g>
									</g>
								</g>
							</g>
						</g>
					</g>
					<g>
						<g>
							<g>
								<g>
									<path class="st4" d="M324.3,106.6v5.8l-23.1,13.4l0-5.8L324.3,106.6z"/>
								</g>
							</g>
						</g>
						<g>
							<g>
								<g>
									<path class="st4" d="M324.3,129.9v5.8l-23.1,13.4l0-5.8L324.3,129.9z"/>
								</g>
							</g>
						</g>
						<g>
							<g>
								<g>
									<path class="st4" d="M324.3,153.2v5.8l-23.1,13.4l0-5.8L324.3,153.2z"/>
								</g>
							</g>
						</g>
						<g>
							<g>
								<g>
									<path class="st4" d="M324.3,176.5v5.8l-23.1,13.4l0-5.8L324.3,176.5z"/>
								</g>
							</g>
						</g>
						<g>
							<g>
								<g>
									<path class="st4" d="M324.3,199.8v5.8L301.1,219l0-5.8L324.3,199.8z"/>
								</g>
							</g>
						</g>
						<g>
							<g>
								<g>
									<path class="st4" d="M324.3,223.1v5.8l-23.1,13.4l0-5.8L324.3,223.1z"/>
								</g>
							</g>
						</g>
					</g>
					<g>
						<g>
							<g>
								<g>
									<path class="st9" d="M331.7,101.2c-1.8,1-3.2,3.5-3.2,5.5c0,2,1.4,2.9,3.2,1.8c1.8-1,3.2-3.5,3.2-5.5
										C334.9,101,333.4,100.2,331.7,101.2z"/>
								</g>
							</g>
						</g>
					</g>
					<g>
						<g>
							<g>
								<g>
									<path class="st9" d="M331.7,124.5c-1.8,1-3.2,3.5-3.2,5.5c0,2,1.4,2.9,3.2,1.8c1.8-1,3.2-3.5,3.2-5.5
										C334.9,124.3,333.4,123.5,331.7,124.5z"/>
								</g>
							</g>
						</g>
					</g>
					<g>
						<g>
							<g>
								<g>
									<path class="st9" d="M331.7,147.8c-1.8,1-3.2,3.5-3.2,5.5c0,2,1.4,2.9,3.2,1.8c1.8-1,3.2-3.5,3.2-5.5
										C334.9,147.6,333.4,146.7,331.7,147.8z"/>
								</g>
							</g>
						</g>
					</g>
					<g>
						<g>
							<g>
								<g>
									<path class="st9" d="M331.7,171.1c-1.8,1-3.2,3.5-3.2,5.5c0,2,1.4,2.9,3.2,1.8c1.8-1,3.2-3.5,3.2-5.5
										C334.9,170.9,333.4,170,331.7,171.1z"/>
								</g>
							</g>
						</g>
					</g>
					<g>
						<g>
							<g>
								<g>
									<path class="st9" d="M331.7,194.3c-1.8,1-3.2,3.5-3.2,5.5c0,2,1.4,2.9,3.2,1.8c1.8-1,3.2-3.5,3.2-5.5
										C334.9,194.2,333.4,193.3,331.7,194.3z"/>
								</g>
							</g>
						</g>
					</g>
					<g>
						<g>
							<g>
								<g>
									<path class="st9" d="M331.7,217.6c-1.8,1-3.2,3.5-3.2,5.5c0,2,1.4,2.9,3.2,1.8c1.8-1,3.2-3.5,3.2-5.5
										C334.9,217.4,333.4,216.6,331.7,217.6z"/>
								</g>
							</g>
						</g>
					</g>
				</g>
			</g>
			<g>
				<g>
					<g>
						<g>
							<path class="st1" d="M220.5,326l-0.1,31.3c0,1.3-0.9,2.7-2.7,3.6l-87.1,50.6c-3.4,2.1-9.2,2.1-12.7,0l-87.7-50.6
								c-1.8-1.1-2.7-2.4-2.7-3.7l0.1-31.3c0-1.3,0.9-2.7,2.7-3.6l87.1-50.6c3.4-2.1,9.2-2.1,12.7,0l87.7,50.6c2.4,1.4,3,3.2,2.2,5
								C220.2,326.8,220.5,326.4,220.5,326z"/>
						</g>
						<g>
							<g>
								<g>
									<g>
										<path class="st1" d="M217.8,329.6l-87.1,50.6c-3.5,2-9.2,2-12.7,0l-87.7-50.6c-1.8-1-2.7-2.4-2.6-3.7l-0.1,31.3
											c0,1.3,0.9,2.7,2.6,3.7l87.7,50.6c3.5,2,9.2,2,12.7,0l87.1-50.6c1.7-1,2.6-2.3,2.6-3.7l0.1-31.3
											C220.4,327.3,219.6,328.6,217.8,329.6z"/>
									</g>
								</g>
								<g>
									<g>
										<g>
											<path class="st2" d="M217.8,322.3c3.5,2,3.5,5.3,0,7.4l-87.1,50.6c-3.5,2-9.2,2-12.7,0l-87.7-50.6c-3.5-2-3.5-5.3,0-7.4
												l87.1-50.6c3.5-2,9.2-2,12.7,0L217.8,322.3z"/>
										</g>
									</g>
								</g>
							</g>
							<g>
								<g>
									<g>
										<g>
											<path class="st3" d="M35.1,342.1V354c0,1.7,1.2,3.8,2.7,4.6l72.6,41.9c1.5,0.9,2.7,0.2,2.7-1.5l0-11.8
												c0-1.7-1.2-3.8-2.7-4.6l-72.6-41.9C36.3,339.8,35.1,340.5,35.1,342.1z"/>
										</g>
									</g>
								</g>
								<g>
									<g>
										<g>
											<path class="st4" d="M106.4,384.4c0.9,0.5,1.6,1.7,1.6,2.7l0,6.1c0,1-0.7,1.4-1.6,0.9L71,373.7c-0.9-0.5-1.6-1.7-1.6-2.7
												l0-6.1c0-1,0.7-1.4,1.6-0.9L106.4,384.4z"/>
										</g>
									</g>
								</g>
								<g>
									<g>
										<g>
											<g>
												<path class="st4" d="M45.9,350c1.9,1.1,3.5,3.9,3.5,6.1c0,2.2-1.6,3.2-3.6,2c-1.9-1.1-3.5-3.9-3.5-6.1
													C42.4,349.8,44,348.9,45.9,350z"/>
											</g>
										</g>
									</g>
									<g>
										<g>
											<g>
												
													<ellipse transform="matrix(0.8649 -0.5019 0.5019 0.8649 -173.3653 77.2874)" class="st4" cx="56.9" cy="360.7" rx="2.9" ry="5"/>
											</g>
										</g>
									</g>
								</g>
							</g>
						</g>
						<g>
							<path class="st10" d="M205.5,150.4l-78.5-45.6l-85,49.1l0.4,171.9l78.5,45.6l85-49.1L205.5,150.4z"/>
						</g>
						<g>
							<g>
								<g>
									<g>
										<g>
											<g>
												<g>
													<g>
														<g>
															<path class="st10" d="M42.1,153.9l0.4,171.9l78.5,45.6l-0.4-171.9L42.1,153.9z"/>
														</g>
													</g>
													<g>
														<g>
															<path class="st11" d="M120.6,199.5l0.4,171.9l85-49.1l-0.4-171.9L120.6,199.5z"/>
														</g>
													</g>
													<g>
														<g>
															<path class="st10" d="M196.4,316.9l-0.3-150.1L130,204.9l0.3,150.1L196.4,316.9z"/>
														</g>
													</g>
													<g>
														<g>
															<path class="st9" d="M42.1,153.9l78.5,45.6l85-49.1l-78.5-45.6L42.1,153.9z"/>
														</g>
													</g>
												</g>
											</g>
										</g>
									</g>
								</g>
								<g>
									<g>
										<g>
											<path class="st10" d="M77.7,157l37.5,21.9c4.7,2.7,12.3,2.7,17,0l37.7-21.8c4.6-2.7,4.8-7.1,0-9.8l-37.4-21.9
												c-4.7-2.7-12.4-2.7-17.1,0l-37.7,21.7C72.9,149.9,72.9,154.3,77.7,157z"/>
										</g>
									</g>
								</g>
							</g>
							<g>
								<g>
									<g>
										<path class="st12" d="M51.6,251.6l-0.2,66.5l57.9,33.4l0.2-66.5L51.6,251.6z"/>
									</g>
								</g>
							</g>
							<g>
								<g>
									<g>
										<g>
											<g>
												<path class="st3" d="M57,288c0,14.9,10.4,33,23.4,40.4c7.4,4.3,14,4.1,18.3,0.5c3.2-2.8,5.1-7.5,5.2-13.9
													c0-14.8-10.4-33-23.4-40.4c-5.6-3.2-10.7-3.9-14.8-2.5C60.5,274,57.1,279.6,57,288z"/>
											</g>
										</g>
									</g>
									<g>
										<g>
											<g>
												<g>
													<g>
														<g>
															<g>
																<g>
																	<g>
																		<g>
																			<g>
																				<path class="st4" d="M79,292.6c0.2,0.5,0.4,0.8,0.7,1c0.1,0.1,0.3,0.1,0.5,0.1c-0.8-4.4-2.7-8.5-5.4-12.5
																					l0.5-0.1c1.7,0.3,3.3,0.9,5.1,1.9c3,1.7,5.3,3.8,6,7.1c0.9,3.7,0.8,6.9-0.6,9.1l0.3,1.6c2.6-1.3,3.9-4,4.5-7.6
																					l0.5,0.6c1.9,3.2,3.5,6.4,4.3,9.9c0.5,2,0.3,3.7-0.8,4.5c-2,1.3-4.4,1.5-7.4-0.1c-0.6-0.3-0.9-0.2-0.9,0.5
																					c1.3,1.2,2.6,2.1,3.8,2.8c2,1.2,4,1.8,6.1,2.2l0,0.9c-0.5,2.5-1.6,4.5-3.3,5.8c-1.4,1.1-3.2,0.3-4.5-0.9
																					c-2.7-2.3-5-5.2-6.6-9l-1.2-1.1c0.8,4.4,2.8,8.5,5.4,12.5l-0.5,0.2c-1.6-0.3-3.3-0.9-5-1.9
																					c-3-1.7-5.2-3.8-6-7.2c-0.9-3.6-0.8-6.8,0.5-9c0.3-0.5,0.3-1-0.5-1.9c-0.9,1.2-2,2-2.7,3.3
																					c-0.7,1.3-1.1,3-1.7,4.5c-1.9-3.5-3.5-5.5-4.7-10.3c-0.5-2.1-0.3-3.8,0.8-4.5c2-1.3,4.4-1.5,7.5,0
																					c0.6,0.3,0.8,0.2,0.9-0.7c-5.4-3.8-5-3.4-9.8-4.9l-0.1-0.2l0-0.5c0.5-2.6,1.5-4.5,3.1-5.8
																					C71.4,280,77.4,288.7,79,292.6z M80.4,307.5c0,0,0.1,0,0.1,0.1c2.9,1.6,5.2,0.3,5.2-3c-0.1-3.3-2.4-7.4-5.2-9
																					c-2.9-1.5-5.2-0.2-5.2,3.2C75.3,301.9,77.5,305.8,80.4,307.5z"/>
																			</g>
																		</g>
																	</g>
																</g>
																<g>
																	<g>
																		<g>
																			<path class="st4" d="M80.6,298.6c-1.5-0.8-2.6-0.2-2.6,1.5c0,1.6,1.1,3.6,2.6,4.4c1.4,0.8,2.6,0.2,2.6-1.4
																				C83.2,301.4,82.1,299.4,80.6,298.6z"/>
																		</g>
																	</g>
																</g>
															</g>
														</g>
													</g>
												</g>
											</g>
										</g>
									</g>
								</g>
							</g>
							<g>
								<g>
									<g>
										<path class="st12" d="M51.6,176l-0.2,66.5l57.9,33.4l0.2-66.5L51.6,176z"/>
									</g>
								</g>
							</g>
							<g>
								<g>
									<g>
										<g>
											<g>
												<path class="st3" d="M57,212.4c0,14.9,10.4,33,23.4,40.4c7.4,4.3,14,4.1,18.3,0.5c3.2-2.8,5.1-7.5,5.2-13.9
													c0-14.8-10.4-33-23.4-40.4c-5.6-3.2-10.7-3.9-14.8-2.5C60.5,198.4,57.1,204,57,212.4z"/>
											</g>
										</g>
									</g>
									<g>
										<g>
											<g>
												<g>
													<g>
														<g>
															<g>
																<g>
																	<g>
																		<g>
																			<g>
																				<path class="st4" d="M71.2,207.2c1.8,1.1,5.7,4.9,7.9,9.9c0.2,0.5,0.4,0.8,0.7,1c0.1,0.1,0.3,0.1,0.5,0.1
																					c-0.8-4.4-2.7-8.5-5.4-12.5l0.5-0.1c1.7,0.3,3.3,0.9,5.1,1.9c3,1.7,5.3,3.8,6,7.1c0.9,3.7,0.8,6.9-0.6,9.1
																					l0.3,1.6c2.6-1.3,3.9-4,4.5-7.6l0.5,0.6c1.9,3.2,3.5,6.4,4.3,9.9c0.5,2,0.3,3.7-0.8,4.5c-2,1.3-4.4,1.5-7.4-0.1
																					c-0.6-0.3-0.9-0.2-0.9,0.5c2.9,2.6,6.1,4.4,9.9,5l0,0.9c-0.5,2.5-1.6,4.5-3.3,5.8c-0.9,0.7-2.1,0.7-3.4,0
																					c-1.8-1.1-5.7-5-7.7-9.8l-1.2-1.1c0.8,4.4,2.8,8.5,5.4,12.5l-0.5,0.2c-1.6-0.3-3.3-0.9-5-1.9
																					c-3-1.7-5.2-3.8-6-7.2c-0.9-3.6-0.8-6.8,0.5-9c0.3-0.5,0.3-1-0.5-1.9c-0.9,1.2-2,2-2.7,3.3
																					c-0.7,1.3-1.1,3-1.7,4.5l-0.3-0.4c-2-3.2-3.5-6.5-4.4-9.8c-0.5-2.1-0.3-3.8,0.8-4.5c2-1.3,4.4-1.5,7.5,0
																					c0.6,0.3,0.8,0.2,0.9-0.7c-5.4-3.8-5-3.4-9.8-4.9l-0.1-0.2l0-0.5c0.5-2.6,1.5-4.5,3.1-5.8
																					C68.7,206.5,69.9,206.4,71.2,207.2z M80.4,231.9c0,0,0.1,0,0.1,0.1c2.9,1.6,5.2,0.3,5.2-3
																					c-0.1-3.3-2.4-7.4-5.2-9c-2.9-1.5-5.2-0.2-5.2,3.2C75.3,226.3,77.5,230.2,80.4,231.9z"/>
																			</g>
																		</g>
																	</g>
																</g>
																<g>
																	<g>
																		<g>
																			<path class="st4" d="M80.6,223c-1.5-0.8-2.6-0.2-2.6,1.5c0,1.6,1.1,3.6,2.6,4.4c1.4,0.8,2.6,0.2,2.6-1.4
																				C83.2,225.8,82.1,223.8,80.6,223z"/>
																		</g>
																	</g>
																</g>
															</g>
														</g>
													</g>
												</g>
											</g>
										</g>
									</g>
								</g>
							</g>
							<g>
								<g>
									<g>
										<g>
											<g>
												<path class="st3" d="M137.2,211.9v11.6l52.1-30l0-11.6L137.2,211.9z"/>
											</g>
										</g>
									</g>
									<g>
										<g>
											<g>
												<g>
													<path class="st4" d="M143.9,210.6c-1.8,1-3.2,3.5-3.2,5.5c0,2,1.4,2.9,3.2,1.8c1.8-1,3.2-3.5,3.2-5.5
														C147.1,210.4,145.6,209.6,143.9,210.6z"/>
												</g>
											</g>
										</g>
									</g>
								</g>
								<g>
									<g>
										<g>
											<g>
												<path class="st3" d="M137.2,235.2v11.6l52.1-30l0-11.6L137.2,235.2z"/>
											</g>
										</g>
									</g>
									<g>
										<g>
											<g>
												<g>
													<path class="st4" d="M143.9,233.9c-1.8,1-3.2,3.5-3.2,5.5c0,2,1.4,2.9,3.2,1.8c1.8-1,3.2-3.5,3.2-5.5
														C147.1,233.7,145.6,232.9,143.9,233.9z"/>
												</g>
											</g>
										</g>
									</g>
								</g>
								<g>
									<g>
										<g>
											<g>
												<path class="st3" d="M137.2,258.5v11.6l52.1-30l0-11.6L137.2,258.5z"/>
											</g>
										</g>
									</g>
									<g>
										<g>
											<g>
												<g>
													<path class="st4" d="M143.9,257.2c-1.8,1-3.2,3.5-3.2,5.5c0,2,1.4,2.9,3.2,1.8c1.8-1,3.2-3.5,3.2-5.5
														C147.1,257,145.6,256.1,143.9,257.2z"/>
												</g>
											</g>
										</g>
									</g>
								</g>
								<g>
									<g>
										<g>
											<g>
												<path class="st3" d="M137.2,281.8v11.6l52.1-30l0-11.6L137.2,281.8z"/>
											</g>
										</g>
									</g>
									<g>
										<g>
											<g>
												<g>
													<path class="st4" d="M143.9,280.5c-1.8,1-3.2,3.5-3.2,5.5c0,2,1.4,2.9,3.2,1.8c1.8-1,3.2-3.5,3.2-5.5
														C147.1,280.3,145.6,279.4,143.9,280.5z"/>
												</g>
											</g>
										</g>
									</g>
								</g>
								<g>
									<g>
										<g>
											<g>
												<path class="st3" d="M137.2,305.1v11.6l52.1-30l0-11.6L137.2,305.1z"/>
											</g>
										</g>
									</g>
									<g>
										<g>
											<g>
												<g>
													<path class="st4" d="M143.9,303.7c-1.8,1-3.2,3.5-3.2,5.5c0,2,1.4,2.9,3.2,1.8c1.8-1,3.2-3.5,3.2-5.5
														C147.1,303.6,145.6,302.7,143.9,303.7z"/>
												</g>
											</g>
										</g>
									</g>
								</g>
								<g>
									<g>
										<g>
											<g>
												<path class="st3" d="M137.2,328.4V340l52.1-30l0-11.6L137.2,328.4z"/>
											</g>
										</g>
									</g>
									<g>
										<g>
											<g>
												<g>
													<path class="st4" d="M143.9,327c-1.8,1-3.2,3.5-3.2,5.5c0,2,1.4,2.9,3.2,1.8c1.8-1,3.2-3.5,3.2-5.5
														C147.1,326.9,145.6,326,143.9,327z"/>
												</g>
											</g>
										</g>
									</g>
								</g>
							</g>
						</g>
					</g>
					<g>
						<g>
							<g>
								<g>
									<path class="st4" d="M175.7,193v5.8l-23.1,13.4l0-5.8L175.7,193z"/>
								</g>
							</g>
						</g>
						<g>
							<g>
								<g>
									<path class="st4" d="M175.7,216.3v5.8l-23.1,13.4l0-5.8L175.7,216.3z"/>
								</g>
							</g>
						</g>
						<g>
							<g>
								<g>
									<path class="st4" d="M175.7,239.6v5.8l-23.1,13.4l0-5.8L175.7,239.6z"/>
								</g>
							</g>
						</g>
						<g>
							<g>
								<g>
									<path class="st4" d="M175.7,262.9v5.8L152.6,282l0-5.8L175.7,262.9z"/>
								</g>
							</g>
						</g>
						<g>
							<g>
								<g>
									<path class="st4" d="M175.7,286.1v5.8l-23.1,13.4l0-5.8L175.7,286.1z"/>
								</g>
							</g>
						</g>
						<g>
							<g>
								<g>
									<path class="st4" d="M175.7,309.4v5.8l-23.1,13.4l0-5.8L175.7,309.4z"/>
								</g>
							</g>
						</g>
					</g>
					<g>
						<g>
							<g>
								<g>
									<path class="st4" d="M183.1,187.5c-1.8,1-3.2,3.5-3.2,5.5c0,2,1.4,2.9,3.2,1.8c1.8-1,3.2-3.5,3.2-5.5
										C186.3,187.3,184.9,186.5,183.1,187.5z"/>
								</g>
							</g>
						</g>
					</g>
					<g>
						<g>
							<g>
								<g>
									<path class="st4" d="M183.1,210.8c-1.8,1-3.2,3.5-3.2,5.5c0,2,1.4,2.9,3.2,1.8c1.8-1,3.2-3.5,3.2-5.5
										C186.3,210.6,184.9,209.8,183.1,210.8z"/>
								</g>
							</g>
						</g>
					</g>
					<g>
						<g>
							<g>
								<g>
									<path class="st4" d="M183.1,234.1c-1.8,1-3.2,3.5-3.2,5.5c0,2,1.4,2.9,3.2,1.8c1.8-1,3.2-3.5,3.2-5.5
										C186.3,233.9,184.9,233.1,183.1,234.1z"/>
								</g>
							</g>
						</g>
					</g>
					<g>
						<g>
							<g>
								<g>
									<path class="st4" d="M183.1,257.4c-1.8,1-3.2,3.5-3.2,5.5c0,2,1.4,2.9,3.2,1.8c1.8-1,3.2-3.5,3.2-5.5
										C186.3,257.2,184.9,256.4,183.1,257.4z"/>
								</g>
							</g>
						</g>
					</g>
					<g>
						<g>
							<g>
								<g>
									<path class="st4" d="M183.1,280.7c-1.8,1-3.2,3.5-3.2,5.5c0,2,1.4,2.9,3.2,1.8c1.8-1,3.2-3.5,3.2-5.5
										C186.3,280.5,184.9,279.7,183.1,280.7z"/>
								</g>
							</g>
						</g>
					</g>
					<g>
						<g>
							<g>
								<g>
									<path class="st4" d="M183.1,304c-1.8,1-3.2,3.5-3.2,5.5c0,2,1.4,2.9,3.2,1.8c1.8-1,3.2-3.5,3.2-5.5
										C186.3,303.8,184.9,303,183.1,304z"/>
								</g>
							</g>
						</g>
					</g>
				</g>
			</g>
		</g>
		<g>
			<g>
				<g>
					<g>
						<path class="st0" d="M207.4,431.1L167,407.8c-1.2-0.7-1.6-2.2-0.9-3.4c0.7-1.2,2.2-1.6,3.4-0.9l40.5,23.4c1.7,1,4.9,1,6.7,0
							l157.3-91.4c0.8-0.5,0.8-0.6,0-1L333.4,311c-1.2-0.7-1.6-2.2-0.9-3.4c0.7-1.2,2.2-1.6,3.4-0.9l40.5,23.4
							c4.2,2.4,4.2,7.2,0,9.6L219,431.1C215.8,433,210.7,433,207.4,431.1z"/>
					</g>
				</g>
			</g>
		</g>
	</g>
	<g>
		<g>
			<path class="st0" d="M343.8,407l-42.6-24.6c-1.2-0.7-1.6-2.2-0.9-3.4c0.7-1.2,2.2-1.6,3.4-0.9l42.6,24.6c1.2,0.7,1.6,2.2,0.9,3.4
				C346.5,407.2,345,407.6,343.8,407z"/>
		</g>
	</g>
	<g>
		<g>
			<g>
				<g>
					<path class="st0" d="M404.5,492.6L332,450.7c-3.2-1.9-3.2-5.7,0-7.5l72-41.9c2.3-1.3,5.7-1.3,8,0l72.5,41.9
						c3.2,1.9,3.2,5.6,0,7.5c0,0,0,0,0,0l-72,41.9C410.1,493.9,406.7,493.8,404.5,492.6z M335.3,447l71.6,41.3
						c0.8,0.5,2.3,0.5,3.1,0l71.1-41.3l-71.6-41.3c-0.8-0.4-2.3-0.4-3.1,0L335.3,447z"/>
				</g>
			</g>
		</g>
		<g>
			<g>
				<g>
					<g>
						<path class="st3" d="M484.4,400.3l-0.1,36.1c0,0.6-0.4,1.1-1.1,1.6l-72,41.9c-1.5,0.9-4,0.9-5.5,0L333.1,438
							c-0.8-0.4-1.2-1-1.2-1.6l0.1-36.2L484.4,400.3z"/>
					</g>
				</g>
			</g>
			<g>
				<g>
					<g>
						<path class="st13" d="M483.3,401.9l-72,41.9c-1.5,0.9-4,0.9-5.5,0l-72.5-41.8c-1.6-0.9-1.6-2.3,0-3.2l72-41.9
							c1.5-0.9,4-0.9,5.6,0l72.5,41.8C484.8,399.5,484.8,401,483.3,401.9z"/>
					</g>
				</g>
			</g>
			<g>
				<g>
					<g>
						<path class="st3" d="M408.4,436.4c-0.5,0-1.1-0.1-1.4-0.3l-59.8-34.5c-1-0.6-1-2.1,0-2.6l59.4-34.6c0.2-0.1,0.7-0.3,1.4-0.3
							c0.5,0,1.1,0.1,1.4,0.3l59.8,34.5c1,0.6,1,2.1,0,2.6l-59.5,34.6C409.5,436.3,409,436.4,408.4,436.4z"/>
					</g>
				</g>
			</g>
			<g>
				<g>
					<g>
						<g>
							<path class="st9" d="M420,452.1c2.2-1.3,4.1-0.3,4.1,2.3c0,2.6-1.8,5.7-4,7c-2.3,1.3-4.1,0.4-4.2-2.3
								C415.9,456.5,417.7,453.4,420,452.1z"/>
						</g>
					</g>
				</g>
				<g>
					<g>
						<g>
							<path class="st9" d="M476.5,419.4c2.3-1.3,4.1-0.3,4.1,2.3c0,2.6-1.8,5.7-4,7c-2.3,1.3-4.1,0.4-4.2-2.3
								C472.4,423.9,474.3,420.7,476.5,419.4z"/>
						</g>
					</g>
				</g>
				<g>
					<g>
						<g>
							<path class="st4" d="M467.2,425.1l0,8.7l-37.9,21.9l0-8.7L467.2,425.1z"/>
						</g>
					</g>
				</g>
			</g>
			<g>
				<g>
					<g>
						<g>
							<path class="st9" d="M399.2,452.1c-2.2-1.3-4.1-0.3-4.1,2.3c0,2.6,1.8,5.7,4,7c2.3,1.3,4.1,0.4,4.2-2.3
								C403.3,456.5,401.4,453.4,399.2,452.1z"/>
						</g>
					</g>
				</g>
				<g>
					<g>
						<g>
							<path class="st9" d="M342.6,419.4c-2.3-1.3-4.1-0.3-4.1,2.3c0,2.6,1.8,5.7,4,7c2.3,1.3,4.1,0.4,4.2-2.3
								C346.7,423.9,344.9,420.7,342.6,419.4z"/>
						</g>
					</g>
				</g>
				<g>
					<g>
						<g>
							<path class="st4" d="M352,425.1l0,8.7l37.9,21.9l0-8.7L352,425.1z"/>
						</g>
					</g>
				</g>
			</g>
		</g>
	</g>
</g>
<g>
	<g id="OBJECTS">
		<g>
			<polygon class="st14" points="371.5,385.6 377.8,394.2 374.4,393.7 368.2,385.1 			"/>
			
				<linearGradient id="SVGID_1_" gradientUnits="userSpaceOnUse" x1="586.03" y1="47.7854" x2="656.4504" y2="108.8887" gradientTransform="matrix(1 0 0 -1 -203.7553 454.9268)">
				<stop  offset="0" style="stop-color:#D13F05"/>
				<stop  offset="0.2925" style="stop-color:#F67205"/>
				<stop  offset="0.3667" style="stop-color:#F67705"/>
				<stop  offset="0.4526" style="stop-color:#F68505"/>
				<stop  offset="0.5441" style="stop-color:#F69C05"/>
				<stop  offset="0.5638" style="stop-color:#F6A205"/>
				<stop  offset="0.5977" style="stop-color:#F69005"/>
				<stop  offset="0.6432" style="stop-color:#F67F05"/>
				<stop  offset="0.6931" style="stop-color:#F67505"/>
				<stop  offset="0.7553" style="stop-color:#F67205"/>
				<stop  offset="1" style="stop-color:#D13F05"/>
			</linearGradient>
			<path class="st15" d="M443.3,334.3c2.1,2.9,4.2,5.7,6.3,8.6c4.2,5.9,6.5,13,6.4,20.3l-6.3-8.6
				C449.8,347.3,447.5,340.2,443.3,334.3z"/>
			<polygon class="st16" points="449.7,354.6 455.9,363.2 452.8,365.5 446.5,356.9 			"/>
			<polygon class="st14" points="418,396.6 424.2,405.2 422.9,407.4 416.6,398.8 			"/>
			
				<linearGradient id="SVGID_2_" gradientUnits="userSpaceOnUse" x1="588.2436" y1="45.2406" x2="658.6604" y2="106.3407" gradientTransform="matrix(1 0 0 -1 -203.7553 454.9268)">
				<stop  offset="0" style="stop-color:#D13F05"/>
				<stop  offset="0.2925" style="stop-color:#F67205"/>
				<stop  offset="0.3667" style="stop-color:#F67705"/>
				<stop  offset="0.4526" style="stop-color:#F68505"/>
				<stop  offset="0.5441" style="stop-color:#F69C05"/>
				<stop  offset="0.5638" style="stop-color:#F6A205"/>
				<stop  offset="0.5977" style="stop-color:#F69005"/>
				<stop  offset="0.6432" style="stop-color:#F67F05"/>
				<stop  offset="0.6931" style="stop-color:#F67505"/>
				<stop  offset="0.7553" style="stop-color:#F67205"/>
				<stop  offset="1" style="stop-color:#D13F05"/>
			</linearGradient>
			<path class="st17" d="M416.6,398.8l6.3,8.6c-8.9,3.5-18.8,4.1-28.1,1.6c-6.6-1.8-12.5-5.4-17-10.6l-6.3-8.6
				c4.5,5.1,10.4,8.8,17,10.6C397.8,402.9,407.7,402.3,416.6,398.8z"/>
			<polygon class="st18" points="420.3,397.3 426.5,405.9 424.2,405.2 418,396.6 			"/>
			
				<linearGradient id="SVGID_3_" gradientUnits="userSpaceOnUse" x1="598.1326" y1="33.8433" x2="668.5505" y2="94.9443" gradientTransform="matrix(1 0 0 -1 -203.7553 454.9268)">
				<stop  offset="0" style="stop-color:#D13F05"/>
				<stop  offset="0.2925" style="stop-color:#F67205"/>
				<stop  offset="0.3667" style="stop-color:#F67705"/>
				<stop  offset="0.4526" style="stop-color:#F68505"/>
				<stop  offset="0.5441" style="stop-color:#F69C05"/>
				<stop  offset="0.5638" style="stop-color:#F6A205"/>
				<stop  offset="0.5977" style="stop-color:#F69005"/>
				<stop  offset="0.6432" style="stop-color:#F67F05"/>
				<stop  offset="0.6931" style="stop-color:#F67505"/>
				<stop  offset="0.7553" style="stop-color:#F67205"/>
				<stop  offset="1" style="stop-color:#D13F05"/>
			</linearGradient>
			<path class="st19" d="M449.5,357.8l6.3,8.6c-0.4,4.9-1.7,9.8-3.8,14.2c-5.2,11.2-14.3,20.1-25.5,25.2l-6.3-8.6
				c11.2-5.1,20.2-14.1,25.5-25.2C447.8,367.5,449.1,362.7,449.5,357.8z"/>
			
				<linearGradient id="SVGID_4_" gradientUnits="userSpaceOnUse" x1="572.0789" y1="62.0242" x2="649.8635" y2="125.292" gradientTransform="matrix(1 0 0 -1 -203.7553 454.9268)">
				<stop  offset="0" style="stop-color:#FFFFFF;stop-opacity:0"/>
				<stop  offset="0.2606" style="stop-color:#FFFFFF"/>
				<stop  offset="0.7553" style="stop-color:#FFFFFF"/>
				<stop  offset="1" style="stop-color:#FFFFFF;stop-opacity:0"/>
			</linearGradient>
			<path class="st20" d="M449.9,358.3c-0.4,4.9-1.7,9.8-3.8,14.2c-5.2,11.2-14.3,20.1-25.5,25.2l-2.3-0.6l-1.4,2.2
				c-8.9,3.5-18.8,4.1-28.1,1.6c-6.6-1.8-12.5-5.4-17-10.6l-0.1-4.3l-3.3-0.4c-5.8-9.8-6.5-22.6-0.8-35.1c1.7-3.7,3.9-7.2,6.4-10.4
				c1.3-0.6,2.7-1.3,3.9-2l0.6-2.9c10.6-10.2,25.3-15.8,39.2-14.4l3,2.4l8.5,0.4c13.1,5.5,20.7,17.7,20.7,31.5l-3.2,2.3L449.9,358.3
				z"/>
			
				<linearGradient id="SVGID_5_" gradientUnits="userSpaceOnUse" x1="640.4044" y1="81.2146" x2="561.5119" y2="114.5401" gradientTransform="matrix(1 0 0 -1 -203.7553 454.9268)">
				<stop  offset="0" style="stop-color:#FFAF02"/>
				<stop  offset="1" style="stop-color:#F56D05"/>
			</linearGradient>
			<path class="st21" d="M449.5,357.8c-0.4,4.9-1.7,9.8-3.8,14.2c-5.2,11.2-14.3,20.1-25.5,25.2l-2.3-0.6l-1.4,2.2
				c-8.9,3.5-18.8,4.1-28.1,1.6c-6.6-1.8-12.5-5.4-17-10.6l-0.1-4.3l-3.3-0.4c-5.8-9.8-6.5-22.6-0.8-35.1c1.7-3.7,3.9-7.2,6.4-10.4
				c1.3-0.6,2.7-1.3,3.9-2l0.6-2.9c10.6-10.2,25.3-15.8,39.2-14.4l3,2.4l8.5,0.4c13.1,5.5,20.7,17.7,20.7,31.5l-3.2,2.3L449.5,357.8
				z"/>
			
				<linearGradient id="SVGID_6_" gradientUnits="userSpaceOnUse" x1="581.4332" y1="120.9457" x2="627.2222" y2="77.1787" gradientTransform="matrix(1 0 0 -1 -203.7553 454.9268)">
				<stop  offset="0" style="stop-color:#FFFFFF;stop-opacity:0"/>
				<stop  offset="0.2606" style="stop-color:#FFFFFF"/>
				<stop  offset="0.7553" style="stop-color:#FFFFFF"/>
				<stop  offset="1" style="stop-color:#FFFFFF;stop-opacity:0"/>
			</linearGradient>
			<path class="st22" d="M418.9,332.1c15.7,4.4,22.6,20.9,15.4,36.7c-7.2,15.9-25.9,25.1-41.6,20.7c-15.7-4.4-22.6-20.9-15.4-36.7
				C384.5,336.9,403.1,327.7,418.9,332.1z"/>
			
				<linearGradient id="SVGID_7_" gradientUnits="userSpaceOnUse" x1="578.9267" y1="93.937" x2="641.7134" y2="93.937" gradientTransform="matrix(1 0 0 -1 -203.7553 454.9268)">
				<stop  offset="0" style="stop-color:#CF4505"/>
				<stop  offset="1" style="stop-color:#E45905"/>
			</linearGradient>
			<path class="st23" d="M419.7,332.3c15.7,4.4,22.6,20.9,15.4,36.7c-7.2,15.9-25.9,25.1-41.6,20.7c-15.7-4.4-22.6-20.9-15.4-36.7
				C385.3,337.1,403.9,327.8,419.7,332.3z"/>
			<path class="st24" d="M395.9,390.2c-15.7-4.4-22.6-20.9-15.4-36.7c6.7-14.7,23.2-23.7,38.1-21.4c-15.5-3.8-33.5,5.4-40.6,21
				c-7.2,15.9-0.4,32.3,15.4,36.7c1.2,0.3,2.3,0.6,3.5,0.8C396.6,390.4,396.3,390.3,395.9,390.2z"/>
			
				<radialGradient id="SVGID_8_" cx="1455.1543" cy="-292.5735" r="23.4764" gradientTransform="matrix(7.290000e-02 7.410000e-02 0.4921 -0.4845 472.0643 138.2714)" gradientUnits="userSpaceOnUse">
				<stop  offset="0" style="stop-color:#FFFFFF"/>
				<stop  offset="8.578000e-02" style="stop-color:#FFFFFF;stop-opacity:0.9583"/>
				<stop  offset="0.2351" style="stop-color:#FFFFFF;stop-opacity:0.8462"/>
				<stop  offset="0.4301" style="stop-color:#FFFFFF;stop-opacity:0.6642"/>
				<stop  offset="0.6634" style="stop-color:#FFFFFF;stop-opacity:0.4119"/>
				<stop  offset="0.9261" style="stop-color:#FFFFFF;stop-opacity:9.449000e-02"/>
				<stop  offset="1" style="stop-color:#FFFFFF;stop-opacity:0"/>
			</radialGradient>
			<path class="st25" d="M435.9,389.6c-6.4,6.3-12.3,10.6-13.3,9.6c-0.9-1,3.5-6.8,9.8-13.1c6.4-6.3,12.3-10.6,13.3-9.6
				C446.7,377.4,442.3,383.3,435.9,389.6z"/>
			
				<linearGradient id="SVGID_9_" gradientUnits="userSpaceOnUse" x1="599.9939" y1="106.0365" x2="628.3006" y2="72.8263" gradientTransform="matrix(1 0 0 -1 -203.7553 454.9268)">
				<stop  offset="0" style="stop-color:#FFFFFF"/>
				<stop  offset="1" style="stop-color:#FFFFFF;stop-opacity:0"/>
			</linearGradient>
			<path class="st26" d="M440.5,331L371.5,388l0,1.8c4.5,5.1,10.4,8.8,17,10.6c1.6,0.4,3.2,0.8,4.8,1L447,357l-0.5-0.1l3.2-2.3
				C449.8,345.8,446.5,337.3,440.5,331z"/>
			
				<linearGradient id="SVGID_10_" gradientUnits="userSpaceOnUse" x1="583.4921" y1="121.3116" x2="598.6326" y2="105.9532" gradientTransform="matrix(1 0 0 -1 -203.7553 454.9268)">
				<stop  offset="0" style="stop-color:#FFFFFF"/>
				<stop  offset="1" style="stop-color:#FFFFFF;stop-opacity:0"/>
			</linearGradient>
			<path class="st27" d="M420.6,322.7l-3-2.4c-4.1-0.4-8.3-0.2-12.4,0.6l-39.1,32.4c-2.2,5.7-3,11.9-2.5,18l58.5-48.4L420.6,322.7z"
				/>
			<g>
				<defs>
					<rect id="SVGID_11_" x="388.8" y="338.5" width="43.7" height="45"/>
				</defs>
				<clipPath id="SVGID_12_">
					<use xlink:href="#SVGID_11_"  style="overflow:visible;"/>
				</clipPath>
				<g class="st28">
					
						<linearGradient id="SVGID_13_" gradientUnits="userSpaceOnUse" x1="2559.3679" y1="1873.6995" x2="2559.3679" y2="1828.6884" gradientTransform="matrix(1 0 0 1 -2148.7554 -1490.2074)">
						<stop  offset="0" style="stop-color:#FFC000"/>
						<stop  offset="0.28" style="stop-color:#FFC000"/>
						<stop  offset="0.55" style="stop-color:#DAA600"/>
						<stop  offset="1" style="stop-color:#DAA600"/>
					</linearGradient>
					<path class="st29" d="M396.5,356.8c-0.2-0.2-0.4-0.4-0.5-0.6c-1.9-2.3-3.2-4.9-3.9-7.7c-0.5-2-0.6-4.1-0.4-6.2
						c0.1-1.1,0.4-2.2,0.9-3.1c0.3-0.6,1-0.9,1.6-0.6c0,0,0,0,0,0c1.4,0.5,2.5,1.5,3.3,2.7c2,2.7,3.4,5.8,4,9.1
						c0.2,1,0.2,2.1,0.3,3.1c0,0.4,0.1,0.8,0.1,1.2c0,0.3,0.2,0.5,0.6,0.4c1.4-0.2,2.9-0.1,4.3,0.3c1.2,0.3,2.4,0.7,3.6,1.2
						c1.7,0.7,3.2,1.7,4.4,3c0.1,0.2,0.4,0.2,0.6,0.1c0,0,0,0,0,0c0,0,0.1-0.1,0.1-0.1c0.3-0.3,0.6-0.6,0.9-0.9
						c2.7-3.1,6.3-5.3,10.3-6.4c1.3-0.4,2.6-0.5,3.9-0.4c0.6,0.1,1.2,0.3,1.7,0.5c0.2,0.2,0.4,0.4,0.4,0.7c0,0.4,0,0.8-0.1,1.1
						c-0.5,1.5-1.4,2.9-2.6,4.1c-2.8,3.1-6.6,5.3-10.7,6c-0.3,0.1-0.6,0.1-1,0.1c0.1,0.3,0.1,0.5,0.2,0.7c0.4,1.4,0.6,2.9,0.5,4.4
						c0,1.8-0.3,3.5-0.9,5.2c-0.6,1.9-1.6,3.7-2.9,5.3c-1.2,1.5-2.9,2.5-4.8,2.8c-1.3,0.4-2.7,0.5-4.1,0.3c-1.3-0.2-2.7-0.4-4-0.7
						c-1.4-0.4-2.7-0.8-4-1.4c-2.2-0.8-4.2-2-5.9-3.5c-1.8-1.5-3-3.6-3.4-5.9c-0.1-1.1-0.1-2.2,0.1-3.3c0.2-1.4,0.6-2.8,1.1-4.1
						c0.8-2.1,2.1-4,3.7-5.6c0.7-0.7,1.6-1.3,2.4-2L396.5,356.8z M397.8,372.9l0,0.1c-1.5-0.1-1.8,0.9-1.5,2c0,0.2,0.1,0.3,0.1,0.5
						c0.3,1.2,1.1,2.3,2.2,2.9c1.1,0.5,2.2,1,3.4,1.3c1.6,0.5,3.4,0.1,4.7-1.1c0.6-0.4,0.8-1.1,0.4-1.7c-0.1-0.1-0.2-0.3-0.3-0.4
						c-0.7-0.5-1.4-1-2.2-1.3c-1.3-0.6-2.6-1-3.9-1.5C399.7,373.3,398.8,373.1,397.8,372.9L397.8,372.9z M396.6,361.5
						c0-1-0.4-1.5-1.1-1.7c-0.6-0.1-1.2,0.1-1.6,0.7c-1.5,1.9-2.6,4-3.3,6.3c-0.1,0.4-0.1,0.8-0.1,1.1c0.1,0.7,0.7,1.2,1.4,1.1
						c0.3,0,0.7-0.2,0.9-0.5c0.5-0.7,1.1-1.5,1.5-2.3c0.6-1,1.1-2.1,1.7-3.1C396.2,362.6,396.4,362.1,396.6,361.5L396.6,361.5z
						 M417.6,369.7c0-0.4-0.1-0.8-0.2-1.3c-0.2-0.7-1-1.2-1.7-1c0,0,0,0,0,0c0,0-0.1,0-0.1,0c-0.5,0.2-0.9,0.7-1,1.3
						c-0.5,1.9-0.9,3.8-1.3,5.8c-0.1,0.6-0.1,1.2,0,1.8c0.1,0.7,0.8,1.1,1.4,0.9c0.2,0,0.3-0.1,0.4-0.2c0.5-0.3,0.8-0.7,0.9-1.3
						c0.4-1.1,0.7-2.2,1-3.3C417.3,371.6,417.4,370.6,417.6,369.7L417.6,369.7z"/>
				</g>
			</g>
		</g>
	</g>
</g>
<g class="st30">
	<g>
		<g>
			<g>
				<path class="st31" d="M464.7,299.4l-0.1,101.3c0,0.4-0.3,0.9-0.9,1.2l-53.4,31.1c-1.1,0.7-3,0.7-4.1,0l-53.8-31.1
					c-0.5-0.3-0.9-0.8-0.9-1.2l0.1-101.3c0,0.4,0.3,0.9,0.9,1.2l53.8,31.1c1.1,0.7,2.9,0.7,4.1,0l53.5-31.1
					C464.5,300.2,464.7,299.8,464.7,299.4z"/>
			</g>
		</g>
	</g>
	<g>
		<g>
			<g>
				<path class="st32" d="M463.9,300.6l-53.5,31.1c-1.1,0.7-3,0.7-4.1,0l-53.8-31c-1.2-0.7-1.2-1.7,0-2.4l53.4-31.1
					c1.1-0.7,3-0.7,4.1,0l53.8,31C465,298.8,465,299.9,463.9,300.6z"/>
			</g>
		</g>
	</g>
</g>
</svg>
