<?xml version="1.0" encoding="utf-8"?>
<!-- Generator: Adobe Illustrator 25.2.1, SVG Export Plug-In . SVG Version: 6.00 Build 0)  -->
<svg version="1.1" id="Layer_1" xmlns="http://www.w3.org/2000/svg" xmlns:xlink="http://www.w3.org/1999/xlink" x="0px" y="0px"
	 viewBox="0 0 512 512" style="enable-background:new 0 0 512 512;" xml:space="preserve">
<style type="text/css">
	.st0{fill:#9EA9C9;}
	.st1{enable-background:new    ;}
	.st2{fill:#B0B8CF;}
	.st3{fill:#E3E7F0;}
	.st4{fill:#4C5C75;}
	.st5{fill:#FFFFFF;}
	.st6{fill:#1D2943;}
	.st7{fill:#989FB2;}
	.st8{fill:#7E5AF2;}
	.st9{fill:#B28AFD;}
	.st10{fill:#DEDFFB;}
	.st11{fill:#E9E7FC;}
	.st12{fill:#F3F1FC;}
	.st13{fill:#C9CEE2;}
	.st14{fill:#78E75A;}
	.st15{fill:#D84905;}
	.st16{fill:url(#SVGID_1_);}
	.st17{fill:#F67205;}
	.st18{fill:url(#SVGID_2_);}
	.st19{fill:#F69D05;}
	.st20{fill:url(#SVGID_3_);}
	.st21{opacity:0.7;fill:url(#SVGID_4_);enable-background:new    ;}
	.st22{fill:url(#SVGID_5_);}
	.st23{opacity:0.7;fill:url(#SVGID_6_);enable-background:new    ;}
	.st24{fill:url(#SVGID_7_);}
	.st25{fill:#BA3E05;}
	.st26{opacity:0.5;fill:url(#SVGID_8_);enable-background:new    ;}
	.st27{opacity:0.4;fill:url(#SVGID_9_);enable-background:new    ;}
	.st28{opacity:0.4;fill:url(#SVGID_10_);enable-background:new    ;}
	.st29{clip-path:url(#SVGID_12_);}
	.st30{fill-rule:evenodd;clip-rule:evenodd;fill:url(#SVGID_13_);}
	.st31{fill:url(#SVGID_14_);}
	.st32{fill:url(#SVGID_15_);}
	.st33{fill:url(#SVGID_16_);}
	.st34{opacity:0.7;fill:url(#SVGID_17_);enable-background:new    ;}
	.st35{fill:url(#SVGID_18_);}
	.st36{opacity:0.7;fill:url(#SVGID_19_);enable-background:new    ;}
	.st37{fill:url(#SVGID_20_);}
	.st38{opacity:0.5;fill:url(#SVGID_21_);enable-background:new    ;}
	.st39{opacity:0.4;fill:url(#SVGID_22_);enable-background:new    ;}
	.st40{opacity:0.4;fill:url(#SVGID_23_);enable-background:new    ;}
	.st41{clip-path:url(#SVGID_25_);}
	.st42{fill-rule:evenodd;clip-rule:evenodd;fill:url(#SVGID_26_);}
	.st43{fill:url(#SVGID_27_);}
	.st44{fill:url(#SVGID_28_);}
	.st45{fill:url(#SVGID_29_);}
	.st46{opacity:0.7;fill:url(#SVGID_30_);enable-background:new    ;}
	.st47{fill:url(#SVGID_31_);}
	.st48{opacity:0.7;fill:url(#SVGID_32_);enable-background:new    ;}
	.st49{fill:url(#SVGID_33_);}
	.st50{opacity:0.5;fill:url(#SVGID_34_);enable-background:new    ;}
	.st51{opacity:0.4;fill:url(#SVGID_35_);enable-background:new    ;}
	.st52{opacity:0.4;fill:url(#SVGID_36_);enable-background:new    ;}
	.st53{clip-path:url(#SVGID_38_);}
	.st54{fill-rule:evenodd;clip-rule:evenodd;fill:url(#SVGID_39_);}
	.st55{opacity:0.3;}
	.st56{fill:#748BFD;}
	.st57{fill:#576CFB;}
	.st58{opacity:0.25;}
	.st59{fill:#497BFE;}
	.st60{fill:#57B3FE;}
</style>
<g>
	<path class="st0" d="M359.9,225.3c-0.8,0-1.7-0.4-2.1-1.2c-0.7-1.2-0.3-2.7,0.9-3.4l37.3-21.5c1.2-0.7,2.7-0.3,3.4,0.9
		c0.7,1.2,0.3,2.7-0.9,3.4L361.1,225C360.7,225.2,360.3,225.3,359.9,225.3z"/>
</g>
<g>
	<g>
		<path class="st0" d="M81.1,426.1c-4.6,0-9.2-1-12.9-3.1l-45-26c-3.9-2.3-6.1-5.4-6.1-8.9c0-3.4,2.1-6.6,6-8.8l44.7-26
			c7.2-4.2,18.5-4.2,25.7,0l45,26c3.9,2.3,6.1,5.4,6.1,8.9c0,3.4-2.1,6.6-6,8.8l-44.7,26C90.3,425.1,85.7,426.1,81.1,426.1z
			 M80.7,355.1c-3.8,0-7.6,0.8-10.4,2.4l-44.7,26c-2.2,1.3-3.5,3-3.5,4.6c0,1.6,1.3,3.3,3.6,4.6l45,26c5.6,3.3,15.1,3.3,20.7,0
			l44.7-26c2.2-1.3,3.5-3,3.5-4.6c0-1.6-1.3-3.3-3.6-4.6l-45-26C88.2,355.9,84.4,355.1,80.7,355.1z"/>
	</g>
</g>
<g>
	<g>
		<path class="st0" d="M431.3,218.7c-4.6,0-9.2-1-12.9-3.1l-45-26c-3.9-2.3-6.1-5.4-6.1-8.9c0-3.4,2.1-6.6,6-8.8l44.7-26
			c7.2-4.2,18.5-4.2,25.7,0l45,26c3.9,2.3,6.1,5.4,6.1,8.9c0,3.4-2.1,6.6-6,8.8l-44.7,26C440.6,217.6,436,218.7,431.3,218.7z
			 M430.9,147.7c-3.8,0-7.6,0.8-10.4,2.4l-44.7,26c-2.3,1.3-3.5,3-3.5,4.6c0,1.6,1.3,3.3,3.6,4.6l45,26c5.6,3.2,15.1,3.3,20.7,0
			l44.7-26c2.3-1.3,3.5-3,3.5-4.6c0-1.6-1.3-3.3-3.6-4.6l-45-26C438.5,148.5,434.7,147.7,430.9,147.7z"/>
	</g>
</g>
<g>
	<g>
		<g>
			<path class="st0" d="M292.3,373.3c-8.4,0-16.8-1.9-23.1-5.5L56.5,244.2c-6.6-3.8-10.2-9.1-10.2-14.8c0-5.7,3.7-11,10.4-14.9
				l110.2-63.6c12.8-7.4,33.6-7.4,46.3,0l212.7,123.6c6.6,3.8,10.2,9.1,10.2,14.8c0,5.7-3.7,11-10.4,14.9l-110.2,63.6
				C309,371.5,300.6,373.3,292.3,373.3z M59.1,218.8c-5.1,2.9-7.9,6.7-7.9,10.6c0,3.9,2.8,7.6,7.8,10.5l212.7,123.6
				c11.4,6.6,29.9,6.6,41.3,0l110.2-63.6c5.1-2.9,7.9-6.7,7.9-10.6c0-3.9-2.8-7.6-7.8-10.5L210.6,155.2c-11.4-6.6-29.9-6.6-41.3,0
				L59.1,218.8z"/>
		</g>
	</g>
	<g>
		<g>
			<g>
				<g>
					<g>
						<g>
							<g class="st1">
								<g>
									<path class="st2" d="M433.7,275c0,4.7-3,9.2-9.1,12.8l-110.3,63.7c-12.1,7-31.8,7-43.8,0L57.8,227.7c-6-3.4-9-8-9-12.6
										l-0.1-25.1l384.8,59.8L433.7,275z"/>
								</g>
								<g>
									<g>
										<path class="st3" d="M57.9,177.2c-12.1,7-12.2,18.4-0.1,25.4l212.7,123.6c12.1,7,31.7,7,43.8,0l110.2-63.6
											c12.1-7,12.2-18.4,0.1-25.4L211.9,113.6c-12.1-7-31.7-7-43.8,0L57.9,177.2z"/>
									</g>
								</g>
							</g>
						</g>
						<g>
							<g>
								<path class="st4" d="M420.9,260.6l-110.2,63.6c-10.2,5.9-26.7,5.9-36.8,0L61.2,200.6c-10.1-5.9-10.1-15.4,0.1-21.3
									l110.2-63.6c10.2-5.9,26.7-5.9,36.8,0L421,239.2C431.2,245.1,431.1,254.7,420.9,260.6z"/>
							</g>
						</g>
						<g>
							<g>
								<g>
									<path class="st5" d="M78.1,203.7l190.5,110.7L404,236.1L213.6,125.4L78.1,203.7z"/>
								</g>
							</g>
						</g>
						<g>
							<g class="st1">
								<g>
									<g>
										<path class="st6" d="M98.5,237.8c0,1.6-0.6,2.7-1.5,3.2l-3.6,2.1l-0.2,0.1c-0.9,0.6-2.2,0.5-3.5-0.3l-21.2-12.3
											c-2.8-1.6-5-5.4-5-8.6c0-1.6,0.6-2.8,1.5-3.2c0.1,0,0.1-0.1,0.2-0.1c0.1-0.1,0.3-0.2,0.4-0.2l3.2-2
											c0.9-0.5,2.2-0.4,3.5,0.4l21.2,12.2C96.2,230.7,98.5,234.7,98.5,237.8z"/>
									</g>
									<g>
										<path class="st6" d="M135.1,259c0,1.6-0.6,2.7-1.5,3.2l-3.6,2.1c-0.9,0.7-2.2,0.7-3.6-0.2l-21.3-12.3
											c-2.8-1.6-5-5.4-4.9-8.6c0-1.7,0.6-2.9,1.6-3.3h0.1l3.5-2.2c0.9-0.5,2.2-0.4,3.5,0.4l21.3,12.2
											C133,251.9,135.1,255.8,135.1,259z"/>
									</g>
								</g>
							</g>
						</g>
						<g>
							<g>
								<g>
									<path class="st6" d="M68.5,219.1c-2.8-1.6-5-0.3-5,2.9c0,3.2,2.2,7,5,8.6l21.2,12.2c2.8,1.6,5,0.3,5-2.9
										c0-3.2-2.2-7.1-5-8.7L68.5,219.1z"/>
								</g>
							</g>
							<g class="st1">
								<g>
									<g>
										<path class="st4" d="M93.5,229.2l-21.2-12.2c-1.4-0.8-2.6-0.9-3.5-0.3l-3.8,2.2c0.9-0.5,2.1-0.5,3.5,0.3l21.2,12.2
											c2.8,1.6,5,5.5,5,8.7c0,1.6-0.6,2.7-1.5,3.2L97,241c0.9-0.5,1.5-1.6,1.5-3.2C98.5,234.6,96.2,230.8,93.5,229.2z"/>
									</g>
									<g>
										<path class="st4" d="M130.2,250.4l-21.2-12.3c-1.4-0.8-2.6-0.9-3.5-0.3l-3.8,2.2c0.9-0.5,2.2-0.5,3.5,0.3l21.2,12.3
											c2.7,1.6,5,5.5,5,8.6c0,1.6-0.6,2.7-1.5,3.2l3.8-2.2c0.9-0.5,1.5-1.6,1.5-3.2C135.1,255.8,132.9,251.9,130.2,250.4z"/>
									</g>
								</g>
								<g>
									<g>
										<path class="st6" d="M105.1,240.3c-2.7-1.6-5-0.3-5,2.9c0,3.2,2.2,7.1,5,8.6l21.2,12.3c2.7,1.6,5,0.3,5-2.9
											c0-3.2-2.2-7.1-5-8.6L105.1,240.3z"/>
									</g>
								</g>
							</g>
						</g>
					</g>
				</g>
			</g>
		</g>
		<g>
			<g>
				<path class="st2" d="M109.6,163.9c-1.9,1.1-1.9,2.9,0.1,4.1c1.9,1.1,5,1.1,6.9,0l34-19.7c2-1.1,2-2.9,0.1-4
					c-1.9-1.1-5.1-1.2-7,0L109.6,163.9z"/>
			</g>
		</g>
		<g>
			<g>
				<path class="st7" d="M344.6,276.2c-4.1,2.3-4,6.1,0,8.4c4,2.3,10.5,2.3,14.6,0c4-2.3,4.1-6.1,0.1-8.5
					C355.2,273.9,348.6,273.9,344.6,276.2z"/>
			</g>
		</g>
	</g>
</g>
<g>
	<g>
		<g class="st1">
			<g>
				<g>
					<g>
						<path class="st8" d="M309.6,214.5l-0.1,10.9c0,10.5-6.9,21-20.7,29c-27.7,16-72.7,16-100.5,0c-14-8.1-21-18.7-21-29.3
							l0.1-10.7c-0.1-10.5,6.8-21.1,20.6-29.1c27.8-16.1,72.9-16.1,100.6-0.1C302.6,193.2,309.6,203.9,309.6,214.5z"/>
					</g>
				</g>
			</g>
		</g>
	</g>
	<g>
		<g class="st1">
			<g>
				<g>
					<g>
						<path class="st8" d="M309.6,214.5l-0.1,11c0,10.5-6.9,21-20.8,29c-27.6,16.1-72.6,16.1-100.5,0c-14-8.1-21-18.7-21-29.3
							l0.1-11c0,10.6,7,21.2,21,29.3c27.9,16.1,72.9,16.1,100.5,0C302.7,235.4,309.6,225,309.6,214.5z"/>
					</g>
				</g>
			</g>
			<g>
				<g>
					<g>
						<path class="st9" d="M288.6,185.2c27.9,16.1,28,42.2,0.2,58.3c-27.6,16.1-72.6,16.1-100.5,0c-27.8-16.1-28-42.2-0.3-58.2
							C215.8,169.1,260.8,169.1,288.6,185.2z"/>
					</g>
				</g>
			</g>
		</g>
	</g>
	<g>
		<g>
			<g>
				<g>
					<g>
						<path class="st10" d="M279.2,237.6c-22.2,13.1-58.5,13.1-80.9,0.3c-22.5-12.9-22.7-33.8-0.5-46.9c22.3-13,58.4-13.2,80.9-0.3
							C301.2,203.6,301.4,224.6,279.2,237.6z"/>
					</g>
				</g>
			</g>
		</g>
	</g>
	<g>
		<g>
			<g>
				<path class="st2" d="M269,192.8c-17.7-10.1-46.2-10-63.7,0.3c-10.6,6.2-14.7,14.7-12.3,22.7c1.5-5,5.6-9.8,12.3-13.7
					c17.5-10.3,46-10.4,63.7-0.3c7,4,11.2,9,12.6,14.2C284.1,207.8,279.9,199.1,269,192.8z"/>
			</g>
		</g>
		<g>
			<g>
				<path class="st4" d="M269,201.8c-17.7-10.1-46.2-10-63.7,0.3c-6.7,3.9-10.8,8.7-12.3,13.7c1.4,5.2,5.7,10.2,12.7,14.2
					c17.6,10.1,46.2,10.1,63.6-0.3c6.7-3.9,10.8-8.7,12.3-13.7C280.2,210.8,275.9,205.8,269,201.8z"/>
			</g>
		</g>
	</g>
</g>
<g>
	<g>
		<g>
			<g>
				<g>
					<path class="st11" d="M492,115.3l-0.2,56.5c0,2.4-1.6,4.8-4.7,6.7l-44.7,26c-0.8,0.5-1.7,0.8-2.6,1.2c-1.4,0.5-3,0.9-4.5,1.2
						c-1.4,0.2-2.8,0.4-4.1,0.4c-4.3,0-8.7-0.9-12-2.8l-45-26c-3.2-1.9-4.9-4.3-4.9-6.8l0.2-56.4c0-2.5,1.6-4.9,4.7-6.7l44.8-26
						c6.3-3.7,16.7-3.7,23.1,0l45.1,26C490.4,110.5,492,112.9,492,115.3z"/>
				</g>
			</g>
		</g>
		<g class="st1">
			<g>
				<path class="st11" d="M487.3,122.1l-44.7,26c-6.4,3.7-16.8,3.7-23.2,0l-45-26c-3.2-1.9-4.8-4.3-4.8-6.8l-0.2,56.5
					c0,2.4,1.6,4.9,4.8,6.8l45,26c6.4,3.7,16.8,3.7,23.2,0l44.7-26c3.2-1.8,4.8-4.3,4.8-6.7l0.2-56.5
					C492,117.8,490.4,120.2,487.3,122.1z"/>
			</g>
			<g>
				<path class="st10" d="M487.3,122.1l-44.7,26c-3.1,1.8-7.3,2.7-11.4,2.8v56.5c4.1-0.1,8.1-1,11.2-2.8l44.7-26
					c3.2-1.8,4.8-4.3,4.8-6.7l0.2-56.5C492,117.8,490.4,120.2,487.3,122.1z"/>
			</g>
			<g>
				<g>
					<path class="st12" d="M487.2,108.6c6.4,3.7,6.5,9.7,0.1,13.4l-44.7,26c-6.4,3.7-16.8,3.7-23.2,0l-45-26
						c-6.4-3.7-6.5-9.7-0.1-13.4l44.7-26c6.4-3.7,16.8-3.7,23.2,0L487.2,108.6z"/>
				</g>
			</g>
		</g>
	</g>
	<g>
		<g>
			<path class="st13" d="M472.8,110.3c4.8,2.8,4.8,7.3,0.1,10l-33.3,19.4c-4.8,2.8-12.5,2.8-17.3,0l-33.5-19.4
				c-4.8-2.8-4.8-7.3-0.1-10L422,91c4.8-2.8,12.5-2.8,17.3,0L472.8,110.3z"/>
		</g>
	</g>
</g>
<g>
	<g>
		<g>
			<path class="st4" d="M377.2,173.4l0-40.9l39.6,22.9l0,40.9L377.2,173.4z"/>
		</g>
	</g>
	<g>
		<g>
			<g>
				<path class="st14" d="M390.2,168.6l0,2.3l12,6.9l0-2.3L390.2,168.6z"/>
			</g>
		</g>
		<g>
			<g>
				<path class="st14" d="M384,170.9l0,2.3l13,7.5l0-2.3L384,170.9z"/>
			</g>
		</g>
		<g class="st1">
			<g>
				<g>
					<path class="st14" d="M414.3,190.7l-16-9.2l0-2.3l15.9,9.2V190.7z"/>
				</g>
			</g>
		</g>
		<g>
			<g>
				<path class="st14" d="M414.3,184.8l-8.6-4.9l0-2.3l8.6,4.9V184.8z"/>
			</g>
		</g>
		<g>
			<g>
				<path class="st14" d="M414.3,179l-17.9-10.3l0-2.3l17.9,10.3V179z"/>
			</g>
		</g>
		<g>
			<g>
				<path class="st14" d="M379.7,156.7l14.9,8.6l0,2.3l-14.9-8.6V156.7z"/>
			</g>
		</g>
		<g>
			<g>
				<path class="st14" d="M380.1,151.1l0,2.3l24.8,14.3l0-2.3L380.1,151.1z"/>
			</g>
		</g>
		<g>
			<g>
				<path class="st14" d="M414.3,173.1l-6.9-4l0-2.3l6.9,4V173.1z"/>
			</g>
		</g>
		<g>
			<g>
				<path class="st14" d="M414.3,167.3l-21.5-12.4l0-2.3l21.5,12.4V167.3z"/>
			</g>
		</g>
		<g>
			<g>
				<path class="st14" d="M386.4,143l0,2.3l19.5,11.2l0-2.3L386.4,143z"/>
			</g>
		</g>
		<g>
			<g>
				<path class="st14" d="M414.3,161.4l-6.2-3.6l0-2.3l6.2,3.6V161.4z"/>
			</g>
		</g>
	</g>
</g>
<g>
	<g>
		<g>
			<path class="st4" d="M482.3,173.4l0-40.9l-39.6,22.9l0,40.9L482.3,173.4z"/>
		</g>
	</g>
	<g>
		<g>
			<g>
				<path class="st14" d="M469.2,168.6l0,2.3l-12,6.9l0-2.3L469.2,168.6z"/>
			</g>
		</g>
		<g>
			<g>
				<path class="st14" d="M475.5,170.9l0,2.3l-13,7.5l0-2.3L475.5,170.9z"/>
			</g>
		</g>
		<g class="st1">
			<g>
				<g>
					<path class="st14" d="M445.2,190.7l16-9.2l0-2.3l-15.9,9.2V190.7z"/>
				</g>
			</g>
		</g>
		<g>
			<g>
				<path class="st14" d="M445.2,184.8l8.6-4.9l0-2.3l-8.6,4.9V184.8z"/>
			</g>
		</g>
		<g>
			<g>
				<path class="st14" d="M445.2,179l17.9-10.3l0-2.3l-17.9,10.3V179z"/>
			</g>
		</g>
		<g>
			<g>
				<path class="st14" d="M479.7,156.7l-14.9,8.6l0,2.3l14.9-8.6V156.7z"/>
			</g>
		</g>
		<g>
			<g>
				<path class="st14" d="M479.4,151.1l0,2.3l-24.8,14.3l0-2.3L479.4,151.1z"/>
			</g>
		</g>
		<g>
			<g>
				<path class="st14" d="M445.2,173.1l6.9-4l0-2.3l-6.9,4V173.1z"/>
			</g>
		</g>
		<g>
			<g>
				<path class="st14" d="M445.2,167.3l21.5-12.4l0-2.3L445.2,165V167.3z"/>
			</g>
		</g>
		<g>
			<g>
				<path class="st14" d="M473,143l0,2.3l-19.5,11.2l0-2.3L473,143z"/>
			</g>
		</g>
		<g>
			<g>
				<path class="st14" d="M445.2,161.4l6.2-3.6l0-2.3l-6.2,3.6V161.4z"/>
			</g>
		</g>
	</g>
</g>
<g>
	<g>
		<g class="st1">
			<g>
				<g>
					<path class="st13" d="M142.1,318.8l-0.1,56.4c0,2.5-1.7,4.8-4.8,6.7l-44.7,26c-0.8,0.4-1.7,0.8-2.6,1.2c-1.4,0.5-3,0.9-4.5,1.2
						c-1.4,0.2-2.8,0.4-4.1,0.4c-4.3,0-8.7-0.9-12-2.8l-45-26c-3.2-1.9-4.8-4.3-4.8-6.8l0.1-56.4c0-2.5,1.7-4.9,4.8-6.7l44.7-26
						c6.4-3.7,16.8-3.7,23.2,0l45,26C140.5,313.8,142.1,316.3,142.1,318.8z"/>
				</g>
			</g>
		</g>
	</g>
	<g>
		<g class="st1">
			<g>
				<path class="st11" d="M137.4,325.4l-44.7,26c-6.4,3.7-16.8,3.7-23.2,0l-45-26c-3.2-1.9-4.8-4.3-4.8-6.8l-0.2,56.5
					c0,2.4,1.6,4.9,4.8,6.8l45,26c6.4,3.7,16.8,3.7,23.2,0l44.7-26c3.2-1.8,4.8-4.3,4.8-6.7l0.2-56.5
					C142.1,321.1,140.5,323.5,137.4,325.4z"/>
			</g>
			<g>
				<path class="st10" d="M137.4,325.4l-44.7,26c-3.1,1.8-7.3,2.7-11.4,2.8v56.5c4.1-0.1,8.1-1,11.2-2.8l44.7-26
					c3.2-1.8,4.8-4.3,4.8-6.7l0.2-56.5C142.1,321.1,140.5,323.5,137.4,325.4z"/>
			</g>
			<g>
				<g>
					<path class="st12" d="M137.3,311.9c6.4,3.7,6.5,9.7,0.1,13.4l-44.7,26c-6.4,3.7-16.8,3.7-23.2,0l-45-26
						c-6.4-3.7-6.5-9.7-0.1-13.4l44.7-26c6.4-3.7,16.8-3.7,23.2,0L137.3,311.9z"/>
				</g>
			</g>
		</g>
	</g>
	<g>
		<g>
			<path class="st13" d="M122.9,313.7c4.8,2.8,4.8,7.3,0.1,10L89.6,343c-4.8,2.8-12.5,2.8-17.3,0l-33.5-19.4
				c-4.8-2.8-4.8-7.3-0.1-10l33.3-19.4c4.8-2.8,12.5-2.8,17.3,0L122.9,313.7z"/>
		</g>
	</g>
</g>
<g>
	<g>
		<g>
			<path class="st4" d="M27.3,376.8l0-40.9l39.6,22.9l0,40.9L27.3,376.8z"/>
		</g>
	</g>
	<g>
		<g>
			<g>
				<path class="st14" d="M40.3,372l0,2.3l12,6.9l0-2.3L40.3,372z"/>
			</g>
		</g>
		<g>
			<g>
				<path class="st14" d="M34.1,374.2l0,2.3l13,7.5l0-2.3L34.1,374.2z"/>
			</g>
		</g>
		<g class="st1">
			<g>
				<g>
					<path class="st14" d="M64.4,394l-16-9.2l0-2.3l15.9,9.2V394z"/>
				</g>
			</g>
		</g>
		<g>
			<g>
				<path class="st14" d="M64.4,388.2l-8.6-4.9l0-2.3l8.6,4.9V388.2z"/>
			</g>
		</g>
		<g>
			<g>
				<path class="st14" d="M64.4,382.3L46.5,372l0-2.3L64.4,380V382.3z"/>
			</g>
		</g>
		<g>
			<g>
				<path class="st14" d="M29.8,360.1l14.9,8.6l0,2.3l-14.9-8.6V360.1z"/>
			</g>
		</g>
		<g>
			<g>
				<path class="st14" d="M30.2,354.4l0,2.3L55,371l0-2.3L30.2,354.4z"/>
			</g>
		</g>
		<g>
			<g>
				<path class="st14" d="M64.4,376.5l-6.9-4l0-2.3l6.9,4V376.5z"/>
			</g>
		</g>
		<g>
			<g>
				<path class="st14" d="M64.4,370.6l-21.5-12.4l0-2.3l21.5,12.4V370.6z"/>
			</g>
		</g>
		<g>
			<g>
				<path class="st14" d="M36.5,346.4l0,2.3L56,359.9l0-2.3L36.5,346.4z"/>
			</g>
		</g>
		<g>
			<g>
				<path class="st14" d="M64.4,364.8l-6.2-3.6l0-2.3l6.2,3.6V364.8z"/>
			</g>
		</g>
	</g>
</g>
<g>
	<g>
		<g>
			<path class="st4" d="M132.4,376.8l0-40.9l-39.6,22.9l0,40.9L132.4,376.8z"/>
		</g>
	</g>
	<g>
		<g>
			<g>
				<path class="st14" d="M119.3,372l0,2.3l-12,6.9l0-2.3L119.3,372z"/>
			</g>
		</g>
		<g>
			<g>
				<path class="st14" d="M125.6,374.2l0,2.3l-13,7.5l0-2.3L125.6,374.2z"/>
			</g>
		</g>
		<g class="st1">
			<g>
				<g>
					<path class="st14" d="M95.3,394l16-9.2l0-2.3l-15.9,9.2V394z"/>
				</g>
			</g>
		</g>
		<g>
			<g>
				<path class="st14" d="M95.3,388.2l8.6-4.9l0-2.3l-8.6,4.9V388.2z"/>
			</g>
		</g>
		<g>
			<g>
				<path class="st14" d="M95.3,382.3l17.9-10.3l0-2.3L95.3,380V382.3z"/>
			</g>
		</g>
		<g>
			<g>
				<path class="st14" d="M129.8,360.1l-14.9,8.6l0,2.3l14.9-8.6V360.1z"/>
			</g>
		</g>
		<g>
			<g>
				<path class="st14" d="M129.5,354.4l0,2.3L104.7,371l0-2.3L129.5,354.4z"/>
			</g>
		</g>
		<g>
			<g>
				<path class="st14" d="M95.3,376.5l6.9-4l0-2.3l-6.9,4V376.5z"/>
			</g>
		</g>
		<g>
			<g>
				<path class="st14" d="M95.3,370.6l21.5-12.4l0-2.3l-21.5,12.4V370.6z"/>
			</g>
		</g>
		<g>
			<g>
				<path class="st14" d="M123.1,346.4l0,2.3l-19.5,11.2l0-2.3L123.1,346.4z"/>
			</g>
		</g>
		<g>
			<g>
				<path class="st14" d="M95.3,364.8l6.2-3.6l0-2.3l-6.2,3.6V364.8z"/>
			</g>
		</g>
	</g>
</g>
<g>
	<g>
		<path class="st0" d="M217.5,465.3c-4.6,0-9.2-1-12.9-3.1l-90.2-52.9c-1.2-0.7-1.6-2.2-0.9-3.4c0.7-1.2,2.2-1.6,3.4-0.9l90.2,52.9
			c5.6,3.2,15.1,3.3,20.7,0l165.5-95.5c2.2-1.3,3.5-3,3.5-4.6c0-1.6-1.3-3.3-3.6-4.6L366.8,338c-1.2-0.7-1.6-2.2-0.9-3.4
			c0.7-1.2,2.2-1.6,3.4-0.9l26.5,15.3c3.9,2.3,6.1,5.4,6.1,8.9c0,3.4-2.1,6.6-6,8.8l-165.5,95.5
			C226.7,464.3,222.1,465.3,217.5,465.3z"/>
	</g>
</g>
<g>
	<g class="st1">
		<g>
			<g>
				<path class="st0" d="M363.5,373.2c-4.5,2.6-7.6,13.2-7.7,13.8c1-0.1,19.3-1.8,23.8-4.4s4.5-6.7,0.1-9.3
					C375.1,370.6,367.9,370.6,363.5,373.2z"/>
			</g>
		</g>
	</g>
</g>
<g>
	<g class="st1">
		<g>
			<g>
				<path class="st0" d="M308.9,404.7c-4.5,2.6-7.6,13.2-7.7,13.8c1-0.1,19.3-1.8,23.8-4.4c4.5-2.6,4.5-6.7,0.1-9.3
					C320.5,402.1,313.3,402.1,308.9,404.7z"/>
			</g>
		</g>
	</g>
</g>
<g>
	<g class="st1">
		<g>
			<g>
				<path class="st0" d="M254.3,436.2c-4.5,2.6-7.6,13.2-7.7,13.8c1-0.1,19.3-1.8,23.8-4.4c4.5-2.6,4.5-6.7,0.1-9.3
					C265.9,433.6,258.7,433.6,254.3,436.2z"/>
			</g>
		</g>
	</g>
</g>
<g>
	<g id="OBJECTS">
		<g>
			<polygon class="st15" points="57.4,316.2 61.4,321.6 59.3,321.4 55.3,315.9 			"/>
			
				<linearGradient id="SVGID_1_" gradientUnits="userSpaceOnUse" x1="268.0057" y1="125.0307" x2="312.8257" y2="163.9207" gradientTransform="matrix(1 0 0 -1 -203.7553 454.9268)">
				<stop  offset="0" style="stop-color:#D13F05"/>
				<stop  offset="0.2925" style="stop-color:#F67205"/>
				<stop  offset="0.3667" style="stop-color:#F67705"/>
				<stop  offset="0.4526" style="stop-color:#F68505"/>
				<stop  offset="0.5441" style="stop-color:#F69C05"/>
				<stop  offset="0.5638" style="stop-color:#F6A205"/>
				<stop  offset="0.5977" style="stop-color:#F69005"/>
				<stop  offset="0.6432" style="stop-color:#F67F05"/>
				<stop  offset="0.6931" style="stop-color:#F67505"/>
				<stop  offset="0.7553" style="stop-color:#F67205"/>
				<stop  offset="1" style="stop-color:#D13F05"/>
			</linearGradient>
			<path class="st16" d="M103.1,283.5c1.3,1.8,2.7,3.7,4,5.5c2.7,3.8,4.1,8.3,4.1,12.9l-4-5.5C107.2,291.8,105.8,287.3,103.1,283.5z
				"/>
			<polygon class="st17" points="107.1,296.4 111.1,301.9 109.1,303.4 105.1,297.9 			"/>
			<polygon class="st15" points="87,323.2 91,328.7 90.1,330.1 86.1,324.6 			"/>
			
				<linearGradient id="SVGID_2_" gradientUnits="userSpaceOnUse" x1="269.4146" y1="123.411" x2="314.2322" y2="162.299" gradientTransform="matrix(1 0 0 -1 -203.7553 454.9268)">
				<stop  offset="0" style="stop-color:#D13F05"/>
				<stop  offset="0.2925" style="stop-color:#F67205"/>
				<stop  offset="0.3667" style="stop-color:#F67705"/>
				<stop  offset="0.4526" style="stop-color:#F68505"/>
				<stop  offset="0.5441" style="stop-color:#F69C05"/>
				<stop  offset="0.5638" style="stop-color:#F6A205"/>
				<stop  offset="0.5977" style="stop-color:#F69005"/>
				<stop  offset="0.6432" style="stop-color:#F67F05"/>
				<stop  offset="0.6931" style="stop-color:#F67505"/>
				<stop  offset="0.7553" style="stop-color:#F67205"/>
				<stop  offset="1" style="stop-color:#D13F05"/>
			</linearGradient>
			<path class="st18" d="M86.1,324.6l4,5.5c-5.7,2.2-12,2.6-17.9,1c-4.2-1.1-7.9-3.5-10.8-6.7l-4-5.5c2.9,3.3,6.6,5.6,10.8,6.7
				C74.2,327.2,80.4,326.8,86.1,324.6z"/>
			<polygon class="st19" points="88.4,323.6 92.4,329.1 91,328.7 87,323.2 			"/>
			
				<linearGradient id="SVGID_3_" gradientUnits="userSpaceOnUse" x1="275.7086" y1="116.1571" x2="320.5269" y2="155.0456" gradientTransform="matrix(1 0 0 -1 -203.7553 454.9268)">
				<stop  offset="0" style="stop-color:#D13F05"/>
				<stop  offset="0.2925" style="stop-color:#F67205"/>
				<stop  offset="0.3667" style="stop-color:#F67705"/>
				<stop  offset="0.4526" style="stop-color:#F68505"/>
				<stop  offset="0.5441" style="stop-color:#F69C05"/>
				<stop  offset="0.5638" style="stop-color:#F6A205"/>
				<stop  offset="0.5977" style="stop-color:#F69005"/>
				<stop  offset="0.6432" style="stop-color:#F67F05"/>
				<stop  offset="0.6931" style="stop-color:#F67505"/>
				<stop  offset="0.7553" style="stop-color:#F67205"/>
				<stop  offset="1" style="stop-color:#D13F05"/>
			</linearGradient>
			<path class="st20" d="M107.1,298.5l4,5.5c-0.3,3.1-1.1,6.2-2.4,9.1c-3.3,7.1-9.1,12.8-16.2,16.1l-4-5.5c7.1-3.3,12.9-9,16.2-16.1
				C106,304.7,106.8,301.6,107.1,298.5z"/>
			
				<linearGradient id="SVGID_4_" gradientUnits="userSpaceOnUse" x1="259.1263" y1="134.0932" x2="308.6333" y2="174.3607" gradientTransform="matrix(1 0 0 -1 -203.7553 454.9268)">
				<stop  offset="0" style="stop-color:#FFFFFF;stop-opacity:0"/>
				<stop  offset="0.2606" style="stop-color:#FFFFFF"/>
				<stop  offset="0.7553" style="stop-color:#FFFFFF"/>
				<stop  offset="1" style="stop-color:#FFFFFF;stop-opacity:0"/>
			</linearGradient>
			<path class="st21" d="M107.3,298.8c-0.3,3.1-1.1,6.2-2.4,9.1c-3.3,7.1-9.1,12.8-16.2,16.1l-1.5-0.4l-0.9,1.4
				c-5.7,2.2-12,2.6-17.9,1c-4.2-1.1-7.9-3.5-10.8-6.7l0-2.7l-2.1-0.3c-3.7-6.2-4.1-14.4-0.5-22.4c1.1-2.4,2.5-4.6,4.1-6.6
				c0.9-0.4,1.7-0.8,2.5-1.3l0.4-1.8c6.7-6.5,16.1-10.1,25-9.2l1.9,1.6l5.4,0.3c8.3,3.5,13.2,11.2,13.1,20l-2,1.5L107.3,298.8z"/>
			
				<linearGradient id="SVGID_5_" gradientUnits="userSpaceOnUse" x1="302.6129" y1="146.3071" x2="252.4009" y2="167.5175" gradientTransform="matrix(1 0 0 -1 -203.7553 454.9268)">
				<stop  offset="0" style="stop-color:#FFAF02"/>
				<stop  offset="1" style="stop-color:#F56D05"/>
			</linearGradient>
			<path class="st22" d="M107.1,298.5c-0.3,3.1-1.1,6.2-2.4,9.1c-3.3,7.1-9.1,12.8-16.2,16.1l-1.5-0.4l-0.9,1.4
				c-5.7,2.2-12,2.6-17.9,1c-4.2-1.1-7.9-3.5-10.8-6.7l0-2.7l-2.1-0.3c-3.7-6.2-4.1-14.4-0.5-22.4c1.1-2.4,2.5-4.6,4.1-6.6
				c0.9-0.4,1.7-0.8,2.5-1.3l0.4-1.8c6.7-6.5,16.1-10.1,25-9.2l1.9,1.6l5.4,0.3c8.3,3.5,13.2,11.2,13.1,20l-2,1.5L107.1,298.5z"/>
			
				<linearGradient id="SVGID_6_" gradientUnits="userSpaceOnUse" x1="265.08" y1="171.5945" x2="294.223" y2="143.7384" gradientTransform="matrix(1 0 0 -1 -203.7553 454.9268)">
				<stop  offset="0" style="stop-color:#FFFFFF;stop-opacity:0"/>
				<stop  offset="0.2606" style="stop-color:#FFFFFF"/>
				<stop  offset="0.7553" style="stop-color:#FFFFFF"/>
				<stop  offset="1" style="stop-color:#FFFFFF;stop-opacity:0"/>
			</linearGradient>
			<path class="st23" d="M87.5,282.1c10,2.8,14.4,13.3,9.8,23.4c-4.6,10.1-16.5,16-26.5,13.2c-10-2.8-14.4-13.3-9.8-23.4
				S77.5,279.3,87.5,282.1z"/>
			
				<linearGradient id="SVGID_7_" gradientUnits="userSpaceOnUse" x1="263.4847" y1="154.4044" x2="303.4461" y2="154.4044" gradientTransform="matrix(1 0 0 -1 -203.7553 454.9268)">
				<stop  offset="0" style="stop-color:#CF4505"/>
				<stop  offset="1" style="stop-color:#E45905"/>
			</linearGradient>
			<path class="st24" d="M88.1,282.2c10,2.8,14.4,13.3,9.8,23.4c-4.6,10.1-16.5,16-26.5,13.2c-10-2.8-14.4-13.3-9.8-23.4
				C66.2,285.3,78,279.4,88.1,282.2z"/>
			<path class="st25" d="M72.9,319.1c-10-2.8-14.4-13.3-9.8-23.4c4.3-9.3,14.8-15.1,24.3-13.6c-9.9-2.4-21.3,3.5-25.8,13.3
				c-4.6,10.1-0.2,20.6,9.8,23.4c0.7,0.2,1.5,0.4,2.2,0.5C73.4,319.2,73.2,319.2,72.9,319.1z"/>
			
				<radialGradient id="SVGID_8_" cx="-1300.0934" cy="-569.0062" r="14.9418" gradientTransform="matrix(7.290000e-02 7.410000e-02 0.4921 -0.4845 472.0643 138.2714)" gradientUnits="userSpaceOnUse">
				<stop  offset="0" style="stop-color:#FFFFFF"/>
				<stop  offset="8.578000e-02" style="stop-color:#FFFFFF;stop-opacity:0.9583"/>
				<stop  offset="0.2351" style="stop-color:#FFFFFF;stop-opacity:0.8462"/>
				<stop  offset="0.4301" style="stop-color:#FFFFFF;stop-opacity:0.6642"/>
				<stop  offset="0.6634" style="stop-color:#FFFFFF;stop-opacity:0.4119"/>
				<stop  offset="0.9261" style="stop-color:#FFFFFF;stop-opacity:9.449000e-02"/>
				<stop  offset="1" style="stop-color:#FFFFFF;stop-opacity:0"/>
			</radialGradient>
			<path class="st26" d="M98.4,318.7c-4.1,4-7.8,6.7-8.4,6.1c-0.6-0.6,2.2-4.3,6.3-8.3c4.1-4,7.8-6.7,8.4-6.1
				C105.2,311,102.4,314.7,98.4,318.7z"/>
			
				<linearGradient id="SVGID_9_" gradientUnits="userSpaceOnUse" x1="276.8932" y1="162.1054" x2="294.9094" y2="140.9683" gradientTransform="matrix(1 0 0 -1 -203.7553 454.9268)">
				<stop  offset="0" style="stop-color:#FFFFFF"/>
				<stop  offset="1" style="stop-color:#FFFFFF;stop-opacity:0"/>
			</linearGradient>
			<path class="st27" d="M101.3,281.4l-43.9,36.3l0,1.2c2.9,3.3,6.6,5.6,10.8,6.7c1,0.3,2,0.5,3.1,0.7l34.1-28.3l-0.3-0.1l2-1.5
				C107.2,290.9,105.1,285.5,101.3,281.4z"/>
			
				<linearGradient id="SVGID_10_" gradientUnits="userSpaceOnUse" x1="266.3904" y1="171.8274" x2="276.0268" y2="162.0523" gradientTransform="matrix(1 0 0 -1 -203.7553 454.9268)">
				<stop  offset="0" style="stop-color:#FFFFFF"/>
				<stop  offset="1" style="stop-color:#FFFFFF;stop-opacity:0"/>
			</linearGradient>
			<path class="st28" d="M88.6,276.1l-1.9-1.6c-2.6-0.2-5.3-0.1-7.9,0.4L54,295.5c-1.4,3.7-1.9,7.6-1.6,11.5l37.2-30.8L88.6,276.1z"
				/>
			<g>
				<defs>
					<rect id="SVGID_11_" x="68.4" y="286.2" width="27.8" height="28.6"/>
				</defs>
				<clipPath id="SVGID_12_">
					<use xlink:href="#SVGID_11_"  style="overflow:visible;"/>
				</clipPath>
				<g class="st29">
					
						<linearGradient id="SVGID_13_" gradientUnits="userSpaceOnUse" x1="2231.0417" y1="1805.0516" x2="2231.0417" y2="1776.4037" gradientTransform="matrix(1 0 0 1 -2148.7554 -1490.2074)">
						<stop  offset="0" style="stop-color:#FFC000"/>
						<stop  offset="0.28" style="stop-color:#FFC000"/>
						<stop  offset="0.55" style="stop-color:#DAA600"/>
						<stop  offset="1" style="stop-color:#DAA600"/>
					</linearGradient>
					<path class="st30" d="M73.3,297.9c-0.1-0.1-0.2-0.2-0.3-0.4c-1.2-1.4-2-3.1-2.5-4.9c-0.3-1.3-0.4-2.6-0.3-3.9
						c0-0.7,0.2-1.4,0.6-2c0.2-0.4,0.6-0.6,1-0.4c0,0,0,0,0,0c0.9,0.3,1.6,0.9,2.1,1.7c1.3,1.7,2.2,3.7,2.5,5.8
						c0.1,0.7,0.1,1.3,0.2,2c0,0.3,0,0.5,0.1,0.8c0,0.2,0.1,0.3,0.4,0.3c0.9-0.1,1.9-0.1,2.8,0.2c0.8,0.2,1.5,0.5,2.3,0.8
						c1.1,0.4,2,1.1,2.8,1.9c0.1,0.1,0.2,0.2,0.4,0.1c0,0,0,0,0,0c0,0,0,0,0.1-0.1c0.2-0.2,0.4-0.4,0.5-0.5c1.7-2,4-3.4,6.5-4.1
						c0.8-0.3,1.7-0.3,2.5-0.2c0.4,0.1,0.7,0.2,1.1,0.3c0.1,0.1,0.2,0.3,0.3,0.4c0,0.2,0,0.5-0.1,0.7c-0.3,1-0.9,1.9-1.6,2.6
						c-1.8,2-4.2,3.4-6.8,3.9c-0.2,0-0.4,0.1-0.6,0.1c0,0.2,0.1,0.3,0.1,0.4c0.3,0.9,0.4,1.9,0.3,2.8c0,1.1-0.2,2.2-0.6,3.3
						c-0.4,1.2-1,2.4-1.8,3.4c-0.8,0.9-1.8,1.6-3,1.8c-0.8,0.2-1.7,0.3-2.6,0.2c-0.9-0.1-1.7-0.3-2.5-0.5c-0.9-0.2-1.7-0.5-2.5-0.9
						c-1.4-0.5-2.6-1.2-3.7-2.2c-1.1-1-1.9-2.3-2.2-3.7c-0.1-0.7-0.1-1.4,0-2.1c0.1-0.9,0.4-1.8,0.7-2.6c0.5-1.3,1.3-2.5,2.4-3.5
						c0.5-0.5,1-0.9,1.6-1.3L73.3,297.9z M74.1,308.1L74.1,308.1c-1,0-1.2,0.7-1,1.3c0,0.1,0.1,0.2,0.1,0.3c0.2,0.8,0.7,1.4,1.4,1.8
						c0.7,0.3,1.4,0.6,2.1,0.8c1,0.3,2.2,0.1,3-0.7c0.4-0.2,0.5-0.7,0.3-1.1c-0.1-0.1-0.1-0.2-0.2-0.2c-0.4-0.3-0.9-0.6-1.4-0.8
						c-0.8-0.4-1.7-0.6-2.5-0.9C75.4,308.4,74.7,308.2,74.1,308.1L74.1,308.1z M73.4,300.9c0-0.6-0.2-1-0.7-1.1
						c-0.4-0.1-0.8,0.1-1,0.4c-1,1.2-1.7,2.5-2.1,4c-0.1,0.2-0.1,0.5,0,0.7c0.1,0.4,0.5,0.8,0.9,0.7c0.2,0,0.4-0.1,0.5-0.3
						c0.3-0.5,0.7-1,1-1.5c0.4-0.7,0.7-1.3,1.1-2C73.1,301.5,73.3,301.2,73.4,300.9L73.4,300.9z M86.7,306.1c0-0.3-0.1-0.5-0.1-0.8
						c-0.1-0.5-0.6-0.7-1.1-0.6c0,0,0,0,0,0c0,0-0.1,0-0.1,0c-0.3,0.1-0.6,0.5-0.6,0.8c-0.3,1.2-0.6,2.4-0.8,3.7
						c-0.1,0.4-0.1,0.8,0,1.1c0.1,0.4,0.5,0.7,0.9,0.6c0.1,0,0.2-0.1,0.3-0.1c0.3-0.2,0.5-0.5,0.6-0.8c0.2-0.7,0.5-1.4,0.6-2.1
						C86.5,307.3,86.6,306.6,86.7,306.1L86.7,306.1z"/>
				</g>
			</g>
		</g>
	</g>
</g>
<g>
	<g id="OBJECTS_1_">
		<g>
			<polygon class="st15" points="409.2,111.9 413.2,117.4 411.1,117.1 407.1,111.6 			"/>
			
				<linearGradient id="SVGID_14_" gradientUnits="userSpaceOnUse" x1="619.8425" y1="329.2973" x2="664.6625" y2="368.1872" gradientTransform="matrix(1 0 0 -1 -203.7553 454.9268)">
				<stop  offset="0" style="stop-color:#D13F05"/>
				<stop  offset="0.2925" style="stop-color:#F67205"/>
				<stop  offset="0.3667" style="stop-color:#F67705"/>
				<stop  offset="0.4526" style="stop-color:#F68505"/>
				<stop  offset="0.5441" style="stop-color:#F69C05"/>
				<stop  offset="0.5638" style="stop-color:#F6A205"/>
				<stop  offset="0.5977" style="stop-color:#F69005"/>
				<stop  offset="0.6432" style="stop-color:#F67F05"/>
				<stop  offset="0.6931" style="stop-color:#F67505"/>
				<stop  offset="0.7553" style="stop-color:#F67205"/>
				<stop  offset="1" style="stop-color:#D13F05"/>
			</linearGradient>
			<path class="st31" d="M454.9,79.2c1.3,1.8,2.7,3.7,4,5.5c2.7,3.8,4.1,8.3,4.1,12.9l-4-5.5C459,87.5,457.6,83,454.9,79.2z"/>
			<polygon class="st17" points="459,92.2 463,97.7 460.9,99.1 457,93.7 			"/>
			<polygon class="st15" points="438.8,118.9 442.8,124.4 441.9,125.8 438,120.3 			"/>
			
				<linearGradient id="SVGID_15_" gradientUnits="userSpaceOnUse" x1="621.2514" y1="327.6776" x2="666.0691" y2="366.5655" gradientTransform="matrix(1 0 0 -1 -203.7553 454.9268)">
				<stop  offset="0" style="stop-color:#D13F05"/>
				<stop  offset="0.2925" style="stop-color:#F67205"/>
				<stop  offset="0.3667" style="stop-color:#F67705"/>
				<stop  offset="0.4526" style="stop-color:#F68505"/>
				<stop  offset="0.5441" style="stop-color:#F69C05"/>
				<stop  offset="0.5638" style="stop-color:#F6A205"/>
				<stop  offset="0.5977" style="stop-color:#F69005"/>
				<stop  offset="0.6432" style="stop-color:#F67F05"/>
				<stop  offset="0.6931" style="stop-color:#F67505"/>
				<stop  offset="0.7553" style="stop-color:#F67205"/>
				<stop  offset="1" style="stop-color:#D13F05"/>
			</linearGradient>
			<path class="st32" d="M438,120.3l4,5.5c-5.7,2.2-12,2.6-17.9,1c-4.2-1.1-7.9-3.5-10.8-6.7l-4-5.5c2.9,3.3,6.6,5.6,10.8,6.7
				C426,122.9,432.3,122.6,438,120.3z"/>
			<polygon class="st19" points="440.3,119.3 444.3,124.8 442.8,124.4 438.8,118.9 			"/>
			
				<linearGradient id="SVGID_16_" gradientUnits="userSpaceOnUse" x1="627.5454" y1="320.4236" x2="672.3638" y2="359.3122" gradientTransform="matrix(1 0 0 -1 -203.7553 454.9268)">
				<stop  offset="0" style="stop-color:#D13F05"/>
				<stop  offset="0.2925" style="stop-color:#F67205"/>
				<stop  offset="0.3667" style="stop-color:#F67705"/>
				<stop  offset="0.4526" style="stop-color:#F68505"/>
				<stop  offset="0.5441" style="stop-color:#F69C05"/>
				<stop  offset="0.5638" style="stop-color:#F6A205"/>
				<stop  offset="0.5977" style="stop-color:#F69005"/>
				<stop  offset="0.6432" style="stop-color:#F67F05"/>
				<stop  offset="0.6931" style="stop-color:#F67505"/>
				<stop  offset="0.7553" style="stop-color:#F67205"/>
				<stop  offset="1" style="stop-color:#D13F05"/>
			</linearGradient>
			<path class="st33" d="M458.9,94.2l4,5.5c-0.3,3.1-1.1,6.2-2.4,9.1c-3.3,7.1-9.1,12.8-16.2,16.1l-4-5.5c7.1-3.3,12.9-9,16.2-16.1
				C457.8,100.4,458.6,97.3,458.9,94.2z"/>
			
				<linearGradient id="SVGID_17_" gradientUnits="userSpaceOnUse" x1="610.9632" y1="338.3597" x2="660.4702" y2="378.6273" gradientTransform="matrix(1 0 0 -1 -203.7553 454.9268)">
				<stop  offset="0" style="stop-color:#FFFFFF;stop-opacity:0"/>
				<stop  offset="0.2606" style="stop-color:#FFFFFF"/>
				<stop  offset="0.7553" style="stop-color:#FFFFFF"/>
				<stop  offset="1" style="stop-color:#FFFFFF;stop-opacity:0"/>
			</linearGradient>
			<path class="st34" d="M459.1,94.5c-0.3,3.1-1.1,6.2-2.4,9.1c-3.3,7.1-9.1,12.8-16.2,16.1l-1.5-0.4l-0.9,1.4
				c-5.7,2.2-12,2.6-17.9,1c-4.2-1.1-7.9-3.5-10.8-6.7l0-2.7l-2.1-0.3c-3.7-6.2-4.1-14.4-0.5-22.4c1.1-2.4,2.5-4.6,4.1-6.6
				c0.9-0.4,1.7-0.8,2.5-1.3l0.4-1.8c6.7-6.5,16.1-10.1,25-9.2l1.9,1.6l5.4,0.3c8.3,3.5,13.2,11.2,13.1,20l-2,1.5L459.1,94.5z"/>
			
				<linearGradient id="SVGID_18_" gradientUnits="userSpaceOnUse" x1="654.4498" y1="350.5737" x2="604.2377" y2="371.7841" gradientTransform="matrix(1 0 0 -1 -203.7553 454.9268)">
				<stop  offset="0" style="stop-color:#FFAF02"/>
				<stop  offset="1" style="stop-color:#F56D05"/>
			</linearGradient>
			<path class="st35" d="M458.9,94.2c-0.3,3.1-1.1,6.2-2.4,9.1c-3.3,7.1-9.1,12.8-16.2,16.1l-1.5-0.4l-0.9,1.4
				c-5.7,2.2-12,2.6-17.9,1c-4.2-1.1-7.9-3.5-10.8-6.7l0-2.7l-2.1-0.3c-3.7-6.2-4.1-14.4-0.5-22.4c1.1-2.4,2.5-4.6,4.1-6.6
				c0.9-0.4,1.7-0.8,2.5-1.3l0.4-1.8c6.7-6.5,16.1-10.1,25-9.2l1.9,1.6l5.4,0.3c8.3,3.5,13.2,11.2,13.1,20l-2,1.5L458.9,94.2z"/>
			
				<linearGradient id="SVGID_19_" gradientUnits="userSpaceOnUse" x1="616.9169" y1="375.8611" x2="646.0598" y2="348.005" gradientTransform="matrix(1 0 0 -1 -203.7553 454.9268)">
				<stop  offset="0" style="stop-color:#FFFFFF;stop-opacity:0"/>
				<stop  offset="0.2606" style="stop-color:#FFFFFF"/>
				<stop  offset="0.7553" style="stop-color:#FFFFFF"/>
				<stop  offset="1" style="stop-color:#FFFFFF;stop-opacity:0"/>
			</linearGradient>
			<path class="st36" d="M439.4,77.9c10,2.8,14.4,13.3,9.8,23.4c-4.6,10.1-16.5,16-26.5,13.2c-10-2.8-14.4-13.3-9.8-23.4
				S429.4,75,439.4,77.9z"/>
			
				<linearGradient id="SVGID_20_" gradientUnits="userSpaceOnUse" x1="615.3216" y1="358.671" x2="655.283" y2="358.671" gradientTransform="matrix(1 0 0 -1 -203.7553 454.9268)">
				<stop  offset="0" style="stop-color:#CF4505"/>
				<stop  offset="1" style="stop-color:#E45905"/>
			</linearGradient>
			<path class="st37" d="M439.9,78c10,2.8,14.4,13.3,9.8,23.4c-4.6,10.1-16.5,16-26.5,13.2c-10-2.8-14.4-13.3-9.8-23.4
				C418,81.1,429.9,75.2,439.9,78z"/>
			<path class="st25" d="M424.8,114.8c-10-2.8-14.4-13.3-9.8-23.4c4.3-9.3,14.8-15.1,24.3-13.6c-9.9-2.4-21.3,3.5-25.8,13.3
				c-4.6,10.1-0.2,20.6,9.8,23.4c0.7,0.2,1.5,0.4,2.2,0.5C425.2,115,425,114.9,424.8,114.8z"/>
			
				<radialGradient id="SVGID_21_" cx="-325.7154" cy="1.6191" r="14.9418" gradientTransform="matrix(7.290000e-02 7.410000e-02 0.4921 -0.4845 472.0643 138.2714)" gradientUnits="userSpaceOnUse">
				<stop  offset="0" style="stop-color:#FFFFFF"/>
				<stop  offset="8.578000e-02" style="stop-color:#FFFFFF;stop-opacity:0.9583"/>
				<stop  offset="0.2351" style="stop-color:#FFFFFF;stop-opacity:0.8462"/>
				<stop  offset="0.4301" style="stop-color:#FFFFFF;stop-opacity:0.6642"/>
				<stop  offset="0.6634" style="stop-color:#FFFFFF;stop-opacity:0.4119"/>
				<stop  offset="0.9261" style="stop-color:#FFFFFF;stop-opacity:9.449000e-02"/>
				<stop  offset="1" style="stop-color:#FFFFFF;stop-opacity:0"/>
			</radialGradient>
			<path class="st38" d="M450.2,114.5c-4.1,4-7.8,6.7-8.4,6.1c-0.6-0.6,2.2-4.3,6.3-8.3c4.1-4,7.8-6.7,8.4-6.1
				C457.1,106.7,454.3,110.5,450.2,114.5z"/>
			
				<linearGradient id="SVGID_22_" gradientUnits="userSpaceOnUse" x1="628.7301" y1="366.3719" x2="646.7462" y2="345.2349" gradientTransform="matrix(1 0 0 -1 -203.7553 454.9268)">
				<stop  offset="0" style="stop-color:#FFFFFF"/>
				<stop  offset="1" style="stop-color:#FFFFFF;stop-opacity:0"/>
			</linearGradient>
			<path class="st39" d="M453.1,77.1l-43.9,36.3l0,1.2c2.9,3.3,6.6,5.6,10.8,6.7c1,0.3,2,0.5,3.1,0.7l34.1-28.3l-0.3-0.1l2-1.5
				C459.1,86.6,457,81.2,453.1,77.1z"/>
			
				<linearGradient id="SVGID_23_" gradientUnits="userSpaceOnUse" x1="618.2272" y1="376.0939" x2="627.8637" y2="366.3189" gradientTransform="matrix(1 0 0 -1 -203.7553 454.9268)">
				<stop  offset="0" style="stop-color:#FFFFFF"/>
				<stop  offset="1" style="stop-color:#FFFFFF;stop-opacity:0"/>
			</linearGradient>
			<path class="st40" d="M440.5,71.9l-1.9-1.6c-2.6-0.2-5.3-0.1-7.9,0.4l-24.9,20.6c-1.4,3.7-1.9,7.6-1.6,11.5l37.2-30.8L440.5,71.9
				z"/>
			<g>
				<defs>
					<rect id="SVGID_24_" x="420.2" y="81.9" width="27.8" height="28.6"/>
				</defs>
				<clipPath id="SVGID_25_">
					<use xlink:href="#SVGID_24_"  style="overflow:visible;"/>
				</clipPath>
				<g class="st41">
					
						<linearGradient id="SVGID_26_" gradientUnits="userSpaceOnUse" x1="2582.8784" y1="1600.785" x2="2582.8784" y2="1572.1372" gradientTransform="matrix(1 0 0 1 -2148.7554 -1490.2074)">
						<stop  offset="0" style="stop-color:#FFC000"/>
						<stop  offset="0.28" style="stop-color:#FFC000"/>
						<stop  offset="0.55" style="stop-color:#DAA600"/>
						<stop  offset="1" style="stop-color:#DAA600"/>
					</linearGradient>
					<path class="st42" d="M425.1,93.6c-0.1-0.1-0.2-0.2-0.3-0.4c-1.2-1.4-2-3.1-2.5-4.9c-0.3-1.3-0.4-2.6-0.3-3.9
						c0-0.7,0.2-1.4,0.6-2c0.2-0.4,0.6-0.6,1-0.4c0,0,0,0,0,0c0.9,0.3,1.6,0.9,2.1,1.7c1.3,1.7,2.2,3.7,2.5,5.8
						c0.1,0.7,0.1,1.3,0.2,2c0,0.3,0,0.5,0.1,0.8c0,0.2,0.1,0.3,0.4,0.3c0.9-0.1,1.9-0.1,2.8,0.2c0.8,0.2,1.5,0.5,2.3,0.8
						c1.1,0.4,2,1.1,2.8,1.9c0.1,0.1,0.2,0.2,0.4,0.1c0,0,0,0,0,0c0,0,0,0,0.1-0.1c0.2-0.2,0.4-0.4,0.5-0.5c1.7-2,4-3.4,6.5-4.1
						c0.8-0.3,1.7-0.3,2.5-0.2c0.4,0.1,0.7,0.2,1.1,0.3c0.1,0.1,0.2,0.3,0.3,0.4c0,0.2,0,0.5-0.1,0.7c-0.3,1-0.9,1.9-1.6,2.6
						c-1.8,2-4.2,3.4-6.8,3.9c-0.2,0-0.4,0.1-0.6,0.1c0,0.2,0.1,0.3,0.1,0.4c0.3,0.9,0.4,1.9,0.3,2.8c0,1.1-0.2,2.2-0.6,3.3
						c-0.4,1.2-1,2.4-1.8,3.4c-0.8,0.9-1.8,1.6-3,1.8c-0.8,0.2-1.7,0.3-2.6,0.2c-0.9-0.1-1.7-0.3-2.5-0.5c-0.9-0.2-1.7-0.5-2.5-0.9
						c-1.4-0.5-2.6-1.2-3.7-2.2c-1.1-1-1.9-2.3-2.2-3.7c-0.1-0.7-0.1-1.4,0-2.1c0.1-0.9,0.4-1.8,0.7-2.6c0.5-1.3,1.3-2.5,2.4-3.5
						c0.5-0.5,1-0.9,1.6-1.3L425.1,93.6z M426,103.8L426,103.8c-1,0-1.2,0.7-1,1.3c0,0.1,0.1,0.2,0.1,0.3c0.2,0.8,0.7,1.4,1.4,1.8
						c0.7,0.3,1.4,0.6,2.1,0.8c1,0.3,2.2,0.1,3-0.7c0.4-0.2,0.5-0.7,0.3-1.1c-0.1-0.1-0.1-0.2-0.2-0.2c-0.4-0.3-0.9-0.6-1.4-0.8
						c-0.8-0.4-1.7-0.6-2.5-0.9C427.2,104.1,426.6,104,426,103.8L426,103.8z M425.2,96.6c0-0.6-0.2-1-0.7-1.1
						c-0.4-0.1-0.8,0.1-1,0.4c-1,1.2-1.7,2.5-2.1,4c-0.1,0.2-0.1,0.5,0,0.7c0.1,0.4,0.5,0.8,0.9,0.7c0.2,0,0.4-0.1,0.5-0.3
						c0.3-0.5,0.7-1,1-1.5c0.4-0.7,0.7-1.3,1.1-2C425,97.3,425.1,96.9,425.2,96.6L425.2,96.6z M438.6,101.8c0-0.3-0.1-0.5-0.1-0.8
						c-0.1-0.5-0.6-0.7-1.1-0.6c0,0,0,0,0,0c0,0-0.1,0-0.1,0c-0.3,0.1-0.6,0.5-0.6,0.8c-0.3,1.2-0.6,2.4-0.8,3.7
						c-0.1,0.4-0.1,0.8,0,1.1c0.1,0.4,0.5,0.7,0.9,0.6c0.1,0,0.2-0.1,0.3-0.1c0.3-0.2,0.5-0.5,0.6-0.8c0.2-0.7,0.5-1.4,0.6-2.1
						C438.4,103,438.5,102.4,438.6,101.8L438.6,101.8z"/>
				</g>
			</g>
		</g>
	</g>
</g>
<g>
	<g id="OBJECTS_2_">
		<g>
			<polygon class="st15" points="208.1,206.8 213.1,213.6 210.4,213.3 205.5,206.4 			"/>
			
				<linearGradient id="SVGID_27_" gradientUnits="userSpaceOnUse" x1="420.445" y1="230.957" x2="476.4701" y2="279.5694" gradientTransform="matrix(1 0 0 -1 -203.7553 454.9268)">
				<stop  offset="0" style="stop-color:#D13F05"/>
				<stop  offset="0.2925" style="stop-color:#F67205"/>
				<stop  offset="0.3667" style="stop-color:#F67705"/>
				<stop  offset="0.4526" style="stop-color:#F68505"/>
				<stop  offset="0.5441" style="stop-color:#F69C05"/>
				<stop  offset="0.5638" style="stop-color:#F6A205"/>
				<stop  offset="0.5977" style="stop-color:#F69005"/>
				<stop  offset="0.6432" style="stop-color:#F67F05"/>
				<stop  offset="0.6931" style="stop-color:#F67505"/>
				<stop  offset="0.7553" style="stop-color:#F67205"/>
				<stop  offset="1" style="stop-color:#D13F05"/>
			</linearGradient>
			<path class="st43" d="M265.2,166c1.7,2.3,3.3,4.6,5,6.8c3.4,4.7,5.2,10.4,5.1,16.2l-5-6.8C270.4,176.4,268.6,170.7,265.2,166z"/>
			<polygon class="st17" points="270.3,182.2 275.3,189 272.8,190.9 267.8,184 			"/>
			<polygon class="st15" points="245.1,215.6 250.1,222.4 249,224.2 244,217.3 			"/>
			
				<linearGradient id="SVGID_28_" gradientUnits="userSpaceOnUse" x1="422.2062" y1="228.9324" x2="478.2282" y2="277.5423" gradientTransform="matrix(1 0 0 -1 -203.7553 454.9268)">
				<stop  offset="0" style="stop-color:#D13F05"/>
				<stop  offset="0.2925" style="stop-color:#F67205"/>
				<stop  offset="0.3667" style="stop-color:#F67705"/>
				<stop  offset="0.4526" style="stop-color:#F68505"/>
				<stop  offset="0.5441" style="stop-color:#F69C05"/>
				<stop  offset="0.5638" style="stop-color:#F6A205"/>
				<stop  offset="0.5977" style="stop-color:#F69005"/>
				<stop  offset="0.6432" style="stop-color:#F67F05"/>
				<stop  offset="0.6931" style="stop-color:#F67505"/>
				<stop  offset="0.7553" style="stop-color:#F67205"/>
				<stop  offset="1" style="stop-color:#D13F05"/>
			</linearGradient>
			<path class="st44" d="M244,217.3l5,6.8c-7.1,2.8-14.9,3.3-22.3,1.3c-5.2-1.4-9.9-4.3-13.5-8.4l-5-6.8c3.6,4.1,8.3,7,13.5,8.4
				C229.1,220.6,236.9,220.1,244,217.3z"/>
			<polygon class="st19" points="246.9,216.1 251.9,223 250.1,222.4 245.1,215.6 			"/>
			
				<linearGradient id="SVGID_29_" gradientUnits="userSpaceOnUse" x1="430.0737" y1="219.865" x2="486.0966" y2="268.4756" gradientTransform="matrix(1 0 0 -1 -203.7553 454.9268)">
				<stop  offset="0" style="stop-color:#D13F05"/>
				<stop  offset="0.2925" style="stop-color:#F67205"/>
				<stop  offset="0.3667" style="stop-color:#F67705"/>
				<stop  offset="0.4526" style="stop-color:#F68505"/>
				<stop  offset="0.5441" style="stop-color:#F69C05"/>
				<stop  offset="0.5638" style="stop-color:#F6A205"/>
				<stop  offset="0.5977" style="stop-color:#F69005"/>
				<stop  offset="0.6432" style="stop-color:#F67F05"/>
				<stop  offset="0.6931" style="stop-color:#F67505"/>
				<stop  offset="0.7553" style="stop-color:#F67205"/>
				<stop  offset="1" style="stop-color:#D13F05"/>
			</linearGradient>
			<path class="st45" d="M270.2,184.7l5,6.8c-0.4,3.9-1.4,7.8-3,11.3c-4.2,8.9-11.3,16-20.3,20.1l-5-6.8
				c8.9-4.1,16.1-11.2,20.3-20.1C268.8,192.4,269.9,188.6,270.2,184.7z"/>
			
				<linearGradient id="SVGID_30_" gradientUnits="userSpaceOnUse" x1="409.3459" y1="242.2851" x2="471.2296" y2="292.6195" gradientTransform="matrix(1 0 0 -1 -203.7553 454.9268)">
				<stop  offset="0" style="stop-color:#FFFFFF;stop-opacity:0"/>
				<stop  offset="0.2606" style="stop-color:#FFFFFF"/>
				<stop  offset="0.7553" style="stop-color:#FFFFFF"/>
				<stop  offset="1" style="stop-color:#FFFFFF;stop-opacity:0"/>
			</linearGradient>
			<path class="st46" d="M270.5,185.1c-0.4,3.9-1.4,7.8-3,11.3c-4.2,8.9-11.3,16-20.3,20.1l-1.8-0.5l-1.1,1.7
				c-7.1,2.8-14.9,3.3-22.3,1.3c-5.2-1.4-9.9-4.3-13.5-8.4l-0.1-3.4l-2.7-0.4c-4.6-7.8-5.2-18-0.6-28c1.4-3,3.1-5.7,5.1-8.3
				c1.1-0.5,2.1-1,3.1-1.6l0.5-2.3c8.4-8.1,20.1-12.6,31.2-11.5l2.4,1.9l6.7,0.3c10.4,4.4,16.4,14,16.4,25l-2.5,1.9L270.5,185.1z"/>
			
				<linearGradient id="SVGID_31_" gradientUnits="userSpaceOnUse" x1="463.7042" y1="257.5525" x2="400.9391" y2="284.0655" gradientTransform="matrix(1 0 0 -1 -203.7553 454.9268)">
				<stop  offset="0" style="stop-color:#FFAF02"/>
				<stop  offset="1" style="stop-color:#F56D05"/>
			</linearGradient>
			<path class="st47" d="M270.2,184.7c-0.4,3.9-1.4,7.8-3,11.3c-4.2,8.9-11.3,16-20.3,20.1l-1.8-0.5l-1.1,1.7
				c-7.1,2.8-14.9,3.3-22.3,1.3c-5.2-1.4-9.9-4.3-13.5-8.4l-0.1-3.4l-2.7-0.4c-4.6-7.8-5.2-18-0.6-28c1.4-3,3.1-5.7,5.1-8.3
				c1.1-0.5,2.1-1,3.1-1.6l0.5-2.3c8.4-8.1,20.1-12.6,31.2-11.5l2.4,1.9l6.7,0.3c10.4,4.4,16.4,14,16.4,25l-2.5,1.9L270.2,184.7z"/>
			
				<linearGradient id="SVGID_32_" gradientUnits="userSpaceOnUse" x1="416.7879" y1="289.1617" x2="453.2167" y2="254.3416" gradientTransform="matrix(1 0 0 -1 -203.7553 454.9268)">
				<stop  offset="0" style="stop-color:#FFFFFF;stop-opacity:0"/>
				<stop  offset="0.2606" style="stop-color:#FFFFFF"/>
				<stop  offset="0.7553" style="stop-color:#FFFFFF"/>
				<stop  offset="1" style="stop-color:#FFFFFF;stop-opacity:0"/>
			</linearGradient>
			<path class="st48" d="M245.8,164.3c12.5,3.5,18,16.6,12.2,29.2c-5.8,12.6-20.6,20-33.1,16.5c-12.5-3.5-18-16.6-12.2-29.2
				C218.4,168.1,233.3,160.7,245.8,164.3z"/>
			
				<linearGradient id="SVGID_33_" gradientUnits="userSpaceOnUse" x1="414.7939" y1="267.6741" x2="464.7455" y2="267.6741" gradientTransform="matrix(1 0 0 -1 -203.7553 454.9268)">
				<stop  offset="0" style="stop-color:#CF4505"/>
				<stop  offset="1" style="stop-color:#E45905"/>
			</linearGradient>
			<path class="st49" d="M246.5,164.4c12.5,3.5,18,16.6,12.2,29.2c-5.8,12.6-20.6,20-33.1,16.5c-12.5-3.5-18-16.6-12.2-29.2
				C219.1,168.3,233.9,160.9,246.5,164.4z"/>
			<path class="st25" d="M227.6,210.5c-12.5-3.5-18-16.6-12.2-29.2c5.3-11.7,18.5-18.9,30.3-17.1c-12.3-3-26.7,4.3-32.3,16.7
				c-5.8,12.6-0.3,25.7,12.2,29.2c0.9,0.3,1.9,0.5,2.8,0.6C228.1,210.6,227.8,210.6,227.6,210.5z"/>
			
				<radialGradient id="SVGID_34_" cx="-962.6854" cy="-292.4371" r="18.6773" gradientTransform="matrix(7.290000e-02 7.410000e-02 0.4921 -0.4845 472.0643 138.2714)" gradientUnits="userSpaceOnUse">
				<stop  offset="0" style="stop-color:#FFFFFF"/>
				<stop  offset="8.578000e-02" style="stop-color:#FFFFFF;stop-opacity:0.9583"/>
				<stop  offset="0.2351" style="stop-color:#FFFFFF;stop-opacity:0.8462"/>
				<stop  offset="0.4301" style="stop-color:#FFFFFF;stop-opacity:0.6642"/>
				<stop  offset="0.6634" style="stop-color:#FFFFFF;stop-opacity:0.4119"/>
				<stop  offset="0.9261" style="stop-color:#FFFFFF;stop-opacity:9.449000e-02"/>
				<stop  offset="1" style="stop-color:#FFFFFF;stop-opacity:0"/>
			</radialGradient>
			<path class="st50" d="M259.3,210c-5.1,5-9.8,8.4-10.6,7.7c-0.8-0.8,2.8-5.4,7.8-10.4c5.1-5,9.8-8.4,10.6-7.7
				C267.9,200.3,264.4,205,259.3,210z"/>
			
				<linearGradient id="SVGID_35_" gradientUnits="userSpaceOnUse" x1="431.5545" y1="277.3003" x2="454.0746" y2="250.879" gradientTransform="matrix(1 0 0 -1 -203.7553 454.9268)">
				<stop  offset="0" style="stop-color:#FFFFFF"/>
				<stop  offset="1" style="stop-color:#FFFFFF;stop-opacity:0"/>
			</linearGradient>
			<path class="st51" d="M263,163.4l-54.8,45.4l0,1.5c3.6,4.1,8.3,7,13.5,8.4c1.3,0.4,2.5,0.6,3.8,0.8l42.7-35.3l-0.4-0.1l2.5-1.9
				C270.4,175.2,267.8,168.4,263,163.4z"/>
			
				<linearGradient id="SVGID_36_" gradientUnits="userSpaceOnUse" x1="418.4259" y1="289.4528" x2="430.4715" y2="277.234" gradientTransform="matrix(1 0 0 -1 -203.7553 454.9268)">
				<stop  offset="0" style="stop-color:#FFFFFF"/>
				<stop  offset="1" style="stop-color:#FFFFFF;stop-opacity:0"/>
			</linearGradient>
			<path class="st52" d="M247.1,156.8l-2.4-1.9c-3.3-0.3-6.6-0.2-9.8,0.4L203.8,181c-1.7,4.6-2.4,9.5-1.9,14.4l46.6-38.5
				L247.1,156.8z"/>
			<g>
				<defs>
					<rect id="SVGID_37_" x="221.9" y="169.4" width="34.7" height="35.8"/>
				</defs>
				<clipPath id="SVGID_38_">
					<use xlink:href="#SVGID_37_"  style="overflow:visible;"/>
				</clipPath>
				<g class="st53">
					
						<linearGradient id="SVGID_39_" gradientUnits="userSpaceOnUse" x1="2387.99" y1="1695.3623" x2="2387.99" y2="1659.5525" gradientTransform="matrix(1 0 0 1 -2148.7554 -1490.2074)">
						<stop  offset="0" style="stop-color:#FFC000"/>
						<stop  offset="0.28" style="stop-color:#FFC000"/>
						<stop  offset="0.55" style="stop-color:#DAA600"/>
						<stop  offset="1" style="stop-color:#DAA600"/>
					</linearGradient>
					<path class="st54" d="M228,183.9c-0.2-0.2-0.3-0.3-0.4-0.5c-1.5-1.8-2.5-3.9-3.1-6.2c-0.4-1.6-0.5-3.3-0.3-4.9
						c0-0.9,0.3-1.7,0.7-2.5c0.2-0.5,0.8-0.7,1.3-0.5c0,0,0,0,0,0c1.1,0.4,2,1.2,2.6,2.1c1.6,2.1,2.7,4.6,3.2,7.2
						c0.2,0.8,0.2,1.7,0.2,2.5c0,0.3,0,0.6,0.1,1c0,0.3,0.1,0.4,0.5,0.4c1.1-0.2,2.3-0.1,3.4,0.2c1,0.2,1.9,0.6,2.9,1
						c1.3,0.5,2.5,1.3,3.5,2.4c0.1,0.2,0.3,0.2,0.5,0.1c0,0,0,0,0,0c0,0,0.1,0,0.1-0.1c0.2-0.2,0.5-0.4,0.7-0.7
						c2.2-2.5,5-4.2,8.2-5.1c1-0.3,2.1-0.4,3.1-0.3c0.5,0.1,0.9,0.2,1.3,0.4c0.2,0.1,0.3,0.3,0.3,0.6c0,0.3,0,0.6-0.1,0.9
						c-0.4,1.2-1.1,2.3-2,3.3c-2.2,2.5-5.2,4.2-8.5,4.8c-0.2,0.1-0.5,0.1-0.8,0.1c0,0.2,0.1,0.4,0.1,0.5c0.3,1.1,0.5,2.3,0.4,3.5
						c0,1.4-0.3,2.8-0.7,4.1c-0.5,1.5-1.3,3-2.3,4.2c-1,1.2-2.3,2-3.8,2.3c-1.1,0.3-2.1,0.4-3.2,0.3c-1.1-0.1-2.1-0.3-3.2-0.6
						c-1.1-0.3-2.1-0.7-3.2-1.1c-1.7-0.6-3.3-1.6-4.7-2.8c-1.4-1.2-2.4-2.9-2.7-4.7c-0.1-0.9-0.1-1.7,0-2.6c0.1-1.1,0.4-2.2,0.9-3.3
						c0.7-1.7,1.7-3.2,3-4.4c0.6-0.6,1.3-1.1,1.9-1.6L228,183.9z M229.1,196.7L229.1,196.7c-1.2,0-1.4,0.8-1.2,1.7
						c0,0.1,0.1,0.3,0.1,0.4c0.3,1,0.9,1.8,1.8,2.3c0.9,0.4,1.7,0.8,2.7,1c1.3,0.4,2.7,0.1,3.7-0.9c0.5-0.3,0.6-0.9,0.3-1.4
						c-0.1-0.1-0.2-0.2-0.3-0.3c-0.5-0.4-1.1-0.8-1.7-1.1c-1-0.4-2.1-0.8-3.1-1.2C230.6,197.1,229.8,196.9,229.1,196.7L229.1,196.7z
						 M228.1,187.7c0-0.8-0.3-1.2-0.9-1.3c-0.5-0.1-1,0.1-1.3,0.5c-1.2,1.5-2.1,3.2-2.7,5c-0.1,0.3-0.1,0.6,0,0.9
						c0.1,0.6,0.6,0.9,1.1,0.9c0.3,0,0.5-0.2,0.7-0.4c0.4-0.6,0.8-1.2,1.2-1.8c0.5-0.8,0.9-1.7,1.3-2.5
						C227.8,188.5,228,188.1,228.1,187.7L228.1,187.7z M244.8,194.2c0-0.3-0.1-0.7-0.1-1c-0.2-0.6-0.8-0.9-1.3-0.8c0,0,0,0,0,0
						c0,0-0.1,0-0.1,0c-0.4,0.2-0.7,0.6-0.8,1c-0.4,1.5-0.7,3-1,4.6c-0.1,0.5-0.1,1,0,1.4c0.1,0.5,0.6,0.9,1.1,0.8
						c0.1,0,0.2-0.1,0.3-0.1c0.4-0.2,0.6-0.6,0.8-1c0.3-0.9,0.6-1.7,0.8-2.6C244.6,195.7,244.7,194.9,244.8,194.2L244.8,194.2z"/>
				</g>
			</g>
		</g>
	</g>
</g>
<g class="st55">
	<g>
		<g>
			<g>
				<g>
					<g>
						<path class="st56" d="M282.1,117.1l0.2,94.3c0,6.7-4.3,13.3-13,18.4c-17.5,10.3-46,10.3-63.8,0.2
							c-8.9-5.1-13.4-11.8-13.4-18.6l-0.3-94.3c0,6.7,4.5,13.5,13.4,18.6c17.7,10.1,46.2,10,63.8-0.2
							C277.8,130.4,282.2,123.7,282.1,117.1z"/>
					</g>
				</g>
			</g>
		</g>
	</g>
	<g>
		<g>
			<g>
				<g>
					<g>
						<path class="st57" d="M269.1,135.5c-17.5,10.3-46.1,10.3-63.7,0.2c-17.7-10.2-17.9-26.7-0.4-36.9c17.5-10.3,46-10.4,63.8-0.2
							C286.4,108.7,286.6,125.2,269.1,135.5z"/>
					</g>
				</g>
			</g>
		</g>
	</g>
</g>
<g class="st58">
	<g>
		<path class="st59" d="M472.9,78.2l-33.4,19.4c-4.8,2.8-12.5,2.8-17.3,0l-33.6-19.4c-2.4-1.4-3.6-3.2-3.6-5.1l-0.1,42.1
			c0,1.8,1.2,3.7,3.6,5.1l33.6,19.4c4.8,2.8,12.6,2.8,17.3,0l33.4-19.4c2.4-1.4,3.6-3.2,3.6-5l0.1-42.1
			C476.5,75,475.3,76.8,472.9,78.2z"/>
	</g>
	<g>
		<g>
			<path class="st60" d="M472.8,68.1c4.8,2.8,4.8,7.3,0.1,10l-33.4,19.4c-4.8,2.8-12.5,2.8-17.3,0l-33.6-19.4
				c-4.8-2.8-4.8-7.3-0.1-10l33.4-19.4c4.8-2.8,12.5-2.8,17.3,0L472.8,68.1z"/>
		</g>
	</g>
</g>
<g class="st58">
	<g>
		<path class="st59" d="M123,281.5l-33.4,19.4c-4.8,2.8-12.5,2.8-17.3,0l-33.6-19.4c-2.4-1.4-3.6-3.2-3.6-5.1L35,318.6
			c0,1.8,1.2,3.7,3.6,5.1L72.2,343c4.8,2.8,12.6,2.8,17.3,0l33.4-19.4c2.4-1.4,3.6-3.2,3.6-5l0.1-42.1
			C126.6,278.3,125.4,280.1,123,281.5z"/>
	</g>
	<g>
		<g>
			<path class="st60" d="M123,271.5c4.8,2.8,4.8,7.3,0.1,10l-33.4,19.4c-4.8,2.8-12.5,2.8-17.3,0l-33.6-19.4
				c-4.8-2.8-4.8-7.3-0.1-10L72,252.1c4.8-2.8,12.5-2.8,17.3,0L123,271.5z"/>
		</g>
	</g>
</g>
</svg>
