<svg id="Layer_1" enable-background="new 0 0 52 52" height="512" viewBox="0 0 52 52" width="512" xmlns="http://www.w3.org/2000/svg"><g id="_x31_16"><g><g><g><g><g><g><g><g><g><path d="m36.0822296 38.4446068c0 1.0799561-.7600098 2.3999634-1.710022 2.9500122l-14.5999775 8.4299927c-.5300293.2999878-1 .3099976-1.3200073.0799561.0200195.0200195.039978.0400391.0599976.0500488l-2.7700186-1.6100464c-.3200073-.1900024-.5100098-.5799561-.5100098-1.1300049l-.0999756-33.6300049c0-1.0899658.7600098-2.4099731 1.710021-2.9499512l14.6499635-8.4700322c.4800415-.2699585.9100361-.2999878 1.2200336-.1199951l2.6900024 1.5599976c.0299683.0200195.0599976.0300293.0799561.0499878.3100586.1799927.5.5599976.5 1.1000366z" fill="#1d2943"/></g></g></g></g></g></g></g><g><g><g><g><g><g><path d="m35.4868546 3.6547985c-.3109741-.1805389-.7413673-.1553311-1.2168236.1191001l-14.6586685 8.463295c-.944603.5454016-1.7077198 1.8671579-1.7045727 2.9525909l.0954685 33.6301231c.0015774.5551682.1975536.9461784.5138931 1.1298714l-2.7730751-1.6065521c-.3163385-.1840019-.5123167-.5746956-.5138931-1.1301804l-.0954695-33.6301231c-.0031462-1.0854406.7599707-2.4071903 1.7045736-2.9525909l14.6586685-8.4629793c.4754543-.2744391.9058456-.2999545 1.2168236-.1194158z" fill="#b0b8cf"/></g><g><path d="m34.2701187 3.7740166c.9444733-.5452919 1.7126045-.1075587 1.715683.9777191l.0955086 33.6895103c.0030785 1.0855103-.760067 2.4073296-1.7045403 2.9526215l-14.6070862 8.433403c-.9730396.5617867-1.7643852.1103668-1.7675552-1.0075073l-.0953407-33.6301041c-.0030766-1.0852776.7598686-2.4069805 1.7045441-2.9523888z" fill="#1d2943"/></g><g><path d="m18.9793606 49.6592712c-.51017 0-.566925-.5879097-.5676327-.8406792l-.0953388-33.6301003c-.0026455-.9365559.6841412-2.1256046 1.4997425-2.596467l14.658783-8.4632797c.2036171-.1175694.39814-.1797235.5625267-.1797235.4841995 0 .5380783.562186.5387535.8038785l.0955086 33.689518c.0026627.9366798-.684124 2.1258507-1.4997253 2.596714l-14.6070938 8.4334297c-.2115689.1221229-.4140302.1867095-.5855237.1867095z" fill="#1d2943"/></g><g><path d="m35.3866882 38.4447174c.0038452.8315163-.631794 1.928009-1.357666 2.3485489l-14.605957 8.4340782c-.1670666.0940933-.3245335.1478691-.443594.1478691-.0864162 0-.1574669-.0269127-.2150745-.1536369-.0595284-.1382561-.0710506-.3130341-.0710506-.4052086l-.0460854-16.0980568-.0288105-11.0091648-.0191975-6.5213995c-.0019226-.8315134.6337032-1.9318533 1.3576565-2.3504705l14.659729-8.4628639c.1574669-.0921717.3072472-.1421018.4205513-.1421018.0806503 0 .1401787.0249419.1901093.1401796.0556831.1286464.0633736.2957368.0633736.3821421l.0153656 5.5497537v.1363344l.0057564 1.1387367.0191956 6.8248262.023056 7.963562.0115204 4.2784786z" fill="#fff"/></g><g><path d="m35.2924194 7.0903597-16.6928196 10.0893984.0000057-1.9912939c-.0021076-.8335791.6336117-1.932394 1.3577271-2.3512907l14.6593399-8.4622231c.1578751-.0926085.3073502-.143127.4210014-.143127.0800171 0 .1389656.0252848.1894836.1410713.056839.1283774.0652428.294682.0652428.381021z" fill="#9ea9c9"/></g><g><g><path d="m32.405468 3.3070974c-.4803391-.272656-1.272316-.272656-1.7526531 0-.4283581.2466662-.4803391.6231232-.1557808.8957791.0389843-.0389848.0908852-.0778904.1557808-.1168752.4803371-.2725768 1.2723141-.2725768 1.7526531 0 .051899.0389848.1038017.0778904.1557808.1168752.3115616-.2726559.2596588-.6491129-.1557808-.8957791z" fill="#fff"/></g><g><path d="m30.6528149 4.0860014c-.0648956.0389848-.1167965.0778904-.1557808.1168752.0389843.0389056.0908852.0778904.1557808.116796.4933319.2856512 1.2723141.2856512 1.7526531 0 .051899-.0259104.1038017-.0648952.1557808-.1038008v-.0129952c-.0519791-.0389848-.1038818-.0778904-.1557808-.1168752-.4803391-.2725768-1.272316-.2725768-1.7526531 0z" fill="#111d33"/></g></g><g><g><g><path d="m28.7185822 9.0292978c.2042103-.1179008.3691406-.0239639.3698063.210742.0006657.2346535-.1631947.5184183-.3674049.6363201l-3.4469147 1.9900751c-.2042103.1179008-.3691177.0239506-.3697834-.2107029-.0006657-.2347059.1631718-.5184574.367382-.6363592z" fill="#fff"/></g></g><g><g><path d="m34.1807098 6.299696c0 .2341285-.162529.5185552-.3676262.6365933l-3.4460792 1.9910197c-.2050991.1160908-.3695736.0232182-.3695736-.2109098-.0019379-.2360535.1625366-.5185556.3656998-.6365824l3.4480152-1.9910197c.2031631-.1180382.369564-.0232177.369564.2108989z" fill="#fff"/></g></g><g><path d="m23.6251869 12.2880116c.001646.3798256-.2647171.8385706-.5935631 1.0293274-.328846.1890697-.5968552.0378132-.5968552-.3420124-.001646-.3781796.264719-.8369255.591917-1.0276413.3304921-.1890698.5968553-.0378142.5985013.3403263z" fill="#fff"/></g><g><path d="m21.4805603 13.5270615c.00173.3887882-.2712898.8587952-.608242 1.0540438-.3369503.1935396-.6116886.0380201-.6116886-.3507681-.00173-.3870583.2712898-.8570652.6065121-1.0523243.3386707-.1935292.6116885-.0380097.6134185.3490486z" fill="#fff"/></g></g></g></g></g></g></g><g><g><g><path d="m17.5822277 23.9245872-.0100098 2.710022c0 .1699829-.0599976.289978-.1599731.3499756l-.3000488.1699829c-.0999756.0599976-.2299805.0500488-.3800049-.039978-.2999878-.1699829-.539978-.5800171-.539978-.9199829l.0100098-2.7200317c0-.1699829.0599976-.289978.1599731-.3399658l.3000488-.1799927c.0999756-.0500488.2299805-.0400391.3800049.039978.2999878.1699829.539978.5899658.539978.9299926z" fill="#dedffb"/></g><g><path d="m17.5922375 18.9645653v2.710022c-.0100098.1799927-.0700073.2999878-.1600342.3499756l-.2999878.1800537c-.0999756.0499878-.2399902.039978-.3900146-.0400391-.289978-.1799927-.5299683-.5899658-.5299683-.9299927l.0100098-2.7199707c0-.1700439.0599976-.2900391.1499634-.3400269l.2999878-.1799927c.1000366-.0499878.2400513-.039978.3900146.039978.290039.170044.5300293.590027.5300293.9299928z" fill="#dedffb"/></g></g></g><g><g><g><path d="m17.5944099 18.9652863-.0071106 2.7127018c-.0014248.1721268-.0611668.2916203-.1593208.3485146l-.3001442.1735516c.0967274-.055481.1578941-.1749744.1578941-.3470917l.0085354-2.7127113c0-.341404-.2389793-.756773-.5377007-.9288979-.1493702-.0853462-.2830849-.0924568-.3812389-.0384026l.3015785-.1749725c.0981522-.0540562.2318592-.046936.3812294.0384102.2972985.1721248.5377007.5889167.5362778.9288978z" fill="#dedffb"/></g></g><g><g><path d="m16.7568245 18.2118816c-.1489487-.0859966-.2826557-.0931549-.3810539-.0391617-.0975018.0566044-.1578808.1764526-.1583633.3465595l-.0076885 2.712347c-.0009708.342308.238924.7578201.5359097.929285.1489449.0859928.2835579.0947227.3819618.0396843.097496-.0555573.157877-.1754055.1583652-.3476028l.0076885-2.7123489c.000967-.3412608-.2389279-.7567748-.5368195-.9287624z" fill="#fff"/></g></g><g><g><path d="m17.5801888 23.9241238-.0071125 2.7127132c-.0014229.1721172-.0611649.2901859-.1593189.3470898l-.3001537.1749649c.0967369-.0569038.1579037-.1749649.1579037-.3470898l.0085354-2.7127132c0-.341404-.2389793-.7567711-.5377102-.9288883-.1479378-.0867786-.2816525-.0938892-.3812294-.039835l.301569-.1735401c.0981541-.055479.2318687-.0469456.3812294.0384007.2973078.1721267.53771.5874938.5362872.9288978z" fill="#dedffb"/></g></g><g><g><path d="m16.7427673 23.1700859c-.1489487-.0859966-.2826519-.0941982-.3810539-.0391617-.0974998.0566025-.1578808.1764488-.1583633.3465595l-.0076885 2.7123489c-.0009708.3423042.238924.7578182.5359116.9292831.1489429.0859928.2835579.0947227.3819599.0396843.0974998-.0566006.157877-.1754036.1583652-.3476028l.0076904-2.7123489c.000967-.341259-.2389278-.7567749-.5368214-.9287624z" fill="#fff"/></g></g></g></g><g><g><g><g><g enable-background="new"><g><g><g><path d="m27.1880665 18.752079c.0099487.9799805-.3000488 2.0599976-.8099976 3.0499878-.4500122.8599854-1.0400391 1.6499634-1.7200317 2.25-.0700073.0700073-.1499634.1300049-.2199707.1799927-.0800171.0800171-.1700439.1500244-.2700195.210022-.0200195.0199585-.039978.039978-.0700073.0499878-.0200195.0100098-.0299683.0299683-.0499878.039978s-.0300293.0200195-.039978.0200195c-.0900269.0599976-.1700439.1099854-.2600098.1599731-.0500488.0300293-.1000366.0599976-.1600342.0900269-.0499878.0299683-.0999756.0499878-.1499634.0800171 0 0 0 0-.0100098 0-.0499878.0199585-.1000366.039978-.1400146.0699463-.0200195 0-.0299683.0100098-.039978.0100098-.0400391.0200195-.0800171.0300293-.1100464.0499878-.0699463.0200195-.1299438.0400391-.1999512.0599976-.1700439.0500488-.3300171.0900269-.4900513.1000366-.039978.0100098-.0699463.0100098-.1099854.0100098-.0999756.0100098-.2000122.0100098-.2999878 0-.039978 0-.0800171-.0100098-.1199951-.0100098-.0499878-.0100098-.0900269-.0200195-.1400146-.0300293-.0599976-.0099487-.1199951-.0199585-.1699829-.039978s-.0999756-.039978-.1500244-.0599976c-.0299683-.0100098-.0599976-.0300293-.0899658-.0499878-.0200195 0-.0300293-.0100098-.0499878-.0200195-.0300293-.0200195-.0599976-.039978-.1000366-.0599976-.039978-.0200195-.0800171-.0499878-.1099854-.0800171-.5200195-.3899536-.8200073-1.1099854-.8300171-2.0899658 0-2.1900024 1.5400391-4.8599854 3.4500122-5.9700317 1.9000244-1.0999757 3.460022-.209961 3.460022 1.9800414z" fill="#8fabfe"/></g></g></g></g></g></g><g><g enable-background="new"><g><g><path d="m24.1881332 21.880125c.067318-.0054245.1241264.0138454.1667767.053257.0630493.0582886.0951881.160471.084444.2918358l-.0359402.3479214c-.0055962.0519085-.0408955.1045189-.0793324.1267109-.0135937.0078468-.0275726.0118904-.0407772.0107594l-.542387-.0486469-.5403385.6737595c-.0128975.0161991-.0266705.0281792-.040123.0359459-.0380478.0219688-.0735302.0102253-.0794029-.0350628l-.0387611-.3036709c-.011467-.1187534.0201035-.2582359.0828037-.3895168.0422554-.0884323.0986519-.1730938.1656322-.2451439.0114841.285099.2028446.4064941.4366074.2715321l.0271626-.0156841c.2337628-.1349623.4238034-.4765894.4336357-.7739966z" fill="#8a4852"/></g></g><g><g><path d="m24.1873951 21.444273.0011616.4098606c.0000248.0086174-.0001354.0172825-.0004234.0259914-.0098324.2974072-.199873.6390343-.4336357.7739964l-.0271626.0156841c-.2337627.1349621-.4251232.013567-.4366074-.2715321-.0003357-.0083485-.0005379-.0168343-.0005627-.0254536l-.0011063-.3904152c.1328411.0123291.2804699-.0232277.4360065-.1130276.1659738-.0958251.3228876-.2433661.46233-.425104z" fill="#f5c9c6"/></g></g><g><g><path d="m25.1136379 21.4953308c.1833649-.1058655.3467445-.0639458.4045506.1036606l.1293316.3719978c-.4952087.8252373-1.1646671 1.5434036-1.9039478 1.9702282-.737339.425703-1.4086761.4827652-1.9069366.2299881l.1267986-.5198765c.056673-.2336998.2192783-.4638271.4026413-.5696926l.7590199-.4382191c-.0627003.1312809-.0942707.2707634-.0828037.3895168l.0387611.3036709c.0058727.0452881.0413551.0570316.0794029.0350628.0134525-.0077667.0272255-.0197468.040123-.0359459l.5403385-.6737595.542387.0486469c.0132046.0011311.0271835-.0029125.0407772-.0107594.0384369-.022192.0737362-.0748024.0793324-.1267109l.0359402-.3479214c.0107441-.1313648-.0213947-.2335472-.084444-.2918358z" fill="#bf7d5a"/></g></g><g><g><path d="m24.9098721 19.9306927c-.0090904.1820259-.1091938.385231-.2244587.4610615-.1001034.391304-.2760201.764389-.4974613 1.0525341-.1395168.1820259-.2972527.3306522-.4640789.4246273-.1546993.0910873-.3033257.1244106-.433754.1122665-.2366047-.0211792-.4246655-.191061-.5278034-.4792805-.1182842.0576897-.2183876-.0272503-.2305126-.2001686-.006073-.1395168.0454865-.2942162.1273918-.3913021.018198-.0212536.0363979-.0363617.0545959-.0515423.018198-.2881451.1183014-.5156403.2760181-.8614731.0485439-.1030846.0819054-.1698799.0819054-.172842.1668262.0485039.3700676.0090332.5763264-.10923l.1698627-.1001225c.2335491-.1334457.4549904-.1607723.6248512-.0879021.0909939.0393963.1486282.1304092.1789532.2486744.024271-.0272522.0515785-.0515423.078867-.0667229.0515614-.0302887.0970669-.0302887.1334648-.006073.0515594.0333997.0788669.1153031.0758324.2274953z" fill="#f4d6d4"/></g></g><g><g><path d="m24.9189796 19.051075v.0727959c0 .1880245-.042469.4095211-.08494.5793266-.0363979-.0242157-.0819035-.0242157-.1334648.006073-.0272884.0151806-.0545959.0394707-.078867.0667229-.0303249-.1182652-.0879593-.2092781-.1789532-.2486744-.1698608-.0728703-.3913021-.0455437-.6248512.0879021l-.1698627.1001225c-.2062588.1182632-.4095001.1577339-.5763264.10923 0 .0029621-.0333614.0697575-.0819054.172842-.1577168.3458328-.2578201.573328-.2760181.8614731-.018198.0151806-.0363979.0302887-.0545959.0515423-.0091095-.0333252-.0151634-.0697594-.024271-.103157-.0545979-.2334938-.0636883-.5034962-.0181999-.7946777.0181999-.10923.0394344-.2062416.0667419-.2881451.0242519-.0727959.0758305-.1334457.1243553-.1638088.0455074-.0272503.0940304-.0272503.1183014.0151825.1759357-.464098.5611477-.8796921.9524498-1.1071873.5732728-.330578 1.0404072-.0697576 1.0404072.5824374z" fill="#1d2943"/></g></g></g><g><g><path d="m23.725462 17.5533104c1.5357971-.886694 2.7846031-.1750278 2.7896023 1.5886192.0023708.8361111-.2758541 1.7594051-.7321682 2.5923271-.0435066.0798531-.0879822.1579952-.1353779.2367325l-.1293297-.3719997c-.0578079-.1676064-.2211876-.2095261-.4045525-.1036587l-.758728.4380512c-.0426502-.0394135-.0994606-.0586815-.1667767-.053257.000288-.008707.0004501-.017374.0004253-.0259933l-.0011616-.4098587c.2209988-.2880173.397934-.6619396.4969234-1.0527153.115387-.0761585.2167587-.2793255.2246952-.461956.0053406-.1116772-.0241909-.1921635-.0744743-.2257099.0416679-.1708794.084383-.3924599.083847-.5814705.0018539-.0312099.0017967-.0512905.0017376-.0724564-.0018463-.6510658-.4690361-.9117279-1.0424156-.5806866-.3919544.2262936-.7765675.6415157-.9511414 1.1063423-.026228-.0415611-.0719414-.041523-.118103-.0148716-.0503674.0290794-.1012611.0898457-.1253891.1643848-.0260086.0809002-.0480843.1785202-.0662365.2872658-.0467892.2927551-.0363102.5614128.0177975.7937012.0081787.0345974.0167313.0700684.0253258.1046963-.0817833.0969849-.1347961.2517509-.1269283.3905773.0108376.1721249.1116104.2588253.228075.2006092.1046238.2870636.2931709.4586697.5279465.4804211l.0011063.3904152c.0000248.0086193.0002289.0171032.0005665.0254498-.0669823.0720539-.1233768.1567135-.1656342.2451458l-.7590179.4382191c-.1833668.1058674-.3459702.3359928-.4026432.5696945l-.1267986.5198746c-.046711-.0232849-.0914879-.0499249-.135294-.0770969-.4595432-.3041801-.7430592-.9053974-.7454319-1.7425957-.0049991-1.7636472 1.2347222-3.9120656 2.7695542-4.7982007z" fill="#fdfefe"/></g></g></g></g><g><g><g><g enable-background="new"><g><g><g><path d="m27.1903667 28.9226437c.0030365.9797382-.3033257 2.0565605-.8159485 3.0454082-.4428635.8584366-1.0373707 1.6500778-1.7198563 2.2536926-.0697594.0667229-.1425724.1244125-.2123318.1820259-.0879574.0727959-.1789703.1425552-.2699642.2062416-.0242538.018219-.0485249.0364342-.0727959.0515442-.0181999.0121422-.0363979.0273247-.0545959.0364342v.0030365c-.0121269.0091057-.0273075.0182152-.0394344.0242882-.0849228.0576134-.1698627.1091576-.2547836.1576614-.0515785.0303612-.1061764.0607262-.1607723.0879784-.0485249.0273247-.1001034.0516129-.1516628.0758286-.0030365 0-.0030365.0031128-.006073.0031128s-.0030365.0029602-.0060539.0029602c-.0515785.0212555-.0970669.0425072-.1425724.0636864-.0121269.006073-.0272903.012146-.0394344.0151825-.0363979.018219-.0727959.0333977-.1091938.0455437-.0637035.0242882-.1304283.0454674-.1941319.0667229-.1698627.0515404-.336689.0849419-.4944248.1000481-.0363979.006073-.072794.009182-.1061554.009182-.1061573.0090332-.2062607.0090332-.3063641 0-.0394325-.003109-.078867-.009182-.1183014-.015255-.0454884-.002964-.0909939-.0120697-.1364822-.0242157-.0606689-.012146-.1183014-.0273247-.1728973-.0455437-.0485439-.0151062-.0970669-.0363617-.1456089-.0576134-.0333633-.012146-.0636883-.0272522-.0940323-.0454712-.0151615-.006073-.0303249-.0151787-.0454865-.0242882-.0333805-.018219-.0667419-.0363617-.1001034-.0576134-.0394344-.024292-.078867-.0515442-.1152649-.0819054-.5126228-.3943405-.8220215-1.1131859-.8250389-2.089962-.006073-2.1930428 1.5348301-4.8652916 3.4457836-5.9664059 1.9048786-1.101038 3.4579086-.2153492 3.4639816 1.9776955z" fill="#78e75a"/></g></g></g></g></g></g></g><g><g><g enable-background="new"><g><g><path d="m24.2688198 31.6511726c.1544476-.1939526.2898502-.4213104.3973713-.664875l.0017986.634182-.3986053.230135z" fill="#1d2943"/></g></g><g><g><path d="m23.0019302 33.1288185c.0004787.1252594.0330563.2250938.0900745.2957191-.0570964-.0705184-.0897178-.1701469-.0900745-.2957191z" fill="#757878"/></g></g><g><g><path d="m24.461132 32.0848503c.0189705.0516739.0395107.1282578.0397034.1964569.0011444.4034805-.3349438.9377937-.7434368 1.1736374-.278471.1607742-.5355797.1253548-.6621609-.0265617-.0010777-.0012932-.0021744-.0025444-.003233-.003849-.0570202-.0706215-.0895996-.1704597-.0900707-.2962112-.0000553-.0176926.0004501-.0351257.0015316-.0528564.0032387-.0531311.0116272-.1087761.0255871-.1638069l.182621-.1054344c.0141888.3344955.2400627.4772911.5154419.3183022l.0306606-.017704c.2753792-.158989.4997101-.5617104.5119591-.9114685z" fill="#df3260"/></g></g><g><g><path d="m24.2688179 31.6511707.0005665.1994438.000885.3125591c.0000305.0106697-.0001564.0214005-.0005341.0321808-.012249.3497581-.2365799.7524796-.5119591.9114685l-.0306606.017704c-.2753792.158989-.5012531.0161934-.5154419-.3183022-.0004368-.0103073-.0006886-.0207863-.0007191-.031456l-.000885-.3125572-.0005646-.1990433c.1444626.0141144.305294-.0197258.4753361-.1074944.0068321-.0035095.0117226-.0061188.0166702-.0087585.0077209-.0041199.0123596-.0066719.0170326-.0092773.0011444-.0006294.0022659-.0012169.0034122-.0018768.0057106-.0031776.0114574-.0064316.017189-.0097389.1904299-.1099472.3702051-.2745742.5296728-.4748516z" fill="#f5c9c6"/></g></g><g><g><path d="m22.873251 32.1204834c.0964146.0814781.2100811.1303596.3362541.1426849l.0005646.1990433-.3343105.1930122-.0006046-.2136536c-.0001774-.0624657-.001339-.1232452-.0015163-.1845665-.0001279-.0456008-.0002576-.0910415-.0003873-.1365203z" fill="#1d2943"/></g></g><g><g><path d="m22.873251 32.1204834c.0001297.0454788.0002594.0909195.0003834.1352577.0000019.0003891.0000038.0007553.0000038.0011406-.000351-.1238823-.0016918-.2471848-.0020447-.3710938.001213.0778618.0014362.156292.0016575.2346955z" fill="#b5b9b9"/></g></g><g><g><path d="m24.163269 30.0642662c.0708103-.0231247.1429214-.0583057.2154007-.1001511.0738354-.0426292.1480484-.0921745.2217846-.142868-.0746365.0513363-.1497822.1014862-.2245045.1446247-.0715714.0413227-.1427422.0762062-.212677.0995369-.1758137.0571461-.3544769-.0308552-.4222355-.1924229.0677586.1615601.2464219.2494622.4222317.1912804z" fill="#b5b9b9"/></g></g><g><g><path d="m23.3023071 29.6194077c.0170822-.0098629.0341854-.0184402.0512085-.0256729.1474342-.0634747.2813072-.0189705.3341827.111021.0189571.0471115.0279713.0817432.0359955.1158047.0481033.194231.2455769.3079071.4395771.2448463.0699329-.0233288.1411057-.0582142.212677-.099535.0747223-.0431423.1498699-.0932903.2245026-.1446247.0208168-.0143032.0415993-.0287113.0623131-.0430794l.0034256 1.208128c-.1075211.2435646-.2429218.4709244-.3973713.664875-.1594677.2002773-.3392429.3649044-.5296726.4748516-.0057316.0033073-.0114784.0065613-.017189.0097389-.0080853.0044823-.0127239.0070343-.0173874.0095406-.0080051.0042534-.0128956.0068626-.0178299.0093994-.1719398.0887413-.3327713.1225815-.4772339.1084671-.126173-.0123253-.2398434-.0612068-.3362541-.1426849-.0002232-.0783997-.0004444-.1568336-.0016575-.2346973-.0016918-.2471828-.0033836-.4943657-.0040855-.7421513-.0014648-.1676102-.0019417-.3358231-.0034084-.5034637-.0000954-.0122643-.0001736-.0245724-.0002079-.0369663-.0005455-.1856823.0081768-.3852062.1004772-.5889797.0757789-.1676465.2066707-.3189679.3379382-.3948174z" fill="#f4d6d4"/></g></g><g><g><path d="m23.7291946 28.2326927c.0035572-.0020542.007225-.0041714.0107841-.0061646.608305-.3455238 1.1885757-.0965519 1.3606014.4757938.0740108.247551.0778465.5515842.0806828.852766.0010777.1186085.0016022.2375698.0017834.3566971.0005493.357439-.0019608.7166138-.0016918 1.0742149.0005283.1863728-.1296005.4129124-.2918129.5065651l-.2215557.1279144-.0052223-1.8423119c-.0940876.0652847-.1894169.1312847-.2840958.1859474-.0724792.0418472-.1445885.0770245-.2154007.1001511-.1939964.0642014-.39147-.0494747-.4395733-.2437057-.0080242-.0340614-.0170383-.0686932-.0359955-.1158047-.0528755-.1299915-.1867485-.1744957-.3341827-.111021-.017067.0072289-.0342121.0158615-.0513382.0257492-.1318226.076107-.2620029.2270489-.3378086.3947411-.0923004.2037735-.1010227.4032974-.1004772.5889797.0000343.012394.0001125.0247021.0002079.0369663.0014668.1676407.0019436.3358536.0034084.5034637.0007019.2477856.0023937.4949684.0040855.7421513.000351.1239109.0016918.2472134.0020428.3710918.0001774.0614433.001339.1222267.0015163.1846924l.0006046.2136536-.2749671.1587526c-.1622105.0936508-.2941875.0184402-.2947159-.1679306l-.0001202-.0420532c-.0005665-.0427589-.0113392-.8552189-.0175037-1.2819881-.0009251-.0641308-.001812-.1285305-.0020695-.1933556-.0011101-.2808399.0096912-.5694218.0812607-.8780499.1780663-.7660065.7580548-1.6695385 1.3615532-2.0179062z" fill="#4c5c75"/></g></g></g><g><g><path d="m23.3021793 29.6194859c-.1311378.0757732-.2620316.2270947-.3378086.3947411.0758057-.1676923.205988-.3186341.3378086-.3947411z" fill="#757878"/></g></g><g><g><path d="m26.5700569 29.2791348c.0023041.8539314-.2808037 1.7953548-.7480602 2.6446781-.1703243-.2555161-.4971657-.3130589-.8608418-.1243019-.0207214.0092163-.0414295.0207348-.062151.0322552l-.4465351.2577648-.1818295.1058693v-.0321999l-.0023041-.3130589.4004974-.2301731.2209702-.126606c.1611233-.0943489.2923222-.3199139.2923222-.5063667 0-.359026.0022907-.7181091 0-1.0748863v-.3567791c-.0046082-.3015385-.0069103-.6053257-.0805683-.8539295-.1726284-.5708218-.7526684-.8194275-1.3626156-.4741688-.6122665.354475-1.1922913 1.2567329-1.3718319 2.0232239-.071352.3084507-.082859.5984707-.080555.8792744 0 .064455 0 .1288528.0023041.1933079.0068989.4258404.0161133 1.2383556.0161133 1.2820759v.0414162c.0022907.186451.1334915.2601242.2969189.1680756l.2739048-.1588631.3337517-.1933632.0022907.3130608v.0299492l-.1818314.1058693-.4488392.2577667c-.0207062.0138206-.0414276.025341-.0575428.0368614-.3659649.234726-.6905155.6697807-.8608418 1.1209106-.4695454-.3083954-.7572613-.9206886-.7618694-1.7746201-.0046082-1.7976589 1.2613392-3.988903 2.8265228-4.8934631 1.5628645-.902258 2.8380129-.1772386 2.842621 1.6204204z" fill="#fff"/></g><g><g><path d="m24.8994217 31.8318024c.0207691-.0119915.0405521-.0234127.0613289-.033123.36306-.1868534.690155-.1297951.8622704.1248531-.5144806.94137-1.2551537 1.773138-2.0780773 2.248251-.8219318.4745445-1.5638981.5010643-2.0820255.1558723.1691189-.4528046.4948196-.8878975.8597279-1.1213341.0168076-.0119896.0385685-.0245552.0593376-.0365448l.4470692-.2581177c-.0139599.0550308-.0223503.1100273-.0255871.1638069-.0010815.0177307-.0015869.0351639-.0015392.0522118.0003586.1267128.03298.2263412.0900764.2968559.1298161.1557655.3723717.1681557.6508446.0073776.408493-.2358437.7389088-.7544746.7377682-1.1568108-.0001984-.0704803-.0102825-.1329384-.0282631-.1851807z" fill="#f45170"/></g></g></g></g></g><g><g><g><g enable-background="new"><g><g><g><path d="m27.1903667 39.0915451c.0030365.9797363-.3033257 2.0565605-.8159485 3.0454063-.4428635.8584404-1.0373707 1.6500778-1.7198563 2.2536964-.0697594.0667229-.1425724.1244087-.2123318.1820259-.0879574.0727959-.1789703.1425552-.2699642.2062416-.0242538.0182152-.0485249.0364342-.0727959.0515404-.0181999.012146-.0363979.0273247-.0545959.0364342v.0030365c-.0121269.0091095-.0273075.018219-.0394344.0242882-.0849228.0576172-.1698627.1091576-.2547836.1576653-.0515785.0303612-.1061764.0607224-.1607723.0879745-.0485249.0273247-.1001034.0516167-.1516628.0758324-.0030365 0-.0030365.003109-.006073.003109s-.0030365.002964-.0060539.002964c-.0515785.0212517-.0970669.0425072-.1425724.0636864-.0121269.006073-.0272903.0121422-.0394344.0151787-.0363979.018219-.0727959.0334015-.1091938.0455437-.0637035.024292-.1304283.0454712-.1941319.0667229-.1698627.0515442-.336689.0849419-.4944248.1000481-.0363979.006073-.072794.009182-.1061554.009182-.1061573.009037-.2062607.009037-.3063641 0-.0394325-.003109-.078867-.009182-.1183014-.015255-.0454884-.0029602-.0909939-.0120697-.1364822-.0242157-.0606689-.0121422-.1183014-.0273247-.1728973-.0455437-.0485439-.0151062-.0970669-.0363579-.1456089-.0576134-.0333633-.012146-.0636883-.0272522-.0940323-.0454674-.0151615-.006073-.0303249-.0151825-.0454865-.024292-.0333805-.0182152-.0667419-.0363617-.1001034-.0576134-.0394344-.0242882-.078867-.0515404-.1152649-.0819054-.5126228-.3943367-.8220215-1.1131821-.8250389-2.0899582-.006073-2.1930466 1.5348301-4.8652954 3.4457836-5.9664078 1.9048786-1.1010398 3.4579086-.2153511 3.4639816 1.9776955z" fill="#ffd06c"/></g></g></g></g></g></g></g><g><g><g><path d="m25.8706093 41.9409485c-.0395813.096714-.0879383.1978531-.1362934.2989655-.5363998.7738075-1.0859737 1.3453598-1.6091709 1.7234612-.0483551.0395813-.0967121.0747604-.1450939.1055145-.0791359.0527573-.1582718.1011391-.2330055.145092-.0835381.0483589-.1670742.0923386-.2506104.1318932-.0527573.022007-.1011124.0439835-.1494961.0659599-.6726646.276989-1.266222.2242317-1.6882782-.1055145-.40448-.3121681-.6463127-.8749161-.6506882-1.6487236-.0044003-1.7278595 1.213438-3.8382454 2.721468-4.7087631 2.0840092-1.2046625 3.6315937.5979308 2.1411686 3.9921149z" fill="#fff"/></g></g><g><g><g><path d="m25.8680592 41.9420815c-.0400391.0999756-.0900269.1999512-.1300049.2999878-.5400391.7699585-1.0900269 1.3399658-1.6099854 1.7199707v.0100098c-.0500488.039978-.1000366.0700073-.1400146.0999756-.0800171.0500488-.1600342.1000366-.2399902.1500244-.0800171.039978-.1600342.0900269-.25.1300049-.0500488.0200195-.1000366.039978-.1500244.0599976-.6699829.2800293-1.2600098.2299805-1.6799927-.0999756.0499878-.0900269.0999756-.1799927.1699829-.2600098.4299927-.5800171 1.0200195-1.1000366 1.0300293-1.1300049.0299683-.039978.2199707-.25.2299805-.2600098l.0100098.0100098c0 .210022.0700073.3499756.1799927.4099731.0900269.0500488.1900024.0500488.3099976.0200195.0200195-.0100098.039978-.0200195.0700073-.0300293.0200195-.0099487.0499878-.0199585.0700073-.0299683s.039978-.0200195.0499878-.039978c.0300293-.0100098.0599976-.0400391.0900269-.0599976.2799683-.2400513.4899902-.6500244.4899902-.9900513v-.0199585c.0100098-.0100098.1099854-.0100098.1799927-.0100098h.0499878c.0200195.0100098.5999756-.1500244 1.039978-.0700073.0800169.0200196.1700438.0499879.2300414.090027z" fill="#57b3fe"/></g></g><g><g><path d="m24.3620605 41.5126801.0011616.4102325.0000305.01054.0000286.0099602c.0009766.3445435-.207283.7536583-.4874039.989399-.0455151.0383034-.0929337.0720406-.1416531.1001701-.050087.028801-.0976715.0497742-.1433563.0639458-.1168194.0362396-.2213192.0280952-.3035603-.0186119-.1144829-.065464-.1856823-.2058945-.1862507-.4061584l-.0000591-.0207481-.001009-.3562469c.1862164.142086.416626.0971336.5412159.0557289.0317326-.0105286.064043-.0250015.0963249-.0436401.0234222-.0135231.0468292-.0292397.0699863-.047226.2488272-.1930506.4297354-.4826013.5545446-.7473451z" fill="#f5c9c6"/></g></g><g><g><path d="m23.7506542 38.7263794c1.1174088-.6450882 1.0382328.4562263 1.0340652.5141907.0090942.2012596-.0039768.3815041-.0275059.5367432-.0604572.3988838-.1834946.6208725-.18997.6325569.0082703-.034008.0112476-.1203804.0086555-.2263451-.0045166-.1846466-.0259399-.4288139-.0662708-.5570946-.0281086-.0893059-.0716343-.0936089-.1114635-.0706062-.015686.0090599-.0308056.0223579-.0441704.0363579-.0294552.0308533-.0493927.0634308-.0504436.0651474-.0477962.0990791-.0963364.1859436-.1436749.2617416-.2042389.3270149-.3767357.4413605-.3858147.4473801-.0117397.0073776-.0233059.0143471-.0347996.0209808-.1409569.0813828-.2633457.1080017-.3644104.1068115-.2106705-.0024796-.322794-.1195869-.3286953-.1257515-.0260468-.0021095-.0490856.003334-.0695.0151215-.0683403.0394554-.1068878.149971-.1273689.2851868-.0005569.0036926-.0010624.0071106-.0015545.0105515-.0449314.3135681.0014133.7294235.0038509.7513123-.0012875-.0014191-.0025902-.0028839-.0038624-.0043297-.0702019-.1087646-.0710888-.1105957-.0719547-.1124001-.004921-.0104637-.0057945-.0123711-.0066433-.0142441-.0055885-.0126152-.0074177-.0168877-.0092239-.0212212-.0015144-.003643-.0024014-.0057983-.0032616-.0079231-.0009556-.0023537-.0018997-.004715-.0028305-.0070801-.0321541-.0816422-.0551815-.175663-.0717163-.273571-.0608311-.3601952-.0350323-.7519341-.0336742-.7725525.0617847-.8413925.9538746-1.4000893 1.0008259-1.429493.0348836-.0221061.0686284-.0425453.1014119-.06147z" fill="#8a4852"/></g></g><g><g><path d="m24.3981647 39.5558243c.0398293-.0230026.0833549-.0186996.1114635.0706062.0403309.1282806.0617542.372448.0662708.5570946.002552.1064377-.0005302.1931381-.008852.2264557.0001965-.0001106.1297092-.2337837.1901665-.6326675.0485649-.0262337.270319-.1279755.2389393.2215385-.0353603.3924599-.3872337.849411-.4057541.8734627-.0033855.0149803-.0677109.2996407-.2283382.6403656-.1248093.2647438-.3057175.5542946-.5545444.747345-.0231571.0179863-.0465641.0337029-.0699863.047226-.0322819.0186386-.0645924.0331116-.0963249.0436401-.1245899.0414047-.3549995.0863571-.5412159-.0557289-.0954208-.0728111-.1792278-.1947136-.2312641-.3914108-.0198746-.0063553-.3974743-.1270981-.4333553-.4685631-.0110207-.1032333.02742-.2352486.1047363-.3446579.0238781-.0337067.0554409-.0641899.0872822-.0825729.0186348-.0107613.0373573-.0173721.0547028-.0180626.0165348.097908.0395622.1919289.0714111.2727966.001236.0031395.0021801.0055008.00313.0078392.0050735.0122719.0069027.0165443.0087624.0207901.0861893.1393433.0374069-.2984009.0823383-.611969.0004921-.003437.0009975-.0068588.0015125-.0102692.0205212-.1354027.0590534-.2458305.1273499-.2852592.0204258-.011795.0434971-.0172386.069561-.0151062.0058994.0061607.1179886.1231995.3286953.1255264.1010647.0011902.2234535-.0254288.3644104-.1068115.0114937-.0066338.0230598-.0136032.0347996-.0209808.009079-.0060196.1815758-.1203651.3858147-.4473801.0473919-.0758171.0960045-.1627312.1438713-.2618561.0010452-.001709.0209007-.0342102.0502472-.065033.0133646-.014.0284841-.027298.0441701-.0363579z" fill="#f4d6d4"/></g></g></g></g></g><g><g><g><path d="m34.7880173 12.905159c0 .3806734-.2642555.8431282-.5977287 1.0350485l-5.6030407 3.2372351c-.333477.1887531-.6008987.0377502-.6008987-.3429222-.003149-.3838043.2642727-.8431282.5946007-1.0350304l5.6061878-3.2372351c.330326-.1919212.6008796-.0377502.6008796.3429041z" fill="#dedffb"/></g></g><g><g><path d="m32.4324417 18.1730843c0 .3806744-.2642555.8431282-.5977306 1.0350494l-3.2474632 1.8762684c-.333477.1887512-.6008987.0377502-.6008987-.3429241-.003149-.3838043.2642727-.8431282.5946007-1.0350304l3.2506123-1.8762665c.3303259-.1919212.6008795-.0377502.6008795.3429032z" fill="#dedffb"/></g></g></g><g><g><g><path d="m34.7880173 23.3689232c0 .3806744-.2642555.8431282-.5977287 1.0350494l-5.6030407 3.2372341c-.333477.1887531-.6008987.0377522-.6008987-.3429222-.003149-.3838043.2642727-.8431282.5946007-1.0350304l5.6061878-3.2372341c.330326-.1919212.6008796-.0377521.6008796.3429032z" fill="#dedffb"/></g></g><g><g><path d="m32.4324417 28.6368504c0 .3806725-.2642555.8431263-.5977306 1.0350475l-3.2474632 1.8762684c-.333477.1887531-.6008987.0377502-.6008987-.3429241-.003149-.3838043.2642727-.8431282.5946007-1.0350285l3.2506123-1.8762684c.3303259-.1919212.6008795-.0377502.6008795.3429051z" fill="#dedffb"/></g></g></g><g><g><g><path d="m34.7880173 33.5502281c0 .3806763-.2642555.8431282-.5977287 1.0350494l-5.6030407 3.237236c-.333477.1887512-.6008987.0377502-.6008987-.3429222-.003149-.3838043.2642727-.8431282.5946007-1.0350304l5.6061878-3.237236c.330326-.1919212.6008796-.0377502.6008796.3429032z" fill="#dedffb"/></g></g><g><g><path d="m32.4324417 38.8181572c0 .3806725-.2642555.8431282-.5977306 1.0350494l-3.2474632 1.8762665c-.333477.1887512-.6008987.0377502-.6008987-.342926-.003149-.3838005.2642727-.8431244.5946007-1.0350266l3.2506123-1.8762703c.3303259-.1919212.6008795-.0377502.6008795.342907z" fill="#dedffb"/></g></g></g></g><g><g><g><g><g><g><path d="m44.9122467 9.5945702-10.4700317 6.040039-.9099732-.5300293v-.6099853l-1.2399902-.2700196-.9100361-.5299682 2.1400166-2.960022v-.9199829l10.4599609-6.0400395.9100342.5200195z" fill="#e93565"/></g></g></g></g></g></g><g><g><g enable-background="new"><g><g><path d="m34.4457359 15.6305809-.9093322-.5284443-.0026551-.9370785.9093285.5284453z" fill="#cc104a"/></g></g><g><g><path d="m32.2882195 14.2215824-.9093304-.5284452 2.1451473-2.9545937.9093285.5284443z" fill="#e93565"/></g></g><g><g><path d="m34.4333649 11.2669878-.9093285-.5284443-.0026321-.9276419.9093284.5284453z" fill="#cc104a"/></g></g><g><g><path d="m34.4307327 10.3393469-.9093284-.5284453 10.4616241-6.0400221.9093323.5284445z" fill="#e93565"/></g></g><g><g><path d="m44.8923607 4.299324.0149994 5.2912341-10.4616242 6.0400228-.0026588-.9370775-2.1548576-.471921 2.1451454-2.9545946-.0026322-.9276409z" fill="#f45170"/></g></g></g></g><g><g><g><g><path d="m36.3158836 10.359087c.8425217-.4864302 1.5252304-.0973911 1.5279732.8706999.0027199.9588108-.6755562 2.1336784-1.5180779 2.6201086-.834404.4817438-1.517128.0926495-1.5198479-.8661613-.0027427-.9680911.6755448-2.1429034 1.5099526-2.6246472z" fill="#fff"/></g></g><g><g><g><path d="m43.1721649 8.607296-4.5945282 2.6526356.0026207.9237251 4.5919075-2.6511374z" fill="#fff"/></g></g><g><g><path d="m44.306797 5.7224531-5.7344017 3.3107872.0026207.9237242 5.731781-3.3092136z" fill="#fff"/></g></g></g></g></g></g><g><g><g><path d="m36.3210716 12.0255566c.4673653-.2698326.853344-.0623369.8548622.4721909l-1.7020721.9826908c-.0015144-.5345278.3820152-1.1863013.8472099-1.4548817z" fill="#4c5c75"/></g></g><g><g><path d="m36.3182106 11.0164318c.2130356-.1229963.3874931-.0260658.3881798.2162209.0006981.2472839-.1726418.5425215-.3856773.6655178-.2108536.1217365-.3853188.0273046-.3860168-.2199793-.0006867-.2422867.1726607-.5400229.3835143-.6617594z" fill="#4c5c75"/></g></g></g><g><g><g><path d="m13.3021994 23.7345848c0 1.7000122-1.1900024 3.7800293-2.6699829 4.6300049-.75.4299927-1.4199829.4699707-1.9099731.1799927-.0599976-.0200195-.1100464-.0599976-.1600342-.0899658l-.6900024-.3800049c-.4799805-.2900391-.7799683-.8800049-.7799683-1.7300415 0-1.6999512 1.1900024-3.7699585 2.6699829-4.6300049.7399902-.4299927 1.4199829-.4699707 1.9099731-.1799927l.8500366.4700317c-.0400391-.0200195-.0700073-.0400391-.1099854-.0499878.5399781.25.8800049.8699952.8899537 1.7799683z" fill="#bf7d5a"/></g></g></g><g><g><g><g><g><g><g enable-background="new"><g><g><path d="m12.5172625 22.0082474c-.4913664-.2837601-1.1626711-.242197-1.9100485.1868668-1.4809847.8581276-2.6782079 2.9342594-2.6712804 4.6366615 0 .8443165.2975736 1.4394646.7819705 1.7162991l-.8481364-.4781361c-.4775124-.2837181-.7750859-.8789082-.7820134-1.7231827 0-1.7024441 1.1972227-3.7716503 2.6782084-4.6297779.7404919-.4290638 1.4186821-.4705849 1.9100485-.1868649z" fill="#bf7d5a"/></g></g><g><g><path d="m13.2992764 23.731432c.0068846 1.7024441-1.1903381 3.7785759-2.6713228 4.6297779-1.4878702.8581276-2.6920199.1730099-2.6920199-1.5294342-.0069275-1.7024021 1.1902957-3.7785339 2.6712804-4.6366615 1.4809846-.851244 2.6851348-.1661263 2.6920623 1.5363178z" fill="#dba660"/></g></g></g></g></g></g></g></g><g><g><path d="m12.1950121 23.807354-1.8683901 3.2266464c-.0637522.1083946-.1466532.1976776-.2359381.248703-.0892839.0509872-.1785287.0637531-.24232.0254936l-.809824-.4591084c-.1275434-.082901-.1275434-.325222 0-.5548153.0701351-.1083946.1530361-.1976795.242321-.2486649.0892448-.0510254.1721458-.0637913.2359371-.0255318l.567503.325222 1.6261091-2.8121414c.0637522-.1211605.1530361-.2040615.2423201-.255085.0828629-.0510254.1721468-.0637531.2359381-.0254936.1338872.0701353.1402702.3188383.0063438.5547754z" fill="#fff"/></g></g></g><g><g><g><path d="m44.4522247 27.6045799c0 .5900269-.4199829 1.2999878-.9299927 1.6000366l-4.1900024 2.4199829c-.2600098.1499634-.4899902.1599731-.6600342.0599976-.0199585-.0100098-.0299683-.0200195-.0499878-.0300293l-.7399902-.4299927c-.1699829-.0999756-.2700195-.2999878-.2700195-.5999756l-.0199585-4.7999878c0-.5900269.4099731-1.3099976.9299927-1.6100464l4.1799927-2.4099731c.2600098-.1500244.5-.1699829.6699829-.0700073l.7200317.4299927.0700073.0400391c.1699829.0899658.2699585.289978.2699585.5899658z" fill="#678aee"/></g></g></g><g><g><path d="m38.6757698 31.6867046c-.1663704-.0966778-.269207-.3028545-.2700348-.5965614l-.013607-4.8018227c-.0016975-.5912743.4105186-1.3107624.9250679-1.6078701l4.1836548-2.4154377c.2589073-.1494961.4938164-.1631966.6635399-.0645428l-.796257-.4627419c-.1697235-.0986519-.4046326-.0849533-.6635399.0645428l-4.1836548 2.4154377c-.5145493.2971096-.9267693 1.0165958-.9250679 1.607872l.013607 4.8018208c.0008278.2937527.1036644.4998856.2699852.5965614z" fill="#678aee"/></g><g><g><path d="m43.5008354 22.2650204c.5145493-.2970772.9342728-.057869.9359512.5333881l.0136147 4.8018265c.0016747.5912571-.4153404 1.3080006-.9298897 1.6050758l-4.1836662 2.4154415c-.5145531.2970772-.929451.0606384-.9311256-.5306206l-.0136147-4.8018246c-.0016747-.591259.410511-1.31077.9250641-1.6078472z" fill="#8fabfe"/></g></g><g><g><path d="m41.4156303 24.7336311.5997391 1.0006142 1.3315735-.5260372-.9592514 1.5722847.2315025 1.3404255-1.1936798-.0323162-1.1853027 1.3537311.2207184-1.5916137-.9653702-.5032483 1.3303184-.9525184z" fill="#fff"/></g></g></g></g></svg>