<svg id="Layer_1" enable-background="new 0 0 51 51" height="512" viewBox="0 0 51 51" width="512" xmlns="http://www.w3.org/2000/svg"><g id="_x34_3"><g><g><path d="m8.8151464 39.0667648.0135136 5.9880333-5.4400029 3.1299553-.0100098-5.9840545z" fill="#57b3fe"/></g><g><path d="m8.8151464 28.224966.0135136 5.3399869-5.4400029 3.1299514-.0100098-5.3360023z" fill="#f45170"/></g><g><g><g><g><g><g><path d="m3.3934937 48.4348755c-.0429688 0-.0859375-.0112305-.125-.0332031-.0771484-.0449219-.125-.1269531-.125-.2163086l-.069336-27.7275391c0-.0893555.0473633-.1723633.125-.2172852l32.6660156-18.8320305c.1191406-.0693359.2719727-.0283203.3417969.0917969.0688477.1196289.027832.2724609-.0917969.3417969l-32.5405273 18.7592766.0678711 27.1513672 32.2919922-18.6166992c.1191406-.0688477.2724609-.0283203.3417969.0917969.0688477.1196289.027832.2724609-.0917969.3417969l-32.6660156 18.8320312c-.0385743.0219726-.0820313.0332031-.125.0332031z" fill="#e3e7f0"/></g><g><path d="m8.8261108 45.3049927c-.1376953 0-.2495117-.1118164-.25-.2495117l-.0546875-27.741211c-.0004883-.1381836.1113281-.25.2495117-.2504883h.0004883c.1376953 0 .2495117.1118164.25.2495117l.0546875 27.7412109c.0004883.1381836-.1113281.25-.2495117.2504883h-.0004883z" fill="#e3e7f0"/></g><g><path d="m14.2694702 42.1585083c-.1376953 0-.2495117-.1118164-.25-.2495117l-.0541992-27.7299795c-.0004883-.1381836.1113281-.25.2495117-.2504883h.0004883c.1376953 0 .2495117.1118164.25.2495117l.0541992 27.7299795c.0004883.1381836-.1113281.25-.2495117.2504883z" fill="#e3e7f0"/></g><g><path d="m19.7025757 39.0227661c-.1381836 0-.25-.1118164-.25-.25l-.043457-27.7294922c-.0004883-.1381836.1113281-.25.2495117-.2504883h.0004883c.1376953 0 .2495117.1118164.25.2495117l.043457 27.7304688c0 .1381836-.1118164.25-.25.25z" fill="#e3e7f0"/></g><g><path d="m25.1459351 35.8762817c-.1376953 0-.2495117-.1118164-.25-.2495117l-.0434571-27.7192373c-.0004883-.1381836.1113281-.25.2495117-.2504883h.0004883c.1376953 0 .2495117.1118164.25.2495117l.043457 27.7192383c.0004883.1381836-.1113281.2504883-.2495117.2504883h-.0004882z" fill="#e3e7f0"/></g><g><path d="m30.5897827 32.7410278c-.1377048 0-.2495117-.1118164-.25-.2495117l-.043457-27.7304688c-.0004883-.1381836.1113281-.25.2495117-.2504883h.0004883c.1376953 0 .2495117.1118164.25.2495117l.043457 27.7304688c.0004883.1381836-.1113281.25-.2495117.2504883z" fill="#e3e7f0"/></g><g><path d="m36.0336304 29.5945435c-.1376953 0-.2495117-.1118164-.25-.2495117l-.043457-27.7192383c-.0004883-.1381836.1113281-.25.2495117-.2504883h.0004883c.1376953 0 .2495117.1118164.25.2495117l.043457 27.7192383c.0004883.1381836-.1113281.25-.2495117.2504883z" fill="#e3e7f0"/></g><g><path d="m3.1620483 25.9949341c-.0693359-.1196289-.0283203-.2724609.0913086-.3413086l32.6225586-18.8334952c.1181641-.0698242.2724609-.0288086.3413086.0913086.0693359.1196289.0283203.2724609-.0913086.3413086l-32.6225586 18.8334952c-.1191988.0691662-.2727379.028326-.3413086-.0913086z" fill="#e3e7f0"/></g><g><path d="m3.3783569 31.5632935c-.0859375 0-.1704102-.0449219-.2163086-.125-.0693359-.1196289-.0283203-.2724609.0913086-.3413086l32.6225586-18.8334961c.1181641-.0693359.2724609-.0288086.3413086.0913086.0693359.1196289.0283203.2724609-.0913086.3413086l-32.6225586 18.8334961c-.0395507.0229492-.0825195.0336914-.125.0336914z" fill="#e3e7f0"/></g><g><path d="m3.3783569 37.0071411c-.0859375 0-.1704102-.0449219-.2163086-.125-.0693359-.1196289-.0283203-.2724609.0913086-.3413086l32.6225586-18.8334961c.1181641-.0693359.2724609-.0288086.3413086.0913086.0693359.1196289.0283203.2724609-.0913086.3413086l-32.6225586 18.8334961c-.0395507.0229492-.0825195.0336914-.125.0336914z" fill="#e3e7f0"/></g><g><path d="m3.3783569 42.4505005c-.0859375 0-.1704102-.0449219-.2163086-.125-.0693359-.1196289-.0283203-.2724609.0913086-.3413086l32.6225586-18.8334961c.1181641-.0708008.2724609-.0283203.3413086.0913086.0693359.1196289.0283203.2724609-.0913086.3413086l-32.6225586 18.8334961c-.0395507.0229492-.0825195.0336914-.125.0336914z" fill="#e3e7f0"/></g></g></g></g></g><g><g><path d="m34.5615082 10.2323761.00214.9155674-2.5404205 1.4667139-.0021401-.9155674z" fill="#78e75a"/></g></g><g><g><path d="m29.1448402 18.6257839.002142.9155674-2.5404224 1.466713-.002142-.9155655z" fill="#c9cee2"/></g></g><g><g><path d="m23.6730042 11.1286793.0021419.9155674-2.5404224 1.4667139-.002142-.9155674z" fill="#423d9b"/></g></g><g><g><path d="m18.2031879 19.5143414.002142.9155674-2.5404215 1.4667129-.0021429-.9155674z" fill="#dedffb"/></g></g><g><g><path d="m12.7175961 17.359354.0021419.9155674-2.5404215 1.466713-.0021419-.9155674z" fill="#b28afd"/></g></g></g><g><g><g><g><g><g><g><g><g><path d="m42.3895874 39.2247925-3.8599853 2.2299804-3.8400269-2.2299804-.0299683-13.9300537 3.8599854-2.2299805 3.8399658 2.2299805z" fill="#b0b8cf"/></g></g></g><g enable-background="new"><g><g><path d="m34.6573067 25.2987347.0285072 13.9294719 3.8396149 2.2313424-.0285073-13.9294739z" fill="#c9cee2"/></g></g><g><g><path d="m38.4969215 27.5300751.0285073 13.9294739 3.8652267-2.2315903-.0285072-13.9294739z" fill="#b0b8cf"/></g></g><g><g><path d="m34.6573067 25.2987347 3.8396148 2.2313404 3.8652268-2.2315903-3.8396149-2.2313404z" fill="#e3e7f0"/></g></g></g><g><g><g><path d="m34.7095947 43.6647339-3.8699951 2.2300415-3.8400268-2.2300415-.0199585-12.1599732 3.8599853-2.2299804 3.8399658 2.2299804z" fill="#f9a83d"/></g></g></g><g enable-background="new"><g><g><path d="m26.9760303 31.504982.0285054 12.1590195 3.8396148 2.2313423-.0285034-12.1590195z" fill="#febc1f"/></g></g><g><g><path d="m30.8156471 33.7363243.0285034 12.1590195 3.8657265-2.2318764-.0285072-12.1590214z" fill="#f9a83d"/></g></g><g><g><path d="m26.9760303 31.504982 3.8396168 2.2313423 3.8657227-2.2318783-3.8396149-2.2313404z" fill="#ffd06c"/></g></g></g><g><g><g><path d="m28.199585 47.3947754-3.8699952 2.2299805-3.8400268-2.2299805-.0299683-11.4299927 3.8699951-2.2300415 3.8400269 2.2300415z" fill="#5ec363"/></g></g></g><g enable-background="new"><g><g><path d="m20.4632111 35.9682007.0285053 11.425663 3.8396149 2.2313423-.0285054-11.4256668z" fill="#5ec363"/></g></g><g><g><path d="m24.3028259 38.1995392.0285054 11.4256668 3.8657245-2.2318764-.0285053-11.4256668z" fill="#72d561"/></g></g><g><g><path d="m20.4632111 35.9682007 3.8396148 2.2313385 3.8657246-2.2318764-3.8396149-2.2313385z" fill="#78e75a"/></g></g></g></g></g></g></g></g><path d="m47.9258423 11.2679453-.0803223-9.1641238-.8905029-.4786377-7.8321533 4.5958865 2.8231201 1.6299438-3.4854736 9.1871939-.7808228-2.6298208-2.8977051-1.68396-4.6438598 9.7987662-.2350464-.6641846-2.8977051-1.68396-7.5229492 13.8135376 2.8977051 1.68396 1.0969238.057251 4.6760254-7.6797486.430603 1.2229615 2.8977051 1.6839599 4.4265747-9.3051758.8430176 2.836731 2.897705 1.68396 6.1166382-16.1164542 1.2700196.7332764z" fill="#cc104a"/><g><g><g enable-background="new"><g><g><path d="m44.931633 9.3031979-2.8976936-1.6839548 1.0894966.0788193 2.8976936 1.6839547z" fill="#394557"/></g></g><g><g><path d="m40.013195 22.2675133-2.8976936-1.6839543 4.918438-12.9643159 2.8976936 1.6839548z" fill="#f45170"/></g></g><g><g><path d="m39.6486549 26.1725235-2.8976936-1.6839561-2.2652512-7.6223412 2.8976937 1.6839561z" fill="#cc104a"/></g></g><g><g><path d="m31.7180481 26.9876709-2.8976917-1.6839542 5.9616108-12.5792981 2.8976936 1.6839543z" fill="#f45170"/></g></g><g><g><path d="m31.4813995 30.9569664-2.8976917-1.6839542-1.8680477-5.3051911 2.8976917 1.6839543z" fill="#cc104a"/></g></g><g><g><path d="m22.3801098 35.6725769-2.8976917-1.6839561 7.5229797-13.813572 2.8976917 1.6839562z" fill="#f45170"/></g></g><g><g><path d="m44.931633 9.3031979 1.0894966.0788192-6.3724747 16.7905064-2.2652511-7.6223412-5.9020043 12.4067841-1.8680477-5.305191-6.1362953 10.0780487-1.0969467-.0572472 7.5229797-13.8135719 1.8149586 5.1286659 5.9616127-12.579298 2.3335342 7.8591404z" fill="#e93565"/></g></g></g></g><g><g enable-background="new"><g><g><path d="m46.954998 1.6252048.8904991.4786196.0803452 9.164118-.8904991-.4786195z" fill="#e93565"/></g></g><g><g><path d="m46.954998 1.6252048.0803452 9.1641181-7.9124489-4.5682555z" fill="#f45170"/></g></g></g></g></g></g></g><g><g><path d="m7.0217261 31.0947685c.0436234-.0251865.0873022-.031023.1210899-.0117683.0675755.0385113.0679245.161644.0007877.2779312l-1.3488383 2.3362923c-.0335684.0581436-.077137.1026802-.1207814.1278801-.0436239.0251846-.0873022.0310211-.1210899.0117645l-.4884119-.2818298c-.0675654-.0349922-.0679145-.1581268-.0007782-.2744102.0335684-.0581436.077158-.1026917.1203871-.1276512.0432501-.024971.0861812-.0303764.1184325-.010231l.3716555.2082863 1.2267656-2.1283875c.0335679-.0581418.0771575-.1026898.1207814-.1278764z" fill="#fff"/></g></g><g><g><path d="m7.0217261 42.2605934c.0436234-.0251884.0873022-.0310249.1210899-.0117683.0675755.0385094.0679245.161644.0007877.2779274l-1.3488383 2.3362961c-.0335684.0581436-.077137.1026802-.1207814.1278763-.0436239.0251884-.0873022.0310249-.1210899.0117683l-.4884119-.2818298c-.0675654-.0349922-.0679145-.1581268-.0007782-.2744141.0335684-.0581436.077158-.1026917.1203871-.1276474.0432501-.024971.0861812-.0303764.1184325-.0102348l.3716555.2082863 1.2267656-2.1283836c.0335679-.0581437.0771575-.1026918.1207814-.1278764z" fill="#fff"/></g></g></g></svg>