<svg xmlns="http://www.w3.org/2000/svg" xmlns:xlink="http://www.w3.org/1999/xlink" viewBox="0 0 56.61073 64.6635">
  <defs>
    <linearGradient id="Áåçûìÿííûé_ãðàäèåíò_37" data-name="Áåçûìÿííûé ãðàäèåíò 37" x1="236.01895" y1="39.0151" x2="236.01895" y2="29.83" gradientUnits="userSpaceOnUse">
      <stop offset="0" stop-color="#9a00b3"/>
      <stop offset="1" stop-color="#7f72ff"/>
    </linearGradient>
    <linearGradient id="Áåçûìÿííûé_ãðàäèåíò_67" data-name="Áåçûìÿííûé ãðàäèåíò 67" x1="233.98611" y1="39.48031" x2="237.4374" y2="28.94394" gradientUnits="userSpaceOnUse">
      <stop offset="0" stop-color="#5b008b"/>
      <stop offset="1" stop-color="#8e00ff"/>
    </linearGradient>
    <radialGradient id="Áåçûìÿííûé_ãðàäèåíò_858" data-name="Áåçûìÿííûé ãðàäèåíò 858" cx="237.21191" cy="40.83974" r="42.6032" gradientUnits="userSpaceOnUse">
      <stop offset="0.00559" stop-color="#60dbff"/>
      <stop offset="0.09373" stop-color="#60d5ff"/>
      <stop offset="0.21097" stop-color="#5fc4ff"/>
      <stop offset="0.34458" stop-color="#5da9ff"/>
      <stop offset="0.49032" stop-color="#5a82ff"/>
      <stop offset="0.64421" stop-color="#5751ff"/>
      <stop offset="0.68436" stop-color="#5643ff"/>
      <stop offset="0.74317" stop-color="#563df8"/>
      <stop offset="0.82823" stop-color="#552ee5"/>
      <stop offset="0.92875" stop-color="#5315c6"/>
      <stop offset="1" stop-color="#5200ab"/>
    </radialGradient>
    <linearGradient id="Áåçûìÿííûé_ãðàäèåíò_833" data-name="Áåçûìÿííûé ãðàäèåíò 833" x1="227.11519" y1="45.96865" x2="265.26689" y2="45.96865" gradientUnits="userSpaceOnUse">
      <stop offset="0.01117" stop-color="#81e0ff"/>
      <stop offset="0.32238" stop-color="#82ddff"/>
      <stop offset="0.55058" stop-color="#86d4ff"/>
      <stop offset="0.75226" stop-color="#8bc4ff"/>
      <stop offset="0.9375" stop-color="#94adff"/>
      <stop offset="1" stop-color="#97a4ff"/>
    </linearGradient>
    <linearGradient id="Áåçûìÿííûé_ãðàäèåíò_99" data-name="Áåçûìÿííûé ãðàäèåíò 99" x1="265.65619" y1="77.2865" x2="265.65619" y2="64.83268" gradientUnits="userSpaceOnUse">
      <stop offset="0" stop-color="#b8c2ff"/>
      <stop offset="1" stop-color="#5b729c"/>
    </linearGradient>
    <radialGradient id="Áåçûìÿííûé_ãðàäèåíò_600" data-name="Áåçûìÿííûé ãðàäèåíò 600" cx="234.25562" cy="35.19235" r="34.90892" gradientUnits="userSpaceOnUse">
      <stop offset="0" stop-color="#ffffd9"/>
      <stop offset="1"/>
    </radialGradient>
    <linearGradient id="Áåçûìÿííûé_ãðàäèåíò_9" data-name="Áåçûìÿííûé ãðàäèåíò 9" x1="227.35709" y1="38.46163" x2="260.71165" y2="38.46163" gradientUnits="userSpaceOnUse">
      <stop offset="0" stop-color="#b8c2ff"/>
      <stop offset="1" stop-color="#7d72b3"/>
    </linearGradient>
    <linearGradient id="Áåçûìÿííûé_ãðàäèåíò_9-2" x1="232.77059" y1="63.289" x2="280.15939" y2="63.289" xlink:href="#Áåçûìÿííûé_ãðàäèåíò_9"/>
    <linearGradient id="Áåçûìÿííûé_ãðàäèåíò_9-3" x1="229.97149" y1="53.48695" x2="277.26519" y2="53.48695" xlink:href="#Áåçûìÿííûé_ãðàäèåíò_9"/>
    <linearGradient id="Áåçûìÿííûé_ãðàäèåíò_9-4" x1="227.11639" y1="46.87782" x2="273.60389" y2="46.87782" xlink:href="#Áåçûìÿííûé_ãðàäèåíò_9"/>
    <linearGradient id="Áåçûìÿííûé_ãðàäèåíò_559" data-name="Áåçûìÿííûé ãðàäèåíò 559" x1="261.55659" y1="43.0459" x2="262.19469" y2="43.0459" gradientUnits="userSpaceOnUse">
      <stop offset="0" stop-color="#e8ddff"/>
      <stop offset="1" stop-color="#aa8ad8"/>
    </linearGradient>
    <linearGradient id="Áåçûìÿííûé_ãðàäèåíò_559-2" x1="228.77909" y1="54.83775" x2="228.9116" y2="54.83775" xlink:href="#Áåçûìÿííûé_ãðàäèåíò_559"/>
    <linearGradient id="Áåçûìÿííûé_ãðàäèåíò_18" data-name="Áåçûìÿííûé ãðàäèåíò 18" x1="258.72169" y1="31.98115" x2="275.74339" y2="31.98115" gradientUnits="userSpaceOnUse">
      <stop offset="0" stop-color="#7f72ff"/>
      <stop offset="1" stop-color="#9a00b3"/>
    </linearGradient>
    <linearGradient id="Áåçûìÿííûé_ãðàäèåíò_57" data-name="Áåçûìÿííûé ãðàäèåíò 57" x1="262.58799" y1="72.84254" x2="271.2224" y2="46.48271" gradientUnits="userSpaceOnUse">
      <stop offset="0" stop-color="#280077"/>
      <stop offset="1" stop-color="#812cff"/>
    </linearGradient>
    <linearGradient id="Áåçûìÿííûé_ãðàäèåíò_27" data-name="Áåçûìÿííûé ãðàäèåíò 27" x1="291.47427" y1="140.83942" x2="291.47427" y2="114.3801" gradientTransform="matrix(0.9503, 0.3113, -0.3113, 0.9503, 31.915, -152.2694)" gradientUnits="userSpaceOnUse">
      <stop offset="0" stop-color="#7a00b3"/>
      <stop offset="1" stop-color="#b136ff"/>
    </linearGradient>
    <linearGradient id="Áåçûìÿííûé_ãðàäèåíò_87" data-name="Áåçûìÿííûé ãðàäèåíò 87" x1="267.89723" y1="65.093" x2="267.89723" y2="46.87992" gradientUnits="userSpaceOnUse">
      <stop offset="0" stop-color="#8e00b3"/>
      <stop offset="1" stop-color="#e05cff"/>
    </linearGradient>
    <linearGradient id="Áåçûìÿííûé_ãðàäèåíò_111" data-name="Áåçûìÿííûé ãðàäèåíò 111" x1="238.69544" y1="75.6356" x2="238.69544" y2="64.94246" gradientUnits="userSpaceOnUse">
      <stop offset="0" stop-color="#81a9ce"/>
      <stop offset="1" stop-color="#5b729c"/>
    </linearGradient>
    <linearGradient id="Áåçûìÿííûé_ãðàäèåíò_57-2" x1="235.69069" y1="72.56398" x2="239.25731" y2="61.6755" xlink:href="#Áåçûìÿííûé_ãðàäèåíò_57"/>
    <linearGradient id="Áåçûìÿííûé_ãðàäèåíò_36" data-name="Áåçûìÿííûé ãðàäèåíò 36" x1="257.4988" y1="82.00327" x2="257.4988" y2="77.2865" gradientUnits="userSpaceOnUse">
      <stop offset="0" stop-color="#7a00b3"/>
      <stop offset="0.9162" stop-color="#7006fc"/>
      <stop offset="1" stop-color="#7006f9"/>
    </linearGradient>
    <linearGradient id="Áåçûìÿííûé_ãðàäèåíò_27-2" x1="235.90467" y1="74.30407" x2="235.90467" y2="60.74643" gradientTransform="matrix(1, 0, 0, 1, 0, 0)" xlink:href="#Áåçûìÿííûé_ãðàäèåíò_27"/>
    <linearGradient id="Áåçûìÿííûé_ãðàäèåíò_87-2" x1="236.61525" y1="74.2987" x2="236.61525" y2="60.74643" xlink:href="#Áåçûìÿííûé_ãðàäèåíò_87"/>
    <linearGradient id="Áåçûìÿííûé_ãðàäèåíò_67-2" x1="256.17589" y1="56.40391" x2="258.44493" y2="49.47682" xlink:href="#Áåçûìÿííûé_ãðàäèåíò_67"/>
    <linearGradient id="Áåçûìÿííûé_ãðàäèåíò_41" data-name="Áåçûìÿííûé ãðàäèåíò 41" x1="256.9665" y1="55.90359" x2="258.84326" y2="50.17406" gradientUnits="userSpaceOnUse">
      <stop offset="0" stop-color="#a400ca"/>
      <stop offset="1" stop-color="#b136ff"/>
    </linearGradient>
    <linearGradient id="Áåçûìÿííûé_ãðàäèåíò_67-3" x1="266.37516" y1="35.51575" x2="269.08366" y2="27.24701" xlink:href="#Áåçûìÿííûé_ãðàäèåíò_67"/>
    <radialGradient id="Áåçûìÿííûé_ãðàäèåíò_75" data-name="Áåçûìÿííûé ãðàäèåíò 75" cx="273.0836" cy="65.4881" r="5.0204" gradientUnits="userSpaceOnUse">
      <stop offset="0" stop-color="#317aff"/>
      <stop offset="0.10486" stop-color="#2967d7"/>
      <stop offset="0.29177" stop-color="#1d4897"/>
      <stop offset="0.47023" stop-color="#132e61"/>
      <stop offset="0.63502" stop-color="#0b1a37"/>
      <stop offset="0.78334" stop-color="#050c19"/>
      <stop offset="0.90999" stop-color="#010307"/>
      <stop offset="1"/>
    </radialGradient>
    <radialGradient id="Áåçûìÿííûé_ãðàäèåíò_75-2" cx="266.36394" cy="51.8395" r="4.66117" xlink:href="#Áåçûìÿííûé_ãðàäèåíò_75"/>
    <radialGradient id="Áåçûìÿííûé_ãðàäèåíò_75-3" cx="346.87167" cy="252.02709" r="2.76301" gradientTransform="matrix(0.8091, 0.5877, -0.3866, 0.5322, 83.8871, -308.4725)" xlink:href="#Áåçûìÿííûé_ãðàäèåíò_75"/>
    <linearGradient id="Áåçûìÿííûé_ãðàäèåíò_93" data-name="Áåçûìÿííûé ãðàäèåíò 93" x1="269.45404" y1="34.70648" x2="269.45404" y2="25.8391" gradientUnits="userSpaceOnUse">
      <stop offset="0" stop-color="#b000d9"/>
      <stop offset="1" stop-color="#e05cff"/>
    </linearGradient>
    <linearGradient id="Áåçûìÿííûé_ãðàäèåíò_9-5" x1="261.77685" y1="74.4238" x2="261.77685" y2="62.3284" xlink:href="#Áåçûìÿííûé_ãðàäèåíò_9"/>
    <linearGradient id="Áåçûìÿííûé_ãðàäèåíò_111-2" x1="269.16645" y1="44.4124" x2="269.16645" y2="28.3742" xlink:href="#Áåçûìÿííûé_ãðàäèåíò_111"/>
    <radialGradient id="Áåçûìÿííûé_ãðàäèåíò_136" data-name="Áåçûìÿííûé ãðàäèåíò 136" cx="205.69868" cy="12.94219" r="6.67953" gradientTransform="matrix(1.66691, 0.00001, -0.00002, 1.06865, -100.10378, 26.2337)" gradientUnits="userSpaceOnUse">
      <stop offset="0" stop-color="#06feff"/>
      <stop offset="0.17323" stop-color="#05c4c5"/>
      <stop offset="0.39877" stop-color="#037f80"/>
      <stop offset="0.60249" stop-color="#024849"/>
      <stop offset="0.77688" stop-color="#012121"/>
      <stop offset="0.9151" stop-color="#000909"/>
      <stop offset="1"/>
    </radialGradient>
  </defs>
  <g style="isolation: isolate">
    <g id="Layer_1" data-name="Layer 1">
      <g>
        <path d="M231.251,39.0151s.32309-2.7927.53519-4.3271a23.95514,23.95514,0,0,1,4.95-4.858l4.0507.2111S232.61959,36.5925,231.251,39.0151Z" transform="translate(-227.11519 -17.33977)" fill-rule="evenodd" fill="url(#Áåçûìÿííûé_ãðàäèåíò_37)"/>
        <path d="M236.73619,29.83a5.76769,5.76769,0,0,1-2.0507,4.0229c-2.0507,1.7757-2.9424,1.1523-2.9424,1.1523l-.49209,3.5792,9.53589-8.5433Z" transform="translate(-227.11519 -17.33977)" fill-rule="evenodd" fill="url(#Áåçûìÿííûé_ãðàäèåíò_67)"/>
        <path d="M280.15939,53.2458a26.49546,26.49546,0,0,1-26.5243,26.5187c-.4703,0-.94609-.0112-1.4108-.0392h-.0055c-.6942-.0336-1.38279-.1008-2.0602-.1847A26.3509,26.3509,0,0,1,236.611,73.5729a27.022,27.022,0,0,1-6.16361-7.4456c-.16239-.2912-.3192-.5878-.4759-.8846,0-.0111-.0056-.0167-.0112-.028-.1624-.3191-.3135-.6382-.459-.9628h-.0057a25.45278,25.45278,0,0,1-1.1868-3.135,23.779,23.779,0,0,1-.6213-2.3737.0334.0334,0,0,1-.0056-.0223c-.1177-.5654-.2184-1.1365-.2968-1.7131a26.11071,26.11071,0,0,1-.2687-3.762c0-.7334.028-1.4667.0952-2.1833.0335-.459.0839-.9125.1455-1.3659a26.00147,26.00147,0,0,1,2.1217-7.4065,26.54633,26.54633,0,0,1,24.1563-15.5686c.27991,0,.5598.0056.8341.0112.29681.0112.5934.0224.8902.0448a26.42067,26.42067,0,0,1,4.45061.6718c.83969.2015,1.66259.4367,2.46869.7166.5486.1847,1.0861.3919,1.6179.6157.3975.168.7837.3416,1.17.5263.0672.0335.13441.0616.2016.0952a26.574,26.574,0,0,1,6.9361,4.904c.2911.2799.571.571.8509.8677.18481.2016.3695.4087.5487.6158.3079.3471.6046.711.8957,1.0748a26.44084,26.44084,0,0,1,4.8816,9.9873A26.44443,26.44443,0,0,1,280.15939,53.2458Z" transform="translate(-227.11519 -17.33977)" fill-rule="evenodd" fill="url(#Áåçûìÿííûé_ãðàäèåíò_858)"/>
        <path d="M265.26689,29.4047a2.56492,2.56492,0,0,0-.2623.0368,1.68921,1.68921,0,0,1-.828-.0552,4.87752,4.87752,0,0,0-.5889-.184c-.3221-.0506-.6211-.1886-.9432-.2301a4.69106,4.69106,0,0,1-.9569-.2944.901.901,0,0,0-.6302,0,.89793.89793,0,0,1-.6302-.1288,3.44418,3.44418,0,0,0-.7453-.1748c-.6717-.138-1.3387-.3543-2.0058-.5244a4.925,4.925,0,0,0-1.21909-.1104c-.33131-.0047-.63031.0919-.96151.0919a4.17848,4.17848,0,0,1-.6303-.069c-.2255-.0414-.4555.0047-.6809-.0276a1.59019,1.59019,0,0,0-.8557.0047,2.461,2.461,0,0,1-.7038.0873,5.17879,5.17879,0,0,0-.8741.1519,6.54038,6.54038,0,0,1-1.5504.1978,3.63314,3.63314,0,0,0-1.0719.0184c-.1932.069-.2898.276-.4232.414a8.16323,8.16323,0,0,0-.7913.8051,1.623,1.623,0,0,0-.4417.9845,2.95163,2.95163,0,0,0,.3129,1.0075c.1472.3174.1978.6072-.1288.8189a5.03294,5.03294,0,0,1-1.3526.6533.82757.82757,0,0,1-.85569-.0782c-.09661-.0828-.15641-.2439-.276-.3083-.12421-.0644-.253,0-.38651.0414a8.47341,8.47341,0,0,1-.989.2623c-.2071.0322-.38649.1425-.5889.1794-.2438.0459-.4187-.1334-.6717-.0736a6.19747,6.19747,0,0,1-1.0765.2484,1.59392,1.59392,0,0,1-.8142-.2347c-.1288-.0735-.1611-.1471-.3083-.1058a.81911.81911,0,0,0-.3635.2668c-.0873.1243-.1195.2853-.2069.4141-.0921.1426-.1794.2806-.2622.4324a6.19787,6.19787,0,0,1-.5245.8327c-.138.1841-.2347.4325-.3865.6027a1.81973,1.81973,0,0,1-.3496.2254c-.276.1933-.5659.368-.83269.5751-.51521.4048-1.00291.8511-1.52731,1.2421a6.63088,6.63088,0,0,1-1.417.6625c-.2852.115-.5796.1978-.8649.3174a1.31526,1.31526,0,0,0-.3404.1472,2.55974,2.55974,0,0,0-.24839.3681,6.2101,6.2101,0,0,0-.69931.9569,3.42035,3.42035,0,0,0-.2576.6302c-.1012.2991-.2622.5751-.3635.8741-.207.6257-.2484,1.279-.4784,1.9a10.045,10.045,0,0,1-.49219,1.0259,5.717,5.717,0,0,0-.40951,1.8494,3.9148,3.9148,0,0,0,.0368,1.1363,6.182,6.182,0,0,1,.046,1.1685,1.9346,1.9346,0,0,1-.529,1.1317c-.23929.2899-.6027.4003-.8695.6579a2.07372,2.07372,0,0,0-.5935.7867,3.44875,3.44875,0,0,0-.0276.4416c-.0598.3266-.1426.6349-.1886.9661a9.64649,9.64649,0,0,0-.0598,1.21c0,.207-.0138.4186-.0046.6256.0092.1979.0828.3818.0966.5797.0092.138-.0184.276,0,.414.0276.1564.0874.3174.1242.4692.092.3681.161.727.23,1.095a8.74033,8.74033,0,0,0,.3036,1.0075,10.815,10.815,0,0,1,.3313,1.3847c.069.3496.0644.7131.115,1.0673.0414.2852.1058.5751.11961.8603.01379.4325-.092.8649-.09661,1.3019a9.39943,9.39943,0,0,0,.46,2.1806c.05061.1979.1012.4003.1565.5981a26.5283,26.5283,0,0,1,23.674-38.4921c.5796,0,1.15011.0184,1.7205.0552A26.27588,26.27588,0,0,1,265.26689,29.4047Z" transform="translate(-227.11519 -17.33977)" fill-rule="evenodd" fill="url(#Áåçûìÿííûé_ãðàäèåíò_833)"/>
        <path d="M255.32769,65.7082a41.80344,41.80344,0,0,0,5.75331,6.621c3.27709,2.9651,3.758,4.9573,3.758,4.9573a27.8807,27.8807,0,0,0,10.61319-8.7239C279.87179,62.4292,255.32769,65.7082,255.32769,65.7082Z" transform="translate(-227.11519 -17.33977)" fill-rule="evenodd" fill="url(#Áåçûìÿííûé_ãðàäèåíò_99)" style="mix-blend-mode: multiply"/>
        <path d="M237.90919,73.9585a26.61129,26.61129,0,0,1-6.6476-8.3591,26.24856,26.24856,0,0,1-2.2773-6.4728.03447.03447,0,0,1-.0046-.023,26.82266,26.82266,0,0,1-.5658-5.4746,26.5227,26.5227,0,0,1,26.5216-26.5217c.5797,0,1.1501.0184,1.7206.0552a26.42169,26.42169,0,0,1,5.2277.869,26.35418,26.35418,0,0,0-6.5264-1.2537c-.57039-.0368-1.1409-.0552-1.7205-.0552a26.51191,26.51191,0,0,0-26.5217,26.5217,26.82267,26.82267,0,0,0,.56581,5.4746.03407.03407,0,0,0,.00469.023,26.25019,26.25019,0,0,0,2.2772,6.4728,26.61946,26.61946,0,0,0,16.7469,13.6336A26.4565,26.4565,0,0,1,237.90919,73.9585Z" transform="translate(-227.11519 -17.33977)" fill-rule="evenodd" fill="url(#Áåçûìÿííûé_ãðàäèåíò_600)" style="mix-blend-mode: screen"/>
        <path d="M259.81,27.4493a26.42067,26.42067,0,0,0-4.45061-.6718c-.2968-.0224-.59339-.0336-.8902-.0448a2.77788,2.77788,0,0,1,1.366,1.6123c.2407,1.0917.5934,2.105.7949,3.1966a5.66345,5.66345,0,0,1-.3246,3.3813,6.44488,6.44488,0,0,1-1.1589,1.6459,4.50963,4.50963,0,0,0-.8901.9853c-.2463.4254-.48149.8397-.7614,1.2427a20.98839,20.98839,0,0,1-1.3268,1.8027,5.65221,5.65221,0,0,0-.5038.5766,6.23839,6.23839,0,0,1-.487.795,4.59209,4.59209,0,0,1-1.8698,1.0692,19.42514,19.42514,0,0,0-2.3736,1.1028c-1.1253.5934-2.049,1.3548-3.3645,1.3884-.4368.0112-.8902-.0504-1.3268-.0112a16.082,16.082,0,0,0-1.5844.4086c-.4702.0897-.94039.1848-1.4107.2632-.7726.1176-1.41069.3807-2.1553.5598a27.69814,27.69814,0,0,1-2.9559.3135,6.43877,6.43877,0,0,1-2.5136.0112c-1.3491-.3359-2.0713-.9741-1.7858-2.4073a2.89624,2.89624,0,0,0-.3583-2.3792,26.00147,26.00147,0,0,0-2.1217,7.4065,6.95269,6.95269,0,0,0,1.9314.4646c1.965.2016,4.0811-.6774,5.8781-1.3491a12.25611,12.25611,0,0,1,2.844-.9629,20.83775,20.83775,0,0,0,3.0005-.2408,38.00607,38.00607,0,0,0,10.3288-4.0363c1.3267-.7838,1.9145-1.9034,2.8383-3.0398a21.04638,21.04638,0,0,1,2.6927-2.6424,8.7762,8.7762,0,0,0,2.3568-2.7543,16.06182,16.06182,0,0,0,1.3828-3.8292A5.09941,5.09941,0,0,0,259.81,27.4493Zm-.17921,3.6053a7.68876,7.68876,0,0,1-.18479.8957,3.16345,3.16345,0,0,1-1.32111,1.8194.669.669,0,0,1-.8958-.2407,1.7727,1.7727,0,0,1-.1287-.5655,5.52116,5.52116,0,0,1-.10639-1.0973,24.99341,24.99341,0,0,0-.10641-2.6702c.0952.5094-.0223-.7559.7726-1.1029a1.213,1.213,0,0,1,1.226.2743,3.322,3.322,0,0,1,.5766,1.4556A2.64919,2.64919,0,0,1,259.63079,31.0546Z" transform="translate(-227.11519 -17.33977)" fill-rule="evenodd" opacity="0.4" fill="url(#Áåçûìÿííûé_ãðàäèåíò_9)" style="mix-blend-mode: multiply"/>
        <path d="M255.79039,73.3937c-.0783.0113-.1511.0281-.2239.0336l.5262.0504C256.02559,73.461,255.91349,73.4218,255.79039,73.3937Zm0,0c-.0783.0113-.1511.0281-.2239.0336l.5262.0504C256.02559,73.461,255.91349,73.4218,255.79039,73.3937Zm23.5908-26.541c-.0111.6941-.2071,1.3827-.2239,2.0825a9.84519,9.84519,0,0,1-.41429,2.5472c-.16791.6158-.48141,1.0693-.68861,1.6626a11.80016,11.80016,0,0,1-.9181,1.8923,14.34542,14.34542,0,0,0-1.6738,3.9299,11.7298,11.7298,0,0,1-.9629,3.5381c-.6102,1.1307-1.5339,2.0712-2.1889,3.1685-.3079.5263-.52069.4983-.9853.8285-.5206.3696-.9965.9517-1.5003,1.3604a11.7181,11.7181,0,0,1-3.3925,1.9594,12.06528,12.06528,0,0,1-2.4968.6942c-.571.0896-1.1309,0-1.6963.0952a17.56473,17.56473,0,0,0-2.6087.6941c-1.4164.4591-2.8607.7222-4.2714,1.1589-.98539.3022-1.9483.4814-2.9503.6941-.6102.1287-1.1028.4591-1.7354.3303-.6383-.1343-1.2204-.347-1.8475-.543a7.28384,7.28384,0,0,0-2.32319-.2631,19.93592,19.93592,0,0,1-3.61091-.0448c-1.2763-.2463-2.5472-.5878-3.8236-.851a9.11081,9.11081,0,0,1-2.0657-.8117,16.45219,16.45219,0,0,0-2.0601-.6158c-.7278-.2295-1.4276-.571-2.1721-.7557a26.01348,26.01348,0,0,0,3.84041,3.9691,26.3509,26.3509,0,0,0,13.54759,5.9677c.67741.0839,1.366.1511,2.0602.1847h.0055c1.5003-.3415,2.9671-.7837,4.4786-1.2484,2.5136-.7837,4.6857-2.3008,7.1993-3.0398a16.44544,16.44544,0,0,0,2.6479-1.0133c.64391-.3191,1.3268-.403,1.9762-.6829a10.861,10.861,0,0,0,5.1336-5.4807,8.62947,8.62947,0,0,1,1.769-2.9055,11.41756,11.41756,0,0,0,1.0637-.9404c.34141-.3863.571-.8678.8733-1.2876.5319-.7502,1.0468-1.506,1.5787-2.2617a2.10353,2.10353,0,0,0,.1792-.2744,26.60342,26.60342,0,0,0,.2574-13.7379Zm-24.3297,26.7314a1.82152,1.82152,0,0,1,.3526-.2184.78208.78208,0,0,1,.3863.028,1.06,1.06,0,0,1,.57661.0281c.10639.0503.30789.1455.35269.2687.0504.1175-.0168.1903-.0951.2686a.496.496,0,0,1-.3191.1288,3.0824,3.0824,0,0,1-.879.0784c-.1791-.0168-.4478-.028-.5598-.1959C254.76029,73.808,254.91709,73.6736,255.05149,73.5841Zm1.741,3.4597a2.92131,2.92131,0,0,1-.53749.5766,4.95437,4.95437,0,0,1-.64371.3751,7.29218,7.29218,0,0,1-1.69629.7837,3.96955,3.96955,0,0,1-.73341.0672c-.3022.028-.599.0336-.9012.0392-.35839.0056-.7055.0783-1.0637.1008-.3583.0168-.711.028-1.0692.0503a4.00792,4.00792,0,0,1-1.67949-.2631,7.07722,7.07722,0,0,1-1.478-.7222,6.37852,6.37852,0,0,1-.86771-.7837,2.52446,2.52446,0,0,1-.6102-.823.6169.6169,0,0,1-.0784-.3694c.0112-.0616.0392-.112.0392-.1288a1.38956,1.38956,0,0,1,.2967-.1903,2.07049,2.07049,0,0,1,.6047-.1455,7.146,7.146,0,0,1,1.5059.0559,3.46192,3.46192,0,0,0,.8341-.0056,9.78164,9.78164,0,0,0,1.1308-.2743,17.70269,17.70269,0,0,1,2.6983-.5318,10.22768,10.22768,0,0,1,2.8047-.0448,2.81051,2.81051,0,0,1,1.0693.3583,1.69959,1.69959,0,0,1,.5262.6326A1.15772,1.15772,0,0,1,256.79249,77.0438Zm7.0257-2.3009a2.90686,2.90686,0,0,1-.599.4422c-.2799.196-.5766.3527-.8677.5207a7.68976,7.68976,0,0,1-.739.3807c-.2519.1176-.5094.2351-.7613.3639a6.70372,6.70372,0,0,1-.86219.3358,1.34075,1.34075,0,0,1-.67171.1344,1.02675,1.02675,0,0,1-.5262-.2519.43982.43982,0,0,1-.1008-.5375,2.41085,2.41085,0,0,1,.0056-.6661,3.60113,3.60113,0,0,1,.23511-.3919,4.53719,4.53719,0,0,1,.92369-1.0692,2.70687,2.70687,0,0,1,1.0189-.6662,7.7862,7.7862,0,0,1,1.4779-.2576c.5262-.0616,1.4163-.1008,1.65151.5039A1.08717,1.08717,0,0,1,263.81819,74.7429Zm-7.7255-1.2652c-.0671-.0167-.1792-.0559-.3023-.084-.0783.0113-.1511.0281-.2239.0336Z" transform="translate(-227.11519 -17.33977)" fill-rule="evenodd" opacity="0.4" fill="url(#Áåçûìÿííûé_ãðàäèåíò_9-2)" style="mix-blend-mode: multiply"/>
        <path d="M277.26519,41.1873v.1064a5.58615,5.58615,0,0,1-.5935,1.9033,14.1705,14.1705,0,0,1-.7333,1.5284,18.5335,18.5335,0,0,0-1.0246,2.5639,20.56321,20.56321,0,0,1-1.6346,4.1875c-.75019,1.1588-.9237,2.5808-1.5339,3.818a11.42357,11.42357,0,0,1-2.8719,3.3813c-.5039.4534-.9237.9965-1.3772,1.4891a10.92228,10.92228,0,0,1-1.4331,1.6067c-1.2483.9069-2.6143,1.6906-3.8348,2.648a20.96591,20.96591,0,0,1-2.0601,1.8081c-.80619.4815-1.6795.8174-2.48,1.3045a15.6537,15.6537,0,0,1-2.2169,1.2372,7.10486,7.10486,0,0,1-2.55829.2967,10.98954,10.98954,0,0,0-3.02871.6438,3.20867,3.20867,0,0,1-2.2729.2799,12.676,12.676,0,0,0-1.5898-.6606,24.48175,24.48175,0,0,0-4.1539-.0336,19.67041,19.67041,0,0,1-3.2246-.4759c-1.0077-.1959-1.8306-.9013-2.8047-1.1868-1.2036-.3527-2.6088-.0504-3.7731-.5094a8.7079,8.7079,0,0,1-1.34929-.8286l-.26861-.1679c-.16239-.2912-.3192-.5878-.4759-.8846.28551.1176.571.2464.8622.3863,1.5226.7278,3.4204.6159,5.0607.9014,1.8474.3246,3.6948.8061,5.559,1.0188a10.23043,10.23043,0,0,0,2.2673-.0056c1.0524-.1175,2.1441-.1007,3.1798-.2799,1.8026-.3191,3.56051-1.17,5.4302-.9293a8.12987,8.12987,0,0,0,1.086.224c.5207-.0169.879-.4703,1.2988-.7334.739-.4647,1.5172-.3751,2.16651-.9853a8.58037,8.58037,0,0,1,2.12179-1.3772,21.76541,21.76541,0,0,0,5.2567-4.2938,19.931,19.931,0,0,0,3.538-4.389c.8958-1.629.7167-3.5661,1.3884-5.2567a14.43734,14.43734,0,0,1,1.685-3.4093c.3808-.5094.8454-.9461,1.2485-1.4331a10.84447,10.84447,0,0,0,1.0244-1.6683,20.15323,20.15323,0,0,0,1.1141-1.937,4.45688,4.45688,0,0,0,.2407-1.9314c-.0112-.7557,0-1.5227,0-2.2785A26.01872,26.01872,0,0,1,277.26519,41.1873Z" transform="translate(-227.11519 -17.33977)" fill-rule="evenodd" opacity="0.4" fill="url(#Áåçûìÿííûé_ãðàäèåíò_9-3)" style="mix-blend-mode: multiply"/>
        <path d="M273.05519,35.1748c-.2799-.2967-.5598-.5878-.8509-.8677a26.574,26.574,0,0,0-6.9361-4.904c-.06719-.0336-.1344-.0617-.2016-.0952-.3863-.1847-.7725-.3583-1.17-.5263-.5318-.2238-1.0693-.431-1.6179-.6157a4.18183,4.18183,0,0,0,.44231.2351,2.11238,2.11238,0,0,1,.82859.5766,1.3804,1.3804,0,0,1,.34141.8789,7.49987,7.49987,0,0,0,.12309,1.0525c.0561.3191.2128.6214.28.9405a3.86172,3.86172,0,0,0,.1231.5486,13.50078,13.50078,0,0,1,.3807,1.338,3.92249,3.92249,0,0,1-.5598,2.2393c-.45909,1.1812-.7502,2.3792-1.0917,3.5996a5.8172,5.8172,0,0,1-1.5226,2.6087c-.7111.6887-1.7635.8454-2.4017,1.59a6.312,6.312,0,0,1-2.0377,1.6458,20.42782,20.42782,0,0,1-2.844,1.0692c-.6941.2072-1.4218.224-2.1216.4088a16.675,16.675,0,0,0-2.4801,1.0076c-.86769.3751-1.6794.8565-2.5528,1.2317-.87889.3694-1.6962.8733-2.5695,1.2316-.4255.1735-.8733.2574-1.30439.4086a13.41487,13.41487,0,0,1-2.71511.9965,8.70273,8.70273,0,0,1-.99089.1176,2.16016,2.16016,0,0,0-.75021.1287c-.8285.3247-1.3379,1.2596-2.2896,1.2652a22.44011,22.44011,0,0,0-2.60319.0671,11.76992,11.76992,0,0,1-1.25961.028,1.1192,1.1192,0,0,1-.4087-.0223,4.59581,4.59581,0,0,1-.4366-.2687,7.64052,7.64052,0,0,1-.8957-.6103c-.5486-.4254-1.27639-.1903-1.909-.3191a2.38074,2.38074,0,0,1-.6382-.1119,11.19387,11.19387,0,0,1-1.2036-.9853c-.0672.7166-.0952,1.4499-.0952,2.1833a26.11071,26.11071,0,0,0,.2687,3.762c.0784.5766.1791,1.1477.2968,1.7131a.0334.0334,0,0,0,.0056.0223,23.779,23.779,0,0,0,.6213,2.3737,25.45278,25.45278,0,0,0,1.1868,3.135h.0057a7.23054,7.23054,0,0,0,2.1944.1064,17.12431,17.12431,0,0,1,3.1182-.2743,23.69246,23.69246,0,0,1,2.8663.543c1.0804.1791,2.2057.3247,3.303.3975q1.503.09225,2.995.2574c.7502.0896,1.5003.2352,2.2505.2856a33.23136,33.23136,0,0,0,5.7661-.5766,27.52182,27.52182,0,0,0,2.8495-.5431,5.08137,5.08137,0,0,0,1.6459-.5878,15.516,15.516,0,0,0,1.6962-1.5731c.66061-.5654,1.3492-1.114,2.0378-1.6402.58781-.4479,1.142-.935,1.75781-1.3324.47019-.3079.94059-.599,1.38279-.9461a16.65087,16.65087,0,0,0,2.2728-2.3009,10.80237,10.80237,0,0,0,1.81941-4.2267,14.337,14.337,0,0,1,1.34369-3.8459,6.99878,6.99878,0,0,0,.7949-1.9146,6.65006,6.65006,0,0,1,.3358-1.2708c.3024-.6382.8958-1.0972,1.25961-1.7018a9.33909,9.33909,0,0,0,.80619-1.4444,15.208,15.208,0,0,0,.8566-3.1462,14.6846,14.6846,0,0,1,.63821-2.3344c.03909-.1287.07829-.2576.11189-.3919C273.42469,35.5835,273.24,35.3764,273.05519,35.1748Zm-34.5129,18.1214a4.65713,4.65713,0,0,1,1.198-.5711.08864.08864,0,0,1-.0336.0169l-.6493.2799c.7165-.2407,2.0097.4871,1.3827,1.3099a1.66116,1.66116,0,0,1-.9517.4032.57751.57751,0,0,1-.6381-.2911,2.31911,2.31911,0,0,1-.2912-.8342A.59908.59908,0,0,1,238.54229,53.2962Zm-7.899,7.1433a2.8937,2.8937,0,0,1-1.7634-1.1477,3.16088,3.16088,0,0,1-.6607-1.3547,3.09639,3.09639,0,0,1-.1343-1.2316,4.82272,4.82272,0,0,1,.3695-1.0188c.17361-.3527.431-.7166.4535-.8342.7725-.0672,1.4946-.0951,2.2672-.1008.8621-.0056,1.7243.1064,2.592.112a5.11385,5.11385,0,0,0,1.17-.0616c.3751-.0727.73891-.1735,1.1196-.2351a2.80193,2.80193,0,0,1,1.8978.14,2.43584,2.43584,0,0,1,.9069,1.2428,1.63693,1.63693,0,0,1,.196.7613,7.84489,7.84489,0,0,1-.0616,1.086c-.01679.1344-.0336.2743-.056.4087-.543,1.1869-2.03779,1.5787-3.15179,1.993A8.59093,8.59093,0,0,1,230.64329,60.4395Zm11.9241,2.5416c-.3471.8733-1.8082,1.1868-2.6479,1.2204a2.41681,2.41681,0,0,1-1.2764-.2855,1.713,1.713,0,0,1-.5318-.5655.60685.60685,0,0,0-.739-.319,5.94428,5.94428,0,0,1,.4423-1.3828c.19041-.2127.3918-.4142.599-.6046a6.11863,6.11863,0,0,1,1.2987-.9013,2.494,2.494,0,0,1,2.20571.2295,1.49371,1.49371,0,0,1,.94609,1.0637A2.479,2.479,0,0,1,242.56739,62.9811Zm9.8193-.1679c-.26869.6437-.6438.7893-1.2372,1.0916a5.44554,5.44554,0,0,1-2.3233.6214,3.04821,3.04821,0,0,1-1.142-.3303A2.049,2.049,0,0,1,246.99,63.86c-.52621-.4814-.61021-1.1868-.28551-1.0412a4.20686,4.20686,0,0,1-.3807-1.338.50474.50474,0,0,0,.1736-.2855,3.37475,3.37475,0,0,1,1.3155-1.254,3.53606,3.53606,0,0,1,3.0679-.1792,2.90364,2.90364,0,0,1,1.03.7278,3.34209,3.34209,0,0,1,.4815.4926A2.33545,2.33545,0,0,1,252.38669,62.8132Zm3.0174-.1008c-.15109.1231-.4423.3638-.63809.3246-.16241-.0336-.47031-.3638-.41991-.5373l-.1064-.1064c.2351-.3639.4702-.7334.6998-1.1084.3583.1567.6773.1343.8957.5261C256.03669,62.175,255.67289,62.4941,255.40409,62.7124Zm7.5072-17.6064a2.89237,2.89237,0,0,1-1.1476.9629c-.5766.2408-1.3492.4198-1.3772-.4479a2.54248,2.54248,0,0,1,.2912-1.3491,2.27908,2.27908,0,0,1,1.2819-1.1644,3.40054,3.40054,0,0,1,.6606.1455,1.0894,1.0894,0,0,1,.7502.8174A1.47394,1.47394,0,0,1,262.91129,45.106Zm7.0034-3.7731a21.88576,21.88576,0,0,1-1.0413,2.5471,14.44986,14.44986,0,0,0-.76139,3.1406,1.97956,1.97956,0,0,1-1.01321,1.5059,2.0826,2.0826,0,0,1-.795.0784c-.2575,0-.7334.0951-.7166.3191a12.1309,12.1309,0,0,1-.5094-1.4611c-.1064-.5262-.1511-1.0917-.2351-1.6179-.0896-.5542-.1288-1.1085-.1848-1.6683-.0447-.5206-.1511-1.0692-.1455-1.5954a5.52585,5.52585,0,0,1,2.6088-4.697,2.49642,2.49642,0,0,1,1.5395-.2631,1.41506,1.41506,0,0,1,1.2876.879A4.20859,4.20859,0,0,1,269.91469,41.3329Z" transform="translate(-227.11519 -17.33977)" fill-rule="evenodd" opacity="0.4" fill="url(#Áåçûìÿííûé_ãðàäèåíò_9-4)" style="mix-blend-mode: multiply"/>
        <path d="M262.19469,42.9843c-.0839.0448-.1623.0839-.2351.1232a1.67466,1.67466,0,0,0-.403-.0168Z" transform="translate(-227.11519 -17.33977)" fill-rule="evenodd" opacity="0.4" fill="url(#Áåçûìÿííûé_ãðàäèåíò_559)" style="mix-blend-mode: multiply"/>
        <path d="M228.90789,54.8525c-.0393.0056-.0841.0056-.1288.0112C228.88539,54.7965,228.92459,54.7965,228.90789,54.8525Z" transform="translate(-227.11519 -17.33977)" fill-rule="evenodd" opacity="0.4" fill="url(#Áåçûìÿííûé_ãðàäèåíò_559-2)" style="mix-blend-mode: multiply"/>
        <path d="M258.72169,27.2121l4.6558-1.8342a30.68043,30.68043,0,0,1,12.0747,9.1811l.2912,4.0254A56.03275,56.03275,0,0,1,258.72169,27.2121Z" transform="translate(-227.11519 -17.33977)" fill-rule="evenodd" fill="url(#Áåçûìÿííûé_ãðàäèåíò_18)"/>
        <path d="M275.64229,68.1662s-3.9015,4.2327-6.8504,5.1769l-2.42089.7386s-11.04331-3.9732-11.64851-10.8853c-.5086-5.8071,9.42351-14.7197,12.1106-15.7804a12.00344,12.00344,0,0,1,5.8345-.4599Z" transform="translate(-227.11519 -17.33977)" fill-rule="evenodd" fill="url(#Áåçûìÿííûé_ãðàäèåíò_57)"/>
        <path d="M272.66759,46.9561c-2.3293-.7396-12.3957,3.8973-15.0985,14.2982-.5484,2.1106,4.5576,10.1283,10.65691,12.089,2.02409.6507,11.30559-7.4577,11.69339-12.9519C280.307,54.8973,276.127,48.0546,272.66759,46.9561Z" transform="translate(-227.11519 -17.33977)" fill-rule="evenodd" fill="url(#Áåçûìÿííûé_ãðàäèåíò_27)"/>
        <path d="M258.21829,62.4711c1.4365-11.7787,12.14671-15.6138,14.476-14.8742,1.6825.5342,4.1564,3.0047,5.5714,5.4402-1.4609-3.0073-3.6442-5.4606-5.5981-6.081-2.3293-.7396-12.3957,3.8972-15.0984,14.2982-.1907.7334.30281,2.1807,1.2823,3.8387A5.243,5.243,0,0,1,258.21829,62.4711Z" transform="translate(-227.11519 -17.33977)" fill-rule="evenodd" fill="url(#Áåçûìÿííûé_ãðàäèåíò_87)"/>
        <path d="M238.52549,75.0912a8.30867,8.30867,0,0,0,4.1506.4025s.6721-5.6776-1.46709-9.3092c-2.13931-3.6315-5.765,1.8562-5.765,1.8562l-.82931,3.4753A19.80712,19.80712,0,0,0,238.52549,75.0912Z" transform="translate(-227.11519 -17.33977)" fill-rule="evenodd" fill="url(#Áåçûìÿííûé_ãðàäèåíò_111)" style="mix-blend-mode: multiply"/>
        <path d="M240.60679,74.1743l1.539-.4119a12.86089,12.86089,0,0,0-.54679-6.6931c-1.46311-4.028-6.82511-7.0387-7.62071-7.1034-.7955-.0647-1.5806,1.7461-1.5806,1.7461Z" transform="translate(-227.11519 -17.33977)" fill-rule="evenodd" fill="url(#Áåçûìÿííûé_ãðàäèåíò_57-2)"/>
        <path d="M264.839,77.2865l-2.55621,3.3251a15.10755,15.10755,0,0,1-8.8926,1.1068l-3.2316-2.1778Z" transform="translate(-227.11519 -17.33977)" fill-rule="evenodd" fill="url(#Áåçûìÿííûé_ãðàäèåíò_36)"/>
        <path d="M231.24689,64.2036c.2673-1.2219,1.3439-3.2524,2.3089-3.4506.9651-.1981,5.5248,4.1312,6.5801,6.9167a14.16273,14.16273,0,0,1,.4709,6.5046c-.052.6299-5.2254-1.1256-7.8362-3.2709S231.24689,64.2036,231.24689,64.2036Z" transform="translate(-227.11519 -17.33977)" fill-rule="evenodd" fill="url(#Áåçûìÿííûé_ãðàäèåíò_27-2)"/>
        <path d="M240.13589,67.6697c-1.0553-2.7855-5.615-7.1148-6.5801-6.9167a2.16449,2.16449,0,0,0-1.1122.8955,1.45753,1.45753,0,0,1,.6516-.3801c.9651-.1982,5.6099,3.2475,6.6463,6.0401a12.49823,12.49823,0,0,1,.4481,6.9862c.2511.0165.4086-.0169.4172-.1204A14.16271,14.16271,0,0,0,240.13589,67.6697Z" transform="translate(-227.11519 -17.33977)" fill-rule="evenodd" fill="url(#Áåçûìÿííûé_ãðàäèåíò_87-2)"/>
        <path d="M254.53779,55.8397c-1.1455-.5357.1535-5.5608,1.2811-6.654,1.1275-1.0933,4.059,1.4616,4.4474,3.5508C260.65459,54.8256,257.16169,57.0667,254.53779,55.8397Z" transform="translate(-227.11519 -17.33977)" fill-rule="evenodd" fill="url(#Áåçûìÿííûé_ãðàäèåíò_67-2)"/>
        <path d="M255.684,55.4566c-.91741-.4445.123-4.6136,1.02609-5.5206.9031-.9071,3.2511,1.2126,3.562,2.946C260.58319,54.6153,257.78559,56.4745,255.684,55.4566Z" transform="translate(-227.11519 -17.33977)" fill-rule="evenodd" fill="url(#Áåçûìÿííûé_ãðàäèåíò_41)"/>
        <path d="M263.37749,25.3779s.23,2.8257,3.4122,6.2907c3.1821,3.465,8.6625,2.8904,8.6625,2.8904l.2912,4.0254s-11.654-5.151-17.0217-11.3723Z" transform="translate(-227.11519 -17.33977)" fill-rule="evenodd" fill="url(#Áåçûìÿííûé_ãðàäèåíò_67-3)"/>
        <g>
          <path d="M272.51639,50.4248c-.1322.1098-.4207.3162-.192.4762.0618.0432.1158.0205.1814.0393.0511.0146.0637.0546.123.0319.1861-.0709.1116-.5986-.0983-.4925Z" transform="translate(-227.11519 -17.33977)" fill="#0edbff" fill-rule="evenodd"/>
          <path d="M283.50719,45.6916c-.1321.1098-.4206.3162-.1919.4761.06171.0432.11571.0205.1813.0393.0512.0147.0637.0546.1231.032.1861-.071.1115-.5987-.0983-.4926Z" transform="translate(-227.11519 -17.33977)" fill="#0edbff" fill-rule="evenodd"/>
          <path d="M278.68029,65.2109c-.1321.1099-.4206.3163-.1919.4762.0618.0432.1157.0205.1813.0393.0511.0147.0637.0546.1231.032.1861-.0709.1116-.5987-.0983-.4926Z" transform="translate(-227.11519 -17.33977)" fill="#0edbff" fill-rule="evenodd"/>
          <path d="M273.47719,52.3441a.556.556,0,0,1,.2605-.0737c.02031.1145.1251.3383-.0383.4274-.1368.0746-.0955-.1702-.16039-.2269Z" transform="translate(-227.11519 -17.33977)" fill="#0edbff" fill-rule="evenodd"/>
          <path d="M256.02989,53.5203q.26235.10335.5202.2172c.0556-.0491.1395-.0398.205-.0833a.567.567,0,0,0,.1925-.2714.44682.44682,0,0,0-.09459-.3824.82228.82228,0,0,0-.15831-.2381.36558.36558,0,0,0-.3231.0038.947.947,0,0,0-.395.6037.41725.41725,0,0,0,.182.3115Z" transform="translate(-227.11519 -17.33977)" fill="#0edbff" fill-rule="evenodd"/>
          <path d="M231.30429,66.7408q.26235.10335.5202.2172c.0556-.0491.13951-.0398.2051-.0832a.56859.56859,0,0,0,.1925-.2714.447.447,0,0,0-.0946-.3825.82377.82377,0,0,0-.1583-.238.36525.36525,0,0,0-.3231.0037.94684.94684,0,0,0-.395.6038.4171.4171,0,0,0,.182.3115Z" transform="translate(-227.11519 -17.33977)" fill="#0edbff" fill-rule="evenodd"/>
          <path d="M279.50439,73.6392q.26235.10335.5202.2172c.0555-.0491.1395-.0398.2051-.0832a.56774.56774,0,0,0,.1924-.2714.44728.44728,0,0,0-.0945-.3825.82444.82444,0,0,0-.1583-.238.36547.36547,0,0,0-.3232.0037.94621.94621,0,0,0-.3949.6038.4171.4171,0,0,0,.182.3115Z" transform="translate(-227.11519 -17.33977)" fill="#0edbff" fill-rule="evenodd"/>
          <path d="M276.038,68.8513q.26234.10335.52019.2172c.0556-.0491.1396-.0398.2051-.0833a.56679.56679,0,0,0,.1924-.2714.44711.44711,0,0,0-.0945-.3824.82631.82631,0,0,0-.1583-.2381.36546.36546,0,0,0-.3232.0037.94791.94791,0,0,0-.3949.6038.41675.41675,0,0,0,.182.3115Z" transform="translate(-227.11519 -17.33977)" fill="#0edbff" fill-rule="evenodd"/>
          <path d="M227.92909,35.4374q.6645.2619,1.3173.5501c.1408-.1243.3535-.1007.5194-.2109a1.43685,1.43685,0,0,0,.4875-.6872,1.13215,1.13215,0,0,0-.2395-.9686,2.08632,2.08632,0,0,0-.401-.6029.92549.92549,0,0,0-.8183.0094,2.39892,2.39892,0,0,0-1.0002,1.5291,1.056,1.056,0,0,0,.4609.7889Z" transform="translate(-227.11519 -17.33977)" fill="#0edbff" fill-rule="evenodd"/>
          <path d="M257.15679,19.3517q.6645.2619,1.3174.5501c.14081-.1243.3534-.1008.5193-.2109a1.43574,1.43574,0,0,0,.4874-.6873,1.132,1.132,0,0,0-.2394-.9685,2.08807,2.08807,0,0,0-.4009-.6029.9257.9257,0,0,0-.8184.0094,2.39886,2.39886,0,0,0-1.00019,1.5291,1.05612,1.05612,0,0,0,.46089.7889Z" transform="translate(-227.11519 -17.33977)" fill="#0edbff" fill-rule="evenodd"/>
          <path d="M261.04139,57.9174a.63246.63246,0,0,0-.1829.1968c.07151.0898.1066.1746.2291.2099a.1364.1364,0,0,0,.1405-.0231c.051-.0499.0234-.105.0372-.154.0335-.119.0665-.15-.001-.2587-.0406-.0654-.0687-.092-.1398-.0917-.05.0002-.1584.0138-.18349.0695Z" transform="translate(-227.11519 -17.33977)" fill="#0edbff" fill-rule="evenodd"/>
          <path d="M261.43859,60.6907c-.013.0304-.1478.3727.0272.2738a.13987.13987,0,0,0-.00279-.2229l.00909-.0338Z" transform="translate(-227.11519 -17.33977)" fill="#0edbff" fill-rule="evenodd"/>
          <path d="M270.19439,65.7407a.98353.98353,0,0,0-.1851.3741.33452.33452,0,0,0,.2126.0695c.1025-.0043.1075-.0375.1104-.1351a.75253.75253,0,0,0,.016-.2176c-.0197-.0781-.0974-.1576-.18729-.108Z" transform="translate(-227.11519 -17.33977)" fill="#0edbff" fill-rule="evenodd"/>
          <path d="M262.81259,58.2523a.40191.40191,0,0,1,.126.2284c-.0934.0231-.1041-.0683-.1179-.141-.022-.1157.0319-.0801.086-.1728l.0307.0065Z" transform="translate(-227.11519 -17.33977)" fill="#0edbff" fill-rule="evenodd"/>
          <path d="M271.20739,50.7547a.63638.63638,0,0,0-.1823.1958c.0443.0548.023.1536.1257.1462.0723-.0053.1318-.0829.1667-.1427a.40377.40377,0,0,0,.0493-.2011c.0024-.0383.00221-.2019-.068-.0942Z" transform="translate(-227.11519 -17.33977)" fill="#0edbff" fill-rule="evenodd"/>
          <path d="M270.07209,31.2236a1.23833,1.23833,0,0,1,.2808-.0676c.0249.0002.0578.0182.085.0207.09.0081.0929-.0119.1368.0606a.31289.31289,0,0,1,.0572.2382c-.052.3293-.518-.1668-.3555-.288Z" transform="translate(-227.11519 -17.33977)" fill="#0edbff" fill-rule="evenodd"/>
          <path d="M234.455,31.811c-.14751.0454-.37221.0616-.39031.2322-.01569.1465.226.2987.348.3385.2177.0711.5731.1059.6805-.141a.70347.70347,0,0,0-.07319-.5506c-.18181-.26-.55461-.1541-.838-.0434Z" transform="translate(-227.11519 -17.33977)" fill="#0edbff" fill-rule="evenodd"/>
          <path d="M272.23839,66.1034c-.06639-.5077-.1586-1.0091.2931-1.2758a.96747.96747,0,0,1,.9282-.0238,1.9081,1.9081,0,0,1,.4197.5305c.15461.2569.1142.2576.0333.4921-.1858.5388-.3126.8938-.8483.8948-.708.0013-.817-.5492-.826-1.2332Z" transform="translate(-227.11519 -17.33977)" fill="#0edbff" fill-rule="evenodd"/>
          <path d="M272.55289,51.8293a1.06619,1.06619,0,0,0,.50811-.3087c-.14171-.088-.45211-.2706-.50811-.0042Z" transform="translate(-227.11519 -17.33977)" fill="#0edbff" fill-rule="evenodd"/>
          <path d="M232.42979,64.7523a1.06539,1.06539,0,0,0,.508-.3087c-.1417-.088-.4521-.2706-.508-.0042Z" transform="translate(-227.11519 -17.33977)" fill="#0edbff" fill-rule="evenodd"/>
          <path d="M232.42979,69.0146a1.06539,1.06539,0,0,0,.508-.3087c-.1417-.088-.4521-.2706-.508-.0042Z" transform="translate(-227.11519 -17.33977)" fill="#0edbff" fill-rule="evenodd"/>
          <path d="M262.42909,53.761c.1963-.2412.4798-.6814.8358-.44a.43811.43811,0,0,1,.068.6591,1.48745,1.48745,0,0,1-.5582.2325.26425.26425,0,0,1-.3456-.2951Z" transform="translate(-227.11519 -17.33977)" fill="#0edbff" fill-rule="evenodd"/>
          <path d="M269.08509,64.7351c.1963-.2413.4798-.6814.8358-.4401a.43811.43811,0,0,1,.068.6591,1.48537,1.48537,0,0,1-.5582.2326.26433.26433,0,0,1-.3456-.2952Z" transform="translate(-227.11519 -17.33977)" fill="#0edbff" fill-rule="evenodd"/>
          <path d="M268.08279,28.3666c.3067.0517.8294.0811.7951.5098-.02.2491-.3136.4836-.5398.3844a1.48835,1.48835,0,0,1-.4777-.3708.26436.26436,0,0,1,.0863-.4463Z" transform="translate(-227.11519 -17.33977)" fill="#0edbff" fill-rule="evenodd"/>
          <path d="M266.99279,67.5794c.1964-.2413.4799-.6814.8358-.4401a.43813.43813,0,0,1,.0681.6591,1.48767,1.48767,0,0,1-.5582.2326.2644.2644,0,0,1-.3457-.2952Z" transform="translate(-227.11519 -17.33977)" fill="#0edbff" fill-rule="evenodd"/>
          <path d="M257.91979,53.3967c-.2513.1595-.6741.3573-.71679.7021a.37866.37866,0,0,0,.258.4208.69351.69351,0,0,0,.56079.0025,1.26348,1.26348,0,0,0,.5996-.5528.50369.50369,0,0,0-.0206-.4732.479.479,0,0,0-.2344-.2419c-.3212-.1115-.5141.2038-.7518.346Z" transform="translate(-227.11519 -17.33977)" fill="#0edbff" fill-rule="evenodd"/>
          <path d="M258.73379,52.481a.83618.83618,0,0,1,.347.2289c-.1364.0465-.2831.1546-.4232.1046a.31454.31454,0,0,1-.1742-.4104c.0223-.0946.19261-.2608.2898-.2192.0492.0211.0586.088.0747.1308.0339.09.036.0711-.0123.1653Z" transform="translate(-227.11519 -17.33977)" fill="#0edbff" fill-rule="evenodd"/>
          <path d="M265.66979,50.9674a6.03106,6.03106,0,0,0-1.6421,2.1124c-.1795.4245.1394.4456.5248.3704.7469-.1458,1.4983-.3523,2.2362-.5416a2.77492,2.77492,0,0,0,1.36731-.7137,1.60065,1.60065,0,0,0,.27789-1.1328c-.0718-.5005-.4277-.6955-.8821-.8213-1.0384-.2873-2.5129.8337-2.8983,1.7903Z" transform="translate(-227.11519 -17.33977)" fill="#0edbff" fill-rule="evenodd"/>
          <path d="M261.967,54.748a1.34512,1.34512,0,0,1,.60149.1564c-.0539.0637-.0363.1501-.06449.2247a.64779.64779,0,0,1-.24611.2853.78333.78333,0,0,1-.6234.0736c-.5569-.2111.2972-.8718.4851-.6383Z" transform="translate(-227.11519 -17.33977)" fill="#0edbff" fill-rule="evenodd"/>
          <path d="M230.88719,76.0127a.6322.6322,0,0,0-.1829.1967c.0716.0898.10671.1746.2291.2099a.1364.1364,0,0,0,.1405-.0231c.05111-.0499.0234-.1049.0373-.154.0334-.119.0664-.15-.0011-.2587-.0406-.0653-.0687-.092-.1398-.0917-.05.0002-.15829.0138-.1835.0695Z" transform="translate(-227.11519 -17.33977)" fill="#0edbff" fill-rule="evenodd"/>
          <path d="M231.28449,78.7859c-.0131.0304-.1479.3727.0272.2738a.14.14,0,0,0-.0028-.223l.009-.0337Z" transform="translate(-227.11519 -17.33977)" fill="#0edbff" fill-rule="evenodd"/>
          <path d="M232.65839,76.3476a.40132.40132,0,0,1,.126.2283c-.09339.0232-.1041-.0683-.1178-.141-.022-.1157.0318-.08.0859-.1728l.0307.0065Z" transform="translate(-227.11519 -17.33977)" fill="#0edbff" fill-rule="evenodd"/>
          <path d="M231.81279,72.8432a1.34262,1.34262,0,0,1,.6015.1565c-.0539.0636-.0362.15-.0645.2246a.64834.64834,0,0,1-.246.2854.7838.7838,0,0,1-.6234.0735c-.557-.2111.2971-.8718.485-.6382Z" transform="translate(-227.11519 -17.33977)" fill="#0edbff" fill-rule="evenodd"/>
          <path d="M266.99209,28.8594a2.40728,2.40728,0,0,1,.5361.408,4.39067,4.39067,0,0,1,.4567.616c.0647.1152.2208.367-.0091.3988-.2495.0344-.6911-.294-.8721-.4218a3.223,3.223,0,0,1-.8345-.7341c-.1134-.1591-.2863-.435-.1713-.6265a.40447.40447,0,0,1,.41111-.185.63885.63885,0,0,1,.43569.1751c.0668.0537.3905.3825.2806.4712Z" transform="translate(-227.11519 -17.33977)" fill="#0edbff" fill-rule="evenodd"/>
          <path d="M269.40419,50.0095c-.0917.0663-.7948.4565-.4601.6254a1.04738,1.04738,0,0,0,.7163-.0131c.16261-.0691.3271-.176.2251-.3628-.2063-.3776-.7232-.1597-.9901.0048Z" transform="translate(-227.11519 -17.33977)" fill="#0edbff" fill-rule="evenodd"/>
          <path d="M274.46329,27.0018c-.23029.1664-1.9946,1.1457-1.1546,1.5696a2.62856,2.62856,0,0,0,1.7975-.0329c.4081-.1733.821-.4416.5649-.9105-.5176-.9477-1.815-.4009-2.4846.0122Z" transform="translate(-227.11519 -17.33977)" fill="#0edbff" fill-rule="evenodd"/>
          <path d="M232.68379,67.0638a1.69686,1.69686,0,0,0,.51721,1.1355.99089.99089,0,0,0,1.15669-.0471c.27031-.1595.5258-.3296.7901-.4924.1541-.0949.2893-.1187.296-.339a1.45407,1.45407,0,0,0-.3466-.7335,1.96091,1.96091,0,0,0-.7436-.5652c-.5537-.2067-1.6101-.0012-1.5973.7518Z" transform="translate(-227.11519 -17.33977)" fill="#0edbff" fill-rule="evenodd"/>
          <path d="M269.74179,67.8738a1.19139,1.19139,0,0,0,.363.797.69554.69554,0,0,0,.8119-.033c.1898-.112.3691-.2314.5545-.3457.1082-.0666.2031-.0833.20781-.2379a1.02072,1.02072,0,0,0-.24321-.5149,1.37639,1.37639,0,0,0-.522-.3967c-.3887-.1451-1.1301-.0008-1.1211.5277Z" transform="translate(-227.11519 -17.33977)" fill="#0edbff" fill-rule="evenodd"/>
        </g>
        <path d="M278.104,65.488a5.02041,5.02041,0,1,1-5.02041-5.0203A5.02048,5.02048,0,0,1,278.104,65.488Z" transform="translate(-227.11519 -17.33977)" fill-rule="evenodd" fill="url(#Áåçûìÿííûé_ãðàäèåíò_75)" style="mix-blend-mode: screen"/>
        <path d="M271.02509,51.8395a4.66115,4.66115,0,1,1-4.6612-4.6612A4.66121,4.66121,0,0,1,271.02509,51.8395Z" transform="translate(-227.11519 -17.33977)" fill-rule="evenodd" fill="url(#Áåçûìÿííûé_ãðàäèåíò_75-2)" style="mix-blend-mode: screen"/>
        <path d="M269.34279,31.1366c-.5899.8122-2.069.7435-3.3037-.1533-1.2346-.8968-1.7572-2.2822-1.1673-3.0943.5899-.8122,2.069-.7436,3.3037.1533C269.41009,28.9391,269.93269,30.3245,269.34279,31.1366Z" transform="translate(-227.11519 -17.33977)" fill-rule="evenodd" fill="url(#Áåçûìÿííûé_ãðàäèåíò_75-3)" style="mix-blend-mode: screen"/>
        <path d="M263.45589,25.8391s1.2172,5.1708,4.64111,7.12c4.33209,2.4661,7.35519,1.5999,7.35519,1.5999a15.63839,15.63839,0,0,1-7.4515-2.5778C265.01129,29.9425,263.45589,25.8391,263.45589,25.8391Z" transform="translate(-227.11519 -17.33977)" fill-rule="evenodd" fill="url(#Áåçûìÿííûé_ãðàäèåíò_93)"/>
        <path d="M255.32769,65.7082l2.2995-3.3798s2.9483,8.3872,10.59881,11.0149l-1.67591,1.0805S258.75109,72.2047,255.32769,65.7082Z" transform="translate(-227.11519 -17.33977)" fill-rule="evenodd" opacity="0.4" fill="url(#Áåçûìÿííûé_ãðàäèåíò_9-5)" style="mix-blend-mode: multiply"/>
        <path d="M259.68189,28.3742s11.0305,11.1036,18.96911,16.0382a18.009,18.009,0,0,0-2.90761-5.828S269.07879,36.3933,259.68189,28.3742Z" transform="translate(-227.11519 -17.33977)" fill-rule="evenodd" fill="url(#Áåçûìÿííûé_ãðàäèåíò_111-2)" style="mix-blend-mode: multiply"/>
        <ellipse cx="242.77622" cy="40.06645" rx="11.13373" ry="7.13832" transform="translate(-209.18317 122.68017) rotate(-33.33863)" fill="url(#Áåçûìÿííûé_ãðàäèåíò_136)" style="mix-blend-mode: screen"/>
      </g>
    </g>
  </g>
</svg>
