<svg xmlns="http://www.w3.org/2000/svg" xmlns:xlink="http://www.w3.org/1999/xlink" viewBox="0 0 52.52201 52.69589">
  <defs>
    <radialGradient id="Áåçûìÿííûé_ãðàäèåíò_331" data-name="Áåçûìÿííûé ãðàäèåíò 331" cx="43.40382" cy="41.15513" r="40.75576" gradientUnits="userSpaceOnUse">
      <stop offset="0.00559" stop-color="#0cc463"/>
      <stop offset="0.20582" stop-color="#0cc163"/>
      <stop offset="0.36132" stop-color="#0bb765"/>
      <stop offset="0.5018" stop-color="#09a767"/>
      <stop offset="0.63337" stop-color="#078f6b"/>
      <stop offset="0.75758" stop-color="#04726f"/>
      <stop offset="0.87151" stop-color="#004f74"/>
    </radialGradient>
    <linearGradient id="Áåçûìÿííûé_ãðàäèåíò_407" data-name="Áåçûìÿííûé ãðàäèåíò 407" x1="76.46658" y1="58.21229" x2="76.46658" y2="44.0039" gradientUnits="userSpaceOnUse">
      <stop offset="0" stop-color="#007c6f"/>
      <stop offset="0.66473" stop-color="#29d73b"/>
      <stop offset="0.98883" stop-color="#3bff24"/>
    </linearGradient>
    <radialGradient id="Áåçûìÿííûé_ãðàäèåíò_432" data-name="Áåçûìÿííûé ãðàäèåíò 432" cx="43.16161" cy="151.24629" r="5.47653" gradientTransform="matrix(1.6545, 0.2028, -0.1526, 1.2446, 9.4371, -129.0889)" gradientUnits="userSpaceOnUse">
      <stop offset="0" stop-color="lime"/>
      <stop offset="1"/>
    </radialGradient>
    <linearGradient id="Áåçûìÿííûé_ãðàäèåíò_373" data-name="Áåçûìÿííûé ãðàäèåíò 373" x1="33.7449" y1="46.06165" x2="70.2422" y2="46.06165" gradientUnits="userSpaceOnUse">
      <stop offset="0.01117" stop-color="#92ff2c"/>
      <stop offset="0.23245" stop-color="#8ffc2d"/>
      <stop offset="0.3947" stop-color="#86f332"/>
      <stop offset="0.53818" stop-color="#76e33a"/>
      <stop offset="0.67072" stop-color="#5fcd44"/>
      <stop offset="0.79576" stop-color="#42b152"/>
      <stop offset="0.91359" stop-color="#1f8e63"/>
      <stop offset="1" stop-color="#007072"/>
    </linearGradient>
    <radialGradient id="Áåçûìÿííûé_ãðàäèåíò_432-2" cx="47.29383" cy="192.01805" r="2.09817" gradientTransform="matrix(2.394, 1.3822, -0.7113, 1.232, 90.9768, -260.807)" xlink:href="#Áåçûìÿííûé_ãðàäèåíò_432"/>
    <radialGradient id="Áåçûìÿííûé_ãðàäèåíò_388" data-name="Áåçûìÿííûé ãðàäèåíò 388" cx="76.47464" cy="65.84313" r="3.64282" gradientUnits="userSpaceOnUse">
      <stop offset="0.01117" stop-color="#3bff24"/>
      <stop offset="0.53357" stop-color="#26d832"/>
      <stop offset="1" stop-color="#11b140"/>
    </radialGradient>
    <radialGradient id="Áåçûìÿííûé_ãðàäèåíò_432-3" cx="84.93103" cy="336.08912" r="3.75187" gradientTransform="matrix(0.2225, 1.652, -1.4099, 0.1899, 529.9975, -153.7185)" xlink:href="#Áåçûìÿííûé_ãðàäèåíò_432"/>
    <radialGradient id="Áåçûìÿííûé_ãðàäèåíò_197" data-name="Áåçûìÿííûé ãðàäèåíò 197" cx="40.57571" cy="35.75266" r="33.39515" gradientUnits="userSpaceOnUse">
      <stop offset="0" stop-color="#ffff4a"/>
      <stop offset="1"/>
    </radialGradient>
    <radialGradient id="Áåçûìÿííûé_ãðàäèåíò_398" data-name="Áåçûìÿííûé ãðàäèåíò 398" cx="69.32312" cy="37.27406" r="5.34625" gradientUnits="userSpaceOnUse">
      <stop offset="0.01676" stop-color="#b0ff24"/>
      <stop offset="0.28594" stop-color="#88f72b"/>
      <stop offset="0.88688" stop-color="#25e43d"/>
      <stop offset="1" stop-color="#11e040"/>
    </radialGradient>
    <radialGradient id="Áåçûìÿííûé_ãðàäèåíò_398-2" cx="59.57223" cy="41.0693" r="2.175" xlink:href="#Áåçûìÿííûé_ãðàäèåíò_398"/>
    <radialGradient id="Áåçûìÿííûé_ãðàäèåíò_398-3" cx="51.29056" cy="32.93488" r="3.2727" xlink:href="#Áåçûìÿííûé_ãðàäèåíò_398"/>
    <radialGradient id="Áåçûìÿííûé_ãðàäèåíò_365" data-name="Áåçûìÿííûé ãðàäèåíò 365" cx="67.30318" cy="37.91842" r="7.67121" gradientUnits="userSpaceOnUse">
      <stop offset="0.01117" stop-color="#00ff24"/>
      <stop offset="0.18587" stop-color="#28ff1e"/>
      <stop offset="0.5798" stop-color="#8dff10"/>
      <stop offset="1" stop-color="#ff0"/>
    </radialGradient>
    <radialGradient id="Áåçûìÿííûé_ãðàäèåíò_365-2" cx="75.01343" cy="51.25299" r="5.20835" xlink:href="#Áåçûìÿííûé_ãðàäèåíò_365"/>
    <radialGradient id="Áåçûìÿííûé_ãðàäèåíò_365-3" cx="79.45136" cy="42.55491" r="3.13423" xlink:href="#Áåçûìÿííûé_ãðàäèåíò_365"/>
    <radialGradient id="Áåçûìÿííûé_ãðàäèåíò_365-4" cx="56.15466" cy="76.2688" r="11.64466" xlink:href="#Áåçûìÿííûé_ãðàäèåíò_365"/>
    <radialGradient id="Áåçûìÿííûé_ãðàäèåíò_365-5" cx="77.03605" cy="69.18798" r="4.46549" xlink:href="#Áåçûìÿííûé_ãðàäèåíò_365"/>
    <radialGradient id="Áåçûìÿííûé_ãðàäèåíò_365-6" cx="48.14829" cy="33.18603" r="4.72681" xlink:href="#Áåçûìÿííûé_ãðàäèåíò_365"/>
    <radialGradient id="Áåçûìÿííûé_ãðàäèåíò_365-7" cx="57.00432" cy="39.56701" r="4.32433" xlink:href="#Áåçûìÿííûé_ãðàäèåíò_365"/>
    <radialGradient id="Áåçûìÿííûé_ãðàäèåíò_388-2" cx="56.32238" cy="68.09648" r="8.43151" xlink:href="#Áåçûìÿííûé_ãðàäèåíò_388"/>
    <radialGradient id="Áåçûìÿííûé_ãðàäèåíò_388-3" cx="78.98266" cy="42.09079" r="2.08853" xlink:href="#Áåçûìÿííûé_ãðàäèåíò_388"/>
    <radialGradient id="Áåçûìÿííûé_ãðàäèåíò_415" data-name="Áåçûìÿííûé ãðàäèåíò 415" cx="41.17939" cy="38.46722" r="26.46573" gradientUnits="userSpaceOnUse">
      <stop offset="0" stop-color="#97ff11"/>
      <stop offset="1"/>
    </radialGradient>
    <linearGradient id="Áåçûìÿííûé_ãðàäèåíò_419" data-name="Áåçûìÿííûé ãðàäèåíò 419" x1="63.07644" y1="28.20366" x2="70.60198" y2="35.33423" gradientUnits="userSpaceOnUse">
      <stop offset="0" stop-color="#ffffe8"/>
      <stop offset="0.20052" stop-color="#bba"/>
      <stop offset="0.41547" stop-color="#79796e"/>
      <stop offset="0.61083" stop-color="#45453f"/>
      <stop offset="0.77948" stop-color="#1f1f1d"/>
      <stop offset="0.91485" stop-color="#080808"/>
      <stop offset="1"/>
    </linearGradient>
    <linearGradient id="Áåçûìÿííûé_ãðàäèåíò_419-2" x1="44.88563" y1="28.7131" x2="47.17492" y2="30.88224" xlink:href="#Áåçûìÿííûé_ãðàäèåíò_419"/>
    <linearGradient id="Áåçûìÿííûé_ãðàäèåíò_419-3" x1="54.86781" y1="34.54641" x2="59.15256" y2="38.60627" xlink:href="#Áåçûìÿííûé_ãðàäèåíò_419"/>
    <linearGradient id="Áåçûìÿííûé_ãðàäèåíò_419-4" x1="74.80509" y1="44.4861" x2="80.9908" y2="50.34716" xlink:href="#Áåçûìÿííûé_ãðàäèåíò_419"/>
    <linearGradient id="Áåçûìÿííûé_ãðàäèåíò_419-5" x1="78.73781" y1="38.05517" x2="83.00236" y2="42.0959" xlink:href="#Áåçûìÿííûé_ãðàäèåíò_419"/>
    <linearGradient id="Áåçûìÿííûé_ãðàäèåíò_419-6" x1="75.87328" y1="64.74597" x2="79.91335" y2="68.574" xlink:href="#Áåçûìÿííûé_ãðàäèåíò_419"/>
    <linearGradient id="Áåçûìÿííûé_ãðàäèåíò_419-7" x1="48.47073" y1="64.54287" x2="62.97293" y2="78.28393" xlink:href="#Áåçûìÿííûé_ãðàäèåíò_419"/>
    <radialGradient id="Áåçûìÿííûé_ãðàäèåíò_398-4" cx="23.81137" cy="124.77082" r="3.94884" gradientTransform="translate(49.4034 -71.6514) rotate(14.16409)" xlink:href="#Áåçûìÿííûé_ãðàäèåíò_398"/>
    <radialGradient id="Áåçûìÿííûé_ãðàäèåíò_365-8" cx="19.9368" cy="131.17659" r="6.20176" gradientTransform="translate(49.4034 -71.6514) rotate(14.16409)" xlink:href="#Áåçûìÿííûé_ãðàäèåíò_365"/>
    <linearGradient id="Áåçûìÿííûé_ãðàäèåíò_419-8" x1="14.17888" y1="123.5262" x2="19.09692" y2="128.18612" gradientTransform="translate(49.4034 -71.6514) rotate(14.16409)" xlink:href="#Áåçûìÿííûé_ãðàäèåíò_419"/>
  </defs>
  <g style="isolation: isolate">
    <g id="Layer_1" data-name="Layer 1">
      <g>
        <path d="M84.4889,53.0232A25.34626,25.34626,0,0,1,59.1148,78.392c-.4498,0-.905-.0107-1.3495-.0375h-.0054c-.6641-.0321-1.3228-.0964-1.9708-.1767a25.20956,25.20956,0,0,1-12.9602-5.7089,25.85611,25.85611,0,0,1-5.8963-7.1228c-.1553-.2785-.3053-.5623-.4552-.8462,0-.0107-.0054-.016-.0108-.0267-.1553-.3053-.2999-.6105-.4391-.9212h-.0054a24.33061,24.33061,0,0,1-1.1353-2.999,22.80356,22.80356,0,0,1-.5945-2.2707.03254.03254,0,0,1-.0053-.0214c-.1125-.5409-.2089-1.0872-.2839-1.6388a24.98193,24.98193,0,0,1-.257-3.5989c0-.7015.0268-1.4031.091-2.0886.0322-.4391.0804-.8729.1393-1.3067a24.86906,24.86906,0,0,1,2.0297-7.0853A25.395,25.395,0,0,1,59.1148,27.6491c.2678,0,.5356.0054.798.0107.2838.0107.5677.0215.8515.0429a25.27466,25.27466,0,0,1,4.2576.6426c.8033.1928,1.5906.4178,2.3617.6855.5249.1768,1.039.3749,1.5478.5891.3802.1607.7497.3267,1.1192.5034.0643.0322.1286.059.1928.0911a25.42,25.42,0,0,1,6.6354,4.6914c.2785.2677.5463.5462.8141.83.1767.1928.3534.391.5248.5891.2946.3321.5784.6802.8569,1.0283a25.29566,25.29566,0,0,1,4.6699,9.5541A25.29885,25.29885,0,0,1,84.4889,53.0232Z" transform="translate(-31.96689 -27.34766)" fill-rule="evenodd" fill="url(#Áåçûìÿííûé_ãðàäèåíò_331)"/>
        <g opacity="0.4" style="mix-blend-mode: multiply">
          <path d="M40.1255,41.6676a7.77094,7.77094,0,0,0-.9465,2.8682,12.5241,12.5241,0,0,0-.1254,2.3558,11.27526,11.27526,0,0,0,.6629,2.349,6.15735,6.15735,0,0,0,1.4924,2.5198,3.57832,3.57832,0,0,0,4.3687.4328c.7354-.4047,1.3472-.9482,2.1245-1.2949a6.73225,6.73225,0,0,0,2.82-1.879,6.684,6.684,0,0,0,1.2461-3.557,6.90692,6.90692,0,0,0,.0152-2.2749,6.50859,6.50859,0,0,0-.6962-1.776,10.116,10.116,0,0,0-.8048-1.2068,3.43387,3.43387,0,0,0-1.5015-1.0108,2.77629,2.77629,0,0,0-1.0993-.3797,9.93131,9.93131,0,0,0-1.4714.0328,7.8838,7.8838,0,0,0-1.5813.4533c-.5012.1687-1.0233.2713-1.5127.4764a12.83809,12.83809,0,0,1-1.4723.5046,3.5012,3.5012,0,0,0-1.6669.8522,4.12618,4.12618,0,0,0-.4023.3924C39.3905,41.7788,39.4495,42.0487,40.1255,41.6676Z" transform="translate(-31.96689 -27.34766)" fill="#b9bfe2" fill-rule="evenodd"/>
          <path d="M49.3257,52.4913c.1392-.468.234-1.3603.6851-1.7019a1.913,1.913,0,0,1,.6673-.2997,1.23277,1.23277,0,0,1,.9471.2061c.8043.437.6543,1.6782.208,2.3377-.3839.5674-1.3504,1.0714-1.9677.6091a1.52289,1.52289,0,0,1-.5168-1.5341l.1122-.0231Z" transform="translate(-31.96689 -27.34766)" fill="#b9bfe2" fill-rule="evenodd"/>
          <path d="M64.6141,60.2031a8.6121,8.6121,0,0,0-.1106,1.8198,14.92958,14.92958,0,0,0,.3076,1.5644c.234.9121.5694,1.973,1.5565,2.3202a4.09143,4.09143,0,0,0,2.7514-.3236,14.583,14.583,0,0,0,2.6688-1.1731,9.71529,9.71529,0,0,0,2.167-1.9421,3.927,3.927,0,0,0,.949-2.6073,7.52014,7.52014,0,0,0-1.3576-4.093,3.16593,3.16593,0,0,0-3.9354-1.2569c-1.2624.4549-1.9127,1.8145-2.8352,2.7182a10.435,10.435,0,0,1-.8086.8419,2.8789,2.8789,0,0,0-.7061.9208,5.49186,5.49186,0,0,0-.5482.7983C64.542,60.2082,64.6141,60.7045,64.6141,60.2031Z" transform="translate(-31.96689 -27.34766)" fill="#b9bfe2" fill-rule="evenodd"/>
          <path d="M76.2495,59.3913c.085-.1211.6775-1.4243,1.2145-1.3657.2581.0282.4608.3144.5845.5234.1998.3375.3587.6516.0964,1.035-.3358.4911-1.7016.8542-1.7864-.0311l-.109-.0263Z" transform="translate(-31.96689 -27.34766)" fill="#b9bfe2" fill-rule="evenodd"/>
          <path d="M55.6107,32.3194c.0851-.1211.6775-1.4243,1.2145-1.3658.2581.0282.4608.3144.5846.5234.1998.3376.3586.6516.0964,1.0351-.3359.491-1.7017.8542-1.7865-.0312l-.109-.0262Z" transform="translate(-31.96689 -27.34766)" fill="#b9bfe2" fill-rule="evenodd"/>
          <path d="M69.6925,51.4416c.085-.1211.6775-1.4243,1.2145-1.3657.2581.0282.4608.3143.5845.5234.1998.3376.3587.6515.0964,1.035-.3358.4911-1.7017.8542-1.7864-.0311l-.109-.0263Z" transform="translate(-31.96689 -27.34766)" fill="#b9bfe2" fill-rule="evenodd"/>
          <path d="M66.2376,45.1853c-.3039.8154-.6744,1.3177-.4257,2.0899.1206.3745.1747.767.2812,1.1447a4.17306,4.17306,0,0,0,1.2993,1.7094,1.68307,1.68307,0,0,0,2.2045.4673,5.29172,5.29172,0,0,0,.8348-.5416,2.37327,2.37327,0,0,0,.8145-.9505,9.58265,9.58265,0,0,0,.4333-1.1832,3.71963,3.71963,0,0,0,.3806-1.2975A4.9892,4.9892,0,0,0,71.982,45.17a6.34153,6.34153,0,0,0-.7935-1.6181,4.76391,4.76391,0,0,0-1.0278-1.2206,2.66927,2.66927,0,0,0-1.2203-.3656,2.52485,2.52485,0,0,0-2.2014,1.0484C66.187,43.8653,65.8886,44.8576,66.2376,45.1853Z" transform="translate(-31.96689 -27.34766)" fill="#b9bfe2" fill-rule="evenodd"/>
          <path d="M64.4787,50.0559a3.89154,3.89154,0,0,0,.561,1.5992.73169.73169,0,0,1,.3625-.1345c.0053-.1699.1339-.2294.1659-.3753a2.99858,2.99858,0,0,0-.0075-.5477,2.18382,2.18382,0,0,0-.2008-.8138c-.0824-.2229-.1965-.6002-.479-.5488-.5356.0975-.4843.5383-.4021.8209Z" transform="translate(-31.96689 -27.34766)" fill="#b9bfe2" fill-rule="evenodd"/>
          <path d="M39.1108,66.2914a2.38973,2.38973,0,0,0,.271,1.2376,7.63377,7.63377,0,0,0,.8854,1.0713c.2149.2248.6113.7003.9771.4961.2996-.1672.4-.7679.3686-1.071a5.91051,5.91051,0,0,0-.1742-.7549,2.35781,2.35781,0,0,0-.3497-.7829c-.2804-.4026-.9367-1.1513-1.5044-.7897a1.01815,1.01815,0,0,0-.4143.3485A.40736.40736,0,0,0,39.1108,66.2914Z" transform="translate(-31.96689 -27.34766)" fill="#b9bfe2" fill-rule="evenodd"/>
          <path d="M51.8472,64.262a3.48738,3.48738,0,0,1-.1911-.7332.15175.15175,0,0,1,.0406-.2,4.56154,4.56154,0,0,1,.3134-.7791,3.09946,3.09946,0,0,1,.9838-1.2058,1.716,1.716,0,0,1,.5172-.1693c.1861-.045.3699-.1164.5587-.1495a2.43157,2.43157,0,0,1,.9983.0965,4.92382,4.92382,0,0,1,1.0964.3773,2.11349,2.11349,0,0,1,.6728.7506,1.584,1.584,0,0,1,.0101,1.965,3.02674,3.02674,0,0,1-.5075.3943,6.35338,6.35338,0,0,1-.5624.3938,3.09194,3.09194,0,0,1-.8177.2071,3.23813,3.23813,0,0,1-1.5433-.0497A8.313,8.313,0,0,1,51.8472,64.262Z" transform="translate(-31.96689 -27.34766)" fill="#b9bfe2" fill-rule="evenodd"/>
        </g>
        <path d="M73.8649,44.0039s-1.3652,2.4704-.638,6.89c1.6182,9.8357,7.0261,8.3337,6.6765,3.7675Z" transform="translate(-31.96689 -27.34766)" fill-rule="evenodd" fill="url(#Áåçûìÿííûé_ãðàäèåíò_407)"/>
        <path d="M66.8287,69.0163c-.4616,3.7643-4.8924,6.3187-9.8966,5.7052s-8.6867-4.1625-8.2252-7.927c.4615-3.7644,4.8923-6.3187,9.8965-5.7052S67.2901,65.2518,66.8287,69.0163Z" transform="translate(-31.96689 -27.34766)" fill-rule="evenodd" fill="url(#Áåçûìÿííûé_ãðàäèåíò_432)" style="mix-blend-mode: screen"/>
        <path d="M70.2422,30.2159a2.48947,2.48947,0,0,0-.2509.0353,1.61656,1.61656,0,0,1-.7922-.0528,4.63722,4.63722,0,0,0-.5633-.1761c-.3081-.0484-.5941-.1804-.9022-.22a4.49439,4.49439,0,0,1-.9154-.2817.86158.86158,0,0,0-.6029,0,.86.86,0,0,1-.603-.1232,3.28144,3.28144,0,0,0-.7129-.1672c-.6425-.1321-1.2807-.3389-1.9188-.5018a4.72131,4.72131,0,0,0-1.1663-.1056c-.3168-.0044-.6029.088-.9198.088a4.01046,4.01046,0,0,1-.6029-.066c-.2157-.0396-.4357.0044-.6513-.0264a1.52142,1.52142,0,0,0-.8186.0044,2.35592,2.35592,0,0,1-.6734.0836,4.96585,4.96585,0,0,0-.8362.1452,6.25194,6.25194,0,0,1-1.4831.1893,3.47576,3.47576,0,0,0-1.0254.0176c-.1849.066-.2773.264-.4049.3961a7.7995,7.7995,0,0,0-.757.7702,1.55193,1.55193,0,0,0-.4225.9418,2.81905,2.81905,0,0,0,.2993.9637c.1408.3038.1892.581-.1232.7834a4.81437,4.81437,0,0,1-1.294.625.79141.79141,0,0,1-.8185-.0748c-.0924-.0793-.1497-.2333-.2641-.2949-.1188-.0616-.242,0-.3697.0396a8.10793,8.10793,0,0,1-.9462.2509c-.198.0308-.3696.1364-.5633.1716-.2333.044-.4005-.1276-.6425-.0704a5.93394,5.93394,0,0,1-1.0298.2377,1.526,1.526,0,0,1-.779-.2245c-.1233-.0704-.1541-.1408-.2949-.1012a.7821.7821,0,0,0-.3477.2552c-.0836.1189-.1144.2729-.198.3961-.088.1364-.1717.2685-.2509.4137a5.927,5.927,0,0,1-.5017.7966c-.132.176-.2244.4137-.3697.5765a1.741,1.741,0,0,1-.3344.2157c-.2641.1848-.5413.352-.7966.5501-.4929.3872-.9595.8142-1.4611,1.1883a6.3527,6.3527,0,0,1-1.3555.6337c-.2729.11-.5546.1892-.8274.3037a1.25872,1.25872,0,0,0-.3257.1408,2.46116,2.46116,0,0,0-.2377.352,5.95339,5.95339,0,0,0-.6689.9155,3.26973,3.26973,0,0,0-.2464.6029c-.0969.286-.2509.5501-.3477.8362-.1981.5985-.2377,1.2235-.4577,1.8176a9.63934,9.63934,0,0,1-.4709.9814,5.46976,5.46976,0,0,0-.3917,1.7692,3.746,3.746,0,0,0,.0352,1.0871,5.91363,5.91363,0,0,1,.044,1.1178,1.85117,1.85117,0,0,1-.5061,1.0826c-.2289.2773-.5765.3829-.8318.6294a1.98529,1.98529,0,0,0-.5677.7525,3.30038,3.30038,0,0,0-.0264.4225c-.0572.3125-.1365.6074-.1805.9242a9.22881,9.22881,0,0,0-.0572,1.1575c0,.198-.0132.4004-.0044.5985.0088.1893.0792.3653.0925.5545.0087.1321-.0177.2641,0,.3961.0264.1497.0836.3037.1188.4489.088.3521.154.6954.22,1.0474a8.35837,8.35837,0,0,0,.2905.9639,10.36,10.36,0,0,1,.3169,1.3246c.0659.3345.0616.6822.11,1.0211.0396.2729.1012.5501.1144.823.0132.4136-.088.8273-.0924,1.2454a8.98827,8.98827,0,0,0,.4401,2.0861c.0484.1893.0968.3829.1496.5721A25.37783,25.37783,0,0,1,59.1165,27.6502c.5545,0,1.1003.0176,1.646.0528A25.13646,25.13646,0,0,1,70.2422,30.2159Z" transform="translate(-31.96689 -27.34766)" fill-rule="evenodd" fill="url(#Áåçûìÿííûé_ãðàäèåíò_373)"/>
        <path d="M72.6388,44.0288c-.8243,1.4277-3.7413,1.2865-6.5155-.3151-2.7741-1.6016-4.3548-4.0573-3.5305-5.485.8242-1.4276,3.7413-1.2865,6.5154.3151C71.8823,40.1455,73.463,42.6012,72.6388,44.0288Z" transform="translate(-31.96689 -27.34766)" fill-rule="evenodd" fill="url(#Áåçûìÿííûé_ãðàäèåíò_432-2)" style="mix-blend-mode: screen"/>
        <path d="M78.2823,61.8576a6.50464,6.50464,0,0,0-4.5912,2.6155c-2.0586,2.5793-2.0406,4.8624-1.7446,5.628C72.2426,70.8667,78.2823,61.8576,78.2823,61.8576Z" transform="translate(-31.96689 -27.34766)" fill-rule="evenodd" fill="url(#Áåçûìÿííûé_ãðàäèåíò_388)"/>
        <path d="M75.8775,56.6089c-2.9215.3935-5.6636-2.0624-6.1247-5.4854-.4612-3.4231,1.5334-6.5171,4.4548-6.9106,2.9215-.3935,5.6637,2.0624,6.1248,5.4854C80.7935,53.1214,78.7989,56.2153,75.8775,56.6089Z" transform="translate(-31.96689 -27.34766)" fill-rule="evenodd" fill="url(#Áåçûìÿííûé_ãðàäèåíò_432-3)" style="mix-blend-mode: screen"/>
        <path d="M44.0709,72.8377a25.45881,25.45881,0,0,1-6.3594-7.9966A25.10876,25.10876,0,0,1,35.533,58.649a.033.033,0,0,1-.0044-.022,25.65555,25.65555,0,0,1-.5413-5.2372A25.37272,25.37272,0,0,1,60.3589,28.0182c.5545,0,1.1002.0176,1.6459.0528a25.28053,25.28053,0,0,1,5.0011.8312,25.21452,25.21452,0,0,0-6.2434-1.1992c-.5457-.0352-1.0915-.0528-1.646-.0528A25.36226,25.36226,0,0,0,33.7449,53.0218a25.66258,25.66258,0,0,0,.5413,5.2372.03267.03267,0,0,0,.0044.0219,25.11767,25.11767,0,0,0,2.1785,6.1922A25.46574,25.46574,0,0,0,52.4898,77.5155,25.3094,25.3094,0,0,1,44.0709,72.8377Z" transform="translate(-31.96689 -27.34766)" fill-rule="evenodd" fill="url(#Áåçûìÿííûé_ãðàäèåíò_197)" style="mix-blend-mode: screen"/>
        <path d="M75.9306,72.017s-2.8879.7009-3.8551-1.4638c-.9673-2.1647,2.7166-7.8471,5.6777-8.5913,2.961-.7441,3.5348,2.736,3.5348,2.736Z" transform="translate(-31.96689 -27.34766)" fill="#004a59" fill-rule="evenodd"/>
        <path d="M58.4427,32.2689a14.66,14.66,0,0,0,5.4272,7.0017c6.839,4.8493,9.6631,3.1024,9.6631,3.1024Z" transform="translate(-31.96689 -27.34766)" fill-rule="evenodd" fill="url(#Áåçûìÿííûé_ãðàäèåíò_398)"/>
        <path d="M67.7423,76.5185s2.9416-1.5437,3.0026-3.6408c.0611-2.0971-4.4396-4.9627-13.2169-6.2263-8.0393-1.1574-14.1869.6115-14.5928,2.1674s1.6912,5.3442,5.953,7.2383C53.15,77.9513,65.558,77.5886,67.7423,76.5185Z" transform="translate(-31.96689 -27.34766)" fill="#004a59" fill-rule="evenodd"/>
        <path d="M53.6856,39.5816s1.7895,2.8295,4.5663,3.075a3.37021,3.37021,0,0,0,3.598-1.9316S55.5258,40.675,53.6856,39.5816Z" transform="translate(-31.96689 -27.34766)" fill-rule="evenodd" fill="url(#Áåçûìÿííûé_ãðàäèåíò_398-2)"/>
        <path d="M52.5084,37.3403a6.883,6.883,0,0,0,4.7325,4.6003c4.143,1.058,5.3574-1.6537,4.7575-3.1383C61.3986,37.3178,56.5028,35.0424,52.5084,37.3403Z" transform="translate(-31.96689 -27.34766)" fill="#00777a" fill-rule="evenodd"/>
        <path d="M44.3909,36.1265s2.6104.4844,6.4531-1.7987,3.0482-4.3881,3.0482-4.3881Z" transform="translate(-31.96689 -27.34766)" fill-rule="evenodd" fill="url(#Áåçûìÿííûé_ãðàäèåíò_398-3)"/>
        <path d="M43.4788,34.4498s-.9785,1.3444.9121,1.6767c1.8906.3322,8.2812-2.8033,9.4604-5.1747C55.0304,28.5803,48.8338,27.2499,43.4788,34.4498Z" transform="translate(-31.96689 -27.34766)" fill="#00777a" fill-rule="evenodd"/>
        <path d="M60.4199,29.5221s-2.5136.4325-2.6489,1.7385c-.1353,1.3059,3.9786,6.5247,8.456,9.2883,4.4774,2.7637,8.8618,1.8312,9.5383,1.1524S69.9143,30.201,60.4199,29.5221Z" transform="translate(-31.96689 -27.34766)" fill="#006d7a" fill-rule="evenodd"/>
        <path d="M77.9844,44.4494s-2.3945-2.5088-4.2933-1.5677c-1.5615.774-.8917,8.4418.7318,11.3659,1.6236,2.9241,3.7207,2.66,4.5325,2.0141C79.7671,55.6158,79.9479,47.0447,77.9844,44.4494Z" transform="translate(-31.96689 -27.34766)" fill="#004a59" fill-rule="evenodd"/>
        <path d="M77.8219,38.8023a1.10975,1.10975,0,0,0-1.2189.4702c-.4889.7039,2.8935,5.5214,4.3142,6.0892,1.4206.5677,1.7052-1.4707,1.7052-1.4707Z" transform="translate(-31.96689 -27.34766)" fill="#004a59" fill-rule="evenodd"/>
        <path d="M59.6758,31.1822c-1.1298,1.9171,9.0618,12.809,15.2207,10.756,1.2176-.4059,1.8768-8.4016-2.2324-12.1932C69.2479,26.5928,61.9081,27.3939,59.6758,31.1822Z" transform="translate(-31.96689 -27.34766)" fill-rule="evenodd" fill="url(#Áåçûìÿííûé_ãðàäèåíò_365)"/>
        <path d="M74.8965,44.1032c-1.8426.7712-1.5559,8.9292.7441,11.2969,2.3001,2.3677,5.8177-1.0824,6.156-4.6677C82.1348,47.1471,77.8053,42.8858,74.8965,44.1032Z" transform="translate(-31.96689 -27.34766)" fill-rule="evenodd" fill="url(#Áåçûìÿííûé_ãðàäèåíò_365-2)"/>
        <path d="M77.2642,39.7288c-.1104,1.6547,3.4529,5.2232,4.5511,4.8477,1.0981-.3756,2.146-2.9982,1.4019-4.8477C82.473,37.8794,77.3994,37.6994,77.2642,39.7288Z" transform="translate(-31.96689 -27.34766)" fill-rule="evenodd" fill="url(#Áåçûìÿííûé_ãðàäèåíò_365-3)"/>
        <path d="M44.9586,67.9801c-4.7627,1.2268,3.1483,10.5909,9.9142,11.8218,7.9147,1.4399,15.1155-3.9021,15.2508-6.8473C70.2589,70.0095,53.8881,65.68,44.9586,67.9801Z" transform="translate(-31.96689 -27.34766)" fill-rule="evenodd" fill="url(#Áåçûìÿííûé_ãðàäèåíò_365-4)"/>
        <path d="M72.8193,70.4287c-.8748-2.0928,4.1603-8.6726,6.4941-7.8958,2.3339.7769,3.8559,6.2182.7104,8.4506C78.1513,72.3123,73.7325,72.6138,72.8193,70.4287Z" transform="translate(-31.96689 -27.34766)" fill-rule="evenodd" fill="url(#Áåçûìÿííûé_ãðàäèåíò_365-5)"/>
        <path d="M44.4888,35.606c2.3339.508,7.8544-3.3312,8.8626-5.1622,1.0081-1.8311-4.1511-4.2571-7.6249-2.4713C43.267,29.237,42.4198,35.1556,44.4888,35.606Z" transform="translate(-31.96689 -27.34766)" fill-rule="evenodd" fill="url(#Áåçûìÿííûé_ãðàäèåíò_365-6)"/>
        <path d="M53.4797,35.6519c-2.6012,1.2061.3403,4.6164,3.3358,5.6035,2.9955.9872,5.6338-.8068,5.1265-2.8017C61.4346,36.4587,58.086,33.5161,53.4797,35.6519Z" transform="translate(-31.96689 -27.34766)" fill-rule="evenodd" fill="url(#Áåçûìÿííûé_ãðàäèåíò_365-7)"/>
        <path d="M46.8843,66.4695a41.83161,41.83161,0,0,1,19.8625,2.6834S57.4954,63.4694,46.8843,66.4695Z" transform="translate(-31.96689 -27.34766)" fill-rule="evenodd" fill="url(#Áåçûìÿííûé_ãðàäèåíò_388-2)"/>
        <path d="M76.603,39.7637a8.23325,8.23325,0,0,0,3.3004,4.8402A16.051,16.051,0,0,1,76.603,39.7637Z" transform="translate(-31.96689 -27.34766)" fill-rule="evenodd" fill="url(#Áåçûìÿííûé_ãðàäèåíò_388-3)"/>
        <path d="M33.7449,53.0218c.1166,1.2878.7546-5.6854,3.0587-6.8039s9.313,3.8975,12.5451,5.8906c7.4668,4.6041,15.8514-.6232,17.926-3.435,2.0747-2.8117-1.035-7.2116-2.7949-8.1911s-2.6458,3.3482-6.2279,2.8417-6.3367-4.623-6.6168-5.981c-.28-1.3579,3.1024-3.3197,4.523-3.5226s2.986-4.1836,1.9902-5.1141c-.9958-.9304-2.6328,3.4949-6.5132,6.1277-2.7831,1.8883-7.1124,3.5661-9.4125.1601C42.2226,34.9942,32.7761,42.3228,33.7449,53.0218Z" transform="translate(-31.96689 -27.34766)" fill-rule="evenodd" fill="url(#Áåçûìÿííûé_ãðàäèåíò_415)" style="mix-blend-mode: screen"/>
        <path d="M60.4875,31.5391c-.1103,1.7348,3.7034.937,7.1282.7298,3.4249-.2073,6.0754-.1949,6.0754-.1949a11.3951,11.3951,0,0,0-6.9005-3.4939C62.4683,28.1061,60.5552,30.4752,60.4875,31.5391Z" transform="translate(-31.96689 -27.34766)" fill-rule="evenodd" fill="url(#Áåçûìÿííûé_ãðàäèåíò_419)" style="mix-blend-mode: screen"/>
        <path d="M44.109,33.6479c1.0391.4762,1.2931-2.6741,2.7137-4.1258a6.21585,6.21585,0,0,1,3.1118-1.7284,13.2122,13.2122,0,0,0-4.7354.7864C43.3727,29.4234,43.2256,33.243,44.109,33.6479Z" transform="translate(-31.96689 -27.34766)" fill-rule="evenodd" fill="url(#Áåçûìÿííûé_ãðàäèåíò_419-2)" style="mix-blend-mode: screen"/>
        <path d="M53.1477,36.3618a6.50162,6.50162,0,0,1,3.9236-1.2222,6.734,6.734,0,0,1,3.8547,1.595,5.93014,5.93014,0,0,0-2.8738-.1405C56.8684,36.9661,55.0419,38.9369,53.1477,36.3618Z" transform="translate(-31.96689 -27.34766)" fill-rule="evenodd" fill="url(#Áåçûìÿííûé_ãðàäèåíò_419-3)" style="mix-blend-mode: screen"/>
        <path d="M74.6936,44.6039a4.58944,4.58944,0,0,1,4.5662,1.1644,6.84468,6.84468,0,0,1,2.3677,3.9069s-1.4207-2.1592-2.8413-2.3606c-1.4205-.2013-3.1622.8472-3.8811.2046A2.3822,2.3822,0,0,1,74.6936,44.6039Z" transform="translate(-31.96689 -27.34766)" fill-rule="evenodd" fill="url(#Áåçûìÿííûé_ãðàäèåíò_419-4)" style="mix-blend-mode: screen"/>
        <path d="M77.7532,39.097s.4997-.6692,2.1502-.6297a4.07688,4.07688,0,0,1,3.077,1.2964c.3964.4977.1691,2.1769.1691,2.1769a3.7619,3.7619,0,0,0-.8117-1.998C81.6613,39.3,77.7348,40.8559,77.7532,39.097Z" transform="translate(-31.96689 -27.34766)" fill-rule="evenodd" fill="url(#Áåçûìÿííûé_ãðàäèåíò_419-5)" style="mix-blend-mode: screen"/>
        <path d="M73.6911,67.5767s2.9436-4.766,5.0613-4.4346c2.1177.3313,2.8751,3.6228,2.8751,3.6228a4.27683,4.27683,0,0,0-3.8744-1.4855A6.22531,6.22531,0,0,0,73.6911,67.5767Z" transform="translate(-31.96689 -27.34766)" fill-rule="evenodd" fill="url(#Áåçûìÿííûé_ãðàäèåíò_419-6)" style="mix-blend-mode: screen"/>
        <path d="M44.109,69.1462s4.0388-2.0347,12.1167-.893a38.46143,38.46143,0,0,1,12.6772,3.7723s-8.3601-1.8105-13.2922-.9988a8.4117,8.4117,0,0,0-6.4352,5.1384S43.0866,73.5568,44.109,69.1462Z" transform="translate(-31.96689 -27.34766)" fill-rule="evenodd" fill="url(#Áåçûìÿííûé_ãðàäèåíò_419-7)" style="mix-blend-mode: screen"/>
        <path d="M57.1869,79.4827s5.5743-.7836,8.3948-2.083C65.5817,77.3997,59.7039,80.7004,57.1869,79.4827Z" transform="translate(-31.96689 -27.34766)" fill="#ffff8d" fill-rule="evenodd"/>
        <path d="M73.533,70.5532a14.13861,14.13861,0,0,0,5.2194.4735S75.2446,72.3773,73.533,70.5532Z" transform="translate(-31.96689 -27.34766)" fill="#ffff8d" fill-rule="evenodd"/>
        <path d="M74.2899,51.1081s1.832,3.353,3.6688,4.2017C77.9587,55.3098,75.7718,56.0847,74.2899,51.1081Z" transform="translate(-31.96689 -27.34766)" fill="#ffff8d" fill-rule="evenodd"/>
        <path d="M65.0046,37.3403a14.37037,14.37037,0,0,0,8.6865,4.1945Z" transform="translate(-31.96689 -27.34766)" fill="#ffff8d" fill-rule="evenodd"/>
        <path d="M53.9972,38.8023a6.91577,6.91577,0,0,0,5.1203,2.4542Z" transform="translate(-31.96689 -27.34766)" fill="#ffff8d" fill-rule="evenodd"/>
        <path d="M44.3909,35.1341a18.55734,18.55734,0,0,0,7.2442-3.1482Z" transform="translate(-31.96689 -27.34766)" fill="#ffff8d" fill-rule="evenodd"/>
        <path d="M37.433,49.6666s3.912,3.0536,5.5636,10.4395C42.9966,60.1061,43.9434,52.8547,37.433,49.6666Z" transform="translate(-31.96689 -27.34766)" fill-rule="evenodd" fill="url(#Áåçûìÿííûé_ãðàäèåíò_398-4)"/>
        <path d="M37.5348,65.2262s3.1855,1.5428,4.8624-.0729.6487-7.0903-1.6554-11.2361c-2.3039-4.1457-5.1254-5.9801-6.3057-5.3793C33.6222,48.9522,29.3183,59.2665,37.5348,65.2262Z" transform="translate(-31.96689 -27.34766)" fill="#00777a" fill-rule="evenodd"/>
        <path d="M35.0023,49.5663c-2.1059-.5315-3.7741,6.749-2.7,10.6974,1.3963,5.133,8.2699,5.8928,9.7207,4.3369C43.4738,63.0446,42.4908,51.4564,35.0023,49.5663Z" transform="translate(-31.96689 -27.34766)" fill-rule="evenodd" fill="url(#Áåçûìÿííûé_ãðàäèåíò_365-8)"/>
        <path d="M32.7612,59.7151s-.5792-7.4864,1.2897-8.836c1.8688-1.3495,4.6905,1.5002,4.6905,1.5002a15.39636,15.39636,0,0,0-3.124,1.3467C33.8485,54.7084,32.7612,59.7151,32.7612,59.7151Z" transform="translate(-31.96689 -27.34766)" fill-rule="evenodd" fill="url(#Áåçûìÿííûé_ãðàäèåíò_419-8)" style="mix-blend-mode: screen"/>
        <path d="M35.251,63.3573a13.90707,13.90707,0,0,0,4.3248,1.4959A3.85631,3.85631,0,0,1,35.251,63.3573Z" transform="translate(-31.96689 -27.34766)" fill="#ffff8d" fill-rule="evenodd"/>
      </g>
    </g>
  </g>
</svg>
