<svg xmlns="http://www.w3.org/2000/svg" xmlns:xlink="http://www.w3.org/1999/xlink" viewBox="0 0 70.15179 66.30077">
  <defs>
    <radialGradient id="radial-gradient" cx="232.84567" cy="123.26764" r="20.06494" gradientTransform="matrix(0.9969, -0.0791, 0.0791, 0.9969, -1.7882, 26.3808)" gradientUnits="userSpaceOnUse">
      <stop offset="0" stop-color="#9ecfff"/>
      <stop offset="0.17483" stop-color="#bcdeff"/>
      <stop offset="0.38728" stop-color="#d9ecff"/>
      <stop offset="0.59794" stop-color="#eef7ff"/>
      <stop offset="0.80399" stop-color="#fbfdff"/>
      <stop offset="1" stop-color="#fff"/>
    </radialGradient>
    <radialGradient id="New_Gradient_Swatch_76" data-name="New Gradient Swatch 76" cx="232.51485" cy="128.49524" r="21.60148" gradientTransform="matrix(0.9969, -0.0791, 0.0791, 0.9969, -1.7882, 26.3808)" gradientUnits="userSpaceOnUse">
      <stop offset="0" stop-color="#aac2e6"/>
      <stop offset="0.99628" stop-color="#fff"/>
    </radialGradient>
    <radialGradient id="radial-gradient-2" cx="251.72531" cy="129.9018" r="51.33068" gradientUnits="userSpaceOnUse">
      <stop offset="0" stop-color="#009ced"/>
      <stop offset="0.92193" stop-color="#4e3bf5"/>
    </radialGradient>
    <radialGradient id="radial-gradient-3" cx="262.25586" cy="146.79974" r="35.58918" gradientUnits="userSpaceOnUse">
      <stop offset="0.04089"/>
      <stop offset="0.84387"/>
      <stop offset="0.85438" stop-color="#0d1516"/>
      <stop offset="0.89578" stop-color="#3e6268"/>
      <stop offset="0.9325" stop-color="#659fa9"/>
      <stop offset="0.96316" stop-color="#81cbd7"/>
      <stop offset="0.98658" stop-color="#93e6f4"/>
      <stop offset="1" stop-color="#99f0ff"/>
    </radialGradient>
    <radialGradient id="radial-gradient-4" cx="245.75005" cy="121.37621" r="51.9593" gradientUnits="userSpaceOnUse">
      <stop offset="0" stop-color="#1fceff"/>
      <stop offset="1"/>
    </radialGradient>
    <radialGradient id="radial-gradient-5" cx="251.97016" cy="132.23642" r="48.80927" gradientUnits="userSpaceOnUse">
      <stop offset="0.55762" stop-color="#f5f5ff"/>
      <stop offset="0.64217" stop-color="#f0eafa"/>
      <stop offset="0.79117" stop-color="#e1cced"/>
      <stop offset="0.98599" stop-color="#ca9dd9"/>
      <stop offset="1" stop-color="#c899d7"/>
    </radialGradient>
    <radialGradient id="New_Gradient_Swatch_22" data-name="New Gradient Swatch 22" cx="251.39346" cy="135.25795" r="33.95807" gradientUnits="userSpaceOnUse">
      <stop offset="0" stop-color="#91eb00"/>
      <stop offset="1" stop-color="#05a100"/>
    </radialGradient>
    <radialGradient id="radial-gradient-6" cx="256.69803" cy="128.25885" r="36.00813" gradientUnits="userSpaceOnUse">
      <stop offset="0" stop-color="#8fe561"/>
      <stop offset="1"/>
    </radialGradient>
    <radialGradient id="radial-gradient-7" cx="254.95076" cy="124.77719" r="42.50264" gradientUnits="userSpaceOnUse">
      <stop offset="0" stop-color="#94ffe1"/>
      <stop offset="0.18163" stop-color="#88f9dd"/>
      <stop offset="0.51171" stop-color="#67e9d1"/>
      <stop offset="0.95009" stop-color="#33cebd"/>
      <stop offset="1" stop-color="#2dcbbb"/>
    </radialGradient>
    <radialGradient id="radial-gradient-8" cx="241.55318" cy="139.44688" r="28.6187" gradientUnits="userSpaceOnUse">
      <stop offset="0" stop-color="#dede00"/>
      <stop offset="0.15027" stop-color="#d2d200"/>
      <stop offset="0.42242" stop-color="#b2b200"/>
      <stop offset="0.47212" stop-color="#abab00"/>
      <stop offset="0.50655" stop-color="#a5a500"/>
      <stop offset="0.77024" stop-color="#7d7d00"/>
      <stop offset="0.90706" stop-color="#6e6e00"/>
    </radialGradient>
    <radialGradient id="radial-gradient-9" cx="248.51395" cy="145.37862" r="12.9078" gradientUnits="userSpaceOnUse">
      <stop offset="0" stop-color="#fff"/>
      <stop offset="1" stop-color="#093"/>
    </radialGradient>
    <radialGradient id="radial-gradient-10" cx="271.88147" cy="135.0799" r="26.58453" gradientUnits="userSpaceOnUse">
      <stop offset="0" stop-color="#f0ab54"/>
      <stop offset="1" stop-color="#b87126"/>
    </radialGradient>
    <radialGradient id="New_Gradient_Swatch_3" data-name="New Gradient Swatch 3" cx="263.11951" cy="144.56189" r="27.80814" gradientUnits="userSpaceOnUse">
      <stop offset="0" stop-color="#78e05b"/>
      <stop offset="1" stop-color="#0d9c00"/>
    </radialGradient>
    <radialGradient id="radial-gradient-11" cx="242.08391" cy="116.67185" r="31.36842" gradientUnits="userSpaceOnUse">
      <stop offset="0" stop-color="#fff"/>
      <stop offset="0.17288" stop-color="#f9fcff"/>
      <stop offset="0.4003" stop-color="#e9f4ff"/>
      <stop offset="0.65804" stop-color="#cde6ff"/>
      <stop offset="0.93631" stop-color="#a8d4ff"/>
      <stop offset="1" stop-color="#9ecfff"/>
    </radialGradient>
    <radialGradient id="radial-gradient-12" cx="278.66493" cy="127.70529" r="16.17765" gradientUnits="userSpaceOnUse">
      <stop offset="0" stop-color="#fff"/>
      <stop offset="1" stop-color="#848431"/>
    </radialGradient>
    <radialGradient id="radial-gradient-13" cx="234.72887" cy="144.83553" r="27.45295" xlink:href="#radial-gradient-9"/>
    <radialGradient id="radial-gradient-14" cx="242.21217" cy="157.38654" r="17.3586" xlink:href="#radial-gradient-10"/>
    <radialGradient id="radial-gradient-15" cx="241.96728" cy="157.66094" r="16.80344" xlink:href="#radial-gradient-12"/>
    <radialGradient id="radial-gradient-16" cx="254.01478" cy="125.73331" r="20.78769" gradientUnits="userSpaceOnUse">
      <stop offset="0" stop-color="#f2f6ff"/>
      <stop offset="1"/>
    </radialGradient>
    <radialGradient id="radial-gradient-17" cx="241.45992" cy="137.08634" r="18.01029" gradientUnits="userSpaceOnUse">
      <stop offset="0" stop-color="#c5c55c"/>
      <stop offset="1" stop-color="#000a00"/>
    </radialGradient>
    <radialGradient id="radial-gradient-18" cx="230.77842" cy="84.28756" r="8.95591" gradientTransform="matrix(0.9621, -0.2726, 0.2726, 0.9621, 6.295, 95.6875)" xlink:href="#radial-gradient"/>
    <radialGradient id="New_Gradient_Swatch_76-2" cx="231.74607" cy="89.82" r="12.74944" gradientTransform="matrix(0.9621, -0.2726, 0.2726, 0.9621, 6.295, 95.6875)" xlink:href="#New_Gradient_Swatch_76"/>
    <radialGradient id="radial-gradient-19" cx="288.26842" cy="183.30876" r="31.94261" gradientTransform="translate(49.8515 -116.616) rotate(21.04492)" xlink:href="#radial-gradient"/>
    <radialGradient id="New_Gradient_Swatch_76-3" cx="290.44175" cy="192.76678" r="27.89434" gradientTransform="translate(49.8515 -116.616) rotate(21.04492)" xlink:href="#New_Gradient_Swatch_76"/>
    <radialGradient id="radial-gradient-20" cx="228.72487" cy="142.45037" r="16.26063" gradientTransform="translate(-3.4919 26.49468) rotate(-4.65753)" xlink:href="#radial-gradient"/>
    <radialGradient id="New_Gradient_Swatch_76-4" cx="227.80531" cy="145.14333" r="18.16154" gradientTransform="translate(-3.4919 26.49468) rotate(-4.65753)" xlink:href="#New_Gradient_Swatch_76"/>
    <radialGradient id="radial-gradient-21" cx="272.45089" cy="146.08904" r="22.6188" gradientTransform="matrix(0.988, 0.1543, -0.1543, 0.988, 9.9173, -53.9877)" xlink:href="#radial-gradient"/>
    <radialGradient id="New_Gradient_Swatch_76-5" cx="274.84597" cy="149.57893" r="23.2509" gradientTransform="matrix(0.988, 0.1543, -0.1543, 0.988, 9.9173, -53.9877)" xlink:href="#New_Gradient_Swatch_76"/>
    <radialGradient id="radial-gradient-22" cx="273.64393" cy="141.33788" r="24.83821" gradientTransform="matrix(1, 0, 0, 1, 0, 0)" xlink:href="#radial-gradient"/>
    <radialGradient id="New_Gradient_Swatch_76-6" cx="281.05213" cy="145.25354" r="34.24851" gradientTransform="matrix(1, 0, 0, 1, 0, 0)" xlink:href="#New_Gradient_Swatch_76"/>
    <radialGradient id="radial-gradient-23" cx="280.62092" cy="146.29855" r="9.59781" gradientTransform="matrix(0.9985, 0.0556, -0.0556, 0.9985, 18.40669, -23.2014)" xlink:href="#radial-gradient"/>
    <radialGradient id="New_Gradient_Swatch_76-7" cx="279.31723" cy="149.08484" r="9.86842" gradientTransform="matrix(0.9985, 0.0556, -0.0556, 0.9985, 18.40669, -23.2014)" xlink:href="#New_Gradient_Swatch_76"/>
    <radialGradient id="radial-gradient-24" cx="270.4322" cy="165.91713" r="32.33233" gradientTransform="matrix(1, 0, 0, 1, 0, 0)" xlink:href="#radial-gradient"/>
    <radialGradient id="New_Gradient_Swatch_76-8" cx="273.54503" cy="168.19198" r="22.46141" gradientTransform="matrix(1, 0, 0, 1, 0, 0)" xlink:href="#New_Gradient_Swatch_76"/>
  </defs>
  <g style="isolation: isolate">
    <g id="Layer_1" data-name="Layer 1">
      <g>
        <g>
          <path d="M241.77411,116.04567a4.1448,4.1448,0,0,0-1.4697,1.2648,1.24979,1.24979,0,0,0-1.1282-1.7231c-3.3686-.3815-5.2972,3.9193-6.0351,6.2533a3.9957,3.9957,0,0,0-5.0064,1.3252c-2.0096,2.7039-1.5223,6.535-.452,9.5934a1.64176,1.64176,0,0,0-1.7191,1.1189c-1.19179,2.7526.7153,7.2255,2.4953,7.8893,2.9291,1.0922,16.5526-20.5551,16.7946-24.2032.1425-2.1476-2.00069-2.2631-3.4794-1.5186Z" transform="translate(-225.59256 -109.24071)" fill-rule="evenodd" fill="url(#radial-gradient)"/>
          <path d="M227.95091,133.33617c-2.5922-.6817-1.9793,5.5257-.4116,7.7722a2.56205,2.56205,0,0,0,.9196.6591c2.46791.9202,12.5278-14.3022,15.7791-21.3005.9339-3.7817-1.4233-5.8989-4.5708-1.7854a2.18159,2.18159,0,0,0-.522-2.063c-2.3338-1.2248-5.0927,3.8136-6.6717,7.9056.14231-.7214.2654-1.2417.4295-1.8514-6.1048-.3812-5.3494,7.5761-4.5424,11.6404l-.4097-.977Z" transform="translate(-225.59256 -109.24071)" fill-rule="evenodd" fill="url(#New_Gradient_Swatch_76)" style="mix-blend-mode: multiply"/>
        </g>
        <path d="M259.562,112.23407a31.6269,31.6269,0,1,1-31.6269,31.6269,31.62684,31.62684,0,0,1,31.6269-31.6269Z" transform="translate(-225.59256 -109.24071)" fill-rule="evenodd" fill="url(#radial-gradient-2)"/>
        <path d="M259.562,112.23407a31.6269,31.6269,0,1,1-31.6269,31.6269,31.62684,31.62684,0,0,1,31.6269-31.6269Z" transform="translate(-225.59256 -109.24071)" fill-rule="evenodd" fill="url(#radial-gradient-3)" style="mix-blend-mode: screen"/>
        <path d="M258.90691,163.91627c-.4795.1041-.8534-.049-1.111.2666-.35609.4362-.3302,1.0276.7814.9791.5249-.0229.0874.8638.534,1.0222a2.63157,2.63157,0,0,0,3.0377-.6704,1.6785,1.6785,0,0,1,1.1243-.6044c.546-.1351-.58149-.5216,1.0489-.855,1.7913-.3662.4917-.5839,1.697-1.6127.3541-.3022-.8602-1.1245.7441-1.601,1.2689-.3768,1.2084-.2756,1.3936-1.5239.0984-.663-.1793-.6026-.8269-.6901-.9014-.1219-.8948,1.2878-2.027,1.5823-.68719.1788-1.8781.747-1.7567,1.5761.14351.9809-.9962,1.7723-1.0234.0771-.0208-1.2932-.8179-1.2573-1.1094-.5975-.144.3255-.213.7889-.3462,1.0809-.2916.6384-.8016.7245-1.108,1.036a1.5877,1.5877,0,0,1-1.0524.5347Zm-6.84009-48.8055a2.35788,2.35788,0,0,0,.36949-.0771,6.5254,6.5254,0,0,1,.7582-.212,22.68428,22.68428,0,0,1,2.84031-.2572c.21319-.0008.38259.2002.59119.2442a3.682,3.682,0,0,0,.8739.0642,8.86046,8.86046,0,0,1,1.131-.1285,11.70209,11.70209,0,0,1,2.3905.4755c.6796.2158,1.2736.6479,1.9407.8997.4384.1654.9318.1619,1.3623.347a4.17652,4.17652,0,0,1,1.298.7968,6.61071,6.61071,0,0,1,.784,1.2467.18782.18782,0,0,0,.0386.0385c.3247.2795.6307.5828.97681.8354.35419.2587.77309.423,1.118.694a5.059,5.059,0,0,1,.86109.8611,6.158,6.158,0,0,1,.7841,1.2467c.3461.7713.5707,1.5919.8483,2.3905a23.50621,23.50621,0,0,1,1.2337,3.5985,11.446,11.446,0,0,1,.0515,3.8042,31.91245,31.91245,0,0,1-1.9535,7.6598c-.3098.7052-1.4359.6636-1.9536,1.2338-.5305.5845-.6117,1.472-1.0795,2.1077-.2197.2986-.7277.3034-.9254.6169-.8173,1.2966-1.29069,2.7849-2.0563,4.1127a5.508,5.508,0,0,1-1.2338,1.5936c-.887.7118-2.0017,1.0912-2.9302,1.7479-.4849.3429-.7602.9565-1.2852,1.2338-1.3196.6971-2.7877,1.0684-4.1641,1.6451-.16.067-.28209.2046-.437.2827-.7458.3765-1.4969.744-2.2619,1.0796a6.00315,6.00315,0,0,1-1.72219.6683c-.459.0463-.879-.3015-1.33671-.3599a4.035,4.035,0,0,0-1.0795.0514,4.59642,4.59642,0,0,0-1.23379.2828c-.54441.2442-.94521.7791-1.51651.951a1.03491,1.03491,0,0,1-.874-.2313c-.27849-.2188-.2827-.6863-.56549-.8996-.21471-.1621-.53391-.0713-.79681-.1286a5.3191,5.3191,0,0,1-1.7993-.4369c-.388-.2495-.5092-.7718-.7197-1.1824-.14219-.2775-.0699-.7082-.3341-.874-.2762-.1732-.6514.0718-.9768.0514-.2281-.0142-.5771.0554-.6682-.1542-.1382-.3178.2715-.7021.1541-1.0282-.0754-.2095-.3949-.2761-.6169-.2569-.3171.0273-.5561.4047-.8739.3855a1.55206,1.55206,0,0,1-.8225-.4884,6.4183,6.4183,0,0,1-1.0154-1.0924.9709.9709,0,0,1-.167-.5398c-.0046-.2067.2043-.4071.1413-.604-.0585-.1829-.3669-.1866-.44979-.3599-.07581-.1586.09169-.3639.02569-.5269-.0306-.0756-.1652.0073-.2442-.0129a4.76164,4.76164,0,0,1-1.2594-.3727.56139.56139,0,0,1-.2314-.5012c.016-.237.3471-.4082.3085-.6426-.036-.2183-.3024-.3299-.4884-.4498a4.05538,4.05538,0,0,0-.4884-.18c-.0155-.0072-.00339-.0345,0-.0514a1.68717,1.68717,0,0,1,.1028-.4498c.0915-.1756.2797-.2878.3727-.4626a1.335,1.335,0,0,0,.16711-.5527c.00469-.0995-.03411-.238-.12851-.2699-.2976-.1004-.6329-.0158-.9382-.0899a.731.731,0,0,1-.3856-.2314.85834.85834,0,0,1-.2314-.5141c0-.7323.2255-1.4525.2315-2.1848a2.96876,2.96876,0,0,0-.2057-.9768,10.03455,10.03455,0,0,1-.51409-1.1053,2.10723,2.10723,0,0,1,.07709-.951,7.65525,7.65525,0,0,1,.4113-.9253,4.80748,4.80748,0,0,0,.3341-.8997,5.11147,5.11147,0,0,0,.0257-1.0024,11.6948,11.6948,0,0,1-.0514-1.568,4.50025,4.50025,0,0,1,.437-1.4908,8.63382,8.63382,0,0,1,.9254-1.1567,3.53534,3.53534,0,0,0,.35981-.5398,7.38461,7.38461,0,0,0,.35989-.8996c.1433-.415.2147-.8551.3855-1.2595a7.49558,7.49558,0,0,1,.874-1.7222c.2741-.3534.7565-.4876,1.0795-.7968a6.6272,6.6272,0,0,0,.7197-.9254,7.91258,7.91258,0,0,1,.7969-1.1567c.2356-.2247.6414-.2088.874-.4369.24351-.239.2486-.6569.4883-.8997.46-.4657,1.1025-.7221,1.568-1.1824a5.70748,5.70748,0,0,0,.7197-1.0795,7.10736,7.10736,0,0,1,.7197-1.2081,2.15258,2.15258,0,0,1,.874-.4627c.5255-.1842,1.0947-.2243,1.6193-.4112a3.32658,3.32658,0,0,0,.6169-.3856c.5405-.3416,1.0953-.6619,1.6194-1.0282.3597-.2514.652-.5964,1.0281-.8225a5.84253,5.84253,0,0,1,1.1953-.5141c.1927-.0633.4101-.0172.604-.0771.2141-.0661.38981-.2296.604-.2956a6.8959,6.8959,0,0,1,1.1053-.2314c.2772-.0375.56-.0068.83851-.032Zm17.28419,2.3223a.74369.74369,0,0,0-.45519.0793c-.03451.4339-.15761.2917.08229.698.4315.7307-.4924.762.1384,1.6131.1722.2323.9652-.1406.98531.3375.01469.3534.84219-.1537,1.18669.9155a2.2567,2.2567,0,0,1,.3202.6524c.266,1.1187-.692.3207-.4542,1.2038.0836.3102.5352.1295.5666.6565.00271.0468.6145.486.6951.8482.16161.7267.9393.6332.9253-.348a3.05773,3.05773,0,0,0-.0084-1.1813c-.1844-.5657-.2209-1.5998-.7381-2.0413-.1611-.1375-.7315-.2928-.7315-.5141,0-1.3741-.8001-.6422-.88569-1.6729-.02881-.3475-.828-.3274-.86321-.7326a.76081.76081,0,0,0-.6845-.5141Zm-1.0939,27.1386c-1.34729-.1935-.4978,1.2579-1.3805,1.9317-.2837.2166-.4147,1.1087-.69479,1.2874-.32661.2083-.28831,1.4817,1.11089.5649.8553-.5605-.0181-.6764,1.9608-.587a.994.994,0,0,0,1.0108-1.5428c-.4732-.8436.8538-.5781.2831-1.6597-.4339-.8223.688-.4409,1.181-2.0719.3715-1.2291-.583-.1225-.4508-1.5554.0375-.4069-.6019-.2123-.9304.1381-1.073,1.1441-.76739.362-.79339,2.132-.00621.4275-.56131.5128-.98311.8671-.3574.3001-.1416.5203-.3136.4956Zm-5.9045,8.0954c-1.5441-.314-1.6755.8171-2.0883,1.131-.0913.0694-.0413.5452-.6874.6984a5.40117,5.40117,0,0,1-1.941.6382c-.2929-.0072-2.2725,1.5775-.1263,1.5188,1.0558-.029,2.2176-1.1258,3.7719-1.0818a2.59426,2.59426,0,0,0,2.1055-1.1589c.277-.737,1.5195-.2176,1.341-1.6686-.0604-.4919.5097-.3583.4906-1.1478a6.30039,6.30039,0,0,0-.0206-1.1769c-.152-.742-.7619-.6595-.9548.3072a1.48956,1.48956,0,0,1-.6631,1.0408c-.6366.4093-.7361-.0992-1.0391.8292-.0321.0981-.0966.0891-.1884.0704Zm3.9985-13.8079c-.7979.1945-.1857,1.4232-.9064,1.9279-.2797.1958.4046.7473-.6771,1.4585-.4614.3033-.4744,1.5674-1.8573,2.2957a3.61316,3.61316,0,0,1-1.5056.6815c-.67489.053-.4745.4654-1.2874.5655-.11349.014-1.714,1.0173-1.7522.6492-.1076-.0221-.0471-.7714.6381-.9018a6.68,6.68,0,0,1,.8335-.456c1.5682-.5636,1.343-1.8237,1.58711-1.8831.50629-.123,1.02739-1.3231,1.47179-1.4137a1.16213,1.16213,0,0,0,.3965-1.2998c-.1877-.4085.5463-1.2919,1.0899-1.2963,1.275-.0103.0279-1.1121,1.3991-1.3924.3766-.077.3756-.5496.61471-.6213,1.19569-.3586,1.05239-3.853,1.82269-3.3563.012.0078.9862,2.5613.3107,2.8679-1.2917.5862.4042,1.3407-.92539,2.0754-.42131.2329-.83461-.0028-1.25271.0991Z" transform="translate(-225.59256 -109.24071)" fill-rule="evenodd" fill="url(#radial-gradient-4)" style="mix-blend-mode: screen"/>
        <path d="M269.44482,164.26427c-1.66361.0377-1.41441-.8831-2.84731.6556-.447.4801-.9448,1.0433-1.1625,1.2465a5.40006,5.40006,0,0,1-.9768.7711c-.36739.2099-.8331.2237-1.1823.4626-.3207.2194-.415.7188-.7712.874-1.0238.4462-2.2115-.5721-3.1873-.6683-2.0219-.1994-3.517,1.37-4.72959,1.6964-.341.0919-.69381-.3713-1.02811-.257-.4127.1412-.5055.8069-.9254.9253a1.223,1.223,0,0,1-1.07949-.3598c-.73111-.6955-.91731-2.0838-2.10781-2.6733-1.57819-.7816-5.8186-1.8714-6.83719-2.7246-.72881-.6103-.90361-1.711-1.59371-2.3648-.33829-.3206-.9697-.1237-1.3366-.4112-.55569-.4355.2832-1.3174-1.7736-1.2352-2.06309.0825-3.3935,1.646-2.7503-3.3402.0628-.4869.3443-1.6958-.5655-1.0795-.63329.429-1.4094,1.7278-2.5704,1.388-.3754-.1099-.55289-.6372-.5655-1.0282a7.52049,7.52049,0,0,1,.4627-2.1591c.2872-1.0565.728-2.0697.9768-3.1359.2382-1.0212-.4157-1.1547-.9254-.6169a12.54582,12.54582,0,0,1-1.5937,1.7993c-.7301.5192-1.1309-.9962-1.0281-1.5937a5.42236,5.42236,0,0,1,.8739-1.8507c.1705-.2752.2128-.506-.1607-.3727-.33.1179-.7828.3176-1.17589.4241-.166.0449-.36621-.0395-.257-.3084a10.13657,10.13657,0,0,0,.97669-3.0844c.0267-.4317-.5925-.6663-.71969-1.0797-.09121-.2965.15549-.6195.10279-.9253-.0379-.2202-.35979-.3421-.35979-.5655a11.79262,11.79262,0,0,1,.35979-1.7993,5.62347,5.62347,0,0,0,.1286-1.2852c-.0473-.6326-.58639-.4559-.6893-1.3081a31.62894,31.62894,0,1,0,42.8-23.8258q.15105.08.301.1625c1.576.8675.935,1.229,1.1567,1.5165a2.3746,2.3746,0,0,0,.694.4884c.6419.3926,1.3493.6827,1.9535,1.1309a2.22353,2.22353,0,0,1,.437.6426,8.14185,8.14185,0,0,0,.694,1.1053c.2072.2291.6366.236.7711.5141.1567.3239.0694.6179.3085.8868.3369.3791,1.203.098,1.7478,1.3237.1677.3774-.1589,1.5573.15431,2.262a6.32739,6.32739,0,0,0,1.07949,1.5422c.5507.6293,1.3737,1.0283,1.7993,1.748a4.42586,4.42586,0,0,1,.6941,1.8764,1.70318,1.70318,0,0,1-.2057.8739c-.1596.3003-.6324.4329-.6683.7711-.17289,1.6253,2.7708,5.3576,3.4186,7.4284a17.72918,17.72918,0,0,1,.8226,5.3979c-.0037.463-.56309,1.4226-.874,1.0796-.718-.7923-.1233-3.1554-1.0282-4.3955-.9258-1.2687-1.175,1.1491-1.13089,1.5681.24859,2.363,1.62989,2.7915.46259,5.1922-.1072.2206-.7637.7385-.9767.6169-.293-.1675-.165-.6946-.4113-.9254-.1068-.1001-.3228.0376-.4112.1542a2.77906,2.77906,0,0,0-.7198,1.3366,21.21782,21.21782,0,0,0,.4113,2.519,3.39243,3.39243,0,0,1-.257,1.0925,6.50034,6.50034,0,0,1-.3856,1.0282c-.1381.2762-.3939.4865-.5141.7711-.1407.3331-.1468.7095-.257,1.0539a3.15552,3.15552,0,0,1-.3599.8739c-.2126.3023-.6166.4484-.7968.7711-.2026.3629-.0829.8591-.3084,1.2081-.1627.2518-.6112.2092-.7712.4627-.2206.3498-.0275.8826-.2827,1.208-.1548.1974-.5864-.0911-.7454.1029-.2583.3149-.0621.858-.3085,1.1823a.74791.74791,0,0,1-.7454.2057c-.18589-.0499-.162-.3635-.3084-.4884-.838-.7146-.8432-.0878-1.1053.2057a.58437.58437,0,0,1-.7454.1028c-.4757-.2276-.5821-1.2209-.7454-1.6194-.1335-.3255-.72339-.11-.92539.3342-.18431.4053-.10221.8934-.257,1.3109-.05081.1367-.28961.1438-.33421.2827-.3047.9482.1275,1.904-1.131,2.6475a2.02945,2.02945,0,0,1-.97679.2571Z" transform="translate(-225.59256 -109.24071)" fill-rule="evenodd" fill="url(#radial-gradient-5)" style="mix-blend-mode: multiply"/>
        <path d="M228.03582,138.162c-.33151.902-1.06481,2.4639-1.07961,2.6732-.0152.2173.3913,1.2538.4113,1.9021.0151.4905-.3622,1.2731-.3085,1.4395a31.03206,31.03206,0,0,1,1.0796,5.552c.0668.5123-.2116,1.3715-.1542,1.5423.0996.2963,1.0822,2.2271,1.4909,3.3929.1779.5078-.0193,1.132.257,1.5937,1.14851,1.9198,1.3649,3.7379,2.0563,5.6035a21.98452,21.98452,0,0,0,1.7993,1.3366c1.6911,1.4495,1.8624,2.1812,2.9816,3.3929a17.93405,17.93405,0,0,0,2.5961,2.3648c.6354.4618,1.4428.6357,2.1078,1.0539.4735.2977.8007.7997,1.2852,1.0795a22.47648,22.47648,0,0,0,2.8531,1.3109,11.55364,11.55364,0,0,0,1.2556.3486,1.88064,1.88064,0,0,1-.6937-.4765c-.0747-.0878-.0211-.2416-.0899-.3341-.0773-.1039-.2602-.1044-.3213-.2185-.05259-.0985.0773-.2352.0257-.3342-.0649-.1245-.2205-.1745-.3342-.257-.1048-.076-.267-.1009-.3213-.2185-.0413-.0897.10021-.1844.09-.2827a.51421.51421,0,0,0-.1542-.3342c-.185-.1582-.4753-.1703-.64259-.347a.359.359,0,0,1-.05141-.3856c.0826-.1511.3616-.135.4241-.2956.0515-.1327-.057-.2944-.1542-.3984-.1008-.1077-.2712-.1182-.39849-.1927-.12191-.0716-.347-.1028-.347-.2442,0-.1164.23349-.0639.347-.0386.25929.058.481.2575.74549.2828.1632.0156.3048-.123.4626-.1671a1.05,1.05,0,0,1,.5013-.1029c.201.0483.3279.2571.514.347a.80157.80157,0,0,0,.2571.0258,6.24127,6.24127,0,0,0,1.0153.1285.49817.49817,0,0,0,.4241-.1928.54271.54271,0,0,0-.0514-.5269.60822.60822,0,0,0-.4884-.2313c-.2187.0051-.3925.2009-.604.257a.82535.82535,0,0,1-.4627.0257c-.27639-.093-.4826-.3417-.7583-.437-.1946-.0673-.45609.0904-.6169-.0385-.5279-.4238-.8474-1.0615-1.3366-1.5295a.5299.5299,0,0,0-.4241-.1542c-.3123.0525-.5673.2937-.8739.3727-.1057.0273-.2121-.0627-.3213-.0642-.18929-.0027-.3809.0929-.5655.0514a.79889.79889,0,0,1-.4627-.2828c-.0902-.1224-.0297-.3053-.07709-.4498-.04361-.1329-.06871-.3083-.19281-.3727-.3599-.1866-.807-.1528-1.1696-.3341-.0921-.0461-.021-.2192-.0899-.2956-.1756-.1948-.4353-.2993-.6169-.4884-.0387-.0402-.0643-.1887-.0129-.1671.1919.0808.3134.283.5013.3727.1089.052.2512-.0138.35981.0386.14219.0686.20659.2701.35989.3084.233.0583.4814-.0691.7197-.0386.2703.0346.5123.2109.7839.2314.0924.007.2271-.0617.2314-.1542.015-.3181-.2442-.6264-.17989-.9383a.435.435,0,0,1,.437-.3084c.22189.0335.28029.4097.50119.4498.30581.0556.60181-.183.9125-.1928.24431-.0076.4874.2176.7197.1414.1277-.0418-.0516-.3302.0643-.3984.1145-.0673.2399.1463.3727.1414.1205-.0044.2007-.1649.3213-.1671.1344-.0024.2386.1456.3727.1543a1.89653,1.89653,0,0,0,.6169-.09.84645.84645,0,0,0,.4113-.1928.86873.86873,0,0,0,.2056-.4755.48951.48951,0,0,0-.1028-.3471c-.1476-.1889-.422-.2667-.5398-.4755-.05459-.0968.114-.2128.09-.3213-.04859-.2187-.2547-.3836-.29559-.604-.01961-.1056.13989-.1888.12849-.2956-.0168-.1562-.202-.2671-.2057-.4241-.0017-.0749.207-.0422.1928-.1157-.0483-.2501-.2821-.4348-.347-.6812a.23432.23432,0,0,1,.1028-.2442.5028.5028,0,0,1,.4499-.0514c.347.1936.55571.5771.88671.7969a1.50683,1.50683,0,0,0,.68109.2442c.1444.0136.3465-.0117.4113-.1413.0661-.1322-.15539-.2789-.1285-.4242.0225-.1221.2409-.1467.257-.2699.0127-.0963-.2614-.1498-.1928-.2185.0911-.091.2638.0674.3856.0257.2308-.0789.3928-.3151.6297-.3726.1007-.0245.1724.1192.2699.1542a1.46048,1.46048,0,0,0,.5912.1542c.17-.0147.2891-.187.4499-.2442.1558-.0555.36861.0243.4883-.0899.1101-.1051.0137-.3116.0771-.4499.0368-.0803.1361-.2215.2057-.167.1072.0838.1021.2628.0899.3983-.0146.1633-.1497.2997-.167.4627-.0062.058.1013.0832.1028.1414.0031.1236-.14319.2482-.09.3598a.92087.92087,0,0,0,.4884.4756,1.10627,1.10627,0,0,0,.7197-.0515,1.06317,1.06317,0,0,0,.5912-.4241c.0906-.1661-.16549-.4144-.0514-.5654.0981-.1299.3386.051.4884-.0129.1617-.0689.3598-.186.38551-.3598.03129-.2109-.24831-.3781-.24421-.5913a.985.985,0,0,1,.2699-.7197c.311-.2682.7857-.2661,1.131-.4883.0649-.0418.0279-.1657-.0128-.2314-.0458-.0736-.1677-.0711-.2185-.1414a2.50455,2.50455,0,0,1-.3856-.6939.26251.26251,0,0,1,.0771-.2828c.1129-.0701.2828.0525.3984-.0129.10871-.0614.0826-.2625.1928-.3212.1721-.0919.40891.0068.5784-.09a2.32555,2.32555,0,0,0,.6811-.6298c.0516-.0685.0201-.1778-.0128-.257-.0351-.0841-.1671-.1155-.18-.2057a.48632.48632,0,0,1,.09-.4241c.1819-.1606.4998-.0958.6811-.257.1197-.1063.0228-.3426.1286-.4627.0783-.0889.2903.027.347-.0771a1.66,1.66,0,0,0,.2056-.9382.41427.41427,0,0,0-.33409-.3213,1.9119,1.9119,0,0,0-.77121.1542c-.0721.0202-.11879.1037-.1927.1157-.1187.0193-.3045.081-.3599-.0257-.0565-.109.1396-.2054.1799-.3213.0297-.0854-.0168-.1902.0257-.2699.1289-.2412.362-.4196.4756-.6683.07161-.1571.1961-.4026.0642-.5141a1.28154,1.28154,0,0,0-.89959-.1928c-.19891.0125-.33441.2315-.527.2828-.266.0709-.58881-.0685-.82251.0771-.1598.0996-.0626.3831-.1671.5398-.0543.0815-.2018.0455-.2699.1158a.48865.48865,0,0,0-.12849.2955c-.018.2313.21169.5264.05139.6941-.1416.1482-.43739.0036-.6041-.1157-.1526-.1094-.1001-.3981-.257-.5012a.84406.84406,0,0,0-.7197-.1414,1.87605,1.87605,0,0,0-.73259.7068c-.119.1615-.01081.5175-.20561.5655-.2742.0677-.515-.4072-.784-.3213-.34939.1116-.5648.4904-.74539.8097-.07611.1344.12569.345.02569.4627-.1005.1182-.3192-.0077-.46269.0514-.15841.0652-.24251.2785-.41121.3084-.1379.0245-.2461-.1797-.3856-.167-.1313.0119-.1981.184-.3213.2313-.2725.1048-.5815.0999-.8482.2184-.1302.0579-.1763.2427-.3085.2957-.1234.0493-.2766-.0661-.3984-.0129-.1724.0754-.2373.3949-.4241.3727-.43769-.052-.7546-.5744-1.1953-.5655-.3098.0063-.4029.5433-.7068.6041-.1782.0356-.2077-.3487-.38559-.3856-.20561-.0427-.40051.1284-.604.1799-.29521.0747-.74311-.0651-.75821-.3212a2.30668,2.30668,0,0,1,1.6193-1.7865c.502-.1601,1.0636.1135,1.5808.0129a1.32355,1.32355,0,0,0,.7968-.4756.60537.60537,0,0,0-.02569-.5655c-.10421-.2369-.43061-.3516-.48841-.604-.0389-.1699.1696-.3051.2442-.4627.0796-.1682.0363-.4759.2185-.5141.1696-.0355.2784.2344.3341.3985.029.0852-.0971.156-.1156.2442-.0336.1597-.1103.3417-.0386.4884.04881.0999.2102.0864.3213.0899.1726.0053.3423-.0814.5141-.0643.2213.0222.4296.2439.6426.1799a.62956.62956,0,0,0,.3855-.4884c.04231-.2562-.1799-.4985-.1799-.7582a4.39972,4.39972,0,0,1,.1799-1.388c.0749-.2248.3694-.322.4627-.5398.1957-.4565.1513-1.0015.38561-1.4394a5.769,5.769,0,0,1,1.18239-1.4909c.33561-.3101.8305-.4024,1.1823-.694.2587-.2143.3328-.6177.6169-.7968.5303-.3343,1.2361-.3321,1.7479-.694a2.78952,2.78952,0,0,0,.7968-1.1053c.11771-.2419.26571-.5654.1286-.7968-.0934-.1576-.3947-.0088-.5398.1028-.4323.3325-.70109.8468-1.131,1.1824a17.6676,17.6676,0,0,1-1.7993,1.1053,7.86791,7.86791,0,0,0-1.05379.6169c-.28891.2428-.44071.6199-.71981.8739a10.43886,10.43886,0,0,1-1.8506,1.4651c-.4661.2613-1.0842.1621-1.5423.437-.23329.14-.1289.6294-.3856.7197-.3235.1138-.6652-.2937-1.0024-.2313-.2039.0377-.2991.2999-.3856.4883-.1571.3424-.10469.7809-.3341,1.0796-.1727.225-.5599.1707-.7711.3599-.3768.3373-.577.842-.9511,1.1823a2.5533,2.5533,0,0,1-1.0539.6427,1.18809,1.18809,0,0,1-.9253-.1542c-.2173-.1508-.18919-.4986-.3341-.7198-.2004-.3054-.3586-.7036-.69409-.8482-.20771-.0895-.438.1444-.61691.2828-.2827.2187-.4008.6759-.7454.7711-.3952.1092-.8042-.3015-1.2081-.2314-.2567.0446-.3051.5293-.5654.5398a.818.818,0,0,1-.6941-.4884c-.1067-.2376.1553-.5119.1286-.7711-.0265-.2563-.3383-.468-.2828-.7197a10.62367,10.62367,0,0,1,.77111-1.4908c.07969-.2005.22039-.4814.07719-.6426-.1153-.1296-.3175.1506-.4884.1799-.3815.0656-.8001.2532-1.1567.1028a.86374.86374,0,0,1-.4884-.7968c.0202-.2392.4735-.202.5911-.4113.1355-.2408-.0132-.5718.1029-.8225a.456.456,0,0,1,.3856-.2314c.2329-.0055.4468.278.6683.2057.2707-.0884.32541-.5147.5912-.6169.3359-.1292.7473.1127,1.0796-.0257.1575-.0656.1703-.3185.1542-.4884-.037-.389-.3684-.7449-.3085-1.131.0331-.2136.4266-.1757.5398-.3598.11311-.1837-.0344-.458.07711-.6426a2.13186,2.13186,0,0,1,.74539-.7197c.3767-.2201.94661-.1087,1.2338-.437.2201-.2515-.02919-.6728.0257-1.0025a3.55065,3.55065,0,0,1,.3342-1.1567c.0728-.1306.3218-.06.4113-.1799.2517-.3379.2592-.8415.5654-1.131a1.16346,1.16346,0,0,1,.8483-.2056c.2654.0128.4797.2828.7454.2828.15251,0,.2092-.3064.3598-.2828.2039.0318.257.3969.46271.4113a.66331.66331,0,0,0,.64259-.3342c.137-.3612-.1072-.7714-.0771-1.1567.0062-.0786.107-.1842.1799-.1542a4.07066,4.07066,0,0,1,.694.5141,4.86964,4.86964,0,0,0,.9768.6426.476.476,0,0,0,.5141-.0771,15.18567,15.18567,0,0,0,.6169-1.4137,2.25509,2.25509,0,0,1,.7711-.874c.43271-.2314,1.0353-.0301,1.4394-.3084a7.28343,7.28343,0,0,0,1.2852-1.568,6.21949,6.21949,0,0,1,.77111-.951c.27249-.2237.61669-.5741.95109-.4627.2412.0804-.2843.4223-.4113.6426-.1645.2856-.6189.5837-.4626.874.1339.2488.562-.096.8225-.2057.23431-.0987.4485-.5755.6426-.4112.1932.1634-.1396.5054-.3085.694a6.04283,6.04283,0,0,1-1.23379,1.0281c-.21171.1365-.53281.0623-.71971.2314-.2045.1851-.1648.5503-.3598.7454-.4544.4543-1.0847.7055-1.5423,1.1567a.94611.94611,0,0,0-.3084.6683c.0049.1142.2223-.0536.3341-.0772a2.68457,2.68457,0,0,1,.6426-.1285c.2223.0089.4241.2212.6426.18.2758-.0521.4393-.4487.7197-.437.1579.0065-.0197.3283-.10279.4627-.21461.3471-.55781.603-.77111.951-.1175.1918-.4216.5799-.2056.6426.3469.1007.712-.1966,1.0024-.4113.5116-.3781.81531-1.0118,1.36231-1.3366.28819-.171-.40551.5412-.53971.8483-.0515.1177-.0879.2918,0,.3855.0881.094.2631.0657.3855.0257a1.93139,1.93139,0,0,0,.9511-.4626c.4424-.5441.5449-1.3048.951-1.8764.0857-.1206.4642-.2225.437-.0771-.1153.6147-.6071,1.1121-.7454,1.7221-.0273.1205.19851.2621.3084.2057a6.22669,6.22669,0,0,0,1.5937-1.1824c.487-.4982.7763-1.1601,1.2209-1.6965a3.4787,3.4787,0,0,1,.7711-.7068c.11241-.0728.2745-.0007.39841-.0514.238-.0975.41419-.3462.66829-.3856.27571-.0428.549.2089.8226.1542a1.29672,1.29672,0,0,0,.7197-.4627c.1333-.1647.0153-.4568.1542-.6169.2774-.3196.7686-.411,1.02821-.7454.07979-.1029-.06071-.2944-.18-.347a2.008,2.008,0,0,0-1.01531-.1799c-.222.0253-.35169.2952-.5654.3598-.1724.0522-.3872-.1212-.5398-.0257-.4444.2782-.6926.813-1.1439,1.0796-.1045.0617-.2401-.1266-.2699-.2442a1.54365,1.54365,0,0,1,.0129-.7711,2.99072,2.99072,0,0,1,.4431-.906,1.12734,1.12734,0,0,1,.4627-.3984,8.00931,8.00931,0,0,1,1.8507-.5912,1.77428,1.77428,0,0,1,.9382.1414c.01871.0077.0784.6389.5141.4755.1947-.073.1964-.3711.3341-.5269.1272-.1439.3793-.1813.4498-.3599a1.17972,1.17972,0,0,0-.0128-.7454c-.01549-.0531-.2107-.113-.3373-.135-.3353-.0581-.6194.2277-.7808.2635a.30132.30132,0,0,1-.2956-.1157c-.03779-.0578.0436-.1443.1028-.1799.1137-.0682,1.1103-.3634,1.3366-.4498a13.12918,13.12918,0,0,1,1.7351-.6812c.2179-.0492.4345.175.6554.1414.2034-.0309.3245-.2845.527-.3213a.32989.32989,0,0,1,.3212.1671c.1185.2338-.0303.5851.1543.7711.4072.4104,1.05081.5117,1.49081.8868.246.2098.282.5974.51409.8226.2105.2042.4904.5092.7711.4241.2056-.0625.0113-.4372-.0514-.6427a11.04635,11.04635,0,0,1-.5526-1.3366c-.0511-.31.2106-.6126.1799-.9253-.0236-.2402-.3847-.4066-.3342-.6426.0832-.3882.5565-.6.6812-.9768a1.1067,1.1067,0,0,0-.09-.8097.52509.52509,0,0,0-.42409-.2184c-.25381-.0248-.50321.1044-.75821.1028a5.9485,5.9485,0,0,0-1.23379-.1157,2.02313,2.02313,0,0,0-.84831.5527c-.1612.1425-.1915.411-.37269.5269-.36121.231-.82081.2667-1.19521.4755-.263.1467-.4213.451-.6941.5783a9.66073,9.66073,0,0,1-1.8378.6041,12.68677,12.68677,0,0,1-2.172.3598.41691.41691,0,0,1-.3213-.2056.18974.18974,0,0,1,.0128-.2313c.1671-.1351.4393-.1051.5912-.2571a1.90663,1.90663,0,0,0,.4498-.7839c.08261-.2665.27461-.668.0515-.8354-.2756-.2067-.7134-.0368-1.0282.1028a1.417,1.417,0,0,0-.5655.604c-.0645.1065-.0004.2509-.0257.3728-.0181.0864-.0187.2171-.1028.2441-.3242.1044-.7021-.0179-1.0153.1157a15.65434,15.65434,0,0,0-1.5166.9639,11.02564,11.02564,0,0,1-1.388.694,8.82455,8.82455,0,0,1-1.7221.5398.75206.75206,0,0,1-.5655-.1414c-.078-.0602.0405-.2058,0-.2956-.0475-.1048-.2757-.1334-.24419-.2442.10389-.366.463-.6184.59109-.9767a.40589.40589,0,0,0-.09-.4241c-.0976-.0787-.25809.0004-.3727.0514a7.8818,7.8818,0,0,0-1.388.7326c-.2985.2127-.4706.5695-.7583.7968a1.34566,1.34566,0,0,1-.5269.2185.10369.10369,0,0,1-.1157-.0643c-.0174-.0941.0727-.1893.05151-.2827a.48451.48451,0,0,0-.18-.2827.326.326,0,0,0-.30841-.0643,1.88053,1.88053,0,0,0-.5655.5141c-.1014.125-.0659.3571-.2056.437-.3741.2137-.8552.18-1.2338.3855-.1453.0789-.13369.3141-.2571.4241-.0543.0485-.1954.0691-.2185,0-.038-.1144.09191-.2268.10291-.347.00669-.0744-.09971-.1613-.05151-.2184.2781-.329.69-.5286.964-.8611a.17439.17439,0,0,0-.0643-.2314.62847.62847,0,0,0-.50119-.0128,21.32085,21.32085,0,0,0-2.67331,1.5551.35553.35553,0,0,0-.1028.3341c.0129.0902.2253.1267.18.2057-.1583.2759-.4874.416-.6812.6683-.0825.1074-.045.2789-.1285.3855-.0805.103-.2713.0911-.33419.2057a6.72094,6.72094,0,0,0-.38551,1.1052,1.70154,1.70154,0,0,1-.1414.4499c-.10609.1519-.3032.2193-.42409.3598a9.24308,9.24308,0,0,1-.92541,1.2081,1.12661,1.12661,0,0,1-.7454.1799c-.0968-.0026-.1117-.1818-.2056-.2056-.1951-.0495-.4135.0647-.6041,0a.18492.18492,0,0,1-.0771-.2313,11.2693,11.2693,0,0,1,.82261-1.2467c.27569-.4032.59849-.7753.84819-1.1952a.2047.2047,0,0,0,0-.2313c-.0534-.0503-.1571-.0144-.2185.0256-.1446.0944-.2376.2524-.37269.3599-.07641.0608-.19151.069-.257.1414-.06571.0725-.05281.195-.11571.2699-.3899.4642-.852.8657-1.2338,1.3366-.2626.3239-.3808.7658-.694,1.041-.1461.1284-.4024-.0057-.5784.0771-.4182.1968-.7459.5604-1.1695.7454-.0694.0303-.1683-.0926-.1542-.1671.0243-.1288.18961-.1892.2442-.3084.1105-.2414.0763-.5526.2442-.7583.063-.0771.181.1736.2699.1286a2.11409,2.11409,0,0,0,.694-.6169c.485-.6343.8398-1.3602,1.3108-2.005.4128-.5651.9197-1.0573,1.3366-1.6194a4.24174,4.24174,0,0,0,.437-.7711c.0182-.0397.01791-.1311-.0257-.1285-.2168.0127-.4128.1744-.6298.167-.0771-.0026-.1623-.1233-.12859-.1928.33549-.6914.81979-1.3016,1.18239-1.9792.0642-.12.1494-.2759.09-.3985-.0432-.0889-.2036-.0619-.2956-.0256a2.15921,2.15921,0,0,0-.6812.4112c-.6167.574-1.0901,1.2958-1.735,1.8379-.257.216-.6748.1749-.9253.3984-.5604.4998-.8775,1.2391-1.4524,1.7222a7.49937,7.49937,0,0,1-1.9278,1.1181.346.346,0,0,1-.3598-.1542c-.0577-.0809-.0095-.2087.0385-.2956.1789-.3233.4696-.5795.6298-.9125.1185-.2462.032-.5759.1928-.7969.2364-.3251.6615-.4665.9382-.7582a9.43832,9.43832,0,0,0,.951-1.2338c.0849-.126.2785-.3208.1671-.4241-.1305-.1212-.3773-.0069-.527.0899a16.94847,16.94847,0,0,0-1.6964,1.3495,10.94118,10.94118,0,0,0-1.4137,1.2852c-.23.2772-.1875.7443-.4627.9767-.2715.2294-.74089.0735-1.0282.2828-.3462.2522-.4816.7125-.7711,1.0281-.2831.3086-.6979.4926-.9382.8354-1.1043,1.5758-1.3462,3.0327-1.98139,4.761Z" transform="translate(-225.59256 -109.24071)" fill-rule="evenodd" fill="url(#New_Gradient_Swatch_22)"/>
        <path d="M238.19131,134.49357c-.1461.1284-.4024-.0057-.5784.0771-.4182.1968-.7459.5604-1.1695.7454-.0694.0303-.1683-.0926-.1542-.1671.0243-.1288.18961-.1892.2442-.3084.1105-.2414.0763-.5526.2442-.7583.063-.0771.181.1736.2699.1286a2.11409,2.11409,0,0,0,.694-.6169c.485-.6343.8398-1.3602,1.3108-2.005.4128-.5651.9197-1.0573,1.3366-1.6194a4.24174,4.24174,0,0,0,.437-.7711c.0182-.0397.01791-.1311-.0257-.1285-.2168.0127-.4128.1744-.6298.167-.0771-.0026-.1623-.1233-.12859-.1928.33549-.6914.81979-1.3016,1.18239-1.9792.0642-.12.1494-.2759.09-.3985-.0432-.0889-.2036-.0619-.2956-.0256a2.15921,2.15921,0,0,0-.6812.4112c-.6167.574-1.0901,1.2958-1.735,1.8379-.257.216-.6748.1749-.9253.3984-.5604.4998-.8775,1.2391-1.4524,1.7222a7.49937,7.49937,0,0,1-1.9278,1.1181.346.346,0,0,1-.3598-.1542c-.0577-.0809-.0095-.2087.0385-.2956.1789-.3233.4696-.5795.6298-.9125.1185-.2462.032-.5759.1928-.7969.2364-.3251.6615-.4665.9382-.7582a9.43832,9.43832,0,0,0,.951-1.2338c.0849-.126.2785-.3208.1671-.4241-.1305-.1212-.3773-.0069-.527.0899a16.94847,16.94847,0,0,0-1.6964,1.3495c-.2557.2166-.5212.4254-.7746.646-.0364.1345-.0745.2683-.1198.3996a7.38461,7.38461,0,0,1-.35989.8996,3.53534,3.53534,0,0,1-.35981.5398,8.63382,8.63382,0,0,0-.9254,1.1567,4.50025,4.50025,0,0,0-.437,1.4908,11.6948,11.6948,0,0,0,.0514,1.568,5.11147,5.11147,0,0,1-.0257,1.0024,4.80748,4.80748,0,0,1-.3341.8997,7.65525,7.65525,0,0,0-.4113.9253,2.10723,2.10723,0,0,0-.07709.951,10.03455,10.03455,0,0,0,.51409,1.1053,2.96876,2.96876,0,0,1,.2057.9768c-.006.7323-.2315,1.4525-.2315,2.1848a.85834.85834,0,0,0,.2314.5141.731.731,0,0,0,.3856.2314c.3053.0741.6406-.0105.9382.0899.0944.0319.1332.1704.12851.2699a1.335,1.335,0,0,1-.16711.5527c-.093.1748-.2812.287-.3727.4626a1.68717,1.68717,0,0,0-.1028.4498c-.00339.0169-.0155.0442,0,.0514a4.05538,4.05538,0,0,1,.4884.18c.186.1199.4524.2315.4884.4498.0386.2344-.2925.4056-.3085.6426a.56139.56139,0,0,0,.2314.5012,4.76164,4.76164,0,0,0,1.2594.3727c.079.0202.2136-.0627.2442.0129.066.163-.1015.3683-.02569.5269.08289.1733.39129.177.44979.3599.063.1969-.1459.3973-.1413.604a.9709.9709,0,0,0,.167.5398,6.4183,6.4183,0,0,0,1.0154,1.0924,1.55206,1.55206,0,0,0,.8225.4884c.3178.0192.5568-.3582.8739-.3855.222-.0192.5415.0474.6169.2569.1174.3261-.2923.7104-.1541,1.0282.0911.2096.4401.14.6682.1542.3254.0204.7006-.2246.9768-.0514.2642.1658.19191.5965.3341.874.2105.4106.3317.9329.7197,1.1824a5.3191,5.3191,0,0,0,1.7993.4369c.2629.0573.5821-.0335.79681.1286.28279.2133.287.6808.56549.8996a1.03491,1.03491,0,0,0,.874.2313c.5713-.1719.9721-.7068,1.51651-.951a4.59642,4.59642,0,0,1,1.23379-.2828,4.035,4.035,0,0,1,1.0795-.0514c.45771.0584.87771.4062,1.33671.3599a6.00315,6.00315,0,0,0,1.72219-.6683c.765-.3356,1.5161-.7031,2.2619-1.0796.15491-.0781.277-.2157.437-.2827.6462-.2708,1.3125-.4961,1.9741-.7313a.34473.34473,0,0,1,.0583-.218c.0783-.0889.2903.027.347-.0771a1.66,1.66,0,0,0,.2056-.9382.41427.41427,0,0,0-.33409-.3213,1.9119,1.9119,0,0,0-.77121.1542c-.0721.0202-.11879.1037-.1927.1157-.1187.0193-.3045.081-.3599-.0257-.0565-.109.1396-.2054.1799-.3213.0297-.0854-.0168-.1902.0257-.2699.1289-.2412.362-.4196.4756-.6683.07161-.1571.1961-.4026.0642-.5141a1.28154,1.28154,0,0,0-.89959-.1928c-.19891.0125-.33441.2315-.527.2828-.266.0709-.58881-.0685-.82251.0771-.1598.0996-.0626.3831-.1671.5398-.0543.0815-.2018.0455-.2699.1158a.48865.48865,0,0,0-.12849.2955c-.018.2313.21169.5264.05139.6941-.1416.1482-.43739.0036-.6041-.1157-.1526-.1094-.1001-.3981-.257-.5012a.84406.84406,0,0,0-.7197-.1414,1.87605,1.87605,0,0,0-.73259.7068c-.119.1615-.01081.5175-.20561.5655-.2742.0677-.515-.4072-.784-.3213-.34939.1116-.5648.4904-.74539.8097-.07611.1344.12569.345.02569.4627-.1005.1182-.3192-.0077-.46269.0514-.15841.0652-.24251.2785-.41121.3084-.1379.0245-.2461-.1797-.3856-.167-.1313.0119-.1981.184-.3213.2313-.2725.1048-.5815.0999-.8482.2184-.1302.0579-.1763.2427-.3085.2957-.1234.0493-.2766-.0661-.3984-.0129-.1724.0754-.2373.3949-.4241.3727-.43769-.052-.7546-.5744-1.1953-.5655-.3098.0063-.4029.5433-.7068.6041-.1782.0356-.2077-.3487-.38559-.3856-.20561-.0427-.40051.1284-.604.1799-.29521.0747-.74311-.0651-.75821-.3212a2.30668,2.30668,0,0,1,1.6193-1.7865c.502-.1601,1.0636.1135,1.5808.0129a1.32355,1.32355,0,0,0,.7968-.4756.60537.60537,0,0,0-.02569-.5655c-.10421-.2369-.43061-.3516-.48841-.604-.0389-.1699.1696-.3051.2442-.4627.0796-.1682.0363-.4759.2185-.5141.1696-.0355.2784.2344.3341.3985.029.0852-.0971.156-.1156.2442-.0336.1597-.1103.3417-.0386.4884.04881.0999.2102.0864.3213.0899.1726.0053.3423-.0814.5141-.0643.2213.0222.4296.2439.6426.1799a.62956.62956,0,0,0,.3855-.4884c.04231-.2562-.1799-.4985-.1799-.7582a4.39972,4.39972,0,0,1,.1799-1.388c.0749-.2248.3694-.322.4627-.5398.1957-.4565.1513-1.0015.38561-1.4394a5.769,5.769,0,0,1,1.18239-1.4909c.33561-.3101.8305-.4024,1.1823-.694.2587-.2143.3328-.6177.6169-.7968.5303-.3343,1.2361-.3321,1.7479-.694a2.78952,2.78952,0,0,0,.7968-1.1053c.11771-.2419.26571-.5654.1286-.7968-.0934-.1576-.3947-.0088-.5398.1028-.4323.3325-.70109.8468-1.131,1.1824a17.6676,17.6676,0,0,1-1.7993,1.1053,7.86791,7.86791,0,0,0-1.05379.6169c-.28891.2428-.44071.6199-.71981.8739a10.43886,10.43886,0,0,1-1.8506,1.4651c-.4661.2613-1.0842.1621-1.5423.437-.23329.14-.1289.6294-.3856.7197-.3235.1138-.6652-.2937-1.0024-.2313-.2039.0377-.2991.2999-.3856.4883-.1571.3424-.10469.7809-.3341,1.0796-.1727.225-.5599.1707-.7711.3599-.3768.3373-.577.842-.9511,1.1823a2.5533,2.5533,0,0,1-1.0539.6427,1.18809,1.18809,0,0,1-.9253-.1542c-.2173-.1508-.18919-.4986-.3341-.7198-.2004-.3054-.3586-.7036-.69409-.8482-.20771-.0895-.438.1444-.61691.2828-.2827.2187-.4008.6759-.7454.7711-.3952.1092-.8042-.3015-1.2081-.2314-.2567.0446-.3051.5293-.5654.5398a.818.818,0,0,1-.6941-.4884c-.1067-.2376.1553-.5119.1286-.7711-.0265-.2563-.3383-.468-.2828-.7197a10.62367,10.62367,0,0,1,.77111-1.4908c.07969-.2005.22039-.4814.07719-.6426-.1153-.1296-.3175.1506-.4884.1799-.3815.0656-.8001.2532-1.1567.1028a.86374.86374,0,0,1-.4884-.7968c.0202-.2392.4735-.202.5911-.4113.1355-.2408-.0132-.5718.1029-.8225a.456.456,0,0,1,.3856-.2314c.2329-.0055.4468.278.6683.2057.2707-.0884.32541-.5147.5912-.6169.3359-.1292.7473.1127,1.0796-.0257.1575-.0656.1703-.3185.1542-.4884-.037-.389-.3684-.7449-.3085-1.131.0331-.2136.4266-.1757.5398-.3598.11311-.1837-.0344-.458.07711-.6426a2.13186,2.13186,0,0,1,.74539-.7197c.3767-.2201.94661-.1087,1.2338-.437.2201-.2515-.02919-.6728.0257-1.0025a3.55065,3.55065,0,0,1,.3342-1.1567c.0728-.1306.3218-.06.4113-.1799.2517-.3379.2592-.8415.5654-1.131a1.16346,1.16346,0,0,1,.8483-.2056c.2654.0128.4797.2828.7454.2828.15251,0,.2092-.3064.3598-.2828.2039.0318.257.3969.46271.4113a.66331.66331,0,0,0,.64259-.3342c.137-.3612-.1072-.7714-.0771-1.1567.0062-.0786.107-.1842.1799-.1542a4.07066,4.07066,0,0,1,.694.5141,4.86964,4.86964,0,0,0,.9768.6426.476.476,0,0,0,.5141-.0771,15.18567,15.18567,0,0,0,.6169-1.4137,2.25509,2.25509,0,0,1,.7711-.874c.43271-.2314,1.0353-.0301,1.4394-.3084a7.28343,7.28343,0,0,0,1.2852-1.568,6.21949,6.21949,0,0,1,.77111-.951c.27249-.2237.61669-.5741.95109-.4627.2412.0804-.2843.4223-.4113.6426-.1645.2856-.6189.5837-.4626.874.1339.2488.562-.096.8225-.2057.23431-.0987.4485-.5755.6426-.4112.1932.1634-.1396.5054-.3085.694a6.04283,6.04283,0,0,1-1.23379,1.0281c-.21171.1365-.53281.0623-.71971.2314-.2045.1851-.1648.5503-.3598.7454-.4544.4543-1.0847.7055-1.5423,1.1567a.94611.94611,0,0,0-.3084.6683c.0049.1142.2223-.0536.3341-.0772a2.68457,2.68457,0,0,1,.6426-.1285c.2223.0089.4241.2212.6426.18.2758-.0521.4393-.4487.7197-.437.1579.0065-.0197.3283-.10279.4627-.21461.3471-.55781.603-.77111.951-.1175.1918-.4216.5799-.2056.6426.3469.1007.712-.1966,1.0024-.4113.5116-.3781.81531-1.0118,1.36231-1.3366.28819-.171-.40551.5412-.53971.8483-.0515.1177-.0879.2918,0,.3855.0881.094.2631.0657.3855.0257a1.93139,1.93139,0,0,0,.9511-.4626c.4424-.5441.5449-1.3048.951-1.8764.0857-.1206.4642-.2225.437-.0771-.1153.6147-.6071,1.1121-.7454,1.7221-.0273.1205.19851.2621.3084.2057a6.22669,6.22669,0,0,0,1.5937-1.1824c.487-.4982.7763-1.1601,1.2209-1.6965a3.4787,3.4787,0,0,1,.7711-.7068c.11241-.0728.2745-.0007.39841-.0514.238-.0975.41419-.3462.66829-.3856.27571-.0428.549.2089.8226.1542a1.29672,1.29672,0,0,0,.7197-.4627c.1333-.1647.0153-.4568.1542-.6169.2774-.3196.7686-.411,1.02821-.7454.07979-.1029-.06071-.2944-.18-.347a2.008,2.008,0,0,0-1.01531-.1799c-.222.0253-.35169.2952-.5654.3598-.1724.0522-.3872-.1212-.5398-.0257-.4444.2782-.6926.813-1.1439,1.0796-.1045.0617-.2401-.1266-.2699-.2442a1.54365,1.54365,0,0,1,.0129-.7711,2.99072,2.99072,0,0,1,.4431-.906,1.12734,1.12734,0,0,1,.4627-.3984,8.00931,8.00931,0,0,1,1.8507-.5912,1.77428,1.77428,0,0,1,.9382.1414c.01871.0077.0784.6389.5141.4755.1947-.073.1964-.3711.3341-.5269.1272-.1439.3793-.1813.4498-.3599a1.17972,1.17972,0,0,0-.0128-.7454c-.01549-.0531-.2107-.113-.3373-.135-.3353-.0581-.6194.2277-.7808.2635a.30132.30132,0,0,1-.2956-.1157c-.03779-.0578.0436-.1443.1028-.1799.1137-.0682,1.1103-.3634,1.3366-.4498a13.12918,13.12918,0,0,1,1.7351-.6812c.2179-.0492.4345.175.6554.1414.2034-.0309.3245-.2845.527-.3213a.32989.32989,0,0,1,.3212.1671c.1185.2338-.0303.5851.1543.7711.4072.4104,1.05081.5117,1.49081.8868.246.2098.282.5974.51409.8226.2105.2042.4904.5092.7711.4241.2056-.0625.0113-.4372-.0514-.6427a11.04635,11.04635,0,0,1-.5526-1.3366c-.0511-.31.2106-.6126.1799-.9253-.0236-.2402-.3847-.4066-.3342-.6426.0832-.3882.5565-.6.6812-.9768a1.1067,1.1067,0,0,0-.09-.8097.52509.52509,0,0,0-.42409-.2184c-.25381-.0248-.50321.1044-.75821.1028a5.9485,5.9485,0,0,0-1.23379-.1157,2.02313,2.02313,0,0,0-.84831.5527c-.1612.1425-.1915.411-.37269.5269-.36121.231-.82081.2667-1.19521.4755-.263.1467-.4213.451-.6941.5783a9.66073,9.66073,0,0,1-1.8378.6041,12.68677,12.68677,0,0,1-2.172.3598.41691.41691,0,0,1-.3213-.2056.18974.18974,0,0,1,.0128-.2313c.1671-.1351.4393-.1051.5912-.2571a1.90663,1.90663,0,0,0,.4498-.7839c.08261-.2665.27461-.668.0515-.8354-.2756-.2067-.7134-.0368-1.0282.1028a1.417,1.417,0,0,0-.5655.604c-.0645.1065-.0004.2509-.0257.3728-.0181.0864-.0187.2171-.1028.2441-.3242.1044-.7021-.0179-1.0153.1157a15.65434,15.65434,0,0,0-1.5166.9639,11.02564,11.02564,0,0,1-1.388.694,8.82455,8.82455,0,0,1-1.7221.5398.75206.75206,0,0,1-.5655-.1414c-.078-.0602.0405-.2058,0-.2956-.0475-.1048-.2757-.1334-.24419-.2442.10389-.366.463-.6184.59109-.9767a.40589.40589,0,0,0-.09-.4241c-.0976-.0787-.25809.0004-.3727.0514a7.8818,7.8818,0,0,0-1.388.7326c-.2985.2127-.4706.5695-.7583.7968a1.34566,1.34566,0,0,1-.5269.2185.10369.10369,0,0,1-.1157-.0643c-.0174-.0941.0727-.1893.05151-.2827a.48451.48451,0,0,0-.18-.2827.326.326,0,0,0-.30841-.0643,1.88053,1.88053,0,0,0-.5655.5141c-.1014.125-.0659.3571-.2056.437-.3741.2137-.8552.18-1.2338.3855-.1453.0789-.13369.3141-.2571.4241-.0543.0485-.1954.0691-.2185,0-.038-.1144.09191-.2268.10291-.347.00669-.0744-.09971-.1613-.05151-.2184.2781-.329.69-.5286.964-.8611a.17439.17439,0,0,0-.0643-.2314.62847.62847,0,0,0-.50119-.0128,21.32085,21.32085,0,0,0-2.67331,1.5551.35553.35553,0,0,0-.1028.3341c.0129.0902.2253.1267.18.2057-.1583.2759-.4874.416-.6812.6683-.0825.1074-.045.2789-.1285.3855-.0805.103-.2713.0911-.33419.2057a6.72094,6.72094,0,0,0-.38551,1.1052,1.70154,1.70154,0,0,1-.1414.4499c-.10609.1519-.3032.2193-.42409.3598a9.24308,9.24308,0,0,1-.92541,1.2081,1.12661,1.12661,0,0,1-.7454.1799c-.0968-.0026-.1117-.1818-.2056-.2056-.1951-.0495-.4135.0647-.6041,0a.18492.18492,0,0,1-.0771-.2313,11.2693,11.2693,0,0,1,.82261-1.2467c.27569-.4032.59849-.7753.84819-1.1952a.2047.2047,0,0,0,0-.2313c-.0534-.0503-.1571-.0144-.2185.0256-.1446.0944-.2376.2524-.37269.3599-.07641.0608-.19151.069-.257.1414-.06571.0725-.05281.195-.11571.2699-.3899.4642-.852.8657-1.2338,1.3366-.2626.3239-.3808.7658-.694,1.041Z" transform="translate(-225.59256 -109.24071)" fill-rule="evenodd" fill="url(#radial-gradient-6)" style="mix-blend-mode: screen"/>
        <path d="M251.56261,130.18357c.54921-.2353.9903-1.2052,2.0049-.9253.17831.0491.335,1.0994,1.388.5912.7409-.3577,1.29031-1.032,2.0049-1.4395,1.5083-.8598,1.9878-.0583.6169,1.4909-.5839.6597-1.1857,1.3061-1.7221,2.0049a.93915.93915,0,0,0-.23139.5398c0,.2036.15489.3767.23139.5655.1759.434.3091.4176-.23139.7968-.33911.2381-.74571.3712-1.07951.6169a2.75543,2.75543,0,0,0-.7712.7454,15.99545,15.99545,0,0,0-.5911,1.5294,2.93033,2.93033,0,0,1-.2308.3935.79275.79275,0,0,0,.1295-.1256c.4424-.5441.5449-1.3048.951-1.8764.0857-.1206.4642-.2225.437-.0771-.1153.6147-.6071,1.1121-.7454,1.7221-.0273.1205.19851.2621.3084.2057a6.22669,6.22669,0,0,0,1.5937-1.1824c.487-.4982.7763-1.1601,1.2209-1.6965a3.4787,3.4787,0,0,1,.7711-.7068c.11241-.0728.2745-.0007.39841-.0514.238-.0975.41419-.3462.66829-.3856.27571-.0428.549.2089.8226.1542a1.29672,1.29672,0,0,0,.7197-.4627c.1333-.1647.0153-.4568.1542-.6169.2774-.3196.7686-.411,1.02821-.7454.07979-.1029-.06071-.2944-.18-.347a2.008,2.008,0,0,0-1.01531-.1799c-.222.0253-.35169.2952-.5654.3598-.1724.0522-.3872-.1212-.5398-.0257-.4444.2782-.6926.813-1.1439,1.0796-.1045.0617-.2401-.1266-.2699-.2442a1.54365,1.54365,0,0,1,.0129-.7711,2.99072,2.99072,0,0,1,.4431-.906,1.12734,1.12734,0,0,1,.4627-.3984,8.00931,8.00931,0,0,1,1.8507-.5912,1.77428,1.77428,0,0,1,.9382.1414c.01871.0077.0784.6389.5141.4755.1947-.073.1964-.3711.3341-.5269.1272-.1439.3793-.1813.4498-.3599a1.17972,1.17972,0,0,0-.0128-.7454c-.01549-.0531-.2107-.113-.3373-.135-.3353-.0581-.6194.2277-.7808.2635a.30132.30132,0,0,1-.2956-.1157c-.03779-.0578.0436-.1443.1028-.1799.1137-.0682,1.1103-.3634,1.3366-.4498a13.12918,13.12918,0,0,1,1.7351-.6812c.2179-.0492.4345.175.6554.1414.2034-.0309.3245-.2845.527-.3213a.32989.32989,0,0,1,.3212.1671c.1185.2338-.0303.5851.1543.7711.4072.4104,1.05081.5117,1.49081.8868.246.2098.282.5974.51409.8226.2105.2042.4904.5092.7711.4241.2056-.0625.0113-.4372-.0514-.6427a11.04635,11.04635,0,0,1-.5526-1.3366c-.0511-.31.2106-.6126.1799-.9253-.0236-.2402-.3847-.4066-.3342-.6426.0832-.3882.5565-.6.6812-.9768a1.1067,1.1067,0,0,0-.09-.8097.52509.52509,0,0,0-.42409-.2184c-.25381-.0248-.50321.1044-.75821.1028a5.9485,5.9485,0,0,0-1.23379-.1157,2.02313,2.02313,0,0,0-.84831.5527c-.1612.1425-.1915.411-.37269.5269-.36121.231-.82081.2667-1.19521.4755-.263.1467-.4213.451-.6941.5783a9.66073,9.66073,0,0,1-1.8378.6041,12.68677,12.68677,0,0,1-2.172.3598.41691.41691,0,0,1-.3213-.2056.18974.18974,0,0,1,.0128-.2313c.1671-.1351.4393-.1051.5912-.2571a1.90663,1.90663,0,0,0,.4498-.7839c.08261-.2665.27461-.668.0515-.8354-.2756-.2067-.7134-.0368-1.0282.1028a1.417,1.417,0,0,0-.5655.604c-.0645.1065-.0004.2509-.0257.3728-.0181.0864-.0187.2171-.1028.2441-.3242.1044-.7021-.0179-1.0153.1157a15.65434,15.65434,0,0,0-1.5166.9639,11.02564,11.02564,0,0,1-1.388.694,8.82455,8.82455,0,0,1-1.7221.5398.75206.75206,0,0,1-.5655-.1414c-.078-.0602.0405-.2058,0-.2956-.0475-.1048-.2757-.1334-.24419-.2442.10389-.366.463-.6184.59109-.9767a.40589.40589,0,0,0-.09-.4241c-.0976-.0787-.25809.0004-.3727.0514a7.8818,7.8818,0,0,0-1.388.7326c-.2985.2127-.4706.5695-.7583.7968a1.34566,1.34566,0,0,1-.5269.2185.10369.10369,0,0,1-.1157-.0643c-.0174-.0941.0727-.1893.05151-.2827a.48451.48451,0,0,0-.18-.2827.326.326,0,0,0-.30841-.0643,1.88053,1.88053,0,0,0-.5655.5141c-.1014.125-.0659.3571-.2056.437-.3741.2137-.8552.18-1.2338.3855-.1453.0789-.13369.3141-.2571.4241-.0543.0485-.1954.0691-.2185,0-.038-.1144.09191-.2268.10291-.347.00669-.0744-.09971-.1613-.05151-.2184.2781-.329.69-.5286.964-.8611a.17439.17439,0,0,0-.0643-.2314.62847.62847,0,0,0-.50119-.0128,21.32085,21.32085,0,0,0-2.67331,1.5551.35553.35553,0,0,0-.1028.3341c.0129.0902.2253.1267.18.2057-.1583.2759-.4874.416-.6812.6683-.0825.1074-.045.2789-.1285.3855-.0805.103-.2713.0911-.33419.2057a6.72094,6.72094,0,0,0-.38551,1.1052,1.70154,1.70154,0,0,1-.1414.4499c-.10609.1519-.3032.2193-.42409.3598a9.24308,9.24308,0,0,1-.92541,1.2081.639.639,0,0,1-.1403.0877,1.22737,1.22737,0,0,0,.38971-.1307c.21749-.1382.35589-.3773.56549-.527.0678-.0483.17551-.0982.2442-.0514a.26231.26231,0,0,1,.0771.2699c-.6313,2.3016,1.0747-.2269,1.6579-.7968.0644-.063.2139.0575.2699-.0129.4692-.5898.7173-1.5693,1.131-2.0691.7233-.8739-.6977,3.0272.9511,1.555.01331-.0119,2.8185-3.8121,1.9535-1.9021-.2346.5175.4616.1092.6683.0257.31151-.1257.4669-.5535.7968-.6169.2123-.0408.3238.3485.5398.3598a3.2088,3.2088,0,0,0,1.4137-.257Zm-19.8533,2.7511a1.14888,1.14888,0,0,1,.5654-.514c.1227-.0345.1312.2634.2572.2827.124.0191.56591-.4087.9767-.0514a.3316.3316,0,0,1,.0257.3856c-.2312.3782-.6469.6217-.8739,1.0024-.2972.4981.2973.6931.56541.4627a14.10208,14.10208,0,0,0,1.07959-1.4138c.2612-.2899.4549-.2212.4571-.0233.0047.4276-.2822.9074-.0015.9419a.50244.50244,0,0,0,.3927-.1796,4.98824,4.98824,0,0,0,.694-.9446c.2945-.5222.2557-1.3824.8739-1.4908.1576-.0277.30421.1058.4627.1285.5086.0727.6096-.8775.9253-1.3623.2267-.3483.6559.0576.7968.0771a.45008.45008,0,0,0,.3342-.1028c.6571-.5495.3424-.5524.4627-1.0153a2.39154,2.39154,0,0,1,.2442-.527,5.36281,5.36281,0,0,1,1.3861-1.813.21651.21651,0,0,0-.0194-.1112c-.0432-.0889-.2036-.0619-.2956-.0256a2.15921,2.15921,0,0,0-.6812.4112c-.6167.574-1.0901,1.2958-1.735,1.8379-.257.216-.6748.1749-.9253.3984-.5604.4998-.8775,1.2391-1.4524,1.7222a7.49937,7.49937,0,0,1-1.9278,1.1181.346.346,0,0,1-.3598-.1542c-.0577-.0809-.0095-.2087.0385-.2956.1789-.3233.4696-.5795.6298-.9125.1185-.2462.032-.5759.1928-.7969.2364-.3251.6615-.4665.9382-.7582a9.43832,9.43832,0,0,0,.951-1.2338c.0849-.126.2785-.3208.1671-.4241-.1305-.1212-.3773-.0069-.527.0899a16.94847,16.94847,0,0,0-1.6964,1.3495,10.94118,10.94118,0,0,0-1.4137,1.2852c-.23.2772-.1875.7443-.4627.9767-.2715.2294-.74089.0735-1.0282.2828-.3462.2522-.4816.7125-.7711,1.0281-.2831.3086-.6979.4926-.9382.8354a8.54846,8.54846,0,0,0-.7087,1.2121,11.79427,11.79427,0,0,0-.5034,1.24c.0838-.1427.1739-.2868.2676-.4283.5052-.7634,1.1143-1.4498,1.4028-1.4105.1615.022.049.327.0257.4884-.0339.2351.1241.417.3342.0514.3056-.5318.5309-1.1109.8739-1.6194Z" transform="translate(-225.59256 -109.24071)" fill-rule="evenodd" fill="url(#radial-gradient-7)"/>
        <path d="M234.75361,145.57827c.1355-.2408-.0132-.5718.1029-.8225a.456.456,0,0,1,.3856-.2314c.2329-.0055.4468.278.6683.2057.2707-.0884.32541-.5147.5912-.6169.3359-.1292.7473.1127,1.0796-.0257.1575-.0656.1703-.3185.1542-.4884-.037-.389-.3684-.7449-.3085-1.131.0331-.2136.4266-.1757.5398-.3598.11311-.1837-.0344-.458.07711-.6426a2.13186,2.13186,0,0,1,.74539-.7197c.3767-.2201.94661-.1087,1.2338-.437.2201-.2515-.02919-.6728.0257-1.0025a3.55065,3.55065,0,0,1,.3342-1.1567c.0728-.1306.3218-.06.4113-.1799.2517-.3379.2592-.8415.5654-1.131a.63281.63281,0,0,1,.1594-.1084,1.03249,1.03249,0,0,0-.4485.1768c-.1792.1529-.099.6807-.4499.7069-.097.0072-.5404-.282-.7325.0257-.1412.2261.1199.7075.0771.8611-.0256.0916-.1888.082-.2313.1671-.0577.1152.0434.6702-.4499.8739-.2674.1105-.9049-.3452-1.1181.2699-.0989.2855.2526.9048-.1799,1.0667-.132.0494-.3014.0393-.3984.1414-.0917.0963.0015.3032-.1029.3855-1.5962,1.2584-2.898.1799-4.4211,1.5294-.6815.6038-.6371,1.1523.058,1.0734.3051-.0346.5821-.1147.7131.1604a.63712.63712,0,0,1-.1542.5912c-.3412.4579-1.8439,1.0674-2.01769,1.6708-.14891.5169.84709.3072.80959.5654-.0203.1406-1.2205,1.5683-.1028,2.1078.5421.2617,1.2268-.34,1.7993-.1543.2466.08-.0064.5361.10291.7712.12279.2647.47639.3904.56539.6683.06461.2019-.1928.4085-.1542.6169.053.2864.4761.4871.4113.7711-.1576.6912-1.5266,2.0662-.9901,2.7577.3731.4806,1.697-.6125,2.5131-1.3114,1.5766-1.3503.4232.9695,1.56151.1473a11.88746,11.88746,0,0,0,1.28519-1.3366c.6137-.6104.72581.3011,1.6964-.1028a6.13555,6.13555,0,0,0,.8611-.5655c.91731-.5795.9088-.0537.5938.281-.4008.4258.1628.7356.3444.2781.1082-.2726.24-.7508.3854-1.1721.2721-.7887.7012-1.324,1.0644-.8335.101.1365.2875.1817.4266-.0829.0879-.167.2235-.7397.3562-1.1809.2299-.7648.4019-.6889.3147-.025a2.98293,2.98293,0,0,0-.044.6835c.0542.4403.3326.4937.5295.0568.1858-.4123.3839-1.1559.5272-1.6035a1.58048,1.58048,0,0,1,.6978-.8348c.2771-.1396.3021.0298.2936.1581-.0058.0888.0178.1647.1031.1884.5051.1402,2.2029-2.1164,2.4784-2.5705a3.72236,3.72236,0,0,1,.4498-.6426,6.71885,6.71885,0,0,1,1.3495-.7712c.4223-.1975.8808-.3204,1.2852-.5526a2.83164,2.83164,0,0,0,.7068-.5912,7.01947,7.01947,0,0,0,.44991-.7261c.18379-.27.48419-.61.61469-.3667a.383.383,0,0,0-.0428-.1065c-.0934-.1576-.3947-.0088-.5398.1028-.4323.3325-.70109.8468-1.131,1.1824a17.6676,17.6676,0,0,1-1.7993,1.1053,7.86791,7.86791,0,0,0-1.05379.6169c-.28891.2428-.44071.6199-.71981.8739a10.43886,10.43886,0,0,1-1.8506,1.4651c-.4661.2613-1.0842.1621-1.5423.437-.23329.14-.1289.6294-.3856.7197-.3235.1138-.6652-.2937-1.0024-.2313-.2039.0377-.2991.2999-.3856.4883-.1571.3424-.10469.7809-.3341,1.0796-.1727.225-.5599.1707-.7711.3599-.3768.3373-.577.842-.9511,1.1823a2.5533,2.5533,0,0,1-1.0539.6427,1.18809,1.18809,0,0,1-.9253-.1542c-.2173-.1508-.18919-.4986-.3341-.7198-.2004-.3054-.3586-.7036-.69409-.8482-.20771-.0895-.438.1444-.61691.2828-.2827.2187-.4008.6759-.7454.7711-.3952.1092-.8042-.3015-1.2081-.2314-.2567.0446-.3051.5293-.5654.5398a.818.818,0,0,1-.6941-.4884c-.1067-.2376.1553-.5119.1286-.7711-.0265-.2563-.3383-.468-.2828-.7197a10.62367,10.62367,0,0,1,.77111-1.4908c.07969-.2005.22039-.4814.07719-.6426-.1153-.1296-.3175.1506-.4884.1799-.3815.0656-.8001.2532-1.1567.1028a.86374.86374,0,0,1-.4884-.7968c.0202-.2392.4735-.202.5911-.4113Zm.7426-4.9104a.89249.89249,0,0,0-.8722-.1005c-.089.0465-.136.2049-.2175.2655a8.27659,8.27659,0,0,0-1.0069.4868,1.12608,1.12608,0,0,0-.3772.3899c-.0992.2139.00041.2493.0795.2437.5081-.0367.9893-.2692,1.4921-.3572a6.74361,6.74361,0,0,1,.9213-.0784c.5187-.0086.4286-.4942-.0191-.8498Z" transform="translate(-225.59256 -109.24071)" fill-rule="evenodd" fill="url(#radial-gradient-8)"/>
        <path d="M251.33282,151.87577c-.119.1615-.01081.5175-.20561.5655-.2742.0677-.515-.4072-.784-.3213-.34939.1116-.5648.4904-.74539.8097-.07611.1344.12569.345.02569.4627-.1005.1182-.3192-.0077-.46269.0514-.15841.0652-.24251.2785-.41121.3084-.1379.0245-.2461-.1797-.3856-.167-.1313.0119-.1981.184-.3213.2313-.2725.1048-.5815.0999-.8482.2184-.1302.0579-.1763.2427-.3085.2957-.1234.0493-.2766-.0661-.3984-.0129-.1724.0754-.2373.3949-.4241.3727-.43769-.052-.7546-.5744-1.1953-.5655-.3098.0063-.4029.5433-.7068.6041-.1782.0356-.2077-.3487-.38559-.3856-.20561-.0427-.40051.1284-.604.1799-.29521.0747-.74311-.0651-.75821-.3212a1.44947,1.44947,0,0,1,.3274-.8347c-.0436.042-.0858.0852-.1253.1311-.2128.247-.8457,1.5663-.257,1.5485.1904-.0058.4838-.3132.7325-.1799.1049.0563.1024.2561.2185.2827.2008.046.3646-.3297.5784-.0128.2124.3147.1328.6261.7582.7454.6643.1269.6964-.3737.9767-.5398.0852-.0504.2014.0556.2957.0257.1845-.0584.4435-.7113,1.0282-.5912.1561.0321.2585.2903.4112.2442.148-.0446.1542-.4337.4338-.6062.2595-.1601.4447.0794.6072.0408.1075-.0256.1305-.1216.2379-.1478.1174-.0285.1681.0208.2891.0193.23271-.0029.45071-.1871.6812-.1542.2392.0342.529.9005,1.2209.3727.3899-.2975.1805-.9702.3599-1.4266.1264-.3219.4846-.2869.4883-.0386a1.54261,1.54261,0,0,1-.0897.4415c-.0476.1654-.1285.3951.1476.3747a.25955.25955,0,0,0,.2248-.1479,3.892,3.892,0,0,0,.1464-.7205c.0432-.1939.12431-.378.3649-.3567a.13312.13312,0,0,1,.13141.1133.91283.91283,0,0,1-.05141.3085.07875.07875,0,0,0,.12841.0771.83544.83544,0,0,0,.19279-.2056c.3304-.4505.2908-.5784.6955-.6036.2306-.0144.6644-.1288.7569-.3732.0694-.1837-.1796-.4512-.2057-.6297-.0269-.1843.1238-.1406.2163-.1082.0671.0235.1434.0395.18221-.0011.15509-.162.21839-.5953.43049-.6683.16051-.0552.1023.2454.3202.1392.283-.1379.2365-.3147.3931-.4734a.7603.7603,0,0,1,.7223-.1531,1.329,1.329,0,0,0-.87309-.1715c-.19891.0125-.33441.2315-.527.2828-.266.0709-.58881-.0685-.82251.0771-.1598.0996-.0626.3831-.1671.5398-.0543.0815-.2018.0455-.2699.1158a.48865.48865,0,0,0-.12849.2955c-.018.2313.21169.5264.05139.6941-.1416.1482-.43739.0036-.6041-.1157-.1526-.1094-.1001-.3981-.257-.5012a.84406.84406,0,0,0-.7197-.1414,1.87605,1.87605,0,0,0-.73259.7068Z" transform="translate(-225.59256 -109.24071)" fill-rule="evenodd" opacity="0.5" fill="url(#radial-gradient-9)" style="mix-blend-mode: multiply"/>
        <path d="M279.52,120.37347a6.114,6.114,0,0,1-1.0924-.8483c-.3377-.2994-.5883-.6954-.9511-.9639a1.39366,1.39366,0,0,0-.6811-.2441.208.208,0,0,0-.1927.1542.31517.31517,0,0,0,.0899.2699c.4045.4269.8575.8055,1.298,1.1952a10.231,10.231,0,0,1,1.0411.8739c.1519.1758.1528.442.2699.6426a.8632.8632,0,0,0,.2698.2828c.2933.1924.6476.2871.92541.5012a.89806.89806,0,0,1,.30849.4498c.0176.0612-.085.1581-.14149.1286-.256-.1341-.42071-.4035-.66831-.5527-.0964-.0581-.263-.1388-.3341-.0514-.08459.1038.0049.2729.05141.3984.04169.1126.17379.1799.20569.2956.0201.0732-.09769.1503-.0643.2185a16.95785,16.95785,0,0,0,.9382,1.568,4.75517,4.75517,0,0,1,.4241.5912.2523.2523,0,0,1-.0514.2698.284.284,0,0,1-.32129.0514c-.22051-.1715-.28831-.4861-.48841-.681a1.18935,1.18935,0,0,0-.514-.2957c-.1455-.0387-.3435-.0678-.4499.0386a.87837.87837,0,0,0-.2184.6297c.0038.1485.2142.2273.2441.3728.0299.1448-.0877.2894-.0771.4369.0198.2749.14771.5349.1671.8097a5.08916,5.08916,0,0,1-.0642.6426c-.0306.5307-.0703,1.062-.0643,1.5937a4.25642,4.25642,0,0,1,.09.6811,8.04736,8.04736,0,0,0-.19289.784c-.02231.4459.05.794.03209,1.2402-.0087.2181-.1076.3986-.1156.6169a7.63885,7.63885,0,0,0,.1221.7904,5.15018,5.15018,0,0,1-.12859.7711,2.08276,2.08276,0,0,0,.02569.3856,4.09846,4.09846,0,0,1,.1029.8996,3.16609,3.16609,0,0,1-.3084.7454,5.78092,5.78092,0,0,0-.2828.7198c-.0488.1916.0111.4035-.05139.5912a1.73446,1.73446,0,0,0-.18.5012c.00669.4321.215.7374.20569,1.1695a2.96505,2.96505,0,0,1-.3599,1.1053c-.2917.6501-.7964,1.1023-1.0796,1.645a.63646.63646,0,0,0-.0771.437c.018.0683.1352.055.2057.0514a1.9611,1.9611,0,0,0,1.2595-.6169c.2549-.3999.10571-1.0528.2313-1.388.0418-.1117.2457-.0485.3341-.1285a2.20667,2.20667,0,0,0,.4628-.5912.88223.88223,0,0,0,.1284-.5141c-.0472-.349-.29389-.6526-.3341-1.0024a4.464,4.464,0,0,1,.0771-1.2338,1.22126,1.22126,0,0,1,.2313-.6169c.0803-.0908.2507.0009.3599-.0514a.562.562,0,0,0,.2827-.2571c.0855-.1994.0379-.4357.1029-.6426.03131-.0997.0754-.2601.1799-.257.1242.0036.2331.1479.2571.2698.0417.2117-.1206.4313-.0772.6427.0269.1306.1894.1891.27.2956a.37846.37846,0,0,1,.0899.1799c.0155.1579-.0557.3196-.0257.4755.01931.1003.0699.2255.1671.2571.1135.0369.2945.0173.3469-.09a6.96082,6.96082,0,0,0,.1928-1.0153c.0494-.1578.2194-.2632.2571-.4241a1.64923,1.64923,0,0,0,.0257-.784c-.0755-.2857-.332-.495-.4369-.7712-.2301-.6055.24661-.6409.3469-1.2081a1.28916,1.28916,0,0,0-.0514-.6554c-.1137-.312-.4177-.5397-.5012-.8611a2.1469,2.1469,0,0,1,.0771-.7711c.02121-.1806.0734-.3581.07721-.5398.00479-.2405-.069-.4799-.05141-.7197.0128-.1773.1143-.3385.1413-.5141.0247-.1609-.0205-.329.0129-.4884.00821-.0395.0808-.0982.1027-.0642a1.13569,1.13569,0,0,1,.18.5012,5.33581,5.33581,0,0,1-.0514.8482c-.02009.3085-.0742.6164-.0643.9254.0236.7332.0393.5968.5141.9896.1003.083.58311.5726.7326.2442a4.85173,4.85173,0,0,0,.2056-1.2467,1.2832,1.2832,0,0,0,.0771-.4755c-.05-.2186-.2549-.377-.3213-.5912-.03189-.103.0636-.2164.0386-.3213-.0459-.192-.2028-.3468-.2443-.5398a5.41557,5.41557,0,0,1-.0128-.6554c-.0106-.118-.0905-.2293-.0771-.3471.0062-.0544.0826-.1328.1285-.1028a.59789.59789,0,0,1,.2057.3213c.09.2702.0889.5655.1799.8354.0394.1171.176.1885.2057.3085a7.79968,7.79968,0,0,0,.077.8353c.06591.1794.2873.2604.3856.4242.07331.1221.0436.2884.1157.4112.09061.1543.283.2368.3599.3984.0918.1936.0353.4369.1285.6298.1486.3079.5311-.0466.4883-.2442-.0606-.2799-.2735-.3598-.3855-.6233-.0424-.0998-.01259-.3037-.0515-.4048-.0759-.1976-.2815-.3232-.3727-.5141a.41117.41117,0,0,1-.016-.3374c.0434-.099.1649-.1139.2024-.2153a2.22591,2.22591,0,0,0,.0771-.3149.72229.72229,0,0,1,.0964-.1863c.0769-.1323.0332-.3287.1414-.437.0565-.0565.1897-.004.23131.0643.08179.1341-.004.3367.09.4627.12359.1657.36639.2023.51409.347.1738.1702.26891.4089.437.5848.2161.2257.4024.0952.5398.7068.0432.1923-.0853.4079-.01289.5912.08379.2117.32659.3226.44989.5141.0446.0693-.004.1736.0386.2442.1371.2275.36351.3953.4883.6297a1.6097,1.6097,0,0,1,.1414.5527c.0144.1107-.0727.2328-.0257.3341.1239.2675.396.4496.514.7198.0811.1855-.0093.4154.0644.604a.32913.32913,0,0,0,.2569.2185.25913.25913,0,0,0,.2315-.2056,1.99725,1.99725,0,0,0-.0772-.8483c-.068-.2281-.2737-.395-.3598-.6169-.241-.6215-.3669-1.2843-.6169-1.9021-.18839-.4654-.4653-.8899-.6941-1.3366-.131-.2558-.2385-.5243-.3855-.7712-.09379-.1575-.25779-.2703-.3342-.4369a1.05144,1.05144,0,0,1-.1671-.6555c.0311-.1203.2034.1522.2699.2571.1591.2507.2268.5545.3985.7968.1453.2051.4014.317.5397.5269.1171.1776.10141.4187.2056.6041.1472.2612.3744.4696.5399.7197.2206.3333.4207.6799.61691,1.0282.19069.3385.36229.6876.54339,1.0314a28.80507,28.80507,0,0,0-1.3402-3.9487c-.0669-.1324-1.8895-3.4831-1.9535-3.5472a13.05342,13.05342,0,0,1-1.0282-.8226c-.2706-.2746-.4408-.6346-.6941-.9253-.2109-.2422-.4911-.4193-.6939-.6683-.1773-.2176-.3643-.7004-.437-.7197a11.889,11.889,0,0,1-2.1334-1.0539c-.2738-.2232-.37609-.624-.6684-.8225-.23669-.1609-.584-.0626-.8355-.1993Zm-2.3751,23.0204c-.6618-.5017-.6347.893-.9256,1.148a1.97333,1.97333,0,0,0-.484,1.0895,3.87378,3.87378,0,0,1-.3704,1.5216c-.0715.166-.194.527.0814.527.7184,0,.76951-2.4656,1.1361-2.4419.2968.0192.8485-.3844.65441-.8001-.11571-.248-.35911-.4242-.05991-.6617.1433-.1138-.0144-.3691-.032-.3824Z" transform="translate(-225.59256 -109.24071)" fill-rule="evenodd" fill="url(#radial-gradient-10)"/>
        <path d="M277.53911,158.37957c-.3264-.0312-.2827-.2874-.2827-.5686,0-.258,1.281-1.5013,1.4769-1.9634.0721-.1701.5141-.8686.7766-.6661.0905.0699.1765.3986.4807-.076.1753-.2737.0143-.775.7604-1.526.1573-.1584.6571-.192.5174.4772-.1238.5931.7357-.0153.7818,1.065.0037.0867-.14639.1397-.1531.2313-.0188.2544-.77229-.0424-.77229.4454,0,.3893.54859.5419.02569.9521-.2683.2106.84531.6694.9125,1.0841.002.0118.0729.1677.0772.1916.0177.0984-.0129.219.0513.2956.0435.0518.1745.8506.5997-.0675.1002-.2163.5328-.6339.7274-.3298.1004.1569.2691.0428.241.6191-.0157.3198.5986.8278.2731,1.1769-.154.1653-.6058.5417-.6554.632-.0652.1184-.1148.6603-.4788.5805-.01369-.0029-.1605-.3899-.2806-.0301-.005.0148.001.0495-.0022.0665a3.275,3.275,0,0,0-.09.4241c-.0224.4169-.2955,1.0024-.7627,1.0024-.4189,0-.3424.248-.6113.6963-.1725.2876-.6786,1.5939-1.15889,1.4651-.104-.0278.14479-.4263-.14881-.4263-.2626,0-.4343.3541-.5537.5559-.1456.246.6019-.1297.3867.4763a2.00375,2.00375,0,0,1-.2615.42,1.53666,1.53666,0,0,1-.28269.2442,10.32317,10.32317,0,0,0-1.297.6372c-.07931.1022-.116-.0909-.28711.3653-.1025.2733-1.4724.1051-1.1244.4906.1359.1507.6671-.2322.62751.242-.02751.3295-1.46571-.3102-1.30251.3984.1089.4729-.6802.0417-.9661.636a1.05591,1.05591,0,0,1-.85439.3397,3.52341,3.52341,0,0,0-1.18241.6179c-.3568.4365-.6565.0163-.1781-.3737.7202-.5871.0564-.3782.5541-.8182.0542-.0479,1.4638-.9273.6768-.8526a5.1116,5.1116,0,0,0-.6768.2882c-.083.0585-.5827.19-.5827.047,0-.5847.4369-.1384.4369-.7626,0-.2168,1.367-.8655.2806-.6779-.367.0633-.2498-.1445-.6599.3352-.0733.0858-.7216.2236-.96349.3835-.09361.0618-.20431.1256-.34081.2077a5.52335,5.52335,0,0,1-.874.4756c-.4479.169-1.2088.8788-1.8635,1.0002a6.06534,6.06534,0,0,1-1.0722.3867c-1.0094.1261-.4423-.3356-.9841-.2956-.1956.0145.2161.2226-.1553.481a4.16723,4.16723,0,0,1-1.3356.4488,5.34983,5.34983,0,0,1-1.7156.1156,1.2125,1.2125,0,0,0-.7262.1252,1.75046,1.75046,0,0,1-2.1636.5869c-.303-.0904-1.7867.2121-1.2948-.4925.1688-.2417,2.8604-.3261,3.37271-.6448.29119-.181,1.31949.1415,1.31949-.5292,0-.8975-.0907-.5124.5988-.9649.7093-.4654.1576-.7015.79871-.9008.74029-.2301.54649-.0896,1.15559-.6499.3136-.2885.4345-.4414.7895-.7348.3646-.3013.5364-.0769,1.0527-.2068a.73232.73232,0,0,0,.2185-.1414c.3075-.2148.6944-1.0429.4789-1.3784-.1174-.1825.29681-.4291-.01619-.7164-.37841-.3473.544-1.111.69739-1.3315.33161-.4767,1.1804-1.0657.9991-1.6245-.0588-.1813-.7087.7452-.7924.5181-.1472-.3988-1.0539.087-.2123-1.4776.4728-.8789.4417-.3198.77-.5302.0491-.0314.0346-.2474.1575-.3224a1.25614,1.25614,0,0,0,.3471-.4756c.0441-.0741.3511-.8455.4413-.8482.2175-.0066.259.457.0727.7069a2.38116,2.38116,0,0,0-.4777,1.5657c.0629.2086-.145.4125.105.5582.041.0238.2429.3928.4337.0705.1043-.1763-.145-.5365.4961-.5365.3027,0,.5127-.6749.95-.95.5703-.3588.1437.743.4777.285.0263-.0361.3796-.2819.4432.0331.0257.1273.1395.1389.12961.4486-.00581.1856.45459-.0454.59119-.289.1147-.2044,1.0154-1.073,1.0154-.2775,0,.3459-.2654.4324.0352.8559.0238.0335-.1442.3644.3385.1219.0032-.0016.578-.6945.603-.1123.0029.0688-.11329.3112.257.1123.3875-.2081.1539-.5746.6533-.9371a2.57507,2.57507,0,0,0,.5325-.4839c.626-.6553-.1117-.4965-.2604-.0151-.0198.064-.0453.0284-.1414.0192Zm-4.8451,1.6901c-.2313-.29-.4627.3298-.4627.6125a1.46533,1.46533,0,0,1-.1734.9812c-.3523.4754.425,1.4555-.2228,1.6869-.18329.0655-.2851.7933-.5868,1.0249a12.169,12.169,0,0,1-.8291.8952c-.2031.1355.1824.2176-.0962.4285-.148.112-1.48119,1.1695-.6449,1.131.5374-.0247.99071-.4803,1.4766-.7527a2.84939,2.84939,0,0,1,.7219-.4844c.1376-.0555.6205-.436.6363.0419.0058.1757.5755.4477.5913-.2303.0087-.378.7323.0511.89-.5699.0534-.2099,1.0137-.079.7359-.6573-.1469-.3058.6409-.1791.094-.4832-.2664-.1481-.49729.1987-.7249-.4348-.0835-.2324-.36539-.259-.4447.105-.095.4367.0327.9038-.6543.9992-.3672.051-.21139-.8141-.0128-1.0454.16941-.1972-.4723-.7182-.1135-1.2808.1804-.2829-.3244-.4201-.0728-1.1493a.84546.84546,0,0,0-.1071-.8182Zm4.3915,2.0699a1.27293,1.27293,0,0,0,.6711,1.355c.3264.175,1.0949-.1065,1.0391-.3284-.0223-.0889-.3316.0572-.68289-.0313-.26761-.0675-.41121-.3295-.38191-.721a1.89382,1.89382,0,0,1,.362-1.1381c.1426-.1709.5697-.4408.43591-.088-.06371.168-1.11911,2.6502,1.51119.6955.79181-.5883,1.5751-1.4536,1.2117-2.4122-.53689-1.4166-3.9297.0645-4.1662,2.6685Zm2.12931-2.3643c-.47251.3984-.88861.9798-.39621.9508.0878-.0051,1.1748-1.1337,1.3344-.362.06881.3323-.4815.8857-.8247,1.0208-.0664.0261-.6322.2934-.3694.4046.51191.2169,1.9515-1.0501,2.053-1.8742.04891-.3973-.2938-.5457-.6347-.5705a1.59622,1.59622,0,0,0-1.16239.4305Zm-7.063-5.0267c-.25241-.3602-.63471-.0537-.59341-.752.0249-.4219.1751-.1789.1028-1.1009-.0941-1.2009,1.2782-.2283,1.7178-1.9704.0795-.315.2552.1007.41781-.951.05159-.3328.93269-.9863,1.05389-1.579.042-.2055.7788-.5862.0169.9276-.0879.1745-.50479,1.2087-.3576,1.3968a.66986.66986,0,0,1-.2696.8673c-.5202.2655-.7515,1.1585-.951,1.6965-.3259.8788-.1842,1.3738-.9834,2.1143-.0416.0385-.9256,1.7652-.799.4987.0391-.3916.9223-.752.64481-1.1479Z" transform="translate(-225.59256 -109.24071)" fill-rule="evenodd" fill="url(#New_Gradient_Swatch_3)"/>
        <path d="M255.60831,112.47877c.2816-.0711,3.3832-.7574,3.4401-.7303a1.84363,1.84363,0,0,0,1.5926.0676,19.1513,19.1513,0,0,0,2.9335.3985,24.91442,24.91442,0,0,1,3.2125.8485c-.2969-.0423-1.378-.3346-1.74319.0427a.87977.87977,0,0,1-.77231.2184c-.4433.1753-.074.4513.2722.4795a2.98616,2.98616,0,0,1,.7817.075c1.22541.8503,2.5692.5026,2.8039.7461.488.5066,1.7003.4266,1.7522.6272.1881.7254-.8809.0695-1.0773.4458-.1826.3501-.512.1256-1.0259,0-1.2794-.3126-.9868.4745-.2056.5097.5589.0252,1.1697.6791.8393.6661-.3463-.0136-.23619.3761-.6168.3599-2.1963-.0941.42861.6143.5721.8562.625,1.0536-1.1288.069-1.1589.0669-.9641-.0695-.2447.6699-.2233.6859.1798.1345,1.5668.4964,1.6069.6786.185.8408-1.2729-.0604-1.46519-.0514-.93171.0435-.28.7417.07269.8975a6.80965,6.80965,0,0,1,1.1502.9231c.4306.1428.2937-.1367.2937-.304,0-.8632,2.03041.1915,2.2127.3686,1.1898,1.1558-1.8471-.2848-1.4886.5031.5338,1.1728-1.0543,1.1315-1.1376.5699a1.72511,1.72511,0,0,0-1.6597-1.2103c-.5761,0-.6418-.2204-.6716-.4407-.1019-.7522-1.13679-.5234-1.0601.0084a1.91455,1.91455,0,0,0,.3052.6791.64045.64045,0,0,1,.0902.7312c-.1922.4105-.6158-.2963-.8135-.4927a1.31163,1.31163,0,0,1-.4665-1.2761c.06691-.5312-.1312-.8306-.9398-.7-.2782.0449-.4452-.1975-.5397-.2828-.3892-.3512-.9708-.6224-1.1351.0042-.0646.2464.14851,1.9365-.3234,2.0331-.9336.1911-.3343-1.0776-.4803-1.2405-.3422-.382-.0284-1.0815-.2203-1.2764-.5382-.5462-.55049.9659-1.0113,1.0943-.9561.2662-.1958-.5875-.1946-.6059.0826-1.2604-1.1842-.1868-1.1912-.1865-.7142.0286-1.1199,1.3792-1.6899.882-.5181-.452.534-.6228.3408-1.0215-.2545-.5254-1.1431.2934-1.61129.1071-.17141-.0681.28119-1.1598-1.18021-.0748-.86979.6458-.8521-.1668-.7491-.2549.3446-.2943-.18569-.2634-.6044-.1153a8.92037,8.92037,0,0,0-2.2966,1.6782c-.364.2997-.6743.2951-.5609-.014.1066-.2907.35-.5963.13421-.7248-.40381-.2405-1.48281.3805-1.78371.0587-.3091-.3306-.1202-.532.1949-.6584.19581-.0786,1.5719-.4206,1.8669-.4785,1.0611-.208,2.6472-.3456,2.6788-.7741.0568-.7703-2.9721.5231-3.451.3878-.6474-.1828-1.5492.8583-2.0967.3768-.5721-.5031.45581-.8329.4987-.893.5948-.8349,3.3403-.4536,3.9349-1.2214.6451-.8331-.68479-.4387-.9636-.6338-.8585-.6007,1.7283-.6209,1.81181-.694.88549-.7751-.68911-.3043-.90771-.3063-.5918-.005-3.4811,1.1817-3.4811.5142,0-.6787,1.74881-.5019,2.5513-.9489a4.80043,4.80043,0,0,1,1.947-.1543c2.32851,0,.7938-.4515.73651-.5397-.45511-.7004.55079-.3462.75429-.5376a5.39537,5.39537,0,0,1,2.28771-.0536c.18319.0305.65069.0789.61909-.1564-.0127-.0941-.2679-.0034-.10609-.1939.15369-.1809-.50521-.4459-1.18451-.3431Zm-8.89749,6.6389c-1.23011-.543-1.21931.8568-2.00391.8027-.5772-.0399-1.0826.6981-1.4275,1.1118-.45859.5501-.2567.6076.1931.3912.66931-.3221,1.186-.9846,2.0537-.8351.7307.1259-.001-.7984,1.0555-.7488.5554.0262.7952-.4276.12911-.7218Zm-4.33261,2.6644c-.4206.2923-.18039-.1232-.4381.3513-.1391.2561-.4845-.0574-.5772.3995-.0302.1483-.6292.4826-.7583.6789-.08979.1363-1.1885,1.1041-.26479.7595.15269-.057.39039-.5746.92459-.784.1689-.0663.7539-.5085.7539-.6823,0-.5265.1556-.1336.5107-.4627.1125-.1042-.1067-.2908-.1508-.2602Z" transform="translate(-225.59256 -109.24071)" fill-rule="evenodd" fill="url(#radial-gradient-11)"/>
        <path d="M287.964,129.13227c-.0669-.1324-1.8895-3.4831-1.9535-3.5472a13.05342,13.05342,0,0,1-1.0282-.8226c-.2706-.2746-.4408-.6346-.6941-.9253-.2109-.2422-.4911-.4193-.6939-.6683-.1773-.2176-.3643-.7004-.437-.7197a4.22509,4.22509,0,0,1-.5003-.1958,11.39637,11.39637,0,0,1-1.6331-.8581c-.2738-.2232-.37609-.624-.6684-.8225-.23669-.1609-.584-.0626-.8355-.1993a6.114,6.114,0,0,1-1.0924-.8483c-.3377-.2994-.5883-.6954-.9511-.9639a1.39366,1.39366,0,0,0-.6811-.2441.208.208,0,0,0-.1927.1542.31517.31517,0,0,0,.0899.2699c.4045.4269.8575.8055,1.298,1.1952a10.231,10.231,0,0,1,1.0411.8739c.1519.1758.1528.442.2699.6426a.8632.8632,0,0,0,.2698.2828c.2933.1924.6476.2871.92541.5012a.89806.89806,0,0,1,.30849.4498c.0176.0612-.085.1581-.14149.1286-.256-.1341-.42071-.4035-.66831-.5527-.0964-.0581-.263-.1388-.3341-.0514-.08459.1038.0049.2729.05141.3984.04169.1126.17379.1799.20569.2956.0201.0732-.09769.1503-.0643.2185a16.95785,16.95785,0,0,0,.9382,1.568,4.75517,4.75517,0,0,1,.4241.5912.2523.2523,0,0,1-.0514.2698.284.284,0,0,1-.32129.0514c-.22051-.1715-.28831-.4861-.48841-.681a1.18935,1.18935,0,0,0-.514-.2957.69912.69912,0,0,0-.3422-.0217,6.731,6.731,0,0,0,1.0241,1.4236c.5507.6293,1.3737,1.0283,1.7993,1.748a4.42586,4.42586,0,0,1,.6941,1.8764,1.70318,1.70318,0,0,1-.2057.8739c-.1431.2694-.53819.4038-.6441.6726.0734.0642.1796.1361.3348.2645.1003.083.58311.5726.7326.2442a4.85173,4.85173,0,0,0,.2056-1.2467,1.2832,1.2832,0,0,0,.0771-.4755c-.05-.2186-.2549-.377-.3213-.5912-.03189-.103.0636-.2164.0386-.3213-.0459-.192-.2028-.3468-.2443-.5398a5.41557,5.41557,0,0,1-.0128-.6554c-.0106-.118-.0905-.2293-.0771-.3471.0062-.0544.0826-.1328.1285-.1028a.59789.59789,0,0,1,.2057.3213c.09.2702.0889.5655.1799.8354.0394.1171.176.1885.2057.3085a7.79968,7.79968,0,0,0,.077.8353c.06591.1794.2873.2604.3856.4242.07331.1221.0436.2884.1157.4112.09061.1543.283.2368.3599.3984.0918.1936.0353.4369.1285.6298.1486.3079.5311-.0466.4883-.2442-.0606-.2799-.2735-.3598-.3855-.6233-.0424-.0998-.01259-.3037-.0515-.4048-.0759-.1976-.2815-.3232-.3727-.5141a.41117.41117,0,0,1-.016-.3374c.0434-.099.1649-.1139.2024-.2153a2.22591,2.22591,0,0,0,.0771-.3149.72229.72229,0,0,1,.0964-.1863c.0769-.1323.0332-.3287.1414-.437.0565-.0565.1897-.004.23131.0643.08179.1341-.004.3367.09.4627.12359.1657.36639.2023.51409.347.1738.1702.26891.4089.437.5848.2161.2257.4024.0952.5398.7068.0432.1923-.0853.4079-.01289.5912.08379.2117.32659.3226.44989.5141.0446.0693-.004.1736.0386.2442.1371.2275.36351.3953.4883.6297a1.6097,1.6097,0,0,1,.1414.5527c.0144.1107-.0727.2328-.0257.3341.1239.2675.396.4496.514.7198.0811.1855-.0093.4154.0644.604a.32913.32913,0,0,0,.2569.2185.25913.25913,0,0,0,.2315-.2056,1.99725,1.99725,0,0,0-.0772-.8483c-.068-.2281-.2737-.395-.3598-.6169-.241-.6215-.3669-1.2843-.6169-1.9021-.18839-.4654-.4653-.8899-.6941-1.3366-.131-.2558-.2385-.5243-.3855-.7712-.09379-.1575-.25779-.2703-.3342-.4369a1.05144,1.05144,0,0,1-.1671-.6555c.0311-.1203.2034.1522.2699.2571.1591.2507.2268.5545.3985.7968.1453.2051.4014.317.5397.5269.1171.1776.10141.4187.2056.6041.1472.2612.3744.4696.5399.7197.2206.3333.4207.6799.61691,1.0282.19069.3385.36229.6876.54339,1.0314a28.80507,28.80507,0,0,0-1.3402-3.9487Z" transform="translate(-225.59256 -109.24071)" fill-rule="evenodd" fill="url(#radial-gradient-12)" style="mix-blend-mode: multiply"/>
        <path d="M237.90591,160.20157c-2.06309.0825-3.3935,1.646-2.7503-3.3402.0628-.4869.3443-1.6958-.5655-1.0795-.63329.429-1.4094,1.7278-2.5704,1.388-.3754-.1099-.55289-.6372-.5655-1.0282a7.52049,7.52049,0,0,1,.4627-2.1591c.2872-1.0565.728-2.0697.9768-3.1359.2382-1.0212-.4157-1.1547-.9254-.6169a12.54582,12.54582,0,0,1-1.5937,1.7993c-.7301.5192-1.1309-.9962-1.0281-1.5937a5.42236,5.42236,0,0,1,.8739-1.8507c.1705-.2752.2128-.506-.1607-.3727-.33.1179-.7828.3176-1.17589.4241-.166.0449-.36621-.0395-.257-.3084a10.13657,10.13657,0,0,0,.97669-3.0844c.0267-.4317-.5925-.6663-.71969-1.0797-.09121-.2965.15549-.6195.10279-.9253-.0379-.2202-.35979-.3421-.35979-.5655a11.79262,11.79262,0,0,1,.35979-1.7993,5.62347,5.62347,0,0,0,.1286-1.2852c-.0681-.9119-1.1583-.1422-.4908-3.1962-.1842.5671-.3612,1.1511-.58859,1.7699-.33151.902-1.06481,2.4639-1.07961,2.6732-.0152.2173.3913,1.2538.4113,1.9021.0151.4905-.3622,1.2731-.3085,1.4395a31.03206,31.03206,0,0,1,1.0796,5.552c.0668.5123-.2116,1.3715-.1542,1.5423.0996.2963,1.0822,2.2271,1.4909,3.3929.1779.5078-.0193,1.132.257,1.5937,1.14851,1.9198,1.3649,3.7379,2.0563,5.6035a21.98452,21.98452,0,0,0,1.7993,1.3366c1.6911,1.4495,1.8624,2.1812,2.9816,3.3929a17.93405,17.93405,0,0,0,2.5961,2.3648c.6354.4618,1.4428.6357,2.1078,1.0539.4735.2977.8007.7997,1.2852,1.0795a22.47648,22.47648,0,0,0,2.8531,1.3109,11.55364,11.55364,0,0,0,1.2556.3486,1.88064,1.88064,0,0,1-.6937-.4765c-.0747-.0878-.0211-.2416-.0899-.3341-.0773-.1039-.2602-.1044-.3213-.2185-.05259-.0985.0773-.2352.0257-.3342-.0649-.1245-.2205-.1745-.3342-.257-.1048-.076-.267-.1009-.3213-.2185-.0413-.0897.10021-.1844.09-.2827a.51421.51421,0,0,0-.1542-.3342c-.185-.1582-.4753-.1703-.64259-.347a.359.359,0,0,1-.05141-.3856c.0826-.1511.3616-.135.4241-.2956.0515-.1327-.057-.2944-.1542-.3984-.1008-.1077-.2712-.1182-.39849-.1927-.12191-.0716-.347-.1028-.347-.2442,0-.1164.23349-.0639.347-.0386.25929.058.481.2575.74549.2828.1632.0156.3048-.123.4626-.1671a1.05,1.05,0,0,1,.5013-.1029c.201.0483.3279.2571.514.347a.80157.80157,0,0,0,.2571.0258,6.24127,6.24127,0,0,0,1.0153.1285.49817.49817,0,0,0,.4241-.1928.54271.54271,0,0,0-.0514-.5269.60822.60822,0,0,0-.4884-.2313c-.2187.0051-.3925.2009-.604.257a.82535.82535,0,0,1-.4627.0257c-.27639-.093-.4826-.3417-.7583-.437-.1946-.0673-.45609.0904-.6169-.0385-.5279-.4238-.8474-1.0615-1.3366-1.5295a.5299.5299,0,0,0-.4241-.1542c-.3123.0525-.5673.2937-.8739.3727-.1057.0273-.2121-.0627-.3213-.0642-.18929-.0027-.3809.0929-.5655.0514a.79889.79889,0,0,1-.4627-.2828c-.0902-.1224-.0297-.3053-.07709-.4498-.04361-.1329-.06871-.3083-.19281-.3727-.3599-.1866-.807-.1528-1.1696-.3341-.0921-.0461-.021-.2192-.0899-.2956-.1756-.1948-.4353-.2993-.6169-.4884-.0387-.0402-.0643-.1887-.0129-.1671.1919.0808.3134.283.5013.3727.1089.052.2512-.0138.35981.0386.14219.0686.20659.2701.35989.3084.233.0583.4814-.0691.7197-.0386.2703.0346.5123.2109.7839.2314.0924.007.2271-.0617.2314-.1542.015-.3181-.2442-.6264-.17989-.9383a.435.435,0,0,1,.437-.3084l.02509.0055a7.646,7.646,0,0,0-1.0628-1.7157c-.33829-.3206-.9697-.1237-1.3366-.4112-.55569-.4355.2832-1.3174-1.7736-1.2352Z" transform="translate(-225.59256 -109.24071)" fill-rule="evenodd" fill="url(#radial-gradient-13)" style="mix-blend-mode: multiply"/>
        <path d="M243.22331,166.07717c-.3123.0525-.5673.2937-.8739.3727-.1057.0273-.2121-.0627-.3213-.0642-.18929-.0027-.3809.0929-.5655.0514a.79889.79889,0,0,1-.4627-.2828c-.0902-.1224-.0297-.3053-.07709-.4498-.04361-.1329-.06871-.3083-.19281-.3727-.3599-.1866-.807-.1528-1.1696-.3341-.0921-.0461-.021-.2192-.0899-.2956-.1756-.1948-.4353-.2993-.6169-.4884-.0387-.0402-.0643-.1887-.0129-.1671.1919.0808.3134.283.5013.3727.1089.052.2512-.0138.35981.0386.14219.0686.20659.2701.35989.3084.233.0583.4814-.0691.7197-.0386.2703.0346.5123.2109.7839.2314.0924.007.2271-.0617.2314-.1542.015-.3181-.2442-.6264-.17989-.9383a.435.435,0,0,1,.437-.3084c.22189.0335.28029.4097.50119.4498.30581.0556.60181-.183.9125-.1928.24431-.0076.4874.2176.7197.1414.1277-.0418-.0516-.3302.0643-.3984.1145-.0673.2399.1463.3727.1414.1205-.0044.2007-.1649.3213-.1671.1344-.0024.2386.1456.3727.1543a1.89653,1.89653,0,0,0,.6169-.09.84645.84645,0,0,0,.4113-.1928.86873.86873,0,0,0,.2056-.4755.48951.48951,0,0,0-.1028-.3471c-.1476-.1889-.422-.2667-.5398-.4755-.05459-.0968.114-.2128.09-.3213-.04859-.2187-.2547-.3836-.29559-.604-.01961-.1056.13989-.1888.12849-.2956-.0168-.1562-.202-.2671-.2057-.4241-.0017-.0749.207-.0422.1928-.1157-.0483-.2501-.2821-.4348-.347-.6812a.23432.23432,0,0,1,.1028-.2442l.0134-.0069a.36964.36964,0,0,0-.2716.2241c-.0457.1534.1529.4985-.0257.6426-.1081.0871-.5107-.0283-.4498.347.024.1487.1428.2888.1156.437-.0181.0987-.1849.1038-.23129.1928-.06261.1198.01769.3019-.07721.3983-.1774.1804-.4845.186-.6683.3599a.33247.33247,0,0,0-.0514.3213c.0716.2366.2527.4269.3471.6555.0785.1904-.1433.2333-.2828.2185-.2065-.0219-.7616-.2791-.92539-.1414-.31861.2678-.37881.7332-.88681.2827-.2366-.2099-.38119.0705-.59119-.0257-.61821-.2834-1.49281-.7652-1.65991-.5779-.093.1042.4425,1.0468-.33209.7321-.43141-.1753-.821-.4399-1.23381-.6554-2.04719-1.0685-.7679.1842-.2828.9382a.18307.18307,0,0,1-.05139.2184c-.10711.0788-.28991.0105-.38551.1029a.23075.23075,0,0,0,0,.2699c.31051.4469.7258.8126,1.0538,1.2467a1.07539,1.07539,0,0,1,.18.3855c.0111.0447-.00529.1272-.0514.1285-.2693.0081-.5517-.2752-.70689-.2827-.09211-.0045-.32441.3267-.48841.2956-.1762-.0334-.2839-.2273-.4498-.2956a2.075,2.075,0,0,0-.4241-.0643l-.00869-.0015a1.42229,1.42229,0,0,1-.47971-.1013,3.74557,3.74557,0,0,1-.7326-.6041c-.20969-.2076-.3462-.4837-.5654-.6811a3.88034,3.88034,0,0,0-.5181-.375c.9351.9609,1.2253,1.6214,2.1165,2.5863a17.93405,17.93405,0,0,0,2.5961,2.3648c.6354.4618,1.4428.6357,2.1078,1.0539.4735.2977.8007.7997,1.2852,1.0795a22.47648,22.47648,0,0,0,2.8531,1.3109,11.479,11.479,0,0,0,1.2544.3481,1.87826,1.87826,0,0,1-.6925-.476c-.0747-.0878-.0211-.2416-.0899-.3341-.0773-.1039-.2602-.1044-.3213-.2185-.05259-.0985.0773-.2352.0257-.3342-.0649-.1245-.2205-.1745-.3342-.257-.1048-.076-.267-.1009-.3213-.2185-.0413-.0897.10021-.1844.09-.2827a.51421.51421,0,0,0-.1542-.3342c-.185-.1582-.4753-.1703-.64259-.347a.359.359,0,0,1-.05141-.3856c.0826-.1511.3616-.135.4241-.2956.0515-.1327-.057-.2944-.1542-.3984-.1008-.1077-.2712-.1182-.39849-.1927-.12191-.0716-.347-.1028-.347-.2442,0-.1164.23349-.0639.347-.0386.25929.058.481.2575.74549.2828.1632.0156.3048-.123.4626-.1671a1.05,1.05,0,0,1,.5013-.1029c.201.0483.3279.2571.514.347a.80157.80157,0,0,0,.2571.0258,6.24127,6.24127,0,0,0,1.0153.1285.49817.49817,0,0,0,.4241-.1928.54271.54271,0,0,0-.0514-.5269.60822.60822,0,0,0-.4884-.2313c-.2187.0051-.3925.2009-.604.257a.82535.82535,0,0,1-.4627.0257c-.27639-.093-.4826-.3417-.7583-.437-.1946-.0673-.45609.0904-.6169-.0385-.5279-.4238-.8474-1.0615-1.3366-1.5295a.5299.5299,0,0,0-.4241-.1542Z" transform="translate(-225.59256 -109.24071)" fill-rule="evenodd" fill="url(#radial-gradient-14)"/>
        <path d="M243.22331,166.07717c-.3123.0525-.5673.2937-.8739.3727-.1057.0273-.2121-.0627-.3213-.0642-.18929-.0027-.3809.0929-.5655.0514a.79889.79889,0,0,1-.4627-.2828c-.0902-.1224-.0297-.3053-.07709-.4498-.04361-.1329-.06871-.3083-.19281-.3727-.3599-.1866-.807-.1528-1.1696-.3341-.0921-.0461-.021-.2192-.0899-.2956-.1756-.1948-.4353-.2993-.6169-.4884-.0387-.0402-.0643-.1887-.0129-.1671.1919.0808.3134.283.5013.3727.1089.052.2512-.0138.35981.0386.14219.0686.20659.2701.35989.3084.233.0583.4814-.0691.7197-.0386.2703.0346.5123.2109.7839.2314.0924.007.2271-.0617.2314-.1542.015-.3181-.2442-.6264-.17989-.9383a.435.435,0,0,1,.437-.3084l.02509.0055c-.0553-.0918-.1076-.1861-.1585-.2818-.1087.0283-.20859.0995-.33059.0436-.61821-.2834-1.49281-.7652-1.65991-.5779-.093.1042.4425,1.0468-.33209.7321-.43141-.1753-.821-.4399-1.23381-.6554-2.04719-1.0685-.7679.1842-.2828.9382a.18307.18307,0,0,1-.05139.2184c-.10711.0788-.28991.0105-.38551.1029a.23075.23075,0,0,0,0,.2699c.31051.4469.7258.8126,1.0538,1.2467a1.07539,1.07539,0,0,1,.18.3855c.0111.0447-.00529.1272-.0514.1285-.2693.0081-.5517-.2752-.70689-.2827-.09211-.0045-.32441.3267-.48841.2956-.1762-.0334-.2839-.2273-.4498-.2956a2.075,2.075,0,0,0-.4241-.0643l-.00869-.0015a1.42229,1.42229,0,0,1-.47971-.1013,3.74557,3.74557,0,0,1-.7326-.6041c-.20969-.2076-.3462-.4837-.5654-.6811a3.88034,3.88034,0,0,0-.5181-.375c.9351.9609,1.2253,1.6214,2.1165,2.5863a17.93405,17.93405,0,0,0,2.5961,2.3648c.6354.4618,1.4428.6357,2.1078,1.0539.4735.2977.8007.7997,1.2852,1.0795a22.47648,22.47648,0,0,0,2.8531,1.3109,11.479,11.479,0,0,0,1.2544.3481,1.87826,1.87826,0,0,1-.6925-.476c-.0747-.0878-.0211-.2416-.0899-.3341-.0773-.1039-.2602-.1044-.3213-.2185-.05259-.0985.0773-.2352.0257-.3342-.0649-.1245-.2205-.1745-.3342-.257-.1048-.076-.267-.1009-.3213-.2185-.0413-.0897.10021-.1844.09-.2827a.51421.51421,0,0,0-.1542-.3342c-.185-.1582-.4753-.1703-.64259-.347a.359.359,0,0,1-.05141-.3856c.0826-.1511.3616-.135.4241-.2956.0515-.1327-.057-.2944-.1542-.3984-.1008-.1077-.2712-.1182-.39849-.1927-.12191-.0716-.347-.1028-.347-.2442,0-.1164.23349-.0639.347-.0386.25929.058.481.2575.74549.2828.1632.0156.3048-.123.4626-.1671a1.05,1.05,0,0,1,.5013-.1029c.201.0483.3279.2571.514.347a.80157.80157,0,0,0,.2571.0258,6.24127,6.24127,0,0,0,1.0153.1285.49817.49817,0,0,0,.4241-.1928.54271.54271,0,0,0-.0514-.5269.60822.60822,0,0,0-.4884-.2313c-.2187.0051-.3925.2009-.604.257a.82535.82535,0,0,1-.4627.0257c-.27639-.093-.4826-.3417-.7583-.437-.1946-.0673-.45609.0904-.6169-.0385-.5279-.4238-.8474-1.0615-1.3366-1.5295a.5299.5299,0,0,0-.4241-.1542Z" transform="translate(-225.59256 -109.24071)" fill-rule="evenodd" fill="url(#radial-gradient-15)" style="mix-blend-mode: multiply"/>
        <path d="M242.01831,122.505c0-.5265.1556-.1336.5107-.4627.1125-.1042-.1067-.2908-.1508-.2602-.4206.2923-.18039-.1232-.4381.3513-.1391.2561-.4845-.0574-.5772.3995-.0302.1483-.6292.4826-.7583.6789-.08979.1363-1.1885,1.1041-.26479.7595.15269-.057.39039-.5746.92459-.784.1689-.0663.7539-.5085.7539-.6823Zm1.4542-1.0816c.66931-.3221,1.186-.9846,2.0537-.8351.7307.1259-.001-.7984,1.0555-.7488.5554.0262.7952-.4276.12911-.7218-1.23011-.543-1.21931.8568-2.00391.8027-.5772-.0399-1.0826.6981-1.4275,1.1118-.45859.5501-.2567.6076.1931.3912Zm4.4446-1.6364c.3009.3218,1.3799-.2992,1.78371-.0587.21579.1285-.02761.4341-.13421.7248-.1134.3091.1969.3137.5609.014a8.92037,8.92037,0,0,1,2.2966-1.6782c.41871-.1481.949-.179.6044.1153-.103.0881-.12069.9007.7491.2549,1.4614-1.085,1.0088.0067,1.18021.0748.46819.1863,1.35679-.6325,1.61129-.1071.1932.3987-.8589.5695-.3408,1.0215.57.4972.9757-.8534,1.6899-.882.007-.0003,1.2738-1.0739,1.1912.1865-.0012.0184-.7615.8721.1946.6059.46081-.1284.4731-1.6405,1.0113-1.0943.1919.1949-.1219.8944.2203,1.2764.146.1629-.4533,1.4316.4803,1.2405.47191-.0966.2588-1.7867.3234-2.0331.1643-.6266.7459-.3554,1.1351-.0042.0945.0853.2615.3277.5397.2828.8086-.1306,1.00671.1688.9398.7a1.31163,1.31163,0,0,0,.4665,1.2761c.1977.1964.6213.9032.8135.4927a.64045.64045,0,0,0-.0902-.7312,1.91455,1.91455,0,0,1-.3052-.6791c-.07669-.5318.9582-.7606,1.0601-.0084.0298.2203.0955.4407.6716.4407a1.72511,1.72511,0,0,1,1.6597,1.2103c.0833.5616,1.6714.6029,1.1376-.5699-.1234-.2713.1557-.2784.52631-.2182a7.68432,7.68432,0,0,0-.49291-.7007q-.1131-.145-.2375-.2817c-.3009-.0313-.52.0452-.52.3289,0,.1673.1369.4468-.2937.304a6.80965,6.80965,0,0,0-1.1502-.9231c-.35269-.1558-1.0044-.854-.07269-.8975.11709-.0054.70309.3264,1.102.3971-.26831-.1616-.55411-.2982-.807-.4828-.34611-.2526-.65211-.5559-.97681-.8354a.18782.18782,0,0,1-.0386-.0385,6.61071,6.61071,0,0,0-.784-1.2467,4.17652,4.17652,0,0,0-1.298-.7968c-.4305-.1851-.9239-.1816-1.3623-.347-.6671-.2518-1.2611-.6839-1.9407-.8997a11.70209,11.70209,0,0,0-2.3905-.4755,8.86046,8.86046,0,0,0-1.131.1285,3.682,3.682,0,0,1-.8739-.0642c-.2086-.044-.378-.245-.59119-.2442a22.68428,22.68428,0,0,0-2.84031.2572,3.48061,3.48061,0,0,0-.5952.1645,1.49186,1.49186,0,0,1-.20749.2122c-.08351.0731-2.67031.0933-1.81181.694.27881.1951,1.6087-.1993.9636.6338-.5946.7678-3.3401.3865-3.9349,1.2214-.04289.0601-1.0708.3899-.4987.893.5475.4815,1.4493-.5596,2.0967-.3768.4789.1353,3.5078-1.1581,3.451-.3878-.0316.4285-1.6177.5661-2.6788.7741-.295.0579-1.67109.3999-1.8669.4785-.3151.1264-.504.3278-.1949.6584Z" transform="translate(-225.59256 -109.24071)" fill-rule="evenodd" fill="url(#radial-gradient-16)" style="mix-blend-mode: screen"/>
        <path d="M239.43182,149.254c-.20771-.0895-.438.1444-.61691.2828-.2827.2187-.4008.6759-.7454.7711-.3952.1092-.8042-.3015-1.2081-.2314-.2567.0446-.3051.5293-.5654.5398a.818.818,0,0,1-.6941-.4884c-.1067-.2376.1553-.5119.1286-.7711-.0265-.2563-.3383-.468-.2828-.7197a10.62367,10.62367,0,0,1,.77111-1.4908c.07969-.2005.22039-.4814.07719-.6426-.1153-.1296-.3175.1506-.4884.1799-.3815.0656-.8001.2532-1.1567.1028a.86374.86374,0,0,1-.4884-.7968c.0202-.2392.4735-.202.5911-.4113.1355-.2408-.0132-.5718.1029-.8225a.456.456,0,0,1,.3856-.2314c.2329-.0055.4468.278.6683.2057.2707-.0884.32541-.5147.5912-.6169.3359-.1292.7473.1127,1.0796-.0257.1575-.0656.1703-.3185.1542-.4884-.037-.389-.3684-.7449-.3085-1.131.0331-.2136.4266-.1757.5398-.3598.11311-.1837-.0344-.458.07711-.6426a2.13186,2.13186,0,0,1,.74539-.7197c.3767-.2201.94661-.1087,1.2338-.437.2201-.2515-.02919-.6728.0257-1.0025a3.55065,3.55065,0,0,1,.3342-1.1567c.0728-.1306.3218-.06.4113-.1799.2517-.3379.2592-.8415.5654-1.131a.63281.63281,0,0,1,.1594-.1084,1.03249,1.03249,0,0,0-.4485.1768c-.1792.1529-.099.6807-.4499.7069-.097.0072-.5404-.282-.7325.0257-.1412.2261.1199.7075.0771.8611-.0256.0916-.1888.082-.2313.1671-.0577.1152.0434.6702-.4499.8739-.2674.1105-.9049-.3452-1.1181.2699-.0989.2855.2526.9048-.1799,1.0667-.132.0494-.3014.0393-.3984.1414-.0917.0963.0015.3032-.1029.3855-1.5962,1.2584-2.898.1799-4.4211,1.5294-.6815.6038-.6371,1.1523.058,1.0734.3051-.0346.5821-.1147.7131.1604a.63712.63712,0,0,1-.1542.5912,3.43354,3.43354,0,0,1-.80369.6098l-.01411.0269c-.093.1748-.2812.287-.3727.4626a1.68717,1.68717,0,0,0-.1028.4498c-.00339.0169-.0155.0442,0,.0514a4.05538,4.05538,0,0,1,.4884.18c.186.1199.4524.2315.4884.4498.0386.2344-.2925.4056-.3085.6426a.56139.56139,0,0,0,.2314.5012,4.76164,4.76164,0,0,0,1.2594.3727c.079.0202.2136-.0627.2442.0129.066.163-.1015.3683-.02569.5269.08289.1733.39129.177.44979.3599.063.1969-.1459.3973-.1413.604a.9709.9709,0,0,0,.167.5398,6.4183,6.4183,0,0,0,1.0154,1.0924,1.55206,1.55206,0,0,0,.8225.4884c.3178.0192.5568-.3582.8739-.3855.222-.0192.5415.0474.6169.2569.1174.3261-.2923.7104-.1541,1.0282a.20475.20475,0,0,0,.0678.0851c.35011-.3336.6372-.7394.9813-1.0816.6137-.6104.72581.3011,1.6964-.1028a6.13555,6.13555,0,0,0,.8611-.5655c.91731-.5795.9088-.0537.5938.281-.4008.4258.1628.7356.3444.2781.1082-.2726.24-.7508.3854-1.1721.2721-.7887.7012-1.324,1.0644-.8335.101.1365.2875.1817.4266-.0829.0879-.167.2235-.7397.3562-1.1809.2299-.7648.4019-.6889.3147-.025a2.98293,2.98293,0,0,0-.044.6835c.0542.4403.3326.4937.5295.0568.1858-.4123.3839-1.1559.5272-1.6035a1.58048,1.58048,0,0,1,.6978-.8348c.2771-.1396.3021.0298.2936.1581-.0058.0888.0178.1647.1031.1884.5051.1402,2.2029-2.1164,2.4784-2.5705a3.72236,3.72236,0,0,1,.4498-.6426,6.71885,6.71885,0,0,1,1.3495-.7712c.4223-.1975.8808-.3204,1.2852-.5526a2.83164,2.83164,0,0,0,.7068-.5912,7.01947,7.01947,0,0,0,.44991-.7261c.18379-.27.48419-.61.61469-.3667a.383.383,0,0,0-.0428-.1065c-.0934-.1576-.3947-.0088-.5398.1028-.4323.3325-.70109.8468-1.131,1.1824a17.6676,17.6676,0,0,1-1.7993,1.1053,7.86791,7.86791,0,0,0-1.05379.6169c-.28891.2428-.44071.6199-.71981.8739a10.43886,10.43886,0,0,1-1.8506,1.4651c-.4661.2613-1.0842.1621-1.5423.437-.23329.14-.1289.6294-.3856.7197-.3235.1138-.6652-.2937-1.0024-.2313-.2039.0377-.2991.2999-.3856.4883-.1571.3424-.10469.7809-.3341,1.0796-.1727.225-.5599.1707-.7711.3599-.3768.3373-.577.842-.9511,1.1823a2.5533,2.5533,0,0,1-1.0539.6427,1.18809,1.18809,0,0,1-.9253-.1542c-.2173-.1508-.18919-.4986-.3341-.7198-.2004-.3054-.3586-.7036-.69409-.8482Zm-4.83781-7.6579a6.74361,6.74361,0,0,1,.9213-.0784c.5187-.0086.4286-.4942-.0191-.8498a.89249.89249,0,0,0-.8722-.1005c-.089.0465-.136.2049-.2175.2655a8.27659,8.27659,0,0,0-1.0069.4868,1.12608,1.12608,0,0,0-.3772.3899c-.0992.2139.00041.2493.0795.2437.5081-.0367.9893-.2692,1.4921-.3572Z" transform="translate(-225.59256 -109.24071)" fill-rule="evenodd" fill="url(#radial-gradient-17)" style="mix-blend-mode: screen"/>
        <g>
          <path d="M246.78311,113.41237c.7751-.1301,2.6886-1.0982,3.8108-1.4138a9.80739,9.80739,0,0,1,2.9315-.3654c.3845-.0123.5509-.1889.5819-.4168.1651-1.2137-2.7034-2.7774-4.2768-1.4982-1.2826-.657-2.9195-.7866-3.9002.6267-.7576,1.0921-1.3053,3.4295.8528,3.0675Z" transform="translate(-225.59256 -109.24071)" fill-rule="evenodd" fill="url(#radial-gradient-18)"/>
          <path d="M246.69531,111.02327c-.9611.591-1.2499,2.0826-.2706,2.4258a2.62367,2.62367,0,0,0,.3584-.0367c.7751-.13,2.6886-1.0982,3.8108-1.4138a8.98988,8.98988,0,0,1,2.6454-.3566c1.0799-.7098-1.3137-1.7096-2.13349-1.6191a1.11925,1.11925,0,0,0-.98731,1.302,3.52827,3.52827,0,0,0-3.4232-.3016Z" transform="translate(-225.59256 -109.24071)" fill-rule="evenodd" fill="url(#New_Gradient_Swatch_76-2)" style="mix-blend-mode: multiply"/>
        </g>
        <g>
          <path d="M237.15191,159.04237a9.61747,9.61747,0,0,1-2.1066-7.2846c.4718-2.8873,2.58051-2.8174,3.3721-2.4538a8.03716,8.03716,0,0,1,2.35441-6.2568c2.18969-1.959,4.10009.2081,3.38,1.8991-2.73791,6.4292-4.56051,10.5241-1.55361,17.769a25.06949,25.06949,0,0,0,11.34861,12.2477c-4.76291,1.7296-10.84191-.5042-15.05461-5.5668-1.398-1.6802-2.3611-4.3582-.90239-5.2169a4.03809,4.03809,0,0,1-2.33251-2.9015,1.84915,1.84915,0,0,1,1.4946-2.2354Z" transform="translate(-225.59256 -109.24071)" fill-rule="evenodd" fill="url(#radial-gradient-19)"/>
          <path d="M242.99021,147.71147c.1114-2.5-1.44-3.4943-2.9822-1.3816a6.07122,6.07122,0,0,0-.6349,5.3993c-4.8111-1.5202-3.55829,5.3961-1.1507,8.1598-3.4911.7661-1.3293,4.2091,1.1163,4.417-2.9825,3.6178,4.0087,10.3936,11.0656,11.2344a9.93131,9.93131,0,0,0,3.54251-.5774,25.06949,25.06949,0,0,1-11.34861-12.2477c-2.554-6.1536-1.6238-10.0347.392-15.0038Z" transform="translate(-225.59256 -109.24071)" fill-rule="evenodd" fill="url(#New_Gradient_Swatch_76-3)" style="mix-blend-mode: multiply"/>
        </g>
        <g>
          <path d="M230.84571,153.77387c.7265-1.7537-.1727-4.0425,1.6245-11.3023.3274-1.3223.9148-2.5993,1.3164-3.8691.0869-.2749.2488-.7505-.5664-.6541-.9627.1139-2.5278,1.794-2.9796,2.5886a3.23323,3.23323,0,0,0,.09,3.7342c-2.4384.8048-4.2932,2.654-4.1372,5.4309.2047,3.6433,4.0435,5.5416,4.6523,4.0718Z" transform="translate(-225.59256 -109.24071)" fill-rule="evenodd" fill="url(#radial-gradient-20)"/>
          <path d="M228.97421,150.33747c-2.6567,1.2944-2.8033-1.473-2.1488-3.4225a4.92546,4.92546,0,0,0-.632,2.7871c.2047,3.6433,4.0435,5.5416,4.6523,4.0718.7265-1.7537-.1727-4.0425,1.6245-11.3023.3274-1.3223.9148-2.5993,1.3164-3.8691.0869-.2749.2488-.7505-.5664-.6541a3.9617,3.9617,0,0,0-1.8405,1.1923c.8343-.6756,1.3742-.8788,1.4239-.7128.0863.288-.62479,1.5836-.9837,3.3093-.2538,1.2205.1448,2.8075-1.192,2.674,1.1943,2.2042.6958,4.7816-1.6537,5.9263Z" transform="translate(-225.59256 -109.24071)" fill-rule="evenodd" fill="url(#New_Gradient_Swatch_76-4)" style="mix-blend-mode: multiply"/>
        </g>
        <g>
          <path d="M240.99971,132.68657a6.51281,6.51281,0,0,1,2.9525-3.7406c-.9008-.4963-2.65539-2.2217-.3405-5.2198,2.2363-2.8962,6.8134-4.7148,7.9615-1.633a2.82951,2.82951,0,0,1,2.6154-1.1788,1.45648,1.45648,0,0,1,.998.9131,6.02125,6.02125,0,0,1,6.14221-4.0143c4.279.52,5.07219,4.4935.65709,6.07-2.9876,1.0667-5.7105.9302-9.1174,2.4473-3.6011,1.6034-5.2474,2.6595-7.40669,5.8886-.416.622-.71381,1.3213-1.15991,1.9222-1.75809,2.3688-3.87509,1.2399-3.3022-1.4547Z" transform="translate(-225.59256 -109.24071)" fill-rule="evenodd" fill="url(#radial-gradient-21)"/>
          <path d="M245.49141,130.28267a7.44185,7.44185,0,0,1-2.5755,4.2198c-.80209.5228-1.607.511-1.984-.5396.2352,1.7089,1.924,2.1266,3.3701.1784.446-.601.74381-1.3002,1.15981-1.9222,2.15929-3.229,3.80549-4.2852,7.40659-5.8886,3.407-1.517,6.1299-1.3806,9.1175-2.4473,4.4151-1.5765,3.62191-5.55-.6572-6.0699q-.1629-.0198-.3227-.0295c3.7085.7589,3.6731,3.3419,1.8136,4.8719a7.98292,7.98292,0,0,1-5.8071,1.6273,2.374,2.374,0,0,1-1.9226-1.4409c-.5013,2.3528-3.2504,2.4828-3.5867-.1959.0872,4.2614-4.105,7.0836-7.1086,6.3587.8325.2624,1.1117.7239,1.0968,1.2778Z" transform="translate(-225.59256 -109.24071)" fill-rule="evenodd" fill="url(#New_Gradient_Swatch_76-5)" style="mix-blend-mode: multiply"/>
        </g>
        <path d="M288.81121,131.42007c2.4695-4.7884-3.3528-9.6431-6.6333-5.8499-.9619-2.3592-5.5755-3.1436-7.2824-.8535a3.69618,3.69618,0,0,0-.5705,3.1775c-1.3986-.8693-2.8067.0407-3.0335,2.118a12.71354,12.71354,0,0,0-13.9262,7.3872c-2.2159,5.2145.2854,9.045,4.2206,8.6812,3.9581-.3658,4.7511-5.0984,6.4508-7.9567,1.019-1.7136,2.5399-3.9692,4.5263-2.6028.7484.5149,2.2884,1.688,3.8711.5128,1.7779-1.3201,3.0548-3.8613,5.7072-5.6097,2.7653-1.8227,5.7909-2.2261,6.6699.9959Z" transform="translate(-225.59256 -109.24071)" fill-rule="evenodd" fill="url(#radial-gradient-22)"/>
        <path d="M270.98031,132.03347c-3.1268,1.3932-4.0947,4.9677-5.8672,7.6513-3.2542,4.927-8.5466,5.7078-8.3074-.6377-1.0956,4.3499,1.2728,7.3578,4.7802,7.0335,3.9581-.3658,4.7511-5.0984,6.4508-7.9567,1.019-1.7136,2.5399-3.9692,4.5263-2.6028.7484.5149,2.2884,1.688,3.8711.5128,1.7779-1.3201,3.0548-3.8613,5.7072-5.6097,2.7653-1.8227,5.7909-2.2261,6.6699.9959a4.9803,4.9803,0,0,0-1.8031-6.6093c.6693.8042,1.3695,1.9734.2322,2.6952-1.1509.7303-3.877-.3816-5.0031-1.2171-.0738,3.7451-3.6302,4.4823-6.492,2.828a5.875,5.875,0,0,1,1.6692,1.5443c1.3768,2.0533-.7617,3.563-2.4085,3.0638a2.0056,2.0056,0,0,1-1.228-1.2395c-.4809-1.1177-1.6955-.9431-2.7976-.452Z" transform="translate(-225.59256 -109.24071)" fill-rule="evenodd" fill="url(#New_Gradient_Swatch_76-6)" style="mix-blend-mode: multiply"/>
        <g>
          <path d="M292.81671,133.034a1.18826,1.18826,0,0,0-.9498-.4917.8103.8103,0,0,0-.5645.7265c-.0658.9575,1.6137,3.7697,1.1955,7.0021-.1036.8003-.3638,1.3779-.1688,1.516.165.1169.6981-.077,1.49671-.7558,1.45919-1.2401,2.70849-3.314,1.30589-4.7617a4.229,4.229,0,0,0-1.7706-1.123,2.274,2.274,0,0,0-.5444-2.1124Z" transform="translate(-225.59256 -109.24071)" fill-rule="evenodd" fill="url(#radial-gradient-23)"/>
          <path d="M294.72121,137.724a2.73087,2.73087,0,0,0-2.2945-2.1597c.2202-.995-.5213-2.2345-1.0426-1.7186.3248,1.2668,1.4669,3.6962,1.1138,6.4252-.1036.8003-.3638,1.3779-.1688,1.516.1078.0765.3731.02.7669-.2179a4.66671,4.66671,0,0,0,1.6252-3.845Z" transform="translate(-225.59256 -109.24071)" fill-rule="evenodd" fill="url(#New_Gradient_Swatch_76-7)" style="mix-blend-mode: multiply"/>
        </g>
        <path d="M272.32131,172.79637c-9.6716,7.1996-18.1962-6.7736-11.0938-9.4764-1.8874-6.2295,2.4915-13.724,7.1388-12.6444a3.17482,3.17482,0,0,1,2.294,3.1329c1.12151-4.0755,7.1091-7.4614,7.8196-3.1363,3.2-5.7952,10.8611-5.4145,8.6546,3.8322a17.54141,17.54141,0,0,1-4.1211,8.2435c-3.3408,3.8157-10.3599,3.0236-4.7374-3.5172.35181-.4092,1.1656-1.4366,1.9243-2.5395,1.5723-2.2853,1.9028-5.1751-1.5804-3.7986-.9304.3676-2.2833,1.5161-2.9835,1.8671-1.7715.8879-2.697.7915-4.38659,1.8268-4.66151,2.8563-3.17191,5.0272-2.86451,7.6116.20451,1.719-.292,2.3291-.9327,2.7448-1.7179,1.1147-2.9544,2.7532-1.5986,4.8603,1.1479,1.7841,4.352,2.1749,6.4673.9932Z" transform="translate(-225.59256 -109.24071)" fill-rule="evenodd" fill="url(#radial-gradient-24)"/>
        <path d="M265.854,171.80317c-1.3558-2.1071-.1193-3.7456,1.5986-4.8603.6407-.4157,1.13721-1.0258.9327-2.7448-.3074-2.5844-1.797-4.7553,2.86451-7.6116,1.68959-1.0353,2.61509-.9389,4.38659-1.8268.7002-.351,2.0531-1.4995,2.9835-1.8671,3.4832-1.3765,3.1527,1.5133,1.5804,3.7986-.7587,1.1029-1.57249,2.1303-1.9243,2.5395-4.1034,4.7736-1.4735,6.4852,1.54581,5.5785a4.80348,4.80348,0,0,0,2.222-1.3793c3.16919-3.392,5.33089-10.0966,1.77529-12.756-1.4277-1.0678-3.6122-.8686-5.81429,1.886.88979-4.8352-6.44441-.9921-7.63651,3.5997-.1483-5.6395-4.931-3.3991-5.9621,1.1475a12.15655,12.15655,0,0,0,.8197,7.4917,3.07507,3.07507,0,0,0-3.5385,1.8275c-1.662,4.4973,5.1769,9.3559,10.6339,6.1701-2.1153,1.1817-5.3194.7909-6.4673-.9932Z" transform="translate(-225.59256 -109.24071)" fill-rule="evenodd" fill="url(#New_Gradient_Swatch_76-8)" style="mix-blend-mode: multiply"/>
      </g>
    </g>
  </g>
</svg>
