<svg xmlns="http://www.w3.org/2000/svg" xmlns:xlink="http://www.w3.org/1999/xlink" viewBox="0 0 60.43255 67.11982">
  <defs>
    <linearGradient id="Áåçûìÿííûé_ãðàäèåíò_64" data-name="Áåçûìÿííûé ãðàäèåíò 64" x1="77.26174" y1="136.98946" x2="79.6308" y2="122.0318" gradientUnits="userSpaceOnUse">
      <stop offset="0" stop-color="#8931b3"/>
      <stop offset="1" stop-color="#8e8cff"/>
    </linearGradient>
    <linearGradient id="Áåçûìÿííûé_ãðàäèåíò_59" data-name="Áåçûìÿííûé ãðàäèåíò 59" x1="425.45396" y1="307.7439" x2="426.27539" y2="302.55756" gradientTransform="matrix(-0.985, -0.1724, 0.1724, -0.985, 441.6388, 550.6723)" gradientUnits="userSpaceOnUse">
      <stop offset="0" stop-color="#8e8cff"/>
      <stop offset="1" stop-color="#8931b3"/>
    </linearGradient>
    <radialGradient id="Áåçûìÿííûé_ãðàäèåíò_50" data-name="Áåçûìÿííûé ãðàäèåíò 50" cx="47.11771" cy="134.04709" r="41.79925" gradientUnits="userSpaceOnUse">
      <stop offset="0.00559" stop-color="#ffb8e2"/>
      <stop offset="0.22335" stop-color="#fdb7e3"/>
      <stop offset="0.33205" stop-color="#f5b5e5"/>
      <stop offset="0.41658" stop-color="#e8b0e9"/>
      <stop offset="0.48867" stop-color="#d5aaef"/>
      <stop offset="0.55214" stop-color="#bda2f7"/>
      <stop offset="0.5838" stop-color="#ae9dfc"/>
      <stop offset="0.63817" stop-color="#a996fc"/>
      <stop offset="0.71681" stop-color="#9a83fd"/>
      <stop offset="0.81021" stop-color="#8163fe"/>
      <stop offset="0.91419" stop-color="#5f38ff"/>
      <stop offset="0.9162" stop-color="#5e37ff"/>
      <stop offset="0.98603" stop-color="#5e9aff"/>
    </radialGradient>
    <linearGradient id="Áåçûìÿííûé_ãðàäèåíò_21" data-name="Áåçûìÿííûé ãðàäèåíò 21" x1="29.863" y1="131.29288" x2="41.46357" y2="131.29288" gradientUnits="userSpaceOnUse">
      <stop offset="0" stop-color="#fff"/>
      <stop offset="0.17323" stop-color="#dbd0ea"/>
      <stop offset="0.36341" stop-color="#b9a3d7"/>
      <stop offset="0.54662" stop-color="#9f80c7"/>
      <stop offset="0.71842" stop-color="#8c67bc"/>
      <stop offset="0.87427" stop-color="#8057b5"/>
      <stop offset="1" stop-color="#7c52b3"/>
    </linearGradient>
    <linearGradient id="Áåçûìÿííûé_ãðàäèåíò_19" data-name="Áåçûìÿííûé ãðàäèåíò 19" x1="62.0012" y1="150.4899" x2="82.14387" y2="150.4899" gradientUnits="userSpaceOnUse">
      <stop offset="0" stop-color="#7c52b3"/>
      <stop offset="0.12573" stop-color="#8057b5"/>
      <stop offset="0.28158" stop-color="#8c67bc"/>
      <stop offset="0.45338" stop-color="#9f80c7"/>
      <stop offset="0.63659" stop-color="#b9a3d7"/>
      <stop offset="0.82677" stop-color="#dbd0ea"/>
      <stop offset="1" stop-color="#fff"/>
    </linearGradient>
    <radialGradient id="Áåçûìÿííûé_ãðàäèåíò_600" data-name="Áåçûìÿííûé ãðàäèåíò 600" cx="36.26764" cy="124.81896" r="36.4851" gradientUnits="userSpaceOnUse">
      <stop offset="0" stop-color="#ffffd9"/>
      <stop offset="1"/>
    </radialGradient>
    <linearGradient id="Áåçûìÿííûé_ãðàäèåíò_10" data-name="Áåçûìÿííûé ãðàäèåíò 10" x1="45.8864" y1="173.98861" x2="47.95066" y2="160.95543" gradientUnits="userSpaceOnUse">
      <stop offset="0" stop-color="#6d109d"/>
      <stop offset="1" stop-color="#8e8cff"/>
    </linearGradient>
    <linearGradient id="Áåçûìÿííûé_ãðàäèåíò_31" data-name="Áåçûìÿííûé ãðàäèåíò 31" x1="37.65926" y1="133.15399" x2="28.51483" y2="125.20486" gradientUnits="userSpaceOnUse">
      <stop offset="0" stop-color="#c98eff"/>
      <stop offset="1" stop-color="#8931b3"/>
    </linearGradient>
    <linearGradient id="Áåçûìÿííûé_ãðàäèåíò_35" data-name="Áåçûìÿííûé ãðàäèåíò 35" x1="74.07742" y1="174.80048" x2="57.01807" y2="164.95125" gradientTransform="translate(26.6786 -27.4762) rotate(7.41214)" gradientUnits="userSpaceOnUse">
      <stop offset="0" stop-color="#5400b3"/>
      <stop offset="1" stop-color="#f2c0ff"/>
    </linearGradient>
    <linearGradient id="Áåçûìÿííûé_ãðàäèåíò_21-2" x1="50.0676" y1="123.69504" x2="63.16714" y2="123.69504" xlink:href="#Áåçûìÿííûé_ãðàäèåíò_21"/>
    <linearGradient id="Áåçûìÿííûé_ãðàäèåíò_107" data-name="Áåçûìÿííûé ãðàäèåíò 107" x1="67.10333" y1="181.91081" x2="67.10333" y2="158.7953" gradientTransform="translate(26.6786 -27.4762) rotate(7.41214)" gradientUnits="userSpaceOnUse">
      <stop offset="0" stop-color="#644ff7"/>
      <stop offset="1" stop-color="#9f6dff"/>
    </linearGradient>
    <linearGradient id="Áåçûìÿííûé_ãðàäèåíò_69" data-name="Áåçûìÿííûé ãðàäèåíò 69" x1="64.42303" y1="158.43035" x2="76.6234" y2="143.47309" gradientUnits="userSpaceOnUse">
      <stop offset="0" stop-color="#935ce1"/>
      <stop offset="0.22056" stop-color="#8f5ae0"/>
      <stop offset="0.42674" stop-color="#8454dc"/>
      <stop offset="0.62726" stop-color="#714ad5"/>
      <stop offset="0.82303" stop-color="#573ccc"/>
      <stop offset="0.99441" stop-color="#392cc2"/>
    </linearGradient>
    <radialGradient id="Áåçûìÿííûé_ãðàäèåíò_39" data-name="Áåçûìÿííûé ãðàäèåíò 39" cx="283.33508" cy="10.35363" r="10.39498" gradientTransform="translate(134.5001 392.3492) rotate(-109.28653)" gradientUnits="userSpaceOnUse">
      <stop offset="0" stop-color="#dea5ff"/>
      <stop offset="1" stop-color="#8931b3"/>
    </radialGradient>
    <linearGradient id="Áåçûìÿííûé_ãðàäèåíò_182" data-name="Áåçûìÿííûé ãðàäèåíò 182" x1="284.26253" y1="22.65668" x2="284.26253" y2="10.45978" gradientTransform="translate(134.5001 392.3492) rotate(-109.28653)" gradientUnits="userSpaceOnUse">
      <stop offset="0" stop-color="#c287f8"/>
      <stop offset="1" stop-color="#ccb3ff"/>
    </linearGradient>
    <linearGradient id="Áåçûìÿííûé_ãðàäèåíò_73" data-name="Áåçûìÿííûé ãðàäèåíò 73" x1="56.26943" y1="122.12761" x2="56.26943" y2="115.09678" gradientUnits="userSpaceOnUse">
      <stop offset="0" stop-color="#9f6dff"/>
      <stop offset="0.26947" stop-color="#9b69ff"/>
      <stop offset="0.52002" stop-color="#905efd"/>
      <stop offset="0.7622" stop-color="#7e4bfb"/>
      <stop offset="0.99934" stop-color="#6431f7"/>
      <stop offset="1" stop-color="#6431f7"/>
    </linearGradient>
    <linearGradient id="Áåçûìÿííûé_ãðàäèåíò_58" data-name="Áåçûìÿííûé ãðàäèåíò 58" x1="30.01635" y1="133.0423" x2="30.01635" y2="122.0779" gradientUnits="userSpaceOnUse">
      <stop offset="0" stop-color="#fc9ff7"/>
      <stop offset="1" stop-color="#f66dff"/>
    </linearGradient>
    <linearGradient id="Áåçûìÿííûé_ãðàäèåíò_144" data-name="Áåçûìÿííûé ãðàäèåíò 144" x1="42.5761" y1="174.94166" x2="42.5761" y2="165.77348" gradientUnits="userSpaceOnUse">
      <stop offset="0" stop-color="#c282f7"/>
      <stop offset="1" stop-color="#dc6dff"/>
    </linearGradient>
    <linearGradient id="Áåçûìÿííûé_ãðàäèåíò_200" data-name="Áåçûìÿííûé ãðàäèåíò 200" x1="42.28823" y1="174.26196" x2="42.28823" y2="167.24888" gradientUnits="userSpaceOnUse">
      <stop offset="0" stop-color="#4848f7"/>
      <stop offset="1" stop-color="#6d20ff"/>
    </linearGradient>
    <linearGradient id="Áåçûìÿííûé_ãðàäèåíò_107-2" x1="43.93105" y1="171.9747" x2="43.93105" y2="167.6625" gradientTransform="matrix(1, 0, 0, 1, 0, 0)" xlink:href="#Áåçûìÿííûé_ãðàäèåíò_107"/>
    <linearGradient id="Áåçûìÿííûé_ãðàäèåíò_166" data-name="Áåçûìÿííûé ãðàäèåíò 166" x1="29.82337" y1="130.98274" x2="29.82337" y2="123.13085" gradientUnits="userSpaceOnUse">
      <stop offset="0" stop-color="#9f6dff"/>
      <stop offset="1" stop-color="#644ff7"/>
    </linearGradient>
    <linearGradient id="Áåçûìÿííûé_ãðàäèåíò_188" data-name="Áåçûìÿííûé ãðàäèåíò 188" x1="30.04393" y1="127.32342" x2="30.81076" y2="127.80819" gradientUnits="userSpaceOnUse">
      <stop offset="0" stop-color="#9084ff"/>
      <stop offset="1" stop-color="#c287f8"/>
    </linearGradient>
    <linearGradient id="Áåçûìÿííûé_ãðàäèåíò_212" data-name="Áåçûìÿííûé ãðàäèåíò 212" x1="33.08355" y1="151.37188" x2="37.86254" y2="154.39305" gradientUnits="userSpaceOnUse">
      <stop offset="0" stop-color="#9084ff"/>
      <stop offset="0.48883" stop-color="#d08bfc"/>
      <stop offset="1" stop-color="#ffc9f8"/>
    </linearGradient>
    <radialGradient id="Áåçûìÿííûé_ãðàäèåíò_271" data-name="Áåçûìÿííûé ãðàäèåíò 271" cx="35.51325" cy="152.42589" r="2.29782" gradientUnits="userSpaceOnUse">
      <stop offset="0" stop-color="#1372b3"/>
      <stop offset="1" stop-color="#fff"/>
    </radialGradient>
    <linearGradient id="Áåçûìÿííûé_ãðàäèåíò_212-2" x1="40.24834" y1="138.38621" x2="42.45139" y2="139.77893" gradientTransform="translate(14.3244 -14.5904) rotate(4.82407)" xlink:href="#Áåçûìÿííûé_ãðàäèåíò_212"/>
    <radialGradient id="Áåçûìÿííûé_ãðàäèåíò_271-2" cx="41.36837" cy="138.87209" r="1.05923" gradientTransform="translate(14.3244 -14.5904) rotate(4.82407)" xlink:href="#Áåçûìÿííûé_ãðàäèåíò_271"/>
    <linearGradient id="Áåçûìÿííûé_ãðàäèåíò_224" data-name="Áåçûìÿííûé ãðàäèåíò 224" x1="66.03586" y1="165.89946" x2="61.14044" y2="165.79668" gradientUnits="userSpaceOnUse">
      <stop offset="0" stop-color="#9566fc"/>
      <stop offset="1" stop-color="#5445b1"/>
    </linearGradient>
    <radialGradient id="Áåçûìÿííûé_ãðàäèåíò_234" data-name="Áåçûìÿííûé ãðàäèåíò 234" cx="49.15402" cy="153.64466" r="5.17543" gradientUnits="userSpaceOnUse">
      <stop offset="0" stop-color="#ffffe8"/>
      <stop offset="0.20052" stop-color="#bba"/>
      <stop offset="0.41547" stop-color="#79796e"/>
      <stop offset="0.61083" stop-color="#45453f"/>
      <stop offset="0.77948" stop-color="#1f1f1d"/>
      <stop offset="0.91485" stop-color="#080808"/>
      <stop offset="1"/>
    </radialGradient>
    <radialGradient id="Áåçûìÿííûé_ãðàäèåíò_271-3" cx="63.57876" cy="165.49401" r="2.04169" xlink:href="#Áåçûìÿííûé_ãðàäèåíò_271"/>
    <linearGradient id="Áåçûìÿííûé_ãðàäèåíò_253" data-name="Áåçûìÿííûé ãðàäèåíò 253" x1="39.71043" y1="142.37606" x2="53.00742" y2="150.78213" gradientUnits="userSpaceOnUse">
      <stop offset="0" stop-color="#9084ff"/>
      <stop offset="0.11811" stop-color="#9785ff"/>
      <stop offset="0.2893" stop-color="#aa87fe"/>
      <stop offset="0.49198" stop-color="#ca8afc"/>
      <stop offset="0.52793" stop-color="#d08bfc"/>
      <stop offset="1" stop-color="#ffc9f8"/>
    </linearGradient>
    <linearGradient id="Áåçûìÿííûé_ãðàäèåíò_226" data-name="Áåçûìÿííûé ãðàäèåíò 226" x1="39.88183" y1="144.14854" x2="53.16413" y2="144.14854" xlink:href="#Áåçûìÿííûé_ãðàäèåíò_271"/>
    <linearGradient id="Áåçûìÿííûé_ãðàäèåíò_250" data-name="Áåçûìÿííûé ãðàäèåíò 250" x1="67.28015" y1="121.45153" x2="73.81021" y2="125.57969" gradientUnits="userSpaceOnUse">
      <stop offset="0" stop-color="#845fff"/>
      <stop offset="0.48883" stop-color="#a972fc"/>
      <stop offset="1" stop-color="#d4b0f8"/>
    </linearGradient>
    <linearGradient id="Áåçûìÿííûé_ãðàäèåíò_226-2" data-name="Áåçûìÿííûé ãðàäèåíò 226" x1="67.15639" y1="123.10567" x2="73.3731" y2="123.10567" xlink:href="#Áåçûìÿííûé_ãðàäèåíò_271"/>
    <linearGradient id="Áåçûìÿííûé_ãðàäèåíò_16" data-name="Áåçûìÿííûé ãðàäèåíò 16" x1="63.05031" y1="147.28668" x2="79.2476" y2="147.28668" gradientUnits="userSpaceOnUse">
      <stop offset="0" stop-color="#7c52b3"/>
      <stop offset="1" stop-color="#fff"/>
    </linearGradient>
    <radialGradient id="Áåçûìÿííûé_ãðàäèåíò_50-2" cx="68.76462" cy="202.20362" r="9.96643" gradientTransform="translate(46.4164 -39.1522) rotate(10.23566)" xlink:href="#Áåçûìÿííûé_ãðàäèåíò_50"/>
    <linearGradient id="Áåçûìÿííûé_ãðàäèåíò_35-2" x1="244.72494" y1="42.92521" x2="238.0809" y2="39.08927" gradientTransform="translate(-59.9172 371.4805) rotate(-64.05506)" xlink:href="#Áåçûìÿííûé_ãðàäèåíò_35"/>
    <linearGradient id="Áåçûìÿííûé_ãðàäèåíò_107-3" x1="242.03456" y1="45.48012" x2="242.03456" y2="36.80695" gradientTransform="translate(-59.9172 371.4805) rotate(-64.05506)" xlink:href="#Áåçûìÿííûé_ãðàäèåíò_107"/>
    <linearGradient id="Áåçûìÿííûé_ãðàäèåíò_159" data-name="Áåçûìÿííûé ãðàäèåíò 159" x1="262.29313" y1="48.18806" x2="262.29313" y2="41.00579" gradientTransform="translate(-42.6448 406.3849) rotate(-71.46359)" gradientUnits="userSpaceOnUse">
      <stop offset="0.00559" stop-color="#392cc2"/>
      <stop offset="1" stop-color="#5f33c5"/>
    </linearGradient>
    <linearGradient id="Áåçûìÿííûé_ãðàäèåíò_165" data-name="Áåçûìÿííûé ãðàäèåíò 165" x1="261.87004" y1="48.15323" x2="261.87004" y2="41.04889" gradientTransform="translate(-42.6448 406.3849) rotate(-71.46359)" gradientUnits="userSpaceOnUse">
      <stop offset="0" stop-color="#5e48f7"/>
      <stop offset="1" stop-color="#8c50ff"/>
    </linearGradient>
    <linearGradient id="Áåçûìÿííûé_ãðàäèåíò_16-2" x1="258.82545" y1="43.51312" x2="265.75044" y2="43.51312" gradientTransform="translate(-42.6448 406.3849) rotate(-71.46359)" xlink:href="#Áåçûìÿííûé_ãðàäèåíò_16"/>
    <linearGradient id="Áåçûìÿííûé_ãðàäèåíò_16-3" x1="51.48865" y1="117.46379" x2="61.0502" y2="117.46379" xlink:href="#Áåçûìÿííûé_ãðàäèåíò_16"/>
  </defs>
  <g style="isolation: isolate">
    <g id="Layer_1" data-name="Layer 1">
      <g>
        <path d="M72.4426,120.9931a23.67839,23.67839,0,0,0,6.0789.863s4.3509,2.9563,6.7808,10.7905a7.52486,7.52486,0,0,0-1.6451,5.3558S79.9353,127.8904,72.4426,120.9931Z" transform="translate(-26.33736 -114.20675)" fill-rule="evenodd" fill="url(#Áåçûìÿííûé_ãðàäèåíò_64)"/>
        <path d="M76.4452,179.4554a7.77,7.77,0,0,0-2.5933-.315,4.13133,4.13133,0,0,1-1.5086-3.0443,11.8305,11.8305,0,0,0,1.5532-2.4914A14.09953,14.09953,0,0,0,76.4452,179.4554Z" transform="translate(-26.33736 -114.20675)" fill-rule="evenodd" fill="url(#Áåçûìÿííûé_ãðàäèåíò_59)"/>
        <path d="M84.2441,143.6875a27.6915,27.6915,0,0,1-27.722,27.7161c-.4914,0-.9888-.0117-1.4744-.041h-.0059c-.7255-.0351-1.4452-.1053-2.1531-.193a27.54113,27.54113,0,0,1-14.1594-6.2372,28.24164,28.24164,0,0,1-6.4419-7.7818c-.1697-.3042-.3335-.6143-.4973-.9244,0-.0117-.0059-.0176-.0117-.0293-.1697-.3335-.3277-.667-.4798-1.0064h-.0059a26.57757,26.57757,0,0,1-1.2404-3.2765,24.89193,24.89193,0,0,1-.6494-2.4808.03507.03507,0,0,1-.0059-.0234c-.1229-.591-.2282-1.1878-.3101-1.7904a27.287,27.287,0,0,1-.2808-3.9319c0-.7665.0292-1.5329.0994-2.2819.0351-.4797.0878-.9537.1521-1.4276a27.17386,27.17386,0,0,1,2.2176-7.7408,27.74477,27.74477,0,0,1,25.2469-16.2716c.2926,0,.5851.0058.8718.0117.3101.0117.6202.0234.9303.0468a27.61281,27.61281,0,0,1,4.6516.7021c.8776.2107,1.7377.4564,2.5802.7489.5734.1931,1.1351.4096,1.691.6437.4154.1755.8191.3569,1.2228.5499.0702.0352.1405.0644.2107.0995a27.7752,27.7752,0,0,1,7.2493,5.1255c.3043.2925.5968.5968.8894.9069.1931.2106.3861.4271.5734.6436.3218.3627.6319.7431.9361,1.1234a27.63714,27.63714,0,0,1,5.1021,10.4381A27.64446,27.64446,0,0,1,84.2441,143.6875Z" transform="translate(-26.33736 -114.20675)" fill-rule="evenodd" fill="url(#Áåçûìÿííûé_ãðàäèåíò_50)"/>
        <path d="M29.863,139.5938s4.9443,2.5793,9.373-.9276c4.4287-3.5068.8861-16.5883.8861-16.5883Z" transform="translate(-26.33736 -114.20675)" fill-rule="evenodd" opacity="0.5" fill="url(#Áåçûìÿííûé_ãðàäèåíò_21)" style="mix-blend-mode: multiply"/>
        <path d="M62.0012,159.5203s2.2369,2.6891,7.7109,2.9847c5.4739.2957,10.943-5.9864,12.1995-11.6773,1.2564-5.6908-2.8085-11.4435-6.7994-12.3364C71.1211,137.5984,62.0012,159.5203,62.0012,159.5203Z" transform="translate(-26.33736 -114.20675)" fill-rule="evenodd" opacity="0.89" fill="url(#Áåçûìÿííûé_ãðàäèåíò_19)" style="mix-blend-mode: multiply"/>
        <path d="M40.0862,165.3354a27.81555,27.81555,0,0,1-6.9478-8.7365,27.43522,27.43522,0,0,1-2.3801-6.7651.036.036,0,0,1-.0048-.024,28.03488,28.03488,0,0,1-.5914-5.7218,27.72046,27.72046,0,0,1,27.7192-27.7192c.6058,0,1.202.0193,1.7983.0577a27.621,27.621,0,0,1,5.4637.9082,27.54108,27.54108,0,0,0-6.8211-1.3102c-.5962-.0385-1.1924-.0577-1.7983-.0577a27.7089,27.7089,0,0,0-27.7191,27.7191,28.02785,28.02785,0,0,0,.5914,5.7218.036.036,0,0,0,.0048.024,27.43982,27.43982,0,0,0,2.38,6.7652A27.82143,27.82143,0,0,0,49.2841,170.446,27.65163,27.65163,0,0,1,40.0862,165.3354Z" transform="translate(-26.33736 -114.20675)" fill-rule="evenodd" fill="url(#Áåçûìÿííûé_ãðàäèåíò_600)" style="mix-blend-mode: screen"/>
        <path d="M33.8832,159.6775a12.94807,12.94807,0,0,1,1.3126,7.5181s3.8497,6.7281,14.714,7.2824c0,0,5.4691-4.032,10.7035-3.375A30.51763,30.51763,0,0,0,33.8832,159.6775Z" transform="translate(-26.33736 -114.20675)" fill-rule="evenodd" fill="url(#Áåçûìÿííûé_ãðàäèåíò_10)"/>
        <path d="M29.863,139.5938s-1.8211-5.0256-3.4556-6.7994c0,0-1.2564-7.982,6.8733-10.7165,0,0,4.3781.8353,6.8414,0a16.94587,16.94587,0,0,1-2.7765,11.16A15.93921,15.93921,0,0,1,29.863,139.5938Z" transform="translate(-26.33736 -114.20675)" fill-rule="evenodd" fill="url(#Áåçûìÿííûé_ãðàäèåíò_31)"/>
        <path d="M79.6672,143.5067s-1.9368-6.8135-8.5167-7.2223c-6.9787-.4335-13.1582,13.4924-11.0051,20.1448s9.9202,5.6944,13.4769,3.2766C77.942,156.7692,80.0622,150.2797,79.6672,143.5067Z" transform="translate(-26.33736 -114.20675)" fill-rule="evenodd" fill="url(#Áåçûìÿííûé_ãðàäèåíò_35)"/>
        <path d="M50.0676,123.4979s2.3616,3.9962,6.9373,3.5589a6.36613,6.36613,0,0,0,6.1456-6.3832C62.9642,118.9983,50.0676,123.4979,50.0676,123.4979Z" transform="translate(-26.33736 -114.20675)" fill-rule="evenodd" opacity="0.5" fill="url(#Áåçûìÿííûé_ãðàäèåíò_21-2)" style="mix-blend-mode: multiply"/>
        <path d="M72.2256,138.6663c-6.0333-.0331-14.9706,16.0206-7.1895,21.4177,7.3924,5.1276,14.2244-6.0023,15.0261-9.8043C80.8638,146.4777,80.3495,138.7108,72.2256,138.6663Z" transform="translate(-26.33736 -114.20675)" fill-rule="evenodd" fill="url(#Áåçûìÿííûé_ãðàäèåíò_107)"/>
        <path d="M69.4179,159.9217c-.2867-.0235-.5676-.0644-.8309-.1054a6.25175,6.25175,0,0,1-5.4647-5.8743,11.66012,11.66012,0,0,1,.3978-4.5345c.708-2.3638,4.5053-7.9047,8.8526-8.6829a5.61353,5.61353,0,0,1,4.7333,1.3399,5.93212,5.93212,0,0,1,2.1416,4.1483C79.8327,152.1926,73.4961,160.2845,69.4179,159.9217Z" transform="translate(-26.33736 -114.20675)" fill-rule="evenodd" fill="url(#Áåçûìÿííûé_ãðàäèåíò_69)"/>
        <path d="M51.131,116.1566s-2.7709,3.5577-1.4037,6.7566c1.4501,3.3928,9.5766,3.2491,12.2024.657,2.6257-2.5921.5301-7.5368-1.7288-8.4041A10.71773,10.71773,0,0,0,51.131,116.1566Z" transform="translate(-26.33736 -114.20675)" fill-rule="evenodd" fill="url(#Áåçûìÿííûé_ãðàäèåíò_39)"/>
        <path d="M50.6132,120.8124c1.4148,2.8521,11.1018,3.2596,11.8015-1.6882.6647-4.7007-6.2019-5.2829-8.1843-4.7595C52.2479,114.8881,48.7083,116.972,50.6132,120.8124Z" transform="translate(-26.33736 -114.20675)" fill-rule="evenodd" fill="url(#Áåçûìÿííûé_ãðàäèåíò_182)"/>
        <path d="M61.037,117.9058a1.97842,1.97842,0,0,1,0,.4564,2.375,2.375,0,0,1-.0643.4622c-.7899,3.1771-7.1733,4.2127-8.6302,2.4457a3.72875,3.72875,0,0,1-.7665-1.4393c-.4973-1.9484,1.2404-3.5106,2.3931-4.1133C55.3908,114.9686,60.7211,114.2022,61.037,117.9058Z" transform="translate(-26.33736 -114.20675)" fill-rule="evenodd" fill="url(#Áåçûìÿííûé_ãðàäèåíò_73)"/>
        <path d="M26.4074,132.7944c.1337,1.8129,9.2501-6.781,6.8733-10.7165C33.2807,122.0779,25.6683,122.78,26.4074,132.7944Z" transform="translate(-26.33736 -114.20675)" fill-rule="evenodd" fill="url(#Áåçûìÿííûé_ãðàäèåíò_58)"/>
        <path d="M35.1958,167.1956c-.5663-3.2387,15.8974-1.001,14.714,7.2824C49.6512,176.2887,36.1362,172.5739,35.1958,167.1956Z" transform="translate(-26.33736 -114.20675)" fill-rule="evenodd" fill="url(#Áåçûìÿííûé_ãðàäèåíò_144)"/>
        <path d="M48.4305,174.239c-.275.2224-9.3089-1.1117-12.4158-6.5999-.2048-.3686.7606-.4856,2.2409-.3101a16.46075,16.46075,0,0,1,1.8665.3335,14.84215,14.84215,0,0,1,6.3717,3.0132,10.73842,10.73842,0,0,1,1.2462,1.299,4.36238,4.36238,0,0,1,.7782,1.3691C48.6644,173.8412,48.5592,174.1396,48.4305,174.239Z" transform="translate(-26.33736 -114.20675)" fill-rule="evenodd" fill="url(#Áåçûìÿííûé_ãðàäèåíò_200)"/>
        <path d="M47.74,171.9747a13.94743,13.94743,0,0,1-7.6179-4.3122,14.84215,14.84215,0,0,1,6.3717,3.0132A10.73842,10.73842,0,0,1,47.74,171.9747Z" transform="translate(-26.33736 -114.20675)" fill-rule="evenodd" fill="url(#Áåçûìÿííûé_ãðàäèåíò_107-2)"/>
        <path d="M32.2911,124.5672a18.96245,18.96245,0,0,1-.7957,1.9999,11.74773,11.74773,0,0,1-3.0522,3.9212c-.5078.4031-.9214.5916-1.0889.445-.3455-.2984-.2879-2.5077.7696-4.5599,1.0575-2.0574,3.9212-3.518,4.2143-3.1987C32.5215,123.3736,32.5529,123.7401,32.2911,124.5672Z" transform="translate(-26.33736 -114.20675)" fill-rule="evenodd" fill="url(#Áåçûìÿííûé_ãðàäèåíò_166)"/>
        <path d="M32.2911,124.5672a18.96245,18.96245,0,0,1-.7957,1.9999,11.74773,11.74773,0,0,1-3.0522,3.9212A16.63011,16.63011,0,0,1,32.2911,124.5672Z" transform="translate(-26.33736 -114.20675)" fill-rule="evenodd" fill="url(#Áåçûìÿííûé_ãðàäèåíò_188)"/>
        <path d="M35.1955,155.7792a2.73983,2.73983,0,0,1-.8191-.8952s0-.0059-.0117-.0175c-.9186-1.4804-1.451-4.0548-.4798-4.5814,1.1995-.6553,2.9723-.3159,3.7739,1.8138a.01814.01814,0,0,0,.0059.0117,1.4314,1.4314,0,0,1,.076.2224.08206.08206,0,0,1,.0117.035.61618.61618,0,0,0,.0468.1463c.0234.0761.0469.1522.0644.2341C38.3609,154.7786,36.5354,156.5925,35.1955,155.7792Z" transform="translate(-26.33736 -114.20675)" fill-rule="evenodd" fill="url(#Áåçûìÿííûé_ãðàäèåíò_212)"/>
        <path d="M37.6588,152.0989c-.4506-.9069-2.2059-1.96-3.2824-.9771-1.1292,1.0298-.1053,3.5106-.0117,3.7447-.9186-1.4804-1.451-4.0548-.4798-4.5814C35.0844,149.6298,36.8572,149.9692,37.6588,152.0989Z" transform="translate(-26.33736 -114.20675)" fill-rule="evenodd" opacity="0.4" fill="url(#Áåçûìÿííûé_ãðàäèåíò_271)" style="mix-blend-mode: multiply"/>
        <path d="M43.5929,128.8028a1.26126,1.26126,0,0,1-.3415-.443s.0001-.0027-.0048-.0085c-.3646-.7156-.5093-1.9188-.0428-2.1231a1.22186,1.22186,0,0,1,1.6633.9795l.0022.0056a.65707.65707,0,0,1,.0264.1051.03813.03813,0,0,1,.004.0166.28364.28364,0,0,0,.0158.069c.0078.0358.0156.0717.0205.11C45.0858,128.4659,44.1769,129.2284,43.5929,128.8028Z" transform="translate(-26.33736 -114.20675)" fill-rule="evenodd" fill="url(#Áåçûìÿííûé_ãðàäèåíò_212-2)"/>
        <path d="M44.8671,127.2077c-.1718-.4341-.9373-.9859-1.4699-.5761-.5587.4293-.1845,1.6086-.1506,1.7197-.3646-.7156-.5093-1.9188-.0428-2.1231A1.22186,1.22186,0,0,1,44.8671,127.2077Z" transform="translate(-26.33736 -114.20675)" fill-rule="evenodd" opacity="0.4" fill="url(#Áåçûìÿííûé_ãðàäèåíò_271-2)" style="mix-blend-mode: multiply"/>
        <path d="M64.3519,167.4993h-.0091a.61991.61991,0,0,1-.1836.0642c-.0092.0092-.0184.0184-.0276.0184a.36772.36772,0,0,0-.1193.0368q-.0828.02745-.1928.055a2.2751,2.2751,0,0,1-2.2861-.6426,1.25582,1.25582,0,0,1-.248-1.4966,2.19417,2.19417,0,0,1,.7254-.6886l.0091-.0091c1.2028-.7804,3.3144-1.2671,3.7643-.4775a1.70771,1.70771,0,0,1,.2388.6978A2.28108,2.28108,0,0,1,64.3519,167.4993Z" transform="translate(-26.33736 -114.20675)" fill-rule="evenodd" fill="url(#Áåçûìÿííûé_ãðàäèåíò_224)"/>
        <path d="M41.5012,152.2335s1.667,2.6591,6.2388,2.382c4.5718-.2772,5.4033-2.5135,5.6804-4.3332a10.24423,10.24423,0,0,0-.486-4.0587S42.8298,148.1332,41.5012,152.2335Z" transform="translate(-26.33736 -114.20675)" fill-rule="evenodd" opacity="0.5" fill="url(#Áåçûìÿííûé_ãðàäèåíò_234)" style="mix-blend-mode: screen"/>
        <path d="M66.023,165.0571a2.43605,2.43605,0,0,0-2.4331-.3122,2.73968,2.73968,0,0,0-2.0565,2.2862,1.25582,1.25582,0,0,1-.248-1.4966,2.19417,2.19417,0,0,1,.7254-.6886l.0091-.0091c1.2028-.7804,3.3144-1.2671,3.7643-.4775A1.70771,1.70771,0,0,1,66.023,165.0571Z" transform="translate(-26.33736 -114.20675)" fill-rule="evenodd" opacity="0.4" fill="url(#Áåçûìÿííûé_ãðàäèåíò_271-3)" style="mix-blend-mode: multiply"/>
        <path d="M53.158,148.799l-.0059.0995c.012,7.0796-10.5961,6.2137-12.2577,2.4456a10.26566,10.26566,0,0,1-.5676-1.7084v-.0059c-.9361-3.7914-.351-8.87,1.3399-10.0344,1.7787-1.2228,5.1956-1.2521,7.6823,0C52.1517,141.0055,53.2575,145.224,53.158,148.799Z" transform="translate(-26.33736 -114.20675)" fill-rule="evenodd" fill="url(#Áåçûìÿííûé_ãðàäèåíò_253)"/>
        <path d="M53.158,148.799l-.0059.0995s.1581-4.4293-1.9834-6.793c-2.1473-2.3639-6.4302-3.0308-8.8818-.3686-2.3872,2.5978-1.9834,7.653-1.9601,7.8929-.9361-3.7914-.351-8.87,1.3399-10.0344,1.7787-1.2228,5.1956-1.2521,7.6823,0C52.1517,141.0055,53.2575,145.224,53.158,148.799Z" transform="translate(-26.33736 -114.20675)" fill-rule="evenodd" opacity="0.4" fill="url(#Áåçûìÿííûé_ãðàäèåíò_226)" style="mix-blend-mode: multiply"/>
        <g>
          <path d="M73.0455,126.5126c-.6026.3218-2.0303-.5675-3.335-1.6792-1.5856-1.3633-2.9782-3.0659-2.4341-3.3117a6.37923,6.37923,0,0,1,4.7335.9244,5.24984,5.24984,0,0,1,1.3632,1.8255C73.7652,125.1786,73.8003,126.103,73.0455,126.5126Z" transform="translate(-26.33736 -114.20675)" fill-rule="evenodd" fill="url(#Áåçûìÿííûé_ãðàäèåíò_250)"/>
          <path d="M73.3731,124.2716c-.0058-.0058-.0116-.0175-.0175-.0233-1.9758-2.9834-5.0239-2.8543-5.2462-2.0411-.2223.8133,1.6011,2.6262,1.6011,2.6262-1.5856-1.3633-2.9782-3.0659-2.4341-3.3117a6.37923,6.37923,0,0,1,4.7335.9244A5.24984,5.24984,0,0,1,73.3731,124.2716Z" transform="translate(-26.33736 -114.20675)" fill-rule="evenodd" opacity="0.4" fill="url(#Áåçûìÿííûé_ãðàäèåíò_226-2)" style="mix-blend-mode: multiply"/>
        </g>
        <path d="M28.372,132.0462s4.5115-2.2635,4.9857-6.7341C33.3577,125.3121,31.082,129.9131,28.372,132.0462Z" transform="translate(-26.33736 -114.20675)" fill="#e5bdfa" fill-rule="evenodd"/>
        <path d="M62.0012,154.211s.4447-8.9633,6.9271-14.2463C68.9283,139.9647,61.1525,143.6846,62.0012,154.211Z" transform="translate(-26.33736 -114.20675)" fill="#e5bdfa" fill-rule="evenodd"/>
        <path d="M50.8784,121.2074s1.2157,1.8455,5.371,1.7044c4.1552-.1411,5.5192-2.0381,5.7518-2.5467,0,0-1.0313,3.1817-5.7288,3.0708C51.3154,123.3189,50.8784,121.2074,50.8784,121.2074Z" transform="translate(-26.33736 -114.20675)" fill="#ffa5f7" fill-rule="evenodd"/>
        <path d="M42.2882,166.3735s6.3009,2.543,7.5772,6.203C49.8654,172.5765,49.7252,168.3758,42.2882,166.3735Z" transform="translate(-26.33736 -114.20675)" fill="#ffa5f7" fill-rule="evenodd"/>
        <path d="M79.2476,146.2128v.0117s-2.1407-3.6967-8.0795-2.076c-5.3244,1.4511-7.6246,8.3015-8.0458,9.7935a11.66012,11.66012,0,0,1,.3978-4.5345c.708-2.3638,4.5053-7.9047,8.8526-8.6829a5.61353,5.61353,0,0,1,4.7333,1.3399A5.93212,5.93212,0,0,1,79.2476,146.2128Z" transform="translate(-26.33736 -114.20675)" fill-rule="evenodd" opacity="0.71" fill="url(#Áåçûìÿííûé_ãðàäèåíò_16)" style="mix-blend-mode: multiply"/>
        <path d="M86.4591,175.8911a6.6029,6.6029,0,0,1-7.6792,5.3287c-.1153-.0208-.2315-.0446-.3443-.0721l-.0013-.0002c-.1688-.039-.3346-.086-.4971-.1365a6.56686,6.56686,0,0,1-3.0581-2.0636,6.72872,6.72872,0,0,1-1.1818-2.0989c-.0269-.0786-.0522-.1582-.0776-.2379l-.0015-.0074c-.0257-.0854-.0485-.1704-.0699-.2565l-.0013-.0002a6.34891,6.34891,0,0,1-.1523-.8214,5.93534,5.93534,0,0,1-.0473-.6096l-.0003-.0058c-.0038-.1438-.0032-.2884.0031-.4332a6.50677,6.50677,0,0,1,.1007-.9345c.0325-.1798.0718-.3585.12-.5312.0285-.1111.061-.2201.0962-.3286a6.47971,6.47971,0,0,1,.8483-1.7223,6.61538,6.61538,0,0,1,6.6135-2.7483c.0687.0124.1371.0262.2041.0397.0723.0159.1445.0317.2163.0504a6.58808,6.58808,0,0,1,1.0617.3618c.1971.0867.3884.1808.5737.2851.1264.0696.249.1442.3695.2227.0901.0588.1771.1185.2637.1808.015.0113.0302.0211.0451.0323a6.62179,6.62179,0,0,1,1.4839,1.5098c.059.0816.1148.1654.1703.2506.0364.0575.0725.1165.1072.1753.0602.0987.1168.201.1721.3032a6.5918,6.5918,0,0,1,.7549,2.6654A6.59063,6.59063,0,0,1,86.4591,175.8911Z" transform="translate(-26.33736 -114.20675)" fill-rule="evenodd" fill="url(#Áåçûìÿííûé_ãðàäèåíò_50-2)"/>
        <path d="M81.7411,167.5962a3.8851,3.8851,0,0,0-3.6027,2.5421c-1.0394,2.7706,3.0307,7.0182,5.6247,6.9807s3.2485-3.3018,2.858-5.0447C86.1468,169.9575,84.1535,168.2855,81.7411,167.5962Z" transform="translate(-26.33736 -114.20675)" fill-rule="evenodd" fill="url(#Áåçûìÿííûé_ãðàäèåíò_35-2)"/>
        <path d="M79.1059,170.0017c-.7795,2.4382,3.6817,8.0689,6.5543,5.5958,2.7291-2.3497-.2828-6.5108-1.5067-7.312S80.1554,166.7187,79.1059,170.0017Z" transform="translate(-26.33736 -114.20675)" fill-rule="evenodd" fill="url(#Áåçûìÿííûé_ãðàäèåíò_107-3)"/>
        <path d="M86.1613,173.8033c-.0446.1131-.0947.2217-.1425.3232a2.337,2.337,0,0,1-2.7442,1.4756,3.853,3.853,0,0,1-1.5308-.7296,6.15673,6.15673,0,0,1-1.9014-4.6723,2.56585,2.56585,0,0,1,1.0698-1.7481,2.02008,2.02008,0,0,1,1.7193-.3468C84.7914,168.6182,86.8068,172.1979,86.1613,173.8033Z" transform="translate(-26.33736 -114.20675)" fill-rule="evenodd" fill="url(#Áåçûìÿííûé_ãðàäèåíò_159)"/>
        <path d="M86.0188,174.1265c-1.1483,2.3446-3.3227,1.5023-4.275.746a6.15673,6.15673,0,0,1-1.9014-4.6723,2.63282,2.63282,0,0,1,.8151-.9381C83.0767,167.4983,86.2332,171.8626,86.0188,174.1265Z" transform="translate(-26.33736 -114.20675)" fill-rule="evenodd" fill="url(#Áåçûìÿííûé_ãðàäèåíò_165)"/>
        <path d="M82.6315,168.1053l.0041.0016s-1.5617.403-1.7524,3.0102c-.1716,2.3373,1.9247,4.1274,2.3914,4.485a3.853,3.853,0,0,1-1.5308-.7296,6.15673,6.15673,0,0,1-1.9014-4.6723,2.56585,2.56585,0,0,1,1.0698-1.7481A2.02008,2.02008,0,0,1,82.6315,168.1053Z" transform="translate(-26.33736 -114.20675)" fill-rule="evenodd" opacity="0.71" fill="url(#Áåçûìÿííûé_ãðàäèåíò_16-2)" style="mix-blend-mode: multiply"/>
        <path d="M61.037,117.9058a1.97842,1.97842,0,0,1,0,.4564c-1.1116-1.6324-3.1595-1.9952-5.7398-1.4394a5.80578,5.80578,0,0,0-3.7212,2.908c-.4973-1.9484,1.2404-3.5106,2.3931-4.1133C55.3908,114.9686,60.7211,114.2022,61.037,117.9058Z" transform="translate(-26.33736 -114.20675)" fill-rule="evenodd" opacity="0.71" fill="url(#Áåçûìÿííûé_ãðàäèåíò_16-3)" style="mix-blend-mode: multiply"/>
      </g>
    </g>
  </g>
</svg>
