<svg xmlns="http://www.w3.org/2000/svg" xmlns:xlink="http://www.w3.org/1999/xlink" viewBox="0 0 58.065 57.2225">
  <defs>
    <radialGradient id="Áåçûìÿííûé_ãðàäèåíò_460" data-name="Áåçûìÿííûé ãðàäèåíò 460" cx="137.08513" cy="41.72185" r="45.29733" gradientUnits="userSpaceOnUse">
      <stop offset="0.00559" stop-color="#ff9aff"/>
      <stop offset="0.09301" stop-color="#fb94ff"/>
      <stop offset="0.20929" stop-color="#f183ff"/>
      <stop offset="0.34182" stop-color="#e068ff"/>
      <stop offset="0.48637" stop-color="#c841ff"/>
      <stop offset="0.63899" stop-color="#a910ff"/>
      <stop offset="0.68436" stop-color="#9f00ff"/>
      <stop offset="0.74317" stop-color="#9900f8"/>
      <stop offset="0.82823" stop-color="#8700e5"/>
      <stop offset="0.92875" stop-color="#6a00c6"/>
      <stop offset="1" stop-color="#5200ab"/>
    </radialGradient>
    <radialGradient id="Áåçûìÿííûé_ãðàäèåíò_460-3" cx="138.36964" cy="39.10078" r="44.52679" xlink:href="#Áåçûìÿííûé_ãðàäèåíò_460"/>
    <radialGradient id="Áåçûìÿííûé_ãðàäèåíò_494" data-name="Áåçûìÿííûé ãðàäèåíò 494" cx="144.22515" cy="34.39161" r="9.95641" gradientUnits="userSpaceOnUse">
      <stop offset="0" stop-color="#fff"/>
      <stop offset="1" stop-color="#623964"/>
    </radialGradient>
    <radialGradient id="Áåçûìÿííûé_ãðàäèåíò_494-2" cx="145.80917" cy="37.99071" r="3.46369" xlink:href="#Áåçûìÿííûé_ãðàäèåíò_494"/>
    <radialGradient id="Áåçûìÿííûé_ãðàäèåíò_494-3" cx="143.67904" cy="37.67013" r="3.6498" xlink:href="#Áåçûìÿííûé_ãðàäèåíò_494"/>
    <radialGradient id="Áåçûìÿííûé_ãðàäèåíò_494-4" cx="141.09747" cy="34.1549" r="8.43095" xlink:href="#Áåçûìÿííûé_ãðàäèåíò_494"/>
    <radialGradient id="Áåçûìÿííûé_ãðàäèåíò_494-5" cx="137.49381" cy="30.87802" r="14.29433" xlink:href="#Áåçûìÿííûé_ãðàäèåíò_494"/>
    <radialGradient id="Áåçûìÿííûé_ãðàäèåíò_494-6" cx="142.79181" cy="33.1421" r="19.91735" xlink:href="#Áåçûìÿííûé_ãðàäèåíò_494"/>
    <radialGradient id="Áåçûìÿííûé_ãðàäèåíò_494-7" cx="136.58119" cy="33.28859" r="33.64951" xlink:href="#Áåçûìÿííûé_ãðàäèåíò_494"/>
    <radialGradient id="Áåçûìÿííûé_ãðàäèåíò_486" data-name="Áåçûìÿííûé ãðàäèåíò 486" cx="146.66776" cy="62.5945" r="26.52071" gradientUnits="userSpaceOnUse">
      <stop offset="0" stop-color="#ffff4a"/>
      <stop offset="1" stop-color="#360038"/>
    </radialGradient>
    <radialGradient id="Áåçûìÿííûé_ãðàäèåíò_469" data-name="Áåçûìÿííûé ãðàäèåíò 469" cx="136.22432" cy="72.82674" r="2.86231" gradientUnits="userSpaceOnUse">
      <stop offset="0" stop-color="#6d00c2"/>
      <stop offset="0.39946" stop-color="#6600bc"/>
      <stop offset="0.97595" stop-color="#5300ac"/>
      <stop offset="1" stop-color="#5200ab"/>
    </radialGradient>
    <radialGradient id="Áåçûìÿííûé_ãðàäèåíò_479" data-name="Áåçûìÿííûé ãðàäèåíò 479" cx="182.51661" cy="56.18398" r="2.9896" gradientUnits="userSpaceOnUse">
      <stop offset="0" stop-color="#1f0081"/>
      <stop offset="0.73004" stop-color="#260087"/>
      <stop offset="1" stop-color="#2a008b"/>
    </radialGradient>
    <linearGradient id="Áåçûìÿííûé_ãðàäèåíò_796" data-name="Áåçûìÿííûé ãðàäèåíò 796" x1="138.4194" y1="43.57228" x2="142.29145" y2="43.57228" gradientUnits="userSpaceOnUse">
      <stop offset="0" stop-color="#bdffe8"/>
      <stop offset="0.20052" stop-color="#8bbbaa"/>
      <stop offset="0.41547" stop-color="#5a796e"/>
      <stop offset="0.61083" stop-color="#33453f"/>
      <stop offset="0.77948" stop-color="#171f1d"/>
      <stop offset="0.91485" stop-color="#060808"/>
      <stop offset="1"/>
    </linearGradient>
    <linearGradient id="Áåçûìÿííûé_ãðàäèåíò_796-2" x1="129.19109" y1="47.30098" x2="146.32203" y2="47.30098" xlink:href="#Áåçûìÿííûé_ãðàäèåíò_796"/>
  </defs>
  <g style="isolation: isolate">
    <g id="Layer_1" data-name="Layer 1">
      <g>
        <path d="M184.0988,59.486l-.2105.7548a1.00992,1.00992,0,0,1-.0293.1053,29.451,29.451,0,0,1-28.3246,21.2215c-.5207,0-1.0532-.0117-1.5681-.041h-.0058c-.7723-.0409-1.5388-.1111-2.2936-.2047a29.27065,29.27065,0,0,1-13.3928-5.3303c-.3628-.2633-.7197-.5324-1.0649-.8074a4.222,4.222,0,0,1,2.1122-.6436l-1.9952-1.5856-5.0026-2.6915a28.90435,28.90435,0,0,1-2.5861-3.8675q-.2721-.4827-.5266-.9829c0-.0117-.0117-.0176-.0175-.0293q-.2634-.53535-.5091-1.0707h-.0058a29.06383,29.06383,0,0,1-1.3223-3.4872c-.2692-.8601-.5032-1.7436-.6905-2.6446a.03554.03554,0,0,1-.0058-.0234c-.1287-.6261-.2399-1.2639-.3277-1.9075a29.04185,29.04185,0,0,1-.2984-4.1834c0-.3277.0059-.6612.0176-.983.0116-.4856.0409-.9712.0877-1.4452.0351-.4739.0878-.9478.1463-1.4159a.72968.72968,0,0,1,.0117-.1053c.0878-.6553.1931-1.2931.3277-1.9308a26.2392,26.2392,0,0,1,.6845-2.709,27.08816,27.08816,0,0,1,1.3516-3.5984,28.4875,28.4875,0,0,1,1.7378-3.259c2.0127-1.0649,3.2999-1.6207,3.2999-1.6207s34.3452-6.8164,34.8777-7.4015c.5265-.5792,3.1302-.2165,3.1302-.2165a29.99317,29.99317,0,0,1,4.4877,3.6159c.3218.3101.6319.6378.9479.9654.2048.2224.4095.4564.6085.6846.3393.3862.6728.7899.9946,1.1936a29.32105,29.32105,0,0,1,3.0777,4.8095c.3393.6553.6494,1.3282.9361,2.0127,0,.0059.0059.0117.0059.0176a35.18976,35.18976,0,0,1-.6202,19.1619A6.71093,6.71093,0,0,1,184.0988,59.486Z" transform="translate(-126.0338 -24.3451)" fill-rule="evenodd" fill="url(#Áåçûìÿííûé_ãðàäèåíò_460)"/>
        <path d="M184.0988,59.486l-.2105.7548a1.00992,1.00992,0,0,1-.0293.1053,29.451,29.451,0,0,1-28.3246,21.2215c-.5207,0-1.0532-.0117-1.5681-.041h-.0058c-.7723-.0409-1.5388-.1111-2.2936-.2047a29.27065,29.27065,0,0,1-13.3928-5.3303c-.3628-.2633-.7197-.5324-1.0649-.8074a4.222,4.222,0,0,1,2.1122-.6436l-1.9952-1.5856-5.0026-2.6915a28.90435,28.90435,0,0,1-2.5861-3.8675q-.2721-.4827-.5266-.9829c0-.0117-.0117-.0176-.0175-.0293q-.2634-.53535-.5091-1.0707h-.0058a29.06383,29.06383,0,0,1-1.3223-3.4872c-.2692-.8601-.5032-1.7436-.6905-2.6446a.03554.03554,0,0,1-.0058-.0234c-.1287-.6261-.2399-1.2639-.3277-1.9075a29.04185,29.04185,0,0,1-.2984-4.1834c0-.3277.0059-.6612.0176-.983.0116-.4856.0409-.9712.0877-1.4452.0351-.4739.0878-.9478.1463-1.4159a.72968.72968,0,0,1,.0117-.1053c.0878-.6553.1931-1.2931.3277-1.9308a26.2392,26.2392,0,0,1,.6845-2.709,27.08816,27.08816,0,0,1,1.3516-3.5984,28.4875,28.4875,0,0,1,1.7378-3.259c2.0127-1.0649,3.2999-1.6207,3.2999-1.6207s34.3452-6.8164,34.8777-7.4015c.5265-.5792,3.1302-.2165,3.1302-.2165a29.99317,29.99317,0,0,1,4.4877,3.6159c.3218.3101.6319.6378.9479.9654.2048.2224.4095.4564.6085.6846.3393.3862.6728.7899.9946,1.1936a29.32105,29.32105,0,0,1,3.0777,4.8095c.3393.6553.6494,1.3282.9361,2.0127,0,.0059.0059.0117.0059.0176a35.18976,35.18976,0,0,1-.6202,19.1619A6.71093,6.71093,0,0,1,184.0988,59.486Z" transform="translate(-126.0338 -24.3451)" fill-rule="evenodd" fill="url(#Áåçûìÿííûé_ãðàäèåíò_460)"/>
        <path d="M183.2563,52.067a26.88514,26.88514,0,0,1-.1755,3.0893,26.4142,26.4142,0,0,1-.9069,4.5872.633.633,0,0,1-.0292.0994A27.68338,27.68338,0,0,1,155.5344,79.783c-.4914,0-.9888-.0117-1.4744-.0409h-.0059c-.7255-.0351-1.4451-.1053-2.1531-.1931a27.46517,27.46517,0,0,1-12.5796-5.0084c-.5441-.3862-1.0707-.8016-1.5798-1.2287-.1404-.117-.2808-.2341-.4154-.3569a28.24092,28.24092,0,0,1-6.0265-7.4249c-.1697-.3043-.3336-.6144-.4973-.9245,0-.0117-.0059-.0175-.0117-.0292-.1697-.3335-.3277-.667-.4798-1.0064h-.0059a26.59978,26.59978,0,0,1-1.2404-3.2765,24.86658,24.86658,0,0,1-.6494-2.4809.03481.03481,0,0,1-.0059-.0234c-.1228-.5909-.2282-1.1877-.3101-1.7904a27.28564,27.28564,0,0,1-.2809-3.9318c0-.3101.0059-.6202.0176-.9245.0117-.4563.041-.9127.0819-1.3574.0352-.4447.0819-.8893.1405-1.3282a.57094.57094,0,0,1,.0117-.0994c.0818-.6144.1814-1.217.3042-1.8138a24.54841,24.54841,0,0,1,.6436-2.5452,25.75338,25.75338,0,0,1,1.2697-3.3819,27.564,27.564,0,0,1,1.8548-3.4228,25.16549,25.16549,0,0,1,1.5563-2.1941,27.26863,27.26863,0,0,1,2.5159-2.8085,27.61613,27.61613,0,0,1,19.3199-7.8461c.2926,0,.5851.0058.8718.0117.3101.0117.6202.0234.9303.0468.8601.0585,1.7143.1521,2.551.2867.0118,0,.0176.0058.0293.0058.7021.1054,1.3925.2458,2.0713.4096.8776.2106,1.7377.4564,2.5802.7489.5734.1931,1.1351.4096,1.691.6436.4154.1756.8191.3569,1.2228.55.0702.0351.1404.0644.2107.0995a27.77886,27.77886,0,0,1,7.2493,5.1254c.3042.2926.5968.5968.8893.9069.1931.2107.3862.4272.5735.6437.3218.3627.6319.743.9361,1.1233a27.57716,27.57716,0,0,1,5.7866,14.4695A26.43935,26.43935,0,0,1,183.2563,52.067Z" transform="translate(-126.0338 -24.3451)" fill-rule="evenodd" fill="url(#Áåçûìÿííûé_ãðàäèåíò_460-3)"/>
        <path d="M142.0011,41.0204a4.79561,4.79561,0,0,0-.1228,3.294c.6125,1.6593,2.3308.558,4.3817,0s4.1573-2.7143,5.4876-4.0473c1.3303-1.3331,2.6052-3.1623,2.4944-4.9361a4.37062,4.37062,0,0,0-1.9835-2.9384s.6809-.8684.109,2.6071c-.5718,3.4755-1.3502,4.7158-2.0937,5.2674-.7434.5516-3.0068,1.8708-4.2414,2.608-1.2345.7372-2.6131,1.5039-3.4308,1.3248S141.353,42.1849,142.0011,41.0204Z" transform="translate(-126.0338 -24.3451)" fill-rule="evenodd" fill="url(#Áåçûìÿííûé_ãðàäèåíò_494)" style="mix-blend-mode: screen"/>
        <path d="M145.7578,39.8235s-1.0498.9323-.7727,1.6843c.2772.752,2.2727.2703,3.5475-1.3457a2.35865,2.35865,0,0,0,.2673-2.921s-.4681,2.6968-1.7085,3.1708c-1.2404.4739-1.6441.2749-1.6441.2749S145.2549,40.4696,145.7578,39.8235Z" transform="translate(-126.0338 -24.3451)" fill-rule="evenodd" fill="url(#Áåçûìÿííûé_ãðàäèåíò_494-2)" style="mix-blend-mode: screen"/>
        <path d="M142.5774,40.9879s1.0219-1.1587,2.186-2.2438a7.74565,7.74565,0,0,1,3.1782-1.503,2.86754,2.86754,0,0,0-2.6821.2535C143.7535,38.371,142.5774,40.9879,142.5774,40.9879Z" transform="translate(-126.0338 -24.3451)" fill-rule="evenodd" fill="url(#Áåçûìÿííûé_ãðàäèåíò_494-3)" style="mix-blend-mode: screen"/>
        <path d="M138.4028,41.0086a16.308,16.308,0,0,1,5.252-3.7675c2.8824-1.134,3.8801-1.4666,5.155-2.5198a23.62453,23.62453,0,0,1,2.7143-1.8961s-2.8056.1429-7.0933,2.8592C140.1431,38.4008,138.391,40.1252,138.4028,41.0086Z" transform="translate(-126.0338 -24.3451)" fill-rule="evenodd" fill="url(#Áåçûìÿííûé_ãðàäèåíò_494-4)" style="mix-blend-mode: screen"/>
        <path d="M132.6226,40.4848s4.1034-4.1006,7.3184-5.708a38.22968,38.22968,0,0,1,8.2591-3.3813c2.8823-.7206,7.3372-1.9776,7.3372-1.9776l.8045-.4037s-9.1654.185-15.1814,3.811A26.86718,26.86718,0,0,0,132.6226,40.4848Z" transform="translate(-126.0338 -24.3451)" fill-rule="evenodd" fill="url(#Áåçûìÿííûé_ãðàäèåíò_494-5)" style="mix-blend-mode: screen"/>
        <path d="M137.5417,45.2127s.6836,5.6634,1.6685,5.9181,4.5169.2283,9.7659-2.4563c5.249-2.6845,6.3152-2.0639,9.2569-5.0543a24.12467,24.12467,0,0,0,5.0441-8.6205c.911-2.236,1.177-4.7879.8933-5.5818,0,0,.9913.5919.9913,2.8091a24.44705,24.44705,0,0,1-1.6074,8.0984,17.01478,17.01478,0,0,1-6.3191,7.2003c-2.9378,1.6629-8.8134,4.8562-14.5782,4.8117-5.7647-.0447-4.8538-.4618-5.4478-1.6113C136.6151,49.5766,137.5417,45.2127,137.5417,45.2127Z" transform="translate(-126.0338 -24.3451)" fill-rule="evenodd" fill="url(#Áåçûìÿííûé_ãðàäèåíò_494-6)" style="mix-blend-mode: screen"/>
        <path d="M128.5556,50.0484a35.60112,35.60112,0,0,1,1.607,4.3702c.5769,2.0868.4661,5.6344,2.8496,6.1886,2.3835.5544,5.7093,2.1064,6.9842,1.7184s5.9822-1.2323,8.5917-.7206,7.3722.2217,9.0351-.6097c1.6629-.8315,5.2431-2.9665,6.9451-3.6173a20.59853,20.59853,0,0,0,6.0783-4.5624c2.0256-2.0587,1.9982-4.403,2.4971-5.567a28.26769,28.26769,0,0,0,1.3857-7.9266,33.14306,33.14306,0,0,0-1.3857-6.0418l-1.1856-1.2528s1.4628,5.41.7976,9.2347-.0554,5.3767-2.7161,9.0351a21.83215,21.83215,0,0,1-10.5318,7.9265c-4.1572,1.3858-6.822,1.219-11.1414,1.6192a41.28492,41.28492,0,0,1-11.0402-.4315,10.07267,10.07267,0,0,1-6.0323-4.5865C129.4647,51.9047,128.5556,50.0484,128.5556,50.0484Z" transform="translate(-126.0338 -24.3451)" fill="#7d72b3" fill-rule="evenodd" opacity="0.5" style="mix-blend-mode: multiply"/>
        <path d="M137.7237,44.0613s.3816,6.15,1.1641,6.6794a4.98167,4.98167,0,0,0,3.991.2217c1.552-.5266,6.8733-2.2727,7.7879-2.827.9146-.5542,6.5179-3.3535,7.6217-4.1849,1.1037-.8315,2.5775-3.789,3.0764-4.4027a31.71059,31.71059,0,0,0,2.2449-5.6579c.388-1.3858.6652-3.0487.6652-3.0487a.96429.96429,0,0,0-.5544-1.0255c-.6651-.2494-.775,0-.775,0s-.1395.9147-.7216,3.5476c-.582,2.6329-8.4254,11.6681-12.3887,14.0238a15.493,15.493,0,0,1-9.0905,2.2727C139.3866,49.4935,137.6961,45.1145,137.7237,44.0613Z" transform="translate(-126.0338 -24.3451)" fill="#7d72b3" fill-rule="evenodd" opacity="0.4" style="mix-blend-mode: multiply"/>
        <path d="M137.5417,45.2127s.1634-3.8296,1.1521-5.1146a25.71428,25.71428,0,0,1,6.2696-4.9333,41.59444,41.59444,0,0,1,5.8142-2.6227,3.72828,3.72828,0,0,1,1.695,0s-1.1961-.6477-3.94.0452c-2.7437.6929-5.8478,3.2439-7.3445,4.0331a14.67991,14.67991,0,0,0-4.3789,3.6717C136.2548,41.2621,137.5417,45.2127,137.5417,45.2127Z" transform="translate(-126.0338 -24.3451)" fill="#7d72b3" fill-rule="evenodd" opacity="0.4" style="mix-blend-mode: multiply"/>
        <path d="M130.7986,41.1756l8.5049-7.452,5.2681-2.3835s5.2082-1.7695,7.5917-2.3259a57.26363,57.26363,0,0,1,7.7326-.7228l2.8042.3049s-4.8796-2.6607-12.0888-.7206c-7.2093,1.94-12.0007,4.3627-14.107,6.3524A40.04865,40.04865,0,0,0,130.7986,41.1756Z" transform="translate(-126.0338 -24.3451)" fill="#7d72b3" fill-rule="evenodd" opacity="0.4" style="mix-blend-mode: multiply"/>
        <path d="M130.5603,41.5078s-4.5693,5.5148-2.3521,8.9088c2.2173,3.394,3.1976,8.288,3.8404,9.4263.6428,1.1384,7.9998,2.849,9.5275,2.4956,1.5276-.3535,5.1919-1.3148,7.5893-.3867,0,0,4.2451-.3653,5.4646-.3653a12.38047,12.38047,0,0,0,3.954-1.2933c.5174-.2587,3.3997-1.1826,4.8779-1.7738a27.081,27.081,0,0,0,4.8039-3.178,25.67928,25.67928,0,0,0,3.954-4.6562,53.90881,53.90881,0,0,0,2.2912-8.8688c.3723-2.5496-.7239-7.4648-1.5521-9.1645-.8281-1.6996-3.4367-3.2889-3.4367-3.2889l.1518-.7688,2.0325-1.2125s3.5436,4.6457,3.8761,8.6578c.195,2.3526.7391,7.3708.1204,9.524-.4968,1.7292-2.1898,6.8115-3.6679,8.6273-1.4782,1.8158-5.9126,6.4496-8.2776,7.3476a56.88413,56.88413,0,0,1-13.4511,2.1914c-3.0292.062-9.7009-.4798-12.9802-.5909-3.2793-.1112-5.624-2.1657-6.9275-3.2079-1.3036-1.0421-.8601-3.8786-2.1905-6.1187-1.3303-2.2402-2.0632-5.2198-1.7337-6.8416C126.804,45.349,130.5603,41.5078,130.5603,41.5078Z" transform="translate(-126.0338 -24.3451)" fill-rule="evenodd" fill="url(#Áåçûìÿííûé_ãðàäèåíò_494-7)" style="mix-blend-mode: screen"/>
        <path d="M138.5842,62.5051c-.7021-.1638-1.334-.55-2.0303-.7255-.392-.0936-.7782-.1521-1.1644-.2633a5.45342,5.45342,0,0,0-1.2228-.2048,2.67745,2.67745,0,0,1-2.159-.901,5.91526,5.91526,0,0,1-.9479-1.9835c-.275-.983-.5383-1.9659-.8425-2.9489a10.584,10.584,0,0,0-1.1702-2.5159c-.1989-.3218-.3686-.6436-.5851-.9537a6.52785,6.52785,0,0,1-.6261-.866l-.0058-.0058a5.76278,5.76278,0,0,1-.4973-2.6154,7.15428,7.15428,0,0,1,.2515-1.3984,5.8987,5.8987,0,0,1,.5968-1.6441c.2809-.4856.5558-.983.8367-1.4803a25.58272,25.58272,0,0,1,2.0595-3.1888,45.0567,45.0567,0,0,1,3.2474-3.5983,18.09962,18.09962,0,0,1,2.1473-1.808c.6319-.4681,1.217-.9829,1.843-1.4569a20.1141,20.1141,0,0,1,3.5106-1.9366c1.4569-.7022,2.9138-1.3809,4.4292-1.9367a38.45,38.45,0,0,1,5.5174-1.5564,32.45615,32.45615,0,0,1,6.5649-.509,9.98379,9.98379,0,0,1,3.61.2984,9.85718,9.85718,0,0,1,1.9542.8893.78332.78332,0,0,1,.2691.2224.9291.9291,0,0,1,.1112.2457,2.35,2.35,0,0,1,.1931.7606c0,.2399-.1053.4506-.1053.7022.0059.3569-.0878.6787-.0995,1.0297a9.98411,9.98411,0,0,1-.1755,1.1117,9.28694,9.28694,0,0,1-.5032,2.1064c-.4096.9888-.6787,2.0303-1.1292,3.0074-.1346.2984-.3745.5266-.509.825-.1288.2691-.2458.4914-.3979.7489-.2867.4798-.5207.9771-.8484,1.4335a14.20446,14.20446,0,0,1-2.2643,2.6797,20.35427,20.35427,0,0,1-3.5048,2.2819c-.8074.4271-1.6499.7723-2.4691,1.1819-.7314.3627-1.4628.7372-2.1999,1.0824a47.11272,47.11272,0,0,1-5.8978,2.159,10.31133,10.31133,0,0,1-1.7027.4564,11.31967,11.31967,0,0,1-1.7084.2399,6.142,6.142,0,0,1-1.7495-.3394c-.9478-.3159-1.0415-1.3457-1.1117-2.1999a17.22043,17.22043,0,0,0-.2457-1.9016c-.0936-.509-.1346-1.0122-.2516-1.5271a7.64226,7.64226,0,0,1-.199-1.5856,8.31512,8.31512,0,0,1,.4037-1.9776,7.41145,7.41145,0,0,1,.3219-1.2756,4.60753,4.60753,0,0,1,1.2053-1.5388c.4856-.4329.9654-.8601,1.4452-1.2989.2867-.2691.626-.4681.9303-.7138a9.9302,9.9302,0,0,1,1.7319-1.0707,15.58283,15.58283,0,0,0,1.2754-.942,15.96135,15.96135,0,0,1,1.4628-.8601c.4272-.2107.8894-.3569,1.3341-.5325.3627-.1404.6962-.351,1.0648-.4739.3393-.117.6904-.1521,1.024-.2925a7.44294,7.44294,0,0,1,.9771-.3452,6.13762,6.13762,0,0,1,1.1935-.2633,1.23639,1.23639,0,0,1,1.3282,1.1058,4.26768,4.26768,0,0,1-.4037,2.7851c-.2925.7489-.6143,1.492-.901,2.2526-.3803,1.0122-1.2814,1.5446-2.042,2.2351a10.857,10.857,0,0,1-2.7734,1.8138c-.3101.1404-.6436.2223-.9479.351-.2632.117-.5207.2633-.784.4037-.1697.0936-.2925.2282-.4505.3335-.1404.0936-.3043.1463-.4506.2399a7.38231,7.38231,0,0,1-1.1058.6319c-.3744.1697-1.1175.2692-1.3632-.1697a2.87691,2.87691,0,0,1-.1697-.784,3.66146,3.66146,0,0,1-.0819-.8776,4.95829,4.95829,0,0,1,.1053-.8367,5.09629,5.09629,0,0,1,.2691-.7957,7.97494,7.97494,0,0,1,1.3165-2.042,13.01442,13.01442,0,0,1,.9244-1.2112,4.02625,4.02625,0,0,1,2.0128-1.0298,3.24,3.24,0,0,1,2.276.0234c.5208.3218.158,1.0298-.0117,1.4628-.0936.2399-.1931.4856-.275.7314a2.53746,2.53746,0,0,1-.1872.5617,4.4135,4.4135,0,0,1-.9655.8952,2.0907,2.0907,0,0,1-.5558.3569c-.2223.0702-.4622.0643-.6846.117-.1111.0234-.1696.1638-.3042.1111-.1228-.0409-.1228-.1813-.0995-.3101.0235-.117.0761-.234.0995-.3452.0058-.0234-.0234-.0643-.0175-.0936a4.82449,4.82449,0,0,1,.7313-1.0707c.3159.1287.0995.3159.041.4564a3.38335,3.38335,0,0,0-.0644.351c-.0234.0995-.1755.2809-.0643.3862.076.0761.3334-.0585.4154-.0878a2.48024,2.48024,0,0,0,1.3282-1.6558c.1345-.4388.1111-1.1994-.3745-1.3925a3.47362,3.47362,0,0,0-1.1819-.0702c-1.375-.0234-2.1882,1.4452-2.9196,2.393a8.03885,8.03885,0,0,0-1.1585,2.1356,15.75469,15.75469,0,0,0-.4213,1.6032c-.1054.392-.234.9946.3686.9127a6.87718,6.87718,0,0,0,1.0649-.351,5.37354,5.37354,0,0,0,.825-.3511c.433-.234.9186-.2984,1.3691-.4973.3511-.158.708-.3511,1.059-.5208a8.02958,8.02958,0,0,0,2.4223-2.1063,18.8619,18.8619,0,0,1,1.5037-1.3867,7.33262,7.33262,0,0,0,1.1175-1.726,6.69918,6.69918,0,0,0,.6729-1.9016,3.95948,3.95948,0,0,0,.3159-1.9308c-.1988-.6553-1.0414-.667-1.5855-.5734a6.90861,6.90861,0,0,0-1.375.3218c-.7957.316-1.5798.6553-2.3696.9771a25.39718,25.39718,0,0,0-3.4229,2.0596,16.9388,16.9388,0,0,0-1.7436,1.0414c-.3978.3101-.7781.6729-1.1584,1.0122a8.40708,8.40708,0,0,1-.7958.7197,4.8169,4.8169,0,0,0-1.0766.9596,4.15875,4.15875,0,0,0-.6494,1.0531,2.24585,2.24585,0,0,0,.0117.8835,11.92824,11.92824,0,0,1-.1112,1.2112c-.0175.433,0,.8776.0059,1.3106,0,.8484-.1287,1.6734-.1112,2.5335a9.38009,9.38009,0,0,0,.234,1.6032,9.38074,9.38074,0,0,1,.2809,1.1994,1.06142,1.06142,0,0,0,.2983.8133,1.62211,1.62211,0,0,0,.4038.1638c.1229.0468.234.0878.3511.1229.0643.0234.1345.0351.2048.0585.0526.0293.0936.1053.1462.1287a.9576.9576,0,0,0,.4974-.0058c.3393-.0644.6728-.1463,1.0122-.2048a13.38544,13.38544,0,0,0,2.5159-.433c.9303-.351,1.7962-.8542,2.7148-1.2287a42.725,42.725,0,0,0,4.1659-1.6792c.591-.3218,1.2053-.6202,1.8138-.8952a20.28293,20.28293,0,0,0,4.2303-2.1532,11.06688,11.06688,0,0,0,1.2697-1.2404c.2339-.2516.4856-.4739.6962-.7489a18.366,18.366,0,0,0,1.691-2.5861c.2047-.3804.3276-.7958.5382-1.1761.3277-.5909.7256-1.1117,1.0298-1.7202a11.97914,11.97914,0,0,0,.6728-1.8255,3.13727,3.13727,0,0,0,.199-1.1117,5.2073,5.2073,0,0,1,.4037-2.276,2.43881,2.43881,0,0,0,.3043-1.4803c-.0703-.2282-.3979-.2867-.5968-.351-.4681-.158-.9537-.275-1.4043-.474a4.75734,4.75734,0,0,0-1.1702-.4856,2.15309,2.15309,0,0,0-.509-.0527c-.4388.0234-.8191.3277-1.2579.3101a2.52449,2.52449,0,0,1-.398-.0819,4.63288,4.63288,0,0,0-.6962-.0175c-.5032-.0176-.9888-.1112-1.4979-.1053-.5967.0058-1.1818.0585-1.7786.0936-.5559.0292-1.1176-.0176-1.6734,0a2.2518,2.2518,0,0,0-.8953.3159c-.2866.1287-.6084.1814-.9068.2926a2.36385,2.36385,0,0,1-.7899.2106,5.9344,5.9344,0,0,0-1.1643.0293,8.7691,8.7691,0,0,0-1.3809.4797c-1.2463.5325-2.4574,1.1995-3.7504,1.6091-.6261.193-1.2697.2808-1.8782.5265a3.92353,3.92353,0,0,0-.6319.3921c-.4096.275-.8367.5265-1.258.7898-.942.5968-1.8372,1.2522-2.7324,1.9192a18.22812,18.22812,0,0,0-2.9313,2.5627,62.36056,62.36056,0,0,0-4.4233,5.4297,18.20575,18.20575,0,0,0-1.7729,2.8787c-.0117.0234-.0175.0409-.0292.0643a3.46178,3.46178,0,0,0-.2926,1.8138.07364.07364,0,0,0,.0059.0351,6.53312,6.53312,0,0,0,.4973,1.5915,12.69577,12.69577,0,0,0,.6378,1.4101,10.8626,10.8626,0,0,1,.8951,1.4159c.2516.6495.4798,1.3457.6729,2.0186a24.79991,24.79991,0,0,1,.6026,2.592,5.84424,5.84424,0,0,0,.4447,1.5739c.357.6904,1.1176.9479,1.7378,1.3516a1.62294,1.62294,0,0,0,.9537.3042,6.9411,6.9411,0,0,1,1.6149.3218,11.09791,11.09791,0,0,0,3.4637.591,17.751,17.751,0,0,0,2.0771-.2867c.6495-.0819,1.2989-.1463,1.9426-.2516a11.141,11.141,0,0,1,1.7552-.2575,6.82615,6.82615,0,0,1,1.7495.2458,9.54017,9.54017,0,0,0,2.9488.4447c.6202-.0176,1.2288-.158,1.8431-.199a12.731,12.731,0,0,1,1.7026.0936,7.86672,7.86672,0,0,0,2.9431-.4973,8.53087,8.53087,0,0,0,1.767-.8659,5.20089,5.20089,0,0,1,1.4334-.4915,12.53871,12.53871,0,0,0,2.9197-1.1527c1.1936-.6787,2.1766-1.6792,3.335-2.4047.6554-.4096,1.3926-.6787,2.0304-1.1175a9.82078,9.82078,0,0,0,1.4686-1.2229c.5207-.5266,1.0122-1.0766,1.5329-1.6032a4.5808,4.5808,0,0,0,.7899-1.41,8.29893,8.29893,0,0,0,.6026-2.317,8.73829,8.73829,0,0,1,.8309-2.2351,8.44072,8.44072,0,0,0,.9069-2.8787c.076-.7899.1814-1.5856.1814-2.3813a11.87833,11.87833,0,0,0-.1522-1.5096c-.0643-.4681-.1579-.9186-.2575-1.3808-.1286-.5676-.1111-1.1527-.2164-1.726-.0936-.4915-.2457-1.0123-.3803-1.4979a7.96381,7.96381,0,0,0-.3628-1.0298,6.94151,6.94151,0,0,0-1.0122-1.6675,2.87948,2.87948,0,0,0-.5968-.4154c-.1521-.117-.1872-.2165-.3627-.3043-.2458-.1228-.4915-.2457-.7314-.3803-.3862-.2223-.825-.2867-1.2112-.4973-.3686-.1989-.7021-.4622-1.0531-.6846a6.76741,6.76741,0,0,1-1.1468-.7489c-.3394-.3277-.5617-.7431-.8894-1.0707a11.01074,11.01074,0,0,0-1.1936-.8543,8.59792,8.59792,0,0,0-2.1824-.8718,5.48592,5.48592,0,0,0-1.1409-.2691,11.79966,11.79966,0,0,0-1.2346-.4213,7.62226,7.62226,0,0,1-1.2638-.1697,4.70255,4.70255,0,0,0-.7372-.1462,7.25992,7.25992,0,0,0-1.4687.076,12.13839,12.13839,0,0,1-1.3047.0234,6.98464,6.98464,0,0,1-1.1059-.0234,15.00468,15.00468,0,0,0-3.2004-.0702,11.06212,11.06212,0,0,0-2.908.4681c-.8015.275-1.5914.509-2.3755.8308a13.25733,13.25733,0,0,0-1.5095.7958c-1.2111.6787-2.3228,1.5095-3.4754,2.2818-1.2873.8543-2.4984,1.8021-3.7388,2.7325-.8075.6085-1.6266,1.2111-2.4223,1.8372-.3452.275-.6787.5617-1.0064.8542a27.26863,27.26863,0,0,1,2.5159-2.8085,27.61613,27.61613,0,0,1,19.3199-7.8461c.2926,0,.5851.0058.8718.0117.3101.0117.6202.0234.9303.0468.8601.0585,1.7143.1521,2.551.2867.0118,0,.0176.0058.0293.0058q1.43055.38625,2.8494.8192c.7899.2399,1.5856.4563,2.3638.7255.5149.1755,1.0181.4037,1.5154.6085a13.63725,13.63725,0,0,1,1.3692.5968,19.53109,19.53109,0,0,1,1.9542,1.3691,12.63664,12.63664,0,0,1,1.1936,1.0473,10.21517,10.21517,0,0,1,1.4159,1.7202,14.57462,14.57462,0,0,1,2.0596,4.8388,18.41691,18.41691,0,0,1,.2047,4.4701,15.36488,15.36488,0,0,1-.3277,2.4165,24.10548,24.10548,0,0,0-.5616,2.5159c-.041.4271.0293.8659-.041,1.2872-.0585.3452-.1872.6787-.2574,1.0239a8.2282,8.2282,0,0,1-.7021,2.1122,12.62251,12.62251,0,0,1-1.7378,2.4691c-.743.8835-1.5388,1.7319-2.3111,2.5979a11.45563,11.45563,0,0,1-2.7148,2.1707,16.417,16.417,0,0,1-2.4224,1.3574,10.52851,10.52851,0,0,1-2.5569.8601,3.2767,3.2767,0,0,0-1.7084.708c-.3218.234-.5618.55-.8601.8016a2.5958,2.5958,0,0,1-.907.4095,6.993,6.993,0,0,1-2.3169.199,33.05752,33.05752,0,0,0-3.3994.2281,10.49864,10.49864,0,0,1-1.7143.0703c-.5149-.0293-1.024-.1639-1.533-.2282-.5675-.0702-1.1351-.0819-1.6968-.1697a3.87011,3.87011,0,0,0-1.2462-.0234c-.3628.0409-.7255,0-1.0883.0292-.3745.0351-.7431.1171-1.1175.1697C141.9192,62.1307,140.3219,62.9147,138.5842,62.5051Z" transform="translate(-126.0338 -24.3451)" fill="#00c4ff" fill-rule="evenodd"/>
        <path d="M137.2092,75.1842a69.10788,69.10788,0,0,0,9.4388,1.0544c4.459-.1293,9.5983.4249,13.5893.5358s10.9663-3.1612,12.2412-3.7609a23.9628,23.9628,0,0,0,7.0397-5.3361c2.6868-2.9793,3.7472-7.8345,3.7472-7.8345h-1.1207a13.49185,13.49185,0,0,1-2.0449,4.461,28.47592,28.47592,0,0,1-14.4946,9.5512c-4.9037,1.2224-9.2624.8843-12.2686,1.3323-4.3527.6488-14.0152-.8889-14.0152-.8889Z" transform="translate(-126.0338 -24.3451)" fill-rule="evenodd" fill="url(#Áåçûìÿííûé_ãðàäèåíò_486)" style="mix-blend-mode: screen"/>
        <path d="M135.4963,71.9705s1.0351,2.6916,1.7129,3.2137a3.08359,3.08359,0,0,0,2.1122-.6436l-1.9952-1.5856Z" transform="translate(-126.0338 -24.3451)" fill-rule="evenodd" fill="url(#Áåçûìÿííûé_ãðàäèåíò_469)"/>
        <path d="M183.3482,54.8249a34.52506,34.52506,0,0,1,.7506,4.6611,2.613,2.613,0,0,1-1.9541.3569S183.1667,56.1234,183.3482,54.8249Z" transform="translate(-126.0338 -24.3451)" fill-rule="evenodd" fill="url(#Áåçûìÿííûé_ãðàäèåíò_479)"/>
        <path d="M164.5683,25.8546s5.7841.5801,7.1382,1.5271a4.005,4.005,0,0,1-2.0325,1.2125S164.9833,25.9927,164.5683,25.8546Z" transform="translate(-126.0338 -24.3451)" fill="#ff61c7" fill-rule="evenodd"/>
        <path d="M130.3987,36.6204l2.3711-.3737.9288-1.247S131.9978,35.748,130.3987,36.6204Z" transform="translate(-126.0338 -24.3451)" fill="#ff61c7" fill-rule="evenodd"/>
        <path d="M132.3236,70.2635s11.2203,3.2574,19.9783,3.4245,12.0487-1.784,15.8355-3.2474,10.0048-4.8223,11.8797-7.3017c1.8748-2.4795,3.3311-8.314,3.3311-8.314s-1.8003,8.751-3.3567,10.3015a81.84544,81.84544,0,0,1-9.7302,6.8441,15.57417,15.57417,0,0,1-10.5259,2.4254,42.00135,42.00135,0,0,1-5.4867.4569c-1.4581-.1108-3.7205,1.359-7.8778.0144,0,0-5.7845-.2915-7.0495-.5687C138.0564,74.0214,132.3236,70.2635,132.3236,70.2635Z" transform="translate(-126.0338 -24.3451)" fill="#54469b" fill-rule="evenodd" opacity="0.5" style="mix-blend-mode: multiply"/>
        <path d="M135.0488,58.4877s9.2999,1.6117,16.0373.9237c6.7373-.688,10.3803-2.3701,12.3019-3.6266a43.87,43.87,0,0,0,7.095-7.1103c1.4084-1.831,2.119-6.4079,2.119-6.4079s.2541,4.4711-.8955,6.4079a31.98792,31.98792,0,0,1-6.7151,6.6899c-1.6129,1.07-6.2356,3.6087-8.6496,4.047-2.4139.4383-6.398,1.6592-9.2835,1.1298C144.1727,60.0117,137.1757,60.1018,135.0488,58.4877Z" transform="translate(-126.0338 -24.3451)" fill="#b04fe2" fill-rule="evenodd"/>
        <path d="M147.9416,73.3755s9.6816-.666,13.0074-1.405A95.93549,95.93549,0,0,0,171.7065,68.31c3.0584-1.1223,5.3686-3.3421,7.0541-4.5752,1.6856-1.2332,3.8469-6.3568,3.8469-6.3568s-1.379,5.0798-3.4961,6.7375-7.5368,4.6948-13.6594,7.4115C158.6471,74.5464,153.3551,73.688,147.9416,73.3755Z" transform="translate(-126.0338 -24.3451)" fill="#8b40e0" fill-rule="evenodd"/>
        <path d="M181.6766,61.2179c.1521-.4622.3159-.9186.4681-1.375a27.65,27.65,0,0,1-2.1532,5.2835l-.0175.0175c-.2575.2516-.5734.4505-.8134.7255-.2457.275-.4622.55-.7255.8075a26.35563,26.35563,0,0,1-4.201,3.2999,32.38014,32.38014,0,0,1-4.7451,2.6798,25.69432,25.69432,0,0,1-3.967,1.3866,16.96554,16.96554,0,0,1-3.3935.4564c-.5734.0293-1.1351.1229-1.7026.1755-.708.0761-1.4335.0644-2.1298.1873a28.68286,28.68286,0,0,1-3.6686.4447c-1.0473.0585-2.0888.2047-3.1361.2047-1.3457-.0058-2.6798-.2165-4.0255-.2106-1.3047.0117-2.6212-.0468-3.9202-.1638-.7781-.0761-1.5388-.2224-2.3052-.3101-.6494-.0761-1.2755-.2165-1.9191-.2867-.5441-.3862-1.0707-.8016-1.5798-1.2287-.1404-.117-.2808-.2341-.4154-.3569.7372.234,1.4686.4856,2.2117.7196a19.03143,19.03143,0,0,0,3.2999.6553,8.11,8.11,0,0,0,2.8378-.0292,3.61361,3.61361,0,0,1,2.4223.4037,11.46581,11.46581,0,0,0,1.1818.3511,3.46186,3.46186,0,0,0,1.5681.0526c.509-.0643,1.0415-.1521,1.5505-.2633.4329-.0936.8484-.2691,1.2872-.3276a7.97482,7.97482,0,0,1,2.3287-.0702,7.9657,7.9657,0,0,0,2.6329.0994,16.76255,16.76255,0,0,1,2.7031-.2457,4.84439,4.84439,0,0,1,.8777.0819,3.51,3.51,0,0,0,.9888-.0702,8.79424,8.79424,0,0,0,1.732-.3335c.5382-.1697,1.0531-.4096,1.5797-.6085a13.01342,13.01342,0,0,0,2.8728-1.3867c.7665-.5149,1.6149-.8776,2.3931-1.375.7431-.4798,1.4042-1.0824,2.1649-1.5388.8015-.4856,1.5329-1.0824,2.2994-1.6266.4856-.3452.9186-.7547,1.4042-1.1058.4213-.3042.8835-.5441,1.2755-.8893a7.4632,7.4632,0,0,0,1.7378-1.9718A11.96736,11.96736,0,0,0,181.6766,61.2179Z" transform="translate(-126.0338 -24.3451)" fill="#00c4ff" fill-rule="evenodd"/>
        <path d="M151.9725,45.8111s6.6888-5.4753,9.4989-10.8114C161.4714,34.9997,153.6765,43.0073,151.9725,45.8111Z" transform="translate(-126.0338 -24.3451)" fill="#ff77f4" fill-rule="evenodd"/>
        <path d="M144.9385,52.3378a25.25618,25.25618,0,0,0,8.8988-1.9212,15.8935,15.8935,0,0,0,7.0165-5.9686,31.03786,31.03786,0,0,1-6.6051,4.7127C150.8053,50.8515,148.2001,51.2643,144.9385,52.3378Z" transform="translate(-126.0338 -24.3451)" fill="#ea9cf4" fill-rule="evenodd"/>
        <path d="M161.6398,43.4833s.4733-1.2063,1.3601-3.3212a25.8428,25.8428,0,0,1,1.5854-3.2482A13.56218,13.56218,0,0,1,161.6398,43.4833Z" transform="translate(-126.0338 -24.3451)" fill="#ea9cf4" fill-rule="evenodd"/>
        <path d="M143.4926,63.475a35.4091,35.4091,0,0,0,13.5209,0c7.6493-1.4265,7.982-1.8921,10.0883-3.544a40.86577,40.86577,0,0,0,4.4344-4.5666,14.36679,14.36679,0,0,0,1.8779-3.5737,26.61774,26.61774,0,0,1-5.2631,6.4909c-3.1001,2.6028-5.6499,3.8777-10.8604,4.6537A75.38054,75.38054,0,0,1,143.4926,63.475Z" transform="translate(-126.0338 -24.3451)" fill="#d374f4" fill-rule="evenodd"/>
        <path d="M148.6442,76.2226s5.3206.4594,7.4824.9029a19.57223,19.57223,0,0,0,8.7026-.4514c2.3834-.879,7.105-3.4069,7.105-3.4069a28.21724,28.21724,0,0,1-9.6548,3.0269C157.0307,76.8483,153.8373,75.9614,148.6442,76.2226Z" transform="translate(-126.0338 -24.3451)" fill="#d374f4" fill-rule="evenodd"/>
        <path d="M173.4803,72.492a58.28286,58.28286,0,0,0,5.0354-3.7734A12.78288,12.78288,0,0,1,173.4803,72.492Z" transform="translate(-126.0338 -24.3451)" fill="#d374f4" fill-rule="evenodd"/>
        <path d="M147.8178,43.6202s3.855-2.9012,5.0784-4.9979a9.34745,9.34745,0,0,0,1.3458-3.2913s.5446,2.0395-1.7694,4.632A15.74419,15.74419,0,0,1,147.8178,43.6202Z" transform="translate(-126.0338 -24.3451)" fill="#f2c4f8" fill-rule="evenodd"/>
        <path d="M138.8139,41.5947a7.65419,7.65419,0,0,0-.1478,4.2164c.4804,1.3635,1.2194,2.2504,1.9216,2.3243.7021.074,1.7368-1.5889,1.6998-2.0693-.0369-.4805-1.1456-1.7368-1.2195-2.9933-.0739-1.2564,1.2953-3.1041,1.2205-3.8062C142.2136,38.5645,139.3274,39.2673,138.8139,41.5947Z" transform="translate(-126.0338 -24.3451)" fill-rule="evenodd" opacity="0.5" fill="url(#Áåçûìÿííûé_ãðàäèåíò_796)" style="mix-blend-mode: screen"/>
        <path d="M139.4421,35.8101c-.4633-.4975-3.5789,2.4192-5.7435,4.6747-2.1646,2.2554-4.3079,5.2117-4.4927,7.0964-.1847,1.8846,1.3674,4.7317,4.1758,7.2437,2.8085,2.512,10.1198,4.8031,11.8778,3.7684,1.7581-1.0347,1.1106-4.2496-.321-5.0257-1.4315-.776-6.0878.7876-8.268-1.5035-2.1802-2.2912-1.1954-5.3698-.9238-7.9566.3326-3.1669,1.3304-5.8386,2.2542-6.6516A8.29508,8.29508,0,0,0,139.4421,35.8101Z" transform="translate(-126.0338 -24.3451)" fill-rule="evenodd" opacity="0.5" fill="url(#Áåçûìÿííûé_ãðàäèåíò_796-2)" style="mix-blend-mode: screen"/>
        <path d="M129.8895,45.5635c-.6018,2.0435-.673,4.228.5843,5.9058,1.2572,1.6777,2.2058.4226,2.6492-3.6728a38.51835,38.51835,0,0,0,.1897-6.8974A11.149,11.149,0,0,0,129.8895,45.5635Z" transform="translate(-126.0338 -24.3451)" fill="#fffff8" fill-rule="evenodd"/>
        <path d="M131.9439,52.6652c-.8496.7886,1.1793,2.3523,1.5101,1.5987C133.7848,53.5102,132.4962,52.1525,131.9439,52.6652Z" transform="translate(-126.0338 -24.3451)" fill="#f5cefa" fill-rule="evenodd"/>
        <path d="M129.6927,58.8479c-.0802,1.2975.6601,2.7728,2.9299,3.6224a9.257,9.257,0,0,0,4.0479.6183,13.4059,13.4059,0,0,1-4.118-1.5502A17.83175,17.83175,0,0,1,129.6927,58.8479Z" transform="translate(-126.0338 -24.3451)" fill="#f5cefa" fill-rule="evenodd"/>
        <path d="M139.0014,41.7964c-.7491-.9918.2256-2.3488,1.5998-3.1839,1.3741-.835,1.5389-.5819,1.2449.1474a12.39307,12.39307,0,0,1-1.3864,3.0365C139.8171,42.5653,139.4448,42.3834,139.0014,41.7964Z" transform="translate(-126.0338 -24.3451)" fill="#fffff8" fill-rule="evenodd"/>
        <path d="M143.9403,40.0699c-.2849-.4861.2898-1.9055,1.0741-1.7753.7844.1301.5928.4428.2255.961C144.9653,39.6429,144.2094,40.5289,143.9403,40.0699Z" transform="translate(-126.0338 -24.3451)" fill="#fffff8" fill-rule="evenodd"/>
        <path d="M149.6168,42.5012c-.2674-.5515,1.9202-2.237,2.216-2.0607.2957.1763.1043,1.0686-.406,1.4031C150.9164,42.1781,149.7103,42.694,149.6168,42.5012Z" transform="translate(-126.0338 -24.3451)" fill="#fffff8" fill-rule="evenodd"/>
      </g>
    </g>
  </g>
</svg>
