<svg id="Layer_1" enable-background="new 0 0 52 52" height="512" viewBox="0 0 52 52" width="512" xmlns="http://www.w3.org/2000/svg"><g id="_x32_8"><g><g><g><g><g><g><g><g><g><g><path d="m16.5 43.4-5 2.8" fill="#e3e7f0"/></g></g></g><g><g><g><path d="m11.5 46.4c-.1 0-.2 0-.2-.1-.1-.1 0-.3.1-.3l4.9-2.8c.1-.1.3 0 .3.1.1.1 0 .3-.1.3l-4.9 2.8s0 0-.1 0z" fill="#4c5c75"/></g></g></g></g><g><g><g><g><path d="m11.5 46.2 1.9 1" fill="#e3e7f0"/></g></g></g><g><g><g><path d="m13.4 47.5h-.1l-1.8-1.1c-.1-.1-.2-.2-.1-.3s.2-.2.3-.1l1.8 1.1c.1.1.2.2.1.3-.1 0-.2.1-.2.1z" fill="#4c5c75"/></g></g></g></g><g><g><g><g><path d="m13.4 47.2-3.6 2.1" fill="#e3e7f0"/></g></g></g><g><g><g><path d="m9.6 49.4c-.1-.1 0-.3.1-.3l3.5-2c.1-.1.3 0 .3.1.1.1 0 .3-.1.3l-3.5 2c-.1.1-.2 0-.3-.1z" fill="#4c5c75"/></g></g></g></g></g><g><g><g><g><g><path d="m10.3 39.6-3.9 2.2" fill="#e3e7f0"/></g></g></g><g><g><g><path d="m6.4 42.1c-.1 0-.2 0-.2-.1-.1-.1 0-.3.1-.3l3.8-2.2c.1-.1.3 0 .3.1.1.1 0 .3-.1.3l-3.8 2.2z" fill="#4c5c75"/></g></g></g></g><g><g><g><g><path d="m4.6 40.8 1.8 1" fill="#e3e7f0"/></g></g></g><g><g><g><path d="m6.4 42.1h-.1l-1.8-1.1c-.1-.1-.2-.2-.1-.3s.2-.2.3-.1l1.8 1.1c.1.1.2.2.1.3 0 0-.1.1-.2.1z" fill="#4c5c75"/></g></g></g></g><g><g><g><g><path d="m11.9 41.2-2.8 1.6" fill="#e3e7f0"/></g></g></g><g><g><g><path d="m8.9 43c-.1-.1 0-.3.1-.3l2.9-1.7c.1-.1.3 0 .3.1.1.1 0 .3-.1.3l-2.9 1.7c-.1 0-.3 0-.3-.1z" fill="#4c5c75"/></g></g></g></g><g><g><g><g><path d="m14.3 42.1-5.8 3.4" fill="#e3e7f0"/></g></g></g><g><g><g><path d="m8.3 45.6c-.1-.1 0-.3.1-.3l5.8-3.4c.1-.1.3 0 .3.1.1.1 0 .3-.1.3l-5.8 3.4c-.1.1-.2 0-.3-.1z" fill="#4c5c75"/></g></g></g></g><g><g><g><g><path d="m18.3 44.6-2.8 1.7" fill="#e3e7f0"/></g></g></g><g><g><g><path d="m15.3 46.4c-.1-.1 0-.3.1-.3l2.9-1.6c.1-.1.3 0 .3.1.1.1 0 .3-.1.3l-2.9 1.6c-.1.1-.3 0-.3-.1z" fill="#4c5c75"/></g></g></g></g><g><g><g><g><path d="m20.6 45.8-5.8 3.4" fill="#e3e7f0"/></g></g></g><g><g><g><path d="m14.6 49.3c-.1-.1 0-.3.1-.3l5.8-3.4c.1-.1.3 0 .3.1.1.1 0 .3-.1.3l-5.8 3.4c-.1.1-.2 0-.3-.1z" fill="#4c5c75"/></g></g></g></g></g></g><g><g><g><g><path d="m8.7 25.9c-.1 0-.1 0-.1 0h-.1l-1.7 1-2.6-1.5c-.1-.1-.3 0-.3.1-.1.1 0 .3.1.3l2.7 1.6h.1c.1 0 .1 0 .1-.1l1.6-1 4.5 2.6c.1.1.3 0 .3-.1.1-.1 0-.3-.1-.3z" fill="#4c5c75"/></g></g></g><g><g><g><path d="m17.3 22.2 1.4-.8c.1-.1.2-.2.1-.3s-.2-.2-.3-.1c-.2.1-1.9 1.1-1.8 1.1-.2.1-.2.3 0 .4l3.8 2.2c.1.1.3 0 .3-.1.1-.1 0-.3-.1-.3z" fill="#4c5c75"/></g></g></g><g><g><g><path d="m15.6 24.1c-.1-.1-.3 0-.3.1-.1.1 0 .3.1.3l2.8 1.6c.1.1.3 0 .3-.1.1-.1 0-.3-.1-.3z" fill="#4c5c75"/></g></g></g><g><g><g><path d="m10.1 23.7c-.1-.1-.3 0-.3.1-.1.1 0 .3.1.3l5.8 3.4c.1.1.3 0 .3-.1.1-.1 0-.3-.1-.3z" fill="#4c5c75"/></g></g></g><g><g><g><path d="m8.1 28.3c-.1-.1-.3 0-.3.1s0 .3.1.3l2.9 1.7c.1.1.3 0 .3-.1.1-.1 0-.3-.1-.3z" fill="#4c5c75"/></g></g></g><g><g><g><path d="m3.1 28.2c-.1-.1-.3 0-.3.1-.1.1 0 .3.1.3l5.8 3.4c.1 0 .3 0 .3-.1.1-.1 0-.3-.1-.3z" fill="#4c5c75"/></g></g></g><g><g><g><path d="m40.3 25.3c.2-.1.1-.4 0-.4l-1.4-.9 3.1-1.8c.1-.1.2-.2.1-.3s-.2-.2-.3-.1l-3.5 2c-.1.1-.2.3 0 .4l1.4.8-4 2.3c-.1.1-.2.2-.1.3s.2.2.3.1z" fill="#4c5c75"/></g></g></g><g><g><g><path d="m49.1 30.3c-.2-.1.7.4-1.8-1.1-.1 0-.2 0-.2 0-.1.1-2.8 1.6-3.9 2.2-.1.1-.2.2-.1.3s.2.2.3.1l3.7-2.1 1.7 1c.1.1.3 0 .3-.1.2-.1.1-.2 0-.3z" fill="#4c5c75"/></g></g></g><g><g><g><path d="m43.8 28.5c-.1-.1-.2-.2-.3-.1l-2.9 1.7c-.1.1-.2.2-.1.3s.2.2.3.1l2.9-1.7c.2 0 .2-.2.1-.3z" fill="#4c5c75"/></g></g></g><g><g><g><path d="m44.3 25.5c-.1-.1-.2-.2-.3-.1l-5.8 3.4c-.1.1-.2.2-.1.3s.2.2.3.1l5.8-3.4c.1-.1.2-.2.1-.3z" fill="#4c5c75"/></g></g></g><g><g><g><path d="m36.2 24.5c-.1-.1-.2-.2-.3-.1l-2.3 1.3c-.1.1-.2.2-.1.3s.2.2.3.1l2.3-1.3c.1-.1.2-.2.1-.3z" fill="#4c5c75"/></g></g></g><g><g><g><path d="m37 21.1c-.1-.1-.2-.1-.3-.1l-5.8 3.4c-.1.1-.2.2-.1.3s.2.2.3.1l5.8-3.4c.1 0 .2-.2.1-.3z" fill="#4c5c75"/></g></g></g></g><g><g><g><g><g><path d="m40.1 46.3h-.1l-4.5-2.6c-.1-.1-.2-.2-.1-.3s.2-.2.3-.1l4.5 2.6c.1.1.2.2.1.3 0 0-.1.1-.2.1z" fill="#4c5c75"/></g></g></g></g><g><g><g><g><path d="m38.3 47.3c-.1 0-.2 0-.2-.1-.1-.1 0-.3.1-.3l1.8-1.1c.1-.1.3 0 .3.1.1.1 0 .3-.1.3l-1.8 1.1z" fill="#4c5c75"/></g></g></g></g><g><g><g><g><path d="m41.1 49-2.9-1.7c-.1-.1-.2-.2-.1-.3s.2-.2.3-.1l2.9 1.7c.1.1.2.2.1.3 0 .1-.2.1-.3.1z" fill="#4c5c75"/></g></g></g></g></g><g><g><g><g><g><path d="m45.7 42.2h-.1l-3.9-2.2c-.1-.1-.2-.2-.1-.3s.2-.2.3-.1l3.8 2.2c.1.1.2.2.1.3 0 .1 0 .1-.1.1z" fill="#4c5c75"/></g></g></g></g><g><g><g><g><path d="m45.7 42.2c-.1 0-.2 0-.2-.1-.1-.1 0-.3.1-.3l1.8-1.1c.1-.1.3 0 .3.1.1.1 0 .3-.1.3l-1.8 1.1z" fill="#4c5c75"/></g></g></g></g><g><g><g><g><path d="m42.8 43-2.9-1.7c-.1-.1-.2-.2-.1-.3s.2-.2.3-.1l2.9 1.7c.1.1.2.2.1.3 0 .1-.2.1-.3.1z" fill="#4c5c75"/></g></g></g></g><g><g><g><g><path d="m43.5 45.8-5.8-3.4c-.1-.1-.2-.2-.1-.3s.2-.2.3-.1l5.8 3.4c.1.1.2.2.1.3s-.2.2-.3.1z" fill="#4c5c75"/></g></g></g></g><g><g><g><g><path d="m36 46.4h-.1l-2.6-1.5c-.1-.1-.2-.2-.1-.3s.2-.2.3-.1l2.6 1.5c.1.1.2.2.1.3 0 0-.1.1-.2.1z" fill="#4c5c75"/></g></g></g></g><g><g><g><g><path d="m37.4 49.3-5.8-3.4c-.1-.1-.2-.2-.1-.3s.2-.2.3-.1l5.8 3.4c.1.1.2.2.1.3s-.2.2-.3.1z" fill="#4c5c75"/></g></g></g></g></g><g><g><g><g><path d="m42.1 48.4c.4.2.4.6 0 .8s-1 .2-1.4 0-.4-.6 0-.8c.3-.2 1-.2 1.4 0z" fill="#dba660"/></g></g></g></g><g><g><g><g><path d="m44.4 45.2c.4.2.4.6 0 .8s-1 .2-1.4 0-.4-.6 0-.8c.3-.3 1-.3 1.4 0z" fill="#78e75a"/></g></g></g></g><g><g><g><g><g><path d="m15.3 48.9c.4.2.4.6 0 .8s-1 .2-1.4 0-.4-.6 0-.8 1-.2 1.4 0z" fill="#f45170"/></g></g></g></g><g><g><g><g><path d="m3.7 27.8c.4.2.4.6 0 .8s-1 .2-1.4 0-.4-.6 0-.8 1-.2 1.4 0z" fill="#57b3fe"/></g></g></g></g><g><g><g><g><path d="m8.7 28c.4.2.4.6 0 .8s-1 .2-1.4 0-.4-.6 0-.8 1-.2 1.4 0z" fill="#78e75a"/></g></g></g></g><g><g><g><g><path d="m4.8 25.1c.4.2.4.6 0 .8s-1 .2-1.4 0-.4-.6 0-.8 1-.2 1.4 0z" fill="#dba660"/></g></g></g></g><g><g><g><g><path d="m10.7 23.6c.4.2.4.6 0 .8s-1 .2-1.4 0-.4-.6 0-.8c.3-.3 1-.3 1.4 0z" fill="#57b3fe"/></g></g></g></g><g><g><g><g><path d="m16.2 23.9c.4.2.4.6 0 .8s-1 .2-1.4 0-.4-.6 0-.8c.3-.2 1-.2 1.4 0z" fill="#febc1f"/></g></g></g></g><g><g><g><g><path d="m19.5 20.7c.4.2.4.6 0 .8s-1 .2-1.4 0-.4-.6 0-.8c.3-.3 1-.3 1.4 0z" fill="#f45170"/></g></g></g></g><g><g><g><g><path d="m5.3 40.4c.4.2.4.6 0 .8s-1 .2-1.4 0-.4-.6 0-.8c.4-.3 1-.3 1.4 0z" fill="#f45170"/></g></g></g></g><g><g><g><g><path d="m16.1 45.9c.4.2.4.6 0 .8s-1 .2-1.4 0-.4-.6 0-.8 1-.2 1.4 0z" fill="#57b3fe"/></g></g></g></g><g><g><g><g><path d="m10.5 48.9c.4.2.4.6 0 .8s-1 .2-1.4 0-.4-.6 0-.8c.4-.3 1.1-.3 1.4 0z" fill="#78e75a"/></g></g></g></g><g><g><g><g><path d="m9.2 45.1c.4.2.4.6 0 .8s-1 .2-1.4 0-.4-.6 0-.8 1-.2 1.4 0z" fill="#febc1f"/></g></g></g></g><g><g><g><g><path d="m9.6 42.5c.4.2.4.6 0 .8s-1 .2-1.4 0-.4-.6 0-.8c.4-.3 1-.3 1.4 0z" fill="#78e75a"/></g></g></g></g><g><g><g><g><path d="m37 45.9c.4.2.4.6 0 .8s-1 .2-1.4 0-.4-.6 0-.8 1-.2 1.4 0z" fill="#febc1f"/></g></g></g></g><g><g><g><g><path d="m43.6 42.3c.4.2.4.6 0 .8s-1 .2-1.4 0-.4-.6 0-.8 1-.2 1.4 0z" fill="#57b3fe"/></g></g></g></g><g><g><g><g><path d="m48.3 40.4c.4.2.4.6 0 .8s-1 .2-1.4 0-.4-.6 0-.8c.3-.3 1-.3 1.4 0z" fill="#f45170"/></g></g></g></g><g><g><g><g><path d="m38.3 48.7c.4.2.4.6 0 .8s-1 .2-1.4 0-.4-.6 0-.8 1-.2 1.4 0z" fill="#f45170"/></g></g></g></g></g></g><g><g><g><g><path d="m37.5 20.8c.4.2.4.6 0 .8s-1 .2-1.4 0-.4-.6 0-.8 1-.2 1.4 0z" fill="#57b3fe"/></g></g></g></g><g><g><g><g><path d="m36.8 24c.4.2.4.6 0 .8s-1 .2-1.4 0-.4-.6 0-.8c.3-.2 1-.2 1.4 0z" fill="#dba660"/></g></g></g></g><g><g><g><g><path d="m49.7 30.1c.4.2.4.6 0 .8s-1 .2-1.4 0-.4-.6 0-.8 1-.2 1.4 0z" fill="#febc1f"/></g></g></g></g><g><g><g><g><path d="m42.6 21.5c.4.2.4.6 0 .8s-1 .2-1.4 0-.4-.6 0-.8 1-.2 1.4 0z" fill="#f45170"/></g></g></g></g><g><g><g><g><path d="m44.8 25.1c.4.2.4.6 0 .8s-1 .2-1.4 0-.4-.6 0-.8c.4-.3 1-.3 1.4 0z" fill="#57b3fe"/></g></g></g></g><g><g><g><g><path d="m44.3 28.2c.4.2.4.6 0 .8s-1 .2-1.4 0-.4-.6 0-.8 1.1-.2 1.4 0z" fill="#78e75a"/></g></g></g></g></g><g><g><g><g><path d="m45.2 32.9v4.6c0 .3-.2.7-.7 1l-16.8 9.7c-.9.5-2.5.5-3.4 0l-16.8-9.7c-.5-.3-.7-.6-.7-1v-4.6c0-.4.2-.7.7-1l16.8-9.8c.9-.5 2.5-.5 3.4 0l16.9 9.8c.4.3.6.7.6 1z" fill="#dedffb"/></g></g></g></g><g><g><g><g><path d="m45.2 32.9v4.6c0 .3-.2.7-.7 1l-16.8 9.7c-.9.5-2.5.5-3.4 0l-16.8-9.7c-.5-.3-.7-.6-.7-1v-4.6c0 .4.2.7.7 1l16.9 9.7c.9.5 2.5.5 3.4 0l16.8-9.7c.4-.3.6-.6.6-1z" fill="#dedffb"/></g></g></g><g><g><g><g><g><path d="m44.5 31.9c.9.5.9 1.4 0 2l-16.8 9.7c-.9.5-2.5.5-3.4 0l-16.8-9.7c-.9-.5-1-1.4 0-2l16.8-9.7c.9-.5 2.5-.5 3.4 0z" fill="#f3f1fc"/></g></g></g></g></g></g></g><g><g opacity=".4"><g><g><path d="m16.9 26.5c-5 2.9-5.1 7.6-.1 10.5s13.1 2.9 18.2 0c5-2.9 5.1-7.6.1-10.5s-13.1-2.9-18.2 0z" fill="#497bfe"/></g></g></g><g><g><g><path d="m21.9 31.5c-2 1.2-2 3.1 0 4.2 2 1.2 5.3 1.2 7.3 0s2-3.1 0-4.2c-2-1.2-5.3-1.2-7.3 0z" fill="#9ea9c9"/></g></g></g><g><g><g><g><g><path d="m26.8 16-1.6-1 8.1-.5 1.6.9z" fill="#e93565"/></g></g></g></g><g><g><g><g><path d="m23.3 34.1-1.6-.9c-2.6-1.5-4.3-4.5-4.5-9.4l1.6.9c.2 5 1.8 7.9 4.5 9.4z" fill="#e93565"/></g></g></g></g><g><g><g><g><path d="m18.7 24.7-1.6-.9 8.1-8.8 1.6 1z" fill="#df3260"/></g></g></g></g><g><g><g><path d="m26.8 16 8.1-.6c-.3 7.3-3.4 13.8-8 19.9-4.7-.7-7.8-3.7-8.1-10.6z" fill="#f45170"/></g></g></g><g><g><g><g><path d="m26.6 34.7h-.2c-4.5-.9-6.7-3.9-7.1-9.6v-.1l7.7-8.4 7.2-.5v.3c-.5 6.1-2.9 12.1-7.6 18.2zm-6.7-9.6c.4 5.3 2.5 8.1 6.5 9 4.4-5.9 6.8-11.7 7.3-17.5l-6.4.4z" fill="#fff"/></g></g></g></g><g><g><g><g><g><path d="m27.8 25c.4-.6.7-1.3.7-1.9 0-.8-.4-1.2-1-1.2h-.1c.6.7.2 2-.4 2.8l.4 2.2.8.3z" fill="#4c5c75"/></g></g></g><g><g><g><path d="m27.5 26.9-2 1.2c0 .1-.1.9-.1.8l2.9-1.7z" fill="#1d2943"/></g></g></g></g><g><g><g><path d="m27.1 24.7c.5-.8 1-2.2.4-2.8-1.8.2-3.2 3.8-1.6 4.3l-.3 1.9 2-1.2z" fill="#111d33"/></g></g></g><g><g><g><path d="m27.1 24.7c0 .1.5 2.3.4 2.2-.1.1-2.1 1.2-2 1.2 0-.1.3-2 .3-1.9-1.6-.5-.1-4.1 1.6-4.3.6.7.2 2.1-.3 2.8z" fill="#111d33"/></g></g></g></g></g><g><g opacity=".4"><g><g><path d="m16.9 4.3c-5 2.9-5.1 7.6-.1 10.5s13.1 2.9 18.2 0c5-2.9 5.1-7.6.1-10.5s-13.1-2.9-18.2 0z" fill="#57b3fe"/></g></g></g><g opacity=".4"><g><g><g><path d="m13.1 9.5v22.1c0 1.9 1.2 3.8 3.7 5.2 5 2.9 13.1 2.9 18.2 0 2.5-1.5 3.8-3.4 3.8-5.3v-22.1c0 1.9-1.3 3.8-3.8 5.3-5 2.9-13.2 2.9-18.2 0-2.4-1.4-3.7-3.3-3.7-5.2z" fill="#5094ff"/></g></g></g></g></g></g></g><g><g><g><g><g><path d="m41.5 37.5c.2-.1.4 0 .4.2 0 .3-.2.6-.4.7s-.4 0-.4-.2.2-.5.4-.7z" fill="#1d2943"/></g></g></g><g><g><g><path d="m42.8 36.8c.2-.1.4 0 .4.2 0 .3-.2.6-.4.7s-.4 0-.4-.2c0-.3.2-.6.4-.7z" fill="#1d2943"/></g></g></g><g><g><g><path d="m44.1 36c.2-.1.4 0 .4.2 0 .3-.2.6-.4.7s-.4 0-.4-.2.2-.5.4-.7z" fill="#1d2943"/></g></g></g></g></g><g><g><g><g><g><path d="m10.6 37.7c-.2-.1-.4 0-.4.2 0 .3.2.6.4.7s.4 0 .4-.2c0-.3-.2-.6-.4-.7z" fill="#1d2943"/></g></g></g><g><g><g><path d="m9.3 36.9c-.2-.1-.4 0-.4.2 0 .3.2.6.4.7s.4 0 .4-.2-.2-.5-.4-.7z" fill="#1d2943"/></g></g></g><g><g><g><path d="m8 36.2c-.2-.1-.4 0-.4.2 0 .3.2.6.4.7s.4 0 .4-.2c0-.3-.2-.6-.4-.7z" fill="#1d2943"/></g></g></g></g></g></g></svg>