<svg id="Layer_1" enable-background="new 0 0 52 52" height="512" viewBox="0 0 52 52" width="512" xmlns="http://www.w3.org/2000/svg"><g id="_x38_3"><g><g><g><g><path d="m15.3 39.5-10-5.7c-.7-.4-.7-1.1 0-1.4l14.7-8.6c.6-.3 1.5-.3 2.2 0l10 5.7c.7.4.7 1.1 0 1.4l-14.7 8.6c-.7.3-1.6.3-2.2 0zm5-15.5-14.8 8.6c-.4.3-.4.6 0 .8l10 5.7c.5.3 1.3.3 1.8 0l14.7-8.5c.4-.3.4-.6 0-.8l-10-5.7c-.4-.4-1.3-.4-1.7-.1z" fill="#9ea9c9"/></g></g></g></g><g><g><g><g><path d="m37.2 42.8-13-7.5c-.1 0-.1-.2-.1-.2 0-.1.2-.1.2-.1l12.9 7.4c.1 0 .1.2.1.2.1.2 0 .2-.1.2z" fill="#9ea9c9"/></g></g></g></g><g><g><g><g><path d="m34.8 49.8-7-4c-.5-.3-.5-.8 0-1.1l10.4-6c.4-.3 1.1-.3 1.6 0l7 4c.5.3.5.8 0 1.1l-10.4 6c-.4.3-1.1.3-1.6 0zm3.6-10.9-10.4 6.1c-.3.2-.3.3 0 .5l7 4c.3.2.9.2 1.2 0l10.4-6c.3-.2.3-.3 0-.5l-7-4c-.3-.3-.9-.3-1.2-.1z" fill="#9ea9c9"/></g></g></g></g><g><g><g><path d="m47 40.5v1.7c0 .1-.1.3-.3.4l-10.4 6c-.4.2-1 .2-1.4 0l-7-4c-.2-.1-.3-.3-.3-.4v-1.7c0-.1.1-.3.3-.4l10.4-6c.4-.2 1-.2 1.4 0l7 4c.2.1.3.2.3.4z" fill="#748bfd"/></g></g></g><g><g><g><path d="m47 40.5v1.7c0 .1-.1.3-.3.4l-10.4 6c-.4.2-1 .2-1.4 0l-7-4c-.2-.1-.3-.3-.3-.4v-1.7c0 .1.1.3.3.4l7 4c.4.2 1 .2 1.4 0l10.4-6c.2-.1.3-.3.3-.4z" fill="#748bfd"/></g></g></g><g><g><g><path d="m46.7 40.1c.4.2.4.6 0 .8l-10.4 6c-.4.2-1 .2-1.4 0l-7-4c-.4-.2-.4-.6 0-.8l10.4-6c.4-.2 1-.2 1.4 0z" fill="#8fabfe"/></g></g></g><g><path d="m43 31.4-2.4-1.5-9 5.2v8.6l2.5 1.5 5.5-2 3.5-3.2z" fill="#f9a83d"/><g><g><g><g><path d="m39.6 34.5v8.7l3.5-3.2-.1-8.6z" fill="#f9a83d"/></g></g></g><g><g><g><path d="m34 36.5.1 8.7 5.5-2v-8.7z" fill="#febc1f"/></g></g></g></g><g><g><g><path d="m31.6 35.1v8.6l2.5 1.5-.1-8.7z" fill="#f9a83d"/></g></g></g><g><g><g><path d="m31.6 35.1 2.4 1.4 5.6-2 3.4-3.1-2.4-1.5z" fill="#ffd06c"/></g></g></g><g><g><g><path d="m39.5 32.3c-.6-.4-.6-1 0-1.3.5-.3 1.4-.3 1.9 0 .6.4.6 1 0 1.3-.5.3-1.4.3-1.9 0z" fill="#f9a83d"/></g></g></g><g><g><g><path d="m41.3 31.1c.5.3.5.7 0 1s-1.3.3-1.8 0-.5-.7 0-1c.6-.3 1.3-.3 1.8 0z" fill="#febc1f"/></g></g></g><g><g><g><g><path d="m33.4 35.7c-.6-.4-.6-1 0-1.3.5-.3 1.4-.3 1.9 0 .6.4.6 1 0 1.3-.5.3-1.4.3-1.9 0z" fill="#f9a83d"/></g></g></g><g><g><g><path d="m35.2 34.6c.5.3.5.7 0 1s-1.3.3-1.8 0-.5-.7 0-1 1.3-.3 1.8 0z" fill="#febc1f"/></g></g></g></g><g><g><g><g><g><path d="m41.5 31.2v.9s-.1.1-.1.1c-.5.3-1.3.3-1.8 0 0 0-.1 0-.1-.1v-.7-3.3c0-.6-.2-1-.4-1.1-.3-.1-.7-.1-1.2.2-1.4.8-2.6 2.8-2.6 4.4v3.9s-.1 0-.1.1c-.5.3-1.3.3-1.8 0 0 0-.1 0-.1-.1v-3.9c0-2.3 1.5-5 3.5-6.1 1.1-.7 2.3-.7 3.2-.2s1.4 1.5 1.4 2.8z" fill="#4c5c75"/></g></g></g></g></g><g><g><g><path d="m39.7 38.8c.4-.5.6-1.4.2-1.8-.1 0-.3.1-.4.1-.6.3-1.1 1.2-1.1 1.9 0 .4.2.7.4.7l-.2 1.2 1.3-.8z" fill="#111d33"/></g></g></g><g><g><g><path d="m40.2 38.9.3 1.4-1.9 1.1v-.3-.3l.2-1v-.2c-.3-.1-.4-.3-.4-.7 0-.6.4-1.5 1.1-1.9.1-.1.3-.1.4-.1h.1c.4 0 .6.3.6.8.1.4-.1.9-.4 1.2z" fill="#111d33"/></g></g></g><g><g><g><g><path d="m40.2 38.9c.3-.4.4-.8.4-1.2 0-.5-.3-.8-.6-.8 0 0 0 0-.1 0 .4.4.1 1.3-.2 1.8l.3 1.4.5.2z" fill="#4c5c75"/></g></g></g><g><g><g><path d="m40 40.2-1.3.7v.2l-.1.3 1.9-1.1z" fill="#1d2943"/></g></g></g></g><g><g><g><path d="m39.7 38.7.1.3.2 1.1-.3.2-1 .6.2-1v-.2c-.3-.1-.4-.3-.4-.7 0-.7.5-1.5 1.1-1.9.1-.1.3-.1.4-.1.4.3.1 1.2-.3 1.7z" fill="#111d33"/></g></g></g></g><g><g><g><g><g fill="#1d2943"><path d="m31.9 27.8c.1-.1.2-.2.2-.3 0 .2-.1.3-.2.3z"/><path d="m32.1 27.4v.2c0-.1 0-.1 0-.2z"/></g></g></g><g><g><g fill="#1d2943"><path d="m32.1 27.6v-.1 1.7c0 .2-.1.4-.4.6l-14.4 8.4c-.5.3-1.4.3-1.9 0l-9.8-5.6c-.3-.2-.4-.4-.4-.6v-1.7c0-.2.1-.4.4-.6l14.4-8.5c.5-.3 1.4-.3 1.9 0l9.8 5.6c.3.2.4.4.4.6v.2c0 .1-.1.2-.2.3.1-.1.2-.2.2-.3z"/><path d=""/><path d="m31.9 27.8c.1-.1.2-.2.2-.3 0 .2-.1.3-.2.3z"/><path d="m32.1 27.4v.2c0-.1 0-.1 0-.2z"/></g></g></g></g><g><g><g><g><path d="m32.1 27.4v1.7c0 .2-.1.4-.4.6l-14.5 8.4c-.5.3-1.4.3-1.9 0l-9.8-5.6c-.3-.2-.4-.4-.4-.6v-1.7c0 .2.1.4.4.6l9.8 5.6c.5.3 1.4.3 1.9 0l14.5-8.4c.3-.2.4-.4.4-.6z" fill="#1d2943"/></g></g></g><g><g><g><path d="m31.7 26.8c.5.3.5.8 0 1.1l-14.5 8.4c-.5.3-1.4.3-1.9 0l-9.8-5.6c-.5-.3-.5-.8 0-1.1l14.5-8.4c.5-.3 1.4-.3 1.9 0z" fill="#4c5c75"/></g></g></g></g><g><g><g><g><g><g><path d="m30.2 16.1v5.3c0 .2-.1.4-.3.5l-12.5 7.3c-.5.3-1.2.3-1.7 0l-8.4-4.9c-.2-.1-.4-.3-.4-.5v-5.3c0 .2.1.4.4.5l8.4 4.9c.5.3 1.2.3 1.7 0l12.5-7.3c.2-.2.3-.3.3-.5z" fill="#f45170"/></g></g></g></g><g><g><g><g><path d="m30.6 14.8v5.5c0 .2-.1.4-.4.5l-13 7.5v-5.5l13-7.5c.3-.1.4-.3.4-.5z" fill="#dedffb"/></g></g></g></g><g><g><g><g><path d="m15.6 22.8v5.5l-8.7-5c-.2-.1-.4-.3-.4-.5v-5.5c0 .2.1.4.4.5z" fill="#dedffb"/></g></g></g></g><g><g><g><g><path d="m17.3 22.8v5.5c-.5.3-1.3.3-1.7 0v-5.5c.5.3 1.3.3 1.7 0z" fill="#e9e7fc"/></g></g></g></g><g><g><g><path d="m30.3 14.3c.5.3.5.7 0 1l-13 7.5c-.5.3-1.3.3-1.7 0l-8.7-5c-.5-.3-.5-.7 0-1l13-7.5c.5-.3 1.3-.3 1.7 0z" fill="#f3f1fc"/></g></g></g><g><g><g><path d="m30.3 14.3c.5.3.5.7 0 1l-13 7.5c-.5.3-1.3.3-1.7 0l-8.7-5c-.5-.3-.5-.7 0-1l13-7.5c.5-.3 1.3-.3 1.7 0z" fill="#f3f1fc"/></g></g></g><g><g><g><path d="m25.7 15.4-8.5 4.9c-.5.3-1.1.3-1.5 0l-4.2-2.4c-.5-.3-.5-.9 0-1.2l8.5-4.9c.5-.3 1.1-.3 1.5 0l4.3 2.5c.4.2.4.8-.1 1.1z" fill="#fff"/></g></g></g><g><g><g><path d="m25.7 15.4-8.4 4.9c-.5.3-1.1.3-1.5 0l-4.2-2.4 8.4-4.9c.5-.3 1.1-.3 1.5 0z" fill="#dedffb"/></g></g></g><g><g><g><g><g><path d="m29.4 17.2c.2-.1.4 0 .4.2v2.3c0 .3-.2.6-.4.7l-10.9 6.3c-.2.1-.4 0-.4-.2v-2.3c0-.3.2-.6.4-.7z" fill="#4c5c75"/></g></g></g></g><g><g><g><g><path d="m18.9 24.4 5.3-3.1v1.3l-5.3 3.1z" fill="#57b3fe"/></g></g></g><g><g><g><g><path d="m25.4 20.6c.3-.2.5 0 .5.3s-.2.7-.5.9-.5 0-.5-.3.3-.7.5-.9z" fill="#fff"/></g></g></g><g><g><g><path d="m27 19.7c.3-.2.5 0 .5.3s-.2.7-.5.9-.5 0-.5-.3.2-.7.5-.9z" fill="#febc1f"/></g></g></g><g><g><g><path d="m28.6 18.8c.3-.2.5 0 .5.3s-.2.7-.5.9-.5 0-.5-.3.2-.7.5-.9z" fill="#78e75a"/></g></g></g></g></g></g><g><g><g><g><g><path d="m17.6 16.1c-.5.3-.6.8 0 1.1.5.3 1.4.3 2 0s.6-.8 0-1.1-1.5-.3-2 0z" fill="#dba660"/></g></g></g></g><g><g><g><g><path d="m20.3 14.5c-.5.3-.6.8 0 1.1.5.3 1.4.3 2 0s.6-.8 0-1.1-1.5-.3-2 0z" fill="#b28afd"/></g></g></g></g><g><g><g><g><path d="m14.9 17.6c-.5.3-.6.8 0 1.1.5.3 1.4.3 2 0 .5-.3.6-.8 0-1.1s-1.5-.3-2 0z" fill="#f45170"/></g></g></g></g></g><g><g><g><g><g><path d="m13.5 23.2v2.5c0 .2-.2.2-.3.1l-4.4-2.5c-.2-.1-.3-.4-.3-.6v-2.5c0-.2.1-.3.3-.2l4.3 2.5c.3.3.4.5.4.7z" fill="#fff"/></g></g></g></g><g><g><g><g><path d="m13.5 23.2v2.5l-4.3-2.5c-.2-.1-.3-.4-.3-.6v-2.5l4.3 2.5c.2.2.3.4.3.6z" fill="#423d9b"/></g></g></g></g><g><g><g><g><path d="m12.5 23.2c-.2-.1-.4 0-.4.3s.2.6.4.8.4 0 .4-.2c0-.4-.1-.7-.4-.9z" fill="#fff"/></g></g></g><g><g><g><path d="m11.2 22.5c-.2-.1-.4 0-.4.3s.2.6.4.8c.2.1.4 0 .4-.2 0-.5-.2-.8-.4-.9z" fill="#febc1f"/></g></g></g><g><g><g><path d="m9.9 21.7c-.2-.1-.4 0-.4.3s.2.6.4.8c.2.1.4 0 .4-.2 0-.4-.2-.8-.4-.9z" fill="#78e75a"/></g></g></g></g></g></g><g><g><g><g><g><path d="m30.6 21.8v5.5c0 .2-.1.4-.3.5l-13 7.5c-.5.3-1.3.3-1.7 0l-8.8-5.1c-.2-.1-.4-.3-.4-.5v-5.5c0-.2.1-.4.4-.5l13-7.5c.5-.3 1.3-.3 1.7 0l8.8 5.1c.2.2.3.3.3.5z" fill="#dedffb"/></g></g></g></g><g><g><g><g><path d="m30.6 21.8v5.5c0 .2-.1.4-.4.5l-13 7.5v-5.5l13-7.5c.3-.1.4-.3.4-.5z" fill="#dedffb"/></g></g></g></g><g><g><g><g><path d="m15.6 29.8v5.5l-8.7-5c-.2-.1-.4-.3-.4-.5v-5.5c0 .2.1.4.4.5z" fill="#dedffb"/></g></g></g></g><g><g><g><g><path d="m17.3 29.8v5.5c-.5.3-1.3.3-1.7 0v-5.5c.5.3 1.3.3 1.7 0z" fill="#e9e7fc"/></g></g></g></g><g><g><g><path d="m30.3 21.3c.5.3.5.7 0 1l-13 7.5c-.5.3-1.3.3-1.7 0l-8.7-5c-.5-.3-.5-.7 0-1l13-7.5c.5-.3 1.3-.3 1.7 0z" fill="#f3f1fc"/></g></g></g><g><g><g><path d="m30.3 21.3c.5.3.5.7 0 1l-13 7.5c-.5.3-1.3.3-1.7 0l-8.7-5c-.5-.3-.5-.7 0-1l13-7.5c.5-.3 1.3-.3 1.7 0z" fill="#f3f1fc"/></g></g></g><g><g><g><path d="m25.7 22.4-8.5 4.9c-.5.3-1.1.3-1.5 0l-4.2-2.4c-.5-.3-.5-.9 0-1.2l8.5-4.9c.5-.3 1.1-.3 1.5 0l4.3 2.5c.4.2.4.8-.1 1.1z" fill="#fff"/></g></g></g><g><g><g><path d="m25.7 22.4-8.4 4.9c-.5.3-1.1.3-1.5 0l-4.2-2.4 8.4-4.9c.5-.3 1.1-.3 1.5 0z" fill="#dedffb"/></g></g></g><g><g><g><g><g><path d="m29.4 24.2c.2-.1.4 0 .4.2v2.3c0 .3-.2.6-.4.7l-10.9 6.3c-.2.1-.4 0-.4-.2v-2.3c0-.3.2-.6.4-.7z" fill="#4c5c75"/></g></g></g></g><g><g><g><g><path d="m18.9 31.4 5.3-3.1v1.3l-5.3 3.1z" fill="#57b3fe"/></g></g></g><g><g><g><g><path d="m25.4 27.6c.3-.2.5 0 .5.3s-.2.7-.5.9-.5 0-.5-.3.3-.7.5-.9z" fill="#fff"/></g></g></g><g><g><g><path d="m27 26.7c.3-.2.5 0 .5.3s-.2.7-.5.9-.5 0-.5-.3.2-.7.5-.9z" fill="#febc1f"/></g></g></g><g><g><g><path d="m28.6 25.8c.3-.2.5 0 .5.3s-.2.7-.5.9-.5 0-.5-.3.2-.7.5-.9z" fill="#78e75a"/></g></g></g></g></g></g><g><g><g><g><g><path d="m17.6 23.1c-.5.3-.6.8 0 1.1.5.3 1.4.3 2 0s.6-.8 0-1.1-1.5-.3-2 0z" fill="#dba660"/></g></g></g></g><g><g><g><g><path d="m20.3 21.5c-.5.3-.6.8 0 1.1.5.3 1.4.3 2 0s.6-.8 0-1.1-1.5-.3-2 0z" fill="#b28afd"/></g></g></g></g><g><g><g><g><path d="m14.9 24.7c-.5.3-.6.8 0 1.1.5.3 1.4.3 2 0 .5-.3.6-.8 0-1.1-.6-.4-1.5-.4-2 0z" fill="#f45170"/></g></g></g></g></g><g><g><g><g><g><path d="m13.5 30.3v2.5c0 .2-.2.2-.3.1l-4.4-2.5c-.2-.1-.3-.4-.3-.6v-2.5c0-.2.1-.3.3-.2l4.3 2.5c.3.2.4.5.4.7z" fill="#fff"/></g></g></g></g><g><g><g><g><path d="m13.5 30.3v2.5l-4.3-2.5c-.2-.1-.3-.4-.3-.6v-2.5l4.3 2.5c.2.1.3.4.3.6z" fill="#423d9b"/></g></g></g></g><g><g><g><g><path d="m12.5 30.3c-.2-.1-.4 0-.4.3s.2.6.4.8c.2.1.4 0 .4-.2 0-.5-.1-.8-.4-.9z" fill="#fff"/></g></g></g><g><g><g><path d="m11.2 29.5c-.2-.1-.4 0-.4.3s.2.6.4.8c.2.1.4 0 .4-.2 0-.4-.2-.8-.4-.9z" fill="#febc1f"/></g></g></g><g><g><g><path d="m9.9 28.7c-.2-.1-.4 0-.4.3s.2.6.4.8c.2.1.4 0 .4-.2 0-.4-.2-.7-.4-.9z" fill="#78e75a"/></g></g></g></g></g></g><g><g><g><g><g><path d="m30.2 16.1v5.3c0 .2-.1.4-.3.5l-12.5 7.3c-.5.3-1.2.3-1.7 0l-8.4-4.9c-.2-.1-.4-.3-.4-.5v-5.3c0 .2.1.4.4.5l8.4 4.9c.5.3 1.2.3 1.7 0l12.5-7.3c.2-.2.3-.3.3-.5z" fill="#f45170"/></g></g></g></g><g><g><g><g><path d="m30.6 14.8v5.5c0 .2-.1.4-.3.5l-13 7.5c-.5.3-1.3.3-1.7 0l-8.8-5c-.2-.1-.4-.3-.4-.5v-5.5c0-.2.1-.4.4-.5l13-7.5c.5-.3 1.3-.3 1.7 0l8.8 5c.2.1.3.3.3.5z" fill="#dedffb"/></g></g></g></g><g><g><g><g><path d="m30.6 14.8v5.5c0 .2-.1.4-.4.5l-13 7.5v-5.5l13-7.5c.3-.1.4-.3.4-.5z" fill="#dedffb"/></g></g></g></g><g><g><g><g><path d="m15.6 22.8v5.5l-8.7-5c-.2-.1-.4-.3-.4-.5v-5.5c0 .2.1.4.4.5z" fill="#dedffb"/></g></g></g></g><g><g><g><g><path d="m17.3 22.8v5.5c-.5.3-1.3.3-1.7 0v-5.5c.5.3 1.3.3 1.7 0z" fill="#e9e7fc"/></g></g></g></g><g><g><g><path d="m30.3 14.3c.5.3.5.7 0 1l-13 7.5c-.5.3-1.3.3-1.7 0l-8.7-5c-.5-.3-.5-.7 0-1l13-7.5c.5-.3 1.3-.3 1.7 0z" fill="#f3f1fc"/></g></g></g><g><g><g><path d="m30.3 14.3c.5.3.5.7 0 1l-13 7.5c-.5.3-1.3.3-1.7 0l-8.7-5c-.5-.3-.5-.7 0-1l13-7.5c.5-.3 1.3-.3 1.7 0z" fill="#f3f1fc"/></g></g></g><g><g><g><path d="m25.7 15.4-8.5 4.9c-.5.3-1.1.3-1.5 0l-4.2-2.4c-.5-.3-.5-.9 0-1.2l8.5-4.9c.5-.3 1.1-.3 1.5 0l4.3 2.5c.4.2.4.8-.1 1.1z" fill="#fff"/></g></g></g><g><g><g><path d="m25.7 15.4-8.4 4.9c-.5.3-1.1.3-1.5 0l-4.2-2.4 8.4-4.9c.5-.3 1.1-.3 1.5 0z" fill="#dedffb"/></g></g></g><g><g><g><g><g><path d="m29.4 17.2c.2-.1.4 0 .4.2v2.3c0 .3-.2.6-.4.7l-10.9 6.3c-.2.1-.4 0-.4-.2v-2.3c0-.3.2-.6.4-.7z" fill="#4c5c75"/></g></g></g></g><g><g><g><g><path d="m18.9 24.4 5.3-3.1v1.3l-5.3 3.1z" fill="#57b3fe"/></g></g></g><g><g><g><g><path d="m25.4 20.6c.3-.2.5 0 .5.3s-.2.7-.5.9-.5 0-.5-.3.3-.7.5-.9z" fill="#fff"/></g></g></g><g><g><g><path d="m27 19.7c.3-.2.5 0 .5.3s-.2.7-.5.9-.5 0-.5-.3.2-.7.5-.9z" fill="#febc1f"/></g></g></g><g><g><g><path d="m28.6 18.8c.3-.2.5 0 .5.3s-.2.7-.5.9-.5 0-.5-.3.2-.7.5-.9z" fill="#78e75a"/></g></g></g></g></g></g><g><g><g><g><g><path d="m17.6 16.1c-.5.3-.6.8 0 1.1.5.3 1.4.3 2 0s.6-.8 0-1.1-1.5-.3-2 0z" fill="#dba660"/></g></g></g></g><g><g><g><g><path d="m20.3 14.5c-.5.3-.6.8 0 1.1.5.3 1.4.3 2 0s.6-.8 0-1.1-1.5-.3-2 0z" fill="#b28afd"/></g></g></g></g><g><g><g><g><path d="m14.9 17.6c-.5.3-.6.8 0 1.1.5.3 1.4.3 2 0 .5-.3.6-.8 0-1.1s-1.5-.3-2 0z" fill="#f45170"/></g></g></g></g></g><g><g><g><g><g><path d="m13.5 23.2v2.5c0 .2-.2.2-.3.1l-4.4-2.5c-.2-.1-.3-.4-.3-.6v-2.5c0-.2.1-.3.3-.2l4.3 2.5c.3.3.4.5.4.7z" fill="#fff"/></g></g></g></g><g><g><g><g><path d="m13.5 23.2v2.5l-4.3-2.5c-.2-.1-.3-.4-.3-.6v-2.5l4.3 2.5c.2.2.3.4.3.6z" fill="#423d9b"/></g></g></g></g><g><g><g><g><path d="m12.5 23.2c-.2-.1-.4 0-.4.3s.2.6.4.8.4 0 .4-.2c0-.4-.1-.7-.4-.9z" fill="#fff"/></g></g></g><g><g><g><path d="m11.2 22.5c-.2-.1-.4 0-.4.3s.2.6.4.8c.2.1.4 0 .4-.2 0-.5-.2-.8-.4-.9z" fill="#febc1f"/></g></g></g><g><g><g><path d="m9.9 21.7c-.2-.1-.4 0-.4.3s.2.6.4.8c.2.1.4 0 .4-.2 0-.4-.2-.8-.4-.9z" fill="#78e75a"/></g></g></g></g></g></g><g><g><g><g><g><path d="m30.2 9.1v5.3c0 .2-.1.4-.3.5l-12.5 7.3c-.5.3-1.2.3-1.7 0l-8.4-4.9c-.2-.1-.4-.3-.4-.5v-5.3c0 .2.1.4.4.5l8.4 4.9c.5.3 1.2.3 1.7 0l12.5-7.3c.2-.2.3-.4.3-.5z" fill="#f45170"/></g></g></g></g><g><g><g><g><path d="m30.6 7.8v5.5c0 .2-.1.4-.3.5l-13 7.5c-.5.3-1.3.3-1.7 0l-8.8-5c-.2-.1-.4-.3-.4-.5v-5.5c0-.2.1-.4.4-.5l13-7.5c.5-.3 1.3-.3 1.7 0l8.8 5c.2.1.3.3.3.5z" fill="#dedffb"/></g></g></g></g><g><g><g><g><path d="m30.6 7.8v5.5c0 .2-.1.4-.4.5l-13 7.5v-5.5l13-7.5c.3-.2.4-.4.4-.5z" fill="#dedffb"/></g></g></g></g><g><g><g><g><path d="m15.6 15.8v5.5l-8.7-5c-.2-.1-.4-.3-.4-.5v-5.5c0 .2.1.4.4.5z" fill="#dedffb"/></g></g></g></g><g><g><g><g><path d="m17.3 15.8v5.5c-.5.3-1.3.3-1.7 0v-5.5c.5.3 1.3.3 1.7 0z" fill="#e9e7fc"/></g></g></g></g><g><g><g><path d="m30.3 7.3c.5.3.5.7 0 1l-13 7.5c-.5.3-1.3.3-1.7 0l-8.7-5c-.5-.3-.5-.7 0-1l13-7.5c.5-.3 1.3-.3 1.7 0z" fill="#f3f1fc"/></g></g></g><g><g><g><path d="m30.3 7.3c.5.3.5.7 0 1l-13 7.5c-.5.3-1.3.3-1.7 0l-8.7-5c-.5-.3-.5-.7 0-1l13-7.5c.5-.3 1.3-.3 1.7 0z" fill="#f3f1fc"/></g></g></g><g><g><g><path d="m25.7 8.4-8.5 4.9c-.5.3-1.1.3-1.5 0l-4.2-2.4c-.5-.3-.5-.9 0-1.2l8.5-4.9c.5-.3 1.1-.3 1.5 0l4.3 2.5c.4.1.4.8-.1 1.1z" fill="#fff"/></g></g></g><g><g><g><path d="m25.7 8.4-8.4 4.9c-.5.3-1.1.3-1.5 0l-4.2-2.4 8.3-4.9c.5-.3 1.1-.3 1.5 0z" fill="#dedffb"/></g></g></g><g><g><g><g><g><path d="m29.4 10.2c.2-.1.4 0 .4.2v2.3c0 .3-.2.6-.4.7l-10.9 6.3c-.2.1-.4 0-.4-.2v-2.3c0-.3.2-.6.4-.7z" fill="#4c5c75"/></g></g></g></g><g><g><g><g><path d="m18.9 17.3 5.3-3v1.3l-5.3 3z" fill="#57b3fe"/></g></g></g><g><g><g><g><path d="m25.4 13.6c.3-.2.5 0 .5.3s-.2.7-.5.9-.5 0-.5-.3.3-.7.5-.9z" fill="#fff"/></g></g></g><g><g><g><path d="m27 12.7c.3-.2.5 0 .5.3s-.2.7-.5.9-.5 0-.5-.3.2-.8.5-.9z" fill="#febc1f"/></g></g></g><g><g><g><path d="m28.6 11.8c.3-.2.5 0 .5.3s-.2.7-.5.9-.5 0-.5-.3c0-.4.2-.8.5-.9z" fill="#78e75a"/></g></g></g></g></g></g><g><g><g><g><g><path d="m17.6 9c-.5.3-.6.8 0 1.1.5.3 1.4.3 2 0s.6-.8 0-1.1-1.5-.3-2 0z" fill="#986ff9"/></g></g></g></g><g><g><g><g><path d="m20.3 7.5c-.5.3-.6.8 0 1.1.5.3 1.4.3 2 0s.6-.8 0-1.1-1.5-.3-2 0z" fill="#f9a83d"/></g></g></g></g><g><g><g><g><path d="m14.9 10.6c-.5.3-.6.8 0 1.1.5.3 1.4.3 2 0 .5-.3.6-.8 0-1.1s-1.5-.3-2 0z" fill="#f45170"/></g></g></g></g></g><g><g><g><g><g><path d="m13.5 16.2v2.5c0 .2-.2.2-.3.1l-4.4-2.5c-.2-.1-.3-.4-.3-.6v-2.5c0-.2.1-.3.3-.2l4.3 2.5c.3.3.4.5.4.7z" fill="#fff"/></g></g></g></g><g><g><g><g><path d="m13.5 16.2v2.5l-4.3-2.5c-.2-.1-.3-.4-.3-.6v-2.5l4.3 2.5c.2.2.3.4.3.6z" fill="#423d9b"/></g></g></g></g><g><g><g><g><path d="m12.5 16.2c-.2-.1-.4 0-.4.3s.2.6.4.8c.2.1.4 0 .4-.2 0-.4-.1-.8-.4-.9z" fill="#fff"/></g></g></g><g><g><g><path d="m11.2 15.4c-.2-.1-.4 0-.4.3s.2.6.4.8c.2.1.4 0 .4-.2 0-.4-.2-.7-.4-.9z" fill="#febc1f"/></g></g></g><g><g><g><path d="m9.9 14.7c-.2-.1-.4 0-.4.3s.2.6.4.8c.2.1.4 0 .4-.2 0-.4-.2-.8-.4-.9z" fill="#78e75a"/></g></g></g></g></g></g></g></g></g></svg>