<svg id="Layer_1" enable-background="new 0 0 50 50" height="512" viewBox="0 0 50 50" width="512" xmlns="http://www.w3.org/2000/svg"><g id="_x37_4"><g><g><g><path d="m42.5635643 22.0681591c.0200195 4.5899658-1.5899658 9.6699829-4.2000122 14.1799946-2.6099854 4.5199585-6.2199707 8.4699707-10.1999531 10.7699585-4.1100464 2.3699951-7.8099976 2.5400391-10.460022.9100342l-6.0100088-3.4899902c-2.5899658-1.5-4.2099609-4.7200317-4.2199707-9.2700195l-.0400391-13.369997h.0100098c3.0599976-2.3699951 4.8800049-5.5300293 4.9700317-9.7200308 2.9199829-2.1799927 5.9799795-4.1999512 9.169982-6.0499878 3.2000122-1.8300171 6.5299683-3.5199587 10.0100098-5.0299683l6.1699848 3.5799563c-.4400024.1900024-.8699951.3800049-1.2999878.5900269.4299927-.2000122.8599854-.3900146 1.2999878-.5800171.0100098.5.0300293.9700317.0900269 1.3900146l4.6699829 2.7199707z" fill="#b0b8cf"/></g></g></g><g><g><path d="m39.297718 8.8534832-6.1726837-3.5871549c.7598648.4415679 1.8219452.4116297 3.2307434-.1598473l6.1726723 3.587175c-1.4087944.5714693-2.4708748.601408-3.230732.1598272z" fill="#b0b8cf"/></g><g><path d="m17.8694763 48.0231552-6.1793661-3.5810852c-2.5884809-1.5083275-4.203898-4.7196808-4.2135792-9.2738914l-.0389633-13.370699 6.1793661 3.590826.0291634 13.3707008c.0194816 4.5542069 1.6250982 7.7558213 4.2233791 9.2641488z" fill="#c9cee2"/></g><g><path d="m13.6128855 25.3880596-6.1726785-3.5871639c3.067555-2.3717461 4.88201-5.5288563 4.9696784-9.7270308l6.1726646 3.5871763c-.087656 4.198166-1.902111 7.3552762-4.9696645 9.7270184z" fill="#b0b8cf"/></g><g><path d="m37.7601128 4.5829329c-3.4740562 1.5180693-6.8021202 3.1918716-10.0037327 5.0407691-3.1918125 1.8392172-6.2474327 3.8535891-9.1765423 6.0333748l-6.1695662-3.5810852c2.9193687-2.1797867 5.9846697-4.1941581 9.1765413-6.0431151 3.2015533-1.8391571 6.5296173-3.5227003 10.0036736-5.0310287z" fill="#c9cee2"/></g><g><path d="m27.7602596 9.6221704c3.196619-1.8455682 6.5306225-3.5237589 10.0020084-5.0345469.0418358 3.7801533 1.4343681 5.457572 4.7661858 4.1060247l.0379105 13.3718653c.0130119 4.5905457-1.5906181 9.6711159-4.2040329 14.1833725-2.607151 4.522953-6.2178879 8.4668579-10.2004604 10.7661972-7.9962044 4.6166115-14.4850874.9116745-14.511076-8.2551575l-.0379095-13.3718662c3.0675535-2.3717422 4.8820086-5.5288525 4.969676-9.7270269 2.9218445-2.1803464 5.9810791-4.1932935 9.1776981-6.0388622z" fill="#e3e7f0"/></g><g><path d="m27.7617512 11.9297657c2.5349255-1.4635401 5.1883488-2.8381739 7.9105778-4.0880628.530983 2.9042325 2.1030121 4.2348619 4.5850563 3.8745027l.0321617 11.3443089c.0105858 3.7338428-1.2469215 7.9781456-3.5382843 11.9397564-2.3037491 3.9830704-5.3564434 7.2043648-8.6058693 9.0804214-6.7163162 3.8776665-12.2015972.7588882-12.2234564-6.9515305l-.0322218-11.3657341c2.5566216-2.59161 4.1905346-5.7732143 4.7531509-9.2730713 2.285553-1.6198978 4.6709423-3.1472702 7.1188851-4.5605907z" fill="#7e5af2"/></g><g><g><path d="m29.3306332 19.5726166c.0912895-.0527058.1949501-.0825157.3074741-.0853214 1.3436508.0063305 2.0735703.8389244 2.1428909 2.5248871.0373611.7605171.0102825 1.5582371.012495 2.3390236.0082264.8312664.0105743 1.6592064.007061 2.4905071.0011253.3971386-.1388855.6802273-.4024868.8324184-.2636051.1521931-.4106216.0348186-.4117279-.355587-.0043335-1.5279503-.0086651-3.0559025-.0129967-4.5838547-.0041218-1.4539108-.5694466-2.1793022-1.6901779-2.199707-.2992439-.002533-.4053688-.1839809-.2948151-.5107365.0660802-.2041015.186062-.3614349.3422834-.4516296z" fill="#fff"/></g><g><path d="m34.1487198 30.8650894c.0342751-.0197868.070816-.0341396.1098289-.0421009l.0938568-.0069809c.1937447.043211.2648773.29879.1718826.6086674-.5233345 1.6708069-1.316864 3.234642-2.3688049 4.7117195-.1343575.1882858-.2598515.3150368-.3710251.3792229-.125782.0726204-.233223.0651741-.314455-.0239258-.14715-.1644859-.0892601-.4406242.2029591-.845314.940937-1.3118477 1.6410484-2.7138863 2.1120949-4.1994171.0775604-.2471276.1918792-.482668.3636627-.5818711z" fill="#fff"/></g><g enable-background="new"><g><path d="m30.695425 36.9318733c.1484356-.0856972.2656384-.0775566.3535404.0591087.1178818.1881485.0014687.5182877-.2793236.815239-.7253551.7761307-1.4863014 1.417717-2.2769699 1.9213982-.0803337.0463791-.1587353.0960579-.2363358.1408577-.0582027.0336037-.1159611.0644836-.173727.0891685-.2285347.104969-.36376.00774-.3644848-.248024-.0007267-.2557907.1334896-.5153236.3618698-.6741333.2986526-.2061462.6150322-.368576.907711-.6117172.4975681-.4086418.9891701-.8542786 1.4748669-1.3099747.0848046-.0793686.1623498-.1412162.232853-.1819229z" fill="#fff"/></g><g><path d="m31.6353321 33.3993683c.0948505-.0547867.1831512-.0594978.265913-.0152855.1880608.1071663.153698.4034233-.1032238.8416595-.9234657 1.5860672-2.2887726 3.0070152-3.6753273 3.8075447-.0074043.0042725-.0146332.0084229-.0220375.0126534-.6795044.3923111-1.3359623.6364822-1.9635868.7021904-.3050079.0345192-.4228516-.1401634-.3240643-.4803581.0644608-.2101173.1938801-.3735161.3648663-.4722366.0757256-.0437202.1596069-.0747528.2496109-.0915527.6054726-.1030807 1.1904945-.316433 1.7543182-.6419563 1.10182-.6361351 2.1227684-1.7006607 3.0577621-3.2082939.1438752-.2340433.2751161-.3847085.3957692-.4543649z" fill="#fff"/></g><g><path d="m31.3927269 28.7748108c.0104923-.0060577.0211105-.011755.0318794-.0170345.2402287-.1184864.3990173.0123234.3882008.3354492-.0372868 1.336237-.4969807 2.6871223-1.3732643 4.0358067-.6776733 1.0384827-1.4676208 1.7979736-2.3931332 2.3390388-.9490414.520977-1.8171043.6311073-2.5340652.2292633-.1821632-.0971069-.2121582-.3292503-.0311775-.6494827.0912056-.1613884.1899967-.2723541.2903938-.3303185.0988178-.0570526.1991882-.0627632.2953701-.0146179l.1644936.0735855c.5586262.2038841 1.1668015.1244164 1.8221836-.2539711.2679787-.1547165.543766-.3593216.8274174-.615036 1.2173119-1.0938606 2.0340481-2.7520199 2.1119347-4.2532787l-.0004005-.1413498c.0270689-.3243695.1824301-.6123448.4001673-.7380543z" fill="#fff"/></g></g><g><path d="m33.0390244 24.7440052c.0075455-.0043564.0151749-.0086021.0229034-.0126743.2519073-.1386948.3872452-.001091.3883743.3960457.0078049.6831856.0038719 1.3664036.0058174 2.0529728.0351677-.0135593-.0874634 2.261898-.2015266 3.4199772-.022747.2558517-.1275024.5590286-.2205772.8419952-.0687141.2189503-.1888275.3792858-.334343.4632988-.0515022.0297375-.1061783.049942-.1629028.059761-.2111282.0342445-.3406334-.1134739-.2534294-.3997936.4941139-1.6269417.3319664-2.9424305.3514442-4.3492699.0043335-.5418701-.0030518-1.076973.0012627-1.625576-.0011139-.3922748.1474876-.6992302.402977-.8467369z" fill="#fff"/></g><g><path d="m24.7772255 30.7009411c.0036449-.0021038.007309-.0041523.0109844-.0061817.2343121-.1352806.3989029-.0280304.4056931.2983971.0082245.8312664.0105724 1.6592064.0012054 2.4938889-.0048676.3533859-.1449947.5961037-.4085999.7482948-.2518806.1454239-.3988457.0482292-.4056549-.2849312-.007061-.4206848-.0023842-.8413811-.0035858-1.2654533.0046902-.4139595-.0023098-.8144493.0023804-1.2284336.0048637-.321335.1689549-.6235868.3975773-.755581z" fill="#fff"/></g><g><path d="m23.1121845 30.0031815c.0082874-.0047836.0167103-.0094414.0252876-.0139141.2460461-.1353092.3871269-.0414619.3937874.2378521.0072918.5014381.0028629 1.0096664.0042934 1.5144863.0067196.2995129.0016994.599062.0084171.8985767.0017166.605793-.0083027 1.2116432.0051136 1.8039398.0215244 1.3831673.417469 2.3816261 1.2521782 2.9245148.2468853.1608505.271101.4233093.0783806.743576-.0764732.1243935-.16045.2127953-.2493458.2641182-.1351414.0780258-.2816677.0704002-.4305973-.0266228-.9523048-.6300621-1.4483452-1.7527504-1.4704609-3.3446007-.015646-1.379837-.007843-2.7664719-.0117741-4.1530743l.0053444-.1851292c.0388357-.2826994.1597711-.5311373.3893758-.6637228z" fill="#fff"/></g><g enable-background="new"><g><path d="m26.42099 27.1361408c.2680435-.154892.4165306-.0186844.4176788.3858719.0075569.5956783.003397 1.1981449.0051136 1.8039398.0016403.5788612.0032635 1.1510124.0049038 1.7298756.0083027.8581982.4786644 1.2001648 1.152462.865078.0338993-.0170116.067421-.0351067.1003933-.0541439.6623039-.3823814 1.1330338-1.165062 1.2255116-2.0597763.0371456-.3661957.1911488-.6600151.4103909-.7865944.0165806-.009573.0335274-.0181904.0508289-.0258026.2519817-.111784.381525.0493984.3533211.4499817-.0881615 1.3249626-.9636765 2.7555485-2.0560207 3.3862133-.0232849.0134468-.0465202.0264702-.0700016.0391808-1.0779495.5818901-1.9654369.0492668-1.9807568-1.216156-.0151882-1.2182903-.0069656-2.4568195-.0104389-3.6818733-.0011063-.3904058.1447276-.6903669.396614-.8357946z" fill="#fff"/></g><g><path d="m28.1006622 22.3475075c.9828014-.5674877 1.8943043-.2109547 1.9939156.860817.0603943.6056385.015398 1.2923317.0172291 1.9385262.0117188-.0067673.0381432 1.0364799.0337963 1.5716133-.0149937.8871269-.5233574 1.8056831-1.2205105 2.2081852-.7141895.4055481-1.231451.0771694-1.2456646-.7978249-.0139847-.7942448-.0104198-1.6053448-.0068512-2.4164448-.0011253-.3971367.1388664-.6869602.3907146-.8458538.2738609-.1582508.4165154-.0251427.4176788.3858719.0080738.7774029.0044289 1.561594.0125198 2.3457527.0011272.3971367.1658115.5380306.4235573.3892212.2635822-.1589241.4093971-.4655952.4082317-.8761997.0029602-1.0265141.0059147-2.0530014-.0087013-3.0693703-.0136986-.6932716-.3783932-1.015337-.9119129-.8691235-.1115913.0302048-.2244949.078701-.3357277.1428986-.414732.2394218-.8069134.6983013-1.0274239 1.2509041-.1107044.2729359-.1627007.5591412-.2029972.8318691-.0485611.357172-.1801338.6255817-.40452.7551308-.0146351.0084496-.0296383.0163116-.0450611.023571-.2461033.1151333-.381464-.0292263-.3649006-.3961105.0376244-1.2150612.9076729-2.6950035 1.9794769-3.374485.032406-.02063.0648729-.0403119.0971509-.0589486z" fill="#fff"/></g><g><path d="m27.9616089 20.0439472c.3046074-.1758652.4925346-.1158085.5050697.1668587.0066795.2860718-.1510067.5456448-.4730873.7653198-1.4874458 1.0138454-2.527195 2.6524162-2.7687378 4.376276-.0403385.259264-.0396519.501564-.0389652.743885-.0031681.9524727-.0004768 1.9015636.0022125 2.8506298.0008774.3096313-.1039677.5791626-.3909245.7718124-.0105896.0069599-.0210457.0134087-.0313206.0193405-.2340946.1351547-.3854465.0045547-.3919888-.3210545-.0074577-.5620384-.0032063-1.1308136-.0048084-1.6962318-.0293083.0101757.0007629-1.8005676.197525-2.7636719.3935014-1.9329413 1.8603784-3.9934157 3.3950254-4.913164z" fill="#fff"/></g><g><path d="m28.0610199 17.8560562c.3397541-.1961575.6795998-.3586464 1.0078506-.473999 2.3504276-.8446293 4.149559.4628792 4.3681297 3.0537586.0182037.211977.0247307.4441833-.0625648.6968365-.0706749.2045841-.2220993.4204216-.3736839.5079384-.0356445.0205784-.0712814.0340672-.1058922.038641-.2404594.0376911-.2707787-.3088722-.2891731-.5881577-.0992165-1.8844433-1.2290707-3.0524788-2.7835236-2.9101257-.5435905.0531082-1.1302471.2652988-1.7174835.6043415-1.0983391.6341019-2.1988907 1.7120113-3.0248222 3.0235748-.164444.2653046-.3899117.5834007-.5887947.698225-.0766048.0442276-.1492634.0583324-.2129803.0276318-.2291412-.110424-.0194836-.6629772.2141438-1.0405579.9636936-1.5609627 2.2683982-2.8738346 3.5687942-3.6381073z" fill="#fff"/></g><g><path d="m27.9143295 15.7832785c1.9975872-1.1263323 3.6106205-1.3025064 4.9737511-.6332207.2820358.1405611.3238411.3996067.1311607.7333374-.0787163.1334867-.1658974.2275782-.2601814.282012-.1295319.0747852-.2724838.0747681-.4255028-.0007591-1.2162724-.6078539-2.7270966-.4068108-4.2599564.4780731-1.1255856.6497879-2.2628937 1.6681938-3.3049717 3.00634l-.1578541.1989956c-.0909214.110424-.1809349.1943531-.2648354.242794-.1211491.0699444-.2295647.0659218-.3095951-.039238-.1295757-.1746521-.0716877-.4507942.1445751-.7441864.9059582-1.2309799 1.9005642-2.2367229 2.9896736-3.0205898.2927801-.2094784.5856306-.3920431.7437364-.5035581z" fill="#fff"/></g></g><g><path d="m34.1617126 17.3223705c.175251-.1012039.3281403-.0386353.4287567.1956234.3366241.7697811.5034866 1.6780167.5005531 2.7112389.0014114.4981098.0028038.9894657.0041962 1.4808426.0019836.7000351.003952 1.3933353.0059357 2.0933704.0013161.4644222-.1269608.7475052-.3964043.909811-.2753181.1589565-.4165344.0179996-.4177933-.4262695-.0090446-1.120697-.018074-2.234663-.0095215-3.3588009.0030289-.9995785-.1285896-1.8944416-.4534035-2.6373196-.1240425-.2924519-.0603294-.5854416.1795158-.838522.0541193-.057125.1070978-.1004905.1581651-.1299743z" fill="#fff"/></g><g enable-background="new"><g><path d="m23.4754047 23.9938507c.1376743-.0794868.2846279-.0840874.3608818-.0039749.1353588.1443367.0075722.6024151-.0503368.8718224-.1099415.5421696-.1964359 1.0775223-.253643 1.5959873-.01721.1380291-.0344219.2760811-.0750809.4209042-.0406818.1381149-.1165257.2897625-.2218342.3977718-.0354786.036829-.072422.0656796-.1095123.0870934-.1463947.0845203-.295126.0530434-.365675-.0622082l-.0531788-.1311092c-.0355854-.1345234-.0302029-.3061867-.0130692-.4711494.0342312-.3433876.1036434-.6935768.1789017-1.0539093.063633-.3199215.1272678-.639822.2084942-.9631348.0405865-.1717567.0986862-.3738556.2155933-.5290031.0520554-.0686456.1142464-.1219942.1784592-.1590902z" fill="#fff"/></g><g><path d="m23.3959045 20.6333408c.1389561-.0802269.2572136-.0369148.3371124.0451164.1000023.0905876.0653896.2993603-.0103207.4981403-.0640926.1583519-.1516552.3167877-.2392387.4684696-.5487022.9977417-.979908 2.049017-1.2351742 3.0728531-.1972942.7746468-.289072 1.5153275-.3398266 2.2390671-.0111427.2086868-.0222702.4241104-.1096363.6498528-.0707512.1988888-.2122211.4080868-.359539.4931412-.0223713.0129147-.0448895.0230122-.0673027.0297337-.1289654.0407391-.2289295-.0363827-.2703381-.1540565-.0413647-.1042328-.0417461-.2388496-.0421276-.3734646l.0056877-.0639591c.0646992-2.0128021.7621403-4.3571758 1.9590225-6.4505558.0934181-.1618176.1985359-.3371124.3273678-.4249821.0149842-.0112115.0297643-.0209561.0443135-.0293561z" fill="#fff"/></g></g><g><path d="m22.6227131 38.8469887c.0898342-.0518684.1811066-.0722618.2580872-.0526924l.1116219.0501595c.2469425.1810532.4822273.3890648.7233353.5802078.1646671.1341629.2004814.3494606.0136414.6730957-.0898285.1555862-.1892738.2637291-.287281.3203163-.1058502.0611115-.2100239.0620918-.2985573-.0023117-.2939377-.201107-.5820599-.4190598-.8351288-.6909714-.1118126-.1174889-.0948677-.3497581.0218678-.5654793.0767572-.140358.1835344-.2494659.2924135-.3123245z" fill="#fff"/></g><g><path d="m21.465147 33.3273811c.0070419-.0040665.0141125-.0079422.0212803-.0116692.2636566-.1319885.3989029-.0280495.4056015.2647285.0069866.3937569.008112.7908936.0033779 1.1914139-.0260239 1.167923.0825996 2.2311287.4605541 3.0916519.1239853.272274.0485611.5720062-.1737328.8082314-.057003.0601387-.112711.105835-.1662807.1367645-.1718235.0992012-.3215332.0464554-.4205456-.1687737-.4251595-.9546394-.5634594-2.1355515-.5202808-3.4617004-.0010109-.3567619-.0079155-.723587.0027313-1.1072884.0047875-.31649.1640568-.6144484.3872948-.7433585z" fill="#fff"/></g><g><path d="m21.4607182 29.5264969c.0125542-.0072479.0253372-.0141258.0383797-.0206261.2343502-.1218376.3754501-.0212574.3762512.2614403.0067387.3062477.0076351.6226101.0085125.9322414.0008774.3096294.0076351.6226101-.0032063.9390068-.0050735.2793446-.1334324.5354977-.3794212.6910076-.0091515.0057411-.0181828.0111847-.0270672.0163116-.2469444.1425743-.3895473.0456047-.3959904-.2305222-.0193672-.6225796-.0211792-1.2620392-.0053997-1.9048882.0047646-.2844027.1524029-.5479601.3879414-.6839712z" fill="#fff"/></g><g><path d="m34.7081871 27.5827961c.0073509-.0042458.0147591-.008337.0222664-.0122623.2460823-.1218433.3813858.0022926.3882713.3623848.000267.0942402.0005531.1952133.0008202.2894535.0058594-.0033817-.0856285.8382473-.1372452 1.2590904-.0415688.2919579-.1791115.5128117-.3953438.6376534-.0231552.0133686-.0471954.0256462-.0721359.0367775-.2344093.1016159-.3698235-.0628967-.3414345-.3961697.0456276-.4645939.0853691-.9325123.119278-1.3903179.0274315-.3557187.1819038-.6517067.4155235-.7866097z" fill="#fff"/></g></g></g></g></svg>