<svg id="Layer_1" enable-background="new 0 0 53 53" height="512" viewBox="0 0 53 53" width="512" xmlns="http://www.w3.org/2000/svg"><g id="_x31_5"><g><g><path d="m44.1150017 6.2044291v1.3200073l-32.0299692 18.4899908-3.25-1.8900146-.0100098-1.3200073c0-1.6199951 1.1400146-3.5999756 2.5499878-4.4099731l26.9200449-15.5400394c.7099609-.4099731 1.3499756-.4500122 1.8199463-.1799927l3.1700439 1.8500364c.5.25.8200073.829956.8299561 1.6799926z" fill="#5094ff"/></g><g><g><g><g><g><g><g><g><g><g enable-background="new"><g><path d="m12.8776426 50.3214111-3.25-1.8900146c-.460022-.2600098-.7399902-.8299561-.7399902-1.6398926l-.0599976-22.6700439 3.25 1.8900146.0599976 22.6699219c0 .8100586.2799683 1.3800049.7399902 1.6400146z" fill="#e9e7fc"/></g><g><path d="m44.1749763 30.190979c0 1.6300869-1.1400719 3.6001549-2.5501137 4.4202042l-26.9213952 15.5408172c-1.4100437.8100395-2.5601254.1599846-2.5601254-1.4600945l-.0600004-22.6811295 32.0316334-18.4909166z" fill="#f8f9fe"/></g><g><path d="m44.114975 6.1997862v1.3200736l-32.0316334 18.4909167-.0100107-1.3100624c0-1.6300869 1.1400719-3.6002178 2.5501766-4.4202042l26.9213343-15.5408191c1.4100418-.8200484 2.5601234-.1599813 2.5701332 1.4600954z" fill="#5094ff"/></g><g><path d="m43.3657227 4.5614014c-.4599609-.2698975-1.1099854-.2299805-1.8200073.1800537l-26.919981 15.5400391c-1.4099731.8099365-2.5499878 2.789917-2.5499878 4.4099121l.0100098 1.3200684-3.25-1.8900146-.0100098-1.3199463c0-1.6201172 1.1400146-3.6000977 2.5499878-4.4101563l26.919981-15.539917c.710022-.4100342 1.3500366-.4500732 1.8200073-.1800537z" fill="#57b3fe"/></g></g></g><g><g enable-background="new"><g fill="#e9e7fc"><path d="m37.8750114 8.7544174c.1500244.0899658.25.2799683.2600098.5499878 0 .5599976-.3900146 1.2399902-.8800049 1.5200195-.2399902.1399536-.4599609.1499634-.6199951.0599976l-.0299683-.0200195-.0200195-.0100098-.460022-.2699585c-.1599731-.0900269-.2600098-.2800293-.2600098-.5599976 0-.5600586.3900146-1.2300415.8699951-1.5100098.25-.1400146.4700317-.1600342.6300049-.0599976l.4400024.2599487z"/><path d="m27.6250114 15.4043808c0 .4500122-.3200073 1-.7099609 1.2300415l-11.1199961 6.4199829c-.210022.1199951-.3900146.1300049-.5200195.039978l-.5-.289978c-.1300049-.0700073-.210022-.2299805-.210022-.460022 0-.4499512.3200073-1.0099487.710022-1.2299805l11.1199961-6.4199829c.2000122-.1199951.3800049-.1300049.5100098-.0499878l.4500122.2699585c.0099487 0 .0099487 0 .0199585.0100098s.0300293.0100098.0400391.0200195c.1300048.0700074.2099608.2299805.2099608.459961z"/><path d="m34.9650383 10.4544296c.1599731.0899658.25.2799683.25.5599976 0 .5599976-.3900146 1.2299805-.8699951 1.5100098-.2600098.1499634-.5.1599731-.6600342.039978.0100098.0200195.0200195.0200195.0300293.0299683l-.5100098-.2999878c-.1599731-.0899658-.2600098-.289978-.2600098-.5599976 0-.5599976.3900146-1.2399902.8800049-1.5200195.2399902-.1399536.460022-.1499634.6199951-.0599976l.4799805.2800293c.0200196.0100098.0300293.0100098.0400391.0200195z"/><path d="m41.0850334 7.6043925c0 .5499883-.3900146 1.230042-.8699951 1.5100102-.2700195.1600342-.5100098.1500244-.6699829.0300293.0099487.0199585.0299683.0299683.0499878.039978l-.5200195-.2999878c-.1500244-.0900269-.25-.2900391-.25-.5700073 0-.5499883.3900146-1.2299809.8699951-1.5100102.2399902-.1400146.4700317-.1500244.6300049-.0599976l.4700317.2800293c.1799927.0799561.289978.2799683.289978.5799561z"/></g></g></g><g><g enable-background="new"><g><path d="m27.4116058 14.942625c-.1300125-.0799599-.3100147-.0700102-.5100365.0500517l-11.1105422 6.4203043c-.3999834.2199821-.7200069.7800083-.7200069 1.2300434 0 .2299919.0799608.3900337.2099714.4600449l-.5099735-.3000031c-.1300116-.0700111-.2100325-.2300529-.2100325-.4600449 0-.4500351.3200226-1.0100613.7100573-1.2300434l11.120553-6.4203653c.1999607-.1200008.380024-.1300116.5099735-.0499897z" fill="#fff"/></g><g><path d="m27.6229382 15.40026c0 .4499731-.3200226 1.0000505-.7100582 1.2300425l-11.1205521 6.4203033c-.4000444.2300529-.7200069.0499916-.7200069-.4099922 0-.4500351.3199625-1.0000515.7099962-1.2300434l11.120553-6.4203653c.4000454-.229992.720068-.0499907.720068.4100551z" fill="#e9e7fc"/></g></g><g><g><path d="m34.3358536 10.5134726c.4845047-.2797289.8783226-.0553055.8799019.5014305.0015755.5562248-.3896828 1.2344236-.8741875 1.5141525-.484066.2794743-.8778839.0545416-.8794632-.5016832-.0015755-.556736.3896828-1.2344246.8737488-1.5138998z" fill="#e9e7fc"/></g></g><g><g><path d="m37.2513504 8.8063641c.4845123-.2797327.8783302-.0553093.8799095.5014257.0015755.5562258-.3896828 1.2344236-.8741951 1.5141563-.4840584.2794714-.8778801.0545387-.8794556-.5016861-.0015792-.5567359.3896828-1.2344245.8737412-1.5138959z" fill="#e9e7fc"/></g></g><g enable-background="new"><g fill="#fff"><path d="m34.4432869 10.1499968.5199852.3000021c-.1599808-.0900307-.380024-.0800209-.6300354.0600004-.4800072.2799826-.8700409.9600706-.8700409 1.5200958 0 .2699728.1000443.4699945.2500153.5600262l-.5100365-.3000641c-.1599808-.0899706-.259964-.2899923-.259964-.5600252 0-.5600262.3899765-1.2400532.8800507-1.5200348.2400016-.1400223.4599838-.1500321.6200256-.0600004z"/><path d="m37.3620949 8.4498987.5100365.3000031c-.1599808-.0999804-.380024-.0800209-.6200256.0600004-.4800072.2800436-.8800507.9500599-.8700409 1.5100851 0 .2799826.0900307.4699945.2500114.5600262l-.5100327-.3000031c-.1599808-.0900316-.260025-.2800436-.260025-.5600252 0-.5600262.3900337-1.2301035.8700409-1.5100861.2500114-.1400213.4700546-.1600418.6300354-.0600004z"/><path d="m40.8323021 7.039794c-.1600456-.0899701-.380024-.0799599-.6200294.0600004-.4900131.2800436-.8800468.9600706-.8800468 1.5100861 0 .2800426.0999794.4700546.2600212.5700359l-.5200462-.3000031c-.150032-.0900316-.2500114-.2899923-.2500114-.5700359 0-.5500154.3900337-1.2300425.8700409-1.5100856.2400017-.1399608.4699936-.149971.6300354-.0600004z"/></g><g><path d="m40.2081566 7.0992513c.4845123-.2797322.8783226-.0553055.8799019.50143.0015755.5562248-.389679 1.2344198-.8741875 1.5141525-.4840584.2794714-.8778801.0545387-.8794556-.5016861-.0015792-.556736.3896828-1.234425.8737412-1.5138964z" fill="#e9e7fc"/></g></g></g></g></g></g></g></g></g></g><g><g enable-background="new"><g><path d="m36.8750114 34.4143906-15.6799927 9.0599976c-.3699951.210022-.6799927.1900024-.8800049.0200195.0200195.0300293.0400391.039978.0700073.0599976l-1.7999878-1.0499878c-.3500366-.2000122-.4700317-.7999878-.1600342-1.5300293l7.8000488-18.8299561c.2199707-.5400391.5899658-.9500122.9599609-1.1700439.2900391-.1699829.5900269-.2099609.8099976-.0799561l1.8000488 1.039978c.0599976.039978.1099854.0800171.1499634.1400146l7.8900146 9.7799683c.4799807.5900269-.0599973 2.0400391-.9600218 2.5599976z" fill="#e83665"/></g></g></g><g><g enable-background="new"><g><path d="m29.7905731 21.9369259c-.2201538-.127594.6157532 4.0187893.3222218 4.1879005-.3701038.2137871-3.4226284 12.7180271-3.6427822 13.2572613l-6.2512856 2.6397858c-.2999191.7306671-.1882553 1.3273506.1658993 1.531517l-1.7994957-1.0465355c-.3541737-.2041664-.4658394-.8008499-.1627254-1.5314751l7.801054-18.8310547c.2233486-.5360432.5902767-.9539928.9603806-1.1677799.2935505-.1691113.5870838-.2105522.8072376-.0829582z" fill="#ef526f"/></g><g><path d="m28.9843082 22.0205345c.3702431-.2137604.741066-.223278.9652863.0563869l7.8834019 9.7764854c.4791489.5955677-.0615387 2.0448704-.9598999 2.5635395l-15.6816196 9.0537872c-.8963242.5174942-1.445488-.3025856-.9712734-1.4485741l7.8022919-18.8326283c.2219046-.537235.5915698-.9552362.9618128-1.1689966z" fill="#e83665"/></g></g></g><g><g enable-background="new"><g fill="#fff"><path d="m28.7602005 33.3564949-.612505-5.136631c-.0928097-.7841873.4199333-1.84445 1.1461201-2.3687897.0556793-.0394516.1113586-.0742588.1647301-.1067429.3642387-.2088127.7006531-.232008.9442596-.0904865l.6542625.380497c-.2436047-.1415215-.1564159 1.3576584-.5206699 1.5664711-.0533581.032486-.4553089.6759605-.5109882.7153835-.7261848.5243397.2950783-.400919.3902092.3809185l-1.0011559 5.0399036c.020874.1740036.0951176.3015938.2064762.3642387l-.6542492-.3781738c-.1113738-.064968-.1856174-.1925849-.2064895-.3665885z"/><path d="m30.1870384 34.3611069.6542645.3804931c-.1786366-.1044197-.0868816 1.3023148-.3606491 1.4623871-.5475483.3155556-.9871349-.2292595-.9848118.399498 0 .313179-.2321892.4512291-.0535393.5533257l-.6542625-.3805237c-.1786518-.1020699-.2876873-.3224678-.2900105-.6333771-.0023232-.6310539.4384975-1.3966904.9860325-1.7121925.2760906-.1577759.5243397-.1740036.7029762-.0696106z"/></g><g><path d="m30.1136379 26.1249046c.659996-.3811188 1.2339249-.1472988 1.3195686.5763912.0151691.1174068.0140591.2493248.00107.3778782l-.5799351 5.8262978c-.0452633.4476166-.3568325.9372978-.7166004 1.1450081-.0302563.0174675-.0608063.0329094-.0916157.0462112-.3363876.1464615-.5905571-.0136757-.6315994-.3599434l-.6125031-5.1378403c-.0942078-.7827282.4206009-1.8437462 1.1461391-2.3666248.0555555-.0400314.1108705-.0758514.165476-.107378z" fill="#e9e7fc"/></g></g></g></g></g><g><g><path d="m30.1386566 34.810463c.5465965-.3155785.9909496-.0606422.9927349.5691338.0017757.6263809-.439682 1.3927155-.9862785 1.7082939-.5480785.316433-.9909496.0606651-.9927254-.5657158-.0017853-.6297761.4381905-1.3952828.986269-1.7117119z" fill="#e9e7fc"/></g></g></g></svg>