<svg id="Layer_1" enable-background="new 0 0 54 54" height="512" viewBox="0 0 54 54" width="512" xmlns="http://www.w3.org/2000/svg"><g id="_x31_05"><g><g><path d="m16.4328423 18.2184963c.1003017.0576458 2.2063789 1.2680817 2.0729504 1.1913967-1.7529755-.9496021-2.7419891-.1687202-4.4831181.8567085-3.7619734 2.1709499-6.7028699 7.006876-6.688077 11.319006 0 1.4869289.3615556 2.5092983 1.0158081 3.3270931.2527523.3717308.1524792.8503494.5390949 1.0734253-.1016207-.0581436-2.0987811-1.2008247-1.9730463-1.1288834-7.0569787-4.0361289 2.4594088-20.6748752 9.516388-16.6387462z" fill="#5ec363"/><ellipse cx="13.702" cy="27.696" fill="#78e75a" rx="9.583" ry="5.551" transform="matrix(.502 -.865 .865 .502 -17.129 25.626)"/></g><g><path d="m17.8292542 21.6172867c.1000309.0574913 1.6914177.9721165 1.5899105.9137764-1.4012451-.7590675-2.049202-.049778-3.4465494.7731838-2.8853579 1.6650734-4.9246264 5.1312847-4.9132805 8.4386005 0 1.1404419-.1558609 2.1029549.3459377 2.7301865.1938553.2851105.3412619.6002197.6377888.7713127-.1001425-.0572968-1.6128244-.9227791-1.512682-.8654823-5.412559-3.0956268 1.8863153-15.8572064 7.2988749-12.7615776z" fill="#dedffb"/><ellipse cx="15.735" cy="28.886" fill="#f3f1fc" rx="7.35" ry="4.257" transform="matrix(.502 -.865 .865 .502 -17.146 27.976)"/></g></g><g><g><g><path d="m26.0371361 47.0034866c.1147385.6878777-.46348 2.9893188 1.2145557 2.0242577 1.105381-.6385498 2.0720215-2.311409 2.0686111-3.5799828l-.0088844-3.1239548h1.7467766l.0088844 3.1194077c.0056858 1.9025764-1.2867699 4.141201-2.9419994 5.0970383-1.9744148 1.1400642-3.8253517.0664635-3.8313103-2.1908607l-.0034122-1.3413582c-.0027409-1.1636048 1.7440605-1.1556359 1.7467785-.0045472z" fill="#1d2943"/></g></g><g><path d="m29.5692081 41.9727287c-.3417187.1972923-.343565.5230713-.0040684.7203674.33951.1973.8940411.1927071 1.2357578-.0045853.3417187-.1972923.3435135-.5138931.0040035-.7111931-.3394965-.197296-.8939761-.2018775-1.2356929-.004589z" fill="#4c5c75"/></g></g><g><path d="m24.8370552 42.7867317c-3.5163498-3.3682861-7.5249462-5.9521217-11.8716745-8.0620842-4.0488167-2.4320107 2.5363865-13.394886 6.5852022-10.9628773l4.5120029 2.4927788c.4685631.2631912 1.0018482.3832035 1.5388546.3620892 4.7181492-.1854992 8.4261322 1.5664635 11.0176277 5.4597206.8185463 1.0424156.9380569 2.1005821.4160881 3.173214-.1721001.3536606-.2285194.7624359-.1357231 1.1446457.2357903.9711952.1029968 1.862648-.382267 2.677845-.4348412.7304878.0244293 1.2379875-.2056046 2.0708618-.096508.3494377-.5214119.958847-1.0393639 1.2495956-.6851501.3846054-1.285759 2.0540237-4.85709 3.7773514-.6390667.3083763-1.380497.3230782-2.0347691.0484314" fill="#efc2a2"/><path d="m30.8612137 27.3700371c3.0622368 1.0330505 4.9095001 3.4371834 5.7581024 4.7078094.8183975 1.0420036.937439 2.0973549.4148598 3.170536-.1719742.3531723-.2280388.7614975-.135643 1.1432953.2378502.9828148.0999184 1.8826752-.3985176 2.7046776-.3762398.6204872.0290909 1.305378-.1949997 2.0735664-.1175308.3672066-.5342751.9540176-1.0685997 1.2437172-.5893097.3018913-1.2250366 2.0237122-4.8148727 3.7521667-1.6949863.8161087-3.9306526-.6969414-4.6408863-2.2345734-.279726-.3186417-.8340645-1.0525208-1.9839554-2.0922127l-.9571819-.865448 2.4966373-5.1017418z" fill="#ebba97"/><path d="m28.4474182 44.402668c-.7012596 0-1.0856152-.322361-1.6747284-.5657349v-.0044937l-3.9331703-2.8588676v-2.5155487l2.4963913-2.5861931c.0010567.0011177 4.6540051 4.9274979 4.6605339 4.9344101 1.2823353 1.3544388.3235207 3.5964279-1.5490265 3.5964279z" fill="#eec4a3"/><path d="m27.7290993 43.7908401c-.1003132-.0685349-.5346222-.1483536-.5156956-.5315933.0565395-1.1448631.5673141-2.0029411 1.548233-2.6164818.1720829-.1076355.3984642-.0683594.5378094.0792236l.3098774.3281975c.5806904.6150208.6878357 1.5783577.1720753 2.2487602-.5020161.6525422-1.3664341.8186875-2.0522995.4918938z" fill="#f5d3b7"/><g><g><path d="m28.4853992 39.2294731s-5.1870918-2.5688477-2.926487-6.2461243c.5871086-.95504 1.5288811-1.6449051 2.5990543-1.9788589 1.5113373-.4716206 3.7400265-.5843658 4.5441132 2.3770294 1.2619286 4.647583-4.2166805 5.8479538-4.2166805 5.8479538z" fill="#ebba97"/></g></g><g><g fill="#e5af87"><path d="m36.8785057 35.7350121c-1.2634125 1.8039131-3.520195 3.3454361-5.9872837 3.6397324-.7970257.1248856-1.6102467.0210152-2.3778954-.1402664.3152447-.0319939 2.3475018.0589447 4.4915028-.9592094 1.3610382-.6052896 2.7732124-1.5656854 3.8736763-2.5402566z"/><path d="m36.3338737 39.6656227c-1.0053368 1.5412102-3.3815498 3.0258827-5.790987 3.0035133 1.9712391-.7397651 3.24296-1.1658325 5.790987-3.0035133z"/><path d="m35.0100288 42.5775414c-1.737587 2.2189064-5.2530117 3.9512596-6.8384876 1.8055344 1.6438274 1.1920128 3.4843216.3050537 5.2189236-.7360229.5423012-.3395349 1.0840301-.6916124 1.619564-1.0695115z"/></g></g></g><g><g><g><g><g><g><g><path d="m29.2264481 15.7752209c.0310116 9.7521.0217133 6.8282146.0533829 16.7865963 0 .4435539.9176235.6501503 1.4620495.344101.1720505-.1076088.2579899-.2151031.2579899-.344101v-.0214958l-.0533276-16.7651005z" fill="#f3f1fc"/></g></g></g><path d="m49.5662575 18.052c-2.1468163 1.7380352-3.4251709 3.7722206-3.9355316 6.0971928-4.2874908.520853-8.0602684 1.6498508-11.165966 3.5993099-.1281471-.0289116-.2561836-.0571537-.3841057-.084837-4.3286839-.9347668-8.5620365-1.140831-12.6919117-.4551048-2.575798-2.6605244-5.5880613-4.4374065-8.9678011-5.4932899-.1729078-2.2389069-.5921803-4.083437-1.3616285-5.4228516 1.9485664-7.2775402 8.7330494-12.7709427 17.1249638-13.1706781 5.1644363-.5247626 10.0288162.6322558 14.3326073 3.756814 3.3551825 2.3000803 5.4068907 6.3097315 7.0493735 11.1734447z" fill="#5094ff"/><path d="m29.9697495 4.8128762c-.1352615 0-.2854691-.0150394-.4207306-.0150394-13.5520525-.0901432-17.1278944 16.9176211-17.1278944 16.9176211-.1802874-2.2386379-.601018-4.0866241-1.3672829-5.4238281 1.6377125-6.0999508 6.6859293-10.9678917 13.2215567-12.6056061 2.2873707-.4439807 4.212204-.1033728 5.4239216.9616017.0901431.0450407.1802863.1051856.2704296.1652508z" fill="#57b3fe"/><path d="m34.4647598 27.7485027c-.1281471-.0289116-.2561836-.0571537-.3841057-.084837-4.3286839-.9347668-8.5620365-1.140831-12.6919117-.4551048.3526535-8.649189 2.6586075-16.9378662 8.7818298-23.0569496 2.7795201 6.2051392 4.023718 14.4019299 4.2941876 23.5968914z" fill="#497bfe"/><path d="m49.5662613 18.0519485c-2.1484947 1.7428036-3.4246254 3.7685089-3.9354973 6.0972919-3.6659851-11.328454-8.9846344-17.1129436-15.2648697-19.5769501 1.6290932-.8260388 4.2122574-1.2748702 7.7225342-.1502404 1.5325279.6160798 3.0049019 1.4273381 4.432251 2.4640336 3.3505287 2.2987043 5.4079628 6.2979365 7.0455818 11.165865z" fill="#57b3fe"/><path d="m31.6480579 3.9316905c.7897625.4559686.7939434 1.1993849.017849 1.6504028-.7846279.4559755-2.0680676.4559817-2.8578281.0000134s-.7853298-1.1944103-.0007019-1.6503861c.7760963-.451018 2.0509204-.4559985 2.840681-.0000301z" fill="#3f75ef"/><path d="m31.3439445 4.3055158v.4832835c0 .171206-.1100559.3302412-.317997.4526167-.7264023.4357147-1.896183.0811729-1.896183-.4526167h-.0121708v-.4832835c0-.6116529.501524-1.1131752 1.1131763-1.1131752.6238977 0 1.1131745.5015223 1.1131745 1.1131752z" fill="#4c5c75"/></g></g></g></g></g></svg>