<svg id="Layer_1" enable-background="new 0 0 54 54" height="512" viewBox="0 0 54 54" width="512" xmlns="http://www.w3.org/2000/svg"><g id="_x36_1"><g><g><g><path d="m44.5510521 6.7695436-2.9758835 27.58881c-.052803.4729691-.2742729 1.0045395-.5973206 1.4318504l-10.817852 14.3515387c-.3325977.4421349-.9102516.9329796-1.4570789.849041l-11.1065159-1.7013168c-.1883068-.0253868.1467228.1341705-4.7071238-2.6749382-.200036-.1199989-.3400173-.3600006-.3800898-.6699905l-3.0599431-24.0899487c-.1240807-.993145.712965-2.3160076 1.5500622-2.6300621 8.9075613-3.4754887 3.0257034-1.1531124 6.3799753-2.5399799.3299732-.189991.6399632-.4999809.8799629-.890008 2.4980202-4.0389118 8.804163-9.3972664 13.0099964-7.509984.2399998.1100655.5600357.0500088.8799629-.1300449.1600723-.0898609.2300644-.1398697.3000565-.1999273l4.4700203 2.6000357c.0001144 0 .0002251-.0001106.0003357-.0002222l.000782-.0005589-4.4692421-2.5992546 6.0859489-4.6278648c.0740089-.0527997.1372986-.1055994.2113113-.1373014.3698196-.2218058.707943-.2430139.9508438-.0951071l4.4061737 2.5624166c.3212625.1407611.5081292.5321286.4456178 1.112817z" fill="#7e5af2"/></g></g></g><g><g><path d="m44.168705 5.6934986c-.2430573-.1478729-.5811729-.1267853-.9509506.0845447-.073967.0423045-.1479378.0951209-.2113304.1479373l-6.0859375 4.6278458-4.4693298-2.5992212 6.0859375-4.6278458c.073967-.0528164.1373596-.1056328.2113304-.1373613.3697777-.2218413.7078934-.2429938.9508858-.0950565z" fill="#986ff9"/></g><g><path d="m36.9192467 10.5545864c-.0700073.0499878-.1400146.0999746-.2999878.2000113-.3200073.1799927-.6400146.2299805-.8800049.1199951-4.1822948-1.8767071-10.5000401 3.461566-13.0099964 7.5200129-.2399902.3799438-.5599976.6999512-.880003.8799419l-4.4699669-2.589962c.3299561-.1900024.6399517-.5.8799419-.8900146 2.4980526-4.0389404 8.804121-9.3972912 13.0099983-7.5100021.2399902.1100464.5599976.0499878.880003-.1300049.1600342-.0899658.2300415-.1399536.2999878-.1999512z" fill="#7e5af2"/></g><path d="m35.7380981 10.8794327c.2435608.1078453.560997.0565662.8780594-.1264896.1619034-.0934753.2360878-.1440716.3034973-.1985254l6.0816765-4.6293039c.0727272-.0553231.1448059-.1033506.2156258-.144238.7956619-.4594417 1.4429245-.0223842 1.334095.9886966l-2.9759331 27.5887345c-.0527077.4729958-.2741776 1.0046043-.5973053 1.4318542l-10.8177681 14.3515549c-.3329163.4423828-.9102345.9330063-1.4570999.8490143l-11.1065331-1.7013092c-.3379745-.0455627-.5617523-.3278694-.6170006-.7463036l-3.0616264-24.0874195c-.1176405-.9650517.6560278-2.2809277 1.5466471-2.6321487 3.5089808-1.3695259 6.353219-2.4330921 6.3848772-2.5449619.3238087-.1869526.6404858-.5017776.8758926-.8861561 2.4939957-4.0183621 8.8083707-9.4071618 13.0128956-7.5129986z" fill="#b28afd"/><path d="m18.9591942 47.3602333-2.9453335-23.1710873c.0190887-.0624256.1877918-.3544312.3054199-.4390392 6.4278679-2.5075378 5.9919891-2.2787666 6.5855961-2.6409454.6330223-.3657818 1.2082634-.9379253 1.6215076-1.6117058 2.0159855-3.2484207 6.2181969-6.8579969 9.4148502-6.8579969 1.1448059 0 2.343914 1.1396875 4.2995949-.4359446l3.9204063-2.98351-2.6868629 24.9117661c-.0061913.0541725-.0670662.2316437-.1821175.3838387l-10.7845916 14.3072289z" fill="#986ff9"/><g><path d="m16.9792938 48.5465393c.039978.3099976.1799927.5499878.3800049.6600342l-4.4700317-2.5900269c-.1999512-.1199951-.3399658-.3599854-.3800049-.6699829l-3.0599976-24.0900268c-.1199951-1 .7200317-2.3200073 1.5500488-2.6300049 3.6300049-1.4199829 5.0499878-1.9699707 5.5299683-2.1599731-.0299683 0-.0499878.0100098-.0700073.0100098.1000366-.0500488.3600464-.1600342.9200439-.3900146l4.4699707 2.5899658c-.5200195.2900391.5499878-.1599731-6.3800049 2.5500488-.8999634.3399658-1.6699829 1.6699829-1.5499878 2.6300049z" fill="#986ff9"/></g><g><g><path d="m30.7120247 26.669281.0029907 1.054739c.000452.1593437-.1114311.353159-.2501259.4332352-1.0401611.6005363-1.8160057 1.0484695-2.740469 1.5822105-.1386719.080061-.2513103.015873-.2517624-.1434708l-.0029888-1.054739z" fill="#dedffb"/></g><g><path d="m30.486639 35.8287239c.1386929-.0800743.2513084-.0158958.2517605.1434708l.0029678 1.047123-3.2423553 1.8719788-.0029697-1.047123c-.000452-.1593704.111454-.3531761.2501259-.4332352.2001457-.1155548 2.8688049-1.6563073 2.7404708-1.5822144z" fill="#dedffb"/></g><g><path d="m35.4005699 23.9623489.0029907 1.054739c.0004501.1593437-.1114578.3531723-.2501259.4332352-.1859436.1073532-2.8418846 1.6407623-2.7404938 1.5822239-.1386719.080061-.2512856.0158596-.2517395-.1434841l-.0029907-1.054739z" fill="#dedffb"/></g><g><path d="m35.1751823 33.1217918c.1386719-.0800591.2513084-.0158958.2517586.1434708l.0029716 1.047123-3.2423592 1.8719788-.0029678-1.047123c-.0004501-.1593704.1114311-.3531609.250103-.4332237.8105698-.4679833 1.8940316-1.0935174 2.7404938-1.5822259z" fill="#dedffb"/></g><g><path d="m34.8364563 25.6333294.0217476 7.6714687-2.1065369 1.2162133-.0217514-7.6714707z" fill="#fff"/></g><g><path d="m26.0168991 29.3800125.0029888 1.054739c.000452.1593437-.111454.3531742-.2501259.4332352-.8105621.4679794-1.8940144 1.0935097-2.740469 1.5822124-.1386948.0800743-.2513084.015873-.2517605-.1434708l-.0029907-1.054739z" fill="#dedffb"/></g><g><path d="m29.0806293 22.8305168c.5612926-.3240623 1.0316792-.0560036 1.0335503.6041451.0018711.6601467-.4655037 1.4544163-1.0267944 1.7784786-.5745258.3317032-1.0448456.0788116-1.0467186-.581337-.0018711-.6601467.4654388-1.4695835 1.0399627-1.8012867z" fill="#fff"/></g><g enable-background="new"><g><path d="m30.1479359 28.3402481.0217476 7.6714707-2.113144 1.2200241-.0217495-7.6714707z" fill="#fff"/></g><g><path d="m29.067318 20.4744778 5.5309525 2.8034382-11.0279579 6.3669949zm.0200672 4.7386799c.561285-.3240585 1.0286541-1.1183243 1.0267811-1.7784805-.0018711-.6601563-.4722519-.9282112-1.0335369-.6041546-.5745277.3317051-1.0418358 1.1411362-1.0399647 1.8012924s.4721908.9130458 1.0467205.5813427z" fill="#dedffb"/></g><g><path d="m29.0628223 18.8885841 8.0612774 4.0786858-1.7235336.9950809-3.2423668 1.8719826-1.4461823.8349533-3.2423515 1.871973-1.4527664.8387566-3.2423706 1.8719826-1.7235317.9950829zm-5.4925098 10.7563267 11.0279579-6.3669949-5.5309525-2.8034382z" fill="#fff"/></g></g><g><path d="m25.7915115 38.5394592c.1386719-.0800629.2513084-.0158997.2517605.1434708l.0029678 1.047123-3.2423553 1.8719749-.0029678-1.047123c-.000452-.1593704.1114311-.3531609.250124-.4332352.8105621-.4679794 1.8940162-1.0935096 2.7404708-1.5822105z" fill="#dedffb"/></g><g><path d="m36.4701843 33.7119675.0043679 1.5403633-14.7127514 8.4944076-.004366-1.5403595z" fill="#fff"/></g><g><path d="m25.4527855 31.050993.0217495 7.6714725-2.1065388 1.2162094-.0217495-7.6714706z" fill="#fff"/></g></g></g></g></svg>