<svg id="Layer_1" enable-background="new 0 0 52 52" height="512" viewBox="0 0 52 52" width="512" xmlns="http://www.w3.org/2000/svg"><g id="_x36_1"><g><g><path d="m31.5 4.9c-.9-.5-1.7.9-3 1.6-1.5.9-3 2.5-3.9 4.7l-14.2 32.2c-.5 3.4-1.6 5.4-.1 6.3l-4.5-2.6c-1.5-.9-2-3.5-.6-6.6l14.5-33.1c.9-2.2 2.4-3.8 4-4.7 1.2-.7 2.5-.9 3.4-.3z" fill="#678aee"/></g><g><path d="m28.2 5.3c1.5-.9 3-.9 4 .1l14.6 16.3c2.2 2.4-.1 8.6-3.9 10.9l-29.2 16.7c-3.8 2.2-6.1-1.4-4-6.3l14.5-33c.9-2.2 2.5-3.9 4-4.7z" fill="#8fabfe"/></g><g><g><g><path d="m10.7 48.1c-.5-.7-.5-2.4.4-4.4l14.5-33.1c1.2-2.7 4-5.7 6-3.5l14 15.6c1.2 1.4-.2 6.6-3.6 8.5l-29.1 16.8c-.7.5-1.7.8-2.2.1zm15.8-37.1-14.5 33.1c-.8 1.7-.7 3-.5 3.4.1 0 .4-.1.9-.3l29.1-16.8c2.8-1.6 4.1-6.1 3.3-7l-14-15.6c-1.3-1.6-3.5 1.4-4.3 3.2z" fill="#fff"/></g></g></g><g><g><g><path d="m34.7 22.9c.4.1.5.7.2 1.3l-.2.4.3-.2c1.3-.5.8 2.8-1.3 2.2h-.1l-2.8 3 2.8-.3.1-.1c.7-.9 1.1-1.2 1.2-1.3.7-.4 1.1.3.7 1.2-.3.7-.8.9-.9 1l.2.2c.8.9-1.5 3.7-1.8 1v-.1l-4.1.3-4 4.3c0 .1-.1.9-.4 1.6-.2.5-.8 1.1-1.2 1s-.5-.7-.2-1.3l.2-.4c-.1 0-.6.4-.9.1-.5-.5.1-1.6.7-2l.2-.1c.5-.2 1 0 1.1 0l2.8-3-2.8.3-.1.1c-2.1 3-2.7.4-1.3-.7l.4-.3-.4-.1c-.4-.4 0-1.6.7-2 .3-.2.6-.2.7 0s.3.6.4 1v.1l4.1-.4 4.1-4.3c0-.1.1-.9.4-1.6.2-.5.7-1 1.2-.9z" fill="#fff"/></g></g><g><g><path d="m33.7 17.4v2.9c0 1.3-.9 2.8-2 3.4v1.2c0 .5-.3 1.1-.7 1.3l-.5.3v-1.5l-.5.3v1.5l-.7.4v-1.5l-.5.3v1.5l-.8.4v-1.5l-.5.3v1.5l-.5.3c-.4.2-.8 0-.8-.4v-1.2c-1.1.6-2 .1-2-1.1v-2.9c0-3 2.1-6.6 4.7-8.1 2.6-1.6 4.8-.5 4.8 2.6zm-2.7 2.5c.6-.3 1-1.2 1-2.1 0-.8-.4-1.2-1-.9-.5.3-1 1.2-1 2 0 .9.5 1.3 1 1zm-4 2.3c.5-.3 1-1.2 1-2.1 0-.8-.4-1.2-1-.9-.5.3-1 1.2-1 2 0 .9.4 1.3 1 1zm1.2 2.3 1.7-1-.9-1.7z" fill="#fff"/></g></g></g></g></g></svg>