<svg id="Layer_1" enable-background="new 0 0 52 52" height="512" viewBox="0 0 52 52" width="512" xmlns="http://www.w3.org/2000/svg"><g id="_x31_18_1_"><g><path d="m26.0244122 33.8899231c-1.8808594 0-3.7636719-.3666992-5.2001953-1.1000977-1.4287109-.7299805-2.2167969-1.7114258-2.21875-2.7646484-.0009766-1.0473633.7763672-2.0239258 2.1904297-2.7504883 2.8515625-1.4667969 7.5058594-1.465332 10.375-.0004883 1.4316387.730957 2.2207012 1.7143555 2.2216778 2.7695312.0019531 1.0463867-.7734375 2.0214844-2.1826153 2.7456055-1.4267579.7333985-3.3056641 1.100586-5.1855469 1.100586zm-.0478516-7.418457c-1.8291016 0-3.6552734.3564453-5.0439453 1.0698242-1.3085938.6728516-2.0283203 1.5546875-2.0263672 2.4833984.0009766.9350586.7304688 1.8217773 2.0546875 2.4975586 2.7978516 1.4291992 7.3339844 1.4287109 10.1123047.0004883 1.303709-.6704102 2.0205059-1.550293 2.0195293-2.4785156-.0009766-.9370117-.7324219-1.8256836-2.0585918-2.5024414-1.3964844-.7133789-3.2285156-1.0703125-5.0576172-1.0703125z" fill="#9ea9c9"/></g><g><g><g><g><g><g><g><g><path d="m10.6787081 25.6741028c-.4716797 0-.9453125-.1040039-1.3056641-.3125l-6.6669917-3.8491211c-.3789062-.21875-.5879028-.5185547-.5879028-.8442383-.0009644-.3237305.2050903-.6220703.5800903-.8398438l6.6259761-3.8510742c.7158203-.4155273 1.8876953-.4174805 2.609375 0l6.6669931 3.8496094c.3789062.21875.5869141.5185547.5878906.8442383 0 .3237305-.2060547.621582-.5800781.8393555l-6.6259775 3.8510742c-.3583984.2080078-.8310547.3125-1.3037109.3125zm-.0517578-9.7133789c-.4179688 0-.8349609.0917969-1.1523438.2763672l-6.6259761 3.8510742c-.2783203.1611328-.4306641.3671875-.4306641.5795898 0 .2143555.15625.421875.4384766.5849609l6.6669917 3.8491211c.6386719.3691406 1.6738281.3701172 2.3085938 0l6.6259775-3.8510742c.2773438-.1611328.4306641-.3671875.4306641-.5791016-.0009766-.2143555-.15625-.421875-.4384766-.5849609l-6.6669931-3.8496094c-.319336-.1845702-.7373047-.2763671-1.15625-.2763671z" fill="#9ea9c9"/></g></g><g><g><g enable-background="new"><g><path d="m18.7759361 15.9168873-6.8305426 3.969492c-.6974001.4052887-1.8322048.4052887-2.5342016 0l-6.8722713-3.9677163c-.3532395-.2039413-.5296903-.4716911-.528929-.7390451l-.0106581 3.7657461c-.0007613.267355.1756612.5351048.528901.7390747l6.8723001 3.9677162c.7019672.4052887 1.8367729.4052601 2.534173-.0000286l6.8305702-3.9694633c.3464432-.2013493.5198784-.4648972.5206394-.7288399l.010685-3.7657471c-.000761.2639427-.1741943.5274916-.5206661.7288113z" fill="#e9e7fc"/></g><g><g><path d="m18.7676754 14.4490042c.7019844.4052916.7056847 1.0626097.0082722 1.4679012l-6.8305531 3.9694834c-.6974134.4052925-1.8322124.4052982-2.5341978.0000057l-6.8722775-3.9677105c-.7019855-.4052916-.7056853-1.0626097-.0082722-1.4679012l6.8305531-3.9694843c.6974125-.4052916 1.8322115-.4052973 2.5341978-.0000057z" fill="#f3f1fc"/></g></g></g></g><g><g><path d="m16.440321 15.1838179-5.768157 3.352086-5.8058911-3.3520336 5.768157-3.3520861z" fill="#4c5c75"/></g></g></g></g><g><path d="m10.6326199 12.2880297 5.0254049 2.8989324-4.9872246 2.8988743-5.0158605-2.8988743z" fill="#8fabfe"/></g><g><g><g><path d="m10.6787081 25.6741028c-.4716797 0-.9453125-.1040039-1.3056641-.3125l-6.6669917-3.8491211c-.3789062-.21875-.5879028-.5185547-.5879028-.8442383-.0009644-.3237305.2050903-.6220703.5800903-.8398438l6.6259761-3.8510742c.7158203-.4155273 1.8876953-.4174805 2.609375 0l6.6669931 3.8496094c.3789062.21875.5869141.5185547.5878906.8442383 0 .3237305-.2060547.621582-.5800781.8393555l-6.6259775 3.8510742c-.3583984.2080078-.8310547.3125-1.3037109.3125zm-.0517578-9.7133789c-.4179688 0-.8349609.0917969-1.1523438.2763672l-6.6259761 3.8510742c-.2783203.1611328-.4306641.3671875-.4306641.5795898 0 .2143555.15625.421875.4384766.5849609l6.6669917 3.8491211c.6386719.3691406 1.6738281.3701172 2.3085938 0l6.6259775-3.8510742c.2773438-.1611328.4306641-.3671875.4306641-.5791016-.0009766-.2143555-.15625-.421875-.4384766-.5849609l-6.6669931-3.8496094c-.319336-.1845702-.7373047-.2763671-1.15625-.2763671z" fill="#9ea9c9"/></g></g><g><g><g><g><g><path d="m19.3006573 15.1912537-.0100098 3.7600098c-.0100098.2700195-.1799927.5300293-.5299683.7300415l-6.830018 3.9699707c-.6900024.4099731-1.8300171.4099731-2.5300293 0l-6.8699946-3.9699707c-.3599854-.2000122-.5299683-.4700317-.5299683-.7400513l.0100098-3.7599487c0-.2700195.1699829-.5300293.5199585-.7300415l6.8300166-3.9699707c.7000122-.4100342 1.8300171-.4100342 2.5300293 0l6.8800058 3.9699707c.3599854.2000121.5299683.4700317.5299683.7399902z" fill="#dedffb"/></g></g></g><g enable-background="new"><g><path d="m18.7759361 15.9168873-6.8305426 3.969492c-.6974001.4052887-1.8322048.4052887-2.5342016 0l-6.8722713-3.9677163c-.3532395-.2039413-.5296903-.4716911-.528929-.7390451l-.0106581 3.7657461c-.0007613.267355.1756612.5351048.528901.7390747l6.8723001 3.9677162c.7019672.4052887 1.8367729.4052601 2.534173-.0000286l6.8305702-3.9694633c.3464432-.2013493.5198784-.4648972.5206394-.7288399l.010685-3.7657471c-.000761.2639427-.1741943.5274916-.5206661.7288113z" fill="#dedffb"/></g><g><g><path d="m18.7676754 14.4490042c.7019844.4052916.7056847 1.0626097.0082722 1.4679012l-6.8305531 3.9694834c-.6974134.4052925-1.8322124.4052982-2.5341978.0000057l-6.8722775-3.9677105c-.7019855-.4052916-.7056853-1.0626097-.0082722-1.4679012l6.8305531-3.9694843c.6974125-.4052916 1.8322115-.4052973 2.5341978-.0000057z" fill="#f3f1fc"/></g></g></g></g><g><g><path d="m16.440321 15.1838179-5.768157 3.352086-5.8058911-3.3520336 5.768157-3.3520861z" fill="#4c5c75"/></g></g></g></g><g><path d="m10.6326199 12.2880297 5.0254049 2.8989324-4.9872246 2.8988743-5.0158605-2.8988743z" fill="#dedffb"/></g></g></g><g><g><g><g><g><path d="m41.3193321 25.6789856c-.4697266 0-.9384766-.105957-1.3027344-.3173828l-6.6269531-3.8510742c-.3740234-.2177734-.5800781-.515625-.5800781-.8393555.0009766-.3256836.2099609-.6254883.5888672-.8442383l6.6669922-3.8496094c.7207031-.4160156 1.8916016-.4160156 2.6083984 0l6.6269531 3.8510742c.3740234.2172852.5800781.515625.5800781.8393555 0 .3256836-.2089844.6254883-.5878906.8447266l-6.6669922 3.8491211c-.3671875.2114258-.836914.3173828-1.3066406.3173828zm.0517578-9.7182617c-.4179688 0-.8359375.0922852-1.1552734.2763672l-6.6669922 3.8496094c-.2832031.1630859-.4384766.3706055-.4394531.5849609 0 .2124023.1533203.4179688.4306641.5791016l6.6269531 3.8510742c.6347656.3681641 1.6699219.3681641 2.3085938 0l6.6669922-3.8491211c.2822266-.1630859.4375-.3710938.4384766-.5854492 0-.2124023-.1533203-.4179688-.4306641-.5791016l-6.6269531-3.8510742c-.3173829-.1845703-.7343751-.2763672-1.1523439-.2763672zm-7.8974609 3.9960937h.0039062z" fill="#9ea9c9"/></g></g><g><g><g enable-background="new"><g><path d="m33.2227249 15.9168873 6.8305435 3.969492c.6973991.4052887 1.8322067.4052887 2.5342026 0l6.8722687-3.9677162c.353241-.2039413.5296936-.4716911.5289307-.7390451l.0106583 3.7657461c.0007629.267355-.175663.5351048-.5289001.7390747l-6.8722992 3.9677162c-.7019691.4052887-1.8367729.4052601-2.5341759-.0000286l-6.8305702-3.9694633c-.3464432-.2013493-.5198784-.4648972-.5206375-.7288399l-.010685-3.7657471c.000759.2639426.1741942.5274915.5206641.7288112z" fill="#e9e7fc"/></g><g><g><path d="m33.2309875 14.4490042c-.7019844.4052916-.7056847 1.0626097-.0082741 1.4679012l6.830555 3.9694834c.6974144.4052925 1.8322105.4052982 2.5341988.0000057l6.8722763-3.9677105c.7019844-.4052916.7056847-1.0626097.0082703-1.4679012l-6.8305511-3.9694843c-.6974144-.4052916-1.8322144-.4052973-2.5341988-.0000057z" fill="#f3f1fc"/></g></g></g></g><g><g><path d="m35.558342 15.1838179 5.7681541 3.352086 5.805893-3.3520336-5.768158-3.3520861z" fill="#4c5c75"/></g></g><g><g><g><path d="m48.1153336 17.6383839c.1491623-.0861206.2729149-.0156097.2734032.1557808.0004845.171402-.1224632.384346-.2716293.4704666l-3.8322334 2.2125416c-.1491623.0861187-.2728958.0155964-.2733841-.1558056-.0004845-.1713886.1224442-.3843231.2716103-.4704437z" fill="#4c5c75"/></g></g><g><g><path d="m48.1199036 19.2501564c.1491623-.0861206.2729149-.0156097.2734032.1557808.0004845.171402-.1224632.384346-.2716293.4704666l-3.8322334 2.2125416c-.1491623.0861206-.2728958.0155964-.2733841-.1558037-.0004845-.1713905.1224442-.384325.2716103-.4704437z" fill="#4c5c75"/></g></g></g></g></g><g><path d="m41.3660431 12.2880297-5.0254059 2.8989324 4.9872246 2.8988743 5.0158615-2.8988743z" fill="#8fabfe"/></g><g><g><g><path d="m41.3193321 25.6789856c-.4697266 0-.9384766-.105957-1.3027344-.3173828l-6.6269531-3.8510742c-.3740234-.2177734-.5800781-.515625-.5800781-.8393555.0009766-.3256836.2099609-.6254883.5888672-.8442383l6.6669922-3.8496094c.7207031-.4160156 1.8916016-.4160156 2.6083984 0l6.6269531 3.8510742c.3740234.2172852.5800781.515625.5800781.8393555 0 .3256836-.2089844.6254883-.5878906.8447266l-6.6669922 3.8491211c-.3671875.2114258-.836914.3173828-1.3066406.3173828zm.0517578-9.7182617c-.4179688 0-.8359375.0922852-1.1552734.2763672l-6.6669922 3.8496094c-.2832031.1630859-.4384766.3706055-.4394531.5849609 0 .2124023.1533203.4179688.4306641.5791016l6.6269531 3.8510742c.6347656.3681641 1.6699219.3681641 2.3085938 0l6.6669922-3.8491211c.2822266-.1630859.4375-.3710938.4384766-.5854492 0-.2124023-.1533203-.4179688-.4306641-.5791016l-6.6269531-3.8510742c-.3173829-.1845703-.7343751-.2763672-1.1523439-.2763672zm-7.8974609 3.9960937h.0039062z" fill="#9ea9c9"/></g></g><g><g><g><g><g><path d="m50.0006676 18.9412537c0 .2700195-.1799927.5400391-.5300293.7400513l-6.8699951 3.9699707c-.7000122.4099731-1.8399658.4099731-2.539978 0l-6.8300171-3.9699707c-.3399658-.2000122-.5199585-.460022-.5199585-.7300415l-.0100098-3.7600098c0-.2699585.1799927-.539978.5299683-.7399902l6.8699951-3.9699707c.7000122-.4100342 1.8400269-.4100342 2.5400391 0l6.8299561 3.9699707c.3400269.2000122.5200195.460022.5200195.7300415z" fill="#dedffb"/></g></g></g><g enable-background="new"><g><path d="m33.2227249 15.9168873 6.8305435 3.969492c.6973991.4052887 1.8322067.4052887 2.5342026 0l6.8722687-3.9677162c.353241-.2039413.5296936-.4716911.5289307-.7390451l.0106583 3.7657461c.0007629.267355-.175663.5351048-.5289001.7390747l-6.8722992 3.9677162c-.7019691.4052887-1.8367729.4052601-2.5341759-.0000286l-6.8305702-3.9694633c-.3464432-.2013493-.5198784-.4648972-.5206375-.7288399l-.010685-3.7657471c.000759.2639426.1741942.5274915.5206641.7288112z" fill="#dedffb"/></g><g><g><path d="m33.2309875 14.4490042c-.7019844.4052916-.7056847 1.0626097-.0082741 1.4679012l6.830555 3.9694834c.6974144.4052925 1.8322105.4052982 2.5341988.0000057l6.8722763-3.9677105c.7019844-.4052916.7056847-1.0626097.0082703-1.4679012l-6.8305511-3.9694843c-.6974144-.4052916-1.8322144-.4052973-2.5341988-.0000057z" fill="#f3f1fc"/></g></g></g></g><g><g><path d="m35.558342 15.1838179 5.7681541 3.352086 5.805893-3.3520336-5.768158-3.3520861z" fill="#4c5c75"/></g></g></g></g><g><path d="m41.3660431 12.2880297-5.0254059 2.8989324 4.9872246 2.8988743 5.0158615-2.8988743z" fill="#dedffb"/></g></g></g></g><g><path d="m19.5624981 25.5388489c-.0253906 0-.0517578-.0063477-.0751953-.0200195l-3.921876-2.2641602c-.0712891-.0415039-.0957031-.1333008-.0546875-.2050781.0410156-.0708008.1347656-.0952148.2050781-.0546875l3.921876 2.2641602c.0712891.0415039.0957031.1333008.0546875.2050781-.0273437.0478515-.078125.074707-.1298828.074707z" fill="#9ea9c9"/></g><g><path d="m35.2333946 34.5862122c-.0253906 0-.0517578-.0063477-.0751953-.0200195l-3.5517559-2.0507812c-.0712891-.0415039-.0957031-.1333008-.0546875-.2050781.0410156-.0708008.1337891-.0952148.2050781-.0546875l3.5517559 2.0507812c.0712891.0415039.0957031.1333008.0546875.2050781-.0273437.0478515-.078125.074707-.1298828.074707z" fill="#9ea9c9"/></g><g><path d="m32.1943321 25.0290833c-.0517578 0-.1025391-.0268555-.1298828-.074707-.0410156-.0717773-.0166016-.1635742.0546875-.2050781l3.5947266-2.0751953c.0703125-.0415039.1640625-.0170898.2050781.0546875s.0166016.1635742-.0546875.2050781l-3.5947266 2.0751953c-.0234375.0136718-.0498047.0200195-.0751953.0200195z" fill="#9ea9c9"/></g><g><path d="m15.6406221 34.5862122c-.0517578 0-.1025391-.0268555-.1298828-.074707-.0410156-.0717773-.0166016-.1635742.0546875-.2050781l4.1816416-2.4140625c.0703125-.0424805.1640625-.0175781.2050781.0546875.0410023.0717773.0166016.1635742-.0546875.2050781l-4.1816416 2.4140625c-.0234374.0136718-.0498046.0200195-.0751953.0200195z" fill="#9ea9c9"/></g><g><g><g><g><path d="m41.3818321 43.4187317c-.4726562 0-.9453125-.1044922-1.3056641-.3125l-6.6679688-3.8496094c-.3789062-.21875-.5869141-.5185547-.5878906-.8442383 0-.3237305.2060547-.621582.5800781-.8393555l6.6269531-3.8510742c.7285156-.4228516 1.875-.4238281 2.609375 0l6.6669922 3.8491211c.3789062.21875.5869141.5185547.5878906.8442383 0 .3237305-.2050781.6220703-.5800781.8398438l-6.6269531 3.8510742c-.3583983.2080078-.830078.3125-1.3027343.3125zm-.0517578-9.7133789c-.4179688 0-.8349609.0922852-1.1523438.2763672l-6.6269531 3.8510742c-.2773438.1611328-.4306641.3671875-.4306641.5791016.0009766.2143555.15625.421875.4384766.5849609l6.6679688 3.8496094c.6386719.3681641 1.6728516.3691406 2.3076172 0l6.6269531-3.8510742c.2773438-.1616211.4306641-.3671875.4306641-.5795898-.0009766-.2143555-.15625-.421875-.4384766-.5849609l-6.6669922-3.8491212c-.3193359-.1840821-.7382812-.2763672-1.15625-.2763672z" fill="#9ea9c9"/></g></g><g><g><g enable-background="new"><g><path d="m49.4786644 33.6612701-6.8305435 3.9694901c-.6973991.4052887-1.8322029.4052887-2.5341988 0l-6.8722725-3.9677162c-.353241-.2039413-.5296898-.4716911-.5289307-.7390442l-.0106583 3.7657471c-.0007591.2673531.175663.5351028.5289001.7390747l6.872303 3.9677162c.7019653.4052887 1.8367729.4052582 2.5341721-.0000305l6.8305702-3.9694633c.3464432-.2013474.5198784-.4648972.5206375-.7288399l.0106888-3.7657471c-.0007628.2639427-.174198.5274925-.5206679.7288131z" fill="#e9e7fc"/></g><g><g><path d="m49.4704018 32.1933861c.7019882.4052925.7056885 1.0626106.0082741 1.4679031l-6.830555 3.9694824c-.6974106.4052925-1.8322105.4052963-2.5341949.0000038l-6.8722801-3.9677086c-.7019844-.4052925-.7056847-1.0626106-.0082703-1.4679031l6.8305511-3.9694824c.6974144-.4052925 1.8322144-.4052982 2.5341988-.0000057z" fill="#f3f1fc"/></g></g></g></g><g><g><path d="m47.1430473 32.9281998-5.7681541 3.3520851-5.805893-3.3520317 5.768158-3.352087z" fill="#4c5c75"/></g></g><g><g><g><path d="m43.926857 39.1500473c.2151489-.1242142.3907089-.0208778.3914185.2296181.0007019.2472115-.1736984.5525856-.3888474.6767998l-.9236221.5332527c-.2151489.124218-.3935661.022541-.394268-.2246666-.0007095-.2504997.176548-.5575333.3916969-.6817513z" fill="#4c5c75"/></g></g><g><g><path d="m43.9222908 37.5382729c.2151451-.1242142.3907051-.0208778.3914146.2296181.0007019.2472115-.173687.5558815-.3888359.6800995l-.9236221.5332527c-.2151489.124218-.3935776.0192451-.3942757-.2279663-.0007133-.2504959.176548-.5575333.3916969-.6817474z" fill="#f45170"/></g></g><g><g><path d="m48.8277283 34.8480873c.1491661-.0861206.2729187-.0156097.2734032.1557808.0004883.171402-.1224632.384346-.2716255.4704666l-3.8322334 2.2125435c-.1491661.0861206-.2728996.0155945-.2733841-.1558037-.0004845-.1713905.1224442-.3843269.2716064-.4704437z" fill="#4c5c75"/></g></g><g><g><path d="m48.8322983 36.4598618c.1491661-.0861206.2729187-.0156097.2734032.1557808.0004883.171402-.1224632.384346-.2716255.4704666l-3.8322334 2.2125397c-.1491661.0861206-.2728996.0155983-.2733841-.1558037-.0004845-.1713905.1224442-.3843231.2716064-.4704437z" fill="#4c5c75"/></g></g></g><g><g><g><path d="m34.5860558 35.3827667c-.1491623-.0861206-.2729149-.0156097-.2734032.1557808-.0004845.171402.1224632.384346.2716293.4704666l3.8322334 2.2125397c.1491661.0861206.2728958.0155983.2733841-.1558037.0004845-.1713905-.1224442-.3843231-.2716103-.4704437z" fill="#4c5c75"/></g></g><g><g><path d="m34.5814896 36.9945374c-.1491661-.0861206-.2729187-.0156097-.2734032.1557808-.0004883.171402.1224632.384346.2716255.4704666l3.8322334 2.2125435c.1491661.0861206.2728996.0155945.2733841-.1558037.0004845-.1713905-.1224442-.3843269-.2716064-.4704437z" fill="#4c5c75"/></g></g></g></g></g><g><path d="m41.3353462 30.0324116 5.0254059 2.8989315-4.9872246 2.8988762-5.0158615-2.8988762z" fill="#8fabfe"/></g><g><g><g><path d="m41.3818321 43.4187317c-.4726562 0-.9453125-.1044922-1.3056641-.3125l-6.6679688-3.8496094c-.3789062-.21875-.5869141-.5185547-.5878906-.8442383 0-.3237305.2060547-.621582.5800781-.8393555l6.6269531-3.8510742c.7285156-.4228516 1.875-.4238281 2.609375 0l6.6669922 3.8491211c.3789062.21875.5869141.5185547.5878906.8442383 0 .3237305-.2050781.6220703-.5800781.8398438l-6.6269531 3.8510742c-.3583983.2080078-.830078.3125-1.3027343.3125zm-.0517578-9.7133789c-.4179688 0-.8349609.0922852-1.1523438.2763672l-6.6269531 3.8510742c-.2773438.1611328-.4306641.3671875-.4306641.5791016.0009766.2143555.15625.421875.4384766.5849609l6.6679688 3.8496094c.6386719.3681641 1.6728516.3691406 2.3076172 0l6.6269531-3.8510742c.2773438-.1616211.4306641-.3671875.4306641-.5795898-.0009766-.2143555-.15625-.421875-.4384766-.5849609l-6.6669922-3.8491212c-.3193359-.1840821-.7382812-.2763672-1.15625-.2763672z" fill="#9ea9c9"/></g></g><g><g><g><g><g><path d="m50.0006676 32.9313049-.0100098 3.7699585c0 .2600098-.1799927.5200195-.5200195.7300415l-6.8299561 3.9699707c-.7000122.4000244-1.8400269.4000244-2.5400391 0l-6.8699951-3.9699707c-.3499756-.210022-.5299683-.4700317-.5299683-.7400513l.0100098-3.7599487c0-.2700195.1799927-.5400391.5199585-.7400513l6.8300171-3.9699707c.7000122-.4000244 1.8399658-.4000244 2.539978 0l6.8699951 3.9699707c.3500367.210022.5300294.4700318.5300294.7400513z" fill="#dedffb"/></g></g></g><g enable-background="new"><g><path d="m49.4786644 33.6612701-6.8305435 3.9694901c-.6973991.4052887-1.8322029.4052887-2.5341988 0l-6.8722725-3.9677162c-.353241-.2039413-.5296898-.4716911-.5289307-.7390442l-.0106583 3.7657471c-.0007591.2673531.175663.5351028.5289001.7390747l6.872303 3.9677162c.7019653.4052887 1.8367729.4052582 2.5341721-.0000305l6.8305702-3.9694633c.3464432-.2013474.5198784-.4648972.5206375-.7288399l.0106888-3.7657471c-.0007628.2639427-.174198.5274925-.5206679.7288131z" fill="#dedffb"/></g><g><g><path d="m49.4704018 32.1933861c.7019882.4052925.7056885 1.0626106.0082741 1.4679031l-6.830555 3.9694824c-.6974106.4052925-1.8322105.4052963-2.5341949.0000038l-6.8722801-3.9677086c-.7019844-.4052925-.7056847-1.0626106-.0082703-1.4679031l6.8305511-3.9694824c.6974144-.4052925 1.8322144-.4052982 2.5341988-.0000057z" fill="#f3f1fc"/></g></g></g></g><g><g><path d="m47.1430473 32.9281998-5.7681541 3.3520851-5.805893-3.3520317 5.768158-3.352087z" fill="#4c5c75"/></g></g><g><g><g><path d="m44.2806816 38.8890991c.1756935-.1014366.3190613-.0170517.3196411.1875114.0005722.2018776-.1418495.451252-.317543.5526886l-.7542496.4354668c-.1756973.1014404-.3213959.0184097-.3219681-.1834679-.0005798-.2045631.1441727-.4552956.31987-.5567322z" fill="#4c5c75"/></g></g><g><g><path d="m44.2769508 37.5728912c.1756935-.1014404.3190575-.0170517.3196373.1875076.0005722.2018814-.1418381.4539452-.3175316.5553856l-.7542496.4354668c-.1756973.1014366-.3214035.0157127-.3219757-.1861649-.0005798-.2045593.1441727-.4552917.31987-.5567284z" fill="#f45170"/></g></g><g><g><path d="m48.2828445 35.3760223c.1218109-.0703278.2228699-.0127449.2232666.1272163.0003967.1399689-.1000061.3138657-.221817.3841934l-3.1294899 1.8068085c-.1218109.0703278-.2228546.0127373-.2232513-.1272316-.0003967-.1399612.0999908-.3138466.2218018-.3841743z" fill="#4c5c75"/></g></g><g><g><path d="m48.2865753 36.692234c.1218109-.0703278.2228699-.0127487.2232666.1272125.0003967.1399727-.1000061.3138657-.221817.3841934l-3.1294899 1.8068123c-.1218109.0703278-.2228508.0127373-.2232475-.1272354-.0003967-.1399612.099987-.3138466.2217979-.3841743z" fill="#4c5c75"/></g></g></g><g><g><g><path d="m38.5372429 38.8890991c-.1756935-.1014366-.3190575-.0170517-.3196373.1875114-.0005722.2018776.1418457.451252.3175392.5526886l.7542534.4354668c.1756935.1014404.3213921.0184097.3219643-.1834679.0005798-.2045631-.1441727-.4552956-.3198662-.5567322z" fill="#f45170"/></g></g><g><g><path d="m38.5409775 37.5728912c-.1756973-.1014404-.3190613-.0170517-.3196411.1875076-.0005722.2018814.1418381.4539452.3175354.5553856l.7542496.4354668c.1756935.1014366.3213997.0157127.3219719-.1861649.0005836-.2045593-.1441727-.4552917-.3198662-.5567284z" fill="#72d561"/></g></g><g><g><path d="m34.5350838 35.3760223c-.1218109-.0703278-.2228699-.0127449-.2232666.1272163-.0003967.1399689.1000061.3138657.221817.3841934l3.1294861 1.8068085c.1218109.0703278.2228546.0127373.2232513-.1272316.0003967-.1399612-.0999908-.3138466-.2218018-.3841743z" fill="#72d561"/></g></g><g><g><path d="m34.531353 36.692234c-.1218109-.0703278-.2228699-.0127487-.2232666.1272125-.0003967.1399727.1000061.3138657.221817.3841934l3.1294861 1.8068123c.1218109.0703278.2228546.0127373.2232513-.1272354.0003967-.1399612-.0999908-.3138466-.2218018-.3841743z" fill="#f45170"/></g></g></g></g></g><g><path d="m41.3353462 30.0324116 5.0254059 2.8989315-4.9872246 2.8988762-5.0158615-2.8988762z" fill="#dedffb"/></g></g><g><g><g><g><path d="m10.6171846 43.4187317c-.4726562 0-.9453125-.1044922-1.3037109-.3125l-6.6259761-3.8510742c-.375-.2177734-.5800781-.5161133-.5800781-.8398438.0009766-.3256836.2089844-.6254883.5878906-.8442383l6.6669917-3.8491211c.7216797-.4160156 1.8935547-.4160156 2.609375 0l6.6259775 3.8510742c.375.2177734.5810547.5161133.5800781.8398438 0 .3256836-.2089844.6254883-.5878906.84375l-6.6669931 3.8496094c-.3603516.2084961-.8339844.3125-1.3056641.3125zm-7.7714839-5.5878906c-.2822266.1630859-.4375.3706055-.4384766.5849609 0 .2124023.1533203.4179688.4306641.5795898l6.6259761 3.8510742c.6367188.3701172 1.671875.3691406 2.3085938 0l6.6669931-3.8496094c.2822266-.1625977.4384766-.3701172.4384766-.5844727 0-.2124023-.1523438-.4179688-.4306641-.5795898l-6.6259775-3.8510741c-.6347656-.3691406-1.6699219-.3681641-2.3085938 0z" fill="#9ea9c9"/></g></g><g><g><g enable-background="new"><g><path d="m2.5199988 33.6612701 6.8305416 3.9694901c.6974001.4052887 1.8322058.4052887 2.5342016 0l6.8722715-3.9677162c.3532391-.2039413.5296898-.4716911.5289288-.7390442l.0106583 3.7657471c.000761.2673531-.1756611.5351028-.5289001.7390747l-6.8723005 3.9677162c-.7019682.4052887-1.8367729.4052582-2.534174-.0000305l-6.8305693-3.9694633c-.3464444-.2013474-.5198781-.4648972-.5206394-.7288399l-.0106862-3.7657471c.0007614.2639427.1741949.5274925.5206677.7288131z" fill="#e9e7fc"/></g><g><g><path d="m2.528259 32.1933861c-.7019855.4052925-.7056851 1.0626106-.0082719 1.4679031l6.8305531 3.9694824c.6974134.4052925 1.8322115.4052963 2.5341978.0000038l6.8722773-3.9677086c.7019844-.4052925.7056847-1.0626106.0082722-1.4679031l-6.8305531-3.9694824c-.6974134-.4052925-1.8322124-.4052982-2.5341978-.0000057z" fill="#f3f1fc"/></g></g></g></g><g><g><path d="m4.8556132 32.9281998 5.7681566 3.3520851 5.805891-3.3520317-5.7681561-3.352087z" fill="#4c5c75"/></g></g><g><g><g><path d="m8.071804 39.1500473c-.2151489-.1242142-.3907065-.0208778-.391417.2296181-.0007005.2472115.1736984.5525856.3888469.6767998l.9236221.5332527c.2151489.124218.3935661.022541.3942671-.2246666.0007105-.2504997-.176549-.5575333-.3916969-.6817513z" fill="#4c5c75"/></g></g><g><g><path d="m8.0763731 37.5382729c-.2151484-.1242142-.3907065-.0208778-.3914165.2296181-.000701.2472115.1736889.5558815.3888378.6800995l.9236221.5332527c.215148.124218.3935747.0192451.3942757-.2279663.0007105-.2504959-.176548-.5575333-.3916969-.6817474z" fill="#f45170"/></g></g><g><g><path d="m3.1709321 34.8480873c-.1491644-.0861206-.272917-.0156097-.2734029.1557808-.0004859.171402.122463.384346.2716274.4704666l3.8322334 2.2125435c.1491647.0861206.2728977.0155945.2733836-.1558037.0004859-.1713905-.1224437-.3843269-.2716084-.4704437z" fill="#4c5c75"/></g></g><g><g><path d="m3.1663628 36.4598618c-.1491647-.0861206-.272917-.0156097-.2734029.1557808-.0004859.171402.122463.384346.2716274.4704666l3.8322332 2.2125397c.1491647.0861206.2728977.0155983.2733836-.1558037.0004859-.1713905-.1224432-.3843231-.2716079-.4704437z" fill="#4c5c75"/></g></g></g><g><g><g><path d="m17.4126053 35.3827667c.1491642-.0861206.2729168-.0156097.2734032.1557808.0004845.171402-.1224632.384346-.2716274.4704666l-3.8322344 2.2125397c-.1491642.0861206-.2728968.0155983-.2733831-.1558037-.0004854-.1713905.1224432-.3843231.2716084-.4704437z" fill="#4c5c75"/></g></g><g><g><path d="m17.4171734 36.9945374c.1491661-.0861206.2729187-.0156097.2734032.1557808.0004864.171402-.1224613.384346-.2716274.4704666l-3.8322325 2.2125435c-.1491652.0861206-.2728977.0155945-.2733841-.1558037-.0004854-.1713905.1224442-.3843269.2716084-.4704437z" fill="#4c5c75"/></g></g></g></g></g><g><path d="m10.6633148 30.0324116-5.0254059 2.8989315 4.9872256 2.8988762 5.0158596-2.8988762z" fill="#8fabfe"/></g><g><g><g><path d="m10.6171846 43.4187317c-.4726562 0-.9453125-.1044922-1.3037109-.3125l-6.6259761-3.8510742c-.375-.2177734-.5800781-.5161133-.5800781-.8398438.0009766-.3256836.2089844-.6254883.5878906-.8442383l6.6669917-3.8491211c.7216797-.4160156 1.8935547-.4160156 2.609375 0l6.6259775 3.8510742c.375.2177734.5810547.5161133.5800781.8398438 0 .3256836-.2089844.6254883-.5878906.84375l-6.6669931 3.8496094c-.3603516.2084961-.8339844.3125-1.3056641.3125zm-7.7714839-5.5878906c-.2822266.1630859-.4375.3706055-.4384766.5849609 0 .2124023.1533203.4179688.4306641.5795898l6.6259761 3.8510742c.6367188.3701172 1.671875.3691406 2.3085938 0l6.6669931-3.8496094c.2822266-.1625977.4384766-.3701172.4384766-.5844727 0-.2124023-.1523438-.4179688-.4306641-.5795898l-6.6259775-3.8510741c-.6347656-.3691406-1.6699219-.3681641-2.3085938 0z" fill="#9ea9c9"/></g></g><g><g><g><g><g><path d="m19.3006573 36.6912537c0 .2700195-.1799927.5300293-.5299683.7400513l-6.8800058 3.9699707c-.7000122.4000244-1.8300171.4000244-2.5300293 0l-6.8300166-3.9699707c-.3499756-.210022-.5199585-.4700317-.5199585-.7300415l-.0100098-3.7699586c0-.2700195.1799927-.5300293.5299683-.7400513l6.8699946-3.9699707c.7000122-.4000244 1.8400269-.4000244 2.5300293 0l6.830018 3.9699707c.3499756.2000122.5299683.4700317.5299683.7400513z" fill="#dedffb"/></g></g></g><g enable-background="new"><g><path d="m2.5199988 33.6612701 6.8305416 3.9694901c.6974001.4052887 1.8322058.4052887 2.5342016 0l6.8722715-3.9677162c.3532391-.2039413.5296898-.4716911.5289288-.7390442l.0106583 3.7657471c.000761.2673531-.1756611.5351028-.5289001.7390747l-6.8723005 3.9677162c-.7019682.4052887-1.8367729.4052582-2.534174-.0000305l-6.8305693-3.9694633c-.3464444-.2013474-.5198781-.4648972-.5206394-.7288399l-.0106862-3.7657471c.0007614.2639427.1741949.5274925.5206677.7288131z" fill="#dedffb"/></g><g><g><path d="m2.528259 32.1933861c-.7019855.4052925-.7056851 1.0626106-.0082719 1.4679031l6.8305531 3.9694824c.6974134.4052925 1.8322115.4052963 2.5341978.0000038l6.8722773-3.9677086c.7019844-.4052925.7056847-1.0626106.0082722-1.4679031l-6.8305531-3.9694824c-.6974134-.4052925-1.8322124-.4052982-2.5341978-.0000057z" fill="#f3f1fc"/></g></g></g></g><g><g><path d="m4.8556132 32.9281998 5.7681566 3.3520851 5.805891-3.3520317-5.7681561-3.352087z" fill="#4c5c75"/></g></g></g></g><g><path d="m10.6633148 30.0324116-5.0254059 2.8989315 4.9872256 2.8988762 5.0158596-2.8988762z" fill="#dedffb"/></g></g></g><g><g><g><g><path d="m7.7815785 38.8890991c-.1756949-.1014366-.3190594-.0170517-.3196392.1875114-.0005727.2018776.1418457.451252.3175411.5526886l.75425.4354668c.1756954.1014404.3213949.0184097.3219671-.1834679.0005798-.2045631-.1441736-.4552956-.3198681-.5567322z" fill="#4c5c75"/></g></g><g><g><path d="m7.7853103 37.5728912c-.1756954-.1014404-.3190598-.0170517-.3196397.1875076-.0005722.2018814.1418386.4539452.3175335.5553856l.7542505.4354668c.1756954.1014366.3214025.0157127.3219748-.1861649.0005798-.2045593-.1441736-.4552917-.319869-.5567284z" fill="#f45170"/></g></g><g><g><path d="m3.7794173 35.3760223c-.1218112-.0703278-.2228701-.0127449-.2232668.1272163-.000397.1399689.1000059.3138657.221817.3841934l3.1294875 1.8068085c.1218109.0703278.2228541.0127373.2232509-.1272316.0003967-.1399612-.0999899-.3138466-.2218013-.3841743z" fill="#4c5c75"/></g></g><g><g><path d="m3.7756858 36.692234c-.1218112-.0703278-.2228701-.0127487-.2232668.1272125-.000397.1399727.1000059.3138657.221817.3841934l3.1294873 1.8068123c.1218114.0703278.2228546.0127373.2232513-.1272354.0003967-.1399612-.0999904-.3138466-.2218013-.3841743z" fill="#4c5c75"/></g></g></g><g><g><g><path d="m13.5250158 38.8890991c.1756945-.1014366.3190594-.0170517.3196392.1875114.0005722.2018776-.1418457.451252-.3175411.5526886l-.7542505.4354668c-.1756945.1014404-.3213949.0184097-.3219671-.1834679-.0005798-.2045631.1441736-.4552956.319869-.5567322z" fill="#f45170"/></g></g><g><g><path d="m13.5212841 37.5728912c.1756954-.1014404.3190594-.0170517.3196392.1875076.0005722.2018814-.1418381.4539452-.3175335.5553856l-.7542496.4354668c-.1756954.1014366-.3214025.0157127-.3219748-.1861649-.0005808-.2045593.1441727-.4552917.3198681-.5567284z" fill="#72d561"/></g></g><g><g><path d="m17.5271778 35.3760223c.1218109-.0703278.2228699-.0127449.2232666.1272163.0003967.1399689-.1000061.3138657-.221817.3841934l-3.129488 1.8068085c-.1218109.0703278-.2228546.0127373-.2232513-.1272316-.0003967-.1399612.0999899-.3138466.2218018-.3841743z" fill="#72d561"/></g></g><g><g><path d="m17.5309086 36.692234c.1218109-.0703278.2228699-.0127487.2232666.1272125.0003967.1399727-.1000061.3138657-.221817.3841934l-3.129487 1.8068123c-.1218119.0703278-.2228546.0127373-.2232513-.1272354-.0003967-.1399612.0999899-.3138466.2218008-.3841743z" fill="#f45170"/></g></g></g></g><g><g><g><g><path d="m13.5250158 21.3389282c.1756945-.1014385.3190594-.0170517.3196392.1875095.0005722.2018795-.1418457.4512539-.3175411.5526905l-.7542505.4354668c-.1756945.1014385-.3213949.0184078-.3219671-.1834698-.0005798-.2045612.1441736-.4552937.319869-.5567322z" fill="#4c5c75"/></g></g><g><g><path d="m13.5212841 20.0227184c.1756954-.1014385.3190594-.0170517.3196392.1875095.0005722.2018776-.1418381.4539452-.3175335.5553837l-.7542496.4354668c-.1756954.1014366-.3214025.0157146-.3219748-.1861629-.0005808-.2045612.1441727-.4552937.3198681-.5567322z" fill="#f45170"/></g></g><g><g><path d="m17.5271778 17.8258514c.1218109-.0703278.2228699-.0127468.2232666.1272144.0003967.1399708-.1000061.3138657-.221817.3841934l-3.129488 1.8068104c-.1218109.0703278-.2228546.0127373-.2232513-.1272335-.0003967-.1399612.0999899-.3138466.2218018-.3841743z" fill="#4c5c75"/></g></g><g><g><path d="m17.5309086 19.1420612c.1218109-.0703278.2228699-.0127468.2232666.1272144.0003967.1399708-.1000061.3138657-.221817.3841934l-3.129487 1.8068104c-.1218119.0703278-.2228546.0127373-.2232513-.1272335-.0003967-.1399612.0999899-.3138466.2218008-.3841743z" fill="#4c5c75"/></g></g></g><g><g><g><path d="m7.7815785 21.3389282c-.1756949-.1014385-.3190594-.0170517-.3196392.1875095-.0005727.2018795.1418457.4512539.3175411.5526905l.75425.4354668c.1756954.1014385.3213949.0184078.3219671-.1834698.0005798-.2045612-.1441736-.4552937-.3198681-.5567322z" fill="#f45170"/></g></g><g><g><path d="m7.7853103 20.0227184c-.1756954-.1014385-.3190598-.0170517-.3196397.1875095-.0005722.2018776.1418386.4539452.3175335.5553837l.7542505.4354668c.1756954.1014366.3214025.0157146.3219748-.1861629.0005798-.2045612-.1441736-.4552937-.319869-.5567322z" fill="#72d561"/></g></g><g><g><path d="m3.7794173 17.8258514c-.1218112-.0703278-.2228701-.0127468-.2232668.1272144-.000397.1399708.1000059.3138657.221817.3841934l3.1294875 1.8068104c.1218109.0703278.2228541.0127373.2232509-.1272335.0003967-.1399612-.0999899-.3138466-.2218013-.3841743z" fill="#72d561"/></g></g><g><g><path d="m3.7756858 19.1420612c-.1218112-.0703278-.2228701-.0127468-.2232668.1272144-.000397.1399708.1000059.3138657.221817.3841934l3.1294873 1.8068104c.1218114.0703278.2228546.0127373.2232513-.1272335.0003967-.1399612-.0999904-.3138466-.2218013-.3841743z" fill="#f45170"/></g></g></g></g><g><g><g><g><path d="m44.4829216 21.3389282c.1756973-.1014385.3190613-.0170517.3196411.1875095.0005722.2018795-.1418457.4512539-.317543.5526905l-.7542496.4354668c-.1756935.1014385-.3213959.0184078-.3219681-.1834698-.0005798-.2045612.1441765-.4552937.31987-.5567322z" fill="#4c5c75"/></g></g><g><g><path d="m44.4791908 20.0227184c.1756935-.1014385.3190613-.0170517.3196411.1875095.0005722.2018776-.1418381.4539452-.3175354.5553837l-.7542496.4354668c-.1756935.1014366-.3214035.0157146-.3219757-.1861629-.0005798-.2045612.1441727-.4552937.31987-.5567322z" fill="#f45170"/></g></g><g><g><path d="m48.4850845 17.8258514c.1218109-.0703278.2228699-.0127468.2232666.1272144.0003967.1399708-.1000061.3138657-.221817.3841934l-3.1294861 1.8068104c-.1218147.0703278-.2228546.0127373-.2232513-.1272335-.0003967-.1399612.099987-.3138466.2217979-.3841743z" fill="#4c5c75"/></g></g><g><g><path d="m48.4888153 19.1420612c.1218109-.0703278.2228699-.0127468.2232666.1272144.0003967.1399708-.1000061.3138657-.221817.3841934l-3.1294861 1.8068104c-.1218109.0703278-.2228546.0127373-.2232513-.1272335-.0003967-.1399612.0999908-.3138466.2218018-.3841743z" fill="#4c5c75"/></g></g></g><g><g><g><path d="m38.7394867 21.3389282c-.1756973-.1014385-.3190613-.0170517-.3196411.1875095-.0005722.2018795.1418457.4512539.317543.5526905l.7542496.4354668c.1756935.1014385.3213959.0184078.3219681-.1834698.0005798-.2045612-.1441765-.4552937-.31987-.5567322z" fill="#f45170"/></g></g><g><g><path d="m38.7432175 20.0227184c-.1756973-.1014385-.3190613-.0170517-.3196411.1875095-.0005722.2018776.1418381.4539452.3175354.5553837l.7542496.4354668c.1756935.1014366.3214035.0157146.3219757-.1861629.0005798-.2045612-.1441727-.4552937-.31987-.5567322z" fill="#72d561"/></g></g><g><g><path d="m34.7373238 17.8258514c-.1218109-.0703278-.2228699-.0127468-.2232666.1272144-.0003967.1399708.1000061.3138657.221817.3841934l3.1294861 1.8068104c.1218109.0703278.2228546.0127373.2232513-.1272335.0003967-.1399612-.099987-.3138466-.2218018-.3841743z" fill="#72d561"/></g></g><g><g><path d="m34.733593 19.1420612c-.1218109-.0703278-.2228699-.0127468-.2232666.1272144-.0003967.1399708.1000061.3138657.221817.3841934l3.1294861 1.8068104c.1218109.0703278.2228546.0127373.2232513-.1272335.0003967-.1399612-.0999908-.3138466-.2218018-.3841743z" fill="#f45170"/></g></g></g></g></g><g><g><g><path d="m33.8371925 28.7427177h-.0089225c.0935822 1.0783386-.6594582 2.1789246-2.2635574 3.0032749-3.0567417 1.5729046-8.0205517 1.5684452-11.0906467 0-1.6041279-.819891-2.3749828-1.9026623-2.3081341-2.9765396h-.0044613l.008894-.0579281.0311947-.2183342.556982-3.8721447h14.4860115z" fill="#febc1f"/></g><g><path d="m31.1027794 21.9954987c2.8362808 1.4483166 2.8568954 3.7996712.0390873 5.2479935-2.8235188 1.4512558-7.4132614 1.4483776-10.2495422.000061-2.8362808-1.4483185-2.851265-3.7967968-.0277462-5.2480526 2.81781-1.4483204 7.4019203-1.4483204 10.2382011-.0000019z" fill="#ffd06c"/></g><g><path d="m29.0504036 23.0509777c1.6956577.8658695 1.707983 2.2716179.0233688 3.1374893-1.6880283.8676262-4.4319839.8659058-6.1276417.0000362s-1.7046146-2.2698975-.0165882-3.1375237c1.6846142-.8658713 4.4252034-.8658713 6.1208611-.0000018z" fill="#f3a250"/></g></g></g><g><g><g><g><path d="m31.3706646 18.3112488c-.9400024 2.6900024-2.4299927 5.0800171-4.4199829 7.1000366l-.0700073.0700073-.0700073.0100098c-1.1600342.1699829-2.1400146.0099487-2.9400024-.4500122-.0100098 0-.0200195 0-.0300293-.0100098l-1.6999512-.9899902c-.5900269-.3400269-1.0800171-.8400269-1.4800415-1.5100098-.9400024-1.5700073-1.3299561-4.0100098-1.1499634-7.2299805l.0100098-.2200317v-.0100098l.1799927-.0999756c.2799683-.1600342.5599976-.3400269.8299561-.5300293.8699951-.6099854 1.7000122-1.3599854 2.4900513-2.25.6900024-.7799683 1.3599854-1.6699829 1.9899902-2.6499634l.1300049-.2000122v-.0100097l.0499878.0300293.0800171.0299683c.289978.1199951.5799561.2000122.8899536.2600098.4299927.0900269.8699951.1099854 1.3300171.0700073.4199829-.0300293.8400269-.1099854 1.2800293-.2399902.5899658-.1700439 1.1900024-.4400024 1.8199463-.7900391l.0599976-.039978.1200562-.0700073 1.6900005.9899902.0199585.2000122c.1900022 3.0200195-.1799929 5.8900146-1.1099837 8.539978z" fill="#7e5af2"/></g></g></g></g><g><g><g><g><g><g><path d="m31.3742981 18.3106995c-.9445419 2.6919518-2.4321804 5.0816422-4.4251785 7.1029491l-.0708237.0708504-.0708523.0094261c-1.1617966.1653137-2.1535549.0094547-2.9705753-.4675426l-1.6954651-.9823036c-.5856133-.3447781-1.0767937-.8453846-1.4782124-1.5160007-.9398136-1.5726719-1.3270798-4.0048504-1.1523418-7.2304707l.0141811-.221982.1794662-.1038857c.2786236-.1652832.5572758-.3400507.8264732-.5336685.8689632-.6092196 1.7001648-1.3601437 2.4888496-2.2480154.6942539-.7839575 1.3601437-1.6671028 1.993-2.6541615l.1274929-.1983461.1275234.0519428c1.0814896.439209 2.2527428.4675436 3.5042439.0944595.5903378-.1747379 1.1948586-.4439354 1.8135338-.7934113l.1841927-.1039152 1.6954384.9870596.0141792.1983461c.1936189 3.0178195-.1794623 5.8892356-1.1051253 8.5386697z" fill="#7e5af2"/></g></g></g><g><g><g><g><g><g enable-background="new"><g><g><path d="m32.4648132 9.572278-.1803093.10252c-.622242.3535442-1.2268085.6187019-1.8172226.7919359-1.2515373.3747559-2.4253063.3429489-3.5036106-.0919247l-.1272697-.0530186-1.6970291-.9864016.1272926.0530405c1.0818424.4383907 2.2555904.4666796 3.5036106.0954628.5904121-.1767721 1.1949806-.4419298 1.8172207-.7954741l.1803112-.1025419z" fill="#b28afd"/></g></g><g><g><path d="m23.8384151 25.0260906-1.6970081-.9828415c-.5868721-.3429489-1.0783043-.8449745-1.4778099-1.5131779-.9404392-1.5732765-1.3293304-4.005661-1.1525593-7.2335186l.0141354-.2191963 1.6934891.9864025-.0106163.2156563c-.1767712 3.2313976.2121391 5.6637821 1.1490192 7.2335186.3995056.6681805.8944759 1.1737461 1.4813499 1.5131569z" fill="#b28afd"/></g></g><g><g><path d="m26.8353863 10.3221359.1277981.0517282c1.5878181.643218 3.3781624.4074659 5.3201294-.6987915l.1817551-.1034393.012928.201973c.1940613 3.0148211-.1785774 5.8878984-1.1058006 8.5367765-.9420586 2.6910648-2.4309025 5.0802116-4.4246731 7.1024361l-.0691528.0700588-.06954.0100155c-1.9987011.2828312-3.495985-.3822746-4.4504147-1.9783993-.9391918-1.5713024-1.3268776-4.0054035-1.1505127-7.2340927l.0117378-.2162132.1817493-.1064291c1.9418812-1.1360865 3.7277088-2.9650393 5.306694-5.4366121z" fill="#7e5af2"/></g></g></g></g></g><g><g><path d="m30.7650776 11.8122444c-.0047264 3.593976-.8973255 8.1561317-4.4724216 12.0003967-.6254196.0513668-1.1672173-.0180721-1.6402378-.1837883-.8490734-.4963112-1.4139881-1.3611813-1.7695465-2.4278564-.4297829-1.2940178-.5620041-2.8761425-.5336685-4.4393597 1.6104317-1.128706 3.1169777-2.6872244 4.4913025-4.6471319 1.2137412.3258686 2.5266398.2219534 3.9245719-.3022604z" fill="#fff"/></g></g><g><g><path d="m31.3577728 11.5640354c-.0813293.035346-.1755486.076704-.2533169.1120501-.1132889.0478401-.2249565.0873289-.3371658.1296873-.0060425 3.5934439-.900238 8.1609249-4.4750366 12.0057812-.6338062.0512066-1.1819038-.0200253-1.6588554-.1865692.5950298.3557892 1.3642082.5469017 2.273035.4734917 3.7440395-4.0268727 4.52911-8.8717299 4.4513397-12.5344411z" fill="#986ff9"/></g></g></g></g><g><g><path d="m27.209589 17.4488888c.1987495-.3311958.3179359-.7020931.3179359-1.033287 0-.5432062-.3444576-.7949181-.8080978-.635951.079483.1060057.1192665.2649736.1192665.4372015 0 .3311939-.1192665.7020912-.3180161 1.0201073l.6623898 1.6559772-1.7354603.9935856-.1854076.715353 2.6097813-1.5102711z" fill="#4c5c75"/></g><g><path d="m26.5206776 17.2369595c.1987495-.3180161.3180161-.6889133.3180161-1.0201073 0-.1722279-.0397835-.3311958-.1192665-.4372015-.0529633.0132608-.1060047.0397825-.1722279.079484-.5299454.317934-.9670658 1.0730705-.953804 1.6824989 0 .3311939.1059246.5696449.3046741.6623898l-.4504623 1.6824989 1.7354603-.9935856z" fill="#1d2943"/></g></g></g></g></g><g><g><g><path d="m26.8364811 10.3222055-.1272926.1979837c-.6328354.9899197-1.2975006 1.8737793-1.9904537 2.655098-.791935.8873997-1.6227551 1.6404495-2.4889412 2.2485571-.2722359.1909056-.5479889.3712168-.8273029.5338335l-.1838284.106081-1.6934891-.9864025.1803112-.1060581c.2793121-.1626387.5550652-.3394108.827301-.5338554.866188-.6080856 1.6970062-1.3575974 2.4889412-2.2485352.692955-.7813406 1.3576183-1.6652002 1.9904537-2.6515808l.1272717-.2015228z" fill="#986ff9"/></g></g></g></g></g></svg>