<svg id="Layer_1" enable-background="new 0 0 52 52" height="512" viewBox="0 0 52 52" width="512" xmlns="http://www.w3.org/2000/svg"><g id="_x34_1"><g><g><g><g><g><g><g><g><g><g><g><g><g><g><g><g><g><g><path d="m30.3391819 7.5087738c-.1540279-.091032-.0210285.0910325-.2660027.2380519l-5.356802 3.0880027-16.6791658 9.6280527c-.4831977.2870731-.8752775.9663105-.8752775 1.5264797l-.3151512 15.958046-1.6800427-.9562836-.0489779-16.1331005c0-.5602131.3920798-1.2394085.8752775-1.5195141l22.0360532-12.7230225c.2449741-.1400528.4690933-.1540284.6301308-.0629959z" fill="#c9cee2"/></g></g></g><g><g><path d="m30.643219 24.2083855-23.7961044 13.7394218-.0478206-16.1351223c0-.5608959.3913221-1.2391415.8782854-1.5217667l22.0351815-12.7219753c.4869633-.2825713.8826103-.0564718.8869629.5043716z" fill="#1c2841"/></g></g><g><g><path d="m29.9694672 23.8114891-22.4305044 12.9605064-.0486021-14.9634017c0-.3111362.2624755-.7681389.5444741-.9334087l21.8957034-12.639639z" fill="#fff"/></g></g><g><g><g><path d="m6.8479724 37.9465179.0072107 2.1677666 13.9488983 8.0972786c.4841213.2817841 1.2680855.2817841 1.7558231 0l22.034277-12.7205696c.2456665-.1409035.3685074-.3287506.3685074-.5130043l-.0072327-2.1543732c0 .1842537-.1228409.3685074-.3685074.5093918z" fill="#b0b8cf"/></g></g></g><g><g><g><path d="m6.8496022 37.9456635 13.9492016 8.1063919c.4835358.2809982 1.2698402.281002 1.7565365.0000076l22.0329323-12.7207184c.4889946-.2823219.4915581-.7377777.0080223-1.0187798l-13.9492016-8.1063881z" fill="#e3e7f0"/></g></g></g><g><g><g><g><path d="m15.8882446 35.3574409c-.0256681-.0171471-.0342417-.0256691-.0342417-.0428162v-.1798859c0 .0085716.0085735.0171471.0170946.0171471-.0170946-.0171471-.0170946-.0428162.0171471-.0599632l1.0192661-.5910034c.0342407-.0171471.1027775-.0171471.1455936 0l1.0106907.5910034c.0342941.0257187.0428677.0599632 0 .0856285.0257206-.0085182.0342941-.0256653.0342941-.0428123v.1798859c0 .0171471-.0085735.0256691-.0342941.0428162l-1.0192642.5910034c-.0342426.0171471-.1027794.0171471-.1455936 0z" fill="#1c2841"/></g></g><g><g><path d="m17.6698284 34.3210297c-.0171471-.008522-.0342941-.0256691-.0342941-.0342407v-.1798897h.0085735c0-.0170937.0085735-.0342407.0257206-.0428162l1.0192642-.5910034c.0342426-.0256691.1027794-.0256691.1455956 0l1.0106907.5910034c.0257206.0085754.0342426.0257225.0257206.0428162l.008522.1798897c0 .0171471-.0170956.0257187-.0342426.0428162l-1.0192642.5909996c-.0428162.0171509-.1027794.0171509-.1455956 0z" fill="#1c2841"/></g></g><g><g><path d="m14.1066618 36.3852806c-.0256691-.0085754-.0342426-.0257225-.0342426-.0428162v-.1798897c0-.0171471.0085735-.0256691.0342426-.0428162l1.0192642-.5910034c.0342951-.0171471.1027794-.0171471.145647 0l1.0106916.5910034c.0170956.0171471.0256691.0256691.0256691.0428162v.1798897c0 .0170937-.0085735.0342407-.0256691.0428162l-1.0192652.5910034c-.0428162.0171471-.1027784.0171471-.145647 0z" fill="#1c2841"/></g></g><g><g><path d="m18.8432617 36.8221169c.0085735-.0085754.0171471-.0171471.0171471-.0257225v.1798897c0 .0171471-.0085735.0256691-.0342941.0428162l-1.0106926.5910034c-.0428143.0171471-.111351.0171471-.1455936 0l-1.0106907-.5910034c-.0257225-.0171471-.034296-.0256691-.034296-.0428162v-.1798897c0-.0170937.0085735-.0342407.0257225-.0428162l1.0192642-.5910034c.0428162-.0256691.1027794-.0256691.1455936 0l1.0106926.5910034c.0342941.0171471.0342941.0428161.017147.0685387z" fill="#1c2841"/></g></g><g><g><path d="m14.5006809 37.4131203-1.0192652.5910034c-.0428152.0170937-.1027784.0170937-.1455946 0l-1.0192642-.5910034c-.017148-.0085754-.0257215-.0257225-.0257215-.0342941v-.1884117c0-.0171471.0085735-.0257187.0257215-.0428162l1.0278378-.582428c.0342426-.0257225.1027794-.0257225.1455946 0l1.0106916.582428c.0171471.0170975.0256681.0342445.0256681.0428162v.1798897c.0000001.0170936-.008521.0342406-.0256681.0428161z" fill="#1c2841"/></g></g><g><g><path d="m17.1130676 38.0126953-1.8158264 1.0449333c-.0428152.0257225-.111352.0257225-.1455936 0l-1.0106916-.582428c-.0257206-.0171471-.0342941-.0342445-.0342941-.0428162v-.1798897c0-.0171471.0085735-.0342407.0342941-.0428162l1.8158255-1.0535049c.0342417-.0257225.1027794-.0257225.1455936 0l1.0106926.59095c.0171471.0085716.0257206.0257225.0257206.0428696v.1798363c-.0000001.0171471-.0085736.0257187-.0257207.0428658z" fill="#1c2841"/></g></g><g><g><path d="m28.3677979 28.1541023c-.0257206-.0171471-.0342407-.0257206-.0342407-.0428677v-.1798363c0-.0171471.0085201-.0342941.0256672-.0428162l1.0192661-.5910034c.0428143-.0257206.111351-.0171471.1455936 0l1.0192642.5910034c.017149.008522.0257225.0256691.0257225.0428162v.1798363c0 .0171471-.0085735.0342941-.0257225.0428677l-1.0192642.5824299c-.0428162.0256691-.1113529.0256691-.1455936 0z" fill="#1c2841"/></g></g><g><g><path d="m19.5198956 37.4645081c-.0256672-.0085716-.0342407-.0257187-.0342407-.0428162v-.1713142c0-.0171471.0085735-.0342941.0342407-.0513878l1.0192661-.5824318c.0342941-.0257187.1027775-.0257187.1455936 0l1.0107441.5824318c.0170956.0170937.0256691.0342407.0256691.0428123v.1798897c0 .0170975-.0085735.0342445-.0256691.0428162l-1.0192661.5910034c-.0428677.0170937-.1027775.0256691-.1456451 0z" fill="#1c2841"/></g></g><g><g><path d="m22.3121719 37.0276718-1.0106926-.5910034c-.0171471-.0171471-.0257206-.0257187-.0257206-.0428162v-.1798859c-.008522-.0171471 0-.0256691.0257206-.0428162l1.0192661-.5824318c.0342407-.0257187.1027775-.0257187.1455936 0l1.0106907.5824318c.0171471.0171471.0257206.0256691.0257206.0428162v.1798859c0 .0170975-.0085735.0256691-.0257206.0428162l-1.0192642.5910034c-.0428161.0171471-.1027793.0171471-.1455936 0z" fill="#1c2841"/></g></g><g><g><path d="m19.4856548 36.5565948-1.0106926-.5910034c-.0171471-.0085716-.0257206-.0257187-.0257206-.0428162v-.1798859c-.0085735-.0085754 0-.0257225.0257206-.0428162l1.0192661-.5824318c.0342407-.0257187.1027775-.0257187.1455936 0l1.0106907.5824318c.0171471.0085716.0257206.0256691.0257206.0428162v.1798859c0 .0170975-.0085735.0342445-.0257206.0428162l-1.0192642.5910034c-.0428161.0256691-.1113528.0256691-.1455936 0z" fill="#1c2841"/></g></g><g><g><path d="m23.0145264 31.237566c-.0171471-.0085735-.0257206-.0256691-.0257206-.0428162v-.1713142c0-.0171471.0085735-.0342426.0257206-.0513897l1.0192661-.5824299c.0428143-.0257206.111351-.0257206.1455936 0l1.0106907.5824299c.0257206.0171471.0342941.0342426.0342941.0513897v.1713142c0 .0171471-.0085735.0342426-.0257206.0428162l-1.0192642.5910034c-.0428162.0257206-.1113529.0171471-.1455936 0z" fill="#1c2841"/></g></g><g><g><path d="m25.2928562 35.1861267c0 .0085754 0 .0171471-.008522.0257225l.008522.1541672c0 .0171471-.0170956.0256691-.0342426.0428162l-1.0192642.582428c-.0428162.0257225-.1027794.0257225-.1455956 0l-1.0106907-.582428c-.0257206-.0171471-.0342941-.0256691-.0342941-.0428162v-.1798897s.0085735 0 .0085735.0085754c0-.0171509 0-.0342445.0257206-.0513916l1.0192642-.5910034c.0428162-.0171471.1027794-.0171471.1455956 0l1.0106907.5910034c.0171471.0171471.0342426.0257226.0342426.0428162z" fill="#1c2841"/></g></g><g><g><path d="m25.1044464 31.9570694 1.0106907.5910034c.0171471.0170937.0257206.0256691.0257206.0428162v.1798363c0 .0171471-.0085735.0257187-.0342941.0428658l-1.0192642.5910034c-.0342426.0170975-.1027794.0170975-.1455956 0l-1.0106907-.5910034c-.0171471-.0085716-.0257206-.0257187-.0257206-.0428658v-.1798363c0-.0171471.0085735-.0257225.0257206-.0428162l1.0278378-.5910034c.0342426-.0171471.1027793-.0171471.1455955 0z" fill="#1c2841"/></g></g><g><g><path d="m24.7961102 30.2097282c-.0171471-.0085754-.0257206-.0256691-.0257206-.0428162v-.1798897c0-.0170937.0085735-.0256672.0257206-.0428162l1.0192642-.5910015c.0428162-.0170956.1027794-.0170956.1455956.0085735l1.0106907.582428c.0257206.017149.0342426.034296.0342426.0513897v.1713161c0 .0171471-.008522.0342407-.0256691.0428162l-1.0278378.5910015c-.0342426.0257225-.1027794.0257225-.1455956 0z" fill="#1c2841"/></g></g><g><g><path d="m28.5905037 31.2975292-1.0106926-.5910034c-.0257206-.0085735-.0342941-.0257206-.0342941-.0342426v-.1798878c0-.0171471.0085735-.0342426.0342941-.0428162l1.0106926-.5910034c.0428143-.0257206.111351-.0257206.1455936 0l1.0106907.5910034c.0257206.0085735.0342941.0256691.0342941.0428162v.1798878c0 .008522-.0085735.0256691-.0257206.0342426l-1.0192642.5910034c-.0428161.0256691-.1113529.0256691-.1455936 0z" fill="#1c2841"/></g></g><g><g><path d="m29.4384537 32.9077988-1.0106926-.5824318c-.0171471-.0171471-.0257206-.0342941-.0257206-.0428162v-.1798859c0-.0171509.0085735-.0342445.0257206-.0428162l1.0192661-.5910053c.0428143-.0257206.1027775-.0257206.1455936 0l1.0106907.5910053c.0257206.0085716.0342941.0256653.0342941.0428162v.1798859c0 .008522-.0085735.0256691-.0342941.0342445l-1.0192642.5910034c-.0342426.0256654-.1027794.0256654-.1455936.0000001z" fill="#1c2841"/></g></g><g><g><path d="m26.5862141 29.1818886c-.0256672-.0170956-.0342407-.0256691-.0342407-.0428162v-.1798363c0-.0171471.0085735-.0342941.0256672-.0428677l1.0192661-.5910034c.0428677-.0170956.111351-.0170956.145647 0l1.0192642.5910034c.0170956.0171471.0256691.0257206.0256691.0428677v.1798363c0 .0171471-.0085735.0342941-.0256691.0428162l-1.0192642.5824814c-.0428696.0342426-.1113529.0256691-.145647 0z" fill="#1c2841"/></g></g><g><g><path d="m29.387064 29.4045925 1.807251-1.0449333c.0428162-.0257206.1113529-.0257206.1455956 0l1.0192661.5824299c.0171471.0171471.0257187.0342426.0257187.0428162v.1798878c0 .0170956-.0085716.0342426-.0257187.0428162l-1.8158283 1.0449333c-.0428143.0257206-.111351.0257206-.1455936 0l-1.0106907-.5824299c-.0257206-.0170937-.0342426-.0256672-.0342426-.0513878v-.1712627c-.0000001-.0171491.0085219-.0342962.0342425-.0428697z" fill="#1c2841"/></g></g><g><g><path d="m35.9480095 31.0576763v.1798897c0 .0171471-.0085716.0257206-.0256691.0428162l-2.6209564 1.5074902c-.0428162.0257187-.1027794.0257187-.145649 0l-1.0106926-.5824318c-.0256653-.0171471-.0342407-.0257187-.0342407-.0428162v-.1798878c0-.0171471.0171471-.0342407.0342407-.0428143l2.6209602-1.5160637c.0428696-.0170956.1027794-.0170956.145649 0l1.0106888.5910034c.0170975.0085736.0256691.0257207.0256691.0428143z" fill="#1c2841"/></g></g><g><g><path d="m26.9202709 30.9120827 1.0106926.5824299c.0257206.0171471.0342407.0342941.0257206.0513897l.0085201.1713142c0 .0171471-.0085201.0342426-.0342407.0428162l-1.0192661.5910034c-.0342407.0171471-.1027775.0171471-.1455936 0l-1.0106907-.5910034c-.017149-.0085735-.034296-.0256691-.034296-.0428162v-.1798878c0-.0170956.0171471-.0256691.034296-.0428162l1.0192642-.5824299c.0428161-.025669.1027794-.025669.1455936.0000001z" fill="#1c2841"/></g></g><g><g><path d="m21.5070362 39.4002609.0085735.1712608c0 .0171471-.0171471.0342941-.0342407.0428696l-2.6209602 1.5160103c-.0428677.0257225-.1028309.0257225-.145647 0l-1.0106907-.5910034c-.0256691-.0085716-.0342426-.0256691-.0342426-.0342407v-.1884651c0 .0085754.0085735.0085754.0085735.0085754-.0085735-.0170937 0-.0342407.0256691-.0513878l2.6209583-1.5074921c.034296-.0256691.1027794-.0256691.1455956 0l1.0107441.5824814c.0256671.0170975.0342406.0342446.0256671.0513916z" fill="#1c2841"/></g></g><g><g><path d="m19.4256916 33.2589493-.0085735-.1798363c0-.0171471.0171471-.0342941.0342407-.0428696l1.0192661-.59095c.0428677-.0257225.1028309-.0257225.145647 0l1.0106907.59095c.0256691.0171471.0342426.0342941.0171471.0599632.008522-.008522.0170956-.0170937.0170956-.0170937v.1798363c0 .0171471-.0085735.0257187-.0342426.0428658l-1.0192642.5824318c-.0342426.0256691-.1027794.0256691-.1455956 0l-1.0107441-.5910034c-.0170937-.0085754-.0256672-.0257225-.0256672-.0342941z" fill="#1c2841"/></g></g><g><g><path d="m25.8752861 34.9634209-1.0106926-.582428c-.0170937-.0170937-.0256672-.0256691-.0256672-.0428162l-.0085735-.1798363c0-.0171471.0171471-.0257225.0342407-.0428696l1.0192661-.5910034c.0428677-.0170937.1027775-.0256653.145647 0l1.0106907.5910034c.0256691.0085754.0342426.0257225.0342426.0428696v.1798363c0 .0171471-.0085735.0257225-.0342426.0428162l-1.0192642.582428c-.034296.0257225-.1027793.0257225-.145647 0z" fill="#1c2841"/></g></g><g><g><path d="m30.3977547 30.9206562 2.6123848-1.5074902c.0428162-.0256672.1027794-.0256672.1455956 0l1.010746.5824299c.0256653.0171471.0342407.0342941.0342407.0513897v.1713161c0 .0171471-.0085754.0342407-.0257225.0428143l-2.6294804 1.5160637c-.0342941.0257206-.1028309.0257206-.145647 0l-1.0021172-.5910034c-.0257206-.0085735-.0342426-.0256691-.0342426-.0428162v-.1798878c-.0000001-.0170955.008522-.025669.0342426-.0428161z" fill="#1c2841"/></g></g><g><g><path d="m27.6568699 33.9356346-1.0106926-.582428c-.0171471-.0171471-.0342407-.0257225-.0342407-.0428696v-.1798363c0 .0085754.0170937.0170975.0256672.0342445-.0256672-.0256691-.0256672-.0599632.0085735-.0770607l1.0192661-.5910034c.0428143-.0257187.1027775-.0257187.1455936 0l1.0106907.5910034c.017149.0170975.034296.0256691.034296.0428162v.1713142c0 .0256691-.0085735.0342445-.034296.0513916l-1.0192642.582428c-.0428161.0256692-.1027794.0256692-.1455936.0000001z" fill="#1c2841"/></g></g><g><g><path d="m23.2800465 33.0105743 1.0106926.5910034c.0257206.0171471.0257206.0342445.0257206.0513916 0-.0085754.0085201-.0085754.0085201-.0085754v.1713142c0 .0256691-.0085201.0342445-.0342407.0513916l-1.0192661.582428c-.0342426.0257225-.1027775.0257225-.1455936 0l-1.0106926-.582428c-.0171471-.0171471-.0342941-.0257225-.0342941-.0428162v-.1798897c0-.0171471.0085735-.0256691.0342941-.0428162l1.0192661-.5910034c.0428161-.0257185.1027774-.0257185.1455936.0000001z" fill="#1c2841"/></g></g><g><g><path d="m21.4556484 34.0640831 1.0106907.582428c.0342941.0171471.0342941.0428696.0171471.0685387.0085735-.0085754.0171471-.0171471.0171471-.0256691v.1798363c0 .0171471-.0085735.0342941-.0342941.0513878l-1.0106907.5824318c-.0428162.0257187-.1113529.0257187-.1455956 0l-1.0106907-.5824318c-.0257206-.0170937-.0342941-.0342407-.0342941-.0513878v-.1713142c0-.0170937.0085735-.0342445.0342941-.0513916l1.0106907-.582428c.0428161-.0256692.1113529-.0256692.1455955-.0000001z" fill="#1c2841"/></g></g><g><g><path d="m32.5133438 32.9848557c.0171471.0085716.0257187.0171471.0257187.0342941v.1884079c0 .0085754-.0085716.0257225-.0257187.0428162l-10.0041885 5.7730141c-.0428162.0256691-.1113529.0256691-.1455956 0l-1.0192642-.5824318c-.0171471-.0171471-.0256691-.0257187-.0256691-.0428658v-.1798363c0-.0171471.008522-.0342941.0256691-.0428696l10.0127621-5.7815323c.0342407-.0170937.1027775-.0256691.1455936 0z" fill="#1c2841"/></g></g><g><g><path d="m19.9481583 38.4752007-2.8436642 1.6359367c-.0342426.0257187-.0942059.0257187-.1455956 0l-1.0106907-.5910034c-.0171471-.008522-.0257206-.0170937-.0257206-.0342407v-.1798897c0-.0170975.0085735-.0342445.0257206-.0428162l2.8436642-1.6445122c.0428162-.0171471.1027794-.0171471.1455936 0l1.0106926.5910034c.0171471.0171471.0342941.0256691.0342941.0428162v.1798897c.0000001.0085716-.0085734.0342407-.034294.0428162z" fill="#1c2841"/></g></g><g><g><path d="m21.2329426 32.2654037c-.0170937-.0085716-.0256672-.0171471-.0256672-.0428162v-.1713142c0-.0171471.0085735-.0257187.0256672-.0428162l1.0192661-.5910015c.0428143-.0257225.111351-.0257225.1455936 0l1.0107441.5910015c.0256691.0085754.0342426.0256691.0342426.0342445v.1798859c0 .0170975-.0085735.0342445-.0342426.0428162l-1.0192661.5910034c-.0428677.0256691-.1027775.0256691-.1456451 0z" fill="#1c2841"/></g></g></g><g><g><g><path d="m28.3632164 27.8875809c-.0394707.022789-.0396824.0618382-.0004787.0846195l1.01367.5890827c.0392036.0227814.1066189.0227871.1460896-.0000019l1.0174732-.5874367c.0422802-.0244122.0396805-.0618382.0004768-.0846214l-1.01367-.5890808c-.0392017-.0227814-.1038094-.0244102-.1460896 0z" fill="#4d5c75"/></g></g></g><g><g><g><path d="m26.5818996 28.9160252c-.0422821.0244102-.0396824.0618382-.0004787.0846195l1.01367.5890808c.0392036.0227833.1038094.0244102.1460896 0l1.0174923-.5874481c.0394516-.0227776.0396805-.0618401.0004787-.0846214l-1.0136719-.5890808c-.0392017-.0227814-.106638-.0227776-.1460896 0z" fill="#4d5c75"/></g></g></g><g><g><g><path d="m24.7977924 29.9460793c-.0394707.022789-.0396824.0618382-.0004787.0846214l1.01367.5890808c.0392036.0227814.1066189.0227871.1460896-.0000019l1.0203018-.5890713c.0394516-.0227776.0368519-.0602036-.0023518-.0829868l-1.01367-.5890808c-.0392017-.0227814-.1038094-.0244102-.143261-.0016327z" fill="#4d5c75"/></g></g></g><g><g><g><path d="m29.3857136 29.4025898c-.0422802.0244122-.0424824.0602112-.0004787.0846214l1.0108719.5874538c.0392017.0227814.1038074.0244102.1460876-.0000019l1.8123016-1.0463314c.0422821-.0244122.0396805-.0618382.0004807-.0846195l-1.0108719-.5874557c-.0420036-.0244083-.1038094-.0244083-.1460896.0000019z" fill="#4d5c75"/></g></g></g><g><g><g><path d="m27.5762234 30.4473c-.0394516.0227776-.0424824.0602112-.0004787.0846214l1.01087.5874538c.0392036.0227814.106638.0227757.1460896-.0000019l1.0174904-.5874481c.0422802-.0244102.0396824-.0618382.0004807-.0846195l-1.0108719-.5874538c-.0420036-.0244102-.1038094-.0244102-.1460896 0z" fill="#4d5c75"/></g></g></g><g><g><g><path d="m25.7554741 31.4985104c-.0394707.022789-.0424824.0602112-.0004787.0846214l1.01087.5874538c.0392036.0227814.106617.0227852.1460896 0l1.0202999-.5890732c.0394516-.0227776.0368538-.0602036-.0023479-.0829868l-1.0108719-.5874538c-.0420036-.0244083-.1038094-.0244102-.143261-.0016327z" fill="#4d5c75"/></g></g></g><g><g><g><path d="m23.9347057 32.5497322c-.0394535.0227776-.0424824.0602112-.0004787.0846214l1.01087.5874519c.0392036.0227814.106636.0227776.1460896 0l1.0202999-.5890694c.0394516-.0227776.0396824-.0618401.0004807-.0846214l-1.0108719-.5874538c-.0420036-.0244102-.106638-.0227776-.1460896 0z" fill="#4d5c75"/></g></g></g><g><g><g><path d="m22.1139355 33.6009521c-.0394516.0227776-.0424614.0601997-.0004578.08461l1.01087.5874557c.0392017.0227814.106617.0227852.1460686.0000076l1.0203209-.5890808c.0394516-.0227776.0396633-.0618286.0004616-.08461l-1.0108719-.5874519c-.0420036-.0244102-.1066189-.022789-.1460705-.0000114z" fill="#4d5c75"/></g></g></g><g><g><g><path d="m20.2959976 34.6505432c-.0422821.0244102-.0424824.0602074-.0004787.0846176l1.01087.5874557c.0392036.0227814.1038074.0244102.1460896-.0000038l1.0174904-.5874481c.0394516-.0227776.0396824-.0618362.0004787-.0846176l-1.01087-.5874557c-.0420036-.0244102-.106638-.0227776-.1460896 0z" fill="#4d5c75"/></g></g></g><g><g><g><path d="m18.4752483 35.7017517c-.0422821.0244102-.0424824.0602112-.0004787.0846214l1.01087.5874519c.0392017.0227814.1038074.0244102.1460876 0l1.0174732-.5874367c.0394707-.022789.0396824-.0618401.0004787-.0846214l-1.01087-.5874519c-.0420036-.0244102-.1066189-.022789-.1460896 0z" fill="#4d5c75"/></g></g></g><g><g><g><path d="m16.6544781 36.7529716c-.0422802.0244102-.0424824.0602112-.0004787.0846214l1.0108719.5874557c.0392017.0227814.1038074.0244064.1460876-.0000038l1.0174923-.5874481c.0422802-.0244102.0396824-.0618362.0004787-.0846176l-1.01087-.5874557c-.0420036-.0244102-.1038094-.0244102-.1460896 0z" fill="#4d5c75"/></g></g></g><g><g><g><path d="m23.0164757 30.9745235c-.042263.0243988-.0396633.0618267-.0004597.0846081l1.01367.5890827c.0392036.0227814.1038094.0244102.1460705.0000095l1.0174923-.5874481c.0422802-.0244122.0396805-.0618382.0004787-.0846214l-1.0136719-.5890808c-.0392017-.0227814-.1038094-.0244102-.1460896 0z" fill="#4d5c75"/></g></g></g><g><g><g><path d="m21.2323685 32.0045776c-.0394726.022789-.0396824.0618401-.0004787.0846214l1.01367.5890808c.0392036.0227814.1066189.022789.1460896 0l1.0203018-.5890732c.0394516-.0227776.0396805-.0618362.0004787-.0846176l-1.0136719-.5890827c-.0392017-.0227814-.106638-.0227776-.1460896 0z" fill="#4d5c75"/></g></g></g><g><g><g><path d="m19.4510708 33.0330124c-.0394707.0227852-.0396824.0618362-.0004787.0846176l1.01367.5890808c.0392036.0227852.1066189.022789.1460896 0l1.0174732-.5874367c.0422802-.0244102.0396805-.0618401.0004787-.0846214l-1.0136719-.5890808c-.0392017-.0227814-.1038094-.0244102-.1460896 0z" fill="#4d5c75"/></g></g></g><g><g><g><path d="m17.669754 34.0614548c-.042263.0243988-.0396633.0618286-.0004597.08461l1.01367.5890808c.0392036.0227814.1038094.0244102.1460705.0000114l1.0174923-.5874519c.0394516-.0227776.0396805-.0618362.0004787-.0846176l-1.0136719-.5890808c-.0392017-.0227852-.106638-.0227776-.1460896 0z" fill="#4d5c75"/></g></g></g><g><g><g><path d="m15.8856459 35.0915108c-.0394707.0227852-.0396805.0618362-.0004787.0846176l1.0136709.5890808c.0392036.0227852.1066189.022789.1460896 0l1.0203018-.5890694c.0394516-.0227776.0368519-.0602074-.0023518-.0829887l-1.01367-.5890808c-.0392017-.0227814-.1038094-.0244102-.143261-.0016327z" fill="#4d5c75"/></g></g></g><g><g><g><path d="m14.1043491 36.1199417c-.0422812.0244102-.0396814.0618401-.0004787.0846214l1.01367.5890808c.0392027.0227814.1038094.0244102.1460896 0l1.0174732-.5874405c.0422802-.0244102.0396805-.0618362.0004787-.0846176l-1.0136719-.5890808c-.0392027-.0227852-.1038084-.0244102-.1460896 0z" fill="#4d5c75"/></g></g></g><g><g><g><path d="m12.3202219 37.1500092c-.0394516.0227776-.0396805.0618362-.0004787.0846176l1.0136709.5890808c.0392027.0227852.106638.0227776.1460896 0l1.0203009-.5890694c.0394526-.0227776.0396814-.0618401.0004787-.0846214l-1.0136709-.5890808c-.0392017-.0227814-.106637-.0227776-.1460896 0z" fill="#4d5c75"/></g></g></g><g><g><g><path d="m14.1375494 38.2061234c-.0394516.0227776-.0424824.0602112-.0004787.0846214l1.0108709.5874519c.0392027.0227814.106637.0227776.1460886 0l1.8151293-1.047966c.0422611-.0243988.0396633-.0618286.0004616-.08461l-1.0108719-.5874519c-.0420036-.0244102-.1038084-.0244102-.1460705-.0000114z" fill="#4d5c75"/></g></g></g><g><g><g><path d="m30.3941536 30.9224739c-.0394707.0227871-.0424824.0602093-.0004787.0846195l1.01087.5874538c.0420036.0244102.1066189.0227871.1460896 0l2.6183872-1.5117283c.0422821-.0244102.0424843-.0602112.0004807-.0846195l-1.0108719-.5874538c-.0420036-.0244102-.1038055-.0244102-.1460876 0z" fill="#4d5c75"/></g></g></g><g><g><g><path d="m28.4296455 32.0566826c-.0394707.022789-.0424824.0602112-.0004787.0846214l1.01087.5874519c.0420036.0244102.1066189.022789.1460896 0l1.0203018-.5890732c.0394516-.0227776.0396538-.0585747-.0023499-.0829849l-1.01087-.5874538c-.0420036-.0244102-.1038094-.0244102-.143261-.0016327z" fill="#4d5c75"/></g></g></g><g><g><g><path d="m26.6483288 33.085125c-.0422611.0244026-.0424633.0601997-.0004597.08461l1.01087.5874557c.0420036.0244064.1038094.0244102.1460705.0000076l1.0174923-.5874481c.0422802-.0244102.0424824-.0602112.0004787-.0846214l-1.01087-.5874519c-.0420036-.0244102-.1038094-.0244102-.1460896 0z" fill="#4d5c75"/></g></g></g><g><g><g><path d="m24.8642216 34.115181c-.0394707.022789-.0424824.0602112-.0004787.0846214l1.01087.5874519c.0420036.0244102.1066189.022789.1460896 0l1.0203018-.5890694c.0394516-.0227776.0424824-.0602112.0004787-.0846214l-1.01087-.5874557c-.0420036-.0244064-.106638-.0227737-.1460896.0000038z" fill="#4d5c75"/></g></g></g><g><g><g><path d="m23.0829239 35.1436119c-.0394707.022789-.0424824.0602112-.0004787.0846214l1.01087.5874557c.0420036.0244064.1066189.0227852.1460896-.0000038l1.0174732-.5874367c.0422802-.0244102.0424824-.0602112.0004787-.0846214l-1.01087-.5874519c-.0420036-.0244102-.1038094-.0244102-.1460896 0z" fill="#4d5c75"/></g></g></g><g><g><g><path d="m21.3016071 36.1720581c-.0422611.0243988-.0424633.0601997-.0004597.08461l1.01087.5874519c.0420036.0244102.1038094.0244102.1460705.0000114l1.0174923-.5874481c.0394516-.0227776.0424824-.0602112.0004787-.0846214l-1.01087-.5874557c-.0420036-.0244064-.106638-.0227737-.1460896.0000038z" fill="#4d5c75"/></g></g></g><g><g><g><path d="m19.5174999 37.2021141c-.0394707.0227852-.0424824.0602074-.0004787.0846176l1.01087.5874557c.0420036.0244102.1066189.0227852.1460896-.0000038l1.0203018-.5890694c.0394516-.0227776.0396538-.0585785-.0023499-.0829887l-1.01087-.5874519c-.0420036-.0244102-.1038094-.0244102-.143261-.0016327z" fill="#4d5c75"/></g></g></g><g><g><g><path d="m15.9520769 39.2606125c-.0394526.0227776-.0424824.0602074-.0004787.0846176l1.010869.5874557c.0420036.0244102.106638.0227776.1460896 0l2.8382416-1.6386604c.0422802-.0244102.0424824-.0602112.0004787-.0846214l-1.01087-.5874519c-.0420036-.0244102-.1038094-.0244102-.1460896 0z" fill="#4d5c75"/></g></g></g><g><g><g><path d="m32.1442757 31.9395332c-.0394707.022789-.0424805.0602112-.0004768.0846214l1.0108681.5874519c.0420036.0244102.1066208.022789.1460915 0l2.6183853-1.5117264c.0422821-.0244122.0424843-.0602112.0004807-.0846214l-1.0108719-.5874538c-.0420036-.0244083-.1038055-.0244102-.1460876.0000019z" fill="#4d5c75"/></g></g></g><g><g><g><path d="m32.5110092 33.0677643-10.0067387 5.7778549c-.040657.0221558-.1034927.025856-.14785 0l-1.0091915-.5877914c-.0443573-.0221596-.040657-.0628166 0-.0850182l10.0067387-5.7778091c.040657-.0221558.1035156-.025856.1478729 0l1.0091686.5877495c.0443573.0259017.0406571.0628585 0 .0850143z" fill="#4d5c75"/></g></g></g><g><g><g><path d="m14.498641 37.4155693-1.0196028.5871773c-.0364218.0227814-.1046829.0227814-.1456614 0l-1.0150461-.5871773c-.0182247-.0136414-.0273094-.0273094-.0273094-.0409775v-.1820564c0 .0136414.0090847.031868.0273094.0409508l1.0150461.5917587c.0409784.0227547.1046829.0227547.1456614 0l1.0196028-.5917587c.0227537-.0090828.0318661-.0273094.0318661-.0409508v.1775284c0 .0181961-.0091124.0318641-.0318661.0455055z" fill="#1c2841"/></g></g><g><g><path d="m14.1026354 36.3822975c-.0181971-.0090828-.0273094-.0227509-.0273094-.0409508v-.1775246c0 .0136681.0091124.0273094.0273094.0409775l1.0150461.5871735c.0409784.0227547.1047106.0273094.1456614 0l1.0196028-.5871735c.0182247-.0091133.0273094-.0273094.0273094-.0409775v.1820831c0 .0136414-.0090847.0273094-.0273094.0409508l-1.0196028.5872002c-.0409508.0227547-.1046829.0227547-.1456614 0z" fill="#1c2841"/></g></g><g><g><path d="m17.6712723 34.3248978c-.0227814-.0091133-.0318661-.0273094-.0318661-.0409813v-.1820565c0 .0181999.0090847.0318413.0318661.0455093l1.0104904.5871735c.0409794.0227547.1046829.0227547.1456623 0l1.0196018-.5871735c.0182247-.0091133.0273094-.0273094.0273094-.0409775l.0045567.1775246c0 .0181999-.0136414.031868-.0318661.045536l-1.0196018.5871736c-.0409794.0227547-.1046829.0227547-.1456623 0z" fill="#1c2841"/></g></g><g><g><path d="m21.4538326 35.3217468 1.0150452-.587204c.0227547-.0090828.0318661-.0273094.0318661-.0409508v.1775017c0 .0182228-.0091114.0318642-.0318661.0455322l-1.0150452.5871773c-.0409794.0227509-.1092396.0227509-.1456623 0l-1.0105171-.5871773c-.0227547-.0136681-.0318661-.0273094-.0318661-.0455322v-.1775017c0 .0136414.0091114.0273094.0318661.0409508l1.0105171.587204c.0364227.0227509.1001263.0273094.1456623 0z" fill="#1c2841"/></g></g><g><g><path d="m21.5084515 39.4001579.0045567.1729698c0 .0182266-.01367.0318642-.0318661.0409775l-2.621851 1.5157356c-.0409794.0227814-.1046829.0227814-.1456623 0l-1.0104904-.5871735c-.0227814-.0136414-.0318661-.0273094-.0318661-.0409508v-.1820831c0 .0136414.0090847.0318642.0318661.0409775l1.0104904.5871735c.0409794.0273094.1046829.0227547.1456623 0l2.621851-1.5112076c.0136413-.013668.0273094-.0227508.0273094-.0364189z" fill="#1c2841"/></g></g><g><g><path d="m21.2307968 32.2674675c-.0182247-.0091133-.027338-.0227547-.027338-.0409813v-.1774979c0 .0136414.0091133.0273094.027338.0409508l1.0150471.5872002c.0409508.0227547.1046829.0227547.1456604 0l1.0196037-.5872002c.0227528-.0136414.0318661-.0273094.0318661-.0455093v.1820564c0 .0136681-.0091133.031868-.0318661.0409813l-1.0196037.5917282c-.0409775.0227547-.1047096.0227547-.1456604 0z" fill="#1c2841"/></g></g><g><g><path d="m15.88694 35.358139c-.0227537-.0136414-.0318661-.0273094-.0318661-.0455055v-.1775284c0 .0136681.0091124.031868.0318661.0409775l1.0105171.5871773c.0409508.0227509.1092396.0227509.1456623 0l1.0241585-.5871773c.018198-.0091095.0273113-.0273094.0273113-.0409775v.1820831c0 .0136414-.0091133.0273094-.0273113.0409508l-1.0196018.587204c-.0409794.0227547-.1092682.0227547-.150219 0z" fill="#1c2841"/></g></g><g><g><path d="m19.51931 37.4656334c-.0227814-.0090828-.0318661-.0273094-.0318661-.0409508v-.1775284c0 .0136414.0090847.0273094.0273094.0409813l1.0150471.5871735c.0409775.0227547.1046829.0227547.1456604 0l1.0196037-.591732c.0182247-.0091133.0273094-.0227814.0273094-.0409775v.1820831c0 .0136414-.0090847.0273094-.0273094.0409508l-1.0196037.587204c-.0409775.0227509-.1046829.0273094-.1456604 0z" fill="#1c2841"/></g></g><g><g><path d="m19.4237118 33.2552032-.0045567-.1775017c0 .0136414.0136681.0273094.0318661.0409508l1.0150471.5871773c.0364208.0227814.1047096.0227814.1456604 0l1.0150738-.5871773c.0227547-.0136414.0318394-.0273094.0318394-.0409508v.1775017c0 .0182228-.0090847.0318642-.0318394.0455322l-1.0150738.5871773c-.0409508.0227509-.1092396.0227509-.1456604 0l-1.0150471-.591732c-.018198-.0091133-.0273094-.0273094-.0273094-.0409775z" fill="#1c2841"/></g></g><g><g><path d="m17.8123779 37.4246826 1.0150471-.5872002c.0227528-.0136414.0318661-.0273132.0318661-.0409508v.1775246c0 .0181999-.0091133.0318413-.0318661.0455093l-1.0150471.5871735c-.0409794.0227814-.1092396.0227814-.1456623 0l-1.0105171-.5871735c-.0227528-.0136681-.0318661-.0273094-.0318661-.0455093v-.1775246c0 .0136375.0091133.0273094.0318661.0409508l1.0105171.5872002c.0364228.0227547.1001282.0227547.1456623 0z" fill="#1c2841"/></g></g><g><g><path d="m17.1113796 38.0118561-1.8161707 1.0469131c-.0409508.0227547-.1092386.0227547-.1456614 0l-1.0104895-.5871735c-.0227537-.0136681-.0318661-.0273094-.0318661-.0409775v-.1820564c0 .0136414.0091124.0318642.0318661.0409508l1.0104895.5872002c.0364227.0227547.1047106.0227547.1456614 0l1.8161707-1.0469398c.0182247-.0136414.0273094-.0273094.0273094-.0409508v.1775284c0 .0181961-.0090847.0318641-.0273094.0455055z" fill="#1c2841"/></g></g><g><g><path d="m19.4874439 36.5552711-1.010519-.5871735c-.0227528-.0136719-.0318661-.0273132-.0318661-.0455093v-.1775283c0 .0136414.0091133.0273094.0318661.0409508l1.010519.587204c.0364208.0227547.1001263.0227547.1456604 0l1.0150471-.587204c.0227528-.0090828.0318661-.0273094.0318661-.0409508v.1775284c0 .0181961-.0091133.0318375-.0318661.0455093l-1.0150471.5871735c-.0409775.0227508-.1092396.0227508-.1456604-.0000001z" fill="#1c2841"/></g></g><g><g><path d="m19.9471817 38.4761505-2.8403587 1.6386452c-.0363941.0227547-.1001263.0227547-.1456337 0l-1.0105171-.591732c-.0181971-.0091133-.0273094-.0227547-.0273094-.0409775v-.1775017c0 .0136414.0091124.0273094.0273094.0409508l1.0105171.587204c.0455074.0227547.1092396.0227547.1456337 0l2.8403587-1.6386719c.0227528-.0136414.0318661-.0273094.0318661-.0409508v.1775017c0 .013668-.0091133.0318642-.0318661.0455322z" fill="#1c2841"/></g></g><g><g><path d="m22.3141041 37.0241203-1.0104904-.5872002c-.0227528-.0136414-.0318661-.0273132-.0318661-.0409508v-.1820869c0 .0136719.0091133.031868.0273094.0409813l1.0150471.5871735c.0409794.0273094.1001549.0273094.1456623 0l1.0150738-.5871735c.0227528-.0091133.0318661-.0273094.0318661-.0409813v.1820869c0 .0136375-.0091133.0273094-.0318661.0409508l-1.0150738.5872002c-.0455074.0227547-.1046829.0227547-.1456623 0z" fill="#1c2841"/></g></g><g><g><path d="m24.7994061 30.2100353c-.0227528-.0090847-.0318661-.0273094-.0318661-.0409508v-.1820831c0 .0182247.0091133.0318661.0318661.0455341l1.010519.5871754c.0409508.0227528.1092396.0227528.1456337 0l1.0196304-.5871754c.0227528-.0136681.0318375-.0273094.0318375-.0409794v.1775284c0 .018198-.0090847.0318661-.0273094.0409508l-1.0241585.5917587c-.0363941.0227528-.1046829.0227528-.1456337 0z" fill="#1c2841"/></g></g><g><g><path d="m27.6579609 33.9379768-1.0105171-.5871773c-.018198-.0136681-.0318661-.0273094-.0318661-.0409775v-.1820564c0 .0136414.0136681.031868.0318661.0409508l1.0105171.587204c.0409508.0273094.1046829.0273094.1456337 0l1.0196304-.587204c.018198-.0090828.0318661-.0273094.0318661-.0409508v.1775284c0 .0181961-.0091114.0318375-.0318661.0455055l-1.0196304.5871773c-.0409508.0227509-.1001263.0227509-.1456337 0z" fill="#1c2841"/></g></g><g><g><path d="m24.0938797 35.9954071-1.0105171-.5871773c-.0227528-.0136681-.0318375-.0273094-.0318375-.0409775v-.1820831c0 .0182228.0090847.0318642.0318375.0409775l1.0105171.591732c.0409508.0227547.1046829.0227547.1456623 0l1.0196018-.591732c.0136414-.0091133.0273113-.0227547.0273113-.0364227l.0045547.1775284c0 .0136681-.0136681.0273094-.0318661.0409775l-1.0196018.5871773c-.0409793.0227508-.1047114.0227508-.1456622-.0000001z" fill="#1c2841"/></g></g><g><g><path d="m25.0907288 33.2233353 1.0196037-.5917282c.0227528-.0090866.0318661-.0273094.0318661-.0409508v.1774979c0 .0182266-.0091133.031868-.0318661.045536l-1.0196037.5871735c-.0364208.0227547-.1046829.0227547-.1456604 0l-1.010519-.5871735c-.0181961-.0091133-.0318375-.0273094-.0318375-.0409775v-.1820564c0 .0181961.0090847.0318642.0318375.0455055l1.010519.5871735c.0409774.0227813.1046829.0227813.1456604 0z" fill="#1c2841"/></g></g><g><g><path d="m23.2700024 34.274807 1.0196037-.591732c.0227528-.0090866.0318661-.0273094.0318661-.0409508v.1774979c0 .0182266-.0091133.031868-.0318661.045536l-1.0196037.5871735c-.0364227.0227547-.1046829.0227547-.1456604 0l-1.010519-.5871735c-.0181961-.0136681-.0318375-.0273094-.0318375-.0409775v-.1820564c0 .0181961.0090847.0318642.0318375.0455055l1.010519.5871773c.0409774.0227813.1046829.0227813.1456604 0z" fill="#1c2841"/></g></g><g><g><path d="m25.8736286 34.9666901-1.0104904-.5871735c-.0182247-.0136681-.0273094-.0273094-.0273094-.0409775l-.0045567-.1820564c0 .0181961.0136414.0318375.0318661.0455055l1.0104904.5871735c.0409794.0227814.1092396.0227814.1456623 0l1.0196018-.5917282c.0227814-.0091133.0318661-.0273094.0318661-.0409508v.1774979c0 .0182266-.0090847.031868-.0273094.045536l-1.0241585.5871735c-.0364227.0227546-.1001262.0227546-.1456623 0z" fill="#1c2841"/></g></g><g><g><path d="m26.5837116 29.1813202c-.0227547-.0136414-.0318661-.0273094-.0318661-.0409508v-.1820831c0 .0136681.0091114.0318661.027338.0409775l1.0150452.591732c.0409508.0227528.1046829.0227528.1456623 0l1.0196018-.5871754c.018198-.0136681.0273113-.0273094.0273113-.0455341v.1820831c0 .0136414-.0091133.0318661-.0273113.0409508l-1.0196018.5872021c-.0409794.0273094-.1047115.0227547-.1456623 0z" fill="#1c2841"/></g></g><g><g><path d="m23.0151024 31.2387505c-.0182247-.0091114-.0273094-.0273094-.0273094-.0409508v-.1820831c0 .0181961.0090847.0318661.0273094.0455074l1.0150452.5872021c.0409794.0227528.1046829.0227528.1456623 0l1.0196018-.5872021c.0182266-.0136414.0273113-.0273113.0273113-.0409508v.1775265c0 .0136414-.0090847.0318394-.0273113.0409508l-1.0196018.5872021c-.0409794.0273094-.1046829.0227547-.1456623 0z" fill="#1c2841"/></g></g><g><g><path d="m26.9114571 32.1718674 1.0196018-.5917301c.01367-.0091133.0273094-.018198.0273094-.0318661l.0045567.1729717c0 .0136681-.0091114.0273094-.0318661.0409775l-1.0196018.5871754c-.0364227.0227547-.1046829.0227547-.1456623 0l-1.0105171-.5871754c-.018198-.0091114-.0318394-.0273094-.0318394-.0409775v-.1820564c0 .0181961.0090847.0318375.0318394.0455074l1.0105171.5871735c.0409793.0227813.1046829.0227813.1456623 0z" fill="#1c2841"/></g></g><g><g><path d="m28.3361778 28.1116543-.0045567-.1820831c0 .0182247.0136414.0318661.0318661.0409775l1.0150471.591732c.0364227.0227528.1046829.0227528.1456604 0l1.0150471-.5871754c.0227814-.0136681.0318661-.0273094.0318661-.0455341v.1820831c0 .0136681-.0090847.0318661-.0318661.0409794l-1.0150471.5871735c-.0409775.0227528-.1092377.0227528-.1456604 0l-1.0150471-.5871735c-.0182247-.01367-.0273094-.0273114-.0273094-.0409794z" fill="#1c2841"/></g></g><g><g><path d="m28.5865231 31.2979259-1.010519-.5871735c-.0181961-.0091133-.0318375-.0273094-.0318375-.0409794v-.1775265c0 .0136681.0090847.0273094.0318375.0409775l1.010519.5871754c.0409775.0227814.1046829.0227814.1456604 0l1.0196037-.5871754c.0181961-.0136681.0273094-.0273094.0273094-.0455074l.0045567.1820564c0 .01367-.01367.0318661-.0318661.0409794l-1.0196037.5871735c-.0364228.0227547-.104683.0227547-.1456604 0z" fill="#1c2841"/></g></g><g><g><path d="m32.5101852 33.0685921c.0227547-.0136719.031868-.0273132.031868-.045536v.1820831c0 .0136681-.0091133.031868-.031868.0409775l-10.0048847 5.7807884c-.0409794.0227814-.1047115.0227814-.1456623 0l-1.0150452-.5871773c-.0182247-.0136375-.027338-.0273094-.027338-.0455055v-.1775284c0 .0136414.0091133.031868.027338.0409508l1.0104904.587204c.0455055.0273094.1092377.0227509.1502171 0z" fill="#1c2841"/></g></g><g><g><path d="m29.4422665 32.9092598-1.010519-.5871735c-.0227528-.0136414-.0318375-.0273094-.0318375-.0409508v-.1820831c0 .0136375.0090847.0318642.0273094.0409508l1.0150471.5872002c.0409508.0273094.1046829.0227547.1456604 0l1.0196037-.5872002c.0181961-.0136414.0273094-.0273132.0273094-.0409508v.1820831c0 .0136414-.0091133.0273094-.0273094.0363922l-1.0196037.591732c-.0409775.0227815-.1047097.0227815-.1456604.0000001z" fill="#1c2841"/></g></g><g><g><path d="m30.5437984 30.0734863 1.8116131-1.0469131c.0182266-.0091114.031868-.0273094.031868-.0409775v.1820831c0 .0136414-.0090866.0273094-.031868.0409794l-1.8116131 1.0469112c-.0455074.0227547-.1092396.0227547-.1456623 0l-1.0104904-.5872021c-.0227528-.0136395-.0318661-.0273094-.0318661-.0455055v-.1775284c0 .0136681.0091133.0318661.0273113.0409794l1.0150452.5871735c.0364228.0227528.1001549.0273094.1456623 0z" fill="#1c2841"/></g></g><g><g><path d="m31.5497608 31.5938053 2.6172924-1.5112057c.0227547-.01367.031868-.0273113.031868-.0409794l.0045547.1775284c0 .0181961-.0136681.0318661-.0318642.0455055l-2.621851 1.5112076c-.0364227.0227528-.1047115.0227528-.1456623 0l-1.0105171-.5871735c-.018198-.01367-.0318394-.0273113-.0318394-.0455074v-.1775284c0 .0136414.0136414.0273094.0318394.0409508l1.0105171.5872021c.0409509.0273094.1092397.0227547.1456624 0z" fill="#1c2841"/></g></g><g><g><path d="m35.9513588 31.056694v.1820564c0 .0136681-.0091133.0273094-.0318642.0409794l-2.6172943 1.5112057c-.0409508.0227547-.1046829.0227547-.1456642 0l-1.0104904-.5872002c-.0227509-.0136414-.0318642-.0273132-.0318642-.0409508v-.182085c0 .0181961.0091133.0318661.0318642.0455074l1.0104904.5872002c.0409813.0227547.1047134.0227547.1456642 0l2.6172943-1.5157623c.0227509-.0091114.0318642-.0273094.0318642-.0409508z" fill="#1c2841"/></g></g></g><g><g><g><path d="m17.7021999 40.2776718c-.0394535.0227776-.0424824.0602112-.0004807.0846176l1.0108719.5874557c.0420017.0244102.106636.0227776.1460876 0l2.6212177-1.5133629c.0394516-.0227776.0424824-.0602112.0004787-.0846176l-1.01087-.5874557c-.0420036-.0244102-.106638-.0227776-.1460896 0z" fill="#4d5c75"/></g></g></g><g><g><g><g><path d="m28.6873207 26.2685318c.3765717-.2174129.9892654-.2174149 1.36339.0000019l7.812479 4.5401173c.3741264.2174168.3721161.5723114-.0044518.7897243l-18.3022384 10.5668011c-.3765717.2174149-.9892464.2174072-1.363369-.0000114l-7.8124819-4.5401154c-.3741226-.2174187-.3721352-.5723038.0044355-.7897148zm-10.1868591 15.7191963c.2063217.1198997.5430336.1198959.7506943.0000038l18.3022385-10.566803c.2076797-.1199036.2087669-.3149281.0024452-.4348297l-7.812479-4.5401173c-.2063217-.1199017-.5430145-.1199074-.7506962-.0000038l-18.3022366 10.5668011c-.2076607.1198959-.2087679.31493-.0024471.4348297z" fill="#c9cee2"/></g></g></g></g></g><g><g><g><path d="m33.7790985 38.8673973c-.0354271.0709267-.0827599.1300201-.1536903.1773529l-4.6459694 2.6953392c-.2482834.1536903-.5674248.1536903-.8157082 0l-2.9554577-1.702343c-.0827599-.0472641-.130022-.1063576-.1655216-.1772842-.0826893-.1773567-.035429-.4138069.1655216-.5201645l4.6459694-2.6954117c.2482853-.1536903.5556641-.1536903.8038769 0l2.967289 1.7023468c.1891899.1064263.2364502.3428803.1536903.5201645z" fill="#b0b8cf"/></g></g></g><g><g><g><path d="m33.7790985 38.8673973c-.0354271.0709267-.0827599.1300201-.1536903.1773529l-4.6459694 2.6953392c-.2482834.1536903-.5674248.1536903-.8157082 0l-2.9554577-1.702343c-.0827599-.0472641-.130022-.1063576-.1655216-.1772842.0236664-.0827637.0827618-.1418571.1655216-.1891899l4.6459694-2.6953392c.2482853-.1536903.5556641-.1536903.8038769 0l2.967289 1.7023468c.0827636.0472603.1300239.1063537.1536903.1891174z" fill="#fff"/></g></g></g></g><g><g><g><g><path d="m11.0801945 35.387867c.0401611-.023735.0949421-.0200806.157011.0146103.129632.0748634.2282181.2574348.2282181.403492l18.0190029-10.4209881c0-.1460571-.098587-.3286304-.2263908-.4016647-.0620804-.0365162-.1186771-.0383339-.1588383-.0146084z" fill="#101c32"/></g></g></g><g><g><g><path d="m11.2378454 35.402813c-.1270571-.0733566-.2276602-.0066681-.2280741.1393356l.4557791.2631416c.0004139-.1459999-.0994787-.3284454-.227705-.4024772z" fill="#4d5c75"/></g></g></g></g><g><g><path d="m29.5196762 8.9328842-.003128.0041657v-.0020857z" fill="#fff"/></g></g></g></g></g></g></g></g></g></g></g></g></g></g><g><g><path d="m29.9342709 9.729248-22.4439102 12.9682541v-.8889084c0-.3111362.2624755-.7681389.5444741-.9334087l21.8957034-12.6396389z" fill="#b28afd"/></g></g><g><g><g><path d="m8.7403212 20.8583946c.2024784-.1169014.3694229-.0249481.3700914.2109032.0006685.2358418-.1652002.5231476-.3676786.640049-.2052441.1184978-.3749809.0249538-.3756495-.2108879-.0006695-.2358513.1679926-.5215664.3732367-.6400643z" fill="#fff"/></g><g><path d="m9.9579496 20.1553955c.2052441-.1184978.3721972-.0265503.3728657.2093029.0006695.2358398-.1652088.5231533-.3704529.6416512-.2052536.1185017-.3722162.0233555-.3728848-.2124863-.0006684-.2358513.1652194-.5199642.370472-.6384678z" fill="#fff"/></g><g><path d="m11.1783438 19.4508018c.2052441-.1184978.3721972-.0265503.3728657.209301.0006685.2358418-.1652098.5231533-.3704538.6416512-.2052526.1185036-.3722057.0233517-.3728743-.2124901-.0006686-.2358513.1652088-.5199604.3704624-.6384621z" fill="#fff"/></g></g><g><g><path d="m29.0983391 9.0577145c.1611481-.0930386.2990227-.019907.2995625.1707115.0005417.1906185-.1364536.4279022-.2976017.5209408l-6.5160637 3.7620525c-.1706295.0985126-.3037777.0171957-.3043194-.1734228-.0005398-.1906185.1317291-.4197178.3023586-.5182304z" fill="#fff"/></g></g></g></g><g><g><g><g><g><g enable-background="new"><g><g><path d="m10.7633848 32.8778801-1.2541742-.7219238c-.1276445-.0732803-.205657-.2292881-.205657-.4514942l-.037816-15.8070669 1.2541742.7242765.0378151 15.8047123c0 .2222061.0780124.3782158.2056579.4514961z" fill="#e9e7fc"/></g></g><g><g><path d="m10.519351 16.6208382-1.2546301-.7228041 16.4531593-10.9472342 2.4990902 1.4523125z" fill="#f3f1fc"/></g></g><g><g><path d="m28.2169704 6.4031124.0381432 15.8061848c.0012684.4474392-.3146458.9928856-.7025299 1.2168312l-16.2879677 9.403862c-.3878784.2239418-.7058535.0444717-.7071228-.4029694l-.0381422-15.8061828z" fill="#f8f9fe"/></g><g><path d="m11.0884514 16.9484119 16.561676-9.5621805.0370197 14.8245287c0 .2424774-.2073097.6006432-.4183216.7228088l-16.1387272 9.3173885z" fill="#fff"/></g></g></g><g enable-background="new"><g><g><path d="m28.0056 4.3483567c-.1276436-.0756459-.3049355-.066196-.5011425.0472808l-16.2871952 9.4035482c-.387682.2245722-.7044497.7706299-.7020836 1.2174091l.0047331 1.6050768-1.2541742-.7242765-.0047321-1.6027241c-.002367-.4467793.3144007-.992837.7020826-1.2173948l16.2871933-9.4035625c.196207-.1134622.3734989-.122927.5011444-.0496469z" fill="#566df9"/></g></g><g><g><path d="m27.5053005 4.395956c.3878841-.2239451.7058582-.0427375.7071228.4029646l.0045471 1.6041918-17.6976194 10.2177258-.0045471-1.6041918c-.0012636-.4457026.3146515-.9928865.7025299-1.2168283z" fill="#678aee"/></g></g></g></g></g><g><g><g><path d="m15.178133 12.1167603c.3005171-.1735029.5463438-.0334044.5473232.3119125.0009785.3453083-.2432518.7683411-.5437689.9418449-.3005095.1734991-.5440321.0320702-.5450106-.3132381-.0009793-.3453169.2409469-.7670202.5414563-.9405193z" fill="#fff"/></g></g><g><g><path d="m13.5391827 13.0630093c.3005085-.1734991.5463438-.0334053.5473232.3119116.0009785.3453083-.2432604.7683468-.5437689.9418459-.3005171.1735039-.5440397.0320749-.5450191-.3132334-.0009785-.3453179.2409477-.7670203.5414648-.9405241z" fill="#fff"/></g></g><g enable-background="new"><g><g><path d="m11.9002237 14.0092621c.3005171-.1735039.5463448-.0334053.5473232.3119125.0009794.3453083-.2432518.7683411-.5437689.9418449s-.5440321.0320702-.5450106-.3132381c-.0009793-.3453169.2409392-.7670154.5414563-.9405193z" fill="#fff"/></g></g></g></g></g><g><g><g><path d="m27.1246109 15.6780968-15.579628 8.9948978.0013313.4658566 15.5782967-8.9941426z" fill="#dedffb"/></g></g><g><g><path d="m24.1230488 18.7847157v.4666156l3.0015659-1.7329273v-.4666729z" fill="#dedffb"/></g></g><g><g><path d="m24.1230488 21.5321007v.4666729l3.0015659-1.7329846v-.4666156z" fill="#dedffb"/></g></g><g><g><path d="m24.1230488 20.1584377v.4666157l3.0015659-1.7329273v-.4666176z" fill="#dedffb"/></g></g><g><g><path d="m24.1230488 22.9014492v.470932l3.0015659-1.7329273v-.4709339z" fill="#dedffb"/></g></g><g><g><g><path d="m20.0230007 18.4045124-8.4819221 4.8969994.0013313.4658565 8.4805908-4.896244z" fill="#dedffb"/></g></g><g><g><path d="m20.0230007 17.0307674-8.4857817 4.8993054.0013304.4702053 8.4844513-4.8985062z" fill="#dedffb"/></g></g><g><g><path d="m20.0230007 15.6571112-8.489686 4.9015245.0013304.4702034 8.4883556-4.9007683z" fill="#dedffb"/></g></g><g><g><path d="m20.0230007 14.2833662-8.4935903 4.9037867.0013303.4702053 8.49226-4.9029446z" fill="#dedffb"/></g></g><g><g><path d="m20.0230007 12.9140577-8.4974508 4.9060049.0013313.4658566 8.4961195-4.9052506z" fill="#dedffb"/></g></g></g></g><g><g><g><path d="m21.7296429 15.1073923v2.8011751l-.9306202.5304604v-2.7918596l-.0093136-2.4103308.9306183-.5397196z" fill="#febc1f"/></g></g><g><g><path d="m23.0976276 13.9441175v3.1734457l-.9213047.5304604-.0093155-3.1734457-.0093154-2.8290644.9306201-.5304603z" fill="#b28afd"/></g></g><g><g><path d="m24.4749279 14.0185823v2.3079195l-.9306202.5304604v-2.298604l-.0092583-1.3587256.9306202-.5304603z" fill="#f45170"/></g></g><g><g><path d="m24.9216633 16.065958v-2.4289617l-.0093155-2.093895.9306202-.5397186v2.0938949l.0093155 2.4289046z" fill="#dba660"/></g></g><g><g><path d="m26.2896481 15.2748966v-3.1733885l-.0093155-2.8290643.9213619-.5397759.0092583 2.8290644.0093154 3.1734457z" fill="#57b3fe"/></g></g></g></g><g><g><path d="m23.4619884 23.7506046-11.9789876 6.9182244c.2748127-1.4405289.9950771-2.3313713 1.6395082-2.7957382.6350031-.5022526.2369261-1.0709095.6634045-1.7721996.1516647-.2558422.3222446-.3790474.4738512-.4738522.0663462-.0378876.1232061-.0663471.1800661-.0947475.0663462-.0284595.1232061-.0473728.1800661-.0853195.0948048-.05686.1895523-.1326923.2464123-.2748127.2179537-.4548798.8908434-1.9143791 1.5352755-2.2839985.6444321-.3600731.9003296.8150692 1.4310417.635004.0189724-.0094872.0473728-.0189724.0663452-.0284595.2274399-.1232052.3790474-.4833374.5875721-.8623848.2179527-.3885899.4833374-.7866096.9003296-1.0330219.0473747-.0284004.0947475-.05686.1516075-.0852604 1.0140495-.454937 1.0425091 2.2270794 2.1228466 1.6110497.0094872-.009428.0284595-.0189152.0379448-.0284023.0189152-.0094852.0284023-.0189724.0473747-.0378857.9097576-.5117971 1.5447616.3980177 1.7153415.6918047z" fill="#dba660"/></g></g></g></g><g><g><g><g><g><g><path d="m46.8803596 20.3367386v1.3600464c-.0099487 1.039978-.6900024 2.0699463-2.039978 2.8599854-2.7299805 1.5799561-7.1799927 1.5899658-9.9400024 0-1.3800049-.7999878-2.0700073-1.8500366-2.0599976-2.9000244v-1.3499756c0-1.0400391.6799927-2.0800171 2.039978-2.8699951 1.25-.7399902 2.8700562-1.1199951 4.5300293-1.1799927v-3.6600342l-1.2800293-.1400146-.0199585-4.3999634 1.75.2000122 1.7299805-2.210022.0100098 4.4000244-1.2999878 1.6499634v4.1600342c1.6499634.0599976 3.2600098.4499512 4.5100098 1.1799927 1.3799438.7999877 2.0699462 1.8499755 2.0699462 2.8999633z" fill="#cc104a"/></g></g></g></g></g></g><g><g><g><g enable-background="new"><g><g><g><path d="m46.8822365 20.3329811-.0054016 1.3648491c-.0029335 1.0341053-.6828461 2.0666561-2.0411148 2.8559952-2.7291451 1.5860062-7.1785088 1.5888901-9.9304657.0000458-1.3823357-.79809-2.0727234-1.8479176-2.0697517-2.8961277l.0053978-1.3648338c-.0029678 1.0482006.6874237 2.0980263 2.0697556 2.8961182 2.7519608 1.5888424 7.2013245 1.5859585 9.9304695-.0000458 1.3582686-.7893411 2.0381812-1.8218919 2.0411109-2.856001z" fill="#cc104a"/></g></g></g><g><g><g><ellipse cx="39.857" cy="20.313" fill="#f45170" rx="4.067" ry="7.022" transform="matrix(.003 -1 1 .003 19.431 60.112)"/></g></g></g><g><g><g><ellipse cx="39.857" cy="20.313" fill="#fff" rx="3.595" ry="6.207" transform="matrix(.003 -1 1 .003 19.431 60.112)"/></g></g></g><g><g><g><ellipse cx="39.857" cy="20.313" fill="#f45170" rx="3.066" ry="5.293" transform="matrix(.003 -1 1 .003 19.432 60.113)"/></g></g></g><g><g><g><ellipse cx="39.858" cy="20.313" fill="#fff" rx="2.424" ry="4.185" transform="matrix(.003 -1 1 .003 19.432 60.113)"/></g></g></g><g><g><g><ellipse cx="39.858" cy="20.313" fill="#f45170" rx="1.596" ry="2.756" transform="matrix(.003 -1 1 .003 19.432 60.113)"/></g></g></g></g></g><g><g><g><path d="m40.3005524 11.7501383v8.7807379c0 .0305271 0 .0611172-.0101929.0814476-.0101357.0101967-.0101357.0101967-.0101357.0203934-.0305901.0305882-.0611153.0509205-.101902.0815086-.1731529.101841-.4584045.101841-.6315575 0-.0815086-.0509205-.1324272-.1120358-.1324272-.1833496v-8.7807379c0-.2445278.1935425-.4482079.448204-.4482079.2444688 0 .4380113.2036801.4380113.4482079z" fill="#2e374c"/></g></g><g><g><g><path d="m41.5921745 6.0503736.0124626 4.3967671-1.7361564 2.2014713-1.7429238-.1928234-.0124626-4.3967676 1.7429314.1964321z" fill="#2e374c"/></g></g></g></g></g></g></g></svg>