<svg id="Layer_1" enable-background="new 0 0 51 51" height="512" viewBox="0 0 51 51" width="512" xmlns="http://www.w3.org/2000/svg"><g id="_x39_9"><g><path d="m49.5006638 29.5531616c0 .0899658-.0300293.1399536-.0800171.1699829l-21.9400005 12.75c-.039978.0299683-.1099854.0299683-.1900024-.0200195l-22.25-12.8499756c-.8899536-.5300293-1.7599485-1.4000244-2.4499509-2.5200195-1.1389269-1.840889-1.768889-5.1487446.0700073-5.8300171-.0599976.0200195-.1200562.0500488-.1800537.0800171l21.9400024-12.75c.1400146-.0800171.2900391-.1300049.4500122-.1599731 1.3848991-.2485886 2.9256477 1.2216291 3.6799927 2.4599609.6145229.9900999 1.117857 2.4026403.789978 3.4800415-.1499634.3599854-.3299561.6399536-.5899658.8099976-.0200195.0199585-.0499878.039978-.0800171.0599976l-1.7199707.9899902c.0100098.0100098.0200195.0200195.0299683.0200195l22.2499981 12.8499756c.150024.0899658.2700192.289978.2700192.4600219z" fill="#dedffb"/><g><g><path d="m49.2326393 29.0941219-22.2508945-12.8465728c-.7641697-.4633284-1.5083065-1.2027321-2.0929394-2.1617231-.6086178-.9875555-.9200878-2.0709753-.9174995-2.9841099.0016689-.5896263.1341553-1.1055355.3989563-1.4735374.1275215-.1686306.2681389-.2981443.4239655-.3886938l-21.9368278 12.7482928c-1.4069822.8175831-.7634265 3.4541283.0945773 4.8463421.5846334.9589901 1.3287539 1.6983929 2.0929389 2.1617374l22.2508812 12.8465576c.1474018.0850945.2671757.290699.2667007.460083-.000246.0841446-.0301132.1434364-.0781898.1713715l21.936842-12.7482929c.0480804-.0279369.0779457-.087225.0781746-.1713734.0004921-.1693802-.1192818-.3749847-.2666855-.4600811z" fill="#f3f1fc"/></g><g><g><g enable-background="new"><g><g><path d="m3.7646186 25.4814243 21.9368362-12.7482939c.1168213.3909664.3059959.7197475.5507755 1.0131893.2431087.291564.5440998.5390997.8485146.7148533.178791.1032248.359087.1816578.5281315.2329845l-21.9368355 12.748294c-.1690445-.0513268-.3493409-.1297588-.528131-.2329845-.3044157-.1757545-.6054063-.4232883-.848515-.7148533-.2447796-.2934418-.4339547-.622223-.5507763-1.0131894z" fill="#f3f1fc"/></g></g><g><g><path d="m25.9511471 11.2591858c-.0678883.0394506-.1253319.0968237-.1737766.1697855-.107975.158946-.1648235.3990345-.1655922.6696625-.0005741.2025213.0308952.4235306.0896759.6344967l-21.9368356 12.7482938c-.1112716-.3993587-.1516626-.9691505.075918-1.3041592.116215-.1750316 22.2110133-12.9765367 22.1106105-12.9180793z" fill="#f3f1fc"/></g></g><g><g><path d="m5.148386 25.4221592 21.9368343-12.748292c.0343857.017561.057333.0230942.0734787.0246878l-21.9368353 12.7482948c-.0161452-.0015945-.039093-.0071277-.0734777-.0246906z" fill="#fff"/></g></g><g><g><path d="m27.1736717 12.6908255c-27.9875885 16.2641897 6.0666619-3.5247565-21.9518075 12.7560224l21.9368305-12.748291c.0052457-.0024042.0102354-.0049763.014977-.0077314z" fill="#f3f1fc"/></g></g><g><g><path d="m28.2907066 14.5799551-21.9368367 12.7482939c-.1823463.1059704-.3965721.1480885-.661829.1142025l21.9368343-12.7482939c.2652574.033885.4794832-.0082331.6618314-.1142025z" fill="#f3f1fc"/></g></g><g><g><path d="m4.7039738 24.8603401 21.9368324-12.7482929c.1965771-.1142359.526701.3049908.4444141.5618181l-21.9368357 12.7482958c.0825653-.2576942-.2489186-.6754284-.4444108-.561821z" fill="#fff"/></g></g><g><g><path d="m3.635113 23.3566265 21.9368324-12.7482939c.127739-.0742321.2814903-.1099205.4604244-.0949764l-21.936835 12.7482939c-.1789346-.0149441-.3326859.0207443-.4604218.0949764z" fill="#fff"/></g></g><g><g><path d="m5.6369319 26.0895348c.4640994-.2697334.0903282-1.3721619-.2382731-1.8701591-.2221017-.3384495-.5021386-.6218338-.7969384-.7920361-.1682286-.097126-.3413749-.1565247-.5061855-.1656895l21.9368343-12.7482939c.5161476.0287027 1.013855.516922 1.3031235.9577255.3014946.4569159.6156082 1.3233795.3577213 1.7499838-.0299793.0504055-22.1576753 12.927475-22.0562821 12.8684693z" fill="#fff"/></g></g><g><g><path d="m6.618361 23.6309185c.5383625.8658714.8886123 1.8536396.886107 2.7373276-.0007358.2595787-.0319266.5089531-.0967727.7407475-.2965455.7166386-.7717581 1.1210785-1.5370584 1.0156174-.248548-.0697422-.4777493-.1688805-.7084651-.302084-.3781157-.2183056-.7623801-.5286751-1.1014481-.9346561-.3390672-.4022903-.6297066-.9075413-.7934201-1.4649181-.0857799-.3113804-.1266601-.6097431-.1258824-.8840542.0019259-.6793404.2753105-1.3339405.9541135-1.2772484.1648107.0091648.3379569.0685635.5061855.1656895.2947998.1702023.5748367.4535866.7969384.7920361.2221179.3366203.3862805.7356606.4365258 1.1242561.0094123.0773544.0140266.1463985.0138388.2126808-.0074167.5705719-.3201618.7002773-.7234778.4674225-.0368447-.0212727-.0752921-.0453091-.1121316-.0721054-.2931705-.2653065-.4124217-.5668545-.4117289-.8112068.0006361-.2243729.1005564-.3725986.2922158-.2619438.0373116.0215416.0751405.0525875.1110606.0927715.1231298.1352921.1827011.3283195.1434245.4509087.0343847.0175629.0573325.0230961.0734782.0246887.5057931-.2317772-.767642-2.1938591-1.3813276-1.2695827-.1079762.1589451-.164825.3990345-.1655922.6696625-.0005741.2025223.0308938.4235306.0896742.6344967.1168215.3909664.3059967.7197475.5507762 1.0131893.2431087.2915649.5440993.5390987.848515.7148533.1787901.1032257.3590865.1816578.528131.2329845.2989502.0381889.533082-.0201588.7298155-.15765.1956811-.1387978.3522582-.3579998.4744968-.6493626.0490303-.184763.0724311-.3773689.0729942-.5761452.0019627-.692215-.2686515-1.4662056-.7079597-2.1771564-.6106405-.9833717-1.9003172-2.235672-3.030503-2.0318012-1.7140228.3127174-1.3854809 3.1882324-.2789166 4.9837952.584635.9589787 1.3287654 1.698391 2.0929413 2.1617241l22.2508902 12.8465554c.1473999.0851021.2671738.2907143.2666931.4600906-.0004807.1693726-.1210327.2380714-.2684326.1529694l-22.257299-12.8502578c-.8859282-.5354652-1.7596936-1.399519-2.4465575-2.5263195-1.3635044-2.2124405-1.6367421-5.5526677.3473437-5.9105587 1.3794701-.2488137 2.9319951 1.2556266 3.680814 2.4625835z" fill="#dedffb"/></g></g></g></g><g><path d="m28.5552044 10.8826189c-.7470551-1.2041006-2.3010807-2.7114582-3.6808109-2.4625788-.164526.0296669-.3166618.0861683-.4568825.1676655l-21.9368274 12.7482929c.1402194-.0814972.2923398-.1379833.456866-.1676655 1.3794618-.2488213 2.9319911 1.2556324 3.6808114 2.4625778.538363.8658695.8886132 1.8536396.886117 2.7373371-.0007353.2595787-.0319343.5089397-.0967832.740736-.1452994.3511353-.3498969.6801071-.6782918.8709526l21.9368439-12.7482929c.0303879-.0176592.0599174-.0366821.0886192-.0570374.2508488-.1760283.4393902-.4507389.5896721-.8139162.3126369-1.1174878-.1717458-2.4847831-.7893338-3.4780711z" fill="#e9e7fc"/></g></g></g><g><g><g><path d="m23.388546 30.4955196-1.8290291 1.0629139-6.4809666-3.7417869 1.8290291-1.0629158z" fill="#f45170"/></g></g><g><g><path d="m29.7627659 26.7912273-1.8290291 1.0629158-8.7540073-5.0541286 1.829029-1.0629158z" fill="#57b3fe"/></g></g><g enable-background="new"><g><g><path d="m36.1369858 23.086935-1.8290291 1.0629158-8.7540093-5.0541286 1.8290291-1.0629158z" fill="#ffd06c"/></g></g><g><g><path d="m32.9544334 24.9364319-1.829029 1.0629158-6.0016919-3.4650784 1.8290272-1.0629158z" fill="#72d561"/></g></g></g><g><g><path d="m26.5802155 28.6407242-1.8290291 1.0629158-4.6301403-2.673214 1.829029-1.0629139z" fill="#dba660"/></g></g><g><g><path d="m20.2059956 32.3450165-1.8290291 1.0629158-7.3732462-4.2569485 1.8290281-1.0629139z" fill="#c9cee2"/></g></g></g><g><g><g><path d="m47.2523079 28.8502178-14.0948296 8.1910191-.8413963-.4857826 14.0948257-8.1910172z" fill="#dedffb"/></g></g><g><g><path d="m45.4774017 27.8254757-14.0948276 8.1910191-.8413964-.4857827 14.0948277-8.1910171z" fill="#dedffb"/></g></g><g><g><path d="m42.9034843 26.324604-19.8670234 11.5454522-3.396286-1.960846 19.8670234-11.5454521z" fill="#dedffb"/></g></g></g><g><g><g><path d="m35.9326706 25.3016968c-3.15979-1.8151245-8.2676373-1.8151245-11.3968487 0-1.5594482.9100952-2.3366089 2.0963135-2.3366089 3.2875977l-.0101929 1.7793579c0 1.2014771.7924805 2.4082031 2.3775024 3.3234863 3.1547241 1.8252563 8.2676983 1.8252563 11.4019146 0 .184082-.1074219.3579712-.2199097.5215454-.3375854.6340332-.4447632 1.1044312-.9458008 1.4060669-1.4724731.2709961-.4755249.4090576-.9663696.4090576-1.4623413l.0050659-1.7844238c.0051271-1.2015382-.7873534-2.4133302-2.3775023-3.3336183zm-12.7568951 3.7988891c.005127-.0203857.0102539-.0357666.0153809-.0562134.1942749-.8538208.8590088-1.6821899 1.9940186-2.3468628 2.7712402-1.6054688 7.3013287-1.6054688 10.0981426 0 1.1606445.6697998 1.8406982 1.5134277 2.0400391 2.3878174.005127.0152588.005127.0306396.0102539.0458984-.184021.8795166-.8589478 1.7282715-2.0042725 2.4031372-4.0887184 2.3719026-11.4324761 1.0511552-12.1535626-2.4337768z" fill="#111d33"/><g><g><g><path d="m22.1889896 30.3686771c0 1.2014751.7925053 2.4081936 2.3775463 3.3234348 3.1546974 1.8253059 8.2676735 1.8253059 11.4019279 0 .184063-.1074142.3579178-.2198868.5215034-.3375359.634037-.4447632 1.1044197-.9458275 1.4060669-1.472477.2710037-.4755344.4090652-.9663601.4090652-1.4623661l.005085-1.7844238c-.005085.1738853-.362999.3221817-.9663277.4448891-.0051193 0-.0102348 0-.0204697.0051174.0051155.0152912.0051155.0306454.0102348.0459366-.1840591.8794804-.8589783 1.7282505-2.0042801 2.4031372-4.0886822 2.3719101-11.4325581 1.0511475-12.1535511-2.4337826.0051174-.0204086.0102348-.0357628.0153522-.0562344-.0102348 0-.0204716 0-.025589-.0051174-.5982094-.1227074-.9510059-.2761211-.9663296-.4499454z" fill="#111d33"/></g></g></g><g><g><g><path d="m22.1992245 28.5893097c0 1.2015362.7925053 2.4031353 2.3775158 3.3183155 4.9658337 2.8652706 13.7154579.922617 13.7334442-3.272316.0051193-1.2015362-.787384-2.4133091-2.3775139-3.3336391-3.1598167-1.8150997-8.2676735-1.8150997-11.396843 0-1.559452.9100933-2.3366031 2.0963382-2.3366031 3.2876396zm.9765663.5112972c.0051174-.0204086.0102348-.0357628.0153522-.0562344.1942654-.8538265.8589764-1.6821899 1.9940434-2.346838 2.7712231-1.6054821 7.3013439-1.6054821 10.0981274 0 1.160656.6697674 1.8406906 1.5134201 2.0400734 2.3877811.0051155.0152912.0051155.0306454.0102348.0459366-.1840591.8794804-.8589783 1.7282505-2.0042801 2.4031372-4.0886822 2.3719102-11.4325581 1.0511476-12.1535511-2.4337825z" fill="#4c5c75"/></g></g></g><g><g><g><path d="m23.165554 29.0392551c0 .0204716.0051174.0409431.0102367.0613518.0051174-.0204086.0102348-.0357628.0153522-.0562344.1942654-.8538265.8589764-1.6821899 1.9940434-2.346838 2.7712231-1.6054821 7.3013439-1.6054821 10.0981274 0 1.160656.6697674 1.8406906 1.5134201 2.0400734 2.3877811.0051155.0152912.0051155.0306454.0102348.0459366.0051155-.0152912.0051155-.0357628.0102348-.051054.2351761-1.2118359-.4499435-2.4747257-2.0605431-3.4001732-2.7967834-1.6054497-7.3269043-1.6054497-10.0981274 0-1.574806.9152108-2.2548082 2.1628095-2.0196322 3.3592301z" fill="#111d33"/></g></g></g><path d="m37.530632 32.8431396c0 .4199829-.2999878.9400024-.6699829 1.1599731-.1900024.1100464-.3599854.1199951-.4799805.0400391l-.8400269-.4800415c-.1199951-.0699463-.2000122-.2199707-.2000122-.4299927 0-.6933975.7425308-1.4816933 1.1500244-1.2099609l.8200073.4699707c.1400148.0599976.2199708.2200318.2199708.4500122z" fill="#b0b8cf"/><g><g><g><g><path d="m37.3360252 32.4078102c-.1239395-.0708084-.2891502-.0590324-.477993.047184-.3717728.218338-.6727371.7376404-.6727371 1.1684494 0 .2065239.0767174.3540535.1947479.4248619l-.8432808-.4891891c-.1180305-.0708084-.1947479-.218338-.1947479-.4308052 0-.692173.737648-1.45755 1.1507301-1.2097263z" fill="#e3e7f0"/></g></g></g></g><g><g><g><g><path d="m36.8564148 32.4572868c.3729935-.2153511.6753922-.043026.6766052.385582.0012054.4242706-.2992287.9446411-.672226 1.1599884-.3729935.2153511-.6753883.043026-.6765938-.3812447-.001213-.4286079.2992173-.9489784.6722146-1.1643257z" fill="#b0b8cf"/></g></g></g></g><g><g><path d="m48.4980927 39.858654c-.1226006.2539673-.2976837.4728737-.5165901.6304817-.4903526.3765144-1.1646042.4640541-1.768795.1838455-.0788307-.0437698-.1663704-.0875397-.2364349-.1400757l-9.4305115-6.5584679-.0262947-.0175323c-.0087662-.0087624-.0262413-.0175285-.0350075-.0262947-.0700645-.061245-.105072-.166317-.105072-.3064499 0-.3502731.2451477-.7705574.5428886-.945694.1225471-.070015.2363815-.0875435.3239784-.0613022.0174751 0 .0262413.0087662.0437698.0175285l.0437698.0175323 10.349968 4.9298058c.8581047.4027559 1.2171402 1.4272844.8143311 2.2766229z" fill="#df3260"/></g></g><g><g><path d="m48.4980927 39.858654c-.1226006.2539673-.2976837.4728737-.5165901.6304817-.3415108.0700111-.709259.0262413-1.0507698-.1313667-.0788307-.0437698-.1663704-.0875435-.2364388-.1400795l-9.4305649-6.5585213-.0262413-.0174751c-.0087624-.0087662-.0175285-.0175323-.0350037-.0262947-.0613022-.0613022-.1051254-.1663742-.1051254-.3064499 0-.2189102.0963593-.4553452.2364349-.656723l10.349968 4.9298058c.8581047.4027557 1.2171402 1.4272842.8143311 2.2766227z" fill="#f45170"/></g></g></g><g opacity=".2"><g><g><path d="m37.336483 29.131958c-.0256233.1282215-.0683632.2564945-.1196632.3762093-.2736092.7438583-.906311 1.4449768-1.8895988 2.0263805-.9917946.5728436-2.2144585.9490528-3.4969807 1.1029491-2.8618355.3845139-6.9712353-.3909149-8.3022118-2.6676407-.0512981-.0769234-.094038-.1538963-.1282196-.2308197-.1026497-.2137527-.1795731-.4275074-.2223129-.6412601.0341816-.1710129.0940399-.3420277.1709614-.5130405.2793312-.7673111 1.1297779-1.4750023 1.8383026-1.8896008 3.0930557-1.7178211 7.4854927-1.4922943 10.0977211 0 .0769196.0427933.1538963.0855331.2223129.1453896.0854797.0427399.1710129.1025982.2479324.1538963.2907295.2051964.5472221.4275074.7524185.6498203.0684166.0683632.128273.1367798.1795731.1966362.2051926.2564945.3676491.5129871.4788055.7780399.0769196.1710129.1367798.3420277.1709595.5130406z" fill="#638eff"/></g></g></g></g></g></g><g><g><g enable-background="new"><g><g><path d="m2.4878545 42.7325783.0076816-2.7010231c-.0003092.1092796.0067279.2185936.0211151.3276787l-.0076828 2.7010269c-.0143867-.1090889-.0214239-.2184029-.0211139-.3276825z" fill="#c14242"/></g></g><g><g><path d="m14.5006647 36.5431519-.0100098 3.0499878-4.9899902 2.9000244-6.9899902.5699463.0100098-3.0499878c-.1600342-1.1799927.539978-2.3800049 2.0800169-3.2699585 2.6999513-1.5700074 7.0399782-1.6400147 9.8999635-.2000122z" fill="#e93565"/></g></g><g><g><path d="m14.4962997 36.5474129-.0101652 3.0505829-4.9839143 2.8963317.0101661-3.050579z" fill="#df3260"/></g></g><g><g><path d="m9.5123863 39.4437485-.0101661 3.050579-6.9932511.5659295.0101659-3.0505791z" fill="#e93565"/></g></g><g><g><path d="m14.4962997 36.5474129-4.9839134 2.8963356-6.9932513.5659294c-.1547103-1.1730118.5404968-2.3727531 2.0816798-3.2683907 2.7008887-1.5695839 7.0430203-1.6342125 9.8954849-.1938743z" fill="#f45170"/></g></g><g><g><path d="m16.9906559 40.3231201-.0100098 2.460022c0 .9899902-.5899658 1.9699707-1.7799692 2.75l-4.8400269-2.789978v-2.4800415l.0300293.0100098 4.75-2.7600098c1.2299815.7999878 1.8499766 1.7999878 1.8499766 2.8099975z" fill="#febc1f"/></g></g><g><g><path d="m16.9913635 40.3005486-.0076847 2.4836922c-.0027885.9848175-.5977535 1.9682999-1.7871675 2.7534142l.0076818-2.4836845c1.1894131-.7851183 1.78438-1.7686006 1.7871704-2.7534219z" fill="#febc1f"/></g></g><g><g><path d="m15.1420765 37.5156326c2.4416809 1.5807152 2.4686661 3.9813004.0621166 5.5698318l-4.8390102-2.7938042z" fill="#ffde9b"/></g></g><g><g><path d="m15.2041931 43.0539665-.0076818 2.4836884-4.8390103-2.7938042.0076819-2.4836883z" fill="#ffd06c"/></g></g><g><g><path d="m9.2006769 41.1731567-.0100098 1.8800049-.8099976 3.8299561c-1.3800049-.1499634-2.6900024-.5299683-3.7600098-1.1499634-1.0499876-.6100464-1.7199705-1.3600464-1.98999-2.1500244v-1.8800049z" fill="#72d561"/></g></g><g><g><path d="m9.1995478 41.1738281-.8149815 3.8353844c-1.3739924-.1537247-2.6877298-.5369148-3.7547145-1.1529388-1.0553916-.6093292-1.719274-1.3634758-1.9949071-2.1532822z" fill="#78e75a"/></g></g><g><g><path d="m9.1995478 41.1738281-.0076819 1.8763657-.8149814 3.8353844.0076818-1.8763657z" fill="#50b069"/></g></g><g><g><path d="m8.3845663 45.0092125-.0076837 1.8763695c-1.3739905-.1537247-2.6877284-.5369148-3.7547131-1.1529388-1.0553913-.609333-1.719274-1.3634758-1.9949069-2.1532822l.0076783-1.8763618c.2756369.7897987.9395194 1.5439453 1.994911 2.1532745 1.0669846.616024 2.380722.9992141 3.7547144 1.1529388z" fill="#72d561"/></g></g><g><g><path d="m14.5606623 44.0331421v1.8800049c-1.5.7600098-3.4099731 1.1099854-5.289978 1.039978l.0100098-1.8800049.7799683-3.6400146z" fill="#7e5af2"/></g></g><g><g><path d="m14.5639563 44.0333519-.0076838 1.8763733c-1.4919043.7664032-3.4035006 1.1128578-5.2808895 1.0415802l.007678-1.8763618c1.8773938.0712699 3.7889891-.2751809 5.2808953-1.0415917z" fill="#7e5af2"/></g></g><g><g><path d="m14.5639563 44.0333519c-1.4919062.7664108-3.4035015 1.1128616-5.2808914 1.0415878l.7756739-3.6426773z" fill="#b28afd"/></g></g></g></g></g><g><g><g><g><path d="m31.016983 6.6650362.0342846 8.9464388c0 .0899878.0599918.1756868.1713982.2442303l1.4996433.8698063c.2356529.1371117.6127052.1371117.8483582 0l1.503933-.8698063c.1242447-.0685434.1799507-.1542425.1799507-.2484932l-.0385742-8.9250202c.012867-.0942769-.0471268-.1885276-.1713715-.2613597l-1.4996453-.8740945c-.2313614-.1328244-.6084175-.1328244-.8440971.0042887l-1.5081921.8698053c-.1156959.0685434-.1756878.1542425-.1756878.2442045z" fill="#db9952"/></g></g></g><g><g><g><g><path d="m35.2506638 15.6031494c0 .0999756-.0499878.1799927-.1799927.25l-1.5.8699951c-.2300415.1400146-.6099854.1400146-.8500366 0l-1.4999981-.8699951c-.1099854-.0700073-.1699829-.1500244-.1699829-.2399902l-.0299683-8.9500122c0-.0900269.0499878-.1799927.1699829-.2399902l1.5100079-.8699951c.2299805-.1400146.6099854-.1400146.8399658-.0100098l1.5.8800049c.1199951.0599976.1799927.1499634.1799927.2399902z" fill="#bf7d5a"/></g></g></g><g enable-background="new"><g><g><path d="m31.0183239 6.6638536.0335102 8.9480419c0 .0879974.0586834.1760197.1718502.2430668l1.5004253.8717585c.2347031.134119.6118889.134119.8465881 0l1.5046196-.8717585c.1215363-.0670471.1802177-.1550694.1802177-.247262l-.037731-8.9438467c0 .0880227-.0586586.1802149-.1760216.2472868l-1.5087891.8675637c-.2305069.1341186-.6077156.1341186-.8424187 0l-1.5004253-.8717589c-.1131687-.0670466-.1718254-.1550688-.1718254-.2430916z" fill="#bf7d5a"/></g></g><g><g><path d="m31.1929607 6.4192467c-.2327976.1344061-.2340412.3537841-.0027466.4881978l1.4993839.8713479c.2339478.1359539.6126823.1359506.8454819.001544l1.5065155-.8697886c.2354851-.1359568.236721-.3553295.0027771-.4912834l-1.4993858-.8713479c-.2312965-.1344137-.6100235-.1344156-.8455086.0015416z" fill="#dba660"/></g></g></g><g><path d="m34.363327 5.2553816.0385742 12.3013601c0 .089962.0557022.1756611.1713715.2442303l1.4996414.8697796c.2356796.1328239.6127357.1328239.8440971 0l1.5082207-.8655167c.1156693-.0728321.175663-.1585312.175663-.2484932l-.0342865-12.297071v-.0042891c0-.0856991-.059967-.1756606-.1756592-.2442303l-1.4996452-.8697791c-.2313614-.1371131-.6084175-.1371131-.8440971 0l-1.508194.8697791c-.1156959.0685697-.1756859.1585312-.1756859.2442303z" fill="#ff5230"/></g><path d="m38.6006393 17.5531616c0 .0899658-.0599976.1799927-.1799927.25l-1.5100098.8699951c-.2299805.1300049-.5999756.1300049-.8399658 0l-1.5-.8699951c-.1099854-.0700073-.1700439-.1600342-.1700439-.25l-.039978-12.3000488c0-.0899658.0599976-.1699829.1799927-.2399902l1.5100098-.8699951c.2299805-.1400146.6099854-.1400146.8400269 0l1.5.8699951c.1199951.0700073.1799927.1600342.1799927.2399902z" fill="#df3260"/><g enable-background="new"><g><g><path d="m34.3628235 5.2556458.0377312 12.3009071c0 .0880222.0586586.1760445.1718254.2430916l1.5004272.8717594c.2346992.134119.6118851.134119.8424149 0l1.5087929-.8675632c.117363-.0712433.1760178-.1592655.1760178-.2472878l-.0335084-12.3009071c0 .0880222-.0586815.1802149-.1760445.2472868l-1.5087929.8675637c-.2305069.138288-.6119118.138288-.846611 0l-1.4962311-.8717589c-.11734-.067072-.1760215-.1550694-.1760215-.2430916z" fill="#df3260"/></g></g><g><g><path d="m34.5400009 5.0114422c-.2327995.1344061-.2340431.3537841-.0027504.4881978l1.4993858.8713479c.2339478.1359539.6126823.1359506.8454819.001544l1.5065155-.8697886c.2354851-.1359568.236721-.3553295.0027771-.4912834l-1.4993858-.871348c-.2312965-.1344137-.6100235-.1344151-.8455086.0015416z" fill="#f45170"/></g></g></g><g><path d="m37.709671 11.3910637.0342827 8.11092c0 .0856991.0599937.1756859.1756897.2442303l1.4996414.8697777c.2313614.1328506.6084175.1328506.8440704 0l1.503933-.86549c.1242447-.0728321.1799469-.1628189.1799469-.248518l-.0342827-8.1023417c0 .004262-.0042648.004262-.0042648.0085516.0085526-.0942507-.0471497-.1885281-.1713982-.2613602l-1.4996414-.8697786c-.2313614-.1371136-.6084175-.1371136-.8440971 0l-1.508194.8697786c-.115696.0685692-.1756859.1585312-.1713982.2485189z" fill="#9bd899"/></g><path d="m41.950676 19.5031128c0 .0900269-.0599976.1700439-.1799927.25l-1.5100098.8600464c-.2300415.1399536-.6100464.1399536-.8400269 0l-1.5-.8699951c-.1199951-.0700073-.1799927-.1500244-.1799927-.2400513l-.0299683-8.1099854c0-.0899658.0599976-.1799927.1799927-.25l1.5-.8699951c.2399902-.1300049.6199951-.1300049.8499756 0l1.5.8699951c.1199951.0800171.1699829.1699829.1699829.2600098z" fill="#72d561"/><g enable-background="new"><g><g><path d="m37.7115211 11.3914413.033535 8.1097946c0 .0880222.0586815.1760445.1760178.2430916l1.4962311.8717575c.2347031.134119.6119118.134119.8466148 0l1.5045967-.8675632c.1215553-.0712414.1802139-.1592636.1802139-.2472858l-.0377083-8.1014042c0 .0838022-.0628738.1760197-.1760178.2388716l-1.5046196.8717585c-.2347031.134119-.6119118.134119-.8466148-.0041952l-1.5004005-.8717337c-.1131668-.067072-.1718483-.1550942-.1718483-.2430917z" fill="#72d561"/></g></g><g><g><path d="m37.8870392 11.1476412c-.2327995.134407-.2340431.3537846-.0027504.4881983l1.4993858.8713474c.2339478.1359549.6127014.1359615.8455009.0015554l1.5065155-.8697891c.2354851-.1359568.236702-.35534.002758-.4912939l-1.4993858-.8713474c-.2312965-.1344137-.6100235-.1344156-.8455086.0015411z" fill="#78e75a"/></g></g></g><g enable-background="new"><g><g><path d="m41.0603027 9.1458893.0342827 12.3013344c0 .0856991.055706.1756878.175663.2399426l1.4953804.8740921c.2356529.1328259.6127052.1328259.8483582 0l1.503933-.8698044c.1156693-.0685425.1756592-.1585312.1756592-.2442303l-.0342828-12.3013344c0-.0856991-.0556793-.1756868-.175663-.2442303l-1.4953537-.8698053c-.2313881-.1370869-.6127052-.1370869-.8483582 0l-1.503933.8698053c-.1199836.0642805-.1756858.1542425-.1756858.2442303z" fill="#638dff"/></g></g></g><g><g><g><path d="m45.2906418 21.4431152c0 .0900269-.0599976.1799927-.1699829.25l-1.5100098.8699951c-.2299805.1300049-.6099854.1300049-.8399658 0l-1.5-.8699951c-.1200562-.0700073-.1800537-.1599731-.1800537-.25l-.0299683-12.2999878c0-.0899658.0499878-.1799927.1699829-.2399902l1.5100098-.8699951c.2399902-.1400142.6099854-.1400142.8499756 0l1.4900513.8699951c.1199951.0599976.1799927.1500244.1799927.2399902z" fill="#5094ff"/></g></g></g><g enable-background="new"><g><g><path d="m41.060215 9.1450109.033535 12.3009081c0 .0880222.0586815.1760197.1760216.2430916l1.4962311.8717327c.2346992.134119.6119118.134119.846611 0l1.5045967-.8675385c.117363-.0712662.1760445-.1592636.1760445-.2472858l-.033535-12.3009081c0 .0879974-.0586815.1802149-.1760216.247261l-1.5088158.8717594c-.2305069.1341181-.6118851.1341181-.842392-.0041952l-1.5004234-.8675641c-.1131706-.0670462-.1718521-.1550684-.1718521-.2472611z" fill="#5094ff"/></g></g><g><g><path d="m41.2340775 8.9016142c-.2327995.134407-.2340431.3537846-.0000992.4897385l1.4967346.8698072c.2339478.1359539.6127014.1359615.8455009.0015545l1.5065155-.8697882c.2354851-.1359568.236702-.35534.002758-.4912939l-1.4967346-.8698072c-.2339477-.1359544-.6126747-.1359563-.8481597.0000009z" fill="#57b3fe"/></g></g></g><g enable-background="new"><g><g><path d="m44.4066467 15.2858601.0342827 8.1066303c0 .0856991.0599937.1756611.1713982.2399426l1.5039063.8740673c.2271004.1328239.6084442.1328239.8398094 0l1.5082207-.8697796c.119957-.0642796.1756592-.1585312.1756592-.2442303l-.029995-8.110919c0 .0214186-.0042877.0428362-.0128403.0685434.0342827-.1114063-.0171547-.2270746-.1628227-.3127737l-1.4996414-.8698053c-.2313614-.1371136-.6127052-.1371136-.8483582 0l-1.503933.8698053c-.1199837.0685435-.1799774.1585312-.1756859.248519 0 .0428371.0171547.0856733.0428619.1285362-.0299949-.0428629-.0428619-.0856991-.0428619-.1285362z" fill="#ffde9b"/></g></g></g><g><g><g><path d="m48.6406784 23.3931274c0 .0900269-.0599976.1799927-.1700439.2399902l-1.5099487.8699951c-.2300415.1400146-.6200562.1400146-.8500366 0l-1.5-.8699951c-.1099854-.0700073-.1699829-.1499634-.1699829-.2399902l-.0400391-8.1099854c0 .039978.0100098.0899658.0500488.1300049-.0900269-.1300049-.0400391-.2700195.1300049-.3800049l1.5099487-.8699951c.2300415-.1300049.6100464-.1300049.8500366 0l1.4899902.8699951c.1199951.0700073.1799927.1599731.1799927.25z" fill="#febc1f"/></g></g></g><g enable-background="new"><g><g><path d="m44.4047432 15.284977.0377045 8.1056232c0 .0879974.0586815.1760197.1718483.2430668l1.5004005.8717594c.2305336.134119.6119118.134119.8424187 0l1.5088158-.8675632c.1173363-.0670471.1760216-.1592655.1760216-.247263l-.0335388-8.1098185c0 .0922174-.0586815.1802149-.1802139.2472868l-1.5045967.8717594c-.234726.1341171-.6119118.1341171-.846611-.0041962l-1.4962311-.8675632c-.1173631-.0670719-.1760179-.1550693-.1760179-.2430915z" fill="#febc1f"/></g></g><g><g><path d="m44.5811157 15.0378141c-.2327995.1344061-.2340431.3537846-.0000801.489749l1.4967194.8697968c.2339439.1359539.6126976.1359615.8454971.0015545l1.5065155-.8697882c.2354851-.1359577.236702-.355341.002758-.4912949l-1.4967194-.8697968c-.233963-.1359644-.61269-.1359663-.848175-.0000095z" fill="#ffd06c"/></g></g></g></g></g></g></svg>