<svg id="Layer_1" enable-background="new 0 0 53 53" height="512" viewBox="0 0 53 53" width="512" xmlns="http://www.w3.org/2000/svg"><g id="_x39_"><g><g><g enable-background="new"><g><path d="m48.3029175 24.3899517c-.2917709 3.2976494-1.8513145 6.1511002-4.2299805 8.5299664-.8800049.8800049-1.8300171 1.6300049-2.7700195 2.1699829-.539978.3099976-1.0800171.5599976-1.6099854.7300415-1.0700073.3499756-2.0800171.4099731-3.1000366.5700073-2.4599609.3699951-5.0899639 1.3699951-7.6999493 2.8799438-2.5800171 1.4900513-5.1500244 3.4700317-7.5700073 5.8800049-1.0100098 1-1.9899902 2.0700073-3.0300293 2.960022-.6300049.539978-1.2799683 1-1.9299927 1.3699951-1.0599985.6199951-2.1300058.9899902-3.0999765 1.039978-.6700439.0400391-1.2900391-.0899658-1.8200073-.3599854-.0800171-.039978-.1600342-.0899658-.2399902-.1400146l-.0400391-.0199585-.0899658-.0599976-4.4600215-2.5900269-.1499634-.0800171c-.4500122-.2599487-.8400269-.6399536-1.1300049-1.1199951-.0100098-.0099487-.0100098-.0199585-.0100098-.0299683-.0300293-.039978-.0499878-.0700073-.0599976-.1099854-.1000366-.1700439-.1799927-.3500366-.2399902-.5300293-.7300415-1.9799805-.2200317-4.8999634.289978-7.6699829.9924369-5.3082924 2.3320923-12.5699158 2.4199829-12.9899883.2600098-1.2600098.5900264-2.5300293 1.1699824-3.7900391.8800049-1.9400024 2.3400269-3.7099609 3.8600464-4.6999512.1199951-.0700073.2299805-.1400146.3499756-.210022.6900024-.3900156 1.3699951-.6400156 2.039978-.8400278.6300049-.1799927 1.2600107-.3099976 1.8800058-.4599609 1.8800049-.4800415 3.8099976-1.2399902 5.7600098-2.2600098v-2.5200195c0-.3699951.25-.75.75-1.039978.0499878-.0300293.1000366-.0499878.1500244-.0700073v-5.5900262c0-.2399902.1599731-.4799805.4799805-.6699829.6300049-.3599854 1.6600342-.3599854 2.2900391 0 .3099976.1900024.4699707.4299927.4699707.6699829v5.5800166c.0599976.0200195.1199951.0499878.1699829.0800171.25.1400146.4299927.3099976.5599976.4899902.960022-.710022 1.9200439-1.4799805 2.8600464-2.3099971 1.5799541-1.3800049 3.2499981-2.9799805 4.8399639-3.9000244.7800293-.4499512 1.539978-.7299805 2.2600098-.75.5-.0100098.9400024.1100464 1.3200073.3300171l4.8300171 2.8099976c.8998604.5293665 1.4327507 1.5130343 1.8399658 2.47998.0800171.1900024.1600342.3800049.2299805.5700073 1.0700073 3 1.5500488 6.5300293 2.0400391 10.04004.2539749 2.0329666.5859565 3.4743977.4199829 5.6300049z" fill="#1d2943"/></g></g></g></g><g><g><g><g><path d="m41.6092949 27.1550694c.1348228-.218174.258709-.4357395.3754005-.6566811 1.6096802.9354362 3.2189789 1.8713264 4.8289413 2.8062782-.1166878.2209377-.2405777.4385033-.3754005.6566772-1.4486847-.8418826-3.3802604-1.9643897-4.8289413-2.8062743z" fill="#ffd06c"/></g><g><path d="m40.2423286 26.7598724c.4020844.2338924.8622169.3681583 1.3669662.3951969l4.8289413 2.8062744c-.5047493-.0270386-.9648819-.1613045-1.3669662-.3951969-1.4486808-.8418807-3.3802604-1.9643898-4.8289413-2.8062744z" fill="#ffd06c"/></g><g><path d="m48.3402596 22.8820744c.0102348.3671761.0072823.7421474-.0133972 1.1271725-.0069351.1266041-.015873.254425-.0269737.3834343.0108376-.1291599.019455-.2572842.0258598-.3840084.0212631-.3847524.0245361-.7594834.0145111-1.1265984z" fill="#ffd06c"/></g><g fill="#ffd06c"><path d="m48.1345291 20.5747623-4.8295097-2.805788c-.0384331-.2857647-.078537-.568182-.1169701-.8489265-.0016708-.0083542-.0033455-.0150452-.0033455-.0217266l-.130352-.9425077 4.8278389 2.8074617c.0434494.3141689.0869026.626667.130352.940836.0016708.006691.003334.0150452.003334.0217247.0401154.2807446.0802193.561491.1169815.8455811.0000001-.0000001.0016709.0016726.0016709.0033453z"/><path d="m48.3250389 24.0088902c-.0050163.1270065-.0150452.2540112-.0250702.3843536l-4.8295021-2.8074627c.011692-.1286774.0200539-.2573471.0267334-.382679.0200539-.3860264.0233994-.7603531.0133743-1.1280003l4.8294983 2.8074627c.0100251.3676453.006691.741972-.0150337 1.1263257z"/></g><g><path d="m47.8825111 18.7625504c.0434303.3135185.0868073.626585.1307602.9393749.0406685.2900963.0818138.5805244.120636.8726578-.0388222-.2915268-.0800171-.5810757-.1206284-.8701725-.0439033-.3136693-.0873336-.6276131-.1307678-.9418602z" fill="#ffd06c"/></g><g><path d="m9.6533709 39.6293411c-.0055437-1.9553719-.7432175-8.8912773-1.9172549-14.8087997l4.8289409 2.8062763c1.1740389 5.9175205 1.9117136 12.853426 1.9172564 14.8087978.0063677 2.2458992-.9319201 4.7777634-2.3891096 6.8615074-1.609684-.9354324-3.2192621-1.8708382-4.8289437-2.8062744 1.4571908-2.083744 2.3954776-4.6156082 2.3891109-6.8615074z" fill="#ffd06c"/></g><g><path d="m7.0651169 46.768425c.0673995-.0915794.1337934-.1841278.1991439-.2775764 1.6096807.9354362 3.2192588 1.870842 4.8289409 2.8062782-.0653486.0934448-.1317425.1859932-.1991425.2775764-1.6096831-.9354362-3.2192602-1.870842-4.8289423-2.8062782z" fill="#ffd06c"/></g><g><path d="m7.0651169 46.768425c1.6096821.9354362 3.2192593 1.870842 4.8289413 2.8062782-.1471109.1998901-.2990122.3951759-.4553022.5851593l-4.8289437-2.8062744c.1562914-.1899872.3081927-.3852692.4553046-.5851631z" fill="#ffd06c"/></g><g><path d="m7.2849321 27.2029839c.0052505-.0282421.0105009-.0564842.0157514-.0847263l4.8289409 2.8062763c-.005249.0282402-.010499.0564823-.0157499.0847244-1.6096831-.9354325-3.2192603-1.8708401-4.8289424-2.8062744z" fill="#ffd06c"/></g><g><path d="m10.1435661 40.6155701c.6617746-3.5632553 1.3234949-7.1271439 1.9860601-10.6910381-.661499 3.5671635-1.3222237 7.1281109-1.9838972 10.6897869-.515852 2.7673302-1.0247459 5.6964722-.2956829 7.6750336.0841494.2308044.184845.4444656.3003931.6407471-.1159182-.1961288-.216876-.4095154-.3014488-.6401367-.7280149-1.9816553-.2191133-4.9083139.2945757-7.6743928z" fill="#ffd06c"/></g><g><path d="m12.564724 27.6253109c1.1743498 5.9190578 1.9119978 12.8550129 1.9175406 14.8103695.0072765 2.5664635-1.2190142 5.5063782-3.043541 7.7242165-.5155725-.2623482-.9505558-.6667366-1.2728252-1.203701-.1310425-.2223167-.2317228-.4359932-.3158541-.6667862-.7291088-1.9785805-.220171-4.9077225.2956476-7.6750565.6616621-3.5616302 1.3224058-7.1226044 1.9838934-10.6897449.0625324-.3372002.1251001-.6745892.1876469-1.0119038.0768003-.4274788.1589307-.8592644.2474918-1.2873936z" fill="#f45170"/></g><g><path d="m46.4382362 29.9613438c.1348228-.218174.2587128-.4357395.3754005-.6566792-.2194977.4179554-.4648132.8257389-.7627106 1.2511902-3.5554886 5.0821991-6.6143341 5.3883553-9.4617195 5.8298607-2.4612541.3791733-5.0815315 1.3710442-7.7010708 2.8834381-8.08778 4.6694832-12.583622 13.3867989-17.449379 10.8907089 1.8245411-2.2178917 3.0508337-5.1577797 3.0435572-7.724247-.0055428-1.9553719-.7432175-8.8912773-1.9172544-14.8087997 1.4506607-7.0786724 4.7068357-8.8399811 9.2946215-10.0049744 13.8190451-3.5071592 19.9807692-18.5876289 23.757392-9.4684314-.0798607-.1905923-.1647301-.3775024-.2553444-.5576367-1.2417374 7.5753255-2.0201035 16.1111889-2.0142517 18.1745338.0072937 2.5733761 1.2534141 4.0926175 3.0907592 4.1910367z" fill="#4c5c75"/></g><g><path d="m45.3616867 7.595819c.1810646.3600321.3385925.7456651.4766235 1.1259799 1.0766983 3.000946 1.5589294 6.5294666 2.0441704 10.0407801.4463577 3.2298012.9255714 5.880827-.4358292 9.1700001-.294384.7146854-.5992699 1.3667412-1.0084419 2.0288162-1.8373604-.0984364-3.0834808-1.6176491-3.0907784-4.1910286-.0058478-2.0633641.7725373-10.5992098 2.0142556-18.1745477z" fill="#f45170"/></g><g><path d="m10.1504393 48.9300995-4.8289437-2.8062706c-.1159167-.1961327-.2168751-.4095192-.3014474-.6401405-.7280149-1.9816551-.2191138-4.9083176.2945757-7.6743927l4.8289423 2.8062744c-.513689 2.7660789-1.0225906 5.6927376-.2945757 7.6743927.0845727.2306213.1855306.4440078.3014488.6401367z" fill="#ffd06c"/></g><g><path d="m7.283432 27.2110519c1.6096802.9354362 3.2192602 1.8708401 4.8289423 2.8062763-.6568003 3.5329609-1.3127775 7.0659122-1.9688082 10.5982418l-4.8289428-2.8062744c.6560312-3.5323295 1.3120084-7.0652828 1.9688087-10.5982437z" fill="#ffd06c"/></g><g><path d="m7.283432 27.2110519c.0005002-.0026894.0010004-.0053787.0015001-.0080681 1.6096821.9354343 3.2192593 1.870842 4.8289413 2.8062763-.0004988.0026875-.0009985.0053768-.0014992.0080681-1.609682-.9354362-3.219262-1.87084-4.8289422-2.8062763z" fill="#ffd06c"/></g><g><path d="m37.6248474 2.5289056c.4982567-.0110476.9334221.1119354 1.3157616.3338814l4.8289413 2.8062756c-.3823395-.2219467-.8175049-.3449297-1.3157578-.3338823-.7203979.0161176-1.4809799.3024616-2.2607613.752667-1.5914764.9188395-3.2634048 2.5203872-4.8403015 3.9022069-2.1146431 1.8527155-4.3005066 3.4303646-6.4864712 4.6924324-2.3642921 1.3650255-4.7287827 2.36127-7.0065784 2.9393549-.6225986.1580982-1.2474403.289196-1.8763752.4681377-.6758213.1932583-1.3562412.4415169-2.0456429.8395443-.1144886.0660992-.2291756.136322-.3441658.211092-1.5200977.9881439-2.9792118 2.7589645-3.8660698 4.6954422-.5764093 1.2588825-.9046135 2.5330124-1.1623678 3.7907581l-4.8289433-2.8062725c.2577553-1.2577477.5859594-2.5318775 1.1623688-3.79076.886857-1.9364777 2.3459721-3.7072983 3.8660698-4.6954441.1149902-.07477.2296772-.1449909.3441648-.2110901.6894026-.3980274 1.3698225-.646286 2.0456438-.8395452.6289339-.1789408 1.2537756-.3100376 1.8763762-.4681368 2.2777939-.5780859 4.6422844-1.5743303 7.0065765-2.9393549 2.1859665-1.2620678 4.37183-2.8397169 6.4864712-4.6924329 1.5768986-1.3818197 3.248827-2.983367 4.8403034-3.9022067.7797777-.4502056 1.5403635-.7365494 2.2607576-.752667z" fill="#1d2943"/></g><g><path d="m11.2888594 50.0783119-4.8289437-2.8062706c-.4502425-.2616539-.8324103-.6380081-1.1229601-1.1221199-.1310425-.2223167-.2317224-.4359932-.3158536-.6667862-.94415-2.5621376-.058217-5.757225 2.4671874-19.3767052.0768008-.4274788.1589303-.8592644.2474918-1.2873936l4.8289418 2.8062763c-.1347084.6512184-.0025034-.0187626-2.4190311 12.9890404-.5158186 2.767334-1.0247564 5.696476-.2956476 7.6750565.0841312.230793.1848116.4444695.3158541.6667862.2905492.4841118.672718.860466 1.122961 1.1221161z" fill="#e93565"/></g><path d="m18.3255272 21.4787903c1.8063393-1.0428925 3.2728119-.2071877 3.2786961 1.8684349.005867 2.0694923-1.4510822 4.5930367-3.2574215 5.6359291-1.8010082 1.0398121-3.2674875.2041092-3.2733545-1.8653831-.0058842-2.0756226 1.4510717-4.5991688 3.2520799-5.6389809z" fill="#e9e7fc"/><path d="m16.8835258 28.9303074c-.8168945 0-1.3066397-.6782227-1.3100576-1.8139648-.0053711-1.9106445 1.3413076-4.2456055 3.0019522-5.2045898.4326172-.25.8540039-.3818359 1.2177734-.3818359.8178711 0 1.3076172.6796875 1.3110352 1.8188477.0053711 1.9072266-1.34375 4.2407227-3.0073242 5.2011719-.4306641.2490232-.8500977.3803709-1.213379.3803709z" fill="#fff"/><path d="m39.8991776 9.0232353c1.8063393-1.0428905 3.2738838-.2078037 3.2797699 1.8678188.005867 2.0694914-1.4521561 4.5936546-3.2584953 5.6365452-1.8010063 1.0398121-3.2674789.2041054-3.2733459-1.8653851-.0058862-2.0756225 1.4510649-4.5991668 3.2520713-5.6389789z" fill="#e9e7fc"/><path d="m38.4577026 16.4746323c-.8168945 0-1.3066406-.6782227-1.3100586-1.8139648-.0053711-1.9106445 1.3413086-4.2456055 3.0019531-5.2045898.4326172-.25.8540039-.3818359 1.2177734-.3818359.8178711 0 1.3076172.6796875 1.3110352 1.8188477.0053711 1.9072266-1.34375 4.2407227-3.0073242 5.2011719-.430664.2490232-.8500976.3803709-1.2133789.3803709z" fill="#fff"/><g><path d="m23.81884 21.349596c.3574276-.2063618.6485786-.0416679.649744.3690434l.0093288 3.2905922c.0011635.4107075-.2881031.910511-.6455326 1.1168728-.3574276.2063618-.6485786.0416641-.649744-.3690453l-.0093288-3.2905922c-.0011635-.4107113.2881031-.9105091.6455326-1.1168709z" fill="#ffd06c"/></g><g><path d="m34.4200172 15.229001c.3574219-.206357.6485748-.0416632.6497383.3690481l.0093307 3.2905922c.0011635.4107094-.288105.910511-.6455269 1.116869-.3574295.2063618-.6485786.0416641-.6497421-.3690453l-.0093307-3.2905922c-.0011634-.4107112.2881051-.91051.6455307-1.1168718z" fill="#ffd06c"/></g><g><path d="m29.1196575 18.5317726 1.68219 1.3392162-1.0759907.6212235.0066356 2.3408222-1.2035732.6948834-.0066356-2.3408223-1.0717373.6187687z" fill="#fff"/></g><g><g><g><g fill="#f45170"><path d="m18.6585407 23.1501255.0100098 1.0499878c0 .1699829-.1099854.3500366-.25.4500122-.0700073.039978-.1400146.039978-.1600342.039978-.0299683 0-.0700073-.0100098-.1099854-.0199585l-.0100098-.0100098c-.0799561-.0499878-.1199951-.1400146-.1199951-.2399902l-.0100098-1.0500488c0-.1699829.1100464-.3599854.2600098-.4499512.0599976-.0400391.1099854-.0400391.1500244-.0400391.0499878 0 .0899658.0100098.1199951.0300293.0700074.0399781.1199952.1400147.1199952.2399903z"/><path d="m18.5485554 25.8001499c.0799561.0499878.1199951.1299438.1199951.2399902v1.0499878c.0100098.1599731-.1000366.3599854-.25.4500122-.0599976.0299683-.1099854.039978-.1500244.039978-.0499878 0-.0899658-.0100098-.1199951-.0299683-.0800171-.0500488-.1199951-.1300049-.1199951-.2400513l-.0100098-1.0499878c0-.1699829.1099854-.3599854.2600098-.4500122.0599976-.039978.1099854-.039978.1500244-.039978.039978.0000001.0899658.0100099.1199951.0300294z"/><path d="m20.3785114 24.130106c.0100098.1600342-.0999756.3500366-.25.4500122l-.9199829.5200195c-.0499878.039978-.0999756.0499878-.1499634.0499878-.0500488 0-.0800171-.0100098-.1200562-.0300293-.0699463-.0499878-.1299438-.1399536-.1299438-.25 0-.1599731.1199951-.3499756.2699585-.4299927l.9100342-.539978c.1099854-.0499878.1999512-.0499878.2799683 0 .0700073.039978.1099853.1199951.1099853.2299805z"/><path d="m17.7485676 25.3501377c.0699463.039978.1099854.1199951.1199951.2299805 0 .1699829-.1100464.3599854-.2600098.4500122l-.9100342.5200195c-.0599976.0299683-.1099854.0499878-.1599731.0499878-.039978 0-.0800171-.0100098-.1099854-.0300293-.0800171-.0499878-.1300049-.1400146-.1300049-.25 0-.1599731.1099854-.3399658.2600098-.4299927l.9199829-.5299683c.0800171-.0500488.1799927-.0599975.2700196-.0100097z"/></g></g></g></g><g><g><g><g fill="#f45170"><path d="m40.2327156 10.6944504.0100098 1.0499878c0 .1699829-.1099854.3500366-.25.4500122-.0700073.039978-.1400146.039978-.1600342.039978-.0299683 0-.0700073-.0100098-.1099854-.0199585l-.0100098-.0100098c-.0799561-.0499878-.1199951-.1400146-.1199951-.2399902l-.0100098-1.0500488c0-.1699829.1100464-.3599854.2600098-.4499512.0599976-.0400391.1099854-.0400391.1500244-.0400391.0499878 0 .0899658.0100098.1199951.0300293.0700074.0399781.1199952.1400147.1199952.2399903z"/><path d="m40.1227303 13.3444748c.0799561.0499878.1199951.1299438.1199951.2399902v1.0499878c.0100098.1599731-.1000366.3599854-.25.4500122-.0599976.0299683-.1099854.039978-.1500244.039978-.0499878 0-.0899658-.0100098-.1199951-.0299683-.0800171-.0500488-.1199951-.1300049-.1199951-.2400513l-.0100098-1.0499878c0-.1699829.1099854-.3599854.2600098-.4500122.0599976-.039978.1099854-.039978.1500244-.039978.039978.0000001.0899658.0100099.1199951.0300294z"/><path d="m41.9526863 11.6744308c.0100098.1600342-.0999756.3500366-.25.4500122l-.9199829.5200195c-.0499878.039978-.0999756.0499878-.1499634.0499878-.0500488 0-.0800171-.0100098-.1200562-.0300293-.0699463-.0499878-.1299438-.1399536-.1299438-.25 0-.1599731.1199951-.3499756.2699585-.4299927l.9100342-.539978c.1099854-.0499878.1999512-.0499878.2799683 0 .0700073.0399781.1099853.1199952.1099853.2299805z"/><path d="m39.3227425 12.8944626c.0699463.039978.1099854.1199951.1199951.2299805 0 .1699829-.1100464.3599854-.2600098.4500122l-.9100342.5200195c-.0599976.0299683-.1099854.0499878-.1599731.0499878-.039978 0-.0800171-.0100098-.1099854-.0300293-.0800171-.0499878-.1300049-.1400146-.1300049-.25 0-.1599731.1099854-.3399658.2600098-.4299927l.9199829-.5299683c.0800171-.0500488.1799927-.0599975.2700196-.0100097z"/></g></g></g></g><g><g><g enable-background="new"><g><path d="m25.7529316 34.3499107c0 2.1900024-1.5300293 4.8699951-3.460022 5.9800415-.9699707.5599976-1.8599854.5999756-2.4899902.2099609l-1.3800049-.7799683c-.6300049-.3600464-.9899902-1.1500244-1.0200195-2.2300415 0-2.1999512 1.5600586-4.8899536 3.460022-5.9999981.9700317-.539978 1.8400269-.5999756 2.4700317-.2399902l1.3999634.8099957c-.039978-.0199585-.0800171-.039978-.1300049-.0599976.7000122.3300172 1.1400146 1.130005 1.1500244 2.3099976z" fill="#c9cee2"/></g></g></g></g><g><path d="m24.729351 32.103157c-.6330051-.3616638-1.507-.3013248-2.4413319.2411728-1.9290047 1.1151657-3.4661751 3.7976685-3.4661751 5.9978333 0 1.0849953.3918362 1.8686638 1.0248413 2.2303276l-1.4221668-.8152428c-.632822-.3616676-.9944878-1.1453362-1.0246563-2.2303314 0-2.2003441 1.5671539-4.8826675 3.4659901-5.9978313.9645023-.5426826 1.8386803-.6028366 2.4715023-.2411709z" fill="#c9cee2"/><path d="m22.2730331 32.3492851c1.9243889-1.1110458 3.468874-.2087326 3.4751415 2.0024605.0062065 2.1891518-1.5281219 4.8689423-3.4525108 5.9799919-1.9050732 1.0998917-3.4688721.2088051-3.4750786-1.9803429-.0062694-2.2111968 1.5473748-4.902214 3.4524479-6.0021095z" fill="#e3e7f0"/><g><g enable-background="new"><g><path d="m24.4329243 34.7098961v1.3300171l-1.3200074.7700195v1.5299683l-1.1599731.6700439-.4800415-.2800293-.0099487-.9699707-.8500367.4899903-.4699707-.2800293-.0100097-1.3299561 1.3300171-.7700195v-1.5300293l1.1599731-.6699829.4799805.2700195v.9799805l.8500366-.4899903z" fill="#1d2943"/></g></g></g><g><g enable-background="new"><g><path d="m21.9495373 39.0114746-.4777756-.2776527-.004343-1.5317688.4777755.2776527z" fill="#111d33"/></g><g><path d="m23.1056862 35.4746666-.4777756-.2776527 1.3243847-.7646332.4777756.2776527z" fill="#1d2943"/></g><g><path d="m20.6164646 38.2468452-.4777756-.2776527-.0037784-1.3328438.4777756.2776528z" fill="#111d33"/></g><g><path d="m20.6126862 36.9140015-.4777756-.2776528 1.3287296-.7671394.4777756.2776527z" fill="#1d2943"/></g><g><path d="m21.9414158 36.146862-.4777756-.2776527-.004343-1.5318031.4777756.2776527z" fill="#111d33"/></g><g><path d="m21.9370728 34.6150589-.4777756-.2776527 1.1642704-.6721955.4777756.2776528z" fill="#111d33"/></g><g><path d="m23.1013432 33.9428635.004343 1.5318031 1.3243847-.7646332.0037784 1.3328438-1.3243847.764637.0043431 1.5317688-1.1642704.6721916-.0043431-1.5317688-1.3287296.7671394-.0037784-1.3328437 1.3287296-.7671395-.004343-1.5318031z" fill="#4c5c75"/></g></g></g></g><g><g><g><path d="m35.8029175 32.2098961c0 .8900146-.6300049 1.9900513-1.4099731 2.4400024-.4400024.2600098-.8300171.25-1.0900269.0500488.0200195.0299683.0499878.039978.0700073.0599976l-.8599854-.5100098c-.2600098-.1500244-.4200439-.4700317-.4200439-.9100342 0-.8999634.6300049-1.9999981 1.4200439-2.4400005.3899536-.2399902.75-.2599487 1.0100098-.0999756l.789978.460022c.0200195.0099487.0499878.0299683.0700073.039978.2600098.1400147.419983.4500123.419983.9099713z" fill="#df3260"/></g></g><g enable-background="new"><g><path d="m35.3868179 31.3023701c-.2590866-.1603775-.6168098-.1357555-1.0115776.0986347-.7771873.4441605-1.4063454 1.5420265-1.4063454 2.4426231 0 .4440842.1603737.7648392.4071159.9128647l-.8635521-.505825c-.2590866-.1480293-.4194641-.4687843-.4194641-.9128685 0-.9005203.629158-1.9984608 1.4186935-2.4425449.3947678-.2343922.752491-.2590885 1.0115814-.098711z" fill="#df3260"/></g><g><ellipse cx="34.385" cy="33.025" fill="#f45170" rx="1.998" ry="1.158" transform="matrix(.502 -.865 .865 .502 -11.445 46.161)"/></g></g><g><g><path d="m40.3428955 29.6299419c.0100098.8899536-.6299438 2-1.4099731 2.4500103-.4299927.2399902-.8099976.25-1.0700073.0499878.0200195.0199585.039978.039978.0599976.0499878l-.8699952-.5100078c-.25-.1400146-.4099731-.4699707-.4099731-.9099731 0-.9000244.6199951-2 1.4099731-2.4400024.4000244-.2399902.7600098-.2600098 1.0200195-.1000366l.8099976.4700317c.2799682.1300048.4599609.4599608.4599609.9400023z" fill="#febc1f"/></g></g><g enable-background="new"><g><path d="m39.931797 28.7248363c-.2590866-.1603775-.6168098-.1357555-1.0115776.0986347-.7771873.4441605-1.4063492 1.5420265-1.4063492 2.4426212 0 .4440861.1603775.7648411.4071159.9128666l-.8635483-.505825c-.2590866-.1480293-.4194641-.4687824-.4194641-.9128685 0-.9005184.629158-1.9984608 1.4186935-2.4425449.3947678-.2343922.752491-.2590885 1.0115776-.098711z" fill="#febc1f"/></g><g><ellipse cx="38.93" cy="30.447" fill="#ffd06c" rx="1.998" ry="1.158" transform="matrix(.502 -.865 .865 .502 -6.955 48.808)"/></g></g><g><g><path d="m40.8529053 23.6499004c0 .8900146-.6300049 2-1.4099731 2.4500122-.4400024.25-.8300171.25-1.0900269.0400391.0200195.0299683.0499878.039978.0700073.0599976l-.8599854-.5100098c-.2600098-.1500244-.4199829-.4700317-.4199829-.9100342 0-.8999634.6300049-2 1.4199829-2.4400024.3900146-.2399902.75-.2599487 1.0100098-.0999756l.789978.460022c.0200195.0099487.0499878.0299683.0700073.039978.2600098.1400146.419983.4500122.419983.9099731z" fill="#5ec363"/></g></g><g enable-background="new"><g><path d="m40.4365578 22.7434845c-.2590904-.1603756-.6168137-.1357555-1.0115814.0986366-.7771873.4441605-1.4063454 1.5420265-1.4063454 2.4426212 0 .4440842.1603775.7648392.4071159.9128666l-.8635483-.505827c-.2590904-.1480274-.4194641-.4687824-.4194641-.9128666 0-.9005203.629158-1.9984608 1.4186935-2.4425468.3947678-.2343903.752491-.2590866 1.0115776-.098711z" fill="#5ec363"/></g><g><ellipse cx="39.435" cy="24.466" fill="#78e75a" rx="1.998" ry="1.158" transform="matrix(.502 -.865 .865 .502 -1.533 46.269)"/></g></g><g><g><path d="m37.2929077 27.0399151c.0100098.9000244-.6300049 2-1.4099731 2.4500122-.4199829.2399902-.7999878.25-1.0599976.0599976.0100098.0200195.0299683.0300293.0499878.039978l-.8699951-.5c-.2600098-.1499634-.4199829-.4699707-.4199829-.9199829 0-.9000244.6300049-1.9899902 1.4199829-2.4400024.3999634-.2299805.7600098-.2600098 1.0100098-.0999756l.8099976.4799805c.2899779.1300048.4699706.4500121.4699706.9299926z" fill="#5094ff"/></g></g><g enable-background="new"><g><path d="m36.8807297 26.1381397c-.2590866-.1603775-.6168098-.1357555-1.0115776.0986347-.7771873.4441624-1.4063454 1.5420265-1.4063454 2.4426212 0 .4440861.1603775.7648392.4071159.9128685l-.8635521-.505827c-.2590866-.1480274-.4194641-.4687824-.4194641-.9128666 0-.9005203.6291618-1.9984608 1.4186974-2.4425468.3947678-.2343903.752491-.2590885 1.0115776-.098711z" fill="#5094ff"/></g><g><ellipse cx="35.879" cy="27.861" fill="#57b3fe" rx="1.998" ry="1.158" transform="matrix(.502 -.865 .865 .502 -6.237 44.883)"/></g></g></g></g><path d="m15.478302 19.6685658c-1.2908134 0-2.3352127 1.0444012-2.3352127 2.3352127 0-.6442814-.2622252-1.2297707-.6826944-1.652504-.4227467-.4204845-1.0082369-.6827087-1.6525049-.6827087.644268 0 1.2297583-.2622242 1.6525049-.6827087.4204693-.4227314.6826944-1.0082226.6826944-1.652504 0 .6442814.2622375 1.2297726.6827078 1.652504.4227323.4204845 1.0082369.6827087 1.6525049.6827087z" fill="#fff"/></g><g><g enable-background="new"><g><path d="m27.8329487 10.0299044v3.8099976c0 .3800049-.2400513.7600098-.7400513 1.0400391-.9899902.5700073-2.5799561.5700073-3.5599976 0-.4899902-.2800293-.7399902-.6500244-.7399902-1.0200195v-3.8200073c0-.3699951.25-.75.75-1.039978.0499878-.0300293.1000366-.0499878.1500244-.0700073v-5.5900266c0-.2399902.1599731-.4799805.4799805-.6699829.6300049-.3599854 1.6600342-.3599854 2.2900391 0 .3099976.1900024.4699707.4299927.4699707.6699829v5.5800166c.0599976.0200195.1199951.0499878.1699829.0800171.4899902.2799683.7300415.6599731.7300415 1.0299683z" fill="#c9cee2"/></g></g></g><g><g enable-background="new"><g><path d="m22.795351 10.0400877.0000134 3.8157244c.0010509.3713932.2450771.7422304.7325668 1.025528.9812927.5702658 2.5781536.5702734 3.5658588.000021.4946594-.2855911.7423134-.6620426.7412472-1.0382566l-.0000076-3.8157158c.0010624.3762102-.2465897.7526617-.7412491 1.0382528-.9877052.5702524-2.5845661.5702448-3.5658607-.000021-.4874897-.2832976-.7315159-.6541348-.7325688-1.0255328z" fill="#c9cee2"/></g><g><path d="m23.5395451 9.0001469c-.9877033.5702515-.9929104 1.4952126-.0116253 2.0654736.9812946.5702658 2.5781555.5702734 3.5658607.000021.9829845-.5675268.9905548-1.4938526.0092621-2.0641184-.981287-.5702611-2.5805111-.568904-3.5634975-.0013762z" fill="#e3e7f0"/></g></g></g><g><g enable-background="new"><g><path d="m23.6941013 3.3426182.0000076 6.3914251c.0006752.2389288.1576653.4775.471283.6597548.6312981.366869 1.6586075.3668737 2.2940292.0000134.3182297-.1837301.4775543-.4259129.4768677-.667944l-.0000038-6.3914187c.0006828.242028-.1586399.4842105-.4768696.6679406-.6354218.3668609-1.6627331.3668561-2.2940311-.0000134-.3136158-.1822545-.4706059-.4208254-.471283-.6597578z" fill="#c9cee2"/></g><g><path d="m24.1728649 2.6735916c-.6354218.3668609-.6387711.9619176-.0074806 1.3287845.6312981.3668694 1.6586094.3668742 2.2940311.0000134.6323853-.365108.6372547-.9610426.0059586-1.3279123-.6312924-.3668669-1.6601238-.3659936-2.2925091-.0008856z" fill="#e3e7f0"/></g></g></g></g></g></svg>