<svg id="Layer_1" enable-background="new 0 0 53 53" height="512" viewBox="0 0 53 53" width="512" xmlns="http://www.w3.org/2000/svg"><g id="_x32_2"><g><g><g><g><g><path d="m32.9897346 36.8876953c0 1.0999756-.7799683 2.4400024-1.7299805 2.9899902l-17.9800414 10.3800049c-.4899902.2800293-.9299927.3099976-1.2399902.1199951l-.0899658-.0599976-3.0100098-1.7399902c-.3099976-.1799927-.5-.5700073-.5-1.1099854l-.0900269-31.3599833c-.0100098-1.1000366.7700195-2.4400024 1.7300415-2.9900513l17.9699707-10.3800051c.4899902-.2799683.9299927-.2999878 1.2399902-.1199951l3.0300293 1.76001c.0199585.0100098.039978.0200195.0499878.0300293.3200073.1799927.5200195.5700073.5299683 1.1199951z" fill="#1c2841"/></g></g></g></g><g><g><g><g><g enable-background="new"><g><g><path d="m32.3897591 4.4177265-20.3500367 45.959959-3.0999756-1.7999878c-.3099976-.1799927-.5-.5700073-.5-1.1099854l-.0900268-31.3599833c-.0100098-1.1000366.7700195-2.4400024 1.7300415-2.9900513l17.9699707-10.3800051c.4899902-.2799683.9299927-.2999878 1.2399902-.1199951z" fill="#4d5c75"/></g></g><g><g><path d="m31.1555233 4.5387659c.9569759-.5525095 1.7391376-.108808 1.7422581.9928617l.0888863 31.3527794c.0031166 1.0996437-.7739716 2.44561-1.7309456 2.9981194l-17.9770871 10.3790741c-.956975.5525093-1.7391424.1067848-1.74226-.9928589l-.0888853-31.3527813c-.0031233-1.1016693.7739706-2.4456081 1.7309456-2.9981174z" fill="#1c2841"/></g></g></g></g><g><g><g><path d="m22.2895813 41.871109c.5411701-.3124428.9804611-.0638733.9822235.5579567.0017586.620079-.4346848 1.3760338-.9758549 1.6884804-.5396271.311554-.9789219.0612068-.9806805-.5588722-.0017623-.6218338.4346848-1.3760109.9743119-1.6875649z" fill="#4d5c75"/></g></g><g><g><path d="m31.2249413 35.4653778-17.9400015 10.3499756-.0799561-28.7598877 17.9400015-10.3500972z" fill="#fff"/></g></g><g><g><path d="m28.8451614 38.5866585c.3006496-.1735802.545042-.036087.5460205.3093834.0004883.1718597-.0592003.3624763-.1590958.5337067-.096817.1676979-.2322941.3168945-.3833885.404129l-2.8708191 1.6574669c-.2991085.1726913-.5435047.0334167-.5444794-.310276-.0004883-.171833.0591946-.3642311.1575546-.5328178.0983582-.1685829.2322922-.3168907.3833885-.4041252z" fill="#4d5c75"/></g></g><g><g><path d="m18.6076546 44.4972839c.3006496-.1735802.5435009-.0351944.5444794.310276.0004864.1718597-.0576591.3615875-.1575546.5328178-.096817.1676941-.2322922.3168907-.3833885.404129l-2.8708191 1.6574669c-.2991076.1726875-.5435047.0334167-.5444794-.310276-.0004864-.171833.0591955-.3642311.1575546-.5328178.0968161-.1676979.2322931-.3168945.3833885-.404129z" fill="#4d5c75"/></g></g></g></g><g><g><path d="m27.9742317 4.55831c-.5644016-.320374-1.4949837-.320374-2.0593853 0-.5033245.289835-.5643997.7321758-.1830425 1.0525498.0458069-.0458078.1067905-.0915222.1830425-.1373301.5644016-.3202801 1.4949837-.3202801 2.0593853 0 .0609837.0458078.1219673.0915222.1830444.1373301.3660889-.3203739.3051053-.7627148-.1830444-1.0525498z" fill="#fff"/></g><g><path d="m25.9148464 5.4735298c-.076252.0458078-.1372356.0915222-.1830425.1373301.0458069.0457144.1067905.0915217.1830425.1372361.5796719.3356428 1.4949837.3356428 2.0593853 0 .0609837-.0304451.1219673-.0762529.1830444-.1219673v-.0152688c-.0610771-.0458078-.1220608-.0915222-.1830444-.1373301-.5644016-.3202801-1.4949837-.3202801-2.0593853 0z" fill="#111d33"/></g></g></g><g><g><g><path d="m28.1831322 22.8153534c0 1.8900146-.6600342 3.9901123-1.75 5.8499756v.0100098c-.6700439 1.1700439-1.5 2.2399902-2.4299927 3.1101074l-.0100098.0100098c-.4000244.369873-.8200073.7099609-1.25.9899902-.1700439.119873-.3400269.2299805-.5100098.3299561-.1799927.0999756-.3599854.1999512-.539978.2799072-.4400024.210083-.8600464.3601074-1.2700195.4400635-.9299927.2000732-1.7600098.0799561-2.4299927-.3099365-1.0700073-.6201172-1.7300415-1.9400635-1.7399902-3.8200684-.0100098-3.7800293 2.6499634-8.3999023 5.9400024-10.3000488 3.2999878-1.8999024 5.9799805-.3698731 5.9899903 3.4100341z" fill="#78e75a"/></g></g></g><g><g><g><g><path d="m24.6531029 30.3054657-.6499634 1.4799805-.0100098.0100098c-.4000244.369873-.8200073.7099609-1.25.9899902l.5499878-3.2200928c.039978-.2099609.0499878-.4100342.0200195-.5799561-.0100098-.0700684-.0200195-.1300049-.0400391-.1899414-.0100098-.0100098-.0199585-.0300293-.0199585-.0400391l.2699585-.1600342c.0200195.0100098.0400391.0100098.0599976.0200195.2999878.1700439.5800171.4599609 1.0100098.7600098l-.6599731.8199463z" fill="#df3260"/></g></g><g><g><path d="m21.1785202 28.9678917c.3132744.0301437.6608391-.0530624 1.0266819-.2642803.3658504-.2112255.7127495-.5289574 1.0248299-.9201508l.0016689.5888443c.0003872.1368694-.0147438.277853-.0431843.4187031-.1240253.6142788-.501194 1.2261353-.9483662 1.4843102l-.0608788.0351486c-.4471703.2581749-.8265629.0831184-.953661-.3861752-.0291443-.1076031-.0450325-.2306767-.0454197-.3675461z" fill="#f5c9c6"/></g></g><g enable-background="new"><g><g><path d="m19.1430931 31.125412 1.7399902-1.0100098c-.0099487.0299072-.039978.0699463-.0499878.0899658-.2999878.5200195-.5799561 1.1300049-1 1.9200439l.6500244.0599365-.710022.9300537.6500244.7199707c-.9299927.2000732-1.7600098.0799561-2.4299927-.3099365l.25-1.0800781c.130005-.5500488.4899904-1.079956.8999635-1.3199462z" fill="#f45170"/></g><g><path d="m26.4331322 28.665329v.0100098c-.6700439 1.1700439-1.5 2.2399902-2.4299927 3.1101074l.6499634-1.4799805-.7199707-.1101074.6599731-.8199463c-.4299927-.3000488-.710022-.5899658-1.0100098-.7600098-.0199585-.0100098-.039978-.0100098-.0599976-.0200195l1.75-1.0100098c.4100342-.2299805.7700195-.1199951.9000244.2800293z" fill="#f45170"/></g></g><g><g><path d="m21.4040604 21.1698875c.1022606-.0590401.2048969-.1104736.3067741-.1591988.3610973-.1727467.7204437-.3150578 1.0750103-.4251766.3600445-.1125832.7177467-.1929855 1.0440216-.1718655.3262844.0218163.6205521.150404.8109627.4258251.2363377.343502.2952023.890358.2779179 1.4594593-.0077477.2396355-.0294151.4851742-.0639477.7347946-.0836163-.0452347-.1856441-.0413818-.2954941.0220394-.137516.0793953-.2621822.2373238-.3536606.4296322-.0114975-.1140728-.0230007-.2281265-.0345058-.3421516-.0219669-.2220364-.0470047-.4507084-.1540966-.5850582-.1217766-.1532021-.3352032-.1596012-.5508556-.0883446-.1437607.0475006-.2907085.1261158-.4377956.2110329-.0735512.0424652-.1471233.0865002-.2203846.1290302-.0099258.0057774-.0198822.0115509-.029808.0172806-.4271812.2466335-.8548851.4494209-1.2763538.6051083-.1735687.0641308-.3827553.108902-.5783672.2218342-.1462536.0844345-.2848969.2069511-.3954582.4041653-.1158733.2077293-.1511974.4376221-.1810837.6517582-.0514431.369751-.1028957.7393589-.1543713 1.1089954-.0930061-.0952339-.2223053-.1130924-.3651314-.0306301-.1141739.065918-.219471.1858025-.3042927.3345718-.0600109-.4091873-.0779362-.8510857-.0509262-1.3177986.0191746-.3340721.0638866-.6919956.2025127-1.04809.1284199-.3334618.4151039-.6475296.668787-.793993.0177441-.0102444.0353069-.019659.05266-.0282135-.0920048-.1914082-.039896-.5220757.095871-.8106537.1369896-.2885895.3460464-.5333004.562006-.7126389.1149424-.0956172.2322253-.1737078.3500098-.2417144z" fill="#5e355a"/></g></g></g><g><g><path d="m21.6931419 33.3953094c-.4400024.210083-.8600464.3601074-1.2700195.4400635l-.6500244-.7199707.710022-.9300537-.6500244-.0599365c.4200439-.7900391.7000122-1.4000244 1-1.9200439.0100098-.0200195.0400391-.0600586.0499878-.0899658l.2900391-.1600342c-.0100098.0200195-.0200195.0500488-.0300293.0700684-.0599976.289917-.0700073.5599365-.0199585.789917z" fill="#df3260"/></g></g><g><g><path d="m23.2931175 29.5653534-.5499878 3.2200928c-.1700439.119873-.3400269.2299805-.5100098.3299561-.1799927.0999756-.3599854.1999512-.539978.2799072l-.5700073-2.5799561c-.0500488-.2299805-.0400391-.5.0199585-.789917.0100098-.0200195.0200195-.0500488.0300293-.0700684l.0499878-.0300293c.0200195.0800781.0499878.1500244.0900269.2099609.039978.0700684.0799561.1201172.1300049.1601563.1399536.1298828.3299561.1599121.539978.0998535.0700073-.0198975.1300049-.0499268.2000122-.0898438l.0599976-.0300293c.4400024-.2600098.8200073-.8701172.9500122-1.4799805l.0599976-.0400391c0 .0100098.0099487.0300293.0199585.0400391.0200195.0599365.0300293.119873.0400391.1899414.0199584.169922.0199584.3699953-.0200197.5799562z" fill="#fff"/></g></g></g><g><g><path d="m25.0717697 23.5642872c.001503.4307652-.2131386.9065666-.483305 1.0821724-.2926826 1.7170658-1.2472725 3.401104-2.3834763 4.0570107-.9545898.550848-1.7845993.2311497-2.2048683-.6994305-.0795441-.1771088-.145586-.3767338-.1936169-.5973663-.2701645.1365795-.4862995-.0900612-.4878006-.5208282 0-.264164.0795536-.544838.2041225-.7624741.0855541-.148592.1906223-.2686634.3046932-.3347054.1425915-.0825481.2716694-.064539.3647251.0300198.0525303-.3692303.1035652-.7384548.1545925-1.1091881.0300198-.213131.06604-.4427776.1816158-.6513996.1095638-.1966209.2491589-.3196983.3947449-.4037495.1966209-.1125698.4052525-.1576061.5793571-.2221451.4202576-.1560936.8480282-.3587151 1.2757893-.6048698.0105076-.0060101.0195141-.0120106.0300217-.0180111.0735435-.0420303.1470871-.0855541.2206402-.1290855.147089-.084053.292675-.1635971.4367676-.210125.216135-.0720425.4292641-.064539.5508385.0885487.1080723.133585.1320839.3632317.1546001.5838642.012001.1140728.0225086.2281456.0345192.3422165.0915546-.1921234.2161331-.3497181.3542175-.4292717.1095734-.0630379.2116356-.0675354.2941856-.0210075.1305792.0705393.2161333.2596587.2176363.5298251z" fill="#f4d6d4"/></g></g></g></g><g><g><g enable-background="new"><g><g><path d="m44.6497078 14.8377094c0 .539978-.3699951 1.1900024-.8399658 1.4599609l-9.25 5.3400269-2.1199951 3.6599731-1.5100098-.8699951v-.7799682c-.1099854.0100098-.210022-.0100098-.289978-.0700073-.0100098 0-.0200195 0-.0200195-.0100098l-1.460022-.8499756c-.1499634-.0900269-.25-.2700195-.25-.5400391l-.0199585-9.8499756c-.0100098-.5300293.3699951-1.1799927.8299561-1.4500122l12.5500488-7.25c.2299805-.1300049.4400024-.1400146.5999756-.0499878l1.4699707.8499758c.1700439.0800171.2800293.2800293.2800293.5599976z" fill="#986ff9"/></g></g></g></g></g><g><g><g enable-background="new"><g><g><path d="m32.4378433 22.8627682.0064354 2.4387111-1.5108089-.8786296-.0064221-2.4387112z" fill="#b28afd"/></g><g><path d="m44.3797493 4.4476948-13.710022 19.1500244-1.5100098-.8800049c-.1499634-.0900269-.25-.2700195-.25-.5400391l-.0199585-9.8499756c-.0100098-.5300293.3699951-1.1799927.8299561-1.4500122l12.5500488-7.25c.2299805-.1300049.4400024-.1400146.5999756-.0499878z" fill="#b28afd"/></g></g><g><g><path d="m43.7768784 4.5092478c.4651947-.26858.8440514-.0526834.8455696.4818606l.0279236 9.8497581c.0015144.5345545-.3748817 1.186492-.8400764 1.4550734l-9.2505302 5.3407955-2.1152 3.6636734-.0069122-2.4384727-1.1711922.6761894c-.4651947.2685795-.8426857.051899-.8442001-.4826546l-.0279255-9.8497591c-.0015144-.534544.3735161-1.1856985.8387108-1.4542789z" fill="#986ff9"/></g></g></g></g></g></g><g><g enable-background="new"><g><g><path d="m34.9797249 15.8776875c0 .7800293-.539978 1.7200317-1.2199707 2.1099854-.3699951.210022-.7000122.2200317-.9200439.0400391.0100098.0299683.0300293.039978.0500488.0499878l-.7200317-.4199829c-.2199707-.1300049-.3599854-.4000244-.3599854-.7800293 0-.7799683.5499878-1.7299805 1.2299805-2.1199951.3300171-.2000122.6400146-.210022.8599854-.0899658l.7300415.4199829c-.0200195-.0100098-.0400391-.0200195-.0599976-.0200195.2499999.1099851.4099731.4000242.4099731.8099974z" fill="#d3daea"/></g><g><path d="m33.9045448 14.6718149.7254944.4185705c-.2232094-.1256132-.53022-.1116476-.8790398.0837126-.6697159.3906345-1.2139015 1.3395033-1.2139015 2.1208601-.0000038.3766708.139576.6557446.3488197.7813587l-.7116127-.4186554c-.2232075-.1255283-.3627014-.404604-.3626995-.7813587.0000019-.7813568.5441036-1.7301407 1.227869-2.1207752.3348542-.1953602.6417771-.2093258.8650704-.0837126z" fill="#fff"/></g><g><path d="m39.1097298 13.4976826c0 .7800293-.5499878 1.7200317-1.2199707 2.1100464-.3400269.1999512-.6500244.2199707-.8699951.0799561l-.0700073-.039978-.6500244-.3800049c-.2199707-.1199951-.3599854-.3900146-.3599854-.7800293 0-.7799683.5499878-1.7099609 1.2199707-2.0999756.3400269-.2000122.6500244-.2299805.8699951-.0900269l.6500244.3800049.0700073.0400391c.2199707.119995.3599854.3900146.3599854.7799682z" fill="#d3daea"/></g><g><path d="m38.0345535 12.299818.7116127.4185705c-.2232094-.1394949-.5302162-.1116476-.8650742.0837126-.6697121.3907194-1.2278671 1.3255367-1.2139015 2.1068945 0 .3906355.1256104.6557446.3488197.7813578l-.7116089-.4185705c-.2232094-.1256132-.3627892-.3907223-.3627853-.7813578 0-.7813578.5441856-1.71626 1.2138977-2.1068945.3488236-.1953602.6558343-.2232923.8790398-.0837126z" fill="#fff"/></g><g><path d="m42.8762589 10.3324251c-.2232933-.1255283-.5302162-.1115627-.8650742.0837126-.6836777.3907194-1.2278633 1.3395033-1.2278671 2.1068945 0 .3907213.1394958.6558294.3627892.7953243l-.7255783-.4185705c-.2093277-.1256132-.3488197-.404603-.3488197-.7953243.0000038-.7673912.5441895-1.7161751 1.2139015-2.1068945.3348579-.1952753.6557465-.2092409.8790398-.0837126z" fill="#fff"/></g></g><g><g><path d="m43.2297249 11.1176777c.0100098.7700195-.539978 1.7200317-1.2199707 2.1100464-.3400269.1999512-.6400146.2199707-.8600464.0899658l-.7299805-.4199829c-.2099609-.1199951-.3499756-.4000244-.3499756-.789978 0-.7700195.5499878-1.7200317 1.2199707-2.1100464.3300171-.2000122.6500244-.2099609.8699951-.0799561l.7200317.4099731c-.0200195-.0100098-.0300293-.0200195-.0499878-.0200195.2399903.1100464.3999635.4000244.3999635.8099976z" fill="#fff"/></g></g><g><g><path d="m42.0054398 10.4153795c.6760025-.3902864 1.2254562-.0771608 1.2276535.6996059.0021973.7760553-.5436897 1.7222834-1.2196884 2.1125689-.6753693.3899221-1.2248344.0760908-1.2270317-.6999636-.0021973-.7767677.5436973-1.722289 1.2190666-2.1122112z" fill="#d3daea"/></g></g></g></g></g></svg>