<svg id="Layer_1" enable-background="new 0 0 50 50" height="512" viewBox="0 0 50 50" width="512" xmlns="http://www.w3.org/2000/svg"><linearGradient id="SVGID_1_" gradientUnits="userSpaceOnUse" x1="-350" x2="-349.293" y1="-280" y2="-279.293"><stop offset="0" stop-color="#dedfe3"/><stop offset=".1783311" stop-color="#dadbdf"/><stop offset=".3611409" stop-color="#cecfd3"/><stop offset=".546043" stop-color="#b9bcbf"/><stop offset=".7323959" stop-color="#9ca0a2"/><stop offset=".9181451" stop-color="#787d7e"/><stop offset="1" stop-color="#656b6c"/></linearGradient><g id="_x35_2"><g><g><g enable-background="new"><g><path d="m38.4476051 22.9721966-.2599487.1500244.4299927.25c.0299683.0199585.0599976.0299683.0799561.0499878.3900146.2199707.6000366.7600098.4800415 1.539978-.1500244 1.0100098-.8900146 2.0599976-1.7000122 2.5700073l.4400024.25c.0299683.0200195.0499878.0300293.0800171.0499878.3299561.1900024.5199585.6100464.5 1.2200317-.0500488 1.0999756-.8800049 2.3999634-1.8200073 2.9500141l-.4200439.2399902.3900146.2399902c.0300293.0100098.0599976.0200195.0900269.0499878.25.1099854.4400024.3599854.5199585.7200317.2300415 1.1499634-.5999756 2.7699585-1.6799927 3.3899536l-11.3399658 6.6199951c-1.0800171.6199951-2.1199951.8200073-2.9800415.5700073l-.4899902-.1199951-.0199585-4.3699951v-4.3699951l-.0100098-2.0100098-.0200195-1.9599628-3.5800171-2.0800171c0-.0599976 6.1400146-6.1699829 6.2300415-14.2900381 0-.4499512.3099976-.9799805.6900024-1.2099609.3499756-.1699829.75-.2600098 1.1499634-.0200195l3.5100098 2.0400391.0100098.0099487c.0499878.0100098.0899658.0400391.1400146.0700073.4599609.3200073.7099609.9299917.75 1.7000113.039978.8699951.0100098 1.7999878-.0900269 2.7800293l5.210022-3.0400391c.5199585-.2999878 1-.3300171 1.3399658-.1300049l3.5900269 2.0800171c-.0300293-.0200195-.0599976-.0300293-.0900269-.039978.3699951.1599731.6100464.5599976.5800171 1.1799927 0 .5299683-.2000122 1.0999756-.4899902 1.6199951-.3099977.5399781-.7399904 1.0200196-1.2200319 1.2999879z" fill="#f5c9c6"/></g><g><path d="m33.2149086 30.4745407 3.58395 2.0827789c-.3338852-.1940498-.8022003-.1582031-1.2931519.125248l-3.5839577-2.0827503c.4909555-.2834664.9592706-.3193112 1.2931596-.1252766z" fill="#f4d6d4"/></g><g><path d="m34.4104691 25.7485733 3.58395 2.0827675c-.317524-.1845284-.7596474-.1547298-1.250103.1284332l-3.5839577-2.0827522c.4904595-.2831764.9325829-.3129749 1.2501107-.1284485z" fill="#f4d6d4"/></g><g><path d="m35.1181602 21.3362617 3.5839424 2.0827694c-.3134651-.1821766-.746273-.1570702-1.2223701.1178055l-3.5839539-2.082756c.476101-.2748852.9089051-.2999916 1.2223816-.1178189z" fill="#f4d6d4"/></g><g><path d="m36.0826187 16.8287086 3.5839386 2.0827675c-.3432274-.1994705-.8297272-.1658325-1.3459129.1321869l-3.5839539-2.0827656c.5161858-.2980213 1.0026856-.3316574 1.3459282-.1321888z" fill="#f4d6d4"/></g><g><path d="m20.7648659 43.7127953-3.583952-2.0827637-.0123939-4.3714867 3.5839538 2.0827637z" fill="#f4d6d4"/></g><g><path d="m29.311306 24.3105965-3.5839539-2.0827656 9.0093384-5.2669335 3.5839539 2.0827656z" fill="#f4d6d4"/></g><g><path d="m28.9726486 24.343895-3.5839634-2.082756c.0854244.0496273.2034245.044775.3386669-.033308l3.5839539 2.0827656c-.1352444.0780829-.2532425.0829352-.3386574.0332984z" fill="#f4d6d4"/></g><g><path d="m12.6471548 43.0647163c.2232676.1297569.5319252.1124306.8709669-.0833168l3.5839481 2.0827827c-.3390369.1957283-.6476936.2130547-.8709621.0833015-1.0751982-.6248168-2.5087776-1.4579314-3.5839529-2.0827674z" fill="#f45170"/></g><g><path d="m14.7397423 40.8654671c-.0010929-.3857193-.1371002-.6587563-.3576498-.7869415l3.5839491 2.0827713c.2205544.1281776.3565598.4012146.3576546.7869377.0021935.7741356-.5398006 1.7222824-1.2216225 2.1159325l-3.5839567-2.0827599c.6818256-.3936577 1.2238206-1.3418007 1.2216253-2.1159401z" fill="#f45170"/></g><g><path d="m14.382082 40.0785255 3.5839405 2.0827713c-.2220612-.1290627-.5298462-.1112595-.8719292.0862427l-3.583952-2.0827675c.3420811-.1975021.6498662-.2153015.8719407-.0862465z" fill="#fff"/></g><g><path d="m16.2311459 45.1474991-3.5839643-2.082756c-.2203836-.1280899-.3575792-.3994789-.3586693-.7840309-.0021944-.7741165.5479393-1.7269859 1.2216291-2.1159401l3.583952 2.0827675c-.6736889.3889542-1.2238226 1.3418236-1.2216282 2.1159363.00109.3845519.1382865.6559447.3586807.7840232z" fill="#fff"/></g><g><path d="m20.7524738 39.3413086-3.5839538-2.0827637-.004282-4.3695411 3.5839519 2.0827636z" fill="#f4d6d4"/></g><g><path d="m20.7481899 34.9717674-3.5839519-2.0827636-.0138169-2.0145512 3.5839539 2.0827656z" fill="#f4d6d4"/></g><g><path d="m20.734375 32.9572182-3.5839539-2.0827656-.0134143-1.9508 3.5839538 2.0827656z" fill="#f4d6d4"/></g><g><path d="m20.7209606 31.0064182-3.5839539-2.0827656c-.0004005-.0637493 6.1366463-6.1666622 6.2274113-14.2904739.0067844-.4466963.3145084-.9851303.6973419-1.2061596l3.5839539 2.0827656c-.3828354.2210302-.6905594.7594624-.6973419 1.2061596-.0907669 8.1238117-6.2278137 14.2267246-6.2274113 14.2904739z" fill="#f4d6d4"/></g><g><path d="m20.4276466 30.4922161-6.6799926 18.4400044-3.5800171-2.0900269c-.1799927-.0999756-.289978-.3300171-.3099976-.6499634l-.0200195-12.9100342c-.0100098-.6400146.4400024-1.4299946 1-1.7600117l5.2800293-3.0299683c.2799683-.1700439.5499878-.1799927.7399902-.0800171z" fill="#aa6256"/></g><g><path d="m20.7343731 32.9571953.0180988 6.3840904.0042801 4.369545.0090733.3404121c.0018501.6528664-.4593182 1.4422684-1.0193443 1.7656021l-5.2758656 3.0460205c-.5600262.3233337-1.0160875.0541496-1.0179119-.5893898l-.0365944-12.9080811c-.0018244-.6435127.4512491-1.4282684 1.0112753-1.7515984l5.2758665-3.0460224c.5184059-.2993031.9542522-.1026306 1.0176868.4386463zm-3.6322994 12.1069717c.6818218-.3936501 1.2238159-1.3417969 1.2216225-2.1159325-.0021954-.7741127-.5477867-1.0943642-1.2296066-.7007179-.6737041.3889656-1.2238388 1.341835-1.2216444 2.1159477.0021953.7741356.5559243 1.0896645 1.2296285.7007027" fill="#8a4852"/></g><g><path d="m18.3200703 42.952774c.0093517.7661209-.5325508 1.7190552-1.2145615 2.111496-.6727161.3923836-1.233264.0747032-1.233264-.7007141 0-.7754745.5511961-1.728466 1.2239122-2.111496.6820107-.4017372 1.2239133-.0747604 1.2239133.7007141z" fill="#fff"/></g><g><path d="m25.208456 13.3983908 3.5839348 2.0827847c-.4003563-.2326899-.8033047-.1430464-1.146677.0286093l-3.5839539-2.0827656c.3433724-.1716557.7463227-.2612992 1.1466961-.0286284z" fill="#f4d6d4"/></g><g><path d="m27.6457138 15.5097847c.3637581-.1818476.7943821-.2716551 1.2179699.0162754.4642887.3111401.7180653.9306583.7527637 1.6953506.0948601 1.9163704-.1915283 4.1462784-.761734 6.61479-.1045151.415329.123848.6665058.4565926.4743958l9.0093384-5.2669334c.9983444-.5763931 1.8856354-.1638241 1.840229 1.0114422-.0066643.5270004-.2001724 1.0964699-.4913445 1.6195736-.3074379.541832-.7369766 1.0140362-1.2239571 1.2951927l-.7304688.4310741-.2353706.135891c1.0632401-.6138611 1.9105759.0179596 1.6950684 1.4222279-.1515656 1.0310364-.9127388 2.1057587-1.740612 2.6024113l-.6898727.3982983c.9983444-.5763931 1.7964363-.1029797 1.7510262 1.0909767-.0456734 1.100687-.879364 2.4041061-1.8209 2.9477024l-.6330414.3748302-.5356941.3092842c.8197784-.4733009 1.576458-.256237 1.7495461.5686798.2308464 1.1465645-.601944 2.7670898-1.6814232 3.3903236l-11.3387413 6.6211624c-1.0795345.6232681-2.1195812.8220367-2.9739513.5679626l-.4962711-.1179008-.012392-4.3714867-.0042839-4.3695412-.0138149-2.0145493-.0134144-1.9507999c-.0004025-.0637493 6.1366444-6.1666622 6.2274113-14.2904739.0067823-.4466972.3145063-.9851294.6973417-1.2061596z" fill="#f5c9c6"/></g></g></g></g><g><g><g fill="#febc1f"><path d="m20.3676491 16.122221-2.2300415 3.7999878.5300293 3.2399902-2.7700196-.0700073-2.7600097 3.2600098-1.5099488-.8800049.5099488-3.7799683-.7299805-.4000244-1.5100098-.8800049 3.1000367-2.2999878 1.3699951-4.0200186 1.5100097.8800049.6999512 1.2000113 2.2700195-.9299917z"/><path d="m28.1876564 3.0321949-2.2300415 3.799988.5300293 3.2399902-2.7700195-.079956-2.75 3.2699585-1.5200196-.8800049.5100098-3.7899781-.7199707-.3900146-1.5200195-.8800049 3.0999756-2.3099975 1.3700561-4.0099489 1.5099487.8799439.7000122 1.200012 2.2800293-.9299926z"/><path d="m37.3576393 10.1122122.539978 3.2399902-2.7699585-.0700073-2.7600097 3.2600088-1.5100098-.8800039.5-3.7899781-.7200317-.3900146-1.5099488-.8800049 3.0999756-2.2999878 1.3699951-4.0200195 1.5100098.8800049.6900025 1.2100219 2.2799682-.9400024 1.5200195.8800049z"/></g></g><g enable-background="new"><g><path d="m17.2728958 17.3933773-1.5127907-.8791389 3.0924263-1.2679415 1.5127926.879138z" fill="#ffde9b"/></g><g><path d="m13.142128 26.3543682-1.5127907-.879137.5144854-3.8438931 1.5127906.8791371z" fill="#ffd06c"/></g><g><path d="m14.5097656 18.9886703-1.5127907-.879137 1.3677569-4.013092 1.5127907.879138z" fill="#ffd06c"/></g><g><path d="m11.4108982 21.2952747-1.5127907-.879137 3.0988674-2.3066044 1.5127907.879137z" fill="#ffde9b"/></g><g><path d="m15.8775225 14.9755793 1.3953733 2.417798 3.0924282-1.2679424-2.2314987 3.8001194.534565 3.2382259-2.7678614-.0729751-2.7584009 3.2635631.5144853-3.843893-2.2457151-1.2152005 3.0988674-2.3066044z" fill="#febc1f"/></g></g><g enable-background="new"><g><path d="m36.5014839 7.5815639-1.5127907-.8791379 3.0924263-1.2679415 1.5127907.879138z" fill="#ffde9b"/></g><g><path d="m32.3707161 16.5425568-1.5127907-.879139.5144863-3.843893 1.5127888.879138z" fill="#ffd06c"/></g><g><path d="m33.7383537 9.1768579-1.5127907-.879137 1.3677559-4.013092 1.5127907.8791375z" fill="#ffd06c"/></g><g><path d="m30.6394863 11.4834623-1.5127907-.879138 3.0988674-2.3066034 1.5127907.879137z" fill="#ffde9b"/></g><g><path d="m35.1061096 5.1637664 1.3953743 2.4177975 3.0924263-1.2679414-2.2314949 3.8001203.5345612 3.238225-2.7678604-.0729761-2.7584 3.2635651.5144844-3.843894-2.2457142-1.2152005 3.0988674-2.3066044z" fill="#febc1f"/></g></g><g enable-background="new"><g><path d="m25.0949287 4.2969356-1.5127925-.879138 3.0924282-1.2679417 1.5127906.8791379z" fill="#ffde9b"/></g><g><path d="m20.9641609 13.2579269-1.5127926-.879137.5144863-3.843894 1.5127907.879138z" fill="#ffd06c"/></g><g><path d="m22.3317966 5.8922296-1.5127906-.8791376 1.3677578-4.013092 1.5127906.8791379z" fill="#ffd06c"/></g><g><path d="m19.2329292 8.1988335-1.5127907-.8791376 3.0988675-2.3066039 1.5127906.8791376z" fill="#ffde9b"/></g><g><path d="m23.6995544 1.8791379 1.3953743 2.4177977 3.0924263-1.2679418-2.2314968 3.8001202.5345631 3.2382249-2.7678604-.0729761-2.7584 3.2635641.5144844-3.843893-2.2457161-1.2152004 3.0988674-2.3066039z" fill="#febc1f"/></g></g></g></g></svg>