<svg id="Layer_1" enable-background="new 0 0 53 53" height="512" viewBox="0 0 53 53" width="512" xmlns="http://www.w3.org/2000/svg"><g id="_x39_"><g><g><g><g><g><g><g><g><g><g><g><path d="m36.4201279 3.6879156-17.1600342 46.8299563-2.0899658-1.2199707c-.3200073-.1799927-.5200195-.5800171-.5200195-1.1400146l-.1000366-34.0100098c0-1.0999756.7700195-2.4400024 1.7200317-2.9899902l14.8300171-8.5599976c.4799805-.2700195.9099731-.2999878 1.2299805-.1199951z" fill="#1d2943"/></g><g><path d="m35.1918411 3.8132668c.9552345-.5515046 1.7321205-.1087842 1.7352333.9888587l.0965958 34.0733528c.0031128 1.0978775-.7687263 2.4347534-1.7239609 2.9862595l-14.77351 8.5294914c-.984127.5681839-1.7844868.1116219-1.787693-1.0189896l-.0964279-34.0132675c-.0031109-1.0976429.768528-2.4344034 1.7239647-2.9860258z" fill="#4c5c75"/></g><g><path d="m19.7268715 50.2213097c-.5159817 0-.5733833-.5946045-.5740986-.8502541l-.096426-34.0132637c-.002676-.9472265.6919346-2.1498222 1.5168304-2.62605l14.825798-8.5597048c.2059364-.1189089.4026756-.181771.5689316-.181771.4897194 0 .5442085.5685909.5448952.8130376l.0965958 34.0733566c.0026894.9473495-.6919212 2.1500702-1.5168152 2.626297l-14.7735157 8.5295172c-.2139797.1235161-.4187489.1888352-.5921955.1888352z" fill="#4c5c75"/></g><g><path d="m36.3211365 38.8789864c.0038872.8409882-.6389923 1.9499741-1.3731384 2.3753052l-14.7723656 8.5301704c-.1689701.0951691-.3282318.1495552-.4486485.1495552-.0874004 0-.1592617-.0272179-.2175255-.1553841-.0602074-.1398354-.0718594-.3166046-.0718594-.4098282l-.0951671-34.0117664c-.0019436-.8409872.6409245-1.9538641 1.3731251-2.3772497l14.8267555-8.5592861c.1592598-.0932217.3107452-.1437206.4253426-.1437206.0815659 0 .1417732.0252256.192276.1417766.0563164.1301122.0640945.2991066.0640945.3864961z" fill="#fff"/></g><g><path d="m36.2307587 7.1671305-16.8879738 10.2046156.0000038-2.0139818c-.0021305-.8430767.6408329-1.9544106 1.3731976-2.3780804l14.8263569-8.5586357c.1596756-.0936637.3108521-.1447577.4258041-.1447577.0809288 0 .1405449.0255728.1916389.1426787.0574875.1298399.0659866.2980394.0659866.3853621z" fill="#b0b8cf"/></g><g><g><path d="m33.2000961 4.5278811h-1.5599976c-.25-.2000122-.210022-.4899902.1199951-.6799924.3599854-.2000122.960022-.2000122 1.3200073 0 .3099977.1900022.3499757.4799802.1199952.6799924z" fill="#fff"/></g><g><path d="m31.7559109 4.4417028c-.0490608.0294728-.0882988.0588856-.1177711.0883584.0294724.0294127.0687103.0588856.1177711.0882988.3729649.2159538.9618778.2159538 1.3250179 0 .039238-.0195889.0784721-.0490618.1177711-.0784745v-.0098243c-.039299-.0294728-.0785332-.0588856-.1177711-.0883584-.3631401-.2060699-.9618797-.2060699-1.3250179 0z" fill="#111d33"/></g></g><g><g><g><path d="m29.5770569 9.1284237c.2065372-.1192446.3733463-.0242367.3740196.2131433.0006733.2373266-.1650543.5243244-.3715916.643569l-3.4861851 2.0127497c-.2065392.1192446-.3733253.0242233-.3739986-.2131042-.0006733-.2373791.1650314-.5243645.3715687-.6436081z" fill="#fff"/></g></g><g><g><path d="m35.1014137 6.3677225c0 .2367959-.1643753.5244627-.3718147.6438465l-3.4853382 2.0137043c-.2074375.1174126-.3737869.0234823-.3737869-.2133141-.0019588-.2387428.1643906-.5244627.3698692-.6438341l3.487299-2.0137043c.2054786-.1193838.3737716-.0234827.3737716.2133017z" fill="#fff"/></g></g><g><path d="m24.4256306 12.4242649c.0016651.3841534-.2677345.8481255-.6003265 1.0410547-.332592.1912241-.6036549.0382452-.6036549-.3459082-.0016651-.3824892.2677345-.8464613.5986614-1.0393505.3342571-.191224.6036549-.0382442.60532.344204z" fill="#fff"/></g><g><path d="m22.2565689 13.6774321c.001749.393218-.2743797.8685799-.6151714 1.0660534-.3407898.1957445-.6186581.0384531-.6186581-.3547649-.001749-.391468.2743797-.8668299.6134205-1.0643139.3425293-.1957341.61866-.0384427.620409.3530254z" fill="#fff"/></g></g></g></g></g></g></g><g><g><g><path d="m18.330101 19.177906-.0100098 2.7399902c0 .1799927-.0599976.2999878-.1599731.3599854l-.3099976.1699829-.7600098-4.0699463.3099976-.1800537c.0999756-.0499878.2299805-.0499878.3800049.0400391.2999878.1699829.5499878.5999756.5499878.9400024z" fill="#dedffb"/></g></g><g><g><path d="m17.4790134 18.4156284c-.1506462-.0869751-.2858753-.0942173-.385397-.039608-.0986099.057251-.1596775.178463-.1601658.3505077l-.0077781 2.7432519c-.0009804.3462067.2416477.7664528.5420189.9398708.1506386.0869732.286787.0958023.3863125.0401363.098608-.0561905.1596756-.1774025.1601677-.3515625l.0077782-2.7432518c.0009784-.345148-.2416497-.765398-.5429364-.9393444z" fill="#fff"/></g></g><g><g><path d="m18.3100815 24.1978645-.0100098 2.7400513c0 .1699829-.0599976.289978-.1599731.3499756l-.2999878.1799927-.7600098-4.0800171.2999878-.1699829c.1000366-.0599976.2399902-.0499878.3900146.039978.2999878.1700439.5399781.5900268.5399781.9400024z" fill="#dedffb"/></g></g><g><g><path d="m17.4647961 23.4303226c-.1506462-.0869751-.2858715-.0952721-.3853951-.0396061-.0986118.0572453-.1596794.1784592-.1601677.3505077l-.0077763 2.7432499c-.0009823.3462048.2416458.7664547.542017.9398727.1506405.0869732.2867889.0958004.3863125.0401363.0986099-.0572472.1596756-.1774025.1601696-.3515625l.0077763-2.7432518c.0009785-.3451479-.2416496-.7653979-.5429363-.9393462z" fill="#fff"/></g></g></g></g></g><g><g><g><g enable-background="new"><g><g><path d="m30.9300766 15.0178719-5.5799561 9.5400391-.7900391-.4500122c-.7000122-.4100342-1.1300049-1.2800293-1.1399536-2.5200195 0-2.4899902 1.75-5.5100098 3.9099731-6.7699585 1.0800171-.6200562 2.0800171-.6800537 2.789978-.2700195z" fill="#497bfe"/></g></g><g><g><path d="m32.0525703 17.5136585c.010067 2.4894447-1.7406025 5.5253239-3.9062099 6.7700138-2.1756763 1.2548199-3.9364777.2529888-3.9364777-2.236454-.010128-2.4893799 1.7405415-5.525259 3.9061508-6.7800798 2.1656075-1.2447519 3.9264088-.2429218 3.9365368 2.24652z" fill="#57b3fe"/></g></g></g></g></g><g><g><g><g><path d="m30.6800766 19.9478645c-.539978 1.2600098-1.4799805 2.4300537-2.539978 3.0500488-1.0700073.6099854-2.0100098.5199585-2.5599976-.1100464.4799805-1.3399658 1.4400024-2.6199951 2.5499878-3.2599487 1.1000366-.6400146 2.0700073-.4700317 2.5499878.3199463z" fill="#fff"/></g><g><path d="m26.9400864 18.3578987c-.0100098-.7600098.5200195-1.6699829 1.1799927-2.0499878.6500244-.3800049 1.1799927-.0700073 1.1799927.6799927.0100098.75-.5199585 1.6699829-1.1799927 2.039978-.6499634.3800049-1.1799927.0800171-1.1799927-.6699829z" fill="#fff"/></g></g></g></g></g><g><g><path d="m24.4300766 28.5878792-3.2599487 5.6300049-.4700317-.2700195c-.0999756-.0599976-.1599731-.1799927-.1599731-.3499756l-.0100098-2.8599854c0-.3500366.2399902-.7800293.5499878-.9500122l2.4799805-1.4400024c.1600342-.0900269.2900391-.0900269.3900146-.039978z" fill="#7e5af2"/></g><g><g><path d="m24.0355148 28.6250019c.3056946-.1764927.5522137-.032732.5532093.3185463l.0080872 2.8528576c.0009956.3512764-.2439117.7754631-.5496063.9519577l-2.4856071 1.4350662c-.3056946.1764908-.5522022.036026-.5531998-.3152542l-.0080872-2.8528557c-.0009956-.3512783.2439022-.7787609.5495987-.9552536z" fill="#b28afd"/></g></g><g><path d="m29.7000961 25.5479012-3.2600098 5.6300049-.4799805-.2700195c-.0900269-.0599976-.1600342-.1799927-.1600342-.3599854v-2.8500366c-.0099487-.3499756.2400513-.7799683.5500488-.9499512l2.4799805-1.4400024c.1500244-.0900269.289978-.1000366.3900146-.0400391z" fill="#df3260"/></g><g><g><path d="m29.3038387 25.5833321c.3057041-.1764984.5522137-.0327301.5532093.3185482l.0080872 2.8528557c.0009975.3512783-.2439022.7754593-.5496063.9519577l-2.4855957 1.4350605c-.305706.1764984-.5522041.036026-.5531998-.3152523l-.0080891-2.8528557c-.0009956-.3512783.2438946-.7787552.5495987-.9552536z" fill="#f45170"/></g></g><g enable-background="new"><g><g><path d="m34.9701157 22.5078621-3.2600098 5.6300049-.4799805-.2699585c-.1000366-.0599976-.1600342-.1799927-.1600342-.3600464l-.0100098-2.8499756c0-.3499756.25-.7799683.5499878-.960022l2.4900513-1.4299927c.1499634-.0899658.289978-.0999756.3899536-.039978z" fill="#5ec363"/></g></g><g><g><path d="m34.5721741 22.5416584c.3057022-.1764984.555069-.03438.5560646.3168964l.008091 2.8528576c.0009956.3512783-.2467613.7771091-.5524673.9536076l-2.4855957 1.4350605c-.3057041.1764984-.5522041.036026-.5531998-.3152523l-.0080872-2.8528576c-.0009975-.3512764.2438927-.7787533.5495987-.9552517z" fill="#78e75a"/></g></g></g><g><g><path d="m23.3053169 30.207571c.1468315-.0847721.2938461-.1051598.4069042-.0414333.2248917.1281395.2273178.5461502.0026512.9352894l-.9124031 1.5789051-.9171028-.5226402c-.2261353-.1288681-.2273178-.5461502-.0026512-.9352894.1123276-.1938534.2586536-.3428249.4051609-.427412.1465263-.0845966.2932167-.1047974.4062748-.0410709.0427227.0257778.0779266.0573349.1031456.1018696.026125-.0741768.0597935-.1454983.102232-.2204437.1123257-.1938535.258976-.3430101.4057884-.4277746z" fill="#fff"/></g></g><g><g><path d="m33.333313 24.0083084.3563156.5944843.7911148-.3125305-.5699081.9341259.1375389.7963734-.7091866-.0191994-.7042122.8042755.1311303-.9456081-.5735436-.2989884.7903671-.5659103z" fill="#fff"/></g></g><g><g><g><path d="m28.0619392 28.2862091c.605505-.3495884 1.1055756-.0807629 1.1075382.6117611l-2.2051678 1.2731552c-.0019645-.6925239.4949304-1.5369491 1.0976296-1.8849163z" fill="#fff"/></g></g><g><g><path d="m28.0582314 26.9788074c.2760048-.1593513.5020256-.0337696.5029144.2801323.0009098.3203754-.223671.702879-.4996758.8622303-.2731762.1577206-.4992065.0353756-.5001144-.2849998-.0008907-.3139019.2236996-.6996441.4968758-.8573628z" fill="#fff"/></g></g></g></g><g><g enable-background="new"><g><path d="m39.620079 26.0978889-18.4499511 14.9700318-.460022-.2700195c-.1099854-.0599976-.1699829-.1900024-.1699829-.3699951l-.0100098-3.3800049c0-.3699951.25-.8300171.5799561-1.0200195l17.6200562-10.1699829c.1599731-.0900269.3099976-.1000366.4099731-.039978z" fill="#febc1f"/></g><g><g><path d="m39.1941986 26.1282291c.3238983-.187006.5838852-.031414.5849419.3407707l.0095787 3.3794518c.0010567.3721848-.2572212.8195381-.5811195 1.0065422l-17.6206284 10.1732655c-.3238983.1870041-.5838623.0388565-.584919-.3333282l-.0095806-3.3794518c-.0010548-.3721848.2572002-.8269844.5810986-1.0139847z" fill="#ffd06c"/></g></g></g></g><g><g><g><g><path d="m24.580658 36.9776802c.00354.8751183-.6118755 1.9423256-1.3731575 2.3798752-.7648182.4411087-1.3837967.088932-1.3837967-.7861862-.003561-.8750954.6118565-1.9423027 1.3731365-2.3834114.76128-.4375725 1.3802585-.0853958 1.3838177.7897224z" fill="#fff"/></g></g></g><g><g><g><path d="m23.1970139 36.554184c.2301159-.1328583.4169693-.0261993.4177189.2378578.0007496.2644234-.1848907.5861397-.4150047.718998-.2299576.1327667-.4169693.0261993-.4177189-.238224-.0007497-.2640573.185049-.5858689.4150047-.7186318z" fill="#bf7d5a"/></g></g><g><g><g><path d="m23.2003269 37.7225037c.3897552-.2250252.7286015-.1658287.897213.1092224-.1903648.4449387-.5193119.8559608-.8938637 1.0722084-.3742332.2160645-.7044334.1856003-.8968525-.0383377.1665039-.4685326.5037499-.918068.8935032-1.1430931z" fill="#bf7d5a"/></g></g></g></g><g><g><g><path d="m26.5206299 34.263134.0014229.5018692-1.4293824.8252525-.0014228-.5018653z" fill="#fff"/></g></g><g><g><path d="m35.6140556 30.2804279.0014229.5018673-8.2083816 4.7391129-.0014229-.5018692z" fill="#fff"/></g></g><g><g><path d="m38.9575043 29.617487-5.1689453 2.984251.0014038.4988403 5.1675415-2.9835186z" fill="#fff"/></g></g><g><g><path d="m37.0795555 28.1669369.0014229.5018654-6.1410656 3.5455494-.0014229-.5018692z" fill="#fff"/></g></g><g><g><path d="m30.2343903 32.1189957.0014228.5018654-2.832304 1.635231-.0014228-.5018654z" fill="#fff"/></g></g><g><g><path d="m26.5278034 36.7937622.0014153.4988251-1.4293824.8252525-.0014133-.4988251z" fill="#fff"/></g></g><g><g><path d="m26.5242176 35.52845.0014229.5018654-1.4293823.8252525-.0014229-.5018654z" fill="#fff"/></g></g><g><g><path d="m33.3306236 32.8661537.0014153.4988251-2.0858402 1.204258-.0014134-.4988251z" fill="#fff"/></g></g><g><g><path d="m30.4692039 34.5181923.0014134.4988251-3.0599423 1.7666587-.0014133-.498825z" fill="#fff"/></g></g></g></g></g></g></g><g><g><g><path d="m22.3703308 41.9009552c.4277687-.2469749.79286-.0462456.7942734.4526329.0014362.506218-.3613453 1.1198311-.7891159 1.366806-.4405422.2543449-.7992268.0572701-.8006611-.4489479-.0014153-.4988785.3549595-1.1161461.7955036-1.370491z" fill="#e3e7f0"/></g></g><g><g><ellipse cx="30.564" cy="38.081" fill="#9ea9c9" rx="1.116" ry=".646" transform="matrix(.502 -.865 .865 .502 -17.718 45.373)"/></g></g><g><g><path d="m33.2944794 35.593895c.4341545-.2506599.7928619-.0462456.7942734.4526329.0014381.506218-.3549576 1.1161423-.7891159 1.3668022-.4405441.2543488-.7992249.0572739-.8006592-.4489441-.0014153-.4988785.3549575-1.1161461.7955017-1.370491z" fill="#8a98b5"/></g></g><g><g><path d="m27.8292122 38.7492676c.4341564-.2506599.7992477-.0499344.8006611.4489441.0014362.506218-.3613453 1.1198311-.7955017 1.3704948-.4405441.2543449-.7928448.0535851-.794281-.4526329-.0014134-.4988785.3485794-1.1124573.7891216-1.366806z" fill="#b0b8cf"/></g></g><g><g><path d="m25.0965748 40.3269577c.4341564-.2506638.7992477-.0499344.800663.4489441.0014343.506218-.3613472 1.1198311-.7955036 1.370491s-.792841.0535851-.7942753-.4526329c-.0014153-.4988785.3549595-1.1161423.7891159-1.3668022z" fill="#c9cee2"/></g></g></g><g><g><g><path d="m27.3738289 42.5855865c.3722248-.214901.6700287-.0452003.6712418.3825111.0012131.4277153-.2946587.9401932-.6668835 1.155098l-3.3217545 1.9178162c-.3722229.2149048-.6700287.0451851-.6712418-.3825302-.0012112-.4277153.2946587-.9401741.6668835-1.1550789z" fill="#f45170"/></g></g><g><g><path d="m32.9524879 39.3647461c.3722267-.2149048.6700287-.0452003.6712418.3825111.0012131.4277153-.2946587.9401932-.6668816 1.155098l-3.3217545 1.9178162c-.3722248.214901-.6700287.0451813-.6712418-.3825302-.0012131-.4277153.2946587-.9401741.6668835-1.1550789z" fill="#e93565"/></g></g></g><g><g><g><path d="m43.7801132 16.5078621-4.5300293 7.8400269-.6599731-.3800049c-.1400146-.0800171-.2200317-.25-.2200317-.5l-.0199585-3.960022c0-.4899902.3399658-1.0899658.7699585-1.3299561l3.460022-2c.210022-.1199951.4099731-.1300049.5499878-.0499878z" fill="#aa6256"/></g><g><g><path d="m43.2350464 16.562912c.4252853-.2455406.7722015-.0478287.7735863.4408283l.0112381 3.9642754c.0013847.4886894-.3432732 1.08568-.7685623 1.3312206l-3.4579048 1.9964218c-.4252892.2455387-.7682266.0455341-.7696114-.4431553l-.0112381-3.9642754c-.0013847-.488657.3392982-1.083353.7645874-1.3288937z" fill="#dba660"/></g></g><g><path d="m43.7600937 4.5978885-4.539978 7.8400273-.6500244-.3800049c-.1400146-.0800171-.2299805-.25-.2299805-.4899902l-.0100098-3.9700322c0-.4899902.3400269-1.0800171.7700195-1.3300171l3.4499512-2c.2200317-.1199951.4100342-.1300049.5500488-.0499878z" fill="#5ec363"/></g><g><g><path d="m43.2120247 4.6551452c.4252892-.2455406.7722015-.0478301.7735863.4408593l.0112495 3.9688272c.0013885.4886894-.3432846 1.0810957-.7685738 1.3266363l-3.4579048 1.9964218c-.4252892.2455406-.7682114.0501184-.7695999-.438571l-.0112495-3.9688272c-.0013847-.4886894.3392982-1.083384.7645874-1.3289247z" fill="#78e75a"/></g></g><g><g><g><path d="m41.7284813 18.8488464c.4310951-.2488918.7802086-.0473938.7816124.4466877.0000763.0280151-.0009537.055397-.0042.0853329.3425255-.1658726.6105385.0097466.6116753.4108715.0012093.4265938-.2959251.9412537-.664959 1.1543159l-1.8673286 1.0781021c-.3690338.2130623-.66922.0432644-.6704292-.3833294-.0009079-.3208981.171196-.6944962.4135628-.9504967.0255585-.3821011.2929268-.8247299.6209564-1.0141163.0465469-.0268745.0919952-.0480118.1352501-.0615044.1389617-.3174723.3745651-.6103857.6438598-.7658633z" fill="#fff"/></g></g></g></g><g><g><path d="m14.4101181 30.4778938-4.5300293 7.8400269-.6599731-.3800049c-.1400146-.0800171-.2200317-.25-.2200317-.5l-.0199585-3.9700317c0-.4799805.3399658-1.0800171.7699585-1.3200073l3.460022-2c.210022-.1199951.3999634-.1400146.539978-.0499878z" fill="#e93565"/></g><g><g><path d="m13.8647184 30.5297737c.4252882-.2455406.7722015-.0478287.7735872.4408607l.0112514 3.9688263c.0013857.4886894-.3432875 1.0810966-.7685766 1.3266373l-3.4579039 1.9964218c-.4252882.2455406-.7682123.0501175-.769598-.4385719l-.0112514-3.9688263c-.0013857-.4886894.3392982-1.0833855.7645874-1.3289261z" fill="#f45170"/></g></g></g><g><g><g><g><path d="m11.3802061 33.9242134c.0441332-.0254822.0880861-.0293465.1193571-.0043831.0573215.0425072.0519447.1606407-.0164032.265831l-.5979824.9401054.6041965.2427521c.0658636.0277252.074749.1376266.0178633.2493286-.0312891.060791-.0769262.1068649-.1226082.1332397-.0342674.019783-.0714273.0280876-.1029215.0166931l-.7416544-.3046989c-.0343695-.0163078-.0545034-.0539856-.0546522-.1065025-.0001583-.0557632.0196972-.1165276.0538712-.169136l.737505-1.1586914c.029767-.0470772.0666637-.083313.1034288-.104538z" fill="#fff"/></g></g><g><g><path d="m12.6725149 32.5845299c.022541-.0130119.0454855-.0207329.0673914-.0217018.0800705-.0035019.1146441.0849953.0777817.198307l-1.0547562 3.2579651c-.0283594.0853806-.0853653.1544456-.1453295.189064l-.0657244.0215187c-.0800705.0067787-.1146536-.0849876-.0777817-.1950073l1.0547466-3.2612343c.0267869-.0823326.0837947-.1543388.1436721-.1889114z" fill="#fff"/></g></g><g><g><path d="m12.9051552 33.0437851c.0374231-.0216064.0749855-.0283623.1049318-.0157623l.7416534.3047028c.0343599.0130348.0544844.0507202.0546427.1064835.0001488.0525169-.0196962.1132774-.0538607.1691513l-.7403622 1.1603432c-.0284796.0460205-.0655565.0805779-.1026793.1020088-.0456924.0263824-.0885754.031414-.1201162.006897-.0573311-.0457573-.0490875-.1655464.0164032-.2691116l.5979815-.9368286-.6013393-.2476768c-.0658636-.0277023-.0747576-.1375999-.0178633-.246048.0310269-.0609324.0757189-.1082423.1206084-.1341593z" fill="#fff"/></g></g></g></g><g><g><path d="m14.4400864 42.387867-4.539978 7.8400269-.6600342-.3900146c-.1399536-.0800171-.2199707-.25-.2199707-.4899902l-.0100098-3.9699707c0-.4900513.3400269-1.0800171.7600098-1.3300171l3.460022-1.9899902c.2099609-.1300049.4099731-.1400146.5499878-.0599976z" fill="#566df9"/></g><g><g><path d="m13.8647251 42.437542c.4252882-.2455406.7722015-.0478287.7735863.4408264l.0112391 3.9642754c.0013857.4886894-.3432741 1.0856819-.7685633 1.3312225l-3.4579039 1.9964218c-.4252882.2455406-.7682257.0455322-.7696114-.4431572l-.0112381-3.9642754c-.0013857-.4886551.3392982-1.0833511.7645874-1.3288918z" fill="#8fabfe"/></g></g><g><g><g><path d="m12.4503336 45.2055321c.1136475-.0656166.2048635-.0117683.2052231.1150894.00037.1305885-.0902538.2856827-.2039013.3512993-.1120234.0646744-.2032318.0145607-.2036018-.1160278-.0003596-.1268578.0902557-.2856865.20228-.3503609z" fill="#fff"/></g></g><g><g><path d="m11.560463 45.6557655.8592777 1.378109.572876-1.5584221.8019647 1.2374192-3.2973785 1.9037437z" fill="#fff"/></g></g></g></g></g><g><g><g><path d="m42.8648567 7.4747233.3361702-.1405034.001133.4000516-.335865.2475019c-.0296478.2687292-.114006.5504045-.2429848.8228979l.2033043.1948042-.2441292.4251757-.271904-.0783186c-.1716347.243536-.3737717.4604187-.5922775.623848l-.0454674.4129839-.3481483.201005-.047657-.3592196c-.220726.0901613-.4214134.1058502-.5938721.0609751l-.270565.3915138-.245739-.1423492.2015381-.4285412c-.1260605-.125247-.2137566-.3052568-.2448235-.5366011l-.3382034.1370106-.001133-.4000511.3378716-.2533131c.0316925-.2675848.1180649-.54809.2409859-.8170834l-.2033043-.1948118.2441367-.4228425.2718887.0759959c.1696243-.2423739.371769-.4569373.5882378-.6191845l.0495071-.4176478.3481483-.201005.0517197.3592057c.2166786-.087831.417366-.1035128.5898094-.0609608l.2705803-.3891912.2457314.1400166-.2015381.4285479c.1260529.1252498.2157746.3064208.2468491.5400905zm-1.3706627 2.1099773c.5121078-.2956657.925705-1.0120487.9240379-1.6005063-.0016632-.5861316-.4179573-.8210487-.9300652-.525383-.5121231.2956753-.9216728 1.0073924-.9200096 1.5935235.0016671.5884571.4139138.8280411.9260369.5323658" fill="#fff"/></g></g><g><g><path d="m41.4912567 7.8344393c.3279152-.1893229.5959778-.0342364.5970459.3425627.0010681.3767986-.2652473.8380795-.5931625 1.0274019-.3299332.1904869-.595974.0365629-.5970421-.3402367-.0010681-.3767986.2632255-.839241.5931587-1.0297279z" fill="#fff"/></g></g></g></g></svg>