<?xml version="1.0" encoding="utf-8"?>
<!-- Generator: Adobe Illustrator 25.2.1, SVG Export Plug-In . SVG Version: 6.00 Build 0)  -->
<svg version="1.1" id="Layer_1" xmlns="http://www.w3.org/2000/svg" xmlns:xlink="http://www.w3.org/1999/xlink" x="0px" y="0px"
	 viewBox="0 0 512 512" style="enable-background:new 0 0 512 512;" xml:space="preserve">
<style type="text/css">
	.st0{enable-background:new    ;}
	.st1{fill:#678AEE;}
	.st2{fill:#E3E7F0;}
	.st3{fill:#3B3E3F;}
	.st4{fill:#8FABFE;}
	.st5{fill:#111D33;}
	.st6{fill:#4C5C75;}
	.st7{fill:#FFFFFF;}
	.st8{fill:#FFD475;}
	.st9{fill:#D84905;}
	.st10{fill:url(#SVGID_1_);}
	.st11{fill:#F67205;}
	.st12{fill:url(#SVGID_2_);}
	.st13{fill:#F69D05;}
	.st14{fill:url(#SVGID_3_);}
	.st15{opacity:0.7;fill:url(#SVGID_4_);enable-background:new    ;}
	.st16{fill:url(#SVGID_5_);}
	.st17{opacity:0.7;fill:url(#SVGID_6_);enable-background:new    ;}
	.st18{fill:url(#SVGID_7_);}
	.st19{fill:#BA3E05;}
	.st20{opacity:0.5;fill:url(#SVGID_8_);enable-background:new    ;}
	.st21{opacity:0.4;fill:url(#SVGID_9_);enable-background:new    ;}
	.st22{opacity:0.4;fill:url(#SVGID_10_);enable-background:new    ;}
	.st23{clip-path:url(#SVGID_12_);}
	.st24{fill-rule:evenodd;clip-rule:evenodd;fill:url(#SVGID_13_);}
</style>
<g id="_x35_6">
	<g>
		<g class="st0">
			<g>
				<path class="st1" d="M421.7,198.5l-0.2,63.9l-23.3,13.5c0,15.6-0.3,100.8-0.3,95.6c1.4-0.8-53.3,30.8-179.1,103.7
					c-29.2,17-77,16.9-106.4,0c-14.7-8.6-22.1-19.8-22.1-31.1c0.1-21.4,0.7-264,0.8-285.6c0-11.1,7.2-22.1,21.8-30.6
					c185.2-107.2,22.3-12.9,179-103.7l30.8,17.7h0.1l-0.2,41.8l9,5.2h0.1l36.1-21l30.7,17.8v0.1c-0.2,110.1-0.2,98.1-0.2,99.1
					L421.7,198.5z"/>
			</g>
		</g>
	</g>
	<g>
		<path class="st1" d="M322.8,41.9l-0.4,91.4l-164.3,91.2l-41.2-52.9c0,0,6.7-29.9,8.1-30.3L322.8,41.9z"/>
		<path class="st1" d="M333.9,240.8l-0.1,55.5c0,7.4,8.1,12,14.5,8.4l49.8-28.8l-0.2,95.5l-46.8,27.1l-66.7,38l-65.6,38.6
			c-29.2,17-76.9,16.9-106.3,0c-14.7-8.6-22.2-19.8-22.2-31.1l0.8-285.6c0,11.2,7.3,22.5,22.2,31c29.4,17,77,17,106.3,0l179-103.7
			l-0.2,106.7l-54.8,31.8C337.6,227.7,334,234,333.9,240.8z"/>
		<path class="st2" d="M398.5,152.9l-0.2,39.6l-0.1,83.4l-0.1,30.2L219,409.8c-29.3,17-77.1,16.9-106.5,0c-14.7-8.7-22-19.8-22-31.1
			l0.3-153.1c0,11.1,7.4,22.5,22.3,30.9c29.3,17,77,17,106.2,0L398.5,152.9z"/>
		<path class="st3" d="M247.2,137.8l-19.8,11.6l-38.6,22.3L247.2,137.8z"/>
		<path class="st4" d="M168.8,131l-25.3,14.6c-12.3,7.2-12.2,18.8,0.2,26c9.7,5.6,24.1,6.9,35.7,3.7c1.7-0.3,3.3-0.9,4.8-1.6
			c1.5-0.5,3-1.3,4.4-2l58.4-33.9l13-7.5l31.8-18.4l75.8-43.9l30.8,17.8L219.5,189.4c-29.3,17-76.9,16.9-106.3,0
			c-29.4-17-29.6-44.5-0.3-61.5l55.8-32.4l23.6-13.6l99.6-57.7l30.8,17.8l-30.9,17.9L168.8,131z"/>
		<g>
			<g>
				<path class="st5" d="M421.7,198.5l-0.2,63.9l-82.5,48l-9.6-5.5l0.1-63.9l68.9-40v-16L421.7,198.5z"/>
			</g>
		</g>
		<g>
			<g>
				<path class="st5" d="M339.1,246.4l-0.2,63.8l-9.6-5.5l0.2-63.8L339.1,246.4z"/>
			</g>
			<g>
				<path class="st6" d="M421.7,198.4l-0.2,63.8l-82.6,48l0.2-63.8L421.7,198.4z"/>
			</g>
		</g>
		<g>
			<path class="st6" d="M421.7,198.4l-82.6,48l-9.6-5.5l68.8-40l0-16L421.7,198.4z"/>
		</g>
		<path class="st7" d="M380.3,234.9c7.8-4.5,14.3-0.9,14.4,8.3c0,9.1-6.4,20.3-14.3,24.8c-8,4.6-14.5,0.9-14.5-8.2
			C365.9,250.6,372.4,239.5,380.3,234.9z"/>
		<g class="st0">
			<g>
				<path class="st8" d="M331.8,88.9l-71.6,41.4l-13,7.5l-58.4,33.8c-1.4,0.8-2.9,1.6-4.3,2.1c-1.6,0.8-3.2,1.3-4.9,1.7
					c-11.5,3.2-25.9,1.9-35.7-3.7c-11.2-6.5-12.3-16.7-3.3-23.9l146.2-84.9L331.8,88.9z"/>
			</g>
		</g>
	</g>
</g>
<g>
	<g id="OBJECTS">
		<g>
			<polygon class="st9" points="201.1,426.3 216.1,446.9 208.1,445.8 193.2,425.3 			"/>
			
				<linearGradient id="SVGID_1_" gradientUnits="userSpaceOnUse" x1="430.6116" y1="-22.9221" x2="598.6866" y2="122.9152" gradientTransform="matrix(1 0 0 -1 -203.7553 454.9268)">
				<stop  offset="0" style="stop-color:#D13F05"/>
				<stop  offset="0.2925" style="stop-color:#F67205"/>
				<stop  offset="0.3667" style="stop-color:#F67705"/>
				<stop  offset="0.4526" style="stop-color:#F68505"/>
				<stop  offset="0.5441" style="stop-color:#F69C05"/>
				<stop  offset="0.5638" style="stop-color:#F6A205"/>
				<stop  offset="0.5977" style="stop-color:#F69005"/>
				<stop  offset="0.6432" style="stop-color:#F67F05"/>
				<stop  offset="0.6931" style="stop-color:#F67505"/>
				<stop  offset="0.7553" style="stop-color:#F67205"/>
				<stop  offset="1" style="stop-color:#D13F05"/>
			</linearGradient>
			<path class="st10" d="M372.4,303.9c5,6.8,10,13.7,14.9,20.5c10.1,14.1,15.5,31.1,15.3,48.5l-14.9-20.5
				C387.9,335,382.6,318,372.4,303.9z"/>
			<polygon class="st11" points="387.7,352.4 402.7,372.9 395.1,378.5 380.1,358 			"/>
			<polygon class="st9" points="312.1,452.7 327,473.3 323.8,478.4 308.9,457.9 			"/>
			
				<linearGradient id="SVGID_2_" gradientUnits="userSpaceOnUse" x1="435.8949" y1="-28.9959" x2="603.9612" y2="116.8338" gradientTransform="matrix(1 0 0 -1 -203.7553 454.9268)">
				<stop  offset="0" style="stop-color:#D13F05"/>
				<stop  offset="0.2925" style="stop-color:#F67205"/>
				<stop  offset="0.3667" style="stop-color:#F67705"/>
				<stop  offset="0.4526" style="stop-color:#F68505"/>
				<stop  offset="0.5441" style="stop-color:#F69C05"/>
				<stop  offset="0.5638" style="stop-color:#F6A205"/>
				<stop  offset="0.5977" style="stop-color:#F69005"/>
				<stop  offset="0.6432" style="stop-color:#F67F05"/>
				<stop  offset="0.6931" style="stop-color:#F67505"/>
				<stop  offset="0.7553" style="stop-color:#F67205"/>
				<stop  offset="1" style="stop-color:#D13F05"/>
			</linearGradient>
			<path class="st12" d="M308.9,457.9l14.9,20.5c-21.4,8.4-44.8,9.8-67,3.9c-15.7-4.2-29.8-13-40.5-25.2l-14.9-20.5
				c10.7,12.2,24.8,21,40.5,25.2C264,467.7,287.5,466.3,308.9,457.9z"/>
			<polygon class="st13" points="317.6,454.3 332.5,474.8 327,473.3 312.1,452.7 			"/>
			
				<linearGradient id="SVGID_3_" gradientUnits="userSpaceOnUse" x1="459.4974" y1="-56.1982" x2="627.5662" y2="89.6337" gradientTransform="matrix(1 0 0 -1 -203.7553 454.9268)">
				<stop  offset="0" style="stop-color:#D13F05"/>
				<stop  offset="0.2925" style="stop-color:#F67205"/>
				<stop  offset="0.3667" style="stop-color:#F67705"/>
				<stop  offset="0.4526" style="stop-color:#F68505"/>
				<stop  offset="0.5441" style="stop-color:#F69C05"/>
				<stop  offset="0.5638" style="stop-color:#F6A205"/>
				<stop  offset="0.5977" style="stop-color:#F69005"/>
				<stop  offset="0.6432" style="stop-color:#F67F05"/>
				<stop  offset="0.6931" style="stop-color:#F67505"/>
				<stop  offset="0.7553" style="stop-color:#F67205"/>
				<stop  offset="1" style="stop-color:#D13F05"/>
			</linearGradient>
			<path class="st14" d="M387.4,360l14.9,20.5c-1.1,11.8-4.1,23.3-9.1,34c-12.5,26.6-34,48-60.8,60.3l-14.9-20.5
				c26.7-12.3,48.2-33.6,60.8-60.3C383.3,383.3,386.4,371.8,387.4,360z"/>
			
				<linearGradient id="SVGID_4_" gradientUnits="userSpaceOnUse" x1="397.314" y1="11.0622" x2="582.9652" y2="162.0654" gradientTransform="matrix(1 0 0 -1 -203.7553 454.9268)">
				<stop  offset="0" style="stop-color:#FFFFFF;stop-opacity:0"/>
				<stop  offset="0.2606" style="stop-color:#FFFFFF"/>
				<stop  offset="0.7553" style="stop-color:#FFFFFF"/>
				<stop  offset="1" style="stop-color:#FFFFFF;stop-opacity:0"/>
			</linearGradient>
			<path class="st15" d="M388.3,361.2c-1.1,11.8-4.1,23.3-9.1,34c-12.5,26.6-34,48-60.8,60.3l-5.5-1.5l-3.2,5.2
				c-21.4,8.4-44.8,9.8-67,3.9c-15.7-4.2-29.8-13-40.5-25.2l-0.2-10.3l-8-1.1c-13.8-23.3-15.5-53.9-1.8-83.9
				c4.1-8.9,9.2-17.2,15.3-24.8c3.2-1.4,6.3-3.1,9.4-4.8l1.4-6.9c25.3-24.3,60.3-37.7,93.6-34.5l7.2,5.8l20.2,1
				c31.3,13.1,49.3,42.1,49.3,75.1l-7.6,5.6L388.3,361.2z"/>
			
				<linearGradient id="SVGID_5_" gradientUnits="userSpaceOnUse" x1="560.3889" y1="56.8645" x2="372.0936" y2="136.4035" gradientTransform="matrix(1 0 0 -1 -203.7553 454.9268)">
				<stop  offset="0" style="stop-color:#FFAF02"/>
				<stop  offset="1" style="stop-color:#F56D05"/>
			</linearGradient>
			<path class="st16" d="M387.4,360c-1.1,11.8-4.1,23.3-9.1,34c-12.5,26.6-34,48-60.8,60.3l-5.5-1.5l-3.2,5.2
				c-21.4,8.4-44.8,9.8-67,3.9c-15.7-4.2-29.8-13-40.5-25.2l-0.2-10.3l-8-1.1c-13.8-23.3-15.5-53.9-1.8-83.9
				c4.1-8.9,9.2-17.2,15.3-24.8c3.2-1.4,6.3-3.1,9.4-4.8l1.4-6.9c25.3-24.3,60.3-37.7,93.6-34.5l7.2,5.8l20.2,1
				c31.3,13.1,49.3,42.1,49.3,75.1l-7.6,5.6L387.4,360z"/>
			
				<linearGradient id="SVGID_6_" gradientUnits="userSpaceOnUse" x1="419.6403" y1="151.6921" x2="528.9265" y2="47.2318" gradientTransform="matrix(1 0 0 -1 -203.7553 454.9268)">
				<stop  offset="0" style="stop-color:#FFFFFF;stop-opacity:0"/>
				<stop  offset="0.2606" style="stop-color:#FFFFFF"/>
				<stop  offset="0.7553" style="stop-color:#FFFFFF"/>
				<stop  offset="1" style="stop-color:#FFFFFF;stop-opacity:0"/>
			</linearGradient>
			<path class="st17" d="M314.2,298.7c37.6,10.6,54,49.8,36.7,87.7c-17.3,37.8-61.8,60-99.4,49.4c-37.6-10.6-54-49.8-36.7-87.7
				S276.6,288.2,314.2,298.7z"/>
			
				<linearGradient id="SVGID_7_" gradientUnits="userSpaceOnUse" x1="413.6581" y1="87.2293" x2="563.5131" y2="87.2293" gradientTransform="matrix(1 0 0 -1 -203.7553 454.9268)">
				<stop  offset="0" style="stop-color:#CF4505"/>
				<stop  offset="1" style="stop-color:#E45905"/>
			</linearGradient>
			<path class="st18" d="M316.2,299.2c37.6,10.6,54,49.8,36.7,87.7c-17.3,37.8-61.8,60-99.4,49.4c-37.6-10.6-54-49.8-36.7-87.7
				C234.1,310.7,278.6,288.6,316.2,299.2z"/>
			<path class="st19" d="M259.5,437.4c-37.6-10.6-54-49.8-36.7-87.7c16-35,55.4-56.6,90.9-51.2c-37-9-80,13-96.9,50
				c-17.3,37.8-0.8,77.1,36.7,87.7c2.8,0.8,5.6,1.4,8.4,1.8C261.1,437.8,260.3,437.6,259.5,437.4z"/>
			
				<radialGradient id="SVGID_8_" cx="1193.2224" cy="-423.3577" r="56.0319" gradientTransform="matrix(7.290000e-02 7.410000e-02 0.4921 -0.4845 472.0643 138.2714)" gradientUnits="userSpaceOnUse">
				<stop  offset="0" style="stop-color:#FFFFFF"/>
				<stop  offset="8.578000e-02" style="stop-color:#FFFFFF;stop-opacity:0.9583"/>
				<stop  offset="0.2351" style="stop-color:#FFFFFF;stop-opacity:0.8462"/>
				<stop  offset="0.4301" style="stop-color:#FFFFFF;stop-opacity:0.6642"/>
				<stop  offset="0.6634" style="stop-color:#FFFFFF;stop-opacity:0.4119"/>
				<stop  offset="0.9261" style="stop-color:#FFFFFF;stop-opacity:9.449000e-02"/>
				<stop  offset="1" style="stop-color:#FFFFFF;stop-opacity:0"/>
			</radialGradient>
			<path class="st20" d="M354.8,436c-15.2,15-29.4,25.3-31.7,23c-2.3-2.3,8.3-16.3,23.5-31.3c15.2-15,29.4-25.3,31.7-23
				C380.5,407,370,421,354.8,436z"/>
			
				<linearGradient id="SVGID_9_" gradientUnits="userSpaceOnUse" x1="463.9399" y1="116.1078" x2="531.5004" y2="36.8439" gradientTransform="matrix(1 0 0 -1 -203.7553 454.9268)">
				<stop  offset="0" style="stop-color:#FFFFFF"/>
				<stop  offset="1" style="stop-color:#FFFFFF;stop-opacity:0"/>
			</linearGradient>
			<path class="st21" d="M365.8,296L201.3,432.2l0.1,4.4c10.7,12.2,24.8,21,40.5,25.2c3.8,1.1,7.6,1.9,11.4,2.5l128-106l-1.2-0.3
				l7.6-5.6C388,331.5,380.1,311.3,365.8,296z"/>
			
				<linearGradient id="SVGID_10_" gradientUnits="userSpaceOnUse" x1="424.5543" y1="152.5654" x2="460.6909" y2="115.9089" gradientTransform="matrix(1 0 0 -1 -203.7553 454.9268)">
				<stop  offset="0" style="stop-color:#FFFFFF"/>
				<stop  offset="1" style="stop-color:#FFFFFF;stop-opacity:0"/>
			</linearGradient>
			<path class="st22" d="M318.2,276.3l-7.2-5.8c-9.8-0.9-19.8-0.5-29.5,1.3L188.3,349c-5.2,13.7-7.2,28.5-5.8,43.1l139.7-115.6
				L318.2,276.3z"/>
			<g>
				<defs>
					<rect id="SVGID_11_" x="242.4" y="314" width="104.2" height="107.4"/>
				</defs>
				<clipPath id="SVGID_12_">
					<use xlink:href="#SVGID_11_"  style="overflow:visible;"/>
				</clipPath>
				<g class="st23">
					
						<linearGradient id="SVGID_13_" gradientUnits="userSpaceOnUse" x1="2443.2466" y1="1911.6116" x2="2443.2466" y2="1804.182" gradientTransform="matrix(1 0 0 1 -2148.7554 -1490.2074)">
						<stop  offset="0" style="stop-color:#FFC000"/>
						<stop  offset="0.28" style="stop-color:#FFC000"/>
						<stop  offset="0.55" style="stop-color:#DAA600"/>
						<stop  offset="1" style="stop-color:#DAA600"/>
					</linearGradient>
					<path class="st24" d="M260.7,357.7c-0.5-0.5-0.9-0.9-1.3-1.4c-4.4-5.4-7.6-11.7-9.3-18.5c-1.2-4.8-1.5-9.8-1-14.7
						c0.1-2.6,0.8-5.2,2.1-7.5c0.6-1.4,2.3-2.1,3.8-1.4c0,0,0.1,0,0.1,0c3.2,1.3,6,3.5,7.9,6.4c4.9,6.4,8.1,13.8,9.5,21.7
						c0.5,2.5,0.5,5,0.7,7.5c0.1,1,0.1,1.9,0.3,2.9c0.1,0.8,0.4,1.2,1.4,1.1c3.4-0.5,7-0.3,10.3,0.7c2.9,0.7,5.8,1.7,8.6,2.9
						c4,1.6,7.6,4,10.5,7.2c0.3,0.5,0.9,0.6,1.4,0.3c0,0,0,0,0,0c0.1-0.1,0.2-0.1,0.2-0.2c0.7-0.6,1.4-1.3,2-2
						c6.5-7.4,15-12.7,24.5-15.3c3-0.9,6.2-1.3,9.4-0.9c1.4,0.2,2.8,0.6,4,1.2c0.6,0.4,0.9,1,1,1.7c0.1,0.9,0,1.8-0.3,2.7
						c-1.3,3.7-3.4,7-6.1,9.8c-6.7,7.5-15.7,12.6-25.6,14.4c-0.7,0.2-1.5,0.2-2.3,0.3c0.1,0.6,0.2,1.1,0.4,1.6c1,3.4,1.4,7,1.2,10.5
						c-0.1,4.2-0.8,8.3-2.1,12.3c-1.5,4.6-3.8,8.9-6.8,12.6c-2.9,3.5-6.9,5.9-11.4,6.8c-3.2,0.9-6.4,1.1-9.7,0.8
						c-3.2-0.4-6.4-1-9.5-1.8c-3.2-0.9-6.4-2-9.5-3.3c-5.2-1.9-9.9-4.7-14-8.3c-4.3-3.6-7.2-8.6-8.2-14.1c-0.3-2.6-0.2-5.2,0.1-7.8
						c0.4-3.4,1.3-6.7,2.7-9.9c2-5,5-9.5,8.9-13.3c1.8-1.7,3.9-3.2,5.8-4.8L260.7,357.7z M264,396.1l-0.1,0.3
						c-3.5-0.3-4.3,2.2-3.7,4.7c0.1,0.4,0.2,0.8,0.3,1.2c0.8,2.9,2.7,5.4,5.3,6.9c2.6,1.3,5.2,2.3,8,3c3.9,1.2,8.2,0.2,11.1-2.7
						c1.4-0.9,1.9-2.7,1-4.2c-0.2-0.3-0.5-0.6-0.8-0.8c-1.6-1.3-3.4-2.3-5.2-3.2c-3.1-1.3-6.2-2.4-9.4-3.5
						C268.5,397.1,266.2,396.6,264,396.1L264,396.1z M261.1,369c0-2.4-0.9-3.6-2.6-4c-1.5-0.3-3,0.3-3.8,1.6c-3.6,4.5-6.3,9.6-8,15
						c-0.2,0.9-0.3,1.8-0.1,2.7c0.2,1.7,1.7,2.8,3.4,2.6c0.8-0.1,1.6-0.6,2.1-1.2c1.3-1.8,2.5-3.6,3.6-5.5c1.4-2.5,2.7-5,4-7.5
						C260.2,371.5,260.7,370.3,261.1,369L261.1,369z M311.1,388.5c-0.1-1-0.2-2-0.4-3c-0.5-1.8-2.3-2.8-4-2.3c0,0,0,0,0,0
						c-0.1,0-0.2,0.1-0.3,0.1c-1.3,0.5-2.2,1.7-2.3,3.1c-1.1,4.6-2.2,9.1-3.1,13.8c-0.3,1.4-0.3,2.9,0,4.3c0.3,1.6,1.8,2.6,3.4,2.3
						c0.4-0.1,0.7-0.2,1-0.4c1.1-0.7,1.9-1.7,2.3-3c0.9-2.6,1.7-5.2,2.3-7.8C310.4,393.1,310.7,390.7,311.1,388.5L311.1,388.5z"/>
				</g>
			</g>
		</g>
	</g>
</g>
</svg>
